<?xml version="1.0" encoding="utf-8"?>
<!-- Generator: Adobe Illustrator 19.0.0, SVG Export Plug-In . SVG Version: 6.00 Build 0)  -->
<svg version="1.1" id="Layer_1" xmlns="http://www.w3.org/2000/svg" xmlns:xlink="http://www.w3.org/1999/xlink" x="0px" y="0px"
	 viewBox="0 0 300 300" style="enable-background:new 0 0 300 300;" xml:space="preserve">
<style type="text/css">
	.st0{clip-path:url(#SVGID_2_);}
	.st1{clip-path:url(#XMLID_3_);}
	.st2{clip-path:url(#SVGID_4_);}
	.st3{fill:#F1F1F2;stroke:#404041;stroke-miterlimit:10;}
	.st4{fill:#C5C7C9;}
	.st5{fill:#929497;}
	.st6{fill:#FFFFFF;stroke:#404041;stroke-miterlimit:10;}
	.st7{fill:#F1F1F2;}
	.st8{fill:none;stroke:#808184;stroke-width:0.5;stroke-miterlimit:10;stroke-dasharray:1,2;}
	.st9{fill:none;stroke:#404041;stroke-miterlimit:10;}
	.st10{fill:#DBDCDD;}
	.st11{fill:#404041;stroke:#D0D2D3;stroke-width:0.5;stroke-miterlimit:10;}
	.st12{fill:#FFFFFF;stroke:#6D6E70;stroke-miterlimit:10;}
	.st13{fill:#FFFFFF;stroke:#929497;stroke-width:0.25;stroke-miterlimit:10;}
	.st14{fill:#404041;}
	.st15{fill:none;stroke:#6D6E70;stroke-width:0.5;stroke-miterlimit:10;}
	.st16{fill:none;stroke:#C5C7C9;stroke-miterlimit:10;}
	.st17{fill:#9AA0BB;}
</style>
<g>
	<defs>
		<circle id="SVGID_1_" cx="150.1" cy="149.6" r="150"/>
	</defs>
	<use xlink:href="#SVGID_1_"  style="overflow:visible;fill:#DDDDDD;"/>
	<clipPath id="SVGID_2_">
		<use xlink:href="#SVGID_1_"  style="overflow:visible;"/>
	</clipPath>
	<g id="XMLID_4081_" class="st0">
		<defs>
			<rect id="XMLID_4118_" y="-0.4" width="300" height="300"/>
		</defs>
		<clipPath id="XMLID_3_">
			<use xlink:href="#XMLID_4118_"  style="overflow:visible;"/>
		</clipPath>
		<g class="st1">
			<defs>
				<rect id="SVGID_3_" x="33.2" y="-23.7" width="330" height="285.2"/>
			</defs>
			<clipPath id="SVGID_4_">
				<use xlink:href="#SVGID_3_"  style="overflow:visible;"/>
			</clipPath>
			<g class="st2">
				<g>
					<path class="st3" d="M94-346.9c0,0,30.6-5.3,104-5.3s104.5,5.3,104.5,5.3s-37.5,21.1-95,21.3C150-325.3,94-346.9,94-346.9z"/>
					<g>
						<path class="st4" d="M93.7-346.7c0,0,74.7,7.5,109,7.5s98.3-7.5,98.3-7.5L289.8-322l-110.7,21.9l-47.8-13.2l-29.6-14.2
							L93.7-346.7z"/>
						<path class="st5" d="M93.7-344.2c0,0,74.7,7.5,109,7.5s98.3-7.5,98.3-7.5l-11.2,24.6l-110.7,21.9l-47.8-13.2L101.7-325
							L93.7-344.2z"/>
					</g>
					<path class="st6" d="M91.1-327.6c0,0-9.3,42.6-9.3,96.3c0,52.5-16.4,453.3-17.1,471.9c0,0.4,0.2,0.8,0.6,1
						c2.8,1.4,15.5,6.8,41.6,6.8c26.4,0,43.7-3.5,47.4-4.3c0.4-0.1,0.8-0.5,0.8-0.9l52.5-450.6l-7.4-115.3L91.8-334.4L91.1-327.6z"
						/>
					<g>
						<path class="st7" d="M186.2-316.3v99.5c0,0-0.2,4.9,3,9.3l5.2-71.9v-36.8L186.2-316.3z"/>
						<path class="st4" d="M187.5-316.3v99.5c0,0-0.2,4.9,3,9.3l5.2-71.9v-36.8L187.5-316.3z"/>
					</g>
					<g>
						<path class="st7" d="M189.2-209.3c0,0,0.8,46.8,3.4,62.1c2.9,16.8,4.6,25.8,4.6,25.8l0.2-5.7l-2.5-68.2L189.2-209.3z"/>
						<path class="st4" d="M189.5-215.5c0,0,1.7,48.5,4.7,65.7c2.7,15.3,3.1,26.6,3.1,26.6l1.9-12.9l-2.5-68.2L189.5-215.5z"/>
					</g>
					<path class="st6" d="M305.6-327.6c0,0,9.3,42.6,9.3,96.3c0,52.5,16.4,453.3,17.1,471.9c0,0.4-0.2,0.8-0.6,1
						c-2.8,1.4-15.5,6.8-41.6,6.8c-26.4,0-43.7-3.5-47.4-4.3c-0.4-0.1-0.8-0.5-0.8-0.9l-3.1-26.3l-49.4-424.3v-115.6l115.7-11.3
						L305.6-327.6z"/>
					<path class="st8" d="M189.2-315.9l18-3.8v4.5v62.3c0,13.3-4.2,26.3-11.9,37.1l-6,6.5"/>
					<line class="st6" x1="189.2" y1="-209.3" x2="189.2" y2="-314.7"/>
					<g>
						<path class="st7" d="M305.1-328.9l-0.7-6.6l-12.6-1.4l-93.4,7.2l-93.4-7.2l-12.6,1.4l-0.7,6.6l-0.6,1.6l4.7,1l0.4,0.4l3.6,0.6
							l0.4-0.2c0,0,15.9,4,28,5.5c12.1,1.5,26.9,3.1,26.9,3.1l1,0.6l4.9,0.5l1.1-0.7c0,0,12.2,1.9,27.1,1.9c0.1,0,0.3,0,0.4,0
							c14.6,0,17.7,0,17.7,0c0.1,0,0.3,0,0.4,0c14.9,0,27.1-1.9,27.1-1.9l1.1,0.7l4.9-0.5l1-0.6c0,0,14.8-1.6,26.9-3.1
							c12.1-1.5,28-5.5,28-5.5l0.4,0.2l3.6-0.6l0.4-0.4l4.7-1L305.1-328.9z"/>
						<path class="st4" d="M305-329.4l-0.7-6.6l-12.6-1.4l-93.4,7.2l-93.4-7.2L92.3-336l-0.7,6.6l-0.6,1.6l4.7,1l0.4,0.4l3.6,0.6
							l0.4-0.2c0,0,15.9,4,28,5.5c12.1,1.5,26.9,3.1,26.9,3.1l1,0.6l4.9,0.5l1.1-0.7c0,0,12.2,1.9,27.1,1.9c0.1,0,0.3,0,0.4,0
							c14.6,0,17.7,0,17.7,0c0.1,0,0.3,0,0.4,0c14.9,0,27.1-1.9,27.1-1.9l1.1,0.7l4.9-0.5l1-0.6c0,0,14.8-1.6,26.9-3.1
							c12.1-1.5,28-5.5,28-5.5l0.4,0.2l3.6-0.6l0.4-0.4l4.7-1L305-329.4z"/>
					</g>
					<g>
						<path class="st7" d="M288.8-325.2c0,0,6.9,30,12.4,45.2c5.5,15.2,12.3,30.3,12.3,30.3s-15.2-28.7-21.3-48
							c-6.1-19.3-6.5-29.1-6.5-29.1L288.8-325.2z"/>
						<path class="st4" d="M287.1-325.2c0,0,6.9,30,12.4,45.2c5.5,15.2,13.1,28.5,13.1,28.5s-14.2-26.9-20.3-46.2
							c-6.1-19.3-6.5-29.1-6.5-29.1L287.1-325.2z"/>
					</g>
					<path class="st9" d="M285.8-325.2c0,0-0.3,10.3,10.4,38.2c10.7,27.9,18,38.2,18,38.2"/>
					<g>
						<path class="st7" d="M107.4-325.7c0,0-6.9,30-12.4,45.2c-5.5,15.2-12.3,30.3-12.3,30.3s15.2-28.7,21.3-48
							c6.1-19.3,6.5-29.1,6.5-29.1L107.4-325.7z"/>
						<path class="st4" d="M109.1-325.7c0,0-6.9,30-12.4,45.2C91.2-265.3,83.6-252,83.6-252s14.2-26.9,20.3-46.2
							c6.1-19.3,6.5-29.1,6.5-29.1L109.1-325.7z"/>
					</g>
					<path class="st9" d="M110.4-325.7c0,0,0.3,10.3-10.4,38.2c-10.7,27.9-18,38.2-18,38.2"/>
					<g>
						<path class="st6" d="M303.7-346.2c-0.2-0.5-0.7-0.8-1.2-0.7c-7.8,1.6-64.1,12.5-104.2,12.9c-40.2-0.4-96.4-11.3-104.2-12.9
							c-0.5-0.1-1,0.2-1.2,0.7c-3.1,9.6-2,14.8-1.4,16.4c0.1,0.3,0.4,0.6,0.8,0.7c22.3,5.5,64.2,12.9,106.1,12.9
							s83.8-7.4,106.1-12.9c0.4-0.1,0.6-0.4,0.8-0.7C305.6-331.3,306.8-336.5,303.7-346.2z"/>
						<g>
							<polygon class="st7" points="162.4,-336.2 163.7,-336 162.5,-317.8 160.7,-317.6 161.1,-335.8 							"/>
							<polygon class="st4" points="161.7,-336.2 162.9,-336 161.8,-317.8 160,-317.6 160.4,-335.8 							"/>
						</g>
						<g>
							<polygon class="st7" points="239.6,-336.7 240.9,-336.6 242,-318.4 240.2,-318.1 238.4,-336.1 							"/>
							<polygon class="st4" points="238.9,-336.6 240.1,-336.5 241.2,-318.3 239.4,-318 237.6,-336.1 							"/>
						</g>
						<g>
							<polygon class="st7" points="299.2,-346.2 300.4,-346.2 302,-328 300.2,-327.6 297.9,-345.7 							"/>
							<polygon class="st4" points="298.4,-346.1 299.7,-346.1 301.2,-327.9 299.5,-327.5 297.2,-345.6 							"/>
						</g>
						<g>
							<polygon class="st7" points="102.8,-345 104,-344.7 102.2,-326.6 100.4,-326.5 101.5,-344.7 							"/>
							<polygon class="st4" points="102.1,-345 103.3,-344.8 101.4,-326.6 99.6,-326.5 100.7,-344.7 							"/>
						</g>
						<path class="st6" d="M156.2-318.3l1-18.1c0-0.6,0.5-1,1.2-1.1l2.5,0.2c0.9,0.1,1.3,0.4,1.3,1l-0.9,18.1c0,0.6-0.5,1-1.2,1.1
							l-2.5-0.3C156.8-317.2,156.2-317.7,156.2-318.3z"/>
						<path class="st6" d="M96.1-328.1l1.6-17.5c0-0.5,0.5-1,1.2-1l2.2,0.5c0.7,0,1.2,0.4,1.2,0.9l-1.6,17.5c0,0.5-0.5,1-1.1,1
							l-2.2-0.4C96.7-327.2,96.1-327.6,96.1-328.1z"/>
						<path class="st6" d="M300.4-328.1l-1.6-17.5c0-0.5-0.5-1-1.2-1l-2.2,0.5c-0.7,0-1.2,0.4-1.2,0.9l1.6,17.5c0,0.5,0.5,1,1.1,1
							l2.2-0.4C299.8-327.2,300.4-327.6,300.4-328.1z"/>
						<g>
							<rect x="172.1" y="-335.3" class="st7" width="1.2" height="19.1"/>
							<rect x="172.7" y="-335.3" class="st4" width="1.2" height="19.1"/>
						</g>
						<path class="st6" d="M173.8-335.3l-0.1,19.9c0,0,15.1,1.4,35.2,0.3s28.3-2.4,28.3-2.4l-3.1-18.7c0,0-19.2,1.7-31.6,1.9
							C188.3-334.2,173.8-335.3,173.8-335.3z"/>
						<path class="st6" d="M240.3-318.3l-1-18.1c0-0.6-0.5-1-1.2-1.1l-2.5,0.2c-0.9,0.1-1.3,0.4-1.3,1l0.9,18.1c0,0.6,0.5,1,1.2,1.1
							l2.5-0.3C239.6-317.2,240.2-317.7,240.3-318.3z"/>
						<g id="XMLID_7238_">
							<circle id="XMLID_8046_" class="st7" cx="182.7" cy="-324.8" r="5.4"/>
							<circle id="XMLID_8045_" class="st10" cx="182.8" cy="-325.1" r="5.2"/>
							<polygon id="XMLID_8044_" class="st11" points="189.5,-325.3 182.9,-326.6 175.5,-325.3 182.9,-324 							"/>
							<circle id="XMLID_8043_" class="st12" cx="182.7" cy="-325.8" r="5.2"/>
							<circle id="XMLID_8042_" class="st13" cx="182.7" cy="-325.8" r="4.5"/>
							<circle id="XMLID_8041_" class="st14" cx="181.8" cy="-327" r="0.6"/>
							<circle id="XMLID_7374_" class="st14" cx="183.4" cy="-323.7" r="0.6"/>
							<line id="XMLID_7248_" class="st15" x1="181.6" y1="-327" x2="183.1" y2="-323.7"/>
							<line id="XMLID_7245_" class="st15" x1="182" y1="-327.1" x2="183.6" y2="-323.9"/>
							<line id="XMLID_7244_" class="st15" x1="181.6" y1="-327" x2="183.1" y2="-323.7"/>
							<line id="XMLID_7243_" class="st15" x1="182" y1="-327.1" x2="183.6" y2="-323.9"/>
							<circle id="XMLID_7242_" class="st14" cx="181" cy="-324.5" r="0.6"/>
							<circle id="XMLID_7241_" class="st14" cx="184.2" cy="-326.1" r="0.6"/>
							<line id="XMLID_7240_" class="st15" x1="181" y1="-324.3" x2="184.2" y2="-325.9"/>
							<line id="XMLID_7239_" class="st15" x1="180.8" y1="-324.7" x2="184" y2="-326.3"/>
						</g>
					</g>
					<g>
						<path class="st7" d="M253.4,19.9c7.5,62,34.3,216.4,34.3,216.4l-49.6-482.8C238.1-246.5,245.9-42.1,253.4,19.9z"/>
						<path class="st7" d="M267.5-13.1c-7.5-62-29.2-233.4-29.2-233.4l49.6,482.8C287.9,236.3,274.9,48.9,267.5-13.1z"/>
					</g>
					<line class="st16" x1="237.3" y1="-259.3" x2="288.8" y2="248"/>
					<g>
						<path class="st7" d="M144.6,19.9c-7.5,62-34.3,216.4-34.3,216.4L160-246.5C160-246.5,152.1-42.1,144.6,19.9z"/>
						<path class="st7" d="M134.9-30.1c7.5-62,24.8-216.4,24.8-216.4l-49.6,482.8C110.2,236.3,127.5,31.9,134.9-30.1z"/>
					</g>
					<line class="st16" x1="160.7" y1="-259.3" x2="109.2" y2="248"/>
				</g>
				<g>
					<path class="st7" d="M238.9,217.5c0,0,27.1,3.5,47.2,3.5s45.1-3.5,45.1-3.5l0.1,4.2c0,0-38.6,10.9-49.3,9
						c-10.7-2-40.3-6.8-40.3-6.8l-2.4-3.3L238.9,217.5z"/>
					<path class="st4" d="M238.9,219.4c0,0,27.1,3.5,47.2,3.5s45.1-3.5,45.1-3.5l0.1,4.2c0,0-38.6,10.9-49.3,9
						c-10.7-2-40.3-6.8-40.3-6.8l-2.4-3.3L238.9,219.4z"/>
				</g>
				<path class="st6" d="M333.8,221.9v20.5c0,0.4-0.2,0.8-0.6,0.9c-2.4,1.1-12.5,4.9-43.2,4.9c-31.6,0-47.5-4-50.9-5
					c-0.4-0.1-0.7-0.5-0.8-1l-0.9-20.4c0-0.7,0.5-1.2,1.2-1.1c5.4,0.7,27.2,3.3,49.1,3.3c21.6,0,40.1-2.6,44.9-3.3
					C333.2,220.8,333.8,221.3,333.8,221.9z"/>
				<g>
					<path class="st7" d="M157.5,217.5c0,0-27.1,3.5-47.2,3.5s-45.1-3.5-45.1-3.5l-0.1,4.2c0,0,38.6,10.9,49.3,9s40.3-6.8,40.3-6.8
						l2.4-3.3L157.5,217.5z"/>
					<path class="st4" d="M157.5,219.4c0,0-27.1,3.5-47.2,3.5s-45.1-3.5-45.1-3.5l-0.1,4.2c0,0,38.6,10.9,49.3,9
						c10.7-2,40.3-6.8,40.3-6.8l2.4-3.3L157.5,219.4z"/>
				</g>
				<path class="st6" d="M62.7,221.9v20.5c0,0.4,0.2,0.8,0.6,0.9c2.4,1.1,12.5,4.9,43.2,4.9c31.6,0,47.5-4,50.9-5
					c0.4-0.1,0.7-0.5,0.8-1l0.9-20.4c0-0.7-0.5-1.2-1.2-1.1c-5.4,0.7-27.2,3.3-49.1,3.3c-21.6,0-40.1-2.6-44.9-3.3
					C63.3,220.8,62.7,221.3,62.7,221.9z"/>
			</g>
		</g>
	</g>
	<g id="XMLID_1_" class="st0">
		<defs>
			<rect id="XMLID_4932_" x="-13.5" width="327.1" height="300"/>
		</defs>
		<clipPath id="XMLID_4_">
			<use xlink:href="#XMLID_4932_"  style="overflow:visible;"/>
		</clipPath>
	</g>
	<g class="st0">
		<path class="st17" d="M150.1,4.6c38.7,0,75.1,15.1,102.5,42.5c27.4,27.4,42.5,63.8,42.5,102.5s-15.1,75.1-42.5,102.5
			c-27.4,27.4-63.8,42.5-102.5,42.5S75,279.5,47.6,252.1C20.2,224.7,5.1,188.3,5.1,149.6S20.2,74.5,47.6,47.1
			C75,19.7,111.4,4.6,150.1,4.6 M150.1-0.4c-82.8,0-150,67.2-150,150s67.2,150,150,150s150-67.2,150-150S232.9-0.4,150.1-0.4
			L150.1-0.4z"/>
	</g>
</g>
</svg>
