<?xml version="1.0" encoding="utf-8"?>
<!-- Generator: Adobe Illustrator 19.0.0, SVG Export Plug-In . SVG Version: 6.00 Build 0)  -->
<svg version="1.1" id="Layer_1" xmlns="http://www.w3.org/2000/svg" xmlns:xlink="http://www.w3.org/1999/xlink" x="0px" y="0px"
	 viewBox="0 0 300 300" style="enable-background:new 0 0 300 300;" xml:space="preserve">
<style type="text/css">
	.st0{clip-path:url(#SVGID_2_);}
	.st1{clip-path:url(#XMLID_3_);}
	.st2{fill:#DBDCDD;}
	.st3{fill:#404041;}
	.st4{fill:#CACCCE;}
	.st5{fill:#FFFFFF;}
	.st6{fill:#808184;}
	.st7{fill:#D0D2D3;}
	.st8{fill:#9AA0BB;}
</style>
<g>
	<defs>
		<circle id="SVGID_1_" cx="150.1" cy="149.6" r="150"/>
	</defs>
	<use xlink:href="#SVGID_1_"  style="overflow:visible;fill:#DDDDDD;"/>
	<clipPath id="SVGID_2_">
		<use xlink:href="#SVGID_1_"  style="overflow:visible;"/>
	</clipPath>
	<g id="XMLID_4081_" class="st0">
		<defs>
			<rect id="XMLID_4118_" y="-0.4" width="300" height="300"/>
		</defs>
		<clipPath id="XMLID_3_">
			<use xlink:href="#XMLID_4118_"  style="overflow:visible;"/>
		</clipPath>
		<g id="XMLID_56_" class="st1">
			<g id="XMLID_830_">
				<path class="st2" d="M260.7,89.9v-0.6c0-2-1.6-3.7-3.7-3.7H39.3c-2,0-3.7,1.6-3.7,3.7V92l3.7-2H260.7z"/>
				<path class="st3" d="M261.3,89.3v1.2H39.5L35,93.1v-3.7c0-2.4,1.9-4.3,4.3-4.3H257C259.4,85,261.3,86.9,261.3,89.3z M39.2,89.3
					H260c0-1.6-1.4-3-3-3H39.3c-1.7,0-3,1.4-3,3v1.5L39.2,89.3z"/>
			</g>
			<g id="XMLID_829_">
				<path class="st4" d="M35.6,95.2c0,0,0-7.5,3.7-7.3h217.8l3.6,2H39.3L35.6,95.2z"/>
			</g>
			<g id="XMLID_62_">
				<g id="XMLID_828_">
					<path class="st5" d="M39.3,214.4c-2,0-3.7-1.6-3.7-3.7V93.6c0-2,1.6-3.7,3.7-3.7h221.4c2,0,3.7,1.6,3.7,3.7v117.1
						c0,2-1.6,3.7-3.7,3.7H39.3z"/>
					<path class="st3" d="M265,93.6v117.1c0,2.4-1.9,4.3-4.3,4.3H39.3c-2.4,0-4.3-1.9-4.3-4.3V93.6c0-2.4,1.9-4.3,4.3-4.3h221.4
						C263.1,89.3,265,91.2,265,93.6z M260.7,213.7c1.7,0,3-1.4,3-3V93.6c0-1.7-1.3-3-3-3H39.3c-1.7,0-3,1.4-3,3v117.1
						c0,1.7,1.4,3,3,3H260.7z"/>
				</g>
				<g id="XMLID_64_">
					<g>
						<rect x="260.7" y="92" class="st6" width="0.6" height="0.6"/>
					</g>
					<g>
						<path class="st6" d="M261.3,96.5h-0.6v-1.3h0.6V96.5z M261.3,100.3l-0.6,0V99h0.6V100.3z M261.3,104.2h-0.6v-1.3h0.6V104.2z
							 M261.3,108.1h-0.6v-1.3h0.6V108.1z M261.3,111.9h-0.6v-1.3h0.6V111.9z M261.3,115.8h-0.6v-1.3h0.6V115.8z M261.3,119.7h-0.6
							v-1.3h0.6V119.7z M261.3,123.5h-0.6v-1.3h0.6V123.5z M261.3,127.4h-0.6v-1.3h0.6V127.4z M261.3,131.3h-0.6V130h0.6V131.3z
							 M261.3,135.1h-0.6v-1.3h0.6V135.1z M261.3,139h-0.6v-1.3h0.6V139z M261.3,142.9h-0.6v-1.3h0.6V142.9z M261.3,146.7h-0.6v-1.3
							h0.6V146.7z M261.3,150.6h-0.6v-1.3h0.6V150.6z M261.3,154.5h-0.6v-1.3h0.6V154.5z M261.3,158.3h-0.6V157h0.6V158.3z
							 M261.3,162.2h-0.6v-1.3h0.6V162.2z M261.3,166.1h-0.6v-1.3h0.6V166.1z M261.3,169.9h-0.6v-1.3h0.6V169.9z M261.3,173.8h-0.6
							v-1.3h0.6V173.8z M261.3,177.7h-0.6v-1.3h0.6V177.7z M261.3,181.5h-0.6v-1.3h0.6V181.5z M261.3,185.4h-0.6v-1.3h0.6V185.4z
							 M261.3,189.3h-0.6V188h0.6V189.3z M261.3,193.1h-0.6v-1.3h0.6V193.1z M261.3,197h-0.6v-1.3h0.6V197z M261.3,200.9h-0.6v-1.3
							h0.6V200.9z M261.3,204.7h-0.6v-1.3h0.6V204.7z M261.3,208.6h-0.6v-1.3h0.6V208.6z M260.6,211.2c-0.4,0.3-0.9,0.5-1.4,0.6
							l0-0.6c0.4,0,0.7-0.2,1-0.4L260.6,211.2z M256.7,211.8h-1.3v-0.6h1.3V211.8z M252.8,211.8h-1.3v-0.6h1.3V211.8z M248.9,211.8
							h-1.3v-0.6h1.3V211.8z M245.1,211.8h-1.3v-0.6h1.3V211.8z M241.2,211.8h-1.3v-0.6h1.3V211.8z M237.3,211.8H236v-0.6h1.3V211.8
							z M233.5,211.8h-1.3v-0.6h1.3V211.8z M229.6,211.8h-1.3v-0.6h1.3V211.8z M225.7,211.8h-1.3v-0.6h1.3V211.8z M221.9,211.8h-1.3
							v-0.6h1.3V211.8z M218,211.8h-1.3v-0.6h1.3V211.8z M214.1,211.8h-1.3v-0.6h1.3V211.8z M210.3,211.8H209v-0.6h1.3V211.8z
							 M206.4,211.8h-1.3v-0.6h1.3V211.8z M202.5,211.8h-1.3v-0.6h1.3V211.8z M198.7,211.8h-1.3v-0.6h1.3V211.8z M194.8,211.8h-1.3
							v-0.6h1.3V211.8z M190.9,211.8h-1.3v-0.6h1.3V211.8z M187.1,211.8h-1.3v-0.6h1.3V211.8z M183.2,211.8h-1.3v-0.6h1.3V211.8z
							 M179.3,211.8h-1.3v-0.6h1.3V211.8z M175.5,211.8h-1.3v-0.6h1.3V211.8z M171.6,211.8h-1.3v-0.6h1.3V211.8z M167.7,211.8h-1.3
							v-0.6h1.3V211.8z M163.9,211.8h-1.3v-0.6h1.3V211.8z M160,211.8h-1.3v-0.6h1.3V211.8z M156.1,211.8h-1.3v-0.6h1.3V211.8z
							 M152.3,211.8H151v-0.6h1.3V211.8z M148.4,211.8h-1.3v-0.6h1.3V211.8z M144.6,211.8h-1.3v-0.6h1.3V211.8z M140.7,211.8h-1.3
							v-0.6h1.3V211.8z M136.8,211.8h-1.3v-0.6h1.3V211.8z M133,211.8h-1.3v-0.6h1.3V211.8z M129.1,211.8h-1.3v-0.6h1.3V211.8z
							 M125.2,211.8h-1.3v-0.6h1.3V211.8z M121.4,211.8h-1.3v-0.6h1.3V211.8z M117.5,211.8h-1.3v-0.6h1.3V211.8z M113.6,211.8h-1.3
							v-0.6h1.3V211.8z M109.8,211.8h-1.3v-0.6h1.3V211.8z M105.9,211.8h-1.3v-0.6h1.3V211.8z M102,211.8h-1.3v-0.6h1.3V211.8z
							 M98.2,211.8h-1.3v-0.6h1.3V211.8z M94.3,211.8H93v-0.6h1.3V211.8z M90.4,211.8h-1.3v-0.6h1.3V211.8z M86.6,211.8h-1.3v-0.6
							h1.3V211.8z M82.7,211.8h-1.3v-0.6h1.3V211.8z M78.8,211.8h-1.3v-0.6h1.3V211.8z M75,211.8h-1.3v-0.6H75V211.8z M71.1,211.8
							h-1.3v-0.6h1.3V211.8z M67.2,211.8h-1.3v-0.6h1.3V211.8z M63.4,211.8h-1.3v-0.6h1.3V211.8z M59.5,211.8h-1.3v-0.6h1.3V211.8z
							 M55.6,211.8h-1.3v-0.6h1.3V211.8z M51.8,211.8h-1.3v-0.6h1.3V211.8z M47.9,211.8h-1.3v-0.6h1.3V211.8z M44,211.8h-1.3v-0.6
							H44V211.8z M40.2,211.8h-1.3v-0.6h1.3V211.8z"/>
					</g>
					<g>
						<rect x="35.6" y="211.2" class="st6" width="0.6" height="0.6"/>
					</g>
				</g>
			</g>
			<g id="XMLID_61_">
				<path class="st3" d="M216.3,170.3c0-0.6,5.6-1,16.2-1s15.6,0.5,15.6,1c0,0.6-4.7,1.6-15.2,1.6S216.3,170.8,216.3,170.3z"/>
				<path class="st7" d="M248.4,170.3c0,1.3-8.1,1.9-15.5,1.9c-6.5,0-16.8-0.5-16.8-1.9c0-0.4,0-1.3,16.5-1.3
					C248.4,168.9,248.4,169.8,248.4,170.3z M232.8,171.5c9.2,0,13.6-0.8,14.7-1.2c-1-0.3-5-0.7-15-0.7c-10.2,0-14.4,0.4-15.6,0.7
					C218.3,170.7,223.5,171.5,232.8,171.5z"/>
			</g>
		</g>
	</g>
	<g id="XMLID_1_" class="st0">
		<defs>
			<rect id="XMLID_4932_" x="-13.5" width="327.1" height="300"/>
		</defs>
		<clipPath id="XMLID_4_">
			<use xlink:href="#XMLID_4932_"  style="overflow:visible;"/>
		</clipPath>
	</g>
	<g class="st0">
		<path class="st8" d="M150.1,4.6c38.7,0,75.1,15.1,102.5,42.5c27.4,27.4,42.5,63.8,42.5,102.5s-15.1,75.1-42.5,102.5
			c-27.4,27.4-63.8,42.5-102.5,42.5S75,279.5,47.6,252.1C20.2,224.7,5.1,188.3,5.1,149.6S20.2,74.5,47.6,47.1
			C75,19.7,111.4,4.6,150.1,4.6 M150.1-0.4c-82.8,0-150,67.2-150,150s67.2,150,150,150s150-67.2,150-150S232.9-0.4,150.1-0.4
			L150.1-0.4z"/>
	</g>
</g>
</svg>
