<?xml version="1.0" encoding="utf-8"?>
<!-- Generator: Adobe Illustrator 19.0.0, SVG Export Plug-In . SVG Version: 6.00 Build 0)  -->
<svg version="1.1" id="Layer_1" xmlns="http://www.w3.org/2000/svg" xmlns:xlink="http://www.w3.org/1999/xlink" x="0px" y="0px"
	 viewBox="0 0 300 300" style="enable-background:new 0 0 300 300;" xml:space="preserve">
<style type="text/css">
	.st0{clip-path:url(#SVGID_2_);}
	.st1{clip-path:url(#XMLID_3_);}
	.st2{fill:#DBDCDD;}
	.st3{fill:#404041;}
	.st4{fill:#CACCCE;}
	.st5{fill:#FFFFFF;}
	.st6{fill:#808184;}
	.st7{fill:#D0D2D3;}
	.st8{fill:#9AA0BB;}
</style>
<g>
	<defs>
		<circle id="SVGID_1_" cx="150.1" cy="149.6" r="150"/>
	</defs>
	<use xlink:href="#SVGID_1_"  style="overflow:visible;fill:#DDDDDD;"/>
	<clipPath id="SVGID_2_">
		<use xlink:href="#SVGID_1_"  style="overflow:visible;"/>
	</clipPath>
	<g id="XMLID_4081_" class="st0">
		<defs>
			<rect id="XMLID_4118_" y="-0.4" width="300" height="300"/>
		</defs>
		<clipPath id="XMLID_3_">
			<use xlink:href="#XMLID_4118_"  style="overflow:visible;"/>
		</clipPath>
		<g id="XMLID_41_" class="st1">
			<g id="XMLID_46_">
				<g id="XMLID_48_">
					<path class="st2" d="M260.7,89.9v-0.6c0-2-1.6-3.7-3.7-3.7H39.3c-2,0-3.7,1.6-3.7,3.7V92l3.7-2H260.7z"/>
					<path class="st3" d="M261.3,89.3v1.2H39.5L35,93.1v-3.7c0-2.4,1.9-4.3,4.3-4.3H257C259.4,85,261.3,86.9,261.3,89.3z M39.2,89.3
						H260c0-1.6-1.4-3-3-3H39.3c-1.7,0-3,1.4-3,3v1.5L39.2,89.3z"/>
				</g>
				<g id="XMLID_47_">
					<path class="st4" d="M35.6,95.2c0,0,0-7.5,3.7-7.3h217.8l3.6,2H39.3L35.6,95.2z"/>
				</g>
			</g>
			<g id="XMLID_43_">
				<g id="XMLID_45_">
					<path class="st5" d="M221.7,214.4H39.3c-2,0-3.7-1.6-3.7-3.7V93.6c0-2,1.6-3.7,3.7-3.7h221.4c2,0,3.7,1.6,3.7,3.7v82.4
						c0,1-0.4,2-1.2,2.7l-39,34.7C223.4,214,222.6,214.4,221.7,214.4z"/>
					<path class="st3" d="M265,93.6v82.4c0,1.2-0.5,2.4-1.4,3.2l-39,34.7c-0.8,0.7-1.8,1.1-2.9,1.1H39.3c-2.4,0-4.3-1.9-4.3-4.3
						V93.6c0-2.4,1.9-4.3,4.3-4.3h221.4C263.1,89.3,265,91.2,265,93.6z M221.7,213.7c0.7,0,1.5-0.3,2-0.8l39-34.7
						c0.6-0.6,1-1.4,1-2.3V93.6c0-1.7-1.3-3-3-3H39.3c-1.7,0-3,1.4-3,3v117.1c0,1.7,1.4,3,3,3H221.7z"/>
				</g>
				<g id="XMLID_44_">
					<g>
						<rect x="260.4" y="91.6" class="st6" width="0.6" height="0.6"/>
					</g>
					<g>
						<path class="st6" d="M257.8,92.3h-1.3v-0.6h1.3V92.3z M253.9,92.3h-1.3v-0.6h1.3V92.3z M250,92.3h-1.3v-0.6h1.3V92.3z
							 M246.1,92.3h-1.3v-0.6h1.3V92.3z M242.2,92.3h-1.3v-0.6h1.3V92.3z M238.3,92.3H237v-0.6h1.3V92.3z M234.5,92.3h-1.3v-0.6h1.3
							V92.3z M230.6,92.3h-1.3v-0.6h1.3V92.3z M226.7,92.3h-1.3v-0.6h1.3V92.3z M222.8,92.3h-1.3v-0.6h1.3V92.3z M218.9,92.3h-1.3
							v-0.6h1.3V92.3z M215,92.3h-1.3v-0.6h1.3V92.3z M211.1,92.3h-1.3v-0.6h1.3V92.3z M207.3,92.3H206v-0.6h1.3V92.3z M203.4,92.3
							h-1.3v-0.6h1.3V92.3z M199.5,92.3h-1.3v-0.6h1.3V92.3z M195.6,92.3h-1.3v-0.6h1.3V92.3z M191.7,92.3h-1.3v-0.6h1.3V92.3z
							 M187.8,92.3h-1.3v-0.6h1.3V92.3z M183.9,92.3h-1.3v-0.6h1.3V92.3z M180.1,92.3h-1.3v-0.6h1.3V92.3z M176.2,92.3h-1.3v-0.6
							h1.3V92.3z M172.3,92.3H171v-0.6h1.3V92.3z M168.4,92.3h-1.3v-0.6h1.3V92.3z M164.5,92.3h-1.3v-0.6h1.3V92.3z M160.6,92.3
							h-1.3v-0.6h1.3V92.3z M156.7,92.3h-1.3v-0.6h1.3V92.3z M152.9,92.3h-1.3v-0.6h1.3V92.3z M149,92.3h-1.3v-0.6h1.3V92.3z
							 M145.1,92.3h-1.3v-0.6h1.3V92.3z M141.2,92.3h-1.3v-0.6h1.3V92.3z M137.3,92.3H136v-0.6h1.3V92.3z M133.4,92.3h-1.3v-0.6h1.3
							V92.3z M129.5,92.3h-1.3v-0.6h1.3V92.3z M125.7,92.3h-1.3v-0.6h1.3V92.3z M121.8,92.3h-1.3v-0.6h1.3V92.3z M117.9,92.3h-1.3
							v-0.6h1.3V92.3z M114,92.3h-1.3v-0.6h1.3V92.3z M110.1,92.3h-1.3v-0.6h1.3V92.3z M106.2,92.3h-1.3v-0.6h1.3V92.3z M102.4,92.3
							h-1.3v-0.6h1.3V92.3z M98.5,92.3h-1.3v-0.6h1.3V92.3z M94.6,92.3h-1.3v-0.6h1.3V92.3z M90.7,92.3h-1.3v-0.6h1.3V92.3z
							 M86.8,92.3h-1.3v-0.6h1.3V92.3z M82.9,92.3h-1.3v-0.6h1.3V92.3z M79,92.3h-1.3v-0.6H79V92.3z M75.2,92.3h-1.3v-0.6h1.3V92.3z
							 M71.3,92.3H70v-0.6h1.3V92.3z M67.4,92.3h-1.3v-0.6h1.3V92.3z M63.5,92.3h-1.3v-0.6h1.3V92.3z M59.6,92.3h-1.3v-0.6h1.3V92.3
							z M55.7,92.3h-1.3v-0.6h1.3V92.3z M51.8,92.3h-1.3v-0.6h1.3V92.3z M48,92.3h-1.3v-0.6H48V92.3z M44.1,92.3h-1.3v-0.6h1.3V92.3
							z M40.2,92.3h-1.3v-0.6h1.3V92.3z"/>
					</g>
					<g>
						<rect x="35.6" y="91.6" class="st6" width="0.6" height="0.6"/>
					</g>
					<g>
						<path class="st6" d="M257.8,92.3h-1.3v-0.6h1.3V92.3z M253.9,92.3h-1.3v-0.6h1.3V92.3z M250,92.3h-1.3v-0.6h1.3V92.3z
							 M246.1,92.3h-1.3v-0.6h1.3V92.3z M242.2,92.3h-1.3v-0.6h1.3V92.3z M238.3,92.3H237v-0.6h1.3V92.3z M234.5,92.3h-1.3v-0.6h1.3
							V92.3z M230.6,92.3h-1.3v-0.6h1.3V92.3z M226.7,92.3h-1.3v-0.6h1.3V92.3z M222.8,92.3h-1.3v-0.6h1.3V92.3z M218.9,92.3h-1.3
							v-0.6h1.3V92.3z M215,92.3h-1.3v-0.6h1.3V92.3z M211.1,92.3h-1.3v-0.6h1.3V92.3z M207.3,92.3H206v-0.6h1.3V92.3z M203.4,92.3
							h-1.3v-0.6h1.3V92.3z M199.5,92.3h-1.3v-0.6h1.3V92.3z M195.6,92.3h-1.3v-0.6h1.3V92.3z M191.7,92.3h-1.3v-0.6h1.3V92.3z
							 M187.8,92.3h-1.3v-0.6h1.3V92.3z M183.9,92.3h-1.3v-0.6h1.3V92.3z M180.1,92.3h-1.3v-0.6h1.3V92.3z M176.2,92.3h-1.3v-0.6
							h1.3V92.3z M172.3,92.3H171v-0.6h1.3V92.3z M168.4,92.3h-1.3v-0.6h1.3V92.3z M164.5,92.3h-1.3v-0.6h1.3V92.3z M160.6,92.3
							h-1.3v-0.6h1.3V92.3z M156.7,92.3h-1.3v-0.6h1.3V92.3z M152.9,92.3h-1.3v-0.6h1.3V92.3z M149,92.3h-1.3v-0.6h1.3V92.3z
							 M145.1,92.3h-1.3v-0.6h1.3V92.3z M141.2,92.3h-1.3v-0.6h1.3V92.3z M137.3,92.3H136v-0.6h1.3V92.3z M133.4,92.3h-1.3v-0.6h1.3
							V92.3z M129.5,92.3h-1.3v-0.6h1.3V92.3z M125.7,92.3h-1.3v-0.6h1.3V92.3z M121.8,92.3h-1.3v-0.6h1.3V92.3z M117.9,92.3h-1.3
							v-0.6h1.3V92.3z M114,92.3h-1.3v-0.6h1.3V92.3z M110.1,92.3h-1.3v-0.6h1.3V92.3z M106.2,92.3h-1.3v-0.6h1.3V92.3z M102.4,92.3
							h-1.3v-0.6h1.3V92.3z M98.5,92.3h-1.3v-0.6h1.3V92.3z M94.6,92.3h-1.3v-0.6h1.3V92.3z M90.7,92.3h-1.3v-0.6h1.3V92.3z
							 M86.8,92.3h-1.3v-0.6h1.3V92.3z M82.9,92.3h-1.3v-0.6h1.3V92.3z M79,92.3h-1.3v-0.6H79V92.3z M75.2,92.3h-1.3v-0.6h1.3V92.3z
							 M71.3,92.3H70v-0.6h1.3V92.3z M67.4,92.3h-1.3v-0.6h1.3V92.3z M63.5,92.3h-1.3v-0.6h1.3V92.3z M59.6,92.3h-1.3v-0.6h1.3V92.3
							z M55.7,92.3h-1.3v-0.6h1.3V92.3z M51.8,92.3h-1.3v-0.6h1.3V92.3z M48,92.3h-1.3v-0.6H48V92.3z M44.1,92.3h-1.3v-0.6h1.3V92.3
							z M40.2,92.3h-1.3v-0.6h1.3V92.3z"/>
					</g>
					<g>
						<polygon class="st6" points="261.3,91.6 260.4,91.6 260.4,92.3 260.7,92.3 260.7,92.6 261.3,92.6 						"/>
					</g>
					<g>
						<path class="st6" d="M261.3,96.5h-0.6v-1.3h0.6V96.5z M261.3,100.4h-0.6v-1.3h0.6V100.4z M261.3,104.3h-0.6V103h0.6V104.3z
							 M261.3,108.1h-0.6v-1.3h0.6V108.1z M261.3,112h-0.6v-1.3h0.6V112z M261.3,115.9h-0.6v-1.3h0.6V115.9z M261.3,119.8h-0.6v-1.3
							h0.6V119.8z M261.3,123.7h-0.6v-1.3h0.6V123.7z M261.3,127.5h-0.6v-1.3h0.6V127.5z M261.3,131.4h-0.6v-1.3h0.6V131.4z
							 M261.3,135.3h-0.6V134h0.6V135.3z M261.3,139.2h-0.6v-1.3h0.6V139.2z M261.3,143.1h-0.6v-1.3h0.6V143.1z M261.3,147h-0.6
							v-1.3h0.6V147z M261.3,150.8h-0.6v-1.3h0.6V150.8z M261.3,154.7h-0.6v-1.3h0.6V154.7z M261.3,158.6h-0.6v-1.3h0.6V158.6z
							 M261.3,162.5h-0.6v-1.3h0.6V162.5z M261.3,166.4h-0.6v-1.3h0.6V166.4z M261.3,170.2h-0.6v-1.3h0.6V170.2z M261.3,174.1h-0.6
							v-1.3h0.6V174.1z"/>
					</g>
					<g>
						<polygon class="st6" points="261.3,176.7 260.7,176.7 260.7,177.2 260.3,177.5 260.7,178 261.3,177.5 						"/>
					</g>
					<g>
						<path class="st6" d="M258.8,179.7l-1,0.9l-0.4-0.5l1-0.9L258.8,179.7z M255.8,182.3l-1,0.9l-0.4-0.5l1-0.9L255.8,182.3z
							 M252.9,184.9l-1,0.9l-0.4-0.5l1-0.9L252.9,184.9z M249.9,187.4l-1,0.9l-0.4-0.5l1-0.9L249.9,187.4z M247,190l-1,0.9l-0.4-0.5
							l1-0.9L247,190z M244,192.5l-1,0.9l-0.4-0.5l1-0.9L244,192.5z M241.1,195.1l-1,0.9l-0.4-0.5l1-0.9L241.1,195.1z M238.1,197.7
							l-1,0.9l-0.4-0.5l1-0.9L238.1,197.7z M235.2,200.2l-1,0.9l-0.4-0.5l1-0.9L235.2,200.2z M232.2,202.8l-1,0.9l-0.4-0.5l1-0.9
							L232.2,202.8z M229.3,205.3l-1,0.9l-0.4-0.5l1-0.9L229.3,205.3z M226.3,207.9l-1,0.9l-0.4-0.5l1-0.9L226.3,207.9z
							 M223.4,210.4l-1,0.9l-0.4-0.5l1-0.9L223.4,210.4z M219.8,211.8h-1.3v-0.6h1.3V211.8z M215.9,211.8h-1.3v-0.6h1.3V211.8z
							 M212,211.8h-1.3v-0.6h1.3V211.8z M208,211.8h-1.3v-0.6h1.3V211.8z M204.1,211.8h-1.3v-0.6h1.3V211.8z M200.2,211.8h-1.3v-0.6
							h1.3V211.8z M196.3,211.8H195v-0.6h1.3V211.8z M192.4,211.8h-1.3v-0.6h1.3V211.8z M188.5,211.8h-1.3v-0.6h1.3V211.8z
							 M184.6,211.8h-1.3v-0.6h1.3V211.8z M180.7,211.8h-1.3v-0.6h1.3V211.8z M176.8,211.8h-1.3v-0.6h1.3V211.8z M172.9,211.8h-1.3
							v-0.6h1.3V211.8z M169,211.8h-1.3v-0.6h1.3V211.8z M165.1,211.8h-1.3v-0.6h1.3V211.8z M161.2,211.8h-1.3v-0.6h1.3V211.8z
							 M157.3,211.8H156v-0.6h1.3V211.8z M153.4,211.8h-1.3v-0.6h1.3V211.8z M149.5,211.8h-1.3v-0.6h1.3V211.8z M145.6,211.8h-1.3
							v-0.6h1.3V211.8z M141.7,211.8h-1.3v-0.6h1.3V211.8z M137.8,211.8h-1.3v-0.6h1.3V211.8z M133.9,211.8h-1.3v-0.6h1.3V211.8z
							 M130,211.8h-1.3v-0.6h1.3V211.8z M126.1,211.8h-1.3v-0.6h1.3V211.8z M122.2,211.8h-1.3v-0.6h1.3V211.8z M118.3,211.8H117
							v-0.6h1.3V211.8z M114.4,211.8h-1.3v-0.6h1.3V211.8z M110.5,211.8h-1.3v-0.6h1.3V211.8z M106.6,211.8h-1.3v-0.6h1.3V211.8z
							 M102.7,211.8h-1.3v-0.6h1.3V211.8z M98.8,211.8h-1.3v-0.6h1.3V211.8z M94.8,211.8h-1.3v-0.6h1.3V211.8z M90.9,211.8h-1.3
							v-0.6h1.3V211.8z M87,211.8h-1.3v-0.6H87V211.8z M83.1,211.8h-1.3v-0.6h1.3V211.8z M79.2,211.8h-1.3v-0.6h1.3V211.8z
							 M75.3,211.8H74v-0.6h1.3V211.8z M71.4,211.8h-1.3v-0.6h1.3V211.8z M67.5,211.8h-1.3v-0.6h1.3V211.8z M63.6,211.8h-1.3v-0.6
							h1.3V211.8z M59.7,211.8h-1.3v-0.6h1.3V211.8z M55.8,211.8h-1.3v-0.6h1.3V211.8z M51.9,211.8h-1.3v-0.6h1.3V211.8z M48,211.8
							h-1.3v-0.6H48V211.8z M44.1,211.8h-1.3v-0.6h1.3V211.8z M40.2,211.8h-1.3v-0.6h1.3V211.8z"/>
					</g>
					<g>
						<rect x="35.6" y="211.2" class="st6" width="0.6" height="0.6"/>
					</g>
				</g>
			</g>
			<g id="XMLID_42_">
				<path class="st3" d="M216.3,162.9c0-0.6,5.6-1,16.2-1s15.6,0.5,15.6,1c0,0.6-4.7,1.6-15.2,1.6S216.3,163.4,216.3,162.9z"/>
				<path class="st7" d="M248.4,162.9c0,1.3-8.1,1.9-15.5,1.9c-7,0-16.8-0.6-16.8-1.9c0-0.4,0-1.3,16.5-1.3
					C248.4,161.5,248.4,162.4,248.4,162.9z M232.8,164.1c9.2,0,13.6-0.8,14.7-1.2c-1-0.3-5-0.7-15-0.7c-10.2,0-14.4,0.4-15.6,0.7
					C218.3,163.3,223.5,164.1,232.8,164.1z"/>
			</g>
		</g>
	</g>
	<g id="XMLID_1_" class="st0">
		<defs>
			<rect id="XMLID_4932_" x="-13.5" width="327.1" height="300"/>
		</defs>
		<clipPath id="XMLID_4_">
			<use xlink:href="#XMLID_4932_"  style="overflow:visible;"/>
		</clipPath>
	</g>
	<g class="st0">
		<path class="st8" d="M150.1,4.6c38.7,0,75.1,15.1,102.5,42.5c27.4,27.4,42.5,63.8,42.5,102.5s-15.1,75.1-42.5,102.5
			c-27.4,27.4-63.8,42.5-102.5,42.5S75,279.5,47.6,252.1C20.2,224.7,5.1,188.3,5.1,149.6S20.2,74.5,47.6,47.1
			C75,19.7,111.4,4.6,150.1,4.6 M150.1-0.4c-82.8,0-150,67.2-150,150s67.2,150,150,150s150-67.2,150-150S232.9-0.4,150.1-0.4
			L150.1-0.4z"/>
	</g>
</g>
</svg>
