<?xml version="1.0" encoding="utf-8"?>
<!-- Generator: Adobe Illustrator 19.0.0, SVG Export Plug-In . SVG Version: 6.00 Build 0)  -->
<svg version="1.1" id="Layer_1" xmlns="http://www.w3.org/2000/svg" xmlns:xlink="http://www.w3.org/1999/xlink" x="0px" y="0px"
	 viewBox="0 0 300 300" style="enable-background:new 0 0 300 300;" xml:space="preserve">
<style type="text/css">
	.st0{clip-path:url(#SVGID_2_);}
	.st1{clip-path:url(#XMLID_19_);}
	.st2{fill:#FFFFFF;}
	.st3{fill:#404041;}
	.st4{fill:#F1F1F2;}
	.st5{fill:#D0D2D3;}
	.st6{fill:#808184;}
	.st7{fill:#DBDCDD;}
	.st8{fill:#404041;stroke:#D0D2D3;stroke-width:0.5;stroke-miterlimit:10;}
	.st9{fill:#FFFFFF;stroke:#6D6E70;stroke-width:2;stroke-miterlimit:10;}
	.st10{fill:#FFFFFF;stroke:#929497;stroke-width:0.75;stroke-miterlimit:10;}
	.st11{fill:none;stroke:#6D6E70;stroke-width:0.5;stroke-miterlimit:10;}
	.st12{fill:#9AA0BB;}
</style>
<g>
	<defs>
		<circle id="SVGID_1_" cx="150.1" cy="149.6" r="150"/>
	</defs>
	<use xlink:href="#SVGID_1_"  style="overflow:visible;fill:#DDDDDD;"/>
	<clipPath id="SVGID_2_">
		<use xlink:href="#SVGID_1_"  style="overflow:visible;"/>
	</clipPath>
	<g id="XMLID_4081_" class="st0">
		<defs>
			<rect id="XMLID_4118_" y="-0.4" width="300" height="300"/>
		</defs>
		<clipPath id="XMLID_19_">
			<use xlink:href="#XMLID_4118_"  style="overflow:visible;"/>
		</clipPath>
		<g id="XMLID_2_" class="st1">
			<g id="XMLID_17_">
				<g id="XMLID_40_">
					<g>
						<path class="st2" d="M180.6,222.4l74.4,0c2.4,0,4.3-1.9,4.3-4.3V81.9c0-2.4-1.9-4.3-4.3-4.3l-74.4,0l0.1,0
							c1.9,0,4.2,1.5,4.2,4.2v0v95.8C184.9,178.9,179.8,222.4,180.6,222.4z"/>
					</g>
					<g>
						<path class="st3" d="M260,81.9v136.2c0,2.8-2.3,5-5,5l-74.4,0l-0.4,0l-0.2-0.3c-0.5-0.5-0.6-2.4,3.1-35.8c0.5-4.9,1-9.1,1-9.4
							V81.9c0-1.2-0.5-2-1-2.5c-0.7-0.6-1.5-1-2.4-1l-3.8-1.5l78.1,0C257.7,76.9,260,79.1,260,81.9z M185.6,81.9v95.8
							c0,0.4-0.3,3.4-1,9.6c-1.1,10.1-3.4,30.6-3.4,34.3l73.7,0c1.9,0,3.5-1.6,3.5-3.5V81.9c0-1.9-1.6-3.5-3.5-3.5l-70.8,0
							C185.1,79.3,185.6,80.5,185.6,81.9z"/>
					</g>
				</g>
				<g id="XMLID_39_">
					<g>
						<path class="st4" d="M184.9,125.8l12.6,96.7h-17.2l1.3-0.1c1.7-0.4,3.2-1.5,3.4-4.1l0,0V125.8z"/>
					</g>
				</g>
				<g id="XMLID_38_">
					<g>
						<path class="st5" d="M184.9,125.8l4.2,96.7h-8.8l1.3-0.1c1.7-0.4,3.2-1.5,3.4-4.1l0,0V125.8z"/>
					</g>
				</g>
				<g id="XMLID_37_">
					<g>
						<path class="st6" d="M258.3,80.4h-1.5v-0.8h1.5V80.4z M253.8,80.4h-1.5v-0.8l1.5,0V80.4z M249.3,80.4h-1.5v-0.8h1.5V80.4z
							 M244.8,80.4h-1.5v-0.8h1.5V80.4z M240.2,80.4h-1.5v-0.8h1.5V80.4z M235.7,80.4h-1.5v-0.8h1.5V80.4z M231.2,80.4h-1.5v-0.8
							h1.5V80.4z M226.7,80.4h-1.5v-0.8h1.5V80.4z M222.1,80.4h-1.5v-0.8h1.5V80.4z M217.6,80.4h-1.5v-0.8h1.5V80.4z M213.1,80.4
							h-1.5v-0.8h1.5V80.4z M208.6,80.4h-1.5v-0.8h1.5V80.4z M204.1,80.4h-1.5v-0.8h1.5V80.4z M199.5,80.4H198v-0.8h1.5V80.4z
							 M195,80.4h-1.5v-0.8h1.5V80.4z M190.5,80.4H189v-0.8h1.5V80.4z M186,80.4h-1.5v-0.8h1.5V80.4z M181.5,80.4H180v-0.8h1.5V80.4
							z M176.9,80.4h-1.5v-0.8h1.5V80.4z M172.4,80.4l-0.5,0v-0.8h0.5V80.4z"/>
					</g>
				</g>
				<g id="XMLID_36_">
					<g>
						<g>
							<rect x="258.5" y="208.9" class="st6" width="0.8" height="0.8"/>
						</g>
					</g>
					<g>
						<g>
							<path class="st6" d="M255.4,209.7h-1.5v-0.8h1.5V209.7z M250.7,209.7h-1.5v-0.8h1.5V209.7z M246.1,209.7h-1.5v-0.8h1.5V209.7
								z M241.4,209.7h-1.5v-0.8l1.5,0V209.7z M236.8,209.7h-1.5v-0.8h1.5V209.7z M232.1,209.7h-1.5v-0.8h1.5V209.7z M227.5,209.7
								h-1.5v-0.8h1.5V209.7z M222.8,209.7h-1.5v-0.8h1.5V209.7z M218.2,209.7h-1.5v-0.8h1.5V209.7z M213.5,209.7H212v-0.8h1.5
								V209.7z M208.9,209.7h-1.5v-0.8h1.5V209.7z M204.2,209.7h-1.5v-0.8l1.5,0V209.7z M199.6,209.7H198v-0.8h1.5V209.7z
								 M194.9,209.7h-1.5v-0.8h1.5V209.7z M190.3,209.7h-1.5v-0.8h1.5V209.7z"/>
						</g>
					</g>
					<g>
						<g>
							<polygon class="st6" points="185.6,208.9 184.5,208.9 184.5,210.1 185.3,210.1 185.3,209.7 185.6,209.7 							"/>
						</g>
					</g>
					<g>
						<g>
							<rect x="184.5" y="213.4" class="st6" width="0.8" height="1.6"/>
						</g>
					</g>
					<g>
						<g>
							<polygon class="st6" points="185.3,218.3 184.5,218.3 184.5,219.4 185.6,219.4 185.6,218.7 185.3,218.7 							"/>
						</g>
					</g>
					<g>
						<g>
							<path class="st6" d="M255.4,219.4h-1.5v-0.8h1.5V219.4z M250.7,219.4h-1.5v-0.8h1.5V219.4z M246.1,219.4h-1.5v-0.8h1.5V219.4
								z M241.4,219.4h-1.5v-0.8h1.5V219.4z M236.8,219.4h-1.5v-0.8h1.5V219.4z M232.1,219.4h-1.5v-0.8h1.5V219.4z M227.5,219.4
								h-1.5v-0.8h1.5V219.4z M222.8,219.4h-1.5v-0.8h1.5V219.4z M218.2,219.4h-1.5v-0.8h1.5V219.4z M213.5,219.4H212v-0.8h1.5
								V219.4z M208.9,219.4h-1.5v-0.8h1.5V219.4z M204.2,219.4h-1.5v-0.8h1.5V219.4z M199.6,219.4H198v-0.8h1.5V219.4z
								 M194.9,219.4h-1.5v-0.8h1.5V219.4z M190.3,219.4h-1.5v-0.8h1.5V219.4z"/>
						</g>
					</g>
					<g>
						<g>
							<rect x="258.5" y="218.7" class="st6" width="0.8" height="0.8"/>
						</g>
					</g>
				</g>
				<g id="XMLID_35_">
					<g>
						<path class="st2" d="M45,222.4c-2.4,0-4.3-1.9-4.3-4.3V81.9c0-2.4,1.9-4.3,4.3-4.3l135.6,0c2.4,0,4.3,1.9,4.3,4.3v136.2
							c0,2.4-1.9,4.3-4.3,4.3L45,222.4z"/>
					</g>
					<g>
						<path class="st3" d="M185.6,81.9v136.2c0,2.8-2.3,5-5,5l-135.6,0c-2.8,0-5-2.3-5-5V81.9c0-2.8,2.3-5,5-5l135.6,0
							C183.4,76.9,185.6,79.1,185.6,81.9z M180.6,221.6c1.9,0,3.5-1.6,3.5-3.5V81.9c0-2-1.5-3.5-3.5-3.5L45,78.4
							c-1.9,0-3.5,1.6-3.5,3.5v136.2c0,1.9,1.6,3.5,3.5,3.5L180.6,221.6z"/>
					</g>
				</g>
				<g id="XMLID_34_">
					<g>
						<g>
							<rect x="180.6" y="218.3" class="st6" width="0.8" height="0.8"/>
						</g>
					</g>
					<g>
						<g>
							<path class="st6" d="M176.2,80.4h-1.5v-0.8h1.5V80.4z M171.7,80.4h-1.5v-0.8h1.5V80.4z M167.2,80.4h-1.5v-0.8h1.5V80.4z
								 M162.7,80.4h-1.5v-0.8h1.5V80.4z M158.2,80.4h-1.5v-0.8h1.5V80.4z M153.8,80.4l-1.5,0v-0.8h1.5V80.4z M149.3,80.4h-1.5v-0.8
								h1.5V80.4z M144.8,80.4h-1.5v-0.8h1.5V80.4z M140.3,80.4h-1.5v-0.8h1.5V80.4z M135.8,80.4l-1.5,0v-0.8h1.5V80.4z M131.3,80.4
								h-1.5v-0.8h1.5V80.4z M126.8,80.4h-1.5v-0.8h1.5V80.4z M122.3,80.4h-1.5v-0.8l1.5,0V80.4z M117.8,80.4h-1.5v-0.8h1.5V80.4z
								 M113.4,80.4h-1.5v-0.8h1.5V80.4z M108.9,80.4h-1.5v-0.8h1.5V80.4z M104.4,80.4h-1.5v-0.8l1.5,0V80.4z M99.9,80.4h-1.5v-0.8
								h1.5V80.4z M95.4,80.4h-1.5v-0.8h1.5V80.4z M90.9,80.4h-1.5v-0.8h1.5V80.4z M86.4,80.4h-1.5v-0.8h1.5V80.4z M81.9,80.4h-1.5
								v-0.8h1.5V80.4z M77.4,80.4h-1.5v-0.8h1.5V80.4z M72.9,80.4h-1.5v-0.8h1.5V80.4z M68.5,80.4H67v-0.8h1.5V80.4z M64,80.4h-1.5
								v-0.8H64V80.4z M59.5,80.4H58v-0.8h1.5V80.4z M55,80.4h-1.5v-0.8H55V80.4z M50.5,80.4H49v-0.8h1.5V80.4z M46,80.4h-1.5v-0.8
								H46V80.4z M180.8,80.5l-0.6,0.5c-0.3-0.3-0.6-0.5-1.1-0.6l0.1-0.7C179.8,79.7,180.4,80,180.8,80.5z M181.4,85.1h-0.8v-1.5
								h0.8V85.1z M181.4,89.6h-0.8v-1.5h0.8V89.6z M181.4,94.1h-0.8v-1.5h0.8V94.1z M181.4,98.6h-0.8v-1.5h0.8V98.6z M181.4,103
								h-0.8v-1.5h0.8V103z M181.4,107.5h-0.8V106h0.8V107.5z M181.4,112h-0.8v-1.5h0.8V112z M181.4,116.5h-0.8V115h0.8V116.5z
								 M181.4,121h-0.8v-1.5h0.8V121z M181.4,125.5h-0.8V124h0.8V125.5z M181.4,130h-0.8v-1.5h0.8V130z M181.4,134.5h-0.8V133h0.8
								V134.5z M181.4,139h-0.8v-1.5h0.8V139z M181.4,143.5h-0.8V142h0.8V143.5z M181.4,147.9h-0.8v-1.5h0.8V147.9z M181.4,152.4
								h-0.8v-1.5h0.8V152.4z M181.4,156.9h-0.8v-1.5h0.8V156.9z M181.4,161.4h-0.8v-1.5h0.8V161.4z M181.4,165.9h-0.8v-1.5h0.8
								V165.9z M181.4,170.4h-0.8v-1.5h0.8V170.4z M181.4,174.9h-0.8v-1.5h0.8V174.9z M181.4,179.4h-0.8v-1.5h0.8V179.4z
								 M181.4,183.9h-0.8v-1.5h0.8V183.9z M181.4,188.4h-0.8v-1.5h0.8V188.4z M181.4,192.8h-0.8v-1.5h0.8V192.8z M181.4,197.3h-0.8
								v-1.5h0.8V197.3z M181.4,201.8h-0.8v-1.5h0.8V201.8z M181.4,206.3h-0.8v-1.5h0.8V206.3z M181.4,209.3v1.5h-0.8v-1.5
								L181.4,209.3z M181.4,215.3h-0.8v-1.5h0.8V215.3z"/>
						</g>
					</g>
					<g>
						<g>
							<rect x="40.8" y="79.6" class="st6" width="0.8" height="0.8"/>
						</g>
					</g>
				</g>
				<g id="XMLID_33_">
					<g>
						<g>
							<rect x="180.4" y="208.9" class="st6" width="0.8" height="0.8"/>
						</g>
					</g>
					<g>
						<g>
							<path class="st6" d="M177.3,209.7h-1.5v-0.8h1.5V209.7z M172.8,209.7h-1.5v-0.8h1.5V209.7z M168.3,209.7h-1.5v-0.8h1.5V209.7
								z M163.8,209.7h-1.5v-0.8h1.5V209.7z M159.2,209.7h-1.5v-0.8h1.5V209.7z M154.7,209.7h-1.5v-0.8h1.5V209.7z M150.2,209.7
								h-1.5v-0.8h1.5V209.7z M145.6,209.7h-1.5v-0.8h1.5V209.7z M141.1,209.7h-1.5v-0.8h1.5V209.7z M136.6,209.7h-1.5v-0.8h1.5
								V209.7z M132.1,209.7h-1.5v-0.8h1.5V209.7z M127.5,209.7H126v-0.8h1.5V209.7z M123,209.7h-1.5v-0.8h1.5V209.7z M118.5,209.7
								H117v-0.8h1.5V209.7z M113.9,209.7h-1.5v-0.8h1.5V209.7z M109.4,209.7h-1.5v-0.8h1.5V209.7z M104.9,209.7l-1.5,0v-0.8h1.5
								V209.7z M100.4,209.7h-1.5v-0.8h1.5V209.7z M95.8,209.7h-1.5v-0.8h1.5V209.7z M91.3,209.7h-1.5v-0.8h1.5V209.7z M86.8,209.7
								h-1.5v-0.8h1.5V209.7z M82.3,209.7h-1.5v-0.8h1.5V209.7z M77.7,209.7h-1.5v-0.8h1.5V209.7z M73.2,209.7h-1.5v-0.8h1.5V209.7z
								 M68.7,209.7l-1.5,0v-0.8h1.5V209.7z M64.1,209.7h-1.5v-0.8h1.5V209.7z M59.6,209.7h-1.5v-0.8h1.5V209.7z M55.1,209.7h-1.5
								v-0.8l1.5,0V209.7z M50.6,209.7h-1.5v-0.8h1.5V209.7z M46,209.7h-1.5v-0.8H46V209.7z"/>
						</g>
					</g>
					<g>
						<g>
							<polygon class="st6" points="41.5,208.9 40.4,208.9 40.4,210.1 41.1,210.1 41.1,209.7 41.5,209.7 							"/>
						</g>
					</g>
					<g>
						<g>
							<rect x="40.4" y="213.4" class="st6" width="0.8" height="1.6"/>
						</g>
					</g>
					<g>
						<g>
							<polygon class="st6" points="41.1,218.3 40.4,218.3 40.4,219.4 41.5,219.4 41.5,218.7 41.1,218.7 							"/>
						</g>
					</g>
					<g>
						<g>
							<path class="st6" d="M177.3,219.4h-1.5v-0.8h1.5V219.4z M172.8,219.4h-1.5v-0.8h1.5V219.4z M168.3,219.4h-1.5v-0.8h1.5V219.4
								z M163.8,219.4h-1.5v-0.8h1.5V219.4z M159.2,219.4h-1.5v-0.8h1.5V219.4z M154.7,219.4h-1.5v-0.8h1.5V219.4z M150.2,219.4
								l-1.5,0v-0.8h1.5V219.4z M145.6,219.4h-1.5v-0.8h1.5V219.4z M141.1,219.4h-1.5v-0.8h1.5V219.4z M136.6,219.4h-1.5v-0.8l1.5,0
								V219.4z M132.1,219.4h-1.5v-0.8h1.5V219.4z M127.5,219.4H126v-0.8h1.5V219.4z M123,219.4h-1.5v-0.8h1.5V219.4z M118.5,219.4
								H117v-0.8h1.5V219.4z M113.9,219.4h-1.5v-0.8h1.5V219.4z M109.4,219.4h-1.5v-0.8h1.5V219.4z M104.9,219.4h-1.5v-0.8h1.5
								V219.4z M100.4,219.4h-1.5v-0.8l1.5,0V219.4z M95.8,219.4h-1.5v-0.8h1.5V219.4z M91.3,219.4h-1.5v-0.8h1.5V219.4z
								 M86.8,219.4h-1.5v-0.8h1.5V219.4z M82.3,219.4h-1.5v-0.8h1.5V219.4z M77.7,219.4h-1.5v-0.8h1.5V219.4z M73.2,219.4h-1.5
								v-0.8h1.5V219.4z M68.7,219.4h-1.5v-0.8h1.5V219.4z M64.1,219.4h-1.5v-0.8h1.5V219.4z M59.6,219.4h-1.5v-0.8h1.5V219.4z
								 M55.1,219.4h-1.5v-0.8h1.5V219.4z M50.6,219.4h-1.5v-0.8h1.5V219.4z M46,219.4h-1.5v-0.8H46V219.4z"/>
						</g>
					</g>
					<g>
						<g>
							<rect x="180.4" y="218.7" class="st6" width="0.8" height="0.8"/>
						</g>
					</g>
				</g>
			</g>
			<g>
				<g id="XMLID_3_">
					<circle id="XMLID_16_" class="st4" cx="144.7" cy="145.6" r="11.7"/>
					<circle id="XMLID_15_" class="st7" cx="144.7" cy="145.3" r="11.2"/>
					<polygon id="XMLID_14_" class="st8" points="161.9,143.1 145.8,140.2 127.5,142.4 145.5,147.2 					"/>
					<circle id="XMLID_13_" class="st9" cx="144.7" cy="143.7" r="11.2"/>
					<circle id="XMLID_12_" class="st10" cx="144.7" cy="143.7" r="9.7"/>
					<g>
						<circle id="XMLID_11_" class="st3" cx="141.4" cy="147.3" r="1.8"/>
						<circle id="XMLID_10_" class="st3" cx="141.5" cy="140.1" r="1.8"/>
						<circle id="XMLID_9_" class="st3" cx="147.8" cy="147.4" r="1.8"/>
						<circle id="XMLID_8_" class="st3" cx="148" cy="140.1" r="1.8"/>
						<line id="XMLID_7_" class="st11" x1="148.4" y1="147.3" x2="141.7" y2="139.6"/>
						<line id="XMLID_6_" class="st11" x1="147.6" y1="147.9" x2="140.8" y2="140.2"/>
						<line id="XMLID_5_" class="st11" x1="141.6" y1="147.9" x2="148.7" y2="140.1"/>
						<line id="XMLID_4_" class="st11" x1="140.9" y1="147.1" x2="148" y2="139.3"/>
					</g>
				</g>
			</g>
		</g>
	</g>
	<g id="XMLID_1_" class="st0">
		<defs>
			<rect id="XMLID_4932_" x="-13.5" width="327.1" height="300"/>
		</defs>
		<clipPath id="XMLID_20_">
			<use xlink:href="#XMLID_4932_"  style="overflow:visible;"/>
		</clipPath>
	</g>
	<g class="st0">
		<path class="st12" d="M150.1,4.6c38.7,0,75.1,15.1,102.5,42.5c27.4,27.4,42.5,63.8,42.5,102.5s-15.1,75.1-42.5,102.5
			c-27.4,27.4-63.8,42.5-102.5,42.5S75,279.5,47.6,252.1C20.2,224.7,5.1,188.3,5.1,149.6S20.2,74.5,47.6,47.1
			C75,19.7,111.4,4.6,150.1,4.6 M150.1-0.4c-82.8,0-150,67.2-150,150s67.2,150,150,150s150-67.2,150-150S232.9-0.4,150.1-0.4
			L150.1-0.4z"/>
	</g>
</g>
</svg>
