<?xml version="1.0" encoding="utf-8"?>
<!-- Generator: Adobe Illustrator 19.0.0, SVG Export Plug-In . SVG Version: 6.00 Build 0)  -->
<svg version="1.1" id="Layer_1" xmlns="http://www.w3.org/2000/svg" xmlns:xlink="http://www.w3.org/1999/xlink" x="0px" y="0px"
	 viewBox="0 0 300 300" style="enable-background:new 0 0 300 300;" xml:space="preserve">
<style type="text/css">
	.st0{clip-path:url(#SVGID_2_);}
	.st1{clip-path:url(#XMLID_3_);}
	.st2{fill:#DBDCDD;}
	.st3{fill:#404041;}
	.st4{fill:#CACCCE;}
	.st5{fill:#FFFFFF;}
	.st6{fill:#808184;}
	.st7{fill:#F1F1F2;}
	.st8{fill:#D0D2D3;}
	.st9{fill:#404041;stroke:#D0D2D3;stroke-width:0.5;stroke-miterlimit:10;}
	.st10{fill:#FFFFFF;stroke:#6D6E70;stroke-width:2;stroke-miterlimit:10;}
	.st11{fill:#FFFFFF;stroke:#929497;stroke-width:0.75;stroke-miterlimit:10;}
	.st12{fill:none;stroke:#6D6E70;stroke-width:0.5;stroke-miterlimit:10;}
	.st13{fill:#9AA0BB;}
</style>
<g>
	<defs>
		<circle id="SVGID_1_" cx="150.1" cy="149.6" r="150"/>
	</defs>
	<use xlink:href="#SVGID_1_"  style="overflow:visible;fill:#DDDDDD;"/>
	<clipPath id="SVGID_2_">
		<use xlink:href="#SVGID_1_"  style="overflow:visible;"/>
	</clipPath>
	<g id="XMLID_4081_" class="st0">
		<defs>
			<rect id="XMLID_4118_" y="-0.4" width="300" height="300"/>
		</defs>
		<clipPath id="XMLID_3_">
			<use xlink:href="#XMLID_4118_"  style="overflow:visible;"/>
		</clipPath>
		<g id="XMLID_1252_" class="st1">
			<g id="XMLID_1268_">
				<g id="XMLID_1277_">
					<polygon class="st2" points="148.2,80.1 172.8,80.1 158.5,89.3 					"/>
					<path class="st3" d="M146.3,79.4h29.1l-16.9,10.9L146.3,79.4z M150.2,80.9l8.4,7.5l11.7-7.5H150.2z"/>
				</g>
				<g id="XMLID_1276_">
					<polygon class="st4" points="160.9,84.3 170.4,80.5 161.2,81.8 152.8,80.6 					"/>
				</g>
				<g id="XMLID_1275_">
					<path class="st5" d="M150.9,90.1l5.5-3.3c10-6,21.4-9.2,33.1-9.2H255c2.4,0,4.3,1.9,4.3,4.3v136.2c0,2.4-1.9,4.3-4.3,4.3h-74.4
						l0.1,0c1.9,0,4.2-1.5,4.2-4.2l0,0v-95.8c0-1.2-0.5-2.4-1.4-3.2L150.9,90.1z"/>
					<path class="st3" d="M176.9,223.1l3.6-1.5l0.2,0c0.9,0,1.8-0.4,2.4-1c0.5-0.5,1-1.3,1-2.5v-95.8c0-1-0.4-2-1.2-2.6L149.6,90
						l6.4-3.8c10.1-6.1,21.7-9.3,33.5-9.3H255c2.8,0,5,2.3,5,5v136.2c0,2.8-2.3,5-5,5h-74.4L176.9,223.1z M189.5,78.4
						c-11.5,0-22.8,3.1-32.7,9.1l-4.6,2.8l31.8,28.3c1.1,1,1.7,2.3,1.7,3.8v95.8c0,1.4-0.5,2.6-1.4,3.5H255c1.9,0,3.5-1.6,3.5-3.5
						V81.9c0-1.9-1.6-3.5-3.5-3.5H189.5z"/>
				</g>
				<g id="XMLID_1274_">
					<path class="st6" d="M153.6,92.5l1.3-0.8l0.4,0.6l-1.3,0.8L153.6,92.5z M157.4,90c0.4-0.3,0.9-0.5,1.3-0.8l0.4,0.7
						c-0.4,0.3-0.9,0.5-1.3,0.8L157.4,90z M161.4,87.8c0.4-0.2,0.9-0.5,1.4-0.7l0.3,0.7c-0.4,0.2-0.9,0.4-1.3,0.7L161.4,87.8z
						 M165.5,85.8c0.5-0.2,0.9-0.4,1.4-0.6l0.3,0.7c-0.5,0.2-0.9,0.4-1.4,0.6L165.5,85.8z M169.7,84.2c0.5-0.2,1-0.3,1.4-0.5
						l0.2,0.7c-0.5,0.2-0.9,0.3-1.4,0.5L169.7,84.2z M174.1,82.8c0.5-0.1,1-0.3,1.5-0.4l0.2,0.7c-0.5,0.1-1,0.2-1.4,0.4L174.1,82.8z
						 M178.5,81.8c0.5-0.1,1-0.2,1.5-0.3l0.1,0.7c-0.5,0.1-1,0.2-1.5,0.3L178.5,81.8z M183,81.1c0.5-0.1,1-0.1,1.5-0.2l0.1,0.7
						c-0.5,0.1-1,0.1-1.5,0.2L183,81.1z M187.5,80.7c0.5,0,1,0,1.5-0.1l0,0.8c-0.5,0-1,0-1.5,0.1L187.5,80.7z M192,80.6h1.5v0.8H192
						V80.6z M196.6,80.6h1.5v0.8h-1.5V80.6z M201.1,80.6h1.5v0.8h-1.5V80.6z M205.6,80.6h1.5v0.8h-1.5V80.6z M210.1,80.6h1.5v0.8
						h-1.5V80.6z M214.6,80.6h1.5v0.8h-1.5V80.6z M219.2,80.6h1.5v0.8h-1.5V80.6z M223.7,80.6h1.5v0.8h-1.5V80.6z M228.2,80.6h1.5
						v0.8h-1.5V80.6z M232.7,80.6h1.5v0.8h-1.5V80.6z M237.3,80.6h1.5v0.8h-1.5V80.6z M241.8,80.6h1.5v0.8h-1.5V80.6z M246.3,80.6
						h1.5v0.8h-1.5V80.6z M250.8,80.6h1.5v0.8h-1.5V80.6z M255.3,80.6h1.5v0.8h-1.5V80.6z"/>
				</g>
				<g id="XMLID_1273_">
					<path class="st7" d="M187.6,124.9l18.9,96.7h-17.2l1.3-0.1c1.7-0.4,3.2-1.5,3.4-4.1l0,0L187.6,124.9z"/>
				</g>
				<g id="XMLID_1272_">
					<g>
						<rect x="258.5" y="209.9" class="st6" width="0.8" height="0.8"/>
					</g>
					<g>
						<path class="st6" d="M188.7,209.9h1.5v0.8h-1.5V209.9z M193.4,209.9h1.5v0.8h-1.5V209.9z M198,209.9h1.5v0.8H198V209.9z
							 M202.7,209.9h1.5v0.8h-1.5V209.9z M207.3,209.9h1.5v0.8h-1.5V209.9z M212,209.9h1.5v0.8H212V209.9z M216.6,209.9h1.5v0.8
							h-1.5V209.9z M221.3,209.9h1.5v0.8h-1.5V209.9z M225.9,209.9h1.5v0.8h-1.5V209.9z M230.6,209.9h1.5v0.8h-1.5V209.9z
							 M235.2,209.9h1.5v0.8h-1.5V209.9z M239.9,209.9h1.5v0.8h-1.5V209.9z M244.5,209.9h1.5v0.8h-1.5V209.9z M249.2,209.9h1.5v0.8
							h-1.5V209.9z M253.8,209.9h1.5v0.8h-1.5V209.9z"/>
					</g>
					<g>
						<polygon class="st6" points="184.5,211.1 185.3,211.1 185.3,210.7 185.6,210.7 185.6,209.9 184.5,209.9 						"/>
					</g>
					<g>
						<rect x="184.5" y="214.3" class="st6" width="0.8" height="1.6"/>
					</g>
					<g>
						<polygon class="st6" points="184.5,220.4 185.6,220.4 185.6,219.6 185.3,219.6 185.3,219.3 184.5,219.3 						"/>
					</g>
					<g>
						<path class="st6" d="M188.7,219.6h1.5v0.8h-1.5V219.6z M193.4,219.6h1.5v0.8h-1.5V219.6z M198,219.6h1.5v0.8H198V219.6z
							 M202.7,219.6h1.5v0.8h-1.5V219.6z M207.3,219.6h1.5v0.8h-1.5V219.6z M212,219.6h1.5v0.8H212V219.6z M216.6,219.6h1.5v0.8
							h-1.5V219.6z M221.3,219.6h1.5v0.8h-1.5V219.6z M225.9,219.6h1.5v0.8h-1.5V219.6z M230.6,219.6h1.5v0.8h-1.5V219.6z
							 M235.2,219.6h1.5v0.8h-1.5V219.6z M239.9,219.6h1.5v0.8h-1.5V219.6z M244.5,219.6h1.5v0.8h-1.5V219.6z M249.2,219.6h1.5v0.8
							h-1.5V219.6z M253.8,219.6h1.5v0.8h-1.5V219.6z"/>
					</g>
					<g>
						<rect x="258.5" y="219.6" class="st6" width="0.8" height="0.8"/>
					</g>
				</g>
				<g id="XMLID_1271_">
					<path class="st8" d="M187.6,124.9l10.5,96.7h-8.8l1.3-0.1c1.7-0.4,3.2-1.5,3.4-4.1l0,0L187.6,124.9z"/>
				</g>
				<g id="XMLID_1270_">
					<path class="st5" d="M135.2,77.6H45c-2.4,0-4.3,1.9-4.3,4.3v136.2c0,2.4,1.9,4.3,4.3,4.3h143.8c2.4,0,4.3-1.9,4.3-4.3
						l-5.3-90.9C186.2,99.4,163.1,77.6,135.2,77.6L135.2,77.6z"/>
					<path class="st3" d="M40,218.1V81.9c0-2.8,2.3-5,5-5h90.2c28.2,0,51.7,22.1,53.3,50.3l5.3,91c0,2.8-2.2,5-5,5H45
						C42.3,223.1,40,220.9,40,218.1z M45,78.4c-1.9,0-3.5,1.6-3.5,3.5v136.2c0,1.9,1.6,3.5,3.5,3.5h143.8c2,0,3.5-1.5,3.5-3.5
						l-5.3-90.9c-1.6-27.4-24.4-48.9-51.8-48.9H45z"/>
				</g>
				<g id="XMLID_1269_">
					<g>
						<rect x="189.7" y="219.6" class="st6" width="0.8" height="0.8"/>
					</g>
					<g>
						<path class="st6" d="M44.5,219.6H46v0.8h-1.5V219.6z M49.1,219.6h1.5v0.8h-1.5V219.6z M53.6,219.6h1.5v0.8h-1.5V219.6z
							 M58.1,219.6h1.5v0.8h-1.5V219.6z M62.7,219.6h1.5v0.8h-1.5V219.6z M67.2,219.6h1.5v0.8h-1.5V219.6z M71.8,219.6h1.5v0.8h-1.5
							V219.6z M76.3,219.6h1.5v0.8h-1.5V219.6z M80.8,219.6h1.5v0.8h-1.5V219.6z M85.4,219.6h1.5v0.8h-1.5V219.6z M89.9,219.6h1.5
							v0.8h-1.5V219.6z M94.5,219.6H96v0.8h-1.5V219.6z M99,219.6h1.5v0.8H99V219.6z M103.5,219.6h1.5v0.8h-1.5V219.6z M108.1,219.6
							h1.5v0.8h-1.5V219.6z M112.6,219.6h1.5v0.8h-1.5V219.6z M117.1,219.6h1.5v0.8h-1.5V219.6z M121.7,219.6h1.5v0.8h-1.5V219.6z
							 M126.2,219.6h1.5v0.8h-1.5V219.6z M130.8,219.6h1.5v0.8h-1.5V219.6z M135.3,219.6h1.5v0.8h-1.5V219.6z M139.8,219.6h1.5v0.8
							h-1.5V219.6z M144.4,219.6h1.5v0.8h-1.5V219.6z M148.9,219.6h1.5v0.8h-1.5V219.6z M153.4,219.6h1.5v0.8h-1.5V219.6z
							 M158,219.6h1.5v0.8H158V219.6z M162.5,219.6h1.5v0.8h-1.5V219.6z M167.1,219.6h1.5v0.8h-1.5V219.6z M171.6,219.6h1.5v0.8
							h-1.5V219.6z M176.1,219.6h1.5v0.8h-1.5V219.6z M180.7,219.6h1.5v0.8h-1.5V219.6z M185.2,219.6h1.5v0.8h-1.5V219.6z"/>
					</g>
					<g>
						<polygon class="st6" points="40.4,220.4 41.5,220.4 41.5,219.6 41.1,219.6 41.1,219.3 40.4,219.3 						"/>
					</g>
					<g>
						<rect x="40.4" y="214.3" class="st6" width="0.8" height="1.6"/>
					</g>
					<g>
						<polygon class="st6" points="40.4,211.1 41.1,211.1 41.1,210.7 41.5,210.7 41.5,209.9 40.4,209.9 						"/>
					</g>
					<g>
						<path class="st6" d="M44.5,209.9H46v0.8h-1.5V209.9z M49,209.9h1.5v0.8H49V209.9z M53.5,209.9H55v0.8h-1.5V209.9z M58.1,209.9
							h1.5v0.8h-1.5V209.9z M62.6,209.9h1.5v0.8h-1.5V209.9z M67.1,209.9h1.5v0.8h-1.5V209.9z M71.6,209.9h1.5v0.8h-1.5V209.9z
							 M76.1,209.9h1.5v0.8h-1.5V209.9z M80.6,209.9h1.5v0.8h-1.5V209.9z M85.1,209.9h1.5v0.8h-1.5V209.9z M89.6,209.9h1.5v0.8h-1.5
							V209.9z M94.2,209.9h1.5v0.8h-1.5V209.9z M98.7,209.9h1.5v0.8h-1.5V209.9z M103.2,209.9h1.5v0.8h-1.5V209.9z M107.7,209.9h1.5
							v0.8h-1.5V209.9z M112.2,209.9h1.5v0.8h-1.5V209.9z M116.7,209.9h1.5v0.8h-1.5V209.9z M121.2,209.9h1.5v0.8h-1.5V209.9z
							 M125.8,209.9h1.5v0.8h-1.5V209.9z M130.3,209.9h1.5v0.8h-1.5V209.9z M134.8,209.9h1.5v0.8h-1.5V209.9z M139.3,209.9h1.5v0.8
							h-1.5V209.9z M143.8,209.9h1.5v0.8h-1.5V209.9z M148.3,209.9h1.5v0.8h-1.5V209.9z M152.8,209.9h1.5v0.8h-1.5V209.9z
							 M157.3,209.9h1.5v0.8h-1.5V209.9z M161.9,209.9h1.5v0.8h-1.5V209.9z M166.4,209.9h1.5v0.8h-1.5V209.9z M170.9,209.9h1.5v0.8
							h-1.5V209.9z M175.4,209.9h1.5v0.8h-1.5V209.9z M179.9,209.9h1.5v0.8h-1.5V209.9z M184.4,209.9h1.5v0.8h-1.5V209.9z"/>
					</g>
					<g>
						<polygon class="st6" points="188.9,210.7 190.1,210.7 190,209.5 189.3,209.6 189.3,209.9 188.9,209.9 						"/>
					</g>
					<g>
						<path class="st6" d="M189,205.1l0.8,0l0.1,1.5l-0.8,0L189,205.1z M188.8,200.6l0.8,0l0.1,1.5l-0.8,0L188.8,200.6z
							 M188.5,196.1l0.8,0l0.1,1.5l-0.8,0L188.5,196.1z M188.3,191.6l0.8,0l0.1,1.5l-0.8,0L188.3,191.6z M188,187.1l0.8,0l0.1,1.5
							l-0.8,0L188,187.1z M187.8,182.6l0.8,0l0.1,1.5l-0.8,0L187.8,182.6z M187.5,178.1l0.8,0l0.1,1.5l-0.8,0L187.5,178.1z
							 M187.2,173.6l0.8,0l0.1,1.5l-0.8,0L187.2,173.6z M187,169.1l0.8,0l0.1,1.5l-0.8,0L187,169.1z M186.7,164.6l0.8,0l0.1,1.5
							l-0.8,0L186.7,164.6z M186.5,160.1l0.8,0l0.1,1.5l-0.8,0L186.5,160.1z M186.2,155.6l0.8,0l0.1,1.5l-0.8,0L186.2,155.6z
							 M186,151.1l0.8,0l0.1,1.5l-0.8,0L186,151.1z M185.7,146.6l0.8,0l0.1,1.5l-0.8,0L185.7,146.6z M185.5,142.1l0.8,0l0.1,1.5
							l-0.8,0L185.5,142.1z M185.2,137.6l0.8,0l0.1,1.5l-0.8,0L185.2,137.6z M185,133.1l0.8,0l0.1,1.5l-0.8,0L185,133.1z
							 M184.7,128.6l0.8,0l0.1,1.5l-0.8,0L184.7,128.6z M184.3,124.1l0.7-0.1c0.1,0.5,0.1,1,0.2,1.5l-0.8,0.1
							C184.4,125.1,184.4,124.6,184.3,124.1z M183.5,119.7l0.7-0.2c0.1,0.5,0.2,1,0.3,1.5l-0.7,0.1
							C183.7,120.7,183.6,120.2,183.5,119.7z M182.3,115.4l0.7-0.2c0.2,0.5,0.3,1,0.5,1.4l-0.7,0.2
							C182.6,116.3,182.5,115.9,182.3,115.4z M180.7,111.2l0.7-0.3c0.2,0.5,0.4,0.9,0.6,1.4l-0.7,0.3
							C181.1,112.1,180.9,111.7,180.7,111.2z M178.8,107.2l0.7-0.4c0.2,0.4,0.5,0.9,0.7,1.3l-0.7,0.3
							C179.2,108.1,179,107.6,178.8,107.2z M176.4,103.4l0.6-0.4c0.3,0.4,0.6,0.8,0.8,1.3l-0.6,0.4
							C177,104.2,176.7,103.8,176.4,103.4z M173.8,99.7l0.6-0.5c0.3,0.4,0.6,0.8,0.9,1.2l-0.6,0.5
							C174.4,100.5,174.1,100.1,173.8,99.7z M170.8,96.4l0.5-0.5c0.4,0.4,0.7,0.7,1,1.1l-0.6,0.5C171.5,97.1,171.2,96.8,170.8,96.4z
							 M167.6,93.3l0.5-0.6c0.4,0.3,0.8,0.7,1.1,1l-0.5,0.6C168.3,94,168,93.7,167.6,93.3z M164.1,90.6l0.4-0.6
							c0.4,0.3,0.8,0.6,1.2,0.9l-0.5,0.6C164.9,91.2,164.5,90.9,164.1,90.6z M160.3,88.1l0.4-0.7c0.4,0.3,0.9,0.5,1.3,0.8l-0.4,0.6
							C161.2,88.6,160.7,88.4,160.3,88.1z M156.4,86l0.3-0.7c0.5,0.2,0.9,0.4,1.4,0.7l-0.3,0.7C157.3,86.5,156.8,86.3,156.4,86z
							 M152.3,84.3l0.3-0.7c0.5,0.2,0.9,0.4,1.4,0.5l-0.3,0.7C153.2,84.7,152.7,84.5,152.3,84.3z M148,83l0.2-0.7
							c0.5,0.1,1,0.3,1.5,0.4l-0.2,0.7C148.9,83.2,148.5,83.1,148,83z M143.6,82l0.1-0.7c0.5,0.1,1,0.2,1.5,0.3l-0.1,0.7
							C144.6,82.2,144.1,82.1,143.6,82z M139.2,81.5l0.1-0.8c0.5,0,1,0.1,1.5,0.1l-0.1,0.7C140.2,81.6,139.7,81.5,139.2,81.5z
							 M135.3,81.3h-0.6v-0.8h0.6c0.3,0,0.6,0,0.9,0l0,0.8C135.9,81.3,135.6,81.3,135.3,81.3z M44.6,80.6h1.5v0.8h-1.5V80.6z
							 M49.1,80.6h1.5v0.8h-1.5V80.6z M53.6,80.6h1.5v0.8h-1.5V80.6z M58.1,80.6h1.5v0.8h-1.5V80.6z M62.6,80.6h1.5v0.8h-1.5V80.6z
							 M67.1,80.6h1.5v0.8h-1.5V80.6z M71.6,80.6h1.5v0.8h-1.5V80.6z M76.1,80.6h1.5v0.8h-1.5V80.6z M80.6,80.6h1.5v0.8h-1.5V80.6z
							 M85.1,80.6h1.5v0.8h-1.5V80.6z M89.6,80.6h1.5v0.8h-1.5V80.6z M94.1,80.6h1.5v0.8h-1.5V80.6z M98.6,80.6h1.5v0.8h-1.5V80.6z
							 M103.2,80.6h1.5v0.8h-1.5V80.6z M107.7,80.6h1.5v0.8h-1.5V80.6z M112.2,80.6h1.5v0.8h-1.5V80.6z M116.7,80.6h1.5v0.8h-1.5
							V80.6z M121.2,80.6h1.5v0.8h-1.5V80.6z M125.7,80.6h1.5v0.8h-1.5V80.6z M130.2,80.6h1.5v0.8h-1.5V80.6z"/>
					</g>
					<g>
						<rect x="40.8" y="80.6" class="st6" width="0.8" height="0.8"/>
					</g>
				</g>
			</g>
			<g>
				<g id="XMLID_1253_">
					<circle id="XMLID_1267_" class="st7" cx="146.6" cy="148.6" r="11.7"/>
					<circle id="XMLID_1266_" class="st2" cx="146.6" cy="148.2" r="11.2"/>
					<polygon id="XMLID_1265_" class="st9" points="129.3,146 145.4,143.1 163.8,145.3 145.8,150.1 					"/>
					<circle id="XMLID_1264_" class="st10" cx="146.6" cy="146.6" r="11.2"/>
					<circle id="XMLID_1263_" class="st11" cx="146.6" cy="146.6" r="9.7"/>
					<g>
						<circle id="XMLID_1262_" class="st3" cx="149.8" cy="150.3" r="1.8"/>
						<circle id="XMLID_1261_" class="st3" cx="149.7" cy="143" r="1.8"/>
						<circle id="XMLID_1259_" class="st3" cx="143.4" cy="150.3" r="1.8"/>
						<circle id="XMLID_1258_" class="st3" cx="143.3" cy="143" r="1.8"/>
						<line id="XMLID_1257_" class="st12" x1="142.8" y1="150.2" x2="149.6" y2="142.5"/>
						<line id="XMLID_1256_" class="st12" x1="143.7" y1="150.8" x2="150.5" y2="143.1"/>
						<line id="XMLID_1255_" class="st12" x1="149.7" y1="150.9" x2="142.6" y2="143"/>
						<line id="XMLID_1254_" class="st12" x1="150.4" y1="150.1" x2="143.3" y2="142.2"/>
					</g>
				</g>
			</g>
		</g>
	</g>
	<g id="XMLID_1_" class="st0">
		<defs>
			<rect id="XMLID_4932_" x="-13.5" width="327.1" height="300"/>
		</defs>
		<clipPath id="XMLID_4_">
			<use xlink:href="#XMLID_4932_"  style="overflow:visible;"/>
		</clipPath>
	</g>
	<g class="st0">
		<path class="st13" d="M150.1,4.6c38.7,0,75.1,15.1,102.5,42.5c27.4,27.4,42.5,63.8,42.5,102.5s-15.1,75.1-42.5,102.5
			c-27.4,27.4-63.8,42.5-102.5,42.5S75,279.5,47.6,252.1C20.2,224.7,5.1,188.3,5.1,149.6S20.2,74.5,47.6,47.1
			C75,19.7,111.4,4.6,150.1,4.6 M150.1-0.4c-82.8,0-150,67.2-150,150s67.2,150,150,150s150-67.2,150-150S232.9-0.4,150.1-0.4
			L150.1-0.4z"/>
	</g>
</g>
</svg>
