<?xml version="1.0" encoding="utf-8"?>
<!-- Generator: Adobe Illustrator 19.0.0, SVG Export Plug-In . SVG Version: 6.00 Build 0)  -->
<svg version="1.1" id="Layer_1" xmlns="http://www.w3.org/2000/svg" xmlns:xlink="http://www.w3.org/1999/xlink" x="0px" y="0px"
	 viewBox="0 0 300 300" style="enable-background:new 0 0 300 300;" xml:space="preserve">
<style type="text/css">
	.st0{clip-path:url(#SVGID_2_);}
	.st1{clip-path:url(#XMLID_3_);}
	.st2{fill:#DBDCDD;}
	.st3{fill:#404041;}
	.st4{fill:#CACCCE;}
	.st5{fill:#FFFFFF;}
	.st6{fill:#808184;}
	.st7{fill:#F1F1F2;}
	.st8{fill:#D0D2D3;}
	.st9{fill:#404041;stroke:#D0D2D3;stroke-width:0.5;stroke-miterlimit:10;}
	.st10{fill:#FFFFFF;stroke:#6D6E70;stroke-width:2;stroke-miterlimit:10;}
	.st11{fill:#FFFFFF;stroke:#929497;stroke-width:0.75;stroke-miterlimit:10;}
	.st12{fill:none;stroke:#6D6E70;stroke-width:0.5;stroke-miterlimit:10;}
	.st13{fill:#9AA0BB;}
</style>
<g>
	<defs>
		<circle id="SVGID_1_" cx="150.1" cy="149.6" r="150"/>
	</defs>
	<use xlink:href="#SVGID_1_"  style="overflow:visible;fill:#DDDDDD;"/>
	<clipPath id="SVGID_2_">
		<use xlink:href="#SVGID_1_"  style="overflow:visible;"/>
	</clipPath>
	<g id="XMLID_4081_" class="st0">
		<defs>
			<rect id="XMLID_4118_" y="-0.4" width="300" height="300"/>
		</defs>
		<clipPath id="XMLID_3_">
			<use xlink:href="#XMLID_4118_"  style="overflow:visible;"/>
		</clipPath>
		<g id="XMLID_1077_" class="st1">
			<g id="XMLID_1242_">
				<g id="XMLID_1251_">
					<polygon class="st2" points="148.2,80.1 172.8,80.1 158.5,89.3 					"/>
					<path class="st3" d="M158.5,90.2l-12.2-10.9h29.1L158.5,90.2z M150.2,80.9l8.4,7.5l11.7-7.5H150.2z"/>
				</g>
				<g id="XMLID_1250_">
					<polygon class="st4" points="160.9,84.3 170.4,80.5 161.2,81.8 152.8,80.6 					"/>
				</g>
				<g id="XMLID_1249_">
					<path class="st5" d="M150.9,90.1l5.5-3.3c10-6,21.4-9.2,33.1-9.2H255c2.4,0,4.3,1.9,4.3,4.3v136.2c0,2.4-1.9,4.3-4.3,4.3h-74.4
						l0.1,0c1.9,0,4.2-1.5,4.2-4.2l0,0v-95.8c0-1.2-0.5-2.4-1.4-3.2L150.9,90.1z"/>
					<path class="st3" d="M255,223.1h-78.1l3.8-1.5c0.8,0,1.8-0.4,2.4-1c0.5-0.5,1-1.3,1-2.5v-95.8c0-1-0.4-2-1.2-2.6L149.6,90
						l6.4-3.8c10.1-6.1,21.7-9.3,33.5-9.3H255c2.8,0,5,2.3,5,5v136.2C260,220.9,257.7,223.1,255,223.1z M184.2,221.6H255
						c1.9,0,3.5-1.6,3.5-3.5V81.9c0-1.9-1.6-3.5-3.5-3.5h-65.5c-11.5,0-22.8,3.1-32.7,9.1l-4.6,2.8l31.8,28.3c1.1,1,1.7,2.3,1.7,3.8
						v95.8C185.6,219.5,185.1,220.7,184.2,221.6z"/>
				</g>
				<g id="XMLID_1248_">
					<path class="st6" d="M154,93.1l-0.4-0.6l1.3-0.8l0.4,0.6L154,93.1z M157.8,90.7l-0.4-0.6c0.4-0.3,0.9-0.5,1.3-0.8l0.4,0.7
						C158.7,90.2,158.2,90.4,157.8,90.7z M161.7,88.5l-0.3-0.7c0.4-0.2,0.9-0.5,1.4-0.7l0.3,0.7C162.6,88,162.2,88.2,161.7,88.5z
						 M165.8,86.5l-0.3-0.7c0.5-0.2,0.9-0.4,1.4-0.6l0.3,0.7C166.7,86.1,166.2,86.3,165.8,86.5z M170,84.9l-0.2-0.7
						c0.5-0.2,1-0.3,1.4-0.5l0.2,0.7C170.9,84.6,170.4,84.7,170,84.9z M174.3,83.6l-0.2-0.7c0.5-0.1,1-0.3,1.5-0.4l0.2,0.7
						C175.2,83.3,174.7,83.4,174.3,83.6z M178.6,82.5l-0.1-0.7c0.5-0.1,1-0.2,1.5-0.3l0.1,0.7C179.6,82.4,179.1,82.5,178.6,82.5z
						 M183.1,81.8l-0.1-0.7c0.5-0.1,1-0.1,1.5-0.2l0.1,0.7C184.1,81.7,183.6,81.8,183.1,81.8z M187.5,81.4l0-0.8c0.5,0,1,0,1.5-0.1
						l0,0.8C188.5,81.4,188,81.4,187.5,81.4z M256.8,81.3h-1.5v-0.8h1.5V81.3z M252.3,81.3h-1.5v-0.8h1.5V81.3z M247.8,81.3h-1.5
						v-0.8h1.5V81.3z M243.3,81.3h-1.5v-0.8h1.5V81.3z M238.8,81.3h-1.5v-0.8h1.5V81.3z M234.2,81.3h-1.5v-0.8h1.5V81.3z
						 M229.7,81.3h-1.5v-0.8h1.5V81.3z M225.2,81.3h-1.5v-0.8h1.5V81.3z M220.7,81.3h-1.5v-0.8h1.5V81.3z M216.2,81.3h-1.5v-0.8h1.5
						V81.3z M211.6,81.3h-1.5v-0.8h1.5V81.3z M207.1,81.3h-1.5v-0.8h1.5V81.3z M202.6,81.3h-1.5v-0.8h1.5V81.3z M198.1,81.3h-1.5
						v-0.8h1.5V81.3z M193.5,81.3H192v-0.8h1.5V81.3z"/>
				</g>
				<g id="XMLID_1247_">
					<path class="st7" d="M187.6,124.9l18.9,96.7h-17.2l1.3-0.1c1.7-0.4,3.2-1.5,3.4-4.1l0,0L187.6,124.9z"/>
				</g>
				<g id="XMLID_1246_">
					<g>
						<rect x="258.5" y="209.9" class="st6" width="0.8" height="0.8"/>
					</g>
					<g>
						<path class="st6" d="M255.4,210.7h-1.5v-0.8h1.5V210.7z M250.7,210.7h-1.5v-0.8h1.5V210.7z M246.1,210.7h-1.5v-0.8h1.5V210.7z
							 M241.4,210.7h-1.5v-0.8h1.5V210.7z M236.8,210.7h-1.5v-0.8h1.5V210.7z M232.1,210.7h-1.5v-0.8h1.5V210.7z M227.5,210.7h-1.5
							v-0.8h1.5V210.7z M222.8,210.7h-1.5v-0.8h1.5V210.7z M218.2,210.7h-1.5v-0.8h1.5V210.7z M213.5,210.7H212v-0.8h1.5V210.7z
							 M208.9,210.7h-1.5v-0.8h1.5V210.7z M204.2,210.7h-1.5v-0.8h1.5V210.7z M199.6,210.7H198v-0.8h1.5V210.7z M194.9,210.7h-1.5
							v-0.8h1.5V210.7z M190.3,210.7h-1.5v-0.8h1.5V210.7z"/>
					</g>
					<g>
						<polygon class="st6" points="185.3,211.1 184.5,211.1 184.5,209.9 185.6,209.9 185.6,210.7 185.3,210.7 						"/>
					</g>
					<g>
						<rect x="184.5" y="214.3" class="st6" width="0.8" height="1.6"/>
					</g>
					<g>
						<polygon class="st6" points="185.6,220.4 184.5,220.4 184.5,219.3 185.3,219.3 185.3,219.6 185.6,219.6 						"/>
					</g>
					<g>
						<path class="st6" d="M255.4,220.4h-1.5v-0.8h1.5V220.4z M250.7,220.4h-1.5v-0.8h1.5V220.4z M246.1,220.4h-1.5v-0.8h1.5V220.4z
							 M241.4,220.4h-1.5v-0.8h1.5V220.4z M236.8,220.4h-1.5v-0.8h1.5V220.4z M232.1,220.4h-1.5v-0.8h1.5V220.4z M227.5,220.4h-1.5
							v-0.8h1.5V220.4z M222.8,220.4h-1.5v-0.8h1.5V220.4z M218.2,220.4h-1.5v-0.8h1.5V220.4z M213.5,220.4H212v-0.8h1.5V220.4z
							 M208.9,220.4h-1.5v-0.8h1.5V220.4z M204.2,220.4h-1.5v-0.8h1.5V220.4z M199.6,220.4H198v-0.8h1.5V220.4z M194.9,220.4h-1.5
							v-0.8h1.5V220.4z M190.3,220.4h-1.5v-0.8h1.5V220.4z"/>
					</g>
					<g>
						<rect x="258.5" y="219.6" class="st6" width="0.8" height="0.8"/>
					</g>
				</g>
				<g id="XMLID_1245_">
					<path class="st8" d="M187.6,124.9l10.5,96.7h-8.8l1.3-0.1c1.7-0.4,3.2-1.5,3.4-4.1l0,0L187.6,124.9z"/>
				</g>
				<g id="XMLID_1244_">
					<path class="st5" d="M135.2,77.6H45c-2.4,0-4.3,1.9-4.3,4.3v136.2c0,2.4,1.9,4.3,4.3,4.3h143.8c2.4,0,4.3-1.9,4.3-4.3
						l-5.3-90.9C186.2,99.4,163.1,77.6,135.2,77.6L135.2,77.6z"/>
					<path class="st3" d="M188.8,223.1H45c-2.8,0-5-2.3-5-5V81.9c0-2.8,2.3-5,5-5h90.2c28.3,0,51.7,22.1,53.3,50.3l5.3,90.9
						C193.9,220.9,191.6,223.1,188.8,223.1z M45,78.4c-1.9,0-3.5,1.6-3.5,3.5v136.2c0,1.9,1.6,3.5,3.5,3.5h143.8
						c2,0,3.5-1.5,3.5-3.5l-5.3-90.9c-1.6-27.4-24.4-48.9-51.8-48.9H45z"/>
				</g>
				<g id="XMLID_1243_">
					<g>
						<rect x="189.7" y="219.6" class="st6" width="0.8" height="0.8"/>
					</g>
					<g>
						<path class="st6" d="M186.7,220.4h-1.5v-0.8h1.5V220.4z M182.2,220.4h-1.5v-0.8h1.5V220.4z M177.6,220.4h-1.5v-0.8h1.5V220.4z
							 M173.1,220.4h-1.5v-0.8h1.5V220.4z M168.6,220.4h-1.5v-0.8h1.5V220.4z M164,220.4h-1.5v-0.8h1.5V220.4z M159.5,220.4H158
							v-0.8h1.5V220.4z M155,220.4h-1.5v-0.8h1.5V220.4z M150.4,220.4h-1.5v-0.8h1.5V220.4z M145.9,220.4h-1.5v-0.8h1.5V220.4z
							 M141.3,220.4h-1.5v-0.8h1.5V220.4z M136.8,220.4h-1.5v-0.8h1.5V220.4z M132.3,220.4h-1.5v-0.8h1.5V220.4z M127.7,220.4h-1.5
							v-0.8h1.5V220.4z M123.2,220.4h-1.5v-0.8h1.5V220.4z M118.7,220.4h-1.5v-0.8h1.5V220.4z M114.1,220.4h-1.5v-0.8h1.5V220.4z
							 M109.6,220.4h-1.5v-0.8h1.5V220.4z M105,220.4h-1.5v-0.8h1.5V220.4z M100.5,220.4H99v-0.8h1.5V220.4z M96,220.4h-1.5v-0.8H96
							V220.4z M91.4,220.4h-1.5v-0.8h1.5V220.4z M86.9,220.4h-1.5v-0.8h1.5V220.4z M82.3,220.4h-1.5v-0.8h1.5V220.4z M77.8,220.4
							h-1.5v-0.8h1.5V220.4z M73.3,220.4h-1.5v-0.8h1.5V220.4z M68.7,220.4h-1.5v-0.8h1.5V220.4z M64.2,220.4h-1.5v-0.8h1.5V220.4z
							 M59.7,220.4h-1.5v-0.8h1.5V220.4z M55.1,220.4h-1.5v-0.8h1.5V220.4z M50.6,220.4h-1.5v-0.8h1.5V220.4z M46,220.4h-1.5v-0.8
							H46V220.4z"/>
					</g>
					<g>
						<polygon class="st6" points="41.5,220.4 40.4,220.4 40.4,219.3 41.1,219.3 41.1,219.6 41.5,219.6 						"/>
					</g>
					<g>
						<rect x="40.4" y="214.3" class="st6" width="0.8" height="1.6"/>
					</g>
					<g>
						<polygon class="st6" points="41.1,211.1 40.4,211.1 40.4,209.9 41.5,209.9 41.5,210.7 41.1,210.7 						"/>
					</g>
					<g>
						<path class="st6" d="M185.9,210.7h-1.5v-0.8h1.5V210.7z M181.4,210.7h-1.5v-0.8h1.5V210.7z M176.9,210.7h-1.5v-0.8h1.5V210.7z
							 M172.4,210.7h-1.5v-0.8h1.5V210.7z M167.9,210.7h-1.5v-0.8h1.5V210.7z M163.4,210.7h-1.5v-0.8h1.5V210.7z M158.9,210.7h-1.5
							v-0.8h1.5V210.7z M154.3,210.7h-1.5v-0.8h1.5V210.7z M149.8,210.7h-1.5v-0.8h1.5V210.7z M145.3,210.7h-1.5v-0.8h1.5V210.7z
							 M140.8,210.7h-1.5v-0.8h1.5V210.7z M136.3,210.7h-1.5v-0.8h1.5V210.7z M131.8,210.7h-1.5v-0.8h1.5V210.7z M127.3,210.7h-1.5
							v-0.8h1.5V210.7z M122.7,210.7h-1.5v-0.8h1.5V210.7z M118.2,210.7h-1.5v-0.8h1.5V210.7z M113.7,210.7h-1.5v-0.8h1.5V210.7z
							 M109.2,210.7h-1.5v-0.8h1.5V210.7z M104.7,210.7h-1.5v-0.8h1.5V210.7z M100.2,210.7h-1.5v-0.8h1.5V210.7z M95.7,210.7h-1.5
							v-0.8h1.5V210.7z M91.2,210.7h-1.5v-0.8h1.5V210.7z M86.6,210.7h-1.5v-0.8h1.5V210.7z M82.1,210.7h-1.5v-0.8h1.5V210.7z
							 M77.6,210.7h-1.5v-0.8h1.5V210.7z M73.1,210.7h-1.5v-0.8h1.5V210.7z M68.6,210.7h-1.5v-0.8h1.5V210.7z M64.1,210.7h-1.5v-0.8
							h1.5V210.7z M59.6,210.7h-1.5v-0.8h1.5V210.7z M55,210.7h-1.5v-0.8H55V210.7z M50.5,210.7H49v-0.8h1.5V210.7z M46,210.7h-1.5
							v-0.8H46V210.7z"/>
					</g>
					<g>
						<polygon class="st6" points="190.1,210.7 188.9,210.7 188.9,209.9 189.3,209.9 189.3,209.6 190,209.5 						"/>
					</g>
					<g>
						<path class="st6" d="M189.1,206.6l-0.1-1.5l0.8,0l0.1,1.5L189.1,206.6z M188.9,202.1l-0.1-1.5l0.8,0l0.1,1.5L188.9,202.1z
							 M188.6,197.6l-0.1-1.5l0.8,0l0.1,1.5L188.6,197.6z M188.3,193.1l-0.1-1.5l0.8,0l0.1,1.5L188.3,193.1z M188.1,188.6l-0.1-1.5
							l0.8,0l0.1,1.5L188.1,188.6z M187.8,184.1l-0.1-1.5l0.8,0l0.1,1.5L187.8,184.1z M187.6,179.6l-0.1-1.5l0.8,0l0.1,1.5
							L187.6,179.6z M187.3,175.1l-0.1-1.5l0.8,0l0.1,1.5L187.3,175.1z M187.1,170.6l-0.1-1.5l0.8,0l0.1,1.5L187.1,170.6z
							 M186.8,166.1l-0.1-1.5l0.8,0l0.1,1.5L186.8,166.1z M186.6,161.6l-0.1-1.5l0.8,0l0.1,1.5L186.6,161.6z M186.3,157.1l-0.1-1.5
							l0.8,0l0.1,1.5L186.3,157.1z M186.1,152.6l-0.1-1.5l0.8,0l0.1,1.5L186.1,152.6z M185.8,148.1l-0.1-1.5l0.8,0l0.1,1.5
							L185.8,148.1z M185.6,143.6l-0.1-1.5l0.8,0l0.1,1.5L185.6,143.6z M185.3,139.1l-0.1-1.5l0.8,0l0.1,1.5L185.3,139.1z
							 M185.1,134.6l-0.1-1.5l0.8,0l0.1,1.5L185.1,134.6z M184.8,130.1l-0.1-1.5l0.8,0l0.1,1.5L184.8,130.1z M184.5,125.6
							c-0.1-0.5-0.1-1-0.2-1.5l0.7-0.1c0.1,0.5,0.1,1,0.2,1.5L184.5,125.6z M183.8,121.2c-0.1-0.5-0.2-1-0.3-1.5l0.7-0.2
							c0.1,0.5,0.2,1,0.3,1.5L183.8,121.2z M182.8,116.8c-0.1-0.5-0.3-1-0.4-1.4l0.7-0.2c0.2,0.5,0.3,1,0.5,1.4L182.8,116.8z
							 M181.3,112.6c-0.2-0.5-0.4-0.9-0.6-1.4l0.7-0.3c0.2,0.5,0.4,0.9,0.6,1.4L181.3,112.6z M179.5,108.5c-0.2-0.4-0.5-0.9-0.7-1.3
							l0.7-0.4c0.2,0.4,0.5,0.9,0.7,1.3L179.5,108.5z M177.3,104.6c-0.3-0.4-0.5-0.8-0.8-1.3l0.6-0.4c0.3,0.4,0.6,0.8,0.8,1.3
							L177.3,104.6z M174.7,100.9c-0.3-0.4-0.6-0.8-0.9-1.2l0.6-0.5c0.3,0.4,0.6,0.8,0.9,1.2L174.7,100.9z M171.9,97.5
							c-0.3-0.4-0.7-0.7-1-1.1l0.5-0.5c0.4,0.4,0.7,0.7,1,1.1L171.9,97.5z M168.7,94.3c-0.4-0.3-0.7-0.7-1.1-1l0.5-0.6
							c0.4,0.3,0.8,0.7,1.1,1L168.7,94.3z M165.3,91.5c-0.4-0.3-0.8-0.6-1.2-0.9l0.4-0.6c0.4,0.3,0.8,0.6,1.2,0.9L165.3,91.5z
							 M161.6,88.9c-0.4-0.3-0.8-0.5-1.3-0.8l0.4-0.7c0.4,0.3,0.9,0.5,1.3,0.8L161.6,88.9z M157.7,86.7c-0.4-0.2-0.9-0.4-1.3-0.7
							l0.3-0.7c0.5,0.2,0.9,0.4,1.4,0.7L157.7,86.7z M153.6,84.9c-0.5-0.2-0.9-0.4-1.4-0.5l0.3-0.7c0.5,0.2,0.9,0.4,1.4,0.5
							L153.6,84.9z M149.4,83.4c-0.5-0.1-1-0.3-1.4-0.4l0.2-0.7c0.5,0.1,1,0.3,1.5,0.4L149.4,83.4z M145.1,82.3
							c-0.5-0.1-1-0.2-1.5-0.3l0.1-0.7c0.5,0.1,1,0.2,1.5,0.3L145.1,82.3z M140.7,81.6c-0.5-0.1-1-0.1-1.5-0.1l0.1-0.8
							c0.5,0,1,0.1,1.5,0.1L140.7,81.6z M136.2,81.3c-0.3,0-0.6,0-0.9,0h-0.6v-0.8h0.6c0.3,0,0.6,0,0.9,0L136.2,81.3z M131.7,81.3
							h-1.5v-0.8h1.5V81.3z M127.2,81.3h-1.5v-0.8h1.5V81.3z M122.7,81.3h-1.5v-0.8h1.5V81.3z M118.2,81.3h-1.5v-0.8h1.5V81.3z
							 M113.7,81.3h-1.5v-0.8h1.5V81.3z M109.2,81.3h-1.5v-0.8h1.5V81.3z M104.7,81.3h-1.5v-0.8h1.5V81.3z M100.2,81.3h-1.5v-0.8
							h1.5V81.3z M95.6,81.3h-1.5v-0.8h1.5V81.3z M91.1,81.3h-1.5v-0.8h1.5V81.3z M86.6,81.3h-1.5v-0.8h1.5V81.3z M82.1,81.3h-1.5
							v-0.8h1.5V81.3z M77.6,81.3h-1.5v-0.8h1.5V81.3z M73.1,81.3h-1.5v-0.8h1.5V81.3z M68.6,81.3h-1.5v-0.8h1.5V81.3z M64.1,81.3
							h-1.5v-0.8h1.5V81.3z M59.6,81.3h-1.5v-0.8h1.5V81.3z M55.1,81.3h-1.5v-0.8h1.5V81.3z M50.6,81.3h-1.5v-0.8h1.5V81.3z
							 M46.1,81.3h-1.5v-0.8h1.5V81.3z"/>
					</g>
					<g>
						<rect x="40.8" y="80.6" class="st6" width="0.8" height="0.8"/>
					</g>
				</g>
			</g>
			<g>
				<g id="XMLID_1228_">
					<circle id="XMLID_1241_" class="st7" cx="150.4" cy="136.6" r="11.7"/>
					<circle id="XMLID_1240_" class="st2" cx="150.4" cy="136.3" r="11.2"/>
					<polygon id="XMLID_1239_" class="st9" points="167.7,134 151.6,131.1 133.2,133.4 151.2,138.2 					"/>
					<circle id="XMLID_1238_" class="st10" cx="150.4" cy="134.7" r="11.2"/>
					<circle id="XMLID_1237_" class="st11" cx="150.4" cy="134.7" r="9.7"/>
					<g>
						<circle id="XMLID_1236_" class="st3" cx="147.2" cy="138.3" r="1.8"/>
						<circle id="XMLID_1235_" class="st3" cx="147.3" cy="131" r="1.8"/>
						<circle id="XMLID_1234_" class="st3" cx="153.6" cy="138.3" r="1.8"/>
						<circle id="XMLID_1233_" class="st3" cx="153.7" cy="131" r="1.8"/>
						<line id="XMLID_1232_" class="st12" x1="154.2" y1="138.2" x2="147.4" y2="130.5"/>
						<line id="XMLID_1231_" class="st12" x1="153.3" y1="138.8" x2="146.5" y2="131.1"/>
						<line id="XMLID_1230_" class="st12" x1="147.3" y1="138.9" x2="154.4" y2="131.1"/>
						<line id="XMLID_1229_" class="st12" x1="146.6" y1="138.1" x2="153.7" y2="130.3"/>
					</g>
				</g>
			</g>
			<g>
				<g id="XMLID_1078_">
					<circle id="XMLID_1227_" class="st7" cx="150.4" cy="179.2" r="11.7"/>
					<circle id="XMLID_1226_" class="st2" cx="150.4" cy="178.9" r="11.2"/>
					<polygon id="XMLID_1089_" class="st9" points="167.7,176.6 151.6,173.8 133.2,176 151.2,180.8 					"/>
					<circle id="XMLID_1088_" class="st10" cx="150.4" cy="177.3" r="11.2"/>
					<circle id="XMLID_1087_" class="st11" cx="150.4" cy="177.3" r="9.7"/>
					<g>
						<circle id="XMLID_1086_" class="st3" cx="147.2" cy="180.9" r="1.8"/>
						<circle id="XMLID_1085_" class="st3" cx="147.3" cy="173.6" r="1.8"/>
						<circle id="XMLID_1084_" class="st3" cx="153.6" cy="180.9" r="1.8"/>
						<circle id="XMLID_1083_" class="st3" cx="153.7" cy="173.6" r="1.8"/>
						<line id="XMLID_1082_" class="st12" x1="154.2" y1="180.8" x2="147.4" y2="173.1"/>
						<line id="XMLID_1081_" class="st12" x1="153.3" y1="181.5" x2="146.5" y2="173.8"/>
						<line id="XMLID_1080_" class="st12" x1="147.3" y1="181.5" x2="154.4" y2="173.7"/>
						<line id="XMLID_1079_" class="st12" x1="146.6" y1="180.7" x2="153.7" y2="172.9"/>
					</g>
				</g>
			</g>
		</g>
	</g>
	<g id="XMLID_1_" class="st0">
		<defs>
			<rect id="XMLID_4932_" x="-13.5" width="327.1" height="300"/>
		</defs>
		<clipPath id="XMLID_4_">
			<use xlink:href="#XMLID_4932_"  style="overflow:visible;"/>
		</clipPath>
	</g>
	<g class="st0">
		<path class="st13" d="M150.1,4.6c38.7,0,75.1,15.1,102.5,42.5c27.4,27.4,42.5,63.8,42.5,102.5s-15.1,75.1-42.5,102.5
			c-27.4,27.4-63.8,42.5-102.5,42.5S75,279.5,47.6,252.1C20.2,224.7,5.1,188.3,5.1,149.6S20.2,74.5,47.6,47.1
			C75,19.7,111.4,4.6,150.1,4.6 M150.1-0.4c-82.8,0-150,67.2-150,150s67.2,150,150,150s150-67.2,150-150S232.9-0.4,150.1-0.4
			L150.1-0.4z"/>
	</g>
</g>
</svg>
