<?xml version="1.0" encoding="utf-8"?>
<!-- Generator: Adobe Illustrator 19.0.0, SVG Export Plug-In . SVG Version: 6.00 Build 0)  -->
<svg version="1.1" id="Layer_1" xmlns="http://www.w3.org/2000/svg" xmlns:xlink="http://www.w3.org/1999/xlink" x="0px" y="0px"
	 viewBox="0 0 300 300" style="enable-background:new 0 0 300 300;" xml:space="preserve">
<style type="text/css">
	.st0{clip-path:url(#SVGID_2_);}
	.st1{clip-path:url(#XMLID_3_);}
	.st2{fill:#DBDCDD;}
	.st3{fill:#404041;}
	.st4{fill:#CACCCE;}
	.st5{fill:#FFFFFF;}
	.st6{fill:#808184;}
	.st7{fill:#F1F1F2;}
	.st8{fill:#D0D2D3;}
	.st9{fill:#404041;stroke:#D0D2D3;stroke-width:0.5;stroke-miterlimit:10;}
	.st10{fill:#FFFFFF;stroke:#6D6E70;stroke-width:2;stroke-miterlimit:10;}
	.st11{fill:#FFFFFF;stroke:#929497;stroke-width:0.75;stroke-miterlimit:10;}
	.st12{fill:none;stroke:#6D6E70;stroke-width:0.5;stroke-miterlimit:10;}
	.st13{fill:#9AA0BB;}
</style>
<g>
	<defs>
		<circle id="SVGID_1_" cx="150.1" cy="149.6" r="150"/>
	</defs>
	<use xlink:href="#SVGID_1_"  style="overflow:visible;fill:#DDDDDD;"/>
	<clipPath id="SVGID_2_">
		<use xlink:href="#SVGID_1_"  style="overflow:visible;"/>
	</clipPath>
	<g id="XMLID_4081_" class="st0">
		<defs>
			<rect id="XMLID_4118_" y="-0.4" width="300" height="300"/>
		</defs>
		<clipPath id="XMLID_3_">
			<use xlink:href="#XMLID_4118_"  style="overflow:visible;"/>
		</clipPath>
		<g id="XMLID_869_" class="st1">
			<g id="XMLID_1067_">
				<g id="XMLID_1076_">
					<polygon class="st2" points="140.6,81 165.2,81 150.9,90.1 					"/>
					<path class="st3" d="M150.8,91.1l-12.2-10.9h29.1L150.8,91.1z M142.6,81.7l8.4,7.5l11.7-7.5H142.6z"/>
				</g>
				<g id="XMLID_1075_">
					<polygon class="st4" points="150.9,90.1 165.2,81 150.9,85.5 141.2,81 					"/>
				</g>
				<g id="XMLID_1074_">
					<path class="st5" d="M150.9,90.1l18.5-11.8c0.7-0.4,1.5-0.7,2.3-0.7H255c2.4,0,4.3,1.9,4.3,4.3v136.2c0,2.4-1.9,4.3-4.3,4.3
						h-74.4l0.1,0c1.9,0,4.2-1.5,4.2-4.2l0,0v-95.8c0-1.2-0.5-2.4-1.4-3.2L150.9,90.1z"/>
					<path class="st3" d="M255,223.1h-78.1l3.8-1.5c0.9,0,1.8-0.4,2.4-1c0.5-0.5,1-1.3,1-2.5v-95.8c0-1-0.4-2-1.2-2.6L149.6,90
						l19.3-12.4c0.8-0.5,1.7-0.8,2.7-0.8H255c2.8,0,5,2.3,5,5v136.2C260,220.9,257.7,223.1,255,223.1z M184.2,221.6H255
						c1.9,0,3.5-1.6,3.5-3.5V81.9c0-1.9-1.6-3.5-3.5-3.5h-83.3c-0.7,0-1.3,0.2-1.9,0.6l-17.6,11.3l31.8,28.3c1.1,1,1.7,2.3,1.7,3.8
						v95.8C185.6,219.5,185.1,220.7,184.2,221.6z"/>
				</g>
				<g id="XMLID_1073_">
					<path class="st6" d="M154,93.1l-0.4-0.6l1.2-0.9l0.4,0.6L154,93.1z M157.7,90.5l-0.4-0.6l1.2-0.9l0.4,0.6L157.7,90.5z
						 M161.4,87.9l-0.4-0.6l1.2-0.9l0.4,0.6L161.4,87.9z M165.1,85.3l-0.4-0.6l1.2-0.9l0.4,0.6L165.1,85.3z M168.8,82.7l-0.4-0.6
						l1.3-0.9l0.4,0.6L168.8,82.7z M255.6,81.3h-1.5v-0.8h1.5V81.3z M251.1,81.3h-1.5v-0.8h1.5V81.3z M246.6,81.3h-1.5v-0.8h1.5
						V81.3z M242.1,81.3h-1.5v-0.8h1.5V81.3z M237.6,81.3H236v-0.8h1.5V81.3z M233,81.3h-1.5v-0.8h1.5V81.3z M228.5,81.3H227v-0.8
						h1.5V81.3z M224,81.3h-1.5v-0.8h1.5V81.3z M219.5,81.3H218v-0.8h1.5V81.3z M214.9,81.3h-1.5v-0.8h1.5V81.3z M210.4,81.3h-1.5
						v-0.8h1.5V81.3z M205.9,81.3h-1.5v-0.8h1.5V81.3z M201.4,81.3h-1.5v-0.8h1.5V81.3z M196.9,81.3h-1.5v-0.8h1.5V81.3z
						 M192.3,81.3h-1.5v-0.8h1.5V81.3z M187.8,81.3h-1.5v-0.8h1.5V81.3z M183.3,81.3h-1.5v-0.8h1.5V81.3z M178.8,81.3h-1.5v-0.8h1.5
						V81.3z M174.3,81.3h-1.5v-0.8h1.5V81.3z"/>
				</g>
				<g id="XMLID_1072_">
					<path class="st7" d="M184.9,124.9l12.6,96.7h-17.2l1.3-0.1c1.7-0.4,3.2-1.5,3.4-4.1l0,0V124.9z"/>
				</g>
				<g id="XMLID_1071_">
					<g>
						<rect x="258.5" y="209.9" class="st6" width="0.8" height="0.8"/>
					</g>
					<g>
						<path class="st6" d="M255.4,210.7h-1.5v-0.8h1.5V210.7z M250.7,210.7h-1.5v-0.8h1.5V210.7z M246.1,210.7h-1.5v-0.8h1.5V210.7z
							 M241.4,210.7h-1.5v-0.8h1.5V210.7z M236.8,210.7h-1.5v-0.8h1.5V210.7z M232.1,210.7h-1.5v-0.8h1.5V210.7z M227.5,210.7h-1.5
							v-0.8h1.5V210.7z M222.8,210.7h-1.5v-0.8h1.5V210.7z M218.2,210.7h-1.5v-0.8h1.5V210.7z M213.5,210.7H212v-0.8h1.5V210.7z
							 M208.9,210.7h-1.5v-0.8h1.5V210.7z M204.2,210.7h-1.5v-0.8h1.5V210.7z M199.6,210.7H198v-0.8h1.5V210.7z M194.9,210.7h-1.5
							v-0.8h1.5V210.7z M190.3,210.7h-1.5v-0.8h1.5V210.7z"/>
					</g>
					<g>
						<polygon class="st6" points="185.3,211.1 184.5,211.1 184.5,209.9 185.6,209.9 185.6,210.7 185.3,210.7 						"/>
					</g>
					<g>
						<rect x="184.5" y="214.3" class="st6" width="0.8" height="1.6"/>
					</g>
					<g>
						<polygon class="st6" points="185.6,220.4 184.5,220.4 184.5,219.3 185.3,219.3 185.3,219.6 185.6,219.6 						"/>
					</g>
					<g>
						<path class="st6" d="M255.4,220.4h-1.5v-0.8h1.5V220.4z M250.7,220.4h-1.5v-0.8h1.5V220.4z M246.1,220.4h-1.5v-0.8h1.5V220.4z
							 M241.4,220.4h-1.5v-0.8h1.5V220.4z M236.8,220.4h-1.5v-0.8h1.5V220.4z M232.1,220.4h-1.5v-0.8h1.5V220.4z M227.5,220.4h-1.5
							v-0.8h1.5V220.4z M222.8,220.4h-1.5v-0.8h1.5V220.4z M218.2,220.4h-1.5v-0.8h1.5V220.4z M213.5,220.4H212v-0.8h1.5V220.4z
							 M208.9,220.4h-1.5v-0.8h1.5V220.4z M204.2,220.4h-1.5v-0.8h1.5V220.4z M199.6,220.4H198v-0.8h1.5V220.4z M194.9,220.4h-1.5
							v-0.8h1.5V220.4z M190.3,220.4h-1.5v-0.8h1.5V220.4z"/>
					</g>
					<g>
						<rect x="258.5" y="219.6" class="st6" width="0.8" height="0.8"/>
					</g>
				</g>
				<g id="XMLID_1070_">
					<path class="st8" d="M184.9,124.9l4.2,96.7h-8.8l1.3-0.1c1.7-0.4,3.2-1.5,3.4-4.1l0,0V124.9z"/>
				</g>
				<g id="XMLID_1069_">
					<path class="st5" d="M135.2,77.6H45c-2.4,0-4.3,1.9-4.3,4.3v136.2c0,2.4,1.9,4.3,4.3,4.3h135.6c2.4,0,4.3-1.9,4.3-4.3v-95.8
						c0-1.2-0.5-2.4-1.4-3.2l-45.4-40.4C137.3,78,136.3,77.6,135.2,77.6z"/>
					<path class="st3" d="M180.6,223.1H45c-2.8,0-5-2.3-5-5V81.9c0-2.8,2.3-5,5-5h90.2c1.2,0,2.4,0.5,3.3,1.3l45.4,40.4
						c1.1,1,1.7,2.3,1.7,3.8v95.8C185.6,220.9,183.4,223.1,180.6,223.1z M45,78.4c-1.9,0-3.5,1.6-3.5,3.5v136.2
						c0,1.9,1.6,3.5,3.5,3.5h135.6c2,0,3.5-1.5,3.5-3.5v-95.8c0-1-0.4-2-1.2-2.6l-45.4-40.4c-0.6-0.6-1.5-0.9-2.3-0.9H45z"/>
				</g>
				<g id="XMLID_1068_">
					<g>
						<rect x="180.2" y="219.6" class="st6" width="0.8" height="0.8"/>
					</g>
					<g>
						<path class="st6" d="M177.2,220.4h-1.5v-0.8h1.5V220.4z M172.7,220.4h-1.5v-0.8h1.5V220.4z M168.2,220.4h-1.5v-0.8h1.5V220.4z
							 M163.7,220.4h-1.5v-0.8h1.5V220.4z M159.1,220.4h-1.5v-0.8h1.5V220.4z M154.6,220.4h-1.5v-0.8h1.5V220.4z M150.1,220.4h-1.5
							v-0.8h1.5V220.4z M145.6,220.4H144v-0.8h1.5V220.4z M141,220.4h-1.5v-0.8h1.5V220.4z M136.5,220.4H135v-0.8h1.5V220.4z
							 M132,220.4h-1.5v-0.8h1.5V220.4z M127.5,220.4H126v-0.8h1.5V220.4z M122.9,220.4h-1.5v-0.8h1.5V220.4z M118.4,220.4h-1.5
							v-0.8h1.5V220.4z M113.9,220.4h-1.5v-0.8h1.5V220.4z M109.4,220.4h-1.5v-0.8h1.5V220.4z M104.8,220.4h-1.5v-0.8h1.5V220.4z
							 M100.3,220.4h-1.5v-0.8h1.5V220.4z M95.8,220.4h-1.5v-0.8h1.5V220.4z M91.3,220.4h-1.5v-0.8h1.5V220.4z M86.7,220.4h-1.5
							v-0.8h1.5V220.4z M82.2,220.4h-1.5v-0.8h1.5V220.4z M77.7,220.4h-1.5v-0.8h1.5V220.4z M73.2,220.4h-1.5v-0.8h1.5V220.4z
							 M68.6,220.4h-1.5v-0.8h1.5V220.4z M64.1,220.4h-1.5v-0.8h1.5V220.4z M59.6,220.4h-1.5v-0.8h1.5V220.4z M55.1,220.4h-1.5v-0.8
							h1.5V220.4z M50.6,220.4H49v-0.8h1.5V220.4z M46,220.4h-1.5v-0.8H46V220.4z"/>
					</g>
					<g>
						<polygon class="st6" points="41.5,220.4 40.4,220.4 40.4,219.3 41.1,219.3 41.1,219.6 41.5,219.6 						"/>
					</g>
					<g>
						<rect x="40.4" y="214.3" class="st6" width="0.8" height="1.6"/>
					</g>
					<g>
						<polygon class="st6" points="41.1,211.1 40.4,211.1 40.4,209.9 41.5,209.9 41.5,210.7 41.1,210.7 						"/>
					</g>
					<g>
						<path class="st6" d="M177.2,210.7h-1.5v-0.8h1.5V210.7z M172.7,210.7h-1.5v-0.8h1.5V210.7z M168.2,210.7h-1.5v-0.8h1.5V210.7z
							 M163.7,210.7h-1.5v-0.8h1.5V210.7z M159.1,210.7h-1.5v-0.8h1.5V210.7z M154.6,210.7h-1.5v-0.8h1.5V210.7z M150.1,210.7h-1.5
							v-0.8h1.5V210.7z M145.6,210.7H144v-0.8h1.5V210.7z M141,210.7h-1.5v-0.8h1.5V210.7z M136.5,210.7H135v-0.8h1.5V210.7z
							 M132,210.7h-1.5v-0.8h1.5V210.7z M127.5,210.7H126v-0.8h1.5V210.7z M122.9,210.7h-1.5v-0.8h1.5V210.7z M118.4,210.7h-1.5
							v-0.8h1.5V210.7z M113.9,210.7h-1.5v-0.8h1.5V210.7z M109.4,210.7h-1.5v-0.8h1.5V210.7z M104.8,210.7h-1.5v-0.8h1.5V210.7z
							 M100.3,210.7h-1.5v-0.8h1.5V210.7z M95.8,210.7h-1.5v-0.8h1.5V210.7z M91.3,210.7h-1.5v-0.8h1.5V210.7z M86.7,210.7h-1.5
							v-0.8h1.5V210.7z M82.2,210.7h-1.5v-0.8h1.5V210.7z M77.7,210.7h-1.5v-0.8h1.5V210.7z M73.2,210.7h-1.5v-0.8h1.5V210.7z
							 M68.6,210.7h-1.5v-0.8h1.5V210.7z M64.1,210.7h-1.5v-0.8h1.5V210.7z M59.6,210.7h-1.5v-0.8h1.5V210.7z M55.1,210.7h-1.5v-0.8
							h1.5V210.7z M50.6,210.7H49v-0.8h1.5V210.7z M46,210.7h-1.5v-0.8H46V210.7z"/>
					</g>
					<g>
						<polygon class="st6" points="181.4,210.7 180.2,210.7 180.2,209.9 180.6,209.9 180.6,209.5 181.4,209.5 						"/>
					</g>
					<g>
						<path class="st6" d="M181.4,206.6h-0.8v-1.5h0.8V206.6z M181.4,202.1h-0.8v-1.5h0.8V202.1z M181.4,197.6h-0.8v-1.5h0.8V197.6z
							 M181.4,193.1h-0.8v-1.5h0.8V193.1z M181.4,188.6h-0.8v-1.5h0.8V188.6z M181.4,184.1h-0.8v-1.5h0.8V184.1z M181.4,179.7h-0.8
							v-1.5h0.8V179.7z M181.4,175.2h-0.8v-1.5h0.8V175.2z M181.4,170.7h-0.8v-1.5h0.8V170.7z M181.4,166.2h-0.8v-1.5h0.8V166.2z
							 M181.4,161.7h-0.8v-1.5h0.8V161.7z M181.4,157.3h-0.8v-1.5h0.8V157.3z M181.4,152.8h-0.8v-1.5h0.8V152.8z M181.4,148.3h-0.8
							v-1.5h0.8V148.3z M181.4,143.8h-0.8v-1.5h0.8V143.8z M181.4,139.3h-0.8v-1.5h0.8V139.3z M181.4,134.9h-0.8v-1.5h0.8V134.9z
							 M181.4,130.4h-0.8v-1.5h0.8V130.4z M181.4,125.9h-0.8v-1.5h0.8V125.9z"/>
					</g>
					<g>
						<polygon class="st6" points="181.4,121.4 180.6,121.4 180.6,120.8 180.2,120.4 180.7,119.9 181.4,120.5 						"/>
					</g>
					<g>
						<path class="st6" d="M177.9,118.4l-1.1-1l0.5-0.6l1.1,1L177.9,118.4z M174.4,115.5l-1.1-1l0.5-0.6l1.1,1L174.4,115.5z
							 M171,112.5l-1.1-1l0.5-0.6l1.1,1L171,112.5z M167.5,109.5l-1.1-1l0.5-0.6l1.1,1L167.5,109.5z M164.1,106.5l-1.1-1l0.5-0.6
							l1.1,1L164.1,106.5z M160.7,103.5l-1.1-1l0.5-0.6l1.1,1L160.7,103.5z M157.2,100.5l-1.1-1l0.5-0.6l1.1,1L157.2,100.5z
							 M153.8,97.5l-1.1-1l0.5-0.6l1.1,1L153.8,97.5z M150.3,94.5l-1.1-1l0.5-0.6l1.1,1L150.3,94.5z M146.9,91.5l-1.1-1l0.5-0.6
							l1.1,1L146.9,91.5z M143.4,88.5l-1.1-1l0.5-0.6l1.1,1L143.4,88.5z M140,85.6l-1.1-1l0.5-0.6l1.1,1L140,85.6z M136.6,82.6
							l-1.1-1l0.5-0.6l1.1,1L136.6,82.6z M132.7,81.3h-1.5v-0.8h1.5V81.3z M128.2,81.3h-1.5v-0.8h1.5V81.3z M123.6,81.3h-1.5v-0.8
							h1.5V81.3z M119,81.3h-1.5v-0.8h1.5V81.3z M114.5,81.3H113v-0.8h1.5V81.3z M109.9,81.3h-1.5v-0.8h1.5V81.3z M105.4,81.3h-1.5
							v-0.8h1.5V81.3z M100.8,81.3h-1.5v-0.8h1.5V81.3z M96.2,81.3h-1.5v-0.8h1.5V81.3z M91.7,81.3h-1.5v-0.8h1.5V81.3z M87.1,81.3
							h-1.5v-0.8h1.5V81.3z M82.6,81.3H81v-0.8h1.5V81.3z M78,81.3h-1.5v-0.8H78V81.3z M73.4,81.3h-1.5v-0.8h1.5V81.3z M68.9,81.3
							h-1.5v-0.8h1.5V81.3z M64.3,81.3h-1.5v-0.8h1.5V81.3z M59.8,81.3h-1.5v-0.8h1.5V81.3z M55.2,81.3h-1.5v-0.8h1.5V81.3z
							 M50.6,81.3h-1.5v-0.8h1.5V81.3z M46.1,81.3h-1.5v-0.8h1.5V81.3z"/>
					</g>
					<g>
						<rect x="40.8" y="80.6" class="st6" width="0.8" height="0.8"/>
					</g>
				</g>
			</g>
			<g>
				<g id="XMLID_884_">
					<circle id="XMLID_1066_" class="st7" cx="150.4" cy="138.6" r="11.7"/>
					<circle id="XMLID_1065_" class="st2" cx="150.4" cy="138.3" r="11.2"/>
					<polygon id="XMLID_1064_" class="st9" points="167.7,136 151.6,133.1 133.2,135.4 151.2,140.2 					"/>
					<circle id="XMLID_1063_" class="st10" cx="150.4" cy="136.7" r="11.2"/>
					<circle id="XMLID_1062_" class="st11" cx="150.4" cy="136.7" r="9.7"/>
					<g>
						<circle id="XMLID_1061_" class="st3" cx="147.2" cy="140.3" r="1.8"/>
						<circle id="XMLID_1060_" class="st3" cx="147.3" cy="133" r="1.8"/>
						<circle id="XMLID_1059_" class="st3" cx="153.6" cy="140.3" r="1.8"/>
						<circle id="XMLID_1058_" class="st3" cx="153.7" cy="133" r="1.8"/>
						<line id="XMLID_1057_" class="st12" x1="154.2" y1="140.2" x2="147.4" y2="132.5"/>
						<line id="XMLID_888_" class="st12" x1="153.3" y1="140.8" x2="146.5" y2="133.1"/>
						<line id="XMLID_887_" class="st12" x1="147.3" y1="140.9" x2="154.4" y2="133.1"/>
						<line id="XMLID_885_" class="st12" x1="146.6" y1="140.1" x2="153.7" y2="132.3"/>
					</g>
				</g>
			</g>
			<g>
				<g id="XMLID_870_">
					<circle id="XMLID_883_" class="st7" cx="150.4" cy="181.2" r="11.7"/>
					<circle id="XMLID_882_" class="st2" cx="150.4" cy="180.9" r="11.2"/>
					<polygon id="XMLID_881_" class="st9" points="167.7,178.6 151.6,175.8 133.2,178 151.2,182.8 					"/>
					<circle id="XMLID_880_" class="st10" cx="150.4" cy="179.3" r="11.2"/>
					<circle id="XMLID_879_" class="st11" cx="150.4" cy="179.3" r="9.7"/>
					<g>
						<circle id="XMLID_878_" class="st3" cx="147.2" cy="182.9" r="1.8"/>
						<circle id="XMLID_877_" class="st3" cx="147.3" cy="175.6" r="1.8"/>
						<circle id="XMLID_876_" class="st3" cx="153.6" cy="182.9" r="1.8"/>
						<circle id="XMLID_875_" class="st3" cx="153.7" cy="175.6" r="1.8"/>
						<line id="XMLID_874_" class="st12" x1="154.2" y1="182.8" x2="147.4" y2="175.1"/>
						<line id="XMLID_873_" class="st12" x1="153.3" y1="183.5" x2="146.5" y2="175.7"/>
						<line id="XMLID_872_" class="st12" x1="147.3" y1="183.5" x2="154.4" y2="175.7"/>
						<line id="XMLID_871_" class="st12" x1="146.6" y1="182.7" x2="153.7" y2="174.9"/>
					</g>
				</g>
			</g>
		</g>
	</g>
	<g id="XMLID_1_" class="st0">
		<defs>
			<rect id="XMLID_4932_" x="-13.5" width="327.1" height="300"/>
		</defs>
		<clipPath id="XMLID_4_">
			<use xlink:href="#XMLID_4932_"  style="overflow:visible;"/>
		</clipPath>
	</g>
	<g class="st0">
		<path class="st13" d="M150.1,4.6c38.7,0,75.1,15.1,102.5,42.5c27.4,27.4,42.5,63.8,42.5,102.5s-15.1,75.1-42.5,102.5
			c-27.4,27.4-63.8,42.5-102.5,42.5S75,279.5,47.6,252.1C20.2,224.7,5.1,188.3,5.1,149.6S20.2,74.5,47.6,47.1
			C75,19.7,111.4,4.6,150.1,4.6 M150.1-0.4c-82.8,0-150,67.2-150,150s67.2,150,150,150s150-67.2,150-150S232.9-0.4,150.1-0.4
			L150.1-0.4z"/>
	</g>
</g>
</svg>
