<?xml version="1.0" encoding="utf-8"?>
<!-- Generator: Adobe Illustrator 19.0.0, SVG Export Plug-In . SVG Version: 6.00 Build 0)  -->
<svg version="1.1" id="Layer_1" xmlns="http://www.w3.org/2000/svg" xmlns:xlink="http://www.w3.org/1999/xlink" x="0px" y="0px"
	 viewBox="0 0 300 300" style="enable-background:new 0 0 300 300;" xml:space="preserve">
<style type="text/css">
	.st0{clip-path:url(#SVGID_2_);}
	.st1{clip-path:url(#XMLID_5_);}
	.st2{fill:#FFFFFF;stroke:#404041;stroke-miterlimit:10;}
	.st3{fill:#F1F1F2;}
	.st4{fill:#C5C7C9;}
	.st5{fill:#FFFFFF;}
	.st6{fill:#404041;}
	.st7{fill:none;}
	.st8{fill:#808184;}
	.st9{fill:none;stroke:#404041;stroke-miterlimit:10;}
	.st10{fill:none;stroke:#808184;stroke-width:0.5;stroke-miterlimit:10;stroke-dasharray:1,2;}
	.st11{fill:#DBDCDD;}
	.st12{fill:#404041;stroke:#D0D2D3;stroke-width:0.5;stroke-miterlimit:10;}
	.st13{fill:#FFFFFF;stroke:#6D6E70;stroke-miterlimit:10;}
	.st14{fill:#FFFFFF;stroke:#929497;stroke-width:0.25;stroke-miterlimit:10;}
	.st15{fill:none;stroke:#6D6E70;stroke-width:0.5;stroke-miterlimit:10;}
	.st16{fill:#929497;}
	.st17{fill:none;stroke:#6D6E70;stroke-width:0.25;stroke-miterlimit:10;}
	.st18{fill:#808080;}
	.st19{fill:#BFBFBF;}
	.st20{fill:#F2F2F2;}
	.st21{fill:#F2F2F2;stroke:#404041;stroke-miterlimit:10;}
	.st22{fill:none;stroke:#929497;stroke-width:0.5;stroke-miterlimit:10;stroke-dasharray:1,2;}
	.st23{fill:#9AA0BB;}
</style>
<g>
	<defs>
		<circle id="SVGID_1_" cx="150.1" cy="149.6" r="150"/>
	</defs>
	<use xlink:href="#SVGID_1_"  style="overflow:visible;fill:#DDDDDD;"/>
	<clipPath id="SVGID_2_">
		<use xlink:href="#SVGID_1_"  style="overflow:visible;"/>
	</clipPath>
	<g id="XMLID_4081_" class="st0">
		<defs>
			<rect id="XMLID_4118_" y="-0.4" width="300" height="300"/>
		</defs>
		<clipPath id="XMLID_5_">
			<use xlink:href="#XMLID_4118_"  style="overflow:visible;"/>
		</clipPath>
		<g class="st1">
			<g>
				<g>
					<g>
						<g>
							<path class="st2" d="M271.1,204.4c2.8-20.6,33.2-51,45.3-81.4l-0.1-7.6c0,0,4,0.1,9.1,26.4c3.3,16.7,11.7,66.9,21.1,169.1
								c2.7,29.1,6.7,79.4,10.7,120.3c4.1,41.7,3.9,76.4,3.9,76.4l-55.1,4.3c0,0-8.8-42-12-72.6c-2.8-26.2-5.6-52.2-9.8-94.5
								C275,253.7,270.6,208,271.1,204.4z"/>
							<path class="st2" d="M28.9,204.4c-2.8-20.6-33.2-51-45.3-81.4l0.1-7.6c0,0-4,0.1-9.1,26.4c-3.3,16.7-11.7,66.9-21.1,169.1
								c-2.7,29.1-6.7,79.4-10.7,120.3c-4.1,41.7-3.9,76.4-3.9,76.4l55.1,4.3c0,0,8.8-42,12-72.6c2.8-26.2,5.6-52.2,9.8-94.5
								C25,253.7,29.4,208,28.9,204.4z"/>
							<g>
								<polygon class="st3" points="-60.5,503.8 -4.9,507.8 -7.1,515 -60.5,511.1 								"/>
								<polygon class="st4" points="-60.5,505.9 -4.9,509.8 -7.1,517 -60.5,513.2 								"/>
							</g>
							<g id="XMLID_165_">
								<g id="XMLID_166_">
									<g id="XMLID_172_">
										<g>
											<path class="st5" d="M-41.5,509l-20.3-1.4c-0.6,0-1.2,0.4-1.3,1.1l-1.7,37.2c0,0.6,0.4,1.2,1.1,1.3l19.4,1.4l0,0
												c-0.5,0-1.1-0.5-1.1-1.2h0l1.9-26.2C-43.5,520.8-41.3,509-41.5,509z"/>
										</g>
										<g>
											<path class="st6" d="M-65,545.9l1.7-37.2c0.1-0.8,0.7-1.3,1.5-1.3l20.3,1.4l0.1,0l0.1,0.1c0.1,0.2,0.1,0.7-1.5,9.7
												c-0.2,1.3-0.4,2.5-0.5,2.6l-1.9,26.2c0,0.3,0.1,0.6,0.2,0.7c0.2,0.2,0.4,0.3,0.6,0.3l1,0.5l-20.4-1.5
												C-64.5,547.3-65.1,546.6-65,545.9z M-45.6,547.3l1.9-26.2c0-0.1,0.2-0.9,0.5-2.6c0.5-2.8,1.5-8.3,1.6-9.3l-20.1-1.4
												c-0.5,0-1,0.4-1,0.9l-1.7,37.2c0,0.5,0.4,1,0.9,1l18.4,1.4C-45.5,548-45.6,547.7-45.6,547.3z"/>
										</g>
									</g>
									<g id="XMLID_171_">
										<g>
											<path class="st5" d="M-5.1,511.6c1,0.1,1.7,0.6,1.7,1.3L-7,550.1c0,0.6-0.9,1.1-1.8,1l-54-4c-1-0.1-1.7-0.6-1.7-1.3
												l1.7-37.2c0-0.6,0.9-1.1,1.8-1L-5.1,511.6z"/>
										</g>
										<path class="st7" d="M-3.6,512.9l-3.6,37.2c0,0.5-0.5,0.9-1,0.9l-35.3-2.6l2.4-39.2l36.6,2.6
											C-4,511.9-3.6,512.4-3.6,512.9z"/>
										<path class="st6" d="M-8.2,551c0.5,0,1-0.4,1-0.9l3.6-37.2c0-0.5-0.4-1-0.9-1l-57.5-4l0-0.4l57.5,4
											c0.8,0.1,1.3,0.7,1.3,1.5l-3.6,37.2c-0.1,0.8-0.7,1.3-1.5,1.3l-55.6-4.1l0-0.4L-8.2,551z"/>
									</g>
									<g id="XMLID_170_">
										<g>
											<g>
												
													<rect x="-41.8" y="509.9" transform="matrix(-0.9975 -7.105730e-02 7.105730e-02 -0.9975 -119.5101 1015.7958)" class="st8" width="0.2" height="0.2"/>
											</g>
										</g>
										<g>
											<g>
												<path class="st8" d="M-43.1,547.9l0.4,0l0,0.2l-0.4,0L-43.1,547.9z M-41.8,548l0.4,0l0,0.2l-0.4,0L-41.8,548z
													 M-40.6,548.1l0.4,0l0,0.2l-0.4,0L-40.6,548.1z M-39.4,548.2l0.4,0l0,0.2l-0.4,0L-39.4,548.2z M-38.2,548.2l0.4,0l0,0.2
													l-0.4,0L-38.2,548.2z M-36.9,548.3l0.4,0l0,0.2l-0.4,0L-36.9,548.3z M-35.7,548.4l0.4,0l0,0.2l-0.4,0L-35.7,548.4z
													 M-34.5,548.5l0.4,0l0,0.2l-0.4,0L-34.5,548.5z M-33.3,548.6l0.4,0l0,0.2l-0.4,0L-33.3,548.6z M-32,548.7l0.4,0l0,0.2
													l-0.4,0L-32,548.7z M-30.8,548.8l0.4,0l0,0.2l-0.4,0L-30.8,548.8z M-29.6,548.9l0.4,0l0,0.2l-0.4,0L-29.6,548.9z
													 M-28.4,548.9l0.4,0l0,0.2l-0.4,0L-28.4,548.9z M-27.1,549l0.4,0l0,0.2l-0.4,0L-27.1,549z M-25.9,549.1l0.4,0l0,0.2
													l-0.4,0L-25.9,549.1z M-24.7,549.2l0.4,0l0,0.2l-0.4,0L-24.7,549.2z M-23.4,549.3l0.4,0l0,0.2l-0.4,0L-23.4,549.3z
													 M-22.2,549.4l0.4,0l0,0.2l-0.4,0L-22.2,549.4z M-21.9,549.5l0.4,0l0,0.2l-0.4,0L-21.9,549.5z M-20.7,549.6l0.4,0l0,0.2
													l-0.4,0L-20.7,549.6z M-19.5,549.6l0.4,0l0,0.2l-0.4,0L-19.5,549.6z M-18.2,549.7l0.4,0l0,0.2l-0.4,0L-18.2,549.7z
													 M-17,549.8l0.4,0l0,0.2l-0.4,0L-17,549.8z M-15.8,549.9l0.4,0l0,0.2l-0.4,0L-15.8,549.9z M-14.6,550l0.4,0l0,0.2
													l-0.4,0L-14.6,550z M-13.3,550.1l0.4,0l0,0.2l-0.4,0L-13.3,550.1z M-12.1,550.2l0.4,0l0,0.2l-0.4,0L-12.1,550.2z
													 M-10.9,550.3l0.4,0l0,0.2l-0.4,0L-10.9,550.3z M-9.7,550.3l0.4,0l0,0.2l-0.4,0L-9.7,550.3z M-8.4,550.4l0.4,0l0,0.2
													l-0.4,0L-8.4,550.4z M-44.3,547.8l0.2-0.1c0.1,0.1,0.2,0.2,0.3,0.2l0,0.2C-44.1,548-44.2,547.9-44.3,547.8z"/>
											</g>
										</g>
										<g>
											<g>
												
													<rect x="-7.2" y="550.5" transform="matrix(-0.9975 -7.105730e-02 7.105730e-02 -0.9975 -53.3347 1099.3663)" class="st8" width="0.2" height="0.2"/>
											</g>
										</g>
									</g>
									<g id="XMLID_169_">
										<g>
											<g>
												
													<rect x="-41.9" y="512.5" transform="matrix(-0.9975 -7.105730e-02 7.105730e-02 -0.9975 -119.9119 1020.8962)" class="st8" width="0.2" height="0.2"/>
											</g>
										</g>
										<g>
											<g>
												<path class="st8" d="M-40.9,512.5l0.4,0l0,0.2l-0.4,0L-40.9,512.5z M-39.6,512.6l0.4,0l0,0.2l-0.4,0L-39.6,512.6z
													 M-38.4,512.7l0.4,0l0,0.2l-0.4,0L-38.4,512.7z M-37.2,512.8l0.4,0l0,0.2l-0.4,0L-37.2,512.8z M-35.9,512.9l0.4,0l0,0.2
													l-0.4,0L-35.9,512.9z M-34.7,513l0.4,0l0,0.2l-0.4,0L-34.7,513z M-33.4,513.1l0.4,0l0,0.2l-0.4,0L-33.4,513.1z
													 M-32.2,513.2l0.4,0l0,0.2l-0.4,0L-32.2,513.2z M-31,513.2l0.4,0l0,0.2l-0.4,0L-31,513.2z M-29.7,513.3l0.4,0l0,0.2
													l-0.4,0L-29.7,513.3z M-28.5,513.4l0.4,0l0,0.2l-0.4,0L-28.5,513.4z M-27.3,513.5l0.4,0l0,0.2l-0.4,0L-27.3,513.5z
													 M-26,513.6l0.4,0l0,0.2l-0.4,0L-26,513.6z M-24.8,513.7l0.4,0l0,0.2l-0.4,0L-24.8,513.7z M-23.5,513.8l0.4,0l0,0.2
													l-0.4,0L-23.5,513.8z M-22.3,513.9l0.4,0l0,0.2l-0.4,0L-22.3,513.9z M-21.1,514l0.4,0l0,0.2l-0.4,0L-21.1,514z
													 M-19.8,514l0.4,0l0,0.2l-0.4,0L-19.8,514z M-18.6,514.1l0.4,0l0,0.2l-0.4,0L-18.6,514.1z M-17.4,514.2l0.4,0l0,0.2
													l-0.4,0L-17.4,514.2z M-16.1,514.3l0.4,0l0,0.2l-0.4,0L-16.1,514.3z M-14.9,514.4l0.4,0l0,0.2l-0.4,0L-14.9,514.4z
													 M-13.7,514.5l0.4,0l0,0.2l-0.4,0L-13.7,514.5z M-12.4,514.6l0.4,0l0,0.2l-0.4,0L-12.4,514.6z M-11.2,514.7l0.4,0l0,0.2
													l-0.4,0L-11.2,514.7z M-9.9,514.7l0.4,0l0,0.2l-0.4,0L-9.9,514.7z M-8.7,514.8l0.4,0l0,0.2l-0.4,0L-8.7,514.8z
													 M-7.5,514.9l0.4,0l0,0.2l-0.4,0L-7.5,514.9z M-6.2,515l0.4,0l0,0.2l-0.4,0L-6.2,515z M-5,515.1l0.4,0l0,0.2l-0.4,0
													L-5,515.1z"/>
											</g>
										</g>
										<g>
											<g>
												<polygon class="st8" points="-3.8,515.4 -3.5,515.4 -3.4,515.1 -3.6,515.1 -3.7,515.2 -3.8,515.2 												"/>
											</g>
										</g>
										<g>
											<g>
												
													<rect x="-3.6" y="513.8" transform="matrix(-0.9975 -7.105730e-02 7.105730e-02 -0.9975 -43.4383 1026.4097)" class="st8" width="0.2" height="0.4"/>
											</g>
										</g>
										<g>
											<g>
												<polygon class="st8" points="-3.5,512.8 -3.3,512.9 -3.3,512.6 -3.6,512.5 -3.6,512.7 -3.5,512.7 												"/>
											</g>
										</g>
										<g>
											<g>
												<path class="st8" d="M-40.7,509.9l0.4,0l0,0.2l-0.4,0L-40.7,509.9z M-39.4,510l0.4,0l0,0.2l-0.4,0L-39.4,510z
													 M-38.2,510.1l0.4,0l0,0.2l-0.4,0L-38.2,510.1z M-37,510.2l0.4,0l0,0.2l-0.4,0L-37,510.2z M-35.7,510.2l0.4,0l0,0.2
													l-0.4,0L-35.7,510.2z M-34.5,510.3l0.4,0l0,0.2l-0.4,0L-34.5,510.3z M-33.3,510.4l0.4,0l0,0.2l-0.4,0L-33.3,510.4z
													 M-32,510.5l0.4,0l0,0.2l-0.4,0L-32,510.5z M-30.8,510.6l0.4,0l0,0.2l-0.4,0L-30.8,510.6z M-29.5,510.7l0.4,0l0,0.2
													l-0.4,0L-29.5,510.7z M-28.3,510.8l0.4,0l0,0.2l-0.4,0L-28.3,510.8z M-27.1,510.9l0.4,0l0,0.2l-0.4,0L-27.1,510.9z
													 M-25.8,510.9l0.4,0l0,0.2l-0.4,0L-25.8,510.9z M-24.6,511l0.4,0l0,0.2l-0.4,0L-24.6,511z M-23.4,511.1l0.4,0l0,0.2
													l-0.4,0L-23.4,511.1z M-22.1,511.2l0.4,0l0,0.2l-0.4,0L-22.1,511.2z M-20.9,511.3l0.4,0l0,0.2l-0.4,0L-20.9,511.3z
													 M-19.6,511.4l0.4,0l0,0.2l-0.4,0L-19.6,511.4z M-18.4,511.5l0.4,0l0,0.2l-0.4,0L-18.4,511.5z M-17.2,511.6l0.4,0l0,0.2
													l-0.4,0L-17.2,511.6z M-15.9,511.7l0.4,0l0,0.2l-0.4,0L-15.9,511.7z M-14.7,511.7l0.4,0l0,0.2l-0.4,0L-14.7,511.7z
													 M-13.5,511.8l0.4,0l0,0.2l-0.4,0L-13.5,511.8z M-12.2,511.9l0.4,0l0,0.2l-0.4,0L-12.2,511.9z M-11,512l0.4,0l0,0.2
													l-0.4,0L-11,512z M-9.8,512.1l0.4,0l0,0.2l-0.4,0L-9.8,512.1z M-8.5,512.2l0.4,0l0,0.2l-0.4,0L-8.5,512.2z M-7.3,512.3
													l0.4,0l0,0.2l-0.4,0L-7.3,512.3z M-6,512.4l0.4,0l0,0.2l-0.4,0L-6,512.4z M-4.8,512.4l0.4,0l0,0.2l-0.4,0L-4.8,512.4z"
													/>
											</g>
										</g>
										<g>
											<g>
												
													<rect x="-41.7" y="509.8" transform="matrix(-0.9975 -7.105730e-02 7.105730e-02 -0.9975 -119.3455 1015.606)" class="st8" width="0.2" height="0.2"/>
											</g>
										</g>
									</g>
									<g id="XMLID_168_">
										<g>
											<g>
												
													<rect x="-63.2" y="511" transform="matrix(-0.9975 -7.105730e-02 7.105730e-02 -0.9975 -162.4434 1016.3418)" class="st8" width="0.2" height="0.2"/>
											</g>
										</g>
										<g>
											<g>
												<path class="st8" d="M-62.2,511l0.4,0l0,0.2l-0.4,0L-62.2,511z M-60.9,511.1l0.4,0l0,0.2l-0.4,0L-60.9,511.1z
													 M-59.6,511.2l0.4,0l0,0.2l-0.4,0L-59.6,511.2z M-58.4,511.3l0.4,0l0,0.2l-0.4,0L-58.4,511.3z M-57.1,511.4l0.4,0l0,0.2
													l-0.4,0L-57.1,511.4z M-55.8,511.5l0.4,0l0,0.2l-0.4,0L-55.8,511.5z M-54.6,511.6l0.4,0l0,0.2l-0.4,0L-54.6,511.6z
													 M-53.3,511.7l0.4,0l0,0.2l-0.4,0L-53.3,511.7z M-52,511.7l0.4,0l0,0.2l-0.4,0L-52,511.7z M-50.8,511.8l0.4,0l0,0.2
													l-0.4,0L-50.8,511.8z M-49.5,511.9l0.4,0l0,0.2l-0.4,0L-49.5,511.9z M-48.2,512l0.4,0l0,0.2l-0.4,0L-48.2,512z
													 M-46.9,512.1l0.4,0l0,0.2l-0.4,0L-46.9,512.1z M-45.7,512.2l0.4,0l0,0.2l-0.4,0L-45.7,512.2z M-44.4,512.3l0.4,0l0,0.2
													l-0.4,0L-44.4,512.3z"/>
											</g>
										</g>
										<g>
											<g>
												<polygon class="st8" points="-43.1,512.6 -42.8,512.6 -42.8,512.3 -43,512.3 -43,512.4 -43.1,512.4 												"/>
											</g>
										</g>
										<g>
											<g>
												<polygon class="st8" points="-42.9,510 -42.7,510.1 -42.6,509.7 -42.9,509.7 -43,509.9 -42.9,509.9 												"/>
											</g>
										</g>
										<g>
											<g>
												<path class="st8" d="M-62,508.4l0.4,0l0,0.2l-0.4,0L-62,508.4z M-60.7,508.5l0.4,0l0,0.2l-0.4,0L-60.7,508.5z
													 M-59.5,508.6l0.4,0l0,0.2l-0.4,0L-59.5,508.6z M-58.2,508.6l0.4,0l0,0.2l-0.4,0L-58.2,508.6z M-56.9,508.7l0.4,0l0,0.2
													l-0.4,0L-56.9,508.7z M-55.6,508.8l0.4,0l0,0.2l-0.4,0L-55.6,508.8z M-54.4,508.9l0.4,0l0,0.2l-0.4,0L-54.4,508.9z
													 M-53.1,509l0.4,0l0,0.2l-0.4,0L-53.1,509z M-51.8,509.1l0.4,0l0,0.2l-0.4,0L-51.8,509.1z M-50.6,509.2l0.4,0l0,0.2
													l-0.4,0L-50.6,509.2z M-49.3,509.3l0.4,0l0,0.2l-0.4,0L-49.3,509.3z M-48,509.4l0.4,0l0,0.2l-0.4,0L-48,509.4z
													 M-46.8,509.5l0.4,0l0,0.2l-0.4,0L-46.8,509.5z M-45.5,509.5l0.4,0l0,0.2l-0.4,0L-45.5,509.5z M-44.2,509.6l0.4,0l0,0.2
													l-0.4,0L-44.2,509.6z"/>
											</g>
										</g>
										<g>
											<g>
												
													<rect x="-63.1" y="508.3" transform="matrix(-0.9975 -7.105730e-02 7.105730e-02 -0.9975 -161.877 1011.0516)" class="st8" width="0.2" height="0.2"/>
											</g>
										</g>
									</g>
									<g id="XMLID_167_">
										<g>
											<path class="st8" d="M-64.6,546.3l0.4,0l0,0.2l-0.4,0L-64.6,546.3z M-63.3,546.4l0.4,0l0,0.2l-0.4,0L-63.3,546.4z
												 M-62.1,546.5l0.4,0l0,0.2l-0.4,0L-62.1,546.5z M-60.9,546.6l0.4,0l0,0.2l-0.4,0L-60.9,546.6z M-59.6,546.7l0.4,0l0,0.2
												l-0.4,0L-59.6,546.7z M-58.4,546.7l0.4,0l0,0.2l-0.4,0L-58.4,546.7z M-57.2,546.8l0.4,0l0,0.2l-0.4,0L-57.2,546.8z
												 M-55.9,546.9l0.4,0l0,0.2l-0.4,0L-55.9,546.9z M-54.7,547l0.4,0l0,0.2l-0.4,0L-54.7,547z M-53.5,547.1l-0.5,0l0,0.2
												l0.5,0L-53.5,547.1z M-53.2,547.2l0.4,0l0,0.2l-0.4,0L-53.2,547.2z M-51.9,547.3l0.4,0l0,0.2l-0.4,0L-51.9,547.3z
												 M-50.7,547.4l0.4,0l0,0.2l-0.4,0L-50.7,547.4z M-49.4,547.4l0.4,0l0,0.2l-0.4,0L-49.4,547.4z M-48.2,547.5l0.4,0l0,0.2
												l-0.4,0L-48.2,547.5z M-47,547.6l0.4,0l0,0.2l-0.4,0L-47,547.6z M-45.7,547.7l0.4,0l0,0.2l-0.4,0L-45.7,547.7z
												 M-44.5,547.8l0.4,0l0,0.2l-0.4,0L-44.5,547.8z M-43.3,547.9l0.4,0l0,0.2l-0.4,0L-43.3,547.9z M-42,548l0.1,0l0,0.2
												l-0.1,0L-42,548z"/>
										</g>
									</g>
									<path class="st9" d="M-64.1,545.9l1.7-37.2c0-0.4,0.4-0.7,0.8-0.9l0-0.4l57.5,4c0.8,0.1,1.3,0.7,1.3,1.5l-3.6,37.2
										c-0.1,0.8-0.7,1.3-1.5,1.3l-55.6-4.1l0-0.4C-63.9,546.7-64.2,546.3-64.1,545.9z"/>
								</g>
							</g>
							<g>
								<polygon class="st3" points="360.5,503.8 304.8,507.8 307.1,515 360.5,511.1 								"/>
								<polygon class="st4" points="360.5,505.9 304.8,509.8 307.1,517 360.5,513.2 								"/>
							</g>
							<g id="XMLID_157_">
								<g id="XMLID_158_">
									<g id="XMLID_164_">
										<g>
											<path class="st5" d="M341.5,509l20.3-1.4c0.6,0,1.2,0.4,1.3,1.1l1.7,37.2c0,0.6-0.4,1.2-1.1,1.3l-19.4,1.4l0,0
												c0.5,0,1.1-0.5,1.1-1.2l0,0l-1.9-26.2C343.5,520.8,341.3,509,341.5,509z"/>
										</g>
										<g>
											<path class="st6" d="M363.7,547.3l-20.4,1.5l1-0.5c0.2,0,0.5-0.1,0.6-0.3c0.1-0.1,0.3-0.4,0.2-0.7l-1.9-26.2
												c0-0.1-0.2-1.2-0.5-2.6c-1.6-9.1-1.7-9.6-1.5-9.7l0.1-0.1l0.1,0l20.3-1.4c0.8-0.1,1.4,0.5,1.5,1.3l1.7,37.2
												C365.1,546.6,364.5,547.3,363.7,547.3z M345.3,548.3l18.4-1.4c0.5,0,0.9-0.5,0.9-1l-1.7-37.2c0-0.5-0.5-0.9-1-0.9
												l-20.1,1.4c0.1,1,1.1,6.6,1.6,9.3c0.3,1.7,0.5,2.5,0.5,2.6l1.9,26.2C345.6,547.7,345.5,548,345.3,548.3z"/>
										</g>
									</g>
									<g id="XMLID_163_">
										<g>
											<path class="st5" d="M305.1,511.6c-1,0.1-1.7,0.6-1.7,1.3l3.6,37.2c0,0.6,0.9,1.1,1.8,1l54-4c1-0.1,1.7-0.6,1.7-1.3
												l-1.7-37.2c0-0.6-0.9-1.1-1.8-1L305.1,511.6z"/>
										</g>
										<path class="st7" d="M303.6,512.9l3.6,37.2c0,0.5,0.5,0.9,1,0.9l35.3-2.6l-2.4-39.2l-36.6,2.6
											C304,511.9,303.6,512.4,303.6,512.9z"/>
										<path class="st6" d="M308.2,551c-0.5,0-1-0.4-1-0.9l-3.6-37.2c0-0.5,0.4-1,0.9-1l57.5-4l0-0.4l-57.5,4
											c-0.8,0.1-1.3,0.7-1.3,1.5l3.6,37.2c0.1,0.8,0.7,1.3,1.5,1.3l55.6-4.1l0-0.4L308.2,551z"/>
									</g>
									<g id="XMLID_162_">
										<g>
											<g>
												
													<rect x="341.6" y="509.9" transform="matrix(0.9975 -7.105730e-02 7.105730e-02 0.9975 -35.3772 25.5686)" class="st8" width="0.2" height="0.2"/>
											</g>
										</g>
										<g>
											<g>
												<path class="st8" d="M343.1,548.1l-0.4,0l0-0.2l0.4,0L343.1,548.1z M341.9,548.2l-0.4,0l0-0.2l0.4,0L341.9,548.2z
													 M340.6,548.3l-0.4,0l0-0.2l0.4,0L340.6,548.3z M339.4,548.4l-0.4,0l0-0.2l0.4,0L339.4,548.4z M338.2,548.5l-0.4,0
													l0-0.2l0.4,0L338.2,548.5z M337,548.5l-0.4,0l0-0.2l0.4,0L337,548.5z M335.7,548.6l-0.4,0l0-0.2l0.4,0L335.7,548.6z
													 M334.5,548.7l-0.4,0l0-0.2l0.4,0L334.5,548.7z M333.3,548.8l-0.4,0l0-0.2l0.4,0L333.3,548.8z M332,548.9l-0.4,0l0-0.2
													l0.4,0L332,548.9z M330.8,549l-0.4,0l0-0.2l0.4,0L330.8,549z M329.6,549.1l-0.4,0l0-0.2l0.4,0L329.6,549.1z
													 M328.4,549.2l-0.4,0l0-0.2l0.4,0L328.4,549.2z M327.1,549.2l-0.4,0l0-0.2l0.4,0L327.1,549.2z M325.9,549.3l-0.4,0
													l0-0.2l0.4,0L325.9,549.3z M324.7,549.4l-0.4,0l0-0.2l0.4,0L324.7,549.4z M323.5,549.5l-0.4,0l0-0.2l0.4,0L323.5,549.5z
													 M322.2,549.6l-0.4,0l0-0.2l0.4,0L322.2,549.6z M321.9,549.7l-0.4,0l0-0.2l0.4,0L321.9,549.7z M320.7,549.8l-0.4,0
													l0-0.2l0.4,0L320.7,549.8z M319.5,549.9l-0.4,0l0-0.2l0.4,0L319.5,549.9z M318.3,549.9l-0.4,0l0-0.2l0.4,0L318.3,549.9z
													 M317,550l-0.4,0l0-0.2l0.4,0L317,550z M315.8,550.1l-0.4,0l0-0.2l0.4,0L315.8,550.1z M314.6,550.2l-0.4,0l0-0.2l0.4,0
													L314.6,550.2z M313.4,550.3l-0.4,0l0-0.2l0.4,0L313.4,550.3z M312.1,550.4l-0.4,0l0-0.2l0.4,0L312.1,550.4z
													 M310.9,550.5l-0.4,0l0-0.2l0.4,0L310.9,550.5z M309.7,550.6l-0.4,0l0-0.2l0.4,0L309.7,550.6z M308.5,550.6l-0.4,0
													l0-0.2l0.4,0L308.5,550.6z M343.9,548l0-0.2c0.1,0,0.2-0.1,0.3-0.2l0.2,0.1C344.2,547.9,344.1,548,343.9,548z"/>
											</g>
										</g>
										<g>
											<g>
												
													<rect x="307" y="550.5" transform="matrix(0.9975 -7.105730e-02 7.105730e-02 0.9975 -38.3501 23.2145)" class="st8" width="0.2" height="0.2"/>
											</g>
										</g>
									</g>
									<g id="XMLID_161_">
										<g>
											<g>
												
													<rect x="341.7" y="512.5" transform="matrix(0.9975 -7.105730e-02 7.105730e-02 0.9975 -35.5586 25.5829)" class="st8" width="0.2" height="0.2"/>
											</g>
										</g>
										<g>
											<g>
												<path class="st8" d="M340.9,512.7l-0.4,0l0-0.2l0.4,0L340.9,512.7z M339.6,512.8l-0.4,0l0-0.2l0.4,0L339.6,512.8z
													 M338.4,512.9l-0.4,0l0-0.2l0.4,0L338.4,512.9z M337.2,513l-0.4,0l0-0.2l0.4,0L337.2,513z M335.9,513.1l-0.4,0l0-0.2
													l0.4,0L335.9,513.1z M334.7,513.2l-0.4,0l0-0.2l0.4,0L334.7,513.2z M333.5,513.3l-0.4,0l0-0.2l0.4,0L333.5,513.3z
													 M332.2,513.4l-0.4,0l0-0.2l0.4,0L332.2,513.4z M331,513.5l-0.4,0l0-0.2l0.4,0L331,513.5z M329.7,513.5l-0.4,0l0-0.2
													l0.4,0L329.7,513.5z M328.5,513.6l-0.4,0l0-0.2l0.4,0L328.5,513.6z M327.3,513.7l-0.4,0l0-0.2l0.4,0L327.3,513.7z
													 M326,513.8l-0.4,0l0-0.2l0.4,0L326,513.8z M324.8,513.9l-0.4,0l0-0.2l0.4,0L324.8,513.9z M323.6,514l-0.4,0l0-0.2
													l0.4,0L323.6,514z M322.3,514.1l-0.4,0l0-0.2l0.4,0L322.3,514.1z M321.1,514.2l-0.4,0l0-0.2l0.4,0L321.1,514.2z
													 M319.9,514.2l-0.4,0l0-0.2l0.4,0L319.9,514.2z M318.6,514.3l-0.4,0l0-0.2l0.4,0L318.6,514.3z M317.4,514.4l-0.4,0
													l0-0.2l0.4,0L317.4,514.4z M316.1,514.5l-0.4,0l0-0.2l0.4,0L316.1,514.5z M314.9,514.6l-0.4,0l0-0.2l0.4,0L314.9,514.6z
													 M313.7,514.7l-0.4,0l0-0.2l0.4,0L313.7,514.7z M312.4,514.8l-0.4,0l0-0.2l0.4,0L312.4,514.8z M311.2,514.9l-0.4,0
													l0-0.2l0.4,0L311.2,514.9z M310,515l-0.4,0l0-0.2l0.4,0L310,515z M308.7,515l-0.4,0l0-0.2l0.4,0L308.7,515z
													 M307.5,515.1l-0.4,0l0-0.2l0.4,0L307.5,515.1z M306.2,515.2l-0.4,0l0-0.2l0.4,0L306.2,515.2z M305,515.3l-0.4,0l0-0.2
													l0.4,0L305,515.3z"/>
											</g>
										</g>
										<g>
											<g>
												<polygon class="st8" points="303.8,515.4 303.5,515.4 303.4,515.1 303.6,515.1 303.7,515.2 303.8,515.2 												"/>
											</g>
										</g>
										<g>
											<g>
												
													<rect x="303.4" y="513.8" transform="matrix(0.9975 -7.105730e-02 7.105730e-02 0.9975 -35.7548 22.8624)" class="st8" width="0.2" height="0.4"/>
											</g>
										</g>
										<g>
											<g>
												<polygon class="st8" points="303.5,512.8 303.3,512.9 303.3,512.6 303.6,512.5 303.6,512.7 303.5,512.7 												"/>
											</g>
										</g>
										<g>
											<g>
												<path class="st8" d="M340.7,510.1l-0.4,0l0-0.2l0.4,0L340.7,510.1z M339.5,510.2l-0.4,0l0-0.2l0.4,0L339.5,510.2z
													 M338.2,510.3l-0.4,0l0-0.2l0.4,0L338.2,510.3z M337,510.4l-0.4,0l0-0.2l0.4,0L337,510.4z M335.7,510.4l-0.4,0l0-0.2
													l0.4,0L335.7,510.4z M334.5,510.5l-0.4,0l0-0.2l0.4,0L334.5,510.5z M333.3,510.6l-0.4,0l0-0.2l0.4,0L333.3,510.6z
													 M332,510.7l-0.4,0l0-0.2l0.4,0L332,510.7z M330.8,510.8l-0.4,0l0-0.2l0.4,0L330.8,510.8z M329.6,510.9l-0.4,0l0-0.2
													l0.4,0L329.6,510.9z M328.3,511l-0.4,0l0-0.2l0.4,0L328.3,511z M327.1,511.1l-0.4,0l0-0.2l0.4,0L327.1,511.1z
													 M325.8,511.2l-0.4,0l0-0.2l0.4,0L325.8,511.2z M324.6,511.2l-0.4,0l0-0.2l0.4,0L324.6,511.2z M323.4,511.3l-0.4,0
													l0-0.2l0.4,0L323.4,511.3z M322.1,511.4l-0.4,0l0-0.2l0.4,0L322.1,511.4z M320.9,511.5l-0.4,0l0-0.2l0.4,0L320.9,511.5z
													 M319.7,511.6l-0.4,0l0-0.2l0.4,0L319.7,511.6z M318.4,511.7l-0.4,0l0-0.2l0.4,0L318.4,511.7z M317.2,511.8l-0.4,0
													l0-0.2l0.4,0L317.2,511.8z M316,511.9l-0.4,0l0-0.2l0.4,0L316,511.9z M314.7,511.9l-0.4,0l0-0.2l0.4,0L314.7,511.9z
													 M313.5,512l-0.4,0l0-0.2l0.4,0L313.5,512z M312.2,512.1l-0.4,0l0-0.2l0.4,0L312.2,512.1z M311,512.2l-0.4,0l0-0.2
													l0.4,0L311,512.2z M309.8,512.3l-0.4,0l0-0.2l0.4,0L309.8,512.3z M308.5,512.4l-0.4,0l0-0.2l0.4,0L308.5,512.4z
													 M307.3,512.5l-0.4,0l0-0.2l0.4,0L307.3,512.5z M306.1,512.6l-0.4,0l0-0.2l0.4,0L306.1,512.6z M304.8,512.7l-0.4,0
													l0-0.2l0.4,0L304.8,512.7z"/>
											</g>
										</g>
										<g>
											<g>
												
													<rect x="341.5" y="509.8" transform="matrix(0.9975 -7.105730e-02 7.105730e-02 0.9975 -35.3704 25.5627)" class="st8" width="0.2" height="0.2"/>
											</g>
										</g>
									</g>
									<g id="XMLID_160_">
										<g>
											<g>
												
													<rect x="363" y="511" transform="matrix(0.9975 -7.105730e-02 7.105730e-02 0.9975 -35.3966 27.0959)" class="st8" width="0.2" height="0.2"/>
											</g>
										</g>
										<g>
											<g>
												<path class="st8" d="M362.2,511.2l-0.4,0l0-0.2l0.4,0L362.2,511.2z M360.9,511.3l-0.4,0l0-0.2l0.4,0L360.9,511.3z
													 M359.7,511.4l-0.4,0l0-0.2l0.4,0L359.7,511.4z M358.4,511.5l-0.4,0l0-0.2l0.4,0L358.4,511.5z M357.1,511.6l-0.4,0
													l0-0.2l0.4,0L357.1,511.6z M355.8,511.7l-0.4,0l0-0.2l0.4,0L355.8,511.7z M354.6,511.8l-0.4,0l0-0.2l0.4,0L354.6,511.8z
													 M353.3,511.9l-0.4,0l0-0.2l0.4,0L353.3,511.9z M352,512l-0.4,0l0-0.2l0.4,0L352,512z M350.8,512l-0.4,0l0-0.2l0.4,0
													L350.8,512z M349.5,512.1l-0.4,0l0-0.2l0.4,0L349.5,512.1z M348.2,512.2l-0.4,0l0-0.2l0.4,0L348.2,512.2z M347,512.3
													l-0.4,0l0-0.2l0.4,0L347,512.3z M345.7,512.4l-0.4,0l0-0.2l0.4,0L345.7,512.4z M344.4,512.5l-0.4,0l0-0.2l0.4,0
													L344.4,512.5z"/>
											</g>
										</g>
										<g>
											<g>
												<polygon class="st8" points="343.1,512.6 342.8,512.6 342.8,512.3 343,512.3 343,512.4 343.1,512.4 												"/>
											</g>
										</g>
										<g>
											<g>
												<polygon class="st8" points="342.9,510 342.7,510.1 342.6,509.7 342.9,509.7 343,509.9 342.9,509.9 												"/>
											</g>
										</g>
										<g>
											<g>
												<path class="st8" d="M362,508.6l-0.4,0l0-0.2l0.4,0L362,508.6z M360.7,508.7l-0.4,0l0-0.2l0.4,0L360.7,508.7z
													 M359.5,508.8l-0.4,0l0-0.2l0.4,0L359.5,508.8z M358.2,508.8l-0.4,0l0-0.2l0.4,0L358.2,508.8z M356.9,508.9l-0.4,0
													l0-0.2l0.4,0L356.9,508.9z M355.7,509l-0.4,0l0-0.2l0.4,0L355.7,509z M354.4,509.1l-0.4,0l0-0.2l0.4,0L354.4,509.1z
													 M353.1,509.2l-0.4,0l0-0.2l0.4,0L353.1,509.2z M351.8,509.3l-0.4,0l0-0.2l0.4,0L351.8,509.3z M350.6,509.4l-0.4,0
													l0-0.2l0.4,0L350.6,509.4z M349.3,509.5l-0.4,0l0-0.2l0.4,0L349.3,509.5z M348,509.6l-0.4,0l0-0.2l0.4,0L348,509.6z
													 M346.8,509.7l-0.4,0l0-0.2l0.4,0L346.8,509.7z M345.5,509.8l-0.4,0l0-0.2l0.4,0L345.5,509.8z M344.2,509.8l-0.4,0
													l0-0.2l0.4,0L344.2,509.8z"/>
											</g>
										</g>
										<g>
											<g>
												
													<rect x="362.9" y="508.3" transform="matrix(0.9975 -7.105730e-02 7.105730e-02 0.9975 -35.2084 27.0757)" class="st8" width="0.2" height="0.2"/>
											</g>
										</g>
									</g>
									<g id="XMLID_159_">
										<g>
											<path class="st8" d="M364.6,546.5l-0.4,0l0-0.2l0.4,0L364.6,546.5z M363.3,546.6l-0.4,0l0-0.2l0.4,0L363.3,546.6z
												 M362.1,546.7l-0.4,0l0-0.2l0.4,0L362.1,546.7z M360.9,546.8l-0.4,0l0-0.2l0.4,0L360.9,546.8z M359.6,546.9l-0.4,0l0-0.2
												l0.4,0L359.6,546.9z M358.4,546.9l-0.4,0l0-0.2l0.4,0L358.4,546.9z M357.2,547l-0.4,0l0-0.2l0.4,0L357.2,547z
												 M355.9,547.1l-0.4,0l0-0.2l0.4,0L355.9,547.1z M354.7,547.2l-0.4,0l0-0.2l0.4,0L354.7,547.2z M353.5,547.3l0.5,0l0-0.2
												l-0.5,0L353.5,547.3z M353.2,547.4l-0.4,0l0-0.2l0.4,0L353.2,547.4z M351.9,547.5l-0.4,0l0-0.2l0.4,0L351.9,547.5z
												 M350.7,547.6l-0.4,0l0-0.2l0.4,0L350.7,547.6z M349.5,547.7l-0.4,0l0-0.2l0.4,0L349.5,547.7z M348.2,547.7l-0.4,0l0-0.2
												l0.4,0L348.2,547.7z M347,547.8l-0.4,0l0-0.2l0.4,0L347,547.8z M345.8,547.9l-0.4,0l0-0.2l0.4,0L345.8,547.9z M344.5,548
												l-0.4,0l0-0.2l0.4,0L344.5,548z M343.3,548.1l-0.4,0l0-0.2l0.4,0L343.3,548.1z M342,548.2l-0.1,0l0-0.2l0.1,0L342,548.2z
												"/>
										</g>
									</g>
								</g>
								<path class="st9" d="M364.5,545.9l-1.7-37.2c0-0.4-0.4-0.7-0.8-0.9l0-0.4l-57.5,4c-0.8,0.1-1.3,0.7-1.3,1.5l3.6,37.2
									c0.1,0.8,0.7,1.3,1.5,1.3l55.6-4.1l0-0.4C364.3,546.7,364.6,546.3,364.5,545.9z"/>
							</g>
						</g>
						<path class="st2" d="M278.1,443.2c-2.2-28.4-3.9-82.9-4.4-147.9c-0.2-28.6-0.5-54.9,6.2-78.2c11.7-40.3,38.4-89.4,37-99.7
							c-0.4-2.8-2.9-5.1-6.8-7.2l0,0c0,0-2.6-2.7-18.7-6.8c0,0,0,0,0,0c-1.2-0.4-2.5-0.7-3.8-1.1c0,0-18.8-6.8-22.8-8.5
							c-2.8-1.1-5.7-2.4-8.7-3.6l0.5,0.2c-1.8-0.7-3.5-1.4-5.1-2.1c-7.6-3.3-15.3-5.6-21.8-8.3c-6.8-3-13.4-6.1-17.5-8.4
							c-0.1-0.3-22.6-6.2-59.6-6.2c-35.6,0-65.1,5.9-65.2,6.3c-4.1,2.3-10.7,4.2-17.5,7.3C63.7,81.6,56,85,48.4,88.3
							c-1.6,0.7-36.1,14.1-36.1,14.1c-1.3,0.4-2.5,0.7-3.8,1.1c0,0,0,0,0,0c-16,4.1-18.7,6.8-18.7,6.8l0,0c-3.9,2.1-6.4,4.4-6.8,7.2
							c-1.4,10.3,25.3,59.5,37,99.7c6.8,23.2,6.4,49.6,6.2,78.2c-0.4,65-2.1,119.6-4.4,147.9c-2.4,30.5-9.5,96.2-9.5,96.2
							c-0.2-0.1-3.5,31.6-3.5,31.6s2.4,5.1,51.7,13.3c31.8,5.2,64,6.6,83,6.9c13,0.6,54.8-0.1,95.8-6.9
							c49.3-8.1,51.7-13.3,51.7-13.3s-3.4-31.7-3.5-31.6C287.6,539.4,280.4,473.7,278.1,443.2z"/>
						<g>
							<path class="st3" d="M12.4,194.5c0,0,12.3,9.5,14.5,38s0,45.8,0,45.8s0.6-23.4-4.4-50.5S12.4,194.5,12.4,194.5z"/>
							<path class="st4" d="M12.4,194.5c0,0,7.7,13.9,10.3,24.4c2.6,10.5,3.6,40.3,3.6,40.3S25.4,235,20,217.1
								S12.4,194.5,12.4,194.5z"/>
						</g>
						<g>
							<path class="st3" d="M287.8,194.5c0,0-12.3,9.5-14.5,38s0,45.8,0,45.8s-0.6-23.4,4.4-50.5S287.8,194.5,287.8,194.5z"/>
							<path class="st4" d="M287.8,194.5c0,0-7.7,13.9-10.3,24.4c-2.6,10.5-3.6,40.3-3.6,40.3s0.8-24.2,6.2-42.1
								C285.5,199.3,287.8,194.5,287.8,194.5z"/>
						</g>
					</g>
					<g id="XMLID_67_">
						<polygon id="XMLID_156_" class="st3" points="132.4,590.3 139,590.3 139,100.6 132.4,103 						"/>
						<polygon id="XMLID_155_" class="st4" points="134.5,590.3 141.1,590.3 143.4,97.4 134.5,100.6 						"/>
						<path id="XMLID_154_" class="st2" d="M166.7,113.5c-0.9-6.2-13,4.8-13,4.8s-6.5,3.4-15.1,3.9l-2,9.8v1.3v50.2v407.1
							c0,1,0.8,1.8,1.8,1.8h26.6c1,0,1.8-0.8,1.8-1.8V129.9v4.1V132V113.5z"/>
						<polyline class="st2" points="162.9,111.7 141.8,111.8 136.5,111.5 136.5,176.6 						"/>
						<polyline id="XMLID_153_" class="st10" points="-13,129.8 151.6,90.4 313,129.8 						"/>
						<g id="XMLID_139_">
							<circle id="XMLID_152_" class="st3" cx="151.1" cy="218.8" r="5.3"/>
							<circle id="XMLID_151_" class="st11" cx="151.2" cy="218.6" r="5.1"/>
							<polygon id="XMLID_150_" class="st12" points="151,226.3 152.3,219 151.3,210.6 149.1,218.8 							"/>
							<circle id="XMLID_149_" class="st13" cx="151.1" cy="217.9" r="5.1"/>
							<circle id="XMLID_148_" class="st14" cx="151.1" cy="217.9" r="4.4"/>
							<circle id="XMLID_147_" class="st6" cx="149.5" cy="216.8" r="0.8"/>
							<circle id="XMLID_146_" class="st6" cx="152.8" cy="216.9" r="0.8"/>
							<circle id="XMLID_145_" class="st6" cx="149.5" cy="219.8" r="0.8"/>
							<circle id="XMLID_144_" class="st6" cx="152.8" cy="219.8" r="0.8"/>
							<line id="XMLID_143_" class="st15" x1="149.6" y1="217.1" x2="152.9" y2="217.1"/>
							<line id="XMLID_142_" class="st15" x1="149.6" y1="216.6" x2="152.9" y2="216.6"/>
							<line id="XMLID_141_" class="st15" x1="149.5" y1="220.1" x2="152.8" y2="220.1"/>
							<line id="XMLID_140_" class="st15" x1="149.5" y1="219.6" x2="152.8" y2="219.6"/>
						</g>
						<g id="XMLID_125_">
							<circle id="XMLID_138_" class="st3" cx="151.1" cy="301.1" r="5.3"/>
							<circle id="XMLID_137_" class="st11" cx="151.2" cy="300.9" r="5.1"/>
							<polygon id="XMLID_136_" class="st12" points="151,308.6 152.3,301.3 151.3,292.9 149.1,301.1 							"/>
							<circle id="XMLID_135_" class="st13" cx="151.1" cy="300.2" r="5.1"/>
							<circle id="XMLID_134_" class="st14" cx="151.1" cy="300.2" r="4.4"/>
							<circle id="XMLID_133_" class="st6" cx="149.5" cy="299.1" r="0.8"/>
							<circle id="XMLID_132_" class="st6" cx="152.8" cy="299.2" r="0.8"/>
							<circle id="XMLID_131_" class="st6" cx="149.5" cy="302.1" r="0.8"/>
							<circle id="XMLID_130_" class="st6" cx="152.8" cy="302.1" r="0.8"/>
							<line id="XMLID_129_" class="st15" x1="149.6" y1="299.4" x2="152.9" y2="299.4"/>
							<line id="XMLID_128_" class="st15" x1="149.6" y1="298.9" x2="152.9" y2="298.9"/>
							<line id="XMLID_127_" class="st15" x1="149.5" y1="302.4" x2="152.8" y2="302.4"/>
							<line id="XMLID_126_" class="st15" x1="149.5" y1="301.9" x2="152.8" y2="301.9"/>
						</g>
						<g id="XMLID_111_">
							<circle id="XMLID_124_" class="st3" cx="151.1" cy="383.5" r="5.3"/>
							<circle id="XMLID_123_" class="st11" cx="151.2" cy="383.2" r="5.1"/>
							<polygon id="XMLID_122_" class="st12" points="151,390.9 152.3,383.6 151.3,375.2 149.1,383.4 							"/>
							<circle id="XMLID_121_" class="st13" cx="151.1" cy="382.5" r="5.1"/>
							<circle id="XMLID_120_" class="st14" cx="151.1" cy="382.5" r="4.4"/>
							<circle id="XMLID_119_" class="st6" cx="149.5" cy="381.5" r="0.8"/>
							<circle id="XMLID_118_" class="st6" cx="152.8" cy="381.5" r="0.8"/>
							<circle id="XMLID_117_" class="st6" cx="149.5" cy="384.4" r="0.8"/>
							<circle id="XMLID_116_" class="st6" cx="152.8" cy="384.4" r="0.8"/>
							<line id="XMLID_115_" class="st15" x1="149.6" y1="381.7" x2="152.9" y2="381.7"/>
							<line id="XMLID_114_" class="st15" x1="149.6" y1="381.2" x2="152.9" y2="381.2"/>
							<line id="XMLID_113_" class="st15" x1="149.5" y1="384.7" x2="152.8" y2="384.7"/>
							<line id="XMLID_112_" class="st15" x1="149.5" y1="384.2" x2="152.8" y2="384.2"/>
						</g>
						<g id="XMLID_97_">
							<circle id="XMLID_110_" class="st3" cx="151.1" cy="465.8" r="5.3"/>
							<circle id="XMLID_109_" class="st11" cx="151.2" cy="465.5" r="5.1"/>
							<polygon id="XMLID_108_" class="st12" points="151,473.3 152.3,465.9 151.3,457.5 149.1,465.7 							"/>
							<circle id="XMLID_107_" class="st13" cx="151.1" cy="464.8" r="5.1"/>
							<circle id="XMLID_106_" class="st14" cx="151.1" cy="464.8" r="4.4"/>
							<circle id="XMLID_105_" class="st6" cx="149.5" cy="463.8" r="0.8"/>
							<circle id="XMLID_104_" class="st6" cx="152.8" cy="463.8" r="0.8"/>
							<circle id="XMLID_103_" class="st6" cx="149.5" cy="466.7" r="0.8"/>
							<circle id="XMLID_102_" class="st6" cx="152.8" cy="466.7" r="0.8"/>
							<line id="XMLID_101_" class="st15" x1="149.6" y1="464" x2="152.9" y2="464"/>
							<line id="XMLID_100_" class="st15" x1="149.6" y1="463.5" x2="152.9" y2="463.5"/>
							<line id="XMLID_99_" class="st15" x1="149.5" y1="467" x2="152.8" y2="467"/>
							<line id="XMLID_98_" class="st15" x1="149.5" y1="466.5" x2="152.8" y2="466.5"/>
						</g>
						<g id="XMLID_83_">
							<circle id="XMLID_96_" class="st3" cx="151.1" cy="548.1" r="5.3"/>
							<circle id="XMLID_95_" class="st11" cx="151.2" cy="547.9" r="5.1"/>
							<polygon id="XMLID_94_" class="st12" points="151,555.6 152.3,548.2 151.3,539.8 149.1,548 							"/>
							<circle id="XMLID_93_" class="st13" cx="151.1" cy="547.2" r="5.1"/>
							<circle id="XMLID_92_" class="st14" cx="151.1" cy="547.2" r="4.4"/>
							<circle id="XMLID_91_" class="st6" cx="149.5" cy="546.1" r="0.8"/>
							<circle id="XMLID_90_" class="st6" cx="152.8" cy="546.1" r="0.8"/>
							<circle id="XMLID_89_" class="st6" cx="149.5" cy="549" r="0.8"/>
							<circle id="XMLID_88_" class="st6" cx="152.8" cy="549" r="0.8"/>
							<line id="XMLID_87_" class="st15" x1="149.6" y1="546.3" x2="152.9" y2="546.3"/>
							<line id="XMLID_86_" class="st15" x1="149.6" y1="545.8" x2="152.9" y2="545.8"/>
							<line id="XMLID_85_" class="st15" x1="149.5" y1="549.3" x2="152.8" y2="549.3"/>
							<line id="XMLID_84_" class="st15" x1="149.5" y1="548.8" x2="152.8" y2="548.8"/>
						</g>
						<g id="XMLID_68_">
							<polygon id="XMLID_82_" class="st12" points="151.1,139.7 152.5,135 151.3,131 149.6,135 							"/>
							<ellipse id="XMLID_81_" class="st3" cx="151.1" cy="135.7" rx="5.3" ry="3.5"/>
							<ellipse id="XMLID_80_" class="st11" cx="151.2" cy="135.6" rx="5.1" ry="3.3"/>
							<path id="XMLID_79_" class="st13" d="M153.1,138.1c2.7-0.7,4-2.8,2.9-4.6c-1.1-1.8-4.2-2.7-6.9-1.9c-2.7,0.7-4,2.8-2.9,4.6
								C147.3,137.9,150.4,138.8,153.1,138.1z"/>
							<g id="XMLID_77_">
								<path class="st5" d="M152.8,137.6c2.3-0.6,3.4-2.4,2.5-3.9c-0.9-1.5-3.6-2.3-5.9-1.6c-2.3,0.6-3.4,2.4-2.5,3.9
									C147.8,137.5,150.5,138.2,152.8,137.6z"/>
								<path class="st16" d="M152.8,137.5c0,0,0.1,0,0.3-0.1c0.2-0.1,0.4-0.1,0.7-0.3c0.3-0.1,0.6-0.4,0.9-0.7
									c0.3-0.3,0.6-0.7,0.7-1.2c0.1-0.5-0.1-1-0.4-1.4c-0.4-0.4-0.9-0.7-1.5-0.9c-0.6-0.2-1.2-0.3-1.9-0.3c-0.6,0-1.3,0.1-1.9,0.2
									c-0.1,0-0.4,0.1-0.5,0.1c-0.1,0-0.3,0.1-0.4,0.2c-0.3,0.1-0.5,0.3-0.7,0.5c-0.4,0.3-0.7,0.8-0.8,1.2c0,0.2,0,0.5,0.1,0.7
									c0,0.1,0.2,0.3,0.2,0.4c0.1,0.1,0.2,0.2,0.3,0.3c0.4,0.4,0.9,0.7,1.4,0.9c0.5,0.2,1,0.3,1.4,0.4c0.4,0.1,0.8,0.1,1.2,0
									C152.4,137.6,152.8,137.5,152.8,137.5z M152.8,137.6c0,0-0.4,0.1-1,0.2c-0.6,0.1-1.6,0.1-2.7-0.3c-0.5-0.2-1.1-0.4-1.6-0.9
									c-0.5-0.4-0.9-1-1-1.8c-0.1-0.7,0.3-1.5,0.9-2c0.5-0.5,1.3-0.8,2-1.1c1.5-0.4,3.1-0.3,4.3,0.3c0.6,0.3,1.2,0.7,1.6,1.3
									c0.4,0.5,0.5,1.2,0.3,1.8c-0.1,0.6-0.5,1-0.8,1.3c-0.3,0.3-0.7,0.5-1,0.7c-0.3,0.1-0.5,0.2-0.7,0.3
									C152.9,137.6,152.8,137.6,152.8,137.6z"/>
							</g>
							<path id="XMLID_76_" class="st6" d="M148.7,134.2c0,0.2,0.4,0.4,0.8,0.4c0.4,0,0.8-0.2,0.8-0.4c0-0.2-0.4-0.4-0.8-0.4
								C149,133.7,148.7,133.9,148.7,134.2z"/>
							<path id="XMLID_75_" class="st6" d="M152,134.2c0,0.2,0.4,0.4,0.8,0.4c0.4,0,0.8-0.2,0.8-0.4c0-0.2-0.4-0.4-0.8-0.4
								C152.4,133.8,152,134,152,134.2z"/>
							<path id="XMLID_74_" class="st6" d="M148.7,136.4c0,0.2,0.4,0.4,0.8,0.4c0.4,0,0.8-0.2,0.8-0.4c0-0.2-0.4-0.4-0.8-0.4
								S148.7,136.1,148.7,136.4z"/>
							<path id="XMLID_73_" class="st6" d="M152,136.4c0,0.2,0.4,0.4,0.8,0.4c0.4,0,0.8-0.2,0.8-0.4s-0.4-0.4-0.8-0.4
								C152.4,135.9,152,136.1,152,136.4z"/>
							<line id="XMLID_72_" class="st17" x1="149.6" y1="134.3" x2="152.9" y2="134.3"/>
							<line id="XMLID_71_" class="st17" x1="149.6" y1="134" x2="152.9" y2="134"/>
							<line id="XMLID_70_" class="st17" x1="149.5" y1="136.5" x2="152.8" y2="136.5"/>
							<line id="XMLID_69_" class="st17" x1="149.5" y1="136.2" x2="152.8" y2="136.3"/>
						</g>
						<g>
							<rect x="135.7" y="125" class="st3" width="31" height="10.7"/>
							<rect x="135.7" y="104.2" class="st4" width="31" height="29.3"/>
						</g>
					</g>
				</g>
			</g>
			<g id="XMLID_173_">
				<g id="XMLID_191_">
					<polygon id="XMLID_716_" class="st3" points="132.3,314.4 139,314.4 139,140.8 132.3,142.9 					"/>
					<rect id="XMLID_715_" x="134.5" y="134.7" class="st4" width="6.7" height="179.8"/>
					<path id="XMLID_713_" class="st2" d="M167.3,128.3c-2.4-1.5-4.6-5.3-4.9-7.5c-0.9-6.3-8.6,0-8.6,0s-6.6,3.5-15.3,4l-2,9.9v1.3
						v10.2V314c0,1,0.8,1.8,1.8,1.8h26.9c1,0,1.8-0.8,1.8-1.8V146.2v-9.6v-1.9L167.3,128.3z"/>
					<g>
						<g id="XMLID_699_">
							<circle id="XMLID_712_" class="st3" cx="151.2" cy="183.7" r="5.4"/>
							<circle id="XMLID_711_" class="st11" cx="151.3" cy="183.4" r="5.2"/>
							<polygon id="XMLID_710_" class="st12" points="151.1,191.2 152.5,183.8 151.4,175.3 149.2,183.6 							"/>
							<circle id="XMLID_709_" class="st13" cx="151.2" cy="182.7" r="5.2"/>
							<circle id="XMLID_708_" class="st14" cx="151.2" cy="182.7" r="4.5"/>
							<circle id="XMLID_707_" class="st6" cx="149.6" cy="181.6" r="0.8"/>
							<circle id="XMLID_706_" class="st6" cx="153" cy="181.7" r="0.8"/>
							<circle id="XMLID_705_" class="st6" cx="149.6" cy="184.6" r="0.8"/>
							<circle id="XMLID_704_" class="st6" cx="153" cy="184.6" r="0.8"/>
							<line id="XMLID_703_" class="st15" x1="149.6" y1="184.9" x2="153.2" y2="181.7"/>
							<line id="XMLID_702_" class="st15" x1="149.3" y1="184.5" x2="152.9" y2="181.3"/>
							<line id="XMLID_701_" class="st15" x1="149.3" y1="181.7" x2="152.9" y2="185"/>
							<line id="XMLID_700_" class="st15" x1="149.7" y1="181.4" x2="153.3" y2="184.6"/>
						</g>
						<g id="XMLID_211_">
							<polygon id="XMLID_458_" class="st12" points="151.2,134.5 152.6,129.7 151.4,125.7 149.7,129.7 							"/>
							<ellipse id="XMLID_457_" class="st3" cx="151.2" cy="130.5" rx="5.4" ry="3.5"/>
							<ellipse id="XMLID_456_" class="st11" cx="151.3" cy="130.3" rx="5.2" ry="3.4"/>
							<path id="XMLID_455_" class="st13" d="M153.3,132.8c2.8-0.7,4.1-2.8,3-4.7c-1.1-1.8-4.3-2.7-7-2c-2.8,0.7-4.1,2.8-3,4.7
								C147.4,132.7,150.5,133.5,153.3,132.8z"/>
							<g id="XMLID_453_">
								<path class="st5" d="M152.9,132.3c2.3-0.6,3.5-2.4,2.5-4c-1-1.6-3.6-2.3-6-1.7c-2.3,0.6-3.5,2.4-2.5,4
									C147.9,132.2,150.6,132.9,152.9,132.3z"/>
								<path class="st16" d="M152.9,132.2c0,0,0.1,0,0.3-0.1c0.2-0.1,0.4-0.1,0.7-0.3c0.3-0.1,0.6-0.4,0.9-0.7
									c0.3-0.3,0.6-0.7,0.7-1.3c0.1-0.5-0.1-1-0.4-1.4c-0.4-0.5-0.9-0.7-1.5-0.9c-0.6-0.2-1.2-0.3-1.9-0.3c-0.7,0-1.3,0.1-1.9,0.2
									c-0.1,0-0.4,0.1-0.5,0.1c-0.1,0-0.3,0.1-0.4,0.2c-0.3,0.1-0.5,0.3-0.8,0.5c-0.4,0.4-0.7,0.8-0.8,1.3c0,0.2,0,0.5,0.1,0.8
									c0,0.1,0.2,0.3,0.2,0.4c0.1,0.1,0.2,0.2,0.3,0.3c0.4,0.4,0.9,0.7,1.4,1c0.5,0.2,1,0.3,1.4,0.4c0.4,0.1,0.8,0.1,1.2,0
									C152.6,132.4,152.9,132.2,152.9,132.2z M153,132.3c0,0-0.4,0.1-1,0.2c-0.7,0.1-1.6,0.1-2.7-0.3c-0.5-0.2-1.1-0.4-1.6-0.9
									c-0.5-0.4-0.9-1-1-1.8c-0.1-0.7,0.3-1.5,0.9-2c0.6-0.5,1.3-0.9,2-1.1c1.5-0.4,3.1-0.3,4.4,0.3c0.6,0.3,1.2,0.7,1.6,1.3
									c0.4,0.6,0.5,1.2,0.3,1.8c-0.1,0.6-0.5,1-0.8,1.3c-0.3,0.3-0.7,0.5-1,0.7c-0.3,0.1-0.6,0.2-0.7,0.3
									C153.1,132.3,153,132.3,153,132.3z"/>
							</g>
							<path id="XMLID_452_" class="st6" d="M148.8,128.9c0,0.2,0.4,0.4,0.8,0.4c0.4,0,0.8-0.2,0.8-0.5s-0.4-0.4-0.8-0.4
								C149.1,128.4,148.8,128.6,148.8,128.9z"/>
							<path id="XMLID_451_" class="st6" d="M152.2,128.9c0,0.2,0.4,0.4,0.8,0.4c0.4,0,0.8-0.2,0.8-0.5c0-0.2-0.4-0.4-0.8-0.4
								C152.5,128.4,152.2,128.6,152.2,128.9z"/>
							<path id="XMLID_450_" class="st6" d="M148.8,131.1c0,0.2,0.4,0.4,0.8,0.4c0.4,0,0.8-0.2,0.8-0.5c0-0.2-0.4-0.4-0.8-0.4
								C149.1,130.6,148.8,130.8,148.8,131.1z"/>
							<path id="XMLID_216_" class="st6" d="M152.2,131.1c0,0.2,0.4,0.4,0.8,0.4c0.4,0,0.8-0.2,0.8-0.5s-0.4-0.4-0.8-0.4
								C152.5,130.7,152.1,130.9,152.2,131.1z"/>
							<line id="XMLID_215_" class="st17" x1="149.7" y1="129" x2="152.9" y2="131.4"/>
							<line id="XMLID_214_" class="st17" x1="149.7" y1="128.7" x2="153" y2="131.1"/>
							<line id="XMLID_213_" class="st17" x1="149.6" y1="131.2" x2="153" y2="129"/>
							<line id="XMLID_212_" class="st17" x1="149.6" y1="131" x2="153" y2="128.7"/>
						</g>
						<g id="XMLID_197_">
							<circle id="XMLID_210_" class="st3" cx="151.2" cy="259.1" r="5.4"/>
							<circle id="XMLID_209_" class="st11" cx="151.3" cy="258.9" r="5.2"/>
							<polygon id="XMLID_208_" class="st12" points="151.1,266.7 152.5,259.2 151.4,250.7 149.2,259 							"/>
							<circle id="XMLID_207_" class="st13" cx="151.2" cy="258.1" r="5.2"/>
							<circle id="XMLID_206_" class="st14" cx="151.2" cy="258.1" r="4.5"/>
							<circle id="XMLID_205_" class="st6" cx="149.6" cy="257" r="0.8"/>
							<circle id="XMLID_204_" class="st6" cx="153" cy="257.1" r="0.8"/>
							<circle id="XMLID_203_" class="st6" cx="149.6" cy="260" r="0.8"/>
							<circle id="XMLID_202_" class="st6" cx="153" cy="260.1" r="0.8"/>
							<line id="XMLID_201_" class="st15" x1="149.6" y1="260.3" x2="153.2" y2="257.2"/>
							<line id="XMLID_200_" class="st15" x1="149.3" y1="259.9" x2="152.9" y2="256.8"/>
							<line id="XMLID_199_" class="st15" x1="149.3" y1="257.1" x2="152.9" y2="260.4"/>
							<line id="XMLID_198_" class="st15" x1="149.7" y1="256.8" x2="153.3" y2="260.1"/>
						</g>
					</g>
					<path id="XMLID_196_" class="st4" d="M136.8,140.8l29.8,0.9l0.7-10.6l-18.1-6.4c0,0-4,5.1-8.6,6.4s-3.8,3.6-3.8,3.6V140.8z"/>
					<polygon id="XMLID_195_" class="st3" points="136.8,143.3 166.6,143.3 166.6,141.7 136.8,139.5 					"/>
					<g id="XMLID_192_">
						<polygon id="XMLID_194_" class="st16" points="151.4,132.4 122.4,170.9 151.6,126.1 181.1,170.9 						"/>
						<polygon id="XMLID_193_" class="st4" points="180.5,170 151.3,135.6 122.4,170.9 151.3,131.9 						"/>
					</g>
				</g>
				<g id="XMLID_174_">
					<path id="XMLID_190_" class="st2" d="M182.5,20.7c-18.5-1.2-43.3-1.2-61.8,0c-35.7,2.3-33.5,32-33.5,32s1.4,18.6,1.4,25.5
						c0,7,0,15.3,4.6,28.8c3.9,11.4,20.9,50.9,26,62.6c0.6,1.4,2.6,1.6,3.4,0.3l28.9-43.9l28.9,43.9c0.9,1.3,2.8,1.1,3.4-0.3
						c5-11.7,22-51.2,26-62.6c4.6-13.5,4.6-21.8,4.6-28.8c0-7,1.7-25.5,1.7-25.5S218.3,23.1,182.5,20.7z"/>
					<g id="XMLID_186_">
						<path id="XMLID_189_" class="st18" d="M105.2,32.1c8.6-7.9,9.7-8.2,9.8-8.3c-3,0.3-4.8,0.5-4.8,0.5c-14,4.8-21.9,17.3-17.6,34
							c0.1,0,0.2,0,0.2,0C92.9,58.3,96.4,40.3,105.2,32.1z"/>
						<path id="XMLID_188_" class="st19" d="M103.4,31.2c-2.9,3.6-7.5,9.5-6.7,14.6c0.9,5.1,3.7,2.8,3.7,2.8s0.9-2,2.3-4.9
							c0,0-0.1-0.1-0.1-0.1c-0.3-0.6,1.9-4.1,4.5-8.1c1.9-3.3,4.1-6.7,6.4-9.6c0.4-0.6,0.8-1.2,0.9-1.5c0.1-0.2,0.2-0.4,0.4-0.5
							c-0.7,0.1-1.3,0.1-1.9,0.2C109.4,26.1,105,29.2,103.4,31.2z"/>
						<path id="XMLID_187_" class="st20" d="M105.7,35.6c-1.7,3-2.1,6.4-3.3,8.7c0.8,1.1,5.2-0.2,5.2-0.2h3.8c0,0,2.8-14.7,5.8-20.4
							c-0.7,0.1-1.4,0.1-2,0.2C114.7,24.5,109.2,28.2,105.7,35.6z"/>
					</g>
					<g id="XMLID_182_">
						<path id="XMLID_185_" class="st18" d="M198.3,32.1c-8.6-7.9-9.7-8.2-9.8-8.3c3,0.3,4.8,0.5,4.8,0.5c14,4.8,21.9,17.3,17.6,34
							c-0.1,0-0.2,0-0.2,0C210.6,58.3,207.1,40.3,198.3,32.1z"/>
						<path id="XMLID_184_" class="st19" d="M200.1,31.2c2.9,3.6,7.5,9.5,6.7,14.6c-0.9,5.1-3.7,2.8-3.7,2.8s-0.9-2-2.3-4.9
							c0,0,0.1-0.1,0.1-0.1c0.3-0.6-1.9-4.1-4.5-8.1c-1.9-3.3-4.1-6.7-6.4-9.6c-0.4-0.6-0.8-1.2-0.9-1.5c-0.1-0.2-0.2-0.4-0.4-0.5
							c0.7,0.1,1.3,0.1,1.9,0.2C194.1,26.1,198.5,29.2,200.1,31.2z"/>
						<path id="XMLID_183_" class="st20" d="M197.8,35.6c1.7,3,2.1,6.4,3.3,8.7c-0.8,1.1-5.2-0.2-5.2-0.2H192c0,0-2.8-14.7-5.8-20.4
							c0.7,0.1,1.4,0.1,2,0.2C188.8,24.5,194.3,28.2,197.8,35.6z"/>
					</g>
					<path id="XMLID_181_" class="st9" d="M193.2,24.4c0,0-20.2-2.6-40.9-2.6c-0.2,0-0.4,0-0.5,0c-0.2,0-0.3,0-0.5,0
						c-20.7,0-40.9,2.6-40.9,2.6c-18.4,6.2-26.2,25.9-9.8,50.5c16.4,24.6,50.8,51.2,50.8,51.2h1.1c0,0,34.4-26.6,50.8-51.2
						C219.5,50.3,211.6,30.6,193.2,24.4z"/>
					<path id="XMLID_180_" class="st21" d="M151.2,126.1h1.1c0,0,34.4-26.6,50.8-51.2c4.4-6.7,7.1-13,8.2-18.7
						c-0.1-0.6-2.1-14.4-13.1-14.4c-11.3,0-81.7,0-92.9,0c-11,0-13,13.8-13.1,14.4c1.2,5.8,3.8,12.1,8.2,18.7
						C116.8,99.5,151.2,126.1,151.2,126.1z"/>
					<path id="XMLID_179_" class="st22" d="M211.3,52.4c0,0-1.8-14.4-13.1-14.4c-11.3,0-81.7,0-92.9,0S92.2,52.4,92.2,52.4"/>
					<path id="XMLID_178_" class="st16" d="M151.7,121.6c-3.2,0-51.3-46.7-51.3-46.7c16.4,24.6,50.8,51.2,50.8,51.2h1.1
						c0,0,32.7-25.3,49.5-49.4c0.8-1.2,1.2-1.8,1.2-1.8S154.9,121.6,151.7,121.6z"/>
					<path id="XMLID_177_" class="st4" d="M151.7,124.2c0,0,42-37.9,51.3-49.2c0,0-48.1,44.8-51.3,44.8c-3.2,0-51.3-44.8-51.3-44.8
						l17.6,18.2L151.7,124.2z"/>
					<path id="XMLID_176_" class="st22" d="M89.1,79.5c0,0-0.1,11.4,4,24.5c2.6,8.2,22.6,54.7,22.6,54.7s3.6,11.5,5.4,11.5
						c1.3,0,3.8-4.8,11.1-15.8c8.8-13.2,18.1-28.3,18.1-28.3"/>
					<path id="XMLID_175_" class="st22" d="M214.4,79.5c0,0,0.1,11.4-4,24.5c-2.6,8.2-22.6,54.7-22.6,54.7s-3.6,11.5-5.4,11.5
						c-1.3,0-3.8-4.8-11.1-15.8c-8.8-13.2-18.1-28.3-18.1-28.3"/>
				</g>
			</g>
		</g>
	</g>
	<g id="XMLID_1_" class="st0">
		<defs>
			<rect id="XMLID_4932_" x="-13.5" width="327.1" height="300"/>
		</defs>
		<clipPath id="XMLID_6_">
			<use xlink:href="#XMLID_4932_"  style="overflow:visible;"/>
		</clipPath>
	</g>
	<g class="st0">
		<path class="st23" d="M150.1,4.6c38.7,0,75.1,15.1,102.5,42.5c27.4,27.4,42.5,63.8,42.5,102.5s-15.1,75.1-42.5,102.5
			c-27.4,27.4-63.8,42.5-102.5,42.5S75,279.5,47.6,252.1C20.2,224.7,5.1,188.3,5.1,149.6S20.2,74.5,47.6,47.1
			C75,19.7,111.4,4.6,150.1,4.6 M150.1-0.4c-82.8,0-150,67.2-150,150s67.2,150,150,150s150-67.2,150-150S232.9-0.4,150.1-0.4
			L150.1-0.4z"/>
	</g>
</g>
</svg>
