<?xml version="1.0" encoding="utf-8"?>
<!-- Generator: Adobe Illustrator 19.0.0, SVG Export Plug-In . SVG Version: 6.00 Build 0)  -->
<svg version="1.1" id="Layer_1" xmlns="http://www.w3.org/2000/svg" xmlns:xlink="http://www.w3.org/1999/xlink" x="0px" y="0px"
	 viewBox="0 0 300 300" style="enable-background:new 0 0 300 300;" xml:space="preserve">
<style type="text/css">
	.st0{clip-path:url(#SVGID_2_);}
	.st1{clip-path:url(#XMLID_3_);}
	.st2{fill:#F2F2F2;stroke:#404041;stroke-miterlimit:10;}
	.st3{fill:#C5C7C9;}
	.st4{fill:#929497;}
	.st5{fill:#FFFFFF;stroke:#404041;stroke-miterlimit:10;}
	.st6{fill:#F1F1F2;}
	.st7{fill:#DBDCDD;}
	.st8{fill:#404041;stroke:#D0D2D3;stroke-width:0.5;stroke-miterlimit:10;}
	.st9{fill:#FFFFFF;stroke:#6D6E70;stroke-width:2;stroke-miterlimit:10;}
	.st10{fill:#FFFFFF;stroke:#929497;stroke-width:0.75;stroke-miterlimit:10;}
	.st11{fill:#404041;}
	.st12{fill:none;stroke:#6D6E70;stroke-width:0.5;stroke-miterlimit:10;}
	.st13{fill:#FFFFFF;}
	.st14{fill:none;stroke:#808184;stroke-miterlimit:10;stroke-dasharray:3,3;}
	.st15{fill:#D0D2D3;}
	.st16{fill:#9AA0BB;}
</style>
<g>
	<defs>
		<circle id="SVGID_1_" cx="150.1" cy="149.6" r="150"/>
	</defs>
	<use xlink:href="#SVGID_1_"  style="overflow:visible;fill:#DDDDDD;"/>
	<clipPath id="SVGID_2_">
		<use xlink:href="#SVGID_1_"  style="overflow:visible;"/>
	</clipPath>
	<g id="XMLID_4081_" class="st0">
		<defs>
			<rect id="XMLID_4118_" y="-0.4" width="300" height="300"/>
		</defs>
		<clipPath id="XMLID_3_">
			<use xlink:href="#XMLID_4118_"  style="overflow:visible;"/>
		</clipPath>
		<g class="st1">
			<polygon class="st2" points="178.2,263.3 142.8,263.3 142.8,88.1 180.2,88.1 			"/>
			<path class="st3" d="M169.3,117.4c0,0-7.4,5.5-7.4,29.5s1.4,30,1.4,30s1,1.7,0.9,5.3c-0.1,3.6-8.1,81.1-8.1,81.1h-12.9l7.2-164.4
				l16.5-7.9C166.9,91,172.5,111.5,169.3,117.4z"/>
			<path class="st4" d="M167.7,111.9c0,0-6.7,11-6.7,35s1.4,30,1.4,30s1,1.7,0.9,5.3c-0.1,3.6-8.1,81.1-8.1,81.1h-12.9l7.2-164.4
				L166,91C166,91,170.9,106,167.7,111.9z"/>
			<path class="st5" d="M63,13.5c0,0,2.8,119.1,23,163.8h0.7h74.6c-0.5-4.7-4.6-49.2,6.3-76v76h45.6h0.7
				c20.2-44.6,23-163.8,23-163.8l0.9-20.9H61.2L63,13.5z"/>
			<polygon class="st5" points="167.7,178.1 190.4,178.1 190.4,29.1 178.8,21.8 167.7,29.1 			"/>
			<g>
				<g id="XMLID_3797_">
					<circle id="XMLID_3824_" class="st6" cx="179.3" cy="100.4" r="6.9"/>
					<circle id="XMLID_3823_" class="st7" cx="179.3" cy="100.2" r="6.7"/>
					<polygon id="XMLID_3822_" class="st8" points="180.2,109.5 181.4,99.8 179.5,88.9 177.2,99.8 					"/>
					<circle id="XMLID_3821_" class="st9" cx="179.3" cy="99.2" r="6.7"/>
					<circle id="XMLID_3820_" class="st10" cx="179.3" cy="99.2" r="5.8"/>
					<g>
						<circle id="XMLID_3819_" class="st11" cx="177.4" cy="101.4" r="1"/>
						<circle id="XMLID_3818_" class="st11" cx="177.5" cy="97.1" r="1"/>
						<circle id="XMLID_3817_" class="st11" cx="181.2" cy="101.4" r="1"/>
						<circle id="XMLID_3816_" class="st11" cx="181.3" cy="97.1" r="1"/>
						<line id="XMLID_3801_" class="st12" x1="181.6" y1="101.4" x2="177.5" y2="96.8"/>
						<line id="XMLID_3800_" class="st12" x1="181" y1="101.7" x2="177" y2="97.1"/>
						<line id="XMLID_3799_" class="st12" x1="177.5" y1="101.8" x2="181.7" y2="97.1"/>
						<line id="XMLID_3798_" class="st12" x1="177" y1="101.3" x2="181.3" y2="96.6"/>
					</g>
				</g>
			</g>
			<g id="XMLID_3566_">
				<g id="XMLID_3774_">
					<g id="XMLID_3775_">
						<g>
							<path class="st13" d="M211.2,263.1c1.4,0,2.5-1.1,2.5-2.5v-81.1c0-1.4-1.1-2.5-2.5-2.5l-42.3,0c-1.4,0-2.5,1.1-2.5,2.5
								l-2.6,81.1c0,1.4,1.1,2.5,2.5,2.5L211.2,263.1z"/>
						</g>
						<g>
							<path class="st11" d="M168.9,176.5l42.3,0c1.6,0,3,1.3,3,3v81.1c0,1.6-1.3,3-3,3l-44.9,0c-1.6,0-3-1.3-3-3l2.6-81.1
								C165.9,177.8,167.2,176.5,168.9,176.5z M211.2,262.6c1.2,0,2.1-0.9,2.1-2.1v-81.1c0-1.2-0.9-2.1-2.1-2.1l-42.3,0
								c-1.2,0-2.1,0.9-2.1,2.1l-2.6,81.1c0,1.2,0.9,2.1,2.1,2.1L211.2,262.6z"/>
						</g>
					</g>
					<line class="st14" x1="214" y1="255.3" x2="166.5" y2="255.3"/>
					<g id="XMLID_3777_">
						<g>
							<path class="st13" d="M86.3,263.1c-1.4,0-2.5-1.1-2.5-2.5v-81.1c0-1.4,1.1-2.5,2.5-2.5l74.1,0c1.4,0,2.5,1.1,2.5,2.5
								l-8.9,81.1c0,1.4-1.1,2.5-2.5,2.5L86.3,263.1z"/>
						</g>
						<g>
							<path class="st11" d="M163.4,179.4l-8.9,81.1c0,1.6-1.3,3-3,3l-65.1,0c-1.6,0-3-1.3-3-3v-81.1c0-1.6,1.3-3,3-3l74.1,0
								C162,176.5,163.4,177.8,163.4,179.4z M151.5,262.6c1.2,0,2.1-0.9,2.1-2.1l8.9-81.1c0-1.2-0.9-2.1-2.1-2.1l-74.1,0
								c-1.2,0-2.1,0.9-2.1,2.1v81.1c0,1.2,0.9,2.1,2.1,2.1L151.5,262.6z"/>
						</g>
					</g>
					<line class="st14" x1="83.6" y1="255.3" x2="151.3" y2="255.3"/>
					<path class="st14" d="M83.6,260.9h66.6c0.6,0,1.2-0.5,1.2-1.2l8.9-80c0-0.6-0.5-1.2-1.2-1.2H84.2"/>
					<path class="st14" d="M214,260.9h-46.3c-0.6,0-1.2-0.5-1.2-1.2l2.6-80c0-0.6,0.5-1.2,1.2-1.2h43.1"/>
				</g>
				<g>
					<g id="XMLID_3567_">
						<circle id="XMLID_3773_" class="st6" cx="145.6" cy="217.4" r="6.9"/>
						<circle id="XMLID_3772_" class="st7" cx="145.6" cy="217.2" r="6.7"/>
						<circle id="XMLID_3770_" class="st9" cx="145.6" cy="216.2" r="6.7"/>
						<circle id="XMLID_3769_" class="st10" cx="145.6" cy="216.2" r="5.8"/>
						<g>
							<circle id="XMLID_3768_" class="st11" cx="143.7" cy="218.4" r="1"/>
							<circle id="XMLID_3767_" class="st11" cx="143.8" cy="214.1" r="1"/>
							<circle id="XMLID_3764_" class="st11" cx="147.5" cy="218.4" r="1"/>
							<circle id="XMLID_3737_" class="st11" cx="147.6" cy="214.1" r="1"/>
							<line id="XMLID_3661_" class="st12" x1="147.9" y1="218.4" x2="143.8" y2="213.8"/>
							<line id="XMLID_3570_" class="st12" x1="147.3" y1="218.7" x2="143.3" y2="214.1"/>
							<line id="XMLID_3569_" class="st12" x1="143.8" y1="218.8" x2="148" y2="214.1"/>
							<line id="XMLID_3568_" class="st12" x1="143.3" y1="218.3" x2="147.6" y2="213.6"/>
						</g>
					</g>
				</g>
			</g>
			<g id="XMLID_3776_">
				<path class="st11" d="M171.2,216.2c0-0.4,3.9-0.7,11.2-0.7c7.3,0,10.8,0.3,10.8,0.7c0,0.4-3.2,1.1-10.5,1.1
					C175.4,217.3,171.2,216.6,171.2,216.2z"/>
				<path class="st15" d="M193.4,216.2c0,0.9-5.6,1.3-10.8,1.3c-4.5,0-11.7-0.4-11.7-1.3c0-0.3,0-0.9,11.4-0.9
					C193.4,215.3,193.4,215.9,193.4,216.2z M182.7,217.1c6.4,0,9.4-0.5,10.2-0.8c-0.7-0.2-3.5-0.5-10.4-0.5c-7,0-9.9,0.3-10.8,0.5
					C172.6,216.6,176.2,217.1,182.7,217.1z"/>
			</g>
		</g>
	</g>
	<g id="XMLID_1_" class="st0">
		<defs>
			<rect id="XMLID_4932_" x="-13.5" width="327.1" height="300"/>
		</defs>
		<clipPath id="XMLID_4_">
			<use xlink:href="#XMLID_4932_"  style="overflow:visible;"/>
		</clipPath>
	</g>
	<g class="st0">
		<path class="st16" d="M150.1,4.6c38.7,0,75.1,15.1,102.5,42.5c27.4,27.4,42.5,63.8,42.5,102.5s-15.1,75.1-42.5,102.5
			c-27.4,27.4-63.8,42.5-102.5,42.5S75,279.5,47.6,252.1C20.2,224.7,5.1,188.3,5.1,149.6S20.2,74.5,47.6,47.1
			C75,19.7,111.4,4.6,150.1,4.6 M150.1-0.4c-82.8,0-150,67.2-150,150s67.2,150,150,150s150-67.2,150-150S232.9-0.4,150.1-0.4
			L150.1-0.4z"/>
	</g>
</g>
</svg>
