<?xml version="1.0" encoding="utf-8"?>
<!-- Generator: Adobe Illustrator 19.0.0, SVG Export Plug-In . SVG Version: 6.00 Build 0)  -->
<svg version="1.1" id="Layer_1" xmlns="http://www.w3.org/2000/svg" xmlns:xlink="http://www.w3.org/1999/xlink" x="0px" y="0px"
	 viewBox="-361 235 300 300" style="enable-background:new -361 235 300 300;" xml:space="preserve">
<style type="text/css">
	.st0{fill:#DDDDDD;}
	.st1{clip-path:url(#SVGID_3_);}
	.st2{clip-path:url(#SVGID_5_);}
	.st3{fill:#F1F1F2;stroke:#404041;stroke-miterlimit:10;}
	.st4{fill:#FFFFFF;stroke:#404041;stroke-miterlimit:10;}
	.st5{fill:#929497;}
	.st6{fill:#F1F1F2;}
	.st7{fill:#C5C7C9;}
	.st8{fill:none;stroke:#404041;stroke-miterlimit:10;}
	.st9{fill:none;stroke:#808184;stroke-width:0.5;stroke-miterlimit:10;}
	.st10{fill:none;stroke:#808184;stroke-width:0.5;stroke-miterlimit:10;stroke-dasharray:0.9963,1.9927;}
	.st11{fill:none;stroke:#808184;stroke-width:0.5;stroke-miterlimit:10;stroke-dasharray:0.9907,1.9814;}
	.st12{fill:none;stroke:#808184;stroke-width:0.5;stroke-miterlimit:10;stroke-dasharray:0.9837,1.9673;}
	.st13{fill:none;stroke:#808184;stroke-width:0.5;stroke-miterlimit:10;stroke-dasharray:1,2;}
	.st14{fill:#DBDCDD;}
	.st15{fill:#404041;stroke:#D0D2D3;stroke-width:0.5;stroke-miterlimit:10;}
	.st16{fill:#FFFFFF;stroke:#6D6E70;stroke-miterlimit:10;}
	.st17{fill:#FFFFFF;stroke:#929497;stroke-width:0.25;stroke-miterlimit:10;}
	.st18{fill:#404041;}
	.st19{fill:none;stroke:#6D6E70;stroke-width:0.5;stroke-miterlimit:10;}
	.st20{fill:#FFFFFF;stroke:#6D6E70;stroke-width:0.5;stroke-miterlimit:10;}
	.st21{fill:none;stroke:#6D6E70;stroke-width:0.25;stroke-miterlimit:10;}
	.st22{clip-path:url(#SVGID_7_);}
	.st23{fill:#9AA0BB;}
</style>
<g>
	<g>
		<circle id="SVGID_1_" class="st0" cx="-211" cy="385" r="150"/>
	</g>
	<g>
		<g>
			<defs>
				<circle id="SVGID_2_" cx="-211" cy="385" r="150"/>
			</defs>
			<clipPath id="SVGID_3_">
				<use xlink:href="#SVGID_2_"  style="overflow:visible;"/>
			</clipPath>
			<g class="st1">
				<g>
					<g id="XMLID_4081_">
						<defs>
							<rect id="SVGID_4_" x="-361.1" y="235" width="300" height="300"/>
						</defs>
						<clipPath id="SVGID_5_">
							<use xlink:href="#SVGID_4_"  style="overflow:visible;"/>
						</clipPath>
						<g id="XMLID_3211_" class="st2">
							<g id="XMLID_3464_">
								<g id="XMLID_3714_">
									<polygon id="XMLID_3738_" class="st3" points="-191,274.6 -182.8,283.8 -213.3,419.5 -239.5,283.8 -231.7,274.6 									
										"/>
									<path id="XMLID_3736_" class="st4" d="M-190.6,270.2c0,0,0.1-0.5-20.5-0.5c-0.1,0-0.1,0-0.2,0s-0.1,0-0.2,0
										c-20.6,0-20.5,0.5-20.5,0.5l-2.5,9c0,0,3.4,0.8,11.5,1.2c3.2,0.1,7.2,0.2,11.9,0.2c4.7,0,8.3-0.1,11.5-0.2
										c8.1-0.3,11.5-1.2,11.5-1.2L-190.6,270.2z"/>
									<g id="XMLID_3732_">
										<path id="XMLID_3735_" class="st5" d="M-228.4,270c0,0-2.1,2.4-2,5.4c0.2,3,0.3,4.1,0.3,4.1h-2.3l0.2-9.2L-228.4,270z"/>
										<path id="XMLID_3734_" class="st6" d="M-227.5,270c-0.6,0-1,0-1.5,0.1c-1.2,2-1.2,7.7-1.2,9.7c0.7,0.1,1.4,0.1,2.2,0.2
											c-0.1-0.6-0.3-1.9-0.3-4.2C-228.3,272.9-227.8,270.9-227.5,270z"/>
										<path id="XMLID_3733_" class="st7" d="M-228.8,270c-0.3,0-0.6,0-0.8,0c-0.5,0.4-1,1.1-1.1,2.4c-0.2,2.5-0.4,5.8-0.4,7.2
											c0.6,0.1,1.4,0.1,2.2,0.2C-229.3,277.7-230,271.9-228.8,270z"/>
									</g>
									<g id="XMLID_3728_">
										<path id="XMLID_3731_" class="st5" d="M-194.5,270c0,0,2.1,2.4,2,5.4c-0.2,3-0.3,4.1-0.3,4.1h2.3l-0.2-9.2L-194.5,270z"/>
										<path id="XMLID_3730_" class="st6" d="M-195.4,270c0.6,0,1,0,1.5,0.1c1.2,2,1.2,7.7,1.2,9.7c-0.7,0.1-1.4,0.1-2.2,0.2
											c0.1-0.6,0.3-1.9,0.3-4.2C-194.7,272.9-195.2,270.9-195.4,270z"/>
										<path id="XMLID_3729_" class="st7" d="M-194.1,270c0.3,0,0.6,0,0.8,0c0.5,0.4,1,1.1,1.1,2.4c0.2,2.5,0.4,5.8,0.4,7.2
											c-0.6,0.1-1.4,0.1-2.2,0.2C-193.6,277.7-192.9,271.9-194.1,270z"/>
									</g>
									<path id="XMLID_3727_" class="st8" d="M-190.6,270.2c0,0,0.1-0.5-20.5-0.5c-0.1,0-0.1,0-0.2,0s-0.1,0-0.2,0
										c-20.6,0-20.5,0.5-20.5,0.5l-2.5,9c0,0,3.4,0.8,11.5,1.2c3.2,0.1,7.2,0.2,11.9,0.2c4.7,0,8.3-0.1,11.5-0.2
										c8.1-0.3,11.5-1.2,11.5-1.2L-190.6,270.2z"/>
									<g id="XMLID_3724_">
										<polygon id="XMLID_3726_" class="st5" points="-230.6,298.2 -211.2,390.5 -192.1,298.2 -204.6,406.4 -211.8,414.1 
											-217.6,405.4 										"/>
										<polygon id="XMLID_3725_" class="st7" points="-211.4,402.5 -191.6,294.1 -211.2,390 -231.1,294.1 										"/>
									</g>
									<g id="XMLID_3718_">
										<g>
											<line class="st9" x1="-211.2" y1="281.8" x2="-211.2" y2="282.3"/>
											<line class="st10" x1="-211.2" y1="284.3" x2="-211.2" y2="408.8"/>
											<line class="st9" x1="-211.2" y1="409.8" x2="-211.2" y2="410.3"/>
										</g>
									</g>
									<path id="XMLID_3717_" class="st5" d="M-221.8,284l0.7,0.8c0,0,5.3-0.4,9.9-0.4c4.5,0,10.2,0.4,10.2,0.4l0.5-0.8H-221.8z"
										/>
									<path id="XMLID_3716_" class="st7" d="M-221.3,284.6l0.5,0.6c0,0,5-0.4,9.5-0.4c4.4,0,10,0.4,10,0.4l0.3-0.6l-10.3-0.2
										L-221.3,284.6z"/>
									<path id="XMLID_3715_" class="st4" d="M-211.2,280.6c-4.7,0-8.6,0-11.8-0.2l1.3,3.6h10.4h0.1h10.4l1.3-3.6
										C-202.5,280.6-206.4,280.6-211.2,280.6z"/>
								</g>
								<path id="XMLID_3713_" class="st3" d="M-200.7,606.4c0-0.6,0-20.8,0-20.8h-20.9v20.8H-200.7z"/>
								<g id="XMLID_3710_">
									<polygon id="XMLID_3712_" class="st5" points="-211,593.3 -219.1,611.4 -211.2,582.5 -202.9,611.8 									"/>
									<polygon id="XMLID_3711_" class="st7" points="-211.2,596.9 -219.1,611.4 -211.2,590.8 -202.9,611.8 									"/>
								</g>
								<path id="XMLID_3708_" class="st4" d="M-200,483.9c-1.9-43.3-4-31.7-4-31.7l-3.7-31.1l-2.9-6.3c-4.5-22.4-10-50-11.1-57.6
									c-1.8-12.3-7.9-51.4-7.9-51.4c-3.7-23.7-2.1-35.5-2.1-35.5s-17.8,10.2-21.4,12.6c-1.9,1.3-18.3,8.5-32.3,14.9
									c-17,7.9-19.3,12-19.3,12c13.1,8.1,15.8,37.2,16,71.4s-9.2,92.5-10.4,122.9c-1.2,31.5-7.7,108.9-7.7,108.9
									s56.2,14.4,71.6,10.1c15.4-4.2,16.6-12.8,19.6-20.8l4.5-15.8C-211,586.5-198.1,527.2-200,483.9z"/>
								<g id="XMLID_3684_">
									<g id="XMLID_3702_">
										<g>
											<line class="st9" x1="-255.2" y1="426.1" x2="-255.2" y2="426.6"/>
											<line class="st11" x1="-255.2" y1="428.6" x2="-255.2" y2="513.8"/>
											<line class="st9" x1="-255.2" y1="514.8" x2="-255.2" y2="515.3"/>
										</g>
									</g>
								</g>
								<g id="XMLID_3681_">
									<path id="XMLID_3683_" class="st6" d="M-288.5,442.8c5-33.9,2.8-61.1-0.6-82.4c0.7,4.2,1,11.6,1.1,12.7
										c0.6,7.2,1.2,14.6,1,21.7c-0.1,15-1.2,32.2-3.9,51.1c-2.3,16.2-4,23.4-5.3,26.1c-0.2,2.3-0.5,4.5-0.7,6.7
										C-293.8,478.7-291.7,464.6-288.5,442.8z"/>
									<path id="XMLID_3682_" class="st7" d="M-291.5,429.1c-1.5,14.6-3.2,29.5-4.7,43.1c1.2-2.8,3-10,5.3-26.1
										c2.7-18.9,4-34.3,4-59.7v-0.1c0.3-9.2-2.2-26.2-2.2-25.5C-287.7,381.2-290.1,417-291.5,429.1z"/>
								</g>
								<path id="XMLID_3680_" class="st4" d="M-288.7,381.3c-0.2-32.1-2.6-59.7-13.7-69.7l-2.3-1.3c0,0-3.5-1.2-7.3,16.4
									c-3.7,17.6-43.4,267-43.4,267s6.6,5.7,20.3,6.2c13.7,0.5,20.6-2.9,20.6-2.9l21.5-155.6
									C-290.7,419.7-288.6,397.7-288.7,381.3z"/>
								<g id="XMLID_3611_">
									<path id="XMLID_3613_" class="st6" d="M-210.7,409.2c0,0-15.5,36.9-15.5,89.2s17.3,90.2,17.3,90.2l-1.8-63.5l2.5-111.3
										L-210.7,409.2z"/>
									<path id="XMLID_3612_" class="st7" d="M-208.5,409.2c0,0-15.5,36.9-15.5,89.2s17.3,90.2,17.3,90.2l-1.8-63.5l2.5-111.3
										L-208.5,409.2z"/>
								</g>
								<g id="XMLID_3469_">
									<path id="XMLID_3610_" class="st4" d="M-133.5,381.3c0.3-34.2,3-63.3,16-71.4c0,0-2.4-4.2-19.3-12
										c-16-7.4-29.4-13.2-34.7-16.2c-0.3-0.2-0.6-0.4-0.9-0.5c-4.6-2.8-18.2-10.8-18.2-10.8s0.9,11.8-2.8,35.5
										c0,0-6.1,39.1-7.9,51.4s-15.2,77.3-16.8,87c-0.4,2.5-0.8,4.9-1.2,7.1c-0.7,4.7-1.3,9-1.6,10.5c-0.4,5-0.9,12-1.3,22.1
										c-1.9,43.3,11,102.6,11,102.6l4.7,16c3,8,4.1,16.4,19.4,20.6c15.4,4.2,69.6-10.1,69.6-10.1s-4.4-77.3-5.7-108.9
										C-124.3,473.8-133.8,415.5-133.5,381.3z"/>
									<g id="XMLID_3597_">
										<g id="XMLID_3598_">
											<g>
												<line class="st9" x1="-163.2" y1="426.1" x2="-163.2" y2="426.6"/>
												<line class="st12" x1="-163.2" y1="428.6" x2="-163.2" y2="513.2"/>
												<line class="st9" x1="-163.2" y1="514.1" x2="-163.2" y2="514.6"/>
											</g>
										</g>
									</g>
									<polygon id="XMLID_3596_" class="st6" points="-142.5,384.7 -142.5,382.6 -191.5,384 -191.5,386.1 									"/>
									<polygon id="XMLID_3595_" class="st7" points="-142.5,385.5 -142.5,383.4 -191.5,384.8 -191.5,386.9 									"/>
									<polygon id="XMLID_3594_" class="st4" points="-142.6,384.3 -142.6,396.3 -190.9,397.4 -190.9,385.7 									"/>
									<line id="XMLID_3593_" class="st13" x1="-190.9" y1="386.2" x2="-142.6" y2="384.8"/>
									<g id="XMLID_3470_">
										<g id="XMLID_3576_">
											<circle id="XMLID_3592_" class="st6" cx="-209.2" cy="470.3" r="4.9"/>
											<circle id="XMLID_3591_" class="st14" cx="-209.1" cy="470.1" r="4.7"/>
											<polygon id="XMLID_3590_" class="st15" points="-203,470 -209.1,468.8 -215.8,470 -209,471.2 											"/>
											<circle id="XMLID_3589_" class="st16" cx="-209.2" cy="469.5" r="4.7"/>
											<circle id="XMLID_3588_" class="st17" cx="-209.2" cy="469.5" r="4.1"/>
											<circle id="XMLID_3587_" class="st18" cx="-210" cy="468.4" r="0.6"/>
											<circle id="XMLID_3586_" class="st18" cx="-208.6" cy="471.4" r="0.6"/>
											<line id="XMLID_3585_" class="st19" x1="-210.2" y1="468.4" x2="-208.8" y2="471.4"/>
											<line id="XMLID_3584_" class="st19" x1="-209.9" y1="468.3" x2="-208.4" y2="471.2"/>
											<line id="XMLID_3583_" class="st19" x1="-210.2" y1="468.4" x2="-208.8" y2="471.4"/>
											<line id="XMLID_3582_" class="st19" x1="-209.9" y1="468.3" x2="-208.4" y2="471.2"/>
											<circle id="XMLID_3581_" class="st18" cx="-210.8" cy="470.6" r="0.6"/>
											<circle id="XMLID_3579_" class="st18" cx="-207.8" cy="469.2" r="0.6"/>
											<line id="XMLID_3578_" class="st19" x1="-210.8" y1="470.8" x2="-207.8" y2="469.4"/>
											<line id="XMLID_3577_" class="st19" x1="-210.9" y1="470.5" x2="-208" y2="469"/>
										</g>
										<g id="XMLID_3487_">
											<circle id="XMLID_3575_" class="st6" cx="-209.2" cy="428.7" r="4.9"/>
											<circle id="XMLID_3574_" class="st14" cx="-209.1" cy="428.5" r="4.7"/>
											<polygon id="XMLID_3573_" class="st15" points="-203,428.3 -209.1,427.2 -215.8,428.3 -209,429.5 											"/>
											<circle id="XMLID_3572_" class="st16" cx="-209.2" cy="427.9" r="4.7"/>
											<circle id="XMLID_3571_" class="st17" cx="-209.2" cy="427.9" r="4.1"/>
											<circle id="XMLID_3561_" class="st18" cx="-210" cy="426.8" r="0.6"/>
											<circle id="XMLID_3547_" class="st18" cx="-208.6" cy="429.7" r="0.6"/>
											<line id="XMLID_3546_" class="st19" x1="-210.2" y1="426.8" x2="-208.8" y2="429.7"/>
											<line id="XMLID_3544_" class="st19" x1="-209.9" y1="426.6" x2="-208.4" y2="429.6"/>
											<line id="XMLID_3539_" class="st19" x1="-210.2" y1="426.8" x2="-208.8" y2="429.7"/>
											<line id="XMLID_3521_" class="st19" x1="-209.9" y1="426.6" x2="-208.4" y2="429.6"/>
											<circle id="XMLID_3491_" class="st18" cx="-210.8" cy="429" r="0.6"/>
											<circle id="XMLID_3490_" class="st18" cx="-207.8" cy="427.5" r="0.6"/>
											<line id="XMLID_3489_" class="st19" x1="-210.8" y1="429.2" x2="-207.8" y2="427.8"/>
											<line id="XMLID_3488_" class="st19" x1="-210.9" y1="428.8" x2="-208" y2="427.4"/>
										</g>
										<g id="XMLID_3471_">
											<circle id="XMLID_3486_" class="st6" cx="-209.2" cy="512" r="4.9"/>
											<circle id="XMLID_3485_" class="st14" cx="-209.1" cy="511.8" r="4.7"/>
											<polygon id="XMLID_3484_" class="st15" points="-203,511.6 -209.1,510.4 -215.8,511.6 -209,512.8 											"/>
											<circle id="XMLID_3483_" class="st16" cx="-209.2" cy="511.1" r="4.7"/>
											<circle id="XMLID_3482_" class="st17" cx="-209.2" cy="511.1" r="4.1"/>
											<circle id="XMLID_3481_" class="st18" cx="-210" cy="510.1" r="0.6"/>
											<circle id="XMLID_3480_" class="st18" cx="-208.6" cy="513" r="0.6"/>
											<line id="XMLID_3479_" class="st19" x1="-210.2" y1="510.1" x2="-208.8" y2="513"/>
											<line id="XMLID_3478_" class="st19" x1="-209.9" y1="509.9" x2="-208.4" y2="512.8"/>
											<line id="XMLID_3477_" class="st19" x1="-210.2" y1="510.1" x2="-208.8" y2="513"/>
											<line id="XMLID_3476_" class="st19" x1="-209.9" y1="509.9" x2="-208.4" y2="512.8"/>
											<circle id="XMLID_3475_" class="st18" cx="-210.8" cy="512.3" r="0.6"/>
											<circle id="XMLID_3474_" class="st18" cx="-207.8" cy="510.8" r="0.6"/>
											<line id="XMLID_3473_" class="st19" x1="-210.8" y1="512.5" x2="-207.8" y2="511.1"/>
											<line id="XMLID_3472_" class="st19" x1="-210.9" y1="512.1" x2="-208" y2="510.7"/>
										</g>
									</g>
								</g>
								<g id="XMLID_3466_">
									<path id="XMLID_3468_" class="st6" d="M-133.8,442.8c-5-33.9-2.8-61.1,0.6-82.4c-0.7,4.2-1,11.6-1.1,12.7
										c-0.6,7.2-1.2,14.6-1,21.7c0.1,15,1.2,32.2,3.9,51.1c2.3,16.2,4,23.4,5.3,26.1c0.2,2.3,0.5,4.5,0.7,6.7
										C-128.5,478.7-130.6,464.6-133.8,442.8z"/>
									<path id="XMLID_3467_" class="st7" d="M-130.7,429.1c1.5,14.6,3.2,29.5,4.7,43.1c-1.2-2.8-3-10-5.3-26.1
										c-2.7-18.9-4-34.3-4-59.7v-0.1c-0.3-9.2,2.2-26.2,2.2-25.5C-134.5,381.2-132.2,417-130.7,429.1z"/>
								</g>
								<path id="XMLID_3465_" class="st4" d="M-110.2,326.2c-3.7-17.6-7.3-16.4-7.3-16.4l0,0c-13.1,8.1-15.8,37.2-16,71.4
									c-0.1,15.9,1.9,37.1,4.1,58.2l21.7,157.2c0,0,6.9,3.4,20.6,2.9c13.7-0.5,20.3-6.2,20.3-6.2S-106.5,343.8-110.2,326.2z"/>
							</g>
							<g id="XMLID_3448_">
								<g id="XMLID_3459_">
									<path id="XMLID_3463_" class="st6" d="M-234.8,384.8c-13.3-27.5-28.4-63.6-28.4-63.6l1.5-4.2l49.8,106.7
										c0,0,0.7,4.1-0.8,1.6C-218.6,415.3-227.5,399.8-234.8,384.8z"/>
									<path id="XMLID_3462_" class="st7" d="M-212.9,424.2c-6.4-11.6-16-29.4-24-46c-13.4-27.7-25.6-58.7-25.6-58.7l1-2.5
										l49.4,105.7C-212.2,422.7-212.7,424.7-212.9,424.2z"/>
									<polygon id="XMLID_3461_" class="st6" points="-250.5,310.8 -260.1,305.9 -258.6,301.3 -248.5,298.6 -241.9,308.2 
										-245.7,310.8 									"/>
									<polygon id="XMLID_3460_" class="st7" points="-250,309.8 -259.6,304.5 -258,299.7 -248,296.7 -241.4,307 -245.2,309.8 
																			"/>
								</g>
								<path id="XMLID_3458_" class="st4" d="M-248.1,309.2l-10.8-6.3c0,0,0.1-0.9,3.2-9.2c3-8.4,4.7-12,4.7-12
									c0.3-0.2,0.6-0.4,0.9-0.5c4.6-2.8,18.2-10.8,18.2-10.8s-0.9,11.8,2.8,35.5c0,0,6.1,39.1,7.9,51.4
									c1.1,7.9,7.2,37.9,11.7,60.8c0.7,3.5-1.6,8.7-2.6,6.8c-22.1-41.3-37.9-78.8-45-96.6c-2.7-6.8-4.2-11-4.2-11L-248.1,309.2z"
									/>
								<g id="XMLID_3455_">
									<polygon id="XMLID_3457_" class="st6" points="-211.9,405.9 -215.8,417.9 -213.5,422 -211.3,409.3 									"/>
									<polygon id="XMLID_3456_" class="st7" points="-211.7,407 -214.6,420.1 -213.2,422.4 -210.4,409.6 									"/>
								</g>
								<g id="XMLID_3450_">
									<path id="XMLID_3454_" class="st6" d="M-187.8,384.8c13.3-27.5,28.4-63.6,28.4-63.6l-1.5-4.2l-55.7,119.2
										C-216.6,436.2-200,410-187.8,384.8z"/>
									<path id="XMLID_3453_" class="st7" d="M-216.6,436.7c0,0,17.6-30.9,31-58.6s25.6-58.7,25.6-58.7l-1-2.5l-55.7,119.2v0.6
										H-216.6z"/>
									<polygon id="XMLID_3452_" class="st6" points="-172.1,310.8 -162.4,305.9 -164,301.3 -174.1,298.6 -180.7,308.2 
										-176.9,310.8 									"/>
									<polygon id="XMLID_3451_" class="st7" points="-172.6,309.8 -162.9,304.5 -164.5,299.7 -174.6,296.7 -181.2,307 
										-177.4,309.8 									"/>
								</g>
								<path id="XMLID_3449_" class="st4" d="M-174.4,309.2l10.8-6.3c0,0-0.1-0.9-3.2-9.2c-3-8.4-4.7-12-4.7-12
									c-0.3-0.2-0.6-0.4-0.9-0.5c-4.6-2.8-18.2-10.8-18.2-10.8s0.9,11.8-2.8,35.5c0,0-6.1,39.1-7.9,51.4
									c-1.5,10.4-11.3,58.5-15.3,79c25.4-45.7,43.5-88.6,51.2-108.1c2.7-6.8,4.2-11,4.2-11L-174.4,309.2z"/>
							</g>
							<g id="XMLID_3212_">
								<g id="XMLID_3433_">
									<path id="XMLID_3447_" class="st15" d="M-71.1,579l-3.4,0.3l-3.3,1c-0.2,0.1-0.1,0.4,0.1,0.4l3.4-0.3l3.3-1
										C-70.8,579.3-70.9,579-71.1,579z"/>
									<circle id="XMLID_3446_" class="st6" cx="-73.3" cy="579.7" r="2.6"/>
									<circle id="XMLID_3445_" class="st14" cx="-73.3" cy="579.6" r="2.5"/>
									<circle id="XMLID_3444_" class="st20" cx="-73.3" cy="579.3" r="2.5"/>
									<circle id="XMLID_3442_" class="st17" cx="-73.3" cy="579.3" r="2.1"/>
									<circle id="XMLID_3441_" class="st18" cx="-73.7" cy="578.7" r="0.3"/>
									<circle id="XMLID_3440_" class="st18" cx="-73" cy="580.3" r="0.3"/>
									<line id="XMLID_3439_" class="st21" x1="-73.8" y1="578.7" x2="-73.1" y2="580.3"/>
									<line id="XMLID_3438_" class="st21" x1="-73.6" y1="578.7" x2="-72.9" y2="580.2"/>
									<circle id="XMLID_3437_" class="st18" cx="-74.1" cy="579.9" r="0.3"/>
									<circle id="XMLID_3436_" class="st18" cx="-72.6" cy="579.1" r="0.3"/>
									<line id="XMLID_3435_" class="st21" x1="-74.1" y1="580" x2="-72.6" y2="579.3"/>
									<line id="XMLID_3434_" class="st21" x1="-74.2" y1="579.8" x2="-72.6" y2="579.1"/>
								</g>
								<g id="XMLID_3389_">
									<path id="XMLID_3432_" class="st15" d="M-72.2,573.4l-3.4,0.3l-3.3,1c-0.2,0.1-0.1,0.4,0.1,0.4l3.4-0.3l3.3-1
										C-71.9,573.7-71.9,573.4-72.2,573.4z"/>
									<circle id="XMLID_3431_" class="st6" cx="-74.4" cy="574.2" r="2.6"/>
									<circle id="XMLID_3430_" class="st14" cx="-74.3" cy="574.1" r="2.5"/>
									<circle id="XMLID_3425_" class="st20" cx="-74.4" cy="573.7" r="2.5"/>
									<circle id="XMLID_3398_" class="st17" cx="-74.4" cy="573.7" r="2.1"/>
									<circle id="XMLID_3397_" class="st18" cx="-74.8" cy="573.2" r="0.3"/>
									<circle id="XMLID_3396_" class="st18" cx="-74" cy="574.7" r="0.3"/>
									<line id="XMLID_3395_" class="st21" x1="-74.9" y1="573.2" x2="-74.2" y2="574.7"/>
									<line id="XMLID_3394_" class="st21" x1="-74.7" y1="573.1" x2="-74" y2="574.6"/>
									<circle id="XMLID_3393_" class="st18" cx="-75.2" cy="574.3" r="0.3"/>
									<circle id="XMLID_3392_" class="st18" cx="-73.7" cy="573.6" r="0.3"/>
									<line id="XMLID_3391_" class="st21" x1="-75.2" y1="574.4" x2="-73.7" y2="573.7"/>
									<line id="XMLID_3390_" class="st21" x1="-75.3" y1="574.2" x2="-73.7" y2="573.5"/>
								</g>
								<g id="XMLID_3364_">
									<path id="XMLID_3388_" class="st15" d="M-70.2,584.5l-3.4,0.3l-3.3,1c-0.2,0.1-0.1,0.4,0.1,0.4l3.4-0.3l3.3-1
										C-69.9,584.8-70,584.5-70.2,584.5z"/>
									<circle id="XMLID_3387_" class="st6" cx="-72.4" cy="585.3" r="2.6"/>
									<circle id="XMLID_3386_" class="st14" cx="-72.4" cy="585.2" r="2.5"/>
									<circle id="XMLID_3385_" class="st20" cx="-72.4" cy="584.9" r="2.5"/>
									<circle id="XMLID_3384_" class="st17" cx="-72.4" cy="584.9" r="2.1"/>
									<circle id="XMLID_3377_" class="st18" cx="-72.9" cy="584.3" r="0.3"/>
									<circle id="XMLID_3376_" class="st18" cx="-72.1" cy="585.8" r="0.3"/>
									<line id="XMLID_3375_" class="st21" x1="-73" y1="584.3" x2="-72.2" y2="585.8"/>
									<line id="XMLID_3373_" class="st21" x1="-72.8" y1="584.2" x2="-72" y2="585.8"/>
									<circle id="XMLID_3368_" class="st18" cx="-73.3" cy="585.4" r="0.3"/>
									<circle id="XMLID_3367_" class="st18" cx="-71.7" cy="584.7" r="0.3"/>
									<line id="XMLID_3366_" class="st21" x1="-73.3" y1="585.6" x2="-71.7" y2="584.8"/>
									<line id="XMLID_3365_" class="st21" x1="-73.3" y1="585.4" x2="-71.8" y2="584.6"/>
								</g>
								<g id="XMLID_3362_">
									<path id="XMLID_3363_" class="st15" d="M-68.9,588.6l-2.4,0.3c-0.7,0.1-1.3,0.2-2,0.4l-2.3,0.6c-0.2,0.1-0.1,0.4,0.1,0.4
										l2.3-0.3c0.7-0.1,1.3-0.2,2-0.4l2.4-0.6C-68.6,588.9-68.7,588.6-68.9,588.6z"/>
								</g>
								<g id="XMLID_3339_">
									<path id="XMLID_3361_" class="st15" d="M-350,579l3.4,0.3l3.3,1c0.2,0.1,0.1,0.4-0.1,0.4l-3.4-0.3l-3.3-1
										C-350.3,579.3-350.2,579-350,579z"/>
									<circle id="XMLID_3360_" class="st6" cx="-347.8" cy="579.7" r="2.6"/>
									<circle id="XMLID_3359_" class="st14" cx="-347.8" cy="579.6" r="2.5"/>
									<circle id="XMLID_3358_" class="st20" cx="-347.8" cy="579.3" r="2.5"/>
									<circle id="XMLID_3357_" class="st17" cx="-347.8" cy="579.3" r="2.1"/>
									<circle id="XMLID_3356_" class="st18" cx="-347.4" cy="578.7" r="0.3"/>
									<circle id="XMLID_3355_" class="st18" cx="-348.1" cy="580.3" r="0.3"/>
									<line id="XMLID_3354_" class="st21" x1="-347.2" y1="578.7" x2="-348" y2="580.3"/>
									<line id="XMLID_3347_" class="st21" x1="-347.4" y1="578.7" x2="-348.2" y2="580.2"/>
									<circle id="XMLID_3346_" class="st18" cx="-347" cy="579.9" r="0.3"/>
									<circle id="XMLID_3345_" class="st18" cx="-348.5" cy="579.1" r="0.3"/>
									<line id="XMLID_3343_" class="st21" x1="-347" y1="580" x2="-348.5" y2="579.3"/>
									<line id="XMLID_3342_" class="st21" x1="-346.9" y1="579.8" x2="-348.4" y2="579.1"/>
								</g>
								<g id="XMLID_3324_">
									<path id="XMLID_3338_" class="st15" d="M-348.9,573.4l3.4,0.3l3.3,1c0.2,0.1,0.1,0.4-0.1,0.4l-3.4-0.3l-3.3-1
										C-349.2,573.7-349.1,573.4-348.9,573.4z"/>
									<circle id="XMLID_3337_" class="st6" cx="-346.7" cy="574.2" r="2.6"/>
									<circle id="XMLID_3336_" class="st14" cx="-346.7" cy="574.1" r="2.5"/>
									<circle id="XMLID_3335_" class="st20" cx="-346.7" cy="573.7" r="2.5"/>
									<circle id="XMLID_3334_" class="st17" cx="-346.7" cy="573.7" r="2.1"/>
									<circle id="XMLID_3333_" class="st18" cx="-346.3" cy="573.2" r="0.3"/>
									<circle id="XMLID_3332_" class="st18" cx="-347" cy="574.7" r="0.3"/>
									<line id="XMLID_3331_" class="st21" x1="-346.1" y1="573.2" x2="-346.9" y2="574.7"/>
									<line id="XMLID_3330_" class="st21" x1="-346.3" y1="573.1" x2="-347.1" y2="574.6"/>
									<circle id="XMLID_3328_" class="st18" cx="-345.9" cy="574.3" r="0.3"/>
									<circle id="XMLID_3327_" class="st18" cx="-347.4" cy="573.6" r="0.3"/>
									<line id="XMLID_3326_" class="st21" x1="-345.9" y1="574.4" x2="-347.4" y2="573.7"/>
									<line id="XMLID_3325_" class="st21" x1="-345.8" y1="574.2" x2="-347.3" y2="573.5"/>
								</g>
								<g id="XMLID_3297_">
									<path id="XMLID_3323_" class="st15" d="M-350.8,584.5l3.4,0.3l3.3,1c0.2,0.1,0.1,0.4-0.1,0.4l-3.4-0.3l-3.3-1
										C-351.1,584.8-351.1,584.5-350.8,584.5z"/>
									<circle id="XMLID_3322_" class="st6" cx="-348.6" cy="585.3" r="2.6"/>
									<circle id="XMLID_3321_" class="st14" cx="-348.7" cy="585.2" r="2.5"/>
									<circle id="XMLID_3320_" class="st20" cx="-348.6" cy="584.9" r="2.5"/>
									<circle id="XMLID_3319_" class="st17" cx="-348.6" cy="584.9" r="2.1"/>
									<circle id="XMLID_3318_" class="st18" cx="-348.2" cy="584.3" r="0.3"/>
									<circle id="XMLID_3317_" class="st18" cx="-349" cy="585.8" r="0.3"/>
									<line id="XMLID_3316_" class="st21" x1="-348.1" y1="584.3" x2="-348.8" y2="585.8"/>
									<line id="XMLID_3310_" class="st21" x1="-348.3" y1="584.2" x2="-349" y2="585.8"/>
									<circle id="XMLID_3309_" class="st18" cx="-347.8" cy="585.4" r="0.3"/>
									<circle id="XMLID_3308_" class="st18" cx="-349.3" cy="584.7" r="0.3"/>
									<line id="XMLID_3307_" class="st21" x1="-347.8" y1="585.6" x2="-349.3" y2="584.8"/>
									<line id="XMLID_3306_" class="st21" x1="-347.7" y1="585.4" x2="-349.3" y2="584.6"/>
								</g>
								<g id="XMLID_3213_">
									<path id="XMLID_3214_" class="st15" d="M-352.2,588.6l2.4,0.3c0.7,0.1,1.3,0.2,2,0.4l2.3,0.6c0.2,0.1,0.1,0.4-0.1,0.4
										l-2.3-0.3c-0.7-0.1-1.3-0.2-2-0.4l-2.4-0.6C-352.4,588.9-352.4,588.6-352.2,588.6z"/>
								</g>
							</g>
						</g>
					</g>
					<g>
						<g>
							<defs>
								<circle id="SVGID_6_" cx="-211" cy="385" r="150"/>
							</defs>
							<clipPath id="SVGID_7_">
								<use xlink:href="#SVGID_6_"  style="overflow:visible;"/>
							</clipPath>
							<g class="st22">
								<path class="st23" d="M-211,240c38.7,0,75.1,15.1,102.5,42.5C-81.1,309.9-66,346.3-66,385s-15.1,75.1-42.5,102.5
									C-135.9,514.9-172.3,530-211,530s-75.1-15.1-102.5-42.5S-356,423.7-356,385s15.1-75.1,42.5-102.5
									C-286.1,255.1-249.7,240-211,240 M-211,235c-82.8,0-150,67.2-150,150s67.2,150,150,150s150-67.2,150-150S-128.2,235-211,235
									L-211,235z"/>
							</g>
						</g>
					</g>
				</g>
			</g>
		</g>
	</g>
</g>
</svg>
