<?xml version="1.0" encoding="utf-8"?>
<!-- Generator: Adobe Illustrator 19.0.0, SVG Export Plug-In . SVG Version: 6.00 Build 0)  -->
<svg version="1.1" id="Layer_1" xmlns="http://www.w3.org/2000/svg" xmlns:xlink="http://www.w3.org/1999/xlink" x="0px" y="0px"
	 viewBox="-489 251 300 300" style="enable-background:new -489 251 300 300;" xml:space="preserve">
<style type="text/css">
	.st0{fill:#DDDDDD;}
	.st1{clip-path:url(#SVGID_3_);}
	.st2{clip-path:url(#SVGID_5_);}
	.st3{fill:#F1F1F2;stroke:#404041;stroke-miterlimit:10;}
	.st4{fill:#FFFFFF;stroke:#404041;stroke-miterlimit:10;}
	.st5{fill:#929497;}
	.st6{fill:#F1F1F2;}
	.st7{fill:#C5C7C9;}
	.st8{fill:none;stroke:#404041;stroke-miterlimit:10;}
	.st9{fill:none;stroke:#808184;stroke-width:0.5;stroke-miterlimit:10;}
	.st10{fill:none;stroke:#808184;stroke-width:0.5;stroke-miterlimit:10;stroke-dasharray:0.9963,1.9927;}
	.st11{fill:none;stroke:#808184;stroke-width:0.5;stroke-miterlimit:10;stroke-dasharray:0.9837,1.9673;}
	.st12{fill:none;stroke:#808184;stroke-width:0.5;stroke-miterlimit:10;stroke-dasharray:0.9866,1.9732;}
	.st13{fill:none;stroke:#808184;stroke-width:0.5;stroke-miterlimit:10;stroke-dasharray:1,2;}
	.st14{fill:none;stroke:#808184;stroke-width:0.5;stroke-miterlimit:10;stroke-dasharray:0.9855,1.9711;}
	.st15{fill:#DBDCDD;}
	.st16{fill:#404041;stroke:#D0D2D3;stroke-width:0.5;stroke-miterlimit:10;}
	.st17{fill:#FFFFFF;stroke:#6D6E70;stroke-miterlimit:10;}
	.st18{fill:#FFFFFF;stroke:#929497;stroke-width:0.25;stroke-miterlimit:10;}
	.st19{fill:#404041;}
	.st20{fill:none;stroke:#6D6E70;stroke-width:0.5;stroke-miterlimit:10;}
	.st21{fill:#FFFFFF;stroke:#6D6E70;stroke-width:0.5;stroke-miterlimit:10;}
	.st22{fill:none;stroke:#6D6E70;stroke-width:0.25;stroke-miterlimit:10;}
	.st23{clip-path:url(#SVGID_9_);}
	.st24{fill:#9AA0BB;}
</style>
<g>
	<g>
		<circle id="SVGID_1_" class="st0" cx="-338.9" cy="400.6" r="150"/>
	</g>
	<g>
		<defs>
			<circle id="SVGID_2_" cx="-338.9" cy="400.6" r="150"/>
		</defs>
		<clipPath id="SVGID_3_">
			<use xlink:href="#SVGID_2_"  style="overflow:visible;"/>
		</clipPath>
		<g class="st1">
			<g id="XMLID_4081_">
				<defs>
					<rect id="SVGID_4_" x="-489" y="250.6" width="300" height="300"/>
				</defs>
				<clipPath id="SVGID_5_">
					<use xlink:href="#SVGID_4_"  style="overflow:visible;"/>
				</clipPath>
				<g id="XMLID_6001_" class="st2">
					<g id="XMLID_6187_">
						<g id="XMLID_6292_">
							<polygon id="XMLID_6315_" class="st3" points="-318.9,186.4 -310.7,195.6 -341.2,331.2 -367.4,195.6 -359.6,186.4 							"/>
							<path id="XMLID_6314_" class="st4" d="M-318.5,182c0,0,0.1-0.5-20.5-0.5c-0.1,0-0.1,0-0.2,0c-0.1,0-0.1,0-0.2,0
								c-20.6,0-20.5,0.5-20.5,0.5l-2.5,9c0,0,3.4,0.8,11.5,1.2c3.2,0.1,7.2,0.2,11.9,0.2c4.7,0,8.3-0.1,11.5-0.2
								c8.1-0.3,11.5-1.2,11.5-1.2L-318.5,182z"/>
							<g id="XMLID_6310_">
								<path id="XMLID_6313_" class="st5" d="M-356.3,181.7c0,0-2.1,2.4-2,5.4c0.2,3,0.3,4.1,0.3,4.1h-2.3l0.2-9.2L-356.3,181.7z"
									/>
								<path id="XMLID_6312_" class="st6" d="M-355.4,181.7c-0.6,0-1,0-1.5,0.1c-1.2,2-1.2,7.7-1.2,9.7c0.7,0.1,1.4,0.1,2.2,0.2
									c-0.1-0.6-0.3-1.9-0.3-4.2C-356.2,184.7-355.7,182.6-355.4,181.7z"/>
								<path id="XMLID_6311_" class="st7" d="M-356.7,181.8c-0.3,0-0.6,0-0.8,0c-0.5,0.4-1,1.1-1.1,2.4c-0.2,2.5-0.4,5.8-0.4,7.2
									c0.6,0.1,1.4,0.1,2.2,0.2C-357.2,189.4-357.9,183.7-356.7,181.8z"/>
							</g>
							<g id="XMLID_6306_">
								<path id="XMLID_6309_" class="st5" d="M-322.4,181.7c0,0,2.1,2.4,2,5.4c-0.2,3-0.3,4.1-0.3,4.1h2.3l-0.2-9.2L-322.4,181.7z"
									/>
								<path id="XMLID_6308_" class="st6" d="M-323.3,181.7c0.6,0,1,0,1.5,0.1c1.2,2,1.2,7.7,1.2,9.7c-0.7,0.1-1.4,0.1-2.2,0.2
									c0.1-0.6,0.3-1.9,0.3-4.2C-322.6,184.7-323.1,182.6-323.3,181.7z"/>
								<path id="XMLID_6307_" class="st7" d="M-322,181.8c0.3,0,0.6,0,0.8,0c0.5,0.4,1,1.1,1.1,2.4c0.2,2.5,0.4,5.8,0.4,7.2
									c-0.6,0.1-1.4,0.1-2.2,0.2C-321.5,189.4-320.8,183.7-322,181.8z"/>
							</g>
							<path id="XMLID_6305_" class="st8" d="M-318.5,182c0,0,0.1-0.5-20.5-0.5c-0.1,0-0.1,0-0.2,0c-0.1,0-0.1,0-0.2,0
								c-20.6,0-20.5,0.5-20.5,0.5l-2.5,9c0,0,3.4,0.8,11.5,1.2c3.2,0.1,7.2,0.2,11.9,0.2c4.7,0,8.3-0.1,11.5-0.2
								c8.1-0.3,11.5-1.2,11.5-1.2L-318.5,182z"/>
							<g id="XMLID_6302_">
								<polygon id="XMLID_6304_" class="st5" points="-358.5,209.9 -339.1,302.2 -320,209.9 -332.5,318.2 -339.7,325.8 
									-345.5,317.2 								"/>
								<polygon id="XMLID_6303_" class="st7" points="-339.3,314.2 -319.5,205.9 -339.1,301.8 -359,205.9 								"/>
							</g>
							<g id="XMLID_6296_">
								<g>
									<line class="st9" x1="-339.1" y1="193.5" x2="-339.1" y2="194"/>
									<line class="st10" x1="-339.1" y1="196" x2="-339.1" y2="320.6"/>
									<line class="st9" x1="-339.1" y1="321.6" x2="-339.1" y2="322.1"/>
								</g>
							</g>
							<path id="XMLID_6295_" class="st5" d="M-349.7,195.8l0.7,0.8c0,0,5.3-0.4,9.9-0.4c4.5,0,10.2,0.4,10.2,0.4l0.5-0.8H-349.7z"
								/>
							<path id="XMLID_6294_" class="st7" d="M-349.2,196.4l0.5,0.6c0,0,5-0.4,9.5-0.4c4.4,0,10,0.4,10,0.4l0.3-0.6l-10.3-0.2
								L-349.2,196.4z"/>
							<path id="XMLID_6293_" class="st4" d="M-339.1,192.3c-4.7,0-8.6,0-11.8-0.2l1.3,3.6h10.4h0.1h10.4l1.3-3.6
								C-330.4,192.3-334.3,192.3-339.1,192.3z"/>
						</g>
						<path id="XMLID_6291_" class="st3" d="M-328.6,518.1c0-0.6,0-20.8,0-20.8h-20.9v20.8H-328.6z"/>
						<g id="XMLID_6288_">
							<polygon id="XMLID_6290_" class="st5" points="-338.9,505.1 -347,523.2 -339.1,494.2 -330.8,523.5 							"/>
							<polygon id="XMLID_6289_" class="st7" points="-339.1,508.7 -347,523.2 -339.1,502.6 -330.8,523.5 							"/>
						</g>
						<path id="XMLID_6286_" class="st4" d="M-327.9,395.6c-1.9-43.3-4-31.7-4-31.7l-3.7-31.1l-2.9-6.3c-4.5-22.4-10-50-11.1-57.6
							c-1.8-12.3-7.9-51.4-7.9-51.4c-3.7-23.7-2.1-35.5-2.1-35.5s-17.8,10.2-21.4,12.6c-1.9,1.3-18.3,8.5-32.3,14.9
							c-17,7.9-19.3,12-19.3,12c13.1,8.1,15.8,37.2,16,71.4s-9.2,92.5-10.4,122.9c-1.2,31.5-7.7,108.9-7.7,108.9
							s56.2,14.4,71.6,10.1c15.4-4.2,16.6-12.8,19.6-20.8l4.5-15.8C-338.9,498.2-326,438.9-327.9,395.6z"/>
						<g id="XMLID_6280_">
							<g>
								<line class="st9" x1="-383.1" y1="327.5" x2="-383.1" y2="328"/>
								<line class="st11" x1="-383.1" y1="329.9" x2="-383.1" y2="414.5"/>
								<line class="st9" x1="-383.1" y1="415.5" x2="-383.1" y2="416"/>
							</g>
						</g>
						<g id="XMLID_6270_">
							<path id="XMLID_6279_" class="st6" d="M-376.3,419.1l1,14.6c0.5,8.3-3.4,10.9-7.5,10.9h-45.1l0.1-3.8L-376.3,419.1z"/>
							<path id="XMLID_6278_" class="st7" d="M-376.3,418.5l0.5,12c0.5,8.3-2.3,13-7.1,13h-45l0.1-3.8L-376.3,418.5z"/>
							<path id="XMLID_6277_" class="st4" d="M-376.3,422.2V418H-427l-1.2,24.6h44.3c5.9,0,7.6-6.9,7.6-12.8v0V422.2z"/>
							<g id="XMLID_6271_">
								<g>
									<line class="st9" x1="-376.6" y1="420.6" x2="-377.1" y2="420.6"/>
									<line class="st12" x1="-379.1" y1="420.6" x2="-425.5" y2="420.6"/>
									<line class="st9" x1="-426.5" y1="420.6" x2="-427" y2="420.6"/>
								</g>
							</g>
						</g>
						<g id="XMLID_6267_">
							<path id="XMLID_6269_" class="st6" d="M-416.4,354.6c5-33.9,2.8-61.1-0.6-82.4c0.7,4.2,1,11.6,1.1,12.7
								c0.6,7.2,1.2,14.6,1,21.7c-0.1,15-1.2,32.2-3.9,51.1c-2.3,16.2-4,23.4-5.3,26.1c-0.2,2.3-0.5,4.5-0.7,6.7
								C-421.7,390.5-419.6,376.4-416.4,354.6z"/>
							<path id="XMLID_6268_" class="st7" d="M-419.4,340.8c-1.5,14.6-3.2,29.5-4.7,43.1c1.2-2.8,3-10,5.3-26.1
								c2.7-18.9,4-34.3,4-59.7l0-0.1c0.3-9.2-2.2-26.2-2.2-25.5C-415.6,292.9-418,328.7-419.4,340.8z"/>
						</g>
						<path id="XMLID_6266_" class="st4" d="M-416.6,293c-0.2-32.1-2.6-59.7-13.7-69.7l-2.3-1.3c0,0-3.5-1.2-7.3,16.4
							c-3.7,17.6-43.4,267-43.4,267s6.6,5.7,20.3,6.2c13.7,0.5,20.6-2.9,20.6-2.9l21.5-155.6C-418.6,331.4-416.5,309.4-416.6,293z"
							/>
						<g id="XMLID_6263_">
							<path id="XMLID_6265_" class="st6" d="M-338.6,320.9c0,0-15.5,36.9-15.5,89.2s17.3,90.2,17.3,90.2l-1.8-63.5l2.5-111.3
								L-338.6,320.9z"/>
							<path id="XMLID_6264_" class="st7" d="M-336.4,320.9c0,0-15.5,36.9-15.5,89.2s17.3,90.2,17.3,90.2l-1.8-63.5l2.5-111.3
								L-336.4,320.9z"/>
						</g>
						<g id="XMLID_6192_">
							<path id="XMLID_6262_" class="st4" d="M-261.4,293c0.3-34.2,3-63.3,16-71.4c0,0-2.4-4.2-19.3-12c-16-7.4-29.4-13.2-34.7-16.2
								c-0.3-0.2-0.6-0.4-0.9-0.5c-4.6-2.8-18.2-10.8-18.2-10.8s0.9,11.8-2.8,35.5c0,0-6.1,39.1-7.9,51.4
								c-1.8,12.3-15.2,77.3-16.8,87c-0.4,2.5-0.8,4.9-1.2,7.1c-0.7,4.7-1.3,9-1.6,10.5c-0.4,5-0.9,12-1.3,22.1
								c-1.9,43.3,11,102.6,11,102.6l4.7,16c3,8,4.1,16.4,19.4,20.6s69.6-10.1,69.6-10.1s-4.4-77.3-5.7-108.9
								C-252.2,385.5-261.7,327.2-261.4,293z"/>
							<polygon id="XMLID_6261_" class="st6" points="-270.4,296.4 -270.4,294.3 -319.4,295.7 -319.4,297.8 							"/>
							<polygon id="XMLID_6260_" class="st7" points="-270.4,297.2 -270.4,295.1 -319.4,296.6 -319.4,298.6 							"/>
							<polygon id="XMLID_6259_" class="st4" points="-270.5,296.1 -270.5,308.1 -318.8,309.1 -318.8,297.4 							"/>
							<line id="XMLID_6258_" class="st13" x1="-318.8" y1="298" x2="-270.5" y2="296.6"/>
							<g id="XMLID_6252_">
								<g>
									<line class="st9" x1="-294.9" y1="327.5" x2="-294.9" y2="328"/>
									<line class="st11" x1="-294.9" y1="329.9" x2="-294.9" y2="414.5"/>
									<line class="st9" x1="-294.9" y1="415.5" x2="-294.9" y2="416"/>
								</g>
							</g>
							<g id="XMLID_6242_">
								<path id="XMLID_6251_" class="st6" d="M-301.7,419.1l-1,14.6c-0.5,8.3,3.4,10.9,7.5,10.9h45.1l-0.1-3.8L-301.7,419.1z"/>
								<path id="XMLID_6250_" class="st7" d="M-301.7,418.5l-0.5,12c-0.5,8.3,2.3,13,7.1,13h45l-0.1-3.8L-301.7,418.5z"/>
								<path id="XMLID_6249_" class="st4" d="M-301.7,422.2V418h50.7l1.2,24.6h-44.3c-5.9,0-7.6-6.9-7.6-12.8v0V422.2z"/>
								<g id="XMLID_6243_">
									<g>
										<line class="st9" x1="-301.3" y1="420.6" x2="-300.8" y2="420.6"/>
										<line class="st14" x1="-298.8" y1="420.6" x2="-252.5" y2="420.6"/>
										<line class="st9" x1="-251.5" y1="420.6" x2="-251" y2="420.6"/>
									</g>
								</g>
							</g>
							<g id="XMLID_6193_">
								<g id="XMLID_6226_">
									<circle id="XMLID_6241_" class="st6" cx="-337.1" cy="382.1" r="4.9"/>
									<circle id="XMLID_6240_" class="st15" cx="-337" cy="381.9" r="4.7"/>
									<polygon id="XMLID_6239_" class="st16" points="-330.9,381.7 -337,380.5 -343.7,381.7 -336.9,382.9 									"/>
									<circle id="XMLID_6238_" class="st17" cx="-337.1" cy="381.2" r="4.7"/>
									<circle id="XMLID_6237_" class="st18" cx="-337.1" cy="381.2" r="4.1"/>
									<circle id="XMLID_6236_" class="st19" cx="-337.9" cy="380.2" r="0.6"/>
									<circle id="XMLID_6235_" class="st19" cx="-336.5" cy="383.1" r="0.6"/>
									<line id="XMLID_6234_" class="st20" x1="-338.1" y1="380.2" x2="-336.7" y2="383.1"/>
									<line id="XMLID_6233_" class="st20" x1="-337.8" y1="380" x2="-336.3" y2="383"/>
									<line id="XMLID_6232_" class="st20" x1="-338.1" y1="380.2" x2="-336.7" y2="383.1"/>
									<line id="XMLID_6231_" class="st20" x1="-337.8" y1="380" x2="-336.3" y2="383"/>
									<circle id="XMLID_6230_" class="st19" cx="-338.7" cy="382.4" r="0.6"/>
									<circle id="XMLID_6229_" class="st19" cx="-335.7" cy="380.9" r="0.6"/>
									<line id="XMLID_6228_" class="st20" x1="-338.7" y1="382.6" x2="-335.7" y2="381.2"/>
									<line id="XMLID_6227_" class="st20" x1="-338.8" y1="382.2" x2="-335.9" y2="380.8"/>
								</g>
								<g id="XMLID_6210_">
									<circle id="XMLID_6225_" class="st6" cx="-337.1" cy="340.5" r="4.9"/>
									<circle id="XMLID_6224_" class="st15" cx="-337" cy="340.3" r="4.7"/>
									<polygon id="XMLID_6223_" class="st16" points="-330.9,340.1 -337,338.9 -343.7,340.1 -336.9,341.3 									"/>
									<circle id="XMLID_6222_" class="st17" cx="-337.1" cy="339.6" r="4.7"/>
									<circle id="XMLID_6221_" class="st18" cx="-337.1" cy="339.6" r="4.1"/>
									<circle id="XMLID_6220_" class="st19" cx="-337.9" cy="338.5" r="0.6"/>
									<circle id="XMLID_6219_" class="st19" cx="-336.5" cy="341.5" r="0.6"/>
									<line id="XMLID_6218_" class="st20" x1="-338.1" y1="338.5" x2="-336.7" y2="341.5"/>
									<line id="XMLID_6217_" class="st20" x1="-337.8" y1="338.4" x2="-336.3" y2="341.3"/>
									<line id="XMLID_6216_" class="st20" x1="-338.1" y1="338.5" x2="-336.7" y2="341.5"/>
									<line id="XMLID_6215_" class="st20" x1="-337.8" y1="338.4" x2="-336.3" y2="341.3"/>
									<circle id="XMLID_6214_" class="st19" cx="-338.7" cy="340.7" r="0.6"/>
									<circle id="XMLID_6213_" class="st19" cx="-335.7" cy="339.3" r="0.6"/>
									<line id="XMLID_6212_" class="st20" x1="-338.7" y1="341" x2="-335.7" y2="339.5"/>
									<line id="XMLID_6211_" class="st20" x1="-338.8" y1="340.6" x2="-335.9" y2="339.1"/>
								</g>
								<g id="XMLID_6194_">
									<circle id="XMLID_6209_" class="st6" cx="-337.1" cy="423.7" r="4.9"/>
									<circle id="XMLID_6208_" class="st15" cx="-337" cy="423.5" r="4.7"/>
									<polygon id="XMLID_6207_" class="st16" points="-330.9,423.4 -337,422.2 -343.7,423.4 -336.9,424.5 									"/>
									<circle id="XMLID_6206_" class="st17" cx="-337.1" cy="422.9" r="4.7"/>
									<circle id="XMLID_6205_" class="st18" cx="-337.1" cy="422.9" r="4.1"/>
									<circle id="XMLID_6204_" class="st19" cx="-337.9" cy="421.8" r="0.6"/>
									<circle id="XMLID_6203_" class="st19" cx="-336.5" cy="424.8" r="0.6"/>
									<line id="XMLID_6202_" class="st20" x1="-338.1" y1="421.8" x2="-336.7" y2="424.7"/>
									<line id="XMLID_6201_" class="st20" x1="-337.8" y1="421.6" x2="-336.3" y2="424.6"/>
									<line id="XMLID_6200_" class="st20" x1="-338.1" y1="421.8" x2="-336.7" y2="424.7"/>
									<line id="XMLID_6199_" class="st20" x1="-337.8" y1="421.6" x2="-336.3" y2="424.6"/>
									<circle id="XMLID_6198_" class="st19" cx="-338.7" cy="424" r="0.6"/>
									<circle id="XMLID_6197_" class="st19" cx="-335.7" cy="422.6" r="0.6"/>
									<line id="XMLID_6196_" class="st20" x1="-338.7" y1="424.2" x2="-335.7" y2="422.8"/>
									<line id="XMLID_6195_" class="st20" x1="-338.8" y1="423.8" x2="-335.9" y2="422.4"/>
								</g>
							</g>
						</g>
						<g id="XMLID_6189_">
							<path id="XMLID_6191_" class="st6" d="M-261.7,354.6c-5-33.9-2.8-61.1,0.6-82.4c-0.7,4.2-1,11.6-1.1,12.7
								c-0.6,7.2-1.2,14.6-1,21.7c0.1,15,1.2,32.2,3.9,51.1c2.3,16.2,4,23.4,5.3,26.1c0.2,2.3,0.5,4.5,0.7,6.7
								C-256.4,390.5-258.5,376.4-261.7,354.6z"/>
							<path id="XMLID_6190_" class="st7" d="M-258.6,340.8c1.5,14.6,3.2,29.5,4.7,43.1c-1.2-2.8-3-10-5.3-26.1
								c-2.7-18.9-4-34.3-4-59.7l0-0.1c-0.3-9.2,2.2-26.2,2.2-25.5C-262.4,292.9-260.1,328.7-258.6,340.8z"/>
						</g>
						<path id="XMLID_6188_" class="st4" d="M-238.1,238c-3.7-17.6-7.3-16.4-7.3-16.4l0,0c-13.1,8.1-15.8,37.2-16,71.4
							c-0.1,15.9,1.9,37.1,4.1,58.2l21.7,157.2c0,0,6.9,3.4,20.6,2.9c13.7-0.5,20.3-6.2,20.3-6.2S-234.4,255.5-238.1,238z"/>
					</g>
					<g id="XMLID_6091_">
						<g id="XMLID_6182_">
							<path id="XMLID_6186_" class="st6" d="M-362.7,296.6C-375.9,269.1-391,233-391,233l1.5-4.2l49.8,106.7c0,0,0.7,4.1-0.8,1.6
								C-346.5,327-355.4,311.6-362.7,296.6z"/>
							<path id="XMLID_6185_" class="st7" d="M-340.8,335.9c-6.4-11.6-16-29.4-24-46c-13.4-27.7-25.6-58.7-25.6-58.7l1-2.5
								l49.4,105.7C-340.1,334.5-340.6,336.5-340.8,335.9z"/>
							<polygon id="XMLID_6184_" class="st6" points="-378.4,222.6 -388,217.7 -386.5,213.1 -376.4,210.3 -369.8,219.9 
								-373.6,222.6 							"/>
							<polygon id="XMLID_6183_" class="st7" points="-377.9,221.6 -387.5,216.3 -385.9,211.4 -375.9,208.5 -369.3,218.7 
								-373.1,221.6 							"/>
						</g>
						<path id="XMLID_6101_" class="st4" d="M-376,220.9l-10.8-6.3c0,0,0.1-0.9,3.2-9.2c3-8.4,4.7-12,4.7-12
							c0.3-0.2,0.6-0.4,0.9-0.5c4.6-2.8,18.2-10.8,18.2-10.8s-0.9,11.8,2.8,35.5c0,0,6.1,39.1,7.9,51.4c1.1,7.9,7.2,37.9,11.7,60.8
							c0.7,3.5-1.6,8.7-2.6,6.8c-22.1-41.3-37.9-78.8-45-96.6c-2.7-6.8-4.2-11-4.2-11L-376,220.9z"/>
						<g id="XMLID_6098_">
							<polygon id="XMLID_6100_" class="st6" points="-339.8,317.7 -343.7,329.6 -341.4,333.8 -339.2,321 							"/>
							<polygon id="XMLID_6099_" class="st7" points="-339.6,318.7 -342.5,331.8 -341.1,334.1 -338.3,321.3 							"/>
						</g>
						<g id="XMLID_6093_">
							<path id="XMLID_6097_" class="st6" d="M-315.7,296.6c13.3-27.5,28.4-63.6,28.4-63.6l-1.5-4.2l-55.7,119.2
								C-344.5,347.9-327.9,321.7-315.7,296.6z"/>
							<path id="XMLID_6096_" class="st7" d="M-344.5,348.5c0,0,17.6-30.9,31-58.6c13.4-27.7,25.6-58.7,25.6-58.7l-1-2.5
								l-55.7,119.2V348.5z"/>
							<polygon id="XMLID_6095_" class="st6" points="-300,222.6 -290.3,217.7 -291.9,213.1 -302,210.3 -308.6,219.9 -304.8,222.6 
															"/>
							<polygon id="XMLID_6094_" class="st7" points="-300.5,221.6 -290.8,216.3 -292.4,211.4 -302.5,208.5 -309.1,218.7 
								-305.3,221.6 							"/>
						</g>
						<path id="XMLID_6092_" class="st4" d="M-302.3,220.9l10.8-6.3c0,0-0.1-0.9-3.2-9.2c-3-8.4-4.7-12-4.7-12
							c-0.3-0.2-0.6-0.4-0.9-0.5c-4.6-2.8-18.2-10.8-18.2-10.8s0.9,11.8-2.8,35.5c0,0-6.1,39.1-7.9,51.4
							c-1.5,10.4-11.3,58.5-15.3,79c25.4-45.7,43.5-88.6,51.2-108.1c2.7-6.8,4.2-11,4.2-11L-302.3,220.9z"/>
					</g>
					<g id="XMLID_6002_">
						<g id="XMLID_6077_">
							<path id="XMLID_6090_" class="st16" d="M-199,490.7l-3.4,0.3l-3.3,1c-0.2,0.1-0.1,0.4,0.1,0.4l3.4-0.3l3.3-1
								C-198.7,491-198.8,490.7-199,490.7z"/>
							<circle id="XMLID_6089_" class="st6" cx="-201.2" cy="491.5" r="2.6"/>
							<circle id="XMLID_6088_" class="st15" cx="-201.2" cy="491.4" r="2.5"/>
							<circle id="XMLID_6087_" class="st21" cx="-201.2" cy="491.1" r="2.5"/>
							<circle id="XMLID_6086_" class="st18" cx="-201.2" cy="491.1" r="2.1"/>
							<circle id="XMLID_6085_" class="st19" cx="-201.6" cy="490.5" r="0.3"/>
							<circle id="XMLID_6084_" class="st19" cx="-200.9" cy="492" r="0.3"/>
							<line id="XMLID_6083_" class="st22" x1="-201.7" y1="490.5" x2="-201" y2="492"/>
							<line id="XMLID_6082_" class="st22" x1="-201.5" y1="490.4" x2="-200.8" y2="491.9"/>
							<circle id="XMLID_6081_" class="st19" cx="-202" cy="491.6" r="0.3"/>
							<circle id="XMLID_6080_" class="st19" cx="-200.5" cy="490.9" r="0.3"/>
							<line id="XMLID_6079_" class="st22" x1="-202" y1="491.8" x2="-200.5" y2="491"/>
							<line id="XMLID_6078_" class="st22" x1="-202.1" y1="491.6" x2="-200.5" y2="490.8"/>
						</g>
						<g id="XMLID_6063_">
							<path id="XMLID_6076_" class="st16" d="M-200.1,485.2l-3.4,0.3l-3.3,1c-0.2,0.1-0.1,0.4,0.1,0.4l3.4-0.3l3.3-1
								C-199.8,485.5-199.8,485.1-200.1,485.2z"/>
							<circle id="XMLID_6075_" class="st6" cx="-202.3" cy="485.9" r="2.6"/>
							<circle id="XMLID_6074_" class="st15" cx="-202.2" cy="485.8" r="2.5"/>
							<circle id="XMLID_6073_" class="st21" cx="-202.3" cy="485.5" r="2.5"/>
							<circle id="XMLID_6072_" class="st18" cx="-202.3" cy="485.5" r="2.1"/>
							<circle id="XMLID_6071_" class="st19" cx="-202.7" cy="484.9" r="0.3"/>
							<circle id="XMLID_6070_" class="st19" cx="-201.9" cy="486.5" r="0.3"/>
							<line id="XMLID_6069_" class="st22" x1="-202.8" y1="484.9" x2="-202.1" y2="486.5"/>
							<line id="XMLID_6068_" class="st22" x1="-202.6" y1="484.8" x2="-201.9" y2="486.4"/>
							<circle id="XMLID_6067_" class="st19" cx="-203.1" cy="486.1" r="0.3"/>
							<circle id="XMLID_6066_" class="st19" cx="-201.6" cy="485.3" r="0.3"/>
							<line id="XMLID_6065_" class="st22" x1="-203.1" y1="486.2" x2="-201.6" y2="485.4"/>
							<line id="XMLID_6064_" class="st22" x1="-203.2" y1="486" x2="-201.6" y2="485.2"/>
						</g>
						<g id="XMLID_6049_">
							<path id="XMLID_6062_" class="st16" d="M-198.1,496.3l-3.4,0.3l-3.3,1c-0.2,0.1-0.1,0.4,0.1,0.4l3.4-0.3l3.3-1
								C-197.8,496.6-197.9,496.3-198.1,496.3z"/>
							<circle id="XMLID_6061_" class="st6" cx="-200.3" cy="497.1" r="2.6"/>
							<circle id="XMLID_6060_" class="st15" cx="-200.3" cy="497" r="2.5"/>
							<circle id="XMLID_6059_" class="st21" cx="-200.3" cy="496.6" r="2.5"/>
							<circle id="XMLID_6058_" class="st18" cx="-200.3" cy="496.6" r="2.1"/>
							<circle id="XMLID_6057_" class="st19" cx="-200.8" cy="496.1" r="0.3"/>
							<circle id="XMLID_6056_" class="st19" cx="-200" cy="497.6" r="0.3"/>
							<line id="XMLID_6055_" class="st22" x1="-200.9" y1="496.1" x2="-200.1" y2="497.6"/>
							<line id="XMLID_6054_" class="st22" x1="-200.7" y1="496" x2="-199.9" y2="497.5"/>
							<circle id="XMLID_6053_" class="st19" cx="-201.2" cy="497.2" r="0.3"/>
							<circle id="XMLID_6052_" class="st19" cx="-199.6" cy="496.4" r="0.3"/>
							<line id="XMLID_6051_" class="st22" x1="-201.2" y1="497.3" x2="-199.6" y2="496.6"/>
							<line id="XMLID_6050_" class="st22" x1="-201.2" y1="497.1" x2="-199.7" y2="496.4"/>
						</g>
						<g id="XMLID_6047_">
							<path id="XMLID_6048_" class="st16" d="M-196.8,500.4l-2.4,0.3c-0.7,0.1-1.3,0.2-2,0.4l-2.3,0.6c-0.2,0.1-0.1,0.4,0.1,0.4
								l2.3-0.3c0.7-0.1,1.3-0.2,2-0.4l2.4-0.6C-196.5,500.7-196.6,500.4-196.8,500.4z"/>
						</g>
						<g id="XMLID_6033_">
							<path id="XMLID_6046_" class="st16" d="M-477.9,490.7l3.4,0.3l3.3,1c0.2,0.1,0.1,0.4-0.1,0.4l-3.4-0.3l-3.3-1
								C-478.2,491-478.1,490.7-477.9,490.7z"/>
							<circle id="XMLID_6045_" class="st6" cx="-475.7" cy="491.5" r="2.6"/>
							<circle id="XMLID_6044_" class="st15" cx="-475.7" cy="491.4" r="2.5"/>
							<circle id="XMLID_6043_" class="st21" cx="-475.7" cy="491.1" r="2.5"/>
							<circle id="XMLID_6042_" class="st18" cx="-475.7" cy="491.1" r="2.1"/>
							<circle id="XMLID_6041_" class="st19" cx="-475.3" cy="490.5" r="0.3"/>
							<circle id="XMLID_6040_" class="st19" cx="-476" cy="492" r="0.3"/>
							<line id="XMLID_6039_" class="st22" x1="-475.1" y1="490.5" x2="-475.9" y2="492"/>
							<line id="XMLID_6038_" class="st22" x1="-475.3" y1="490.4" x2="-476.1" y2="491.9"/>
							<circle id="XMLID_6037_" class="st19" cx="-474.9" cy="491.6" r="0.3"/>
							<circle id="XMLID_6036_" class="st19" cx="-476.4" cy="490.9" r="0.3"/>
							<line id="XMLID_6035_" class="st22" x1="-474.9" y1="491.8" x2="-476.4" y2="491"/>
							<line id="XMLID_6034_" class="st22" x1="-474.8" y1="491.6" x2="-476.3" y2="490.8"/>
						</g>
						<g id="XMLID_6019_">
							<path id="XMLID_6032_" class="st16" d="M-476.8,485.2l3.4,0.3l3.3,1c0.2,0.1,0.1,0.4-0.1,0.4l-3.4-0.3l-3.3-1
								C-477.1,485.5-477,485.1-476.8,485.2z"/>
							<circle id="XMLID_6031_" class="st6" cx="-474.6" cy="485.9" r="2.6"/>
							<circle id="XMLID_6030_" class="st15" cx="-474.6" cy="485.8" r="2.5"/>
							<circle id="XMLID_6029_" class="st21" cx="-474.6" cy="485.5" r="2.5"/>
							<circle id="XMLID_6028_" class="st18" cx="-474.6" cy="485.5" r="2.1"/>
							<circle id="XMLID_6027_" class="st19" cx="-474.2" cy="484.9" r="0.3"/>
							<circle id="XMLID_6026_" class="st19" cx="-474.9" cy="486.5" r="0.3"/>
							<line id="XMLID_6025_" class="st22" x1="-474" y1="484.9" x2="-474.8" y2="486.5"/>
							<line id="XMLID_6024_" class="st22" x1="-474.2" y1="484.8" x2="-475" y2="486.4"/>
							<circle id="XMLID_6023_" class="st19" cx="-473.8" cy="486.1" r="0.3"/>
							<circle id="XMLID_6022_" class="st19" cx="-475.3" cy="485.3" r="0.3"/>
							<line id="XMLID_6021_" class="st22" x1="-473.8" y1="486.2" x2="-475.3" y2="485.4"/>
							<line id="XMLID_6020_" class="st22" x1="-473.7" y1="486" x2="-475.2" y2="485.2"/>
						</g>
						<g id="XMLID_6005_">
							<path id="XMLID_6018_" class="st16" d="M-478.7,496.3l3.4,0.3l3.3,1c0.2,0.1,0.1,0.4-0.1,0.4l-3.4-0.3l-3.3-1
								C-479,496.6-479,496.3-478.7,496.3z"/>
							<circle id="XMLID_6017_" class="st6" cx="-476.5" cy="497.1" r="2.6"/>
							<circle id="XMLID_6016_" class="st15" cx="-476.6" cy="497" r="2.5"/>
							<circle id="XMLID_6015_" class="st21" cx="-476.5" cy="496.6" r="2.5"/>
							<circle id="XMLID_6014_" class="st18" cx="-476.5" cy="496.6" r="2.1"/>
							<circle id="XMLID_6013_" class="st19" cx="-476.1" cy="496.1" r="0.3"/>
							<circle id="XMLID_6012_" class="st19" cx="-476.9" cy="497.6" r="0.3"/>
							<line id="XMLID_6011_" class="st22" x1="-476" y1="496.1" x2="-476.7" y2="497.6"/>
							<line id="XMLID_6010_" class="st22" x1="-476.2" y1="496" x2="-476.9" y2="497.5"/>
							<circle id="XMLID_6009_" class="st19" cx="-475.7" cy="497.2" r="0.3"/>
							<circle id="XMLID_6008_" class="st19" cx="-477.2" cy="496.4" r="0.3"/>
							<line id="XMLID_6007_" class="st22" x1="-475.7" y1="497.3" x2="-477.2" y2="496.6"/>
							<line id="XMLID_6006_" class="st22" x1="-475.6" y1="497.1" x2="-477.2" y2="496.4"/>
						</g>
						<g id="XMLID_6003_">
							<path id="XMLID_6004_" class="st16" d="M-480.1,500.4l2.4,0.3c0.7,0.1,1.3,0.2,2,0.4l2.3,0.6c0.2,0.1,0.1,0.4-0.1,0.4
								l-2.3-0.3c-0.7-0.1-1.3-0.2-2-0.4l-2.4-0.6C-480.3,500.7-480.3,500.4-480.1,500.4z"/>
						</g>
					</g>
				</g>
			</g>
			<g>
				<defs>
					<circle id="SVGID_6_" cx="-338.9" cy="400.6" r="150"/>
				</defs>
				<clipPath id="SVGID_7_">
					<use xlink:href="#SVGID_6_"  style="overflow:visible;"/>
				</clipPath>
			</g>
			<g>
				<defs>
					<circle id="SVGID_8_" cx="-338.9" cy="400.6" r="150"/>
				</defs>
				<clipPath id="SVGID_9_">
					<use xlink:href="#SVGID_8_"  style="overflow:visible;"/>
				</clipPath>
				<g class="st23">
					<path class="st24" d="M-338.9,255.6c38.7,0,75.1,15.1,102.5,42.5s42.5,63.8,42.5,102.5s-15.1,75.1-42.5,102.5
						s-63.8,42.5-102.5,42.5s-75.1-15.1-102.5-42.5s-42.5-63.8-42.5-102.5s15.1-75.1,42.5-102.5S-377.6,255.6-338.9,255.6
						 M-338.9,250.6c-82.8,0-150,67.2-150,150s67.2,150,150,150s150-67.2,150-150S-256.1,250.6-338.9,250.6L-338.9,250.6z"/>
				</g>
			</g>
		</g>
	</g>
</g>
</svg>
