<?xml version="1.0" encoding="utf-8"?>
<!-- Generator: Adobe Illustrator 19.0.0, SVG Export Plug-In . SVG Version: 6.00 Build 0)  -->
<svg version="1.1" id="Layer_1" xmlns="http://www.w3.org/2000/svg" xmlns:xlink="http://www.w3.org/1999/xlink" x="0px" y="0px"
	 viewBox="-489 251 300 300" style="enable-background:new -489 251 300 300;" xml:space="preserve">
<style type="text/css">
	.st0{fill:#DDDDDD;}
	.st1{clip-path:url(#SVGID_3_);}
	.st2{clip-path:url(#SVGID_5_);}
	.st3{fill:#F1F1F2;stroke:#404041;stroke-miterlimit:10;}
	.st4{fill:#FFFFFF;stroke:#404041;stroke-miterlimit:10;}
	.st5{fill:#929497;}
	.st6{fill:#F1F1F2;}
	.st7{fill:#C5C7C9;}
	.st8{fill:none;stroke:#404041;stroke-miterlimit:10;}
	.st9{fill:none;stroke:#808184;stroke-width:0.5;stroke-miterlimit:10;}
	.st10{fill:none;stroke:#808184;stroke-width:0.5;stroke-miterlimit:10;stroke-dasharray:0.9963,1.9927;}
	.st11{fill:none;stroke:#808184;stroke-width:0.5;stroke-miterlimit:10;stroke-dasharray:1.0138,2.0276;}
	.st12{fill:#FFFFFF;stroke:#808184;stroke-width:0.5;stroke-miterlimit:10;stroke-dasharray:1,2;}
	.st13{fill:none;stroke:#808184;stroke-width:0.5;stroke-miterlimit:10;stroke-dasharray:1,2;}
	.st14{fill:#DBDCDD;}
	.st15{fill:#404041;stroke:#D0D2D3;stroke-width:0.5;stroke-miterlimit:10;}
	.st16{fill:#FFFFFF;stroke:#6D6E70;stroke-miterlimit:10;}
	.st17{fill:#FFFFFF;stroke:#929497;stroke-width:0.25;stroke-miterlimit:10;}
	.st18{fill:#404041;}
	.st19{fill:none;stroke:#6D6E70;stroke-width:0.5;stroke-miterlimit:10;}
	.st20{fill:#FFFFFF;stroke:#6D6E70;stroke-width:0.5;stroke-miterlimit:10;}
	.st21{fill:none;stroke:#6D6E70;stroke-width:0.25;stroke-miterlimit:10;}
	.st22{clip-path:url(#SVGID_9_);}
	.st23{fill:#9AA0BB;}
</style>
<g>
	<g>
		<circle id="SVGID_1_" class="st0" cx="-338.9" cy="400.6" r="150"/>
	</g>
	<g>
		<defs>
			<circle id="SVGID_2_" cx="-338.9" cy="400.6" r="150"/>
		</defs>
		<clipPath id="SVGID_3_">
			<use xlink:href="#SVGID_2_"  style="overflow:visible;"/>
		</clipPath>
		<g class="st1">
			<g id="XMLID_4081_">
				<defs>
					<rect id="SVGID_4_" x="-489" y="250.6" width="300" height="300"/>
				</defs>
				<clipPath id="SVGID_5_">
					<use xlink:href="#SVGID_4_"  style="overflow:visible;"/>
				</clipPath>
				<g id="XMLID_4119_" class="st2">
					<g id="XMLID_4226_">
						<g id="XMLID_4327_">
							<polygon id="XMLID_4554_" class="st3" points="-318.9,187.4 -310.7,196.6 -341.2,332.2 -367.4,196.6 -359.6,187.4 							"/>
							<path id="XMLID_4553_" class="st4" d="M-318.5,183c0,0,0.1-0.5-20.5-0.5c-0.1,0-0.1,0-0.2,0c-0.1,0-0.1,0-0.2,0
								c-20.6,0-20.5,0.5-20.5,0.5l-2.5,9c0,0,3.4,0.8,11.5,1.2c3.2,0.1,7.2,0.2,11.9,0.2c4.7,0,8.3-0.1,11.5-0.2
								c8.1-0.3,11.5-1.2,11.5-1.2L-318.5,183z"/>
							<g id="XMLID_4345_">
								<path id="XMLID_4540_" class="st5" d="M-356.3,182.8c0,0-2.1,2.4-2,5.4c0.2,3,0.3,4.1,0.3,4.1h-2.3l0.2-9.2L-356.3,182.8z"
									/>
								<path id="XMLID_4347_" class="st6" d="M-355.4,182.7c-0.6,0-1,0-1.5,0.1c-1.2,2-1.2,7.7-1.2,9.7c0.7,0.1,1.4,0.1,2.2,0.2
									c-0.1-0.6-0.3-1.9-0.3-4.2C-356.2,185.7-355.7,183.6-355.4,182.7z"/>
								<path id="XMLID_4346_" class="st7" d="M-356.7,182.8c-0.3,0-0.6,0-0.8,0c-0.5,0.4-1,1.1-1.1,2.4c-0.2,2.5-0.4,5.8-0.4,7.2
									c0.6,0.1,1.4,0.1,2.2,0.2C-357.2,190.5-357.9,184.7-356.7,182.8z"/>
							</g>
							<g id="XMLID_4341_">
								<path id="XMLID_4344_" class="st5" d="M-322.4,182.8c0,0,2.1,2.4,2,5.4c-0.2,3-0.3,4.1-0.3,4.1h2.3l-0.2-9.2L-322.4,182.8z"
									/>
								<path id="XMLID_4343_" class="st6" d="M-323.3,182.7c0.6,0,1,0,1.5,0.1c1.2,2,1.2,7.7,1.2,9.7c-0.7,0.1-1.4,0.1-2.2,0.2
									c0.1-0.6,0.3-1.9,0.3-4.2C-322.6,185.7-323.1,183.6-323.3,182.7z"/>
								<path id="XMLID_4342_" class="st7" d="M-322,182.8c0.3,0,0.6,0,0.8,0c0.5,0.4,1,1.1,1.1,2.4c0.2,2.5,0.4,5.8,0.4,7.2
									c-0.6,0.1-1.4,0.1-2.2,0.2C-321.5,190.5-320.8,184.7-322,182.8z"/>
							</g>
							<path id="XMLID_4340_" class="st8" d="M-318.5,183c0,0,0.1-0.5-20.5-0.5c-0.1,0-0.1,0-0.2,0c-0.1,0-0.1,0-0.2,0
								c-20.6,0-20.5,0.5-20.5,0.5l-2.5,9c0,0,3.4,0.8,11.5,1.2c3.2,0.1,7.2,0.2,11.9,0.2c4.7,0,8.3-0.1,11.5-0.2
								c8.1-0.3,11.5-1.2,11.5-1.2L-318.5,183z"/>
							<g id="XMLID_4337_">
								<polygon id="XMLID_4339_" class="st5" points="-358.5,211 -339.1,303.3 -320,211 -332.5,319.2 -339.7,326.9 -345.5,318.2 
																	"/>
								<polygon id="XMLID_4338_" class="st7" points="-339.3,315.3 -319.5,206.9 -339.1,302.8 -359,206.9 								"/>
							</g>
							<g id="XMLID_4331_">
								<g>
									<line class="st9" x1="-339.1" y1="194.6" x2="-339.1" y2="195.1"/>
									<line class="st10" x1="-339.1" y1="197.1" x2="-339.1" y2="321.6"/>
									<line class="st9" x1="-339.1" y1="322.6" x2="-339.1" y2="323.1"/>
								</g>
							</g>
							<path id="XMLID_4330_" class="st5" d="M-349.7,196.8l0.7,0.8c0,0,5.3-0.4,9.9-0.4c4.5,0,10.2,0.4,10.2,0.4l0.5-0.8H-349.7z"
								/>
							<path id="XMLID_4329_" class="st7" d="M-349.2,197.4l0.5,0.6c0,0,5-0.4,9.5-0.4c4.4,0,10,0.4,10,0.4l0.3-0.6l-10.3-0.2
								L-349.2,197.4z"/>
							<path id="XMLID_4328_" class="st4" d="M-339.1,193.4c-4.7,0-8.6,0-11.8-0.2l1.3,3.6h10.4h0.1h10.4l1.3-3.6
								C-330.4,193.3-334.3,193.4-339.1,193.4z"/>
						</g>
						<path id="XMLID_4326_" class="st3" d="M-328.6,519.2c0-0.6,0-20.8,0-20.8h-20.9v20.8H-328.6z"/>
						<g id="XMLID_4323_">
							<polygon id="XMLID_4325_" class="st5" points="-338.9,506.1 -347,524.2 -339.1,495.3 -330.8,524.5 							"/>
							<polygon id="XMLID_4324_" class="st7" points="-339.1,509.7 -347,524.2 -339.1,503.6 -330.8,524.5 							"/>
						</g>
						<path id="XMLID_4320_" class="st4" d="M-327.9,396.7c-1.9-43.3-4-31.7-4-31.7l-3.7-31.1l-2.9-6.3c-4.5-22.4-10-50-11.1-57.6
							c-1.8-12.3-7.9-51.4-7.9-51.4c-3.7-23.7-2.1-35.5-2.1-35.5s-17.8,10.2-21.4,12.6c-1.9,1.3-18.3,8.5-32.3,14.9
							c-17,7.9-19.3,12-19.3,12c13.1,8.1,15.8,37.2,16,71.4s-9.2,92.5-10.4,122.9c-1.2,31.5-7.7,108.9-7.7,108.9
							s56.2,14.4,71.6,10.1c15.4-4.2,16.6-12.8,19.6-20.8l4.5-15.8C-338.9,499.3-326,440-327.9,396.7z"/>
						<g id="XMLID_4307_">
							<g id="XMLID_4314_">
								<g>
									<line class="st9" x1="-385.5" y1="340.9" x2="-385.5" y2="341.4"/>
									<line class="st11" x1="-385.5" y1="343.4" x2="-385.5" y2="415.4"/>
									<line class="st9" x1="-385.5" y1="416.4" x2="-385.5" y2="416.9"/>
								</g>
							</g>
							<path id="XMLID_4313_" class="st6" d="M-377.4,419.3c0,0-9.3-0.6-24.5-0.6s-25,0.6-25,0.6l1-0.8c0,0,20.6-1.3,25.1-1.4
								s22.8,1,22.8,1L-377.4,419.3z"/>
							<path id="XMLID_4312_" class="st7" d="M-377.4,418.9c0,0-9.3-0.6-24.5-0.6s-25,0.6-25,0.6l1-0.8c0,0,20.6-1.3,25.1-1.4
								c4.5-0.1,22.8,1,22.8,1L-377.4,418.9z"/>
							<path id="XMLID_4311_" class="st6" d="M-426.8,418.7c0,0,9.3,0.6,24.5,0.6s25-0.6,25-0.6l-1,0.8c0,0-20.6,1.3-25.1,1.4
								c-4.5,0.1-22.8-1-22.8-1L-426.8,418.7z"/>
							<path id="XMLID_4310_" class="st7" d="M-426.8,419.2c0,0,9.3,0.6,24.5,0.6s25-0.6,25-0.6l-1,0.8c0,0-20.6,1.3-25.1,1.4
								s-22.8-1.5-22.8-1.5L-426.8,419.2z"/>
							<path id="XMLID_4309_" class="st4" d="M-377.1,418.8v-0.9c0-0.4-0.4-0.7-0.9-0.7l-17.8-0.7c-4.1-0.2-8.2-0.2-12.3,0
								l-17.9,0.7c-0.5,0-0.9,0.3-0.9,0.7v0.9c0,0,14.5-0.6,24.9-0.6C-392.4,418.2-377.1,418.8-377.1,418.8z"/>
							<path id="XMLID_4308_" class="st12" d="M-426.8,419.1v1.1c0,0.4,0.4,0.7,0.9,0.7l17.8,1c4.1,0.2,8.2,0.2,12.3,0l18-1
								c0.5,0,0.9-0.3,0.9-0.7v-1.1c0,0-2.3,1.5-24.9,1.5S-426.8,419.1-426.8,419.1z"/>
						</g>
						<g id="XMLID_4304_">
							<path id="XMLID_4306_" class="st6" d="M-416.4,355.6c5-33.9,2.8-61.1-0.6-82.4c0.7,4.2,1,11.6,1.1,12.7
								c0.6,7.2,1.2,14.6,1,21.7c-0.1,15-1.2,32.2-3.9,51.1c-2.3,16.2-4,23.4-5.3,26.1c-0.2,2.3-0.5,4.5-0.7,6.7
								C-421.7,391.5-419.6,377.4-416.4,355.6z"/>
							<path id="XMLID_4305_" class="st7" d="M-419.4,341.9c-1.5,14.6-3.2,29.5-4.7,43.1c1.2-2.8,3-10,5.3-26.1
								c2.7-18.9,4-34.3,4-59.7l0-0.1c0.3-9.2-2.2-26.2-2.2-25.5C-415.6,294-418,329.8-419.4,341.9z"/>
						</g>
						<path id="XMLID_4303_" class="st4" d="M-416.6,294c-0.2-32.1-2.6-59.7-13.7-69.7l-2.3-1.3c0,0-3.5-1.2-7.3,16.4
							c-3.7,17.6-43.4,267-43.4,267s6.6,5.7,20.3,6.2s20.6-2.9,20.6-2.9l21.5-155.6C-418.6,332.4-416.5,310.5-416.6,294z"/>
						<g id="XMLID_4300_">
							<path id="XMLID_4302_" class="st6" d="M-338.6,322c0,0-15.5,36.9-15.5,89.2s17.3,90.2,17.3,90.2l-1.8-63.5l2.5-111.3
								L-338.6,322z"/>
							<path id="XMLID_4301_" class="st7" d="M-336.4,322c0,0-15.5,36.9-15.5,89.2s17.3,90.2,17.3,90.2l-1.8-63.5l2.5-111.3
								L-336.4,322z"/>
						</g>
						<g id="XMLID_4231_">
							<path id="XMLID_4299_" class="st4" d="M-261.4,294c0.3-34.2,3-63.3,16-71.4c0,0-2.4-4.2-19.3-12c-16-7.4-29.4-13.2-34.7-16.2
								c-0.3-0.2-0.6-0.4-0.9-0.5c-4.6-2.8-18.2-10.8-18.2-10.8s0.9,11.8-2.8,35.5c0,0-6.1,39.1-7.9,51.4
								c-1.8,12.3-15.2,77.3-16.8,87c-0.4,2.5-0.8,4.9-1.2,7.1c-0.7,4.7-1.3,9-1.6,10.5c-0.4,5-0.9,12-1.3,22.1
								c-1.9,43.3,11,102.6,11,102.6l4.7,16c3,8,4.1,16.4,19.4,20.6c15.4,4.2,69.6-10.1,69.6-10.1s-4.4-77.3-5.7-108.9
								C-252.2,386.5-261.7,328.2-261.4,294z"/>
							<g id="XMLID_4286_">
								<g id="XMLID_4293_">
									<g>
										<line class="st9" x1="-292.2" y1="340.9" x2="-292.2" y2="341.4"/>
										<line class="st11" x1="-292.2" y1="343.4" x2="-292.2" y2="415.4"/>
										<line class="st9" x1="-292.2" y1="416.4" x2="-292.2" y2="416.9"/>
									</g>
								</g>
								<path id="XMLID_4292_" class="st6" d="M-300.3,419.3c0,0,9.3-0.6,24.5-0.6s25,0.6,25,0.6l-1-0.8c0,0-20.6-1.3-25.1-1.4
									c-4.5-0.1-22.8,1-22.8,1L-300.3,419.3z"/>
								<path id="XMLID_4291_" class="st7" d="M-300.3,418.9c0,0,9.3-0.6,24.5-0.6s25,0.6,25,0.6l-1-0.8c0,0-20.6-1.3-25.1-1.4
									c-4.5-0.1-22.8,1-22.8,1L-300.3,418.9z"/>
								<path id="XMLID_4290_" class="st6" d="M-250.9,418.7c0,0-9.3,0.6-24.5,0.6c-15.1,0-25-0.6-25-0.6l1,0.8
									c0,0,20.6,1.3,25.1,1.4c4.5,0.1,22.8-1,22.8-1L-250.9,418.7z"/>
								<path id="XMLID_4289_" class="st7" d="M-250.9,419.2c0,0-9.3,0.6-24.5,0.6c-15.1,0-25-0.6-25-0.6l1,0.8
									c0,0,20.6,1.3,25.1,1.4c4.5,0.1,22.8-1.5,22.8-1.5L-250.9,419.2z"/>
								<path id="XMLID_4288_" class="st4" d="M-300.6,418.8v-0.9c0-0.4,0.4-0.7,0.9-0.7l17.8-0.7c4.1-0.2,8.2-0.2,12.3,0l17.9,0.7
									c0.5,0,0.9,0.3,0.9,0.7v0.9c0,0-14.5-0.6-24.9-0.6C-285.4,418.2-300.6,418.8-300.6,418.8z"/>
								<path id="XMLID_4287_" class="st12" d="M-250.9,419.1v1.1c0,0.4-0.4,0.7-0.9,0.7l-17.8,1c-4.1,0.2-8.2,0.2-12.3,0l-18-1
									c-0.5,0-0.9-0.3-0.9-0.7v-1.1c0,0,2.3,1.5,24.9,1.5S-250.9,419.1-250.9,419.1z"/>
							</g>
							<polygon id="XMLID_4285_" class="st6" points="-270.4,297.4 -270.4,295.3 -319.4,296.8 -319.4,298.8 							"/>
							<polygon id="XMLID_4284_" class="st7" points="-270.4,298.3 -270.4,296.2 -319.4,297.6 -319.4,299.7 							"/>
							<polygon id="XMLID_4283_" class="st4" points="-270.5,297.1 -270.5,309.1 -318.8,310.1 -318.8,298.5 							"/>
							<line id="XMLID_4282_" class="st13" x1="-318.8" y1="299" x2="-270.5" y2="297.6"/>
							<g id="XMLID_4232_">
								<g id="XMLID_4266_">
									<circle id="XMLID_4281_" class="st6" cx="-337.1" cy="383.1" r="4.9"/>
									<circle id="XMLID_4280_" class="st14" cx="-337" cy="382.9" r="4.7"/>
									<polygon id="XMLID_4279_" class="st15" points="-330.9,382.7 -337,381.6 -343.7,382.7 -336.9,383.9 									"/>
									<circle id="XMLID_4278_" class="st16" cx="-337.1" cy="382.3" r="4.7"/>
									<circle id="XMLID_4277_" class="st17" cx="-337.1" cy="382.3" r="4.1"/>
									<circle id="XMLID_4276_" class="st18" cx="-337.9" cy="381.2" r="0.6"/>
									<circle id="XMLID_4275_" class="st18" cx="-336.5" cy="384.2" r="0.6"/>
									<line id="XMLID_4274_" class="st19" x1="-338.1" y1="381.2" x2="-336.7" y2="384.1"/>
									<line id="XMLID_4273_" class="st19" x1="-337.8" y1="381" x2="-336.3" y2="384"/>
									<line id="XMLID_4272_" class="st19" x1="-338.1" y1="381.2" x2="-336.7" y2="384.1"/>
									<line id="XMLID_4271_" class="st19" x1="-337.8" y1="381" x2="-336.3" y2="384"/>
									<circle id="XMLID_4270_" class="st18" cx="-338.7" cy="383.4" r="0.6"/>
									<circle id="XMLID_4269_" class="st18" cx="-335.7" cy="382" r="0.6"/>
									<line id="XMLID_4268_" class="st19" x1="-338.7" y1="383.6" x2="-335.7" y2="382.2"/>
									<line id="XMLID_4267_" class="st19" x1="-338.8" y1="383.2" x2="-335.9" y2="381.8"/>
								</g>
								<g id="XMLID_4250_">
									<circle id="XMLID_4265_" class="st6" cx="-337.1" cy="341.5" r="4.9"/>
									<circle id="XMLID_4264_" class="st14" cx="-337" cy="341.3" r="4.7"/>
									<polygon id="XMLID_4263_" class="st15" points="-330.9,341.1 -337,339.9 -343.7,341.1 -336.9,342.3 									"/>
									<circle id="XMLID_4262_" class="st16" cx="-337.1" cy="340.6" r="4.7"/>
									<circle id="XMLID_4261_" class="st17" cx="-337.1" cy="340.6" r="4.1"/>
									<circle id="XMLID_4260_" class="st18" cx="-337.9" cy="339.6" r="0.6"/>
									<circle id="XMLID_4259_" class="st18" cx="-336.5" cy="342.5" r="0.6"/>
									<line id="XMLID_4258_" class="st19" x1="-338.1" y1="339.6" x2="-336.7" y2="342.5"/>
									<line id="XMLID_4257_" class="st19" x1="-337.8" y1="339.4" x2="-336.3" y2="342.3"/>
									<line id="XMLID_4256_" class="st19" x1="-338.1" y1="339.6" x2="-336.7" y2="342.5"/>
									<line id="XMLID_4255_" class="st19" x1="-337.8" y1="339.4" x2="-336.3" y2="342.3"/>
									<circle id="XMLID_4254_" class="st18" cx="-338.7" cy="341.8" r="0.6"/>
									<circle id="XMLID_4253_" class="st18" cx="-335.7" cy="340.3" r="0.6"/>
									<line id="XMLID_4252_" class="st19" x1="-338.7" y1="342" x2="-335.7" y2="340.6"/>
									<line id="XMLID_4251_" class="st19" x1="-338.8" y1="341.6" x2="-335.9" y2="340.2"/>
								</g>
								<g id="XMLID_4233_">
									<circle id="XMLID_4248_" class="st6" cx="-337.1" cy="424.8" r="4.9"/>
									<circle id="XMLID_4247_" class="st14" cx="-337" cy="424.6" r="4.7"/>
									<polygon id="XMLID_4246_" class="st15" points="-330.9,424.4 -337,423.2 -343.7,424.4 -336.9,425.6 									"/>
									<circle id="XMLID_4245_" class="st16" cx="-337.1" cy="423.9" r="4.7"/>
									<circle id="XMLID_4244_" class="st17" cx="-337.1" cy="423.9" r="4.1"/>
									<circle id="XMLID_4243_" class="st18" cx="-337.9" cy="422.8" r="0.6"/>
									<circle id="XMLID_4242_" class="st18" cx="-336.5" cy="425.8" r="0.6"/>
									<line id="XMLID_4241_" class="st19" x1="-338.1" y1="422.8" x2="-336.7" y2="425.8"/>
									<line id="XMLID_4240_" class="st19" x1="-337.8" y1="422.7" x2="-336.3" y2="425.6"/>
									<line id="XMLID_4239_" class="st19" x1="-338.1" y1="422.8" x2="-336.7" y2="425.8"/>
									<line id="XMLID_4238_" class="st19" x1="-337.8" y1="422.7" x2="-336.3" y2="425.6"/>
									<circle id="XMLID_4237_" class="st18" cx="-338.7" cy="425" r="0.6"/>
									<circle id="XMLID_4236_" class="st18" cx="-335.7" cy="423.6" r="0.6"/>
									<line id="XMLID_4235_" class="st19" x1="-338.7" y1="425.3" x2="-335.7" y2="423.8"/>
									<line id="XMLID_4234_" class="st19" x1="-338.8" y1="424.9" x2="-335.9" y2="423.4"/>
								</g>
							</g>
						</g>
						<g id="XMLID_4228_">
							<path id="XMLID_4230_" class="st6" d="M-261.7,355.6c-5-33.9-2.8-61.1,0.6-82.4c-0.7,4.2-1,11.6-1.1,12.7
								c-0.6,7.2-1.2,14.6-1,21.7c0.1,15,1.2,32.2,3.9,51.1c2.3,16.2,4,23.4,5.3,26.1c0.2,2.3,0.5,4.5,0.7,6.7
								C-256.4,391.5-258.5,377.4-261.7,355.6z"/>
							<path id="XMLID_4229_" class="st7" d="M-258.6,341.9c1.5,14.6,3.2,29.5,4.7,43.1c-1.2-2.8-3-10-5.3-26.1
								c-2.7-18.9-4-34.3-4-59.7l0-0.1c-0.3-9.2,2.2-26.2,2.2-25.5C-262.4,294-260.1,329.8-258.6,341.9z"/>
						</g>
						<path id="XMLID_4227_" class="st4" d="M-238.1,239c-3.7-17.6-7.3-16.4-7.3-16.4l0,0c-13.1,8.1-15.8,37.2-16,71.4
							c-0.1,15.9,1.9,37.1,4.1,58.2l21.7,157.2c0,0,6.9,3.4,20.6,2.9c13.7-0.5,20.3-6.2,20.3-6.2S-234.4,256.6-238.1,239z"/>
					</g>
					<g id="XMLID_4210_">
						<g id="XMLID_4221_">
							<path id="XMLID_4225_" class="st6" d="M-362.7,297.6C-375.9,270.1-391,234-391,234l1.5-4.2l49.8,106.7c0,0,0.7,4.1-0.8,1.6
								C-346.5,328-355.4,312.6-362.7,297.6z"/>
							<path id="XMLID_4224_" class="st7" d="M-340.8,337c-6.4-11.6-16-29.4-24-46c-13.4-27.7-25.6-58.7-25.6-58.7l1-2.5l49.4,105.7
								C-340.1,335.5-340.6,337.5-340.8,337z"/>
							<polygon id="XMLID_4223_" class="st6" points="-378.4,223.6 -388,218.7 -386.5,214.1 -376.4,211.4 -369.8,221 -373.6,223.6 
															"/>
							<polygon id="XMLID_4222_" class="st7" points="-377.9,222.6 -387.5,217.3 -385.9,212.4 -375.9,209.5 -369.3,219.8 
								-373.1,222.6 							"/>
						</g>
						<path id="XMLID_4220_" class="st4" d="M-376,222l-10.8-6.3c0,0,0.1-0.9,3.2-9.2c3-8.4,4.7-12,4.7-12c0.3-0.2,0.6-0.4,0.9-0.5
							c4.6-2.8,18.2-10.8,18.2-10.8s-0.9,11.8,2.8,35.5c0,0,6.1,39.1,7.9,51.4c1.1,7.9,7.2,37.9,11.7,60.8c0.7,3.5-1.6,8.7-2.6,6.8
							c-22.1-41.3-37.9-78.8-45-96.6c-2.7-6.8-4.2-11-4.2-11L-376,222z"/>
						<g id="XMLID_4217_">
							<polygon id="XMLID_4219_" class="st6" points="-339.8,318.7 -343.7,330.6 -341.4,334.8 -339.2,322 							"/>
							<polygon id="XMLID_4218_" class="st7" points="-339.6,319.7 -342.5,332.8 -341.1,335.1 -338.3,322.3 							"/>
						</g>
						<g id="XMLID_4212_">
							<path id="XMLID_4216_" class="st6" d="M-315.7,297.6c13.3-27.5,28.4-63.6,28.4-63.6l-1.5-4.2L-344.5,349
								C-344.5,349-327.9,322.7-315.7,297.6z"/>
							<path id="XMLID_4215_" class="st7" d="M-344.5,349.5c0,0,17.6-30.9,31-58.6c13.4-27.7,25.6-58.7,25.6-58.7l-1-2.5L-344.5,349
								V349.5z"/>
							<polygon id="XMLID_4214_" class="st6" points="-300,223.6 -290.3,218.7 -291.9,214.1 -302,211.4 -308.6,221 -304.8,223.6 
															"/>
							<polygon id="XMLID_4213_" class="st7" points="-300.5,222.6 -290.8,217.3 -292.4,212.4 -302.5,209.5 -309.1,219.8 
								-305.3,222.6 							"/>
						</g>
						<path id="XMLID_4211_" class="st4" d="M-302.3,222l10.8-6.3c0,0-0.1-0.9-3.2-9.2c-3-8.4-4.7-12-4.7-12
							c-0.3-0.2-0.6-0.4-0.9-0.5c-4.6-2.8-18.2-10.8-18.2-10.8s0.9,11.8-2.8,35.5c0,0-6.1,39.1-7.9,51.4
							c-1.5,10.4-11.3,58.5-15.3,79c25.4-45.7,43.5-88.6,51.2-108.1c2.7-6.8,4.2-11,4.2-11L-302.3,222z"/>
					</g>
					<g id="XMLID_4120_">
						<g id="XMLID_4196_">
							<path id="XMLID_4209_" class="st15" d="M-199,491.8l-3.4,0.3l-3.3,1c-0.2,0.1-0.1,0.4,0.1,0.4l3.4-0.3l3.3-1
								C-198.7,492.1-198.8,491.7-199,491.8z"/>
							<circle id="XMLID_4208_" class="st6" cx="-201.2" cy="492.5" r="2.6"/>
							<circle id="XMLID_4207_" class="st14" cx="-201.2" cy="492.4" r="2.5"/>
							<circle id="XMLID_4206_" class="st20" cx="-201.2" cy="492.1" r="2.5"/>
							<circle id="XMLID_4205_" class="st17" cx="-201.2" cy="492.1" r="2.1"/>
							<circle id="XMLID_4204_" class="st18" cx="-201.6" cy="491.5" r="0.3"/>
							<circle id="XMLID_4203_" class="st18" cx="-200.9" cy="493.1" r="0.3"/>
							<line id="XMLID_4202_" class="st21" x1="-201.7" y1="491.5" x2="-201" y2="493.1"/>
							<line id="XMLID_4201_" class="st21" x1="-201.5" y1="491.4" x2="-200.8" y2="493"/>
							<circle id="XMLID_4200_" class="st18" cx="-202" cy="492.7" r="0.3"/>
							<circle id="XMLID_4199_" class="st18" cx="-200.5" cy="491.9" r="0.3"/>
							<line id="XMLID_4198_" class="st21" x1="-202" y1="492.8" x2="-200.5" y2="492"/>
							<line id="XMLID_4197_" class="st21" x1="-202.1" y1="492.6" x2="-200.5" y2="491.8"/>
						</g>
						<g id="XMLID_4182_">
							<path id="XMLID_4195_" class="st15" d="M-200.1,486.2l-3.4,0.3l-3.3,1c-0.2,0.1-0.1,0.4,0.1,0.4l3.4-0.3l3.3-1
								C-199.8,486.5-199.8,486.2-200.1,486.2z"/>
							<circle id="XMLID_4194_" class="st6" cx="-202.3" cy="487" r="2.6"/>
							<circle id="XMLID_4193_" class="st14" cx="-202.2" cy="486.9" r="2.5"/>
							<circle id="XMLID_4192_" class="st20" cx="-202.3" cy="486.5" r="2.5"/>
							<circle id="XMLID_4191_" class="st17" cx="-202.3" cy="486.5" r="2.1"/>
							<circle id="XMLID_4190_" class="st18" cx="-202.7" cy="486" r="0.3"/>
							<circle id="XMLID_4189_" class="st18" cx="-201.9" cy="487.5" r="0.3"/>
							<line id="XMLID_4188_" class="st21" x1="-202.8" y1="486" x2="-202.1" y2="487.5"/>
							<line id="XMLID_4187_" class="st21" x1="-202.6" y1="485.9" x2="-201.9" y2="487.4"/>
							<circle id="XMLID_4186_" class="st18" cx="-203.1" cy="487.1" r="0.3"/>
							<circle id="XMLID_4185_" class="st18" cx="-201.6" cy="486.4" r="0.3"/>
							<line id="XMLID_4184_" class="st21" x1="-203.1" y1="487.2" x2="-201.6" y2="486.5"/>
							<line id="XMLID_4183_" class="st21" x1="-203.2" y1="487" x2="-201.6" y2="486.3"/>
						</g>
						<g id="XMLID_4167_">
							<path id="XMLID_4181_" class="st15" d="M-198.1,497.3l-3.4,0.3l-3.3,1c-0.2,0.1-0.1,0.4,0.1,0.4l3.4-0.3l3.3-1
								C-197.8,497.6-197.9,497.3-198.1,497.3z"/>
							<circle id="XMLID_4180_" class="st6" cx="-200.3" cy="498.1" r="2.6"/>
							<circle id="XMLID_4179_" class="st14" cx="-200.3" cy="498" r="2.5"/>
							<circle id="XMLID_4178_" class="st20" cx="-200.3" cy="497.6" r="2.5"/>
							<circle id="XMLID_4176_" class="st17" cx="-200.3" cy="497.6" r="2.1"/>
							<circle id="XMLID_4175_" class="st18" cx="-200.8" cy="497.1" r="0.3"/>
							<circle id="XMLID_4174_" class="st18" cx="-200" cy="498.6" r="0.3"/>
							<line id="XMLID_4173_" class="st21" x1="-200.9" y1="497.1" x2="-200.1" y2="498.6"/>
							<line id="XMLID_4172_" class="st21" x1="-200.7" y1="497" x2="-199.9" y2="498.5"/>
							<circle id="XMLID_4171_" class="st18" cx="-201.2" cy="498.2" r="0.3"/>
							<circle id="XMLID_4170_" class="st18" cx="-199.6" cy="497.5" r="0.3"/>
							<line id="XMLID_4169_" class="st21" x1="-201.2" y1="498.3" x2="-199.6" y2="497.6"/>
							<line id="XMLID_4168_" class="st21" x1="-201.2" y1="498.1" x2="-199.7" y2="497.4"/>
						</g>
						<g id="XMLID_4165_">
							<path id="XMLID_4166_" class="st15" d="M-196.8,501.4l-2.4,0.3c-0.7,0.1-1.3,0.2-2,0.4l-2.3,0.6c-0.2,0.1-0.1,0.4,0.1,0.4
								l2.3-0.3c0.7-0.1,1.3-0.2,2-0.4l2.4-0.6C-196.5,501.7-196.6,501.4-196.8,501.4z"/>
						</g>
						<g id="XMLID_4151_">
							<path id="XMLID_4164_" class="st15" d="M-477.9,491.8l3.4,0.3l3.3,1c0.2,0.1,0.1,0.4-0.1,0.4l-3.4-0.3l-3.3-1
								C-478.2,492.1-478.1,491.7-477.9,491.8z"/>
							<circle id="XMLID_4163_" class="st6" cx="-475.7" cy="492.5" r="2.6"/>
							<circle id="XMLID_4162_" class="st14" cx="-475.7" cy="492.4" r="2.5"/>
							<circle id="XMLID_4161_" class="st20" cx="-475.7" cy="492.1" r="2.5"/>
							<circle id="XMLID_4160_" class="st17" cx="-475.7" cy="492.1" r="2.1"/>
							<circle id="XMLID_4159_" class="st18" cx="-475.3" cy="491.5" r="0.3"/>
							<circle id="XMLID_4158_" class="st18" cx="-476" cy="493.1" r="0.3"/>
							<line id="XMLID_4157_" class="st21" x1="-475.1" y1="491.5" x2="-475.9" y2="493.1"/>
							<line id="XMLID_4156_" class="st21" x1="-475.3" y1="491.4" x2="-476.1" y2="493"/>
							<circle id="XMLID_4155_" class="st18" cx="-474.9" cy="492.7" r="0.3"/>
							<circle id="XMLID_4154_" class="st18" cx="-476.4" cy="491.9" r="0.3"/>
							<line id="XMLID_4153_" class="st21" x1="-474.9" y1="492.8" x2="-476.4" y2="492"/>
							<line id="XMLID_4152_" class="st21" x1="-474.8" y1="492.6" x2="-476.3" y2="491.8"/>
						</g>
						<g id="XMLID_4137_">
							<path id="XMLID_4150_" class="st15" d="M-476.8,486.2l3.4,0.3l3.3,1c0.2,0.1,0.1,0.4-0.1,0.4l-3.4-0.3l-3.3-1
								C-477.1,486.5-477,486.2-476.8,486.2z"/>
							<circle id="XMLID_4149_" class="st6" cx="-474.6" cy="487" r="2.6"/>
							<circle id="XMLID_4148_" class="st14" cx="-474.6" cy="486.9" r="2.5"/>
							<circle id="XMLID_4147_" class="st20" cx="-474.6" cy="486.5" r="2.5"/>
							<circle id="XMLID_4146_" class="st17" cx="-474.6" cy="486.5" r="2.1"/>
							<circle id="XMLID_4145_" class="st18" cx="-474.2" cy="486" r="0.3"/>
							<circle id="XMLID_4144_" class="st18" cx="-474.9" cy="487.5" r="0.3"/>
							<line id="XMLID_4143_" class="st21" x1="-474" y1="486" x2="-474.8" y2="487.5"/>
							<line id="XMLID_4142_" class="st21" x1="-474.2" y1="485.9" x2="-475" y2="487.4"/>
							<circle id="XMLID_4141_" class="st18" cx="-473.8" cy="487.1" r="0.3"/>
							<circle id="XMLID_4140_" class="st18" cx="-475.3" cy="486.4" r="0.3"/>
							<line id="XMLID_4139_" class="st21" x1="-473.8" y1="487.2" x2="-475.3" y2="486.5"/>
							<line id="XMLID_4138_" class="st21" x1="-473.7" y1="487" x2="-475.2" y2="486.3"/>
						</g>
						<g id="XMLID_4123_">
							<path id="XMLID_4136_" class="st15" d="M-478.7,497.3l3.4,0.3l3.3,1c0.2,0.1,0.1,0.4-0.1,0.4l-3.4-0.3l-3.3-1
								C-479,497.6-479,497.3-478.7,497.3z"/>
							<circle id="XMLID_4135_" class="st6" cx="-476.5" cy="498.1" r="2.6"/>
							<circle id="XMLID_4134_" class="st14" cx="-476.6" cy="498" r="2.5"/>
							<circle id="XMLID_4133_" class="st20" cx="-476.5" cy="497.6" r="2.5"/>
							<circle id="XMLID_4132_" class="st17" cx="-476.5" cy="497.6" r="2.1"/>
							<circle id="XMLID_4131_" class="st18" cx="-476.1" cy="497.1" r="0.3"/>
							<circle id="XMLID_4130_" class="st18" cx="-476.9" cy="498.6" r="0.3"/>
							<line id="XMLID_4129_" class="st21" x1="-476" y1="497.1" x2="-476.7" y2="498.6"/>
							<line id="XMLID_4128_" class="st21" x1="-476.2" y1="497" x2="-476.9" y2="498.5"/>
							<circle id="XMLID_4127_" class="st18" cx="-475.7" cy="498.2" r="0.3"/>
							<circle id="XMLID_4126_" class="st18" cx="-477.2" cy="497.5" r="0.3"/>
							<line id="XMLID_4125_" class="st21" x1="-475.7" y1="498.3" x2="-477.2" y2="497.6"/>
							<line id="XMLID_4124_" class="st21" x1="-475.6" y1="498.1" x2="-477.2" y2="497.4"/>
						</g>
						<g id="XMLID_4121_">
							<path id="XMLID_4122_" class="st15" d="M-480.1,501.4l2.4,0.3c0.7,0.1,1.3,0.2,2,0.4l2.3,0.6c0.2,0.1,0.1,0.4-0.1,0.4
								l-2.3-0.3c-0.7-0.1-1.3-0.2-2-0.4l-2.4-0.6C-480.3,501.7-480.3,501.4-480.1,501.4z"/>
						</g>
					</g>
				</g>
			</g>
			<g>
				<defs>
					<circle id="SVGID_6_" cx="-338.9" cy="400.6" r="150"/>
				</defs>
				<clipPath id="SVGID_7_">
					<use xlink:href="#SVGID_6_"  style="overflow:visible;"/>
				</clipPath>
			</g>
			<g>
				<defs>
					<circle id="SVGID_8_" cx="-338.9" cy="400.6" r="150"/>
				</defs>
				<clipPath id="SVGID_9_">
					<use xlink:href="#SVGID_8_"  style="overflow:visible;"/>
				</clipPath>
				<g class="st22">
					<path class="st23" d="M-338.9,255.6c38.7,0,75.1,15.1,102.5,42.5s42.5,63.8,42.5,102.5s-15.1,75.1-42.5,102.5
						s-63.8,42.5-102.5,42.5s-75.1-15.1-102.5-42.5s-42.5-63.8-42.5-102.5s15.1-75.1,42.5-102.5S-377.6,255.6-338.9,255.6
						 M-338.9,250.6c-82.8,0-150,67.2-150,150s67.2,150,150,150s150-67.2,150-150S-256.1,250.6-338.9,250.6L-338.9,250.6z"/>
				</g>
			</g>
		</g>
	</g>
</g>
</svg>
