<?xml version="1.0" encoding="utf-8"?>
<!-- Generator: Adobe Illustrator 19.0.0, SVG Export Plug-In . SVG Version: 6.00 Build 0)  -->
<svg version="1.1" id="Layer_1" xmlns="http://www.w3.org/2000/svg" xmlns:xlink="http://www.w3.org/1999/xlink" x="0px" y="0px"
	 viewBox="-489 251 300 300" style="enable-background:new -489 251 300 300;" xml:space="preserve">
<style type="text/css">
	.st0{fill:#DDDDDD;}
	.st1{clip-path:url(#SVGID_3_);}
	.st2{clip-path:url(#SVGID_5_);}
	.st3{fill:#F1F1F2;stroke:#404041;stroke-miterlimit:10;}
	.st4{fill:#FFFFFF;stroke:#404041;stroke-miterlimit:10;}
	.st5{fill:#929497;}
	.st6{fill:#F1F1F2;}
	.st7{fill:#C5C7C9;}
	.st8{fill:none;stroke:#404041;stroke-miterlimit:10;}
	.st9{fill:none;stroke:#808184;stroke-width:0.5;stroke-miterlimit:10;}
	.st10{fill:none;stroke:#808184;stroke-width:0.5;stroke-miterlimit:10;stroke-dasharray:0.9963,1.9927;}
	.st11{fill:none;stroke:#808184;stroke-width:0.5;stroke-miterlimit:10;stroke-dasharray:1,2;}
	.st12{fill:#DBDCDD;}
	.st13{fill:#404041;stroke:#D0D2D3;stroke-width:0.5;stroke-miterlimit:10;}
	.st14{fill:#FFFFFF;stroke:#6D6E70;stroke-miterlimit:10;}
	.st15{fill:#FFFFFF;stroke:#929497;stroke-width:0.25;stroke-miterlimit:10;}
	.st16{fill:#404041;}
	.st17{fill:none;stroke:#6D6E70;stroke-width:0.5;stroke-miterlimit:10;}
	.st18{fill:#FFFFFF;stroke:#808184;stroke-width:0.5;stroke-miterlimit:10;stroke-dasharray:1,2;}
	.st19{fill:none;stroke:#808184;stroke-width:0.5;stroke-miterlimit:10;stroke-dasharray:0.9911,1.9822;}
	.st20{fill:none;stroke:#808184;stroke-width:0.5;stroke-miterlimit:10;stroke-dasharray:1.0146,2.0293;}
	.st21{fill:#FFFFFF;stroke:#6D6E70;stroke-width:0.5;stroke-miterlimit:10;}
	.st22{fill:none;stroke:#6D6E70;stroke-width:0.25;stroke-miterlimit:10;}
	.st23{clip-path:url(#SVGID_9_);}
	.st24{fill:#9AA0BB;}
</style>
<g>
	<g>
		<circle id="SVGID_1_" class="st0" cx="-338.9" cy="400.6" r="150"/>
	</g>
	<g>
		<defs>
			<circle id="SVGID_2_" cx="-338.9" cy="400.6" r="150"/>
		</defs>
		<clipPath id="SVGID_3_">
			<use xlink:href="#SVGID_2_"  style="overflow:visible;"/>
		</clipPath>
		<g class="st1">
			<g id="XMLID_4081_">
				<defs>
					<rect id="SVGID_4_" x="-489" y="250.6" width="300" height="300"/>
				</defs>
				<clipPath id="SVGID_5_">
					<use xlink:href="#SVGID_4_"  style="overflow:visible;"/>
				</clipPath>
				<g id="XMLID_2259_" class="st2">
					<g id="XMLID_2808_">
						<g id="XMLID_3037_">
							<polygon id="XMLID_3187_" class="st3" points="-318.8,185.8 -310.6,195 -341.1,330.6 -367.3,195 -359.5,185.8 							"/>
							<path id="XMLID_3182_" class="st4" d="M-318.4,181.4c0,0,0.1-0.5-20.5-0.5c-0.1,0-0.1,0-0.2,0c-0.1,0-0.1,0-0.2,0
								c-20.6,0-20.5,0.5-20.5,0.5l-2.5,9c0,0,3.4,0.8,11.5,1.2c3.2,0.1,7.2,0.2,11.9,0.2c4.7,0,8.3-0.1,11.5-0.2
								c8.1-0.3,11.5-1.2,11.5-1.2L-318.4,181.4z"/>
							<g id="XMLID_3055_">
								<path id="XMLID_3163_" class="st5" d="M-356.2,181.2c0,0-2.1,2.4-2,5.4c0.2,3,0.3,4.1,0.3,4.1h-2.3l0.2-9.2L-356.2,181.2z"
									/>
								<path id="XMLID_3162_" class="st6" d="M-355.3,181.1c-0.6,0-1,0-1.5,0.1c-1.2,2-1.2,7.7-1.2,9.7c0.7,0.1,1.4,0.1,2.2,0.2
									c-0.1-0.6-0.3-1.9-0.3-4.2C-356.1,184.1-355.6,182-355.3,181.1z"/>
								<path id="XMLID_3161_" class="st7" d="M-356.6,181.2c-0.3,0-0.6,0-0.8,0c-0.5,0.4-1,1.1-1.1,2.4c-0.2,2.5-0.4,5.8-0.4,7.2
									c0.6,0.1,1.4,0.1,2.2,0.2C-357.1,188.9-357.8,183.1-356.6,181.2z"/>
							</g>
							<g id="XMLID_3051_">
								<path id="XMLID_3054_" class="st5" d="M-322.3,181.2c0,0,2.1,2.4,2,5.4c-0.2,3-0.3,4.1-0.3,4.1h2.3l-0.2-9.2L-322.3,181.2z"
									/>
								<path id="XMLID_3053_" class="st6" d="M-323.2,181.1c0.6,0,1,0,1.5,0.1c1.2,2,1.2,7.7,1.2,9.7c-0.7,0.1-1.4,0.1-2.2,0.2
									c0.1-0.6,0.3-1.9,0.3-4.2C-322.5,184.1-323,182-323.2,181.1z"/>
								<path id="XMLID_3052_" class="st7" d="M-321.9,181.2c0.3,0,0.6,0,0.8,0c0.5,0.4,1,1.1,1.1,2.4c0.2,2.5,0.4,5.8,0.4,7.2
									c-0.6,0.1-1.4,0.1-2.2,0.2C-321.4,188.9-320.7,183.1-321.9,181.2z"/>
							</g>
							<path id="XMLID_3050_" class="st8" d="M-318.4,181.4c0,0,0.1-0.5-20.5-0.5c-0.1,0-0.1,0-0.2,0c-0.1,0-0.1,0-0.2,0
								c-20.6,0-20.5,0.5-20.5,0.5l-2.5,9c0,0,3.4,0.8,11.5,1.2c3.2,0.1,7.2,0.2,11.9,0.2c4.7,0,8.3-0.1,11.5-0.2
								c8.1-0.3,11.5-1.2,11.5-1.2L-318.4,181.4z"/>
							<g id="XMLID_3047_">
								<polygon id="XMLID_3049_" class="st5" points="-358.4,209.4 -339,301.6 -319.9,209.4 -332.4,317.6 -339.6,325.2 
									-345.4,316.6 								"/>
								<polygon id="XMLID_3048_" class="st7" points="-339.2,313.6 -319.4,205.3 -339,301.2 -358.9,205.3 								"/>
							</g>
							<g id="XMLID_3041_">
								<g>
									<line class="st9" x1="-339" y1="193" x2="-339" y2="193.5"/>
									<line class="st10" x1="-339" y1="195.5" x2="-339" y2="320"/>
									<line class="st9" x1="-339" y1="321" x2="-339" y2="321.5"/>
								</g>
							</g>
							<path id="XMLID_3040_" class="st5" d="M-349.6,195.2l0.7,0.8c0,0,5.3-0.4,9.9-0.4c4.5,0,10.2,0.4,10.2,0.4l0.5-0.8H-349.6z"
								/>
							<path id="XMLID_3039_" class="st7" d="M-349.1,195.8l0.5,0.6c0,0,5-0.4,9.5-0.4c4.4,0,10,0.4,10,0.4l0.3-0.6l-10.3-0.2
								L-349.1,195.8z"/>
							<path id="XMLID_3038_" class="st4" d="M-339,191.8c-4.7,0-8.6,0-11.8-0.2l1.3,3.6h10.4h0.1h10.4l1.3-3.6
								C-330.3,191.7-334.2,191.8-339,191.8z"/>
						</g>
						<path id="XMLID_3036_" class="st3" d="M-328.5,517.6c0-0.6,0-20.8,0-20.8h-20.9v20.8H-328.5z"/>
						<g id="XMLID_3033_">
							<polygon id="XMLID_3035_" class="st5" points="-338.8,504.5 -346.9,522.6 -339,493.7 -330.7,522.9 							"/>
							<polygon id="XMLID_3034_" class="st7" points="-339,508.1 -346.9,522.6 -339,502 -330.7,522.9 							"/>
						</g>
						<path id="XMLID_3031_" class="st4" d="M-327.8,395c-1.9-43.3-4-31.7-4-31.7l-3.7-31.1l-2.9-6.3c-4.5-22.4-10-50-11.1-57.6
							c-1.8-12.3-7.9-51.4-7.9-51.4c-3.7-23.7-2.1-35.5-2.1-35.5s-17.8,10.2-21.4,12.6c-1.9,1.3-18.3,8.5-32.3,14.9
							c-17,7.9-19.3,12-19.3,12c13.1,8.1,15.8,37.2,16,71.4s-9.2,92.5-10.4,122.9c-1.2,31.5-7.7,108.9-7.7,108.9
							s56.2,14.4,71.6,10.1c15.4-4.2,16.6-12.8,19.6-20.8l4.5-15.8C-338.8,497.7-325.9,438.4-327.8,395z"/>
						<g id="XMLID_3028_">
							<path id="XMLID_3030_" class="st6" d="M-416.3,354c5-33.9,2.8-61.1-0.6-82.4c0.7,4.2,1,11.6,1.1,12.7
								c0.6,7.2,1.2,14.6,1,21.7c-0.1,15-1.2,32.2-3.9,51.1c-2.3,16.2-4,23.4-5.3,26.1c-0.2,2.3-0.5,4.5-0.7,6.7
								C-421.6,389.9-419.5,375.8-416.3,354z"/>
							<path id="XMLID_3029_" class="st7" d="M-419.3,340.3c-1.5,14.6-3.2,29.5-4.7,43.1c1.2-2.8,3-10,5.3-26.1
								c2.7-18.9,4-34.3,4-59.7l0-0.1c0.3-9.2-2.2-26.2-2.2-25.5C-415.5,292.3-417.9,328.1-419.3,340.3z"/>
						</g>
						<path id="XMLID_3027_" class="st4" d="M-416.5,292.4c-0.2-32.1-2.6-59.7-13.7-69.7l-2.3-1.3c0,0-3.5-1.2-7.3,16.4
							c-3.7,17.6-43.4,267-43.4,267s6.6,5.7,20.3,6.2c13.7,0.5,20.6-2.9,20.6-2.9l21.5-155.6C-418.5,330.8-416.4,308.9-416.5,292.4z
							"/>
						<g id="XMLID_3024_">
							<path id="XMLID_3026_" class="st6" d="M-338.5,320.3c0,0-15.5,36.9-15.5,89.2s17.3,90.2,17.3,90.2l-1.8-63.5l2.5-111.3
								L-338.5,320.3z"/>
							<path id="XMLID_3025_" class="st7" d="M-336.3,320.3c0,0-15.5,36.9-15.5,89.2s17.3,90.2,17.3,90.2l-1.8-63.5l2.5-111.3
								L-336.3,320.3z"/>
						</g>
						<g id="XMLID_2813_">
							<path id="XMLID_3023_" class="st4" d="M-261.3,292.4c0.3-34.2,3-63.3,16-71.4c0,0-2.4-4.2-19.3-12
								c-16-7.4-29.4-13.2-34.7-16.2c-0.3-0.2-0.6-0.4-0.9-0.5c-4.6-2.8-18.2-10.8-18.2-10.8s0.9,11.8-2.8,35.5
								c0,0-6.1,39.1-7.9,51.4c-1.8,12.3-15.2,77.3-16.8,87c-0.4,2.5-0.8,4.9-1.2,7.1c-0.7,4.7-1.3,9-1.6,10.5
								c-0.4,5-0.9,12-1.3,22.1c-1.9,43.3,11,102.6,11,102.6l4.7,16c3,8,4.1,16.4,19.4,20.6c15.4,4.2,70.3-10.1,70.3-10.1
								s-4.4-77.3-5.7-108.9C-251.4,384.9-261.6,326.6-261.3,292.4z"/>
							<polygon id="XMLID_3022_" class="st6" points="-270.3,295.8 -270.3,293.7 -319.3,295.2 -319.3,297.2 							"/>
							<polygon id="XMLID_2893_" class="st7" points="-270.3,296.7 -270.3,294.6 -319.3,296 -319.3,298.1 							"/>
							<polygon id="XMLID_2892_" class="st4" points="-270.4,295.5 -270.4,307.5 -318.7,308.5 -318.7,296.9 							"/>
							<line id="XMLID_2891_" class="st11" x1="-318.7" y1="297.4" x2="-270.4" y2="296"/>
							<g id="XMLID_2840_">
								<g id="XMLID_2875_">
									<circle id="XMLID_2890_" class="st6" cx="-337" cy="381.5" r="4.9"/>
									<circle id="XMLID_2889_" class="st12" cx="-336.9" cy="381.3" r="4.7"/>
									<polygon id="XMLID_2888_" class="st13" points="-330.8,381.1 -336.9,380 -343.6,381.1 -336.8,382.3 									"/>
									<circle id="XMLID_2887_" class="st14" cx="-337" cy="380.7" r="4.7"/>
									<circle id="XMLID_2886_" class="st15" cx="-337" cy="380.7" r="4.1"/>
									<circle id="XMLID_2885_" class="st16" cx="-337.8" cy="379.6" r="0.6"/>
									<circle id="XMLID_2884_" class="st16" cx="-336.4" cy="382.5" r="0.6"/>
									<line id="XMLID_2883_" class="st17" x1="-338" y1="379.6" x2="-336.6" y2="382.5"/>
									<line id="XMLID_2882_" class="st17" x1="-337.7" y1="379.4" x2="-336.2" y2="382.4"/>
									<line id="XMLID_2881_" class="st17" x1="-338" y1="379.6" x2="-336.6" y2="382.5"/>
									<line id="XMLID_2880_" class="st17" x1="-337.7" y1="379.4" x2="-336.2" y2="382.4"/>
									<circle id="XMLID_2879_" class="st16" cx="-338.6" cy="381.8" r="0.6"/>
									<circle id="XMLID_2878_" class="st16" cx="-335.6" cy="380.3" r="0.6"/>
									<line id="XMLID_2877_" class="st17" x1="-338.6" y1="382" x2="-335.6" y2="380.6"/>
									<line id="XMLID_2876_" class="st17" x1="-338.7" y1="381.6" x2="-335.8" y2="380.2"/>
								</g>
								<g id="XMLID_2858_">
									<circle id="XMLID_2874_" class="st6" cx="-337" cy="339.9" r="4.9"/>
									<circle id="XMLID_2872_" class="st12" cx="-336.9" cy="339.7" r="4.7"/>
									<polygon id="XMLID_2871_" class="st13" points="-330.8,339.5 -336.9,338.3 -343.6,339.5 -336.8,340.7 									"/>
									<circle id="XMLID_2870_" class="st14" cx="-337" cy="339" r="4.7"/>
									<circle id="XMLID_2869_" class="st15" cx="-337" cy="339" r="4.1"/>
									<circle id="XMLID_2868_" class="st16" cx="-337.8" cy="338" r="0.6"/>
									<circle id="XMLID_2867_" class="st16" cx="-336.4" cy="340.9" r="0.6"/>
									<line id="XMLID_2866_" class="st17" x1="-338" y1="338" x2="-336.6" y2="340.9"/>
									<line id="XMLID_2865_" class="st17" x1="-337.7" y1="337.8" x2="-336.2" y2="340.7"/>
									<line id="XMLID_2864_" class="st17" x1="-338" y1="338" x2="-336.6" y2="340.9"/>
									<line id="XMLID_2863_" class="st17" x1="-337.7" y1="337.8" x2="-336.2" y2="340.7"/>
									<circle id="XMLID_2862_" class="st16" cx="-338.6" cy="340.2" r="0.6"/>
									<circle id="XMLID_2861_" class="st16" cx="-335.6" cy="338.7" r="0.6"/>
									<line id="XMLID_2860_" class="st17" x1="-338.6" y1="340.4" x2="-335.6" y2="338.9"/>
									<line id="XMLID_2859_" class="st17" x1="-338.7" y1="340" x2="-335.8" y2="338.6"/>
								</g>
								<g id="XMLID_2841_">
									<circle id="XMLID_2857_" class="st6" cx="-337" cy="423.2" r="4.9"/>
									<circle id="XMLID_2856_" class="st12" cx="-336.9" cy="423" r="4.7"/>
									<polygon id="XMLID_2855_" class="st13" points="-330.8,422.8 -336.9,421.6 -343.6,422.8 -336.8,424 									"/>
									<circle id="XMLID_2854_" class="st14" cx="-337" cy="422.3" r="4.7"/>
									<circle id="XMLID_2853_" class="st15" cx="-337" cy="422.3" r="4.1"/>
									<circle id="XMLID_2852_" class="st16" cx="-337.8" cy="421.2" r="0.6"/>
									<circle id="XMLID_2851_" class="st16" cx="-336.4" cy="424.2" r="0.6"/>
									<line id="XMLID_2850_" class="st17" x1="-338" y1="421.2" x2="-336.6" y2="424.2"/>
									<line id="XMLID_2849_" class="st17" x1="-337.7" y1="421.1" x2="-336.2" y2="424"/>
									<line id="XMLID_2848_" class="st17" x1="-338" y1="421.2" x2="-336.6" y2="424.2"/>
									<line id="XMLID_2847_" class="st17" x1="-337.7" y1="421.1" x2="-336.2" y2="424"/>
									<circle id="XMLID_2846_" class="st16" cx="-338.6" cy="423.4" r="0.6"/>
									<circle id="XMLID_2845_" class="st16" cx="-335.6" cy="422" r="0.6"/>
									<line id="XMLID_2843_" class="st17" x1="-338.6" y1="423.7" x2="-335.6" y2="422.2"/>
									<line id="XMLID_2842_" class="st17" x1="-338.7" y1="423.3" x2="-335.8" y2="421.8"/>
								</g>
							</g>
							<g id="XMLID_2825_">
								<g id="XMLID_2837_">
									<path id="XMLID_2839_" class="st6" d="M-300.3,416.4v-3.9c0,0,7.7,0,24.8,0c17.1,0,25-2.2,25-2.2l0.3,9l-46,1.9
										L-300.3,416.4z"/>
									<path id="XMLID_2838_" class="st12" d="M-300.3,417.7v-3.9c0,0,7.7,0,24.8,0c17.1,0,25-2.2,25-2.2l0.3,9l-46,1.9
										L-300.3,417.7z"/>
								</g>
								<path id="XMLID_2836_" class="st6" d="M-249.9,418.3c0,0-9.3,0.6-24.5,0.6c-15.1,0-25-0.6-25-0.6l1,0.8
									c0,0,20.6,1.3,25.1,1.4c4.5,0.1,22.8-1,22.8-1L-249.9,418.3z"/>
								<path id="XMLID_2835_" class="st7" d="M-249.9,418.8c0,0-9.3,0.6-24.5,0.6c-15.1,0-25-0.6-25-0.6l1,0.8
									c0,0,20.6,1.3,25.1,1.4c4.5,0.1,22.8-1.5,22.8-1.5L-249.9,418.8z"/>
								<path id="XMLID_2834_" class="st18" d="M-249.9,418.7v1.1c0,0.4-0.4,0.7-0.9,0.7l-17.8,1c-4.1,0.2-8.2,0.2-12.3,0l-18-1
									c-0.5,0-0.9-0.3-0.9-0.7v-1.1c0,0,2.3,1.5,24.9,1.5S-249.9,418.7-249.9,418.7z"/>
								<g id="XMLID_2828_">
									<g>
										<line class="st9" x1="-290.5" y1="317.9" x2="-290.5" y2="318.4"/>
										<line class="st19" x1="-290.5" y1="320.4" x2="-290.5" y2="414.6"/>
										<line class="st9" x1="-290.5" y1="415.6" x2="-290.5" y2="416.1"/>
									</g>
								</g>
								<path id="XMLID_2827_" class="st4" d="M-250.4,412.5c0,0-2.5,2.5-23.1,2.5s-26.9,0-26.9,0v54.7c0,11.9,9.6,21.5,21.5,21.5
									h10.2c12.8,0,22.4-4.3,22.4-4.3L-250.4,412.5z"/>
								<path id="XMLID_2826_" class="st11" d="M-250.6,413.8c0,0-0.3,1.9-21.4,1.9s-27.6,0-27.6,0v53.8c0,11.7,9.9,21.2,22.2,21.2
									h10.4c13.2,0,20.1-4.7,20.1-4.7"/>
							</g>
							<g id="XMLID_2814_">
								<g id="XMLID_2819_">
									<g>
										<line class="st9" x1="-399.4" y1="317.9" x2="-399.4" y2="318.4"/>
										<line class="st20" x1="-399.4" y1="320.5" x2="-399.4" y2="413.8"/>
										<line class="st9" x1="-399.4" y1="414.8" x2="-399.4" y2="415.3"/>
									</g>
								</g>
								<path id="XMLID_2818_" class="st6" d="M-419.9,413.7c17.1,0,24.8,0,24.8,0v-1.3c0,0-7.7,0-24.8,0c-2.5,0-4.7,0-6.8-0.1
									c0,0.4,0,0.8-0.1,1.2C-424.7,413.7-422.4,413.7-419.9,413.7z"/>
								<path id="XMLID_2817_" class="st12" d="M-426.7,413.6c0,0.6-0.1,1.2-0.1,1.7c-0.1,1.5-0.1,3.1-0.2,4.7l27.8,1.2l4.1-4.8
									v-2.7c0,0-7.7,0-24.8,0C-422.4,413.7-424.7,413.7-426.7,413.6z"/>
								<path id="XMLID_2816_" class="st4" d="M-416.7,491.3c11.9,0,21.5-9.6,21.5-21.5V415c0,0-6.3,0-26.9,0c-1.7,0-3.3,0-4.8-0.1
									c0,0.1,0,0.2,0,0.3c-0.8,20.5-3.1,54.5-5.1,75.7c1.8,0.2,3.1,0.3,5.1,0.3H-416.7z"/>
								<path id="XMLID_2815_" class="st11" d="M-431.9,490.4c1.3,0.1,2.1,0.2,3.6,0.2h10.4c12.2,0,22.2-9.5,22.2-21.2v-53.8
									c0,0-6.5,0-27.6,0c-1.2,0-2.4,0-3.4,0"/>
							</g>
						</g>
						<g id="XMLID_2810_">
							<path id="XMLID_2812_" class="st6" d="M-261.6,354c-5-33.9-2.8-61.1,0.6-82.4c-0.7,4.2-1,11.6-1.1,12.7
								c-0.6,7.2-1.2,14.6-1,21.7c0.1,15,1.2,32.2,3.9,51.1c2.3,16.2,4,23.4,5.3,26.1c0.2,2.3,0.5,4.5,0.7,6.7
								C-256.3,389.9-258.4,375.8-261.6,354z"/>
							<path id="XMLID_2811_" class="st7" d="M-258.5,340.3c1.5,14.6,3.2,29.5,4.7,43.1c-1.2-2.8-3-10-5.3-26.1
								c-2.7-18.9-4-34.3-4-59.7l0-0.1c-0.3-9.2,2.2-26.2,2.2-25.5C-262.3,292.3-260,328.1-258.5,340.3z"/>
						</g>
						<path id="XMLID_2809_" class="st4" d="M-238,237.4c-3.7-17.6-7.3-16.4-7.3-16.4l0,0c-13.1,8.1-15.8,37.2-16,71.4
							c-0.1,15.9,1.9,37.1,4.1,58.2l21.7,157.2c0,0,6.9,3.4,20.6,2.9c13.7-0.5,20.3-6.2,20.3-6.2S-234.3,254.9-238,237.4z"/>
					</g>
					<g id="XMLID_2372_">
						<g id="XMLID_2803_">
							<path id="XMLID_2807_" class="st6" d="M-362.6,296c-13.3-27.5-28.4-63.6-28.4-63.6l1.5-4.2l49.8,106.7c0,0,0.7,4.1-0.8,1.6
								C-346.4,326.4-355.3,311-362.6,296z"/>
							<path id="XMLID_2806_" class="st7" d="M-340.7,335.4c-6.4-11.6-16-29.4-24-46c-13.4-27.7-25.6-58.7-25.6-58.7l1-2.5
								l49.4,105.7C-340,333.9-340.5,335.9-340.7,335.4z"/>
							<polygon id="XMLID_2805_" class="st6" points="-378.3,222 -387.9,217.1 -386.4,212.5 -376.3,209.8 -369.7,219.4 -373.5,222 
															"/>
							<polygon id="XMLID_2804_" class="st7" points="-377.8,221 -387.4,215.7 -385.8,210.8 -375.8,207.9 -369.2,218.2 -373,221 
															"/>
						</g>
						<path id="XMLID_2802_" class="st4" d="M-375.9,220.4l-10.8-6.3c0,0,0.1-0.9,3.2-9.2c3-8.4,4.7-12,4.7-12
							c0.3-0.2,0.6-0.4,0.9-0.5c4.6-2.8,18.2-10.8,18.2-10.8s-0.9,11.8,2.8,35.5c0,0,6.1,39.1,7.9,51.4c1.1,7.9,7.2,37.9,11.7,60.8
							c0.7,3.5-1.6,8.7-2.6,6.8c-22.1-41.3-37.9-78.8-45-96.6c-2.7-6.8-4.2-11-4.2-11L-375.9,220.4z"/>
						<g id="XMLID_2799_">
							<polygon id="XMLID_2801_" class="st6" points="-339.7,317.1 -343.6,329 -341.3,333.2 -339.1,320.4 							"/>
							<polygon id="XMLID_2800_" class="st7" points="-339.5,318.1 -342.4,331.2 -341,333.5 -338.2,320.7 							"/>
						</g>
						<g id="XMLID_2374_">
							<path id="XMLID_2798_" class="st6" d="M-315.6,296c13.3-27.5,28.4-63.6,28.4-63.6l-1.5-4.2l-55.7,119.2
								C-344.4,347.4-327.8,321.1-315.6,296z"/>
							<path id="XMLID_2377_" class="st7" d="M-344.4,347.9c0,0,17.6-30.9,31-58.6c13.4-27.7,25.6-58.7,25.6-58.7l-1-2.5
								l-55.7,119.2V347.9z"/>
							<polygon id="XMLID_2376_" class="st6" points="-299.9,222 -290.2,217.1 -291.8,212.5 -301.9,209.8 -308.5,219.4 -304.7,222 
															"/>
							<polygon id="XMLID_2375_" class="st7" points="-300.4,221 -290.7,215.7 -292.3,210.8 -302.4,207.9 -309,218.2 -305.2,221 
															"/>
						</g>
						<path id="XMLID_2373_" class="st4" d="M-302.2,220.4l10.8-6.3c0,0-0.1-0.9-3.2-9.2c-3-8.4-4.7-12-4.7-12
							c-0.3-0.2-0.6-0.4-0.9-0.5c-4.6-2.8-18.2-10.8-18.2-10.8s0.9,11.8-2.8,35.5c0,0-6.1,39.1-7.9,51.4
							c-1.5,10.4-11.3,58.5-15.3,79c25.4-45.7,43.5-88.6,51.2-108.1c2.7-6.8,4.2-11,4.2-11L-302.2,220.4z"/>
					</g>
					<g id="XMLID_2260_">
						<g id="XMLID_2355_">
							<path id="XMLID_2371_" class="st13" d="M-198.9,490.1l-3.4,0.3l-3.3,1c-0.2,0.1-0.1,0.4,0.1,0.4l3.4-0.3l3.3-1
								C-198.6,490.4-198.7,490.1-198.9,490.1z"/>
							<circle id="XMLID_2370_" class="st6" cx="-201.1" cy="490.9" r="2.6"/>
							<circle id="XMLID_2369_" class="st12" cx="-201.1" cy="490.8" r="2.5"/>
							<circle id="XMLID_2368_" class="st21" cx="-201.1" cy="490.5" r="2.5"/>
							<circle id="XMLID_2367_" class="st15" cx="-201.1" cy="490.5" r="2.1"/>
							<circle id="XMLID_2366_" class="st16" cx="-201.5" cy="489.9" r="0.3"/>
							<circle id="XMLID_2365_" class="st16" cx="-200.8" cy="491.5" r="0.3"/>
							<line id="XMLID_2364_" class="st22" x1="-201.6" y1="489.9" x2="-200.9" y2="491.4"/>
							<line id="XMLID_2363_" class="st22" x1="-201.4" y1="489.8" x2="-200.7" y2="491.4"/>
							<circle id="XMLID_2361_" class="st16" cx="-201.9" cy="491.1" r="0.3"/>
							<circle id="XMLID_2358_" class="st16" cx="-200.4" cy="490.3" r="0.3"/>
							<line id="XMLID_2357_" class="st22" x1="-201.9" y1="491.2" x2="-200.4" y2="490.4"/>
							<line id="XMLID_2356_" class="st22" x1="-202" y1="491" x2="-200.4" y2="490.2"/>
						</g>
						<g id="XMLID_2341_">
							<path id="XMLID_2354_" class="st13" d="M-200,484.6l-3.4,0.3l-3.3,1c-0.2,0.1-0.1,0.4,0.1,0.4l3.4-0.3l3.3-1
								C-199.7,484.9-199.7,484.6-200,484.6z"/>
							<circle id="XMLID_2353_" class="st6" cx="-202.2" cy="485.4" r="2.6"/>
							<circle id="XMLID_2352_" class="st12" cx="-202.1" cy="485.2" r="2.5"/>
							<circle id="XMLID_2351_" class="st21" cx="-202.2" cy="484.9" r="2.5"/>
							<circle id="XMLID_2350_" class="st15" cx="-202.2" cy="484.9" r="2.1"/>
							<circle id="XMLID_2349_" class="st16" cx="-202.6" cy="484.3" r="0.3"/>
							<circle id="XMLID_2348_" class="st16" cx="-201.8" cy="485.9" r="0.3"/>
							<line id="XMLID_2347_" class="st22" x1="-202.7" y1="484.3" x2="-202" y2="485.9"/>
							<line id="XMLID_2346_" class="st22" x1="-202.5" y1="484.3" x2="-201.8" y2="485.8"/>
							<circle id="XMLID_2345_" class="st16" cx="-203" cy="485.5" r="0.3"/>
							<circle id="XMLID_2344_" class="st16" cx="-201.5" cy="484.7" r="0.3"/>
							<line id="XMLID_2343_" class="st22" x1="-203" y1="485.6" x2="-201.5" y2="484.9"/>
							<line id="XMLID_2342_" class="st22" x1="-203.1" y1="485.4" x2="-201.5" y2="484.7"/>
						</g>
						<g id="XMLID_2327_">
							<path id="XMLID_2340_" class="st13" d="M-198,495.7l-3.4,0.3l-3.3,1c-0.2,0.1-0.1,0.4,0.1,0.4l3.4-0.3l3.3-1
								C-197.7,496-197.8,495.7-198,495.7z"/>
							<circle id="XMLID_2339_" class="st6" cx="-200.2" cy="496.5" r="2.6"/>
							<circle id="XMLID_2338_" class="st12" cx="-200.2" cy="496.4" r="2.5"/>
							<circle id="XMLID_2337_" class="st21" cx="-200.2" cy="496" r="2.5"/>
							<circle id="XMLID_2336_" class="st15" cx="-200.2" cy="496" r="2.1"/>
							<circle id="XMLID_2335_" class="st16" cx="-200.7" cy="495.5" r="0.3"/>
							<circle id="XMLID_2334_" class="st16" cx="-199.9" cy="497" r="0.3"/>
							<line id="XMLID_2333_" class="st22" x1="-200.8" y1="495.5" x2="-200" y2="497"/>
							<line id="XMLID_2332_" class="st22" x1="-200.6" y1="495.4" x2="-199.8" y2="496.9"/>
							<circle id="XMLID_2331_" class="st16" cx="-201.1" cy="496.6" r="0.3"/>
							<circle id="XMLID_2330_" class="st16" cx="-199.5" cy="495.9" r="0.3"/>
							<line id="XMLID_2329_" class="st22" x1="-201.1" y1="496.7" x2="-199.5" y2="496"/>
							<line id="XMLID_2328_" class="st22" x1="-201.1" y1="496.5" x2="-199.6" y2="495.8"/>
						</g>
						<g id="XMLID_2325_">
							<path id="XMLID_2326_" class="st13" d="M-196.7,499.8l-2.4,0.3c-0.7,0.1-1.3,0.2-2,0.4l-2.3,0.6c-0.2,0.1-0.1,0.4,0.1,0.4
								l2.3-0.3c0.7-0.1,1.3-0.2,2-0.4l2.4-0.6C-196.4,500.1-196.5,499.8-196.7,499.8z"/>
						</g>
						<g id="XMLID_2310_">
							<path id="XMLID_2324_" class="st13" d="M-477.8,490.1l3.4,0.3l3.3,1c0.2,0.1,0.1,0.4-0.1,0.4l-3.4-0.3l-3.3-1
								C-478.1,490.4-478,490.1-477.8,490.1z"/>
							<circle id="XMLID_2322_" class="st6" cx="-475.6" cy="490.9" r="2.6"/>
							<circle id="XMLID_2321_" class="st12" cx="-475.6" cy="490.8" r="2.5"/>
							<circle id="XMLID_2320_" class="st21" cx="-475.6" cy="490.5" r="2.5"/>
							<circle id="XMLID_2319_" class="st15" cx="-475.6" cy="490.5" r="2.1"/>
							<circle id="XMLID_2318_" class="st16" cx="-475.2" cy="489.9" r="0.3"/>
							<circle id="XMLID_2317_" class="st16" cx="-475.9" cy="491.5" r="0.3"/>
							<line id="XMLID_2316_" class="st22" x1="-475" y1="489.9" x2="-475.8" y2="491.4"/>
							<line id="XMLID_2315_" class="st22" x1="-475.2" y1="489.8" x2="-476" y2="491.4"/>
							<circle id="XMLID_2314_" class="st16" cx="-474.8" cy="491.1" r="0.3"/>
							<circle id="XMLID_2313_" class="st16" cx="-476.3" cy="490.3" r="0.3"/>
							<line id="XMLID_2312_" class="st22" x1="-474.8" y1="491.2" x2="-476.3" y2="490.4"/>
							<line id="XMLID_2311_" class="st22" x1="-474.7" y1="491" x2="-476.2" y2="490.2"/>
						</g>
						<g id="XMLID_2296_">
							<path id="XMLID_2309_" class="st13" d="M-476.7,484.6l3.4,0.3l3.3,1c0.2,0.1,0.1,0.4-0.1,0.4l-3.4-0.3l-3.3-1
								C-477,484.9-476.9,484.6-476.7,484.6z"/>
							<circle id="XMLID_2308_" class="st6" cx="-474.5" cy="485.4" r="2.6"/>
							<circle id="XMLID_2307_" class="st12" cx="-474.5" cy="485.2" r="2.5"/>
							<circle id="XMLID_2306_" class="st21" cx="-474.5" cy="484.9" r="2.5"/>
							<circle id="XMLID_2305_" class="st15" cx="-474.5" cy="484.9" r="2.1"/>
							<circle id="XMLID_2304_" class="st16" cx="-474.1" cy="484.3" r="0.3"/>
							<circle id="XMLID_2303_" class="st16" cx="-474.8" cy="485.9" r="0.3"/>
							<line id="XMLID_2302_" class="st22" x1="-473.9" y1="484.3" x2="-474.7" y2="485.9"/>
							<line id="XMLID_2301_" class="st22" x1="-474.1" y1="484.3" x2="-474.9" y2="485.8"/>
							<circle id="XMLID_2300_" class="st16" cx="-473.7" cy="485.5" r="0.3"/>
							<circle id="XMLID_2299_" class="st16" cx="-475.2" cy="484.7" r="0.3"/>
							<line id="XMLID_2298_" class="st22" x1="-473.7" y1="485.6" x2="-475.2" y2="484.9"/>
							<line id="XMLID_2297_" class="st22" x1="-473.6" y1="485.4" x2="-475.1" y2="484.7"/>
						</g>
						<g id="XMLID_2263_">
							<path id="XMLID_2295_" class="st13" d="M-478.6,495.7l3.4,0.3l3.3,1c0.2,0.1,0.1,0.4-0.1,0.4l-3.4-0.3l-3.3-1
								C-478.9,496-478.9,495.7-478.6,495.7z"/>
							<circle id="XMLID_2294_" class="st6" cx="-476.4" cy="496.5" r="2.6"/>
							<circle id="XMLID_2293_" class="st12" cx="-476.5" cy="496.4" r="2.5"/>
							<circle id="XMLID_2292_" class="st21" cx="-476.4" cy="496" r="2.5"/>
							<circle id="XMLID_2291_" class="st15" cx="-476.4" cy="496" r="2.1"/>
							<circle id="XMLID_2290_" class="st16" cx="-476" cy="495.5" r="0.3"/>
							<circle id="XMLID_2289_" class="st16" cx="-476.8" cy="497" r="0.3"/>
							<line id="XMLID_2288_" class="st22" x1="-475.9" y1="495.5" x2="-476.6" y2="497"/>
							<line id="XMLID_2287_" class="st22" x1="-476.1" y1="495.4" x2="-476.8" y2="496.9"/>
							<circle id="XMLID_2286_" class="st16" cx="-475.6" cy="496.6" r="0.3"/>
							<circle id="XMLID_2285_" class="st16" cx="-477.1" cy="495.9" r="0.3"/>
							<line id="XMLID_2281_" class="st22" x1="-475.6" y1="496.7" x2="-477.1" y2="496"/>
							<line id="XMLID_2279_" class="st22" x1="-475.5" y1="496.5" x2="-477.1" y2="495.8"/>
						</g>
						<g id="XMLID_2261_">
							<path id="XMLID_2262_" class="st13" d="M-480,499.8l2.4,0.3c0.7,0.1,1.3,0.2,2,0.4l2.3,0.6c0.2,0.1,0.1,0.4-0.1,0.4l-2.3-0.3
								c-0.7-0.1-1.3-0.2-2-0.4l-2.4-0.6C-480.2,500.1-480.2,499.8-480,499.8z"/>
						</g>
					</g>
				</g>
			</g>
			<g>
				<defs>
					<circle id="SVGID_6_" cx="-338.9" cy="400.6" r="150"/>
				</defs>
				<clipPath id="SVGID_7_">
					<use xlink:href="#SVGID_6_"  style="overflow:visible;"/>
				</clipPath>
			</g>
			<g>
				<defs>
					<circle id="SVGID_8_" cx="-338.9" cy="400.6" r="150"/>
				</defs>
				<clipPath id="SVGID_9_">
					<use xlink:href="#SVGID_8_"  style="overflow:visible;"/>
				</clipPath>
				<g class="st23">
					<path class="st24" d="M-338.9,255.6c38.7,0,75.1,15.1,102.5,42.5s42.5,63.8,42.5,102.5s-15.1,75.1-42.5,102.5
						s-63.8,42.5-102.5,42.5s-75.1-15.1-102.5-42.5s-42.5-63.8-42.5-102.5s15.1-75.1,42.5-102.5S-377.6,255.6-338.9,255.6
						 M-338.9,250.6c-82.8,0-150,67.2-150,150s67.2,150,150,150s150-67.2,150-150S-256.1,250.6-338.9,250.6L-338.9,250.6z"/>
				</g>
			</g>
		</g>
	</g>
</g>
</svg>
