<?xml version="1.0" encoding="utf-8"?>
<!-- Generator: Adobe Illustrator 19.0.0, SVG Export Plug-In . SVG Version: 6.00 Build 0)  -->
<svg version="1.1" id="Layer_1" xmlns="http://www.w3.org/2000/svg" xmlns:xlink="http://www.w3.org/1999/xlink" x="0px" y="0px"
	 viewBox="-489 251 300 300" style="enable-background:new -489 251 300 300;" xml:space="preserve">
<style type="text/css">
	.st0{fill:#DDDDDD;}
	.st1{clip-path:url(#SVGID_3_);}
	.st2{clip-path:url(#SVGID_5_);}
	.st3{fill:#F1F1F2;stroke:#404041;stroke-miterlimit:10;}
	.st4{fill:#FFFFFF;stroke:#404041;stroke-miterlimit:10;}
	.st5{fill:#929497;}
	.st6{fill:#F1F1F2;}
	.st7{fill:#C5C7C9;}
	.st8{fill:none;stroke:#404041;stroke-miterlimit:10;}
	.st9{fill:none;stroke:#808184;stroke-width:0.5;stroke-miterlimit:10;}
	.st10{fill:none;stroke:#808184;stroke-width:0.5;stroke-miterlimit:10;stroke-dasharray:0.9963,1.9927;}
	.st11{fill:none;stroke:#808184;stroke-width:0.5;stroke-miterlimit:10;stroke-dasharray:1,2;}
	.st12{fill:#DBDCDD;}
	.st13{fill:#404041;stroke:#D0D2D3;stroke-width:0.5;stroke-miterlimit:10;}
	.st14{fill:#FFFFFF;stroke:#6D6E70;stroke-miterlimit:10;}
	.st15{fill:#FFFFFF;stroke:#929497;stroke-width:0.25;stroke-miterlimit:10;}
	.st16{fill:#404041;}
	.st17{fill:none;stroke:#6D6E70;stroke-width:0.5;stroke-miterlimit:10;}
	.st18{fill:#FFFFFF;stroke:#808184;stroke-width:0.5;stroke-miterlimit:10;stroke-dasharray:1,2;}
	.st19{fill:none;stroke:#808184;stroke-width:0.5;stroke-miterlimit:10;stroke-dasharray:0.9871,1.9743;}
	.st20{fill:none;stroke:#808184;stroke-width:0.5;stroke-miterlimit:10;stroke-dasharray:0.9886,1.9772;}
	.st21{fill:#FFFFFF;stroke:#6D6E70;stroke-width:0.5;stroke-miterlimit:10;}
	.st22{fill:none;stroke:#6D6E70;stroke-width:0.25;stroke-miterlimit:10;}
	.st23{clip-path:url(#SVGID_7_);}
	.st24{fill:#9AA0BB;}
</style>
<g>
	<g>
		<circle id="SVGID_1_" class="st0" cx="-339" cy="401" r="150"/>
	</g>
	<g>
		<g>
			<defs>
				<circle id="SVGID_2_" cx="-339" cy="401" r="150"/>
			</defs>
			<clipPath id="SVGID_3_">
				<use xlink:href="#SVGID_2_"  style="overflow:visible;"/>
			</clipPath>
			<g class="st1">
				<g>
					<g id="XMLID_4081_">
						<defs>
							<rect id="SVGID_4_" x="-489.1" y="251" width="300" height="300"/>
						</defs>
						<clipPath id="SVGID_5_">
							<use xlink:href="#SVGID_4_"  style="overflow:visible;"/>
						</clipPath>
						<g id="XMLID_3741_" class="st2">
							<g id="XMLID_3886_">
								<g id="XMLID_3985_">
									<polygon id="XMLID_4072_" class="st3" points="-318.9,188.2 -310.7,197.4 -341.2,333 -367.4,197.4 -359.6,188.2 									
										"/>
									<path id="XMLID_4023_" class="st4" d="M-318.5,183.8c0,0,0.1-0.5-20.5-0.5c-0.1,0-0.1,0-0.2,0c-0.1,0-0.1,0-0.2,0
										c-20.6,0-20.5,0.5-20.5,0.5l-2.5,9c0,0,3.4,0.8,11.5,1.2c3.2,0.1,7.2,0.2,11.9,0.2c4.7,0,8.3-0.1,11.5-0.2
										c8.1-0.3,11.5-1.2,11.5-1.2L-318.5,183.8z"/>
									<g id="XMLID_4003_">
										<path id="XMLID_4006_" class="st5" d="M-356.3,183.6c0,0-2.1,2.4-2,5.4c0.2,3,0.3,4.1,0.3,4.1h-2.3l0.2-9.2L-356.3,183.6z
											"/>
										<path id="XMLID_4005_" class="st6" d="M-355.4,183.6c-0.6,0-1,0-1.5,0.1c-1.2,2-1.2,7.7-1.2,9.7c0.7,0.1,1.4,0.1,2.2,0.2
											c-0.1-0.6-0.3-1.9-0.3-4.2C-356.2,186.5-355.7,184.4-355.4,183.6z"/>
										<path id="XMLID_4004_" class="st7" d="M-356.7,183.6c-0.3,0-0.6,0-0.8,0c-0.5,0.4-1,1.1-1.1,2.4c-0.2,2.5-0.4,5.8-0.4,7.2
											c0.6,0.1,1.4,0.1,2.2,0.2C-357.2,191.3-357.9,185.5-356.7,183.6z"/>
									</g>
									<g id="XMLID_3999_">
										<path id="XMLID_4002_" class="st5" d="M-322.4,183.6c0,0,2.1,2.4,2,5.4c-0.2,3-0.3,4.1-0.3,4.1h2.3l-0.2-9.2L-322.4,183.6
											z"/>
										<path id="XMLID_4001_" class="st6" d="M-323.3,183.6c0.6,0,1,0,1.5,0.1c1.2,2,1.2,7.7,1.2,9.7c-0.7,0.1-1.4,0.1-2.2,0.2
											c0.1-0.6,0.3-1.9,0.3-4.2C-322.6,186.5-323.1,184.4-323.3,183.6z"/>
										<path id="XMLID_4000_" class="st7" d="M-322,183.6c0.3,0,0.6,0,0.8,0c0.5,0.4,1,1.1,1.1,2.4c0.2,2.5,0.4,5.8,0.4,7.2
											c-0.6,0.1-1.4,0.1-2.2,0.2C-321.5,191.3-320.8,185.5-322,183.6z"/>
									</g>
									<path id="XMLID_3998_" class="st8" d="M-318.5,183.8c0,0,0.1-0.5-20.5-0.5c-0.1,0-0.1,0-0.2,0c-0.1,0-0.1,0-0.2,0
										c-20.6,0-20.5,0.5-20.5,0.5l-2.5,9c0,0,3.4,0.8,11.5,1.2c3.2,0.1,7.2,0.2,11.9,0.2c4.7,0,8.3-0.1,11.5-0.2
										c8.1-0.3,11.5-1.2,11.5-1.2L-318.5,183.8z"/>
									<g id="XMLID_3995_">
										<polygon id="XMLID_3997_" class="st5" points="-358.5,211.8 -339.1,304.1 -320,211.8 -332.5,320 -339.7,327.7 -345.5,319 
																					"/>
										<polygon id="XMLID_3996_" class="st7" points="-339.3,316.1 -319.5,207.7 -339.1,303.6 -359,207.7 										"/>
									</g>
									<g id="XMLID_3989_">
										<g>
											<line class="st9" x1="-339.1" y1="195.4" x2="-339.1" y2="195.9"/>
											<line class="st10" x1="-339.1" y1="197.9" x2="-339.1" y2="322.4"/>
											<line class="st9" x1="-339.1" y1="323.4" x2="-339.1" y2="323.9"/>
										</g>
									</g>
									<path id="XMLID_3988_" class="st5" d="M-349.7,197.6l0.7,0.8c0,0,5.3-0.4,9.9-0.4c4.5,0,10.2,0.4,10.2,0.4l0.5-0.8H-349.7z
										"/>
									<path id="XMLID_3987_" class="st7" d="M-349.2,198.2l0.5,0.6c0,0,5-0.4,9.5-0.4c4.4,0,10,0.4,10,0.4l0.3-0.6l-10.3-0.2
										L-349.2,198.2z"/>
									<path id="XMLID_3986_" class="st4" d="M-339.1,194.2c-4.7,0-8.6,0-11.8-0.2l1.3,3.6h10.4h0.1h10.4l1.3-3.6
										C-330.4,194.2-334.3,194.2-339.1,194.2z"/>
								</g>
								<path id="XMLID_3984_" class="st3" d="M-328.6,520c0-0.6,0-20.8,0-20.8h-20.9V520H-328.6z"/>
								<g id="XMLID_3981_">
									<polygon id="XMLID_3983_" class="st5" points="-338.9,506.9 -347,525 -339.1,496.1 -330.8,525.4 									"/>
									<polygon id="XMLID_3982_" class="st7" points="-339.1,510.5 -347,525 -339.1,504.4 -330.8,525.4 									"/>
								</g>
								<path id="XMLID_3979_" class="st4" d="M-327.9,397.5c-1.9-43.3-4-31.7-4-31.7l-3.7-31.1l-2.9-6.3c-4.5-22.4-10-50-11.1-57.6
									c-1.8-12.3-7.9-51.4-7.9-51.4c-3.7-23.7-2.1-35.5-2.1-35.5s-17.8,10.2-21.4,12.6c-1.9,1.3-18.3,8.5-32.3,14.9
									c-17,7.9-19.3,12-19.3,12c13.1,8.1,15.8,37.2,16,71.4s-9.2,92.5-10.4,122.9c-1.2,31.5-7.7,108.9-7.7,108.9
									s56.2,14.4,71.6,10.1c15.4-4.2,16.6-12.8,19.6-20.8l4.5-15.8C-338.9,500.1-326,440.8-327.9,397.5z"/>
								<g id="XMLID_3976_">
									<path id="XMLID_3978_" class="st6" d="M-416.4,356.4c5-33.9,2.8-61.1-0.6-82.4c0.7,4.2,1,11.6,1.1,12.7
										c0.6,7.2,1.2,14.6,1,21.7c-0.1,15-1.2,32.2-3.9,51.1c-2.3,16.2-4,23.4-5.3,26.1c-0.2,2.3-0.5,4.5-0.7,6.7
										C-421.7,392.3-419.6,378.2-416.4,356.4z"/>
									<path id="XMLID_3977_" class="st7" d="M-419.4,342.7c-1.5,14.6-3.2,29.5-4.7,43.1c1.2-2.8,3-10,5.3-26.1
										c2.7-18.9,4-34.3,4-59.7l0-0.1c0.3-9.2-2.2-26.2-2.2-25.5C-415.6,294.8-418,330.6-419.4,342.7z"/>
								</g>
								<path id="XMLID_3975_" class="st4" d="M-416.6,294.9c-0.2-32.1-2.6-59.7-13.7-69.7l-2.3-1.3c0,0-3.5-1.2-7.3,16.4
									c-3.7,17.6-43.4,267-43.4,267s6.6,5.7,20.3,6.2s20.6-2.9,20.6-2.9l21.5-155.6C-418.6,333.2-416.5,311.3-416.6,294.9z"/>
								<g id="XMLID_3972_">
									<path id="XMLID_3974_" class="st6" d="M-338.6,322.8c0,0-15.5,36.9-15.5,89.2s17.3,90.2,17.3,90.2l-1.8-63.5l2.5-111.3
										L-338.6,322.8z"/>
									<path id="XMLID_3973_" class="st7" d="M-336.4,322.8c0,0-15.5,36.9-15.5,89.2s17.3,90.2,17.3,90.2l-1.8-63.5l2.5-111.3
										L-336.4,322.8z"/>
								</g>
								<g id="XMLID_3904_">
									<path id="XMLID_3971_" class="st4" d="M-261.4,294.9c0.3-34.2,3-63.3,16-71.4c0,0-2.4-4.2-19.3-12
										c-16-7.4-29.4-13.2-34.7-16.2c-0.3-0.2-0.6-0.4-0.9-0.5c-4.6-2.8-18.2-10.8-18.2-10.8s0.9,11.8-2.8,35.5
										c0,0-6.1,39.1-7.9,51.4c-1.8,12.3-15.2,77.3-16.8,87c-0.4,2.5-0.8,4.9-1.2,7.1c-0.7,4.7-1.3,9-1.6,10.5
										c-0.4,5-0.9,12-1.3,22.1c-1.9,43.3,11,102.6,11,102.6l4.7,16c3,8,4.1,16.4,19.4,20.6s69.6-10.1,69.6-10.1
										s-4.4-77.3-5.7-108.9C-252.2,387.3-261.7,329.1-261.4,294.9z"/>
									<polygon id="XMLID_3970_" class="st6" points="-270.4,298.3 -270.4,296.1 -319.4,297.6 -319.4,299.6 									"/>
									<polygon id="XMLID_3969_" class="st7" points="-270.4,299.1 -270.4,297 -319.4,298.4 -319.4,300.5 									"/>
									<polygon id="XMLID_3968_" class="st4" points="-270.5,297.9 -270.5,309.9 -318.8,310.9 -318.8,299.3 									"/>
									<line id="XMLID_3967_" class="st11" x1="-318.8" y1="299.8" x2="-270.5" y2="298.4"/>
									<g id="XMLID_3918_">
										<g id="XMLID_3951_">
											<circle id="XMLID_3966_" class="st6" cx="-337.1" cy="383.9" r="4.9"/>
											<circle id="XMLID_3965_" class="st12" cx="-337" cy="383.7" r="4.7"/>
											<polygon id="XMLID_3964_" class="st13" points="-330.9,383.6 -337,382.4 -343.7,383.6 -336.9,384.7 											"/>
											<circle id="XMLID_3963_" class="st14" cx="-337.1" cy="383.1" r="4.7"/>
											<circle id="XMLID_3962_" class="st15" cx="-337.1" cy="383.1" r="4.1"/>
											<circle id="XMLID_3961_" class="st16" cx="-337.9" cy="382" r="0.6"/>
											<circle id="XMLID_3960_" class="st16" cx="-336.5" cy="385" r="0.6"/>
											<line id="XMLID_3959_" class="st17" x1="-338.1" y1="382" x2="-336.7" y2="384.9"/>
											<line id="XMLID_3958_" class="st17" x1="-337.8" y1="381.8" x2="-336.3" y2="384.8"/>
											<line id="XMLID_3957_" class="st17" x1="-338.1" y1="382" x2="-336.7" y2="384.9"/>
											<line id="XMLID_3956_" class="st17" x1="-337.8" y1="381.8" x2="-336.3" y2="384.8"/>
											<circle id="XMLID_3955_" class="st16" cx="-338.7" cy="384.2" r="0.6"/>
											<circle id="XMLID_3954_" class="st16" cx="-335.7" cy="382.8" r="0.6"/>
											<line id="XMLID_3953_" class="st17" x1="-338.7" y1="384.4" x2="-335.7" y2="383"/>
											<line id="XMLID_3952_" class="st17" x1="-338.8" y1="384" x2="-335.9" y2="382.6"/>
										</g>
										<g id="XMLID_3935_">
											<circle id="XMLID_3950_" class="st6" cx="-337.1" cy="342.3" r="4.9"/>
											<circle id="XMLID_3949_" class="st12" cx="-337" cy="342.1" r="4.7"/>
											<polygon id="XMLID_3948_" class="st13" points="-330.9,341.9 -337,340.7 -343.7,341.9 -336.9,343.1 											"/>
											<circle id="XMLID_3947_" class="st14" cx="-337.1" cy="341.5" r="4.7"/>
											<circle id="XMLID_3946_" class="st15" cx="-337.1" cy="341.5" r="4.1"/>
											<circle id="XMLID_3945_" class="st16" cx="-337.9" cy="340.4" r="0.6"/>
											<circle id="XMLID_3944_" class="st16" cx="-336.5" cy="343.3" r="0.6"/>
											<line id="XMLID_3943_" class="st17" x1="-338.1" y1="340.4" x2="-336.7" y2="343.3"/>
											<line id="XMLID_3942_" class="st17" x1="-337.8" y1="340.2" x2="-336.3" y2="343.2"/>
											<line id="XMLID_3941_" class="st17" x1="-338.1" y1="340.4" x2="-336.7" y2="343.3"/>
											<line id="XMLID_3940_" class="st17" x1="-337.8" y1="340.2" x2="-336.3" y2="343.2"/>
											<circle id="XMLID_3939_" class="st16" cx="-338.7" cy="342.6" r="0.6"/>
											<circle id="XMLID_3938_" class="st16" cx="-335.7" cy="341.1" r="0.6"/>
											<line id="XMLID_3937_" class="st17" x1="-338.7" y1="342.8" x2="-335.7" y2="341.4"/>
											<line id="XMLID_3936_" class="st17" x1="-338.8" y1="342.4" x2="-335.9" y2="341"/>
										</g>
										<g id="XMLID_3919_">
											<circle id="XMLID_3934_" class="st6" cx="-337.1" cy="425.6" r="4.9"/>
											<circle id="XMLID_3933_" class="st12" cx="-337" cy="425.4" r="4.7"/>
											<polygon id="XMLID_3932_" class="st13" points="-330.9,425.2 -337,424 -343.7,425.2 -336.9,426.4 											"/>
											<circle id="XMLID_3931_" class="st14" cx="-337.1" cy="424.7" r="4.7"/>
											<circle id="XMLID_3930_" class="st15" cx="-337.1" cy="424.7" r="4.1"/>
											<circle id="XMLID_3929_" class="st16" cx="-337.9" cy="423.6" r="0.6"/>
											<circle id="XMLID_3928_" class="st16" cx="-336.5" cy="426.6" r="0.6"/>
											<line id="XMLID_3927_" class="st17" x1="-338.1" y1="423.6" x2="-336.7" y2="426.6"/>
											<line id="XMLID_3926_" class="st17" x1="-337.8" y1="423.5" x2="-336.3" y2="426.4"/>
											<line id="XMLID_3925_" class="st17" x1="-338.1" y1="423.6" x2="-336.7" y2="426.6"/>
											<line id="XMLID_3924_" class="st17" x1="-337.8" y1="423.5" x2="-336.3" y2="426.4"/>
											<circle id="XMLID_3923_" class="st16" cx="-338.7" cy="425.8" r="0.6"/>
											<circle id="XMLID_3922_" class="st16" cx="-335.7" cy="424.4" r="0.6"/>
											<line id="XMLID_3921_" class="st17" x1="-338.7" y1="426.1" x2="-335.7" y2="424.6"/>
											<line id="XMLID_3920_" class="st17" x1="-338.8" y1="425.7" x2="-335.9" y2="424.3"/>
										</g>
									</g>
									<g id="XMLID_3905_">
										<path id="XMLID_3917_" class="st6" d="M-251.8,423.2c0,0-8.6-3.7-22.9-8.6c-14.3-5-23.8-7.6-23.8-7.6l1.2-0.4
											c0,0,19.8,5.5,24.1,6.9c4.3,1.4,21.3,8.4,21.3,8.4L-251.8,423.2z"/>
										<path id="XMLID_3916_" class="st7" d="M-251.7,422.9c0,0-8.6-3.7-22.9-8.6c-14.3-5-23.8-7.6-23.8-7.6l1.2-0.4
											c0,0,19.8,5.5,24.1,6.9c4.3,1.4,21.3,8.4,21.3,8.4L-251.7,422.9z"/>
										<path id="XMLID_3915_" class="st6" d="M-298.3,406.5c0,0,8.6,3.7,22.9,8.6c14.3,5,23.8,7.6,23.8,7.6l-1.2,0.4
											c0,0-19.8-5.5-24.1-6.9c-4.3-1.4-21.3-8.4-21.3-8.4L-298.3,406.5z"/>
										<path id="XMLID_3914_" class="st7" d="M-298.5,407c0,0,8.6,3.7,22.9,8.6c14.3,5,23.8,7.6,23.8,7.6l-1.2,0.4
											c0,0-19.8-5.5-24.1-6.9c-4.3-1.4-21.1-8.9-21.1-8.9L-298.5,407z"/>
										<path id="XMLID_3913_" class="st4" d="M-251.4,422.9l0.3-0.9c0.1-0.4-0.1-0.8-0.6-1l-16.6-6.5c-3.8-1.5-7.7-2.8-11.6-4
											l-17.2-5.3c-0.5-0.1-0.9,0-1.1,0.4l-0.3,0.9c0,0,13.9,4.2,23.7,7.6C-265.6,417.3-251.4,422.9-251.4,422.9z"/>
										<path id="XMLID_3912_" class="st18" d="M-298.4,406.9l-0.4,1.1c-0.1,0.4,0.1,0.8,0.6,1l16.5,6.8c3.8,1.5,7.7,2.8,11.6,4
											l17.3,5c0.5,0.1,0.9,0,1-0.4l0.4-1.1c0,0-2.7,0.6-24-6.8C-296.7,409-298.4,406.9-298.4,406.9z"/>
										<g id="XMLID_3906_">
											<g>
												<line class="st9" x1="-291.3" y1="341.7" x2="-291.3" y2="342.2"/>
												<line class="st19" x1="-291.3" y1="344.2" x2="-291.3" y2="405.4"/>
												<line class="st9" x1="-291.3" y1="406.4" x2="-291.3" y2="406.9"/>
											</g>
										</g>
									</g>
								</g>
								<g id="XMLID_3901_">
									<path id="XMLID_3903_" class="st6" d="M-261.7,356.4c-5-33.9-2.8-61.1,0.6-82.4c-0.7,4.2-1,11.6-1.1,12.7
										c-0.6,7.2-1.2,14.6-1,21.7c0.1,15,1.2,32.2,3.9,51.1c2.3,16.2,4,23.4,5.3,26.1c0.2,2.3,0.5,4.5,0.7,6.7
										C-256.4,392.3-258.5,378.2-261.7,356.4z"/>
									<path id="XMLID_3902_" class="st7" d="M-258.6,342.7c1.5,14.6,3.2,29.5,4.7,43.1c-1.2-2.8-3-10-5.3-26.1
										c-2.7-18.9-4-34.3-4-59.7l0-0.1c-0.3-9.2,2.2-26.2,2.2-25.5C-262.4,294.8-260.1,330.6-258.6,342.7z"/>
								</g>
								<path id="XMLID_3900_" class="st4" d="M-238.1,239.8c-3.7-17.6-7.3-16.4-7.3-16.4l0,0c-13.1,8.1-15.8,37.2-16,71.4
									c-0.1,15.9,1.9,37.1,4.1,58.2l21.7,157.2c0,0,6.9,3.4,20.6,2.9c13.7-0.5,20.3-6.2,20.3-6.2S-234.4,257.4-238.1,239.8z"/>
								<g id="XMLID_3887_">
									<g id="XMLID_3894_">
										<g>
											<line class="st9" x1="-386.4" y1="341.7" x2="-386.4" y2="342.2"/>
											<line class="st20" x1="-386.4" y1="344.2" x2="-386.4" y2="405.5"/>
											<line class="st9" x1="-386.4" y1="406.5" x2="-386.4" y2="407"/>
										</g>
									</g>
									<path id="XMLID_3893_" class="st6" d="M-426,423.2c0,0,8.6-3.7,22.9-8.6s23.8-7.6,23.8-7.6l-1.2-0.4c0,0-19.8,5.5-24.1,6.9
										c-4.3,1.4-21.3,8.4-21.3,8.4L-426,423.2z"/>
									<path id="XMLID_3892_" class="st7" d="M-426.1,422.9c0,0,8.6-3.7,22.9-8.6s23.8-7.6,23.8-7.6l-1.2-0.4
										c0,0-19.8,5.5-24.1,6.9c-4.3,1.4-21.3,8.4-21.3,8.4L-426.1,422.9z"/>
									<path id="XMLID_3891_" class="st6" d="M-379.5,406.5c0,0-8.6,3.7-22.9,8.6c-14.3,5-23.8,7.6-23.8,7.6l1.2,0.4
										c0,0,19.8-5.5,24.1-6.9c4.3-1.4,21.3-8.4,21.3-8.4L-379.5,406.5z"/>
									<path id="XMLID_3890_" class="st7" d="M-379.4,407c0,0-8.6,3.7-22.9,8.6c-14.3,5-23.8,7.6-23.8,7.6l1.2,0.4
										c0,0,19.8-5.5,24.1-6.9c4.3-1.4,21.1-8.9,21.1-8.9L-379.4,407z"/>
									<path id="XMLID_3889_" class="st4" d="M-426.5,422.9l-0.3-0.9c-0.1-0.4,0.1-0.8,0.6-1l16.6-6.5c3.8-1.5,7.7-2.8,11.6-4
										l17.2-5.3c0.5-0.1,0.9,0,1.1,0.4l0.3,0.9c0,0-13.9,4.2-23.7,7.6C-412.2,417.3-426.5,422.9-426.5,422.9z"/>
									<path id="XMLID_3888_" class="st18" d="M-379.4,406.9l0.4,1.1c0.1,0.4-0.1,0.8-0.6,1l-16.5,6.8c-3.8,1.5-7.7,2.8-11.6,4
										l-17.3,5c-0.5,0.1-0.9,0-1-0.4l-0.4-1.1c0,0,2.7,0.6,24-6.8C-381.1,409-379.4,406.9-379.4,406.9z"/>
								</g>
							</g>
							<g id="XMLID_3870_">
								<g id="XMLID_3881_">
									<path id="XMLID_3885_" class="st6" d="M-362.7,298.4c-13.3-27.5-28.4-63.6-28.4-63.6l1.5-4.2l49.8,106.7
										c0,0,0.7,4.1-0.8,1.6C-346.5,328.9-355.4,313.4-362.7,298.4z"/>
									<path id="XMLID_3884_" class="st7" d="M-340.8,337.8c-6.4-11.6-16-29.4-24-46c-13.4-27.7-25.6-58.7-25.6-58.7l1-2.5
										l49.4,105.7C-340.1,336.3-340.6,338.3-340.8,337.8z"/>
									<polygon id="XMLID_3883_" class="st6" points="-378.4,224.4 -388,219.5 -386.5,214.9 -376.4,212.2 -369.8,221.8 
										-373.6,224.4 									"/>
									<polygon id="XMLID_3882_" class="st7" points="-377.9,223.4 -387.5,218.1 -385.9,213.2 -375.9,210.3 -369.3,220.6 
										-373.1,223.4 									"/>
								</g>
								<path id="XMLID_3880_" class="st4" d="M-376,222.8l-10.8-6.3c0,0,0.1-0.9,3.2-9.2c3-8.4,4.7-12,4.7-12
									c0.3-0.2,0.6-0.4,0.9-0.5c4.6-2.8,18.2-10.8,18.2-10.8s-0.9,11.8,2.8,35.5c0,0,6.1,39.1,7.9,51.4
									c1.1,7.9,7.2,37.9,11.7,60.8c0.7,3.5-1.6,8.7-2.6,6.8c-22.1-41.3-37.9-78.8-45-96.6c-2.7-6.8-4.2-11-4.2-11L-376,222.8z"/>
								<g id="XMLID_3877_">
									<polygon id="XMLID_3879_" class="st6" points="-339.8,319.5 -343.7,331.5 -341.4,335.6 -339.2,322.8 									"/>
									<polygon id="XMLID_3878_" class="st7" points="-339.6,320.5 -342.5,333.7 -341.1,335.9 -338.3,323.1 									"/>
								</g>
								<g id="XMLID_3872_">
									<path id="XMLID_3876_" class="st6" d="M-315.7,298.4c13.3-27.5,28.4-63.6,28.4-63.6l-1.5-4.2l-55.7,119.2
										C-344.5,349.8-327.9,323.6-315.7,298.4z"/>
									<path id="XMLID_3875_" class="st7" d="M-344.5,350.3c0,0,17.6-30.9,31-58.6c13.4-27.7,25.6-58.7,25.6-58.7l-1-2.5
										l-55.7,119.2V350.3z"/>
									<polygon id="XMLID_3874_" class="st6" points="-300,224.4 -290.3,219.5 -291.9,214.9 -302,212.2 -308.6,221.8 
										-304.8,224.4 									"/>
									<polygon id="XMLID_3873_" class="st7" points="-300.5,223.4 -290.8,218.1 -292.4,213.2 -302.5,210.3 -309.1,220.6 
										-305.3,223.4 									"/>
								</g>
								<path id="XMLID_3871_" class="st4" d="M-302.3,222.8l10.8-6.3c0,0-0.1-0.9-3.2-9.2c-3-8.4-4.7-12-4.7-12
									c-0.3-0.2-0.6-0.4-0.9-0.5c-4.6-2.8-18.2-10.8-18.2-10.8s0.9,11.8-2.8,35.5c0,0-6.1,39.1-7.9,51.4
									c-1.5,10.4-11.3,58.5-15.3,79c25.4-45.7,43.5-88.6,51.2-108.1c2.7-6.8,4.2-11,4.2-11L-302.3,222.8z"/>
							</g>
							<g id="XMLID_3742_">
								<g id="XMLID_3854_">
									<path id="XMLID_3869_" class="st13" d="M-199,492.6l-3.4,0.3l-3.3,1c-0.2,0.1-0.1,0.4,0.1,0.4l3.4-0.3l3.3-1
										C-198.7,492.9-198.8,492.6-199,492.6z"/>
									<circle id="XMLID_3868_" class="st6" cx="-201.2" cy="493.3" r="2.6"/>
									<circle id="XMLID_3867_" class="st12" cx="-201.2" cy="493.2" r="2.5"/>
									<circle id="XMLID_3866_" class="st21" cx="-201.2" cy="492.9" r="2.5"/>
									<circle id="XMLID_3865_" class="st15" cx="-201.2" cy="492.9" r="2.1"/>
									<circle id="XMLID_3864_" class="st16" cx="-201.6" cy="492.3" r="0.3"/>
									<circle id="XMLID_3863_" class="st16" cx="-200.9" cy="493.9" r="0.3"/>
									<line id="XMLID_3862_" class="st22" x1="-201.7" y1="492.3" x2="-201" y2="493.9"/>
									<line id="XMLID_3861_" class="st22" x1="-201.5" y1="492.2" x2="-200.8" y2="493.8"/>
									<circle id="XMLID_3860_" class="st16" cx="-202" cy="493.5" r="0.3"/>
									<circle id="XMLID_3859_" class="st16" cx="-200.5" cy="492.7" r="0.3"/>
									<line id="XMLID_3856_" class="st22" x1="-202" y1="493.6" x2="-200.5" y2="492.8"/>
									<line id="XMLID_3855_" class="st22" x1="-202.1" y1="493.4" x2="-200.5" y2="492.6"/>
								</g>
								<g id="XMLID_3840_">
									<path id="XMLID_3853_" class="st13" d="M-200.1,487l-3.4,0.3l-3.3,1c-0.2,0.1-0.1,0.4,0.1,0.4l3.4-0.3l3.3-1
										C-199.8,487.3-199.8,487-200.1,487z"/>
									<circle id="XMLID_3852_" class="st6" cx="-202.3" cy="487.8" r="2.6"/>
									<circle id="XMLID_3851_" class="st12" cx="-202.2" cy="487.7" r="2.5"/>
									<circle id="XMLID_3850_" class="st21" cx="-202.3" cy="487.3" r="2.5"/>
									<circle id="XMLID_3849_" class="st15" cx="-202.3" cy="487.3" r="2.1"/>
									<circle id="XMLID_3848_" class="st16" cx="-202.7" cy="486.8" r="0.3"/>
									<circle id="XMLID_3847_" class="st16" cx="-201.9" cy="488.3" r="0.3"/>
									<line id="XMLID_3846_" class="st22" x1="-202.8" y1="486.8" x2="-202.1" y2="488.3"/>
									<line id="XMLID_3845_" class="st22" x1="-202.6" y1="486.7" x2="-201.9" y2="488.2"/>
									<circle id="XMLID_3844_" class="st16" cx="-203.1" cy="487.9" r="0.3"/>
									<circle id="XMLID_3843_" class="st16" cx="-201.6" cy="487.2" r="0.3"/>
									<line id="XMLID_3842_" class="st22" x1="-203.1" y1="488" x2="-201.6" y2="487.3"/>
									<line id="XMLID_3841_" class="st22" x1="-203.2" y1="487.8" x2="-201.6" y2="487.1"/>
								</g>
								<g id="XMLID_3811_">
									<path id="XMLID_3839_" class="st13" d="M-198.1,498.1l-3.4,0.3l-3.3,1c-0.2,0.1-0.1,0.4,0.1,0.4l3.4-0.3l3.3-1
										C-197.8,498.4-197.9,498.1-198.1,498.1z"/>
									<circle id="XMLID_3837_" class="st6" cx="-200.3" cy="498.9" r="2.6"/>
									<circle id="XMLID_3836_" class="st12" cx="-200.3" cy="498.8" r="2.5"/>
									<circle id="XMLID_3835_" class="st21" cx="-200.3" cy="498.5" r="2.5"/>
									<circle id="XMLID_3834_" class="st15" cx="-200.3" cy="498.5" r="2.1"/>
									<circle id="XMLID_3833_" class="st16" cx="-200.8" cy="497.9" r="0.3"/>
									<circle id="XMLID_3832_" class="st16" cx="-200" cy="499.4" r="0.3"/>
									<line id="XMLID_3831_" class="st22" x1="-200.9" y1="497.9" x2="-200.1" y2="499.4"/>
									<line id="XMLID_3826_" class="st22" x1="-200.7" y1="497.8" x2="-199.9" y2="499.3"/>
									<circle id="XMLID_3815_" class="st16" cx="-201.2" cy="499" r="0.3"/>
									<circle id="XMLID_3814_" class="st16" cx="-199.6" cy="498.3" r="0.3"/>
									<line id="XMLID_3813_" class="st22" x1="-201.2" y1="499.2" x2="-199.6" y2="498.4"/>
									<line id="XMLID_3812_" class="st22" x1="-201.2" y1="499" x2="-199.7" y2="498.2"/>
								</g>
								<g id="XMLID_3809_">
									<path id="XMLID_3810_" class="st13" d="M-196.8,502.2l-2.4,0.3c-0.7,0.1-1.3,0.2-2,0.4l-2.3,0.6c-0.2,0.1-0.1,0.4,0.1,0.4
										l2.3-0.3c0.7-0.1,1.3-0.2,2-0.4l2.4-0.6C-196.5,502.5-196.6,502.2-196.8,502.2z"/>
								</g>
								<g id="XMLID_3788_">
									<path id="XMLID_3808_" class="st13" d="M-477.9,492.6l3.4,0.3l3.3,1c0.2,0.1,0.1,0.4-0.1,0.4l-3.4-0.3l-3.3-1
										C-478.2,492.9-478.1,492.6-477.9,492.6z"/>
									<circle id="XMLID_3807_" class="st6" cx="-475.7" cy="493.3" r="2.6"/>
									<circle id="XMLID_3806_" class="st12" cx="-475.7" cy="493.2" r="2.5"/>
									<circle id="XMLID_3805_" class="st21" cx="-475.7" cy="492.9" r="2.5"/>
									<circle id="XMLID_3804_" class="st15" cx="-475.7" cy="492.9" r="2.1"/>
									<circle id="XMLID_3803_" class="st16" cx="-475.3" cy="492.3" r="0.3"/>
									<circle id="XMLID_3802_" class="st16" cx="-476" cy="493.9" r="0.3"/>
									<line id="XMLID_3795_" class="st22" x1="-475.1" y1="492.3" x2="-475.9" y2="493.9"/>
									<line id="XMLID_3794_" class="st22" x1="-475.3" y1="492.2" x2="-476.1" y2="493.8"/>
									<circle id="XMLID_3793_" class="st16" cx="-474.9" cy="493.5" r="0.3"/>
									<circle id="XMLID_3792_" class="st16" cx="-476.4" cy="492.7" r="0.3"/>
									<line id="XMLID_3790_" class="st22" x1="-474.9" y1="493.6" x2="-476.4" y2="492.8"/>
									<line id="XMLID_3789_" class="st22" x1="-474.8" y1="493.4" x2="-476.3" y2="492.6"/>
								</g>
								<g id="XMLID_3759_">
									<path id="XMLID_3787_" class="st13" d="M-476.8,487l3.4,0.3l3.3,1c0.2,0.1,0.1,0.4-0.1,0.4l-3.4-0.3l-3.3-1
										C-477.1,487.3-477,487-476.8,487z"/>
									<circle id="XMLID_3786_" class="st6" cx="-474.6" cy="487.8" r="2.6"/>
									<circle id="XMLID_3785_" class="st12" cx="-474.6" cy="487.7" r="2.5"/>
									<circle id="XMLID_3784_" class="st21" cx="-474.6" cy="487.3" r="2.5"/>
									<circle id="XMLID_3783_" class="st15" cx="-474.6" cy="487.3" r="2.1"/>
									<circle id="XMLID_3782_" class="st16" cx="-474.2" cy="486.8" r="0.3"/>
									<circle id="XMLID_3781_" class="st16" cx="-474.9" cy="488.3" r="0.3"/>
									<line id="XMLID_3766_" class="st22" x1="-474" y1="486.8" x2="-474.8" y2="488.3"/>
									<line id="XMLID_3765_" class="st22" x1="-474.2" y1="486.7" x2="-475" y2="488.2"/>
									<circle id="XMLID_3763_" class="st16" cx="-473.8" cy="487.9" r="0.3"/>
									<circle id="XMLID_3762_" class="st16" cx="-475.3" cy="487.2" r="0.3"/>
									<line id="XMLID_3761_" class="st22" x1="-473.8" y1="488" x2="-475.3" y2="487.3"/>
									<line id="XMLID_3760_" class="st22" x1="-473.7" y1="487.8" x2="-475.2" y2="487.1"/>
								</g>
								<g id="XMLID_3745_">
									<path id="XMLID_3758_" class="st13" d="M-478.7,498.1l3.4,0.3l3.3,1c0.2,0.1,0.1,0.4-0.1,0.4l-3.4-0.3l-3.3-1
										C-479,498.4-479,498.1-478.7,498.1z"/>
									<circle id="XMLID_3757_" class="st6" cx="-476.5" cy="498.9" r="2.6"/>
									<circle id="XMLID_3756_" class="st12" cx="-476.6" cy="498.8" r="2.5"/>
									<circle id="XMLID_3755_" class="st21" cx="-476.5" cy="498.5" r="2.5"/>
									<circle id="XMLID_3754_" class="st15" cx="-476.5" cy="498.5" r="2.1"/>
									<circle id="XMLID_3753_" class="st16" cx="-476.1" cy="497.9" r="0.3"/>
									<circle id="XMLID_3752_" class="st16" cx="-476.9" cy="499.4" r="0.3"/>
									<line id="XMLID_3751_" class="st22" x1="-476" y1="497.9" x2="-476.7" y2="499.4"/>
									<line id="XMLID_3750_" class="st22" x1="-476.2" y1="497.8" x2="-476.9" y2="499.3"/>
									<circle id="XMLID_3749_" class="st16" cx="-475.7" cy="499" r="0.3"/>
									<circle id="XMLID_3748_" class="st16" cx="-477.2" cy="498.3" r="0.3"/>
									<line id="XMLID_3747_" class="st22" x1="-475.7" y1="499.2" x2="-477.2" y2="498.4"/>
									<line id="XMLID_3746_" class="st22" x1="-475.6" y1="499" x2="-477.2" y2="498.2"/>
								</g>
								<g id="XMLID_3743_">
									<path id="XMLID_3744_" class="st13" d="M-480.1,502.2l2.4,0.3c0.7,0.1,1.3,0.2,2,0.4l2.3,0.6c0.2,0.1,0.1,0.4-0.1,0.4
										l-2.3-0.3c-0.7-0.1-1.3-0.2-2-0.4l-2.4-0.6C-480.3,502.5-480.3,502.2-480.1,502.2z"/>
								</g>
							</g>
						</g>
					</g>
					<g>
						<g>
							<defs>
								<circle id="SVGID_6_" cx="-339" cy="401" r="150"/>
							</defs>
							<clipPath id="SVGID_7_">
								<use xlink:href="#SVGID_6_"  style="overflow:visible;"/>
							</clipPath>
							<g class="st23">
								<path class="st24" d="M-339,256c38.7,0,75.1,15.1,102.5,42.5c27.4,27.4,42.5,63.8,42.5,102.5s-15.1,75.1-42.5,102.5
									C-263.9,530.9-300.3,546-339,546s-75.1-15.1-102.5-42.5S-484,439.7-484,401s15.1-75.1,42.5-102.5
									C-414.1,271.1-377.7,256-339,256 M-339,251c-82.8,0-150,67.2-150,150s67.2,150,150,150s150-67.2,150-150S-256.2,251-339,251
									L-339,251z"/>
							</g>
						</g>
					</g>
				</g>
			</g>
		</g>
	</g>
</g>
</svg>
