<?xml version="1.0" encoding="utf-8"?>
<!-- Generator: Adobe Illustrator 19.0.0, SVG Export Plug-In . SVG Version: 6.00 Build 0)  -->
<svg version="1.1" id="Layer_1" xmlns="http://www.w3.org/2000/svg" xmlns:xlink="http://www.w3.org/1999/xlink" x="0px" y="0px"
	 viewBox="-489 251 300 300" style="enable-background:new -489 251 300 300;" xml:space="preserve">
<style type="text/css">
	.st0{fill:#DDDDDD;}
	.st1{clip-path:url(#SVGID_3_);}
	.st2{clip-path:url(#SVGID_5_);}
	.st3{fill:#F1F1F2;stroke:#404041;stroke-miterlimit:10;}
	.st4{fill:#FFFFFF;stroke:#404041;stroke-miterlimit:10;}
	.st5{fill:#929497;}
	.st6{fill:#F1F1F2;}
	.st7{fill:#C5C7C9;}
	.st8{fill:none;stroke:#404041;stroke-miterlimit:10;}
	.st9{fill:none;stroke:#808184;stroke-width:0.5;stroke-miterlimit:10;}
	.st10{fill:none;stroke:#808184;stroke-width:0.5;stroke-miterlimit:10;stroke-dasharray:0.9963,1.9927;}
	.st11{fill:none;stroke:#808184;stroke-width:0.5;stroke-miterlimit:10;stroke-dasharray:1,2;}
	.st12{fill:#DBDCDD;}
	.st13{fill:#404041;stroke:#D0D2D3;stroke-width:0.5;stroke-miterlimit:10;}
	.st14{fill:#FFFFFF;stroke:#6D6E70;stroke-miterlimit:10;}
	.st15{fill:#FFFFFF;stroke:#929497;stroke-width:0.25;stroke-miterlimit:10;}
	.st16{fill:#404041;}
	.st17{fill:none;stroke:#6D6E70;stroke-width:0.5;stroke-miterlimit:10;}
	.st18{fill:none;stroke:#808184;stroke-width:0.5;stroke-miterlimit:10;stroke-dasharray:0.9911,1.9822;}
	.st19{fill:none;stroke:#808184;stroke-width:0.5;stroke-miterlimit:10;stroke-dasharray:1.0146,2.0293;}
	.st20{fill:#FFFFFF;stroke:#6D6E70;stroke-width:0.5;stroke-miterlimit:10;}
	.st21{fill:none;stroke:#6D6E70;stroke-width:0.25;stroke-miterlimit:10;}
	.st22{clip-path:url(#SVGID_9_);}
	.st23{fill:#9AA0BB;}
</style>
<g>
	<g>
		<circle id="SVGID_1_" class="st0" cx="-338.9" cy="400.6" r="150"/>
	</g>
	<g>
		<defs>
			<circle id="SVGID_2_" cx="-338.9" cy="400.6" r="150"/>
		</defs>
		<clipPath id="SVGID_3_">
			<use xlink:href="#SVGID_2_"  style="overflow:visible;"/>
		</clipPath>
		<g class="st1">
			<g id="XMLID_4081_">
				<defs>
					<rect id="SVGID_4_" x="-489" y="250.6" width="300" height="300"/>
				</defs>
				<clipPath id="SVGID_5_">
					<use xlink:href="#SVGID_4_"  style="overflow:visible;"/>
				</clipPath>
				<g id="XMLID_1592_" class="st2">
					<g id="XMLID_1881_">
						<g id="XMLID_1969_">
							<polygon id="XMLID_2256_" class="st3" points="-318.9,186.9 -310.7,196.1 -341.2,331.8 -367.4,196.1 -359.6,186.9 							"/>
							<path id="XMLID_2255_" class="st4" d="M-318.5,182.5c0,0,0.1-0.5-20.5-0.5c-0.1,0-0.1,0-0.2,0c-0.1,0-0.1,0-0.2,0
								c-20.6,0-20.5,0.5-20.5,0.5l-2.5,9c0,0,3.4,0.8,11.5,1.2c3.2,0.1,7.2,0.2,11.9,0.2c4.7,0,8.3-0.1,11.5-0.2
								c8.1-0.3,11.5-1.2,11.5-1.2L-318.5,182.5z"/>
							<g id="XMLID_2251_">
								<path id="XMLID_2254_" class="st5" d="M-356.3,182.3c0,0-2.1,2.4-2,5.4c0.2,3,0.3,4.1,0.3,4.1h-2.3l0.2-9.2L-356.3,182.3z"
									/>
								<path id="XMLID_2253_" class="st6" d="M-355.4,182.3c-0.6,0-1,0-1.5,0.1c-1.2,2-1.2,7.7-1.2,9.7c0.7,0.1,1.4,0.1,2.2,0.2
									c-0.1-0.6-0.3-1.9-0.3-4.2C-356.2,185.2-355.7,183.2-355.4,182.3z"/>
								<path id="XMLID_2252_" class="st7" d="M-356.7,182.3c-0.3,0-0.6,0-0.8,0c-0.5,0.4-1,1.1-1.1,2.4c-0.2,2.5-0.4,5.8-0.4,7.2
									c0.6,0.1,1.4,0.1,2.2,0.2C-357.2,190-357.9,184.2-356.7,182.3z"/>
							</g>
							<g id="XMLID_1983_">
								<path id="XMLID_2250_" class="st5" d="M-322.4,182.3c0,0,2.1,2.4,2,5.4c-0.2,3-0.3,4.1-0.3,4.1h2.3l-0.2-9.2L-322.4,182.3z"
									/>
								<path id="XMLID_1985_" class="st6" d="M-323.3,182.3c0.6,0,1,0,1.5,0.1c1.2,2,1.2,7.7,1.2,9.7c-0.7,0.1-1.4,0.1-2.2,0.2
									c0.1-0.6,0.3-1.9,0.3-4.2C-322.6,185.2-323.1,183.2-323.3,182.3z"/>
								<path id="XMLID_1984_" class="st7" d="M-322,182.3c0.3,0,0.6,0,0.8,0c0.5,0.4,1,1.1,1.1,2.4c0.2,2.5,0.4,5.8,0.4,7.2
									c-0.6,0.1-1.4,0.1-2.2,0.2C-321.5,190-320.8,184.2-322,182.3z"/>
							</g>
							<path id="XMLID_1982_" class="st8" d="M-318.5,182.5c0,0,0.1-0.5-20.5-0.5c-0.1,0-0.1,0-0.2,0c-0.1,0-0.1,0-0.2,0
								c-20.6,0-20.5,0.5-20.5,0.5l-2.5,9c0,0,3.4,0.8,11.5,1.2c3.2,0.1,7.2,0.2,11.9,0.2c4.7,0,8.3-0.1,11.5-0.2
								c8.1-0.3,11.5-1.2,11.5-1.2L-318.5,182.5z"/>
							<g id="XMLID_1979_">
								<polygon id="XMLID_1981_" class="st5" points="-358.5,210.5 -339.1,302.8 -320,210.5 -332.5,318.7 -339.7,326.4 
									-345.5,317.7 								"/>
								<polygon id="XMLID_1980_" class="st7" points="-339.3,314.8 -319.5,206.4 -339.1,302.3 -359,206.4 								"/>
							</g>
							<g id="XMLID_1973_">
								<g>
									<line class="st9" x1="-339.1" y1="194.1" x2="-339.1" y2="194.6"/>
									<line class="st10" x1="-339.1" y1="196.6" x2="-339.1" y2="321.1"/>
									<line class="st9" x1="-339.1" y1="322.1" x2="-339.1" y2="322.6"/>
								</g>
							</g>
							<path id="XMLID_1972_" class="st5" d="M-349.7,196.3l0.7,0.8c0,0,5.3-0.4,9.9-0.4c4.5,0,10.2,0.4,10.2,0.4l0.5-0.8H-349.7z"
								/>
							<path id="XMLID_1971_" class="st7" d="M-349.2,196.9l0.5,0.6c0,0,5-0.4,9.5-0.4c4.4,0,10,0.4,10,0.4l0.3-0.6l-10.3-0.2
								L-349.2,196.9z"/>
							<path id="XMLID_1970_" class="st4" d="M-339.1,192.9c-4.7,0-8.6,0-11.8-0.2l1.3,3.6h10.4h0.1h10.4l1.3-3.6
								C-330.4,192.9-334.3,192.9-339.1,192.9z"/>
						</g>
						<path id="XMLID_1968_" class="st3" d="M-328.6,518.7c0-0.6,0-20.8,0-20.8h-20.9v20.8H-328.6z"/>
						<g id="XMLID_1965_">
							<polygon id="XMLID_1967_" class="st5" points="-338.9,505.6 -347,523.7 -339.1,494.8 -330.8,524.1 							"/>
							<polygon id="XMLID_1966_" class="st7" points="-339.1,509.2 -347,523.7 -339.1,503.1 -330.8,524.1 							"/>
						</g>
						<path id="XMLID_1963_" class="st4" d="M-327.9,396.2c-1.9-43.3-4-31.7-4-31.7l-3.7-31.1l-2.9-6.3c-4.5-22.4-10-50-11.1-57.6
							c-1.8-12.3-7.9-51.4-7.9-51.4c-3.7-23.7-2.1-35.5-2.1-35.5s-17.8,10.2-21.4,12.6c-1.9,1.3-18.3,8.5-32.3,14.9
							c-17,7.9-19.3,12-19.3,12c13.1,8.1,15.8,37.2,16,71.4s-9.2,92.5-10.4,122.9c-1.2,31.5-7.7,108.9-7.7,108.9
							s56.2,14.4,71.6,10.1c15.4-4.2,16.6-12.8,19.6-20.8l4.5-15.8C-338.9,498.8-326,439.5-327.9,396.2z"/>
						<g id="XMLID_1960_">
							<path id="XMLID_1962_" class="st6" d="M-416.4,355.1c5-33.9,2.8-61.1-0.6-82.4c0.7,4.2,1,11.6,1.1,12.7
								c0.6,7.2,1.2,14.6,1,21.7c-0.1,15-1.2,32.2-3.9,51.1c-2.3,16.2-4,23.4-5.3,26.1c-0.2,2.3-0.5,4.5-0.7,6.7
								C-421.7,391-419.6,376.9-416.4,355.1z"/>
							<path id="XMLID_1961_" class="st7" d="M-419.4,341.4c-1.5,14.6-3.2,29.5-4.7,43.1c1.2-2.8,3-10,5.3-26.1
								c2.7-18.9,4-34.3,4-59.7l0-0.1c0.3-9.2-2.2-26.2-2.2-25.5C-415.6,293.5-418,329.3-419.4,341.4z"/>
						</g>
						<path id="XMLID_1959_" class="st4" d="M-416.6,293.6c-0.2-32.1-2.6-59.7-13.7-69.7l-2.3-1.3c0,0-3.5-1.2-7.3,16.4
							c-3.7,17.6-43.4,267-43.4,267s6.6,5.7,20.3,6.2c13.7,0.5,20.6-2.9,20.6-2.9l21.5-155.6C-418.6,332-416.5,310-416.6,293.6z"/>
						<g id="XMLID_1956_">
							<path id="XMLID_1958_" class="st6" d="M-338.6,321.5c0,0-15.5,36.9-15.5,89.2s17.3,90.2,17.3,90.2l-1.8-63.5l2.5-111.3
								L-338.6,321.5z"/>
							<path id="XMLID_1957_" class="st7" d="M-336.4,321.5c0,0-15.5,36.9-15.5,89.2s17.3,90.2,17.3,90.2l-1.8-63.5l2.5-111.3
								L-336.4,321.5z"/>
						</g>
						<g id="XMLID_1886_">
							<path id="XMLID_1955_" class="st4" d="M-261.4,293.6c0.3-34.2,3-63.3,16-71.4c0,0-2.4-4.2-19.3-12
								c-16-7.4-29.4-13.2-34.7-16.2c-0.3-0.2-0.6-0.4-0.9-0.5c-4.6-2.8-18.2-10.8-18.2-10.8s0.9,11.8-2.8,35.5
								c0,0-6.1,39.1-7.9,51.4c-1.8,12.3-15.2,77.3-16.8,87c-0.4,2.5-0.8,4.9-1.2,7.1c-0.7,4.7-1.3,9-1.6,10.5
								c-0.4,5-0.9,12-1.3,22.1c-1.9,43.3,11,102.6,11,102.6l4.7,16c3,8,4.1,16.4,19.4,20.6c15.4,4.2,70.3-10.1,70.3-10.1
								s-4.4-77.3-5.7-108.9C-251.5,386.1-261.7,327.8-261.4,293.6z"/>
							<polygon id="XMLID_1954_" class="st6" points="-270.4,297 -270.4,294.9 -319.4,296.3 -319.4,298.4 							"/>
							<polygon id="XMLID_1953_" class="st7" points="-270.4,297.8 -270.4,295.7 -319.4,297.1 -319.4,299.2 							"/>
							<polygon id="XMLID_1952_" class="st4" points="-270.5,296.6 -270.5,308.6 -318.8,309.7 -318.8,298 							"/>
							<line id="XMLID_1951_" class="st11" x1="-318.8" y1="298.5" x2="-270.5" y2="297.1"/>
							<g id="XMLID_1901_">
								<g id="XMLID_1935_">
									<circle id="XMLID_1950_" class="st6" cx="-337.1" cy="382.6" r="4.9"/>
									<circle id="XMLID_1949_" class="st12" cx="-337" cy="382.4" r="4.7"/>
									<polygon id="XMLID_1948_" class="st13" points="-330.9,382.3 -337,381.1 -343.7,382.3 -336.9,383.5 									"/>
									<circle id="XMLID_1947_" class="st14" cx="-337.1" cy="381.8" r="4.7"/>
									<circle id="XMLID_1946_" class="st15" cx="-337.1" cy="381.8" r="4.1"/>
									<circle id="XMLID_1945_" class="st16" cx="-337.9" cy="380.7" r="0.6"/>
									<circle id="XMLID_1944_" class="st16" cx="-336.5" cy="383.7" r="0.6"/>
									<line id="XMLID_1943_" class="st17" x1="-338.1" y1="380.7" x2="-336.7" y2="383.7"/>
									<line id="XMLID_1942_" class="st17" x1="-337.8" y1="380.6" x2="-336.3" y2="383.5"/>
									<line id="XMLID_1941_" class="st17" x1="-338.1" y1="380.7" x2="-336.7" y2="383.7"/>
									<line id="XMLID_1940_" class="st17" x1="-337.8" y1="380.6" x2="-336.3" y2="383.5"/>
									<circle id="XMLID_1939_" class="st16" cx="-338.7" cy="382.9" r="0.6"/>
									<circle id="XMLID_1938_" class="st16" cx="-335.7" cy="381.5" r="0.6"/>
									<line id="XMLID_1937_" class="st17" x1="-338.7" y1="383.1" x2="-335.7" y2="381.7"/>
									<line id="XMLID_1936_" class="st17" x1="-338.8" y1="382.8" x2="-335.9" y2="381.3"/>
								</g>
								<g id="XMLID_1919_">
									<circle id="XMLID_1934_" class="st6" cx="-337.1" cy="341" r="4.9"/>
									<circle id="XMLID_1933_" class="st12" cx="-337" cy="340.8" r="4.7"/>
									<polygon id="XMLID_1932_" class="st13" points="-330.9,340.6 -337,339.5 -343.7,340.6 -336.9,341.8 									"/>
									<circle id="XMLID_1931_" class="st14" cx="-337.1" cy="340.2" r="4.7"/>
									<circle id="XMLID_1930_" class="st15" cx="-337.1" cy="340.2" r="4.1"/>
									<circle id="XMLID_1929_" class="st16" cx="-337.9" cy="339.1" r="0.6"/>
									<circle id="XMLID_1928_" class="st16" cx="-336.5" cy="342" r="0.6"/>
									<line id="XMLID_1927_" class="st17" x1="-338.1" y1="339.1" x2="-336.7" y2="342"/>
									<line id="XMLID_1926_" class="st17" x1="-337.8" y1="338.9" x2="-336.3" y2="341.9"/>
									<line id="XMLID_1925_" class="st17" x1="-338.1" y1="339.1" x2="-336.7" y2="342"/>
									<line id="XMLID_1924_" class="st17" x1="-337.8" y1="338.9" x2="-336.3" y2="341.9"/>
									<circle id="XMLID_1923_" class="st16" cx="-338.7" cy="341.3" r="0.6"/>
									<circle id="XMLID_1922_" class="st16" cx="-335.7" cy="339.8" r="0.6"/>
									<line id="XMLID_1921_" class="st17" x1="-338.7" y1="341.5" x2="-335.7" y2="340.1"/>
									<line id="XMLID_1920_" class="st17" x1="-338.8" y1="341.1" x2="-335.9" y2="339.7"/>
								</g>
								<g id="XMLID_1902_">
									<circle id="XMLID_1918_" class="st6" cx="-337.1" cy="424.3" r="4.9"/>
									<circle id="XMLID_1917_" class="st12" cx="-337" cy="424.1" r="4.7"/>
									<polygon id="XMLID_1916_" class="st13" points="-330.9,423.9 -337,422.7 -343.7,423.9 -336.9,425.1 									"/>
									<circle id="XMLID_1915_" class="st14" cx="-337.1" cy="423.4" r="4.7"/>
									<circle id="XMLID_1914_" class="st15" cx="-337.1" cy="423.4" r="4.1"/>
									<circle id="XMLID_1913_" class="st16" cx="-337.9" cy="422.4" r="0.6"/>
									<circle id="XMLID_1912_" class="st16" cx="-336.5" cy="425.3" r="0.6"/>
									<line id="XMLID_1911_" class="st17" x1="-338.1" y1="422.4" x2="-336.7" y2="425.3"/>
									<line id="XMLID_1910_" class="st17" x1="-337.8" y1="422.2" x2="-336.3" y2="425.1"/>
									<line id="XMLID_1908_" class="st17" x1="-338.1" y1="422.4" x2="-336.7" y2="425.3"/>
									<line id="XMLID_1907_" class="st17" x1="-337.8" y1="422.2" x2="-336.3" y2="425.1"/>
									<circle id="XMLID_1906_" class="st16" cx="-338.7" cy="424.6" r="0.6"/>
									<circle id="XMLID_1905_" class="st16" cx="-335.7" cy="423.1" r="0.6"/>
									<line id="XMLID_1904_" class="st17" x1="-338.7" y1="424.8" x2="-335.7" y2="423.4"/>
									<line id="XMLID_1903_" class="st17" x1="-338.8" y1="424.4" x2="-335.9" y2="423"/>
								</g>
							</g>
							<g id="XMLID_1894_">
								<g id="XMLID_1895_">
									<g>
										<line class="st9" x1="-290.6" y1="319.1" x2="-290.6" y2="319.6"/>
										<line class="st18" x1="-290.6" y1="321.5" x2="-290.6" y2="415.7"/>
										<line class="st9" x1="-290.6" y1="416.7" x2="-290.6" y2="417.2"/>
									</g>
								</g>
							</g>
							<g id="XMLID_1887_">
								<g id="XMLID_1888_">
									<g>
										<line class="st9" x1="-399.5" y1="319.1" x2="-399.5" y2="319.6"/>
										<line class="st19" x1="-399.5" y1="321.6" x2="-399.5" y2="414.9"/>
										<line class="st9" x1="-399.5" y1="415.9" x2="-399.5" y2="416.4"/>
									</g>
								</g>
							</g>
						</g>
						<g id="XMLID_1883_">
							<path id="XMLID_1885_" class="st6" d="M-261.7,355.1c-5-33.9-2.8-61.1,0.6-82.4c-0.7,4.2-1,11.6-1.1,12.7
								c-0.6,7.2-1.2,14.6-1,21.7c0.1,15,1.2,32.2,3.9,51.1c2.3,16.2,4,23.4,5.3,26.1c0.2,2.3,0.5,4.5,0.7,6.7
								C-256.4,391-258.5,376.9-261.7,355.1z"/>
							<path id="XMLID_1884_" class="st7" d="M-258.6,341.4c1.5,14.6,3.2,29.5,4.7,43.1c-1.2-2.8-3-10-5.3-26.1
								c-2.7-18.9-4-34.3-4-59.7l0-0.1c-0.3-9.2,2.2-26.2,2.2-25.5C-262.4,293.5-260.1,329.3-258.6,341.4z"/>
						</g>
						<path id="XMLID_1882_" class="st4" d="M-238.1,238.5c-3.7-17.6-7.3-16.4-7.3-16.4l0,0c-13.1,8.1-15.8,37.2-16,71.4
							c-0.1,15.9,1.9,37.1,4.1,58.2l21.7,157.2c0,0,6.9,3.4,20.6,2.9c13.7-0.5,20.3-6.2,20.3-6.2S-234.4,256.1-238.1,238.5z"/>
					</g>
					<g id="XMLID_1865_">
						<g id="XMLID_1876_">
							<path id="XMLID_1880_" class="st6" d="M-362.7,297.1c-13.3-27.5-28.4-63.6-28.4-63.6l1.5-4.2l49.8,106.7c0,0,0.7,4.1-0.8,1.6
								C-346.5,327.6-355.4,312.1-362.7,297.1z"/>
							<path id="XMLID_1879_" class="st7" d="M-340.8,336.5c-6.4-11.6-16-29.4-24-46c-13.4-27.7-25.6-58.7-25.6-58.7l1-2.5
								l49.4,105.7C-340.1,335-340.6,337-340.8,336.5z"/>
							<polygon id="XMLID_1878_" class="st6" points="-378.4,223.1 -388,218.2 -386.5,213.6 -376.4,210.9 -369.8,220.5 
								-373.6,223.1 							"/>
							<polygon id="XMLID_1877_" class="st7" points="-377.9,222.1 -387.5,216.8 -385.9,212 -375.9,209 -369.3,219.3 -373.1,222.1 
															"/>
						</g>
						<path id="XMLID_1875_" class="st4" d="M-376,221.5l-10.8-6.3c0,0,0.1-0.9,3.2-9.2c3-8.4,4.7-12,4.7-12
							c0.3-0.2,0.6-0.4,0.9-0.5c4.6-2.8,18.2-10.8,18.2-10.8s-0.9,11.8,2.8,35.5c0,0,6.1,39.1,7.9,51.4c1.1,7.9,7.2,37.9,11.7,60.8
							c0.7,3.5-1.6,8.7-2.6,6.8c-22.1-41.3-37.9-78.8-45-96.6c-2.7-6.8-4.2-11-4.2-11L-376,221.5z"/>
						<g id="XMLID_1872_">
							<polygon id="XMLID_1874_" class="st6" points="-339.8,318.2 -343.7,330.2 -341.4,334.3 -339.2,321.6 							"/>
							<polygon id="XMLID_1873_" class="st7" points="-339.6,319.3 -342.5,332.4 -341.1,334.7 -338.3,321.9 							"/>
						</g>
						<g id="XMLID_1867_">
							<path id="XMLID_1871_" class="st6" d="M-315.7,297.1c13.3-27.5,28.4-63.6,28.4-63.6l-1.5-4.2l-55.7,119.2
								C-344.5,348.5-327.9,322.3-315.7,297.1z"/>
							<path id="XMLID_1870_" class="st7" d="M-344.5,349c0,0,17.6-30.9,31-58.6c13.4-27.7,25.6-58.7,25.6-58.7l-1-2.5l-55.7,119.2
								V349z"/>
							<polygon id="XMLID_1869_" class="st6" points="-300,223.1 -290.3,218.2 -291.9,213.6 -302,210.9 -308.6,220.5 -304.8,223.1 
															"/>
							<polygon id="XMLID_1868_" class="st7" points="-300.5,222.1 -290.8,216.8 -292.4,212 -302.5,209 -309.1,219.3 -305.3,222.1 
															"/>
						</g>
						<path id="XMLID_1866_" class="st4" d="M-302.3,221.5l10.8-6.3c0,0-0.1-0.9-3.2-9.2c-3-8.4-4.7-12-4.7-12
							c-0.3-0.2-0.6-0.4-0.9-0.5c-4.6-2.8-18.2-10.8-18.2-10.8s0.9,11.8-2.8,35.5c0,0-6.1,39.1-7.9,51.4
							c-1.5,10.4-11.3,58.5-15.3,79c25.4-45.7,43.5-88.6,51.2-108.1c2.7-6.8,4.2-11,4.2-11L-302.3,221.5z"/>
					</g>
					<g id="XMLID_1593_">
						<g id="XMLID_1851_">
							<path id="XMLID_1864_" class="st13" d="M-199,491.3l-3.4,0.3l-3.3,1c-0.2,0.1-0.1,0.4,0.1,0.4l3.4-0.3l3.3-1
								C-198.7,491.6-198.8,491.3-199,491.3z"/>
							<circle id="XMLID_1863_" class="st6" cx="-201.2" cy="492" r="2.6"/>
							<circle id="XMLID_1862_" class="st12" cx="-201.2" cy="491.9" r="2.5"/>
							<circle id="XMLID_1861_" class="st20" cx="-201.2" cy="491.6" r="2.5"/>
							<circle id="XMLID_1860_" class="st15" cx="-201.2" cy="491.6" r="2.1"/>
							<circle id="XMLID_1859_" class="st16" cx="-201.6" cy="491" r="0.3"/>
							<circle id="XMLID_1858_" class="st16" cx="-200.9" cy="492.6" r="0.3"/>
							<line id="XMLID_1857_" class="st21" x1="-201.7" y1="491" x2="-201" y2="492.6"/>
							<line id="XMLID_1856_" class="st21" x1="-201.5" y1="491" x2="-200.8" y2="492.5"/>
							<circle id="XMLID_1855_" class="st16" cx="-202" cy="492.2" r="0.3"/>
							<circle id="XMLID_1854_" class="st16" cx="-200.5" cy="491.4" r="0.3"/>
							<line id="XMLID_1853_" class="st21" x1="-202" y1="492.3" x2="-200.5" y2="491.6"/>
							<line id="XMLID_1852_" class="st21" x1="-202.1" y1="492.1" x2="-200.5" y2="491.4"/>
						</g>
						<g id="XMLID_1837_">
							<path id="XMLID_1850_" class="st13" d="M-200.1,485.7l-3.4,0.3l-3.3,1c-0.2,0.1-0.1,0.4,0.1,0.4l3.4-0.3l3.3-1
								C-199.8,486-199.8,485.7-200.1,485.7z"/>
							<circle id="XMLID_1849_" class="st6" cx="-202.3" cy="486.5" r="2.6"/>
							<circle id="XMLID_1848_" class="st12" cx="-202.2" cy="486.4" r="2.5"/>
							<circle id="XMLID_1847_" class="st20" cx="-202.3" cy="486" r="2.5"/>
							<circle id="XMLID_1846_" class="st15" cx="-202.3" cy="486" r="2.1"/>
							<circle id="XMLID_1845_" class="st16" cx="-202.7" cy="485.5" r="0.3"/>
							<circle id="XMLID_1844_" class="st16" cx="-201.9" cy="487" r="0.3"/>
							<line id="XMLID_1843_" class="st21" x1="-202.8" y1="485.5" x2="-202.1" y2="487"/>
							<line id="XMLID_1842_" class="st21" x1="-202.6" y1="485.4" x2="-201.9" y2="486.9"/>
							<circle id="XMLID_1841_" class="st16" cx="-203.1" cy="486.6" r="0.3"/>
							<circle id="XMLID_1840_" class="st16" cx="-201.6" cy="485.9" r="0.3"/>
							<line id="XMLID_1839_" class="st21" x1="-203.1" y1="486.7" x2="-201.6" y2="486"/>
							<line id="XMLID_1838_" class="st21" x1="-203.2" y1="486.5" x2="-201.6" y2="485.8"/>
						</g>
						<g id="XMLID_1823_">
							<path id="XMLID_1836_" class="st13" d="M-198.1,496.8l-3.4,0.3l-3.3,1c-0.2,0.1-0.1,0.4,0.1,0.4l3.4-0.3l3.3-1
								C-197.8,497.1-197.9,496.8-198.1,496.8z"/>
							<circle id="XMLID_1835_" class="st6" cx="-200.3" cy="497.6" r="2.6"/>
							<circle id="XMLID_1834_" class="st12" cx="-200.3" cy="497.5" r="2.5"/>
							<circle id="XMLID_1833_" class="st20" cx="-200.3" cy="497.2" r="2.5"/>
							<circle id="XMLID_1832_" class="st15" cx="-200.3" cy="497.2" r="2.1"/>
							<circle id="XMLID_1831_" class="st16" cx="-200.8" cy="496.6" r="0.3"/>
							<circle id="XMLID_1830_" class="st16" cx="-200" cy="498.1" r="0.3"/>
							<line id="XMLID_1829_" class="st21" x1="-200.9" y1="496.6" x2="-200.1" y2="498.1"/>
							<line id="XMLID_1828_" class="st21" x1="-200.7" y1="496.5" x2="-199.9" y2="498.1"/>
							<circle id="XMLID_1827_" class="st16" cx="-201.2" cy="497.7" r="0.3"/>
							<circle id="XMLID_1826_" class="st16" cx="-199.6" cy="497" r="0.3"/>
							<line id="XMLID_1825_" class="st21" x1="-201.2" y1="497.9" x2="-199.6" y2="497.1"/>
							<line id="XMLID_1824_" class="st21" x1="-201.2" y1="497.7" x2="-199.7" y2="496.9"/>
						</g>
						<g id="XMLID_1821_">
							<path id="XMLID_1822_" class="st13" d="M-196.8,500.9l-2.4,0.3c-0.7,0.1-1.3,0.2-2,0.4l-2.3,0.6c-0.2,0.1-0.1,0.4,0.1,0.4
								l2.3-0.3c0.7-0.1,1.3-0.2,2-0.4l2.4-0.6C-196.5,501.2-196.6,500.9-196.8,500.9z"/>
						</g>
						<g id="XMLID_1624_">
							<path id="XMLID_1820_" class="st13" d="M-477.9,491.3l3.4,0.3l3.3,1c0.2,0.1,0.1,0.4-0.1,0.4l-3.4-0.3l-3.3-1
								C-478.2,491.6-478.1,491.3-477.9,491.3z"/>
							<circle id="XMLID_1819_" class="st6" cx="-475.7" cy="492" r="2.6"/>
							<circle id="XMLID_1818_" class="st12" cx="-475.7" cy="491.9" r="2.5"/>
							<circle id="XMLID_1817_" class="st20" cx="-475.7" cy="491.6" r="2.5"/>
							<circle id="XMLID_1633_" class="st15" cx="-475.7" cy="491.6" r="2.1"/>
							<circle id="XMLID_1632_" class="st16" cx="-475.3" cy="491" r="0.3"/>
							<circle id="XMLID_1631_" class="st16" cx="-476" cy="492.6" r="0.3"/>
							<line id="XMLID_1630_" class="st21" x1="-475.1" y1="491" x2="-475.9" y2="492.6"/>
							<line id="XMLID_1629_" class="st21" x1="-475.3" y1="491" x2="-476.1" y2="492.5"/>
							<circle id="XMLID_1628_" class="st16" cx="-474.9" cy="492.2" r="0.3"/>
							<circle id="XMLID_1627_" class="st16" cx="-476.4" cy="491.4" r="0.3"/>
							<line id="XMLID_1626_" class="st21" x1="-474.9" y1="492.3" x2="-476.4" y2="491.6"/>
							<line id="XMLID_1625_" class="st21" x1="-474.8" y1="492.1" x2="-476.3" y2="491.4"/>
						</g>
						<g id="XMLID_1610_">
							<path id="XMLID_1623_" class="st13" d="M-476.8,485.7l3.4,0.3l3.3,1c0.2,0.1,0.1,0.4-0.1,0.4l-3.4-0.3l-3.3-1
								C-477.1,486-477,485.7-476.8,485.7z"/>
							<circle id="XMLID_1622_" class="st6" cx="-474.6" cy="486.5" r="2.6"/>
							<circle id="XMLID_1621_" class="st12" cx="-474.6" cy="486.4" r="2.5"/>
							<circle id="XMLID_1620_" class="st20" cx="-474.6" cy="486" r="2.5"/>
							<circle id="XMLID_1619_" class="st15" cx="-474.6" cy="486" r="2.1"/>
							<circle id="XMLID_1618_" class="st16" cx="-474.2" cy="485.5" r="0.3"/>
							<circle id="XMLID_1617_" class="st16" cx="-474.9" cy="487" r="0.3"/>
							<line id="XMLID_1616_" class="st21" x1="-474" y1="485.5" x2="-474.8" y2="487"/>
							<line id="XMLID_1615_" class="st21" x1="-474.2" y1="485.4" x2="-475" y2="486.9"/>
							<circle id="XMLID_1614_" class="st16" cx="-473.8" cy="486.6" r="0.3"/>
							<circle id="XMLID_1613_" class="st16" cx="-475.3" cy="485.9" r="0.3"/>
							<line id="XMLID_1612_" class="st21" x1="-473.8" y1="486.7" x2="-475.3" y2="486"/>
							<line id="XMLID_1611_" class="st21" x1="-473.7" y1="486.5" x2="-475.2" y2="485.8"/>
						</g>
						<g id="XMLID_1596_">
							<path id="XMLID_1609_" class="st13" d="M-478.7,496.8l3.4,0.3l3.3,1c0.2,0.1,0.1,0.4-0.1,0.4l-3.4-0.3l-3.3-1
								C-479,497.1-479,496.8-478.7,496.8z"/>
							<circle id="XMLID_1608_" class="st6" cx="-476.5" cy="497.6" r="2.6"/>
							<circle id="XMLID_1607_" class="st12" cx="-476.6" cy="497.5" r="2.5"/>
							<circle id="XMLID_1606_" class="st20" cx="-476.5" cy="497.2" r="2.5"/>
							<circle id="XMLID_1605_" class="st15" cx="-476.5" cy="497.2" r="2.1"/>
							<circle id="XMLID_1604_" class="st16" cx="-476.1" cy="496.6" r="0.3"/>
							<circle id="XMLID_1603_" class="st16" cx="-476.9" cy="498.1" r="0.3"/>
							<line id="XMLID_1602_" class="st21" x1="-476" y1="496.6" x2="-476.7" y2="498.1"/>
							<line id="XMLID_1601_" class="st21" x1="-476.2" y1="496.5" x2="-476.9" y2="498.1"/>
							<circle id="XMLID_1600_" class="st16" cx="-475.7" cy="497.7" r="0.3"/>
							<circle id="XMLID_1599_" class="st16" cx="-477.2" cy="497" r="0.3"/>
							<line id="XMLID_1598_" class="st21" x1="-475.7" y1="497.9" x2="-477.2" y2="497.1"/>
							<line id="XMLID_1597_" class="st21" x1="-475.6" y1="497.7" x2="-477.2" y2="496.9"/>
						</g>
						<g id="XMLID_1594_">
							<path id="XMLID_1595_" class="st13" d="M-480.1,500.9l2.4,0.3c0.7,0.1,1.3,0.2,2,0.4l2.3,0.6c0.2,0.1,0.1,0.4-0.1,0.4
								l-2.3-0.3c-0.7-0.1-1.3-0.2-2-0.4l-2.4-0.6C-480.3,501.2-480.3,500.9-480.1,500.9z"/>
						</g>
					</g>
				</g>
			</g>
			<g>
				<defs>
					<circle id="SVGID_6_" cx="-338.9" cy="400.6" r="150"/>
				</defs>
				<clipPath id="SVGID_7_">
					<use xlink:href="#SVGID_6_"  style="overflow:visible;"/>
				</clipPath>
			</g>
			<g>
				<defs>
					<circle id="SVGID_8_" cx="-338.9" cy="400.6" r="150"/>
				</defs>
				<clipPath id="SVGID_9_">
					<use xlink:href="#SVGID_8_"  style="overflow:visible;"/>
				</clipPath>
				<g class="st22">
					<path class="st23" d="M-338.9,255.6c38.7,0,75.1,15.1,102.5,42.5s42.5,63.8,42.5,102.5s-15.1,75.1-42.5,102.5
						s-63.8,42.5-102.5,42.5s-75.1-15.1-102.5-42.5s-42.5-63.8-42.5-102.5s15.1-75.1,42.5-102.5S-377.6,255.6-338.9,255.6
						 M-338.9,250.6c-82.8,0-150,67.2-150,150s67.2,150,150,150s150-67.2,150-150S-256.1,250.6-338.9,250.6L-338.9,250.6z"/>
				</g>
			</g>
		</g>
	</g>
</g>
</svg>
