<?xml version="1.0" encoding="utf-8"?>
<!-- Generator: Adobe Illustrator 21.1.0, SVG Export Plug-In . SVG Version: 6.00 Build 0)  -->
<svg version="1.1" id="Layer_1" xmlns="http://www.w3.org/2000/svg" xmlns:xlink="http://www.w3.org/1999/xlink" x="0px" y="0px"
	 viewBox="0 0 300 300" style="enable-background:new 0 0 300 300;" xml:space="preserve">
<style type="text/css">
	.st0{fill:#DDDDDD;}
	.st1{clip-path:url(#SVGID_2_);}
	.st2{fill:#F1F1F2;stroke:#404041;stroke-miterlimit:10;}
	.st3{fill:#FFFFFF;stroke:#404041;stroke-miterlimit:10;}
	.st4{fill:#929497;}
	.st5{fill:#F1F1F2;}
	.st6{fill:#C5C7C9;}
	.st7{fill:none;stroke:#404041;stroke-miterlimit:10;}
	.st8{fill:none;stroke:#808184;stroke-width:0.5;stroke-miterlimit:10;}
	.st9{fill:none;stroke:#808184;stroke-width:0.5;stroke-miterlimit:10;stroke-dasharray:1.0012,2.0024;}
	.st10{fill:none;stroke:#808184;stroke-width:0.5;stroke-miterlimit:10;stroke-dasharray:1.0052,2.0105;}
	.st11{fill:none;stroke:#808184;stroke-width:0.5;stroke-miterlimit:10;stroke-dasharray:0.9946,1.9892;}
	
		.st12{fill:none;stroke:#808184;stroke-width:0.5;stroke-linecap:round;stroke-linejoin:round;stroke-miterlimit:10;stroke-dasharray:1.3,3.5;}
	.st13{fill:none;stroke:#CECECE;stroke-width:0.5;stroke-miterlimit:10;stroke-dasharray:1,2;}
	.st14{fill:none;stroke:#CECECE;stroke-width:0.5;stroke-miterlimit:10;}
	.st15{fill:none;stroke:#CECECE;stroke-width:0.5;stroke-miterlimit:10;stroke-dasharray:1.0052,2.0105;}
	.st16{fill:#DBDCDD;}
	.st17{fill:#404041;stroke:#D0D2D3;stroke-width:0.5;stroke-miterlimit:10;}
	.st18{fill:#FFFFFF;stroke:#6D6E70;stroke-miterlimit:10;}
	.st19{fill:#FFFFFF;stroke:#929497;stroke-width:0.25;stroke-miterlimit:10;}
	.st20{fill:#404041;}
	.st21{fill:none;stroke:#6D6E70;stroke-width:0.5;stroke-miterlimit:10;}
	.st22{fill:none;stroke:#CECECE;stroke-width:0.5;stroke-miterlimit:10;stroke-dasharray:0.9935,1.9871;}
	.st23{fill:none;stroke:#808184;stroke-width:0.5;stroke-miterlimit:10;stroke-dasharray:1,2;}
	.st24{opacity:0.7;fill:#FFFFFF;enable-background:new    ;}
	.st25{fill:none;stroke:#726FE3;stroke-miterlimit:10;stroke-dasharray:2,3.5;}
	.st26{fill:#FFFFFF;stroke:#6D6E70;stroke-width:0.5;stroke-miterlimit:10;}
	.st27{fill:none;stroke:#6D6E70;stroke-width:0.25;stroke-miterlimit:10;}
	.st28{clip-path:url(#SVGID_5_);}
	.st29{fill:#9AA0BB;}
</style>
<g>
	<g>
		<circle id="SVGID_3_" class="st0" cx="150" cy="150" r="150"/>
	</g>
	<g>
		<g>
			<g>
				<defs>
					<circle id="SVGID_1_" cx="150" cy="150" r="150"/>
				</defs>
				<clipPath id="SVGID_2_">
					<use xlink:href="#SVGID_1_"  style="overflow:visible;"/>
				</clipPath>
				<g class="st1">
					<g id="XMLID_297_">
						<g id="XMLID_399_">
							<g id="XMLID_511_">
								<g id="XMLID_574_">
									<polygon id="XMLID_690_" class="st2" points="-217.5,-119.3 -171.3,-67.7 -330.3,762.3 -489.1,-67.7 -445.4,-119.3 
																			"/>
									<path id="XMLID_592_" class="st3" d="M-215.2-143.8c0,0,0.5-2.8-114.7-2.8c-0.3,0-0.9,0-1.2,0s-0.9,0-1.2,0
										c-115.4,0-114.7,2.8-114.7,2.8L-461-93.6c0,0,18.7,4.7,64.4,6.6c17.7,0.7,40.6,1.2,66.6,1.2c26.2,0,46.7-0.5,64.4-1.2
										c45.5-1.9,64.4-6.6,64.4-6.6L-215.2-143.8z"/>
									<g id="XMLID_588_">
										<path id="XMLID_591_" class="st4" d="M-426.7-145c0,0-11.9,13.3-11,30.4c1,17,1.7,22.7,1.7,22.7h-25.2l13.8-51.4
											L-426.7-145z"/>
										<path id="XMLID_590_" class="st5" d="M-421.8-145.2c-3.1,0.2-5.9,0.2-8.2,0.3c-6.6,11.2-6.8,42.8-6.6,54.6
											c3.7,0.3,7.9,0.7,12.4,1c-0.7-3.5-1.7-10.5-1.7-23.6C-426-128.6-423.2-140.3-421.8-145.2z"/>
										<path id="XMLID_589_" class="st6" d="M-429.1-145c-1.7,0-3.3,0.2-4.7,0.2c-2.8,2.3-5.6,6.3-6.3,13.5
											c-1.4,14.2-1.9,32.4-2.3,40.4c3.5,0.3,7.7,0.7,12.4,1C-431.7-102-435.9-134.3-429.1-145z"/>
									</g>
									<g id="XMLID_584_">
										<path id="XMLID_587_" class="st4" d="M-237.3-145c0,0,11.9,13.3,11,30.4c-1,17-1.7,22.7-1.7,22.7h26.4l-15-51.4
											L-237.3-145z"/>
										<path id="XMLID_586_" class="st5" d="M-242.2-145.2c3.1,0.2,5.9,0.2,8.2,0.3c6.6,11.2,6.8,42.8,6.6,54.6
											c-3.7,0.3-7.9,0.7-12.4,1c0.7-3.5,1.7-10.5,1.7-23.6C-237.8-128.6-240.6-140.3-242.2-145.2z"/>
										<path id="XMLID_585_" class="st6" d="M-234.7-145c1.7,0,3.3,0.2,4.7,0.2c2.8,2.3,5.6,6.3,6.3,13.5
											c1.4,14.2,1.9,32.4,2.3,40.4c-3.5,0.3-7.7,0.7-12.4,1C-232-102-228-134.3-234.7-145z"/>
									</g>
									<path id="XMLID_583_" class="st7" d="M-215.2-143.8c0,0,0.5-2.8-114.7-2.8c-0.3,0-0.9,0-1.2,0s-0.9,0-1.2,0
										c-115.4,0-114.7,2.8-114.7,2.8L-461-93.6c0,0,18.7,4.7,64.4,6.6c17.7,0.7,40.6,1.2,66.6,1.2c26.2,0,46.7-0.5,64.4-1.2
										c45.5-1.9,64.4-6.6,64.4-6.6L-215.2-143.8z"/>
									<g id="XMLID_580_">
										<polygon id="XMLID_582_" class="st4" points="-439.1,12.7 -330.3,557.9 -223.6,12.7 -293.4,618.9 -334,792.5 
											-366.2,613.1 										"/>
										<polygon id="XMLID_581_" class="st6" points="-331.4,624.1 -217.5,-8.9 -330.3,489.6 -441.7,-10 										"/>
									</g>
									<g id="XMLID_578_">
										<g>
											<line class="st8" x1="-330.5" y1="-79.1" x2="-330.5" y2="-78.2"/>
											<line class="st9" x1="-330.5" y1="-74.7" x2="-330.5" y2="637.9"/>
											<line class="st8" x1="-330.5" y1="639.7" x2="-330.5" y2="640.6"/>
										</g>
									</g>
									<path id="XMLID_577_" class="st4" d="M-389.9-66.5l4.2,4.4c0,0,29.7-2.3,55.3-2.3c25.5,0,57.4,2.3,57.4,2.3l2.8-4.4H-389.9
										z"/>
									<path id="XMLID_576_" class="st6" d="M-386.8-63.2l3,3.1c0,0,28.3-2.1,53.2-2.1c24.8,0,56.1,2.1,56.1,2.1l1.7-3.1
										l-57.9-1.2L-386.8-63.2z"/>
									<path id="XMLID_575_" class="st3" d="M-330.3-85.7c-26.4,0-48.1-0.2-65.9-0.9l7.5,20.1h58.1h0.7h58.1l7.5-20.1
										C-282-85.9-303.9-85.7-330.3-85.7z"/>
								</g>
								<path id="XMLID_573_" class="st2" d="M-271.9,1738.3c0-3.1,0-116.6,0-116.6h-117.2v116.6H-271.9z"/>
								<g id="XMLID_570_">
									<polygon id="XMLID_572_" class="st4" points="-329.3,1665.2 -374.6,1766.6 -330.5,1604.5 -284,1768.4 									"/>
									<polygon id="XMLID_571_" class="st6" points="-330.5,1685.5 -374.6,1766.6 -330.5,1651.2 -284,1768.4 									"/>
								</g>
								<path id="XMLID_568_" class="st3" d="M-267.9,1052.4c-10.7-242.6-22.4-177.3-22.4-177.3l-36.9-123.5
									c-25-125.2-56-366-62.1-408.5c-10-68.7-75-287.9-75-287.9c-20.6-132.6,19.4-198.5,19.4-198.5s-99.7,56.8-120,70.3
									c-10.7,7-102.7,47.4-180.8,83.6C-840.6,54.5-853.9,78-853.9,78c73.3,45.5,88.5,208.5,89.9,400
									c1.4,191.5-51.6,517.8-58.2,688c-6.8,176.5-43,609.5-43,609.5s315,80.4,401,56.7c86-23.6,93-71.9,110-116.5l25.2-88.7
									C-329.4,1626.9-257.2,1295-267.9,1052.4z"/>
								<g id="XMLID_566_">
									<g>
										<line class="st8" x1="-577.1" y1="670.8" x2="-577.1" y2="671.7"/>
										<line class="st10" x1="-577.1" y1="675.2" x2="-577.1" y2="1164"/>
										<line class="st8" x1="-577.1" y1="1165.7" x2="-577.1" y2="1166.6"/>
									</g>
								</g>
								<g id="XMLID_560_">
									<path id="XMLID_565_" class="st5" d="M-538.8,1183.6l5.8,81.5c2.8,46.5-19.2,61-42.3,61h-252.4l0.9-21.3L-538.8,1183.6z"/>
									<path id="XMLID_564_" class="st6" d="M-538.8,1180.8l2.6,67c2.8,46.5-12.9,72.8-39.7,72.8h-251.8l0.9-21.3L-538.8,1180.8z"
										/>
									<path id="XMLID_563_" class="st3" d="M-538.8,1201.2v-23.4h-283.7l-7,137.6h248c32.9,0,42.7-38.6,42.7-71.7l0,0
										L-538.8,1201.2L-538.8,1201.2z"/>
									<g id="XMLID_561_">
										<g>
											<line class="st8" x1="-540.7" y1="1192.2" x2="-541.6" y2="1192.2"/>
											<line class="st11" x1="-545.1" y1="1192.2" x2="-819.8" y2="1192.2"/>
											<line class="st8" x1="-821.6" y1="1192.2" x2="-822.4" y2="1192.2"/>
										</g>
									</g>
								</g>
								<g id="XMLID_557_">
									<path id="XMLID_559_" class="st5" d="M-763.2,822.6c27.8-189.7,15.7-341.9-3.1-461.3c3.7,23.6,5.6,65.1,6.1,71.4
										c3.1,40.2,6.6,81.8,5.4,121.7c-0.9,84.3-6.8,180.5-22,286.3c-12.9,90.6-22.6,130.8-29.6,146.4c-1.4,12.8-2.6,25.4-3.8,37.8
										C-792.7,1023.7-781,944.7-763.2,822.6z"/>
									<path id="XMLID_558_" class="st6" d="M-780.3,745.7c-8.2,81.5-18.2,165.3-26.2,241.5c7-15.6,16.6-55.8,29.6-146.4
										c15.2-105.6,22.6-192.4,22.6-334.2v-0.3c1.4-51.4-12.6-146.9-12.2-142.5C-759,477.4-772.2,677.8-780.3,745.7z"/>
								</g>
								<path id="XMLID_556_" class="st3" d="M-764.2,477.9c-1.4-179.4-14.7-334-76.8-390.2l-13.1-7.5c0,0-19.9-6.6-40.7,91.6
									c-20.8,98.3-243.1,1495.1-243.1,1495.1s36.9,32.2,113.5,35c76.6,2.8,115.4-16.1,115.4-16.1l120.3-871.3
									C-775.4,692.9-763.7,569.9-764.2,477.9z"/>
								<g id="XMLID_553_">
									<path id="XMLID_555_" class="st5" d="M-312.5,676.4c0,0-86.7,206.4-86.7,499.5s96.7,505.2,96.7,505.2l-10-355.7l14.2-623.3
										L-312.5,676.4z"/>
									<path id="XMLID_554_" class="st6" d="M-300.2,676.4c0,0-86.7,206.4-86.7,499.5s96.7,505.2,96.7,505.2l-10-355.7l14.2-623.3
										L-300.2,676.4z"/>
								</g>
								<g id="XMLID_516_">
									<path id="XMLID_552_" class="st3" d="M103,476.9c1.4-191.5,16.6-354.7,89.9-400c0,0-13.3-23.4-108.3-67.3
										c-89.5-41.4-164.6-74-194.3-90.8c-1.7-1-3.5-1.9-4.9-2.8c-25.5-15.6-102.1-60.3-102.1-60.3s36.6,65.9,16.1,198.5
										c0,0-65.8,219.1-75.5,287.9c-9.8,68.7-44.8,433.4-53.9,487.9c-2.4,14.2-16.4,32.5-18.4,44.8c-4.2,26.2-7.5,48.4-8.7,57
										c-2.4,27.8-15,66.1-17.5,122.2c-10.7,242.6,43.2,571.7,43.2,571.7l26.2,89.7c17,44.6,22.9,91.8,109,115.4
										c86,23.6,389.6-56.7,389.6-56.7s-24.8-433-31.7-609.5C154.5,994.9,101.5,668.4,103,476.9z"/>
									<path id="XMLID_549_" class="st12" d="M120.2,166.8"/>
									<path id="XMLID_548_" class="st12" d="M182.8,68.7"/>
									<polygon id="XMLID_547_" class="st5" points="54.3,497 54.3,485.1 -220,493.1 -220,504.7 									"/>
									<polygon id="XMLID_546_" class="st6" points="54.3,501.5 54.3,489.6 -220,497.7 -220,509.4 									"/>
									<polygon id="XMLID_545_" class="st3" points="53.4,494.9 53.4,562.2 -216.8,568 -216.8,502.8 									"/>
									<line id="XMLID_544_" class="st13" x1="-216.8" y1="505.6" x2="53.4" y2="497.7"/>
									<g id="XMLID_542_">
										<g>
											<line class="st14" x1="-82.9" y1="670.8" x2="-82.9" y2="671.7"/>
											<line class="st15" x1="-82.9" y1="675.2" x2="-82.9" y2="1164"/>
											<line class="st14" x1="-82.9" y1="1165.7" x2="-82.9" y2="1166.6"/>
										</g>
									</g>
									<g id="XMLID_526_">
										<circle id="XMLID_541_" class="st5" cx="-319.5" cy="997.3" r="27.6"/>
										<circle id="XMLID_540_" class="st16" cx="-318.9" cy="996.3" r="26.6"/>
										<polygon id="XMLID_539_" class="st17" points="-284.8,995.2 -318.6,988.6 -356.2,995.2 -318.2,1001.9 										"/>
										<circle id="XMLID_538_" class="st18" cx="-319.5" cy="992.6" r="26.6"/>
										<circle id="XMLID_537_" class="st19" cx="-319.5" cy="992.6" r="22.9"/>
										<circle id="XMLID_536_" class="st20" cx="-323.8" cy="986.5" r="3.3"/>
										<circle id="XMLID_535_" class="st20" cx="-315.8" cy="1003.1" r="3.3"/>
										<line id="XMLID_534_" class="st21" x1="-325.1" y1="986.5" x2="-317.2" y2="1002.9"/>
										<line id="XMLID_533_" class="st21" x1="-323" y1="985.6" x2="-314.9" y2="1002.1"/>
										<line id="XMLID_532_" class="st21" x1="-325.1" y1="986.5" x2="-317.2" y2="1002.9"/>
										<line id="XMLID_531_" class="st21" x1="-323" y1="985.6" x2="-314.9" y2="1002.1"/>
										<circle id="XMLID_530_" class="st20" cx="-328" cy="998.7" r="3.3"/>
										<circle id="XMLID_529_" class="st20" cx="-311.6" cy="990.7" r="3.3"/>
										<line id="XMLID_528_" class="st21" x1="-328" y1="1000.1" x2="-311.6" y2="992.1"/>
										<line id="XMLID_527_" class="st21" x1="-328.9" y1="997.9" x2="-312.5" y2="990"/>
									</g>
									<g id="XMLID_517_">
										<path id="XMLID_525_" class="st5" d="M-121.2,1183.6l-5.8,81.5c-2.8,46.5,19.2,61,42.3,61h252.5l-0.9-21.3L-121.2,1183.6z
											"/>
										<path id="XMLID_524_" class="st6" d="M-121.2,1180.8l-2.6,67c-2.8,46.5,12.9,72.8,39.7,72.8h251.8l-0.9-21.3
											L-121.2,1180.8z"/>
										<path id="XMLID_523_" class="st3" d="M-121.2,1201.2v-23.4h283.7l7,137.6h-248c-32.9,0-42.7-38.6-42.7-71.7l0,0
											L-121.2,1201.2L-121.2,1201.2z"/>
										<path id="XMLID_522_" class="st12" d="M167.8,1310.6H-72.5c-29,0-42.7-34.6-42.7-48.4l-1.4-83.1"/>
										<line id="XMLID_521_" class="st12" x1="166.9" y1="1307.2" x2="-73.9" y2="1306.7"/>
										<g id="XMLID_519_">
											<g>
												<line class="st14" x1="162.5" y1="1183.9" x2="161.6" y2="1183.9"/>
												<line class="st22" x1="158.3" y1="1183.9" x2="-116.3" y2="1183.9"/>
												<line class="st14" x1="-118" y1="1183.9" x2="-118.9" y2="1183.9"/>
											</g>
										</g>
										<path id="XMLID_518_" class="st12" d="M-112.9,1185.2l1.9,78.9c0.2,8,3.7,18.2,8,24.8c3.5,5.2,9.4,13.1,19.1,15.9"/>
									</g>
								</g>
								<g id="XMLID_513_">
									<path id="XMLID_515_" class="st5" d="M102.9,822.6C75.1,632.9,87.1,480.7,106,361.3c-3.7,23.6-5.6,65.1-6.1,71.4
										c-3.1,40.2-6.6,81.8-5.4,121.7c0.9,84.3,6.8,180.5,22,286.3c12.9,90.6,22.6,130.8,29.6,146.4c1.4,12.8,2.6,25.4,3.8,37.8
										C132.6,1023.7,120.7,944.7,102.9,822.6z"/>
									<path id="XMLID_514_" class="st6" d="M120,745.7c8.2,81.5,18.2,165.3,26.2,241.5c-7-15.6-16.6-55.8-29.6-146.4
										c-15.2-105.6-22.6-192.4-22.6-334.2v-0.3c-1.4-51.4,12.6-146.9,12.2-142.5C98.8,477.4,112,677.8,120,745.7z"/>
								</g>
								<path id="XMLID_512_" class="st3" d="M233.2,169.6C212.3,71.3,192.6,78,192.6,78l0,0c-73.3,45.5-88.5,208.5-89.9,400
									c-0.7,89.2,10.5,207.6,23.3,325.8l121.4,879.8c0,0,38.8,18.9,115.4,16.1c76.6-2.8,113.5-35,113.5-35S254,268.1,233.2,169.6z
									"/>
							</g>
							<g id="XMLID_489_">
								<g id="XMLID_503_">
									<g id="XMLID_506_">
										<path id="XMLID_510_" class="st5" d="M-643.5,128.9c0,0-15.6,11.4-9.1,28.5s226.8,576.1,265.3,652.5
											c13.3,26.2,29.4,60.3,44.6,93.9c11.9,25.7,20.5-31.3,20.5-31.3l-12.2-54.2l-262.5-656L-643.5,128.9z"/>
										<path id="XMLID_509_" class="st6" d="M-639.9,128.9c0,0-16.3,4.5-9.8,21.9c6.5,17.1,227.5,582.9,266,659.3
											c12.4,24.5,27.1,56,41.6,87.3c7.5,16.4,19.6-41.8,19.6-41.8l-8.4-37.1l-262.5-656.2L-639.9,128.9z"/>
										<polygon id="XMLID_508_" class="st5" points="-546.5,-60 -597,125.4 -597,132.4 -586.9,152.6 -504.7,186.4 -484,186.9 
											-542.8,-17.5 										"/>
										<polygon id="XMLID_507_" class="st6" points="-546.5,-60 -592.5,126.6 -592.5,133.6 -576.4,174.3 -506.4,209.5 
											-470.7,186.9 -529.7,-17.5 										"/>
									</g>
									<path id="XMLID_505_" class="st3" d="M-438.7-143.4c0,0-84.8,31-101.8,70.1c-17,39-47.4,203.4-47.4,203.4l86.4,39.2
										c0,0-129.4-50.7-142-40.6c-7.9,6.3-1.4,25.5,19.1,67.2c14.9,30.3,160.2,436.7,224.7,567.1c24.5,49.5,44.4,93.6,60.5,131
										c6.1,14.2,33.1-28.9,31.8-35.5c-2.8-15.4-6.1-15.4-9.6-36.4c-25.5-152-65.4-534.1-87.8-654.8
										c-25.4-137.1-47.6-206.7-47.6-247.5S-438.7-143.4-438.7-143.4z"/>
									<line id="XMLID_504_" class="st23" x1="-426.3" y1="60.7" x2="-501.5" y2="169.3"/>
								</g>
								<g id="XMLID_500_">
									<polygon id="XMLID_502_" class="st5" points="-331.4,733.6 -359.9,844 -351.1,865.8 -328.9,771.4 									"/>
									<polygon id="XMLID_501_" class="st6" points="-327.7,743.8 -356.2,853.9 -347.3,876 -325.2,781.5 									"/>
								</g>
								<g id="XMLID_495_">
									<path id="XMLID_499_" class="st5" d="M-15.7,128.9c0,0,15.6,11.4,9.1,28.5c-6.5,17.1-226.8,576.1-265.3,652.5
										c-38.5,76.2-98.8,215.1-98.8,215.1l46-206.7L-62,162.1L-15.7,128.9z"/>
									<path id="XMLID_498_" class="st6" d="M-19.4,128.9c0,0,16.3,4.5,9.8,21.9c-6.5,17.1-227.5,582.9-266,659.3
										s-96.5,212.5-96.5,212.5l43.7-204.1l262.7-656.2L-19.4,128.9z"/>
									<polygon id="XMLID_497_" class="st5" points="-112.8,-60 -62,125.4 -62,132.4 -72.4,152.6 -154.6,186.4 -175.2,186.9 
										-116.4,-17.5 									"/>
									<polygon id="XMLID_496_" class="st6" points="-112.8,-60 -66.8,126.6 -66.8,133.6 -82.9,174.3 -152.8,209.5 -188.5,186.9 
										-129.5,-17.5 									"/>
								</g>
								<path id="XMLID_494_" class="st3" d="M-220.5-145.2c0,0,84.8,32.7,101.8,71.9c17,39,47.4,203.4,47.4,203.4l-86.4,39.2
									c0,0,129.4-50.7,142-40.6c7.9,6.3-2.3,23.8-19.1,67.2c-24.5,63-172.8,449.1-232.1,582.2c-69.8,156.5-90.2,207.8-105.5,244.1
									c0,0-3.3-17.8,20.3-145c23.8-127.1,72.1-572.4,97.4-709.7S-207-39.4-207-80.1S-220.5-145.2-220.5-145.2z"/>
								<path id="XMLID_493_" class="st17" d="M-71.7,167.7l-12.8,4.4c-3.7,1-7.2,2.4-10.5,4.2l-12.2,5.8c-1,0.7-0.3,2.3,0.7,1.9
									l12.4-4.2c3.7-1,7.2-2.4,10.5-4.2l12.8-5.9C-69.7,169.1-70.4,167.3-71.7,167.7z"/>
								<line id="XMLID_492_" class="st13" x1="-232" y1="66.1" x2="-157.7" y2="169.3"/>
								<path class="st24" d="M234.4,171.2c-20.8-98.3-39.7-93.6-39.7-93.6S180.2,52.3,85,8.2C-4.5-33.3-78-66-107.7-82.6
									c-1.7-1-3.5-1.9-4.9-2.8c-23.3-14.2-89-52.6-100.4-59.3l-0.2-0.3c0,0,0-0.2-1.2-0.3c-0.3-0.2-0.3-0.2-0.3-0.2s0,0,0.2,0.2
									c-4.9-0.7-25.5-2.4-113.3-2.4c-0.3,0-0.9,0-1.2,0s-0.9,0-1.2,0c-115.4,0-114.7,2.8-114.7,2.8l-0.5,1.9
									c-16.4,9.4-98.8,56.7-117.2,68.7c-10.7,7-102.7,47.4-180.8,83.6c-95,43.9-108.3,67.3-108.3,67.3c4.7,3,9.3,6.5,13.5,10.3
									c-0.2-0.2-0.3-0.2-0.3-0.3l-13.1-7.5c0,0-19.9-6.6-40.7,91.6c-20.8,98.3-243.1,1495.1-243.1,1495.1s36.9,32.2,113.5,35
									c76.6,2.8,115.4-16.1,115.4-16.1l120.3-871.3c-14.3,132-30.3,262.7-33.8,351.2c-6.8,176.5-43,609.5-43,609.5
									s315,80.4,401,56.7c53.2-14.7,76.2-38.6,89.9-65.4l15.4-28.2h58.4l10.5,18.7c12.9,30.1,34.3,57.7,93.6,74
									c86,23.6,389.6-56.7,389.6-56.7s-14.9-259.7-24.8-458.9h1.6l-7-137.6h-0.9c-0.2-4.5-0.3-8.7-0.5-12.9
									c-3.5-88.3-19.4-218.8-33.8-350.5l120,869.2c0,0,38.8,18.9,115.4,16.1c76.6-2.8,113.5-35,113.5-35S255.2,269.5,234.4,171.2z
									 M-762.3,459c0-0.9,0-1.9,0-2.8C-762.3,457.1-762.3,458.2-762.3,459z M-762.5,450.5c0-1,0-2.3,0-3.3
									C-762.5,448.4-762.5,449.4-762.5,450.5z M-762.5,441.9c0-1,0-2.3,0-3.3C-762.6,439.6-762.5,440.9-762.5,441.9z
									 M-762.6,433.3c0-1.2,0-2.3,0-3.5C-762.8,431.1-762.6,432.3-762.6,433.3z M-762.8,424.9c0-1.2,0-2.3,0-3.5
									C-763,422.7-762.8,423.7-762.8,424.9z M-763,416.5c0-1.2,0-2.4-0.2-3.5C-763.2,414.1-763.2,415.3-763,416.5z M-763.3,408.2
									c0-1.2,0-2.3-0.2-3.5C-763.3,405.7-763.3,406.9-763.3,408.2z M-763.5,399.8c0-1.2,0-2.3-0.2-3.5
									C-763.7,397.5-763.7,398.5-763.5,399.8z M-763.9,391.4c0-1,0-2.3-0.2-3.3C-763.9,389.1-763.9,390.3-763.9,391.4z
									 M-764.2,383.1c0-1,0-2.1-0.2-3.1C-764.2,380.9-764.2,381.9-764.2,383.1z M-767.7,616.1c-0.2,1.6-0.2,3-0.3,4.5
									C-768,619.2-767.9,617.7-767.7,616.1L-767.7,616.1z M-781.5,767.2c1.9-18.2,3.7-36.2,5.4-54
									C-777.8,731-779.8,749-781.5,767.2z M-775.9,710.9c0.2-2.4,0.5-4.9,0.7-7.3C-775.4,705.8-775.7,708.3-775.9,710.9z
									 M-774.9,699.3c0.2-2.1,0.3-4.4,0.5-6.5C-774.3,695-774.5,697.1-774.9,699.3z M-773.6,687.8c0.2-2.1,0.3-4,0.5-6.1
									C-773.3,683.8-773.5,685.7-773.6,687.8z M-772.8,676.4c0.2-1.9,0.3-4,0.5-5.9C-772.4,672.6-772.6,674.5-772.8,676.4z
									 M-771.7,665.2c0.2-1.9,0.3-3.8,0.5-5.8C-771.4,661.4-771.5,663.3-771.7,665.2z M-770.7,653.9c0.2-1.9,0.3-3.7,0.5-5.6
									C-770.5,650.2-770.5,652.1-770.7,653.9z M-769.8,642.8c0.2-1.9,0.3-3.7,0.5-5.4C-769.4,639.2-769.6,640.9-769.8,642.8z
									 M-768.9,631.7c0.2-1.7,0.3-3.5,0.3-5.4C-768.6,628.2-768.7,629.9-768.9,631.7z M-834.7,90.4c-0.3-0.3-0.9-0.9-1.2-1.2
									C-835.6,89.5-835,90-834.7,90.4z M-764.6,374.8c0-1-0.2-2.1-0.2-3.1C-764.6,372.8-764.6,373.7-764.6,374.8z M-764.9,366.5
									c0-0.9-0.2-1.9-0.2-2.8C-765.1,364.6-764.9,365.5-764.9,366.5z M-765.4,357.6c0-0.7,0-1.4-0.2-1.9
									C-765.4,356.4-765.4,357.1-765.4,357.6z M-766.5,339.8c0-0.7-0.2-1.2-0.2-1.9C-766.5,338.5-766.5,339.1-766.5,339.8z
									 M-767,332.1c0-0.9-0.2-1.7-0.2-2.8C-767,330.2-767,331.2-767,332.1z M-767.5,324.4c0-1-0.2-1.9-0.2-3
									C-767.7,322.3-767.5,323.3-767.5,324.4z M-768,316.7c0-1-0.2-2.1-0.2-3.1C-768.2,314.6-768.2,315.6-768,316.7z
									 M-768.7,309.2c-0.2-1-0.2-2.1-0.3-3.1C-768.9,307.1-768.7,308.1-768.7,309.2z M-769.4,301.6c-0.2-1-0.2-2.1-0.3-3.1
									C-769.6,299.6-769.4,300.6-769.4,301.6z M-770.1,294.3c-0.2-1-0.2-2.1-0.3-3.1C-770.3,292.2-770.1,293.3-770.1,294.3z
									 M-770.8,287c-0.2-1-0.2-2.1-0.3-3.1C-771,284.9-770.8,285.9-770.8,287z M-771.5,279.6c-0.2-1-0.2-2.1-0.3-3.1
									C-771.9,277.5-771.7,278.6-771.5,279.6z M-772.4,272.4c-0.2-1-0.2-2.1-0.3-3.1C-772.6,270.3-772.6,271.4-772.4,272.4z
									 M-773.3,265.4c-0.2-1-0.2-1.9-0.3-3C-773.6,263.3-773.5,264.4-773.3,265.4z M-774.2,258.3c-0.2-0.9-0.2-1.9-0.3-2.8
									C-774.5,256.4-774.3,257.4-774.2,258.3z M-775.2,251.1c-0.2-0.9-0.2-1.7-0.3-2.6C-775.4,249.4-775.4,250.2-775.2,251.1z
									 M-776.3,243.9c-0.2-0.7-0.2-1.4-0.3-2.1C-776.4,242.5-776.4,243.2-776.3,243.9z M-777.7,235.2c0-0.2,0-0.3-0.2-0.5
									C-777.8,234.8-777.7,235-777.7,235.2z M-778.9,228.5c-0.2-0.7-0.3-1.6-0.3-2.3C-779.1,227.1-778.9,227.8-778.9,228.5z
									 M-779.9,222.1c-0.2-0.9-0.3-1.7-0.5-2.6C-780.3,220.5-780.1,221.2-779.9,222.1z M-781.2,215.8c-0.2-0.9-0.3-1.7-0.5-2.8
									C-781.5,214-781.3,214.9-781.2,215.8z M-782.4,209.5c-0.2-0.9-0.3-1.9-0.5-2.8C-782.9,207.7-782.6,208.6-782.4,209.5z
									 M-783.8,203.4c-0.2-0.9-0.3-1.9-0.7-2.8C-784.1,201.6-784,202.5-783.8,203.4z M-785.2,197.4c-0.2-0.9-0.3-1.9-0.7-2.8
									C-785.5,195.5-785.4,196.4-785.2,197.4z M-786.6,191.5c-0.2-0.9-0.5-1.7-0.7-2.8C-786.9,189.5-786.8,190.6-786.6,191.5z
									 M-788,185.5c-0.2-0.9-0.5-1.7-0.7-2.6C-788.5,183.8-788.3,184.7-788,185.5z M-789.6,179.9c-0.2-0.9-0.5-1.7-0.7-2.6
									C-790.1,178.2-789.7,179.1-789.6,179.9z M-791.1,174.3c-0.2-0.9-0.5-1.7-0.7-2.6C-791.7,172.6-791.5,173.5-791.1,174.3z
									 M-792.9,168.7c-0.2-0.9-0.5-1.7-0.7-2.4C-793.4,167.2-793.1,167.9-792.9,168.7z M-794.5,163.3c-0.2-0.9-0.5-1.6-0.7-2.4
									C-795,161.7-794.8,162.6-794.5,163.3z M-796.4,158.1c-0.2-0.7-0.5-1.6-0.7-2.3C-796.9,156.5-796.6,157.2-796.4,158.1z
									 M-798.3,152.6c-0.2-0.7-0.5-1.2-0.7-1.9C-798.7,151.2-798.5,151.9-798.3,152.6z M-800.8,146c-0.2-0.5-0.3-0.9-0.5-1.4
									C-801.1,145-800.9,145.5-800.8,146z M-802.8,140.9c-0.3-0.7-0.5-1.2-0.9-1.9C-803.4,139.7-803,140.4-802.8,140.9z
									 M-804.8,136.2c-0.3-0.7-0.7-1.4-0.9-2.1C-805.5,135-805.1,135.5-804.8,136.2z M-806.9,131.7c-0.3-0.7-0.7-1.4-1-2.1
									C-807.6,130.3-807.2,131-806.9,131.7z M-809.1,127.3c-0.3-0.7-0.7-1.4-1-2.1C-809.8,125.9-809.5,126.6-809.1,127.3z
									 M-811.2,122.9c-0.3-0.7-0.7-1.4-1-2.1C-812.1,121.7-811.8,122.4-811.2,122.9z M-813.7,118.9c-0.3-0.7-0.7-1.4-1-1.9
									C-814.4,117.5-814,118.2-813.7,118.9z M-816,114.9c-0.3-0.7-0.7-1.2-1.2-1.9C-816.8,113.5-816.3,114.2-816,114.9z
									 M-818.4,110.9c-0.3-0.7-0.9-1.2-1.2-1.9C-819.3,109.6-818.8,110.3-818.4,110.9z M-820.9,107.2c-0.3-0.5-0.9-1.2-1.2-1.7
									C-821.7,106-821.4,106.7-820.9,107.2z M-823.5,103.5c-0.3-0.5-0.9-1.2-1.2-1.7C-824.4,102.5-823.8,103-823.5,103.5z
									 M-826.1,100c-0.3-0.5-0.9-1-1.2-1.6C-827,99-826.6,99.5-826.1,100z M-828.9,96.7c-0.3-0.5-0.9-1-1.2-1.6
									C-829.8,95.6-829.3,96.2-828.9,96.7z M-831.7,93.5c-0.3-0.5-0.9-0.9-1.2-1.4C-832.6,92.7-832.1,93-831.7,93.5z
									 M-785.4,802.2c-0.3,3.5-0.7,7-1.2,10.7C-786.1,809.2-785.7,805.7-785.4,802.2z M-781.7,767.7c-0.3,3.5-0.7,7.2-1,10.7
									C-782.4,774.7-782,771.2-781.7,767.7z M-782.9,779.3c-0.3,3.5-0.7,7-1,10.3C-783.6,786.1-783.3,782.6-782.9,779.3z
									 M-784.1,790.6c-0.3,3.5-0.7,6.8-1,10.3C-784.8,797.6-784.5,794.1-784.1,790.6z M-200.7-104.4l-1.6-1.7l-8.7-31.7
									C-208.2-131-204.4-120-200.7-104.4z M-456.1-105.5l-2.3,2.8c3.3-13.1,7-23.3,10-30.3L-456.1-105.5z"/>
								<path id="XMLID_551_" class="st25" d="M187.9,71c0,0-47.4,16.3-62.6,98.1"/>
								<path id="XMLID_550_" class="st25" d="M183.8,65.9c0,0-47.4,16.3-62.6,98.1"/>
							</g>
							<g id="XMLID_400_">
								<g id="XMLID_475_">
									<path id="XMLID_488_" class="st17" d="M456,1586.3l-19.2,1.6l-18.5,5.6c-1.2,0.3-0.9,2.1,0.3,2.1l19.2-1.6l18.5-5.6
										C457.5,1588.1,457.2,1586.3,456,1586.3z"/>
									<circle id="XMLID_487_" class="st5" cx="443.5" cy="1590.7" r="14.3"/>
									<circle id="XMLID_486_" class="st16" cx="443.7" cy="1590.2" r="13.8"/>
									<circle id="XMLID_485_" class="st26" cx="443.5" cy="1588.3" r="13.8"/>
									<circle id="XMLID_484_" class="st19" cx="443.5" cy="1588.3" r="11.9"/>
									<circle id="XMLID_483_" class="st20" cx="441.3" cy="1585.1" r="1.7"/>
									<circle id="XMLID_482_" class="st20" cx="445.5" cy="1593.7" r="1.7"/>
									<line id="XMLID_481_" class="st27" x1="440.6" y1="1585.1" x2="444.8" y2="1593.7"/>
									<line id="XMLID_480_" class="st27" x1="441.8" y1="1584.6" x2="446" y2="1593.2"/>
									<circle id="XMLID_479_" class="st20" cx="439" cy="1591.6" r="1.7"/>
									<circle id="XMLID_478_" class="st20" cx="447.7" cy="1587.4" r="1.7"/>
									<line id="XMLID_477_" class="st27" x1="439" y1="1592.1" x2="447.6" y2="1588.1"/>
									<line id="XMLID_476_" class="st27" x1="438.6" y1="1591.1" x2="447.2" y2="1586.9"/>
								</g>
								<g id="XMLID_461_">
									<path id="XMLID_474_" class="st17" d="M449.8,1555.2l-19.2,1.6l-18.5,5.6c-1.2,0.3-0.9,2.1,0.3,2.1l19.2-1.6l18.5-5.6
										C451.4,1557,451.1,1555.2,449.8,1555.2z"/>
									<circle id="XMLID_473_" class="st5" cx="437.4" cy="1559.6" r="14.3"/>
									<circle id="XMLID_472_" class="st16" cx="437.6" cy="1559.1" r="13.8"/>
									<circle id="XMLID_471_" class="st26" cx="437.4" cy="1557.1" r="13.8"/>
									<circle id="XMLID_470_" class="st19" cx="437.4" cy="1557.1" r="11.9"/>
									<circle id="XMLID_469_" class="st20" cx="435.1" cy="1554" r="1.7"/>
									<circle id="XMLID_468_" class="st20" cx="439.3" cy="1562.6" r="1.7"/>
									<line id="XMLID_467_" class="st27" x1="434.5" y1="1554" x2="438.6" y2="1562.6"/>
									<line id="XMLID_466_" class="st27" x1="435.7" y1="1553.5" x2="439.9" y2="1562"/>
									<circle id="XMLID_465_" class="st20" cx="432.9" cy="1560.3" r="1.7"/>
									<circle id="XMLID_464_" class="st20" cx="441.6" cy="1556.1" r="1.7"/>
									<line id="XMLID_463_" class="st27" x1="432.9" y1="1561" x2="441.4" y2="1556.8"/>
									<line id="XMLID_462_" class="st27" x1="432.5" y1="1559.9" x2="441.1" y2="1555.7"/>
								</g>
								<g id="XMLID_447_">
									<path id="XMLID_460_" class="st17" d="M460.7,1617.6l-19.2,1.6l-18.5,5.6c-1.2,0.3-0.9,2.1,0.3,2.1l19.2-1.6l18.5-5.6
										C462.3,1619.2,461.9,1617.5,460.7,1617.6z"/>
									<circle id="XMLID_459_" class="st5" cx="448.3" cy="1621.8" r="14.3"/>
									<circle id="XMLID_458_" class="st16" cx="448.6" cy="1621.3" r="13.8"/>
									<circle id="XMLID_457_" class="st26" cx="448.3" cy="1619.4" r="13.8"/>
									<circle id="XMLID_456_" class="st19" cx="448.3" cy="1619.4" r="11.9"/>
									<circle id="XMLID_455_" class="st20" cx="446" cy="1616.2" r="1.7"/>
									<circle id="XMLID_454_" class="st20" cx="450.2" cy="1624.8" r="1.7"/>
									<line id="XMLID_453_" class="st27" x1="445.3" y1="1616.2" x2="449.5" y2="1624.8"/>
									<line id="XMLID_452_" class="st27" x1="446.5" y1="1615.9" x2="450.7" y2="1624.5"/>
									<circle id="XMLID_451_" class="st20" cx="443.7" cy="1622.7" r="1.7"/>
									<circle id="XMLID_450_" class="st20" cx="452.5" cy="1618.5" r="1.7"/>
									<line id="XMLID_449_" class="st27" x1="443.7" y1="1623.4" x2="452.3" y2="1619.2"/>
									<line id="XMLID_448_" class="st27" x1="443.4" y1="1622.2" x2="451.9" y2="1618"/>
								</g>
								<g id="XMLID_445_">
									<path id="XMLID_446_" class="st17" d="M468.2,1640.4l-13.5,1.7c-3.8,0.3-7.5,1-11.2,2.1l-13.1,3.3
										c-1.2,0.3-0.9,2.1,0.3,2.1l12.9-1.7c3.8-0.3,7.5-1,11-2.1l13.6-3.3C469.8,1642,469.4,1640.4,468.2,1640.4z"/>
								</g>
								<g id="XMLID_431_">
									<path id="XMLID_444_" class="st17" d="M-1105.6,1586.3l19.2,1.6l18.5,5.6c1.2,0.3,0.9,2.1-0.3,2.1l-19.2-1.6l-18.5-5.6
										C-1107.1,1588.1-1106.8,1586.3-1105.6,1586.3z"/>
									<circle id="XMLID_443_" class="st5" cx="-1093.2" cy="1590.7" r="14.3"/>
									<circle id="XMLID_442_" class="st16" cx="-1093.3" cy="1590.2" r="13.8"/>
									<circle id="XMLID_441_" class="st26" cx="-1093.2" cy="1588.3" r="13.8"/>
									<circle id="XMLID_440_" class="st19" cx="-1093.2" cy="1588.3" r="11.9"/>
									<circle id="XMLID_439_" class="st20" cx="-1090.9" cy="1585.1" r="1.7"/>
									<circle id="XMLID_438_" class="st20" cx="-1095.1" cy="1593.7" r="1.7"/>
									<line id="XMLID_437_" class="st27" x1="-1090.2" y1="1585.1" x2="-1094.4" y2="1593.7"/>
									<line id="XMLID_436_" class="st27" x1="-1091.2" y1="1584.6" x2="-1095.4" y2="1593.2"/>
									<circle id="XMLID_435_" class="st20" cx="-1088.6" cy="1591.6" r="1.7"/>
									<circle id="XMLID_434_" class="st20" cx="-1097.2" cy="1587.4" r="1.7"/>
									<line id="XMLID_433_" class="st27" x1="-1088.6" y1="1592.1" x2="-1097.2" y2="1588.1"/>
									<line id="XMLID_432_" class="st27" x1="-1088.3" y1="1591.1" x2="-1096.8" y2="1586.9"/>
								</g>
								<g id="XMLID_417_">
									<path id="XMLID_430_" class="st17" d="M-1099.5,1555.2l19.2,1.6l18.5,5.6c1.2,0.3,0.9,2.1-0.3,2.1l-19.2-1.6l-18.5-5.6
										C-1101,1557-1100.7,1555.2-1099.5,1555.2z"/>
									<circle id="XMLID_429_" class="st5" cx="-1087" cy="1559.6" r="14.3"/>
									<circle id="XMLID_428_" class="st16" cx="-1087.2" cy="1559.1" r="13.8"/>
									<circle id="XMLID_427_" class="st26" cx="-1087" cy="1557.1" r="13.8"/>
									<circle id="XMLID_426_" class="st19" cx="-1087" cy="1557.1" r="11.9"/>
									<circle id="XMLID_425_" class="st20" cx="-1084.8" cy="1554" r="1.7"/>
									<circle id="XMLID_424_" class="st20" cx="-1089" cy="1562.6" r="1.7"/>
									<line id="XMLID_423_" class="st27" x1="-1084.1" y1="1554" x2="-1088.3" y2="1562.6"/>
									<line id="XMLID_422_" class="st27" x1="-1085.1" y1="1553.5" x2="-1089.3" y2="1562"/>
									<circle id="XMLID_421_" class="st20" cx="-1082.5" cy="1560.3" r="1.7"/>
									<circle id="XMLID_420_" class="st20" cx="-1091.1" cy="1556.1" r="1.7"/>
									<line id="XMLID_419_" class="st27" x1="-1082.5" y1="1561" x2="-1091.1" y2="1556.8"/>
									<line id="XMLID_418_" class="st27" x1="-1082.1" y1="1559.9" x2="-1090.7" y2="1555.7"/>
								</g>
								<g id="XMLID_403_">
									<path id="XMLID_416_" class="st17" d="M-1110.3,1617.6l19.2,1.6l18.5,5.6c1.2,0.3,0.9,2.1-0.3,2.1l-19.2-1.6l-18.5-5.6
										C-1111.9,1619.2-1111.5,1617.5-1110.3,1617.6z"/>
									<circle id="XMLID_415_" class="st5" cx="-1097.9" cy="1621.8" r="14.3"/>
									<circle id="XMLID_414_" class="st16" cx="-1098.1" cy="1621.3" r="13.8"/>
									<circle id="XMLID_413_" class="st26" cx="-1097.9" cy="1619.4" r="13.8"/>
									<circle id="XMLID_412_" class="st19" cx="-1097.9" cy="1619.4" r="11.9"/>
									<circle id="XMLID_411_" class="st20" cx="-1095.6" cy="1616.2" r="1.7"/>
									<circle id="XMLID_410_" class="st20" cx="-1099.8" cy="1624.8" r="1.7"/>
									<line id="XMLID_409_" class="st27" x1="-1094.9" y1="1616.2" x2="-1099.1" y2="1624.8"/>
									<line id="XMLID_408_" class="st27" x1="-1096.1" y1="1615.9" x2="-1100.2" y2="1624.5"/>
									<circle id="XMLID_407_" class="st20" cx="-1093.3" cy="1622.7" r="1.7"/>
									<circle id="XMLID_406_" class="st20" cx="-1101.9" cy="1618.5" r="1.7"/>
									<line id="XMLID_405_" class="st27" x1="-1093.3" y1="1623.4" x2="-1101.9" y2="1619.2"/>
									<line id="XMLID_404_" class="st27" x1="-1093" y1="1622.2" x2="-1101.6" y2="1618"/>
								</g>
								<g id="XMLID_401_">
									<path id="XMLID_402_" class="st17" d="M-1117.8,1640.4l13.5,1.7c3.8,0.3,7.5,1,11.2,2.1l13.1,3.3c1.2,0.3,0.9,2.1-0.3,2.1
										l-12.9-1.7c-3.8-0.3-7.5-1-11-2.1l-13.6-3.3C-1119.2,1642-1119,1640.4-1117.8,1640.4z"/>
								</g>
							</g>
						</g>
					</g>
					<g>
						<g>
							<g>
								<defs>
									<circle id="SVGID_4_" cx="150" cy="150" r="150"/>
								</defs>
								<clipPath id="SVGID_5_">
									<use xlink:href="#SVGID_4_"  style="overflow:visible;"/>
								</clipPath>
								<g class="st28">
									<path class="st29" d="M150,5c38.7,0,75.1,15.1,102.5,42.5S295,111.3,295,150s-15.1,75.1-42.5,102.5S188.7,295,150,295
										s-75.1-15.1-102.5-42.5S5,188.7,5,150S20.1,74.9,47.5,47.5S111.3,5,150,5 M150,0C67.2,0,0,67.2,0,150s67.2,150,150,150
										s150-67.2,150-150S232.8,0,150,0L150,0z"/>
								</g>
							</g>
						</g>
					</g>
				</g>
			</g>
		</g>
	</g>
</g>
</svg>
