<?xml version="1.0" encoding="utf-8"?>
<!-- Generator: Adobe Illustrator 21.1.0, SVG Export Plug-In . SVG Version: 6.00 Build 0)  -->
<svg version="1.1" id="Layer_1" xmlns="http://www.w3.org/2000/svg" xmlns:xlink="http://www.w3.org/1999/xlink" x="0px" y="0px"
	 viewBox="0 0 300 300" style="enable-background:new 0 0 300 300;" xml:space="preserve">
<style type="text/css">
	.st0{fill:#DDDDDD;}
	.st1{clip-path:url(#SVGID_2_);}
	.st2{fill:#F1F1F2;stroke:#404041;stroke-miterlimit:10;}
	.st3{fill:#FFFFFF;stroke:#404041;stroke-miterlimit:10;}
	.st4{fill:#929497;}
	.st5{fill:#F1F1F2;}
	.st6{fill:#C5C7C9;}
	.st7{fill:none;stroke:#404041;stroke-miterlimit:10;}
	.st8{fill:none;stroke:#808184;stroke-width:0.5;stroke-miterlimit:10;}
	.st9{fill:none;stroke:#808184;stroke-width:0.5;stroke-miterlimit:10;stroke-dasharray:1.0012,2.0024;}
	.st10{fill:none;stroke:#808184;stroke-width:0.5;stroke-miterlimit:10;stroke-dasharray:1.0052,2.0105;}
	.st11{fill:none;stroke:#808184;stroke-width:0.5;stroke-miterlimit:10;stroke-dasharray:0.9946,1.9892;}
	
		.st12{fill:none;stroke:#808184;stroke-width:0.5;stroke-linecap:round;stroke-linejoin:round;stroke-miterlimit:10;stroke-dasharray:1.3,3.5;}
	.st13{fill:none;stroke:#CECECE;stroke-width:0.5;stroke-miterlimit:10;stroke-dasharray:1,2;}
	.st14{fill:none;stroke:#CECECE;stroke-width:0.5;stroke-miterlimit:10;}
	.st15{fill:none;stroke:#CECECE;stroke-width:0.5;stroke-miterlimit:10;stroke-dasharray:1.0052,2.0105;}
	.st16{fill:#DBDCDD;}
	.st17{fill:#404041;stroke:#D0D2D3;stroke-width:0.5;stroke-miterlimit:10;}
	.st18{fill:#FFFFFF;stroke:#6D6E70;stroke-miterlimit:10;}
	.st19{fill:#FFFFFF;stroke:#929497;stroke-width:0.25;stroke-miterlimit:10;}
	.st20{fill:#404041;}
	.st21{fill:none;stroke:#6D6E70;stroke-width:0.5;stroke-miterlimit:10;}
	.st22{fill:none;stroke:#CECECE;stroke-width:0.5;stroke-miterlimit:10;stroke-dasharray:0.9935,1.9871;}
	.st23{fill:none;stroke:#808184;stroke-width:0.5;stroke-miterlimit:10;stroke-dasharray:1,2;}
	.st24{opacity:0.7;fill:#FFFFFF;enable-background:new    ;}
	.st25{fill:none;stroke:#726FE3;stroke-miterlimit:10;stroke-dasharray:2,3.5;}
	.st26{fill:#FFFFFF;stroke:#6D6E70;stroke-width:0.5;stroke-miterlimit:10;}
	.st27{fill:none;stroke:#6D6E70;stroke-width:0.25;stroke-miterlimit:10;}
	.st28{clip-path:url(#SVGID_4_);}
	.st29{fill:#9AA0BB;}
</style>
<g>
	<g>
		<circle id="SVGID_7_" class="st0" cx="150" cy="150" r="150"/>
	</g>
	<g>
		<g>
			<g>
				<defs>
					<circle id="SVGID_1_" cx="150" cy="150" r="150"/>
				</defs>
				<clipPath id="SVGID_2_">
					<use xlink:href="#SVGID_1_"  style="overflow:visible;"/>
				</clipPath>
				<g class="st1">
					<g id="XMLID_1095_">
						<g id="XMLID_1196_">
							<g id="XMLID_1372_">
								<g id="XMLID_1435_">
									<polygon id="XMLID_1454_" class="st2" points="27.4,-139.3 73.6,-87.7 -85.4,742.2 -244.2,-87.7 -200.4,-139.3 									
										"/>
									<path id="XMLID_1453_" class="st3" d="M29.7-163.8c0,0,0.5-2.8-114.7-2.8c-0.3,0-0.9,0-1.2,0c-0.3,0-0.9,0-1.2,0
										c-115.4,0-114.7,2.8-114.7,2.8l-13.8,50.2c0,0,18.7,4.7,64.4,6.6c17.7,0.7,40.6,1.2,66.6,1.2c26.2,0,46.7-0.5,64.4-1.2
										c45.5-1.9,64.4-6.6,64.4-6.6L29.7-163.8z"/>
									<g id="XMLID_1449_">
										<path id="XMLID_1452_" class="st4" d="M-181.7-165c0,0-11.9,13.3-11,30.4c1,17,1.7,22.7,1.7,22.7h-25.2l13.8-51.4
											L-181.7-165z"/>
										<path id="XMLID_1451_" class="st5" d="M-176.8-165.2c-3.1,0.2-5.9,0.2-8.2,0.3c-6.6,11.2-6.8,42.8-6.6,54.6
											c3.7,0.3,7.9,0.7,12.4,1c-0.7-3.5-1.7-10.5-1.7-23.6C-181-148.6-178.2-160.3-176.8-165.2z"/>
										<path id="XMLID_1450_" class="st6" d="M-184.2-165c-1.7,0-3.3,0.2-4.7,0.2c-2.8,2.3-5.6,6.3-6.3,13.5
											c-1.4,14.2-1.9,32.4-2.3,40.4c3.5,0.3,7.7,0.7,12.4,1C-186.8-122-191-154.4-184.2-165z"/>
									</g>
									<g id="XMLID_1445_">
										<path id="XMLID_1448_" class="st4" d="M7.6-165c0,0,11.9,13.3,11,30.4c-1,17-1.7,22.7-1.7,22.7h26.4l-15-51.4L7.6-165z"/>
										<path id="XMLID_1447_" class="st5" d="M2.7-165.2c3.1,0.2,5.9,0.2,8.2,0.3c6.6,11.2,6.8,42.8,6.6,54.6
											c-3.7,0.3-7.9,0.7-12.4,1c0.7-3.5,1.7-10.5,1.7-23.6C7.1-148.6,4.3-160.3,2.7-165.2z"/>
										<path id="XMLID_1446_" class="st6" d="M10.3-165c1.7,0,3.3,0.2,4.7,0.2c2.8,2.3,5.6,6.3,6.3,13.5
											c1.4,14.2,1.9,32.4,2.3,40.4c-3.5,0.3-7.7,0.7-12.4,1C12.9-122,16.9-154.4,10.3-165z"/>
									</g>
									<path id="XMLID_1444_" class="st7" d="M29.7-163.8c0,0,0.5-2.8-114.7-2.8c-0.3,0-0.9,0-1.2,0c-0.3,0-0.9,0-1.2,0
										c-115.4,0-114.7,2.8-114.7,2.8l-13.8,50.2c0,0,18.7,4.7,64.4,6.6c17.7,0.7,40.6,1.2,66.6,1.2c26.2,0,46.7-0.5,64.4-1.2
										c45.5-1.9,64.4-6.6,64.4-6.6L29.7-163.8z"/>
									<g id="XMLID_1441_">
										<polygon id="XMLID_1443_" class="st4" points="-194.2,-7.3 -85.4,537.8 21.3,-7.3 -48.5,598.8 -89.1,772.4 -121.2,593 
																					"/>
										<polygon id="XMLID_1442_" class="st6" points="-86.4,604 27.4,-29 -85.4,469.6 -196.8,-30 										"/>
									</g>
									<g id="XMLID_1439_">
										<g>
											<line class="st8" x1="-85.6" y1="-99.1" x2="-85.6" y2="-98.2"/>
											<line class="st9" x1="-85.6" y1="-94.7" x2="-85.6" y2="617.8"/>
											<line class="st8" x1="-85.6" y1="619.6" x2="-85.6" y2="620.5"/>
										</g>
									</g>
									<path id="XMLID_1438_" class="st4" d="M-145-86.5l4.2,4.4c0,0,29.7-2.3,55.3-2.3c25.4,0,57.4,2.3,57.4,2.3l2.8-4.4H-145z"
										/>
									<path id="XMLID_1437_" class="st6" d="M-141.9-83.2l3,3.1c0,0,28.3-2.1,53.2-2.1S-29.6-80-29.6-80l1.7-3.1l-57.9-1.2
										L-141.9-83.2z"/>
									<path id="XMLID_1436_" class="st3" d="M-85.4-105.7c-26.4,0-48.1-0.2-65.9-0.9l7.5,20.1h58.1h0.7H-27l7.5-20.1
										C-37.1-105.9-59-105.7-85.4-105.7z"/>
								</g>
								<path id="XMLID_1434_" class="st2" d="M-27,1718.1c0-3.1,0-116.6,0-116.6h-117.2v116.6H-27z"/>
								<g id="XMLID_1431_">
									<polygon id="XMLID_1433_" class="st4" points="-84.3,1645 -129.6,1746.4 -85.6,1584.3 -39,1748.2 									"/>
									<polygon id="XMLID_1432_" class="st6" points="-85.6,1665.3 -129.6,1746.4 -85.6,1631 -39,1748.2 									"/>
								</g>
								<path id="XMLID_1429_" class="st3" d="M-23,1032.3C-33.6,789.7-45.3,855-45.3,855l-36.9-123.5c-25-125.2-56-366-62.1-408.5
									c-10-68.7-75-287.8-75-287.8c-20.6-132.5,19.4-198.5,19.4-198.5s-99.7,56.8-120,70.3c-10.7,7-102.6,47.4-180.8,83.6
									c-95,43.9-108.2,67.3-108.2,67.3c73.3,45.5,88.5,208.4,89.9,399.9c1.4,191.5-51.6,517.8-58.2,687.9
									c-6.8,176.4-43,609.4-43,609.4s314.9,80.4,401,56.7c86-23.6,93-71.9,110-116.5l25.2-88.7
									C-84.5,1606.7-12.3,1274.8-23,1032.3z"/>
								<g id="XMLID_1427_">
									<g>
										<line class="st8" x1="-332.1" y1="650.7" x2="-332.1" y2="651.6"/>
										<line class="st10" x1="-332.1" y1="655.1" x2="-332.1" y2="1143.8"/>
										<line class="st8" x1="-332.1" y1="1145.6" x2="-332.1" y2="1146.5"/>
									</g>
								</g>
								<g id="XMLID_1421_">
									<path id="XMLID_1426_" class="st5" d="M-293.8,1163.4l5.8,81.5c2.8,46.5-19.2,61-42.3,61h-252.3l0.9-21.3L-293.8,1163.4z"
										/>
									<path id="XMLID_1425_" class="st6" d="M-293.8,1160.6l2.6,67c2.8,46.5-12.9,72.7-39.7,72.7h-251.8l0.9-21.3L-293.8,1160.6z
										"/>
									<path id="XMLID_1424_" class="st3" d="M-293.8,1181.1v-23.4h-283.6l-7,137.6h248c32.9,0,42.7-38.6,42.7-71.7l0,0V1181.1z"
										/>
									<g id="XMLID_1422_">
										<g>
											<line class="st8" x1="-295.7" y1="1172" x2="-296.6" y2="1172"/>
											<line class="st11" x1="-300.1" y1="1172" x2="-574.8" y2="1172"/>
											<line class="st8" x1="-576.6" y1="1172" x2="-577.5" y2="1172"/>
										</g>
									</g>
								</g>
								<g id="XMLID_1418_">
									<path id="XMLID_1420_" class="st5" d="M-518.2,802.5c27.8-189.7,15.7-341.9-3.1-461.3c3.7,23.6,5.6,65.1,6.1,71.3
										c3.1,40.2,6.6,81.8,5.4,121.7c-0.9,84.3-6.8,180.5-22,286.3c-12.9,90.6-22.6,130.8-29.6,146.4c-1.4,12.8-2.6,25.4-3.8,37.8
										C-547.7,1003.6-536,924.6-518.2,802.5z"/>
									<path id="XMLID_1419_" class="st6" d="M-535.3,725.6c-8.2,81.5-18.2,165.2-26.2,241.5c7-15.6,16.6-55.8,29.6-146.4
										c15.2-105.6,22.6-192.4,22.6-334.2v-0.3c1.4-51.4-12.6-146.9-12.2-142.5C-514,457.3-527.3,657.7-535.3,725.6z"/>
								</g>
								<path id="XMLID_1417_" class="st3" d="M-519.2,457.8c-1.4-179.4-14.7-334-76.8-390.1l-13.1-7.5c0,0-19.9-6.6-40.7,91.6
									c-20.8,98.3-243.1,1494.9-243.1,1494.9s36.9,32.2,113.5,35s115.4-16.1,115.4-16.1l120.3-871.2
									C-530.4,672.8-518.7,549.8-519.2,457.8z"/>
								<g id="XMLID_1414_">
									<path id="XMLID_1416_" class="st5" d="M-67.5,656.3c0,0-86.7,206.3-86.7,499.4s96.7,505.2,96.7,505.2l-10-355.7L-53.4,682
										L-67.5,656.3z"/>
									<path id="XMLID_1415_" class="st6" d="M-55.3,656.3c0,0-86.7,206.3-86.7,499.4s96.7,505.2,96.7,505.2l-10-355.7L-41.1,682
										L-55.3,656.3z"/>
								</g>
								<g id="XMLID_1377_">
									<path id="XMLID_1413_" class="st3" d="M347.9,456.8c1.4-191.5,16.6-354.6,89.9-399.9c0,0-13.3-23.4-108.2-67.3
										C240-51.9,165-84.4,135.3-101.2c-1.7-1-3.5-1.9-4.9-2.8c-25.5-15.6-102.1-60.3-102.1-60.3S64.8-98.4,44.4,34.1
										c0,0-65.7,219.1-75.5,287.8S-75.9,755.3-85,809.9c-2.4,14.2-16.4,32.5-18.4,44.8c-4.2,26.2-7.5,48.4-8.7,57
										c-2.4,27.8-15,66.1-17.5,122.2c-10.7,242.5,43.2,571.6,43.2,571.6l26.2,89.7c17,44.6,22.9,91.8,108.9,115.4
										c86,23.6,389.6-56.7,389.6-56.7s-24.8-433-31.7-609.4C399.3,974.7,346.4,648.3,347.9,456.8z"/>
									<path id="XMLID_1412_" class="st12" d="M431.5,49.2c0,0-47.4,16.3-62.6,98.1"/>
									<path id="XMLID_1411_" class="st12" d="M428.7,45.9c0,0-47.4,16.3-62.6,98.1"/>
									<path id="XMLID_1410_" class="st12" d="M365.1,146.8"/>
									<path id="XMLID_1409_" class="st12" d="M427.7,48.7"/>
									<polygon id="XMLID_1408_" class="st5" points="299.1,476.9 299.1,465 25,473.1 25,484.6 									"/>
									<polygon id="XMLID_1407_" class="st6" points="299.1,481.5 299.1,469.6 25,477.6 25,489.3 									"/>
									<polygon id="XMLID_1406_" class="st3" points="298.3,474.8 298.3,542.1 28.1,547.9 28.1,482.7 									"/>
									<line id="XMLID_1405_" class="st13" x1="28.1" y1="485.5" x2="298.3" y2="477.6"/>
									<g id="XMLID_1403_">
										<g>
											<line class="st14" x1="162.1" y1="650.7" x2="162.1" y2="651.6"/>
											<line class="st15" x1="162.1" y1="655.1" x2="162.1" y2="1143.8"/>
											<line class="st14" x1="162.1" y1="1145.6" x2="162.1" y2="1146.5"/>
										</g>
									</g>
									<g id="XMLID_1387_">
										<circle id="XMLID_1402_" class="st5" cx="-74.5" cy="977.2" r="27.6"/>
										<circle id="XMLID_1401_" class="st16" cx="-74" cy="976.1" r="26.6"/>
										<polygon id="XMLID_1400_" class="st17" points="-39.9,975.1 -73.7,968.5 -111.3,975.1 -73.3,981.7 										"/>
										<circle id="XMLID_1399_" class="st18" cx="-74.5" cy="972.5" r="26.6"/>
										<circle id="XMLID_1398_" class="st19" cx="-74.5" cy="972.5" r="22.9"/>
										<circle id="XMLID_1397_" class="st20" cx="-78.9" cy="966.4" r="3.3"/>
										<circle id="XMLID_1396_" class="st20" cx="-70.9" cy="983" r="3.3"/>
										<line id="XMLID_1395_" class="st21" x1="-80.1" y1="966.4" x2="-72.3" y2="982.8"/>
										<line id="XMLID_1394_" class="st21" x1="-78" y1="965.5" x2="-70" y2="981.9"/>
										<line id="XMLID_1393_" class="st21" x1="-80.1" y1="966.4" x2="-72.3" y2="982.8"/>
										<line id="XMLID_1392_" class="st21" x1="-78" y1="965.5" x2="-70" y2="981.9"/>
										<circle id="XMLID_1391_" class="st20" cx="-83.1" cy="978.6" r="3.3"/>
										<circle id="XMLID_1390_" class="st20" cx="-66.7" cy="970.6" r="3.3"/>
										<line id="XMLID_1389_" class="st21" x1="-83.1" y1="980" x2="-66.7" y2="972"/>
										<line id="XMLID_1388_" class="st21" x1="-84" y1="977.7" x2="-67.5" y2="969.9"/>
									</g>
									<g id="XMLID_1378_">
										<path id="XMLID_1386_" class="st5" d="M123.8,1163.4l-5.8,81.5c-2.8,46.5,19.2,61,42.3,61h252.5l-0.9-21.3L123.8,1163.4z"
											/>
										<path id="XMLID_1385_" class="st6" d="M123.8,1160.6l-2.6,67c-2.8,46.5,12.9,72.7,39.7,72.7h251.8l-0.9-21.3L123.8,1160.6
											z"/>
										<path id="XMLID_1384_" class="st3" d="M123.8,1181.1v-23.4h283.6l7,137.6h-248c-32.9,0-42.7-38.6-42.7-71.7l0,0
											L123.8,1181.1L123.8,1181.1z"/>
										<path id="XMLID_1383_" class="st12" d="M412.6,1290.4H172.4c-29,0-42.7-34.6-42.7-48.4l-1.4-83.1"/>
										<line id="XMLID_1382_" class="st12" x1="411.8" y1="1287.1" x2="171" y2="1286.5"/>
										<g id="XMLID_1380_">
											<g>
												<line class="st14" x1="407.4" y1="1163.8" x2="406.5" y2="1163.8"/>
												<line class="st22" x1="403.2" y1="1163.8" x2="128.7" y2="1163.8"/>
												<line class="st14" x1="126.9" y1="1163.8" x2="126" y2="1163.8"/>
											</g>
										</g>
										<path id="XMLID_1379_" class="st12" d="M132,1165l1.9,78.9c0.2,8,3.7,18.2,8,24.8c3.5,5.2,9.4,13.1,19.1,15.9"/>
									</g>
								</g>
								<g id="XMLID_1374_">
									<path id="XMLID_1376_" class="st5" d="M347.8,802.5C320,612.8,332,460.6,350.9,341.2c-3.7,23.6-5.6,65.1-6.1,71.3
										c-3.1,40.2-6.6,81.8-5.4,121.7c0.9,84.3,6.8,180.5,22,286.3c12.9,90.6,22.6,130.8,29.6,146.4c1.4,12.8,2.6,25.4,3.8,37.8
										C377.5,1003.6,365.6,924.6,347.8,802.5z"/>
									<path id="XMLID_1375_" class="st6" d="M364.9,725.6c8.2,81.5,18.2,165.2,26.2,241.5c-7-15.6-16.6-55.8-29.6-146.4
										C346.4,715.1,339,628.3,339,486.5v-0.3c-1.4-51.4,12.6-146.9,12.2-142.5C343.7,457.3,356.9,657.7,364.9,725.6z"/>
								</g>
								<path id="XMLID_1373_" class="st3" d="M479.8,149.6c-20.8-98.3-40.6-91.6-40.6-91.6l0,0c-73.3,45.5-88.5,208.4-89.9,399.9
									c-0.7,89.2,10.5,207.6,23.3,325.8l121.4,879.7c0,0,38.8,18.9,115.4,16.1c76.6-2.8,113.5-35,113.5-35S500.6,248,479.8,149.6z
									"/>
							</g>
							<g id="XMLID_1350_">
								<g id="XMLID_1364_">
									<g id="XMLID_1367_">
										<path id="XMLID_1371_" class="st5" d="M-398.6,108.8c0,0-15.6,11.4-9.1,28.5s226.8,576,265.3,652.4
											c13.3,26.2,29.4,60.3,44.6,93.9c11.9,25.7,20.5-31.3,20.5-31.3l-12.2-54.2L-352.2,142L-398.6,108.8z"/>
										<path id="XMLID_1370_" class="st6" d="M-394.9,108.8c0,0-16.3,4.5-9.8,21.9c6.5,17.1,227.5,582.8,266,659.2
											c12.4,24.5,27.1,56,41.6,87.3c7.5,16.4,19.6-41.8,19.6-41.8l-8.4-37.1l-262.6-656.1L-394.9,108.8z"/>
										<polygon id="XMLID_1369_" class="st5" points="-301.5,-80 -352.1,105.3 -352.1,112.3 -341.9,132.6 -259.7,166.3 
											-239.1,166.9 -297.8,-37.5 										"/>
										<polygon id="XMLID_1368_" class="st6" points="-301.5,-80 -347.5,106.5 -347.5,113.5 -331.4,154.3 -261.5,189.4 
											-225.8,166.9 -284.7,-37.5 										"/>
									</g>
									<path id="XMLID_1366_" class="st3" d="M-193.8-163.5c0,0-84.8,31-101.8,70.1S-343,110-343,110l86.4,39.2
										c0,0-129.4-50.7-142-40.6c-7.9,6.3-1.4,25.5,19.1,67.1c14.9,30.3,160.2,436.6,224.7,567.1c24.5,49.5,44.4,93.6,60.5,131
										c6.1,14.2,33-28.9,31.8-35.5c-2.8-15.4-6.1-15.4-9.6-36.4c-25.5-152-65.4-534-87.8-654.7
										c-25.4-137.4-47.6-206.9-47.6-247.6S-193.8-163.5-193.8-163.5z"/>
									<line id="XMLID_1365_" class="st23" x1="-181.4" y1="40.6" x2="-256.6" y2="149.2"/>
								</g>
								<g id="XMLID_1361_">
									<polygon id="XMLID_1363_" class="st5" points="-86.4,713.5 -114.9,823.8 -106.2,845.7 -84,751.3 									"/>
									<polygon id="XMLID_1362_" class="st6" points="-82.8,723.6 -111.3,833.8 -102.3,855.8 -80.3,761.4 									"/>
								</g>
								<g id="XMLID_1356_">
									<path id="XMLID_1360_" class="st5" d="M229.2,108.8c0,0,15.6,11.4,9.1,28.5c-6.5,17.1-226.8,576-265.3,652.4
										c-38.5,76.2-98.8,215.1-98.8,215.1l46-206.7L182.9,142L229.2,108.8z"/>
									<path id="XMLID_1359_" class="st6" d="M225.5,108.8c0,0,16.3,4.5,9.8,21.9c-6.5,17.1-227.5,582.8-266,659.2
										s-96.5,212.5-96.5,212.5l43.7-204.1l262.6-656.1L225.5,108.8z"/>
									<polygon id="XMLID_1358_" class="st5" points="132.1,-80 182.9,105.3 182.9,112.3 172.5,132.6 90.4,166.3 69.7,166.9 
										128.5,-37.5 									"/>
									<polygon id="XMLID_1357_" class="st6" points="132.1,-80 178.1,106.5 178.1,113.5 162.1,154.3 92.1,189.4 56.4,166.9 
										115.4,-37.5 									"/>
								</g>
								<path id="XMLID_1355_" class="st3" d="M24.4-165.2c0,0,84.8,32.7,101.8,71.9c17,39,47.4,203.4,47.4,203.4l-86.4,39.2
									c0,0,129.4-50.7,142-40.6c7.9,6.3-2.3,23.8-19.1,67.1c-24.5,63-172.8,449.1-232,582.1c-69.8,156.5-90.2,207.7-105.4,244.1
									c0,0-3.3-17.8,20.3-145c23.8-127.1,72-572.3,97.4-709.6C15.7,10,37.9-59.4,37.9-100.2S24.4-165.2,24.4-165.2z"/>
								<path id="XMLID_1354_" class="st17" d="M173.2,147.6l-12.8,4.4c-3.7,1-7.2,2.4-10.5,4.2l-12.2,5.8c-1,0.7-0.3,2.3,0.7,1.9
									l12.4-4.2c3.7-1,7.2-2.4,10.5-4.2l12.8-5.9C175.2,149,174.5,147.3,173.2,147.6z"/>
								<line id="XMLID_1353_" class="st13" x1="12.9" y1="46" x2="87.2" y2="149.2"/>
								<path class="st24" d="M484,151.1c-20.8-98.3-40.6-91.6-40.6-91.6l0,0c-73.3,45.5-88.5,208.4-89.9,399.9c0,0.5,0,0.9,0,1.4
									c-0.7-42.3-0.2-82.7,2.1-115.8c0-0.5-0.2,0.7-0.7,3.5c5.1-103.9,17.8-191.7,47.6-245.7l11.7-18.2
									c8.2-11,17.5-19.8,27.8-26.2c0,0-1.4-2.4-6.5-7.2l0.3-0.5c0,0-0.2,0-0.7,0.2c-0.9-0.9-1.7-1.6-2.8-2.6l0.7-1
									c0,0-0.5,0.2-1.2,0.5C419.1,36.9,391.6,17.7,333.8-9c-89.5-41.4-164.5-74-194.3-90.8c-1.7-1-3.5-1.9-4.9-2.8
									c-5.8-3.5-14.2-8.6-23.8-14.3c-10.3-8.9-26.4-20.6-41.3-28.9c-19.6-10.8-37.1-17.1-37.1-17.1s-0.9,0-1.7,0
									c-1.2-0.5-7-4-6.8-3.7c-9.1-0.9-29.9,1.4-104.7,1.4c-0.3,0-0.9,0-1.2,0s-0.9,0-1.2,0c-115.4,0-114.7,2.8-114.7,2.8l-0.5,1.9
									c-3,1.7-8,4.5-14.3,8.2c-15,7-34.8,17.1-51.1,29.6c-22.2,12.9-43.4,25.5-51.6,31c-10.7,7-102.6,47.4-180.8,83.6
									c-95,43.9-108.2,67.3-108.2,67.3c4.7,3,9.3,6.5,13.5,10.3c-0.2-0.2-0.3-0.2-0.3-0.3l-13.1-7.5c0,0-19.9-6.6-40.7,91.6
									c-20.8,98.3-243.1,1494.9-243.1,1494.9s36.9,32.2,113.5,35c76.6,2.8,115.4-16.1,115.4-16.1l120.3-871.2
									c-14.3,132-30.3,262.6-33.7,351.1c-6.8,176.4-43,609.4-43,609.4s314.9,80.4,401,56.7c53.2-14.7,76.2-38.6,89.9-65.4
									l15.4-28.2h58.4l10.5,18.7c12.9,30.1,34.3,57.7,93.6,74c86,23.6,389.6-56.7,389.6-56.7s-14.9-259.7-24.8-458.8h1.6l-7-137.6
									h-0.9c-0.2-4.5-0.3-8.7-0.5-12.9c-4.5-117.5-31.3-309.9-46.9-480.5c-2.1-26.8-4.2-58.1-5.9-91.1
									c4.2,65.7,11.4,138.1,19.2,210.5l121.4,879.7c0,0,38.8,18.9,115.4,16.1c76.6-2.8,113.5-35,113.5-35S504.8,249.6,484,151.1z
									 M-515.2,441.9c0-0.9,0-1.9,0-2.8C-515.2,440.2-515.2,441.1-515.2,441.9z M-515.4,433.4c0-1,0-2.3,0-3.3
									C-515.4,431.3-515.4,432.3-515.4,433.4z M-515.4,424.8c0-1,0-2.3,0-3.3C-515.6,422.5-515.4,423.7-515.4,424.8z
									 M-515.6,416.4c0-1.2,0-2.3,0-3.5C-515.7,414-515.6,415.2-515.6,416.4z M-515.7,407.8c0-1.2,0-2.3,0-3.5
									C-515.9,405.6-515.7,406.6-515.7,407.8z M-515.9,399.4c0-1.2,0-2.4-0.2-3.5C-516.1,397-516.1,398.2-515.9,399.4z
									 M-516.3,391c0-1.2,0-2.3-0.2-3.5C-516.3,388.6-516.3,389.8-516.3,391z M-516.4,382.7c0-1.2,0-2.3-0.2-3.5
									C-516.6,380.4-516.6,381.4-516.4,382.7z M-516.8,374.4c0-1,0-2.3-0.2-3.3C-516.8,372.2-516.8,373.2-516.8,374.4z
									 M-517.1,366c0-1,0-2.1-0.2-3.1C-517.1,363.8-517.1,365-517.1,366z M-520.6,599.1c-0.2,1.6-0.2,3-0.3,4.5
									C-521,602.1-520.8,600.5-520.6,599.1C-520.6,599-520.6,599-520.6,599.1z M-535.7,760.7c2.3-21.7,4.5-43.4,6.6-64.9
									C-531.1,717.3-533.4,739-535.7,760.7z M-528.8,693.7c0.2-2.6,0.5-5.1,0.7-7.7C-528.3,688.5-528.5,691.1-528.8,693.7z
									 M-527.8,682.2c0.2-2.3,0.3-4.5,0.7-6.8C-527.3,677.7-527.4,679.9-527.8,682.2z M-526.7,670.8c0.2-2.1,0.3-4.4,0.5-6.5
									C-526.2,666.5-526.4,668.6-526.7,670.8z M-525.7,659.5c0.2-2.1,0.3-4,0.5-6.1C-525.3,655.3-525.5,657.4-525.7,659.5z
									 M-524.6,648.1c0.2-1.9,0.3-3.8,0.5-5.8C-524.3,644.3-524.5,646.2-524.6,648.1z M-523.6,636.9c0.2-1.9,0.3-3.8,0.5-5.6
									C-523.4,633.1-523.4,635-523.6,636.9z M-522.7,625.7c0.2-1.7,0.3-3.7,0.3-5.4C-522.4,622-522.5,623.8-522.7,625.7z
									 M-521.8,614.5c0.2-1.7,0.3-3.5,0.3-5.2C-521.5,611-521.7,612.8-521.8,614.5z M-587.6,73.3c-0.3-0.3-0.9-0.9-1.2-1.2
									C-588.5,72.4-587.9,73-587.6,73.3z M-517.5,357.6c0-1-0.2-2.1-0.2-3.1C-517.5,355.7-517.5,356.6-517.5,357.6z M-517.8,349.4
									c0-0.9-0.2-1.9-0.2-2.8C-518,347.5-517.8,348.4-517.8,349.4z M-518.4,340.5c0-0.7,0-1.4-0.2-1.9
									C-518.4,339.3-518.4,340-518.4,340.5z M-519.4,322.7c0-0.7-0.2-1.4-0.2-2.1C-519.4,321.3-519.4,322-519.4,322.7z
									 M-519.9,315c0-0.9-0.2-1.7-0.2-2.8C-519.9,313.1-519.9,314.1-519.9,315z M-520.4,307.3c0-1-0.2-2.1-0.2-3
									C-520.6,305.2-520.4,306.2-520.4,307.3z M-521,299.6c0-1-0.2-2.1-0.2-3.1C-521.1,297.5-521.1,298.5-521,299.6z
									 M-521.7,292.1c-0.2-1-0.2-2.1-0.3-3.1C-521.8,290-521.7,291-521.7,292.1z M-522.4,284.6c-0.2-1-0.2-2.1-0.3-3.3
									C-522.5,282.5-522.4,283.5-522.4,284.6z M-523.1,277.2c-0.2-1-0.2-2.1-0.3-3.1C-523.2,275.1-523.1,276.2-523.1,277.2z
									 M-523.8,269.9c-0.2-1-0.2-2.1-0.3-3.1C-523.9,267.8-523.8,268.8-523.8,269.9z M-524.5,262.5c-0.2-1-0.2-2.1-0.3-3.1
									C-524.8,260.4-524.6,261.5-524.5,262.5z M-525.3,255.4c-0.2-1-0.2-2.1-0.3-3.1C-525.5,253.4-525.5,254.3-525.3,255.4z
									 M-526.2,248.4c-0.2-1-0.2-1.9-0.3-3C-526.6,246.3-526.4,247.3-526.2,248.4z M-527.1,241.2c-0.2-0.9-0.2-1.9-0.3-2.8
									C-527.4,239.3-527.3,240.3-527.1,241.2z M-528.1,234.2c-0.2-0.9-0.2-1.7-0.3-2.6C-528.3,232.4-528.3,233.3-528.1,234.2z
									 M-529.2,226.8c-0.2-0.7-0.2-1.4-0.3-2.1C-529.4,225.4-529.4,226.1-529.2,226.8z M-530.6,218.1c0-0.2,0-0.3-0.2-0.5
									C-530.8,217.8-530.6,217.9-530.6,218.1z M-531.8,211.5c-0.2-0.7-0.3-1.4-0.3-2.3C-532,210.1-531.8,210.8-531.8,211.5z
									 M-532.9,205.2c-0.2-0.9-0.3-1.7-0.5-2.6C-533.2,203.4-533,204.3-532.9,205.2z M-534.1,198.7c-0.2-0.9-0.3-1.7-0.5-2.8
									C-534.4,196.9-534.3,197.8-534.1,198.7z M-535.3,192.6c-0.2-0.9-0.3-1.9-0.5-2.8C-535.8,190.7-535.5,191.5-535.3,192.6z
									 M-536.7,186.3c-0.2-0.9-0.3-1.9-0.7-2.8C-537.1,184.5-536.9,185.4-536.7,186.3z M-538.1,180.3c-0.2-0.9-0.3-1.9-0.7-2.8
									C-538.5,178.4-538.3,179.5-538.1,180.3z M-539.5,174.4c-0.2-0.9-0.5-1.7-0.7-2.8C-539.9,172.5-539.7,173.5-539.5,174.4z
									 M-540.9,168.6c-0.2-0.9-0.5-1.7-0.7-2.6C-541.4,166.7-541.3,167.6-540.9,168.6z M-542.5,162.8c-0.2-0.9-0.5-1.7-0.7-2.6
									C-543,161.1-542.7,162-542.5,162.8z M-544.1,157.3c-0.2-0.9-0.5-1.7-0.7-2.6C-544.6,155.5-544.4,156.4-544.1,157.3z
									 M-545.8,151.7c-0.2-0.9-0.5-1.7-0.7-2.4C-546.3,150.1-546,150.8-545.8,151.7z M-547.4,146.2c-0.3-0.9-0.5-1.6-0.9-2.4
									C-547.9,144.7-547.7,145.5-547.4,146.2z M-549.3,141c-0.2-0.7-0.5-1.6-0.7-2.3C-549.8,139.4-549.5,140.1-549.3,141z
									 M-551.2,135.6c-0.2-0.7-0.5-1.4-0.7-1.9C-551.6,134.3-551.4,134.9-551.2,135.6z M-553.7,129.1c-0.2-0.7-0.5-1.2-0.7-1.9
									C-554,127.9-553.8,128.6-553.7,129.1z M-555.8,123.9c-0.3-0.7-0.5-1.4-0.9-1.9C-556.3,122.6-555.9,123.3-555.8,123.9z
									 M-557.7,119.3c-0.3-0.7-0.7-1.4-0.9-2.1C-558.4,117.9-558,118.6-557.7,119.3z M-559.8,114.6c-0.3-0.7-0.7-1.4-1-2.1
									C-560.5,113.4-560.1,113.9-559.8,114.6z M-562.1,110.2c-0.3-0.7-0.7-1.4-1-2.1C-562.8,108.8-562.4,109.5-562.1,110.2z
									 M-564.2,106c-0.3-0.7-0.7-1.4-1-1.9C-565,104.6-564.7,105.3-564.2,106z M-566.6,101.8c-0.3-0.7-0.7-1.4-1-1.9
									C-567.3,100.4-567,101.1-566.6,101.8z M-568.9,97.8c-0.3-0.7-0.7-1.2-1.2-1.9C-569.8,96.4-569.2,97.1-568.9,97.8z
									 M-571.3,93.8c-0.3-0.7-0.9-1.2-1.2-1.9C-572.2,92.6-571.7,93.3-571.3,93.8z M-573.8,90.1c-0.3-0.5-0.9-1.2-1.2-1.7
									C-574.7,88.9-574.3,89.6-573.8,90.1z M-576.4,86.4c-0.3-0.5-0.9-1.2-1.2-1.7C-577.3,85.4-576.8,85.9-576.4,86.4z M-579,83.1
									c-0.3-0.5-0.9-1-1.2-1.6C-579.9,81.9-579.6,82.4-579,83.1z M-581.8,79.6c-0.3-0.5-0.9-1-1.2-1.6
									C-582.7,78.7-582.2,79.3-581.8,79.6z M-584.6,76.5c-0.3-0.5-0.9-0.9-1.2-1.4C-585.5,75.6-585,75.9-584.6,76.5z M-538.3,785
									c-0.3,3.3-0.7,6.8-1,10.1C-539,791.8-538.6,788.5-538.3,785z M-535.8,762.1c-0.3,3.3-0.7,6.6-1,10
									C-536.5,768.8-536.2,765.4-535.8,762.1z M-537.1,773.7c-0.3,3.5-0.7,6.8-1,10.3C-537.8,780.5-537.4,777-537.1,773.7z"/>
								<path id="XMLID_1352_" class="st25" d="M-124.9,974.1c1.9-2.8,30.6-66.8,89.4-198.5c94.6-212.1,226.3-569.2,260.4-648.1
									c8.7-20.1-6.8-15.9-6.8-15.9L85.3,151.5l0.9-3.1l82.2-41.1c0,0-29.6-169.4-57.5-220.2"/>
								<path id="XMLID_1351_" class="st25" d="M-128.8,968.3c-3.8,9.4,59.1-122.9,126.6-282.1C87.9,473.4,198.6,180.2,218,130.5
									c8-20.5-8.6-11.4-8.6-11.4l-37.1,10.5l-81,24.1c-5.8,1.7-6.1-7.5-6.1-7.5l78.7-40.9c-5.2-37.6-45.5-212.1-57.9-223.5"/>
							</g>
							<g id="XMLID_1197_">
								<g id="XMLID_1336_">
									<path id="XMLID_1349_" class="st17" d="M700.8,1566.1l-19.2,1.6l-18.5,5.6c-1.2,0.3-0.9,2.1,0.3,2.1l19.2-1.6l18.5-5.6
										C702.4,1567.9,702,1566.1,700.8,1566.1z"/>
									<circle id="XMLID_1348_" class="st5" cx="688.4" cy="1570.5" r="14.3"/>
									<circle id="XMLID_1347_" class="st16" cx="688.6" cy="1570" r="13.8"/>
									<circle id="XMLID_1346_" class="st26" cx="688.4" cy="1568.1" r="13.8"/>
									<circle id="XMLID_1345_" class="st19" cx="688.4" cy="1568.1" r="11.9"/>
									<circle id="XMLID_1344_" class="st20" cx="686.1" cy="1564.9" r="1.7"/>
									<circle id="XMLID_1343_" class="st20" cx="690.3" cy="1573.5" r="1.7"/>
									<line id="XMLID_1342_" class="st27" x1="685.4" y1="1564.9" x2="689.6" y2="1573.5"/>
									<line id="XMLID_1341_" class="st27" x1="686.6" y1="1564.4" x2="690.8" y2="1573"/>
									<circle id="XMLID_1340_" class="st20" cx="683.9" cy="1571.4" r="1.7"/>
									<circle id="XMLID_1339_" class="st20" cx="692.6" cy="1567.2" r="1.7"/>
									<line id="XMLID_1338_" class="st27" x1="683.9" y1="1571.9" x2="692.4" y2="1567.9"/>
									<line id="XMLID_1337_" class="st27" x1="683.5" y1="1570.9" x2="692.1" y2="1566.7"/>
								</g>
								<g id="XMLID_1322_">
									<path id="XMLID_1335_" class="st17" d="M694.7,1535l-19.2,1.6l-18.5,5.6c-1.2,0.3-0.9,2.1,0.3,2.1l19.2-1.6l18.5-5.6
										C696.3,1536.8,695.9,1535,694.7,1535z"/>
									<circle id="XMLID_1334_" class="st5" cx="682.3" cy="1539.4" r="14.3"/>
									<circle id="XMLID_1333_" class="st16" cx="682.5" cy="1538.9" r="13.8"/>
									<circle id="XMLID_1332_" class="st26" cx="682.3" cy="1536.9" r="13.8"/>
									<circle id="XMLID_1331_" class="st19" cx="682.3" cy="1536.9" r="11.9"/>
									<circle id="XMLID_1330_" class="st20" cx="680" cy="1533.8" r="1.7"/>
									<circle id="XMLID_1329_" class="st20" cx="684.2" cy="1542.4" r="1.7"/>
									<line id="XMLID_1328_" class="st27" x1="679.3" y1="1533.8" x2="683.5" y2="1542.4"/>
									<line id="XMLID_1327_" class="st27" x1="680.5" y1="1533.3" x2="684.7" y2="1541.8"/>
									<circle id="XMLID_1326_" class="st20" cx="677.7" cy="1540.1" r="1.7"/>
									<circle id="XMLID_1325_" class="st20" cx="686.5" cy="1535.9" r="1.7"/>
									<line id="XMLID_1324_" class="st27" x1="677.7" y1="1540.8" x2="686.3" y2="1536.6"/>
									<line id="XMLID_1323_" class="st27" x1="677.4" y1="1539.7" x2="685.9" y2="1535.5"/>
								</g>
								<g id="XMLID_1308_">
									<path id="XMLID_1321_" class="st17" d="M705.5,1597.4l-19.2,1.6l-18.5,5.6c-1.2,0.3-0.9,2.1,0.3,2.1l19.2-1.6l18.5-5.6
										C707.1,1599,706.8,1597.3,705.5,1597.4z"/>
									<circle id="XMLID_1320_" class="st5" cx="693.1" cy="1601.6" r="14.3"/>
									<circle id="XMLID_1319_" class="st16" cx="693.5" cy="1601.1" r="13.8"/>
									<circle id="XMLID_1318_" class="st26" cx="693.1" cy="1599.2" r="13.8"/>
									<circle id="XMLID_1317_" class="st19" cx="693.1" cy="1599.2" r="11.9"/>
									<circle id="XMLID_1316_" class="st20" cx="690.8" cy="1596" r="1.7"/>
									<circle id="XMLID_1315_" class="st20" cx="695" cy="1604.6" r="1.7"/>
									<line id="XMLID_1314_" class="st27" x1="690.1" y1="1596" x2="694.3" y2="1604.6"/>
									<line id="XMLID_1313_" class="st27" x1="691.4" y1="1595.7" x2="695.6" y2="1604.3"/>
									<circle id="XMLID_1312_" class="st20" cx="688.6" cy="1602.5" r="1.7"/>
									<circle id="XMLID_1311_" class="st20" cx="697.3" cy="1598.3" r="1.7"/>
									<line id="XMLID_1310_" class="st27" x1="688.6" y1="1603.2" x2="697.1" y2="1599"/>
									<line id="XMLID_1309_" class="st27" x1="688.2" y1="1602" x2="696.8" y2="1597.8"/>
								</g>
								<g id="XMLID_1306_">
									<path id="XMLID_1307_" class="st17" d="M713.1,1620.2l-13.5,1.7c-3.8,0.3-7.5,1-11.2,2.1l-13.1,3.3
										c-1.2,0.3-0.9,2.1,0.3,2.1l12.9-1.7c3.8-0.3,7.5-1,11-2.1l13.6-3.3C714.6,1621.8,714.3,1620.2,713.1,1620.2z"/>
								</g>
								<g id="XMLID_1228_">
									<path id="XMLID_1305_" class="st17" d="M-860.6,1566.1l19.2,1.6l18.5,5.6c1.2,0.3,0.9,2.1-0.3,2.1l-19.2-1.6l-18.5-5.6
										C-862.1,1567.9-861.8,1566.1-860.6,1566.1z"/>
									<circle id="XMLID_1304_" class="st5" cx="-848.1" cy="1570.5" r="14.3"/>
									<circle id="XMLID_1303_" class="st16" cx="-848.3" cy="1570" r="13.8"/>
									<circle id="XMLID_1260_" class="st26" cx="-848.1" cy="1568.1" r="13.8"/>
									<circle id="XMLID_1237_" class="st19" cx="-848.1" cy="1568.1" r="11.9"/>
									<circle id="XMLID_1236_" class="st20" cx="-845.9" cy="1564.9" r="1.7"/>
									<circle id="XMLID_1235_" class="st20" cx="-850.1" cy="1573.5" r="1.7"/>
									<line id="XMLID_1234_" class="st27" x1="-845.2" y1="1564.9" x2="-849.4" y2="1573.5"/>
									<line id="XMLID_1233_" class="st27" x1="-846.2" y1="1564.4" x2="-850.4" y2="1573"/>
									<circle id="XMLID_1232_" class="st20" cx="-843.6" cy="1571.4" r="1.7"/>
									<circle id="XMLID_1231_" class="st20" cx="-852.2" cy="1567.2" r="1.7"/>
									<line id="XMLID_1230_" class="st27" x1="-843.6" y1="1571.9" x2="-852.2" y2="1567.9"/>
									<line id="XMLID_1229_" class="st27" x1="-843.3" y1="1570.9" x2="-851.8" y2="1566.7"/>
								</g>
								<g id="XMLID_1214_">
									<path id="XMLID_1227_" class="st17" d="M-854.4,1535l19.2,1.6l18.5,5.6c1.2,0.3,0.9,2.1-0.3,2.1l-19.2-1.6l-18.5-5.6
										C-856,1536.8-855.7,1535-854.4,1535z"/>
									<circle id="XMLID_1226_" class="st5" cx="-842" cy="1539.4" r="14.3"/>
									<circle id="XMLID_1225_" class="st16" cx="-842.2" cy="1538.9" r="13.8"/>
									<circle id="XMLID_1224_" class="st26" cx="-842" cy="1536.9" r="13.8"/>
									<circle id="XMLID_1223_" class="st19" cx="-842" cy="1536.9" r="11.9"/>
									<circle id="XMLID_1222_" class="st20" cx="-839.8" cy="1533.8" r="1.7"/>
									<circle id="XMLID_1221_" class="st20" cx="-844" cy="1542.4" r="1.7"/>
									<line id="XMLID_1220_" class="st27" x1="-839.1" y1="1533.8" x2="-843.3" y2="1542.4"/>
									<line id="XMLID_1219_" class="st27" x1="-840.1" y1="1533.3" x2="-844.3" y2="1541.8"/>
									<circle id="XMLID_1218_" class="st20" cx="-837.5" cy="1540.1" r="1.7"/>
									<circle id="XMLID_1217_" class="st20" cx="-846" cy="1535.9" r="1.7"/>
									<line id="XMLID_1216_" class="st27" x1="-837.5" y1="1540.8" x2="-846" y2="1536.6"/>
									<line id="XMLID_1215_" class="st27" x1="-837.1" y1="1539.7" x2="-845.7" y2="1535.5"/>
								</g>
								<g id="XMLID_1200_">
									<path id="XMLID_1213_" class="st17" d="M-865.3,1597.4l19.2,1.6l18.5,5.6c1.2,0.3,0.9,2.1-0.3,2.1l-19.2-1.6l-18.5-5.6
										C-866.9,1599-866.5,1597.3-865.3,1597.4z"/>
									<circle id="XMLID_1212_" class="st5" cx="-852.9" cy="1601.6" r="14.3"/>
									<circle id="XMLID_1211_" class="st16" cx="-853" cy="1601.1" r="13.8"/>
									<circle id="XMLID_1210_" class="st26" cx="-852.9" cy="1599.2" r="13.8"/>
									<circle id="XMLID_1209_" class="st19" cx="-852.9" cy="1599.2" r="11.9"/>
									<circle id="XMLID_1208_" class="st20" cx="-850.6" cy="1596" r="1.7"/>
									<circle id="XMLID_1207_" class="st20" cx="-854.8" cy="1604.6" r="1.7"/>
									<line id="XMLID_1206_" class="st27" x1="-849.9" y1="1596" x2="-854.1" y2="1604.6"/>
									<line id="XMLID_1205_" class="st27" x1="-851.1" y1="1595.7" x2="-855.1" y2="1604.3"/>
									<circle id="XMLID_1204_" class="st20" cx="-848.3" cy="1602.5" r="1.7"/>
									<circle id="XMLID_1203_" class="st20" cx="-856.9" cy="1598.3" r="1.7"/>
									<line id="XMLID_1202_" class="st27" x1="-848.3" y1="1603.2" x2="-856.9" y2="1599"/>
									<line id="XMLID_1201_" class="st27" x1="-848" y1="1602" x2="-856.5" y2="1597.8"/>
								</g>
								<g id="XMLID_1198_">
									<path id="XMLID_1199_" class="st17" d="M-872.8,1620.2l13.5,1.7c3.8,0.3,7.5,1,11.2,2.1l13.1,3.3c1.2,0.3,0.9,2.1-0.3,2.1
										l-12.9-1.7c-3.8-0.3-7.5-1-11-2.1l-13.6-3.3C-874.2,1621.8-874,1620.2-872.8,1620.2z"/>
								</g>
							</g>
						</g>
					</g>
					<g>
						<g>
							<g>
								<defs>
									<circle id="SVGID_3_" cx="150" cy="150" r="150"/>
								</defs>
								<clipPath id="SVGID_4_">
									<use xlink:href="#SVGID_3_"  style="overflow:visible;"/>
								</clipPath>
								<g class="st28">
									<path class="st29" d="M150,5c38.7,0,75.1,15.1,102.5,42.5S295,111.3,295,150s-15.1,75.1-42.5,102.5S188.7,295,150,295
										s-75.1-15.1-102.5-42.5S5,188.7,5,150S20.1,74.9,47.5,47.5S111.3,5,150,5 M150,0C67.2,0,0,67.2,0,150s67.2,150,150,150
										s150-67.2,150-150S232.8,0,150,0L150,0z"/>
								</g>
							</g>
						</g>
					</g>
				</g>
			</g>
		</g>
	</g>
</g>
</svg>
