<?xml version="1.0" encoding="utf-8"?>
<!-- Generator: Adobe Illustrator 21.1.0, SVG Export Plug-In . SVG Version: 6.00 Build 0)  -->
<svg version="1.1" id="Layer_1" xmlns="http://www.w3.org/2000/svg" xmlns:xlink="http://www.w3.org/1999/xlink" x="0px" y="0px"
	 viewBox="0 0 300 300" style="enable-background:new 0 0 300 300;" xml:space="preserve">
<style type="text/css">
	.st0{fill:#DDDDDD;}
	.st1{clip-path:url(#SVGID_2_);}
	.st2{fill:#F1F1F2;stroke:#404041;stroke-miterlimit:10;}
	.st3{fill:#FFFFFF;stroke:#404041;stroke-miterlimit:10;}
	.st4{fill:#929497;}
	.st5{fill:#F1F1F2;}
	.st6{fill:#C5C7C9;}
	.st7{fill:none;stroke:#404041;stroke-miterlimit:10;}
	.st8{fill:none;stroke:#808184;stroke-width:0.5;stroke-miterlimit:10;}
	.st9{fill:none;stroke:#808184;stroke-width:0.5;stroke-miterlimit:10;stroke-dasharray:1.0018,2.0036;}
	.st10{fill:none;stroke:#808184;stroke-width:0.5;stroke-miterlimit:10;stroke-dasharray:1.0001,2.0002;}
	.st11{fill:none;stroke:#808184;stroke-width:0.5;stroke-miterlimit:10;stroke-dasharray:1.0012,2.0024;}
	
		.st12{fill:none;stroke:#808184;stroke-width:0.5;stroke-linecap:round;stroke-linejoin:round;stroke-miterlimit:10;stroke-dasharray:1.3,3.5;}
	.st13{fill:none;stroke:#CECECE;stroke-width:0.5;stroke-miterlimit:10;stroke-dasharray:1,2;}
	.st14{fill:none;stroke:#CECECE;stroke-width:0.5;stroke-miterlimit:10;}
	.st15{fill:none;stroke:#CECECE;stroke-width:0.5;stroke-miterlimit:10;stroke-dasharray:1.0001,2.0002;}
	.st16{fill:#DBDCDD;}
	.st17{fill:#404041;stroke:#D0D2D3;stroke-width:0.5;stroke-miterlimit:10;}
	.st18{fill:#FFFFFF;stroke:#6D6E70;stroke-miterlimit:10;}
	.st19{fill:#FFFFFF;stroke:#929497;stroke-width:0.25;stroke-miterlimit:10;}
	.st20{fill:#404041;}
	.st21{fill:none;stroke:#6D6E70;stroke-width:0.5;stroke-miterlimit:10;}
	.st22{fill:none;stroke:#808184;stroke-width:0.5;stroke-miterlimit:10;stroke-dasharray:1,2;}
	.st23{fill:none;stroke:#726FE3;stroke-miterlimit:10;stroke-dasharray:2,3.5;}
	.st24{fill:#FFFFFF;stroke:#6D6E70;stroke-width:0.5;stroke-miterlimit:10;}
	.st25{fill:none;stroke:#6D6E70;stroke-width:0.25;stroke-miterlimit:10;}
	.st26{fill:none;stroke:#CECECE;stroke-width:0.5;stroke-miterlimit:10;stroke-dasharray:1.0001,2.0003;}
	.st27{clip-path:url(#SVGID_4_);}
	.st28{fill:#9AA0BB;}
</style>
<g>
	<g>
		<circle id="SVGID_7_" class="st0" cx="150" cy="150" r="150"/>
	</g>
	<g>
		<g>
			<g>
				<defs>
					<circle id="SVGID_1_" cx="150" cy="150" r="150"/>
				</defs>
				<clipPath id="SVGID_2_">
					<use xlink:href="#SVGID_1_"  style="overflow:visible;"/>
				</clipPath>
				<g class="st1">
					<g>
						<g id="XMLID_1095_">
							<g id="XMLID_1196_">
								<g id="XMLID_1372_">
									<g id="XMLID_1435_">
										<polygon id="XMLID_1454_" class="st2" points="-21.2,-1215.2 24.7,-1163.6 -134.2,-333 -293.2,-1163.6 -249.3,-1215.2 
																					"/>
										<path id="XMLID_1453_" class="st3" d="M-19.1-1239.7c0,0,0.6-2.8-114.9-2.8c-0.4,0-0.8,0-1.3,0c-0.4,0-0.8,0-1.3,0
											c-115.5,0-114.9,2.8-114.9,2.8l-13.9,50.2c0,0,18.8,4.8,64.3,6.6c17.7,0.7,40.5,1.3,66.7,1.3c26.2,0,46.7-0.4,64.3-1.3
											c45.5-2,64.3-6.6,64.3-6.6L-19.1-1239.7z"/>
										<g id="XMLID_1449_">
											<path id="XMLID_1452_" class="st4" d="M-230.6-1241c0,0-11.9,13.3-10.9,30.4c1,17.1,1.7,22.7,1.7,22.7H-265l13.9-51.4
												L-230.6-1241z"/>
											<path id="XMLID_1451_" class="st5" d="M-225.7-1241.1c-3.1,0.1-5.9,0.1-8.3,0.3c-6.7,11.3-6.9,42.9-6.7,54.5
												c3.6,0.3,7.8,0.7,12.5,1c-0.7-3.4-1.7-10.4-1.7-23.5C-230-1224.4-227.2-1236.2-225.7-1241.1z"/>
											<path id="XMLID_1450_" class="st6" d="M-233.2-1240.8c-1.7,0.1-3.2,0.1-4.6,0.3c-2.8,2.4-5.6,6.3-6.3,13.5
												c-1.4,14.2-2,32.2-2.2,40.5c3.6,0.4,7.7,0.7,12.5,1.1C-235.7-1197.9-239.8-1230.3-233.2-1240.8z"/>
										</g>
										<g id="XMLID_1445_">
											<path id="XMLID_1448_" class="st4" d="M-41.1-1241c0,0,11.9,13.3,10.9,30.4c-1,17.1-1.7,22.7-1.7,22.7h26.5l-15.1-51.4
												L-41.1-1241z"/>
											<path id="XMLID_1447_" class="st5" d="M-46-1241.1c3.1,0.1,5.9,0.1,8.3,0.3c6.7,11.3,6.9,42.9,6.7,54.5
												c-3.6,0.3-7.8,0.7-12.5,1c0.7-3.4,1.7-10.4,1.7-23.5C-41.7-1224.4-44.5-1236.2-46-1241.1z"/>
											<path id="XMLID_1446_" class="st6" d="M-38.5-1240.8c1.7,0.1,3.2,0.1,4.6,0.3c2.8,2.4,5.6,6.3,6.3,13.5
												c1.4,14.2,2,32.2,2.2,40.5c-3.6,0.4-7.7,0.7-12.5,1.1C-35.9-1197.9-31.9-1230.3-38.5-1240.8z"/>
										</g>
										<path id="XMLID_1444_" class="st7" d="M-19.1-1239.7c0,0,0.6-2.8-114.9-2.8c-0.4,0-0.8,0-1.3,0c-0.4,0-0.8,0-1.3,0
											c-115.5,0-114.9,2.8-114.9,2.8l-13.9,50.2c0,0,18.8,4.8,64.3,6.6c17.7,0.7,40.5,1.3,66.7,1.3c26.2,0,46.7-0.4,64.3-1.3
											c45.5-2,64.3-6.6,64.3-6.6L-19.1-1239.7z"/>
										<g id="XMLID_1441_">
											<polygon id="XMLID_1443_" class="st4" points="-243.2,-1083.1 -134.2,-537.7 -27.5,-1083.1 -97.3,-476.7 -137.9,-302.8 
												-170.2,-482.3 											"/>
											<polygon id="XMLID_1442_" class="st6" points="-135.3,-471.3 -21.4,-1104.9 -134.2,-605.8 -245.7,-1105.8 											"/>
										</g>
										<g id="XMLID_1439_">
											<g>
												<line class="st8" x1="-134.4" y1="-1175" x2="-134.4" y2="-1174.3"/>
												<line class="st9" x1="-134.4" y1="-1171.5" x2="-134.4" y2="-456.9"/>
												<line class="st8" x1="-134.4" y1="-455.5" x2="-134.4" y2="-454.8"/>
											</g>
										</g>
										<path id="XMLID_1438_" class="st4" d="M-193.8-1162.4l4.2,4.3c0,0,29.8-2.2,55.2-2.2s57.3,2.2,57.3,2.2l2.7-4.3H-193.8z"
											/>
										<path id="XMLID_1437_" class="st6" d="M-190.8-1159l3.1,3.2c0,0,28.3-2.1,53.2-2.1s56.2,2.1,56.2,2.1l1.8-3.2l-57.9-1.1
											L-190.8-1159z"/>
										<path id="XMLID_1436_" class="st3" d="M-134.2-1181.7c-26.3,0-48.2-0.1-66-0.8l7.4,20.2h58.1h0.7h58.1l7.4-20.2
											C-86-1181.8-107.8-1181.7-134.2-1181.7z"/>
									</g>
									<path id="XMLID_1434_" class="st2" d="M-75.9,643.5c0-3.1,0-116.9,0-116.9H-193v116.9H-75.9z"/>
									<g id="XMLID_1431_">
										<polygon id="XMLID_1433_" class="st4" points="-133.3,570.4 -178.6,672 -134.4,509.7 -87.9,673.6 										"/>
										<polygon id="XMLID_1432_" class="st6" points="-134.4,590.7 -178.6,672 -134.4,556.4 -87.9,673.6 										"/>
									</g>
									<path id="XMLID_1429_" class="st3" d="M-71.7-42.9c-10.6-242.7-22.4-177.4-22.4-177.4l-36.8-123.4
										C-155.9-469-186.8-709.9-193-752.4c-9.9-68.8-75.1-288.1-75.1-288.1c-20.6-132.7,19.3-198.7,19.3-198.7
										s-99.8,56.9-120.1,70.3c-10.6,7-102.7,47.5-180.9,83.6c-95.1,44-108.3,67.4-108.3,67.4c73.3,45.4,88.4,208.6,90,400.3
										s-51.6,518.1-58.1,688.4c-6.9,176.5-43,609.8-43,609.8s315.1,80.4,401.1,56.7c86.2-23.7,93-72,110-116.6l25.2-88.7
										C-133.3,532-61,199.9-71.7-42.9z"/>
									<g id="XMLID_1427_">
										<g>
											<line class="st8" x1="-381.2" y1="-424.7" x2="-381.2" y2="-424"/>
											<line class="st10" x1="-381.2" y1="-421.2" x2="-381.2" y2="69.3"/>
											<line class="st8" x1="-381.2" y1="70.7" x2="-381.2" y2="71.4"/>
										</g>
									</g>
									<g id="XMLID_1421_">
										<path id="XMLID_1426_" class="st5" d="M-342.8,88.4l5.9,81.5c2.8,46.5-19.2,61.1-42.3,61.1H-632l0.8-21.3L-342.8,88.4z"/>
										<path id="XMLID_1425_" class="st6" d="M-342.8,85.6l2.7,67.1c2.8,46.5-12.9,72.7-39.8,72.7H-632l0.8-21.3L-342.8,85.6z"/>
										<path id="XMLID_1424_" class="st3" d="M-342.8,106.2V82.8h-283.9l-7,137.7h248.1c32.9,0,42.7-38.8,42.7-71.7l0,0V106.2z"
											/>
										<g id="XMLID_1422_">
											<g>
												<line class="st8" x1="-344.7" y1="96.9" x2="-345.4" y2="96.9"/>
												<line class="st11" x1="-348.3" y1="96.9" x2="-624.5" y2="96.9"/>
												<line class="st8" x1="-625.9" y1="96.9" x2="-626.6" y2="96.9"/>
											</g>
										</g>
									</g>
									<g id="XMLID_1418_">
										<path id="XMLID_1420_" class="st5" d="M-567.2-272.7c27.7-189.8,15.7-342.1-3.2-461.7c3.8,23.7,5.6,65.2,6.2,71.3
											c3.1,40.4,6.7,82,5.3,121.8c-0.8,84.3-6.9,180.6-22.1,286.5c-13,90.7-22.7,130.9-29.6,146.4c-1.4,12.7-2.7,25.4-3.9,37.7
											C-596.9-71.5-585.2-150.6-567.2-272.7z"/>
										<path id="XMLID_1419_" class="st6" d="M-584.5-349.7c-8.3,81.5-18.2,165.3-26.2,241.7c6.9-15.6,16.5-55.9,29.6-146.4
											c15.1-105.8,22.6-192.4,22.6-334.4v-0.4c1.4-51.4-12.6-147.1-12.3-142.6C-563.2-618.2-576.3-417.5-584.5-349.7z"/>
									</g>
									<path id="XMLID_1417_" class="st3" d="M-568.5-617.6c-1.3-179.6-14.7-334.3-76.8-390.3l-13.2-7.6c0,0-19.9-6.6-40.6,91.8
										c-20.9,98.4-243.2,1496-243.2,1496s36.8,32.2,113.5,35c76.6,2.8,115.5-16.1,115.5-16.1L-593-280.6
										C-579.7-402.5-567.8-525.7-568.5-617.6z"/>
									<g id="XMLID_1414_">
										<path id="XMLID_1416_" class="st5" d="M-116.4-418.9c0,0-86.9,206.5-86.9,499.8s96.8,505.5,96.8,505.5l-9.9-356
											l14.3-623.8L-116.4-418.9z"/>
										<path id="XMLID_1415_" class="st6" d="M-104-418.9c0,0-86.9,206.5-86.9,499.8s96.8,505.5,96.8,505.5l-9.9-356l14.3-623.8
											L-104-418.9z"/>
									</g>
									<g id="XMLID_1377_">
										<path id="XMLID_1413_" class="st3" d="M299.3-618.6c1.4-191.7,16.5-354.8,90-400.3c0,0-13.3-23.4-108.3-67.4
											c-89.7-41.5-164.8-74.1-194.5-90.8c-1.8-1-3.5-2-4.9-2.9c-25.5-15.6-102.1-60.4-102.1-60.4s36.6,66,16.1,198.7
											c0,0-65.7,219.3-75.7,288.1s-45,433.9-54.2,488.6c-2.4,14.2-16.4,32.6-18.4,44.8c-4.2,26.2-7.6,48.5-8.8,57.2
											c-2.4,27.7-15,66.1-17.5,122.3c-10.6,242.7,43.2,571.9,43.2,571.9l26.3,89.8c17,44.7,22.8,91.9,109,115.6
											c86.2,23.7,389.8-56.7,389.8-56.7S364.5,246.6,357.6,70C350.9-100.5,297.9-426.9,299.3-618.6z"/>
										<path id="XMLID_1412_" class="st12" d="M383.1-1026.6c0,0-47.5,16.3-62.8,98.1"/>
										<path id="XMLID_1411_" class="st12" d="M380.2-1030c0,0-47.5,16.3-62.8,98.1"/>
										<path id="XMLID_1410_" class="st12" d="M316.6-928.9"/>
										<path id="XMLID_1409_" class="st12" d="M379.2-1027"/>
										<polygon id="XMLID_1408_" class="st5" points="250.6,-598.6 250.6,-610.5 -23.9,-602.3 -23.9,-590.8 										"/>
										<polygon id="XMLID_1407_" class="st6" points="250.6,-593.9 250.6,-605.8 -23.9,-597.7 -23.9,-586.2 										"/>
										<polygon id="XMLID_1406_" class="st3" points="249.6,-600.7 249.6,-533.1 -20.8,-527.5 -20.8,-592.8 										"/>
										<line id="XMLID_1405_" class="st13" x1="-20.8" y1="-590" x2="249.6" y2="-597.7"/>
										<g id="XMLID_1403_">
											<g>
												<line class="st14" x1="113.4" y1="-424.7" x2="113.4" y2="-424"/>
												<line class="st15" x1="113.4" y1="-421.2" x2="113.4" y2="69.3"/>
												<line class="st14" x1="113.4" y1="70.7" x2="113.4" y2="71.4"/>
											</g>
										</g>
										<g id="XMLID_1387_">
											<circle id="XMLID_1402_" class="st5" cx="-123.4" cy="-97.9" r="27.6"/>
											<circle id="XMLID_1401_" class="st16" cx="-123" cy="-99.1" r="26.6"/>
											<polygon id="XMLID_1400_" class="st17" points="-88.6,-100 -122.4,-106.6 -160.1,-100 -122.3,-93.3 											"/>
											<circle id="XMLID_1399_" class="st18" cx="-123.4" cy="-102.7" r="26.6"/>
											<circle id="XMLID_1398_" class="st19" cx="-123.4" cy="-102.7" r="23"/>
											<circle id="XMLID_1397_" class="st20" cx="-127.9" cy="-108.7" r="3.4"/>
											<circle id="XMLID_1396_" class="st20" cx="-119.7" cy="-92.2" r="3.4"/>
											<line id="XMLID_1395_" class="st21" x1="-129.1" y1="-108.7" x2="-121" y2="-92.2"/>
											<line id="XMLID_1394_" class="st21" x1="-126.9" y1="-109.6" x2="-118.9" y2="-93.2"/>
											<line id="XMLID_1393_" class="st21" x1="-129.1" y1="-108.7" x2="-121" y2="-92.2"/>
											<line id="XMLID_1392_" class="st21" x1="-126.9" y1="-109.6" x2="-118.9" y2="-93.2"/>
											<circle id="XMLID_1391_" class="st20" cx="-132.1" cy="-96.4" r="3.4"/>
											<circle id="XMLID_1390_" class="st20" cx="-115.5" cy="-104.5" r="3.4"/>
											<line id="XMLID_1389_" class="st21" x1="-132.1" y1="-95.1" x2="-115.5" y2="-103.1"/>
											<line id="XMLID_1388_" class="st21" x1="-132.9" y1="-97.2" x2="-116.4" y2="-105.4"/>
										</g>
										<g id="XMLID_1378_">
											<path id="XMLID_1386_" class="st5" d="M75.2,88.4l-5.9,81.5c-2.8,46.5,19.2,61.1,42.3,61.1h252.8l-0.8-21.3L75.2,88.4z"
												/>
											<path id="XMLID_1385_" class="st6" d="M75.2,85.6l-2.7,67.1c-2.8,46.5,12.9,72.7,39.8,72.7h252.1l-0.8-21.3L75.2,85.6z"
												/>
											<path id="XMLID_1384_" class="st3" d="M75.2,106.2V82.8H359l7,137.7H117.9c-32.9,0-42.7-38.8-42.7-71.7l0,0V106.2z"/>
										</g>
									</g>
									<g id="XMLID_1374_">
										<path id="XMLID_1376_" class="st5" d="M299.2-272.7c-27.7-189.8-15.7-342,3.2-461.7c-3.8,23.7-5.6,65.2-6.2,71.3
											c-3.1,40.4-6.7,82-5.3,121.8c0.8,84.3,6.9,180.6,22.1,286.5c13,90.7,22.7,130.9,29.6,146.4c1.4,12.7,2.7,25.4,3.9,37.7
											C328.9-71.5,317.1-150.6,299.2-272.7z"/>
										<path id="XMLID_1375_" class="st6" d="M316.3-349.7c8.3,81.5,18.2,165.3,26.2,241.7c-6.9-15.6-16.5-55.9-29.6-146.4
											c-15.1-105.8-22.6-192.4-22.6-334.4v-0.4c-1.4-51.4,12.6-147.1,12.3-142.6C295.1-618.2,308.3-417.5,316.3-349.7z"/>
									</g>
									<path id="XMLID_1373_" class="st3" d="M431.3-926.1c-20.9-98.4-40.6-91.8-40.6-91.8l0,0c-73.3,45.4-88.4,208.6-90,400.3
										c-0.7,89.2,10.5,207.6,23.3,326l121.5,880.4c0,0,38.8,18.9,115.5,16.1s113.5-35,113.5-35S452.1-827.6,431.3-926.1z"/>
								</g>
								<g id="XMLID_1350_">
									<g id="XMLID_1364_">
										<g id="XMLID_1367_">
											<path id="XMLID_1371_" class="st5" d="M-447.7-967c0,0-15.6,11.3-9,28.6c6.4,17.2,227,576.6,265.5,652.9
												c13.3,26.3,29.3,60.4,44.7,93.9c11.8,25.8,20.5-31.2,20.5-31.2l-12.2-54.2l-262.8-656.6L-447.7-967z"/>
											<path id="XMLID_1370_" class="st6" d="M-443.9-967c0,0-16.3,4.6-9.8,21.9c6.4,17.2,227.7,583.3,266.2,659.6
												c12.3,24.5,27.2,55.9,41.6,87.3c7.6,16.5,19.6-41.8,19.6-41.8l-8.4-37l-262.8-656.6L-443.9-967z"/>
											<polygon id="XMLID_1369_" class="st5" points="-350.6,-1155.8 -401.2,-970.4 -401.2,-963.4 -391,-943.1 -308.7,-909.3 
												-288,-908.8 -346.8,-1113.3 											"/>
											<polygon id="XMLID_1368_" class="st6" points="-350.6,-1155.8 -396.6,-969.1 -396.6,-962.1 -380.5,-921.4 -310.4,-886.3 
												-274.7,-908.8 -333.7,-1113.3 											"/>
										</g>
										<path id="XMLID_1366_" class="st3" d="M-242.7-1239.3c0,0-84.9,31.1-101.9,70.1c-17,39.1-47.4,203.4-47.4,203.4l86.4,39.2
											c0,0-129.6-50.9-142.1-40.5c-7.8,6.3-1.4,25.5,19.1,67.3c14.9,30.4,160.3,436.9,224.9,567.6c24.5,49.6,44.4,93.6,60.5,131
											c6,14.2,33.1-28.9,31.9-35.4c-2.9-15.4-6.2-15.4-9.7-36.4c-25.5-152.2-65.4-534.4-87.8-655.2
											c-25.5-137.4-47.5-207.1-47.5-247.9C-256.2-1216.9-242.7-1239.3-242.7-1239.3z"/>
										<line id="XMLID_1365_" class="st22" x1="-230.4" y1="-1035.1" x2="-305.5" y2="-926.4"/>
									</g>
									<g id="XMLID_1361_">
										<polygon id="XMLID_1363_" class="st5" points="-135.3,-361.6 -163.9,-251.5 -155,-229.5 -132.9,-323.9 										"/>
										<polygon id="XMLID_1362_" class="st6" points="-131.6,-351.7 -160.1,-241.4 -151.3,-219.4 -129.1,-313.9 										"/>
									</g>
									<g id="XMLID_1356_">
										<path id="XMLID_1360_" class="st5" d="M180.7-967c0,0,15.6,11.3,9,28.6c-6.4,17.2-227,576.6-265.5,652.9
											s-98.9,215.2-98.9,215.2l46.1-206.8l262.8-656.4L180.7-967z"/>
										<path id="XMLID_1359_" class="st6" d="M176.9-967c0,0,16.3,4.6,9.8,21.9C180.2-928-41-361.9-79.5-285.6
											s-96.7,212.7-96.7,212.7l43.7-204.1l262.8-656.6L176.9-967z"/>
										<polygon id="XMLID_1358_" class="st5" points="83.6,-1155.8 134.1,-970.4 134.1,-963.4 123.9,-943.1 41.7,-909.3 
											20.9,-908.8 79.8,-1113.3 										"/>
										<polygon id="XMLID_1357_" class="st6" points="83.6,-1155.8 129.5,-969.1 129.5,-962.1 113.4,-921.4 43.5,-886.3 
											7.6,-908.8 66.6,-1113.3 										"/>
									</g>
									<path id="XMLID_1355_" class="st3" d="M-24.3-1241.1c0,0,84.9,32.8,101.9,71.9c17,39.1,47.4,203.4,47.4,203.4l-86.4,39.2
										c0,0,129.6-50.9,142.1-40.5c7.8,6.3-2.2,23.8-19.1,67.3C136.9-836.9-11.4-450.5-70.7-317.4
										c-69.8,156.8-90.2,207.9-105.5,244.5c0,0-3.4-17.8,20.3-145.2s72-572.8,97.5-710.2c25.5-137.4,47.5-207.1,47.5-247.9
										S-24.3-1241.1-24.3-1241.1z"/>
									<path id="XMLID_1354_" class="st17" d="M124.6-928.1l-12.9,4.3c-3.6,1-7.1,2.5-10.5,4.3L89-913.7c-1.1,0.6-0.4,2.2,0.8,2
										l12.5-4.2c3.6-1,7.1-2.5,10.5-4.2l12.7-6C126.4-926.7,125.7-928.4,124.6-928.1z"/>
									<line id="XMLID_1353_" class="st13" x1="-35.9" y1="-1029.8" x2="38.5" y2="-926.4"/>
									<path id="XMLID_1352_" class="st23" d="M-173.8-101c2-2.8,30.5-66.8,89.4-198.7C10.1-512,142-869.2,176.2-948.1
										c8.7-20.2-6.9-16-6.9-16L36.5-924.2l1-3.2l82.2-41.1c0,0-29.6-169.5-57.4-220.3"/>
									<path id="XMLID_1351_" class="st23" d="M-173.8-114.2c0,0,55.3-115.6,122.9-274.9c90.2-213,200.9-506.5,220.4-556.1
										c8-20.5-8.5-11.3-8.5-11.3L123.8-946l-81,24.1c-5.9,1.8-6-7.6-6-7.6l78.7-40.9c-5.3-37.7-45.5-212.3-58-223.6"/>
								</g>
								<g id="XMLID_1197_">
									<g id="XMLID_1336_">
										<path id="XMLID_1349_" class="st17" d="M652.6,491.5l-19.2,1.5l-18.6,5.6c-1.1,0.4-0.8,2.1,0.4,2.1l19.2-1.7l18.5-5.6
											C654.1,493.2,653.8,491.5,652.6,491.5z"/>
										<circle id="XMLID_1348_" class="st5" cx="640.1" cy="495.8" r="14.4"/>
										<circle id="XMLID_1347_" class="st16" cx="640.4" cy="495.3" r="13.9"/>
										<circle id="XMLID_1346_" class="st24" cx="640.1" cy="493.5" r="13.9"/>
										<circle id="XMLID_1345_" class="st19" cx="640.1" cy="493.5" r="11.9"/>
										<circle id="XMLID_1344_" class="st20" cx="637.8" cy="490.2" r="1.7"/>
										<circle id="XMLID_1343_" class="st20" cx="642" cy="498.9" r="1.7"/>
										<line id="XMLID_1342_" class="st25" x1="637.1" y1="490.2" x2="641.3" y2="498.8"/>
										<line id="XMLID_1341_" class="st25" x1="638.3" y1="489.8" x2="642.5" y2="498.4"/>
										<circle id="XMLID_1340_" class="st20" cx="635.6" cy="496.7" r="1.7"/>
										<circle id="XMLID_1339_" class="st20" cx="644.3" cy="492.5" r="1.7"/>
										<line id="XMLID_1338_" class="st25" x1="635.6" y1="497.4" x2="644.1" y2="493.2"/>
										<line id="XMLID_1337_" class="st25" x1="635.2" y1="496.3" x2="643.7" y2="492.1"/>
									</g>
									<g id="XMLID_1322_">
										<path id="XMLID_1335_" class="st17" d="M646.4,460.4l-19.2,1.5l-18.6,5.6c-1.1,0.4-0.8,2.1,0.4,2.1l19.2-1.7l18.5-5.6
											C648.1,462.1,647.6,460.4,646.4,460.4z"/>
										<circle id="XMLID_1334_" class="st5" cx="634.1" cy="464.7" r="14.4"/>
										<circle id="XMLID_1333_" class="st16" cx="634.2" cy="464.2" r="13.9"/>
										<circle id="XMLID_1332_" class="st24" cx="634.1" cy="462.2" r="13.9"/>
										<circle id="XMLID_1331_" class="st19" cx="634.1" cy="462.2" r="11.9"/>
										<circle id="XMLID_1330_" class="st20" cx="631.7" cy="459.1" r="1.7"/>
										<circle id="XMLID_1329_" class="st20" cx="635.9" cy="467.7" r="1.7"/>
										<line id="XMLID_1328_" class="st25" x1="631" y1="459.1" x2="635.2" y2="467.7"/>
										<line id="XMLID_1327_" class="st25" x1="632.1" y1="458.6" x2="636.3" y2="467.3"/>
										<circle id="XMLID_1326_" class="st20" cx="629.4" cy="465.4" r="1.7"/>
										<circle id="XMLID_1325_" class="st20" cx="638.1" cy="461.2" r="1.7"/>
										<line id="XMLID_1324_" class="st25" x1="629.4" y1="466.1" x2="638.1" y2="461.9"/>
										<line id="XMLID_1323_" class="st25" x1="629" y1="465" x2="637.6" y2="460.8"/>
									</g>
									<g id="XMLID_1308_">
										<path id="XMLID_1321_" class="st17" d="M657.3,522.7l-19.2,1.5l-18.6,5.6c-1.1,0.4-0.8,2.1,0.4,2.1l19.2-1.7l18.5-5.6
											C658.9,524.4,658.6,522.7,657.3,522.7z"/>
										<circle id="XMLID_1320_" class="st5" cx="644.8" cy="527.1" r="14.4"/>
										<circle id="XMLID_1319_" class="st16" cx="645.1" cy="526.5" r="13.9"/>
										<circle id="XMLID_1318_" class="st24" cx="644.8" cy="524.6" r="13.9"/>
										<circle id="XMLID_1317_" class="st19" cx="644.8" cy="524.6" r="11.9"/>
										<circle id="XMLID_1316_" class="st20" cx="642.6" cy="521.5" r="1.7"/>
										<circle id="XMLID_1315_" class="st20" cx="646.8" cy="530" r="1.7"/>
										<line id="XMLID_1314_" class="st25" x1="641.9" y1="521.5" x2="646.1" y2="530"/>
										<line id="XMLID_1313_" class="st25" x1="643" y1="520.9" x2="647.2" y2="529.6"/>
										<circle id="XMLID_1312_" class="st20" cx="640.4" cy="527.8" r="1.7"/>
										<circle id="XMLID_1311_" class="st20" cx="648.9" cy="523.6" r="1.7"/>
										<line id="XMLID_1310_" class="st25" x1="640.4" y1="528.5" x2="648.9" y2="524.3"/>
										<line id="XMLID_1309_" class="st25" x1="639.9" y1="527.4" x2="648.5" y2="523.2"/>
									</g>
									<g id="XMLID_1306_">
										<path id="XMLID_1307_" class="st17" d="M664.7,545.6l-13.5,1.8c-3.8,0.3-7.6,1-11.2,2.1l-13,3.2c-1.1,0.4-0.8,2.1,0.4,2.1
											l13-1.7c3.8-0.3,7.4-1,11.1-2.1l13.6-3.4C666.3,547.3,666,545.4,664.7,545.6z"/>
									</g>
									<g id="XMLID_1228_">
										<path id="XMLID_1305_" class="st17" d="M-910,491.5l19.2,1.5l18.6,5.6c1.1,0.4,0.8,2.1-0.4,2.1l-19.2-1.7l-18.5-5.6
											C-911.6,493.2-911.2,491.5-910,491.5z"/>
										<circle id="XMLID_1304_" class="st5" cx="-897.6" cy="495.8" r="14.4"/>
										<circle id="XMLID_1303_" class="st16" cx="-897.8" cy="495.3" r="13.9"/>
										<circle id="XMLID_1260_" class="st24" cx="-897.6" cy="493.5" r="13.9"/>
										<circle id="XMLID_1237_" class="st19" cx="-897.6" cy="493.5" r="11.9"/>
										<circle id="XMLID_1236_" class="st20" cx="-895.2" cy="490.2" r="1.7"/>
										<circle id="XMLID_1235_" class="st20" cx="-899.4" cy="498.9" r="1.7"/>
										<line id="XMLID_1234_" class="st25" x1="-894.5" y1="490.2" x2="-898.7" y2="498.8"/>
										<line id="XMLID_1233_" class="st25" x1="-895.7" y1="489.8" x2="-899.9" y2="498.4"/>
										<circle id="XMLID_1232_" class="st20" cx="-893" cy="496.7" r="1.7"/>
										<circle id="XMLID_1231_" class="st20" cx="-901.7" cy="492.5" r="1.7"/>
										<line id="XMLID_1230_" class="st25" x1="-893" y1="497.4" x2="-901.7" y2="493.2"/>
										<line id="XMLID_1229_" class="st25" x1="-892.6" y1="496.3" x2="-901.1" y2="492.1"/>
									</g>
									<g id="XMLID_1214_">
										<path id="XMLID_1227_" class="st17" d="M-903.9,460.4l19.2,1.5l18.6,5.6c1.1,0.4,0.8,2.1-0.4,2.1l-19.2-1.7l-18.5-5.6
											C-905.5,462.1-905,460.4-903.9,460.4z"/>
										<circle id="XMLID_1226_" class="st5" cx="-891.5" cy="464.7" r="14.4"/>
										<circle id="XMLID_1225_" class="st16" cx="-891.6" cy="464.2" r="13.9"/>
										<circle id="XMLID_1224_" class="st24" cx="-891.5" cy="462.2" r="13.9"/>
										<circle id="XMLID_1223_" class="st19" cx="-891.5" cy="462.2" r="11.9"/>
										<circle id="XMLID_1222_" class="st20" cx="-889.1" cy="459.1" r="1.7"/>
										<circle id="XMLID_1221_" class="st20" cx="-893.3" cy="467.7" r="1.7"/>
										<line id="XMLID_1220_" class="st25" x1="-888.5" y1="459.1" x2="-892.6" y2="467.7"/>
										<line id="XMLID_1219_" class="st25" x1="-889.6" y1="458.6" x2="-893.7" y2="467.3"/>
										<circle id="XMLID_1218_" class="st20" cx="-887" cy="465.4" r="1.7"/>
										<circle id="XMLID_1217_" class="st20" cx="-895.5" cy="461.2" r="1.7"/>
										<line id="XMLID_1216_" class="st25" x1="-887" y1="466.1" x2="-895.5" y2="461.9"/>
										<line id="XMLID_1215_" class="st25" x1="-886.4" y1="465" x2="-895.1" y2="460.8"/>
									</g>
									<g id="XMLID_1200_">
										<path id="XMLID_1213_" class="st17" d="M-914.7,522.7l19.2,1.5l18.6,5.6c1.1,0.4,0.8,2.1-0.4,2.1l-19.2-1.7l-18.5-5.6
											C-916.3,524.4-916,522.7-914.7,522.7z"/>
										<circle id="XMLID_1212_" class="st5" cx="-902.2" cy="527.1" r="14.4"/>
										<circle id="XMLID_1211_" class="st16" cx="-902.5" cy="526.5" r="13.9"/>
										<circle id="XMLID_1210_" class="st24" cx="-902.2" cy="524.6" r="13.9"/>
										<circle id="XMLID_1209_" class="st19" cx="-902.2" cy="524.6" r="11.9"/>
										<circle id="XMLID_1208_" class="st20" cx="-900" cy="521.5" r="1.7"/>
										<circle id="XMLID_1207_" class="st20" cx="-904.2" cy="530" r="1.7"/>
										<line id="XMLID_1206_" class="st25" x1="-899.3" y1="521.5" x2="-903.5" y2="530"/>
										<line id="XMLID_1205_" class="st25" x1="-900.4" y1="520.9" x2="-904.6" y2="529.6"/>
										<circle id="XMLID_1204_" class="st20" cx="-897.8" cy="527.8" r="1.7"/>
										<circle id="XMLID_1203_" class="st20" cx="-906.4" cy="523.6" r="1.7"/>
										<line id="XMLID_1202_" class="st25" x1="-897.8" y1="528.5" x2="-906.3" y2="524.3"/>
										<line id="XMLID_1201_" class="st25" x1="-897.3" y1="527.4" x2="-905.9" y2="523.2"/>
									</g>
									<g id="XMLID_1198_">
										<path id="XMLID_1199_" class="st17" d="M-922.1,545.6l13.5,1.8c3.8,0.3,7.6,1,11.2,2.1l13,3.2c1.1,0.4,0.8,2.1-0.4,2.1
											l-13-1.7c-3.8-0.3-7.4-1-11.1-2.1l-13.6-3.4C-923.7,547.3-923.4,545.4-922.1,545.6z"/>
									</g>
								</g>
							</g>
						</g>
						<g id="XMLID_1380_">
							<g>
								<line class="st14" x1="359" y1="91.9" x2="358.3" y2="91.9"/>
								<line class="st26" x1="355.5" y1="91.9" x2="79.4" y2="91.9"/>
								<line class="st14" x1="78" y1="91.9" x2="77.3" y2="91.9"/>
							</g>
						</g>
					</g>
					<g>
						<g>
							<g>
								<defs>
									<circle id="SVGID_3_" cx="150" cy="150" r="150"/>
								</defs>
								<clipPath id="SVGID_4_">
									<use xlink:href="#SVGID_3_"  style="overflow:visible;"/>
								</clipPath>
								<g class="st27">
									<path class="st28" d="M150,5c38.7,0,75.1,15.1,102.5,42.5S295,111.3,295,150s-15.1,75.1-42.5,102.5S188.7,295,150,295
										s-75.1-15.1-102.5-42.5C20.1,225.1,5,188.7,5,150S20.1,74.9,47.5,47.5C74.9,20.1,111.3,5,150,5 M150,0C67.2,0,0,67.2,0,150
										s67.2,150,150,150s150-67.2,150-150S232.8,0,150,0L150,0z"/>
								</g>
							</g>
						</g>
					</g>
				</g>
			</g>
		</g>
	</g>
</g>
</svg>
