<?xml version="1.0" encoding="utf-8"?>
<!-- Generator: Adobe Illustrator 21.1.0, SVG Export Plug-In . SVG Version: 6.00 Build 0)  -->
<svg version="1.1" id="Layer_1" xmlns="http://www.w3.org/2000/svg" xmlns:xlink="http://www.w3.org/1999/xlink" x="0px" y="0px"
	 viewBox="0 0 300 300" style="enable-background:new 0 0 300 300;" xml:space="preserve">
<style type="text/css">
	.st0{fill:#DDDDDD;}
	.st1{clip-path:url(#SVGID_2_);}
	.st2{fill:#F1F1F2;stroke:#404041;stroke-miterlimit:10;}
	.st3{fill:#FFFFFF;stroke:#404041;stroke-miterlimit:10;}
	.st4{fill:#929497;}
	.st5{fill:#F1F1F2;}
	.st6{fill:#C5C7C9;}
	.st7{fill:none;stroke:#404041;stroke-miterlimit:10;}
	.st8{fill:none;stroke:#808184;stroke-width:0.5;stroke-miterlimit:10;}
	.st9{fill:none;stroke:#808184;stroke-width:0.5;stroke-miterlimit:10;stroke-dasharray:1.0018,2.0036;}
	.st10{fill:none;stroke:#808184;stroke-width:0.5;stroke-miterlimit:10;stroke-dasharray:1.0001,2.0002;}
	.st11{fill:none;stroke:#808184;stroke-width:0.5;stroke-miterlimit:10;stroke-dasharray:1.0012,2.0024;}
	
		.st12{fill:none;stroke:#808184;stroke-width:0.5;stroke-linecap:round;stroke-linejoin:round;stroke-miterlimit:10;stroke-dasharray:1.3,3.5;}
	.st13{fill:none;stroke:#CECECE;stroke-width:0.5;stroke-miterlimit:10;stroke-dasharray:1,2;}
	.st14{fill:none;stroke:#CECECE;stroke-width:0.5;stroke-miterlimit:10;}
	.st15{fill:none;stroke:#CECECE;stroke-width:0.5;stroke-miterlimit:10;stroke-dasharray:1.0001,2.0002;}
	.st16{fill:#DBDCDD;}
	.st17{fill:#404041;stroke:#D0D2D3;stroke-width:0.5;stroke-miterlimit:10;}
	.st18{fill:#FFFFFF;stroke:#6D6E70;stroke-miterlimit:10;}
	.st19{fill:#FFFFFF;stroke:#929497;stroke-width:0.25;stroke-miterlimit:10;}
	.st20{fill:#404041;}
	.st21{fill:none;stroke:#6D6E70;stroke-width:0.5;stroke-miterlimit:10;}
	.st22{fill:none;stroke:#808184;stroke-width:0.5;stroke-miterlimit:10;stroke-dasharray:1,2;}
	.st23{fill:none;stroke:#726FE3;stroke-miterlimit:10;stroke-dasharray:2,3.5;}
	.st24{fill:#FFFFFF;stroke:#6D6E70;stroke-width:0.5;stroke-miterlimit:10;}
	.st25{fill:none;stroke:#6D6E70;stroke-width:0.25;stroke-miterlimit:10;}
	.st26{opacity:0.7;fill:#FFFFFF;stroke:#FFFFFF;stroke-miterlimit:10;enable-background:new    ;}
	.st27{fill:none;stroke:#CECECE;stroke-width:0.5;stroke-miterlimit:10;stroke-dasharray:1.0001,2.0003;}
	.st28{clip-path:url(#SVGID_4_);}
	.st29{fill:#9AA0BB;}
</style>
<g>
	<g>
		<circle id="SVGID_7_" class="st0" cx="150" cy="150" r="150"/>
	</g>
	<g>
		<g>
			<g>
				<defs>
					<circle id="SVGID_1_" cx="150" cy="150" r="150"/>
				</defs>
				<clipPath id="SVGID_2_">
					<use xlink:href="#SVGID_1_"  style="overflow:visible;"/>
				</clipPath>
				<g class="st1">
					<g>
						<g id="XMLID_1095_">
							<g id="XMLID_1196_">
								<g id="XMLID_1372_">
									<g id="XMLID_1435_">
										<polygon id="XMLID_1454_" class="st2" points="-22,-1215.2 24,-1163.7 -134.8,-333.8 -293.7,-1163.7 -249.9,-1215.2 
																					"/>
										<path id="XMLID_1453_" class="st3" d="M-19.9-1239.7c0,0,0.6-2.8-114.8-2.8c-0.4,0-0.8,0-1.3,0c-0.4,0-0.8,0-1.3,0
											c-115.4,0-114.8,2.8-114.8,2.8l-13.9,50.1c0,0,18.8,4.8,64.3,6.6c17.6,0.7,40.5,1.3,66.6,1.3c26.2,0,46.6-0.4,64.3-1.3
											c45.5-2,64.3-6.6,64.3-6.6L-19.9-1239.7z"/>
										<g id="XMLID_1449_">
											<path id="XMLID_1452_" class="st4" d="M-231.1-1241c0,0-11.9,13.3-10.9,30.4c1,17.1,1.7,22.7,1.7,22.7h-25.2l13.9-51.4
												L-231.1-1241z"/>
											<path id="XMLID_1451_" class="st5" d="M-226.2-1241.1c-3.1,0.1-5.9,0.1-8.3,0.3c-6.7,11.3-6.9,42.8-6.7,54.5
												c3.6,0.3,7.8,0.7,12.5,1c-0.7-3.4-1.7-10.4-1.7-23.5C-230.6-1224.4-227.8-1236.2-226.2-1241.1z"/>
											<path id="XMLID_1450_" class="st6" d="M-233.8-1240.8c-1.7,0.1-3.2,0.1-4.6,0.3c-2.8,2.4-5.6,6.3-6.3,13.4
												c-1.4,14.1-2,32.2-2.2,40.5c3.6,0.4,7.7,0.7,12.5,1.1C-236.3-1198-240.4-1230.3-233.8-1240.8z"/>
										</g>
										<g id="XMLID_1445_">
											<path id="XMLID_1448_" class="st4" d="M-41.8-1241c0,0,11.9,13.3,10.9,30.4c-1,17.1-1.7,22.7-1.7,22.7h26.5l-15.1-51.4
												L-41.8-1241z"/>
											<path id="XMLID_1447_" class="st5" d="M-46.7-1241.1c3.1,0.1,5.9,0.1,8.3,0.3c6.7,11.3,6.9,42.8,6.7,54.5
												c-3.6,0.3-7.8,0.7-12.5,1c0.7-3.4,1.7-10.4,1.7-23.5C-42.4-1224.4-45.2-1236.2-46.7-1241.1z"/>
											<path id="XMLID_1446_" class="st6" d="M-39.2-1240.8c1.7,0.1,3.2,0.1,4.6,0.3c2.8,2.4,5.6,6.3,6.3,13.4
												c1.4,14.1,2,32.2,2.2,40.5c-3.6,0.4-7.7,0.7-12.5,1.1C-36.7-1198-32.6-1230.3-39.2-1240.8z"/>
										</g>
										<path id="XMLID_1444_" class="st7" d="M-19.9-1239.7c0,0,0.6-2.8-114.8-2.8c-0.4,0-0.8,0-1.3,0c-0.4,0-0.8,0-1.3,0
											c-115.4,0-114.8,2.8-114.8,2.8l-13.9,50.1c0,0,18.8,4.8,64.3,6.6c17.6,0.7,40.5,1.3,66.6,1.3c26.2,0,46.6-0.4,64.3-1.3
											c45.5-2,64.3-6.6,64.3-6.6L-19.9-1239.7z"/>
										<g id="XMLID_1441_">
											<polygon id="XMLID_1443_" class="st4" points="-243.7,-1083.2 -134.8,-538.3 -28.3,-1083.2 -98,-477.3 -138.6,-303.5 
												-170.8,-482.9 											"/>
											<polygon id="XMLID_1442_" class="st6" points="-135.9,-471.9 -22.1,-1105 -134.8,-606.3 -246.2,-1105.9 											"/>
										</g>
										<g id="XMLID_1439_">
											<g>
												<line class="st8" x1="-135.1" y1="-1175" x2="-135.1" y2="-1174.3"/>
												<line class="st9" x1="-135.1" y1="-1171.5" x2="-135.1" y2="-457.5"/>
												<line class="st8" x1="-135.1" y1="-456.1" x2="-135.1" y2="-455.4"/>
											</g>
										</g>
										<path id="XMLID_1438_" class="st4" d="M-194.4-1162.4l4.2,4.3c0,0,29.8-2.2,55.2-2.2s57.3,2.2,57.3,2.2l2.7-4.3H-194.4z"
											/>
										<path id="XMLID_1437_" class="st6" d="M-191.4-1159.1l3.1,3.2c0,0,28.3-2.1,53.2-2.1s56.1,2.1,56.1,2.1l1.8-3.2l-57.8-1.1
											L-191.4-1159.1z"/>
										<path id="XMLID_1436_" class="st3" d="M-134.8-1181.7c-26.3,0-48.2-0.1-65.9-0.8l7.4,20.2h58.1h0.7h58.1l7.4-20.2
											C-86.6-1181.9-108.5-1181.7-134.8-1181.7z"/>
									</g>
									<path id="XMLID_1434_" class="st2" d="M-76.6,642.1c0-3.1,0-116.8,0-116.8h-117v116.8H-76.6z"/>
									<g id="XMLID_1431_">
										<polygon id="XMLID_1433_" class="st4" points="-134,569 -179.2,670.5 -135.1,508.4 -88.6,672.2 										"/>
										<polygon id="XMLID_1432_" class="st6" points="-135.1,589.3 -179.2,670.5 -135.1,555 -88.6,672.2 										"/>
									</g>
									<path id="XMLID_1429_" class="st3" d="M-72.4-43.8C-83-286.3-94.8-221.1-94.8-221.1l-36.8-123.3
										c-24.9-125.2-55.9-366-62-408.4c-9.9-68.7-75-287.8-75-287.8c-20.6-132.6,19.3-198.5,19.3-198.5s-99.7,56.8-120,70.3
										c-10.6,7-102.6,47.5-180.7,83.6c-95.1,44-108.2,67.3-108.2,67.3c73.2,45.4,88.3,208.5,89.9,400s-51.5,517.7-58.1,687.8
										c-6.9,176.4-43,609.3-43,609.3s314.9,80.4,400.8,56.7c86.1-23.7,93-72,109.9-116.5l25.2-88.6
										C-134,530.6-61.7,198.8-72.4-43.8z"/>
									<g id="XMLID_1427_">
										<g>
											<line class="st8" x1="-381.6" y1="-425.3" x2="-381.6" y2="-424.6"/>
											<line class="st10" x1="-381.6" y1="-421.8" x2="-381.6" y2="68.3"/>
											<line class="st8" x1="-381.6" y1="69.7" x2="-381.6" y2="70.4"/>
										</g>
									</g>
									<g id="XMLID_1421_">
										<path id="XMLID_1426_" class="st5" d="M-343.3,87.4l5.9,81.5c2.8,46.5-19.2,61-42.3,61h-252.6l0.8-21.3L-343.3,87.4z"/>
										<path id="XMLID_1425_" class="st6" d="M-343.3,84.6l2.7,67.1c2.8,46.5-12.9,72.7-39.8,72.7h-251.9l0.8-21.3L-343.3,84.6z"
											/>
										<path id="XMLID_1424_" class="st3" d="M-343.3,105.1V81.8h-283.6l-7,137.6H-386c32.9,0,42.7-38.8,42.7-71.7l0,0V105.1z"/>
										<g id="XMLID_1422_">
											<g>
												<line class="st8" x1="-345.2" y1="95.9" x2="-345.9" y2="95.9"/>
												<line class="st11" x1="-348.7" y1="95.9" x2="-624.8" y2="95.9"/>
												<line class="st8" x1="-626.2" y1="95.9" x2="-626.9" y2="95.9"/>
											</g>
										</g>
									</g>
									<g id="XMLID_1418_">
										<path id="XMLID_1420_" class="st5" d="M-567.5-273.4c27.7-189.7,15.7-341.9-3.2-461.3c3.8,23.7,5.6,65.1,6.2,71.3
											c3.1,40.3,6.7,81.9,5.3,121.7c-0.8,84.3-6.9,180.5-22.1,286.3c-13,90.6-22.7,130.8-29.5,146.3
											c-1.4,12.7-2.7,25.3-3.9,37.7C-597.2-72.4-585.5-151.5-567.5-273.4z"/>
										<path id="XMLID_1419_" class="st6" d="M-584.8-350.4c-8.3,81.5-18.2,165.2-26.2,241.5c6.9-15.5,16.5-55.9,29.5-146.3
											c15.1-105.7,22.5-192.2,22.5-334.2v-0.4c1.4-51.4-12.6-147-12.3-142.5C-563.5-618.7-576.6-418.2-584.8-350.4z"/>
									</g>
									<path id="XMLID_1417_" class="st3" d="M-568.8-618.1c-1.3-179.5-14.7-334-76.7-390l-13.2-7.6c0,0-19.9-6.6-40.6,91.7
										c-20.9,98.3-243,1494.8-243,1494.8s36.8,32.2,113.4,35c76.6,2.8,115.4-16.1,115.4-16.1l120.3-871.1
										C-580-403.2-568.1-526.3-568.8-618.1z"/>
									<g id="XMLID_1414_">
										<path id="XMLID_1416_" class="st5" d="M-117-419.6c0,0-86.8,206.4-86.8,499.4s96.7,505.1,96.7,505.1l-9.9-355.7
											l14.3-623.3L-117-419.6z"/>
										<path id="XMLID_1415_" class="st6" d="M-104.7-419.6c0,0-86.8,206.4-86.8,499.4s96.7,505.1,96.7,505.1l-9.9-355.7
											l14.3-623.3L-104.7-419.6z"/>
									</g>
									<g id="XMLID_1377_">
										<path id="XMLID_1413_" class="st3" d="M298.4-619.1c1.4-191.5,16.5-354.5,89.9-400c0,0-13.3-23.4-108.2-67.3
											c-89.6-41.4-164.6-74.1-194.3-90.7c-1.8-1-3.5-2-4.9-2.9c-25.5-15.5-102.1-60.3-102.1-60.3s36.5,65.9,16.1,198.5
											c0,0-65.7,219.1-75.6,287.8s-44.9,433.6-54.2,488.2c-2.4,14.1-16.4,32.6-18.3,44.8c-4.2,26.2-7.6,48.4-8.8,57.1
											c-2.4,27.7-15,66.1-17.5,122.2c-10.6,242.5,43.1,571.5,43.1,571.5l26.3,89.7C-93.2,664.2-87.3,711.4-1.2,735
											c86.1,23.7,389.5-56.7,389.5-56.7S363.5,245.4,356.6,69C349.9-101.4,297-427.6,298.4-619.1z"/>
										<path id="XMLID_1412_" class="st12" d="M382.1-1026.8c0,0-47.5,16.2-62.7,98"/>
										<path id="XMLID_1411_" class="st12" d="M379.2-1030.1c0,0-47.5,16.2-62.7,98"/>
										<path id="XMLID_1410_" class="st12" d="M315.6-929.2"/>
										<path id="XMLID_1409_" class="st12" d="M378.2-1027.2"/>
										<polygon id="XMLID_1408_" class="st5" points="249.7,-599.1 249.7,-611 -24.6,-602.8 -24.6,-591.4 										"/>
										<polygon id="XMLID_1407_" class="st6" points="249.7,-594.4 249.7,-606.3 -24.6,-598.2 -24.6,-586.7 										"/>
										<polygon id="XMLID_1406_" class="st3" points="248.7,-601.2 248.7,-533.7 -21.5,-528.1 -21.5,-593.3 										"/>
										<line id="XMLID_1405_" class="st13" x1="-21.5" y1="-590.5" x2="248.7" y2="-598.2"/>
										<g id="XMLID_1403_">
											<g>
												<line class="st14" x1="112.6" y1="-425.3" x2="112.6" y2="-424.6"/>
												<line class="st15" x1="112.6" y1="-421.8" x2="112.6" y2="68.3"/>
												<line class="st14" x1="112.6" y1="69.7" x2="112.6" y2="70.4"/>
											</g>
										</g>
										<g id="XMLID_1387_">
											<circle id="XMLID_1402_" class="st5" cx="-124" cy="-98.8" r="27.6"/>
											<circle id="XMLID_1401_" class="st16" cx="-123.6" cy="-100" r="26.6"/>
											<polygon id="XMLID_1400_" class="st17" points="-89.3,-100.9 -123,-107.5 -160.7,-100.9 -122.9,-94.2 											"/>
											<circle id="XMLID_1399_" class="st18" cx="-124" cy="-103.6" r="26.6"/>
											<circle id="XMLID_1398_" class="st19" cx="-124" cy="-103.6" r="23"/>
											<circle id="XMLID_1397_" class="st20" cx="-128.5" cy="-109.6" r="3.4"/>
											<circle id="XMLID_1396_" class="st20" cx="-120.4" cy="-93.1" r="3.4"/>
											<line id="XMLID_1395_" class="st21" x1="-129.8" y1="-109.6" x2="-121.6" y2="-93.1"/>
											<line id="XMLID_1394_" class="st21" x1="-127.5" y1="-110.5" x2="-119.5" y2="-94.1"/>
											<line id="XMLID_1393_" class="st21" x1="-129.8" y1="-109.6" x2="-121.6" y2="-93.1"/>
											<line id="XMLID_1392_" class="st21" x1="-127.5" y1="-110.5" x2="-119.5" y2="-94.1"/>
											<circle id="XMLID_1391_" class="st20" cx="-132.7" cy="-97.3" r="3.4"/>
											<circle id="XMLID_1390_" class="st20" cx="-116.2" cy="-105.4" r="3.4"/>
											<line id="XMLID_1389_" class="st21" x1="-132.7" y1="-96" x2="-116.2" y2="-104"/>
											<line id="XMLID_1388_" class="st21" x1="-133.5" y1="-98.1" x2="-117" y2="-106.3"/>
										</g>
										<g id="XMLID_1378_">
											<path id="XMLID_1386_" class="st5" d="M74.4,87.4l-5.9,81.5c-2.8,46.5,19.2,61,42.3,61h252.6l-0.8-21.3L74.4,87.4z"/>
											<path id="XMLID_1385_" class="st6" d="M74.4,84.6l-2.7,67.1c-2.8,46.5,12.9,72.7,39.8,72.7h251.9l-0.8-21.3L74.4,84.6z"
												/>
											<path id="XMLID_1384_" class="st3" d="M74.4,105.1V81.8H358l7,137.6H117.1c-32.9,0-42.7-38.8-42.7-71.7l0,0V105.1z"/>
										</g>
									</g>
									<g id="XMLID_1374_">
										<path id="XMLID_1376_" class="st5" d="M298.2-273.4c-27.7-189.7-15.7-341.7,3.2-461.3c-3.8,23.7-5.6,65.1-6.2,71.3
											c-3.1,40.3-6.7,81.9-5.3,121.7c0.8,84.3,6.9,180.5,22.1,286.3c13,90.6,22.7,130.8,29.5,146.3c1.4,12.7,2.7,25.3,3.9,37.7
											C327.9-72.4,316.2-151.5,298.2-273.4z"/>
										<path id="XMLID_1375_" class="st6" d="M315.3-350.4c8.3,81.5,18.2,165.2,26.2,241.5c-6.9-15.5-16.5-55.9-29.5-146.3
											c-15.1-105.7-22.5-192.2-22.5-334.2v-0.4c-1.4-51.4,12.6-147,12.3-142.5C294.2-618.7,307.3-418.2,315.3-350.4z"/>
									</g>
									<path id="XMLID_1373_" class="st3" d="M430.3-926.4c-20.9-98.3-40.6-91.7-40.6-91.7l0,0c-73.2,45.4-88.3,208.5-89.9,400
										c-0.7,89.2,10.5,207.5,23.2,325.8l121.4,879.8c0,0,38.8,18.9,115.4,16.1c76.6-2.8,113.4-35,113.4-35S451-828,430.3-926.4z"
										/>
								</g>
								<g id="XMLID_1350_">
									<g id="XMLID_1364_">
										<g id="XMLID_1367_">
											<path id="XMLID_1371_" class="st5" d="M-448.1-967.3c0,0-15.5,11.3-9,28.6c6.4,17.2,226.8,576.1,265.3,652.4
												c13.3,26.3,29.3,60.3,44.7,93.8c11.8,25.8,20.4-31.2,20.4-31.2l-12.2-54.2l-262.6-656L-448.1-967.3z"/>
											<path id="XMLID_1370_" class="st6" d="M-444.3-967.3c0,0-16.2,4.6-9.8,21.8s227.5,582.8,266,659.1
												c12.3,24.5,27.2,55.9,41.6,87.2c7.6,16.5,19.6-41.7,19.6-41.7l-8.4-37l-262.6-656L-444.3-967.3z"/>
											<polygon id="XMLID_1369_" class="st5" points="-351.1,-1155.8 -401.6,-970.6 -401.6,-963.6 -391.4,-943.3 -309.2,-909.6 
												-288.5,-909 -347.3,-1113.4 											"/>
											<polygon id="XMLID_1368_" class="st6" points="-351.1,-1155.8 -397,-969.4 -397,-962.4 -380.9,-921.6 -310.9,-886.6 
												-275.2,-909 -334.2,-1113.4 											"/>
										</g>
										<path id="XMLID_1366_" class="st3" d="M-243.3-1239.3c0,0-84.8,31.1-101.8,70C-362-1130.2-392.4-966-392.4-966l86.4,39.2
											c0,0-129.5-50.8-142-40.5c-7.8,6.3-1.4,25.5,19,67.2c14.8,30.4,160.2,436.5,224.7,567.1c24.5,49.6,44.4,93.5,60.5,130.9
											c6,14.1,33-28.8,31.9-35.4c-2.9-15.4-6.2-15.4-9.7-36.4c-25.5-152-65.4-534-87.8-654.6c-25.5-137.3-47.5-206.9-47.5-247.7
											C-256.7-1216.9-243.3-1239.3-243.3-1239.3z"/>
										<line id="XMLID_1365_" class="st22" x1="-231" y1="-1035.3" x2="-306" y2="-926.7"/>
									</g>
									<g id="XMLID_1361_">
										<polygon id="XMLID_1363_" class="st5" points="-135.9,-362.3 -164.5,-252.3 -155.7,-230.3 -133.5,-324.7 										"/>
										<polygon id="XMLID_1362_" class="st6" points="-132.3,-352.4 -160.7,-242.2 -151.9,-220.2 -129.8,-314.6 										"/>
									</g>
									<g id="XMLID_1356_">
										<path id="XMLID_1360_" class="st5" d="M179.8-967.3c0,0,15.5,11.3,9,28.6c-6.4,17.2-226.8,576.1-265.3,652.4
											s-98.8,215-98.8,215l46.1-206.6l262.6-655.9L179.8-967.3z"/>
										<path id="XMLID_1359_" class="st6" d="M176-967.3c0,0,16.2,4.6,9.8,21.8s-227.5,582.8-266,659.1s-96.6,212.5-96.6,212.5
											l43.7-204l262.6-656L176-967.3z"/>
										<polygon id="XMLID_1358_" class="st5" points="82.8,-1155.8 133.3,-970.6 133.3,-963.6 123.1,-943.3 40.9,-909.6 
											20.2,-909 79,-1113.4 										"/>
										<polygon id="XMLID_1357_" class="st6" points="82.8,-1155.8 128.7,-969.4 128.7,-962.4 112.6,-921.6 42.7,-886.6 
											6.9,-909 65.8,-1113.4 										"/>
									</g>
									<path id="XMLID_1355_" class="st3" d="M-25-1241.1c0,0,84.8,32.8,101.8,71.8c16.9,39.1,47.3,203.3,47.3,203.3l-86.4,39.2
										c0,0,129.5-50.8,142-40.5c7.8,6.3-2.2,23.8-19,67.2c-24.5,62.9-172.8,449-232,582c-69.7,156.7-90.2,207.8-105.4,244.3
										c0,0-3.4-17.8,20.3-145s72-572.3,97.4-709.7c25.5-137.3,47.5-206.9,47.5-247.7S-25-1241.1-25-1241.1z"/>
									<path id="XMLID_1354_" class="st17" d="M123.8-928.3l-12.9,4.3c-3.6,1-7.1,2.5-10.5,4.3l-12.2,5.7c-1.1,0.6-0.4,2.2,0.8,2
										l12.5-4.2c3.6-1,7.1-2.5,10.5-4.2l12.7-6C125.6-926.9,124.9-928.6,123.8-928.3z"/>
									<line id="XMLID_1353_" class="st13" x1="-36.7" y1="-1030" x2="37.7" y2="-926.7"/>
									<path id="XMLID_1352_" class="st23" d="M-174.4-101.9c2-2.8,30.5-66.8,89.3-198.5C9.4-512.5,141.2-869.5,175.3-948.4
										c8.7-20.2-6.9-16-6.9-16L35.7-924.4l1-3.2l82.2-41c0,0-29.5-169.4-57.4-220.1"/>
									<path id="XMLID_1351_" class="st23" d="M-174.4-115.1c0,0,55.3-115.5,122.8-274.7c90.2-212.8,200.8-506.1,220.2-555.7
										c8-20.4-8.5-11.3-8.5-11.3l-37.1,10.5L42-922.2c-5.9,1.8-6-7.6-6-7.6l78.7-40.9c-5.3-37.7-45.5-212.1-58-223.4"/>
								</g>
								<g id="XMLID_1197_">
									<g id="XMLID_1336_">
										<path id="XMLID_1349_" class="st17" d="M651.3,490.2l-19.2,1.5l-18.6,5.6c-1.1,0.4-0.8,2.1,0.4,2.1l19.2-1.7l18.5-5.6
											C652.9,491.8,652.6,490.2,651.3,490.2z"/>
										<circle id="XMLID_1348_" class="st5" cx="638.9" cy="494.5" r="14.4"/>
										<circle id="XMLID_1347_" class="st16" cx="639.1" cy="493.9" r="13.9"/>
										<circle id="XMLID_1346_" class="st24" cx="638.9" cy="492.1" r="13.9"/>
										<circle id="XMLID_1345_" class="st19" cx="638.9" cy="492.1" r="11.9"/>
										<circle id="XMLID_1344_" class="st20" cx="636.6" cy="488.9" r="1.7"/>
										<circle id="XMLID_1343_" class="st20" cx="640.8" cy="497.6" r="1.7"/>
										<line id="XMLID_1342_" class="st25" x1="635.9" y1="488.9" x2="640.1" y2="497.4"/>
										<line id="XMLID_1341_" class="st25" x1="637" y1="488.5" x2="641.2" y2="497"/>
										<circle id="XMLID_1340_" class="st20" cx="634.4" cy="495.3" r="1.7"/>
										<circle id="XMLID_1339_" class="st20" cx="643.1" cy="491.1" r="1.7"/>
										<line id="XMLID_1338_" class="st25" x1="634.4" y1="496" x2="642.9" y2="491.8"/>
										<line id="XMLID_1337_" class="st25" x1="634" y1="494.9" x2="642.5" y2="490.7"/>
									</g>
									<g id="XMLID_1322_">
										<path id="XMLID_1335_" class="st17" d="M645.2,459.1l-19.2,1.5l-18.6,5.6c-1.1,0.4-0.8,2.1,0.4,2.1l19.2-1.7l18.5-5.6
											C646.8,460.8,646.4,459.1,645.2,459.1z"/>
										<circle id="XMLID_1334_" class="st5" cx="632.8" cy="463.4" r="14.4"/>
										<circle id="XMLID_1333_" class="st16" cx="633" cy="462.9" r="13.9"/>
										<circle id="XMLID_1332_" class="st24" cx="632.8" cy="460.9" r="13.9"/>
										<circle id="XMLID_1331_" class="st19" cx="632.8" cy="460.9" r="11.9"/>
										<circle id="XMLID_1330_" class="st20" cx="630.5" cy="457.8" r="1.7"/>
										<circle id="XMLID_1329_" class="st20" cx="634.7" cy="466.4" r="1.7"/>
										<line id="XMLID_1328_" class="st25" x1="629.8" y1="457.8" x2="634" y2="466.4"/>
										<line id="XMLID_1327_" class="st25" x1="630.9" y1="457.3" x2="635.1" y2="465.9"/>
										<circle id="XMLID_1326_" class="st20" cx="628.2" cy="464.1" r="1.7"/>
										<circle id="XMLID_1325_" class="st20" cx="636.9" cy="459.9" r="1.7"/>
										<line id="XMLID_1324_" class="st25" x1="628.2" y1="464.8" x2="636.9" y2="460.6"/>
										<line id="XMLID_1323_" class="st25" x1="627.8" y1="463.7" x2="636.3" y2="459.5"/>
									</g>
									<g id="XMLID_1308_">
										<path id="XMLID_1321_" class="st17" d="M656.1,521.4l-19.2,1.5l-18.6,5.6c-1.1,0.4-0.8,2.1,0.4,2.1l19.2-1.7l18.5-5.6
											C657.6,523.1,657.3,521.4,656.1,521.4z"/>
										<circle id="XMLID_1320_" class="st5" cx="643.6" cy="525.7" r="14.4"/>
										<circle id="XMLID_1319_" class="st16" cx="643.9" cy="525.2" r="13.9"/>
										<circle id="XMLID_1318_" class="st24" cx="643.6" cy="523.2" r="13.9"/>
										<circle id="XMLID_1317_" class="st19" cx="643.6" cy="523.2" r="11.9"/>
										<circle id="XMLID_1316_" class="st20" cx="641.4" cy="520.1" r="1.7"/>
										<circle id="XMLID_1315_" class="st20" cx="645.6" cy="528.7" r="1.7"/>
										<line id="XMLID_1314_" class="st25" x1="640.7" y1="520.1" x2="644.9" y2="528.7"/>
										<line id="XMLID_1313_" class="st25" x1="641.8" y1="519.6" x2="646" y2="528.2"/>
										<circle id="XMLID_1312_" class="st20" cx="639.1" cy="526.4" r="1.7"/>
										<circle id="XMLID_1311_" class="st20" cx="647.7" cy="522.2" r="1.7"/>
										<line id="XMLID_1310_" class="st25" x1="639.1" y1="527.1" x2="647.7" y2="522.9"/>
										<line id="XMLID_1309_" class="st25" x1="638.7" y1="526" x2="647.3" y2="521.8"/>
									</g>
									<g id="XMLID_1306_">
										<path id="XMLID_1307_" class="st17" d="M663.5,544.2l-13.4,1.8c-3.8,0.3-7.6,1-11.2,2.1l-13,3.2c-1.1,0.4-0.8,2.1,0.4,2.1
											l13-1.7c3.8-0.3,7.4-1,11.1-2.1l13.6-3.4C665,545.9,664.8,544.1,663.5,544.2z"/>
									</g>
									<g id="XMLID_1228_">
										<path id="XMLID_1305_" class="st17" d="M-910,490.2l19.2,1.5l18.6,5.6c1.1,0.4,0.8,2.1-0.4,2.1l-19.2-1.7l-18.5-5.6
											C-911.7,491.8-911.2,490.2-910,490.2z"/>
										<circle id="XMLID_1304_" class="st5" cx="-897.7" cy="494.5" r="14.4"/>
										<circle id="XMLID_1303_" class="st16" cx="-897.8" cy="493.9" r="13.9"/>
										<circle id="XMLID_1260_" class="st24" cx="-897.7" cy="492.1" r="13.9"/>
										<circle id="XMLID_1237_" class="st19" cx="-897.7" cy="492.1" r="11.9"/>
										<circle id="XMLID_1236_" class="st20" cx="-895.3" cy="488.9" r="1.7"/>
										<circle id="XMLID_1235_" class="st20" cx="-899.5" cy="497.6" r="1.7"/>
										<line id="XMLID_1234_" class="st25" x1="-894.6" y1="488.9" x2="-898.8" y2="497.4"/>
										<line id="XMLID_1233_" class="st25" x1="-895.7" y1="488.5" x2="-899.9" y2="497"/>
										<circle id="XMLID_1232_" class="st20" cx="-893" cy="495.3" r="1.7"/>
										<circle id="XMLID_1231_" class="st20" cx="-901.7" cy="491.1" r="1.7"/>
										<line id="XMLID_1230_" class="st25" x1="-893" y1="496" x2="-901.7" y2="491.8"/>
										<line id="XMLID_1229_" class="st25" x1="-892.6" y1="494.9" x2="-901.2" y2="490.7"/>
									</g>
									<g id="XMLID_1214_">
										<path id="XMLID_1227_" class="st17" d="M-904,459.1l19.2,1.5l18.6,5.6c1.1,0.4,0.8,2.1-0.4,2.1l-19.2-1.7l-18.5-5.6
											C-905.5,460.8-905.1,459.1-904,459.1z"/>
										<circle id="XMLID_1226_" class="st5" cx="-891.5" cy="463.4" r="14.4"/>
										<circle id="XMLID_1225_" class="st16" cx="-891.6" cy="462.9" r="13.9"/>
										<circle id="XMLID_1224_" class="st24" cx="-891.5" cy="460.9" r="13.9"/>
										<circle id="XMLID_1223_" class="st19" cx="-891.5" cy="460.9" r="11.9"/>
										<circle id="XMLID_1222_" class="st20" cx="-889.1" cy="457.8" r="1.7"/>
										<circle id="XMLID_1221_" class="st20" cx="-893.3" cy="466.4" r="1.7"/>
										<line id="XMLID_1220_" class="st25" x1="-888.6" y1="457.8" x2="-892.6" y2="466.4"/>
										<line id="XMLID_1219_" class="st25" x1="-889.7" y1="457.3" x2="-893.7" y2="465.9"/>
										<circle id="XMLID_1218_" class="st20" cx="-887" cy="464.1" r="1.7"/>
										<circle id="XMLID_1217_" class="st20" cx="-895.6" cy="459.9" r="1.7"/>
										<line id="XMLID_1216_" class="st25" x1="-887" y1="464.8" x2="-895.6" y2="460.6"/>
										<line id="XMLID_1215_" class="st25" x1="-886.5" y1="463.7" x2="-895.1" y2="459.5"/>
									</g>
									<g id="XMLID_1200_">
										<path id="XMLID_1213_" class="st17" d="M-914.7,521.4l19.2,1.5l18.6,5.6c1.1,0.4,0.8,2.1-0.4,2.1l-19.2-1.7l-18.5-5.6
											C-916.3,523.1-916,521.4-914.7,521.4z"/>
										<circle id="XMLID_1212_" class="st5" cx="-902.3" cy="525.7" r="14.4"/>
										<circle id="XMLID_1211_" class="st16" cx="-902.6" cy="525.2" r="13.9"/>
										<circle id="XMLID_1210_" class="st24" cx="-902.3" cy="523.2" r="13.9"/>
										<circle id="XMLID_1209_" class="st19" cx="-902.3" cy="523.2" r="11.9"/>
										<circle id="XMLID_1208_" class="st20" cx="-900" cy="520.1" r="1.7"/>
										<circle id="XMLID_1207_" class="st20" cx="-904.2" cy="528.7" r="1.7"/>
										<line id="XMLID_1206_" class="st25" x1="-899.3" y1="520.1" x2="-903.5" y2="528.7"/>
										<line id="XMLID_1205_" class="st25" x1="-900.5" y1="519.6" x2="-904.7" y2="528.2"/>
										<circle id="XMLID_1204_" class="st20" cx="-897.8" cy="526.4" r="1.7"/>
										<circle id="XMLID_1203_" class="st20" cx="-906.5" cy="522.2" r="1.7"/>
										<line id="XMLID_1202_" class="st25" x1="-897.8" y1="527.1" x2="-906.3" y2="522.9"/>
										<line id="XMLID_1201_" class="st25" x1="-897.4" y1="526" x2="-905.9" y2="521.8"/>
									</g>
									<g id="XMLID_1198_">
										<path id="XMLID_1199_" class="st17" d="M-922.2,544.2l13.4,1.8c3.8,0.3,7.6,1,11.2,2.1l13,3.2c1.1,0.4,0.8,2.1-0.4,2.1
											l-13-1.7c-3.8-0.3-7.4-1-11.1-2.1l-13.6-3.4C-923.7,545.9-923.4,544.1-922.2,544.2z"/>
									</g>
								</g>
							</g>
						</g>
						<path class="st26" d="M430.7-924.7c-20.9-98.3-40.6-91.7-40.6-91.7l0,0c-73.2,45.4-88.3,208.5-89.9,400c0,0.4,0,1,0,1.4
							c-0.7-42.3-0.1-82.7,2-115.8c0-0.6-0.1,0.7-0.6,3.5c5-103.9,17.9-191.7,47.5-245.6l11.6-18.2c8.3-10.9,17.4-19.7,27.9-26.2
							c0,0-1.4-2.4-6.4-7.3l0.3-0.6c0,0-0.3,0.1-0.7,0.3c-0.8-0.8-1.8-1.7-2.8-2.5l0.7-1c0,0-0.4,0.1-1.3,0.6
							c-12.7-10.9-40.2-30-98-56.7c-89.6-41.4-164.6-74.1-194.3-90.7c-1.8-1-3.5-2-4.9-2.9c-5.7-3.5-14.3-8.5-23.8-14.3
							c-10.2-9-26.3-20.6-41.3-28.8c-19.5-10.8-37-17.1-37-17.1s-1,0-1.7,0c-1.3-0.6-7-4.1-6.9-3.6c-9.1-0.8-29.8,1.4-104.7,1.4
							c-0.4,0-0.8,0-1.3,0c-0.4,0-0.8,0-1.3,0c-115.4,0-114.8,2.8-114.8,2.8l-0.6,2c-2.9,1.7-8,4.6-14.4,8.3
							c-15.1,7-34.9,17.2-51.1,29.5c-22.3,13-43.4,25.5-51.7,30.8c-10.6,7-102.6,47.5-180.7,83.6c-95.1,44-108.2,67.3-108.2,67.3
							c4.8,2.9,9.2,6.4,13.6,10.2c-0.1-0.1-0.3-0.3-0.4-0.4l-13.2-7.6c0,0-19.9-6.6-40.6,91.7c-20.9,98.3-243,1494.8-243,1494.8
							s36.8,32.2,113.4,35c76.6,2.8,115.4-16.1,115.4-16.1l120.4-871.1C-607-147.7-623-17.1-626.5,71.4
							c-6.9,176.4-43,609.3-43,609.3s314.9,80.4,400.8,56.7c53.2-14.6,76.2-38.6,90-65.5l15.3-28.1h58.4l10.5,18.8
							c13,30.1,34.3,57.7,93.5,73.9c86.1,23.7,389.5-56.7,389.5-56.7S373.7,420,363.8,220.9h1.5l-7-137.6h-1
							c-0.1-4.5-0.4-8.8-0.6-13c-4.6-117.6-31.2-309.8-46.9-480.6c-2.1-26.7-4.2-58-5.9-91c4.2,65.8,11.5,138.2,19.3,210.6
							L444.7,589c0,0,38.8,18.9,115.4,16.1c76.6-2.8,113.4-35,113.4-35S451.5-826.4,430.7-924.7z M-568.5-633.9c0-1,0-2,0-2.8
							C-568.5-635.9-568.5-634.9-568.5-633.9z M-568.7-642.5c0-1.1,0-2.2,0-3.2C-568.7-644.7-568.7-643.6-568.7-642.5z
							 M-568.8-651.1c0-1.1,0-2.2,0-3.4C-568.8-653.4-568.8-652.3-568.8-651.1z M-568.9-659.7c0-1.1,0-2.2-0.1-3.5
							C-568.9-661.9-568.9-660.8-568.9-659.7z M-569.1-668.1c0-1.1,0-2.4-0.1-3.5C-569.2-670.5-569.1-669.3-569.1-668.1z
							 M-569.4-676.5c0-1.3,0-2.4-0.1-3.5C-569.4-678.9-569.4-677.7-569.4-676.5z M-569.5-684.9c0-1.1,0-2.4-0.1-3.5
							C-569.6-687.3-569.6-686.1-569.5-684.9z M-569.8-693.3c0-1.1-0.1-2.4-0.1-3.5C-569.9-695.7-569.8-694.4-569.8-693.3z
							 M-570.1-701.5c0-1.1-0.1-2.2-0.1-3.4C-570.2-703.9-570.2-702.7-570.1-701.5z M-570.5-709.9c0-1.1-0.1-2.1-0.1-3.2
							C-570.5-712-570.5-711.1-570.5-709.9z M-574-476.8c-0.1,1.5-0.3,3.1-0.3,4.6C-574.3-473.9-574.1-475.4-574-476.8
							C-574-477-574-477-574-476.8z M-589-315.3c2.2-21.7,4.5-43.4,6.6-64.8C-584.5-358.7-586.7-337-589-315.3z M-582.1-382.3
							c0.3-2.5,0.4-5,0.7-7.7C-581.7-387.4-582-384.9-582.1-382.3z M-581.1-393.8c0.3-2.2,0.4-4.6,0.7-6.9
							C-580.6-398.3-580.8-396.1-581.1-393.8z M-580-405.2c0.1-2.1,0.4-4.3,0.6-6.4C-579.6-409.5-579.7-407.4-580-405.2z
							 M-579-416.5c0.1-2.1,0.4-4.1,0.6-6C-578.6-420.6-578.7-418.6-579-416.5z M-577.9-428c0.1-2,0.3-3.8,0.6-5.7
							C-577.6-431.8-577.8-429.8-577.9-428z M-576.9-439.2c0.1-2,0.3-3.8,0.4-5.6C-576.6-443-576.8-441-576.9-439.2z M-576.1-450.2
							c0.1-1.8,0.3-3.6,0.4-5.5C-575.8-453.9-575.9-452.1-576.1-450.2z M-575.2-461.4c0.1-1.8,0.3-3.5,0.4-5.3
							C-575-464.9-575.1-463.1-575.2-461.4z M-640.9-1002.5c-0.4-0.4-0.8-0.8-1.3-1.3C-641.7-1003.4-641.3-1003-640.9-1002.5z
							 M-570.8-718.2c0-1-0.1-2.1-0.1-3.1C-570.9-720.3-570.8-719.3-570.8-718.2z M-571.2-726.6c0-1-0.1-1.8-0.1-2.8
							C-571.2-728.4-571.2-727.4-571.2-726.6z M-571.6-735.4c0-0.7,0-1.3-0.1-2C-571.7-736.7-571.6-736-571.6-735.4z M-572.7-753.2
							c0-0.7-0.1-1.4-0.1-2.1C-572.7-754.6-572.7-753.9-572.7-753.2z M-573.1-761c0-1-0.1-1.8-0.1-2.8
							C-573.3-762.9-573.3-761.9-573.1-761z M-573.7-768.7c-0.1-1-0.1-2-0.3-3.1C-573.8-770.7-573.8-769.7-573.7-768.7z
							 M-574.3-776.3c-0.1-1-0.1-2.1-0.3-3.1C-574.5-778.4-574.4-777.4-574.3-776.3z M-575-783.9c-0.1-1.1-0.1-2.1-0.3-3.2
							C-575.1-786-575.1-785-575-783.9z M-575.7-791.3c-0.1-1.1-0.1-2.1-0.3-3.2C-575.8-793.5-575.7-792.4-575.7-791.3z
							 M-576.4-798.7c-0.1-1.1-0.3-2.1-0.3-3.2C-576.5-800.9-576.4-799.8-576.4-798.7z M-577.1-806.1c-0.1-1.1-0.3-2.1-0.3-3.2
							C-577.3-808.2-577.2-807.1-577.1-806.1z M-577.9-813.4c-0.1-1.1-0.3-2.1-0.4-3.1C-578-815.5-577.9-814.4-577.9-813.4z
							 M-578.7-820.5c-0.1-1-0.3-2.1-0.4-3.1C-578.9-822.6-578.7-821.5-578.7-820.5z M-579.6-827.7c-0.1-1-0.3-2-0.4-2.9
							C-579.9-829.6-579.7-828.7-579.6-827.7z M-580.4-834.7c-0.1-1-0.3-2-0.4-2.8C-580.7-836.6-580.6-835.7-580.4-834.7z
							 M-581.5-841.8c-0.1-0.8-0.3-1.8-0.4-2.7C-581.7-843.5-581.5-842.7-581.5-841.8z M-582.5-849.1c-0.1-0.7-0.1-1.4-0.3-2.1
							C-582.8-850.5-582.7-849.8-582.5-849.1z M-583.9-857.9c0-0.1,0-0.4-0.1-0.6C-584.1-858.2-583.9-858.1-583.9-857.9z
							 M-585-864.4c-0.1-0.7-0.3-1.5-0.4-2.2C-585.3-865.9-585.2-865.2-585-864.4z M-586.2-870.8c-0.1-0.8-0.3-1.7-0.6-2.7
							C-586.6-872.6-586.4-871.8-586.2-870.8z M-587.4-877.2c-0.1-1-0.4-1.8-0.6-2.8C-587.8-879.1-587.6-878.1-587.4-877.2z
							 M-588.7-883.4c-0.1-1-0.4-1.8-0.6-2.8C-589.1-885.2-589-884.4-588.7-883.4z M-590.1-889.6c-0.1-1-0.4-1.8-0.6-2.8
							C-590.5-891.4-590.2-890.5-590.1-889.6z M-591.3-895.6c-0.3-1-0.4-1.8-0.7-2.8C-591.8-897.5-591.6-896.6-591.3-895.6z
							 M-592.7-901.6c-0.3-1-0.4-1.8-0.7-2.8C-593.3-903.4-593-902.4-592.7-901.6z M-594.3-907.3c-0.3-0.8-0.4-1.8-0.7-2.7
							C-594.7-909.2-594.6-908.3-594.3-907.3z M-595.8-913.1c-0.3-0.8-0.4-1.8-0.7-2.7C-596.2-914.9-596.1-914.1-595.8-913.1z
							 M-597.4-918.7c-0.3-0.8-0.6-1.7-0.7-2.5C-597.9-920.5-597.6-919.7-597.4-918.7z M-599-924.3c-0.3-0.8-0.6-1.7-0.8-2.5
							C-599.6-926-599.3-925.1-599-924.3z M-600.7-929.6c-0.3-0.8-0.6-1.7-0.8-2.4C-601.3-931.3-601-930.4-600.7-929.6z
							 M-602.5-934.9c-0.3-0.7-0.6-1.5-0.8-2.2C-603.1-936.5-602.8-935.8-602.5-934.9z M-604.5-940.4c-0.3-0.7-0.4-1.3-0.7-2
							C-604.9-941.6-604.8-940.9-604.5-940.4z M-606.9-946.8c-0.3-0.6-0.6-1.3-0.7-1.8C-607.4-947.9-607.2-947.4-606.9-946.8z
							 M-609.1-952c-0.3-0.7-0.6-1.3-0.8-2C-609.7-953.4-609.4-952.7-609.1-952z M-611.1-956.8c-0.3-0.7-0.7-1.4-1-2.1
							C-611.8-958.2-611.4-957.5-611.1-956.8z M-613.2-961.2c-0.3-0.7-0.7-1.4-1-2.1C-613.9-962.6-613.5-961.9-613.2-961.2z
							 M-615.3-965.7c-0.3-0.7-0.7-1.4-1.1-2.1C-616-967.1-615.7-966.4-615.3-965.7z M-617.5-970.1c-0.4-0.7-0.7-1.4-1.1-2
							C-618.4-971.3-617.9-970.6-617.5-970.1z M-619.9-974.1c-0.4-0.7-0.7-1.3-1.1-2C-620.6-975.5-620.2-974.8-619.9-974.1z
							 M-622.3-978.2c-0.4-0.7-0.8-1.3-1.1-2C-623-979.4-622.6-978.9-622.3-978.2z M-624.7-982.1c-0.4-0.6-0.8-1.3-1.3-1.8
							C-625.5-983.4-625.1-982.7-624.7-982.1z M-627.2-985.9c-0.4-0.6-0.8-1.3-1.3-1.8C-628-987-627.6-986.4-627.2-985.9z
							 M-629.7-989.4c-0.4-0.6-0.8-1.1-1.3-1.7C-630.5-990.6-630.1-989.9-629.7-989.4z M-632.4-992.9c-0.4-0.6-0.8-1.1-1.3-1.7
							C-633.2-994-632.8-993.4-632.4-992.9z M-635.2-996.2c-0.4-0.6-0.8-1-1.3-1.5C-636-997.2-635.6-996.8-635.2-996.2z M-638-999.5
							c-0.4-0.4-0.8-1-1.3-1.4C-638.8-1000.4-638.4-999.9-638-999.5z M-591.5-290.9c-0.4,3.4-0.7,6.9-1.1,10.2
							C-592.3-284.1-591.9-287.6-591.5-290.9z M-589.1-313.9c-0.4,3.4-0.7,6.7-1.1,10.1C-589.8-307.2-589.5-310.5-589.1-313.9z
							 M-590.4-302.4c-0.4,3.4-0.7,6.9-1.1,10.2C-591.1-295.5-590.6-298.9-590.4-302.4z"/>
						<path id="XMLID_1383_" class="st23" d="M363.2,214.4H122.9c-29,0-42.7-34.6-42.7-48.4l-1.4-83.2"/>
						<path id="XMLID_1_" class="st23" d="M363.3,210.4h-237c-28.6,0-42.1-33.3-42.1-46.8l-1.4-80.2"/>
						<g id="XMLID_1380_">
							<g>
								<line class="st14" x1="358" y1="90.9" x2="357.3" y2="90.9"/>
								<line class="st27" x1="354.5" y1="90.9" x2="78.6" y2="90.9"/>
								<line class="st14" x1="77.2" y1="90.9" x2="76.5" y2="90.9"/>
							</g>
						</g>
					</g>
					<g>
						<g>
							<g>
								<defs>
									<circle id="SVGID_3_" cx="150" cy="150" r="150"/>
								</defs>
								<clipPath id="SVGID_4_">
									<use xlink:href="#SVGID_3_"  style="overflow:visible;"/>
								</clipPath>
								<g class="st28">
									<path class="st29" d="M150,5c38.7,0,75.1,15.1,102.5,42.5S295,111.3,295,150s-15.1,75.1-42.5,102.5S188.7,295,150,295
										s-75.1-15.1-102.5-42.5C20.1,225.1,5,188.7,5,150S20.1,74.9,47.5,47.5C74.9,20.1,111.3,5,150,5 M150,0C67.2,0,0,67.2,0,150
										s67.2,150,150,150s150-67.2,150-150S232.8,0,150,0L150,0z"/>
								</g>
							</g>
						</g>
					</g>
				</g>
			</g>
		</g>
	</g>
</g>
</svg>
