<?xml version="1.0" encoding="utf-8"?>
<!-- Generator: Adobe Illustrator 21.1.0, SVG Export Plug-In . SVG Version: 6.00 Build 0)  -->
<svg version="1.1" id="Layer_1" xmlns="http://www.w3.org/2000/svg" xmlns:xlink="http://www.w3.org/1999/xlink" x="0px" y="0px"
	 viewBox="0 0 300 300" style="enable-background:new 0 0 300 300;" xml:space="preserve">
<style type="text/css">
	.st0{fill:#DDDDDD;}
	.st1{clip-path:url(#SVGID_2_);}
	.st2{fill:#F1F1F2;stroke:#404041;stroke-miterlimit:10;}
	.st3{fill:#FFFFFF;stroke:#404041;stroke-miterlimit:10;}
	.st4{fill:#929497;}
	.st5{fill:#F1F1F2;}
	.st6{fill:#C5C7C9;}
	.st7{fill:none;stroke:#404041;stroke-miterlimit:10;}
	.st8{fill:none;stroke:#808184;stroke-width:0.5;stroke-miterlimit:10;}
	.st9{fill:none;stroke:#808184;stroke-width:0.5;stroke-miterlimit:10;stroke-dasharray:1.0012,2.0024;}
	.st10{fill:none;stroke:#808184;stroke-width:0.5;stroke-miterlimit:10;stroke-dasharray:1.0052,2.0105;}
	.st11{fill:none;stroke:#808184;stroke-width:0.5;stroke-miterlimit:10;stroke-dasharray:0.9946,1.9892;}
	
		.st12{fill:none;stroke:#808184;stroke-width:0.5;stroke-linecap:round;stroke-linejoin:round;stroke-miterlimit:10;stroke-dasharray:1.3,3.5;}
	.st13{fill:none;stroke:#CECECE;stroke-width:0.5;stroke-miterlimit:10;stroke-dasharray:1,2;}
	.st14{fill:none;stroke:#CECECE;stroke-width:0.5;stroke-miterlimit:10;}
	.st15{fill:none;stroke:#CECECE;stroke-width:0.5;stroke-miterlimit:10;stroke-dasharray:1.0052,2.0105;}
	.st16{fill:#DBDCDD;}
	.st17{fill:#404041;stroke:#D0D2D3;stroke-width:0.5;stroke-miterlimit:10;}
	.st18{fill:#FFFFFF;stroke:#6D6E70;stroke-miterlimit:10;}
	.st19{fill:#FFFFFF;stroke:#929497;stroke-width:0.25;stroke-miterlimit:10;}
	.st20{fill:#404041;}
	.st21{fill:none;stroke:#6D6E70;stroke-width:0.5;stroke-miterlimit:10;}
	.st22{fill:none;stroke:#CECECE;stroke-width:0.5;stroke-miterlimit:10;stroke-dasharray:0.9935,1.9871;}
	.st23{fill:none;stroke:#808184;stroke-width:0.5;stroke-miterlimit:10;stroke-dasharray:1,2;}
	.st24{fill:#FFFFFF;stroke:#6D6E70;stroke-width:0.5;stroke-miterlimit:10;}
	.st25{fill:none;stroke:#6D6E70;stroke-width:0.25;stroke-miterlimit:10;}
	.st26{clip-path:url(#SVGID_4_);}
	.st27{fill:#9AA0BB;}
</style>
<g>
	<g>
		<circle id="SVGID_6_" class="st0" cx="150" cy="150" r="150"/>
	</g>
	<g>
		<g>
			<g>
				<defs>
					<circle id="SVGID_1_" cx="150" cy="150" r="150"/>
				</defs>
				<clipPath id="SVGID_2_">
					<use xlink:href="#SVGID_1_"  style="overflow:visible;"/>
				</clipPath>
				<g class="st1">
					<g id="XMLID_890_">
						<g id="XMLID_992_">
							<g id="XMLID_1115_">
								<g id="XMLID_1176_">
									<polygon id="XMLID_1195_" class="st2" points="-216.9,-120.5 -170.7,-68.9 -329.8,761.6 -488.7,-68.9 -445,-120.5 
																			"/>
									<path id="XMLID_1194_" class="st3" d="M-214.7-145c0,0,0.5-2.8-114.8-2.8c-0.4,0-0.9,0-1.2,0c-0.3,0-0.9,0-1.2,0
										c-115.5,0-114.8,2.8-114.8,2.8l-13.8,50.2c0,0,18.7,4.7,64.4,6.6c17.7,0.7,40.6,1.2,66.7,1.2c26.2,0,46.7-0.5,64.4-1.2
										c45.5-1.9,64.4-6.6,64.4-6.6L-214.7-145z"/>
									<g id="XMLID_1190_">
										<path id="XMLID_1193_" class="st4" d="M-426.2-146.2c0,0-11.9,13.3-11,30.4c1,17,1.7,22.7,1.7,22.7h-25.2l13.8-51.4
											L-426.2-146.2z"/>
										<path id="XMLID_1192_" class="st5" d="M-421.3-146.4c-3.1,0.2-5.9,0.2-8.2,0.4c-6.6,11.2-6.8,42.9-6.6,54.6
											c3.7,0.3,7.9,0.7,12.4,1c-0.7-3.5-1.7-10.5-1.7-23.6C-425.5-129.8-422.7-141.5-421.3-146.4z"/>
										<path id="XMLID_1191_" class="st6" d="M-428.7-146.2c-1.7,0-3.3,0.2-4.7,0.2c-2.8,2.3-5.6,6.3-6.3,13.5
											c-1.4,14.2-1.9,32.4-2.3,40.4c3.5,0.4,7.7,0.7,12.4,1C-431.3-103.2-435.5-135.6-428.7-146.2z"/>
									</g>
									<g id="XMLID_1186_">
										<path id="XMLID_1189_" class="st4" d="M-236.7-146.2c0,0,11.9,13.3,11,30.4c-1,17-1.7,22.7-1.7,22.7h26.4l-15-51.4
											L-236.7-146.2z"/>
										<path id="XMLID_1188_" class="st5" d="M-241.6-146.4c3.1,0.2,5.9,0.2,8.2,0.4c6.6,11.2,6.8,42.9,6.6,54.6
											c-3.7,0.3-7.9,0.7-12.4,1c0.7-3.5,1.7-10.5,1.7-23.6C-237.2-129.8-240-141.5-241.6-146.4z"/>
										<path id="XMLID_1187_" class="st6" d="M-234.1-146.2c1.7,0,3.3,0.2,4.7,0.2c2.8,2.3,5.6,6.3,6.3,13.5
											c1.4,14.2,1.9,32.4,2.3,40.4c-3.5,0.4-7.7,0.7-12.4,1C-231.5-103.2-227.4-135.6-234.1-146.2z"/>
									</g>
									<path id="XMLID_1185_" class="st7" d="M-214.7-145c0,0,0.5-2.8-114.8-2.8c-0.4,0-0.9,0-1.2,0c-0.3,0-0.9,0-1.2,0
										c-115.5,0-114.8,2.8-114.8,2.8l-13.8,50.2c0,0,18.7,4.7,64.4,6.6c17.7,0.7,40.6,1.2,66.7,1.2c26.2,0,46.7-0.5,64.4-1.2
										c45.5-1.9,64.4-6.6,64.4-6.6L-214.7-145z"/>
									<g id="XMLID_1182_">
										<polygon id="XMLID_1184_" class="st4" points="-438.7,11.6 -329.8,557.1 -223.1,11.6 -292.9,618.1 -333.5,791.9 
											-365.7,612.4 										"/>
										<polygon id="XMLID_1183_" class="st6" points="-330.9,623.4 -216.9,-10.1 -329.8,488.8 -441.3,-11.1 										"/>
									</g>
									<g id="XMLID_1180_">
										<g>
											<line class="st8" x1="-330" y1="-80.3" x2="-330" y2="-79.4"/>
											<line class="st9" x1="-330" y1="-75.9" x2="-330" y2="637.2"/>
											<line class="st8" x1="-330" y1="639" x2="-330" y2="639.8"/>
										</g>
									</g>
									<path id="XMLID_1179_" class="st4" d="M-389.5-67.7l4.2,4.4c0,0,29.7-2.3,55.3-2.3c25.5,0,57.4,2.3,57.4,2.3l2.8-4.4
										H-389.5z"/>
									<path id="XMLID_1178_" class="st6" d="M-386.3-64.3l3,3.1c0,0,28.3-2.1,53.2-2.1s56.2,2.1,56.2,2.1l1.7-3.1l-57.9-1.2
										L-386.3-64.3z"/>
									<path id="XMLID_1177_" class="st3" d="M-329.8-86.9c-26.4,0-48.1-0.2-66-0.9l7.5,20.1h58.1h0.7h58.1l7.5-20.1
										C-281.5-87.1-303.4-86.9-329.8-86.9z"/>
								</g>
								<path id="XMLID_1175_" class="st2" d="M-271.4,1738.3c0-3.1,0-116.7,0-116.7h-117.2v116.7H-271.4z"/>
								<g id="XMLID_1172_">
									<polygon id="XMLID_1174_" class="st4" points="-328.8,1665.1 -374.1,1766.6 -330,1604.4 -283.4,1768.4 									"/>
									<polygon id="XMLID_1173_" class="st6" points="-330,1685.4 -374.1,1766.6 -330,1651.1 -283.4,1768.4 									"/>
								</g>
								<path id="XMLID_1170_" class="st3" d="M-267.3,1051.9c-10.7-242.7-22.4-177.4-22.4-177.4L-326.7,751
									c-25-125.3-56-366.3-62.1-408.8c-10-68.8-75.1-288-75.1-288c-20.6-132.6,19.4-198.6,19.4-198.6s-99.7,56.9-120,70.3
									c-10.7,7-102.7,47.4-180.9,83.6c-95,43.9-108.3,67.4-108.3,67.4c73.3,45.5,88.5,208.6,89.9,400.2
									c1.4,191.6-51.6,518.1-58.3,688.4c-6.8,176.6-43,609.8-43,609.8s315.2,80.5,401.3,56.7c86.1-23.6,93.1-71.9,110.1-116.5
									l25.2-88.7C-328.9,1626.8-256.7,1294.7-267.3,1051.9z"/>
								<g id="XMLID_1168_">
									<g>
										<line class="st8" x1="-576.7" y1="670.1" x2="-576.7" y2="671"/>
										<line class="st10" x1="-576.7" y1="674.5" x2="-576.7" y2="1163.6"/>
										<line class="st8" x1="-576.7" y1="1165.3" x2="-576.7" y2="1166.2"/>
									</g>
								</g>
								<g id="XMLID_1162_">
									<path id="XMLID_1167_" class="st5" d="M-538.4,1183.2l5.8,81.5c2.8,46.5-19.2,61.1-42.3,61.1h-252.5l0.9-21.3
										L-538.4,1183.2z"/>
									<path id="XMLID_1166_" class="st6" d="M-538.4,1180.4l2.6,67c2.8,46.5-12.9,72.8-39.7,72.8h-252l0.9-21.3L-538.4,1180.4z"
										/>
									<path id="XMLID_1165_" class="st3" d="M-538.4,1200.9v-23.4h-283.8l-7,137.7h248.1c32.9,0,42.7-38.7,42.7-71.7l0,0
										L-538.4,1200.9L-538.4,1200.9z"/>
									<g id="XMLID_1163_">
										<g>
											<line class="st8" x1="-540.3" y1="1191.8" x2="-541.2" y2="1191.8"/>
											<line class="st11" x1="-544.7" y1="1191.8" x2="-819.6" y2="1191.8"/>
											<line class="st8" x1="-821.4" y1="1191.8" x2="-822.2" y2="1191.8"/>
										</g>
									</g>
								</g>
								<g id="XMLID_1159_">
									<path id="XMLID_1161_" class="st5" d="M-762.9,822c27.8-189.9,15.7-342.1-3.1-461.6c3.7,23.6,5.6,65.1,6.1,71.4
										c3.1,40.2,6.6,81.9,5.4,121.8c-0.9,84.3-6.8,180.6-22,286.5c-12.9,90.6-22.6,130.9-29.6,146.5c-1.4,12.8-2.6,25.4-3.8,37.8
										C-792.5,1023.2-780.8,944.1-762.9,822z"/>
									<path id="XMLID_1160_" class="st6" d="M-780.1,745c-8.2,81.5-18.2,165.4-26.2,241.7c7-15.6,16.6-55.8,29.6-146.5
										c15.2-105.7,22.6-192.5,22.6-334.4v-0.4c1.4-51.4-12.6-147-12.2-142.6C-758.7,476.6-772,677.1-780.1,745z"/>
								</g>
								<path id="XMLID_1158_" class="st3" d="M-764,477.1c-1.4-179.5-14.7-334.2-76.8-390.4l-13.1-7.5c0,0-19.9-6.6-40.8,91.7
									c-20.8,98.3-243.2,1496-243.2,1496s36.9,32.2,113.6,35s115.5-16.1,115.5-16.1L-788.5,814
									C-775.2,692.2-763.4,569.1-764,477.1z"/>
								<g id="XMLID_1155_">
									<path id="XMLID_1157_" class="st5" d="M-312,675.7c0,0-86.8,206.5-86.8,499.8S-302,1681-302,1681l-10-355.9l14.2-623.7
										L-312,675.7z"/>
									<path id="XMLID_1156_" class="st6" d="M-299.7,675.7c0,0-86.8,206.5-86.8,499.8s96.8,505.5,96.8,505.5l-10-355.9
										l14.2-623.7L-299.7,675.7z"/>
								</g>
								<g id="XMLID_1120_">
									<path id="XMLID_1154_" class="st3" d="M103.8,476c1.4-191.6,16.6-354.9,89.9-400.2c0,0-13.3-23.4-108.3-67.4
										C-4.2-33-79.2-65.6-109-82.4c-1.7-1-3.5-1.9-4.9-2.8c-25.5-15.6-102.2-60.4-102.2-60.4s36.6,66,16.1,198.6
										c0,0-65.8,219.3-75.6,288s-44.8,433.6-53.9,488.2c-2.4,14.2-16.4,32.5-18.4,44.8c-4.2,26.2-7.5,48.5-8.7,57
										c-2.4,27.8-15,66.1-17.5,122.3c-10.7,242.7,43.2,572,43.2,572l26.2,89.8c17,44.6,22.9,91.9,109,115.5
										s389.9-56.7,389.9-56.7s-24.8-433.3-31.7-609.8C155.3,994.4,102.2,667.7,103.8,476z"/>
									<path id="XMLID_1153_" class="st12" d="M121,165.8"/>
									<path id="XMLID_1152_" class="st12" d="M183.6,67.6"/>
									<polygon id="XMLID_1151_" class="st5" points="55,496.2 55,484.3 -219.4,492.3 -219.4,503.9 									"/>
									<polygon id="XMLID_1150_" class="st6" points="55,500.7 55,488.8 -219.4,496.9 -219.4,508.6 									"/>
									<polygon id="XMLID_1149_" class="st3" points="54.1,494.1 54.1,561.4 -216.2,567.2 -216.2,501.9 									"/>
									<line id="XMLID_1148_" class="st13" x1="-216.2" y1="504.7" x2="54.1" y2="496.9"/>
									<g id="XMLID_1146_">
										<g>
											<line class="st14" x1="-82.2" y1="670.1" x2="-82.2" y2="671"/>
											<line class="st15" x1="-82.2" y1="674.5" x2="-82.2" y2="1163.6"/>
											<line class="st14" x1="-82.2" y1="1165.3" x2="-82.2" y2="1166.2"/>
										</g>
									</g>
									<g id="XMLID_1130_">
										<circle id="XMLID_1145_" class="st5" cx="-319" cy="996.8" r="27.6"/>
										<circle id="XMLID_1144_" class="st16" cx="-318.4" cy="995.8" r="26.6"/>
										<polygon id="XMLID_1143_" class="st17" points="-284.3,994.7 -318.1,988.1 -355.7,994.7 -317.7,1001.4 										"/>
										<circle id="XMLID_1142_" class="st18" cx="-319" cy="992.1" r="26.6"/>
										<circle id="XMLID_1141_" class="st19" cx="-319" cy="992.1" r="22.9"/>
										<circle id="XMLID_1140_" class="st20" cx="-323.3" cy="986" r="3.3"/>
										<circle id="XMLID_1139_" class="st20" cx="-315.3" cy="1002.6" r="3.3"/>
										<line id="XMLID_1138_" class="st21" x1="-324.6" y1="986" x2="-316.7" y2="1002.4"/>
										<line id="XMLID_1137_" class="st21" x1="-322.5" y1="985.1" x2="-314.4" y2="1001.5"/>
										<line id="XMLID_1136_" class="st21" x1="-324.6" y1="986" x2="-316.7" y2="1002.4"/>
										<line id="XMLID_1135_" class="st21" x1="-322.5" y1="985.1" x2="-314.4" y2="1001.5"/>
										<circle id="XMLID_1134_" class="st20" cx="-327.5" cy="998.2" r="3.3"/>
										<circle id="XMLID_1133_" class="st20" cx="-311.1" cy="990.2" r="3.3"/>
										<line id="XMLID_1132_" class="st21" x1="-327.5" y1="999.6" x2="-311.1" y2="991.6"/>
										<line id="XMLID_1131_" class="st21" x1="-328.4" y1="997.3" x2="-312" y2="989.5"/>
									</g>
									<g id="XMLID_1121_">
										<path id="XMLID_1129_" class="st5" d="M-120.5,1183.2l-5.8,81.5c-2.8,46.5,19.2,61.1,42.3,61.1h252.7l-0.9-21.3
											L-120.5,1183.2z"/>
										<path id="XMLID_1128_" class="st6" d="M-120.5,1180.4l-2.6,67c-2.8,46.5,12.9,72.8,39.7,72.8h252l-0.9-21.3L-120.5,1180.4
											z"/>
										<path id="XMLID_1127_" class="st3" d="M-120.5,1200.9v-23.4h283.8l7,137.7H-77.8c-32.9,0-42.7-38.7-42.7-71.7l0,0
											L-120.5,1200.9L-120.5,1200.9z"/>
										<path id="XMLID_1126_" class="st12" d="M168.6,1310.2H-71.9c-29,0-42.7-34.6-42.7-48.5l-1.4-83.1"/>
										<line id="XMLID_1125_" class="st12" x1="167.7" y1="1306.9" x2="-73.3" y2="1306.4"/>
										<g id="XMLID_1123_">
											<g>
												<line class="st14" x1="163.3" y1="1183.5" x2="162.4" y2="1183.5"/>
												<line class="st22" x1="159.1" y1="1183.5" x2="-115.6" y2="1183.5"/>
												<line class="st14" x1="-117.4" y1="1183.5" x2="-118.3" y2="1183.5"/>
											</g>
										</g>
										<path id="XMLID_1122_" class="st12" d="M-112.3,1184.8l1.9,78.9c0.2,8,3.7,18.2,8,24.8c3.5,5.2,9.4,13.1,19.1,15.9"/>
									</g>
								</g>
								<g id="XMLID_1117_">
									<path id="XMLID_1119_" class="st5" d="M103.6,822c-27.8-189.9-15.7-342.1,3.1-461.6c-3.7,23.6-5.6,65.1-6.1,71.4
										c-3.1,40.2-6.6,81.9-5.4,121.8c0.9,84.3,6.8,180.6,22,286.5c12.9,90.6,22.6,130.9,29.6,146.5c1.4,12.8,2.6,25.4,3.8,37.8
										C133.4,1023.2,121.5,944.1,103.6,822z"/>
									<path id="XMLID_1118_" class="st6" d="M120.8,745C129,826.6,139,910.4,147,986.7c-7-15.6-16.6-55.8-29.6-146.5
										c-15.2-105.7-22.6-192.5-22.6-334.4v-0.4c-1.4-51.4,12.6-147,12.2-142.6C99.6,476.6,112.7,677.1,120.8,745z"/>
								</g>
								<path id="XMLID_1116_" class="st3" d="M234,168.6c-20.8-98.3-40.6-91.7-40.6-91.7l0,0c-73.3,45.5-88.5,208.6-89.9,400.2
									c-0.7,89.2,10.5,207.7,23.3,326l121.4,880.4c0,0,38.8,18.9,115.5,16.1s113.6-35,113.6-35S254.8,267.1,234,168.6z"/>
							</g>
							<g id="XMLID_1094_">
								<g id="XMLID_1107_">
									<g id="XMLID_1110_">
										<path id="XMLID_1114_" class="st5" d="M-643.2,127.8c0,0-15.6,11.4-9.1,28.5c6.5,17.1,227,576.4,265.5,652.9
											c13.3,26.2,29.4,60.4,44.6,94c11.9,25.7,20.5-31.3,20.5-31.3l-12.2-54.2l-262.7-656.4L-643.2,127.8z"/>
										<path id="XMLID_1113_" class="st6" d="M-639.5,127.8c0,0-16.3,4.5-9.8,21.9c6.5,17.1,227.7,583.2,266.2,659.7
											c12.4,24.5,27.1,56,41.6,87.3c7.5,16.4,19.6-41.8,19.6-41.8l-8.4-37.1L-593,161.2L-639.5,127.8z"/>
										<polygon id="XMLID_1112_" class="st5" points="-546.1,-61.2 -596.7,124.3 -596.7,131.3 -586.5,151.6 -504.3,185.4 
											-483.6,185.9 -542.4,-18.7 										"/>
										<polygon id="XMLID_1111_" class="st6" points="-546.1,-61.2 -592.1,125.5 -592.1,132.5 -576,173.3 -506,208.5 
											-470.3,185.9 -529.3,-18.7 										"/>
									</g>
									<path id="XMLID_1109_" class="st3" d="M-438.3-144.7c0,0-84.9,31-101.8,70.2c-17,39-47.4,203.5-47.4,203.5l86.4,39.2
										c0,0-129.5-50.7-142.1-40.6c-7.9,6.3-1.4,25.5,19.1,67.2c14.9,30.3,160.3,437,224.9,567.5c24.5,49.5,44.4,93.6,60.5,131.1
										c6.1,14.2,33.1-28.9,31.8-35.5c-2.8-15.4-6.1-15.4-9.6-36.4c-25.5-152.1-65.4-534.4-87.8-655.2
										C-429.7,29.1-452-40.5-452-81.3S-438.3-144.7-438.3-144.7z"/>
									<line id="XMLID_1108_" class="st23" x1="-425.9" y1="59.6" x2="-501.1" y2="168.2"/>
								</g>
								<g id="XMLID_1104_">
									<polygon id="XMLID_1106_" class="st5" points="-330.9,732.9 -359.4,843.4 -350.6,865.2 -328.4,770.7 									"/>
									<polygon id="XMLID_1105_" class="st6" points="-327.2,743.1 -355.7,853.3 -346.8,875.4 -324.7,780.9 									"/>
								</g>
								<g id="XMLID_1099_">
									<path id="XMLID_1103_" class="st5" d="M-15,127.8c0,0,15.6,11.4,9.1,28.5c-6.5,17.1-227,576.4-265.5,652.9
										c-38.5,76.3-98.9,215.2-98.9,215.2l46-206.8l262.8-656.6L-15,127.8z"/>
									<path id="XMLID_1102_" class="st6" d="M-18.7,127.8c0,0,16.3,4.5,9.8,21.9c-6.5,17.1-227.7,583.2-266.2,659.7
										s-96.6,212.6-96.6,212.6l43.7-204.2l262.8-656.6L-18.7,127.8z"/>
									<polygon id="XMLID_1101_" class="st5" points="-112.1,-61.2 -61.4,124.3 -61.4,131.3 -71.7,151.6 -153.9,185.4 
										-174.6,185.9 -115.8,-18.7 									"/>
									<polygon id="XMLID_1100_" class="st6" points="-112.1,-61.2 -66.1,125.5 -66.1,132.5 -82.2,173.3 -152.2,208.5 
										-187.9,185.9 -128.9,-18.7 									"/>
								</g>
								<path id="XMLID_1098_" class="st3" d="M-219.9-146.4c0,0,84.9,32.7,101.8,71.9c17,39,47.4,203.5,47.4,203.5l-86.4,39.2
									c0,0,129.5-50.7,142.1-40.6c7.9,6.3-2.3,23.8-19.1,67.2c-24.5,63-172.9,449.4-232.2,582.5
									c-69.8,156.6-90.3,207.9-105.5,244.3c0,0-3.3-17.8,20.3-145.1c23.8-127.2,72.1-572.7,97.5-710.1s47.6-207,47.6-247.8
									C-206.3-122.1-219.9-146.4-219.9-146.4z"/>
								<path id="XMLID_1097_" class="st17" d="M-71,166.7l-12.8,4.4c-3.7,1-7.2,2.4-10.5,4.2l-12.2,5.8c-1,0.7-0.3,2.3,0.7,1.9
									l12.4-4.2c3.7-1,7.2-2.4,10.5-4.2l12.8-5.9C-69.1,168.1-69.8,166.3-71,166.7z"/>
								<line id="XMLID_1096_" class="st13" x1="-231.5" y1="65" x2="-157.1" y2="168.2"/>
							</g>
							<g id="XMLID_993_">
								<g id="XMLID_1068_">
									<path id="XMLID_1093_" class="st17" d="M456.9,1586.2l-19.2,1.6l-18.5,5.6c-1.2,0.3-0.9,2.1,0.3,2.1l19.2-1.6l18.5-5.6
										C458.5,1587.9,458.2,1586.2,456.9,1586.2z"/>
									<circle id="XMLID_1092_" class="st5" cx="444.5" cy="1590.6" r="14.3"/>
									<circle id="XMLID_1091_" class="st16" cx="444.7" cy="1590" r="13.8"/>
									<circle id="XMLID_1090_" class="st24" cx="444.5" cy="1588.1" r="13.8"/>
									<circle id="XMLID_1089_" class="st19" cx="444.5" cy="1588.1" r="11.9"/>
									<circle id="XMLID_1076_" class="st20" cx="442.2" cy="1585" r="1.7"/>
									<circle id="XMLID_1075_" class="st20" cx="446.4" cy="1593.5" r="1.7"/>
									<line id="XMLID_1074_" class="st25" x1="441.5" y1="1585" x2="445.7" y2="1593.5"/>
									<line id="XMLID_1073_" class="st25" x1="442.8" y1="1584.4" x2="447" y2="1593"/>
									<circle id="XMLID_1072_" class="st20" cx="440" cy="1591.4" r="1.7"/>
									<circle id="XMLID_1071_" class="st20" cx="448.7" cy="1587.2" r="1.7"/>
									<line id="XMLID_1070_" class="st25" x1="440" y1="1592" x2="448.5" y2="1587.9"/>
									<line id="XMLID_1069_" class="st25" x1="439.6" y1="1590.9" x2="448.2" y2="1586.7"/>
								</g>
								<g id="XMLID_1054_">
									<path id="XMLID_1067_" class="st17" d="M450.8,1555l-19.2,1.6l-18.5,5.6c-1.2,0.3-0.9,2.1,0.3,2.1l19.2-1.6l18.5-5.6
										C452.4,1556.8,452,1555,450.8,1555z"/>
									<circle id="XMLID_1066_" class="st5" cx="438.4" cy="1559.4" r="14.3"/>
									<circle id="XMLID_1065_" class="st16" cx="438.6" cy="1558.9" r="13.8"/>
									<circle id="XMLID_1064_" class="st24" cx="438.4" cy="1557" r="13.8"/>
									<circle id="XMLID_1063_" class="st19" cx="438.4" cy="1557" r="11.9"/>
									<circle id="XMLID_1062_" class="st20" cx="436.1" cy="1553.8" r="1.7"/>
									<circle id="XMLID_1061_" class="st20" cx="440.3" cy="1562.4" r="1.7"/>
									<line id="XMLID_1060_" class="st25" x1="435.4" y1="1553.8" x2="439.6" y2="1562.4"/>
									<line id="XMLID_1059_" class="st25" x1="436.6" y1="1553.3" x2="440.8" y2="1561.9"/>
									<circle id="XMLID_1058_" class="st20" cx="433.8" cy="1560.1" r="1.7"/>
									<circle id="XMLID_1057_" class="st20" cx="442.6" cy="1555.9" r="1.7"/>
									<line id="XMLID_1056_" class="st25" x1="433.8" y1="1560.8" x2="442.4" y2="1556.6"/>
									<line id="XMLID_1055_" class="st25" x1="433.5" y1="1559.8" x2="442.1" y2="1555.6"/>
								</g>
								<g id="XMLID_1040_">
									<path id="XMLID_1053_" class="st17" d="M461.7,1617.5l-19.2,1.6l-18.5,5.6c-1.2,0.3-0.9,2.1,0.3,2.1l19.2-1.6l18.5-5.6
										C463.2,1619.1,462.9,1617.3,461.7,1617.5z"/>
									<circle id="XMLID_1052_" class="st5" cx="449.2" cy="1621.7" r="14.3"/>
									<circle id="XMLID_1051_" class="st16" cx="449.6" cy="1621.2" r="13.8"/>
									<circle id="XMLID_1050_" class="st24" cx="449.2" cy="1619.3" r="13.8"/>
									<circle id="XMLID_1049_" class="st19" cx="449.2" cy="1619.3" r="11.9"/>
									<circle id="XMLID_1048_" class="st20" cx="447" cy="1616.1" r="1.7"/>
									<circle id="XMLID_1047_" class="st20" cx="451.2" cy="1624.7" r="1.7"/>
									<line id="XMLID_1046_" class="st25" x1="446.3" y1="1616.1" x2="450.5" y2="1624.7"/>
									<line id="XMLID_1045_" class="st25" x1="447.5" y1="1615.8" x2="451.7" y2="1624.3"/>
									<circle id="XMLID_1044_" class="st20" cx="444.7" cy="1622.6" r="1.7"/>
									<circle id="XMLID_1043_" class="st20" cx="453.4" cy="1618.4" r="1.7"/>
									<line id="XMLID_1042_" class="st25" x1="444.7" y1="1623.3" x2="453.3" y2="1619.1"/>
									<line id="XMLID_1041_" class="st25" x1="444.3" y1="1622.1" x2="452.9" y2="1617.9"/>
								</g>
								<g id="XMLID_1038_">
									<path id="XMLID_1039_" class="st17" d="M469.2,1640.3l-13.5,1.7c-3.8,0.3-7.5,1-11.2,2.1l-13.1,3.3
										c-1.2,0.3-0.9,2.1,0.3,2.1l12.9-1.8c3.8-0.3,7.5-1,11-2.1l13.6-3.3C470.8,1641.8,470.4,1640.3,469.2,1640.3z"/>
								</g>
								<g id="XMLID_1024_">
									<path id="XMLID_1037_" class="st17" d="M-1105.6,1586.2l19.2,1.6l18.5,5.6c1.2,0.3,0.9,2.1-0.3,2.1l-19.2-1.6l-18.5-5.6
										C-1107.1,1587.9-1106.8,1586.2-1105.6,1586.2z"/>
									<circle id="XMLID_1036_" class="st5" cx="-1093.1" cy="1590.6" r="14.3"/>
									<circle id="XMLID_1035_" class="st16" cx="-1093.3" cy="1590" r="13.8"/>
									<circle id="XMLID_1034_" class="st24" cx="-1093.1" cy="1588.1" r="13.8"/>
									<circle id="XMLID_1033_" class="st19" cx="-1093.1" cy="1588.1" r="11.9"/>
									<circle id="XMLID_1032_" class="st20" cx="-1090.9" cy="1585" r="1.7"/>
									<circle id="XMLID_1031_" class="st20" cx="-1095.1" cy="1593.5" r="1.7"/>
									<line id="XMLID_1030_" class="st25" x1="-1090.2" y1="1585" x2="-1094.4" y2="1593.5"/>
									<line id="XMLID_1029_" class="st25" x1="-1091.2" y1="1584.4" x2="-1095.4" y2="1593"/>
									<circle id="XMLID_1028_" class="st20" cx="-1088.6" cy="1591.4" r="1.7"/>
									<circle id="XMLID_1027_" class="st20" cx="-1097.2" cy="1587.2" r="1.7"/>
									<line id="XMLID_1026_" class="st25" x1="-1088.6" y1="1592" x2="-1097.2" y2="1587.9"/>
									<line id="XMLID_1025_" class="st25" x1="-1088.2" y1="1590.9" x2="-1096.8" y2="1586.7"/>
								</g>
								<g id="XMLID_1010_">
									<path id="XMLID_1023_" class="st17" d="M-1099.4,1555l19.2,1.6l18.5,5.6c1.2,0.3,0.9,2.1-0.3,2.1l-19.2-1.6l-18.5-5.6
										C-1101,1556.8-1100.7,1555-1099.4,1555z"/>
									<circle id="XMLID_1022_" class="st5" cx="-1087" cy="1559.4" r="14.3"/>
									<circle id="XMLID_1021_" class="st16" cx="-1087.2" cy="1558.9" r="13.8"/>
									<circle id="XMLID_1020_" class="st24" cx="-1087" cy="1557" r="13.8"/>
									<circle id="XMLID_1019_" class="st19" cx="-1087" cy="1557" r="11.9"/>
									<circle id="XMLID_1018_" class="st20" cx="-1084.7" cy="1553.8" r="1.7"/>
									<circle id="XMLID_1017_" class="st20" cx="-1088.9" cy="1562.4" r="1.7"/>
									<line id="XMLID_1016_" class="st25" x1="-1084" y1="1553.8" x2="-1088.2" y2="1562.4"/>
									<line id="XMLID_1015_" class="st25" x1="-1085.1" y1="1553.3" x2="-1089.3" y2="1561.9"/>
									<circle id="XMLID_1014_" class="st20" cx="-1082.5" cy="1560.1" r="1.7"/>
									<circle id="XMLID_1013_" class="st20" cx="-1091" cy="1555.9" r="1.7"/>
									<line id="XMLID_1012_" class="st25" x1="-1082.5" y1="1560.8" x2="-1091" y2="1556.6"/>
									<line id="XMLID_1011_" class="st25" x1="-1082.1" y1="1559.8" x2="-1090.7" y2="1555.6"/>
								</g>
								<g id="XMLID_996_">
									<path id="XMLID_1009_" class="st17" d="M-1110.3,1617.5l19.2,1.6l18.5,5.6c1.2,0.3,0.9,2.1-0.3,2.1l-19.2-1.6l-18.5-5.6
										C-1111.9,1619.1-1111.5,1617.3-1110.3,1617.5z"/>
									<circle id="XMLID_1008_" class="st5" cx="-1097.9" cy="1621.7" r="14.3"/>
									<circle id="XMLID_1007_" class="st16" cx="-1098" cy="1621.2" r="13.8"/>
									<circle id="XMLID_1006_" class="st24" cx="-1097.9" cy="1619.3" r="13.8"/>
									<circle id="XMLID_1005_" class="st19" cx="-1097.9" cy="1619.3" r="11.9"/>
									<circle id="XMLID_1004_" class="st20" cx="-1095.6" cy="1616.1" r="1.7"/>
									<circle id="XMLID_1003_" class="st20" cx="-1099.8" cy="1624.7" r="1.7"/>
									<line id="XMLID_1002_" class="st25" x1="-1094.9" y1="1616.1" x2="-1099.1" y2="1624.7"/>
									<line id="XMLID_1001_" class="st25" x1="-1096.1" y1="1615.8" x2="-1100.1" y2="1624.3"/>
									<circle id="XMLID_1000_" class="st20" cx="-1093.3" cy="1622.6" r="1.7"/>
									<circle id="XMLID_999_" class="st20" cx="-1101.9" cy="1618.4" r="1.7"/>
									<line id="XMLID_998_" class="st25" x1="-1093.3" y1="1623.3" x2="-1101.9" y2="1619.1"/>
									<line id="XMLID_997_" class="st25" x1="-1093" y1="1622.1" x2="-1101.5" y2="1617.9"/>
								</g>
								<g id="XMLID_994_">
									<path id="XMLID_995_" class="st17" d="M-1117.8,1640.3l13.5,1.7c3.8,0.3,7.5,1,11.2,2.1l13.1,3.3c1.2,0.3,0.9,2.1-0.3,2.1
										l-12.9-1.8c-3.8-0.3-7.5-1-11-2.1l-13.6-3.3C-1119.2,1641.8-1119,1640.3-1117.8,1640.3z"/>
								</g>
							</g>
						</g>
					</g>
					<g>
						<g>
							<g>
								<defs>
									<circle id="SVGID_3_" cx="150" cy="150" r="150"/>
								</defs>
								<clipPath id="SVGID_4_">
									<use xlink:href="#SVGID_3_"  style="overflow:visible;"/>
								</clipPath>
								<g class="st26">
									<path class="st27" d="M150,5c38.7,0,75.1,15.1,102.5,42.5S295,111.3,295,150s-15.1,75.1-42.5,102.5S188.7,295,150,295
										s-75.1-15.1-102.5-42.5S5,188.7,5,150S20.1,74.9,47.5,47.5S111.3,5,150,5 M150,0C67.2,0,0,67.2,0,150s67.2,150,150,150
										s150-67.2,150-150S232.8,0,150,0L150,0z"/>
								</g>
							</g>
						</g>
					</g>
				</g>
			</g>
		</g>
	</g>
</g>
</svg>
