<?xml version="1.0" encoding="utf-8"?>
<!-- Generator: Adobe Illustrator 21.1.0, SVG Export Plug-In . SVG Version: 6.00 Build 0)  -->
<svg version="1.1" id="Layer_1" xmlns="http://www.w3.org/2000/svg" xmlns:xlink="http://www.w3.org/1999/xlink" x="0px" y="0px"
	 viewBox="0 0 300 300" style="enable-background:new 0 0 300 300;" xml:space="preserve">
<style type="text/css">
	.st0{fill:#DDDDDD;}
	.st1{clip-path:url(#SVGID_4_);}
	.st2{fill:#F1F1F2;stroke:#404041;stroke-miterlimit:10;}
	.st3{fill:#FFFFFF;stroke:#404041;stroke-miterlimit:10;}
	.st4{fill:#929497;}
	.st5{fill:#F1F1F2;}
	.st6{fill:#C5C7C9;}
	.st7{fill:none;stroke:#404041;stroke-miterlimit:10;}
	.st8{fill:none;stroke:#808184;stroke-width:0.5;stroke-miterlimit:10;}
	.st9{fill:none;stroke:#808184;stroke-width:0.5;stroke-miterlimit:10;stroke-dasharray:1.0012,2.0024;}
	.st10{fill:none;stroke:#808184;stroke-width:0.5;stroke-miterlimit:10;stroke-dasharray:1.0052,2.0105;}
	.st11{fill:none;stroke:#808184;stroke-width:0.5;stroke-miterlimit:10;stroke-dasharray:0.9946,1.9892;}
	
		.st12{fill:none;stroke:#808184;stroke-width:0.5;stroke-linecap:round;stroke-linejoin:round;stroke-miterlimit:10;stroke-dasharray:1.3,3.5;}
	.st13{fill:none;stroke:#CECECE;stroke-width:0.5;stroke-miterlimit:10;stroke-dasharray:1,2;}
	.st14{fill:none;stroke:#CECECE;stroke-width:0.5;stroke-miterlimit:10;}
	.st15{fill:none;stroke:#CECECE;stroke-width:0.5;stroke-miterlimit:10;stroke-dasharray:1.0052,2.0105;}
	.st16{fill:#DBDCDD;}
	.st17{fill:#404041;stroke:#D0D2D3;stroke-width:0.5;stroke-miterlimit:10;}
	.st18{fill:#FFFFFF;stroke:#6D6E70;stroke-miterlimit:10;}
	.st19{fill:#FFFFFF;stroke:#929497;stroke-width:0.25;stroke-miterlimit:10;}
	.st20{fill:#404041;}
	.st21{fill:none;stroke:#6D6E70;stroke-width:0.5;stroke-miterlimit:10;}
	.st22{fill:none;stroke:#CECECE;stroke-width:0.5;stroke-miterlimit:10;stroke-dasharray:0.9935,1.9871;}
	.st23{fill:none;stroke:#808184;stroke-width:0.5;stroke-miterlimit:10;stroke-dasharray:1,2;}
	.st24{fill:#FFFFFF;stroke:#6D6E70;stroke-width:0.5;stroke-miterlimit:10;}
	.st25{fill:none;stroke:#6D6E70;stroke-width:0.25;stroke-miterlimit:10;}
	.st26{clip-path:url(#SVGID_6_);}
	.st27{fill:#9AA0BB;}
	.st28{clip-path:url(#SVGID_9_);}
	.st29{clip-path:url(#SVGID_11_);}
	.st30{clip-path:url(#SVGID_13_);}
	.st31{clip-path:url(#SVGID_15_);}
</style>
<g>
	<g>
		<circle id="SVGID_8_" class="st0" cx="364" cy="-552" r="150"/>
	</g>
	<g>
		<g>
			<g>
				<defs>
					<circle id="SVGID_3_" cx="364" cy="-552" r="150"/>
				</defs>
				<clipPath id="SVGID_4_">
					<use xlink:href="#SVGID_3_"  style="overflow:visible;"/>
				</clipPath>
				<g class="st1">
					<g id="XMLID_1455_">
						<g id="XMLID_1456_">
							<g id="XMLID_1567_">
								<g id="XMLID_1630_">
									<polygon id="XMLID_1649_" class="st2" points="242.1,-841.5 288.3,-789.9 129.2,40.7 -29.7,-789.9 14.1,-841.5 									
										"/>
									<path id="XMLID_1648_" class="st3" d="M244.3-866c0,0,0.5-2.8-114.8-2.8c-0.3,0-0.9,0-1.2,0c-0.3,0-0.9,0-1.2,0
										c-115.5,0-114.8,2.8-114.8,2.8l-13.8,50.2c0,0,18.7,4.7,64.4,6.6c17.7,0.7,40.6,1.2,66.7,1.2c26.2,0,46.7-0.5,64.4-1.2
										c45.5-1.9,64.4-6.6,64.4-6.6L244.3-866z"/>
									<g id="XMLID_1644_">
										<path id="XMLID_1647_" class="st4" d="M32.8-867.2c0,0-11.9,13.3-11,30.4c1,17,1.7,22.7,1.7,22.7H-1.7l13.8-51.4
											L32.8-867.2z"/>
										<path id="XMLID_1646_" class="st5" d="M37.7-867.4c-3.1,0.2-5.9,0.2-8.2,0.3c-6.6,11.2-6.8,42.9-6.6,54.6
											c3.7,0.4,7.9,0.7,12.4,1c-0.7-3.5-1.7-10.5-1.7-23.6C33.5-850.7,36.3-862.5,37.7-867.4z"/>
										<path id="XMLID_1645_" class="st6" d="M30.3-867.2c-1.7,0-3.3,0.2-4.7,0.2c-2.8,2.3-5.6,6.3-6.3,13.5
											c-1.4,14.2-1.9,32.4-2.3,40.4c3.5,0.4,7.7,0.7,12.4,1C27.7-824.2,23.5-856.5,30.3-867.2z"/>
									</g>
									<g id="XMLID_1640_">
										<path id="XMLID_1643_" class="st4" d="M222.3-867.2c0,0,11.9,13.3,11,30.4c-1,17-1.7,22.7-1.7,22.7H258l-15-51.4
											L222.3-867.2z"/>
										<path id="XMLID_1642_" class="st5" d="M217.4-867.4c3.1,0.2,5.9,0.2,8.2,0.3c6.6,11.2,6.8,42.9,6.6,54.6
											c-3.7,0.4-7.9,0.7-12.4,1c0.7-3.5,1.7-10.5,1.7-23.6C221.8-850.7,219-862.5,217.4-867.4z"/>
										<path id="XMLID_1641_" class="st6" d="M224.9-867.2c1.7,0,3.3,0.2,4.7,0.2c2.8,2.3,5.6,6.3,6.3,13.5
											c1.4,14.2,1.9,32.4,2.3,40.4c-3.5,0.4-7.7,0.7-12.4,1C227.5-824.2,231.6-856.5,224.9-867.2z"/>
									</g>
									<path id="XMLID_1639_" class="st7" d="M244.3-866c0,0,0.5-2.8-114.8-2.8c-0.3,0-0.9,0-1.2,0c-0.3,0-0.9,0-1.2,0
										c-115.5,0-114.8,2.8-114.8,2.8l-13.8,50.2c0,0,18.7,4.7,64.4,6.6c17.7,0.7,40.6,1.2,66.7,1.2c26.2,0,46.7-0.5,64.4-1.2
										c45.5-1.9,64.4-6.6,64.4-6.6L244.3-866z"/>
									<g id="XMLID_1636_">
										<polygon id="XMLID_1638_" class="st4" points="20.4,-709.4 129.2,-163.9 235.9,-709.4 166.1,-102.8 125.5,70.9 
											93.3,-108.6 										"/>
										<polygon id="XMLID_1637_" class="st6" points="128.1,-97.6 242.1,-731.1 129.2,-232.2 17.7,-732.1 										"/>
									</g>
									<g id="XMLID_1634_">
										<g>
											<line class="st8" x1="129" y1="-801.2" x2="129" y2="-800.4"/>
											<line class="st9" x1="129" y1="-796.9" x2="129" y2="-83.8"/>
											<line class="st8" x1="129" y1="-82" x2="129" y2="-81.1"/>
										</g>
									</g>
									<path id="XMLID_1633_" class="st4" d="M69.5-788.6l4.2,4.4c0,0,29.7-2.3,55.3-2.3c25.4,0,57.4,2.3,57.4,2.3l2.8-4.4H69.5z"
										/>
									<path id="XMLID_1632_" class="st6" d="M72.7-785.3l3,3.1c0,0,28.3-2.1,53.2-2.1s56.2,2.1,56.2,2.1l1.7-3.1l-57.9-1.2
										L72.7-785.3z"/>
									<path id="XMLID_1631_" class="st3" d="M129.2-807.9c-26.4,0-48.1-0.2-66-0.9l7.5,20.1h58.1h0.7h58.1l7.5-20.1
										C177.5-808.1,155.6-807.9,129.2-807.9z"/>
								</g>
								<path id="XMLID_1629_" class="st2" d="M187.6,1017.3c0-3.1,0-116.7,0-116.7H70.4v116.7H187.6z"/>
								<g id="XMLID_1626_">
									<polygon id="XMLID_1628_" class="st4" points="130.2,944.1 84.9,1045.6 129,883.4 175.6,1047.4 									"/>
									<polygon id="XMLID_1627_" class="st6" points="129,964.4 84.9,1045.6 129,930.1 175.6,1047.4 									"/>
								</g>
								<path id="XMLID_1624_" class="st3" d="M191.7,331C181,88.3,169.3,153.5,169.3,153.5L132.3,30c-25-125.3-56-366.3-62.1-408.8
									c-10-68.8-75.1-288-75.1-288c-20.6-132.6,19.4-198.6,19.4-198.6s-99.7,56.9-120,70.3c-10.7,7-102.7,47.4-180.9,83.6
									c-95,43.9-108.3,67.4-108.3,67.4c73.3,45.5,88.5,208.6,89.9,400.2c1.4,191.6-51.6,518.1-58.3,688.4
									c-6.8,176.6-43,609.8-43,609.8s315.2,80.5,401.3,56.7c86.1-23.6,93.1-71.9,110.1-116.5l25.2-88.7
									C130.1,905.8,202.3,573.7,191.7,331z"/>
								<g id="XMLID_1622_">
									<g>
										<line class="st8" x1="-117.7" y1="-50.9" x2="-117.7" y2="-50"/>
										<line class="st10" x1="-117.7" y1="-46.5" x2="-117.7" y2="442.6"/>
										<line class="st8" x1="-117.7" y1="444.4" x2="-117.7" y2="445.2"/>
									</g>
								</g>
								<g id="XMLID_1616_">
									<path id="XMLID_1621_" class="st5" d="M-79.4,462.2l5.8,81.5c2.8,46.5-19.2,61.1-42.3,61.1h-252.5l0.9-21.3L-79.4,462.2z"
										/>
									<path id="XMLID_1620_" class="st6" d="M-79.4,459.4l2.6,67c2.8,46.5-12.9,72.8-39.7,72.8h-252l0.9-21.3L-79.4,459.4z"/>
									<path id="XMLID_1619_" class="st3" d="M-79.4,479.9v-23.4h-283.8l-7,137.7h248.1c32.9,0,42.7-38.7,42.7-71.7l0,0V479.9z"/>
									<g id="XMLID_1617_">
										<g>
											<line class="st8" x1="-81.3" y1="470.8" x2="-82.2" y2="470.8"/>
											<line class="st11" x1="-85.7" y1="470.8" x2="-360.6" y2="470.8"/>
											<line class="st8" x1="-362.4" y1="470.8" x2="-363.2" y2="470.8"/>
										</g>
									</g>
								</g>
								<g id="XMLID_1613_">
									<path id="XMLID_1615_" class="st5" d="M-303.9,101c27.8-189.9,15.7-342.1-3.1-461.6c3.7,23.6,5.6,65.1,6.1,71.4
										c3.1,40.2,6.6,81.9,5.4,121.8c-0.9,84.3-6.8,180.6-22,286.5c-12.9,90.6-22.6,130.9-29.6,146.5c-1.4,12.8-2.6,25.4-3.8,37.8
										C-333.5,302.3-321.8,223.2-303.9,101z"/>
									<path id="XMLID_1614_" class="st6" d="M-321.1,24c-8.2,81.5-18.2,165.4-26.2,241.7c7-15.6,16.6-55.8,29.6-146.5
										c15.2-105.7,22.6-192.5,22.6-334.4v-0.3c1.4-51.4-12.6-147-12.2-142.6C-299.7-244.4-313-43.9-321.1,24z"/>
								</g>
								<path id="XMLID_1612_" class="st3" d="M-305-243.9c-1.4-179.5-14.7-334.2-76.8-390.4l-13.1-7.5c0,0-19.9-6.6-40.8,91.7
									c-20.8,98.3-243.2,1496-243.2,1496s36.9,32.2,113.6,35c76.6,2.8,115.5-16.1,115.5-16.1L-329.5,93
									C-316.2-28.8-304.4-151.8-305-243.9z"/>
								<g id="XMLID_1609_">
									<path id="XMLID_1611_" class="st5" d="M147-45.3c0,0-86.8,206.5-86.8,499.8S157,960.1,157,960.1l-10-355.9l14.2-623.7
										L147-45.3z"/>
									<path id="XMLID_1610_" class="st6" d="M159.3-45.3c0,0-86.8,206.5-86.8,499.8s96.8,505.5,96.8,505.5l-10-355.9l14.2-623.7
										L159.3-45.3z"/>
								</g>
								<g id="XMLID_1572_">
									<path id="XMLID_1608_" class="st3" d="M562.8-244.9c1.4-191.6,16.6-354.9,89.9-400.2c0,0-13.3-23.4-108.3-67.4
										c-89.6-41.5-164.7-74-194.4-90.8c-1.7-1-3.5-1.9-4.9-2.8c-25.5-15.6-102.2-60.4-102.2-60.4s36.6,66,16.1,198.6
										c0,0-65.8,219.3-75.6,288c-9.8,68.8-44.8,433.6-53.9,488.2c-2.4,14.2-16.4,32.5-18.4,44.8c-4.2,26.2-7.5,48.5-8.7,57
										c-2.4,27.8-15,66.1-17.5,122.3c-10.7,242.7,43.2,572,43.2,572l26.2,89.8c17,44.6,22.9,91.9,109,115.5
										c86.1,23.6,389.9-56.7,389.9-56.7s-24.8-433.3-31.7-609.8C614.3,273.4,561.2-53.3,562.8-244.9z"/>
									<path id="XMLID_1607_" class="st12" d="M646.5-652.8c0,0-47.4,16.3-62.6,98.2"/>
									<path id="XMLID_1606_" class="st12" d="M643.7-656.2c0,0-47.4,16.3-62.6,98.2"/>
									<path id="XMLID_1605_" class="st12" d="M580-555.2"/>
									<path id="XMLID_1604_" class="st12" d="M642.6-653.4"/>
									<polygon id="XMLID_1603_" class="st5" points="514,-224.8 514,-236.7 239.6,-228.7 239.6,-217.1 									"/>
									<polygon id="XMLID_1602_" class="st6" points="514,-220.3 514,-232.2 239.6,-224.1 239.6,-212.4 									"/>
									<polygon id="XMLID_1601_" class="st3" points="513.1,-226.9 513.1,-159.5 242.8,-153.8 242.8,-219 									"/>
									<line id="XMLID_1600_" class="st13" x1="242.8" y1="-216.2" x2="513.1" y2="-224.1"/>
									<g id="XMLID_1598_">
										<g>
											<line class="st14" x1="376.8" y1="-50.9" x2="376.8" y2="-50"/>
											<line class="st15" x1="376.8" y1="-46.5" x2="376.8" y2="442.6"/>
											<line class="st14" x1="376.8" y1="444.4" x2="376.8" y2="445.2"/>
										</g>
									</g>
									<g id="XMLID_1582_">
										<circle id="XMLID_1597_" class="st5" cx="140" cy="275.8" r="27.6"/>
										<circle id="XMLID_1596_" class="st16" cx="140.6" cy="274.8" r="26.6"/>
										<polygon id="XMLID_1595_" class="st17" points="174.7,273.7 140.9,267.1 103.3,273.7 141.3,280.4 										"/>
										<circle id="XMLID_1594_" class="st18" cx="140" cy="271.1" r="26.6"/>
										<circle id="XMLID_1593_" class="st19" cx="140" cy="271.1" r="22.9"/>
										<circle id="XMLID_1592_" class="st20" cx="135.7" cy="265" r="3.3"/>
										<circle id="XMLID_1591_" class="st20" cx="143.7" cy="281.6" r="3.3"/>
										<line id="XMLID_1590_" class="st21" x1="134.4" y1="265" x2="142.3" y2="281.4"/>
										<line id="XMLID_1589_" class="st21" x1="136.5" y1="264.1" x2="144.6" y2="280.6"/>
										<line id="XMLID_1588_" class="st21" x1="134.4" y1="265" x2="142.3" y2="281.4"/>
										<line id="XMLID_1587_" class="st21" x1="136.5" y1="264.1" x2="144.6" y2="280.6"/>
										<circle id="XMLID_1586_" class="st20" cx="131.5" cy="277.2" r="3.3"/>
										<circle id="XMLID_1585_" class="st20" cx="147.9" cy="269.2" r="3.3"/>
										<line id="XMLID_1584_" class="st21" x1="131.5" y1="278.6" x2="147.9" y2="270.6"/>
										<line id="XMLID_1583_" class="st21" x1="130.6" y1="276.4" x2="147" y2="268.5"/>
									</g>
									<g id="XMLID_1573_">
										<path id="XMLID_1581_" class="st5" d="M338.5,462.2l-5.8,81.5c-2.8,46.5,19.2,61.1,42.3,61.1h252.7l-0.9-21.3L338.5,462.2
											z"/>
										<path id="XMLID_1580_" class="st6" d="M338.5,459.4l-2.6,67c-2.8,46.5,12.9,72.8,39.7,72.8h252l-0.9-21.3L338.5,459.4z"/>
										<path id="XMLID_1579_" class="st3" d="M338.5,479.9v-23.4h283.8l7,137.7H381.2c-32.9,0-42.7-38.7-42.7-71.7l0,0
											L338.5,479.9L338.5,479.9z"/>
										<path id="XMLID_1578_" class="st12" d="M627.6,589.3H387.1c-29,0-42.7-34.6-42.7-48.5l-1.4-83.1"/>
										<line id="XMLID_1577_" class="st12" x1="626.7" y1="585.9" x2="385.7" y2="585.4"/>
										<g id="XMLID_1575_">
											<g>
												<line class="st14" x1="622.3" y1="462.6" x2="621.4" y2="462.6"/>
												<line class="st22" x1="618.1" y1="462.6" x2="343.4" y2="462.6"/>
												<line class="st14" x1="341.6" y1="462.6" x2="340.8" y2="462.6"/>
											</g>
										</g>
										<path id="XMLID_1574_" class="st12" d="M346.7,463.8l1.9,78.9c0.2,8,3.7,18.2,8,24.8c3.5,5.2,9.4,13.1,19.1,15.9"/>
									</g>
								</g>
								<g id="XMLID_1569_">
									<path id="XMLID_1571_" class="st5" d="M562.7,101c-27.8-189.9-15.7-342.1,3.1-461.6c-3.7,23.6-5.6,65.1-6.1,71.4
										c-3.1,40.2-6.6,81.9-5.4,121.8c0.9,84.3,6.8,180.6,22,286.5c12.9,90.6,22.6,130.9,29.6,146.5c1.4,12.8,2.6,25.4,3.8,37.8
										C592.4,302.3,580.5,223.2,562.7,101z"/>
									<path id="XMLID_1570_" class="st6" d="M579.8,24C588,105.6,598,189.4,606,265.7c-7-15.6-16.6-55.8-29.6-146.5
										c-15.2-105.7-22.6-192.5-22.6-334.4v-0.3c-1.4-51.4,12.6-147,12.2-142.6C558.6-244.4,571.7-43.9,579.8,24z"/>
								</g>
								<path id="XMLID_1568_" class="st3" d="M694.8-552.4c-20.8-98.3-40.6-91.7-40.6-91.7l0,0c-73.3,45.5-88.5,208.6-89.9,400.2
									c-0.7,89.2,10.5,207.7,23.3,326l121.4,880.4c0,0,38.8,18.9,115.5,16.1c76.6-2.8,113.6-35,113.6-35S715.6-453.9,694.8-552.4z
									"/>
							</g>
							<g id="XMLID_1546_">
								<g id="XMLID_1559_">
									<g id="XMLID_1562_">
										<path id="XMLID_1566_" class="st5" d="M-184.2-593.2c0,0-15.6,11.4-9.1,28.5c6.5,17.1,227,576.4,265.5,652.9
											c13.3,26.2,29.4,60.4,44.6,94c11.9,25.7,20.5-31.3,20.5-31.3L125,96.7l-262.8-656.6L-184.2-593.2z"/>
										<path id="XMLID_1565_" class="st6" d="M-180.5-593.2c0,0-16.3,4.5-9.8,21.9C-183.9-554.1,37.3,12,75.8,88.4
											c12.4,24.5,27.1,56,41.6,87.3c7.5,16.4,19.6-41.8,19.6-41.8l-8.4-37.1l-262.8-656.6L-180.5-593.2z"/>
										<polygon id="XMLID_1564_" class="st5" points="-87.1,-782.2 -137.7,-596.7 -137.7,-589.7 -127.5,-569.4 -45.3,-535.6 
											-24.6,-535.1 -83.4,-739.6 										"/>
										<polygon id="XMLID_1563_" class="st6" points="-87.1,-782.2 -133.1,-595.4 -133.1,-588.4 -117,-547.7 -47,-512.5 
											-11.3,-535.1 -70.3,-739.6 										"/>
									</g>
									<path id="XMLID_1561_" class="st3" d="M20.7-865.6c0,0-84.9,31-101.8,70.2c-17,39.2-47.4,203.5-47.4,203.5l86.4,39.2
										c0,0-129.5-50.7-142.1-40.6c-7.9,6.3-1.4,25.5,19.1,67.2c14.9,30.3,160.3,437,224.9,567.5c24.5,49.5,44.4,93.6,60.5,131.1
										c6.1,14.2,33.1-28.9,31.8-35.5c-2.8-15.4-6.1-15.4-9.6-36.4C116.9-51.6,77-433.9,54.7-554.7
										C29.3-692.2,7.1-761.7,7.1-802.5C7.1-843.2,20.7-865.6,20.7-865.6z"/>
									<line id="XMLID_1560_" class="st23" x1="33.1" y1="-661.4" x2="-42.1" y2="-552.7"/>
								</g>
								<g id="XMLID_1556_">
									<polygon id="XMLID_1558_" class="st5" points="128.1,12 99.6,122.4 108.4,144.3 130.6,49.8 									"/>
									<polygon id="XMLID_1557_" class="st6" points="131.8,22.1 103.3,132.4 112.2,154.4 134.3,59.9 									"/>
								</g>
								<g id="XMLID_1551_">
									<path id="XMLID_1555_" class="st5" d="M444-593.2c0,0,15.6,11.4,9.1,28.5c-6.5,17.1-227,576.4-265.5,652.9
										S88.8,303.5,88.8,303.5l46-206.8l262.8-656.6L444-593.2z"/>
									<path id="XMLID_1554_" class="st6" d="M440.3-593.2c0,0,16.3,4.5,9.8,21.9C443.7-554.1,222.5,12,184,88.4
										S87.4,301,87.4,301l43.7-204.2L394-559.7L440.3-593.2z"/>
									<polygon id="XMLID_1553_" class="st5" points="346.9,-782.2 397.6,-596.7 397.6,-589.7 387.3,-569.4 305.1,-535.6 
										284.4,-535.1 343.2,-739.6 									"/>
									<polygon id="XMLID_1552_" class="st6" points="346.9,-782.2 392.9,-595.4 392.9,-588.4 376.8,-547.7 306.8,-512.5 
										271.1,-535.1 330.1,-739.6 									"/>
								</g>
								<path id="XMLID_1550_" class="st3" d="M239.1-867.4c0,0,84.9,32.7,101.8,71.9c17,39,47.4,203.5,47.4,203.5l-86.4,39.2
									c0,0,129.5-50.7,142.1-40.6c7.9,6.3-2.3,23.8-19.1,67.2C400.4-463.1,252-76.8,192.7,56.4C122.9,213,102.4,264.3,87.2,300.7
									c0,0-3.3-17.8,20.3-145.1c23.8-127.2,72.1-572.7,97.5-710.1c25.4-137.5,47.6-207,47.6-247.8S239.1-867.4,239.1-867.4z"/>
								<path id="XMLID_1549_" class="st17" d="M388-554.3l-12.8,4.4c-3.7,1-7.2,2.4-10.5,4.2l-12.2,5.8c-1,0.7-0.3,2.3,0.7,1.9
									l12.4-4.2c3.7-1,7.2-2.4,10.5-4.2l12.8-5.9C389.9-552.9,389.2-554.7,388-554.3z"/>
								<line id="XMLID_1548_" class="st13" x1="227.5" y1="-656" x2="301.9" y2="-552.7"/>
							</g>
							<g id="XMLID_1457_">
								<g id="XMLID_1532_">
									<path id="XMLID_1545_" class="st17" d="M916,865.2l-19.2,1.6l-18.5,5.6c-1.2,0.3-0.9,2.1,0.3,2.1l19.2-1.6l18.5-5.6
										C917.5,867,917.2,865.2,916,865.2z"/>
									<circle id="XMLID_1544_" class="st5" cx="903.5" cy="869.6" r="14.3"/>
									<circle id="XMLID_1543_" class="st16" cx="903.7" cy="869.1" r="13.8"/>
									<circle id="XMLID_1542_" class="st24" cx="903.5" cy="867.1" r="13.8"/>
									<circle id="XMLID_1541_" class="st19" cx="903.5" cy="867.1" r="11.9"/>
									<circle id="XMLID_1540_" class="st20" cx="901.3" cy="864" r="1.7"/>
									<circle id="XMLID_1539_" class="st20" cx="905.5" cy="872.6" r="1.7"/>
									<line id="XMLID_1538_" class="st25" x1="900.6" y1="864" x2="904.8" y2="872.6"/>
									<line id="XMLID_1537_" class="st25" x1="901.8" y1="863.5" x2="906" y2="872"/>
									<circle id="XMLID_1536_" class="st20" cx="899" cy="870.5" r="1.7"/>
									<circle id="XMLID_1535_" class="st20" cx="907.7" cy="866.3" r="1.7"/>
									<line id="XMLID_1534_" class="st25" x1="899" y1="871" x2="907.6" y2="867"/>
									<line id="XMLID_1533_" class="st25" x1="898.6" y1="869.9" x2="907.2" y2="865.7"/>
								</g>
								<g id="XMLID_1518_">
									<path id="XMLID_1531_" class="st17" d="M909.8,834.1l-19.2,1.6l-18.5,5.6c-1.2,0.3-0.9,2.1,0.3,2.1l19.2-1.6l18.5-5.6
										C911.4,835.8,911.1,834.1,909.8,834.1z"/>
									<circle id="XMLID_1530_" class="st5" cx="897.4" cy="838.4" r="14.3"/>
									<circle id="XMLID_1529_" class="st16" cx="897.6" cy="837.9" r="13.8"/>
									<circle id="XMLID_1528_" class="st24" cx="897.4" cy="836" r="13.8"/>
									<circle id="XMLID_1527_" class="st19" cx="897.4" cy="836" r="11.9"/>
									<circle id="XMLID_1526_" class="st20" cx="895.1" cy="832.8" r="1.7"/>
									<circle id="XMLID_1525_" class="st20" cx="899.3" cy="841.4" r="1.7"/>
									<line id="XMLID_1524_" class="st25" x1="894.4" y1="832.8" x2="898.6" y2="841.4"/>
									<line id="XMLID_1523_" class="st25" x1="895.7" y1="832.3" x2="899.9" y2="840.9"/>
									<circle id="XMLID_1522_" class="st20" cx="892.9" cy="839.1" r="1.7"/>
									<circle id="XMLID_1521_" class="st20" cx="901.6" cy="834.9" r="1.7"/>
									<line id="XMLID_1520_" class="st25" x1="892.9" y1="839.8" x2="901.4" y2="835.6"/>
									<line id="XMLID_1519_" class="st25" x1="892.5" y1="838.8" x2="901.1" y2="834.6"/>
								</g>
								<g id="XMLID_1504_">
									<path id="XMLID_1517_" class="st17" d="M920.7,896.5l-19.2,1.6l-18.5,5.6c-1.2,0.3-0.9,2.1,0.3,2.1l19.2-1.6l18.5-5.6
										C922.3,898.1,921.9,896.4,920.7,896.5z"/>
									<circle id="XMLID_1516_" class="st5" cx="908.3" cy="900.7" r="14.3"/>
									<circle id="XMLID_1515_" class="st16" cx="908.6" cy="900.2" r="13.8"/>
									<circle id="XMLID_1514_" class="st24" cx="908.3" cy="898.3" r="13.8"/>
									<circle id="XMLID_1513_" class="st19" cx="908.3" cy="898.3" r="11.9"/>
									<circle id="XMLID_1512_" class="st20" cx="906" cy="895.1" r="1.7"/>
									<circle id="XMLID_1511_" class="st20" cx="910.2" cy="903.7" r="1.7"/>
									<line id="XMLID_1510_" class="st25" x1="905.3" y1="895.1" x2="909.5" y2="903.7"/>
									<line id="XMLID_1509_" class="st25" x1="906.5" y1="894.8" x2="910.7" y2="903.4"/>
									<circle id="XMLID_1508_" class="st20" cx="903.7" cy="901.6" r="1.7"/>
									<circle id="XMLID_1507_" class="st20" cx="912.5" cy="897.4" r="1.7"/>
									<line id="XMLID_1506_" class="st25" x1="903.7" y1="902.3" x2="912.3" y2="898.1"/>
									<line id="XMLID_1505_" class="st25" x1="903.4" y1="901.1" x2="911.9" y2="896.9"/>
								</g>
								<g id="XMLID_1502_">
									<path id="XMLID_1503_" class="st17" d="M928.2,919.3l-13.5,1.7c-3.8,0.3-7.5,1-11.2,2.1l-13.1,3.3
										c-1.2,0.3-0.9,2.1,0.3,2.1l12.9-1.7c3.8-0.3,7.5-1,11-2.1l13.6-3.3C929.8,920.9,929.4,919.3,928.2,919.3z"/>
								</g>
								<g id="XMLID_1488_">
									<path id="XMLID_1501_" class="st17" d="M-646.5,865.2l19.2,1.6l18.5,5.6c1.2,0.3,0.9,2.1-0.4,2.1l-19.2-1.6l-18.5-5.6
										C-648.1,867-647.8,865.2-646.5,865.2z"/>
									<circle id="XMLID_1500_" class="st5" cx="-634.1" cy="869.6" r="14.3"/>
									<circle id="XMLID_1499_" class="st16" cx="-634.3" cy="869.1" r="13.8"/>
									<circle id="XMLID_1498_" class="st24" cx="-634.1" cy="867.1" r="13.8"/>
									<circle id="XMLID_1497_" class="st19" cx="-634.1" cy="867.1" r="11.9"/>
									<circle id="XMLID_1496_" class="st20" cx="-631.8" cy="864" r="1.7"/>
									<circle id="XMLID_1495_" class="st20" cx="-636" cy="872.6" r="1.7"/>
									<line id="XMLID_1494_" class="st25" x1="-631.1" y1="864" x2="-635.3" y2="872.6"/>
									<line id="XMLID_1493_" class="st25" x1="-632.2" y1="863.5" x2="-636.4" y2="872"/>
									<circle id="XMLID_1492_" class="st20" cx="-629.6" cy="870.5" r="1.7"/>
									<circle id="XMLID_1491_" class="st20" cx="-638.1" cy="866.3" r="1.7"/>
									<line id="XMLID_1490_" class="st25" x1="-629.6" y1="871" x2="-638.1" y2="867"/>
									<line id="XMLID_1489_" class="st25" x1="-629.2" y1="869.9" x2="-637.8" y2="865.7"/>
								</g>
								<g id="XMLID_1474_">
									<path id="XMLID_1487_" class="st17" d="M-640.4,834.1l19.2,1.6l18.5,5.6c1.2,0.3,0.9,2.1-0.4,2.1l-19.2-1.6l-18.5-5.6
										C-642,835.8-641.6,834.1-640.4,834.1z"/>
									<circle id="XMLID_1486_" class="st5" cx="-628" cy="838.4" r="14.3"/>
									<circle id="XMLID_1485_" class="st16" cx="-628.2" cy="837.9" r="13.8"/>
									<circle id="XMLID_1484_" class="st24" cx="-628" cy="836" r="13.8"/>
									<circle id="XMLID_1483_" class="st19" cx="-628" cy="836" r="11.9"/>
									<circle id="XMLID_1482_" class="st20" cx="-625.7" cy="832.8" r="1.7"/>
									<circle id="XMLID_1481_" class="st20" cx="-629.9" cy="841.4" r="1.7"/>
									<line id="XMLID_1480_" class="st25" x1="-625" y1="832.8" x2="-629.2" y2="841.4"/>
									<line id="XMLID_1479_" class="st25" x1="-626.1" y1="832.3" x2="-630.3" y2="840.9"/>
									<circle id="XMLID_1478_" class="st20" cx="-623.4" cy="839.1" r="1.7"/>
									<circle id="XMLID_1477_" class="st20" cx="-632" cy="834.9" r="1.7"/>
									<line id="XMLID_1476_" class="st25" x1="-623.4" y1="839.8" x2="-632" y2="835.6"/>
									<line id="XMLID_1475_" class="st25" x1="-623.1" y1="838.8" x2="-631.7" y2="834.6"/>
								</g>
								<g id="XMLID_1460_">
									<path id="XMLID_1473_" class="st17" d="M-651.3,896.5l19.2,1.6l18.5,5.6c1.2,0.3,0.9,2.1-0.4,2.1l-19.2-1.6l-18.5-5.6
										C-652.8,898.1-652.5,896.4-651.3,896.5z"/>
									<circle id="XMLID_1472_" class="st5" cx="-638.8" cy="900.7" r="14.3"/>
									<circle id="XMLID_1471_" class="st16" cx="-639" cy="900.2" r="13.8"/>
									<circle id="XMLID_1470_" class="st24" cx="-638.8" cy="898.3" r="13.8"/>
									<circle id="XMLID_1469_" class="st19" cx="-638.8" cy="898.3" r="11.9"/>
									<circle id="XMLID_1468_" class="st20" cx="-636.6" cy="895.1" r="1.7"/>
									<circle id="XMLID_1467_" class="st20" cx="-640.8" cy="903.7" r="1.7"/>
									<line id="XMLID_1466_" class="st25" x1="-635.9" y1="895.1" x2="-640.1" y2="903.7"/>
									<line id="XMLID_1465_" class="st25" x1="-637.1" y1="894.8" x2="-641.1" y2="903.4"/>
									<circle id="XMLID_1464_" class="st20" cx="-634.3" cy="901.6" r="1.7"/>
									<circle id="XMLID_1463_" class="st20" cx="-642.9" cy="897.4" r="1.7"/>
									<line id="XMLID_1462_" class="st25" x1="-634.3" y1="902.3" x2="-642.9" y2="898.1"/>
									<line id="XMLID_1461_" class="st25" x1="-633.9" y1="901.1" x2="-642.5" y2="896.9"/>
								</g>
								<g id="XMLID_1458_">
									<path id="XMLID_1459_" class="st17" d="M-658.8,919.3l13.5,1.7c3.8,0.3,7.5,1,11.2,2.1l13.1,3.3c1.2,0.3,0.9,2.1-0.3,2.1
										l-12.9-1.7c-3.8-0.3-7.5-1-11-2.1l-13.6-3.3C-660.2,920.9-660,919.3-658.8,919.3z"/>
								</g>
							</g>
						</g>
					</g>
					<g>
						<g>
							<g>
								<defs>
									<circle id="SVGID_5_" cx="364" cy="-552" r="150"/>
								</defs>
								<clipPath id="SVGID_6_">
									<use xlink:href="#SVGID_5_"  style="overflow:visible;"/>
								</clipPath>
								<g class="st26">
									<path class="st27" d="M364-697c38.7,0,75.1,15.1,102.5,42.5S509-590.7,509-552s-15.1,75.1-42.5,102.5S402.7-407,364-407
										s-75.1-15.1-102.5-42.5S219-513.3,219-552s15.1-75.1,42.5-102.5S325.3-697,364-697 M364-702c-82.8,0-150,67.2-150,150
										s67.2,150,150,150s150-67.2,150-150S446.8-702,364-702L364-702z"/>
								</g>
							</g>
						</g>
					</g>
				</g>
			</g>
		</g>
	</g>
</g>
<g>
	<g>
		<circle id="SVGID_1_" class="st0" cx="364" cy="-552" r="150"/>
	</g>
	<g>
		<g>
			<g>
				<defs>
					<circle id="SVGID_7_" cx="364" cy="-552" r="150"/>
				</defs>
				<clipPath id="SVGID_9_">
					<use xlink:href="#SVGID_7_"  style="overflow:visible;"/>
				</clipPath>
				<g class="st28">
					<g id="XMLID_1_">
						<g id="XMLID_2_">
							<g id="XMLID_112_">
								<g id="XMLID_170_">
									<polygon id="XMLID_188_" class="st2" points="242.1,-841.5 288.3,-789.9 129.2,40.7 -29.7,-789.9 14.1,-841.5 									"/>
									<path id="XMLID_187_" class="st3" d="M244.3-866c0,0,0.5-2.8-114.8-2.8c-0.3,0-0.9,0-1.2,0c-0.3,0-0.9,0-1.2,0
										c-115.5,0-114.8,2.8-114.8,2.8l-13.8,50.2c0,0,18.7,4.7,64.4,6.6c17.7,0.7,40.6,1.2,66.7,1.2c26.2,0,46.7-0.5,64.4-1.2
										c45.5-1.9,64.4-6.6,64.4-6.6L244.3-866z"/>
									<g id="XMLID_183_">
										<path id="XMLID_186_" class="st4" d="M32.8-867.2c0,0-11.9,13.3-11,30.4c1,17,1.7,22.7,1.7,22.7H-1.7l13.8-51.4
											L32.8-867.2z"/>
										<path id="XMLID_185_" class="st5" d="M37.7-867.4c-3.1,0.2-5.9,0.2-8.2,0.3c-6.6,11.2-6.8,42.9-6.6,54.6
											c3.7,0.4,7.9,0.7,12.4,1c-0.7-3.5-1.7-10.5-1.7-23.6C33.5-850.7,36.3-862.5,37.7-867.4z"/>
										<path id="XMLID_184_" class="st6" d="M30.3-867.2c-1.7,0-3.3,0.2-4.7,0.2c-2.8,2.3-5.6,6.3-6.3,13.5
											c-1.4,14.2-1.9,32.4-2.3,40.4c3.5,0.4,7.7,0.7,12.4,1C27.7-824.2,23.5-856.5,30.3-867.2z"/>
									</g>
									<g id="XMLID_179_">
										<path id="XMLID_182_" class="st4" d="M222.3-867.2c0,0,11.9,13.3,11,30.4c-1,17-1.7,22.7-1.7,22.7H258l-15-51.4
											L222.3-867.2z"/>
										<path id="XMLID_181_" class="st5" d="M217.4-867.4c3.1,0.2,5.9,0.2,8.2,0.3c6.6,11.2,6.8,42.9,6.6,54.6
											c-3.7,0.4-7.9,0.7-12.4,1c0.7-3.5,1.7-10.5,1.7-23.6C221.8-850.7,219-862.5,217.4-867.4z"/>
										<path id="XMLID_180_" class="st6" d="M224.9-867.2c1.7,0,3.3,0.2,4.7,0.2c2.8,2.3,5.6,6.3,6.3,13.5
											c1.4,14.2,1.9,32.4,2.3,40.4c-3.5,0.4-7.7,0.7-12.4,1C227.5-824.2,231.6-856.5,224.9-867.2z"/>
									</g>
									<path id="XMLID_178_" class="st7" d="M244.3-866c0,0,0.5-2.8-114.8-2.8c-0.3,0-0.9,0-1.2,0c-0.3,0-0.9,0-1.2,0
										c-115.5,0-114.8,2.8-114.8,2.8l-13.8,50.2c0,0,18.7,4.7,64.4,6.6c17.7,0.7,40.6,1.2,66.7,1.2c26.2,0,46.7-0.5,64.4-1.2
										c45.5-1.9,64.4-6.6,64.4-6.6L244.3-866z"/>
									<g id="XMLID_175_">
										<polygon id="XMLID_177_" class="st4" points="20.4,-709.4 129.2,-163.9 235.9,-709.4 166.1,-102.8 125.5,70.9 
											93.3,-108.6 										"/>
										<polygon id="XMLID_176_" class="st6" points="128.1,-97.6 242.1,-731.1 129.2,-232.2 17.7,-732.1 										"/>
									</g>
									<g id="XMLID_174_">
										<g>
											<line class="st8" x1="129" y1="-801.2" x2="129" y2="-800.4"/>
											<line class="st9" x1="129" y1="-796.9" x2="129" y2="-83.8"/>
											<line class="st8" x1="129" y1="-82" x2="129" y2="-81.1"/>
										</g>
									</g>
									<path id="XMLID_173_" class="st4" d="M69.5-788.6l4.2,4.4c0,0,29.7-2.3,55.3-2.3c25.4,0,57.4,2.3,57.4,2.3l2.8-4.4H69.5z"
										/>
									<path id="XMLID_172_" class="st6" d="M72.7-785.3l3,3.1c0,0,28.3-2.1,53.2-2.1s56.2,2.1,56.2,2.1l1.7-3.1l-57.9-1.2
										L72.7-785.3z"/>
									<path id="XMLID_171_" class="st3" d="M129.2-807.9c-26.4,0-48.1-0.2-66-0.9l7.5,20.1h58.1h0.7h58.1l7.5-20.1
										C177.5-808.1,155.6-807.9,129.2-807.9z"/>
								</g>
								<path id="XMLID_169_" class="st2" d="M187.6,1017.3c0-3.1,0-116.7,0-116.7H70.4v116.7H187.6z"/>
								<g id="XMLID_166_">
									<polygon id="XMLID_168_" class="st4" points="130.2,944.1 84.9,1045.6 129,883.4 175.6,1047.4 									"/>
									<polygon id="XMLID_167_" class="st6" points="129,964.4 84.9,1045.6 129,930.1 175.6,1047.4 									"/>
								</g>
								<path id="XMLID_165_" class="st3" d="M191.7,331C181,88.3,169.3,153.5,169.3,153.5L132.3,30c-25-125.3-56-366.3-62.1-408.8
									c-10-68.8-75.1-288-75.1-288c-20.6-132.6,19.4-198.6,19.4-198.6s-99.7,56.9-120,70.3c-10.7,7-102.7,47.4-180.9,83.6
									c-95,43.9-108.3,67.4-108.3,67.4c73.3,45.5,88.5,208.6,89.9,400.2c1.4,191.6-51.6,518.1-58.3,688.4
									c-6.8,176.6-43,609.8-43,609.8s315.2,80.5,401.3,56.7c86.1-23.6,93.1-71.9,110.1-116.5l25.2-88.7
									C130.1,905.8,202.3,573.7,191.7,331z"/>
								<g id="XMLID_164_">
									<g>
										<line class="st8" x1="-117.7" y1="-50.9" x2="-117.7" y2="-50"/>
										<line class="st10" x1="-117.7" y1="-46.5" x2="-117.7" y2="442.6"/>
										<line class="st8" x1="-117.7" y1="444.4" x2="-117.7" y2="445.2"/>
									</g>
								</g>
								<g id="XMLID_159_">
									<path id="XMLID_163_" class="st5" d="M-79.4,462.2l5.8,81.5c2.8,46.5-19.2,61.1-42.3,61.1h-252.5l0.9-21.3L-79.4,462.2z"/>
									<path id="XMLID_162_" class="st6" d="M-79.4,459.4l2.6,67c2.8,46.5-12.9,72.8-39.7,72.8h-252l0.9-21.3L-79.4,459.4z"/>
									<path id="XMLID_161_" class="st3" d="M-79.4,479.9v-23.4h-283.8l-7,137.7h248.1c32.9,0,42.7-38.7,42.7-71.7l0,0V479.9z"/>
									<g id="XMLID_160_">
										<g>
											<line class="st8" x1="-81.3" y1="470.8" x2="-82.2" y2="470.8"/>
											<line class="st11" x1="-85.7" y1="470.8" x2="-360.6" y2="470.8"/>
											<line class="st8" x1="-362.4" y1="470.8" x2="-363.2" y2="470.8"/>
										</g>
									</g>
								</g>
								<g id="XMLID_156_">
									<path id="XMLID_158_" class="st5" d="M-303.9,101c27.8-189.9,15.7-342.1-3.1-461.6c3.7,23.6,5.6,65.1,6.1,71.4
										c3.1,40.2,6.6,81.9,5.4,121.8c-0.9,84.3-6.8,180.6-22,286.5c-12.9,90.6-22.6,130.9-29.6,146.5c-1.4,12.8-2.6,25.4-3.8,37.8
										C-333.5,302.3-321.8,223.2-303.9,101z"/>
									<path id="XMLID_157_" class="st6" d="M-321.1,24c-8.2,81.5-18.2,165.4-26.2,241.7c7-15.6,16.6-55.8,29.6-146.5
										c15.2-105.7,22.6-192.5,22.6-334.4v-0.3c1.4-51.4-12.6-147-12.2-142.6C-299.7-244.4-313-43.9-321.1,24z"/>
								</g>
								<path id="XMLID_155_" class="st3" d="M-305-243.9c-1.4-179.5-14.7-334.2-76.8-390.4l-13.1-7.5c0,0-19.9-6.6-40.8,91.7
									c-20.8,98.3-243.2,1496-243.2,1496s36.9,32.2,113.6,35c76.6,2.8,115.5-16.1,115.5-16.1L-329.5,93
									C-316.2-28.8-304.4-151.8-305-243.9z"/>
								<g id="XMLID_152_">
									<path id="XMLID_154_" class="st5" d="M147-45.3c0,0-86.8,206.5-86.8,499.8S157,960.1,157,960.1l-10-355.9l14.2-623.7
										L147-45.3z"/>
									<path id="XMLID_153_" class="st6" d="M159.3-45.3c0,0-86.8,206.5-86.8,499.8s96.8,505.5,96.8,505.5l-10-355.9l14.2-623.7
										L159.3-45.3z"/>
								</g>
								<g id="XMLID_117_">
									<path id="XMLID_151_" class="st3" d="M562.8-244.9c1.4-191.6,16.6-354.9,89.9-400.2c0,0-13.3-23.4-108.3-67.4
										c-89.6-41.5-164.7-74-194.4-90.8c-1.7-1-3.5-1.9-4.9-2.8c-25.5-15.6-102.2-60.4-102.2-60.4s36.6,66,16.1,198.6
										c0,0-65.8,219.3-75.6,288c-9.8,68.8-44.8,433.6-53.9,488.2c-2.4,14.2-16.4,32.5-18.4,44.8c-4.2,26.2-7.5,48.5-8.7,57
										c-2.4,27.8-15,66.1-17.5,122.3c-10.7,242.7,43.2,572,43.2,572l26.2,89.8c17,44.6,22.9,91.9,109,115.5
										c86.1,23.6,389.9-56.7,389.9-56.7s-24.8-433.3-31.7-609.8C614.3,273.4,561.2-53.3,562.8-244.9z"/>
									<path id="XMLID_150_" class="st12" d="M646.5-652.8c0,0-47.4,16.3-62.6,98.2"/>
									<path id="XMLID_149_" class="st12" d="M643.7-656.2c0,0-47.4,16.3-62.6,98.2"/>
									<path id="XMLID_148_" class="st12" d="M580-555.2"/>
									<path id="XMLID_147_" class="st12" d="M642.6-653.4"/>
									<polygon id="XMLID_146_" class="st5" points="514,-224.8 514,-236.7 239.6,-228.7 239.6,-217.1 									"/>
									<polygon id="XMLID_145_" class="st6" points="514,-220.3 514,-232.2 239.6,-224.1 239.6,-212.4 									"/>
									<polygon id="XMLID_144_" class="st3" points="513.1,-226.9 513.1,-159.5 242.8,-153.8 242.8,-219 									"/>
									<line id="XMLID_143_" class="st13" x1="242.8" y1="-216.2" x2="513.1" y2="-224.1"/>
									<g id="XMLID_142_">
										<g>
											<line class="st14" x1="376.8" y1="-50.9" x2="376.8" y2="-50"/>
											<line class="st15" x1="376.8" y1="-46.5" x2="376.8" y2="442.6"/>
											<line class="st14" x1="376.8" y1="444.4" x2="376.8" y2="445.2"/>
										</g>
									</g>
									<g id="XMLID_126_">
										<circle id="XMLID_141_" class="st5" cx="140" cy="275.8" r="27.6"/>
										<circle id="XMLID_140_" class="st16" cx="140.6" cy="274.8" r="26.6"/>
										<polygon id="XMLID_139_" class="st17" points="174.7,273.7 140.9,267.1 103.3,273.7 141.3,280.4 										"/>
										<circle id="XMLID_138_" class="st18" cx="140" cy="271.1" r="26.6"/>
										<circle id="XMLID_137_" class="st19" cx="140" cy="271.1" r="22.9"/>
										<circle id="XMLID_136_" class="st20" cx="135.7" cy="265" r="3.3"/>
										<circle id="XMLID_135_" class="st20" cx="143.7" cy="281.6" r="3.3"/>
										<line id="XMLID_134_" class="st21" x1="134.4" y1="265" x2="142.3" y2="281.4"/>
										<line id="XMLID_133_" class="st21" x1="136.5" y1="264.1" x2="144.6" y2="280.6"/>
										<line id="XMLID_132_" class="st21" x1="134.4" y1="265" x2="142.3" y2="281.4"/>
										<line id="XMLID_131_" class="st21" x1="136.5" y1="264.1" x2="144.6" y2="280.6"/>
										<circle id="XMLID_130_" class="st20" cx="131.5" cy="277.2" r="3.3"/>
										<circle id="XMLID_129_" class="st20" cx="147.9" cy="269.2" r="3.3"/>
										<line id="XMLID_128_" class="st21" x1="131.5" y1="278.6" x2="147.9" y2="270.6"/>
										<line id="XMLID_127_" class="st21" x1="130.6" y1="276.4" x2="147" y2="268.5"/>
									</g>
									<g id="XMLID_118_">
										<path id="XMLID_125_" class="st5" d="M338.5,462.2l-5.8,81.5c-2.8,46.5,19.2,61.1,42.3,61.1h252.7l-0.9-21.3L338.5,462.2z
											"/>
										<path id="XMLID_124_" class="st6" d="M338.5,459.4l-2.6,67c-2.8,46.5,12.9,72.8,39.7,72.8h252l-0.9-21.3L338.5,459.4z"/>
										<path id="XMLID_123_" class="st3" d="M338.5,479.9v-23.4h283.8l7,137.7H381.2c-32.9,0-42.7-38.7-42.7-71.7l0,0
											L338.5,479.9L338.5,479.9z"/>
										<path id="XMLID_122_" class="st12" d="M627.6,589.3H387.1c-29,0-42.7-34.6-42.7-48.5l-1.4-83.1"/>
										<line id="XMLID_121_" class="st12" x1="626.7" y1="585.9" x2="385.7" y2="585.4"/>
										<g id="XMLID_120_">
											<g>
												<line class="st14" x1="622.3" y1="462.6" x2="621.4" y2="462.6"/>
												<line class="st22" x1="618.1" y1="462.6" x2="343.4" y2="462.6"/>
												<line class="st14" x1="341.6" y1="462.6" x2="340.8" y2="462.6"/>
											</g>
										</g>
										<path id="XMLID_119_" class="st12" d="M346.7,463.8l1.9,78.9c0.2,8,3.7,18.2,8,24.8c3.5,5.2,9.4,13.1,19.1,15.9"/>
									</g>
								</g>
								<g id="XMLID_114_">
									<path id="XMLID_116_" class="st5" d="M562.7,101c-27.8-189.9-15.7-342.1,3.1-461.6c-3.7,23.6-5.6,65.1-6.1,71.4
										c-3.1,40.2-6.6,81.9-5.4,121.8c0.9,84.3,6.8,180.6,22,286.5c12.9,90.6,22.6,130.9,29.6,146.5c1.4,12.8,2.6,25.4,3.8,37.8
										C592.4,302.3,580.5,223.2,562.7,101z"/>
									<path id="XMLID_115_" class="st6" d="M579.8,24C588,105.6,598,189.4,606,265.7c-7-15.6-16.6-55.8-29.6-146.5
										c-15.2-105.7-22.6-192.5-22.6-334.4v-0.3c-1.4-51.4,12.6-147,12.2-142.6C558.6-244.4,571.7-43.9,579.8,24z"/>
								</g>
								<path id="XMLID_113_" class="st3" d="M694.8-552.4c-20.8-98.3-40.6-91.7-40.6-91.7l0,0c-73.3,45.5-88.5,208.6-89.9,400.2
									c-0.7,89.2,10.5,207.7,23.3,326l121.4,880.4c0,0,38.8,18.9,115.5,16.1c76.6-2.8,113.6-35,113.6-35S715.6-453.9,694.8-552.4z
									"/>
							</g>
							<g id="XMLID_92_">
								<g id="XMLID_104_">
									<g id="XMLID_107_">
										<path id="XMLID_111_" class="st5" d="M-184.2-593.2c0,0-15.6,11.4-9.1,28.5c6.5,17.1,227,576.4,265.5,652.9
											c13.3,26.2,29.4,60.4,44.6,94c11.9,25.7,20.5-31.3,20.5-31.3L125,96.7l-262.8-656.6L-184.2-593.2z"/>
										<path id="XMLID_110_" class="st6" d="M-180.5-593.2c0,0-16.3,4.5-9.8,21.9C-183.9-554.1,37.3,12,75.8,88.4
											c12.4,24.5,27.1,56,41.6,87.3c7.5,16.4,19.6-41.8,19.6-41.8l-8.4-37.1l-262.8-656.6L-180.5-593.2z"/>
										<polygon id="XMLID_109_" class="st5" points="-87.1,-782.2 -137.7,-596.7 -137.7,-589.7 -127.5,-569.4 -45.3,-535.6 
											-24.6,-535.1 -83.4,-739.6 										"/>
										<polygon id="XMLID_108_" class="st6" points="-87.1,-782.2 -133.1,-595.4 -133.1,-588.4 -117,-547.7 -47,-512.5 
											-11.3,-535.1 -70.3,-739.6 										"/>
									</g>
									<path id="XMLID_106_" class="st3" d="M20.7-865.6c0,0-84.9,31-101.8,70.2c-17,39.2-47.4,203.5-47.4,203.5l86.4,39.2
										c0,0-129.5-50.7-142.1-40.6c-7.9,6.3-1.4,25.5,19.1,67.2c14.9,30.3,160.3,437,224.9,567.5c24.5,49.5,44.4,93.6,60.5,131.1
										c6.1,14.2,33.1-28.9,31.8-35.5c-2.8-15.4-6.1-15.4-9.6-36.4C116.9-51.6,77-433.9,54.7-554.7
										C29.3-692.2,7.1-761.7,7.1-802.5C7.1-843.2,20.7-865.6,20.7-865.6z"/>
									<line id="XMLID_105_" class="st23" x1="33.1" y1="-661.4" x2="-42.1" y2="-552.7"/>
								</g>
								<g id="XMLID_101_">
									<polygon id="XMLID_103_" class="st5" points="128.1,12 99.6,122.4 108.4,144.3 130.6,49.8 									"/>
									<polygon id="XMLID_102_" class="st6" points="131.8,22.1 103.3,132.4 112.2,154.4 134.3,59.9 									"/>
								</g>
								<g id="XMLID_96_">
									<path id="XMLID_100_" class="st5" d="M444-593.2c0,0,15.6,11.4,9.1,28.5c-6.5,17.1-227,576.4-265.5,652.9
										S88.8,303.5,88.8,303.5l46-206.8l262.8-656.6L444-593.2z"/>
									<path id="XMLID_99_" class="st6" d="M440.3-593.2c0,0,16.3,4.5,9.8,21.9C443.7-554.1,222.5,12,184,88.4S87.4,301,87.4,301
										l43.7-204.2L394-559.7L440.3-593.2z"/>
									<polygon id="XMLID_98_" class="st5" points="346.9,-782.2 397.6,-596.7 397.6,-589.7 387.3,-569.4 305.1,-535.6 
										284.4,-535.1 343.2,-739.6 									"/>
									<polygon id="XMLID_97_" class="st6" points="346.9,-782.2 392.9,-595.4 392.9,-588.4 376.8,-547.7 306.8,-512.5 
										271.1,-535.1 330.1,-739.6 									"/>
								</g>
								<path id="XMLID_95_" class="st3" d="M239.1-867.4c0,0,84.9,32.7,101.8,71.9c17,39,47.4,203.5,47.4,203.5l-86.4,39.2
									c0,0,129.5-50.7,142.1-40.6c7.9,6.3-2.3,23.8-19.1,67.2C400.4-463.1,252-76.8,192.7,56.4C122.9,213,102.4,264.3,87.2,300.7
									c0,0-3.3-17.8,20.3-145.1c23.8-127.2,72.1-572.7,97.5-710.1c25.4-137.5,47.6-207,47.6-247.8S239.1-867.4,239.1-867.4z"/>
								<path id="XMLID_94_" class="st17" d="M388-554.3l-12.8,4.4c-3.7,1-7.2,2.4-10.5,4.2l-12.2,5.8c-1,0.7-0.3,2.3,0.7,1.9
									l12.4-4.2c3.7-1,7.2-2.4,10.5-4.2l12.8-5.9C389.9-552.9,389.2-554.7,388-554.3z"/>
								<line id="XMLID_93_" class="st13" x1="227.5" y1="-656" x2="301.9" y2="-552.7"/>
							</g>
							<g id="XMLID_3_">
								<g id="XMLID_78_">
									<path id="XMLID_91_" class="st17" d="M916,865.2l-19.2,1.6l-18.5,5.6c-1.2,0.3-0.9,2.1,0.3,2.1l19.2-1.6l18.5-5.6
										C917.5,867,917.2,865.2,916,865.2z"/>
									<circle id="XMLID_90_" class="st5" cx="903.5" cy="869.6" r="14.3"/>
									<circle id="XMLID_89_" class="st16" cx="903.7" cy="869.1" r="13.8"/>
									<circle id="XMLID_88_" class="st24" cx="903.5" cy="867.1" r="13.8"/>
									<circle id="XMLID_87_" class="st19" cx="903.5" cy="867.1" r="11.9"/>
									<circle id="XMLID_86_" class="st20" cx="901.3" cy="864" r="1.7"/>
									<circle id="XMLID_85_" class="st20" cx="905.5" cy="872.6" r="1.7"/>
									<line id="XMLID_84_" class="st25" x1="900.6" y1="864" x2="904.8" y2="872.6"/>
									<line id="XMLID_83_" class="st25" x1="901.8" y1="863.5" x2="906" y2="872"/>
									<circle id="XMLID_82_" class="st20" cx="899" cy="870.5" r="1.7"/>
									<circle id="XMLID_81_" class="st20" cx="907.7" cy="866.3" r="1.7"/>
									<line id="XMLID_80_" class="st25" x1="899" y1="871" x2="907.6" y2="867"/>
									<line id="XMLID_79_" class="st25" x1="898.6" y1="869.9" x2="907.2" y2="865.7"/>
								</g>
								<g id="XMLID_64_">
									<path id="XMLID_77_" class="st17" d="M909.8,834.1l-19.2,1.6l-18.5,5.6c-1.2,0.3-0.9,2.1,0.3,2.1l19.2-1.6l18.5-5.6
										C911.4,835.8,911.1,834.1,909.8,834.1z"/>
									<circle id="XMLID_76_" class="st5" cx="897.4" cy="838.4" r="14.3"/>
									<circle id="XMLID_75_" class="st16" cx="897.6" cy="837.9" r="13.8"/>
									<circle id="XMLID_74_" class="st24" cx="897.4" cy="836" r="13.8"/>
									<circle id="XMLID_73_" class="st19" cx="897.4" cy="836" r="11.9"/>
									<circle id="XMLID_72_" class="st20" cx="895.1" cy="832.8" r="1.7"/>
									<circle id="XMLID_71_" class="st20" cx="899.3" cy="841.4" r="1.7"/>
									<line id="XMLID_70_" class="st25" x1="894.4" y1="832.8" x2="898.6" y2="841.4"/>
									<line id="XMLID_69_" class="st25" x1="895.7" y1="832.3" x2="899.9" y2="840.9"/>
									<circle id="XMLID_68_" class="st20" cx="892.9" cy="839.1" r="1.7"/>
									<circle id="XMLID_67_" class="st20" cx="901.6" cy="834.9" r="1.7"/>
									<line id="XMLID_66_" class="st25" x1="892.9" y1="839.8" x2="901.4" y2="835.6"/>
									<line id="XMLID_65_" class="st25" x1="892.5" y1="838.8" x2="901.1" y2="834.6"/>
								</g>
								<g id="XMLID_50_">
									<path id="XMLID_63_" class="st17" d="M920.7,896.5l-19.2,1.6l-18.5,5.6c-1.2,0.3-0.9,2.1,0.3,2.1l19.2-1.6l18.5-5.6
										C922.3,898.1,921.9,896.4,920.7,896.5z"/>
									<circle id="XMLID_62_" class="st5" cx="908.3" cy="900.7" r="14.3"/>
									<circle id="XMLID_61_" class="st16" cx="908.6" cy="900.2" r="13.8"/>
									<circle id="XMLID_60_" class="st24" cx="908.3" cy="898.3" r="13.8"/>
									<circle id="XMLID_59_" class="st19" cx="908.3" cy="898.3" r="11.9"/>
									<circle id="XMLID_58_" class="st20" cx="906" cy="895.1" r="1.7"/>
									<circle id="XMLID_57_" class="st20" cx="910.2" cy="903.7" r="1.7"/>
									<line id="XMLID_56_" class="st25" x1="905.3" y1="895.1" x2="909.5" y2="903.7"/>
									<line id="XMLID_55_" class="st25" x1="906.5" y1="894.8" x2="910.7" y2="903.4"/>
									<circle id="XMLID_54_" class="st20" cx="903.7" cy="901.6" r="1.7"/>
									<circle id="XMLID_53_" class="st20" cx="912.5" cy="897.4" r="1.7"/>
									<line id="XMLID_52_" class="st25" x1="903.7" y1="902.3" x2="912.3" y2="898.1"/>
									<line id="XMLID_51_" class="st25" x1="903.4" y1="901.1" x2="911.9" y2="896.9"/>
								</g>
								<g id="XMLID_48_">
									<path id="XMLID_49_" class="st17" d="M928.2,919.3l-13.5,1.7c-3.8,0.3-7.5,1-11.2,2.1l-13.1,3.3c-1.2,0.3-0.9,2.1,0.3,2.1
										l12.9-1.7c3.8-0.3,7.5-1,11-2.1l13.6-3.3C929.8,920.9,929.4,919.3,928.2,919.3z"/>
								</g>
								<g id="XMLID_34_">
									<path id="XMLID_47_" class="st17" d="M-646.5,865.2l19.2,1.6l18.5,5.6c1.2,0.3,0.9,2.1-0.4,2.1l-19.2-1.6l-18.5-5.6
										C-648.1,867-647.8,865.2-646.5,865.2z"/>
									<circle id="XMLID_46_" class="st5" cx="-634.1" cy="869.6" r="14.3"/>
									<circle id="XMLID_45_" class="st16" cx="-634.3" cy="869.1" r="13.8"/>
									<circle id="XMLID_44_" class="st24" cx="-634.1" cy="867.1" r="13.8"/>
									<circle id="XMLID_43_" class="st19" cx="-634.1" cy="867.1" r="11.9"/>
									<circle id="XMLID_42_" class="st20" cx="-631.8" cy="864" r="1.7"/>
									<circle id="XMLID_41_" class="st20" cx="-636" cy="872.6" r="1.7"/>
									<line id="XMLID_40_" class="st25" x1="-631.1" y1="864" x2="-635.3" y2="872.6"/>
									<line id="XMLID_39_" class="st25" x1="-632.2" y1="863.5" x2="-636.4" y2="872"/>
									<circle id="XMLID_38_" class="st20" cx="-629.6" cy="870.5" r="1.7"/>
									<circle id="XMLID_37_" class="st20" cx="-638.1" cy="866.3" r="1.7"/>
									<line id="XMLID_36_" class="st25" x1="-629.6" y1="871" x2="-638.1" y2="867"/>
									<line id="XMLID_35_" class="st25" x1="-629.2" y1="869.9" x2="-637.8" y2="865.7"/>
								</g>
								<g id="XMLID_20_">
									<path id="XMLID_33_" class="st17" d="M-640.4,834.1l19.2,1.6l18.5,5.6c1.2,0.3,0.9,2.1-0.4,2.1l-19.2-1.6l-18.5-5.6
										C-642,835.8-641.6,834.1-640.4,834.1z"/>
									<circle id="XMLID_32_" class="st5" cx="-628" cy="838.4" r="14.3"/>
									<circle id="XMLID_31_" class="st16" cx="-628.2" cy="837.9" r="13.8"/>
									<circle id="XMLID_30_" class="st24" cx="-628" cy="836" r="13.8"/>
									<circle id="XMLID_29_" class="st19" cx="-628" cy="836" r="11.9"/>
									<circle id="XMLID_28_" class="st20" cx="-625.7" cy="832.8" r="1.7"/>
									<circle id="XMLID_27_" class="st20" cx="-629.9" cy="841.4" r="1.7"/>
									<line id="XMLID_26_" class="st25" x1="-625" y1="832.8" x2="-629.2" y2="841.4"/>
									<line id="XMLID_25_" class="st25" x1="-626.1" y1="832.3" x2="-630.3" y2="840.9"/>
									<circle id="XMLID_24_" class="st20" cx="-623.4" cy="839.1" r="1.7"/>
									<circle id="XMLID_23_" class="st20" cx="-632" cy="834.9" r="1.7"/>
									<line id="XMLID_22_" class="st25" x1="-623.4" y1="839.8" x2="-632" y2="835.6"/>
									<line id="XMLID_21_" class="st25" x1="-623.1" y1="838.8" x2="-631.7" y2="834.6"/>
								</g>
								<g id="XMLID_6_">
									<path id="XMLID_19_" class="st17" d="M-651.3,896.5l19.2,1.6l18.5,5.6c1.2,0.3,0.9,2.1-0.4,2.1l-19.2-1.6l-18.5-5.6
										C-652.8,898.1-652.5,896.4-651.3,896.5z"/>
									<circle id="XMLID_18_" class="st5" cx="-638.8" cy="900.7" r="14.3"/>
									<circle id="XMLID_17_" class="st16" cx="-639" cy="900.2" r="13.8"/>
									<circle id="XMLID_16_" class="st24" cx="-638.8" cy="898.3" r="13.8"/>
									<circle id="XMLID_15_" class="st19" cx="-638.8" cy="898.3" r="11.9"/>
									<circle id="XMLID_14_" class="st20" cx="-636.6" cy="895.1" r="1.7"/>
									<circle id="XMLID_13_" class="st20" cx="-640.8" cy="903.7" r="1.7"/>
									<line id="XMLID_12_" class="st25" x1="-635.9" y1="895.1" x2="-640.1" y2="903.7"/>
									<line id="XMLID_11_" class="st25" x1="-637.1" y1="894.8" x2="-641.1" y2="903.4"/>
									<circle id="XMLID_10_" class="st20" cx="-634.3" cy="901.6" r="1.7"/>
									<circle id="XMLID_9_" class="st20" cx="-642.9" cy="897.4" r="1.7"/>
									<line id="XMLID_8_" class="st25" x1="-634.3" y1="902.3" x2="-642.9" y2="898.1"/>
									<line id="XMLID_7_" class="st25" x1="-633.9" y1="901.1" x2="-642.5" y2="896.9"/>
								</g>
								<g id="XMLID_4_">
									<path id="XMLID_5_" class="st17" d="M-658.8,919.3l13.5,1.7c3.8,0.3,7.5,1,11.2,2.1l13.1,3.3c1.2,0.3,0.9,2.1-0.3,2.1
										l-12.9-1.7c-3.8-0.3-7.5-1-11-2.1l-13.6-3.3C-660.2,920.9-660,919.3-658.8,919.3z"/>
								</g>
							</g>
						</g>
					</g>
					<g>
						<g>
							<g>
								<defs>
									<circle id="SVGID_10_" cx="364" cy="-552" r="150"/>
								</defs>
								<clipPath id="SVGID_11_">
									<use xlink:href="#SVGID_10_"  style="overflow:visible;"/>
								</clipPath>
								<g class="st29">
									<path class="st27" d="M364-697c38.7,0,75.1,15.1,102.5,42.5S509-590.7,509-552s-15.1,75.1-42.5,102.5S402.7-407,364-407
										s-75.1-15.1-102.5-42.5S219-513.3,219-552s15.1-75.1,42.5-102.5S325.3-697,364-697 M364-702c-82.8,0-150,67.2-150,150
										s67.2,150,150,150s150-67.2,150-150S446.8-702,364-702L364-702z"/>
								</g>
							</g>
						</g>
					</g>
				</g>
			</g>
		</g>
	</g>
</g>
<g>
	<g>
		<circle id="SVGID_2_" class="st0" cx="150" cy="150" r="150"/>
	</g>
	<g>
		<g>
			<g>
				<defs>
					<circle id="SVGID_12_" cx="150" cy="150" r="150"/>
				</defs>
				<clipPath id="SVGID_13_">
					<use xlink:href="#SVGID_12_"  style="overflow:visible;"/>
				</clipPath>
				<g class="st30">
					<g id="XMLID_189_">
						<g id="XMLID_190_">
							<g id="XMLID_300_">
								<g id="XMLID_358_">
									<polygon id="XMLID_376_" class="st2" points="28.1,-139.5 74.3,-87.9 -84.8,742.7 -243.7,-87.9 -199.9,-139.5 									"/>
									<path id="XMLID_375_" class="st3" d="M30.3-164c0,0,0.5-2.8-114.8-2.8c-0.3,0-0.9,0-1.2,0s-0.9,0-1.2,0
										c-115.5,0-114.8,2.8-114.8,2.8l-13.8,50.2c0,0,18.7,4.7,64.4,6.6c17.7,0.7,40.6,1.2,66.7,1.2c26.2,0,46.7-0.5,64.4-1.2
										c45.5-1.9,64.4-6.6,64.4-6.6L30.3-164z"/>
									<g id="XMLID_371_">
										<path id="XMLID_374_" class="st4" d="M-181.2-165.2c0,0-11.9,13.3-11,30.4c1,17,1.7,22.7,1.7,22.7h-25.2l13.8-51.4
											L-181.2-165.2z"/>
										<path id="XMLID_373_" class="st5" d="M-176.3-165.4c-3.1,0.2-5.9,0.2-8.2,0.4c-6.6,11.2-6.8,42.9-6.6,54.6
											c3.7,0.4,7.9,0.7,12.4,1c-0.7-3.5-1.7-10.5-1.7-23.6C-180.5-148.7-177.7-160.5-176.3-165.4z"/>
										<path id="XMLID_372_" class="st6" d="M-183.7-165.2c-1.7,0-3.3,0.2-4.7,0.2c-2.8,2.3-5.6,6.3-6.3,13.5
											c-1.4,14.2-1.9,32.4-2.3,40.4c3.5,0.4,7.7,0.7,12.4,1C-186.3-122.2-190.5-154.5-183.7-165.2z"/>
									</g>
									<g id="XMLID_367_">
										<path id="XMLID_370_" class="st4" d="M8.3-165.2c0,0,11.9,13.3,11,30.4c-1,17-1.7,22.7-1.7,22.7H44l-15-51.4L8.3-165.2z"
											/>
										<path id="XMLID_369_" class="st5" d="M3.4-165.4c3.1,0.2,5.9,0.2,8.2,0.4c6.6,11.2,6.8,42.9,6.6,54.6
											c-3.7,0.4-7.9,0.7-12.4,1c0.7-3.5,1.7-10.5,1.7-23.6C7.8-148.7,5-160.5,3.4-165.4z"/>
										<path id="XMLID_368_" class="st6" d="M10.9-165.2c1.7,0,3.3,0.2,4.7,0.2c2.8,2.3,5.6,6.3,6.3,13.5
											c1.4,14.2,1.9,32.4,2.3,40.4c-3.5,0.4-7.7,0.7-12.4,1C13.5-122.2,17.6-154.5,10.9-165.2z"/>
									</g>
									<path id="XMLID_366_" class="st7" d="M30.3-164c0,0,0.5-2.8-114.8-2.8c-0.3,0-0.9,0-1.2,0s-0.9,0-1.2,0
										c-115.5,0-114.8,2.8-114.8,2.8l-13.8,50.2c0,0,18.7,4.7,64.4,6.6c17.7,0.7,40.6,1.2,66.7,1.2c26.2,0,46.7-0.5,64.4-1.2
										c45.5-1.9,64.4-6.6,64.4-6.6L30.3-164z"/>
									<g id="XMLID_363_">
										<polygon id="XMLID_365_" class="st4" points="-193.6,-7.4 -84.8,538.1 21.9,-7.4 -47.9,599.2 -88.5,772.9 -120.7,593.4 
																					"/>
										<polygon id="XMLID_364_" class="st6" points="-85.9,604.4 28.1,-29.1 -84.8,469.8 -196.3,-30.1 										"/>
									</g>
									<g id="XMLID_362_">
										<g>
											<line class="st8" x1="-85" y1="-99.2" x2="-85" y2="-98.4"/>
											<line class="st9" x1="-85" y1="-94.9" x2="-85" y2="618.2"/>
											<line class="st8" x1="-85" y1="620" x2="-85" y2="620.9"/>
										</g>
									</g>
									<path id="XMLID_361_" class="st4" d="M-144.5-86.6l4.2,4.4c0,0,29.7-2.3,55.3-2.3c25.4,0,57.4,2.3,57.4,2.3l2.8-4.4H-144.5
										z"/>
									<path id="XMLID_360_" class="st6" d="M-141.3-83.3l3,3.1c0,0,28.3-2.1,53.2-2.1S-29-80.2-29-80.2l1.7-3.1l-57.9-1.2
										L-141.3-83.3z"/>
									<path id="XMLID_359_" class="st3" d="M-84.8-105.9c-26.4,0-48.1-0.2-66-0.9l7.5,20.1h58.1h0.7h58.1l7.5-20.1
										C-36.5-106.1-58.4-105.9-84.8-105.9z"/>
								</g>
								<path id="XMLID_357_" class="st2" d="M-26.4,1719.3c0-3.1,0-116.7,0-116.7h-117.2v116.7H-26.4z"/>
								<g id="XMLID_354_">
									<polygon id="XMLID_356_" class="st4" points="-83.8,1646.1 -129.1,1747.6 -85,1585.4 -38.4,1749.4 									"/>
									<polygon id="XMLID_355_" class="st6" points="-85,1666.4 -129.1,1747.6 -85,1632.1 -38.4,1749.4 									"/>
								</g>
								<path id="XMLID_353_" class="st3" d="M-22.3,1033C-33,790.3-44.7,855.5-44.7,855.5L-81.7,732c-25-125.3-56-366.3-62.1-408.8
									c-10-68.8-75.1-288-75.1-288c-20.6-132.6,19.4-198.6,19.4-198.6s-99.7,56.9-120,70.3c-10.7,7-102.7,47.4-180.9,83.6
									c-95,43.9-108.3,67.4-108.3,67.4c73.3,45.5,88.5,208.6,89.9,400.2c1.4,191.6-51.6,518.1-58.3,688.4
									c-6.8,176.6-43,609.8-43,609.8s315.2,80.5,401.3,56.7c86.1-23.6,93.1-71.9,110.1-116.5l25.2-88.7
									C-83.9,1607.8-11.7,1275.7-22.3,1033z"/>
								<g id="XMLID_352_">
									<g>
										<line class="st8" x1="-331.7" y1="651.1" x2="-331.7" y2="652"/>
										<line class="st10" x1="-331.7" y1="655.5" x2="-331.7" y2="1144.6"/>
										<line class="st8" x1="-331.7" y1="1146.4" x2="-331.7" y2="1147.2"/>
									</g>
								</g>
								<g id="XMLID_347_">
									<path id="XMLID_351_" class="st5" d="M-293.4,1164.2l5.8,81.5c2.8,46.5-19.2,61.1-42.3,61.1h-252.5l0.9-21.3L-293.4,1164.2
										z"/>
									<path id="XMLID_350_" class="st6" d="M-293.4,1161.4l2.6,67c2.8,46.5-12.9,72.8-39.7,72.8h-252l0.9-21.3L-293.4,1161.4z"/>
									<path id="XMLID_349_" class="st3" d="M-293.4,1181.9v-23.4h-283.8l-7,137.7h248.1c32.9,0,42.7-38.7,42.7-71.7l0,0V1181.9z"
										/>
									<g id="XMLID_348_">
										<g>
											<line class="st8" x1="-295.3" y1="1172.8" x2="-296.2" y2="1172.8"/>
											<line class="st11" x1="-299.7" y1="1172.8" x2="-574.6" y2="1172.8"/>
											<line class="st8" x1="-576.4" y1="1172.8" x2="-577.2" y2="1172.8"/>
										</g>
									</g>
								</g>
								<g id="XMLID_344_">
									<path id="XMLID_346_" class="st5" d="M-517.9,803c27.8-189.9,15.7-342.1-3.1-461.6c3.7,23.6,5.6,65.1,6.1,71.4
										c3.1,40.2,6.6,81.9,5.4,121.8c-0.9,84.3-6.8,180.6-22,286.5c-12.9,90.6-22.6,130.9-29.6,146.5c-1.4,12.8-2.6,25.4-3.8,37.8
										C-547.5,1004.3-535.8,925.2-517.9,803z"/>
									<path id="XMLID_345_" class="st6" d="M-535.1,726c-8.2,81.5-18.2,165.4-26.2,241.7c7-15.6,16.6-55.8,29.6-146.5
										c15.2-105.7,22.6-192.5,22.6-334.4v-0.3c1.4-51.4-12.6-147-12.2-142.6C-513.7,457.6-527,658.1-535.1,726z"/>
								</g>
								<path id="XMLID_343_" class="st3" d="M-519,458.1c-1.4-179.5-14.7-334.2-76.8-390.4l-13.1-7.5c0,0-19.9-6.6-40.8,91.7
									c-20.8,98.3-243.2,1496-243.2,1496s36.9,32.2,113.6,35s115.5-16.1,115.5-16.1L-543.5,795
									C-530.2,673.2-518.4,550.2-519,458.1z"/>
								<g id="XMLID_340_">
									<path id="XMLID_342_" class="st5" d="M-67,656.7c0,0-86.8,206.5-86.8,499.8S-57,1662.1-57,1662.1l-10-355.9l14.2-623.7
										L-67,656.7z"/>
									<path id="XMLID_341_" class="st6" d="M-54.7,656.7c0,0-86.8,206.5-86.8,499.8s96.8,505.5,96.8,505.5l-10-355.9l14.2-623.7
										L-54.7,656.7z"/>
								</g>
								<g id="XMLID_305_">
									<path id="XMLID_339_" class="st3" d="M348.8,457.1c1.4-191.6,16.6-354.9,89.9-400.2c0,0-13.3-23.4-108.3-67.4
										C240.9-52,165.8-84.5,136-101.3c-1.7-1-3.5-1.9-4.9-2.8c-25.5-15.6-102.2-60.4-102.2-60.4S65.5-98.5,45,34.1
										c0,0-65.8,219.3-75.6,288s-44.8,433.6-53.9,488.2c-2.4,14.2-16.4,32.5-18.4,44.8c-4.2,26.2-7.5,48.5-8.7,57
										c-2.4,27.8-15,66.1-17.5,122.3c-10.7,242.7,43.2,572,43.2,572l26.2,89.8c17,44.6,22.9,91.9,109,115.5
										c86.1,23.6,389.9-56.7,389.9-56.7s-24.8-433.3-31.7-609.8C400.3,975.4,347.3,648.7,348.8,457.1z"/>
									<path id="XMLID_338_" class="st12" d="M432.5,49.2c0,0-47.4,16.3-62.6,98.2"/>
									<path id="XMLID_337_" class="st12" d="M429.7,45.8c0,0-47.4,16.3-62.6,98.2"/>
									<path id="XMLID_336_" class="st12" d="M366,146.8"/>
									<path id="XMLID_335_" class="st12" d="M428.6,48.6"/>
									<polygon id="XMLID_334_" class="st5" points="300,477.2 300,465.3 25.6,473.3 25.6,484.9 									"/>
									<polygon id="XMLID_333_" class="st6" points="300,481.7 300,469.8 25.6,477.9 25.6,489.6 									"/>
									<polygon id="XMLID_332_" class="st3" points="299.1,475.1 299.1,542.5 28.8,548.2 28.8,483 									"/>
									<line id="XMLID_331_" class="st13" x1="28.8" y1="485.8" x2="299.1" y2="477.9"/>
									<g id="XMLID_330_">
										<g>
											<line class="st14" x1="162.8" y1="651.1" x2="162.8" y2="652"/>
											<line class="st15" x1="162.8" y1="655.5" x2="162.8" y2="1144.6"/>
											<line class="st14" x1="162.8" y1="1146.4" x2="162.8" y2="1147.2"/>
										</g>
									</g>
									<g id="XMLID_314_">
										<circle id="XMLID_329_" class="st5" cx="-74" cy="977.8" r="27.6"/>
										<circle id="XMLID_328_" class="st16" cx="-73.4" cy="976.8" r="26.6"/>
										<polygon id="XMLID_327_" class="st17" points="-39.3,975.7 -73.1,969.1 -110.7,975.7 -72.7,982.4 										"/>
										<circle id="XMLID_326_" class="st18" cx="-74" cy="973.1" r="26.6"/>
										<circle id="XMLID_325_" class="st19" cx="-74" cy="973.1" r="22.9"/>
										<circle id="XMLID_324_" class="st20" cx="-78.3" cy="967" r="3.3"/>
										<circle id="XMLID_323_" class="st20" cx="-70.3" cy="983.6" r="3.3"/>
										<line id="XMLID_322_" class="st21" x1="-79.6" y1="967" x2="-71.7" y2="983.4"/>
										<line id="XMLID_321_" class="st21" x1="-77.5" y1="966.1" x2="-69.4" y2="982.6"/>
										<line id="XMLID_320_" class="st21" x1="-79.6" y1="967" x2="-71.7" y2="983.4"/>
										<line id="XMLID_319_" class="st21" x1="-77.5" y1="966.1" x2="-69.4" y2="982.6"/>
										<circle id="XMLID_318_" class="st20" cx="-82.5" cy="979.2" r="3.3"/>
										<circle id="XMLID_317_" class="st20" cx="-66.1" cy="971.2" r="3.3"/>
										<line id="XMLID_316_" class="st21" x1="-82.5" y1="980.6" x2="-66.1" y2="972.6"/>
										<line id="XMLID_315_" class="st21" x1="-83.4" y1="978.4" x2="-67" y2="970.5"/>
									</g>
									<g id="XMLID_306_">
										<path id="XMLID_313_" class="st5" d="M124.5,1164.2l-5.8,81.5c-2.8,46.5,19.2,61.1,42.3,61.1h252.7l-0.9-21.3
											L124.5,1164.2z"/>
										<path id="XMLID_312_" class="st6" d="M124.5,1161.4l-2.6,67c-2.8,46.5,12.9,72.8,39.7,72.8h252l-0.9-21.3L124.5,1161.4z"
											/>
										<path id="XMLID_311_" class="st3" d="M124.5,1181.9v-23.4h283.8l7,137.7H167.2c-32.9,0-42.7-38.7-42.7-71.7l0,0
											L124.5,1181.9L124.5,1181.9z"/>
										<path id="XMLID_310_" class="st12" d="M413.6,1291.3H173.1c-29,0-42.7-34.6-42.7-48.5l-1.4-83.1"/>
										<line id="XMLID_309_" class="st12" x1="412.7" y1="1287.9" x2="171.7" y2="1287.4"/>
										<g id="XMLID_308_">
											<g>
												<line class="st14" x1="408.3" y1="1164.6" x2="407.4" y2="1164.6"/>
												<line class="st22" x1="404.1" y1="1164.6" x2="129.4" y2="1164.6"/>
												<line class="st14" x1="127.6" y1="1164.6" x2="126.8" y2="1164.6"/>
											</g>
										</g>
										<path id="XMLID_307_" class="st12" d="M132.7,1165.8l1.9,78.9c0.2,8,3.7,18.2,8,24.8c3.5,5.2,9.4,13.1,19.1,15.9"/>
									</g>
								</g>
								<g id="XMLID_302_">
									<path id="XMLID_304_" class="st5" d="M348.7,803c-27.8-189.9-15.7-342.1,3.1-461.6c-3.7,23.6-5.6,65.1-6.1,71.4
										c-3.1,40.2-6.6,81.9-5.4,121.8c0.9,84.3,6.8,180.6,22,286.5c12.9,90.6,22.6,130.9,29.6,146.5c1.4,12.8,2.6,25.4,3.8,37.8
										C378.4,1004.3,366.5,925.2,348.7,803z"/>
									<path id="XMLID_303_" class="st6" d="M365.8,726C374,807.6,384,891.4,392,967.7c-7-15.6-16.6-55.8-29.6-146.5
										c-15.2-105.7-22.6-192.5-22.6-334.4v-0.3c-1.4-51.4,12.6-147,12.2-142.6C344.6,457.6,357.7,658.1,365.8,726z"/>
								</g>
								<path id="XMLID_301_" class="st3" d="M480.8,149.6c-20.8-98.3-40.6-91.7-40.6-91.7l0,0c-73.3,45.5-88.5,208.6-89.9,400.2
									c-0.7,89.2,10.5,207.7,23.3,326l121.4,880.4c0,0,38.8,18.9,115.5,16.1c76.6-2.8,113.6-35,113.6-35S501.6,248.1,480.8,149.6z
									"/>
							</g>
							<g id="XMLID_280_">
								<g id="XMLID_292_">
									<g id="XMLID_295_">
										<path id="XMLID_299_" class="st5" d="M-398.2,108.8c0,0-15.6,11.4-9.1,28.5s227,576.4,265.5,652.9
											c13.3,26.2,29.4,60.4,44.6,94c11.9,25.7,20.5-31.3,20.5-31.3L-89,798.7l-262.8-656.6L-398.2,108.8z"/>
										<path id="XMLID_298_" class="st6" d="M-394.5,108.8c0,0-16.3,4.5-9.8,21.9c6.5,17.1,227.7,583.2,266.2,659.7
											c12.4,24.5,27.1,56,41.6,87.3c7.5,16.4,19.6-41.8,19.6-41.8l-8.4-37.1l-262.8-656.6L-394.5,108.8z"/>
										<polygon id="XMLID_297_" class="st5" points="-301.1,-80.2 -351.7,105.3 -351.7,112.3 -341.5,132.6 -259.3,166.4 
											-238.6,166.9 -297.4,-37.6 										"/>
										<polygon id="XMLID_296_" class="st6" points="-301.1,-80.2 -347.1,106.6 -347.1,113.6 -331,154.3 -261,189.5 
											-225.3,166.9 -284.3,-37.6 										"/>
									</g>
									<path id="XMLID_294_" class="st3" d="M-193.3-163.6c0,0-84.9,31-101.8,70.2c-17,39.2-47.4,203.5-47.4,203.5l86.4,39.2
										c0,0-129.5-50.7-142.1-40.6c-7.9,6.3-1.4,25.5,19.1,67.2c14.9,30.3,160.3,437,224.9,567.5c24.5,49.5,44.4,93.6,60.5,131.1
										c6.1,14.2,33.1-28.9,31.8-35.5c-2.8-15.4-6.1-15.4-9.6-36.4c-25.5-152.1-65.4-534.4-87.8-655.2
										c-25.4-137.5-47.6-207-47.6-247.8S-193.3-163.6-193.3-163.6z"/>
									<line id="XMLID_293_" class="st23" x1="-180.9" y1="40.6" x2="-256.1" y2="149.3"/>
								</g>
								<g id="XMLID_289_">
									<polygon id="XMLID_291_" class="st5" points="-85.9,714 -114.4,824.4 -105.6,846.3 -83.4,751.8 									"/>
									<polygon id="XMLID_290_" class="st6" points="-82.2,724.1 -110.7,834.4 -101.8,856.4 -79.7,761.9 									"/>
								</g>
								<g id="XMLID_284_">
									<path id="XMLID_288_" class="st5" d="M230,108.8c0,0,15.6,11.4,9.1,28.5c-6.5,17.1-227,576.4-265.5,652.9
										s-98.9,215.2-98.9,215.2l46-206.8l262.8-656.6L230,108.8z"/>
									<path id="XMLID_287_" class="st6" d="M226.3,108.8c0,0,16.3,4.5,9.8,21.9C229.7,147.9,8.5,714-30,790.4
										s-96.6,212.6-96.6,212.6l43.7-204.2L180,142.3L226.3,108.8z"/>
									<polygon id="XMLID_286_" class="st5" points="132.9,-80.2 183.6,105.3 183.6,112.3 173.3,132.6 91.1,166.4 70.4,166.9 
										129.2,-37.6 									"/>
									<polygon id="XMLID_285_" class="st6" points="132.9,-80.2 178.9,106.6 178.9,113.6 162.8,154.3 92.8,189.5 57.1,166.9 
										116.1,-37.6 									"/>
								</g>
								<path id="XMLID_283_" class="st3" d="M25.1-165.4c0,0,84.9,32.7,101.8,71.9c17,39,47.4,203.5,47.4,203.5l-86.4,39.2
									c0,0,129.5-50.7,142.1-40.6c7.9,6.3-2.3,23.8-19.1,67.2C186.4,238.9,38,625.2-21.3,758.4
									c-69.8,156.6-90.3,207.9-105.5,244.3c0,0-3.3-17.8,20.3-145.1C-82.7,730.4-34.4,284.9-9,147.5C16.3,10,38.6-59.5,38.6-100.3
									S25.1-165.4,25.1-165.4z"/>
								<path id="XMLID_282_" class="st17" d="M174,147.7l-12.8,4.4c-3.7,1-7.2,2.4-10.5,4.2l-12.2,5.8c-1,0.7-0.3,2.3,0.7,1.9
									l12.4-4.2c3.7-1,7.2-2.4,10.5-4.2l12.8-5.9C175.9,149.1,175.2,147.3,174,147.7z"/>
								<line id="XMLID_281_" class="st13" x1="13.5" y1="46" x2="87.9" y2="149.3"/>
							</g>
							<g id="XMLID_191_">
								<g id="XMLID_266_">
									<path id="XMLID_279_" class="st17" d="M702,1567.2l-19.2,1.6l-18.5,5.6c-1.2,0.3-0.9,2.1,0.3,2.1l19.2-1.6l18.5-5.6
										C703.5,1569,703.2,1567.2,702,1567.2z"/>
									<circle id="XMLID_278_" class="st5" cx="689.5" cy="1571.6" r="14.3"/>
									<circle id="XMLID_277_" class="st16" cx="689.7" cy="1571.1" r="13.8"/>
									<circle id="XMLID_276_" class="st24" cx="689.5" cy="1569.1" r="13.8"/>
									<circle id="XMLID_275_" class="st19" cx="689.5" cy="1569.1" r="11.9"/>
									<circle id="XMLID_274_" class="st20" cx="687.3" cy="1566" r="1.7"/>
									<circle id="XMLID_273_" class="st20" cx="691.5" cy="1574.6" r="1.7"/>
									<line id="XMLID_272_" class="st25" x1="686.6" y1="1566" x2="690.8" y2="1574.6"/>
									<line id="XMLID_271_" class="st25" x1="687.8" y1="1565.5" x2="692" y2="1574"/>
									<circle id="XMLID_270_" class="st20" cx="685" cy="1572.5" r="1.7"/>
									<circle id="XMLID_269_" class="st20" cx="693.7" cy="1568.3" r="1.7"/>
									<line id="XMLID_268_" class="st25" x1="685" y1="1573" x2="693.6" y2="1569"/>
									<line id="XMLID_267_" class="st25" x1="684.6" y1="1571.9" x2="693.2" y2="1567.7"/>
								</g>
								<g id="XMLID_252_">
									<path id="XMLID_265_" class="st17" d="M695.8,1536.1l-19.2,1.6l-18.5,5.6c-1.2,0.3-0.9,2.1,0.3,2.1l19.2-1.6l18.5-5.6
										C697.4,1537.8,697.1,1536.1,695.8,1536.1z"/>
									<circle id="XMLID_264_" class="st5" cx="683.4" cy="1540.4" r="14.3"/>
									<circle id="XMLID_263_" class="st16" cx="683.6" cy="1539.9" r="13.8"/>
									<circle id="XMLID_262_" class="st24" cx="683.4" cy="1538" r="13.8"/>
									<circle id="XMLID_261_" class="st19" cx="683.4" cy="1538" r="11.9"/>
									<circle id="XMLID_260_" class="st20" cx="681.1" cy="1534.8" r="1.7"/>
									<circle id="XMLID_259_" class="st20" cx="685.3" cy="1543.4" r="1.7"/>
									<line id="XMLID_258_" class="st25" x1="680.4" y1="1534.8" x2="684.6" y2="1543.4"/>
									<line id="XMLID_257_" class="st25" x1="681.7" y1="1534.3" x2="685.9" y2="1542.9"/>
									<circle id="XMLID_256_" class="st20" cx="678.9" cy="1541.1" r="1.7"/>
									<circle id="XMLID_255_" class="st20" cx="687.6" cy="1536.9" r="1.7"/>
									<line id="XMLID_254_" class="st25" x1="678.9" y1="1541.8" x2="687.4" y2="1537.6"/>
									<line id="XMLID_253_" class="st25" x1="678.5" y1="1540.8" x2="687.1" y2="1536.6"/>
								</g>
								<g id="XMLID_238_">
									<path id="XMLID_251_" class="st17" d="M706.7,1598.5l-19.2,1.6l-18.5,5.6c-1.2,0.3-0.9,2.1,0.3,2.1l19.2-1.6l18.5-5.6
										C708.3,1600.1,707.9,1598.4,706.7,1598.5z"/>
									<circle id="XMLID_250_" class="st5" cx="694.3" cy="1602.7" r="14.3"/>
									<circle id="XMLID_249_" class="st16" cx="694.6" cy="1602.2" r="13.8"/>
									<circle id="XMLID_248_" class="st24" cx="694.3" cy="1600.3" r="13.8"/>
									<circle id="XMLID_247_" class="st19" cx="694.3" cy="1600.3" r="11.9"/>
									<circle id="XMLID_246_" class="st20" cx="692" cy="1597.1" r="1.7"/>
									<circle id="XMLID_245_" class="st20" cx="696.2" cy="1605.7" r="1.7"/>
									<line id="XMLID_244_" class="st25" x1="691.3" y1="1597.1" x2="695.5" y2="1605.7"/>
									<line id="XMLID_243_" class="st25" x1="692.5" y1="1596.8" x2="696.7" y2="1605.4"/>
									<circle id="XMLID_242_" class="st20" cx="689.7" cy="1603.6" r="1.7"/>
									<circle id="XMLID_241_" class="st20" cx="698.5" cy="1599.4" r="1.7"/>
									<line id="XMLID_240_" class="st25" x1="689.7" y1="1604.3" x2="698.3" y2="1600.1"/>
									<line id="XMLID_239_" class="st25" x1="689.4" y1="1603.1" x2="697.9" y2="1598.9"/>
								</g>
								<g id="XMLID_236_">
									<path id="XMLID_237_" class="st17" d="M714.2,1621.3l-13.5,1.7c-3.8,0.3-7.5,1-11.2,2.1l-13.1,3.3
										c-1.2,0.3-0.9,2.1,0.3,2.1l12.9-1.8c3.8-0.3,7.5-1,11-2.1l13.6-3.3C715.8,1622.9,715.4,1621.3,714.2,1621.3z"/>
								</g>
								<g id="XMLID_222_">
									<path id="XMLID_235_" class="st17" d="M-860.5,1567.2l19.2,1.6l18.5,5.6c1.2,0.3,0.9,2.1-0.4,2.1l-19.2-1.6l-18.5-5.6
										C-862.1,1569-861.8,1567.2-860.5,1567.2z"/>
									<circle id="XMLID_234_" class="st5" cx="-848.1" cy="1571.6" r="14.3"/>
									<circle id="XMLID_233_" class="st16" cx="-848.3" cy="1571.1" r="13.8"/>
									<circle id="XMLID_232_" class="st24" cx="-848.1" cy="1569.1" r="13.8"/>
									<circle id="XMLID_231_" class="st19" cx="-848.1" cy="1569.1" r="11.9"/>
									<circle id="XMLID_230_" class="st20" cx="-845.8" cy="1566" r="1.7"/>
									<circle id="XMLID_229_" class="st20" cx="-850" cy="1574.6" r="1.7"/>
									<line id="XMLID_228_" class="st25" x1="-845.1" y1="1566" x2="-849.3" y2="1574.6"/>
									<line id="XMLID_227_" class="st25" x1="-846.2" y1="1565.5" x2="-850.4" y2="1574"/>
									<circle id="XMLID_226_" class="st20" cx="-843.6" cy="1572.5" r="1.7"/>
									<circle id="XMLID_225_" class="st20" cx="-852.1" cy="1568.3" r="1.7"/>
									<line id="XMLID_224_" class="st25" x1="-843.6" y1="1573" x2="-852.1" y2="1569"/>
									<line id="XMLID_223_" class="st25" x1="-843.2" y1="1571.9" x2="-851.8" y2="1567.7"/>
								</g>
								<g id="XMLID_208_">
									<path id="XMLID_221_" class="st17" d="M-854.4,1536.1l19.2,1.6l18.5,5.6c1.2,0.3,0.9,2.1-0.4,2.1l-19.2-1.6l-18.5-5.6
										C-856,1537.8-855.6,1536.1-854.4,1536.1z"/>
									<circle id="XMLID_220_" class="st5" cx="-842" cy="1540.4" r="14.3"/>
									<circle id="XMLID_219_" class="st16" cx="-842.2" cy="1539.9" r="13.8"/>
									<circle id="XMLID_218_" class="st24" cx="-842" cy="1538" r="13.8"/>
									<circle id="XMLID_217_" class="st19" cx="-842" cy="1538" r="11.9"/>
									<circle id="XMLID_216_" class="st20" cx="-839.7" cy="1534.8" r="1.7"/>
									<circle id="XMLID_215_" class="st20" cx="-843.9" cy="1543.4" r="1.7"/>
									<line id="XMLID_214_" class="st25" x1="-839" y1="1534.8" x2="-843.2" y2="1543.4"/>
									<line id="XMLID_213_" class="st25" x1="-840.1" y1="1534.3" x2="-844.3" y2="1542.9"/>
									<circle id="XMLID_212_" class="st20" cx="-837.4" cy="1541.1" r="1.7"/>
									<circle id="XMLID_211_" class="st20" cx="-846" cy="1536.9" r="1.7"/>
									<line id="XMLID_210_" class="st25" x1="-837.4" y1="1541.8" x2="-846" y2="1537.6"/>
									<line id="XMLID_209_" class="st25" x1="-837.1" y1="1540.8" x2="-845.7" y2="1536.6"/>
								</g>
								<g id="XMLID_194_">
									<path id="XMLID_207_" class="st17" d="M-865.3,1598.5l19.2,1.6l18.5,5.6c1.2,0.3,0.9,2.1-0.4,2.1l-19.2-1.6l-18.5-5.6
										C-866.8,1600.1-866.5,1598.4-865.3,1598.5z"/>
									<circle id="XMLID_206_" class="st5" cx="-852.8" cy="1602.7" r="14.3"/>
									<circle id="XMLID_205_" class="st16" cx="-853" cy="1602.2" r="13.8"/>
									<circle id="XMLID_204_" class="st24" cx="-852.8" cy="1600.3" r="13.8"/>
									<circle id="XMLID_203_" class="st19" cx="-852.8" cy="1600.3" r="11.9"/>
									<circle id="XMLID_202_" class="st20" cx="-850.6" cy="1597.1" r="1.7"/>
									<circle id="XMLID_201_" class="st20" cx="-854.8" cy="1605.7" r="1.7"/>
									<line id="XMLID_200_" class="st25" x1="-849.9" y1="1597.1" x2="-854.1" y2="1605.7"/>
									<line id="XMLID_199_" class="st25" x1="-851.1" y1="1596.8" x2="-855.1" y2="1605.4"/>
									<circle id="XMLID_198_" class="st20" cx="-848.3" cy="1603.6" r="1.7"/>
									<circle id="XMLID_197_" class="st20" cx="-856.9" cy="1599.4" r="1.7"/>
									<line id="XMLID_196_" class="st25" x1="-848.3" y1="1604.3" x2="-856.9" y2="1600.1"/>
									<line id="XMLID_195_" class="st25" x1="-847.9" y1="1603.1" x2="-856.5" y2="1598.9"/>
								</g>
								<g id="XMLID_192_">
									<path id="XMLID_193_" class="st17" d="M-872.8,1621.3l13.5,1.7c3.8,0.3,7.5,1,11.2,2.1l13.1,3.3c1.2,0.3,0.9,2.1-0.3,2.1
										l-12.9-1.8c-3.8-0.3-7.5-1-11-2.1l-13.6-3.3C-874.2,1622.9-874,1621.3-872.8,1621.3z"/>
								</g>
							</g>
						</g>
					</g>
					<g>
						<g>
							<g>
								<defs>
									<circle id="SVGID_14_" cx="150" cy="150" r="150"/>
								</defs>
								<clipPath id="SVGID_15_">
									<use xlink:href="#SVGID_14_"  style="overflow:visible;"/>
								</clipPath>
								<g class="st31">
									<path class="st27" d="M150,5c38.7,0,75.1,15.1,102.5,42.5S295,111.3,295,150s-15.1,75.1-42.5,102.5S188.7,295,150,295
										s-75.1-15.1-102.5-42.5S5,188.7,5,150S20.1,74.9,47.5,47.5S111.3,5,150,5 M150,0C67.2,0,0,67.2,0,150s67.2,150,150,150
										s150-67.2,150-150S232.8,0,150,0L150,0z"/>
								</g>
							</g>
						</g>
					</g>
				</g>
			</g>
		</g>
	</g>
</g>
</svg>
