<?xml version="1.0" encoding="utf-8"?>
<!-- Generator: Adobe Illustrator 19.0.0, SVG Export Plug-In . SVG Version: 6.00 Build 0)  -->
<svg version="1.1" id="Layer_1" xmlns="http://www.w3.org/2000/svg" xmlns:xlink="http://www.w3.org/1999/xlink" x="0px" y="0px"
	 viewBox="0 0 300 300" style="enable-background:new 0 0 300 300;" xml:space="preserve">
<style type="text/css">
	.st0{clip-path:url(#SVGID_2_);}
	.st1{clip-path:url(#XMLID_3_);}
	.st2{fill:#F1F1F2;stroke:#404041;stroke-miterlimit:10;}
	.st3{fill:#FFFFFF;stroke:#404041;stroke-miterlimit:10;}
	.st4{fill:#929497;}
	.st5{fill:#F1F1F2;}
	.st6{fill:#C5C7C9;}
	.st7{fill:none;stroke:#404041;stroke-miterlimit:10;}
	.st8{fill:none;stroke:#808184;stroke-width:0.5;stroke-miterlimit:10;}
	.st9{fill:none;stroke:#808184;stroke-width:0.5;stroke-miterlimit:10;stroke-dasharray:0.9993,1.9985;}
	.st10{fill:none;stroke:#808184;stroke-width:0.5;stroke-miterlimit:10;stroke-dasharray:1,2;}
	.st11{fill:#404041;stroke:#D0D2D3;stroke-width:0.5;stroke-miterlimit:10;}
	.st12{fill:none;stroke:#808184;stroke-width:0.5;stroke-miterlimit:10;stroke-dasharray:0.9943,1.9886;}
	.st13{fill:none;stroke:#808184;stroke-width:0.5;stroke-miterlimit:10;stroke-dasharray:1.0166,2.0331;}
	.st14{fill:none;stroke:#808184;stroke-width:0.5;stroke-miterlimit:10;stroke-dasharray:1.0177,2.0353;}
	.st15{fill:#DBDCDD;}
	.st16{fill:#FFFFFF;stroke:#6D6E70;stroke-miterlimit:10;}
	.st17{fill:#FFFFFF;stroke:#929497;stroke-width:0.25;stroke-miterlimit:10;}
	.st18{fill:#404041;}
	.st19{fill:none;stroke:#6D6E70;stroke-width:0.5;stroke-miterlimit:10;}
	.st20{fill:#FFFFFF;stroke:#6D6E70;stroke-width:0.5;stroke-miterlimit:10;}
	.st21{fill:none;stroke:#6D6E70;stroke-width:0.25;stroke-miterlimit:10;}
	.st22{fill:#9AA0BB;}
</style>
<g>
	<defs>
		<circle id="SVGID_1_" cx="150.1" cy="149.6" r="150"/>
	</defs>
	<use xlink:href="#SVGID_1_"  style="overflow:visible;fill:#DDDDDD;"/>
	<clipPath id="SVGID_2_">
		<use xlink:href="#SVGID_1_"  style="overflow:visible;"/>
	</clipPath>
	<g id="XMLID_254_" class="st0">
		<defs>
			<rect id="XMLID_4044_" x="-13.5" width="327.1" height="300"/>
		</defs>
		<clipPath id="XMLID_3_">
			<use xlink:href="#XMLID_4044_"  style="overflow:visible;"/>
		</clipPath>
		<g class="st1">
			<g>
				<g>
					<g>
						<polygon class="st2" points="174.4,35.3 184.3,46.4 147.3,210.9 115.5,46.4 125,35.3 						"/>
						<path class="st3" d="M174.8,30c0,0,0.1-0.6-24.9-0.6c-0.1,0-0.2,0-0.3,0c-0.1,0-0.2,0-0.3,0c-25,0-24.9,0.6-24.9,0.6l-3,10.9
							c0,0,4.1,1,13.9,1.4c3.8,0.2,8.8,0.3,14.4,0.3c5.7,0,10.1-0.1,13.9-0.3c9.9-0.4,13.9-1.4,13.9-1.4L174.8,30z"/>
						<g>
							<path class="st4" d="M129.1,29.7c0,0-2.6,2.9-2.4,6.6c0.2,3.7,0.4,4.9,0.4,4.9h-2.7l0.3-11.1L129.1,29.7z"/>
							<path class="st5" d="M130.1,29.6c-0.7,0-1.3,0-1.8,0.1c-1.5,2.4-1.5,9.3-1.4,11.8c0.8,0.1,1.7,0.1,2.7,0.2
								c-0.2-0.7-0.4-2.3-0.4-5.1C129.2,33.2,129.8,30.7,130.1,29.6z"/>
							<path class="st6" d="M128.5,29.7c-0.4,0-0.7,0-1,0c-0.6,0.5-1.2,1.4-1.4,2.9c-0.3,3.1-0.4,7-0.5,8.8c0.8,0.1,1.7,0.2,2.7,0.2
								C127.9,39,127.1,32,128.5,29.7z"/>
						</g>
						<g>
							<path class="st4" d="M170.1,29.7c0,0,2.6,2.9,2.4,6.6c-0.2,3.7-0.4,4.9-0.4,4.9h2.7L174.6,30L170.1,29.7z"/>
							<path class="st5" d="M169,29.6c0.7,0,1.3,0,1.8,0.1c1.5,2.4,1.5,9.3,1.4,11.8c-0.8,0.1-1.7,0.1-2.7,0.2
								c0.2-0.7,0.4-2.3,0.4-5.1C169.9,33.2,169.3,30.7,169,29.6z"/>
							<path class="st6" d="M170.6,29.7c0.4,0,0.7,0,1,0c0.6,0.5,1.2,1.4,1.4,2.9c0.3,3.1,0.4,7,0.5,8.8c-0.8,0.1-1.7,0.2-2.7,0.2
								C171.2,39,172.1,32,170.6,29.7z"/>
						</g>
						<path class="st7" d="M174.8,30c0,0,0.1-0.6-24.9-0.6c-0.1,0-0.2,0-0.3,0c-0.1,0-0.2,0-0.3,0c-25,0-24.9,0.6-24.9,0.6l-3,10.9
							c0,0,4.1,1,13.9,1.4c3.8,0.2,8.8,0.3,14.4,0.3c5.7,0,10.1-0.1,13.9-0.3c9.9-0.4,13.9-1.4,13.9-1.4L174.8,30z"/>
						<g>
							<polygon class="st4" points="126.3,63.9 149.9,175.8 173,63.9 157.9,195.1 149.1,204.4 142.2,193.9 							"/>
							<polygon class="st6" points="149.7,190.3 173.6,58.9 149.9,175.2 125.8,58.9 							"/>
						</g>
						<g>
							<g>
								<line class="st8" x1="149.9" y1="44" x2="149.9" y2="44.5"/>
								<line class="st9" x1="149.9" y1="46.5" x2="149.9" y2="198.4"/>
								<line class="st8" x1="149.9" y1="199.4" x2="149.9" y2="199.9"/>
							</g>
						</g>
						<path class="st4" d="M137,46.7l0.9,0.9c0,0,6.5-0.5,12-0.5c5.5,0,12.4,0.5,12.4,0.5l0.6-0.9H137z"/>
						<path class="st6" d="M137.7,47.4l0.7,0.7c0,0,6.1-0.5,11.5-0.5c5.4,0,12.2,0.5,12.2,0.5l0.4-0.7l-12.5-0.2L137.7,47.4z"/>
						<path class="st3" d="M149.9,42.5c-5.7,0-10.4,0-14.3-0.2l1.6,4.4h12.6h0.1h12.6l1.6-4.4C160.4,42.5,155.6,42.5,149.9,42.5z"/>
					</g>
					<path class="st2" d="M162.6,437.7c0-0.7,0-25.3,0-25.3h-25.4v25.3H162.6z"/>
					<g>
						<polygon class="st4" points="150.1,421.8 140.3,443.8 149.9,408.7 159.9,444.2 						"/>
						<polygon class="st6" points="149.9,426.2 140.3,443.8 149.9,418.8 159.9,444.2 						"/>
					</g>
					<path class="st3" d="M163.5,289.1c-2.3-52.5-4.9-38.4-4.9-38.4l-4.5-37.8l-3.5-7.6c-5.4-27.1-12.1-60.6-13.4-69.8
						c-2.2-14.9-9.5-62.4-9.5-62.4c-4.5-28.7-2.5-43-2.5-43s-21.6,12.3-26,15.2c-2.3,1.5-22.2,10.3-39.2,18.1
						C39.3,72.9,36.5,78,36.5,78c15.9,9.8,19.2,45.2,19.5,86.6c0.3,41.5-11.2,112.2-12.6,149c-1.5,38.2-9.3,132-9.3,132
						s68.2,17.4,86.9,12.3c18.6-5.1,20.1-15.6,23.8-25.2l5.5-19.2C150.1,413.5,165.8,341.6,163.5,289.1z"/>
					<g>
						<path class="st5" d="M56.2,239.3c6-41.1,3.4-74.1-0.7-99.9c0.8,5.1,1.2,14.1,1.3,15.4c0.7,8.7,1.4,17.7,1.2,26.4
							c-0.2,18.2-1.5,39.1-4.8,62c-2.8,19.6-4.9,28.3-6.4,31.7c-0.3,2.8-0.6,5.5-0.8,8.2C49.7,282.9,52.3,265.7,56.2,239.3z"/>
						<path class="st6" d="M52.5,222.6c-1.8,17.7-3.9,35.8-5.7,52.3c1.5-3.4,3.6-12.1,6.4-31.7c3.3-22.9,4.9-41.7,4.9-72.4l0-0.1
							c0.3-11.1-2.7-31.8-2.7-30.9C57.1,164.5,54.2,207.9,52.5,222.6z"/>
					</g>
					<path class="st3" d="M55.9,164.6c-0.3-38.9-3.2-72.4-16.6-84.5l-2.8-1.6c0,0-4.3-1.4-8.8,19.9C23.1,119.7-25,422.2-25,422.2
						s8,7,24.6,7.6s25-3.5,25-3.5l26.1-188.7C53.5,211.2,56.1,184.5,55.9,164.6z"/>
					<g>
						<path class="st5" d="M149.8,198c0,0-18.8,44.7-18.8,108.2s21,109.4,21,109.4l-2.2-77.1l3.1-135L149.8,198z"/>
						<path class="st6" d="M152.4,198c0,0-18.8,44.7-18.8,108.2s21,109.4,21,109.4l-2.2-77.1l3.1-135L152.4,198z"/>
					</g>
					<g>
						<path class="st3" d="M244.1,164.6c0.3-41.5,3.6-76.8,19.5-86.6c0,0-2.9-5.1-23.5-14.6c-19.4-9-35.7-16-42.1-19.7
							c-0.4-0.2-0.8-0.4-1.1-0.6c-5.5-3.4-22.1-13.1-22.1-13.1s1.1,14.3-3.4,43c0,0-7.4,47.5-9.5,62.4
							c-2.2,14.9-18.4,93.7-20.4,105.5c-0.5,3.1-1,6-1.4,8.6c-0.9,5.7-1.6,10.9-1.9,12.7c-0.5,6-1.1,14.6-1.6,26.8
							c-2.3,52.5,13.3,124.4,13.3,124.4l5.7,19.4c3.7,9.7,4.9,19.9,23.6,25c18.6,5.1,84.4-12.3,84.4-12.3s-5.4-93.8-6.9-132
							C255.3,276.8,243.8,206.1,244.1,164.6z"/>
					</g>
					<g>
						<path class="st5" d="M243.8,239.3c-6-41.1-3.4-74.1,0.7-99.9c-0.8,5.1-1.2,14.1-1.3,15.4c-0.7,8.7-1.4,17.7-1.2,26.4
							c0.2,18.2,1.5,39.1,4.8,62c2.8,19.6,4.9,28.3,6.4,31.7c0.3,2.8,0.6,5.5,0.8,8.2C250.2,282.9,247.6,265.7,243.8,239.3z"/>
						<path class="st6" d="M247.5,222.6c1.8,17.7,3.9,35.8,5.7,52.3c-1.5-3.4-3.6-12.1-6.4-31.7c-3.3-22.9-4.9-41.7-4.9-72.4l0-0.1
							c-0.3-11.1,2.7-31.8,2.7-30.9C242.9,164.5,245.7,207.9,247.5,222.6z"/>
					</g>
					<path class="st3" d="M272.4,97.8c-4.5-21.3-8.8-19.9-8.8-19.9l0,0c-15.9,9.8-19.2,45.2-19.5,86.6c-0.1,19.3,2.3,45,5,70.6
						l26.3,190.6c0,0,8.4,4.1,25,3.5c16.6-0.6,24.6-7.6,24.6-7.6S276.9,119.2,272.4,97.8z"/>
				</g>
			</g>
			<g>
				<polygon class="st5" points="233.2,168.7 233.2,166.2 173.8,167.9 173.8,170.4 				"/>
				<polygon class="st6" points="233.2,169.7 233.2,167.2 173.8,168.9 173.8,171.4 				"/>
				<path class="st3" d="M233,168.3v13.7c0,0.5-0.4,0.9-0.9,0.9l-56.8,1.2c-0.5,0-0.9-0.4-0.9-0.9V170L233,168.3z"/>
				<line class="st10" x1="174.5" y1="170.6" x2="233" y2="168.9"/>
			</g>
			<g>
				<g>
					<polygon class="st5" points="147,229.2 138.2,208.6 90.9,88.4 92.7,83.3 146.8,214.8 149.9,223.9 					"/>
					<polygon class="st6" points="148.9,231 148,228.7 91.5,86.3 92.7,83.3 148.5,212 150.9,220.7 					"/>
					<polygon class="st5" points="105.8,77.2 94.4,71 95.4,66.1 104.8,64.1 112.8,75.8 108.2,79 					"/>
					<polygon class="st6" points="107.8,76.2 94.9,69 95.8,64.4 105.7,62.1 113.7,74.5 109.1,78 					"/>
				</g>
				<path class="st3" d="M109.7,75.2l-14.3-8.6l4.5-21.9c0.4-0.2,0.8-0.4,1.1-0.6c5.5-3.4,24-13.9,24-13.9s-1.1,14.3,3.4,43
					c0,0,7.4,47.5,9.5,62.4c1.5,10.1,9.4,49.7,15,77.8c1.6,7.8-0.6,5.9-1.8,8.4c-0.9,1.8,0.2,11.4-3.1,3.1
					C128,173.8,92.7,83.5,92.7,83.5L109.7,75.2z"/>
				<g>
					<polygon class="st5" points="149.1,195 142.9,211.3 145.8,218.5 149.7,199.2 					"/>
					<polygon class="st6" points="149.2,199.2 144.3,215.4 146.9,220.1 150.6,202.4 					"/>
				</g>
				<g>
					<polygon class="st5" points="138.4,258.5 137.9,264.7 161.7,208.6 209,88.4 207.2,83.3 153.1,214.8 					"/>
					<polygon class="st6" points="138.1,261.2 151,231 208.4,86.3 207.2,83.3 151.4,212 					"/>
					<polygon class="st5" points="194.2,77.2 205.5,71 204.5,66.1 195.2,64.1 187.2,75.8 191.8,79 					"/>
					<polygon class="st6" points="192.1,76.2 205.1,69 204.1,64.4 194.2,62.1 186.2,74.5 190.8,78 					"/>
				</g>
				<path class="st3" d="M190,75.2l14.3-8.6l-4.5-21.9c-0.4-0.2-0.8-0.4-1.1-0.6c-5.5-3.4-24-13.9-24-13.9s1.1,14.3-3.4,43
					c0,0-7.4,47.5-9.5,62.4s-18.4,93.7-20.4,105.5c-0.5,3.1-1,6-1.4,8.6c-0.9,5.7-1.3,7.7-1.6,9.6c0,0.3,68.5-175.7,68.5-175.7
					L190,75.2z"/>
				<path class="st11" d="M199.6,86.1l-2.7-1.2c-0.7-0.4-1.5-0.6-2.3-0.8l-2.8-0.8c-0.3-0.1-0.4,0.3-0.2,0.4l2.6,1.1
					c0.7,0.4,1.5,0.6,2.3,0.8l2.9,0.9C199.7,86.6,199.8,86.3,199.6,86.1z"/>
			</g>
			<g>
				<g>
					<g>
						<g>
							<line class="st8" x1="203.4" y1="206.4" x2="203.4" y2="206.9"/>
							<line class="st12" x1="203.4" y1="208.9" x2="203.4" y2="312.3"/>
							<line class="st8" x1="203.4" y1="313.3" x2="203.4" y2="313.8"/>
						</g>
					</g>
					<g>
						<path class="st5" d="M195.1,317.5l-1.3,17.7c-0.6,10.1,4.2,13.2,9.2,13.2h54.7l-0.2-4.6L195.1,317.5z"/>
						<path class="st6" d="M195.1,316.9l-0.6,14.5c-0.6,10.1,2.8,15.7,8.6,15.7h54.6l-0.2-4.6L195.1,316.9z"/>
						<path class="st3" d="M195.1,321.3v-5.1h61.5l1.5,29.8h-53.7c-7.1,0-9.2-8.4-9.2-15.5v0V321.3z"/>
						<g>
							<g>
								<line class="st8" x1="195.6" y1="319.3" x2="196.1" y2="319.3"/>
								<line class="st13" x1="198.1" y1="319.3" x2="255" y2="319.3"/>
								<line class="st8" x1="256" y1="319.3" x2="256.5" y2="319.3"/>
							</g>
						</g>
					</g>
				</g>
				<g>
					<g>
						<g>
							<line class="st8" x1="96.3" y1="206.4" x2="96.3" y2="206.9"/>
							<line class="st12" x1="96.3" y1="208.9" x2="96.3" y2="312.3"/>
							<line class="st8" x1="96.3" y1="313.3" x2="96.3" y2="313.8"/>
						</g>
					</g>
					<g>
						<path class="st5" d="M104.6,317.5l1.3,17.7c0.6,10.1-4.2,13.2-9.2,13.2H42l0.2-4.6L104.6,317.5z"/>
						<path class="st6" d="M104.6,316.9l0.6,14.5c0.6,10.1-2.8,15.7-8.6,15.7H42l0.2-4.6L104.6,316.9z"/>
						<path class="st3" d="M104.6,321.3v-5.1H43.2l-1.5,29.8h53.7c7.1,0,9.2-8.4,9.2-15.5v0V321.3z"/>
						<g>
							<g>
								<line class="st8" x1="104.2" y1="319.3" x2="103.7" y2="319.3"/>
								<line class="st14" x1="101.7" y1="319.3" x2="44.7" y2="319.3"/>
								<line class="st8" x1="43.7" y1="319.3" x2="43.2" y2="319.3"/>
							</g>
						</g>
					</g>
				</g>
			</g>
			<g>
				<g id="XMLID_9641_">
					<circle id="XMLID_9656_" class="st5" cx="152.3" cy="268.2" r="6"/>
					<circle id="XMLID_9655_" class="st15" cx="152.4" cy="267.9" r="5.8"/>
					<polygon id="XMLID_9654_" class="st11" points="159.8,267.7 152.5,266.3 144.3,267.7 152.5,269.1 					"/>
					<circle id="XMLID_9653_" class="st16" cx="152.3" cy="267.1" r="5.8"/>
					<circle id="XMLID_9652_" class="st17" cx="152.3" cy="267.1" r="5"/>
					<circle id="XMLID_9651_" class="st18" cx="151.3" cy="265.8" r="0.7"/>
					<circle id="XMLID_9650_" class="st18" cx="153.1" cy="269.4" r="0.7"/>
					<line id="XMLID_9649_" class="st19" x1="151" y1="265.8" x2="152.8" y2="269.4"/>
					<line id="XMLID_9648_" class="st19" x1="151.5" y1="265.6" x2="153.2" y2="269.2"/>
					<line id="XMLID_9647_" class="st19" x1="151" y1="265.8" x2="152.8" y2="269.4"/>
					<line id="XMLID_9646_" class="st19" x1="151.5" y1="265.6" x2="153.2" y2="269.2"/>
					<circle id="XMLID_9645_" class="st18" cx="150.4" cy="268.5" r="0.7"/>
					<circle id="XMLID_9644_" class="st18" cx="154" cy="266.7" r="0.7"/>
					<line id="XMLID_9643_" class="st19" x1="150.4" y1="268.8" x2="154" y2="267"/>
					<line id="XMLID_9642_" class="st19" x1="150.2" y1="268.3" x2="153.8" y2="266.6"/>
				</g>
				<g id="XMLID_9625_">
					<circle id="XMLID_9640_" class="st5" cx="152.3" cy="333.8" r="6"/>
					<circle id="XMLID_9639_" class="st15" cx="152.4" cy="333.5" r="5.8"/>
					<polygon id="XMLID_9638_" class="st11" points="159.8,333.3 152.5,331.9 144.3,333.3 152.5,334.7 					"/>
					<circle id="XMLID_9637_" class="st16" cx="152.3" cy="332.7" r="5.8"/>
					<circle id="XMLID_9636_" class="st17" cx="152.3" cy="332.7" r="5"/>
					<circle id="XMLID_9635_" class="st18" cx="151.3" cy="331.4" r="0.7"/>
					<circle id="XMLID_9634_" class="st18" cx="153.1" cy="335" r="0.7"/>
					<line id="XMLID_9633_" class="st19" x1="151" y1="331.4" x2="152.8" y2="335"/>
					<line id="XMLID_9632_" class="st19" x1="151.5" y1="331.2" x2="153.2" y2="334.8"/>
					<line id="XMLID_9631_" class="st19" x1="151" y1="331.4" x2="152.8" y2="335"/>
					<line id="XMLID_9630_" class="st19" x1="151.5" y1="331.2" x2="153.2" y2="334.8"/>
					<circle id="XMLID_9629_" class="st18" cx="150.4" cy="334.1" r="0.7"/>
					<circle id="XMLID_9628_" class="st18" cx="154" cy="332.3" r="0.7"/>
					<line id="XMLID_9627_" class="st19" x1="150.4" y1="334.4" x2="154" y2="332.6"/>
					<line id="XMLID_9626_" class="st19" x1="150.2" y1="333.9" x2="153.8" y2="332.2"/>
				</g>
			</g>
			<g>
				<g>
					<g id="XMLID_15130_">
						<path class="st11" d="M318.8,402.3l-4.2,0.3l-4,1.2c-0.3,0.1-0.2,0.5,0.1,0.4l4.2-0.3l4-1.2
							C319.2,402.7,319.1,402.3,318.8,402.3z"/>
						<circle id="XMLID_15142_" class="st5" cx="316.1" cy="403.2" r="3.1"/>
						<circle id="XMLID_15141_" class="st15" cx="316.2" cy="403.1" r="3"/>
						<circle id="XMLID_15140_" class="st20" cx="316.1" cy="402.7" r="3"/>
						<circle id="XMLID_15139_" class="st17" cx="316.1" cy="402.7" r="2.6"/>
						<circle id="XMLID_15138_" class="st18" cx="315.6" cy="402" r="0.4"/>
						<circle id="XMLID_15137_" class="st18" cx="316.5" cy="403.9" r="0.4"/>
						<line id="XMLID_15136_" class="st21" x1="315.5" y1="402" x2="316.4" y2="403.9"/>
						<line id="XMLID_15135_" class="st21" x1="315.7" y1="401.9" x2="316.6" y2="403.8"/>
						<circle id="XMLID_15134_" class="st18" cx="315.1" cy="403.4" r="0.4"/>
						<circle id="XMLID_15133_" class="st18" cx="317" cy="402.5" r="0.4"/>
						<line id="XMLID_15132_" class="st21" x1="315.1" y1="403.6" x2="317" y2="402.7"/>
						<line id="XMLID_15131_" class="st21" x1="315" y1="403.3" x2="316.9" y2="402.4"/>
					</g>
					<g id="XMLID_15117_">
						<path class="st11" d="M317.5,395.4l-4.2,0.3l-4,1.2c-0.3,0.1-0.2,0.5,0.1,0.4l4.2-0.3l4-1.2
							C317.9,395.8,317.8,395.4,317.5,395.4z"/>
						<circle id="XMLID_15129_" class="st5" cx="314.8" cy="396.4" r="3.1"/>
						<circle id="XMLID_15128_" class="st15" cx="314.9" cy="396.2" r="3"/>
						<circle id="XMLID_15127_" class="st20" cx="314.8" cy="395.8" r="3"/>
						<circle id="XMLID_15126_" class="st17" cx="314.8" cy="395.8" r="2.6"/>
						<circle id="XMLID_15125_" class="st18" cx="314.3" cy="395.1" r="0.4"/>
						<circle id="XMLID_15124_" class="st18" cx="315.3" cy="397" r="0.4"/>
						<line id="XMLID_15123_" class="st21" x1="314.2" y1="395.1" x2="315.1" y2="397"/>
						<line id="XMLID_15122_" class="st21" x1="314.4" y1="395" x2="315.3" y2="396.9"/>
						<circle id="XMLID_15121_" class="st18" cx="313.9" cy="396.5" r="0.4"/>
						<circle id="XMLID_15120_" class="st18" cx="315.7" cy="395.6" r="0.4"/>
						<line id="XMLID_15119_" class="st21" x1="313.9" y1="396.7" x2="315.7" y2="395.8"/>
						<line id="XMLID_15118_" class="st21" x1="313.8" y1="396.4" x2="315.6" y2="395.5"/>
					</g>
					<g id="XMLID_15104_">
						<path class="st11" d="M320.1,409.2l-4.2,0.3l-4,1.2c-0.3,0.1-0.2,0.5,0.1,0.4l4.2-0.3l4-1.2
							C320.4,409.6,320.4,409.2,320.1,409.2z"/>
						<circle id="XMLID_15116_" class="st5" cx="317.4" cy="410.1" r="3.1"/>
						<circle id="XMLID_15115_" class="st15" cx="317.4" cy="410" r="3"/>
						<circle id="XMLID_15114_" class="st20" cx="317.4" cy="409.6" r="3"/>
						<circle id="XMLID_15113_" class="st17" cx="317.4" cy="409.6" r="2.6"/>
						<circle id="XMLID_15112_" class="st18" cx="316.9" cy="408.9" r="0.4"/>
						<circle id="XMLID_15111_" class="st18" cx="317.8" cy="410.8" r="0.4"/>
						<line id="XMLID_15110_" class="st21" x1="316.8" y1="408.9" x2="317.7" y2="410.8"/>
						<line id="XMLID_15109_" class="st21" x1="317" y1="408.8" x2="317.9" y2="410.7"/>
						<circle id="XMLID_15108_" class="st18" cx="316.4" cy="410.3" r="0.4"/>
						<circle id="XMLID_15107_" class="st18" cx="318.3" cy="409.4" r="0.4"/>
						<line id="XMLID_15106_" class="st21" x1="316.4" y1="410.4" x2="318.3" y2="409.5"/>
						<line id="XMLID_15105_" class="st21" x1="316.3" y1="410.2" x2="318.2" y2="409.3"/>
					</g>
					<g id="XMLID_15091_">
						<path class="st11" d="M321.4,416.1l-4.2,0.3l-4,1.2c-0.3,0.1-0.2,0.5,0.1,0.4l4.2-0.3l4-1.2
							C321.7,416.4,321.6,416.1,321.4,416.1z"/>
						<circle id="XMLID_15103_" class="st5" cx="318.7" cy="417" r="3.1"/>
						<circle id="XMLID_15102_" class="st15" cx="318.7" cy="416.9" r="3"/>
						<circle id="XMLID_15101_" class="st20" cx="318.7" cy="416.5" r="3"/>
						<circle id="XMLID_15100_" class="st17" cx="318.7" cy="416.5" r="2.6"/>
						<circle id="XMLID_15099_" class="st18" cx="318.2" cy="415.8" r="0.4"/>
						<circle id="XMLID_15098_" class="st18" cx="319.1" cy="417.7" r="0.4"/>
						<line id="XMLID_15097_" class="st21" x1="318" y1="415.8" x2="318.9" y2="417.6"/>
						<line id="XMLID_15096_" class="st21" x1="318.3" y1="415.7" x2="319.2" y2="417.5"/>
						<circle id="XMLID_15095_" class="st18" cx="317.7" cy="417.2" r="0.4"/>
						<circle id="XMLID_15094_" class="st18" cx="319.6" cy="416.3" r="0.4"/>
						<line id="XMLID_15093_" class="st21" x1="317.7" y1="417.3" x2="319.6" y2="416.4"/>
						<line id="XMLID_15092_" class="st21" x1="317.6" y1="417.1" x2="319.5" y2="416.2"/>
					</g>
				</g>
				<g>
					<g id="XMLID_15078_">
						<path class="st11" d="M-18.2,402.3l4.2,0.3l4,1.2c0.3,0.1,0.2,0.5-0.1,0.4l-4.2-0.3l-4-1.2C-18.5,402.7-18.5,402.3-18.2,402.3
							z"/>
						<circle id="XMLID_15090_" class="st5" cx="-15.5" cy="403.2" r="3.1"/>
						<circle id="XMLID_15089_" class="st15" cx="-15.6" cy="403.1" r="3"/>
						<circle id="XMLID_15088_" class="st20" cx="-15.5" cy="402.7" r="3"/>
						<circle id="XMLID_15087_" class="st17" cx="-15.5" cy="402.7" r="2.6"/>
						<circle id="XMLID_15086_" class="st18" cx="-15" cy="402" r="0.4"/>
						<circle id="XMLID_15085_" class="st18" cx="-15.9" cy="403.9" r="0.4"/>
						<line id="XMLID_15084_" class="st21" x1="-14.9" y1="402" x2="-15.8" y2="403.9"/>
						<line id="XMLID_15083_" class="st21" x1="-15.1" y1="401.9" x2="-16" y2="403.8"/>
						<circle id="XMLID_15082_" class="st18" cx="-14.5" cy="403.4" r="0.4"/>
						<circle id="XMLID_15081_" class="st18" cx="-16.4" cy="402.5" r="0.4"/>
						<line id="XMLID_15080_" class="st21" x1="-14.5" y1="403.6" x2="-16.4" y2="402.7"/>
						<line id="XMLID_15079_" class="st21" x1="-14.4" y1="403.3" x2="-16.3" y2="402.4"/>
					</g>
					<g id="XMLID_15065_">
						<path class="st11" d="M-16.9,395.4l4.2,0.3l4,1.2c0.3,0.1,0.2,0.5-0.1,0.4l-4.2-0.3l-4-1.2C-17.3,395.8-17.2,395.4-16.9,395.4
							z"/>
						<circle id="XMLID_15077_" class="st5" cx="-14.2" cy="396.4" r="3.1"/>
						<circle id="XMLID_15076_" class="st15" cx="-14.3" cy="396.2" r="3"/>
						<circle id="XMLID_15075_" class="st20" cx="-14.2" cy="395.8" r="3"/>
						<circle id="XMLID_15074_" class="st17" cx="-14.2" cy="395.8" r="2.6"/>
						<circle id="XMLID_15073_" class="st18" cx="-13.7" cy="395.1" r="0.4"/>
						<circle id="XMLID_15072_" class="st18" cx="-14.6" cy="397" r="0.4"/>
						<line id="XMLID_15071_" class="st21" x1="-13.6" y1="395.1" x2="-14.5" y2="397"/>
						<line id="XMLID_15070_" class="st21" x1="-13.8" y1="395" x2="-14.7" y2="396.9"/>
						<circle id="XMLID_15069_" class="st18" cx="-13.3" cy="396.5" r="0.4"/>
						<circle id="XMLID_15068_" class="st18" cx="-15.1" cy="395.6" r="0.4"/>
						<line id="XMLID_15067_" class="st21" x1="-13.3" y1="396.7" x2="-15.1" y2="395.8"/>
						<line id="XMLID_15066_" class="st21" x1="-13.2" y1="396.4" x2="-15" y2="395.5"/>
					</g>
					<g id="XMLID_15052_">
						<path class="st11" d="M-19.5,409.2l4.2,0.3l4,1.2c0.3,0.1,0.2,0.5-0.1,0.4l-4.2-0.3l-4-1.2C-19.8,409.6-19.8,409.2-19.5,409.2
							z"/>
						<circle id="XMLID_15064_" class="st5" cx="-16.8" cy="410.1" r="3.1"/>
						<circle id="XMLID_15063_" class="st15" cx="-16.8" cy="410" r="3"/>
						<circle id="XMLID_15062_" class="st20" cx="-16.8" cy="409.6" r="3"/>
						<circle id="XMLID_15061_" class="st17" cx="-16.8" cy="409.6" r="2.6"/>
						<circle id="XMLID_15060_" class="st18" cx="-16.3" cy="408.9" r="0.4"/>
						<circle id="XMLID_15059_" class="st18" cx="-17.2" cy="410.8" r="0.4"/>
						<line id="XMLID_15058_" class="st21" x1="-16.2" y1="408.9" x2="-17.1" y2="410.8"/>
						<line id="XMLID_15057_" class="st21" x1="-16.4" y1="408.8" x2="-17.3" y2="410.7"/>
						<circle id="XMLID_15056_" class="st18" cx="-15.8" cy="410.3" r="0.4"/>
						<circle id="XMLID_15055_" class="st18" cx="-17.7" cy="409.4" r="0.4"/>
						<line id="XMLID_15054_" class="st21" x1="-15.8" y1="410.4" x2="-17.7" y2="409.5"/>
						<line id="XMLID_15053_" class="st21" x1="-15.7" y1="410.2" x2="-17.6" y2="409.3"/>
					</g>
					<g id="XMLID_15039_">
						<path class="st11" d="M-20.8,416.1l4.2,0.3l4,1.2c0.3,0.1,0.2,0.5-0.1,0.4l-4.2-0.3l-4-1.2C-21.1,416.4-21,416.1-20.8,416.1z"
							/>
						<circle id="XMLID_15051_" class="st5" cx="-18.1" cy="417" r="3.1"/>
						<circle id="XMLID_15050_" class="st15" cx="-18.1" cy="416.9" r="3"/>
						<circle id="XMLID_15049_" class="st20" cx="-18.1" cy="416.5" r="3"/>
						<circle id="XMLID_15048_" class="st17" cx="-18.1" cy="416.5" r="2.6"/>
						<circle id="XMLID_15047_" class="st18" cx="-17.6" cy="415.8" r="0.4"/>
						<circle id="XMLID_15046_" class="st18" cx="-18.5" cy="417.7" r="0.4"/>
						<line id="XMLID_15045_" class="st21" x1="-17.4" y1="415.8" x2="-18.3" y2="417.6"/>
						<line id="XMLID_15044_" class="st21" x1="-17.7" y1="415.7" x2="-18.6" y2="417.5"/>
						<circle id="XMLID_15043_" class="st18" cx="-17.1" cy="417.2" r="0.4"/>
						<circle id="XMLID_15042_" class="st18" cx="-19" cy="416.3" r="0.4"/>
						<line id="XMLID_15041_" class="st21" x1="-17.1" y1="417.3" x2="-19" y2="416.4"/>
						<line id="XMLID_15040_" class="st21" x1="-17" y1="417.1" x2="-18.9" y2="416.2"/>
					</g>
				</g>
			</g>
		</g>
	</g>
	<g id="XMLID_1_" class="st0">
		<defs>
			<rect id="XMLID_4932_" x="-13.5" width="327.1" height="300"/>
		</defs>
		<clipPath id="XMLID_4_">
			<use xlink:href="#XMLID_4932_"  style="overflow:visible;"/>
		</clipPath>
	</g>
	<g class="st0">
		<path class="st22" d="M150.1,4.6c38.7,0,75.1,15.1,102.5,42.5c27.4,27.4,42.5,63.8,42.5,102.5s-15.1,75.1-42.5,102.5
			c-27.4,27.4-63.8,42.5-102.5,42.5S75,279.5,47.6,252.1C20.2,224.7,5.1,188.3,5.1,149.6S20.2,74.5,47.6,47.1
			C75,19.7,111.4,4.6,150.1,4.6 M150.1-0.4c-82.8,0-150,67.2-150,150s67.2,150,150,150s150-67.2,150-150S232.9-0.4,150.1-0.4
			L150.1-0.4z"/>
	</g>
</g>
</svg>
