<?xml version="1.0" encoding="utf-8"?>
<!-- Generator: Adobe Illustrator 19.0.0, SVG Export Plug-In . SVG Version: 6.00 Build 0)  -->
<svg version="1.1" id="Layer_1" xmlns="http://www.w3.org/2000/svg" xmlns:xlink="http://www.w3.org/1999/xlink" x="0px" y="0px"
	 viewBox="0 0 300 300" style="enable-background:new 0 0 300 300;" xml:space="preserve">
<style type="text/css">
	.st0{clip-path:url(#SVGID_2_);}
	.st1{clip-path:url(#XMLID_3_);}
	.st2{fill:#F1F1F2;stroke:#404041;stroke-miterlimit:10;}
	.st3{fill:#FFFFFF;stroke:#404041;stroke-miterlimit:10;}
	.st4{fill:#929497;}
	.st5{fill:#F1F1F2;}
	.st6{fill:#C5C7C9;}
	.st7{fill:none;stroke:#404041;stroke-miterlimit:10;}
	.st8{fill:none;stroke:#808184;stroke-width:0.5;stroke-miterlimit:10;}
	.st9{fill:none;stroke:#808184;stroke-width:0.5;stroke-miterlimit:10;stroke-dasharray:0.9993,1.9985;}
	.st10{fill:none;stroke:#808184;stroke-width:0.5;stroke-miterlimit:10;stroke-dasharray:1,2;}
	.st11{fill:#404041;stroke:#D0D2D3;stroke-width:0.5;stroke-miterlimit:10;}
	.st12{fill:none;stroke:#808184;stroke-width:0.5;stroke-miterlimit:10;stroke-dasharray:0.9943,1.9886;}
	.st13{fill:none;stroke:#808184;stroke-width:0.5;stroke-miterlimit:10;stroke-dasharray:1.0166,2.0331;}
	.st14{fill:none;stroke:#808184;stroke-width:0.5;stroke-miterlimit:10;stroke-dasharray:1.0177,2.0353;}
	.st15{fill:#DBDCDD;}
	.st16{fill:#FFFFFF;stroke:#6D6E70;stroke-miterlimit:10;}
	.st17{fill:#FFFFFF;stroke:#929497;stroke-width:0.25;stroke-miterlimit:10;}
	.st18{fill:#404041;}
	.st19{fill:none;stroke:#6D6E70;stroke-width:0.5;stroke-miterlimit:10;}
	.st20{fill:#FFFFFF;stroke:#6D6E70;stroke-width:0.5;stroke-miterlimit:10;}
	.st21{fill:none;stroke:#6D6E70;stroke-width:0.25;stroke-miterlimit:10;}
	.st22{fill:#9AA0BB;}
</style>
<g>
	<defs>
		<circle id="SVGID_1_" cx="150.1" cy="149.6" r="150"/>
	</defs>
	<use xlink:href="#SVGID_1_"  style="overflow:visible;fill:#DDDDDD;"/>
	<clipPath id="SVGID_2_">
		<use xlink:href="#SVGID_1_"  style="overflow:visible;"/>
	</clipPath>
	<g id="XMLID_254_" class="st0">
		<defs>
			<rect id="XMLID_4044_" x="-13.5" width="327.1" height="300"/>
		</defs>
		<clipPath id="XMLID_3_">
			<use xlink:href="#XMLID_4044_"  style="overflow:visible;"/>
		</clipPath>
		<g class="st1">
			<g>
				<g>
					<g>
						<polygon class="st2" points="174.4,35.3 184.3,46.4 147.3,210.9 115.5,46.4 125,35.3 						"/>
						<path class="st3" d="M174.8,30c0,0,0.1-0.6-24.9-0.6c-0.1,0-0.2,0-0.3,0c-0.1,0-0.2,0-0.3,0c-25,0-24.9,0.6-24.9,0.6l-3,10.9
							c0,0,4.1,1,13.9,1.4c3.8,0.2,8.8,0.3,14.4,0.3c5.7,0,10.1-0.1,13.9-0.3c9.9-0.4,13.9-1.4,13.9-1.4L174.8,30z"/>
						<g>
							<path class="st4" d="M129.1,29.7c0,0-2.6,2.9-2.4,6.6c0.2,3.7,0.4,4.9,0.4,4.9h-2.7l0.3-11.1L129.1,29.7z"/>
							<path class="st5" d="M130.1,29.6c-0.7,0-1.3,0-1.8,0.1c-1.5,2.4-1.5,9.3-1.4,11.8c0.8,0.1,1.7,0.1,2.7,0.2
								c-0.2-0.7-0.4-2.3-0.4-5.1C129.2,33.2,129.8,30.7,130.1,29.6z"/>
							<path class="st6" d="M128.5,29.7c-0.4,0-0.7,0-1,0c-0.6,0.5-1.2,1.4-1.4,2.9c-0.3,3.1-0.4,7-0.5,8.8c0.8,0.1,1.7,0.2,2.7,0.2
								C127.9,39,127.1,32,128.5,29.7z"/>
						</g>
						<g>
							<path class="st4" d="M170.1,29.7c0,0,2.6,2.9,2.4,6.6c-0.2,3.7-0.4,4.9-0.4,4.9h2.7L174.6,30L170.1,29.7z"/>
							<path class="st5" d="M169,29.6c0.7,0,1.3,0,1.8,0.1c1.5,2.4,1.5,9.3,1.4,11.8c-0.8,0.1-1.7,0.1-2.7,0.2
								c0.2-0.7,0.4-2.3,0.4-5.1C169.9,33.2,169.3,30.7,169,29.6z"/>
							<path class="st6" d="M170.6,29.7c0.4,0,0.7,0,1,0c0.6,0.5,1.2,1.4,1.4,2.9c0.3,3.1,0.4,7,0.5,8.8c-0.8,0.1-1.7,0.2-2.7,0.2
								C171.2,39,172.1,32,170.6,29.7z"/>
						</g>
						<path class="st7" d="M174.8,30c0,0,0.1-0.6-24.9-0.6c-0.1,0-0.2,0-0.3,0c-0.1,0-0.2,0-0.3,0c-25,0-24.9,0.6-24.9,0.6l-3,10.9
							c0,0,4.1,1,13.9,1.4c3.8,0.2,8.8,0.3,14.4,0.3c5.7,0,10.1-0.1,13.9-0.3c9.9-0.4,13.9-1.4,13.9-1.4L174.8,30z"/>
						<g>
							<polygon class="st4" points="126.3,63.9 149.9,175.8 173,63.9 157.9,195.1 149.1,204.4 142.2,193.9 							"/>
							<polygon class="st6" points="149.7,190.3 173.6,58.9 149.9,175.2 125.8,58.9 							"/>
						</g>
						<g>
							<g>
								<line class="st8" x1="149.9" y1="44" x2="149.9" y2="44.5"/>
								<line class="st9" x1="149.9" y1="46.5" x2="149.9" y2="198.4"/>
								<line class="st8" x1="149.9" y1="199.4" x2="149.9" y2="199.9"/>
							</g>
						</g>
						<path class="st4" d="M137,46.7l0.9,0.9c0,0,6.5-0.5,12-0.5c5.5,0,12.4,0.5,12.4,0.5l0.6-0.9H137z"/>
						<path class="st6" d="M137.7,47.4l0.7,0.7c0,0,6.1-0.5,11.5-0.5c5.4,0,12.2,0.5,12.2,0.5l0.4-0.7l-12.5-0.2L137.7,47.4z"/>
						<path class="st3" d="M149.9,42.5c-5.7,0-10.4,0-14.3-0.2l1.6,4.4h12.6h0.1h12.6l1.6-4.4C160.4,42.5,155.6,42.5,149.9,42.5z"/>
					</g>
					<path class="st2" d="M162.6,437.7c0-0.7,0-25.3,0-25.3h-25.4v25.3H162.6z"/>
					<g>
						<polygon class="st4" points="150.1,421.8 140.3,443.8 149.9,408.7 159.9,444.2 						"/>
						<polygon class="st6" points="149.9,426.2 140.3,443.8 149.9,418.8 159.9,444.2 						"/>
					</g>
					<path class="st3" d="M163.5,289.1c-2.3-52.5-4.9-38.4-4.9-38.4l-4.5-37.8l-3.5-7.6c-5.4-27.1-12.1-60.6-13.4-69.8
						c-2.2-14.9-9.5-62.4-9.5-62.4c-4.5-28.7-2.5-43-2.5-43s-21.6,12.3-26,15.2c-2.3,1.5-22.2,10.3-39.2,18.1
						C39.3,72.9,36.5,78,36.5,78c15.9,9.8,19.2,45.2,19.5,86.6c0.3,41.5-11.2,112.2-12.6,149c-1.5,38.2-9.3,132-9.3,132
						s68.2,17.4,86.9,12.3c18.6-5.1,20.1-15.6,23.8-25.2l5.5-19.2C150.1,413.5,165.8,341.6,163.5,289.1z"/>
					<g>
						<path class="st5" d="M56.2,239.3c6-41.1,3.4-74.1-0.7-99.9c0.8,5.1,1.2,14.1,1.3,15.4c0.7,8.7,1.4,17.7,1.2,26.4
							c-0.2,18.2-1.5,39.1-4.8,62c-2.8,19.6-4.9,28.3-6.4,31.7c-0.3,2.8-0.6,5.5-0.8,8.2C49.7,282.9,52.3,265.7,56.2,239.3z"/>
						<path class="st6" d="M52.5,222.6c-1.8,17.7-3.9,35.8-5.7,52.3c1.5-3.4,3.6-12.1,6.4-31.7c3.3-22.9,4.9-41.7,4.9-72.4l0-0.1
							c0.3-11.1-2.7-31.8-2.7-30.9C57.1,164.5,54.2,207.9,52.5,222.6z"/>
					</g>
					<path class="st3" d="M55.9,164.6c-0.3-38.9-3.2-72.4-16.6-84.5l-2.8-1.6c0,0-4.3-1.4-8.8,19.9C23.1,119.7-25,422.2-25,422.2
						s8,7,24.6,7.6s25-3.5,25-3.5l26.1-188.7C53.5,211.2,56.1,184.5,55.9,164.6z"/>
					<g>
						<path class="st5" d="M149.8,196.9c0,0-18.8,44.7-18.8,108.2s21,109.4,21,109.4l-2.2-77.1l3.1-135L149.8,196.9z"/>
						<path class="st6" d="M152.4,196.9c0,0-18.8,44.7-18.8,108.2s21,109.4,21,109.4l-2.2-77.1l3.1-135L152.4,196.9z"/>
					</g>
					<g>
						<path class="st3" d="M244.1,164.6c0.3-41.5,3.6-76.8,19.5-86.6c0,0-2.9-5.1-23.5-14.6c-19.4-9-35.7-16-42.1-19.7
							c-0.4-0.2-0.8-0.4-1.1-0.6c-5.5-3.4-22.1-13.1-22.1-13.1s1.1,14.3-3.4,43c0,0-7.4,47.5-9.5,62.4
							c-2.2,14.9-18.4,93.7-20.4,105.5c-0.5,3.1-1,6-1.4,8.6c-0.9,5.7-1.6,10.9-1.9,12.7c-0.5,6-1.1,14.6-1.6,26.8
							c-2.3,52.5,13.3,124.4,13.3,124.4l5.7,19.4c3.7,9.7,4.9,19.9,23.6,25c18.6,5.1,84.4-12.3,84.4-12.3s-5.4-93.8-6.9-132
							C255.3,276.8,243.8,206.1,244.1,164.6z"/>
					</g>
					<g>
						<path class="st5" d="M243.8,239.3c-6-41.1-3.4-74.1,0.7-99.9c-0.8,5.1-1.2,14.1-1.3,15.4c-0.7,8.7-1.4,17.7-1.2,26.4
							c0.2,18.2,1.5,39.1,4.8,62c2.8,19.6,4.9,28.3,6.4,31.7c0.3,2.8,0.6,5.5,0.8,8.2C250.2,282.9,247.6,265.7,243.8,239.3z"/>
						<path class="st6" d="M247.5,222.6c1.8,17.7,3.9,35.8,5.7,52.3c-1.5-3.4-3.6-12.1-6.4-31.7c-3.3-22.9-4.9-41.7-4.9-72.4l0-0.1
							c-0.3-11.1,2.7-31.8,2.7-30.9C242.9,164.5,245.7,207.9,247.5,222.6z"/>
					</g>
					<path class="st3" d="M272.4,97.8c-4.5-21.3-8.8-19.9-8.8-19.9l0,0c-15.9,9.8-19.2,45.2-19.5,86.6c-0.1,19.3,2.3,45,5,70.6
						l26.3,190.6c0,0,8.4,4.1,25,3.5c16.6-0.6,24.6-7.6,24.6-7.6S276.9,119.2,272.4,97.8z"/>
				</g>
			</g>
			<g>
				<polygon class="st5" points="233.2,168.9 233.2,166.4 173.8,168.1 173.8,170.6 				"/>
				<polygon class="st6" points="233.2,169.9 233.2,167.4 173.8,169.1 173.8,171.6 				"/>
				<path class="st3" d="M233,168.5v13.7c0,0.5-0.4,0.9-0.9,0.9l-56.8,1.2c-0.5,0-0.9-0.4-0.9-0.9v-13.2L233,168.5z"/>
				<line class="st10" x1="174.5" y1="170.8" x2="233" y2="169.1"/>
			</g>
			<g>
				<g>
					<path class="st5" d="M148.9,209.7c-2.8-4.7-6.8-12-12.1-22.7C90.9,93.6,90.6,88.4,90.6,88.4l1.8-5.1l53.2,114.6l3.9,8.5
						C149.6,206.4,149.9,211.3,148.9,209.7z"/>
					<path class="st6" d="M148.6,208.4c-2.4-4.4-6.1-11.5-11.5-22.6c-18.7-38.4-45.9-99.4-45.9-99.4l1.2-3l55.3,111.2l2.6,9.1
						C150.3,203.6,150.5,211.8,148.6,208.4z"/>
					<polygon class="st5" points="105.5,77.2 94.1,71 95.1,66.1 104.5,64.1 112.5,75.8 107.8,79 					"/>
					<polygon class="st6" points="107.5,76.2 94.5,69 95.5,64.4 105.4,62.1 113.4,74.5 108.8,78 					"/>
				</g>
				<path class="st3" d="M95.3,66.5l4.5-21.9c0.4-0.2,0.8-0.4,1.1-0.6c5.5-3.4,24-13.9,24-13.9s-1.1,14.3,3.4,43
					c0,0,7.4,47.5,9.5,62.4c1.3,9,7.7,41.2,13.1,68c0.4,2-1.1,4.8-1.8,3.4C122.3,153.5,92.6,83.5,92.6,83.5l17-8.3L95.3,66.5z"/>
				<g>
					<polygon class="st6" points="149.6,197.6 147.6,203 149.1,206.9 150,199.9 					"/>
					<polygon class="st5" points="146.5,201 149.3,195.7 149.6,197.6 147.6,203 					"/>
				</g>
				<g>
					<path class="st5" d="M146.1,214.8l0,2c0,0,5.5-7.2,16.7-29.9C208.7,93.6,209,88.4,209,88.4l-1.8-5.1L154,197.9L146.1,214.8z"/>
					<path class="st6" d="M146.1,214.8c0,0-1.4,7.3,16.3-29.1c18.7-38.4,45.9-99.4,45.9-99.4l-1.2-3l-55.3,111.2L146.1,214.8z"/>
					<polygon class="st5" points="194.2,77.2 205.5,71 204.5,66.1 195.2,64.1 187.2,75.8 191.8,79 					"/>
					<polygon class="st6" points="192.1,76.2 205.1,69 204.1,64.4 194.2,62.1 186.2,74.5 190.8,78 					"/>
				</g>
				<path class="st3" d="M204.3,66.5l-4.5-21.9c-0.4-0.2-0.8-0.4-1.1-0.6c-5.5-3.4-24-13.9-24-13.9s1.1,14.3-3.4,43
					c0,0-7.4,47.5-9.5,62.4c-1.5,10.3-9.8,51.3-15.4,79.4C174.2,160.8,207,83.5,207,83.5l-17-8.3L204.3,66.5z"/>
				<path class="st11" d="M199.6,87.7l-2.7-1.2c-0.7-0.4-1.5-0.6-2.3-0.8l-2.8-0.8c-0.3-0.1-0.4,0.3-0.2,0.4l2.6,1.1
					c0.7,0.4,1.5,0.6,2.3,0.8l2.9,0.9C199.7,88.2,199.8,87.8,199.6,87.7z"/>
			</g>
			<g>
				<g>
					<g>
						<g>
							<line class="st8" x1="203.4" y1="206" x2="203.4" y2="206.5"/>
							<line class="st12" x1="203.4" y1="208.4" x2="203.4" y2="311.8"/>
							<line class="st8" x1="203.4" y1="312.8" x2="203.4" y2="313.3"/>
						</g>
					</g>
					<g>
						<path class="st5" d="M195.1,317l-1.3,17.7c-0.6,10.1,4.2,13.2,9.2,13.2h54.7l-0.2-4.6L195.1,317z"/>
						<path class="st6" d="M195.1,316.4l-0.6,14.5c-0.6,10.1,2.8,15.7,8.6,15.7h54.6l-0.2-4.6L195.1,316.4z"/>
						<path class="st3" d="M195.1,320.9v-5.1h61.5l1.5,29.8h-53.7c-7.1,0-9.2-8.4-9.2-15.5v0V320.9z"/>
						<g>
							<g>
								<line class="st8" x1="195.6" y1="318.9" x2="196.1" y2="318.9"/>
								<line class="st13" x1="198.1" y1="318.9" x2="255" y2="318.9"/>
								<line class="st8" x1="256" y1="318.9" x2="256.5" y2="318.9"/>
							</g>
						</g>
					</g>
				</g>
				<g>
					<g>
						<g>
							<line class="st8" x1="96.3" y1="206" x2="96.3" y2="206.5"/>
							<line class="st12" x1="96.3" y1="208.4" x2="96.3" y2="311.8"/>
							<line class="st8" x1="96.3" y1="312.8" x2="96.3" y2="313.3"/>
						</g>
					</g>
					<g>
						<path class="st5" d="M104.6,317l1.3,17.7c0.6,10.1-4.2,13.2-9.2,13.2H42l0.2-4.6L104.6,317z"/>
						<path class="st6" d="M104.6,316.4l0.6,14.5c0.6,10.1-2.8,15.7-8.6,15.7H42l0.2-4.6L104.6,316.4z"/>
						<path class="st3" d="M104.6,320.9v-5.1H43.2l-1.5,29.8h53.7c7.1,0,9.2-8.4,9.2-15.5v0V320.9z"/>
						<g>
							<g>
								<line class="st8" x1="104.2" y1="318.9" x2="103.7" y2="318.9"/>
								<line class="st14" x1="101.7" y1="318.9" x2="44.7" y2="318.9"/>
								<line class="st8" x1="43.7" y1="318.9" x2="43.2" y2="318.9"/>
							</g>
						</g>
					</g>
				</g>
			</g>
			<g>
				<g id="XMLID_7537_">
					<circle id="XMLID_7552_" class="st5" cx="152.3" cy="227.3" r="6"/>
					<circle id="XMLID_7551_" class="st15" cx="152.4" cy="227.1" r="5.8"/>
					<polygon id="XMLID_7550_" class="st11" points="159.8,226.9 152.5,225.4 144.3,226.9 152.5,228.3 					"/>
					<circle id="XMLID_7549_" class="st16" cx="152.3" cy="226.3" r="5.8"/>
					<circle id="XMLID_7548_" class="st17" cx="152.3" cy="226.3" r="5"/>
					<circle id="XMLID_7547_" class="st18" cx="151.3" cy="225" r="0.7"/>
					<circle id="XMLID_7546_" class="st18" cx="153.1" cy="228.6" r="0.7"/>
					<line id="XMLID_7545_" class="st19" x1="151" y1="225" x2="152.8" y2="228.5"/>
					<line id="XMLID_7544_" class="st19" x1="151.5" y1="224.8" x2="153.2" y2="228.3"/>
					<line id="XMLID_7543_" class="st19" x1="151" y1="225" x2="152.8" y2="228.5"/>
					<line id="XMLID_7542_" class="st19" x1="151.5" y1="224.8" x2="153.2" y2="228.3"/>
					<circle id="XMLID_7541_" class="st18" cx="150.4" cy="227.6" r="0.7"/>
					<circle id="XMLID_7540_" class="st18" cx="154" cy="225.9" r="0.7"/>
					<line id="XMLID_7539_" class="st19" x1="150.4" y1="227.9" x2="154" y2="226.2"/>
					<line id="XMLID_7538_" class="st19" x1="150.2" y1="227.4" x2="153.8" y2="225.7"/>
				</g>
				<g id="XMLID_7521_">
					<circle id="XMLID_7536_" class="st5" cx="152.3" cy="292.9" r="6"/>
					<circle id="XMLID_7535_" class="st15" cx="152.4" cy="292.7" r="5.8"/>
					<polygon id="XMLID_7534_" class="st11" points="159.8,292.5 152.5,291 144.3,292.5 152.5,293.9 					"/>
					<circle id="XMLID_7533_" class="st16" cx="152.3" cy="291.9" r="5.8"/>
					<circle id="XMLID_7532_" class="st17" cx="152.3" cy="291.9" r="5"/>
					<circle id="XMLID_7531_" class="st18" cx="151.3" cy="290.6" r="0.7"/>
					<circle id="XMLID_7530_" class="st18" cx="153.1" cy="294.2" r="0.7"/>
					<line id="XMLID_7529_" class="st19" x1="151" y1="290.6" x2="152.8" y2="294.1"/>
					<line id="XMLID_7528_" class="st19" x1="151.5" y1="290.4" x2="153.2" y2="294"/>
					<line id="XMLID_7527_" class="st19" x1="151" y1="290.6" x2="152.8" y2="294.1"/>
					<line id="XMLID_7526_" class="st19" x1="151.5" y1="290.4" x2="153.2" y2="294"/>
					<circle id="XMLID_7525_" class="st18" cx="150.4" cy="293.2" r="0.7"/>
					<circle id="XMLID_7524_" class="st18" cx="154" cy="291.5" r="0.7"/>
					<line id="XMLID_7523_" class="st19" x1="150.4" y1="293.5" x2="154" y2="291.8"/>
					<line id="XMLID_7522_" class="st19" x1="150.2" y1="293" x2="153.8" y2="291.3"/>
				</g>
			</g>
			<g>
				<g>
					<g id="XMLID_10228_">
						<path class="st11" d="M318.8,402.9l-4.2,0.3l-4,1.2c-0.3,0.1-0.2,0.5,0.1,0.4l4.2-0.3l4-1.2
							C319.2,403.2,319.1,402.8,318.8,402.9z"/>
						<circle id="XMLID_10240_" class="st5" cx="316.1" cy="403.8" r="3.1"/>
						<circle id="XMLID_10239_" class="st15" cx="316.2" cy="403.7" r="3"/>
						<circle id="XMLID_10238_" class="st20" cx="316.1" cy="403.3" r="3"/>
						<circle id="XMLID_10237_" class="st17" cx="316.1" cy="403.3" r="2.6"/>
						<circle id="XMLID_10236_" class="st18" cx="315.6" cy="402.6" r="0.4"/>
						<circle id="XMLID_10235_" class="st18" cx="316.5" cy="404.4" r="0.4"/>
						<line id="XMLID_10234_" class="st21" x1="315.5" y1="402.6" x2="316.4" y2="404.4"/>
						<line id="XMLID_10233_" class="st21" x1="315.7" y1="402.5" x2="316.6" y2="404.3"/>
						<circle id="XMLID_10232_" class="st18" cx="315.1" cy="404" r="0.4"/>
						<circle id="XMLID_10231_" class="st18" cx="317" cy="403.1" r="0.4"/>
						<line id="XMLID_10230_" class="st21" x1="315.1" y1="404.1" x2="317" y2="403.2"/>
						<line id="XMLID_10229_" class="st21" x1="315" y1="403.9" x2="316.9" y2="403"/>
					</g>
					<g id="XMLID_10215_">
						<path class="st11" d="M317.5,396l-4.2,0.3l-4,1.2c-0.3,0.1-0.2,0.5,0.1,0.4l4.2-0.3l4-1.2C317.9,396.3,317.8,396,317.5,396z"
							/>
						<circle id="XMLID_10227_" class="st5" cx="314.8" cy="396.9" r="3.1"/>
						<circle id="XMLID_10226_" class="st15" cx="314.9" cy="396.8" r="3"/>
						<circle id="XMLID_10225_" class="st20" cx="314.8" cy="396.4" r="3"/>
						<circle id="XMLID_10224_" class="st17" cx="314.8" cy="396.4" r="2.6"/>
						<circle id="XMLID_10223_" class="st18" cx="314.3" cy="395.7" r="0.4"/>
						<circle id="XMLID_10222_" class="st18" cx="315.3" cy="397.6" r="0.4"/>
						<line id="XMLID_10221_" class="st21" x1="314.2" y1="395.7" x2="315.1" y2="397.6"/>
						<line id="XMLID_10220_" class="st21" x1="314.4" y1="395.6" x2="315.3" y2="397.5"/>
						<circle id="XMLID_10219_" class="st18" cx="313.9" cy="397.1" r="0.4"/>
						<circle id="XMLID_10218_" class="st18" cx="315.7" cy="396.2" r="0.4"/>
						<line id="XMLID_10217_" class="st21" x1="313.9" y1="397.2" x2="315.7" y2="396.3"/>
						<line id="XMLID_10216_" class="st21" x1="313.8" y1="397" x2="315.6" y2="396.1"/>
					</g>
					<g id="XMLID_10202_">
						<path class="st11" d="M320.1,409.7l-4.2,0.3l-4,1.2c-0.3,0.1-0.2,0.5,0.1,0.4l4.2-0.3l4-1.2
							C320.4,410.1,320.4,409.7,320.1,409.7z"/>
						<circle id="XMLID_10214_" class="st5" cx="317.4" cy="410.7" r="3.1"/>
						<circle id="XMLID_10213_" class="st15" cx="317.4" cy="410.6" r="3"/>
						<circle id="XMLID_10212_" class="st20" cx="317.4" cy="410.1" r="3"/>
						<circle id="XMLID_10211_" class="st17" cx="317.4" cy="410.1" r="2.6"/>
						<circle id="XMLID_10210_" class="st18" cx="316.9" cy="409.5" r="0.4"/>
						<circle id="XMLID_10209_" class="st18" cx="317.8" cy="411.3" r="0.4"/>
						<line id="XMLID_10208_" class="st21" x1="316.8" y1="409.5" x2="317.7" y2="411.3"/>
						<line id="XMLID_10207_" class="st21" x1="317" y1="409.4" x2="317.9" y2="411.2"/>
						<circle id="XMLID_10206_" class="st18" cx="316.4" cy="410.8" r="0.4"/>
						<circle id="XMLID_10205_" class="st18" cx="318.3" cy="409.9" r="0.4"/>
						<line id="XMLID_10204_" class="st21" x1="316.4" y1="411" x2="318.3" y2="410.1"/>
						<line id="XMLID_10203_" class="st21" x1="316.3" y1="410.7" x2="318.2" y2="409.8"/>
					</g>
					<g id="XMLID_10189_">
						<path class="st11" d="M321.4,416.6l-4.2,0.3l-4,1.2c-0.3,0.1-0.2,0.5,0.1,0.4l4.2-0.3l4-1.2
							C321.7,417,321.6,416.6,321.4,416.6z"/>
						<circle id="XMLID_10201_" class="st5" cx="318.7" cy="417.6" r="3.1"/>
						<circle id="XMLID_10200_" class="st15" cx="318.7" cy="417.4" r="3"/>
						<circle id="XMLID_10199_" class="st20" cx="318.7" cy="417" r="3"/>
						<circle id="XMLID_10198_" class="st17" cx="318.7" cy="417" r="2.6"/>
						<circle id="XMLID_10197_" class="st18" cx="318.2" cy="416.3" r="0.4"/>
						<circle id="XMLID_10196_" class="st18" cx="319.1" cy="418.2" r="0.4"/>
						<line id="XMLID_10195_" class="st21" x1="318" y1="416.3" x2="318.9" y2="418.2"/>
						<line id="XMLID_10194_" class="st21" x1="318.3" y1="416.2" x2="319.2" y2="418.1"/>
						<circle id="XMLID_10193_" class="st18" cx="317.7" cy="417.7" r="0.4"/>
						<circle id="XMLID_10192_" class="st18" cx="319.6" cy="416.8" r="0.4"/>
						<line id="XMLID_10191_" class="st21" x1="317.7" y1="417.9" x2="319.6" y2="417"/>
						<line id="XMLID_10190_" class="st21" x1="317.6" y1="417.6" x2="319.5" y2="416.7"/>
					</g>
				</g>
				<g>
					<g id="XMLID_10176_">
						<path class="st11" d="M-18.2,402.9l4.2,0.3l4,1.2c0.3,0.1,0.2,0.5-0.1,0.4l-4.2-0.3l-4-1.2C-18.5,403.2-18.5,402.8-18.2,402.9
							z"/>
						<circle id="XMLID_10188_" class="st5" cx="-15.5" cy="403.8" r="3.1"/>
						<circle id="XMLID_10187_" class="st15" cx="-15.6" cy="403.7" r="3"/>
						<circle id="XMLID_10186_" class="st20" cx="-15.5" cy="403.3" r="3"/>
						<circle id="XMLID_10185_" class="st17" cx="-15.5" cy="403.3" r="2.6"/>
						<circle id="XMLID_10184_" class="st18" cx="-15" cy="402.6" r="0.4"/>
						<circle id="XMLID_10183_" class="st18" cx="-15.9" cy="404.4" r="0.4"/>
						<line id="XMLID_10182_" class="st21" x1="-14.9" y1="402.6" x2="-15.8" y2="404.4"/>
						<line id="XMLID_10181_" class="st21" x1="-15.1" y1="402.5" x2="-16" y2="404.3"/>
						<circle id="XMLID_10180_" class="st18" cx="-14.5" cy="404" r="0.4"/>
						<circle id="XMLID_10179_" class="st18" cx="-16.4" cy="403.1" r="0.4"/>
						<line id="XMLID_10178_" class="st21" x1="-14.5" y1="404.1" x2="-16.4" y2="403.2"/>
						<line id="XMLID_10177_" class="st21" x1="-14.4" y1="403.9" x2="-16.3" y2="403"/>
					</g>
					<g id="XMLID_10163_">
						<path class="st11" d="M-16.9,396l4.2,0.3l4,1.2c0.3,0.1,0.2,0.5-0.1,0.4l-4.2-0.3l-4-1.2C-17.3,396.3-17.2,396-16.9,396z"/>
						<circle id="XMLID_10175_" class="st5" cx="-14.2" cy="396.9" r="3.1"/>
						<circle id="XMLID_10174_" class="st15" cx="-14.3" cy="396.8" r="3"/>
						<circle id="XMLID_10173_" class="st20" cx="-14.2" cy="396.4" r="3"/>
						<circle id="XMLID_10172_" class="st17" cx="-14.2" cy="396.4" r="2.6"/>
						<circle id="XMLID_10171_" class="st18" cx="-13.7" cy="395.7" r="0.4"/>
						<circle id="XMLID_10170_" class="st18" cx="-14.6" cy="397.6" r="0.4"/>
						<line id="XMLID_10169_" class="st21" x1="-13.6" y1="395.7" x2="-14.5" y2="397.6"/>
						<line id="XMLID_10168_" class="st21" x1="-13.8" y1="395.6" x2="-14.7" y2="397.5"/>
						<circle id="XMLID_10167_" class="st18" cx="-13.3" cy="397.1" r="0.4"/>
						<circle id="XMLID_10166_" class="st18" cx="-15.1" cy="396.2" r="0.4"/>
						<line id="XMLID_10165_" class="st21" x1="-13.3" y1="397.2" x2="-15.1" y2="396.3"/>
						<line id="XMLID_10164_" class="st21" x1="-13.2" y1="397" x2="-15" y2="396.1"/>
					</g>
					<g id="XMLID_10150_">
						<path class="st11" d="M-19.5,409.7l4.2,0.3l4,1.2c0.3,0.1,0.2,0.5-0.1,0.4l-4.2-0.3l-4-1.2C-19.8,410.1-19.8,409.7-19.5,409.7
							z"/>
						<circle id="XMLID_10162_" class="st5" cx="-16.8" cy="410.7" r="3.1"/>
						<circle id="XMLID_10161_" class="st15" cx="-16.8" cy="410.6" r="3"/>
						<circle id="XMLID_10160_" class="st20" cx="-16.8" cy="410.1" r="3"/>
						<circle id="XMLID_10159_" class="st17" cx="-16.8" cy="410.1" r="2.6"/>
						<circle id="XMLID_10158_" class="st18" cx="-16.3" cy="409.5" r="0.4"/>
						<circle id="XMLID_10157_" class="st18" cx="-17.2" cy="411.3" r="0.4"/>
						<line id="XMLID_10156_" class="st21" x1="-16.2" y1="409.5" x2="-17.1" y2="411.3"/>
						<line id="XMLID_10155_" class="st21" x1="-16.4" y1="409.4" x2="-17.3" y2="411.2"/>
						<circle id="XMLID_10154_" class="st18" cx="-15.8" cy="410.8" r="0.4"/>
						<circle id="XMLID_10153_" class="st18" cx="-17.7" cy="409.9" r="0.4"/>
						<line id="XMLID_10152_" class="st21" x1="-15.8" y1="411" x2="-17.7" y2="410.1"/>
						<line id="XMLID_10151_" class="st21" x1="-15.7" y1="410.7" x2="-17.6" y2="409.8"/>
					</g>
					<g id="XMLID_10137_">
						<path class="st11" d="M-20.8,416.6l4.2,0.3l4,1.2c0.3,0.1,0.2,0.5-0.1,0.4l-4.2-0.3l-4-1.2C-21.1,417-21,416.6-20.8,416.6z"/>
						<circle id="XMLID_10149_" class="st5" cx="-18.1" cy="417.6" r="3.1"/>
						<circle id="XMLID_10148_" class="st15" cx="-18.1" cy="417.4" r="3"/>
						<circle id="XMLID_10147_" class="st20" cx="-18.1" cy="417" r="3"/>
						<circle id="XMLID_10146_" class="st17" cx="-18.1" cy="417" r="2.6"/>
						<circle id="XMLID_10145_" class="st18" cx="-17.6" cy="416.3" r="0.4"/>
						<circle id="XMLID_10144_" class="st18" cx="-18.5" cy="418.2" r="0.4"/>
						<line id="XMLID_10143_" class="st21" x1="-17.4" y1="416.3" x2="-18.3" y2="418.2"/>
						<line id="XMLID_10142_" class="st21" x1="-17.7" y1="416.2" x2="-18.6" y2="418.1"/>
						<circle id="XMLID_10141_" class="st18" cx="-17.1" cy="417.7" r="0.4"/>
						<circle id="XMLID_10140_" class="st18" cx="-19" cy="416.8" r="0.4"/>
						<line id="XMLID_10139_" class="st21" x1="-17.1" y1="417.9" x2="-19" y2="417"/>
						<line id="XMLID_10138_" class="st21" x1="-17" y1="417.6" x2="-18.9" y2="416.7"/>
					</g>
				</g>
			</g>
		</g>
	</g>
	<g id="XMLID_1_" class="st0">
		<defs>
			<rect id="XMLID_4932_" x="-13.5" width="327.1" height="300"/>
		</defs>
		<clipPath id="XMLID_4_">
			<use xlink:href="#XMLID_4932_"  style="overflow:visible;"/>
		</clipPath>
	</g>
	<g class="st0">
		<path class="st22" d="M150.1,4.6c38.7,0,75.1,15.1,102.5,42.5c27.4,27.4,42.5,63.8,42.5,102.5s-15.1,75.1-42.5,102.5
			c-27.4,27.4-63.8,42.5-102.5,42.5S75,279.5,47.6,252.1C20.2,224.7,5.1,188.3,5.1,149.6S20.2,74.5,47.6,47.1
			C75,19.7,111.4,4.6,150.1,4.6 M150.1-0.4c-82.8,0-150,67.2-150,150s67.2,150,150,150s150-67.2,150-150S232.9-0.4,150.1-0.4
			L150.1-0.4z"/>
	</g>
</g>
</svg>
