<?xml version="1.0" encoding="utf-8"?>
<!-- Generator: Adobe Illustrator 19.0.0, SVG Export Plug-In . SVG Version: 6.00 Build 0)  -->
<svg version="1.1" id="Layer_1" xmlns="http://www.w3.org/2000/svg" xmlns:xlink="http://www.w3.org/1999/xlink" x="0px" y="0px"
	 viewBox="0 0 300 300" style="enable-background:new 0 0 300 300;" xml:space="preserve">
<style type="text/css">
	.st0{clip-path:url(#SVGID_2_);}
	.st1{clip-path:url(#XMLID_139_);}
	.st2{fill:#F1F1F2;stroke:#404041;stroke-miterlimit:10;}
	.st3{fill:#FFFFFF;stroke:#404041;stroke-miterlimit:10;}
	.st4{fill:#929497;}
	.st5{fill:#F1F1F2;}
	.st6{fill:#C5C7C9;}
	.st7{fill:none;stroke:#404041;stroke-miterlimit:10;}
	.st8{fill:none;stroke:#808184;stroke-width:0.5;stroke-miterlimit:10;}
	.st9{fill:none;stroke:#808184;stroke-width:0.5;stroke-miterlimit:10;stroke-dasharray:0.9993,1.9985;}
	.st10{fill:none;stroke:#808184;stroke-width:0.5;stroke-miterlimit:10;stroke-dasharray:1,2;}
	.st11{fill:#404041;stroke:#D0D2D3;stroke-width:0.5;stroke-miterlimit:10;}
	.st12{fill:none;stroke:#808184;stroke-width:0.5;stroke-miterlimit:10;stroke-dasharray:0.9943,1.9886;}
	.st13{fill:none;stroke:#808184;stroke-width:0.5;stroke-miterlimit:10;stroke-dasharray:1.0166,2.0331;}
	.st14{fill:none;stroke:#808184;stroke-width:0.5;stroke-miterlimit:10;stroke-dasharray:1.0177,2.0353;}
	.st15{fill:#DBDCDD;}
	.st16{fill:#FFFFFF;stroke:#6D6E70;stroke-miterlimit:10;}
	.st17{fill:#FFFFFF;stroke:#929497;stroke-width:0.25;stroke-miterlimit:10;}
	.st18{fill:#404041;}
	.st19{fill:none;stroke:#6D6E70;stroke-width:0.5;stroke-miterlimit:10;}
	.st20{fill:#FFFFFF;stroke:#6D6E70;stroke-width:0.5;stroke-miterlimit:10;}
	.st21{fill:none;stroke:#6D6E70;stroke-width:0.25;stroke-miterlimit:10;}
	.st22{fill:#9AA0BB;}
</style>
<g>
	<defs>
		<circle id="SVGID_1_" cx="150.1" cy="149.6" r="150"/>
	</defs>
	<use xlink:href="#SVGID_1_"  style="overflow:visible;fill:#DDDDDD;"/>
	<clipPath id="SVGID_2_">
		<use xlink:href="#SVGID_1_"  style="overflow:visible;"/>
	</clipPath>
	<g id="XMLID_254_" class="st0">
		<defs>
			<rect id="XMLID_4044_" x="-13.5" width="327.1" height="300"/>
		</defs>
		<clipPath id="XMLID_139_">
			<use xlink:href="#XMLID_4044_"  style="overflow:visible;"/>
		</clipPath>
		<g class="st1">
			<g>
				<g>
					<g>
						<polygon class="st2" points="174.4,35.7 184.3,46.9 147.3,211.4 115.5,46.9 125,35.7 						"/>
						<path class="st3" d="M174.8,30.4c0,0,0.1-0.6-24.9-0.6c-0.1,0-0.2,0-0.3,0c-0.1,0-0.2,0-0.3,0c-25,0-24.9,0.6-24.9,0.6
							l-3,10.9c0,0,4.1,1,13.9,1.4c3.8,0.2,8.8,0.3,14.4,0.3c5.7,0,10.1-0.1,13.9-0.3c9.9-0.4,13.9-1.4,13.9-1.4L174.8,30.4z"/>
						<g>
							<path class="st4" d="M129.1,30.1c0,0-2.6,2.9-2.4,6.6c0.2,3.7,0.4,4.9,0.4,4.9h-5.5l3-11.1L129.1,30.1z"/>
							<path class="st5" d="M130.1,30.1c-0.7,0-1.3,0-1.8,0.1c-1.5,2.4-1.5,9.3-1.4,11.8c0.8,0.1,1.7,0.1,2.7,0.2
								c-0.2-0.7-0.4-2.3-0.4-5.1C129.2,33.7,129.8,31.2,130.1,30.1z"/>
							<path class="st6" d="M128.5,30.2c-0.4,0-0.7,0-1,0c-0.6,0.5-1.2,1.4-1.4,2.9c-0.3,3.1-0.4,7-0.5,8.8c0.8,0.1,1.7,0.2,2.7,0.2
								C127.9,39.5,127.1,32.5,128.5,30.2z"/>
						</g>
						<g>
							<path class="st4" d="M170.1,30.1c0,0,2.6,2.9,2.4,6.6c-0.2,3.7-0.4,4.9-0.4,4.9h5.7l-3.3-11.1L170.1,30.1z"/>
							<path class="st5" d="M169,30.1c0.7,0,1.3,0,1.8,0.1c1.5,2.4,1.5,9.3,1.4,11.8c-0.8,0.1-1.7,0.1-2.7,0.2
								c0.2-0.7,0.4-2.3,0.4-5.1C169.9,33.7,169.3,31.2,169,30.1z"/>
							<path class="st6" d="M170.6,30.2c0.4,0,0.7,0,1,0c0.6,0.5,1.2,1.4,1.4,2.9c0.3,3.1,0.4,7,0.5,8.8c-0.8,0.1-1.7,0.2-2.7,0.2
								C171.2,39.5,172.1,32.5,170.6,30.2z"/>
						</g>
						<path class="st7" d="M174.8,30.4c0,0,0.1-0.6-24.9-0.6c-0.1,0-0.2,0-0.3,0c-0.1,0-0.2,0-0.3,0c-25,0-24.9,0.6-24.9,0.6
							l-3,10.9c0,0,4.1,1,13.9,1.4c3.8,0.2,8.8,0.3,14.4,0.3c5.7,0,10.1-0.1,13.9-0.3c9.9-0.4,13.9-1.4,13.9-1.4L174.8,30.4z"/>
						<g>
							<polygon class="st4" points="126.3,64.3 149.9,159.4 173,64.3 157.9,195.6 149.1,215.5 142.2,194.4 							"/>
							<polygon class="st6" points="149.7,167.7 173.6,59.4 149.9,152.5 125.8,59.4 							"/>
						</g>
						<g>
							<g>
								<line class="st8" x1="149.9" y1="44.5" x2="149.9" y2="45"/>
								<line class="st9" x1="149.9" y1="47" x2="149.9" y2="198.8"/>
								<line class="st8" x1="149.9" y1="199.8" x2="149.9" y2="200.3"/>
							</g>
						</g>
						<path class="st4" d="M137,47.2l0.9,0.9c0,0,6.5-0.5,12-0.5c5.5,0,12.4,0.5,12.4,0.5l0.6-0.9H137z"/>
						<path class="st6" d="M137.7,47.9l0.7,0.7c0,0,6.1-0.5,11.5-0.5c5.4,0,12.2,0.5,12.2,0.5l0.4-0.7l-12.5-0.2L137.7,47.9z"/>
						<path class="st3" d="M149.9,43c-5.7,0-10.4,0-14.3-0.2l1.6,4.4h12.6h0.1h12.6l1.6-4.4C160.4,43,155.6,43,149.9,43z"/>
					</g>
					<path class="st2" d="M162.6,438.1c0-0.7,0-25.3,0-25.3h-25.4v25.3H162.6z"/>
					<g>
						<polygon class="st4" points="150.1,422.3 140.3,444.3 149.9,409.1 159.9,444.6 						"/>
						<polygon class="st6" points="149.9,426.7 140.3,444.3 149.9,419.3 159.9,444.6 						"/>
					</g>
					<path class="st3" d="M163.5,289.5c-2.3-52.5-4.9-38.4-4.9-38.4l-4.5-37.8l-3.5-7.6c-5.4-27.1-12.1-60.6-13.4-69.8
						c-2.2-14.9-16.3-62.4-16.3-62.4c-4.5-28.7,4.2-43,4.2-43s-21.6,12.3-26,15.2C96.8,47.3,76.8,56,59.9,63.9
						c-20.6,9.5-23.5,14.6-23.5,14.6c15.9,9.8,19.2,45.2,19.5,86.6c0.3,41.5-11.2,112.2-12.6,149c-1.5,38.2-9.3,132-9.3,132
						s68.2,17.4,86.9,12.3c18.6-5.1,20.1-15.6,23.8-25.2l5.5-19.2C150.1,414,165.8,342.1,163.5,289.5z"/>
					<g>
						<path class="st5" d="M56.2,239.8c6-41.1,3.4-74.1-0.7-99.9c0.8,5.1,1.2,14.1,1.3,15.4c0.7,8.7,1.4,17.7,1.2,26.4
							c-0.2,18.2-1.5,39.1-4.8,62c-2.8,19.6-4.9,28.3-6.4,31.7c-0.3,2.8-0.6,5.5-0.8,8.2C49.7,283.3,52.3,266.2,56.2,239.8z"/>
						<path class="st6" d="M52.5,223.1c-1.8,17.7-3.9,35.8-5.7,52.3c1.5-3.4,3.6-12.1,6.4-31.7c3.3-22.9,4.9-41.7,4.9-72.4l0-0.1
							c0.3-11.1-2.7-31.8-2.7-30.9C57.1,165,54.2,208.4,52.5,223.1z"/>
					</g>
					<path class="st3" d="M55.9,165.1c-0.3-38.9-3.2-72.4-16.6-84.5L36.5,79c0,0-4.3-1.4-8.8,19.9C23.1,120.1-25,422.7-25,422.7
						s8,7,24.6,7.6s25-3.5,25-3.5l26.1-188.7C53.5,211.7,56.1,185,55.9,165.1z"/>
					<g>
						<path class="st5" d="M150.3,197.3c0,0-18.8,44.7-18.8,108.2s21,109.4,21,109.4l-2.2-77.1l3.1-135L150.3,197.3z"/>
						<path class="st6" d="M153,197.3c0,0-18.8,44.7-18.8,108.2s21,109.4,21,109.4l-2.2-77.1l3.1-135L153,197.3z"/>
					</g>
					<g>
						<path class="st3" d="M244.1,165.1c0.3-41.5,3.6-76.8,19.5-86.6c0,0-2.9-5.1-23.5-14.6c-19.4-9-35.7-16-42.1-19.7
							c-0.4-0.2-0.8-0.4-1.1-0.6c-5.5-3.4-22.1-13.1-22.1-13.1s7.9,14.3,3.5,43c0,0-14.2,47.5-16.4,62.4
							c-2.2,14.9-19.1,92.9-21.1,104.7c-0.5,3.1-1,6-1.4,8.6c-0.9,5.7-1,11.7-1.3,13.5c-0.5,6-1.1,14.6-1.6,26.8
							c-2.3,52.5,13.3,124.4,13.3,124.4l5.7,19.4c3.7,9.7,4.9,19.9,23.6,25c18.6,5.1,84.4-12.3,84.4-12.3s-5.4-93.8-6.9-132
							C255.3,277.3,243.8,206.6,244.1,165.1z"/>
					</g>
					<g>
						<path class="st5" d="M243.8,239.8c-6-41.1-3.4-74.1,0.7-99.9c-0.8,5.1-1.2,14.1-1.3,15.4c-0.7,8.7-1.4,17.7-1.2,26.4
							c0.2,18.2,1.5,39.1,4.8,62c2.8,19.6,4.9,28.3,6.4,31.7c0.3,2.8,0.6,5.5,0.8,8.2C250.2,283.3,247.6,266.2,243.8,239.8z"/>
						<path class="st6" d="M247.5,223.1c1.8,17.7,3.9,35.8,5.7,52.3c-1.5-3.4-3.6-12.1-6.4-31.7c-3.3-22.9-4.9-41.7-4.9-72.4l0-0.1
							c-0.3-11.1,2.7-31.8,2.7-30.9C242.9,165,245.7,208.4,247.5,223.1z"/>
					</g>
					<path class="st3" d="M272.4,98.3c-4.5-21.3-8.8-19.9-8.8-19.9l0,0c-15.9,9.8-19.2,45.2-19.5,86.6c-0.1,19.3,2.3,45,5,70.6
						l26.3,190.6c0,0,8.4,4.1,25,3.5c16.6-0.6,24.6-7.6,24.6-7.6S276.9,119.6,272.4,98.3z"/>
				</g>
			</g>
			<g>
				<polygon class="st5" points="233.2,169.4 233.2,166.8 173.8,168.6 173.8,171.1 				"/>
				<polygon class="st6" points="233.2,170.4 233.2,167.8 173.8,169.6 173.8,172.1 				"/>
				<path class="st3" d="M233,169v13.7c0,0.5-0.4,0.9-0.9,0.9l-56.8,1.2c-0.5,0-0.9-0.4-0.9-0.9v-13.2L233,169z"/>
				<line class="st10" x1="174.5" y1="171.3" x2="233" y2="169.6"/>
			</g>
			<g>
				<g>
					<g>
						<g>
							<path class="st5" d="M82.1,89.5c0,0-3.4,2.5-2,6.2s49.1,84.9,57.5,101.5c2.9,5.7,6.3,9.7,9.7,16.9c2.6,5.6,4.4-6.8,4.4-6.8
								l-2.7-8.3l-56.9-98.9L82.1,89.5z"/>
							<path class="st6" d="M82.9,89.5c0,0-3.5,1-2.1,4.7c1.4,3.7,49.3,86.4,57.6,102.9c2.7,5.3,5.9,8.7,9,15.5c1.6,3.6,4.3-9,4.3-9
								l-1.8-4.6l-56.9-98.9L82.9,89.5z"/>
							<polygon class="st5" points="103.1,48.6 92.1,88.7 92.1,90.2 94.3,94.6 112.2,102 116.6,102.1 103.9,57.8 							"/>
							<polygon class="st6" points="103.1,48.6 93.1,89 93.1,90.5 96.6,99.3 111.8,106.9 119.5,102.1 106.8,57.8 							"/>
						</g>
						<path class="st3" d="M126.4,30.5c0,0-18.4,6.7-22,15.2c-3.7,8.5-10.3,44-10.3,44l18.7,8.5c0,0-28-11-30.8-8.8
							c-1.7,1.4-0.3,5.5,4.1,14.6c3.2,6.6,34.7,54.7,48.7,83c5.3,10.7,9.6,16.9,13.1,25c1.3,3.1,7.2-6.3,6.9-7.7
							c-0.6-3.3-1.3-3.3-2.1-7.9c-5.5-32.9-14.2-72.4-19-98.6c-5.5-29.8-10.3-44.8-10.3-53.7S126.4,30.5,126.4,30.5z"/>
						<line class="st10" x1="129.1" y1="74.7" x2="112.8" y2="98.2"/>
					</g>
					<g>
						<polygon class="st5" points="149.7,177.3 143.5,201.1 145.4,205.9 150.2,185.4 						"/>
						<polygon class="st6" points="150.5,179.4 144.3,203.3 146.2,208.1 151,187.6 						"/>
					</g>
					<g>
						<path class="st5" d="M218.1,89.5c0,0,3.4,2.5,2,6.2s-49.1,86.8-57.5,103.3s-21.4,41.4-21.4,41.4l10-39.5l56.9-98.9L218.1,89.5
							z"/>
						<path class="st6" d="M217.3,89.5c0,0,3.5,1,2.1,4.7c-1.4,3.7-49.3,88.3-57.6,104.8c-8.3,16.5-20.9,40.8-20.9,40.8l9.5-39
							l56.9-98.9L217.3,89.5z"/>
						<polygon class="st5" points="197.1,48.6 208,88.7 208,90.2 205.8,94.6 188,102 183.5,102.1 196.3,57.8 						"/>
						<polygon class="st6" points="197.1,48.6 207,89 207,90.5 203.5,99.3 188.4,106.9 180.6,102.1 193.4,57.8 						"/>
					</g>
					<path class="st3" d="M173.7,30.5c0,0,18.4,6.7,22,15.2s10.3,44,10.3,44l-18.7,8.5c0,0,28-11,30.8-8.8c1.7,1.4,0.3,5.5-4.1,14.6
						c-3.2,6.6-34.7,56.6-48.7,84.9c-14,28.3-21.1,43-24.4,50.9c0,0-0.7-3.9,4.4-31.4s15.6-80.7,21.1-110.5s10.3-44.8,10.3-53.7
						S173.7,30.5,173.7,30.5z"/>
					<path class="st11" d="M206,97.9l-2.8,1c-0.8,0.2-1.6,0.5-2.3,0.9l-2.6,1.2c-0.2,0.1-0.1,0.5,0.2,0.4l2.7-0.9
						c0.8-0.2,1.5-0.5,2.3-0.9l2.8-1.3C206.3,98.2,206.2,97.9,206,97.9z"/>
					<line class="st10" x1="171" y1="74.7" x2="187.3" y2="98.2"/>
				</g>
			</g>
			<g>
				<g>
					<g>
						<g>
							<line class="st8" x1="203.7" y1="206.4" x2="203.7" y2="206.9"/>
							<line class="st12" x1="203.7" y1="208.9" x2="203.7" y2="312.3"/>
							<line class="st8" x1="203.7" y1="313.3" x2="203.7" y2="313.8"/>
						</g>
					</g>
					<g>
						<path class="st5" d="M195.4,317.5l-1.3,17.7c-0.6,10.1,4.2,13.2,9.2,13.2h54.7l-0.2-4.6L195.4,317.5z"/>
						<path class="st6" d="M195.4,316.9l-0.6,14.5c-0.6,10.1,2.8,15.7,8.6,15.7h54.6l-0.2-4.6L195.4,316.9z"/>
						<path class="st3" d="M195.4,321.3v-5.1h61.5l1.5,29.8h-53.7c-7.1,0-9.2-8.4-9.2-15.5l0,0V321.3z"/>
						<g>
							<g>
								<line class="st8" x1="195.9" y1="319.3" x2="196.4" y2="319.3"/>
								<line class="st13" x1="198.5" y1="319.3" x2="255.4" y2="319.3"/>
								<line class="st8" x1="256.4" y1="319.3" x2="256.9" y2="319.3"/>
							</g>
						</g>
					</g>
				</g>
				<g>
					<g>
						<g>
							<line class="st8" x1="96.7" y1="206.4" x2="96.7" y2="206.9"/>
							<line class="st12" x1="96.7" y1="208.9" x2="96.7" y2="312.3"/>
							<line class="st8" x1="96.7" y1="313.3" x2="96.7" y2="313.8"/>
						</g>
					</g>
					<g>
						<path class="st5" d="M105,317.5l1.3,17.7c0.6,10.1-4.2,13.2-9.2,13.2H42.4l0.2-4.6L105,317.5z"/>
						<path class="st6" d="M105,316.9l0.6,14.5c0.6,10.1-2.8,15.7-8.6,15.7H42.4l0.2-4.6L105,316.9z"/>
						<path class="st3" d="M105,321.3v-5.1H43.5L42,346.1h53.7c7.1,0,9.2-8.4,9.2-15.5l0,0V321.3z"/>
						<g>
							<g>
								<line class="st8" x1="104.6" y1="319.3" x2="104.1" y2="319.3"/>
								<line class="st14" x1="102" y1="319.3" x2="45" y2="319.3"/>
								<line class="st8" x1="44" y1="319.3" x2="43.5" y2="319.3"/>
							</g>
						</g>
					</g>
				</g>
			</g>
			<g>
				<g id="XMLID_122_">
					<circle id="XMLID_137_" class="st5" cx="152.3" cy="242.7" r="6"/>
					<circle id="XMLID_136_" class="st15" cx="152.4" cy="242.4" r="5.8"/>
					<polygon id="XMLID_135_" class="st11" points="159.8,242.2 152.5,240.8 144.3,242.2 152.5,243.6 					"/>
					<circle id="XMLID_134_" class="st16" cx="152.3" cy="241.6" r="5.8"/>
					<circle id="XMLID_133_" class="st17" cx="152.3" cy="241.6" r="5"/>
					<circle id="XMLID_132_" class="st18" cx="151.3" cy="240.3" r="0.7"/>
					<circle id="XMLID_131_" class="st18" cx="153.1" cy="243.9" r="0.7"/>
					<line id="XMLID_130_" class="st19" x1="151" y1="240.3" x2="152.8" y2="243.9"/>
					<line id="XMLID_129_" class="st19" x1="151.5" y1="240.1" x2="153.2" y2="243.7"/>
					<line id="XMLID_128_" class="st19" x1="151" y1="240.3" x2="152.8" y2="243.9"/>
					<line id="XMLID_127_" class="st19" x1="151.5" y1="240.1" x2="153.2" y2="243.7"/>
					<circle id="XMLID_126_" class="st18" cx="150.4" cy="243" r="0.7"/>
					<circle id="XMLID_125_" class="st18" cx="154" cy="241.2" r="0.7"/>
					<line id="XMLID_124_" class="st19" x1="150.4" y1="243.3" x2="154" y2="241.5"/>
					<line id="XMLID_123_" class="st19" x1="150.2" y1="242.8" x2="153.8" y2="241.1"/>
				</g>
				<g id="XMLID_106_">
					<circle id="XMLID_121_" class="st5" cx="152.3" cy="308.3" r="6"/>
					<circle id="XMLID_120_" class="st15" cx="152.4" cy="308" r="5.8"/>
					<polygon id="XMLID_119_" class="st11" points="159.8,307.8 152.5,306.4 144.3,307.8 152.5,309.2 					"/>
					<circle id="XMLID_118_" class="st16" cx="152.3" cy="307.2" r="5.8"/>
					<circle id="XMLID_117_" class="st17" cx="152.3" cy="307.2" r="5"/>
					<circle id="XMLID_116_" class="st18" cx="151.3" cy="305.9" r="0.7"/>
					<circle id="XMLID_115_" class="st18" cx="153.1" cy="309.5" r="0.7"/>
					<line id="XMLID_114_" class="st19" x1="151" y1="305.9" x2="152.8" y2="309.5"/>
					<line id="XMLID_113_" class="st19" x1="151.5" y1="305.7" x2="153.2" y2="309.3"/>
					<line id="XMLID_112_" class="st19" x1="151" y1="305.9" x2="152.8" y2="309.5"/>
					<line id="XMLID_111_" class="st19" x1="151.5" y1="305.7" x2="153.2" y2="309.3"/>
					<circle id="XMLID_110_" class="st18" cx="150.4" cy="308.6" r="0.7"/>
					<circle id="XMLID_109_" class="st18" cx="154" cy="306.8" r="0.7"/>
					<line id="XMLID_108_" class="st19" x1="150.4" y1="308.9" x2="154" y2="307.1"/>
					<line id="XMLID_107_" class="st19" x1="150.2" y1="308.4" x2="153.8" y2="306.7"/>
				</g>
			</g>
			<g>
				<g>
					<g id="XMLID_93_">
						<path class="st11" d="M319,403.3l-4.2,0.3l-4,1.2c-0.3,0.1-0.2,0.5,0.1,0.4l4.2-0.3l4-1.2C319.4,403.7,319.3,403.3,319,403.3z
							"/>
						<circle id="XMLID_105_" class="st5" cx="316.3" cy="404.3" r="3.1"/>
						<circle id="XMLID_104_" class="st15" cx="316.4" cy="404.1" r="3"/>
						<circle id="XMLID_103_" class="st20" cx="316.3" cy="403.7" r="3"/>
						<circle id="XMLID_102_" class="st17" cx="316.3" cy="403.7" r="2.6"/>
						<circle id="XMLID_101_" class="st18" cx="315.8" cy="403" r="0.4"/>
						<circle id="XMLID_100_" class="st18" cx="316.7" cy="404.9" r="0.4"/>
						<line id="XMLID_99_" class="st21" x1="315.7" y1="403" x2="316.6" y2="404.9"/>
						<line id="XMLID_98_" class="st21" x1="315.9" y1="402.9" x2="316.8" y2="404.8"/>
						<circle id="XMLID_97_" class="st18" cx="315.4" cy="404.4" r="0.4"/>
						<circle id="XMLID_96_" class="st18" cx="317.2" cy="403.5" r="0.4"/>
						<line id="XMLID_95_" class="st21" x1="315.4" y1="404.6" x2="317.2" y2="403.7"/>
						<line id="XMLID_94_" class="st21" x1="315.3" y1="404.3" x2="317.1" y2="403.4"/>
					</g>
					<g id="XMLID_80_">
						<path class="st11" d="M317.7,396.4l-4.2,0.3l-4,1.2c-0.3,0.1-0.2,0.5,0.1,0.4l4.2-0.3l4-1.2
							C318.1,396.8,318,396.4,317.7,396.4z"/>
						<circle id="XMLID_92_" class="st5" cx="315" cy="397.4" r="3.1"/>
						<circle id="XMLID_91_" class="st15" cx="315.1" cy="397.3" r="3"/>
						<circle id="XMLID_90_" class="st20" cx="315" cy="396.8" r="3"/>
						<circle id="XMLID_89_" class="st17" cx="315" cy="396.8" r="2.6"/>
						<circle id="XMLID_88_" class="st18" cx="314.6" cy="396.2" r="0.4"/>
						<circle id="XMLID_87_" class="st18" cx="315.5" cy="398" r="0.4"/>
						<line id="XMLID_86_" class="st21" x1="314.4" y1="396.2" x2="315.3" y2="398"/>
						<line id="XMLID_85_" class="st21" x1="314.7" y1="396.1" x2="315.6" y2="397.9"/>
						<circle id="XMLID_84_" class="st18" cx="314.1" cy="397.6" r="0.4"/>
						<circle id="XMLID_83_" class="st18" cx="315.9" cy="396.6" r="0.4"/>
						<line id="XMLID_82_" class="st21" x1="314.1" y1="397.7" x2="315.9" y2="396.8"/>
						<line id="XMLID_81_" class="st21" x1="314" y1="397.5" x2="315.8" y2="396.5"/>
					</g>
					<g id="XMLID_67_">
						<path class="st11" d="M320.3,410.2l-4.2,0.3l-4,1.2c-0.3,0.1-0.2,0.5,0.1,0.4l4.2-0.3l4-1.2
							C320.6,410.6,320.6,410.2,320.3,410.2z"/>
						<circle id="XMLID_79_" class="st5" cx="317.6" cy="411.1" r="3.1"/>
						<circle id="XMLID_78_" class="st15" cx="317.7" cy="411" r="3"/>
						<circle id="XMLID_77_" class="st20" cx="317.6" cy="410.6" r="3"/>
						<circle id="XMLID_76_" class="st17" cx="317.6" cy="410.6" r="2.6"/>
						<circle id="XMLID_75_" class="st18" cx="317.1" cy="409.9" r="0.4"/>
						<circle id="XMLID_74_" class="st18" cx="318" cy="411.8" r="0.4"/>
						<line id="XMLID_73_" class="st21" x1="317" y1="409.9" x2="317.9" y2="411.8"/>
						<line id="XMLID_72_" class="st21" x1="317.2" y1="409.8" x2="318.1" y2="411.7"/>
						<circle id="XMLID_71_" class="st18" cx="316.6" cy="411.3" r="0.4"/>
						<circle id="XMLID_70_" class="st18" cx="318.5" cy="410.4" r="0.4"/>
						<line id="XMLID_69_" class="st21" x1="316.6" y1="411.5" x2="318.5" y2="410.6"/>
						<line id="XMLID_68_" class="st21" x1="316.5" y1="411.2" x2="318.4" y2="410.3"/>
					</g>
					<g id="XMLID_54_">
						<path class="st11" d="M321.6,417.1l-4.2,0.3l-4,1.2c-0.3,0.1-0.2,0.5,0.1,0.4l4.2-0.3l4-1.2
							C321.9,417.5,321.9,417.1,321.6,417.1z"/>
						<circle id="XMLID_66_" class="st5" cx="318.9" cy="418" r="3.1"/>
						<circle id="XMLID_65_" class="st15" cx="318.9" cy="417.9" r="3"/>
						<circle id="XMLID_64_" class="st20" cx="318.9" cy="417.5" r="3"/>
						<circle id="XMLID_63_" class="st17" cx="318.9" cy="417.5" r="2.6"/>
						<circle id="XMLID_62_" class="st18" cx="318.4" cy="416.8" r="0.4"/>
						<circle id="XMLID_61_" class="st18" cx="319.3" cy="418.7" r="0.4"/>
						<line id="XMLID_60_" class="st21" x1="318.2" y1="416.8" x2="319.2" y2="418.7"/>
						<line id="XMLID_59_" class="st21" x1="318.5" y1="416.7" x2="319.4" y2="418.6"/>
						<circle id="XMLID_58_" class="st18" cx="317.9" cy="418.2" r="0.4"/>
						<circle id="XMLID_57_" class="st18" cx="319.8" cy="417.3" r="0.4"/>
						<line id="XMLID_56_" class="st21" x1="317.9" y1="418.3" x2="319.8" y2="417.4"/>
						<line id="XMLID_55_" class="st21" x1="317.8" y1="418.1" x2="319.7" y2="417.2"/>
					</g>
				</g>
				<g>
					<g id="XMLID_41_">
						<path class="st11" d="M-18,403.3l4.2,0.3l4,1.2c0.3,0.1,0.2,0.5-0.1,0.4l-4.2-0.3l-4-1.2C-18.3,403.7-18.3,403.3-18,403.3z"/>
						<circle id="XMLID_53_" class="st5" cx="-15.3" cy="404.3" r="3.1"/>
						<circle id="XMLID_52_" class="st15" cx="-15.4" cy="404.1" r="3"/>
						<circle id="XMLID_51_" class="st20" cx="-15.3" cy="403.7" r="3"/>
						<circle id="XMLID_50_" class="st17" cx="-15.3" cy="403.7" r="2.6"/>
						<circle id="XMLID_49_" class="st18" cx="-14.8" cy="403" r="0.4"/>
						<circle id="XMLID_48_" class="st18" cx="-15.7" cy="404.9" r="0.4"/>
						<line id="XMLID_47_" class="st21" x1="-14.7" y1="403" x2="-15.6" y2="404.9"/>
						<line id="XMLID_46_" class="st21" x1="-14.9" y1="402.9" x2="-15.8" y2="404.8"/>
						<circle id="XMLID_45_" class="st18" cx="-14.3" cy="404.4" r="0.4"/>
						<circle id="XMLID_44_" class="st18" cx="-16.2" cy="403.5" r="0.4"/>
						<line id="XMLID_43_" class="st21" x1="-14.3" y1="404.6" x2="-16.2" y2="403.7"/>
						<line id="XMLID_42_" class="st21" x1="-14.2" y1="404.3" x2="-16.1" y2="403.4"/>
					</g>
					<g id="XMLID_28_">
						<path class="st11" d="M-16.7,396.4l4.2,0.3l4,1.2c0.3,0.1,0.2,0.5-0.1,0.4l-4.2-0.3l-4-1.2C-17.1,396.8-17,396.4-16.7,396.4z"
							/>
						<circle id="XMLID_40_" class="st5" cx="-14" cy="397.4" r="3.1"/>
						<circle id="XMLID_39_" class="st15" cx="-14.1" cy="397.3" r="3"/>
						<circle id="XMLID_38_" class="st20" cx="-14" cy="396.8" r="3"/>
						<circle id="XMLID_37_" class="st17" cx="-14" cy="396.8" r="2.6"/>
						<circle id="XMLID_36_" class="st18" cx="-13.5" cy="396.2" r="0.4"/>
						<circle id="XMLID_35_" class="st18" cx="-14.4" cy="398" r="0.4"/>
						<line id="XMLID_34_" class="st21" x1="-13.4" y1="396.2" x2="-14.3" y2="398"/>
						<line id="XMLID_33_" class="st21" x1="-13.6" y1="396.1" x2="-14.5" y2="397.9"/>
						<circle id="XMLID_32_" class="st18" cx="-13.1" cy="397.6" r="0.4"/>
						<circle id="XMLID_31_" class="st18" cx="-14.9" cy="396.6" r="0.4"/>
						<line id="XMLID_30_" class="st21" x1="-13.1" y1="397.7" x2="-14.9" y2="396.8"/>
						<line id="XMLID_29_" class="st21" x1="-13" y1="397.5" x2="-14.8" y2="396.5"/>
					</g>
					<g id="XMLID_15_">
						<path class="st11" d="M-19.3,410.2l4.2,0.3l4,1.2c0.3,0.1,0.2,0.5-0.1,0.4l-4.2-0.3l-4-1.2C-19.6,410.6-19.5,410.2-19.3,410.2
							z"/>
						<circle id="XMLID_27_" class="st5" cx="-16.6" cy="411.1" r="3.1"/>
						<circle id="XMLID_26_" class="st15" cx="-16.6" cy="411" r="3"/>
						<circle id="XMLID_25_" class="st20" cx="-16.6" cy="410.6" r="3"/>
						<circle id="XMLID_24_" class="st17" cx="-16.6" cy="410.6" r="2.6"/>
						<circle id="XMLID_23_" class="st18" cx="-16.1" cy="409.9" r="0.4"/>
						<circle id="XMLID_22_" class="st18" cx="-17" cy="411.8" r="0.4"/>
						<line id="XMLID_21_" class="st21" x1="-15.9" y1="409.9" x2="-16.8" y2="411.8"/>
						<line id="XMLID_20_" class="st21" x1="-16.2" y1="409.8" x2="-17.1" y2="411.7"/>
						<circle id="XMLID_19_" class="st18" cx="-15.6" cy="411.3" r="0.4"/>
						<circle id="XMLID_18_" class="st18" cx="-17.5" cy="410.4" r="0.4"/>
						<line id="XMLID_17_" class="st21" x1="-15.6" y1="411.5" x2="-17.5" y2="410.6"/>
						<line id="XMLID_16_" class="st21" x1="-15.5" y1="411.2" x2="-17.4" y2="410.3"/>
					</g>
					<g id="XMLID_2_">
						<path class="st11" d="M-20.6,417.1l4.2,0.3l4,1.2c0.3,0.1,0.2,0.5-0.1,0.4l-4.2-0.3l-4-1.2C-20.9,417.5-20.8,417.1-20.6,417.1
							z"/>
						<circle id="XMLID_14_" class="st5" cx="-17.9" cy="418" r="3.1"/>
						<circle id="XMLID_13_" class="st15" cx="-17.9" cy="417.9" r="3"/>
						<circle id="XMLID_12_" class="st20" cx="-17.9" cy="417.5" r="3"/>
						<circle id="XMLID_11_" class="st17" cx="-17.9" cy="417.5" r="2.6"/>
						<circle id="XMLID_10_" class="st18" cx="-17.4" cy="416.8" r="0.4"/>
						<circle id="XMLID_9_" class="st18" cx="-18.3" cy="418.7" r="0.4"/>
						<line id="XMLID_8_" class="st21" x1="-17.2" y1="416.8" x2="-18.1" y2="418.7"/>
						<line id="XMLID_7_" class="st21" x1="-17.5" y1="416.7" x2="-18.4" y2="418.6"/>
						<circle id="XMLID_6_" class="st18" cx="-16.9" cy="418.2" r="0.4"/>
						<circle id="XMLID_5_" class="st18" cx="-18.8" cy="417.3" r="0.4"/>
						<line id="XMLID_4_" class="st21" x1="-16.9" y1="418.3" x2="-18.8" y2="417.4"/>
						<line id="XMLID_3_" class="st21" x1="-16.8" y1="418.1" x2="-18.6" y2="417.2"/>
					</g>
				</g>
			</g>
		</g>
	</g>
	<g id="XMLID_1_" class="st0">
		<defs>
			<rect id="XMLID_4932_" x="-13.5" width="327.1" height="300"/>
		</defs>
		<clipPath id="XMLID_140_">
			<use xlink:href="#XMLID_4932_"  style="overflow:visible;"/>
		</clipPath>
	</g>
	<g class="st0">
		<path class="st22" d="M150.1,4.6c38.7,0,75.1,15.1,102.5,42.5c27.4,27.4,42.5,63.8,42.5,102.5s-15.1,75.1-42.5,102.5
			c-27.4,27.4-63.8,42.5-102.5,42.5S75,279.5,47.6,252.1C20.2,224.7,5.1,188.3,5.1,149.6S20.2,74.5,47.6,47.1
			C75,19.7,111.4,4.6,150.1,4.6 M150.1-0.4c-82.8,0-150,67.2-150,150s67.2,150,150,150s150-67.2,150-150S232.9-0.4,150.1-0.4
			L150.1-0.4z"/>
	</g>
</g>
</svg>
