<?xml version="1.0" encoding="utf-8"?>
<!-- Generator: Adobe Illustrator 19.0.0, SVG Export Plug-In . SVG Version: 6.00 Build 0)  -->
<svg version="1.1" id="Layer_1" xmlns="http://www.w3.org/2000/svg" xmlns:xlink="http://www.w3.org/1999/xlink" x="0px" y="0px"
	 viewBox="0 0 300 300" style="enable-background:new 0 0 300 300;" xml:space="preserve">
<style type="text/css">
	.st0{clip-path:url(#SVGID_2_);}
	.st1{clip-path:url(#XMLID_3_);}
	.st2{fill:#F1F1F2;stroke:#404041;stroke-miterlimit:10;}
	.st3{fill:#FFFFFF;stroke:#404041;stroke-miterlimit:10;}
	.st4{fill:#929497;}
	.st5{fill:#F1F1F2;}
	.st6{fill:#C5C7C9;}
	.st7{fill:none;stroke:#404041;stroke-miterlimit:10;}
	.st8{fill:none;stroke:#808184;stroke-width:0.5;stroke-miterlimit:10;}
	.st9{fill:none;stroke:#808184;stroke-width:0.5;stroke-miterlimit:10;stroke-dasharray:0.9993,1.9985;}
	.st10{fill:none;stroke:#808184;stroke-width:0.5;stroke-miterlimit:10;stroke-dasharray:1,2;}
	.st11{fill:#404041;stroke:#D0D2D3;stroke-width:0.5;stroke-miterlimit:10;}
	.st12{fill:none;stroke:#808184;stroke-width:0.5;stroke-miterlimit:10;stroke-dasharray:0.9943,1.9886;}
	.st13{fill:none;stroke:#808184;stroke-width:0.5;stroke-miterlimit:10;stroke-dasharray:1.0166,2.0331;}
	.st14{fill:none;stroke:#808184;stroke-width:0.5;stroke-miterlimit:10;stroke-dasharray:1.0177,2.0353;}
	.st15{fill:#DBDCDD;}
	.st16{fill:#FFFFFF;stroke:#6D6E70;stroke-miterlimit:10;}
	.st17{fill:#FFFFFF;stroke:#929497;stroke-width:0.25;stroke-miterlimit:10;}
	.st18{fill:#404041;}
	.st19{fill:none;stroke:#6D6E70;stroke-width:0.5;stroke-miterlimit:10;}
	.st20{fill:#FFFFFF;stroke:#6D6E70;stroke-width:0.5;stroke-miterlimit:10;}
	.st21{fill:none;stroke:#6D6E70;stroke-width:0.25;stroke-miterlimit:10;}
	.st22{fill:#9AA0BB;}
</style>
<g>
	<defs>
		<circle id="SVGID_1_" cx="150.1" cy="149.6" r="150"/>
	</defs>
	<use xlink:href="#SVGID_1_"  style="overflow:visible;fill:#DDDDDD;"/>
	<clipPath id="SVGID_2_">
		<use xlink:href="#SVGID_1_"  style="overflow:visible;"/>
	</clipPath>
	<g id="XMLID_254_" class="st0">
		<defs>
			<rect id="XMLID_4044_" x="-13.5" width="327.1" height="300"/>
		</defs>
		<clipPath id="XMLID_3_">
			<use xlink:href="#XMLID_4044_"  style="overflow:visible;"/>
		</clipPath>
		<g class="st1">
			<g>
				<g>
					<g>
						<polygon class="st2" points="174.4,35.3 184.3,46.4 147.3,210.9 115.5,46.4 125,35.3 						"/>
						<path class="st3" d="M174.8,30c0,0,0.1-0.6-24.9-0.6c-0.1,0-0.2,0-0.3,0c-0.1,0-0.2,0-0.3,0c-25,0-24.9,0.6-24.9,0.6l-3,10.9
							c0,0,4.1,1,13.9,1.4c3.8,0.2,8.8,0.3,14.4,0.3c5.7,0,10.1-0.1,13.9-0.3c9.9-0.4,13.9-1.4,13.9-1.4L174.8,30z"/>
						<g>
							<path class="st4" d="M129.1,29.7c0,0-2.6,2.9-2.4,6.6s0.4,4.9,0.4,4.9h-5.5l3-11.1L129.1,29.7z"/>
							<path class="st5" d="M130.1,29.6c-0.7,0-1.3,0-1.8,0.1c-1.5,2.4-1.5,9.3-1.4,11.8c0.8,0.1,1.7,0.1,2.7,0.2
								c-0.2-0.7-0.4-2.3-0.4-5.1C129.2,33.2,129.8,30.7,130.1,29.6z"/>
							<path class="st6" d="M128.5,29.7c-0.4,0-0.7,0-1,0c-0.6,0.5-1.2,1.4-1.4,2.9c-0.3,3.1-0.4,7-0.5,8.8c0.8,0.1,1.7,0.2,2.7,0.2
								C127.9,39,127.1,32,128.5,29.7z"/>
						</g>
						<g>
							<path class="st4" d="M170.1,29.7c0,0,2.6,2.9,2.4,6.6s-0.4,4.9-0.4,4.9h5.7L174.6,30L170.1,29.7z"/>
							<path class="st5" d="M169,29.6c0.7,0,1.3,0,1.8,0.1c1.5,2.4,1.5,9.3,1.4,11.8c-0.8,0.1-1.7,0.1-2.7,0.2
								c0.2-0.7,0.4-2.3,0.4-5.1C169.9,33.2,169.3,30.7,169,29.6z"/>
							<path class="st6" d="M170.6,29.7c0.4,0,0.7,0,1,0c0.6,0.5,1.2,1.4,1.4,2.9c0.3,3.1,0.4,7,0.5,8.8c-0.8,0.1-1.7,0.2-2.7,0.2
								C171.2,39,172.1,32,170.6,29.7z"/>
						</g>
						<path class="st7" d="M174.8,30c0,0,0.1-0.6-24.9-0.6c-0.1,0-0.2,0-0.3,0c-0.1,0-0.2,0-0.3,0c-25,0-24.9,0.6-24.9,0.6l-3,10.9
							c0,0,4.1,1,13.9,1.4c3.8,0.2,8.8,0.3,14.4,0.3c5.7,0,10.1-0.1,13.9-0.3c9.9-0.4,13.9-1.4,13.9-1.4L174.8,30z"/>
						<g>
							<polygon class="st4" points="126.3,63.9 149.9,158.9 173,63.9 157.9,195.1 149.1,215 142.2,193.9 							"/>
							<polygon class="st6" points="149.7,167.2 173.6,58.9 149.9,152 125.8,58.9 							"/>
						</g>
						<g>
							<g>
								<line class="st8" x1="149.9" y1="44" x2="149.9" y2="44.5"/>
								<line class="st9" x1="149.9" y1="46.5" x2="149.9" y2="198.4"/>
								<line class="st8" x1="149.9" y1="199.4" x2="149.9" y2="199.9"/>
							</g>
						</g>
						<path class="st4" d="M137,46.7l0.9,0.9c0,0,6.5-0.5,12-0.5c5.5,0,12.4,0.5,12.4,0.5l0.6-0.9H137z"/>
						<path class="st6" d="M137.7,47.4l0.7,0.7c0,0,6.1-0.5,11.5-0.5c5.4,0,12.2,0.5,12.2,0.5l0.4-0.7l-12.5-0.2L137.7,47.4z"/>
						<path class="st3" d="M149.9,42.5c-5.7,0-10.4,0-14.3-0.2l1.6,4.4h12.6h0.1h12.6l1.6-4.4C160.4,42.5,155.6,42.5,149.9,42.5z"/>
					</g>
					<path class="st2" d="M162.6,437.7c0-0.7,0-25.3,0-25.3h-25.4v25.3H162.6z"/>
					<g>
						<polygon class="st4" points="150.1,421.8 140.3,443.8 149.9,408.7 159.9,444.2 						"/>
						<polygon class="st6" points="149.9,426.2 140.3,443.8 149.9,418.8 159.9,444.2 						"/>
					</g>
					<path class="st3" d="M163.5,289.1c-2.3-52.5-4.9-38.4-4.9-38.4l-4.5-37.8l-3.5-7.6c-5.4-27.1-12.1-60.6-13.4-69.8
						c-2.2-14.9-16.3-62.4-16.3-62.4c-4.5-28.7,4.2-43,4.2-43s-21.6,12.3-26,15.2c-2.3,1.5-22.2,10.3-39.2,18.1
						C39.3,72.9,36.5,78,36.5,78c15.9,9.8,19.2,45.2,19.5,86.6c0.3,41.5-11.2,112.2-12.6,149c-1.5,38.2-9.3,132-9.3,132
						s68.2,17.4,86.9,12.3c18.6-5.1,20.1-15.6,23.8-25.2l5.5-19.2C150.1,413.5,165.8,341.6,163.5,289.1z"/>
					<g>
						<path class="st5" d="M56.2,239.3c6-41.1,3.4-74.1-0.7-99.9c0.8,5.1,1.2,14.1,1.3,15.4c0.7,8.7,1.4,17.7,1.2,26.4
							c-0.2,18.2-1.5,39.1-4.8,62c-2.8,19.6-4.9,28.3-6.4,31.7c-0.3,2.8-0.6,5.5-0.8,8.2C49.7,282.9,52.3,265.7,56.2,239.3z"/>
						<path class="st6" d="M52.5,222.6c-1.8,17.7-3.9,35.8-5.7,52.3c1.5-3.4,3.6-12.1,6.4-31.7c3.3-22.9,4.9-41.7,4.9-72.4l0-0.1
							c0.3-11.1-2.7-31.8-2.7-30.9C57.1,164.5,54.2,207.9,52.5,222.6z"/>
					</g>
					<path class="st3" d="M55.9,164.6c-0.3-38.9-3.2-72.4-16.6-84.5l-2.8-1.6c0,0-4.3-1.4-8.8,19.9C23.1,119.7-25,422.2-25,422.2
						s8,7,24.6,7.6c16.6,0.6,25-3.5,25-3.5l26.1-188.7C53.5,211.2,56.1,184.5,55.9,164.6z"/>
					<g>
						<path class="st5" d="M149.6,196.9c0,0-18.8,44.7-18.8,108.2s21,109.4,21,109.4l-2.2-77.1l3.1-135L149.6,196.9z"/>
						<path class="st6" d="M152.3,196.9c0,0-18.8,44.7-18.8,108.2s21,109.4,21,109.4l-2.2-77.1l3.1-135L152.3,196.9z"/>
					</g>
					<g>
						<path class="st3" d="M244.1,164.6c0.3-41.5,3.6-76.8,19.5-86.6c0,0-2.9-5.1-23.5-14.6c-19.4-9-35.7-16-42.1-19.7
							c-0.4-0.2-0.8-0.4-1.1-0.6c-5.5-3.4-22.1-13.1-22.1-13.1s6.7,5.6,2.2,34.3c0,0-13,56.2-15.1,71.1
							c-2.2,14.9-19.1,92.9-21.1,104.7c-0.5,3.1-1,6-1.4,8.6c-0.9,5.7-1,11.7-1.3,13.5c-0.5,6-1.1,14.6-1.6,26.8
							c-2.3,52.5,13.3,124.4,13.3,124.4l5.7,19.4c3.7,9.7,4.9,19.9,23.6,25c18.6,5.1,84.4-12.3,84.4-12.3s-5.4-93.8-6.9-132
							C255.3,276.8,243.8,206.1,244.1,164.6z"/>
					</g>
					<g>
						<path class="st5" d="M243.8,239.3c-6-41.1-3.4-74.1,0.7-99.9c-0.8,5.1-1.2,14.1-1.3,15.4c-0.7,8.7-1.4,17.7-1.2,26.4
							c0.2,18.2,1.5,39.1,4.8,62c2.8,19.6,4.9,28.3,6.4,31.7c0.3,2.8,0.6,5.5,0.8,8.2C250.2,282.9,247.6,265.7,243.8,239.3z"/>
						<path class="st6" d="M247.5,222.6c1.8,17.7,3.9,35.8,5.7,52.3c-1.5-3.4-3.6-12.1-6.4-31.7c-3.3-22.9-4.9-41.7-4.9-72.4l0-0.1
							c-0.3-11.1,2.7-31.8,2.7-30.9C242.9,164.5,245.7,207.9,247.5,222.6z"/>
					</g>
					<path class="st3" d="M272.4,97.8c-4.5-21.3-8.8-19.9-8.8-19.9l0,0c-15.9,9.8-19.2,45.2-19.5,86.6c-0.1,19.3,2.3,45,5,70.6
						l26.3,190.6c0,0,8.4,4.1,25,3.5c16.6-0.6,24.6-7.6,24.6-7.6S276.9,119.2,272.4,97.8z"/>
				</g>
			</g>
			<g>
				<polygon class="st5" points="233.2,168.9 233.2,166.4 173.8,168.1 173.8,170.6 				"/>
				<polygon class="st6" points="233.2,169.9 233.2,167.4 173.8,169.1 173.8,171.6 				"/>
				<path class="st3" d="M233,168.5v13.7c0,0.5-0.4,0.9-0.9,0.9l-56.8,1.2c-0.5,0-0.9-0.4-0.9-0.9v-13.2L233,168.5z"/>
				<line class="st10" x1="174.5" y1="170.8" x2="233" y2="169.1"/>
			</g>
			<g>
				<g>
					<path class="st5" d="M90.6,85.3c0,0-2.2-0.2-2,3.7c0.4,6.1,32.8,70.9,47.8,101.4c3.3,6.6,7.9,14.8,12.1,24.6
						c2.4,5.7,3.4-6.5,3.4-6.5l-3-13.3L95.7,93.8L90.6,85.3z"/>
					<path class="st6" d="M91.5,84.7c0,0-3.3,1.9-2.1,5.7c2.4,7.9,41.3,84.8,49.7,101.3c3,5.9,6.5,12,9.9,20.1
						c1.1,2.7,1.2-3.2,1.7-2.8c0.4,0.3,1-7.5,1-7.5l-1.1-5L97.3,95L91.5,84.7z"/>
					<polygon class="st5" points="111,44.4 99.1,83.9 115.7,97 116.6,101.6 108.1,55.5 					"/>
					<polygon class="st6" points="111,44.4 100.5,83.9 113.7,92.8 118.4,96 119.4,101.6 111,55.5 					"/>
				</g>
				<path class="st3" d="M126.3,30c0,0-10.4,3-14.1,11.5C108.6,50,102,83.1,102,83.1l15.1,7.9c0,0-23.7-7.9-26.5-5.7
					c-1.7,1.4,0.2,6.5,4.1,15.8c3.4,8,28.9,56.4,41.9,85.1c4.3,9.6,7.9,15.8,10.8,23.2c2.1,5.4,5.5-10.7,4.9-14.2
					c-5.5-33.4-13.9-72.2-18.7-97.7c-5.5-29.8-10.3-44.8-10.3-53.7S126.3,30,126.3,30z"/>
				<line class="st10" x1="129" y1="74.2" x2="117.1" y2="91"/>
				<g>
					<polygon class="st5" points="149.7,178.2 144.2,201.2 146.2,205.2 150.2,186.3 					"/>
					<polygon class="st6" points="150.5,180.3 144.3,202.8 146.2,207.5 151,188.5 					"/>
				</g>
				<g>
					<path class="st5" d="M209.5,85.3c0,0,2.2-0.2,2,3.7c-0.4,6.1-32.8,73.2-47.8,103.7c-7.6,15.4-22.5,47.3-22.5,47.3l10-40.2
						l53.2-101.5L209.5,85.3z"/>
					<path class="st6" d="M208.6,84.7c0,0,3.3,1.9,2.1,5.7c-2.4,7.9-41.3,87.1-49.7,103.6s-21,46.7-21,46.7l9.5-39.6l53.2-101.5
						L208.6,84.7z"/>
					<polygon class="st5" points="189.1,44.4 201,83.9 184.3,97 183.5,101.6 192,55.5 					"/>
					<polygon class="st6" points="189.1,44.4 199.5,83.9 186.3,92.8 181.7,96 180.6,101.6 189.1,55.5 					"/>
				</g>
				<path class="st3" d="M173.7,30c0,0,10.4,3,14.1,11.5c3.7,8.5,10.3,41.6,10.3,41.6L183,91c0,0,23.7-7.9,26.5-5.7
					c1.7,1.4-0.2,6.5-4.1,15.8c-3.4,8-28.9,58.7-41.9,87.4c-13.5,30-19.3,44.3-22.6,52.2c0,0-0.7-3.9,4.4-31.4
					c5.1-27.6,15.6-82.1,21.1-111.9c5.5-29.8,10.3-44.8,10.3-53.7S173.7,30,173.7,30z"/>
				<path class="st11" d="M200.1,92.5l-2.8,1c-0.8,0.2-1.6,0.5-2.3,0.9l-2.6,1.2c-0.2,0.1-0.1,0.5,0.2,0.4l2.7-0.9
					c0.8-0.2,1.5-0.5,2.3-0.9l2.8-1.3C200.5,92.8,200.3,92.5,200.1,92.5z"/>
				<line class="st10" x1="171" y1="74.2" x2="183" y2="91"/>
			</g>
			<g>
				<g>
					<g>
						<g>
							<line class="st8" x1="204.1" y1="206" x2="204.1" y2="206.5"/>
							<line class="st12" x1="204.1" y1="208.4" x2="204.1" y2="311.8"/>
							<line class="st8" x1="204.1" y1="312.8" x2="204.1" y2="313.3"/>
						</g>
					</g>
					<g>
						<path class="st5" d="M195.8,317l-1.3,17.7c-0.6,10.1,4.2,13.2,9.2,13.2h54.7l-0.2-4.6L195.8,317z"/>
						<path class="st6" d="M195.8,316.4l-0.6,14.5c-0.6,10.1,2.8,15.7,8.6,15.7h54.6l-0.2-4.6L195.8,316.4z"/>
						<path class="st3" d="M195.8,320.9v-5.1h61.5l1.5,29.8h-53.7c-7.1,0-9.2-8.4-9.2-15.5v0V320.9z"/>
						<g>
							<g>
								<line class="st8" x1="196.3" y1="318.9" x2="196.8" y2="318.9"/>
								<line class="st13" x1="198.8" y1="318.9" x2="255.8" y2="318.9"/>
								<line class="st8" x1="256.8" y1="318.9" x2="257.3" y2="318.9"/>
							</g>
						</g>
					</g>
				</g>
				<g>
					<g>
						<g>
							<line class="st8" x1="97.1" y1="206" x2="97.1" y2="206.5"/>
							<line class="st12" x1="97.1" y1="208.4" x2="97.1" y2="311.8"/>
							<line class="st8" x1="97.1" y1="312.8" x2="97.1" y2="313.3"/>
						</g>
					</g>
					<g>
						<path class="st5" d="M105.4,317l1.3,17.7c0.6,10.1-4.2,13.2-9.2,13.2H42.8l0.2-4.6L105.4,317z"/>
						<path class="st6" d="M105.4,316.4l0.6,14.5c0.6,10.1-2.8,15.7-8.6,15.7H42.8l0.2-4.6L105.4,316.4z"/>
						<path class="st3" d="M105.4,320.9v-5.1H43.9l-1.5,29.8h53.7c7.1,0,9.2-8.4,9.2-15.5v0V320.9z"/>
						<g>
							<g>
								<line class="st8" x1="105" y1="318.9" x2="104.5" y2="318.9"/>
								<line class="st14" x1="102.4" y1="318.9" x2="45.4" y2="318.9"/>
								<line class="st8" x1="44.4" y1="318.9" x2="43.9" y2="318.9"/>
							</g>
						</g>
					</g>
				</g>
			</g>
			<g>
				<g id="XMLID_8783_">
					<circle id="XMLID_8798_" class="st5" cx="152.6" cy="242.2" r="6"/>
					<circle id="XMLID_8797_" class="st15" cx="152.7" cy="241.9" r="5.8"/>
					<polygon id="XMLID_8796_" class="st11" points="160.1,241.7 152.8,240.3 144.6,241.7 152.8,243.2 					"/>
					<circle id="XMLID_8795_" class="st16" cx="152.6" cy="241.2" r="5.8"/>
					<circle id="XMLID_8794_" class="st17" cx="152.6" cy="241.2" r="5"/>
					<circle id="XMLID_8793_" class="st18" cx="151.6" cy="239.9" r="0.7"/>
					<circle id="XMLID_8792_" class="st18" cx="153.4" cy="243.4" r="0.7"/>
					<line id="XMLID_8791_" class="st19" x1="151.3" y1="239.9" x2="153.1" y2="243.4"/>
					<line id="XMLID_8790_" class="st19" x1="151.8" y1="239.7" x2="153.5" y2="243.2"/>
					<line id="XMLID_8789_" class="st19" x1="151.3" y1="239.9" x2="153.1" y2="243.4"/>
					<line id="XMLID_8788_" class="st19" x1="151.8" y1="239.7" x2="153.5" y2="243.2"/>
					<circle id="XMLID_8787_" class="st18" cx="150.7" cy="242.5" r="0.7"/>
					<circle id="XMLID_8786_" class="st18" cx="154.3" cy="240.8" r="0.7"/>
					<line id="XMLID_8785_" class="st19" x1="150.7" y1="242.8" x2="154.3" y2="241.1"/>
					<line id="XMLID_8784_" class="st19" x1="150.5" y1="242.3" x2="154.1" y2="240.6"/>
				</g>
				<g id="XMLID_8767_">
					<circle id="XMLID_8782_" class="st5" cx="152.6" cy="307.8" r="6"/>
					<circle id="XMLID_8781_" class="st15" cx="152.7" cy="307.5" r="5.8"/>
					<polygon id="XMLID_8780_" class="st11" points="160.1,307.3 152.8,305.9 144.6,307.3 152.8,308.8 					"/>
					<circle id="XMLID_8779_" class="st16" cx="152.6" cy="306.8" r="5.8"/>
					<circle id="XMLID_8778_" class="st17" cx="152.6" cy="306.8" r="5"/>
					<circle id="XMLID_8777_" class="st18" cx="151.6" cy="305.5" r="0.7"/>
					<circle id="XMLID_8776_" class="st18" cx="153.4" cy="309" r="0.7"/>
					<line id="XMLID_8775_" class="st19" x1="151.3" y1="305.5" x2="153.1" y2="309"/>
					<line id="XMLID_8774_" class="st19" x1="151.8" y1="305.3" x2="153.5" y2="308.8"/>
					<line id="XMLID_8773_" class="st19" x1="151.3" y1="305.5" x2="153.1" y2="309"/>
					<line id="XMLID_8772_" class="st19" x1="151.8" y1="305.3" x2="153.5" y2="308.8"/>
					<circle id="XMLID_8771_" class="st18" cx="150.7" cy="308.1" r="0.7"/>
					<circle id="XMLID_8770_" class="st18" cx="154.3" cy="306.4" r="0.7"/>
					<line id="XMLID_8769_" class="st19" x1="150.7" y1="308.4" x2="154.3" y2="306.7"/>
					<line id="XMLID_8768_" class="st19" x1="150.5" y1="307.9" x2="154.1" y2="306.2"/>
				</g>
			</g>
			<g>
				<g>
					<g id="XMLID_10540_">
						<path class="st11" d="M318.4,402.9l-4.2,0.3l-4,1.2c-0.3,0.1-0.2,0.5,0.1,0.4l4.2-0.3l4-1.2
							C318.7,403.2,318.7,402.8,318.4,402.9z"/>
						<circle id="XMLID_10552_" class="st5" cx="315.7" cy="403.8" r="3.1"/>
						<circle id="XMLID_10551_" class="st15" cx="315.8" cy="403.7" r="3"/>
						<circle id="XMLID_10550_" class="st20" cx="315.7" cy="403.3" r="3"/>
						<circle id="XMLID_10549_" class="st17" cx="315.7" cy="403.3" r="2.6"/>
						<circle id="XMLID_10548_" class="st18" cx="315.2" cy="402.6" r="0.4"/>
						<circle id="XMLID_10547_" class="st18" cx="316.1" cy="404.4" r="0.4"/>
						<line id="XMLID_10546_" class="st21" x1="315.1" y1="402.6" x2="316" y2="404.4"/>
						<line id="XMLID_10545_" class="st21" x1="315.3" y1="402.5" x2="316.2" y2="404.3"/>
						<circle id="XMLID_10544_" class="st18" cx="314.7" cy="404" r="0.4"/>
						<circle id="XMLID_10543_" class="st18" cx="316.6" cy="403.1" r="0.4"/>
						<line id="XMLID_10542_" class="st21" x1="314.7" y1="404.1" x2="316.6" y2="403.2"/>
						<line id="XMLID_10541_" class="st21" x1="314.6" y1="403.9" x2="316.5" y2="403"/>
					</g>
					<g id="XMLID_10527_">
						<path class="st11" d="M317.1,396l-4.2,0.3l-4,1.2c-0.3,0.1-0.2,0.5,0.1,0.4l4.2-0.3l4-1.2C317.5,396.3,317.4,396,317.1,396z"
							/>
						<circle id="XMLID_10539_" class="st5" cx="314.4" cy="396.9" r="3.1"/>
						<circle id="XMLID_10538_" class="st15" cx="314.5" cy="396.8" r="3"/>
						<circle id="XMLID_10537_" class="st20" cx="314.4" cy="396.4" r="3"/>
						<circle id="XMLID_10536_" class="st17" cx="314.4" cy="396.4" r="2.6"/>
						<circle id="XMLID_10535_" class="st18" cx="313.9" cy="395.7" r="0.4"/>
						<circle id="XMLID_10534_" class="st18" cx="314.8" cy="397.6" r="0.4"/>
						<line id="XMLID_10533_" class="st21" x1="313.8" y1="395.7" x2="314.7" y2="397.6"/>
						<line id="XMLID_10532_" class="st21" x1="314" y1="395.6" x2="314.9" y2="397.5"/>
						<circle id="XMLID_10531_" class="st18" cx="313.5" cy="397.1" r="0.4"/>
						<circle id="XMLID_10530_" class="st18" cx="315.3" cy="396.2" r="0.4"/>
						<line id="XMLID_10529_" class="st21" x1="313.5" y1="397.2" x2="315.3" y2="396.3"/>
						<line id="XMLID_10528_" class="st21" x1="313.4" y1="397" x2="315.2" y2="396.1"/>
					</g>
					<g id="XMLID_10514_">
						<path class="st11" d="M319.7,409.7l-4.2,0.3l-4,1.2c-0.3,0.1-0.2,0.5,0.1,0.4l4.2-0.3l4-1.2C320,410.1,320,409.7,319.7,409.7z
							"/>
						<circle id="XMLID_10526_" class="st5" cx="317" cy="410.7" r="3.1"/>
						<circle id="XMLID_10525_" class="st15" cx="317" cy="410.6" r="3"/>
						<circle id="XMLID_10524_" class="st20" cx="317" cy="410.1" r="3"/>
						<circle id="XMLID_10523_" class="st17" cx="317" cy="410.1" r="2.6"/>
						<circle id="XMLID_10522_" class="st18" cx="316.5" cy="409.5" r="0.4"/>
						<circle id="XMLID_10521_" class="st18" cx="317.4" cy="411.3" r="0.4"/>
						<line id="XMLID_10520_" class="st21" x1="316.3" y1="409.5" x2="317.3" y2="411.3"/>
						<line id="XMLID_10519_" class="st21" x1="316.6" y1="409.4" x2="317.5" y2="411.2"/>
						<circle id="XMLID_10518_" class="st18" cx="316" cy="410.8" r="0.4"/>
						<circle id="XMLID_10517_" class="st18" cx="317.9" cy="409.9" r="0.4"/>
						<line id="XMLID_10516_" class="st21" x1="316" y1="411" x2="317.9" y2="410.1"/>
						<line id="XMLID_10515_" class="st21" x1="315.9" y1="410.7" x2="317.8" y2="409.8"/>
					</g>
					<g id="XMLID_10501_">
						<path class="st11" d="M321,416.6l-4.2,0.3l-4,1.2c-0.3,0.1-0.2,0.5,0.1,0.4l4.2-0.3l4-1.2C321.3,417,321.2,416.6,321,416.6z"
							/>
						<circle id="XMLID_10513_" class="st5" cx="318.3" cy="417.6" r="3.1"/>
						<circle id="XMLID_10512_" class="st15" cx="318.3" cy="417.4" r="3"/>
						<circle id="XMLID_10511_" class="st20" cx="318.3" cy="417" r="3"/>
						<circle id="XMLID_10510_" class="st17" cx="318.3" cy="417" r="2.6"/>
						<circle id="XMLID_10509_" class="st18" cx="317.8" cy="416.3" r="0.4"/>
						<circle id="XMLID_10508_" class="st18" cx="318.7" cy="418.2" r="0.4"/>
						<line id="XMLID_10507_" class="st21" x1="317.6" y1="416.3" x2="318.5" y2="418.2"/>
						<line id="XMLID_10506_" class="st21" x1="317.9" y1="416.2" x2="318.8" y2="418.1"/>
						<circle id="XMLID_10505_" class="st18" cx="317.3" cy="417.7" r="0.4"/>
						<circle id="XMLID_10504_" class="st18" cx="319.2" cy="416.8" r="0.4"/>
						<line id="XMLID_10503_" class="st21" x1="317.3" y1="417.9" x2="319.2" y2="417"/>
						<line id="XMLID_10502_" class="st21" x1="317.2" y1="417.6" x2="319.1" y2="416.7"/>
					</g>
				</g>
				<g>
					<g id="XMLID_10488_">
						<path class="st11" d="M-18.6,402.9l4.2,0.3l4,1.2c0.3,0.1,0.2,0.5-0.1,0.4l-4.2-0.3l-4-1.2C-19,403.2-18.9,402.8-18.6,402.9z"
							/>
						<circle id="XMLID_10500_" class="st5" cx="-15.9" cy="403.8" r="3.1"/>
						<circle id="XMLID_10499_" class="st15" cx="-16" cy="403.7" r="3"/>
						<circle id="XMLID_10498_" class="st20" cx="-15.9" cy="403.3" r="3"/>
						<circle id="XMLID_10497_" class="st17" cx="-15.9" cy="403.3" r="2.6"/>
						<circle id="XMLID_10496_" class="st18" cx="-15.4" cy="402.6" r="0.4"/>
						<circle id="XMLID_10495_" class="st18" cx="-16.3" cy="404.4" r="0.4"/>
						<line id="XMLID_10494_" class="st21" x1="-15.3" y1="402.6" x2="-16.2" y2="404.4"/>
						<line id="XMLID_10493_" class="st21" x1="-15.5" y1="402.5" x2="-16.4" y2="404.3"/>
						<circle id="XMLID_10492_" class="st18" cx="-15" cy="404" r="0.4"/>
						<circle id="XMLID_10491_" class="st18" cx="-16.8" cy="403.1" r="0.4"/>
						<line id="XMLID_10490_" class="st21" x1="-15" y1="404.1" x2="-16.8" y2="403.2"/>
						<line id="XMLID_10489_" class="st21" x1="-14.9" y1="403.9" x2="-16.7" y2="403"/>
					</g>
					<g id="XMLID_10475_">
						<path class="st11" d="M-17.3,396l4.2,0.3l4,1.2c0.3,0.1,0.2,0.5-0.1,0.4l-4.2-0.3l-4-1.2C-17.7,396.3-17.6,396-17.3,396z"/>
						<circle id="XMLID_10487_" class="st5" cx="-14.6" cy="396.9" r="3.1"/>
						<circle id="XMLID_10486_" class="st15" cx="-14.7" cy="396.8" r="3"/>
						<circle id="XMLID_10485_" class="st20" cx="-14.6" cy="396.4" r="3"/>
						<circle id="XMLID_10484_" class="st17" cx="-14.6" cy="396.4" r="2.6"/>
						<circle id="XMLID_10483_" class="st18" cx="-14.1" cy="395.7" r="0.4"/>
						<circle id="XMLID_10482_" class="st18" cx="-15.1" cy="397.6" r="0.4"/>
						<line id="XMLID_10481_" class="st21" x1="-14" y1="395.7" x2="-14.9" y2="397.6"/>
						<line id="XMLID_10480_" class="st21" x1="-14.2" y1="395.6" x2="-15.2" y2="397.5"/>
						<circle id="XMLID_10479_" class="st18" cx="-13.7" cy="397.1" r="0.4"/>
						<circle id="XMLID_10478_" class="st18" cx="-15.5" cy="396.2" r="0.4"/>
						<line id="XMLID_10477_" class="st21" x1="-13.7" y1="397.2" x2="-15.5" y2="396.3"/>
						<line id="XMLID_10476_" class="st21" x1="-13.6" y1="397" x2="-15.4" y2="396.1"/>
					</g>
					<g id="XMLID_10462_">
						<path class="st11" d="M-19.9,409.7l4.2,0.3l4,1.2c0.3,0.1,0.2,0.5-0.1,0.4l-4.2-0.3l-4-1.2C-20.2,410.1-20.2,409.7-19.9,409.7
							z"/>
						<circle id="XMLID_10474_" class="st5" cx="-17.2" cy="410.7" r="3.1"/>
						<circle id="XMLID_10473_" class="st15" cx="-17.3" cy="410.6" r="3"/>
						<circle id="XMLID_10472_" class="st20" cx="-17.2" cy="410.1" r="3"/>
						<circle id="XMLID_10471_" class="st17" cx="-17.2" cy="410.1" r="2.6"/>
						<circle id="XMLID_10470_" class="st18" cx="-16.7" cy="409.5" r="0.4"/>
						<circle id="XMLID_10469_" class="st18" cx="-17.6" cy="411.3" r="0.4"/>
						<line id="XMLID_10468_" class="st21" x1="-16.6" y1="409.5" x2="-17.5" y2="411.3"/>
						<line id="XMLID_10467_" class="st21" x1="-16.8" y1="409.4" x2="-17.7" y2="411.2"/>
						<circle id="XMLID_10466_" class="st18" cx="-16.2" cy="410.8" r="0.4"/>
						<circle id="XMLID_10465_" class="st18" cx="-18.1" cy="409.9" r="0.4"/>
						<line id="XMLID_10464_" class="st21" x1="-16.2" y1="411" x2="-18.1" y2="410.1"/>
						<line id="XMLID_10463_" class="st21" x1="-16.1" y1="410.7" x2="-18" y2="409.8"/>
					</g>
					<g id="XMLID_10449_">
						<path class="st11" d="M-21.2,416.6l4.2,0.3l4,1.2c0.3,0.1,0.2,0.5-0.1,0.4l-4.2-0.3l-4-1.2C-21.5,417-21.4,416.6-21.2,416.6z"
							/>
						<circle id="XMLID_10461_" class="st5" cx="-18.5" cy="417.6" r="3.1"/>
						<circle id="XMLID_10460_" class="st15" cx="-18.5" cy="417.4" r="3"/>
						<circle id="XMLID_10459_" class="st20" cx="-18.5" cy="417" r="3"/>
						<circle id="XMLID_10458_" class="st17" cx="-18.5" cy="417" r="2.6"/>
						<circle id="XMLID_10457_" class="st18" cx="-18" cy="416.3" r="0.4"/>
						<circle id="XMLID_10456_" class="st18" cx="-18.9" cy="418.2" r="0.4"/>
						<line id="XMLID_10455_" class="st21" x1="-17.8" y1="416.3" x2="-18.7" y2="418.2"/>
						<line id="XMLID_10454_" class="st21" x1="-18.1" y1="416.2" x2="-19" y2="418.1"/>
						<circle id="XMLID_10453_" class="st18" cx="-17.5" cy="417.7" r="0.4"/>
						<circle id="XMLID_10452_" class="st18" cx="-19.4" cy="416.8" r="0.4"/>
						<line id="XMLID_10451_" class="st21" x1="-17.5" y1="417.9" x2="-19.4" y2="417"/>
						<line id="XMLID_10450_" class="st21" x1="-17.4" y1="417.6" x2="-19.3" y2="416.7"/>
					</g>
				</g>
			</g>
		</g>
	</g>
	<g id="XMLID_1_" class="st0">
		<defs>
			<rect id="XMLID_4932_" x="-13.5" width="327.1" height="300"/>
		</defs>
		<clipPath id="XMLID_4_">
			<use xlink:href="#XMLID_4932_"  style="overflow:visible;"/>
		</clipPath>
	</g>
	<g class="st0">
		<path class="st22" d="M150.1,4.6c38.7,0,75.1,15.1,102.5,42.5c27.4,27.4,42.5,63.8,42.5,102.5s-15.1,75.1-42.5,102.5
			c-27.4,27.4-63.8,42.5-102.5,42.5S75,279.5,47.6,252.1C20.2,224.7,5.1,188.3,5.1,149.6S20.2,74.5,47.6,47.1
			C75,19.7,111.4,4.6,150.1,4.6 M150.1-0.4c-82.8,0-150,67.2-150,150s67.2,150,150,150s150-67.2,150-150S232.9-0.4,150.1-0.4
			L150.1-0.4z"/>
	</g>
</g>
</svg>
