<?xml version="1.0" encoding="utf-8"?>
<!-- Generator: Adobe Illustrator 19.0.0, SVG Export Plug-In . SVG Version: 6.00 Build 0)  -->
<svg version="1.1" id="Layer_1" xmlns="http://www.w3.org/2000/svg" xmlns:xlink="http://www.w3.org/1999/xlink" x="0px" y="0px"
	 viewBox="0 0 300 300" style="enable-background:new 0 0 300 300;" xml:space="preserve">
<style type="text/css">
	.st0{clip-path:url(#SVGID_2_);}
	.st1{clip-path:url(#XMLID_3_);}
	.st2{fill:#F1F1F2;stroke:#404041;stroke-miterlimit:10;}
	.st3{fill:#FFFFFF;stroke:#404041;stroke-miterlimit:10;}
	.st4{fill:#929497;}
	.st5{fill:#F1F1F2;}
	.st6{fill:#C5C7C9;}
	.st7{fill:none;stroke:#404041;stroke-miterlimit:10;}
	.st8{fill:none;stroke:#808184;stroke-width:0.5;stroke-miterlimit:10;}
	.st9{fill:none;stroke:#808184;stroke-width:0.5;stroke-miterlimit:10;stroke-dasharray:0.9993,1.9985;}
	.st10{fill:none;stroke:#808184;stroke-width:0.5;stroke-miterlimit:10;stroke-dasharray:1,2;}
	.st11{fill:#404041;stroke:#D0D2D3;stroke-width:0.5;stroke-miterlimit:10;}
	.st12{fill:none;stroke:#808184;stroke-width:0.5;stroke-miterlimit:10;stroke-dasharray:0.9943,1.9886;}
	.st13{fill:none;stroke:#808184;stroke-width:0.5;stroke-miterlimit:10;stroke-dasharray:1.0166,2.0331;}
	.st14{fill:none;stroke:#808184;stroke-width:0.5;stroke-miterlimit:10;stroke-dasharray:1.0177,2.0353;}
	.st15{fill:#DBDCDD;}
	.st16{fill:#FFFFFF;stroke:#6D6E70;stroke-miterlimit:10;}
	.st17{fill:#FFFFFF;stroke:#929497;stroke-width:0.25;stroke-miterlimit:10;}
	.st18{fill:#404041;}
	.st19{fill:none;stroke:#6D6E70;stroke-width:0.5;stroke-miterlimit:10;}
	.st20{fill:#FFFFFF;stroke:#6D6E70;stroke-width:0.5;stroke-miterlimit:10;}
	.st21{fill:none;stroke:#6D6E70;stroke-width:0.25;stroke-miterlimit:10;}
	.st22{fill:#9AA0BB;}
</style>
<g>
	<defs>
		<circle id="SVGID_1_" cx="150.1" cy="149.6" r="150"/>
	</defs>
	<use xlink:href="#SVGID_1_"  style="overflow:visible;fill:#DDDDDD;"/>
	<clipPath id="SVGID_2_">
		<use xlink:href="#SVGID_1_"  style="overflow:visible;"/>
	</clipPath>
	<g id="XMLID_254_" class="st0">
		<defs>
			<rect id="XMLID_4044_" x="-13.5" width="327.1" height="300"/>
		</defs>
		<clipPath id="XMLID_3_">
			<use xlink:href="#XMLID_4044_"  style="overflow:visible;"/>
		</clipPath>
		<g class="st1">
			<g>
				<g>
					<g>
						<polygon class="st2" points="174.4,35.3 184.3,46.4 147.3,210.9 115.5,46.4 125,35.3 						"/>
						<path class="st3" d="M174.8,30c0,0,0.1-0.6-24.9-0.6c-0.1,0-0.2,0-0.3,0c-0.1,0-0.2,0-0.3,0c-25,0-24.9,0.6-24.9,0.6l-3,10.9
							c0,0,4.1,1,13.9,1.4c3.8,0.2,8.8,0.3,14.4,0.3c5.7,0,10.1-0.1,13.9-0.3c9.9-0.4,13.9-1.4,13.9-1.4L174.8,30z"/>
						<g>
							<path class="st4" d="M129.1,29.7c0,0-2.6,2.9-2.4,6.6c0.2,3.7,0.4,4.9,0.4,4.9h-5.5l3-11.1L129.1,29.7z"/>
							<path class="st5" d="M130.1,29.6c-0.7,0-1.3,0-1.8,0.1c-1.5,2.4-1.5,9.3-1.4,11.8c0.8,0.1,1.7,0.1,2.7,0.2
								c-0.2-0.7-0.4-2.3-0.4-5.1C129.2,33.2,129.8,30.7,130.1,29.6z"/>
							<path class="st6" d="M128.5,29.7c-0.4,0-0.7,0-1,0c-0.6,0.5-1.2,1.4-1.4,2.9c-0.3,3.1-0.4,7-0.5,8.8c0.8,0.1,1.7,0.2,2.7,0.2
								C127.9,39,127.1,32,128.5,29.7z"/>
						</g>
						<g>
							<path class="st4" d="M170.1,29.7c0,0,2.6,2.9,2.4,6.6c-0.2,3.7-0.4,4.9-0.4,4.9h5.7L174.6,30L170.1,29.7z"/>
							<path class="st5" d="M169,29.6c0.7,0,1.3,0,1.8,0.1c1.5,2.4,1.5,9.3,1.4,11.8c-0.8,0.1-1.7,0.1-2.7,0.2
								c0.2-0.7,0.4-2.3,0.4-5.1C169.9,33.2,169.3,30.7,169,29.6z"/>
							<path class="st6" d="M170.6,29.7c0.4,0,0.7,0,1,0c0.6,0.5,1.2,1.4,1.4,2.9c0.3,3.1,0.4,7,0.5,8.8c-0.8,0.1-1.7,0.2-2.7,0.2
								C171.2,39,172.1,32,170.6,29.7z"/>
						</g>
						<path class="st7" d="M174.8,30c0,0,0.1-0.6-24.9-0.6c-0.1,0-0.2,0-0.3,0c-0.1,0-0.2,0-0.3,0c-25,0-24.9,0.6-24.9,0.6l-3,10.9
							c0,0,4.1,1,13.9,1.4c3.8,0.2,8.8,0.3,14.4,0.3c5.7,0,10.1-0.1,13.9-0.3c9.9-0.4,13.9-1.4,13.9-1.4L174.8,30z"/>
						<g>
							<polygon class="st4" points="126.3,63.9 149.9,174.5 173,63.9 157.9,195.1 149.1,215 142.2,193.9 							"/>
							<polygon class="st6" points="149.7,178.8 173.6,58.9 149.9,152 125.8,58.9 							"/>
						</g>
						<g>
							<g>
								<line class="st8" x1="149.9" y1="44" x2="149.9" y2="44.5"/>
								<line class="st9" x1="149.9" y1="46.5" x2="149.9" y2="198.4"/>
								<line class="st8" x1="149.9" y1="199.4" x2="149.9" y2="199.9"/>
							</g>
						</g>
						<path class="st4" d="M137,46.7l0.9,0.9c0,0,6.5-0.5,12-0.5c5.5,0,12.4,0.5,12.4,0.5l0.6-0.9H137z"/>
						<path class="st6" d="M137.7,47.4l0.7,0.7c0,0,6.1-0.5,11.5-0.5c5.4,0,12.2,0.5,12.2,0.5l0.4-0.7l-12.5-0.2L137.7,47.4z"/>
						<path class="st3" d="M149.9,42.5c-5.7,0-10.4,0-14.3-0.2l1.6,4.4h12.6h0.1h12.6l1.6-4.4C160.4,42.5,155.6,42.5,149.9,42.5z"/>
					</g>
					<path class="st2" d="M162.6,437.7c0-0.7,0-25.3,0-25.3h-25.4v25.3H162.6z"/>
					<g>
						<polygon class="st4" points="150.1,421.8 140.3,443.8 149.9,408.7 159.9,444.2 						"/>
						<polygon class="st6" points="149.9,426.2 140.3,443.8 149.9,418.8 159.9,444.2 						"/>
					</g>
					<path class="st3" d="M163.5,289.1c-2.3-52.5-4.9-38.4-4.9-38.4l-4.5-37.8l-3.5-7.6c-5.4-27.1-12.1-60.6-13.4-69.8
						c-2.2-14.9-16.3-62.4-16.3-62.4c-4.5-28.7,4.2-43,4.2-43s-21.6,12.3-26,15.2c-2.3,1.5-22.2,10.3-39.2,18.1
						C39.3,72.9,36.5,78,36.5,78c15.9,9.8,19.2,45.2,19.5,86.6c0.3,41.5-11.2,112.2-12.6,149c-1.5,38.2-9.3,132-9.3,132
						s68.2,17.4,86.9,12.3c18.6-5.1,20.1-15.6,23.8-25.2l5.5-19.2C150.1,413.5,165.8,341.6,163.5,289.1z"/>
					<g>
						<path class="st5" d="M56.2,239.3c6-41.1,3.4-74.1-0.7-99.9c0.8,5.1,1.2,14.1,1.3,15.4c0.7,8.7,1.4,17.7,1.2,26.4
							c-0.2,18.2-1.5,39.1-4.8,62c-2.8,19.6-4.9,28.3-6.4,31.7c-0.3,2.8-0.6,5.5-0.8,8.2C49.7,282.9,52.3,265.7,56.2,239.3z"/>
						<path class="st6" d="M52.5,222.6c-1.8,17.7-3.9,35.8-5.7,52.3c1.5-3.4,3.6-12.1,6.4-31.7c3.3-22.9,4.9-41.7,4.9-72.4l0-0.1
							c0.3-11.1-2.7-31.8-2.7-30.9C57.1,164.5,54.2,207.9,52.5,222.6z"/>
					</g>
					<path class="st3" d="M55.9,164.6c-0.3-38.9-3.2-72.4-16.6-84.5l-2.8-1.6c0,0-4.3-1.4-8.8,19.9C23.1,119.7-25,422.2-25,422.2
						s8,7,24.6,7.6c16.6,0.6,25-3.5,25-3.5l26.1-188.7C53.5,211.2,56.1,184.5,55.9,164.6z"/>
					<g>
						<path class="st5" d="M152.4,197.3c0,0-18.8,44.7-18.8,108.2s21,109.4,21,109.4l-2.2-77.1l3.1-135L152.4,197.3z"/>
						<path class="st6" d="M155.1,197.3c0,0-18.8,44.7-18.8,108.2s21,109.4,21,109.4l-2.2-77.1l3.1-135L155.1,197.3z"/>
					</g>
					<g>
						<path class="st3" d="M244.1,164.6c0.3-41.5,3.6-76.8,19.5-86.6c0,0-2.9-5.1-23.5-14.6c-19.4-9-35.7-16-42.1-19.7
							c-0.4-0.2-0.8-0.4-1.1-0.6c-5.5-3.4-22.1-13.1-22.1-13.1s7.9,14.3,3.5,43c0,0-14.2,47.5-16.4,62.4
							c-2.2,14.9-16.6,91.5-18.6,103.3c-0.5,3.1-1,6-1.4,8.6c-0.9,5.7-1,11.7-1.3,13.5c-0.5,6-1.1,14.6-1.6,26.8
							c-2.3,52.5,10.9,125.9,10.9,125.9l5.7,19.4c3.7,9.7,4.9,19.9,23.6,25c18.6,5.1,84.4-12.3,84.4-12.3s-5.4-93.8-6.9-132
							C255.3,276.8,243.8,206.1,244.1,164.6z"/>
					</g>
					<g>
						<path class="st5" d="M243.8,239.3c-6-41.1-3.4-74.1,0.7-99.9c-0.8,5.1-1.2,14.1-1.3,15.4c-0.7,8.7-1.4,17.7-1.2,26.4
							c0.2,18.2,1.5,39.1,4.8,62c2.8,19.6,4.9,28.3,6.4,31.7c0.3,2.8,0.6,5.5,0.8,8.2C250.2,282.9,247.6,265.7,243.8,239.3z"/>
						<path class="st6" d="M247.5,222.6c1.8,17.7,3.9,35.8,5.7,52.3c-1.5-3.4-3.6-12.1-6.4-31.7c-3.3-22.9-4.9-41.7-4.9-72.4l0-0.1
							c-0.3-11.1,2.7-31.8,2.7-30.9C242.9,164.5,245.7,207.9,247.5,222.6z"/>
					</g>
					<path class="st3" d="M272.4,97.8c-4.5-21.3-8.8-19.9-8.8-19.9l0,0c-15.9,9.8-19.2,45.2-19.5,86.6c-0.1,19.3,2.3,45,5,70.6
						l26.3,190.6c0,0,8.4,4.1,25,3.5c16.6-0.6,24.6-7.6,24.6-7.6S276.9,119.2,272.4,97.8z"/>
				</g>
			</g>
			<g>
				<polygon class="st5" points="233.2,168.9 233.2,166.4 173.8,168.1 173.8,170.6 				"/>
				<polygon class="st6" points="233.2,169.9 233.2,167.4 173.8,169.1 173.8,171.6 				"/>
				<path class="st3" d="M233,168.5v13.7c0,0.5-0.4,0.9-0.9,0.9l-56.8,1.2c-0.5,0-0.9-0.4-0.9-0.9v-13.2L233,168.5z"/>
				<line class="st10" x1="174.5" y1="170.8" x2="233" y2="169.1"/>
			</g>
			<g>
				<g>
					<g>
						<path class="st5" d="M90.6,85.3c0,0-2.2-0.2-2,3.7c0.4,6.1,32.8,88,47.8,118.5c3.3,6.6,7.9,17.1,12.1,26.9
							c2.4,5.7,3.4-6.5,3.4-6.5l-3-13.3L95.7,93.8L90.6,85.3z"/>
						<path class="st6" d="M91.5,84.7c0,0-3.3,1.9-2.1,5.7c2.4,7.9,41.3,101.9,49.7,118.4c3,5.9,6.5,14.2,9.9,22.4
							c1.1,2.7,1.2-3.2,1.7-2.8c0.4,0.3,1-7.5,1-7.5l-1.1-5L97.3,95L91.5,84.7z"/>
						<polygon class="st5" points="111,44.4 99.1,83.9 115.7,97 116.6,101.6 108.1,55.5 						"/>
						<polygon class="st6" points="111,44.4 100.5,83.9 113.7,92.8 118.4,96 119.4,101.6 111,55.5 						"/>
					</g>
					<path class="st3" d="M126.3,30c0,0-10.4,3-14.1,11.5C108.6,50,102,83.1,102,83.1l15.1,7.9c0,0-23.7-7.9-26.5-5.7
						c-1.7,1.4,0.2,6.5,4.1,15.8c3.4,8,28.9,73.5,41.9,102.3c4.3,9.6,7.9,18.1,10.8,25.4c2.1,5.4,5.5-10.7,4.9-14.2
						c-5.5-33.4-13.9-91.6-18.7-117.2c-5.5-29.8-10.3-44.8-10.3-53.7S126.3,30,126.3,30z"/>
					<line class="st10" x1="129" y1="74.2" x2="117.1" y2="91"/>
					<g>
						<polygon class="st5" points="149.7,197.6 144.2,220.7 146.2,224.6 150.2,205.7 						"/>
						<polygon class="st6" points="150.5,199.8 144.3,222.2 146.2,226.9 151,207.9 						"/>
					</g>
					<g>
						<path class="st5" d="M209.5,85.3c0,0,2.2-0.2,2,3.7c-0.4,6.1-32.8,88-47.8,118.5c-7.6,15.4-22.5,51.9-22.5,51.9l10-44.8
							l53.2-120.9L209.5,85.3z"/>
						<path class="st6" d="M208.6,84.7c0,0,3.3,1.9,2.1,5.7c-2.4,7.9-41.3,101.9-49.7,118.4c-8.3,16.5-21,51.3-21,51.3l9.5-44.2
							L202.7,95L208.6,84.7z"/>
						<polygon class="st5" points="189.1,44.4 201,83.9 184.3,97 183.5,101.6 192,55.5 						"/>
						<polygon class="st6" points="189.1,44.4 199.5,83.9 186.3,92.8 181.7,96 180.6,101.6 189.1,55.5 						"/>
					</g>
					<path class="st3" d="M173.7,30c0,0,10.4,3,14.1,11.5s10.3,41.6,10.3,41.6L183,91c0,0,23.7-7.9,26.5-5.7
						c1.7,1.4-0.2,6.5-4.1,15.8c-3.4,8-28.9,73.5-41.9,102.3c-13.5,30-19.3,48.8-22.6,56.7c0,0-0.7-3.9,4.4-31.4
						c5.1-27.6,15.6-101.5,21.1-131.3c5.5-29.8,10.3-44.8,10.3-53.7S173.7,30,173.7,30z"/>
					<path class="st11" d="M200.1,92l-2.8,1c-0.8,0.2-1.6,0.5-2.3,0.9l-2.6,1.2c-0.2,0.1-0.1,0.5,0.2,0.4l2.7-0.9
						c0.8-0.2,1.5-0.5,2.3-0.9l2.8-1.3C200.5,92.3,200.3,92,200.1,92z"/>
					<line class="st10" x1="171" y1="74.2" x2="183" y2="91"/>
				</g>
			</g>
			<g>
				<g>
					<g>
						<g>
							<line class="st8" x1="204.1" y1="206.6" x2="204.1" y2="207.1"/>
							<line class="st12" x1="204.1" y1="209" x2="204.1" y2="312.4"/>
							<line class="st8" x1="204.1" y1="313.4" x2="204.1" y2="313.9"/>
						</g>
					</g>
					<g>
						<path class="st5" d="M195.8,317.6l-1.3,17.7c-0.6,10.1,4.2,13.2,9.2,13.2h54.7l-0.2-4.6L195.8,317.6z"/>
						<path class="st6" d="M195.8,317l-0.6,14.5c-0.6,10.1,2.8,15.7,8.6,15.7h54.6l-0.2-4.6L195.8,317z"/>
						<path class="st3" d="M195.8,321.5v-5.1h61.5l1.5,29.8h-53.7c-7.1,0-9.2-8.4-9.2-15.5v0V321.5z"/>
						<g>
							<g>
								<line class="st8" x1="196.3" y1="319.5" x2="196.8" y2="319.5"/>
								<line class="st13" x1="198.8" y1="319.5" x2="255.8" y2="319.5"/>
								<line class="st8" x1="256.8" y1="319.5" x2="257.3" y2="319.5"/>
							</g>
						</g>
					</g>
				</g>
				<g>
					<g>
						<g>
							<line class="st8" x1="97.1" y1="206.6" x2="97.1" y2="207.1"/>
							<line class="st12" x1="97.1" y1="209" x2="97.1" y2="312.4"/>
							<line class="st8" x1="97.1" y1="313.4" x2="97.1" y2="313.9"/>
						</g>
					</g>
					<g>
						<path class="st5" d="M105.4,317.6l1.3,17.7c0.6,10.1-4.2,13.2-9.2,13.2H42.8l0.2-4.6L105.4,317.6z"/>
						<path class="st6" d="M105.4,317l0.6,14.5c0.6,10.1-2.8,15.7-8.6,15.7H42.8l0.2-4.6L105.4,317z"/>
						<path class="st3" d="M105.4,321.5v-5.1H43.9l-1.5,29.8h53.7c7.1,0,9.2-8.4,9.2-15.5v0V321.5z"/>
						<g>
							<g>
								<line class="st8" x1="105" y1="319.5" x2="104.5" y2="319.5"/>
								<line class="st14" x1="102.4" y1="319.5" x2="45.4" y2="319.5"/>
								<line class="st8" x1="44.4" y1="319.5" x2="43.9" y2="319.5"/>
							</g>
						</g>
					</g>
				</g>
			</g>
			<g>
				<g id="XMLID_9353_">
					<circle id="XMLID_9368_" class="st5" cx="152.6" cy="268.2" r="6"/>
					<circle id="XMLID_9367_" class="st15" cx="152.7" cy="268" r="5.8"/>
					<polygon id="XMLID_9366_" class="st11" points="160.1,267.8 152.8,266.3 144.6,267.8 152.8,269.2 					"/>
					<circle id="XMLID_9365_" class="st16" cx="152.6" cy="267.2" r="5.8"/>
					<circle id="XMLID_9364_" class="st17" cx="152.6" cy="267.2" r="5"/>
					<circle id="XMLID_9363_" class="st18" cx="151.6" cy="265.9" r="0.7"/>
					<circle id="XMLID_9362_" class="st18" cx="153.4" cy="269.5" r="0.7"/>
					<line id="XMLID_9361_" class="st19" x1="151.3" y1="265.9" x2="153.1" y2="269.4"/>
					<line id="XMLID_9360_" class="st19" x1="151.8" y1="265.7" x2="153.5" y2="269.2"/>
					<line id="XMLID_9359_" class="st19" x1="151.3" y1="265.9" x2="153.1" y2="269.4"/>
					<line id="XMLID_9358_" class="st19" x1="151.8" y1="265.7" x2="153.5" y2="269.2"/>
					<circle id="XMLID_9357_" class="st18" cx="150.7" cy="268.5" r="0.7"/>
					<circle id="XMLID_9356_" class="st18" cx="154.3" cy="266.8" r="0.7"/>
					<line id="XMLID_9355_" class="st19" x1="150.7" y1="268.8" x2="154.3" y2="267.1"/>
					<line id="XMLID_9354_" class="st19" x1="150.5" y1="268.3" x2="154.1" y2="266.6"/>
				</g>
				<g id="XMLID_9337_">
					<circle id="XMLID_9352_" class="st5" cx="152.6" cy="333.8" r="6"/>
					<circle id="XMLID_9351_" class="st15" cx="152.7" cy="333.6" r="5.8"/>
					<polygon id="XMLID_9350_" class="st11" points="160.1,333.4 152.8,331.9 144.6,333.4 152.8,334.8 					"/>
					<circle id="XMLID_9349_" class="st16" cx="152.6" cy="332.8" r="5.8"/>
					<circle id="XMLID_9348_" class="st17" cx="152.6" cy="332.8" r="5"/>
					<circle id="XMLID_9347_" class="st18" cx="151.6" cy="331.5" r="0.7"/>
					<circle id="XMLID_9346_" class="st18" cx="153.4" cy="335.1" r="0.7"/>
					<line id="XMLID_9345_" class="st19" x1="151.3" y1="331.5" x2="153.1" y2="335"/>
					<line id="XMLID_9344_" class="st19" x1="151.8" y1="331.3" x2="153.5" y2="334.8"/>
					<line id="XMLID_9343_" class="st19" x1="151.3" y1="331.5" x2="153.1" y2="335"/>
					<line id="XMLID_9342_" class="st19" x1="151.8" y1="331.3" x2="153.5" y2="334.8"/>
					<circle id="XMLID_9341_" class="st18" cx="150.7" cy="334.1" r="0.7"/>
					<circle id="XMLID_9340_" class="st18" cx="154.3" cy="332.4" r="0.7"/>
					<line id="XMLID_9339_" class="st19" x1="150.7" y1="334.4" x2="154.3" y2="332.7"/>
					<line id="XMLID_9338_" class="st19" x1="150.5" y1="333.9" x2="154.1" y2="332.2"/>
				</g>
			</g>
			<g>
				<g>
					<g id="XMLID_14138_">
						<path class="st11" d="M318.4,401.3l-4.2,0.3l-4,1.2c-0.3,0.1-0.2,0.5,0.1,0.4l4.2-0.3l4-1.2
							C318.7,401.7,318.7,401.3,318.4,401.3z"/>
						<circle id="XMLID_14150_" class="st5" cx="315.7" cy="402.2" r="3.1"/>
						<circle id="XMLID_14149_" class="st15" cx="315.8" cy="402.1" r="3"/>
						<circle id="XMLID_14148_" class="st20" cx="315.7" cy="401.7" r="3"/>
						<circle id="XMLID_14147_" class="st17" cx="315.7" cy="401.7" r="2.6"/>
						<circle id="XMLID_14146_" class="st18" cx="315.2" cy="401" r="0.4"/>
						<circle id="XMLID_14145_" class="st18" cx="316.1" cy="402.9" r="0.4"/>
						<line id="XMLID_14144_" class="st21" x1="315.1" y1="401" x2="316" y2="402.9"/>
						<line id="XMLID_14143_" class="st21" x1="315.3" y1="400.9" x2="316.2" y2="402.8"/>
						<circle id="XMLID_14142_" class="st18" cx="314.7" cy="402.4" r="0.4"/>
						<circle id="XMLID_14141_" class="st18" cx="316.6" cy="401.5" r="0.4"/>
						<line id="XMLID_14140_" class="st21" x1="314.7" y1="402.6" x2="316.6" y2="401.7"/>
						<line id="XMLID_14139_" class="st21" x1="314.6" y1="402.3" x2="316.5" y2="401.4"/>
					</g>
					<g id="XMLID_14125_">
						<path class="st11" d="M317.1,394.4l-4.2,0.3l-4,1.2c-0.3,0.1-0.2,0.5,0.1,0.4l4.2-0.3l4-1.2
							C317.5,394.8,317.4,394.4,317.1,394.4z"/>
						<circle id="XMLID_14137_" class="st5" cx="314.4" cy="395.4" r="3.1"/>
						<circle id="XMLID_14136_" class="st15" cx="314.5" cy="395.2" r="3"/>
						<circle id="XMLID_14135_" class="st20" cx="314.4" cy="394.8" r="3"/>
						<circle id="XMLID_14134_" class="st17" cx="314.4" cy="394.8" r="2.6"/>
						<circle id="XMLID_14133_" class="st18" cx="313.9" cy="394.1" r="0.4"/>
						<circle id="XMLID_14132_" class="st18" cx="314.8" cy="396" r="0.4"/>
						<line id="XMLID_14131_" class="st21" x1="313.8" y1="394.1" x2="314.7" y2="396"/>
						<line id="XMLID_14130_" class="st21" x1="314" y1="394" x2="314.9" y2="395.9"/>
						<circle id="XMLID_14129_" class="st18" cx="313.5" cy="395.5" r="0.4"/>
						<circle id="XMLID_14128_" class="st18" cx="315.3" cy="394.6" r="0.4"/>
						<line id="XMLID_14127_" class="st21" x1="313.5" y1="395.7" x2="315.3" y2="394.8"/>
						<line id="XMLID_14126_" class="st21" x1="313.4" y1="395.4" x2="315.2" y2="394.5"/>
					</g>
					<g id="XMLID_14112_">
						<path class="st11" d="M319.7,408.2l-4.2,0.3l-4,1.2c-0.3,0.1-0.2,0.5,0.1,0.4l4.2-0.3l4-1.2C320,408.6,320,408.2,319.7,408.2z
							"/>
						<circle id="XMLID_14124_" class="st5" cx="317" cy="409.1" r="3.1"/>
						<circle id="XMLID_14123_" class="st15" cx="317" cy="409" r="3"/>
						<circle id="XMLID_14122_" class="st20" cx="317" cy="408.6" r="3"/>
						<circle id="XMLID_14121_" class="st17" cx="317" cy="408.6" r="2.6"/>
						<circle id="XMLID_14120_" class="st18" cx="316.5" cy="407.9" r="0.4"/>
						<circle id="XMLID_14119_" class="st18" cx="317.4" cy="409.8" r="0.4"/>
						<line id="XMLID_14118_" class="st21" x1="316.3" y1="407.9" x2="317.3" y2="409.8"/>
						<line id="XMLID_14117_" class="st21" x1="316.6" y1="407.8" x2="317.5" y2="409.7"/>
						<circle id="XMLID_14116_" class="st18" cx="316" cy="409.3" r="0.4"/>
						<circle id="XMLID_14115_" class="st18" cx="317.9" cy="408.4" r="0.4"/>
						<line id="XMLID_14114_" class="st21" x1="316" y1="409.4" x2="317.9" y2="408.5"/>
						<line id="XMLID_14113_" class="st21" x1="315.9" y1="409.2" x2="317.8" y2="408.3"/>
					</g>
					<g id="XMLID_14099_">
						<path class="st11" d="M321,415.1l-4.2,0.3l-4,1.2c-0.3,0.1-0.2,0.5,0.1,0.4l4.2-0.3l4-1.2C321.3,415.4,321.2,415.1,321,415.1z
							"/>
						<circle id="XMLID_14111_" class="st5" cx="318.3" cy="416" r="3.1"/>
						<circle id="XMLID_14110_" class="st15" cx="318.3" cy="415.9" r="3"/>
						<circle id="XMLID_14109_" class="st20" cx="318.3" cy="415.5" r="3"/>
						<circle id="XMLID_14108_" class="st17" cx="318.3" cy="415.5" r="2.6"/>
						<circle id="XMLID_14107_" class="st18" cx="317.8" cy="414.8" r="0.4"/>
						<circle id="XMLID_14106_" class="st18" cx="318.7" cy="416.7" r="0.4"/>
						<line id="XMLID_14105_" class="st21" x1="317.6" y1="414.8" x2="318.5" y2="416.6"/>
						<line id="XMLID_14104_" class="st21" x1="317.9" y1="414.7" x2="318.8" y2="416.5"/>
						<circle id="XMLID_14103_" class="st18" cx="317.3" cy="416.2" r="0.4"/>
						<circle id="XMLID_14102_" class="st18" cx="319.2" cy="415.3" r="0.4"/>
						<line id="XMLID_14101_" class="st21" x1="317.3" y1="416.3" x2="319.2" y2="415.4"/>
						<line id="XMLID_14100_" class="st21" x1="317.2" y1="416.1" x2="319.1" y2="415.2"/>
					</g>
				</g>
				<g>
					<g id="XMLID_14086_">
						<path class="st11" d="M-18.6,401.3l4.2,0.3l4,1.2c0.3,0.1,0.2,0.5-0.1,0.4l-4.2-0.3l-4-1.2C-19,401.7-18.9,401.3-18.6,401.3z"
							/>
						<circle id="XMLID_14098_" class="st5" cx="-15.9" cy="402.2" r="3.1"/>
						<circle id="XMLID_14097_" class="st15" cx="-16" cy="402.1" r="3"/>
						<circle id="XMLID_14096_" class="st20" cx="-15.9" cy="401.7" r="3"/>
						<circle id="XMLID_14095_" class="st17" cx="-15.9" cy="401.7" r="2.6"/>
						<circle id="XMLID_14094_" class="st18" cx="-15.4" cy="401" r="0.4"/>
						<circle id="XMLID_14093_" class="st18" cx="-16.3" cy="402.9" r="0.4"/>
						<line id="XMLID_14092_" class="st21" x1="-15.3" y1="401" x2="-16.2" y2="402.9"/>
						<line id="XMLID_14091_" class="st21" x1="-15.5" y1="400.9" x2="-16.4" y2="402.8"/>
						<circle id="XMLID_14090_" class="st18" cx="-15" cy="402.4" r="0.4"/>
						<circle id="XMLID_14089_" class="st18" cx="-16.8" cy="401.5" r="0.4"/>
						<line id="XMLID_14088_" class="st21" x1="-15" y1="402.6" x2="-16.8" y2="401.7"/>
						<line id="XMLID_14087_" class="st21" x1="-14.9" y1="402.3" x2="-16.7" y2="401.4"/>
					</g>
					<g id="XMLID_14073_">
						<path class="st11" d="M-17.3,394.4l4.2,0.3l4,1.2c0.3,0.1,0.2,0.5-0.1,0.4l-4.2-0.3l-4-1.2C-17.7,394.8-17.6,394.4-17.3,394.4
							z"/>
						<circle id="XMLID_14085_" class="st5" cx="-14.6" cy="395.4" r="3.1"/>
						<circle id="XMLID_14084_" class="st15" cx="-14.7" cy="395.2" r="3"/>
						<circle id="XMLID_14083_" class="st20" cx="-14.6" cy="394.8" r="3"/>
						<circle id="XMLID_14082_" class="st17" cx="-14.6" cy="394.8" r="2.6"/>
						<circle id="XMLID_14081_" class="st18" cx="-14.1" cy="394.1" r="0.4"/>
						<circle id="XMLID_14080_" class="st18" cx="-15.1" cy="396" r="0.4"/>
						<line id="XMLID_14079_" class="st21" x1="-14" y1="394.1" x2="-14.9" y2="396"/>
						<line id="XMLID_14078_" class="st21" x1="-14.2" y1="394" x2="-15.2" y2="395.9"/>
						<circle id="XMLID_14077_" class="st18" cx="-13.7" cy="395.5" r="0.4"/>
						<circle id="XMLID_14076_" class="st18" cx="-15.5" cy="394.6" r="0.4"/>
						<line id="XMLID_14075_" class="st21" x1="-13.7" y1="395.7" x2="-15.5" y2="394.8"/>
						<line id="XMLID_14074_" class="st21" x1="-13.6" y1="395.4" x2="-15.4" y2="394.5"/>
					</g>
					<g id="XMLID_14060_">
						<path class="st11" d="M-19.9,408.2l4.2,0.3l4,1.2c0.3,0.1,0.2,0.5-0.1,0.4l-4.2-0.3l-4-1.2C-20.2,408.6-20.2,408.2-19.9,408.2
							z"/>
						<circle id="XMLID_14072_" class="st5" cx="-17.2" cy="409.1" r="3.1"/>
						<circle id="XMLID_14071_" class="st15" cx="-17.3" cy="409" r="3"/>
						<circle id="XMLID_14070_" class="st20" cx="-17.2" cy="408.6" r="3"/>
						<circle id="XMLID_14069_" class="st17" cx="-17.2" cy="408.6" r="2.6"/>
						<circle id="XMLID_14068_" class="st18" cx="-16.7" cy="407.9" r="0.4"/>
						<circle id="XMLID_14067_" class="st18" cx="-17.6" cy="409.8" r="0.4"/>
						<line id="XMLID_14066_" class="st21" x1="-16.6" y1="407.9" x2="-17.5" y2="409.8"/>
						<line id="XMLID_14065_" class="st21" x1="-16.8" y1="407.8" x2="-17.7" y2="409.7"/>
						<circle id="XMLID_14064_" class="st18" cx="-16.2" cy="409.3" r="0.4"/>
						<circle id="XMLID_14063_" class="st18" cx="-18.1" cy="408.4" r="0.4"/>
						<line id="XMLID_14062_" class="st21" x1="-16.2" y1="409.4" x2="-18.1" y2="408.5"/>
						<line id="XMLID_14061_" class="st21" x1="-16.1" y1="409.2" x2="-18" y2="408.3"/>
					</g>
					<g id="XMLID_14047_">
						<path class="st11" d="M-21.2,415.1l4.2,0.3l4,1.2c0.3,0.1,0.2,0.5-0.1,0.4l-4.2-0.3l-4-1.2C-21.5,415.4-21.4,415.1-21.2,415.1
							z"/>
						<circle id="XMLID_14059_" class="st5" cx="-18.5" cy="416" r="3.1"/>
						<circle id="XMLID_14058_" class="st15" cx="-18.5" cy="415.9" r="3"/>
						<circle id="XMLID_14057_" class="st20" cx="-18.5" cy="415.5" r="3"/>
						<circle id="XMLID_14056_" class="st17" cx="-18.5" cy="415.5" r="2.6"/>
						<circle id="XMLID_14055_" class="st18" cx="-18" cy="414.8" r="0.4"/>
						<circle id="XMLID_14054_" class="st18" cx="-18.9" cy="416.7" r="0.4"/>
						<line id="XMLID_14053_" class="st21" x1="-17.8" y1="414.8" x2="-18.7" y2="416.6"/>
						<line id="XMLID_14052_" class="st21" x1="-18.1" y1="414.7" x2="-19" y2="416.5"/>
						<circle id="XMLID_14051_" class="st18" cx="-17.5" cy="416.2" r="0.4"/>
						<circle id="XMLID_14050_" class="st18" cx="-19.4" cy="415.3" r="0.4"/>
						<line id="XMLID_14049_" class="st21" x1="-17.5" y1="416.3" x2="-19.4" y2="415.4"/>
						<line id="XMLID_14048_" class="st21" x1="-17.4" y1="416.1" x2="-19.3" y2="415.2"/>
					</g>
				</g>
			</g>
		</g>
	</g>
	<g id="XMLID_1_" class="st0">
		<defs>
			<rect id="XMLID_4932_" x="-13.5" width="327.1" height="300"/>
		</defs>
		<clipPath id="XMLID_4_">
			<use xlink:href="#XMLID_4932_"  style="overflow:visible;"/>
		</clipPath>
	</g>
	<g class="st0">
		<path class="st22" d="M150.1,4.6c38.7,0,75.1,15.1,102.5,42.5c27.4,27.4,42.5,63.8,42.5,102.5s-15.1,75.1-42.5,102.5
			c-27.4,27.4-63.8,42.5-102.5,42.5S75,279.5,47.6,252.1C20.2,224.7,5.1,188.3,5.1,149.6S20.2,74.5,47.6,47.1
			C75,19.7,111.4,4.6,150.1,4.6 M150.1-0.4c-82.8,0-150,67.2-150,150s67.2,150,150,150s150-67.2,150-150S232.9-0.4,150.1-0.4
			L150.1-0.4z"/>
	</g>
</g>
</svg>
