<?xml version="1.0" encoding="utf-8"?>
<!-- Generator: Adobe Illustrator 19.0.0, SVG Export Plug-In . SVG Version: 6.00 Build 0)  -->
<svg version="1.1" id="Layer_1" xmlns="http://www.w3.org/2000/svg" xmlns:xlink="http://www.w3.org/1999/xlink" x="0px" y="0px"
	 viewBox="0 0 300 300" style="enable-background:new 0 0 300 300;" xml:space="preserve">
<style type="text/css">
	.st0{clip-path:url(#SVGID_2_);}
	.st1{clip-path:url(#XMLID_3_);}
	.st2{fill:#F1F1F2;stroke:#404041;stroke-miterlimit:10;}
	.st3{fill:#FFFFFF;stroke:#404041;stroke-miterlimit:10;}
	.st4{fill:#929497;}
	.st5{fill:#F1F1F2;}
	.st6{fill:#C5C7C9;}
	.st7{fill:none;stroke:#404041;stroke-miterlimit:10;}
	.st8{fill:none;stroke:#808184;stroke-width:0.5;stroke-miterlimit:10;}
	.st9{fill:none;stroke:#808184;stroke-width:0.5;stroke-miterlimit:10;stroke-dasharray:0.9993,1.9985;}
	.st10{fill:none;stroke:#808184;stroke-width:0.5;stroke-miterlimit:10;stroke-dasharray:1,2;}
	.st11{fill:#404041;stroke:#D0D2D3;stroke-width:0.5;stroke-miterlimit:10;}
	.st12{fill:none;stroke:#808184;stroke-width:0.5;stroke-miterlimit:10;stroke-dasharray:0.9943,1.9886;}
	.st13{fill:none;stroke:#808184;stroke-width:0.5;stroke-miterlimit:10;stroke-dasharray:1.0166,2.0331;}
	.st14{fill:none;stroke:#808184;stroke-width:0.5;stroke-miterlimit:10;stroke-dasharray:1.0177,2.0353;}
	.st15{fill:#DBDCDD;}
	.st16{fill:#FFFFFF;stroke:#6D6E70;stroke-miterlimit:10;}
	.st17{fill:#FFFFFF;stroke:#929497;stroke-width:0.25;stroke-miterlimit:10;}
	.st18{fill:#404041;}
	.st19{fill:none;stroke:#6D6E70;stroke-width:0.5;stroke-miterlimit:10;}
	.st20{fill:#FFFFFF;stroke:#6D6E70;stroke-width:0.5;stroke-miterlimit:10;}
	.st21{fill:none;stroke:#6D6E70;stroke-width:0.25;stroke-miterlimit:10;}
	.st22{fill:#9AA0BB;}
</style>
<g>
	<defs>
		<circle id="SVGID_1_" cx="150.1" cy="149.6" r="150"/>
	</defs>
	<use xlink:href="#SVGID_1_"  style="overflow:visible;fill:#DDDDDD;"/>
	<clipPath id="SVGID_2_">
		<use xlink:href="#SVGID_1_"  style="overflow:visible;"/>
	</clipPath>
	<g id="XMLID_254_" class="st0">
		<defs>
			<rect id="XMLID_4044_" x="-13.5" width="327.1" height="300"/>
		</defs>
		<clipPath id="XMLID_3_">
			<use xlink:href="#XMLID_4044_"  style="overflow:visible;"/>
		</clipPath>
		<g class="st1">
			<g>
				<g>
					<g>
						<polygon class="st2" points="174.4,35.3 184.3,46.4 147.3,210.9 115.5,46.4 125,35.3 						"/>
						<path class="st3" d="M174.8,30c0,0,0.1-0.6-24.9-0.6c-0.1,0-0.2,0-0.3,0c-0.1,0-0.2,0-0.3,0c-25,0-24.9,0.6-24.9,0.6l-3,10.9
							c0,0,4.1,1,13.9,1.4c3.8,0.2,8.8,0.3,14.4,0.3c5.7,0,10.1-0.1,13.9-0.3c9.9-0.4,13.9-1.4,13.9-1.4L174.8,30z"/>
						<g>
							<path class="st4" d="M129.1,29.7c0,0-2.6,2.9-2.4,6.6c0.2,3.7,0.4,4.9,0.4,4.9h-2.7l0.3-11.1L129.1,29.7z"/>
							<path class="st5" d="M130.1,29.6c-0.7,0-1.3,0-1.8,0.1c-1.5,2.4-1.5,9.3-1.4,11.8c0.8,0.1,1.7,0.1,2.7,0.2
								c-0.2-0.7-0.4-2.3-0.4-5.1C129.2,33.2,129.8,30.7,130.1,29.6z"/>
							<path class="st6" d="M128.5,29.7c-0.4,0-0.7,0-1,0c-0.6,0.5-1.2,1.4-1.4,2.9c-0.3,3.1-0.4,7-0.5,8.8c0.8,0.1,1.7,0.2,2.7,0.2
								C127.9,39,127.1,32,128.5,29.7z"/>
						</g>
						<g>
							<path class="st4" d="M170.1,29.7c0,0,2.6,2.9,2.4,6.6c-0.2,3.7-0.4,4.9-0.4,4.9h2.7L174.6,30L170.1,29.7z"/>
							<path class="st5" d="M169,29.6c0.7,0,1.3,0,1.8,0.1c1.5,2.4,1.5,9.3,1.4,11.8c-0.8,0.1-1.7,0.1-2.7,0.2
								c0.2-0.7,0.4-2.3,0.4-5.1C169.9,33.2,169.3,30.7,169,29.6z"/>
							<path class="st6" d="M170.6,29.7c0.4,0,0.7,0,1,0c0.6,0.5,1.2,1.4,1.4,2.9c0.3,3.1,0.4,7,0.5,8.8c-0.8,0.1-1.7,0.2-2.7,0.2
								C171.2,39,172.1,32,170.6,29.7z"/>
						</g>
						<path class="st7" d="M174.8,30c0,0,0.1-0.6-24.9-0.6c-0.1,0-0.2,0-0.3,0c-0.1,0-0.2,0-0.3,0c-25,0-24.9,0.6-24.9,0.6l-3,10.9
							c0,0,4.1,1,13.9,1.4c3.8,0.2,8.8,0.3,14.4,0.3c5.7,0,10.1-0.1,13.9-0.3c9.9-0.4,13.9-1.4,13.9-1.4L174.8,30z"/>
						<g>
							<polygon class="st4" points="126.3,63.9 149.9,175.8 173,63.9 157.9,195.1 149.1,204.4 142.2,193.9 							"/>
							<polygon class="st6" points="149.7,190.3 173.6,58.9 149.9,175.2 125.8,58.9 							"/>
						</g>
						<g>
							<g>
								<line class="st8" x1="149.9" y1="44" x2="149.9" y2="44.5"/>
								<line class="st9" x1="149.9" y1="46.5" x2="149.9" y2="198.4"/>
								<line class="st8" x1="149.9" y1="199.4" x2="149.9" y2="199.9"/>
							</g>
						</g>
						<path class="st4" d="M137,46.7l0.9,0.9c0,0,6.5-0.5,12-0.5c5.5,0,12.4,0.5,12.4,0.5l0.6-0.9H137z"/>
						<path class="st6" d="M137.7,47.4l0.7,0.7c0,0,6.1-0.5,11.5-0.5c5.4,0,12.2,0.5,12.2,0.5l0.4-0.7l-12.5-0.2L137.7,47.4z"/>
						<path class="st3" d="M149.9,42.5c-5.7,0-10.4,0-14.3-0.2l1.6,4.4h12.6h0.1h12.6l1.6-4.4C160.4,42.5,155.6,42.5,149.9,42.5z"/>
					</g>
					<path class="st2" d="M162.6,437.7c0-0.7,0-25.3,0-25.3h-25.4v25.3H162.6z"/>
					<g>
						<polygon class="st4" points="150.1,421.8 140.3,443.8 149.9,408.7 159.9,444.2 						"/>
						<polygon class="st6" points="149.9,426.2 140.3,443.8 149.9,418.8 159.9,444.2 						"/>
					</g>
					<path class="st3" d="M163.5,289.1c-2.3-52.5-4.9-38.4-4.9-38.4l-4.5-37.8l-3.5-7.6c-5.4-27.1-12.1-60.6-13.4-69.8
						c-2.2-14.9-9.5-62.4-9.5-62.4c-4.5-28.7-2.5-43-2.5-43s-21.6,12.3-26,15.2c-2.3,1.5-22.2,10.3-39.2,18.1
						C39.3,72.9,36.5,78,36.5,78c15.9,9.8,19.2,45.2,19.5,86.6c0.3,41.5-11.2,112.2-12.6,149c-1.5,38.2-9.3,132-9.3,132
						s68.2,17.4,86.9,12.3c18.6-5.1,20.1-15.6,23.8-25.2l5.5-19.2C150.1,413.5,165.8,341.6,163.5,289.1z"/>
					<g>
						<path class="st5" d="M56.2,239.3c6-41.1,3.4-74.1-0.7-99.9c0.8,5.1,1.2,14.1,1.3,15.4c0.7,8.7,1.4,17.7,1.2,26.4
							c-0.2,18.2-1.5,39.1-4.8,62c-2.8,19.6-4.9,28.3-6.4,31.7c-0.3,2.8-0.6,5.5-0.8,8.2C49.7,282.9,52.3,265.7,56.2,239.3z"/>
						<path class="st6" d="M52.5,222.6c-1.8,17.7-3.9,35.8-5.7,52.3c1.5-3.4,3.6-12.1,6.4-31.7c3.3-22.9,4.9-41.7,4.9-72.4l0-0.1
							c0.3-11.1-2.7-31.8-2.7-30.9C57.1,164.5,54.2,207.9,52.5,222.6z"/>
					</g>
					<path class="st3" d="M55.9,164.6c-0.3-38.9-3.2-72.4-16.6-84.5l-2.8-1.6c0,0-4.3-1.4-8.8,19.9C23.1,119.7-25,422.2-25,422.2
						s8,7,24.6,7.6s25-3.5,25-3.5l26.1-188.7C53.5,211.2,56.1,184.5,55.9,164.6z"/>
					<g>
						<path class="st5" d="M150.5,198.5c0,0-18.8,44.7-18.8,108.2s21,109.4,21,109.4l-2.2-77.1l3.1-135L150.5,198.5z"/>
						<path class="st6" d="M153.1,198.5c0,0-18.8,44.7-18.8,108.2s21,109.4,21,109.4l-2.2-77.1l3.1-135L153.1,198.5z"/>
					</g>
					<g>
						<path class="st3" d="M244.1,164.6c0.3-41.5,3.6-76.8,19.5-86.6c0,0-2.9-5.1-23.5-14.6c-19.4-9-35.7-16-42.1-19.7
							c-0.4-0.2-0.8-0.4-1.1-0.6c-5.5-3.4-22.1-13.1-22.1-13.1s1.1,14.3-3.4,43c0,0-7.4,47.5-9.5,62.4
							c-2.2,14.9-18.4,93.7-20.4,105.5c-0.5,3.1-1,6-1.4,8.6c-0.9,5.7-1.6,10.9-1.9,12.7c-0.5,6-1.1,14.6-1.6,26.8
							c-2.3,52.5,13.3,124.4,13.3,124.4l5.7,19.4c3.7,9.7,4.9,19.9,23.6,25c18.6,5.1,84.4-12.3,84.4-12.3s-5.4-93.8-6.9-132
							C255.3,276.8,243.8,206.1,244.1,164.6z"/>
					</g>
					<g>
						<path class="st5" d="M243.8,239.3c-6-41.1-3.4-74.1,0.7-99.9c-0.8,5.1-1.2,14.1-1.3,15.4c-0.7,8.7-1.4,17.7-1.2,26.4
							c0.2,18.2,1.5,39.1,4.8,62c2.8,19.6,4.9,28.3,6.4,31.7c0.3,2.8,0.6,5.5,0.8,8.2C250.2,282.9,247.6,265.7,243.8,239.3z"/>
						<path class="st6" d="M247.5,222.6c1.8,17.7,3.9,35.8,5.7,52.3c-1.5-3.4-3.6-12.1-6.4-31.7c-3.3-22.9-4.9-41.7-4.9-72.4l0-0.1
							c-0.3-11.1,2.7-31.8,2.7-30.9C242.9,164.5,245.7,207.9,247.5,222.6z"/>
					</g>
					<path class="st3" d="M272.4,97.8c-4.5-21.3-8.8-19.9-8.8-19.9l0,0c-15.9,9.8-19.2,45.2-19.5,86.6c-0.1,19.3,2.3,45,5,70.6
						l26.3,190.6c0,0,8.4,4.1,25,3.5c16.6-0.6,24.6-7.6,24.6-7.6S276.9,119.2,272.4,97.8z"/>
				</g>
			</g>
			<g>
				<polygon class="st5" points="233.2,168.9 233.2,166.4 173.8,168.1 173.8,170.6 				"/>
				<polygon class="st6" points="233.2,169.9 233.2,167.4 173.8,169.1 173.8,171.6 				"/>
				<path class="st3" d="M233,168.5v13.7c0,0.5-0.4,0.9-0.9,0.9l-56.8,1.2c-0.5,0-0.9-0.4-0.9-0.9v-13.2L233,168.5z"/>
				<line class="st10" x1="174.5" y1="170.8" x2="233" y2="169.1"/>
			</g>
			<g>
				<g>
					<path class="st5" d="M121.3,168.9c-16.1-33.3-34.4-77.1-34.4-77.1l1.8-5.1L149.2,216c0,0,0.8,5-1,1.9
						C140.9,205.9,130.1,187.2,121.3,168.9z"/>
					<path class="st6" d="M147.8,216.7c-7.7-14-19.4-35.6-29.1-55.8c-16.3-33.6-31.1-71.1-31.1-71.1l1.2-3l59.9,128.2
						C148.6,214.9,148.1,217.3,147.8,216.7z"/>
					<polygon class="st5" points="102.3,79.2 90.5,73.2 92.4,67.7 104.7,64.4 112.7,76 108,79.2 					"/>
					<polygon class="st6" points="102.9,78 91.1,71.6 93.1,65.6 105.3,62.1 113.3,74.5 108.7,78 					"/>
				</g>
				<path class="st3" d="M105.1,77.2L92,69.5c0,0,0.2-1.1,3.8-11.2c3.7-10.1,5.7-14.6,5.7-14.6c0.4-0.2,0.8-0.4,1.1-0.6
					c5.5-3.4,22.1-13.1,22.1-13.1s-1.1,14.3,3.4,43c0,0,7.4,47.5,9.5,62.4c1.4,9.6,8.7,46,14.2,73.7c0.9,4.3-2,10.5-3.2,8.2
					c-26.8-50.1-45.9-95.5-54.6-117.2C90.9,91.9,89,86.9,89,86.9L105.1,77.2z"/>
				<g>
					<polygon class="st5" points="149,194.5 144.3,209 147.1,214.1 149.8,198.6 					"/>
					<polygon class="st6" points="149.2,195.8 145.7,211.7 147.5,214.5 150.8,198.9 					"/>
				</g>
				<g>
					<path class="st5" d="M178.3,168.9c16.1-33.3,34.4-77.1,34.4-77.1l-1.8-5.1l-67.5,144.6C143.3,231.2,163.5,199.4,178.3,168.9z"
						/>
					<path class="st6" d="M143.3,231.9c0,0,21.4-37.5,37.6-71.1S212,89.7,212,89.7l-1.2-3l-67.5,144.6V231.9z"/>
					<polygon class="st5" points="197.3,79.2 209,73.2 207.1,67.7 194.9,64.4 186.9,76 191.5,79.2 					"/>
					<polygon class="st6" points="196.7,78 208.4,71.6 206.5,65.6 194.3,62.1 186.3,74.5 190.9,78 					"/>
				</g>
				<path class="st3" d="M194.5,77.2l13.1-7.7c0,0-0.2-1.1-3.8-11.2C200,48.2,198,43.7,198,43.7c-0.4-0.2-0.8-0.4-1.1-0.6
					c-5.5-3.4-22.1-13.1-22.1-13.1s1.1,14.3-3.4,43c0,0-7.4,47.5-9.5,62.4c-1.8,12.6-13.8,71-18.6,95.8
					c30.8-55.4,52.7-107.5,62.1-131.1c3.2-8.3,5.2-13.3,5.2-13.3L194.5,77.2z"/>
				<path class="st11" d="M202.6,89.3l-2.7-1.2c-0.7-0.4-1.5-0.6-2.3-0.8l-2.8-0.8c-0.3-0.1-0.4,0.3-0.2,0.4l2.6,1.1
					c0.7,0.4,1.5,0.6,2.3,0.8l2.9,0.9C202.7,89.7,202.9,89.4,202.6,89.3z"/>
			</g>
			<g>
				<g>
					<g>
						<g>
							<line class="st8" x1="203.7" y1="206.6" x2="203.7" y2="207.1"/>
							<line class="st12" x1="203.7" y1="209" x2="203.7" y2="312.4"/>
							<line class="st8" x1="203.7" y1="313.4" x2="203.7" y2="313.9"/>
						</g>
					</g>
					<g>
						<path class="st5" d="M195.4,317.6l-1.3,17.7c-0.6,10.1,4.2,13.2,9.2,13.2h54.7l-0.2-4.6L195.4,317.6z"/>
						<path class="st6" d="M195.4,317l-0.6,14.5c-0.6,10.1,2.8,15.7,8.6,15.7h54.6l-0.2-4.6L195.4,317z"/>
						<path class="st3" d="M195.4,321.5v-5.1h61.5l1.5,29.8h-53.7c-7.1,0-9.2-8.4-9.2-15.5v0V321.5z"/>
						<g>
							<g>
								<line class="st8" x1="195.9" y1="319.5" x2="196.4" y2="319.5"/>
								<line class="st13" x1="198.5" y1="319.5" x2="255.4" y2="319.5"/>
								<line class="st8" x1="256.4" y1="319.5" x2="256.9" y2="319.5"/>
							</g>
						</g>
					</g>
				</g>
				<g>
					<g>
						<g>
							<line class="st8" x1="96.7" y1="206.6" x2="96.7" y2="207.1"/>
							<line class="st12" x1="96.7" y1="209" x2="96.7" y2="312.4"/>
							<line class="st8" x1="96.7" y1="313.4" x2="96.7" y2="313.9"/>
						</g>
					</g>
					<g>
						<path class="st5" d="M105,317.6l1.3,17.7c0.6,10.1-4.2,13.2-9.2,13.2H42.4l0.2-4.6L105,317.6z"/>
						<path class="st6" d="M105,317l0.6,14.5c0.6,10.1-2.8,15.7-8.6,15.7H42.4l0.2-4.6L105,317z"/>
						<path class="st3" d="M105,321.5v-5.1H43.5L42,346.2h53.7c7.1,0,9.2-8.4,9.2-15.5v0V321.5z"/>
						<g>
							<g>
								<line class="st8" x1="104.6" y1="319.5" x2="104.1" y2="319.5"/>
								<line class="st14" x1="102" y1="319.5" x2="45" y2="319.5"/>
								<line class="st8" x1="44" y1="319.5" x2="43.5" y2="319.5"/>
							</g>
						</g>
					</g>
				</g>
			</g>
			<g>
				<g id="XMLID_9321_">
					<circle id="XMLID_9336_" class="st5" cx="153" cy="233.5" r="6"/>
					<circle id="XMLID_9335_" class="st15" cx="153.1" cy="233.2" r="5.8"/>
					<polygon id="XMLID_9334_" class="st11" points="160.5,233 153.2,231.6 145,233 153.3,234.5 					"/>
					<circle id="XMLID_9333_" class="st16" cx="153" cy="232.4" r="5.8"/>
					<circle id="XMLID_9332_" class="st17" cx="153" cy="232.4" r="5"/>
					<circle id="XMLID_9331_" class="st18" cx="152" cy="231.1" r="0.7"/>
					<circle id="XMLID_9330_" class="st18" cx="153.8" cy="234.7" r="0.7"/>
					<line id="XMLID_9329_" class="st19" x1="151.8" y1="231.1" x2="153.5" y2="234.7"/>
					<line id="XMLID_9328_" class="st19" x1="152.2" y1="230.9" x2="154" y2="234.5"/>
					<line id="XMLID_9327_" class="st19" x1="151.8" y1="231.1" x2="153.5" y2="234.7"/>
					<line id="XMLID_9326_" class="st19" x1="152.2" y1="230.9" x2="154" y2="234.5"/>
					<circle id="XMLID_9325_" class="st18" cx="151.1" cy="233.8" r="0.7"/>
					<circle id="XMLID_9324_" class="st18" cx="154.7" cy="232" r="0.7"/>
					<line id="XMLID_9323_" class="st19" x1="151.1" y1="234.1" x2="154.7" y2="232.3"/>
					<line id="XMLID_9322_" class="st19" x1="150.9" y1="233.6" x2="154.5" y2="231.9"/>
				</g>
				<g id="XMLID_9305_">
					<circle id="XMLID_9320_" class="st5" cx="153" cy="299.1" r="6"/>
					<circle id="XMLID_9319_" class="st15" cx="153.1" cy="298.8" r="5.8"/>
					<polygon id="XMLID_9318_" class="st11" points="160.5,298.6 153.2,297.2 145,298.6 153.3,300.1 					"/>
					<circle id="XMLID_9317_" class="st16" cx="153" cy="298" r="5.8"/>
					<circle id="XMLID_9316_" class="st17" cx="153" cy="298" r="5"/>
					<circle id="XMLID_9315_" class="st18" cx="152" cy="296.7" r="0.7"/>
					<circle id="XMLID_9314_" class="st18" cx="153.8" cy="300.3" r="0.7"/>
					<line id="XMLID_9313_" class="st19" x1="151.8" y1="296.7" x2="153.5" y2="300.3"/>
					<line id="XMLID_9312_" class="st19" x1="152.2" y1="296.5" x2="154" y2="300.1"/>
					<line id="XMLID_9311_" class="st19" x1="151.8" y1="296.7" x2="153.5" y2="300.3"/>
					<line id="XMLID_9310_" class="st19" x1="152.2" y1="296.5" x2="154" y2="300.1"/>
					<circle id="XMLID_9309_" class="st18" cx="151.1" cy="299.4" r="0.7"/>
					<circle id="XMLID_9308_" class="st18" cx="154.7" cy="297.6" r="0.7"/>
					<line id="XMLID_9307_" class="st19" x1="151.1" y1="299.7" x2="154.7" y2="297.9"/>
					<line id="XMLID_9306_" class="st19" x1="150.9" y1="299.2" x2="154.5" y2="297.5"/>
				</g>
			</g>
			<g>
				<g>
					<g id="XMLID_14242_">
						<path class="st11" d="M318.3,401.3l-4.2,0.3l-4,1.2c-0.3,0.1-0.2,0.5,0.1,0.4l4.2-0.3l4-1.2
							C318.6,401.7,318.6,401.3,318.3,401.3z"/>
						<circle id="XMLID_14254_" class="st5" cx="315.6" cy="402.2" r="3.1"/>
						<circle id="XMLID_14253_" class="st15" cx="315.7" cy="402.1" r="3"/>
						<circle id="XMLID_14252_" class="st20" cx="315.6" cy="401.7" r="3"/>
						<circle id="XMLID_14251_" class="st17" cx="315.6" cy="401.7" r="2.6"/>
						<circle id="XMLID_14250_" class="st18" cx="315.1" cy="401" r="0.4"/>
						<circle id="XMLID_14249_" class="st18" cx="316" cy="402.9" r="0.4"/>
						<line id="XMLID_14248_" class="st21" x1="315" y1="401" x2="315.9" y2="402.9"/>
						<line id="XMLID_14247_" class="st21" x1="315.2" y1="400.9" x2="316.1" y2="402.8"/>
						<circle id="XMLID_14246_" class="st18" cx="314.6" cy="402.4" r="0.4"/>
						<circle id="XMLID_14245_" class="st18" cx="316.5" cy="401.5" r="0.4"/>
						<line id="XMLID_14244_" class="st21" x1="314.6" y1="402.6" x2="316.5" y2="401.7"/>
						<line id="XMLID_14243_" class="st21" x1="314.5" y1="402.3" x2="316.4" y2="401.4"/>
					</g>
					<g id="XMLID_14229_">
						<path class="st11" d="M317,394.4l-4.2,0.3l-4,1.2c-0.3,0.1-0.2,0.5,0.1,0.4l4.2-0.3l4-1.2C317.4,394.8,317.3,394.4,317,394.4z
							"/>
						<circle id="XMLID_14241_" class="st5" cx="314.3" cy="395.4" r="3.1"/>
						<circle id="XMLID_14240_" class="st15" cx="314.4" cy="395.2" r="3"/>
						<circle id="XMLID_14239_" class="st20" cx="314.3" cy="394.8" r="3"/>
						<circle id="XMLID_14238_" class="st17" cx="314.3" cy="394.8" r="2.6"/>
						<circle id="XMLID_14237_" class="st18" cx="313.8" cy="394.1" r="0.4"/>
						<circle id="XMLID_14236_" class="st18" cx="314.7" cy="396" r="0.4"/>
						<line id="XMLID_14235_" class="st21" x1="313.7" y1="394.1" x2="314.6" y2="396"/>
						<line id="XMLID_14234_" class="st21" x1="313.9" y1="394" x2="314.8" y2="395.9"/>
						<circle id="XMLID_14233_" class="st18" cx="313.4" cy="395.5" r="0.4"/>
						<circle id="XMLID_14232_" class="st18" cx="315.2" cy="394.6" r="0.4"/>
						<line id="XMLID_14231_" class="st21" x1="313.4" y1="395.7" x2="315.2" y2="394.8"/>
						<line id="XMLID_14230_" class="st21" x1="313.3" y1="395.4" x2="315.1" y2="394.5"/>
					</g>
					<g id="XMLID_14216_">
						<path class="st11" d="M319.6,408.2l-4.2,0.3l-4,1.2c-0.3,0.1-0.2,0.5,0.1,0.4l4.2-0.3l4-1.2
							C319.9,408.6,319.8,408.2,319.6,408.2z"/>
						<circle id="XMLID_14228_" class="st5" cx="316.9" cy="409.1" r="3.1"/>
						<circle id="XMLID_14227_" class="st15" cx="316.9" cy="409" r="3"/>
						<circle id="XMLID_14226_" class="st20" cx="316.9" cy="408.6" r="3"/>
						<circle id="XMLID_14225_" class="st17" cx="316.9" cy="408.6" r="2.6"/>
						<circle id="XMLID_14224_" class="st18" cx="316.4" cy="407.9" r="0.4"/>
						<circle id="XMLID_14223_" class="st18" cx="317.3" cy="409.8" r="0.4"/>
						<line id="XMLID_14222_" class="st21" x1="316.2" y1="407.9" x2="317.1" y2="409.8"/>
						<line id="XMLID_14221_" class="st21" x1="316.5" y1="407.8" x2="317.4" y2="409.7"/>
						<circle id="XMLID_14220_" class="st18" cx="315.9" cy="409.3" r="0.4"/>
						<circle id="XMLID_14219_" class="st18" cx="317.8" cy="408.4" r="0.4"/>
						<line id="XMLID_14218_" class="st21" x1="315.9" y1="409.4" x2="317.8" y2="408.5"/>
						<line id="XMLID_14217_" class="st21" x1="315.8" y1="409.2" x2="317.7" y2="408.3"/>
					</g>
					<g id="XMLID_14203_">
						<path class="st11" d="M320.9,415.1l-4.2,0.3l-4,1.2c-0.3,0.1-0.2,0.5,0.1,0.4l4.2-0.3l4-1.2
							C321.2,415.4,321.1,415.1,320.9,415.1z"/>
						<circle id="XMLID_14215_" class="st5" cx="318.2" cy="416" r="3.1"/>
						<circle id="XMLID_14214_" class="st15" cx="318.2" cy="415.9" r="3"/>
						<circle id="XMLID_14213_" class="st20" cx="318.2" cy="415.5" r="3"/>
						<circle id="XMLID_14212_" class="st17" cx="318.2" cy="415.5" r="2.6"/>
						<circle id="XMLID_14211_" class="st18" cx="317.7" cy="414.8" r="0.4"/>
						<circle id="XMLID_14210_" class="st18" cx="318.6" cy="416.7" r="0.4"/>
						<line id="XMLID_14209_" class="st21" x1="317.5" y1="414.8" x2="318.4" y2="416.6"/>
						<line id="XMLID_14208_" class="st21" x1="317.8" y1="414.7" x2="318.7" y2="416.5"/>
						<circle id="XMLID_14207_" class="st18" cx="317.2" cy="416.2" r="0.4"/>
						<circle id="XMLID_14206_" class="st18" cx="319.1" cy="415.3" r="0.4"/>
						<line id="XMLID_14205_" class="st21" x1="317.2" y1="416.3" x2="319.1" y2="415.4"/>
						<line id="XMLID_14204_" class="st21" x1="317.1" y1="416.1" x2="318.9" y2="415.2"/>
					</g>
				</g>
				<g>
					<g id="XMLID_14190_">
						<path class="st11" d="M-18.7,401.3l4.2,0.3l4,1.2c0.3,0.1,0.2,0.5-0.1,0.4l-4.2-0.3l-4-1.2C-19.1,401.7-19,401.3-18.7,401.3z"
							/>
						<circle id="XMLID_14202_" class="st5" cx="-16" cy="402.2" r="3.1"/>
						<circle id="XMLID_14201_" class="st15" cx="-16.1" cy="402.1" r="3"/>
						<circle id="XMLID_14200_" class="st20" cx="-16" cy="401.7" r="3"/>
						<circle id="XMLID_14199_" class="st17" cx="-16" cy="401.7" r="2.6"/>
						<circle id="XMLID_14198_" class="st18" cx="-15.5" cy="401" r="0.4"/>
						<circle id="XMLID_14197_" class="st18" cx="-16.4" cy="402.9" r="0.4"/>
						<line id="XMLID_14196_" class="st21" x1="-15.4" y1="401" x2="-16.3" y2="402.9"/>
						<line id="XMLID_14195_" class="st21" x1="-15.6" y1="400.9" x2="-16.5" y2="402.8"/>
						<circle id="XMLID_14194_" class="st18" cx="-15.1" cy="402.4" r="0.4"/>
						<circle id="XMLID_14193_" class="st18" cx="-16.9" cy="401.5" r="0.4"/>
						<line id="XMLID_14192_" class="st21" x1="-15.1" y1="402.6" x2="-16.9" y2="401.7"/>
						<line id="XMLID_14191_" class="st21" x1="-15" y1="402.3" x2="-16.8" y2="401.4"/>
					</g>
					<g id="XMLID_14177_">
						<path class="st11" d="M-17.4,394.4l4.2,0.3l4,1.2c0.3,0.1,0.2,0.5-0.1,0.4l-4.2-0.3l-4-1.2C-17.8,394.8-17.7,394.4-17.4,394.4
							z"/>
						<circle id="XMLID_14189_" class="st5" cx="-14.7" cy="395.4" r="3.1"/>
						<circle id="XMLID_14188_" class="st15" cx="-14.8" cy="395.2" r="3"/>
						<circle id="XMLID_14187_" class="st20" cx="-14.7" cy="394.8" r="3"/>
						<circle id="XMLID_14186_" class="st17" cx="-14.7" cy="394.8" r="2.6"/>
						<circle id="XMLID_14185_" class="st18" cx="-14.3" cy="394.1" r="0.4"/>
						<circle id="XMLID_14184_" class="st18" cx="-15.2" cy="396" r="0.4"/>
						<line id="XMLID_14183_" class="st21" x1="-14.1" y1="394.1" x2="-15" y2="396"/>
						<line id="XMLID_14182_" class="st21" x1="-14.4" y1="394" x2="-15.3" y2="395.9"/>
						<circle id="XMLID_14181_" class="st18" cx="-13.8" cy="395.5" r="0.4"/>
						<circle id="XMLID_14180_" class="st18" cx="-15.6" cy="394.6" r="0.4"/>
						<line id="XMLID_14179_" class="st21" x1="-13.8" y1="395.7" x2="-15.6" y2="394.8"/>
						<line id="XMLID_14178_" class="st21" x1="-13.7" y1="395.4" x2="-15.5" y2="394.5"/>
					</g>
					<g id="XMLID_14164_">
						<path class="st11" d="M-20,408.2l4.2,0.3l4,1.2c0.3,0.1,0.2,0.5-0.1,0.4l-4.2-0.3l-4-1.2C-20.3,408.6-20.3,408.2-20,408.2z"/>
						<circle id="XMLID_14176_" class="st5" cx="-17.3" cy="409.1" r="3.1"/>
						<circle id="XMLID_14175_" class="st15" cx="-17.4" cy="409" r="3"/>
						<circle id="XMLID_14174_" class="st20" cx="-17.3" cy="408.6" r="3"/>
						<circle id="XMLID_14173_" class="st17" cx="-17.3" cy="408.6" r="2.6"/>
						<circle id="XMLID_14172_" class="st18" cx="-16.8" cy="407.9" r="0.4"/>
						<circle id="XMLID_14171_" class="st18" cx="-17.7" cy="409.8" r="0.4"/>
						<line id="XMLID_14170_" class="st21" x1="-16.7" y1="407.9" x2="-17.6" y2="409.8"/>
						<line id="XMLID_14169_" class="st21" x1="-16.9" y1="407.8" x2="-17.8" y2="409.7"/>
						<circle id="XMLID_14168_" class="st18" cx="-16.3" cy="409.3" r="0.4"/>
						<circle id="XMLID_14167_" class="st18" cx="-18.2" cy="408.4" r="0.4"/>
						<line id="XMLID_14166_" class="st21" x1="-16.3" y1="409.4" x2="-18.2" y2="408.5"/>
						<line id="XMLID_14165_" class="st21" x1="-16.2" y1="409.2" x2="-18.1" y2="408.3"/>
					</g>
					<g id="XMLID_14151_">
						<path class="st11" d="M-21.3,415.1l4.2,0.3l4,1.2c0.3,0.1,0.2,0.5-0.1,0.4l-4.2-0.3l-4-1.2C-21.6,415.4-21.6,415.1-21.3,415.1
							z"/>
						<circle id="XMLID_14163_" class="st5" cx="-18.6" cy="416" r="3.1"/>
						<circle id="XMLID_14162_" class="st15" cx="-18.6" cy="415.9" r="3"/>
						<circle id="XMLID_14161_" class="st20" cx="-18.6" cy="415.5" r="3"/>
						<circle id="XMLID_14160_" class="st17" cx="-18.6" cy="415.5" r="2.6"/>
						<circle id="XMLID_14159_" class="st18" cx="-18.1" cy="414.8" r="0.4"/>
						<circle id="XMLID_14158_" class="st18" cx="-19" cy="416.7" r="0.4"/>
						<line id="XMLID_14157_" class="st21" x1="-17.9" y1="414.8" x2="-18.8" y2="416.6"/>
						<line id="XMLID_14156_" class="st21" x1="-18.2" y1="414.7" x2="-19.1" y2="416.5"/>
						<circle id="XMLID_14155_" class="st18" cx="-17.6" cy="416.2" r="0.4"/>
						<circle id="XMLID_14154_" class="st18" cx="-19.5" cy="415.3" r="0.4"/>
						<line id="XMLID_14153_" class="st21" x1="-17.6" y1="416.3" x2="-19.5" y2="415.4"/>
						<line id="XMLID_14152_" class="st21" x1="-17.5" y1="416.1" x2="-19.4" y2="415.2"/>
					</g>
				</g>
			</g>
		</g>
	</g>
	<g id="XMLID_1_" class="st0">
		<defs>
			<rect id="XMLID_4932_" x="-13.5" width="327.1" height="300"/>
		</defs>
		<clipPath id="XMLID_4_">
			<use xlink:href="#XMLID_4932_"  style="overflow:visible;"/>
		</clipPath>
	</g>
	<g class="st0">
		<path class="st22" d="M150.1,4.6c38.7,0,75.1,15.1,102.5,42.5c27.4,27.4,42.5,63.8,42.5,102.5s-15.1,75.1-42.5,102.5
			c-27.4,27.4-63.8,42.5-102.5,42.5S75,279.5,47.6,252.1C20.2,224.7,5.1,188.3,5.1,149.6S20.2,74.5,47.6,47.1
			C75,19.7,111.4,4.6,150.1,4.6 M150.1-0.4c-82.8,0-150,67.2-150,150s67.2,150,150,150s150-67.2,150-150S232.9-0.4,150.1-0.4
			L150.1-0.4z"/>
	</g>
</g>
</svg>
