<?xml version="1.0" encoding="utf-8"?>
<!-- Generator: Adobe Illustrator 19.0.0, SVG Export Plug-In . SVG Version: 6.00 Build 0)  -->
<svg version="1.1" id="Layer_1" xmlns="http://www.w3.org/2000/svg" xmlns:xlink="http://www.w3.org/1999/xlink" x="0px" y="0px"
	 viewBox="0 0 300 300" style="enable-background:new 0 0 300 300;" xml:space="preserve">
<style type="text/css">
	.st0{clip-path:url(#SVGID_2_);}
	.st1{clip-path:url(#XMLID_3_);}
	.st2{fill:#F1F1F2;stroke:#404041;stroke-miterlimit:10;}
	.st3{fill:#FFFFFF;stroke:#404041;stroke-miterlimit:10;}
	.st4{fill:#929497;}
	.st5{fill:#F1F1F2;}
	.st6{fill:#C5C7C9;}
	.st7{fill:none;stroke:#404041;stroke-miterlimit:10;}
	.st8{fill:none;stroke:#808184;stroke-width:0.5;stroke-miterlimit:10;}
	.st9{fill:none;stroke:#808184;stroke-width:0.5;stroke-miterlimit:10;stroke-dasharray:0.9993,1.9985;}
	.st10{fill:none;stroke:#808184;stroke-width:0.5;stroke-miterlimit:10;stroke-dasharray:1,2;}
	.st11{fill:#404041;stroke:#D0D2D3;stroke-width:0.5;stroke-miterlimit:10;}
	.st12{fill:none;stroke:#808184;stroke-width:0.5;stroke-miterlimit:10;stroke-dasharray:0.9943,1.9886;}
	.st13{fill:none;stroke:#808184;stroke-width:0.5;stroke-miterlimit:10;stroke-dasharray:1.0166,2.0331;}
	.st14{fill:none;stroke:#808184;stroke-width:0.5;stroke-miterlimit:10;stroke-dasharray:1.0177,2.0353;}
	.st15{fill:#DBDCDD;}
	.st16{fill:#FFFFFF;stroke:#6D6E70;stroke-miterlimit:10;}
	.st17{fill:#FFFFFF;stroke:#929497;stroke-width:0.25;stroke-miterlimit:10;}
	.st18{fill:#404041;}
	.st19{fill:none;stroke:#6D6E70;stroke-width:0.5;stroke-miterlimit:10;}
	.st20{fill:#FFFFFF;stroke:#6D6E70;stroke-width:0.5;stroke-miterlimit:10;}
	.st21{fill:none;stroke:#6D6E70;stroke-width:0.25;stroke-miterlimit:10;}
	.st22{fill:#9AA0BB;}
</style>
<g>
	<defs>
		<circle id="SVGID_1_" cx="150.1" cy="149.6" r="150"/>
	</defs>
	<use xlink:href="#SVGID_1_"  style="overflow:visible;fill:#DDDDDD;"/>
	<clipPath id="SVGID_2_">
		<use xlink:href="#SVGID_1_"  style="overflow:visible;"/>
	</clipPath>
	<g id="XMLID_254_" class="st0">
		<defs>
			<rect id="XMLID_4044_" x="-13.5" width="327.1" height="300"/>
		</defs>
		<clipPath id="XMLID_3_">
			<use xlink:href="#XMLID_4044_"  style="overflow:visible;"/>
		</clipPath>
		<g class="st1">
			<g>
				<g>
					<g>
						<polygon class="st2" points="174.4,35.2 184.3,46.3 147.3,210.9 115.5,46.3 125,35.2 						"/>
						<path class="st3" d="M174.8,29.9c0,0,0.1-0.6-24.9-0.6c-0.1,0-0.2,0-0.3,0c-0.1,0-0.2,0-0.3,0c-25,0-24.9,0.6-24.9,0.6
							l-3,10.9c0,0,4.1,1,13.9,1.4c3.8,0.2,8.8,0.3,14.4,0.3c5.7,0,10.1-0.1,13.9-0.3c9.9-0.4,13.9-1.4,13.9-1.4L174.8,29.9z"/>
						<g>
							<path class="st4" d="M129.1,29.6c0,0-2.6,2.9-2.4,6.6c0.2,3.7,0.4,4.9,0.4,4.9h-5.5l3-11.1L129.1,29.6z"/>
							<path class="st5" d="M130.1,29.6c-0.7,0-1.3,0-1.8,0.1c-1.5,2.4-1.5,9.3-1.4,11.8c0.8,0.1,1.7,0.1,2.7,0.2
								c-0.2-0.7-0.4-2.3-0.4-5.1C129.2,33.2,129.8,30.6,130.1,29.6z"/>
							<path class="st6" d="M128.5,29.6c-0.4,0-0.7,0-1,0c-0.6,0.5-1.2,1.4-1.4,2.9c-0.3,3.1-0.4,7-0.5,8.8c0.8,0.1,1.7,0.2,2.7,0.2
								C127.9,38.9,127.1,31.9,128.5,29.6z"/>
						</g>
						<g>
							<path class="st4" d="M170.1,29.6c0,0,2.6,2.9,2.4,6.6c-0.2,3.7-0.4,4.9-0.4,4.9h5.7L174.6,30L170.1,29.6z"/>
							<path class="st5" d="M169,29.6c0.7,0,1.3,0,1.8,0.1c1.5,2.4,1.5,9.3,1.4,11.8c-0.8,0.1-1.7,0.1-2.7,0.2
								c0.2-0.7,0.4-2.3,0.4-5.1C169.9,33.2,169.3,30.6,169,29.6z"/>
							<path class="st6" d="M170.6,29.6c0.4,0,0.7,0,1,0c0.6,0.5,1.2,1.4,1.4,2.9c0.3,3.1,0.4,7,0.5,8.8c-0.8,0.1-1.7,0.2-2.7,0.2
								C171.2,38.9,172.1,31.9,170.6,29.6z"/>
						</g>
						<path class="st7" d="M174.8,29.9c0,0,0.1-0.6-24.9-0.6c-0.1,0-0.2,0-0.3,0c-0.1,0-0.2,0-0.3,0c-25,0-24.9,0.6-24.9,0.6
							l-3,10.9c0,0,4.1,1,13.9,1.4c3.8,0.2,8.8,0.3,14.4,0.3c5.7,0,10.1-0.1,13.9-0.3c9.9-0.4,13.9-1.4,13.9-1.4L174.8,29.9z"/>
						<g>
							<polygon class="st4" points="126.3,63.8 149.9,174.5 173,63.8 157.9,195.1 149.1,215 142.2,193.8 							"/>
							<polygon class="st6" points="149.7,178.7 173.6,58.9 149.9,151.9 125.8,58.9 							"/>
						</g>
						<g>
							<g>
								<line class="st8" x1="149.9" y1="43.9" x2="149.9" y2="44.4"/>
								<line class="st9" x1="149.9" y1="46.4" x2="149.9" y2="198.3"/>
								<line class="st8" x1="149.9" y1="199.3" x2="149.9" y2="199.8"/>
							</g>
						</g>
						<path class="st4" d="M137,46.6l0.9,0.9c0,0,6.5-0.5,12-0.5c5.5,0,12.4,0.5,12.4,0.5l0.6-0.9H137z"/>
						<path class="st6" d="M137.7,47.3l0.7,0.7c0,0,6.1-0.5,11.5-0.5c5.4,0,12.2,0.5,12.2,0.5l0.4-0.7l-12.5-0.2L137.7,47.3z"/>
						<path class="st3" d="M149.9,42.4c-5.7,0-10.4,0-14.3-0.2l1.6,4.4h12.6h0.1h12.6l1.6-4.4C160.4,42.4,155.6,42.4,149.9,42.4z"/>
					</g>
					<path class="st2" d="M162.6,437.6c0-0.7,0-25.3,0-25.3h-25.4v25.3H162.6z"/>
					<g>
						<polygon class="st4" points="150.1,421.7 140.3,443.7 149.9,408.6 159.9,444.1 						"/>
						<polygon class="st6" points="149.9,426.1 140.3,443.7 149.9,418.7 159.9,444.1 						"/>
					</g>
					<path class="st3" d="M163.5,289c-2.3-52.5-4.9-38.4-4.9-38.4l-4.5-37.8l-3.5-7.6c-5.4-27.1-12.1-60.6-13.4-69.8
						C135,120.4,120.9,73,120.9,73c-4.5-28.7,4.2-43,4.2-43s-21.6,12.3-26,15.2c-2.3,1.5-22.2,10.3-39.2,18.1
						c-20.6,9.5-23.5,14.6-23.5,14.6c15.9,9.8,19.2,45.2,19.5,86.6c0.3,41.5-11.2,112.2-12.6,149c-1.5,38.2-9.3,132-9.3,132
						s68.2,17.4,86.9,12.3c18.6-5.1,20.1-15.6,23.8-25.2l5.5-19.2C150.1,413.4,165.8,341.5,163.5,289z"/>
					<g>
						<path class="st5" d="M56.2,239.2c6-41.1,3.4-74.1-0.7-99.9c0.8,5.1,1.2,14.1,1.3,15.4c0.7,8.7,1.4,17.7,1.2,26.4
							c-0.2,18.2-1.5,39.1-4.8,62c-2.8,19.6-4.9,28.3-6.4,31.7c-0.3,2.8-0.6,5.5-0.8,8.2C49.7,282.8,52.3,265.7,56.2,239.2z"/>
						<path class="st6" d="M52.5,222.5c-1.8,17.7-3.9,35.8-5.7,52.3c1.5-3.4,3.6-12.1,6.4-31.7c3.3-22.9,4.9-41.7,4.9-72.4l0-0.1
							c0.3-11.1-2.7-31.8-2.7-30.9C57.1,164.4,54.2,207.8,52.5,222.5z"/>
					</g>
					<path class="st3" d="M55.9,164.5c-0.3-38.9-3.2-72.4-16.6-84.5l-2.8-1.6c0,0-4.3-1.4-8.8,19.9C23.1,119.6-25,422.1-25,422.1
						s8,7,24.6,7.6s25-3.5,25-3.5l26.1-188.7C53.5,211.1,56.1,184.5,55.9,164.5z"/>
					<g>
						<path class="st5" d="M152.3,197.4c0,0-18.8,44.7-18.8,108.2s21,109.4,21,109.4l-2.2-77.1l3.1-135L152.3,197.4z"/>
						<path class="st6" d="M154.9,197.4c0,0-18.8,44.7-18.8,108.2s21,109.4,21,109.4l-2.2-77.1l3.1-135L154.9,197.4z"/>
					</g>
					<g>
						<path class="st3" d="M244.1,164.5c0.3-41.5,3.6-76.8,19.5-86.6c0,0-2.9-5.1-23.5-14.6c-19.4-9-35.7-16-42.1-19.7
							c-0.4-0.2-0.8-0.4-1.1-0.6c-5.5-3.4-22.1-13.1-22.1-13.1s7.9,14.3,3.5,43c0,0-14.2,47.5-16.4,62.4
							c-2.2,14.9-16.6,91.5-18.6,103.3c-0.5,3.1-1,6-1.4,8.6c-0.9,5.7-1,11.7-1.3,13.5c-0.5,6-1.1,14.6-1.6,26.8
							c-2.3,52.5,10.9,125.9,10.9,125.9l5.7,19.4c3.7,9.7,4.9,19.9,23.6,25c18.6,5.1,84.4-12.3,84.4-12.3s-5.4-93.8-6.9-132
							C255.3,276.7,243.8,206,244.1,164.5z"/>
					</g>
					<g>
						<path class="st5" d="M243.8,239.2c-6-41.1-3.4-74.1,0.7-99.9c-0.8,5.1-1.2,14.1-1.3,15.4c-0.7,8.7-1.4,17.7-1.2,26.4
							c0.2,18.2,1.5,39.1,4.8,62c2.8,19.6,4.9,28.3,6.4,31.7c0.3,2.8,0.6,5.5,0.8,8.2C250.2,282.8,247.6,265.7,243.8,239.2z"/>
						<path class="st6" d="M247.5,222.5c1.8,17.7,3.9,35.8,5.7,52.3c-1.5-3.4-3.6-12.1-6.4-31.7c-3.3-22.9-4.9-41.7-4.9-72.4l0-0.1
							c-0.3-11.1,2.7-31.8,2.7-30.9C242.9,164.4,245.7,207.8,247.5,222.5z"/>
					</g>
					<path class="st3" d="M272.4,97.8c-4.5-21.3-8.8-19.9-8.8-19.9l0,0c-15.9,9.8-19.2,45.2-19.5,86.6c-0.1,19.3,2.3,45,5,70.6
						l26.3,190.6c0,0,8.4,4.1,25,3.5c16.6-0.6,24.6-7.6,24.6-7.6S276.9,119.1,272.4,97.8z"/>
				</g>
			</g>
			<g>
				<polygon class="st5" points="233.2,168.8 233.2,166.3 173.8,168 173.8,170.5 				"/>
				<polygon class="st6" points="233.2,169.8 233.2,167.3 173.8,169 173.8,171.5 				"/>
				<path class="st3" d="M233,168.4v13.7c0,0.5-0.4,0.9-0.9,0.9l-56.8,1.2c-0.5,0-0.9-0.4-0.9-0.9v-13.2L233,168.4z"/>
				<line class="st10" x1="174.5" y1="170.7" x2="233" y2="169"/>
			</g>
			<g>
				<g>
					<g>
						<path class="st5" d="M86.2,85.8c0,0-3.4,3.4-2,7.2c1.4,3.7,42.6,93.8,52.2,116.4c2.9,6.7,7,16.1,10.9,25.1
							c2.4,5.5,4.4-6.1,4.4-6.1l-2.8-12.5L92.1,96.1L86.2,85.8z"/>
						<path class="st6" d="M87,85.8c0,0-3.5,2-2.1,5.7c1.4,3.7,45,101.3,53.3,117.8c3.2,6.4,7.1,15.5,10.7,24.2
							c1.9,4.7,2.4-10.5,2.4-10.5l-1.5-7.2L92.9,96.1L87,85.8z"/>
						<polygon class="st5" points="106.7,46.2 94.5,87 112.1,101.4 116.6,101.5 103.8,57.2 						"/>
						<polygon class="st6" points="106.7,46.2 96.3,85.9 106.3,92.4 111.7,106.4 119.5,101.5 106.7,57.2 						"/>
					</g>
					<path class="st3" d="M126.4,30c0,0-14.7,4.9-18.4,13.3S97.8,85.5,97.8,85.5l18.1,7.9c0,0-26.2-9.2-28.9-6.9
						c-1.7,1.4-0.3,6.7,4.1,15.8c3.2,6.6,32.6,72.9,45.6,101.6c5.1,11.2,9.1,20.8,12.2,28.8c1.4,3.6,0.1-1,0.8-1.7
						c0.2-0.2,3.7-10.8,3.2-13.6c-5.5-32.8-14.3-93.7-19.1-120c-5.5-29.8-10.3-44.8-10.3-53.7S126.4,30,126.4,30z"/>
					<line class="st10" x1="129.1" y1="74.2" x2="115.9" y2="93.4"/>
					<g>
						<polygon class="st5" points="149.7,197.5 144.3,220.8 145.7,224.8 150.2,205.7 						"/>
						<polygon class="st6" points="150.5,199.7 144.7,222 146.5,227 151,207.8 						"/>
					</g>
					<g>
						<path class="st5" d="M213.9,85.8c0,0,3.4,3.4,2,7.2c-1.4,3.7-42.6,93.8-52.2,116.4c-7.3,17-22.5,51.2-22.5,51.2l10-44.8
							L208,96.1L213.9,85.8z"/>
						<path class="st6" d="M213.1,85.8c0,0,3.5,2,2.1,5.7s-45,101.3-53.3,117.8c-8.3,16.5-21,50.7-21,50.7l9.5-44.2l56.9-119.7
							L213.1,85.8z"/>
						<polygon class="st5" points="193.4,46.2 205.6,87 188,101.4 183.5,101.5 196.3,57.2 						"/>
						<polygon class="st6" points="193.4,46.2 203.8,85.9 193.8,92.4 188.4,106.4 180.6,101.5 193.4,57.2 						"/>
					</g>
					<path class="st3" d="M173.7,30c0,0,14.7,4.9,18.4,13.3s10.3,42.2,10.3,42.2l-18.1,7.9c0,0,26.2-9.2,28.9-6.9
						c1.7,1.4,0.3,6.7-4.1,15.8c-3.2,6.6-32.6,72.9-45.6,101.6c-13.5,30-19.3,48.2-22.6,56.1c0,0-0.7-3.9,4.4-31.4
						c5.1-27.6,15.6-101.5,21.1-131.3c5.5-29.8,10.3-44.8,10.3-53.7S173.7,30,173.7,30z"/>
					<path class="st11" d="M202.4,94.4l-2.8,1c-0.8,0.2-1.6,0.5-2.3,0.9l-2.6,1.2c-0.2,0.1-0.1,0.5,0.2,0.4l2.7-0.9
						c0.8-0.2,1.5-0.5,2.3-0.9l2.8-1.3C202.8,94.7,202.6,94.4,202.4,94.4z"/>
					<line class="st10" x1="171" y1="74.2" x2="184.2" y2="93.4"/>
				</g>
			</g>
			<g>
				<g>
					<g>
						<g>
							<line class="st8" x1="203.7" y1="206.5" x2="203.7" y2="207"/>
							<line class="st12" x1="203.7" y1="209" x2="203.7" y2="312.4"/>
							<line class="st8" x1="203.7" y1="313.4" x2="203.7" y2="313.9"/>
						</g>
					</g>
					<g>
						<path class="st5" d="M195.4,317.5l-1.3,17.7c-0.6,10.1,4.2,13.2,9.2,13.2H258l-0.2-4.6L195.4,317.5z"/>
						<path class="st6" d="M195.4,316.9l-0.6,14.5c-0.6,10.1,2.8,15.7,8.6,15.7H258l-0.2-4.6L195.4,316.9z"/>
						<path class="st3" d="M195.4,321.4v-5.1h61.5l1.5,29.8h-53.7c-7.1,0-9.2-8.4-9.2-15.5v0V321.4z"/>
						<g>
							<g>
								<line class="st8" x1="195.8" y1="319.4" x2="196.3" y2="319.4"/>
								<line class="st13" x1="198.4" y1="319.4" x2="255.3" y2="319.4"/>
								<line class="st8" x1="256.3" y1="319.4" x2="256.8" y2="319.4"/>
							</g>
						</g>
					</g>
				</g>
				<g>
					<g>
						<g>
							<line class="st8" x1="96.6" y1="206.5" x2="96.6" y2="207"/>
							<line class="st12" x1="96.6" y1="209" x2="96.6" y2="312.4"/>
							<line class="st8" x1="96.6" y1="313.4" x2="96.6" y2="313.9"/>
						</g>
					</g>
					<g>
						<path class="st5" d="M104.9,317.5l1.3,17.7c0.6,10.1-4.2,13.2-9.2,13.2H42.3l0.2-4.6L104.9,317.5z"/>
						<path class="st6" d="M104.9,316.9l0.6,14.5c0.6,10.1-2.8,15.7-8.6,15.7H42.3l0.2-4.6L104.9,316.9z"/>
						<path class="st3" d="M104.9,321.4v-5.1H43.4l-1.5,29.8h53.7c7.1,0,9.2-8.4,9.2-15.5v0V321.4z"/>
						<g>
							<g>
								<line class="st8" x1="104.5" y1="319.4" x2="104" y2="319.4"/>
								<line class="st14" x1="102" y1="319.4" x2="45" y2="319.4"/>
								<line class="st8" x1="43.9" y1="319.4" x2="43.4" y2="319.4"/>
							</g>
						</g>
					</g>
				</g>
			</g>
			<g>
				<g id="XMLID_9385_">
					<circle id="XMLID_9400_" class="st5" cx="152.3" cy="268.1" r="6"/>
					<circle id="XMLID_9399_" class="st15" cx="152.4" cy="267.9" r="5.8"/>
					<polygon id="XMLID_9398_" class="st11" points="159.8,267.7 152.5,266.2 144.3,267.7 152.5,269.1 					"/>
					<circle id="XMLID_9397_" class="st16" cx="152.3" cy="267.1" r="5.8"/>
					<circle id="XMLID_9396_" class="st17" cx="152.3" cy="267.1" r="5"/>
					<circle id="XMLID_9395_" class="st18" cx="151.3" cy="265.8" r="0.7"/>
					<circle id="XMLID_9394_" class="st18" cx="153.1" cy="269.4" r="0.7"/>
					<line id="XMLID_9393_" class="st19" x1="151" y1="265.8" x2="152.8" y2="269.4"/>
					<line id="XMLID_9392_" class="st19" x1="151.5" y1="265.6" x2="153.2" y2="269.2"/>
					<line id="XMLID_9391_" class="st19" x1="151" y1="265.8" x2="152.8" y2="269.4"/>
					<line id="XMLID_9390_" class="st19" x1="151.5" y1="265.6" x2="153.2" y2="269.2"/>
					<circle id="XMLID_9389_" class="st18" cx="150.4" cy="268.5" r="0.7"/>
					<circle id="XMLID_9388_" class="st18" cx="154" cy="266.7" r="0.7"/>
					<line id="XMLID_9387_" class="st19" x1="150.4" y1="268.7" x2="154" y2="267"/>
					<line id="XMLID_9386_" class="st19" x1="150.2" y1="268.3" x2="153.8" y2="266.5"/>
				</g>
				<g id="XMLID_9369_">
					<circle id="XMLID_9384_" class="st5" cx="152.3" cy="333.7" r="6"/>
					<circle id="XMLID_9383_" class="st15" cx="152.4" cy="333.5" r="5.8"/>
					<polygon id="XMLID_9382_" class="st11" points="159.8,333.3 152.5,331.8 144.3,333.3 152.5,334.7 					"/>
					<circle id="XMLID_9381_" class="st16" cx="152.3" cy="332.7" r="5.8"/>
					<circle id="XMLID_9380_" class="st17" cx="152.3" cy="332.7" r="5"/>
					<circle id="XMLID_9379_" class="st18" cx="151.3" cy="331.4" r="0.7"/>
					<circle id="XMLID_9378_" class="st18" cx="153.1" cy="335" r="0.7"/>
					<line id="XMLID_9377_" class="st19" x1="151" y1="331.4" x2="152.8" y2="335"/>
					<line id="XMLID_9376_" class="st19" x1="151.5" y1="331.2" x2="153.2" y2="334.8"/>
					<line id="XMLID_9375_" class="st19" x1="151" y1="331.4" x2="152.8" y2="335"/>
					<line id="XMLID_9374_" class="st19" x1="151.5" y1="331.2" x2="153.2" y2="334.8"/>
					<circle id="XMLID_9373_" class="st18" cx="150.4" cy="334.1" r="0.7"/>
					<circle id="XMLID_9372_" class="st18" cx="154" cy="332.3" r="0.7"/>
					<line id="XMLID_9371_" class="st19" x1="150.4" y1="334.3" x2="154" y2="332.6"/>
					<line id="XMLID_9370_" class="st19" x1="150.2" y1="333.9" x2="153.8" y2="332.1"/>
				</g>
			</g>
			<g>
				<g>
					<g id="XMLID_14034_">
						<path class="st11" d="M318.6,401.2l-4.2,0.3l-4,1.2c-0.3,0.1-0.2,0.5,0.1,0.4l4.2-0.3l4-1.2
							C318.9,401.6,318.8,401.2,318.6,401.2z"/>
						<circle id="XMLID_14046_" class="st5" cx="315.9" cy="402.2" r="3.1"/>
						<circle id="XMLID_14045_" class="st15" cx="315.9" cy="402" r="3"/>
						<circle id="XMLID_14044_" class="st20" cx="315.9" cy="401.6" r="3"/>
						<circle id="XMLID_14043_" class="st17" cx="315.9" cy="401.6" r="2.6"/>
						<circle id="XMLID_14042_" class="st18" cx="315.4" cy="400.9" r="0.4"/>
						<circle id="XMLID_14041_" class="st18" cx="316.3" cy="402.8" r="0.4"/>
						<line id="XMLID_14040_" class="st21" x1="315.2" y1="400.9" x2="316.1" y2="402.8"/>
						<line id="XMLID_14039_" class="st21" x1="315.5" y1="400.8" x2="316.4" y2="402.7"/>
						<circle id="XMLID_14038_" class="st18" cx="314.9" cy="402.3" r="0.4"/>
						<circle id="XMLID_14037_" class="st18" cx="316.8" cy="401.4" r="0.4"/>
						<line id="XMLID_14036_" class="st21" x1="314.9" y1="402.5" x2="316.8" y2="401.6"/>
						<line id="XMLID_14035_" class="st21" x1="314.8" y1="402.2" x2="316.7" y2="401.3"/>
					</g>
					<g id="XMLID_14021_">
						<path class="st11" d="M317.3,394.3l-4.2,0.3l-4,1.2c-0.3,0.1-0.2,0.5,0.1,0.4l4.2-0.3l4-1.2
							C317.6,394.7,317.6,394.3,317.3,394.3z"/>
						<circle id="XMLID_14033_" class="st5" cx="314.6" cy="395.3" r="3.1"/>
						<circle id="XMLID_14032_" class="st15" cx="314.6" cy="395.1" r="3"/>
						<circle id="XMLID_14031_" class="st20" cx="314.6" cy="394.7" r="3"/>
						<circle id="XMLID_14030_" class="st17" cx="314.6" cy="394.7" r="2.6"/>
						<circle id="XMLID_14029_" class="st18" cx="314.1" cy="394.1" r="0.4"/>
						<circle id="XMLID_14028_" class="st18" cx="315" cy="395.9" r="0.4"/>
						<line id="XMLID_14027_" class="st21" x1="313.9" y1="394.1" x2="314.9" y2="395.9"/>
						<line id="XMLID_14026_" class="st21" x1="314.2" y1="394" x2="315.1" y2="395.8"/>
						<circle id="XMLID_14025_" class="st18" cx="313.6" cy="395.4" r="0.4"/>
						<circle id="XMLID_14024_" class="st18" cx="315.5" cy="394.5" r="0.4"/>
						<line id="XMLID_14023_" class="st21" x1="313.6" y1="395.6" x2="315.5" y2="394.7"/>
						<line id="XMLID_14022_" class="st21" x1="313.5" y1="395.3" x2="315.4" y2="394.4"/>
					</g>
					<g id="XMLID_14008_">
						<path class="st11" d="M319.8,408.1l-4.2,0.3l-4,1.2c-0.3,0.1-0.2,0.5,0.1,0.4l4.2-0.3l4-1.2
							C320.2,408.5,320.1,408.1,319.8,408.1z"/>
						<circle id="XMLID_14020_" class="st5" cx="317.2" cy="409" r="3.1"/>
						<circle id="XMLID_14019_" class="st15" cx="317.2" cy="408.9" r="3"/>
						<circle id="XMLID_14018_" class="st20" cx="317.2" cy="408.5" r="3"/>
						<circle id="XMLID_14017_" class="st17" cx="317.2" cy="408.5" r="2.6"/>
						<circle id="XMLID_14016_" class="st18" cx="316.7" cy="407.8" r="0.4"/>
						<circle id="XMLID_14015_" class="st18" cx="317.6" cy="409.7" r="0.4"/>
						<line id="XMLID_14014_" class="st21" x1="316.5" y1="407.8" x2="317.4" y2="409.7"/>
						<line id="XMLID_14013_" class="st21" x1="316.8" y1="407.7" x2="317.7" y2="409.6"/>
						<circle id="XMLID_14012_" class="st18" cx="316.2" cy="409.2" r="0.4"/>
						<circle id="XMLID_14011_" class="st18" cx="318" cy="408.3" r="0.4"/>
						<line id="XMLID_14010_" class="st21" x1="316.2" y1="409.4" x2="318" y2="408.5"/>
						<line id="XMLID_14009_" class="st21" x1="316.1" y1="409.1" x2="317.9" y2="408.2"/>
					</g>
					<g id="XMLID_13995_">
						<path class="st11" d="M321.1,415l-4.2,0.3l-4,1.2c-0.3,0.1-0.2,0.5,0.1,0.4l4.2-0.3l4-1.2C321.5,415.3,321.4,415,321.1,415z"
							/>
						<circle id="XMLID_14007_" class="st5" cx="318.4" cy="415.9" r="3.1"/>
						<circle id="XMLID_14006_" class="st15" cx="318.5" cy="415.8" r="3"/>
						<circle id="XMLID_14005_" class="st20" cx="318.4" cy="415.4" r="3"/>
						<circle id="XMLID_14004_" class="st17" cx="318.4" cy="415.4" r="2.6"/>
						<circle id="XMLID_14003_" class="st18" cx="317.9" cy="414.7" r="0.4"/>
						<circle id="XMLID_14002_" class="st18" cx="318.8" cy="416.6" r="0.4"/>
						<line id="XMLID_14001_" class="st21" x1="317.8" y1="414.7" x2="318.7" y2="416.6"/>
						<line id="XMLID_14000_" class="st21" x1="318" y1="414.6" x2="318.9" y2="416.5"/>
						<circle id="XMLID_13999_" class="st18" cx="317.5" cy="416.1" r="0.4"/>
						<circle id="XMLID_13998_" class="st18" cx="319.3" cy="415.2" r="0.4"/>
						<line id="XMLID_13997_" class="st21" x1="317.5" y1="416.2" x2="319.3" y2="415.3"/>
						<line id="XMLID_13996_" class="st21" x1="317.4" y1="416" x2="319.2" y2="415.1"/>
					</g>
				</g>
				<g>
					<g id="XMLID_13982_">
						<path class="st11" d="M-18.5,401.2l4.2,0.3l4,1.2c0.3,0.1,0.2,0.5-0.1,0.4l-4.2-0.3l-4-1.2C-18.8,401.6-18.7,401.2-18.5,401.2
							z"/>
						<circle id="XMLID_13994_" class="st5" cx="-15.8" cy="402.2" r="3.1"/>
						<circle id="XMLID_13993_" class="st15" cx="-15.8" cy="402" r="3"/>
						<circle id="XMLID_13992_" class="st20" cx="-15.8" cy="401.6" r="3"/>
						<circle id="XMLID_13991_" class="st17" cx="-15.8" cy="401.6" r="2.6"/>
						<circle id="XMLID_13990_" class="st18" cx="-15.3" cy="400.9" r="0.4"/>
						<circle id="XMLID_13989_" class="st18" cx="-16.2" cy="402.8" r="0.4"/>
						<line id="XMLID_13988_" class="st21" x1="-15.1" y1="400.9" x2="-16" y2="402.8"/>
						<line id="XMLID_13987_" class="st21" x1="-15.4" y1="400.8" x2="-16.3" y2="402.7"/>
						<circle id="XMLID_13986_" class="st18" cx="-14.8" cy="402.3" r="0.4"/>
						<circle id="XMLID_13985_" class="st18" cx="-16.7" cy="401.4" r="0.4"/>
						<line id="XMLID_13984_" class="st21" x1="-14.8" y1="402.5" x2="-16.6" y2="401.6"/>
						<line id="XMLID_13983_" class="st21" x1="-14.7" y1="402.2" x2="-16.5" y2="401.3"/>
					</g>
					<g id="XMLID_13969_">
						<path class="st11" d="M-17.2,394.3l4.2,0.3l4,1.2c0.3,0.1,0.2,0.5-0.1,0.4l-4.2-0.3l-4-1.2C-17.5,394.7-17.4,394.3-17.2,394.3
							z"/>
						<circle id="XMLID_13981_" class="st5" cx="-14.5" cy="395.3" r="3.1"/>
						<circle id="XMLID_13980_" class="st15" cx="-14.5" cy="395.1" r="3"/>
						<circle id="XMLID_13979_" class="st20" cx="-14.5" cy="394.7" r="3"/>
						<circle id="XMLID_13978_" class="st17" cx="-14.5" cy="394.7" r="2.6"/>
						<circle id="XMLID_13977_" class="st18" cx="-14" cy="394.1" r="0.4"/>
						<circle id="XMLID_13976_" class="st18" cx="-14.9" cy="395.9" r="0.4"/>
						<line id="XMLID_13975_" class="st21" x1="-13.8" y1="394.1" x2="-14.7" y2="395.9"/>
						<line id="XMLID_13974_" class="st21" x1="-14.1" y1="394" x2="-15" y2="395.8"/>
						<circle id="XMLID_13973_" class="st18" cx="-13.5" cy="395.4" r="0.4"/>
						<circle id="XMLID_13972_" class="st18" cx="-15.4" cy="394.5" r="0.4"/>
						<line id="XMLID_13971_" class="st21" x1="-13.5" y1="395.6" x2="-15.4" y2="394.7"/>
						<line id="XMLID_13970_" class="st21" x1="-13.4" y1="395.3" x2="-15.3" y2="394.4"/>
					</g>
					<g id="XMLID_13956_">
						<path class="st11" d="M-19.7,408.1l4.2,0.3l4,1.2c0.3,0.1,0.2,0.5-0.1,0.4l-4.2-0.3l-4-1.2C-20.1,408.5-20,408.1-19.7,408.1z"
							/>
						<circle id="XMLID_13968_" class="st5" cx="-17" cy="409" r="3.1"/>
						<circle id="XMLID_13967_" class="st15" cx="-17.1" cy="408.9" r="3"/>
						<circle id="XMLID_13966_" class="st20" cx="-17" cy="408.5" r="3"/>
						<circle id="XMLID_13965_" class="st17" cx="-17" cy="408.5" r="2.6"/>
						<circle id="XMLID_13964_" class="st18" cx="-16.5" cy="407.8" r="0.4"/>
						<circle id="XMLID_13963_" class="st18" cx="-17.5" cy="409.7" r="0.4"/>
						<line id="XMLID_13962_" class="st21" x1="-16.4" y1="407.8" x2="-17.3" y2="409.7"/>
						<line id="XMLID_13961_" class="st21" x1="-16.6" y1="407.7" x2="-17.6" y2="409.6"/>
						<circle id="XMLID_13960_" class="st18" cx="-16.1" cy="409.2" r="0.4"/>
						<circle id="XMLID_13959_" class="st18" cx="-17.9" cy="408.3" r="0.4"/>
						<line id="XMLID_13958_" class="st21" x1="-16.1" y1="409.4" x2="-17.9" y2="408.5"/>
						<line id="XMLID_13957_" class="st21" x1="-16" y1="409.1" x2="-17.8" y2="408.2"/>
					</g>
					<g id="XMLID_13943_">
						<path class="st11" d="M-21,415l4.2,0.3l4,1.2c0.3,0.1,0.2,0.5-0.1,0.4l-4.2-0.3l-4-1.2C-21.4,415.3-21.3,415-21,415z"/>
						<circle id="XMLID_13955_" class="st5" cx="-18.3" cy="415.9" r="3.1"/>
						<circle id="XMLID_13954_" class="st15" cx="-18.4" cy="415.8" r="3"/>
						<circle id="XMLID_13953_" class="st20" cx="-18.3" cy="415.4" r="3"/>
						<circle id="XMLID_13952_" class="st17" cx="-18.3" cy="415.4" r="2.6"/>
						<circle id="XMLID_13951_" class="st18" cx="-17.8" cy="414.7" r="0.4"/>
						<circle id="XMLID_13950_" class="st18" cx="-18.7" cy="416.6" r="0.4"/>
						<line id="XMLID_13949_" class="st21" x1="-17.7" y1="414.7" x2="-18.6" y2="416.6"/>
						<line id="XMLID_13948_" class="st21" x1="-17.9" y1="414.6" x2="-18.8" y2="416.5"/>
						<circle id="XMLID_13947_" class="st18" cx="-17.4" cy="416.1" r="0.4"/>
						<circle id="XMLID_13946_" class="st18" cx="-19.2" cy="415.2" r="0.4"/>
						<line id="XMLID_13945_" class="st21" x1="-17.4" y1="416.2" x2="-19.2" y2="415.3"/>
						<line id="XMLID_13944_" class="st21" x1="-17.3" y1="416" x2="-19.1" y2="415.1"/>
					</g>
				</g>
			</g>
		</g>
	</g>
	<g id="XMLID_1_" class="st0">
		<defs>
			<rect id="XMLID_4932_" x="-13.5" width="327.1" height="300"/>
		</defs>
		<clipPath id="XMLID_4_">
			<use xlink:href="#XMLID_4932_"  style="overflow:visible;"/>
		</clipPath>
	</g>
	<g class="st0">
		<path class="st22" d="M150.1,4.6c38.7,0,75.1,15.1,102.5,42.5c27.4,27.4,42.5,63.8,42.5,102.5s-15.1,75.1-42.5,102.5
			c-27.4,27.4-63.8,42.5-102.5,42.5S75,279.5,47.6,252.1C20.2,224.7,5.1,188.3,5.1,149.6S20.2,74.5,47.6,47.1
			C75,19.7,111.4,4.6,150.1,4.6 M150.1-0.4c-82.8,0-150,67.2-150,150s67.2,150,150,150s150-67.2,150-150S232.9-0.4,150.1-0.4
			L150.1-0.4z"/>
	</g>
</g>
</svg>
