<?xml version="1.0" encoding="utf-8"?>
<!-- Generator: Adobe Illustrator 19.0.0, SVG Export Plug-In . SVG Version: 6.00 Build 0)  -->
<svg version="1.1" id="Layer_1" xmlns="http://www.w3.org/2000/svg" xmlns:xlink="http://www.w3.org/1999/xlink" x="0px" y="0px"
	 viewBox="0 0 300 300" style="enable-background:new 0 0 300 300;" xml:space="preserve">
<style type="text/css">
	.st0{clip-path:url(#SVGID_2_);}
	.st1{clip-path:url(#XMLID_3_);}
	.st2{fill:#F1F1F2;stroke:#404041;stroke-miterlimit:10;}
	.st3{fill:#FFFFFF;stroke:#404041;stroke-miterlimit:10;}
	.st4{fill:#929497;}
	.st5{fill:#F1F1F2;}
	.st6{fill:#C5C7C9;}
	.st7{fill:none;stroke:#404041;stroke-miterlimit:10;}
	.st8{fill:none;stroke:#808184;stroke-width:0.5;stroke-miterlimit:10;}
	.st9{fill:none;stroke:#808184;stroke-width:0.5;stroke-miterlimit:10;stroke-dasharray:0.9993,1.9985;}
	.st10{fill:none;stroke:#808184;stroke-width:0.5;stroke-miterlimit:10;stroke-dasharray:1,2;}
	.st11{fill:#404041;stroke:#D0D2D3;stroke-width:0.5;stroke-miterlimit:10;}
	.st12{fill:none;stroke:#808184;stroke-width:0.5;stroke-miterlimit:10;stroke-dasharray:0.9943,1.9886;}
	.st13{fill:none;stroke:#808184;stroke-width:0.5;stroke-miterlimit:10;stroke-dasharray:1.0166,2.0331;}
	.st14{fill:none;stroke:#808184;stroke-width:0.5;stroke-miterlimit:10;stroke-dasharray:1.0177,2.0353;}
	.st15{fill:#DBDCDD;}
	.st16{fill:#FFFFFF;stroke:#6D6E70;stroke-miterlimit:10;}
	.st17{fill:#FFFFFF;stroke:#929497;stroke-width:0.25;stroke-miterlimit:10;}
	.st18{fill:#404041;}
	.st19{fill:none;stroke:#6D6E70;stroke-width:0.5;stroke-miterlimit:10;}
	.st20{fill:#FFFFFF;stroke:#6D6E70;stroke-width:0.5;stroke-miterlimit:10;}
	.st21{fill:none;stroke:#6D6E70;stroke-width:0.25;stroke-miterlimit:10;}
	.st22{fill:#9AA0BB;}
</style>
<g>
	<defs>
		<circle id="SVGID_1_" cx="150.1" cy="149.6" r="150"/>
	</defs>
	<use xlink:href="#SVGID_1_"  style="overflow:visible;fill:#DDDDDD;"/>
	<clipPath id="SVGID_2_">
		<use xlink:href="#SVGID_1_"  style="overflow:visible;"/>
	</clipPath>
	<g id="XMLID_254_" class="st0">
		<defs>
			<rect id="XMLID_4044_" x="-13.5" width="327.1" height="300"/>
		</defs>
		<clipPath id="XMLID_3_">
			<use xlink:href="#XMLID_4044_"  style="overflow:visible;"/>
		</clipPath>
		<g class="st1">
			<g>
				<g>
					<g>
						<polygon class="st2" points="174.4,35.3 184.3,46.4 147.3,210.9 115.5,46.4 125,35.3 						"/>
						<path class="st3" d="M174.8,30c0,0,0.1-0.6-24.9-0.6c-0.1,0-0.2,0-0.3,0c-0.1,0-0.2,0-0.3,0c-25,0-24.9,0.6-24.9,0.6l-3,10.9
							c0,0,4.1,1,13.9,1.4c3.8,0.2,8.8,0.3,14.4,0.3c5.7,0,10.1-0.1,13.9-0.3c9.9-0.4,13.9-1.4,13.9-1.4L174.8,30z"/>
						<g>
							<path class="st4" d="M129.1,29.7c0,0-2.6,2.9-2.4,6.6c0.2,3.7,0.4,4.9,0.4,4.9h-2.7l0.3-11.1L129.1,29.7z"/>
							<path class="st5" d="M130.1,29.6c-0.7,0-1.3,0-1.8,0.1c-1.5,2.4-1.5,9.3-1.4,11.8c0.8,0.1,1.7,0.1,2.7,0.2
								c-0.2-0.7-0.4-2.3-0.4-5.1C129.2,33.2,129.8,30.7,130.1,29.6z"/>
							<path class="st6" d="M128.5,29.7c-0.4,0-0.7,0-1,0c-0.6,0.5-1.2,1.4-1.4,2.9c-0.3,3.1-0.4,7-0.5,8.8c0.8,0.1,1.7,0.2,2.7,0.2
								C127.9,39,127.1,32,128.5,29.7z"/>
						</g>
						<g>
							<path class="st4" d="M170.1,29.7c0,0,2.6,2.9,2.4,6.6c-0.2,3.7-0.4,4.9-0.4,4.9h2.7L174.6,30L170.1,29.7z"/>
							<path class="st5" d="M169,29.6c0.7,0,1.3,0,1.8,0.1c1.5,2.4,1.5,9.3,1.4,11.8c-0.8,0.1-1.7,0.1-2.7,0.2
								c0.2-0.7,0.4-2.3,0.4-5.1C169.9,33.2,169.3,30.7,169,29.6z"/>
							<path class="st6" d="M170.6,29.7c0.4,0,0.7,0,1,0c0.6,0.5,1.2,1.4,1.4,2.9c0.3,3.1,0.4,7,0.5,8.8c-0.8,0.1-1.7,0.2-2.7,0.2
								C171.2,39,172.1,32,170.6,29.7z"/>
						</g>
						<path class="st7" d="M174.8,30c0,0,0.1-0.6-24.9-0.6c-0.1,0-0.2,0-0.3,0c-0.1,0-0.2,0-0.3,0c-25,0-24.9,0.6-24.9,0.6l-3,10.9
							c0,0,4.1,1,13.9,1.4c3.8,0.2,8.8,0.3,14.4,0.3c5.7,0,10.1-0.1,13.9-0.3c9.9-0.4,13.9-1.4,13.9-1.4L174.8,30z"/>
						<g>
							<polygon class="st4" points="126.3,63.9 149.9,175.8 173,63.9 157.9,195.1 149.1,204.4 142.2,193.9 							"/>
							<polygon class="st6" points="149.7,190.3 173.6,58.9 149.9,175.2 125.8,58.9 							"/>
						</g>
						<g>
							<g>
								<line class="st8" x1="149.9" y1="44" x2="149.9" y2="44.5"/>
								<line class="st9" x1="149.9" y1="46.5" x2="149.9" y2="198.4"/>
								<line class="st8" x1="149.9" y1="199.4" x2="149.9" y2="199.9"/>
							</g>
						</g>
						<path class="st4" d="M137,46.7l0.9,0.9c0,0,6.5-0.5,12-0.5c5.5,0,12.4,0.5,12.4,0.5l0.6-0.9H137z"/>
						<path class="st6" d="M137.7,47.4l0.7,0.7c0,0,6.1-0.5,11.5-0.5c5.4,0,12.2,0.5,12.2,0.5l0.4-0.7l-12.5-0.2L137.7,47.4z"/>
						<path class="st3" d="M149.9,42.5c-5.7,0-10.4,0-14.3-0.2l1.6,4.4h12.6h0.1h12.6l1.6-4.4C160.4,42.5,155.6,42.5,149.9,42.5z"/>
					</g>
					<path class="st2" d="M162.6,437.7c0-0.7,0-25.3,0-25.3h-25.4v25.3H162.6z"/>
					<g>
						<polygon class="st4" points="150.1,421.8 140.3,443.8 149.9,408.7 159.9,444.2 						"/>
						<polygon class="st6" points="149.9,426.2 140.3,443.8 149.9,418.8 159.9,444.2 						"/>
					</g>
					<path class="st3" d="M163.5,289.1c-2.3-52.5-4.9-38.4-4.9-38.4l-4.5-37.8l-3.5-7.6c-5.4-27.1-12.1-60.6-13.4-69.8
						c-2.2-14.9-9.5-62.4-9.5-62.4c-4.5-28.7-2.5-43-2.5-43s-21.6,12.3-26,15.2c-2.3,1.5-22.2,10.3-39.2,18.1
						C39.3,72.9,36.5,78,36.5,78c15.9,9.8,19.2,45.2,19.5,86.6c0.3,41.5-11.2,112.2-12.6,149c-1.5,38.2-9.3,132-9.3,132
						s68.2,17.4,86.9,12.3c18.6-5.1,20.1-15.6,23.8-25.2l5.5-19.2C150.1,413.5,165.8,341.6,163.5,289.1z"/>
					<g>
						<path class="st5" d="M56.2,239.3c6-41.1,3.4-74.1-0.7-99.9c0.8,5.1,1.2,14.1,1.3,15.4c0.7,8.7,1.4,17.7,1.2,26.4
							c-0.2,18.2-1.5,39.1-4.8,62c-2.8,19.6-4.9,28.3-6.4,31.7c-0.3,2.8-0.6,5.5-0.8,8.2C49.7,282.9,52.3,265.7,56.2,239.3z"/>
						<path class="st6" d="M52.5,222.6c-1.8,17.7-3.9,35.8-5.7,52.3c1.5-3.4,3.6-12.1,6.4-31.7c3.3-22.9,4.9-41.7,4.9-72.4l0-0.1
							c0.3-11.1-2.7-31.8-2.7-30.9C57.1,164.5,54.2,207.9,52.5,222.6z"/>
					</g>
					<path class="st3" d="M55.9,164.6c-0.3-38.9-3.2-72.4-16.6-84.5l-2.8-1.6c0,0-4.3-1.4-8.8,19.9C23.1,119.7-25,422.2-25,422.2
						s8,7,24.6,7.6s25-3.5,25-3.5l26.1-188.7C53.5,211.2,56.1,184.5,55.9,164.6z"/>
					<g>
						<path class="st5" d="M150.1,198c0,0-18.8,44.7-18.8,108.2s21,109.4,21,109.4l-2.2-77.1l3.1-135L150.1,198z"/>
						<path class="st6" d="M152.7,198c0,0-18.8,44.7-18.8,108.2s21,109.4,21,109.4l-2.2-77.1l3.1-135L152.7,198z"/>
					</g>
					<g>
						<path class="st3" d="M244.1,164.6c0.3-41.5,3.6-76.8,19.5-86.6c0,0-2.9-5.1-23.5-14.6c-19.4-9-35.7-16-42.1-19.7
							c-0.4-0.2-0.8-0.4-1.1-0.6c-5.5-3.4-22.1-13.1-22.1-13.1s1.1,14.3-3.4,43c0,0-7.4,47.5-9.5,62.4
							c-2.2,14.9-18.4,93.7-20.4,105.5c-0.5,3.1-1,6-1.4,8.6c-0.9,5.7-1.6,10.9-1.9,12.7c-0.5,6-1.1,14.6-1.6,26.8
							c-2.3,52.5,13.3,124.4,13.3,124.4l5.7,19.4c3.7,9.7,4.9,19.9,23.6,25c18.6,5.1,84.4-12.3,84.4-12.3s-5.4-93.8-6.9-132
							C255.3,276.8,243.8,206.1,244.1,164.6z"/>
					</g>
					<g>
						<path class="st5" d="M243.8,239.3c-6-41.1-3.4-74.1,0.7-99.9c-0.8,5.1-1.2,14.1-1.3,15.4c-0.7,8.7-1.4,17.7-1.2,26.4
							c0.2,18.2,1.5,39.1,4.8,62c2.8,19.6,4.9,28.3,6.4,31.7c0.3,2.8,0.6,5.5,0.8,8.2C250.2,282.9,247.6,265.7,243.8,239.3z"/>
						<path class="st6" d="M247.5,222.6c1.8,17.7,3.9,35.8,5.7,52.3c-1.5-3.4-3.6-12.1-6.4-31.7c-3.3-22.9-4.9-41.7-4.9-72.4l0-0.1
							c-0.3-11.1,2.7-31.8,2.7-30.9C242.9,164.5,245.7,207.9,247.5,222.6z"/>
					</g>
					<path class="st3" d="M272.4,97.8c-4.5-21.3-8.8-19.9-8.8-19.9l0,0c-15.9,9.8-19.2,45.2-19.5,86.6c-0.1,19.3,2.3,45,5,70.6
						l26.3,190.6c0,0,8.4,4.1,25,3.5c16.6-0.6,24.6-7.6,24.6-7.6S276.9,119.2,272.4,97.8z"/>
				</g>
			</g>
			<g>
				<polygon class="st5" points="233.2,168.7 233.2,166.2 173.8,167.9 173.8,170.4 				"/>
				<polygon class="st6" points="233.2,169.7 233.2,167.2 173.8,168.9 173.8,171.4 				"/>
				<path class="st3" d="M233,168.3v13.7c0,0.5-0.4,0.9-0.9,0.9l-56.8,1.2c-0.5,0-0.9-0.4-0.9-0.9V170L233,168.3z"/>
				<line class="st10" x1="174.5" y1="170.6" x2="233" y2="168.9"/>
			</g>
			<g>
				<g>
					<g>
						<g>
							<polygon class="st5" points="147.8,220 146.2,214.8 88.5,86.7 86.7,91.8 145.6,231.5 146.7,225.9 							"/>
							<polygon class="st6" points="147.8,220 148.7,215 147.9,212 88.5,86.7 87.3,89.7 146.3,228.1 146.7,225.9 							"/>
						</g>
						<polygon class="st5" points="102,79.2 90.3,73.2 92.2,67.7 104.4,64.4 112.4,76 107.8,79.2 						"/>
						<polygon class="st6" points="102.6,78 90.9,71.6 92.8,65.6 105,62.1 113,74.5 108.4,78 						"/>
						<path class="st3" d="M137.5,135.4c-2.2-14.9-9.5-62.4-9.5-62.4c-4.5-28.7-3.4-43-3.4-43s-16.6,9.7-22.1,13.1
							c-0.3,0.2-0.7,0.4-1.1,0.6c0,0-2,4.4-5.7,14.6c-3.7,10.1-3.8,11.2-3.8,11.2l13.1,7.7l-16.1,9.7c0,0,20.9,54.7,40.9,99.6
							c6.6,14.9,12.3,28.2,17,39.5l4.1-21.8C145.3,177.2,138.8,144.5,137.5,135.4z"/>
					</g>
					<g>
						<polygon class="st5" points="149.3,195.8 142,214.8 144.9,222.1 149.9,200 						"/>
						<polygon class="st6" points="149.5,199 143.1,217.4 146,224.3 150.7,203.2 						"/>
					</g>
					<g>
						<polygon class="st5" points="138.1,263.2 138.1,268.5 212.7,91.8 210.8,86.7 153.1,214.8 						"/>
						<polygon class="st6" points="138.1,263.2 212,89.7 210.8,86.7 151.4,212 						"/>
						<polygon class="st5" points="197.3,79.2 209,73.2 207.1,67.7 194.9,64.4 186.9,76 191.5,79.2 						"/>
						<polygon class="st6" points="196.7,78 208.4,71.6 206.5,65.6 194.3,62.1 186.3,74.5 190.9,78 						"/>
					</g>
					<path class="st3" d="M194.5,77.2l13.1-7.7c0,0-0.2-1.1-3.8-11.2S198,43.7,198,43.7c-0.4-0.2-0.8-0.4-1.1-0.6
						c-5.5-3.4-22.1-13.1-22.1-13.1s1.1,14.3-3.4,43c0,0-7.4,47.5-9.5,62.4c-2.2,14.9-18.4,93.7-20.4,105.5c-0.5,3.1-1,6-1.4,8.6
						c-0.9,5.7-1.6,10.9-1.9,12.7c0,0.3,12.5-33,31.6-75.9c20-44.9,40.9-99.6,40.9-99.6L194.5,77.2z"/>
				</g>
				<g>
					<polygon class="st5" points="138.1,263.2 138.1,268.5 212.7,91.8 210.8,86.7 153.1,214.8 					"/>
					<polygon class="st6" points="138.1,263.2 212,89.7 210.8,86.7 151.4,212 					"/>
					<polygon class="st5" points="197.3,79.2 209,73.2 207.1,67.7 194.9,64.4 186.9,76 191.5,79.2 					"/>
					<polygon class="st6" points="196.7,78 208.4,71.6 206.5,65.6 194.3,62.1 186.3,74.5 190.9,78 					"/>
				</g>
				<path class="st3" d="M194.5,77.2l13.1-7.7c0,0-0.2-1.1-3.8-11.2S198,43.7,198,43.7c-0.4-0.2-0.8-0.4-1.1-0.6
					c-5.5-3.4-22.1-13.1-22.1-13.1s1.1,14.3-3.4,43c0,0-7.4,47.5-9.5,62.4c-2.2,14.9-18.4,93.7-20.4,105.5c-0.5,3.1-1,6-1.4,8.6
					c-0.9,5.7-1.6,10.9-1.9,12.7c0,0.3,12.5-33,31.6-75.9c20-44.9,40.9-99.6,40.9-99.6L194.5,77.2z"/>
				<path class="st11" d="M202.6,89.6l-2.7-1.2c-0.7-0.4-1.5-0.6-2.3-0.8l-2.8-0.8c-0.3-0.1-0.4,0.3-0.2,0.4l2.6,1.1
					c0.7,0.4,1.5,0.6,2.3,0.8l2.9,0.9C202.7,90.1,202.9,89.7,202.6,89.6z"/>
			</g>
			<g>
				<g>
					<g>
						<g>
							<line class="st8" x1="203.5" y1="206.4" x2="203.5" y2="206.9"/>
							<line class="st12" x1="203.5" y1="208.9" x2="203.5" y2="312.3"/>
							<line class="st8" x1="203.5" y1="313.3" x2="203.5" y2="313.8"/>
						</g>
					</g>
					<g>
						<path class="st5" d="M195.2,317.5l-1.3,17.7c-0.6,10.1,4.2,13.2,9.2,13.2h54.7l-0.2-4.6L195.2,317.5z"/>
						<path class="st6" d="M195.2,316.9l-0.6,14.5c-0.6,10.1,2.8,15.7,8.6,15.7h54.6l-0.2-4.6L195.2,316.9z"/>
						<path class="st3" d="M195.2,321.3v-5.1h61.5l1.5,29.8h-53.7c-7.1,0-9.2-8.4-9.2-15.5l0,0V321.3z"/>
						<g>
							<g>
								<line class="st8" x1="195.7" y1="319.3" x2="196.2" y2="319.3"/>
								<line class="st13" x1="198.2" y1="319.3" x2="255.2" y2="319.3"/>
								<line class="st8" x1="256.2" y1="319.3" x2="256.7" y2="319.3"/>
							</g>
						</g>
					</g>
				</g>
				<g>
					<g>
						<g>
							<line class="st8" x1="96.5" y1="206.4" x2="96.5" y2="206.9"/>
							<line class="st12" x1="96.5" y1="208.9" x2="96.5" y2="312.3"/>
							<line class="st8" x1="96.5" y1="313.3" x2="96.5" y2="313.8"/>
						</g>
					</g>
					<g>
						<path class="st5" d="M104.8,317.5l1.3,17.7c0.6,10.1-4.2,13.2-9.2,13.2H42.2l0.2-4.6L104.8,317.5z"/>
						<path class="st6" d="M104.8,316.9l0.6,14.5c0.6,10.1-2.8,15.7-8.6,15.7H42.2l0.2-4.6L104.8,316.9z"/>
						<path class="st3" d="M104.8,321.3v-5.1H43.3l-1.5,29.8h53.7c7.1,0,9.2-8.4,9.2-15.5l0,0V321.3z"/>
						<g>
							<g>
								<line class="st8" x1="104.4" y1="319.3" x2="103.9" y2="319.3"/>
								<line class="st14" x1="101.8" y1="319.3" x2="44.8" y2="319.3"/>
								<line class="st8" x1="43.8" y1="319.3" x2="43.3" y2="319.3"/>
							</g>
						</g>
					</g>
				</g>
			</g>
			<g>
				<g>
					<g>
						<g>
							<line class="st8" x1="203.7" y1="206.4" x2="203.7" y2="206.9"/>
							<line class="st12" x1="203.7" y1="208.9" x2="203.7" y2="312.3"/>
							<line class="st8" x1="203.7" y1="313.3" x2="203.7" y2="313.8"/>
						</g>
					</g>
					<g>
						<path class="st5" d="M195.4,317.5l-1.3,17.7c-0.6,10.1,4.2,13.2,9.2,13.2h54.7l-0.2-4.6L195.4,317.5z"/>
						<path class="st6" d="M195.4,316.9l-0.6,14.5c-0.6,10.1,2.8,15.7,8.6,15.7h54.6l-0.2-4.6L195.4,316.9z"/>
						<path class="st3" d="M195.4,321.3v-5.1h61.5l1.5,29.8h-53.7c-7.1,0-9.2-8.4-9.2-15.5l0,0V321.3z"/>
						<g>
							<g>
								<line class="st8" x1="195.9" y1="319.3" x2="196.4" y2="319.3"/>
								<line class="st13" x1="198.5" y1="319.3" x2="255.4" y2="319.3"/>
								<line class="st8" x1="256.4" y1="319.3" x2="256.9" y2="319.3"/>
							</g>
						</g>
					</g>
				</g>
				<g>
					<g>
						<g>
							<line class="st8" x1="96.7" y1="206.4" x2="96.7" y2="206.9"/>
							<line class="st12" x1="96.7" y1="208.9" x2="96.7" y2="312.3"/>
							<line class="st8" x1="96.7" y1="313.3" x2="96.7" y2="313.8"/>
						</g>
					</g>
					<g>
						<path class="st5" d="M105,317.5l1.3,17.7c0.6,10.1-4.2,13.2-9.2,13.2H42.4l0.2-4.6L105,317.5z"/>
						<path class="st6" d="M105,316.9l0.6,14.5c0.6,10.1-2.8,15.7-8.6,15.7H42.4l0.2-4.6L105,316.9z"/>
						<path class="st3" d="M105,321.3v-5.1H43.5L42,346.1h53.7c7.1,0,9.2-8.4,9.2-15.5l0,0V321.3z"/>
						<g>
							<g>
								<line class="st8" x1="104.6" y1="319.3" x2="104.1" y2="319.3"/>
								<line class="st14" x1="102" y1="319.3" x2="45" y2="319.3"/>
								<line class="st8" x1="44" y1="319.3" x2="43.5" y2="319.3"/>
							</g>
						</g>
					</g>
				</g>
			</g>
			<g>
				<g id="XMLID_9705_">
					<circle id="XMLID_9720_" class="st5" cx="152.3" cy="269" r="6"/>
					<circle id="XMLID_9719_" class="st15" cx="152.4" cy="268.7" r="5.8"/>
					<polygon id="XMLID_9718_" class="st11" points="159.8,268.5 152.5,267.1 144.3,268.5 152.5,270 					"/>
					<circle id="XMLID_9717_" class="st16" cx="152.3" cy="268" r="5.8"/>
					<circle id="XMLID_9716_" class="st17" cx="152.3" cy="268" r="5"/>
					<circle id="XMLID_9715_" class="st18" cx="151.3" cy="266.6" r="0.7"/>
					<circle id="XMLID_9714_" class="st18" cx="153.1" cy="270.2" r="0.7"/>
					<line id="XMLID_9713_" class="st19" x1="151" y1="266.6" x2="152.8" y2="270.2"/>
					<line id="XMLID_9712_" class="st19" x1="151.5" y1="266.5" x2="153.2" y2="270"/>
					<line id="XMLID_9711_" class="st19" x1="151" y1="266.6" x2="152.8" y2="270.2"/>
					<line id="XMLID_9710_" class="st19" x1="151.5" y1="266.5" x2="153.2" y2="270"/>
					<circle id="XMLID_9709_" class="st18" cx="150.4" cy="269.3" r="0.7"/>
					<circle id="XMLID_9708_" class="st18" cx="154" cy="267.6" r="0.7"/>
					<line id="XMLID_9707_" class="st19" x1="150.4" y1="269.6" x2="154" y2="267.9"/>
					<line id="XMLID_9706_" class="st19" x1="150.2" y1="269.1" x2="153.8" y2="267.4"/>
				</g>
				<g id="XMLID_9689_">
					<circle id="XMLID_9704_" class="st5" cx="152.3" cy="334.6" r="6"/>
					<circle id="XMLID_9703_" class="st15" cx="152.4" cy="334.3" r="5.8"/>
					<polygon id="XMLID_9702_" class="st11" points="159.8,334.1 152.5,332.7 144.3,334.1 152.5,335.6 					"/>
					<circle id="XMLID_9701_" class="st16" cx="152.3" cy="333.6" r="5.8"/>
					<circle id="XMLID_9700_" class="st17" cx="152.3" cy="333.6" r="5"/>
					<circle id="XMLID_9699_" class="st18" cx="151.3" cy="332.2" r="0.7"/>
					<circle id="XMLID_9698_" class="st18" cx="153.1" cy="335.8" r="0.7"/>
					<line id="XMLID_9697_" class="st19" x1="151" y1="332.2" x2="152.8" y2="335.8"/>
					<line id="XMLID_9696_" class="st19" x1="151.5" y1="332.1" x2="153.2" y2="335.6"/>
					<line id="XMLID_9695_" class="st19" x1="151" y1="332.2" x2="152.8" y2="335.8"/>
					<line id="XMLID_9694_" class="st19" x1="151.5" y1="332.1" x2="153.2" y2="335.6"/>
					<circle id="XMLID_9693_" class="st18" cx="150.4" cy="334.9" r="0.7"/>
					<circle id="XMLID_9692_" class="st18" cx="154" cy="333.2" r="0.7"/>
					<line id="XMLID_9691_" class="st19" x1="150.4" y1="335.2" x2="154" y2="333.5"/>
					<line id="XMLID_9690_" class="st19" x1="150.2" y1="334.7" x2="153.8" y2="333"/>
				</g>
			</g>
			<g>
				<g>
					<g id="XMLID_15767_">
						<path class="st11" d="M318.3,402.3l-4.2,0.3l-4,1.2c-0.3,0.1-0.2,0.5,0.1,0.4l4.2-0.3l4-1.2
							C318.6,402.7,318.6,402.3,318.3,402.3z"/>
						<circle id="XMLID_15818_" class="st5" cx="315.6" cy="403.2" r="3.1"/>
						<circle id="XMLID_15817_" class="st15" cx="315.7" cy="403.1" r="3"/>
						<circle id="XMLID_15816_" class="st20" cx="315.6" cy="402.7" r="3"/>
						<circle id="XMLID_15815_" class="st17" cx="315.6" cy="402.7" r="2.6"/>
						<circle id="XMLID_15775_" class="st18" cx="315.1" cy="402" r="0.4"/>
						<circle id="XMLID_15774_" class="st18" cx="316" cy="403.9" r="0.4"/>
						<line id="XMLID_15773_" class="st21" x1="315" y1="402" x2="315.9" y2="403.9"/>
						<line id="XMLID_15772_" class="st21" x1="315.2" y1="401.9" x2="316.1" y2="403.8"/>
						<circle id="XMLID_15771_" class="st18" cx="314.6" cy="403.4" r="0.4"/>
						<circle id="XMLID_15770_" class="st18" cx="316.5" cy="402.5" r="0.4"/>
						<line id="XMLID_15769_" class="st21" x1="314.6" y1="403.6" x2="316.5" y2="402.7"/>
						<line id="XMLID_15768_" class="st21" x1="314.5" y1="403.3" x2="316.4" y2="402.4"/>
					</g>
					<g id="XMLID_15715_">
						<path class="st11" d="M317,395.4l-4.2,0.3l-4,1.2c-0.3,0.1-0.2,0.5,0.1,0.4l4.2-0.3l4-1.2C317.4,395.8,317.3,395.4,317,395.4z
							"/>
						<circle id="XMLID_15766_" class="st5" cx="314.3" cy="396.4" r="3.1"/>
						<circle id="XMLID_15765_" class="st15" cx="314.4" cy="396.2" r="3"/>
						<circle id="XMLID_15764_" class="st20" cx="314.3" cy="395.8" r="3"/>
						<circle id="XMLID_15763_" class="st17" cx="314.3" cy="395.8" r="2.6"/>
						<circle id="XMLID_15723_" class="st18" cx="313.8" cy="395.1" r="0.4"/>
						<circle id="XMLID_15722_" class="st18" cx="314.7" cy="397" r="0.4"/>
						<line id="XMLID_15721_" class="st21" x1="313.7" y1="395.1" x2="314.6" y2="397"/>
						<line id="XMLID_15720_" class="st21" x1="313.9" y1="395" x2="314.8" y2="396.9"/>
						<circle id="XMLID_15719_" class="st18" cx="313.4" cy="396.5" r="0.4"/>
						<circle id="XMLID_15718_" class="st18" cx="315.2" cy="395.6" r="0.4"/>
						<line id="XMLID_15717_" class="st21" x1="313.4" y1="396.7" x2="315.2" y2="395.8"/>
						<line id="XMLID_15716_" class="st21" x1="313.3" y1="396.4" x2="315.1" y2="395.5"/>
					</g>
					<g id="XMLID_15702_">
						<path class="st11" d="M319.6,409.2l-4.2,0.3l-4,1.2c-0.3,0.1-0.2,0.5,0.1,0.4l4.2-0.3l4-1.2
							C319.9,409.6,319.8,409.2,319.6,409.2z"/>
						<circle id="XMLID_15714_" class="st5" cx="316.9" cy="410.1" r="3.1"/>
						<circle id="XMLID_15713_" class="st15" cx="316.9" cy="410" r="3"/>
						<circle id="XMLID_15712_" class="st20" cx="316.9" cy="409.6" r="3"/>
						<circle id="XMLID_15711_" class="st17" cx="316.9" cy="409.6" r="2.6"/>
						<circle id="XMLID_15710_" class="st18" cx="316.4" cy="408.9" r="0.4"/>
						<circle id="XMLID_15709_" class="st18" cx="317.3" cy="410.8" r="0.4"/>
						<line id="XMLID_15708_" class="st21" x1="316.2" y1="408.9" x2="317.1" y2="410.8"/>
						<line id="XMLID_15707_" class="st21" x1="316.5" y1="408.8" x2="317.4" y2="410.7"/>
						<circle id="XMLID_15706_" class="st18" cx="315.9" cy="410.3" r="0.4"/>
						<circle id="XMLID_15705_" class="st18" cx="317.8" cy="409.4" r="0.4"/>
						<line id="XMLID_15704_" class="st21" x1="315.9" y1="410.4" x2="317.8" y2="409.5"/>
						<line id="XMLID_15703_" class="st21" x1="315.8" y1="410.2" x2="317.7" y2="409.3"/>
					</g>
					<g id="XMLID_15689_">
						<path class="st11" d="M320.9,416.1l-4.2,0.3l-4,1.2c-0.3,0.1-0.2,0.5,0.1,0.4l4.2-0.3l4-1.2
							C321.2,416.4,321.1,416.1,320.9,416.1z"/>
						<circle id="XMLID_15701_" class="st5" cx="318.2" cy="417" r="3.1"/>
						<circle id="XMLID_15700_" class="st15" cx="318.2" cy="416.9" r="3"/>
						<circle id="XMLID_15699_" class="st20" cx="318.2" cy="416.5" r="3"/>
						<circle id="XMLID_15698_" class="st17" cx="318.2" cy="416.5" r="2.6"/>
						<circle id="XMLID_15697_" class="st18" cx="317.7" cy="415.8" r="0.4"/>
						<circle id="XMLID_15696_" class="st18" cx="318.6" cy="417.7" r="0.4"/>
						<line id="XMLID_15695_" class="st21" x1="317.5" y1="415.8" x2="318.4" y2="417.6"/>
						<line id="XMLID_15694_" class="st21" x1="317.8" y1="415.7" x2="318.7" y2="417.5"/>
						<circle id="XMLID_15693_" class="st18" cx="317.2" cy="417.2" r="0.4"/>
						<circle id="XMLID_15692_" class="st18" cx="319.1" cy="416.3" r="0.4"/>
						<line id="XMLID_15691_" class="st21" x1="317.2" y1="417.3" x2="319.1" y2="416.4"/>
						<line id="XMLID_15690_" class="st21" x1="317.1" y1="417.1" x2="318.9" y2="416.2"/>
					</g>
				</g>
				<g>
					<g id="XMLID_15676_">
						<path class="st11" d="M-18.7,402.3l4.2,0.3l4,1.2c0.3,0.1,0.2,0.5-0.1,0.4l-4.2-0.3l-4-1.2C-19.1,402.7-19,402.3-18.7,402.3z"
							/>
						<circle id="XMLID_15688_" class="st5" cx="-16" cy="403.2" r="3.1"/>
						<circle id="XMLID_15687_" class="st15" cx="-16.1" cy="403.1" r="3"/>
						<circle id="XMLID_15686_" class="st20" cx="-16" cy="402.7" r="3"/>
						<circle id="XMLID_15685_" class="st17" cx="-16" cy="402.7" r="2.6"/>
						<circle id="XMLID_15684_" class="st18" cx="-15.5" cy="402" r="0.4"/>
						<circle id="XMLID_15683_" class="st18" cx="-16.4" cy="403.9" r="0.4"/>
						<line id="XMLID_15682_" class="st21" x1="-15.4" y1="402" x2="-16.3" y2="403.9"/>
						<line id="XMLID_15681_" class="st21" x1="-15.6" y1="401.9" x2="-16.5" y2="403.8"/>
						<circle id="XMLID_15680_" class="st18" cx="-15.1" cy="403.4" r="0.4"/>
						<circle id="XMLID_15679_" class="st18" cx="-16.9" cy="402.5" r="0.4"/>
						<line id="XMLID_15678_" class="st21" x1="-15.1" y1="403.6" x2="-16.9" y2="402.7"/>
						<line id="XMLID_15677_" class="st21" x1="-15" y1="403.3" x2="-16.8" y2="402.4"/>
					</g>
					<g id="XMLID_15663_">
						<path class="st11" d="M-17.4,395.4l4.2,0.3l4,1.2c0.3,0.1,0.2,0.5-0.1,0.4l-4.2-0.3l-4-1.2C-17.8,395.8-17.7,395.4-17.4,395.4
							z"/>
						<circle id="XMLID_15675_" class="st5" cx="-14.7" cy="396.4" r="3.1"/>
						<circle id="XMLID_15674_" class="st15" cx="-14.8" cy="396.2" r="3"/>
						<circle id="XMLID_15673_" class="st20" cx="-14.7" cy="395.8" r="3"/>
						<circle id="XMLID_15672_" class="st17" cx="-14.7" cy="395.8" r="2.6"/>
						<circle id="XMLID_15671_" class="st18" cx="-14.3" cy="395.1" r="0.4"/>
						<circle id="XMLID_15670_" class="st18" cx="-15.2" cy="397" r="0.4"/>
						<line id="XMLID_15669_" class="st21" x1="-14.1" y1="395.1" x2="-15" y2="397"/>
						<line id="XMLID_15668_" class="st21" x1="-14.4" y1="395" x2="-15.3" y2="396.9"/>
						<circle id="XMLID_15667_" class="st18" cx="-13.8" cy="396.5" r="0.4"/>
						<circle id="XMLID_15666_" class="st18" cx="-15.6" cy="395.6" r="0.4"/>
						<line id="XMLID_15665_" class="st21" x1="-13.8" y1="396.7" x2="-15.6" y2="395.8"/>
						<line id="XMLID_15664_" class="st21" x1="-13.7" y1="396.4" x2="-15.5" y2="395.5"/>
					</g>
					<g id="XMLID_15650_">
						<path class="st11" d="M-20,409.2l4.2,0.3l4,1.2c0.3,0.1,0.2,0.5-0.1,0.4l-4.2-0.3l-4-1.2C-20.3,409.6-20.3,409.2-20,409.2z"/>
						<circle id="XMLID_15662_" class="st5" cx="-17.3" cy="410.1" r="3.1"/>
						<circle id="XMLID_15661_" class="st15" cx="-17.4" cy="410" r="3"/>
						<circle id="XMLID_15660_" class="st20" cx="-17.3" cy="409.6" r="3"/>
						<circle id="XMLID_15659_" class="st17" cx="-17.3" cy="409.6" r="2.6"/>
						<circle id="XMLID_15658_" class="st18" cx="-16.8" cy="408.9" r="0.4"/>
						<circle id="XMLID_15657_" class="st18" cx="-17.7" cy="410.8" r="0.4"/>
						<line id="XMLID_15656_" class="st21" x1="-16.7" y1="408.9" x2="-17.6" y2="410.8"/>
						<line id="XMLID_15655_" class="st21" x1="-16.9" y1="408.8" x2="-17.8" y2="410.7"/>
						<circle id="XMLID_15654_" class="st18" cx="-16.3" cy="410.3" r="0.4"/>
						<circle id="XMLID_15653_" class="st18" cx="-18.2" cy="409.4" r="0.4"/>
						<line id="XMLID_15652_" class="st21" x1="-16.3" y1="410.4" x2="-18.2" y2="409.5"/>
						<line id="XMLID_15651_" class="st21" x1="-16.2" y1="410.2" x2="-18.1" y2="409.3"/>
					</g>
					<g id="XMLID_15637_">
						<path class="st11" d="M-21.3,416.1l4.2,0.3l4,1.2c0.3,0.1,0.2,0.5-0.1,0.4l-4.2-0.3l-4-1.2C-21.6,416.4-21.6,416.1-21.3,416.1
							z"/>
						<circle id="XMLID_15649_" class="st5" cx="-18.6" cy="417" r="3.1"/>
						<circle id="XMLID_15648_" class="st15" cx="-18.6" cy="416.9" r="3"/>
						<circle id="XMLID_15647_" class="st20" cx="-18.6" cy="416.5" r="3"/>
						<circle id="XMLID_15646_" class="st17" cx="-18.6" cy="416.5" r="2.6"/>
						<circle id="XMLID_15645_" class="st18" cx="-18.1" cy="415.8" r="0.4"/>
						<circle id="XMLID_15644_" class="st18" cx="-19" cy="417.7" r="0.4"/>
						<line id="XMLID_15643_" class="st21" x1="-17.9" y1="415.8" x2="-18.9" y2="417.6"/>
						<line id="XMLID_15642_" class="st21" x1="-18.2" y1="415.7" x2="-19.1" y2="417.5"/>
						<circle id="XMLID_15641_" class="st18" cx="-17.6" cy="417.2" r="0.4"/>
						<circle id="XMLID_15640_" class="st18" cx="-19.5" cy="416.3" r="0.4"/>
						<line id="XMLID_15639_" class="st21" x1="-17.6" y1="417.3" x2="-19.5" y2="416.4"/>
						<line id="XMLID_15638_" class="st21" x1="-17.5" y1="417.1" x2="-19.4" y2="416.2"/>
					</g>
				</g>
			</g>
		</g>
	</g>
	<g id="XMLID_1_" class="st0">
		<defs>
			<rect id="XMLID_4932_" x="-13.5" width="327.1" height="300"/>
		</defs>
		<clipPath id="XMLID_4_">
			<use xlink:href="#XMLID_4932_"  style="overflow:visible;"/>
		</clipPath>
	</g>
	<g class="st0">
		<path class="st22" d="M150.1,4.6c38.7,0,75.1,15.1,102.5,42.5c27.4,27.4,42.5,63.8,42.5,102.5s-15.1,75.1-42.5,102.5
			c-27.4,27.4-63.8,42.5-102.5,42.5S75,279.5,47.6,252.1C20.2,224.7,5.1,188.3,5.1,149.6S20.2,74.5,47.6,47.1
			C75,19.7,111.4,4.6,150.1,4.6 M150.1-0.4c-82.8,0-150,67.2-150,150s67.2,150,150,150s150-67.2,150-150S232.9-0.4,150.1-0.4
			L150.1-0.4z"/>
	</g>
</g>
</svg>
