<?xml version="1.0" encoding="utf-8"?>
<!-- Generator: Adobe Illustrator 19.0.0, SVG Export Plug-In . SVG Version: 6.00 Build 0)  -->
<svg version="1.1" id="Layer_1" xmlns="http://www.w3.org/2000/svg" xmlns:xlink="http://www.w3.org/1999/xlink" x="0px" y="0px"
	 viewBox="0 0 300 300" style="enable-background:new 0 0 300 300;" xml:space="preserve">
<style type="text/css">
	.st0{clip-path:url(#SVGID_2_);}
	.st1{clip-path:url(#XMLID_3_);}
	.st2{fill:#F1F1F2;stroke:#404041;stroke-miterlimit:10;}
	.st3{fill:#FFFFFF;stroke:#404041;stroke-miterlimit:10;}
	.st4{fill:#929497;}
	.st5{fill:#F1F1F2;}
	.st6{fill:#C5C7C9;}
	.st7{fill:none;stroke:#404041;stroke-miterlimit:10;}
	.st8{fill:none;stroke:#808184;stroke-width:0.5;stroke-miterlimit:10;}
	.st9{fill:none;stroke:#808184;stroke-width:0.5;stroke-miterlimit:10;stroke-dasharray:0.9993,1.9985;}
	.st10{fill:none;stroke:#808184;stroke-width:0.5;stroke-miterlimit:10;stroke-dasharray:1,2;}
	.st11{fill:#FFFFFF;stroke:#404041;stroke-linejoin:round;stroke-miterlimit:10;}
	.st12{fill:none;stroke:#808184;stroke-width:0.5;stroke-miterlimit:10;stroke-dasharray:0.9943,1.9886;}
	.st13{fill:none;stroke:#808184;stroke-width:0.5;stroke-miterlimit:10;stroke-dasharray:1.0166,2.0331;}
	.st14{fill:none;stroke:#808184;stroke-width:0.5;stroke-miterlimit:10;stroke-dasharray:1.0177,2.0353;}
	.st15{fill:#DBDCDD;}
	.st16{fill:#404041;stroke:#D0D2D3;stroke-width:0.5;stroke-miterlimit:10;}
	.st17{fill:#FFFFFF;stroke:#6D6E70;stroke-miterlimit:10;}
	.st18{fill:#FFFFFF;stroke:#929497;stroke-width:0.25;stroke-miterlimit:10;}
	.st19{fill:#404041;}
	.st20{fill:none;stroke:#6D6E70;stroke-width:0.5;stroke-miterlimit:10;}
	.st21{fill:#9AA0BB;}
</style>
<g>
	<defs>
		<circle id="SVGID_1_" cx="150.1" cy="149.6" r="150"/>
	</defs>
	<use xlink:href="#SVGID_1_"  style="overflow:visible;fill:#DDDDDD;"/>
	<clipPath id="SVGID_2_">
		<use xlink:href="#SVGID_1_"  style="overflow:visible;"/>
	</clipPath>
	<g id="XMLID_254_" class="st0">
		<defs>
			<rect id="XMLID_4044_" x="-13.5" width="327.1" height="300"/>
		</defs>
		<clipPath id="XMLID_3_">
			<use xlink:href="#XMLID_4044_"  style="overflow:visible;"/>
		</clipPath>
		<g class="st1">
			<g>
				<g>
					<polygon class="st2" points="174.4,35.3 184.3,46.4 149.7,224.6 115.5,46.4 125,35.3 					"/>
					<path class="st3" d="M174.8,30c0,0,0.1-0.6-24.9-0.6c-0.1,0-0.2,0-0.3,0c-0.1,0-0.2,0-0.3,0c-25,0-24.9,0.6-24.9,0.6l-3,10.9
						c0,0,4.1,1,13.9,1.4c3.8,0.2,8.8,0.3,14.4,0.3c5.7,0,10.1-0.1,13.9-0.3c9.9-0.4,13.9-1.4,13.9-1.4L174.8,30z"/>
					<g>
						<path class="st4" d="M129.1,29.7c0,0-2.6,2.9-2.4,6.6s0.4,4.9,0.4,4.9l-4.5-0.3l2.1-10.8L129.1,29.7z"/>
						<path class="st5" d="M130.1,29.6c-0.7,0-1.3,0-1.8,0.1c-1.5,2.4-1.5,9.3-1.4,11.8c0.8,0.1,1.7,0.1,2.7,0.2
							c-0.2-0.7-0.4-2.3-0.4-5.1C129.2,33.2,129.8,30.7,130.1,29.6z"/>
						<path class="st6" d="M128.5,29.7c-0.4,0-0.7,0-1,0c-0.6,0.5-1.2,1.4-1.4,2.9c-0.3,3.1-0.4,7-0.5,8.8c0.8,0.1,1.7,0.2,2.7,0.2
							C127.9,39,127.1,32,128.5,29.7z"/>
					</g>
					<g>
						<path class="st4" d="M170.1,29.7c0,0,2.6,2.9,2.4,6.6s-0.4,4.9-0.4,4.9l4.3,0.2L174.6,30L170.1,29.7z"/>
						<path class="st5" d="M169,29.6c0.7,0,1.3,0,1.8,0.1c1.5,2.4,1.5,9.3,1.4,11.8c-0.8,0.1-1.7,0.1-2.7,0.2
							c0.2-0.7,0.4-2.3,0.4-5.1C169.9,33.2,169.3,30.7,169,29.6z"/>
						<path class="st6" d="M170.6,29.7c0.4,0,0.7,0,1,0c0.6,0.5,1.2,1.4,1.4,2.9c0.3,3.1,0.4,7,0.5,8.8c-0.8,0.1-1.7,0.2-2.7,0.2
							C171.2,39,172.1,32,170.6,29.7z"/>
					</g>
					<path class="st7" d="M174.8,30c0,0,0.1-0.6-24.9-0.6c-0.1,0-0.2,0-0.3,0c-0.1,0-0.2,0-0.3,0c-25,0-24.9,0.6-24.9,0.6l-3,10.9
						c0,0,4.1,1,13.9,1.4c3.8,0.2,8.8,0.3,14.4,0.3c5.7,0,10.1-0.1,13.9-0.3c9.9-0.4,13.9-1.4,13.9-1.4L174.8,30z"/>
					<g>
						<polygon class="st4" points="126.3,63.2 149.9,142.4 173,63.2 157.9,177.2 149.1,199.9 142.2,176.1 						"/>
						<polygon class="st6" points="149.7,154.3 173.6,58.9 149.9,139.4 125.8,58.9 						"/>
					</g>
					<g>
						<g>
							<line class="st8" x1="149.9" y1="44" x2="149.9" y2="44.5"/>
							<line class="st9" x1="149.9" y1="46.5" x2="149.9" y2="198.4"/>
							<line class="st8" x1="149.9" y1="199.4" x2="149.9" y2="199.9"/>
						</g>
					</g>
					<path class="st4" d="M137,46.7l0.9,0.9c0,0,6.5-0.5,12-0.5c5.5,0,12.4,0.5,12.4,0.5l0.6-0.9H137z"/>
					<path class="st6" d="M137.7,47.4l0.7,0.7c0,0,6.1-0.5,11.5-0.5c5.4,0,12.2,0.5,12.2,0.5l0.4-0.7l-12.5-0.2L137.7,47.4z"/>
					<path class="st3" d="M149.9,42.5c-5.7,0-10.4,0-14.3-0.2l1.6,4.4h12.6h0.1h12.6l1.6-4.4C160.4,42.5,155.6,42.5,149.9,42.5z"/>
				</g>
				<path class="st2" d="M162.6,437.7c0-0.7,0-25.3,0-25.3h-25.4v25.3H162.6z"/>
				<g>
					<polygon class="st4" points="150.1,421.8 140.3,443.8 149.9,408.7 159.9,444.2 					"/>
					<polygon class="st6" points="149.9,426.2 140.3,443.8 149.9,418.8 159.9,444.2 					"/>
				</g>
				<path class="st3" d="M163.5,289.1c-2.3-52.5-4.9-38.4-4.9-38.4l-4.5-37.8c0,0-20.9-63-22.2-72.2c-2.2-14.9-8.8-67.7-8.8-67.7
					c-4.5-28.7,2-43,2-43s-21.6,12.3-26,15.2c-2.3,1.5-22.2,10.3-39.2,18.1C39.3,72.9,36.5,78,36.5,78c15.9,9.8,19.2,45.2,19.5,86.6
					c0.3,41.5-11.2,112.2-12.6,149c-1.5,38.2-9.3,132-9.3,132s68.2,17.4,86.9,12.3c18.6-5.1,20.1-15.6,23.8-25.2l5.5-19.2
					C150.1,413.5,165.8,341.6,163.5,289.1z"/>
				<g>
					<path class="st5" d="M56.2,239.3c6-41.1,3.4-74.1-0.7-99.9c0.8,5.1,1.2,14.1,1.3,15.4c0.7,8.7,1.4,17.7,1.2,26.4
						c-0.2,18.2-1.5,39.1-4.8,62c-2.8,19.6-4.9,28.3-6.4,31.7c-0.3,2.8-0.6,5.5-0.8,8.2C49.7,282.9,52.3,265.7,56.2,239.3z"/>
					<path class="st6" d="M52.5,222.6c-1.8,17.7-3.9,35.8-5.7,52.3c1.5-3.4,3.6-12.1,6.4-31.7c3.3-22.9,4.9-41.7,4.9-72.4l0-0.1
						c0.3-11.1-2.7-31.8-2.7-30.9C57.1,164.5,54.2,207.9,52.5,222.6z"/>
				</g>
				<path class="st3" d="M55.9,164.6c-0.3-38.9-3.2-72.4-16.6-84.5l-2.8-1.6c0,0-4.3-1.4-8.8,19.9C23.1,119.7-25,422.2-25,422.2
					s8,7,24.6,7.6s25-3.5,25-3.5l26.1-188.7C53.5,211.2,56.1,184.5,55.9,164.6z"/>
				<g>
					<path class="st5" d="M142.8,191.7c0,0-3,7.1-4.2,20.8c-1.8,21.2-3,55.9-3,94.5c0,63.5,14.3,109,14.3,109l0.1-77.5l3.1-135
						L142.8,191.7z"/>
					<path class="st6" d="M143.7,192.3c0,0-2.3,3.8-3.3,14.6c-0.4,4.8-0.6,8-1,14.6c-1.3,19.2-2.2,47.1-2.2,77.1
						c0,63.5,12.7,117.3,12.7,117.3l2.8-77.5l3.1-135L143.7,192.3z"/>
				</g>
				<g>
					<path class="st3" d="M244.1,164.6c0.3-41.5,3.6-76.8,19.5-86.6c0,0-2.9-5.1-23.5-14.6c-19.4-9-35.7-16-42.1-19.7
						c-0.4-0.2-0.8-0.4-1.1-0.6c-5.5-3.4-22.1-13.1-22.1-13.1s3.8,14.9-0.6,43.7c0,0-12.1,47.6-14.2,62.5
						c-2.2,14.9-18.8,77.9-19.1,80.6c-0.5,5.2-2,52-2.4,72.4c-1,52.6,11.5,124.3,11.5,124.3l5.7,19.4c3.7,9.7,4.9,19.9,23.6,25
						c18.6,5.1,84.4-12.3,84.4-12.3s-5.4-93.8-6.9-132C255.3,276.8,243.8,206.1,244.1,164.6z"/>
				</g>
				<g>
					<path class="st5" d="M243.8,239.3c-6-41.1-3.4-74.1,0.7-99.9c-0.8,5.1-1.2,14.1-1.3,15.4c-0.7,8.7-1.4,17.7-1.2,26.4
						c0.2,18.2,1.5,39.1,4.8,62c2.8,19.6,4.9,28.3,6.4,31.7c0.3,2.8,0.6,5.5,0.8,8.2C250.2,282.9,247.6,265.7,243.8,239.3z"/>
					<path class="st6" d="M247.5,222.6c1.8,17.7,3.9,35.8,5.7,52.3c-1.5-3.4-3.6-12.1-6.4-31.7c-3.3-22.9-4.9-41.7-4.9-72.4l0-0.1
						c-0.3-11.1,2.7-31.8,2.7-30.9C242.9,164.5,245.7,207.9,247.5,222.6z"/>
				</g>
				<path class="st3" d="M272.4,97.8c-4.5-21.3-8.8-19.9-8.8-19.9l0,0c-15.9,9.8-19.2,45.2-19.5,86.6c-0.1,19.3,2.3,45,5,70.6
					l26.3,190.6c0,0,8.4,4.1,25,3.5s24.6-7.6,24.6-7.6S276.9,119.2,272.4,97.8z"/>
			</g>
			<g>
				<polygon class="st5" points="233.5,168.9 233.5,166.4 174,168.1 174,170.6 				"/>
				<polygon class="st6" points="233.5,169.9 233.5,167.4 174,169.1 174,171.6 				"/>
				<path class="st3" d="M233.3,168.5v13.7c0,0.5-0.4,0.9-0.9,0.9l-56.8,1.2c-0.5,0-0.9-0.4-0.9-0.9v-13.2L233.3,168.5z"/>
				<line class="st10" x1="174.7" y1="170.8" x2="233.3" y2="169.1"/>
			</g>
			<g>
				<g>
					<g>
						<path class="st5" d="M103.1,40.6c-3.2,1.1-4.3,2.1-4.4,4.7c0,0-0.8,11,1.1,21.3c10.1,53.6,32.7,113.7,41.1,125.9
							c2.1,3,4.1,6.2,6.4,9c5.2,6.5,4.4-11.1,4.4-11.1l-2.2-6.3L106.6,39.4L103.1,40.6z"/>
						<path class="st6" d="M108.1,40c0,0-4.5-0.3-6.4,1.5c-1.2,1.1-1.6,3.2-1.5,4.6c0.5,47.6,29.1,122.5,40.9,144
							c2,3.7,4.5,7.5,6.9,11.1c2.2,3.2,5.2-4.3,5.2-4.3l-2.9-12.9L111.9,74L108.1,40z"/>
					</g>
					<path class="st11" d="M126.8,30c0,0-22.5,8.2-23.6,10.5C99,49,106,93.9,125.4,148c7.2,20.2,14.3,37.4,21.4,49.2
						c1,1.7,8.1-5.1,7.6-7.3c-0.6-2.4-0.4-1.8-1.2-5.4c-5.9-27.3-29.3-137.7-29.3-144.3S126.8,30,126.8,30z"/>
					<g>
						<polygon class="st5" points="149.4,167.1 142.5,188.6 144.6,192.9 149.9,174.5 						"/>
						<polygon class="st6" points="150.3,169.1 143.4,190.6 145.5,194.8 150.8,176.4 						"/>
					</g>
					<g>
						<path class="st5" d="M196.9,40.6c3.2,1.1,4.3,2.1,4.4,4.7c0,0,0.8,11-1.1,21.3c-10.1,53.6-32.7,113.7-41.1,125.9
							c-8.3,12.2-18.5,24.7-18.5,24.7l10-33.1l42.8-144.7L196.9,40.6z"/>
						<path class="st6" d="M191.9,40c0,0,4.5-0.3,6.4,1.5c1.2,1.1,1.6,3.2,1.5,4.6c-0.5,47.6-29.1,122.5-40.9,144
							c-6.9,12.7-18.6,26.6-18.6,26.6l9.5-32.7l36.6-110.7L191.9,40z"/>
					</g>
					<path class="st11" d="M173.2,30c0,0,22.5,8.2,23.6,10.5C201,49,194,93.9,174.6,148c-14.3,39.8-32.7,66-34.3,68.8
						c0,0-0.7-2.8,4.4-23.2s31.4-146.9,31.4-153.4S173.2,30,173.2,30z"/>
				</g>
			</g>
			<g>
				<g>
					<g>
						<g>
							<line class="st8" x1="203.7" y1="206" x2="203.7" y2="206.5"/>
							<line class="st12" x1="203.7" y1="208.4" x2="203.7" y2="311.8"/>
							<line class="st8" x1="203.7" y1="312.8" x2="203.7" y2="313.3"/>
						</g>
					</g>
					<g>
						<path class="st5" d="M195.4,317l-1.3,17.7c-0.6,10.1,4.2,13.2,9.2,13.2H258l-0.2-4.6L195.4,317z"/>
						<path class="st6" d="M195.4,316.4l-0.6,14.5c-0.6,10.1,2.8,15.7,8.6,15.7H258l-0.2-4.6L195.4,316.4z"/>
						<path class="st3" d="M195.4,320.9v-5.1h61.5l1.5,29.8h-53.7c-7.1,0-9.2-8.4-9.2-15.5l0,0V320.9z"/>
						<g>
							<g>
								<line class="st8" x1="195.8" y1="318.9" x2="196.3" y2="318.9"/>
								<line class="st13" x1="198.4" y1="318.9" x2="255.3" y2="318.9"/>
								<line class="st8" x1="256.3" y1="318.9" x2="256.8" y2="318.9"/>
							</g>
						</g>
					</g>
				</g>
				<g>
					<g>
						<g>
							<line class="st8" x1="96.6" y1="206" x2="96.6" y2="206.5"/>
							<line class="st12" x1="96.6" y1="208.4" x2="96.6" y2="311.8"/>
							<line class="st8" x1="96.6" y1="312.8" x2="96.6" y2="313.3"/>
						</g>
					</g>
					<g>
						<path class="st5" d="M104.9,317l1.3,17.7c0.6,10.1-4.2,13.2-9.2,13.2H42.3l0.2-4.6L104.9,317z"/>
						<path class="st6" d="M104.9,316.4l0.6,14.5c0.6,10.1-2.8,15.7-8.6,15.7H42.3l0.2-4.6L104.9,316.4z"/>
						<path class="st3" d="M104.9,320.9v-5.1H43.4l-1.5,29.8h53.7c7.1,0,9.2-8.4,9.2-15.5l0,0V320.9z"/>
						<g>
							<g>
								<line class="st8" x1="104.5" y1="318.9" x2="104" y2="318.9"/>
								<line class="st14" x1="102" y1="318.9" x2="45" y2="318.9"/>
								<line class="st8" x1="43.9" y1="318.9" x2="43.4" y2="318.9"/>
							</g>
						</g>
					</g>
				</g>
			</g>
			<g>
				<g id="XMLID_7377_">
					<circle id="XMLID_7392_" class="st5" cx="152.5" cy="221.7" r="6"/>
					<circle id="XMLID_7391_" class="st15" cx="152.6" cy="221.5" r="5.8"/>
					<polygon id="XMLID_7390_" class="st16" points="160,221.3 152.7,219.8 144.5,221.3 152.8,222.7 					"/>
					<circle id="XMLID_7389_" class="st17" cx="152.5" cy="220.7" r="5.8"/>
					<circle id="XMLID_7388_" class="st18" cx="152.5" cy="220.7" r="5"/>
					<circle id="XMLID_7387_" class="st19" cx="151.5" cy="219.4" r="0.7"/>
					<circle id="XMLID_7386_" class="st19" cx="153.3" cy="223" r="0.7"/>
					<line id="XMLID_7385_" class="st20" x1="151.3" y1="219.4" x2="153" y2="222.9"/>
					<line id="XMLID_7384_" class="st20" x1="151.7" y1="219.2" x2="153.5" y2="222.7"/>
					<line id="XMLID_7383_" class="st20" x1="151.3" y1="219.4" x2="153" y2="222.9"/>
					<line id="XMLID_7382_" class="st20" x1="151.7" y1="219.2" x2="153.5" y2="222.7"/>
					<circle id="XMLID_7381_" class="st19" cx="150.6" cy="222" r="0.7"/>
					<circle id="XMLID_7380_" class="st19" cx="154.2" cy="220.3" r="0.7"/>
					<line id="XMLID_7379_" class="st20" x1="150.6" y1="222.3" x2="154.2" y2="220.6"/>
					<line id="XMLID_7378_" class="st20" x1="150.4" y1="221.8" x2="154" y2="220.1"/>
				</g>
				<g id="XMLID_7361_">
					<circle id="XMLID_7376_" class="st5" cx="152.5" cy="287.3" r="6"/>
					<circle id="XMLID_7375_" class="st15" cx="152.6" cy="287.1" r="5.8"/>
					<polygon id="XMLID_7374_" class="st16" points="160,286.9 152.7,285.4 144.5,286.9 152.8,288.3 					"/>
					<circle id="XMLID_7373_" class="st17" cx="152.5" cy="286.3" r="5.8"/>
					<circle id="XMLID_7372_" class="st18" cx="152.5" cy="286.3" r="5"/>
					<circle id="XMLID_7371_" class="st19" cx="151.5" cy="285" r="0.7"/>
					<circle id="XMLID_7370_" class="st19" cx="153.3" cy="288.6" r="0.7"/>
					<line id="XMLID_7369_" class="st20" x1="151.3" y1="285" x2="153" y2="288.5"/>
					<line id="XMLID_7368_" class="st20" x1="151.7" y1="284.8" x2="153.5" y2="288.3"/>
					<line id="XMLID_7367_" class="st20" x1="151.3" y1="285" x2="153" y2="288.5"/>
					<line id="XMLID_7366_" class="st20" x1="151.7" y1="284.8" x2="153.5" y2="288.3"/>
					<circle id="XMLID_7365_" class="st19" cx="150.6" cy="287.6" r="0.7"/>
					<circle id="XMLID_7364_" class="st19" cx="154.2" cy="285.9" r="0.7"/>
					<line id="XMLID_7363_" class="st20" x1="150.6" y1="287.9" x2="154.2" y2="286.2"/>
					<line id="XMLID_7362_" class="st20" x1="150.4" y1="287.4" x2="154" y2="285.7"/>
				</g>
			</g>
		</g>
	</g>
	<g id="XMLID_1_" class="st0">
		<defs>
			<rect id="XMLID_4932_" x="-13.5" width="327.1" height="300"/>
		</defs>
		<clipPath id="XMLID_4_">
			<use xlink:href="#XMLID_4932_"  style="overflow:visible;"/>
		</clipPath>
	</g>
	<g class="st0">
		<path class="st21" d="M150.1,4.6c38.7,0,75.1,15.1,102.5,42.5c27.4,27.4,42.5,63.8,42.5,102.5s-15.1,75.1-42.5,102.5
			c-27.4,27.4-63.8,42.5-102.5,42.5S75,279.5,47.6,252.1C20.2,224.7,5.1,188.3,5.1,149.6S20.2,74.5,47.6,47.1
			C75,19.7,111.4,4.6,150.1,4.6 M150.1-0.4c-82.8,0-150,67.2-150,150s67.2,150,150,150s150-67.2,150-150S232.9-0.4,150.1-0.4
			L150.1-0.4z"/>
	</g>
</g>
</svg>
