<?xml version="1.0" encoding="utf-8"?>
<!-- Generator: Adobe Illustrator 19.0.0, SVG Export Plug-In . SVG Version: 6.00 Build 0)  -->
<svg version="1.1" id="Layer_1" xmlns="http://www.w3.org/2000/svg" xmlns:xlink="http://www.w3.org/1999/xlink" x="0px" y="0px"
	 viewBox="0 0 300 300" style="enable-background:new 0 0 300 300;" xml:space="preserve">
<style type="text/css">
	.st0{clip-path:url(#SVGID_2_);}
	.st1{clip-path:url(#XMLID_3_);}
	.st2{fill:#F1F1F2;stroke:#404041;stroke-miterlimit:10;}
	.st3{fill:#FFFFFF;stroke:#404041;stroke-miterlimit:10;}
	.st4{fill:#929497;}
	.st5{fill:#F1F1F2;}
	.st6{fill:#C5C7C9;}
	.st7{fill:none;stroke:#404041;stroke-miterlimit:10;}
	.st8{fill:none;stroke:#808184;stroke-width:0.5;stroke-miterlimit:10;}
	.st9{fill:none;stroke:#808184;stroke-width:0.5;stroke-miterlimit:10;stroke-dasharray:0.9993,1.9985;}
	.st10{fill:none;stroke:#808184;stroke-width:0.5;stroke-miterlimit:10;stroke-dasharray:1,2;}
	.st11{fill:#404041;stroke:#D0D2D3;stroke-width:0.5;stroke-miterlimit:10;}
	.st12{fill:none;stroke:#808184;stroke-width:0.5;stroke-miterlimit:10;stroke-dasharray:0.9943,1.9886;}
	.st13{fill:none;stroke:#808184;stroke-width:0.5;stroke-miterlimit:10;stroke-dasharray:1.0166,2.0331;}
	.st14{fill:none;stroke:#808184;stroke-width:0.5;stroke-miterlimit:10;stroke-dasharray:1.0177,2.0353;}
	.st15{fill:#DBDCDD;}
	.st16{fill:#FFFFFF;stroke:#6D6E70;stroke-miterlimit:10;}
	.st17{fill:#FFFFFF;stroke:#929497;stroke-width:0.25;stroke-miterlimit:10;}
	.st18{fill:#404041;}
	.st19{fill:none;stroke:#6D6E70;stroke-width:0.5;stroke-miterlimit:10;}
	.st20{fill:#FFFFFF;stroke:#6D6E70;stroke-width:0.5;stroke-miterlimit:10;}
	.st21{fill:none;stroke:#6D6E70;stroke-width:0.25;stroke-miterlimit:10;}
	.st22{fill:#9AA0BB;}
</style>
<g>
	<defs>
		<circle id="SVGID_1_" cx="150.1" cy="149.6" r="150"/>
	</defs>
	<use xlink:href="#SVGID_1_"  style="overflow:visible;fill:#DDDDDD;"/>
	<clipPath id="SVGID_2_">
		<use xlink:href="#SVGID_1_"  style="overflow:visible;"/>
	</clipPath>
	<g id="XMLID_254_" class="st0">
		<defs>
			<rect id="XMLID_4044_" x="-13.5" width="327.1" height="300"/>
		</defs>
		<clipPath id="XMLID_3_">
			<use xlink:href="#XMLID_4044_"  style="overflow:visible;"/>
		</clipPath>
		<g class="st1">
			<g>
				<g>
					<g>
						<polygon class="st2" points="174.5,35.7 184.4,46.9 147.4,211.4 115.6,46.9 125.1,35.7 						"/>
						<path class="st3" d="M174.9,30.4c0,0,0.1-0.6-24.9-0.6c-0.1,0-0.2,0-0.3,0c-0.1,0-0.2,0-0.3,0c-25,0-24.9,0.6-24.9,0.6
							l-3,10.9c0,0,4.1,1,13.9,1.4c3.8,0.2,8.8,0.3,14.4,0.3c5.7,0,10.1-0.1,13.9-0.3c9.9-0.4,13.9-1.4,13.9-1.4L174.9,30.4z"/>
						<g>
							<path class="st4" d="M129.2,30.1c0,0-2.6,2.9-2.4,6.6c0.2,3.7,0.4,4.9,0.4,4.9h-5.5l3-11.1L129.2,30.1z"/>
							<path class="st5" d="M130.2,30.1c-0.7,0-1.3,0-1.8,0.1c-1.5,2.4-1.5,9.3-1.4,11.8c0.8,0.1,1.7,0.1,2.7,0.2
								c-0.2-0.7-0.4-2.3-0.4-5.1C129.3,33.7,129.9,31.2,130.2,30.1z"/>
							<path class="st6" d="M128.6,30.2c-0.4,0-0.7,0-1,0c-0.6,0.5-1.2,1.4-1.4,2.9c-0.3,3.1-0.4,7-0.5,8.8c0.8,0.1,1.7,0.2,2.7,0.2
								C128,39.5,127.2,32.5,128.6,30.2z"/>
						</g>
						<g>
							<path class="st4" d="M170.2,30.1c0,0,2.6,2.9,2.4,6.6c-0.2,3.7-0.4,4.9-0.4,4.9h5.7l-3.3-11.1L170.2,30.1z"/>
							<path class="st5" d="M169.1,30.1c0.7,0,1.3,0,1.8,0.1c1.5,2.4,1.5,9.3,1.4,11.8c-0.8,0.1-1.7,0.1-2.7,0.2
								c0.2-0.7,0.4-2.3,0.4-5.1C170,33.7,169.4,31.2,169.1,30.1z"/>
							<path class="st6" d="M170.7,30.2c0.4,0,0.7,0,1,0c0.6,0.5,1.2,1.4,1.4,2.9c0.3,3.1,0.4,7,0.5,8.8c-0.8,0.1-1.7,0.2-2.7,0.2
								C171.3,39.5,172.2,32.5,170.7,30.2z"/>
						</g>
						<path class="st7" d="M174.9,30.4c0,0,0.1-0.6-24.9-0.6c-0.1,0-0.2,0-0.3,0c-0.1,0-0.2,0-0.3,0c-25,0-24.9,0.6-24.9,0.6
							l-3,10.9c0,0,4.1,1,13.9,1.4c3.8,0.2,8.8,0.3,14.4,0.3c5.7,0,10.1-0.1,13.9-0.3c9.9-0.4,13.9-1.4,13.9-1.4L174.9,30.4z"/>
						<g>
							<polygon class="st4" points="126.4,64.3 150,175 173.1,64.3 158,195.6 149.2,215.5 142.3,194.4 							"/>
							<polygon class="st6" points="149.8,179.3 173.7,59.4 150,152.5 125.9,59.4 							"/>
						</g>
						<g>
							<g>
								<line class="st8" x1="150" y1="44.5" x2="150" y2="45"/>
								<line class="st9" x1="150" y1="47" x2="150" y2="198.8"/>
								<line class="st8" x1="150" y1="199.8" x2="150" y2="200.3"/>
							</g>
						</g>
						<path class="st4" d="M137.1,47.2l0.9,0.9c0,0,6.5-0.5,12-0.5c5.5,0,12.4,0.5,12.4,0.5l0.6-0.9H137.1z"/>
						<path class="st6" d="M137.8,47.9l0.7,0.7c0,0,6.1-0.5,11.5-0.5c5.4,0,12.2,0.5,12.2,0.5l0.4-0.7L150,47.6L137.8,47.9z"/>
						<path class="st3" d="M150,43c-5.7,0-10.4,0-14.3-0.2l1.6,4.4H150h0.1h12.6l1.6-4.4C160.5,43,155.7,43,150,43z"/>
					</g>
					<path class="st2" d="M162.7,438.1c0-0.7,0-25.3,0-25.3h-25.4v25.3H162.7z"/>
					<g>
						<polygon class="st4" points="150.2,422.3 140.4,444.3 150,409.1 160,444.6 						"/>
						<polygon class="st6" points="150,426.7 140.4,444.3 150,419.3 160,444.6 						"/>
					</g>
					<path class="st3" d="M163.6,289.5c-2.3-52.5-4.9-38.4-4.9-38.4l-4.5-37.8l-3.5-7.6c-5.4-27.1-12.1-60.6-13.4-69.8
						C135.1,121,121,73.5,121,73.5c-4.5-28.7,4.2-43,4.2-43s-21.6,12.3-26,15.2C96.9,47.3,76.9,56,60,63.9
						c-20.6,9.5-23.5,14.6-23.5,14.6c15.9,9.8,19.2,45.2,19.5,86.6c0.3,41.5-11.2,112.2-12.6,149c-1.5,38.2-9.3,132-9.3,132
						s68.2,17.4,86.9,12.3c18.6-5.1,20.1-15.6,23.8-25.2l5.5-19.2C150.2,414,165.9,342.1,163.6,289.5z"/>
					<g>
						<path class="st5" d="M56.3,239.8c6-41.1,3.4-74.1-0.7-99.9c0.8,5.1,1.2,14.1,1.3,15.4c0.7,8.7,1.4,17.7,1.2,26.4
							c-0.2,18.2-1.5,39.1-4.8,62c-2.8,19.6-4.9,28.3-6.4,31.7c-0.3,2.8-0.6,5.5-0.8,8.2C49.8,283.3,52.4,266.2,56.3,239.8z"/>
						<path class="st6" d="M52.6,223.1c-1.8,17.7-3.9,35.8-5.7,52.3c1.5-3.4,3.6-12.1,6.4-31.7c3.3-22.9,4.9-41.7,4.9-72.4l0-0.1
							c0.3-11.1-2.7-31.8-2.7-30.9C57.2,165,54.3,208.4,52.6,223.1z"/>
					</g>
					<path class="st3" d="M56,165.1c-0.3-38.9-3.2-72.4-16.6-84.5L36.6,79c0,0-4.3-1.4-8.8,19.9c-4.5,21.3-52.6,323.9-52.6,323.9
						s8,7,24.6,7.6c16.6,0.6,25-3.5,25-3.5l26.1-188.7C53.6,211.7,56.2,185,56,165.1z"/>
					<g>
						<path class="st5" d="M151.9,197.8c0,0-18.8,44.7-18.8,108.2s21,109.4,21,109.4l-2.2-77.1l3.1-135L151.9,197.8z"/>
						<path class="st6" d="M154.6,197.8c0,0-18.8,44.7-18.8,108.2s21,109.4,21,109.4l-2.2-77.1l3.1-135L154.6,197.8z"/>
					</g>
					<g>
						<path class="st3" d="M244.2,165.1c0.3-41.5,3.6-76.8,19.5-86.6c0,0-2.9-5.1-23.5-14.6c-19.4-9-35.7-16-42.1-19.7
							c-0.4-0.2-0.8-0.4-1.1-0.6c-5.5-3.4-22.1-13.1-22.1-13.1s7.9,14.3,3.5,43c0,0-14.2,47.5-16.4,62.4
							c-2.2,14.9-16.6,91.5-18.6,103.3c-0.5,3.1-1,6-1.4,8.6c-0.9,5.7-1,11.7-1.3,13.5c-0.5,6-1.1,14.6-1.6,26.8
							C136.8,340.7,150,414,150,414l5.7,19.4c3.7,9.7,4.9,19.9,23.6,25s84.4-12.3,84.4-12.3s-5.4-93.8-6.9-132
							C255.4,277.3,243.9,206.6,244.2,165.1z"/>
					</g>
					<g>
						<path class="st5" d="M243.9,239.8c-6-41.1-3.4-74.1,0.7-99.9c-0.8,5.1-1.2,14.1-1.3,15.4c-0.7,8.7-1.4,17.7-1.2,26.4
							c0.2,18.2,1.5,39.1,4.8,62c2.8,19.6,4.9,28.3,6.4,31.7c0.3,2.8,0.6,5.5,0.8,8.2C250.3,283.3,247.7,266.2,243.9,239.8z"/>
						<path class="st6" d="M247.6,223.1c1.8,17.7,3.9,35.8,5.7,52.3c-1.5-3.4-3.6-12.1-6.4-31.7c-3.3-22.9-4.9-41.7-4.9-72.4l0-0.1
							c-0.3-11.1,2.7-31.8,2.7-30.9C243,165,245.8,208.4,247.6,223.1z"/>
					</g>
					<path class="st3" d="M272.5,98.3c-4.5-21.3-8.8-19.9-8.8-19.9l0,0c-15.9,9.8-19.2,45.2-19.5,86.6c-0.1,19.3,2.3,45,5,70.6
						l26.3,190.6c0,0,8.4,4.1,25,3.5c16.6-0.6,24.6-7.6,24.6-7.6S277,119.6,272.5,98.3z"/>
				</g>
			</g>
			<g>
				<polygon class="st5" points="233.3,169.4 233.3,166.8 173.9,168.6 173.9,171.1 				"/>
				<polygon class="st6" points="233.3,170.4 233.3,167.8 173.9,169.6 173.9,172.1 				"/>
				<path class="st3" d="M233.1,169v13.7c0,0.5-0.4,0.9-0.9,0.9l-56.8,1.2c-0.5,0-0.9-0.4-0.9-0.9v-13.2L233.1,169z"/>
				<line class="st10" x1="174.6" y1="171.3" x2="233.1" y2="169.6"/>
			</g>
			<g>
				<g>
					<g>
						<g>
							<path class="st5" d="M82.2,89.5c0,0-3.4,2.5-2,6.2c1.4,3.7,49.1,102.3,57.5,118.9c2.9,5.7,6.3,13.1,9.7,20.3
								c2.6,5.6,4.4-6.8,4.4-6.8l-2.7-11.7L92.2,96.7L82.2,89.5z"/>
							<path class="st6" d="M83,89.5c0,0-3.5,1-2.1,4.7c1.4,3.7,49.3,103.8,57.6,120.3c2.7,5.3,5.9,12.1,9,18.9c1.6,3.6,4.3-9,4.3-9
								l-1.8-8L93,96.7L83,89.5z"/>
							<polygon class="st5" points="103.2,48.6 92.2,88.7 92.2,90.2 94.4,94.6 112.3,102 116.7,102.1 104,57.8 							"/>
							<polygon class="st6" points="103.2,48.6 93.2,89 93.2,90.5 96.7,99.3 111.9,106.9 119.6,102.1 106.9,57.8 							"/>
						</g>
						<path class="st3" d="M126.5,30.5c0,0-18.4,6.7-22,15.2c-3.7,8.5-10.3,44-10.3,44l18.7,8.5c0,0-28-11-30.8-8.8
							c-1.7,1.4-0.3,5.5,4.1,14.6c3.2,6.6,34.7,72.1,48.7,100.4c5.3,10.7,9.6,20.3,13.1,28.4c1.3,3.1,7.2-6.3,6.9-7.7
							c-0.6-3.3-1.3-3.3-2.1-7.9c-5.5-32.9-14.2-93.2-19-119.4c-5.5-29.8-10.3-44.8-10.3-53.7S126.5,30.5,126.5,30.5z"/>
						<line class="st10" x1="129.2" y1="74.7" x2="112.9" y2="98.2"/>
					</g>
					<g>
						<polygon class="st5" points="149.8,198 143.6,221.9 145.5,226.7 150.3,206.2 						"/>
						<polygon class="st6" points="150.6,200.2 144.4,224.1 146.3,228.9 151.1,208.4 						"/>
					</g>
					<g>
						<path class="st5" d="M218.2,89.5c0,0,3.4,2.5,2,6.2S171,198,162.7,214.5c-8.3,16.5-21.4,46.6-21.4,46.6l10-44.8l56.9-119.7
							L218.2,89.5z"/>
						<path class="st6" d="M217.4,89.5c0,0,3.5,1,2.1,4.7c-1.4,3.7-49.3,103.8-57.6,120.3s-20.9,46-20.9,46l9.5-44.2l56.9-119.7
							L217.4,89.5z"/>
						<polygon class="st5" points="197.2,48.6 208.1,88.7 208.1,90.2 205.9,94.6 188.1,102 183.6,102.1 196.4,57.8 						"/>
						<polygon class="st6" points="197.2,48.6 207.1,89 207.1,90.5 203.6,99.3 188.5,106.9 180.7,102.1 193.5,57.8 						"/>
					</g>
					<path class="st3" d="M173.8,30.5c0,0,18.4,6.7,22,15.2s10.3,44,10.3,44l-18.7,8.5c0,0,28-11,30.8-8.8c1.7,1.4,0.3,5.5-4.1,14.6
						c-3.2,6.6-34.7,72.1-48.7,100.4c-14,28.3-21.1,48.2-24.4,56.1c0,0-0.7-3.9,4.4-31.4S161,127.6,166.5,97.9s10.3-44.8,10.3-53.7
						S173.8,30.5,173.8,30.5z"/>
					<path class="st11" d="M206.1,97.5l-2.8,1c-0.8,0.2-1.6,0.5-2.3,0.9l-2.6,1.2c-0.2,0.1-0.1,0.5,0.2,0.4l2.7-0.9
						c0.8-0.2,1.5-0.5,2.3-0.9l2.8-1.3C206.4,97.7,206.3,97.4,206.1,97.5z"/>
					<line class="st10" x1="171.1" y1="74.7" x2="187.4" y2="98.2"/>
				</g>
			</g>
			<g>
				<g>
					<g>
						<g>
							<line class="st8" x1="203.8" y1="207" x2="203.8" y2="207.5"/>
							<line class="st12" x1="203.8" y1="209.5" x2="203.8" y2="312.9"/>
							<line class="st8" x1="203.8" y1="313.9" x2="203.8" y2="314.4"/>
						</g>
					</g>
					<g>
						<path class="st5" d="M195.5,318.1l-1.3,17.7c-0.6,10.1,4.2,13.2,9.2,13.2h54.7l-0.2-4.6L195.5,318.1z"/>
						<path class="st6" d="M195.5,317.5L195,332c-0.6,10.1,2.8,15.7,8.6,15.7h54.6l-0.2-4.6L195.5,317.5z"/>
						<path class="st3" d="M195.5,321.9v-5.1H257l1.5,29.8h-53.7c-7.1,0-9.2-8.4-9.2-15.5l0,0V321.9z"/>
						<g>
							<g>
								<line class="st8" x1="196" y1="319.9" x2="196.5" y2="319.9"/>
								<line class="st13" x1="198.6" y1="319.9" x2="255.5" y2="319.9"/>
								<line class="st8" x1="256.5" y1="319.9" x2="257" y2="319.9"/>
							</g>
						</g>
					</g>
				</g>
				<g>
					<g>
						<g>
							<line class="st8" x1="96.8" y1="207" x2="96.8" y2="207.5"/>
							<line class="st12" x1="96.8" y1="209.5" x2="96.8" y2="312.9"/>
							<line class="st8" x1="96.8" y1="313.9" x2="96.8" y2="314.4"/>
						</g>
					</g>
					<g>
						<path class="st5" d="M105.1,318.1l1.3,17.7c0.6,10.1-4.2,13.2-9.2,13.2H42.5l0.2-4.6L105.1,318.1z"/>
						<path class="st6" d="M105.1,317.5l0.6,14.5c0.6,10.1-2.8,15.7-8.6,15.7H42.5l0.2-4.6L105.1,317.5z"/>
						<path class="st3" d="M105.1,321.9v-5.1H43.6l-1.5,29.8h53.7c7.1,0,9.2-8.4,9.2-15.5l0,0V321.9z"/>
						<g>
							<g>
								<line class="st8" x1="104.7" y1="319.9" x2="104.2" y2="319.9"/>
								<line class="st14" x1="102.1" y1="319.9" x2="45.1" y2="319.9"/>
								<line class="st8" x1="44.1" y1="319.9" x2="43.6" y2="319.9"/>
							</g>
						</g>
					</g>
				</g>
			</g>
			<g>
				<g id="XMLID_9417_">
					<circle id="XMLID_9432_" class="st5" cx="152.4" cy="268.7" r="6"/>
					<circle id="XMLID_9431_" class="st15" cx="152.5" cy="268.4" r="5.8"/>
					<polygon id="XMLID_9430_" class="st11" points="159.9,268.2 152.6,266.8 144.4,268.2 152.6,269.7 					"/>
					<circle id="XMLID_9429_" class="st16" cx="152.4" cy="267.7" r="5.8"/>
					<circle id="XMLID_9428_" class="st17" cx="152.4" cy="267.7" r="5"/>
					<circle id="XMLID_9427_" class="st18" cx="151.4" cy="266.3" r="0.7"/>
					<circle id="XMLID_9426_" class="st18" cx="153.2" cy="269.9" r="0.7"/>
					<line id="XMLID_9425_" class="st19" x1="151.1" y1="266.3" x2="152.9" y2="269.9"/>
					<line id="XMLID_9424_" class="st19" x1="151.6" y1="266.2" x2="153.3" y2="269.7"/>
					<line id="XMLID_9423_" class="st19" x1="151.1" y1="266.3" x2="152.9" y2="269.9"/>
					<line id="XMLID_9422_" class="st19" x1="151.6" y1="266.2" x2="153.3" y2="269.7"/>
					<circle id="XMLID_9421_" class="st18" cx="150.5" cy="269" r="0.7"/>
					<circle id="XMLID_9420_" class="st18" cx="154.1" cy="267.3" r="0.7"/>
					<line id="XMLID_9419_" class="st19" x1="150.5" y1="269.3" x2="154.1" y2="267.6"/>
					<line id="XMLID_9418_" class="st19" x1="150.3" y1="268.8" x2="153.9" y2="267.1"/>
				</g>
				<g id="XMLID_9401_">
					<circle id="XMLID_9416_" class="st5" cx="152.4" cy="334.3" r="6"/>
					<circle id="XMLID_9415_" class="st15" cx="152.5" cy="334" r="5.8"/>
					<polygon id="XMLID_9414_" class="st11" points="159.9,333.8 152.6,332.4 144.4,333.8 152.6,335.3 					"/>
					<circle id="XMLID_9413_" class="st16" cx="152.4" cy="333.3" r="5.8"/>
					<circle id="XMLID_9412_" class="st17" cx="152.4" cy="333.3" r="5"/>
					<circle id="XMLID_9411_" class="st18" cx="151.4" cy="331.9" r="0.7"/>
					<circle id="XMLID_9410_" class="st18" cx="153.2" cy="335.5" r="0.7"/>
					<line id="XMLID_9409_" class="st19" x1="151.1" y1="331.9" x2="152.9" y2="335.5"/>
					<line id="XMLID_9408_" class="st19" x1="151.6" y1="331.8" x2="153.3" y2="335.3"/>
					<line id="XMLID_9407_" class="st19" x1="151.1" y1="331.9" x2="152.9" y2="335.5"/>
					<line id="XMLID_9406_" class="st19" x1="151.6" y1="331.8" x2="153.3" y2="335.3"/>
					<circle id="XMLID_9405_" class="st18" cx="150.5" cy="334.6" r="0.7"/>
					<circle id="XMLID_9404_" class="st18" cx="154.1" cy="332.9" r="0.7"/>
					<line id="XMLID_9403_" class="st19" x1="150.5" y1="334.9" x2="154.1" y2="333.2"/>
					<line id="XMLID_9402_" class="st19" x1="150.3" y1="334.4" x2="153.9" y2="332.7"/>
				</g>
			</g>
			<g>
				<g>
					<g id="XMLID_13930_">
						<path class="st11" d="M319.1,401.8l-4.2,0.3l-4,1.2c-0.3,0.1-0.2,0.5,0.1,0.4l4.2-0.3l4-1.2
							C319.5,402.1,319.4,401.8,319.1,401.8z"/>
						<circle id="XMLID_13942_" class="st5" cx="316.4" cy="402.7" r="3.1"/>
						<circle id="XMLID_13941_" class="st15" cx="316.5" cy="402.6" r="3"/>
						<circle id="XMLID_13940_" class="st20" cx="316.4" cy="402.2" r="3"/>
						<circle id="XMLID_13939_" class="st17" cx="316.4" cy="402.2" r="2.6"/>
						<circle id="XMLID_13938_" class="st18" cx="315.9" cy="401.5" r="0.4"/>
						<circle id="XMLID_13937_" class="st18" cx="316.8" cy="403.4" r="0.4"/>
						<line id="XMLID_13936_" class="st21" x1="315.8" y1="401.5" x2="316.7" y2="403.4"/>
						<line id="XMLID_13935_" class="st21" x1="316" y1="401.4" x2="316.9" y2="403.3"/>
						<circle id="XMLID_13934_" class="st18" cx="315.5" cy="402.9" r="0.4"/>
						<circle id="XMLID_13933_" class="st18" cx="317.3" cy="402" r="0.4"/>
						<line id="XMLID_13932_" class="st21" x1="315.5" y1="403" x2="317.3" y2="402.1"/>
						<line id="XMLID_13931_" class="st21" x1="315.4" y1="402.8" x2="317.2" y2="401.9"/>
					</g>
					<g id="XMLID_13917_">
						<path class="st11" d="M317.8,394.9l-4.2,0.3l-4,1.2c-0.3,0.1-0.2,0.5,0.1,0.4l4.2-0.3l4-1.2
							C318.2,395.3,318.1,394.9,317.8,394.9z"/>
						<circle id="XMLID_13929_" class="st5" cx="315.1" cy="395.8" r="3.1"/>
						<circle id="XMLID_13928_" class="st15" cx="315.2" cy="395.7" r="3"/>
						<circle id="XMLID_13927_" class="st20" cx="315.1" cy="395.3" r="3"/>
						<circle id="XMLID_13926_" class="st17" cx="315.1" cy="395.3" r="2.6"/>
						<circle id="XMLID_13925_" class="st18" cx="314.7" cy="394.6" r="0.4"/>
						<circle id="XMLID_13924_" class="st18" cx="315.6" cy="396.5" r="0.4"/>
						<line id="XMLID_13923_" class="st21" x1="314.5" y1="394.6" x2="315.4" y2="396.5"/>
						<line id="XMLID_13922_" class="st21" x1="314.8" y1="394.5" x2="315.7" y2="396.4"/>
						<circle id="XMLID_13921_" class="st18" cx="314.2" cy="396" r="0.4"/>
						<circle id="XMLID_13920_" class="st18" cx="316" cy="395.1" r="0.4"/>
						<line id="XMLID_13919_" class="st21" x1="314.2" y1="396.1" x2="316" y2="395.2"/>
						<line id="XMLID_13918_" class="st21" x1="314.1" y1="395.9" x2="315.9" y2="395"/>
					</g>
					<g id="XMLID_13904_">
						<path class="st11" d="M320.4,408.7l-4.2,0.3l-4,1.2c-0.3,0.1-0.2,0.5,0.1,0.4l4.2-0.3l4-1.2
							C320.7,409,320.7,408.7,320.4,408.7z"/>
						<circle id="XMLID_13916_" class="st5" cx="317.7" cy="409.6" r="3.1"/>
						<circle id="XMLID_13915_" class="st15" cx="317.8" cy="409.5" r="3"/>
						<circle id="XMLID_13914_" class="st20" cx="317.7" cy="409.1" r="3"/>
						<circle id="XMLID_13913_" class="st17" cx="317.7" cy="409.1" r="2.6"/>
						<circle id="XMLID_13912_" class="st18" cx="317.2" cy="408.4" r="0.4"/>
						<circle id="XMLID_13911_" class="st18" cx="318.1" cy="410.2" r="0.4"/>
						<line id="XMLID_13910_" class="st21" x1="317.1" y1="408.4" x2="318" y2="410.2"/>
						<line id="XMLID_13909_" class="st21" x1="317.3" y1="408.3" x2="318.2" y2="410.1"/>
						<circle id="XMLID_13908_" class="st18" cx="316.7" cy="409.8" r="0.4"/>
						<circle id="XMLID_13907_" class="st18" cx="318.6" cy="408.9" r="0.4"/>
						<line id="XMLID_13906_" class="st21" x1="316.7" y1="409.9" x2="318.6" y2="409"/>
						<line id="XMLID_13905_" class="st21" x1="316.6" y1="409.7" x2="318.5" y2="408.8"/>
					</g>
					<g id="XMLID_13891_">
						<path class="st11" d="M321.7,415.5l-4.2,0.3l-4,1.2c-0.3,0.1-0.2,0.5,0.1,0.4l4.2-0.3l4-1.2C322,415.9,322,415.5,321.7,415.5z
							"/>
						<circle id="XMLID_13903_" class="st5" cx="319" cy="416.5" r="3.1"/>
						<circle id="XMLID_13902_" class="st15" cx="319" cy="416.4" r="3"/>
						<circle id="XMLID_13901_" class="st20" cx="319" cy="415.9" r="3"/>
						<circle id="XMLID_13900_" class="st17" cx="319" cy="415.9" r="2.6"/>
						<circle id="XMLID_13899_" class="st18" cx="318.5" cy="415.3" r="0.4"/>
						<circle id="XMLID_13898_" class="st18" cx="319.4" cy="417.1" r="0.4"/>
						<line id="XMLID_13897_" class="st21" x1="318.3" y1="415.3" x2="319.3" y2="417.1"/>
						<line id="XMLID_13896_" class="st21" x1="318.6" y1="415.2" x2="319.5" y2="417"/>
						<circle id="XMLID_13895_" class="st18" cx="318" cy="416.6" r="0.4"/>
						<circle id="XMLID_13894_" class="st18" cx="319.9" cy="415.7" r="0.4"/>
						<line id="XMLID_13893_" class="st21" x1="318" y1="416.8" x2="319.9" y2="415.9"/>
						<line id="XMLID_13892_" class="st21" x1="317.9" y1="416.5" x2="319.8" y2="415.6"/>
					</g>
				</g>
				<g>
					<g id="XMLID_13878_">
						<path class="st11" d="M-17.9,401.8l4.2,0.3l4,1.2c0.3,0.1,0.2,0.5-0.1,0.4l-4.2-0.3l-4-1.2C-18.2,402.1-18.2,401.8-17.9,401.8
							z"/>
						<circle id="XMLID_13890_" class="st5" cx="-15.2" cy="402.7" r="3.1"/>
						<circle id="XMLID_13889_" class="st15" cx="-15.3" cy="402.6" r="3"/>
						<circle id="XMLID_13888_" class="st20" cx="-15.2" cy="402.2" r="3"/>
						<circle id="XMLID_13887_" class="st17" cx="-15.2" cy="402.2" r="2.6"/>
						<circle id="XMLID_13886_" class="st18" cx="-14.7" cy="401.5" r="0.4"/>
						<circle id="XMLID_13885_" class="st18" cx="-15.6" cy="403.4" r="0.4"/>
						<line id="XMLID_13884_" class="st21" x1="-14.6" y1="401.5" x2="-15.5" y2="403.4"/>
						<line id="XMLID_13883_" class="st21" x1="-14.8" y1="401.4" x2="-15.7" y2="403.3"/>
						<circle id="XMLID_13882_" class="st18" cx="-14.2" cy="402.9" r="0.4"/>
						<circle id="XMLID_13881_" class="st18" cx="-16.1" cy="402" r="0.4"/>
						<line id="XMLID_13880_" class="st21" x1="-14.2" y1="403" x2="-16.1" y2="402.1"/>
						<line id="XMLID_13879_" class="st21" x1="-14.1" y1="402.8" x2="-16" y2="401.9"/>
					</g>
					<g id="XMLID_13865_">
						<path class="st11" d="M-16.6,394.9l4.2,0.3l4,1.2c0.3,0.1,0.2,0.5-0.1,0.4l-4.2-0.3l-4-1.2C-17,395.3-16.9,394.9-16.6,394.9z"
							/>
						<circle id="XMLID_13877_" class="st5" cx="-13.9" cy="395.8" r="3.1"/>
						<circle id="XMLID_13876_" class="st15" cx="-14" cy="395.7" r="3"/>
						<circle id="XMLID_13875_" class="st20" cx="-13.9" cy="395.3" r="3"/>
						<circle id="XMLID_13874_" class="st17" cx="-13.9" cy="395.3" r="2.6"/>
						<circle id="XMLID_13873_" class="st18" cx="-13.4" cy="394.6" r="0.4"/>
						<circle id="XMLID_13872_" class="st18" cx="-14.3" cy="396.5" r="0.4"/>
						<line id="XMLID_13871_" class="st21" x1="-13.3" y1="394.6" x2="-14.2" y2="396.5"/>
						<line id="XMLID_13870_" class="st21" x1="-13.5" y1="394.5" x2="-14.4" y2="396.4"/>
						<circle id="XMLID_13869_" class="st18" cx="-13" cy="396" r="0.4"/>
						<circle id="XMLID_13868_" class="st18" cx="-14.8" cy="395.1" r="0.4"/>
						<line id="XMLID_13867_" class="st21" x1="-13" y1="396.1" x2="-14.8" y2="395.2"/>
						<line id="XMLID_13866_" class="st21" x1="-12.9" y1="395.9" x2="-14.7" y2="395"/>
					</g>
					<g id="XMLID_13852_">
						<path class="st11" d="M-19.2,408.7l4.2,0.3l4,1.2c0.3,0.1,0.2,0.5-0.1,0.4l-4.2-0.3l-4-1.2C-19.5,409-19.4,408.7-19.2,408.7z"
							/>
						<circle id="XMLID_13864_" class="st5" cx="-16.5" cy="409.6" r="3.1"/>
						<circle id="XMLID_13863_" class="st15" cx="-16.5" cy="409.5" r="3"/>
						<circle id="XMLID_13862_" class="st20" cx="-16.5" cy="409.1" r="3"/>
						<circle id="XMLID_13861_" class="st17" cx="-16.5" cy="409.1" r="2.6"/>
						<circle id="XMLID_13860_" class="st18" cx="-16" cy="408.4" r="0.4"/>
						<circle id="XMLID_13859_" class="st18" cx="-16.9" cy="410.2" r="0.4"/>
						<line id="XMLID_13858_" class="st21" x1="-15.8" y1="408.4" x2="-16.7" y2="410.2"/>
						<line id="XMLID_13857_" class="st21" x1="-16.1" y1="408.3" x2="-17" y2="410.1"/>
						<circle id="XMLID_13856_" class="st18" cx="-15.5" cy="409.8" r="0.4"/>
						<circle id="XMLID_13855_" class="st18" cx="-17.4" cy="408.9" r="0.4"/>
						<line id="XMLID_13854_" class="st21" x1="-15.5" y1="409.9" x2="-17.4" y2="409"/>
						<line id="XMLID_13853_" class="st21" x1="-15.4" y1="409.7" x2="-17.3" y2="408.8"/>
					</g>
					<g id="XMLID_13839_">
						<path class="st11" d="M-20.5,415.5l4.2,0.3l4,1.2c0.3,0.1,0.2,0.5-0.1,0.4l-4.2-0.3l-4-1.2C-20.8,415.9-20.7,415.5-20.5,415.5
							z"/>
						<circle id="XMLID_13851_" class="st5" cx="-17.8" cy="416.5" r="3.1"/>
						<circle id="XMLID_13850_" class="st15" cx="-17.8" cy="416.4" r="3"/>
						<circle id="XMLID_13849_" class="st20" cx="-17.8" cy="415.9" r="3"/>
						<circle id="XMLID_13848_" class="st17" cx="-17.8" cy="415.9" r="2.6"/>
						<circle id="XMLID_13847_" class="st18" cx="-17.3" cy="415.3" r="0.4"/>
						<circle id="XMLID_13846_" class="st18" cx="-18.2" cy="417.1" r="0.4"/>
						<line id="XMLID_13845_" class="st21" x1="-17.1" y1="415.3" x2="-18" y2="417.1"/>
						<line id="XMLID_13844_" class="st21" x1="-17.4" y1="415.2" x2="-18.3" y2="417"/>
						<circle id="XMLID_13843_" class="st18" cx="-16.8" cy="416.6" r="0.4"/>
						<circle id="XMLID_13842_" class="st18" cx="-18.7" cy="415.7" r="0.4"/>
						<line id="XMLID_13841_" class="st21" x1="-16.8" y1="416.8" x2="-18.7" y2="415.9"/>
						<line id="XMLID_13840_" class="st21" x1="-16.7" y1="416.5" x2="-18.5" y2="415.6"/>
					</g>
				</g>
			</g>
		</g>
	</g>
	<g id="XMLID_1_" class="st0">
		<defs>
			<rect id="XMLID_4932_" x="-13.5" width="327.1" height="300"/>
		</defs>
		<clipPath id="XMLID_4_">
			<use xlink:href="#XMLID_4932_"  style="overflow:visible;"/>
		</clipPath>
	</g>
	<g class="st0">
		<path class="st22" d="M150.1,4.6c38.7,0,75.1,15.1,102.5,42.5c27.4,27.4,42.5,63.8,42.5,102.5s-15.1,75.1-42.5,102.5
			c-27.4,27.4-63.8,42.5-102.5,42.5S75,279.5,47.6,252.1C20.2,224.7,5.1,188.3,5.1,149.6S20.2,74.5,47.6,47.1
			C75,19.7,111.4,4.6,150.1,4.6 M150.1-0.4c-82.8,0-150,67.2-150,150s67.2,150,150,150s150-67.2,150-150S232.9-0.4,150.1-0.4
			L150.1-0.4z"/>
	</g>
</g>
</svg>
