<?xml version="1.0" encoding="utf-8"?>
<!-- Generator: Adobe Illustrator 19.0.0, SVG Export Plug-In . SVG Version: 6.00 Build 0)  -->
<svg version="1.1" id="Layer_1" xmlns="http://www.w3.org/2000/svg" xmlns:xlink="http://www.w3.org/1999/xlink" x="0px" y="0px"
	 viewBox="0 0 300 300" style="enable-background:new 0 0 300 300;" xml:space="preserve">
<style type="text/css">
	.st0{clip-path:url(#SVGID_2_);}
	.st1{clip-path:url(#XMLID_3_);}
	.st2{fill:#F1F1F2;stroke:#404041;stroke-miterlimit:10;}
	.st3{fill:#FFFFFF;stroke:#404041;stroke-miterlimit:10;}
	.st4{fill:#929497;}
	.st5{fill:#F1F1F2;}
	.st6{fill:#C5C7C9;}
	.st7{fill:none;stroke:#404041;stroke-miterlimit:10;}
	.st8{fill:none;stroke:#808184;stroke-width:0.5;stroke-miterlimit:10;}
	.st9{fill:none;stroke:#808184;stroke-width:0.5;stroke-miterlimit:10;stroke-dasharray:0.9993,1.9985;}
	.st10{fill:none;stroke:#808184;stroke-width:0.5;stroke-miterlimit:10;stroke-dasharray:1,2;}
	.st11{fill:#FFFFFF;stroke:#404041;stroke-linejoin:round;stroke-miterlimit:10;}
	.st12{fill:none;stroke:#808184;stroke-width:0.5;stroke-miterlimit:10;stroke-dasharray:0.9943,1.9886;}
	.st13{fill:none;stroke:#808184;stroke-width:0.5;stroke-miterlimit:10;stroke-dasharray:1.0166,2.0331;}
	.st14{fill:none;stroke:#808184;stroke-width:0.5;stroke-miterlimit:10;stroke-dasharray:1.0177,2.0353;}
	.st15{fill:#DBDCDD;}
	.st16{fill:#404041;stroke:#D0D2D3;stroke-width:0.5;stroke-miterlimit:10;}
	.st17{fill:#FFFFFF;stroke:#6D6E70;stroke-miterlimit:10;}
	.st18{fill:#FFFFFF;stroke:#929497;stroke-width:0.25;stroke-miterlimit:10;}
	.st19{fill:#404041;}
	.st20{fill:none;stroke:#6D6E70;stroke-width:0.5;stroke-miterlimit:10;}
	.st21{fill:#FFFFFF;stroke:#6D6E70;stroke-width:0.5;stroke-miterlimit:10;}
	.st22{fill:none;stroke:#6D6E70;stroke-width:0.25;stroke-miterlimit:10;}
	.st23{fill:#9AA0BB;}
</style>
<g>
	<defs>
		<circle id="SVGID_1_" cx="150.1" cy="149.6" r="150"/>
	</defs>
	<use xlink:href="#SVGID_1_"  style="overflow:visible;fill:#DDDDDD;"/>
	<clipPath id="SVGID_2_">
		<use xlink:href="#SVGID_1_"  style="overflow:visible;"/>
	</clipPath>
	<g id="XMLID_254_" class="st0">
		<defs>
			<rect id="XMLID_4044_" x="-13.5" width="327.1" height="300"/>
		</defs>
		<clipPath id="XMLID_3_">
			<use xlink:href="#XMLID_4044_"  style="overflow:visible;"/>
		</clipPath>
		<g class="st1">
			<g>
				<g>
					<polygon class="st2" points="174.4,35.3 184.3,46.4 149.7,224.6 115.5,46.4 125,35.3 					"/>
					<path class="st3" d="M174.8,30c0,0,0.1-0.6-24.9-0.6c-0.1,0-0.2,0-0.3,0c-0.1,0-0.2,0-0.3,0c-25,0-24.9,0.6-24.9,0.6l-3,10.9
						c0,0,4.1,1,13.9,1.4c3.8,0.2,8.8,0.3,14.4,0.3c5.7,0,10.1-0.1,13.9-0.3c9.9-0.4,13.9-1.4,13.9-1.4L174.8,30z"/>
					<g>
						<path class="st4" d="M129.1,29.7c0,0-2.6,2.9-2.4,6.6s0.4,4.9,0.4,4.9l-4.5-0.3l2.1-10.8L129.1,29.7z"/>
						<path class="st5" d="M130.1,29.6c-0.7,0-1.3,0-1.8,0.1c-1.5,2.4-1.5,9.3-1.4,11.8c0.8,0.1,1.7,0.1,2.7,0.2
							c-0.2-0.7-0.4-2.3-0.4-5.1C129.2,33.2,129.8,30.7,130.1,29.6z"/>
						<path class="st6" d="M128.5,29.7c-0.4,0-0.7,0-1,0c-0.6,0.5-1.2,1.4-1.4,2.9c-0.3,3.1-0.4,7-0.5,8.8c0.8,0.1,1.7,0.2,2.7,0.2
							C127.9,39,127.1,32,128.5,29.7z"/>
					</g>
					<g>
						<path class="st4" d="M170.1,29.7c0,0,2.6,2.9,2.4,6.6c-0.2,3.7-0.4,4.9-0.4,4.9l4.3,0.2L174.6,30L170.1,29.7z"/>
						<path class="st5" d="M169,29.6c0.7,0,1.3,0,1.8,0.1c1.5,2.4,1.5,9.3,1.4,11.8c-0.8,0.1-1.7,0.1-2.7,0.2
							c0.2-0.7,0.4-2.3,0.4-5.1C169.9,33.2,169.3,30.7,169,29.6z"/>
						<path class="st6" d="M170.6,29.7c0.4,0,0.7,0,1,0c0.6,0.5,1.2,1.4,1.4,2.9c0.3,3.1,0.4,7,0.5,8.8c-0.8,0.1-1.7,0.2-2.7,0.2
							C171.2,39,172.1,32,170.6,29.7z"/>
					</g>
					<path class="st7" d="M174.8,30c0,0,0.1-0.6-24.9-0.6c-0.1,0-0.2,0-0.3,0c-0.1,0-0.2,0-0.3,0c-25,0-24.9,0.6-24.9,0.6l-3,10.9
						c0,0,4.1,1,13.9,1.4c3.8,0.2,8.8,0.3,14.4,0.3c5.7,0,10.1-0.1,13.9-0.3c9.9-0.4,13.9-1.4,13.9-1.4L174.8,30z"/>
					<g>
						<polygon class="st4" points="126.3,63.2 149.9,142.4 173,63.2 157.9,177.2 149.1,199.9 142.2,176.1 						"/>
						<polygon class="st6" points="149.7,154.3 173.6,58.9 149.9,139.4 125.8,58.9 						"/>
					</g>
					<g>
						<g>
							<line class="st8" x1="149.9" y1="44" x2="149.9" y2="44.5"/>
							<line class="st9" x1="149.9" y1="46.5" x2="149.9" y2="198.4"/>
							<line class="st8" x1="149.9" y1="199.4" x2="149.9" y2="199.9"/>
						</g>
					</g>
					<path class="st4" d="M137,46.7l0.9,0.9c0,0,6.5-0.5,12-0.5s12.4,0.5,12.4,0.5l0.6-0.9H137z"/>
					<path class="st6" d="M137.7,47.4l0.7,0.7c0,0,6.1-0.5,11.5-0.5c5.4,0,12.2,0.5,12.2,0.5l0.4-0.7l-12.5-0.2L137.7,47.4z"/>
					<path class="st3" d="M149.9,42.5c-5.7,0-10.4,0-14.3-0.2l1.6,4.4h12.6h0.1h12.6l1.6-4.4C160.4,42.5,155.6,42.5,149.9,42.5z"/>
				</g>
				<path class="st2" d="M162.6,437.7c0-0.7,0-25.3,0-25.3h-25.4v25.3H162.6z"/>
				<g>
					<polygon class="st4" points="150.1,421.8 140.3,443.8 149.9,408.7 159.9,444.2 					"/>
					<polygon class="st6" points="149.9,426.2 140.3,443.8 149.9,418.8 159.9,444.2 					"/>
				</g>
				<path class="st3" d="M163.5,289.1c-2.3-52.5-4.9-38.4-4.9-38.4l-4.5-37.8c0,0-14.4-64.3-15.7-73.5
					c-2.2-14.9-15.2-66.3-15.2-66.3c-4.5-28.7,2-43,2-43s-21.6,12.3-26,15.2c-2.3,1.5-22.2,10.3-39.2,18.1
					C39.3,72.9,36.5,78,36.5,78c15.9,9.8,19.2,45.2,19.5,86.6s-11.2,112.2-12.6,149c-1.5,38.2-9.3,132-9.3,132s68.2,17.4,86.9,12.3
					c18.6-5.1,20.1-15.6,23.8-25.2l5.5-19.2C150.1,413.5,165.8,341.6,163.5,289.1z"/>
				<g>
					<path class="st5" d="M56.2,239.3c6-41.1,3.4-74.1-0.7-99.9c0.8,5.1,1.2,14.1,1.3,15.4c0.7,8.7,1.4,17.7,1.2,26.4
						c-0.2,18.2-1.5,39.1-4.8,62c-2.8,19.6-4.9,28.3-6.4,31.7c-0.3,2.8-0.6,5.5-0.8,8.2C49.7,282.9,52.3,265.7,56.2,239.3z"/>
					<path class="st6" d="M52.5,222.6c-1.8,17.7-3.9,35.8-5.7,52.3c1.5-3.4,3.6-12.1,6.4-31.7c3.3-22.9,4.9-41.7,4.9-72.4l0-0.1
						c0.3-11.1-2.7-31.8-2.7-30.9C57.1,164.5,54.2,207.9,52.5,222.6z"/>
				</g>
				<path class="st3" d="M55.9,164.6c-0.3-38.9-3.2-72.4-16.6-84.5l-2.8-1.6c0,0-4.3-1.4-8.8,19.9C23.1,119.7-25,422.2-25,422.2
					s8,7,24.6,7.6s25-3.5,25-3.5l26.1-188.7C53.5,211.2,56.1,184.5,55.9,164.6z"/>
				<g>
					<path class="st5" d="M142.8,191.7c0,0-3,7.1-4.2,20.8c-1.8,21.2-3,55.9-3,94.5c0,63.5,14.3,109,14.3,109l0.1-77.5l3.1-135
						L142.8,191.7z"/>
					<path class="st6" d="M143.7,192.3c0,0-2.3,3.8-3.3,14.6c-0.4,4.8-0.6,8-1,14.6c-1.3,19.2-2.2,47.1-2.2,77.1
						c0,63.5,12.7,117.3,12.7,117.3l2.8-77.5l3.1-135L143.7,192.3z"/>
				</g>
				<g>
					<path class="st3" d="M244.1,164.6c0.3-41.5,3.6-76.8,19.5-86.6c0,0-2.9-5.1-23.5-14.6c-19.4-9-35.7-16-42.1-19.7
						c-0.4-0.2-0.8-0.4-1.1-0.6c-5.5-3.4-22.1-13.1-22.1-13.1s3.8,14.9-0.6,43.7c0,0-12.1,47.1-14.2,62
						c-2.2,14.9-18.8,78.5-19.1,81.1c-0.5,5.2-2,52-2.4,72.4c-1,52.6,11.5,124.3,11.5,124.3l5.7,19.4c3.7,9.7,4.9,19.9,23.6,25
						c18.6,5.1,84.4-12.3,84.4-12.3s-5.4-93.8-6.9-132C255.3,276.8,243.8,206.1,244.1,164.6z"/>
				</g>
				<g>
					<path class="st5" d="M243.8,239.3c-6-41.1-3.4-74.1,0.7-99.9c-0.8,5.1-1.2,14.1-1.3,15.4c-0.7,8.7-1.4,17.7-1.2,26.4
						c0.2,18.2,1.5,39.1,4.8,62c2.8,19.6,4.9,28.3,6.4,31.7c0.3,2.8,0.6,5.5,0.8,8.2C250.2,282.9,247.6,265.7,243.8,239.3z"/>
					<path class="st6" d="M247.5,222.6c1.8,17.7,3.9,35.8,5.7,52.3c-1.5-3.4-3.6-12.1-6.4-31.7c-3.3-22.9-4.9-41.7-4.9-72.4l0-0.1
						c-0.3-11.1,2.7-31.8,2.7-30.9C242.9,164.5,245.7,207.9,247.5,222.6z"/>
				</g>
				<path class="st3" d="M272.4,97.8c-4.5-21.3-8.8-19.9-8.8-19.9l0,0c-15.9,9.8-19.2,45.2-19.5,86.6c-0.1,19.3,2.3,45,5,70.6
					l26.3,190.6c0,0,8.4,4.1,25,3.5s24.6-7.6,24.6-7.6S276.9,119.2,272.4,97.8z"/>
			</g>
			<g>
				<polygon class="st5" points="233.5,168.9 233.5,166.4 174.1,168.1 174.1,170.6 				"/>
				<polygon class="st6" points="233.5,169.9 233.5,167.4 174.1,169.1 174.1,171.6 				"/>
				<path class="st3" d="M233.3,168.5v13.7c0,0.5-0.4,0.9-0.9,0.9l-56.8,1.2c-0.5,0-0.9-0.4-0.9-0.9v-13.2L233.3,168.5z"/>
				<line class="st10" x1="174.8" y1="170.8" x2="233.3" y2="169.1"/>
			</g>
			<g>
				<g>
					<g>
						<path class="st5" d="M100.6,40.6c-3.2,1.1-4.3,2.1-4.4,4.7c0,0-0.8,11.1,1.1,21.4c10.1,53.8,37.7,114.1,46,126.4
							c2.1,3.1,3.5,4.6,5.8,1.2c4.6-6.8,5.7-4.5,5.7-4.5l-2.2-6.3l-48.6-144L100.6,40.6z"/>
						<path class="st6" d="M105.6,40.1c0,0-4.5-0.3-6.4,1.6c-1.2,1.2-1.6,3.2-1.5,4.6c0.5,47.8,33.2,123,45,144.6
							c2,3.7,2.8,7.6,5.2,11.1c2.2,3.2,5.2-4.3,5.2-4.3l-2.9-12.9L111.9,74.2L105.6,40.1z"/>
					</g>
					<path class="st11" d="M126.8,30c0,0-24.9,8.2-26.1,10.5c-4.2,8.5,4.5,52.9,23.9,107.2c7.2,20.3,15.2,38.2,22.2,49.9
						c1,1.7,8.3-3.9,7.8-6c-0.6-2.4-0.6-3.1-1.4-6.7c-5.9-27.4-29.3-138.3-29.3-144.8S126.8,30,126.8,30z"/>
					<g>
						<polygon class="st5" points="149.3,167.6 142.5,189.2 144.6,193.5 149.9,175 						"/>
						<polygon class="st6" points="150.2,169.6 143.4,191.2 145.5,195.5 150.8,177 						"/>
					</g>
					<g>
						<path class="st5" d="M200.2,41.2c3.2,1.1,4.3,2.1,4.4,4.7c0,0,0.8,11.1-1.1,21.4c-10.1,53.8-36,113.5-44.4,125.8
							c-8.3,12.3-18.5,24.8-18.5,24.8l10-33.2l46.1-144.6L200.2,41.2z"/>
						<path class="st6" d="M195.1,40.7c0,0,4.5-0.3,6.4,1.6c1.2,1.2,1.6,3.2,1.5,4.6c-0.5,47.8-32.4,122.4-44.2,144
							c-6.9,12.7-18.6,26.7-18.6,26.7l9.5-32.8l37.5-110.5L195.1,40.7z"/>
					</g>
					<path class="st11" d="M173.2,30c0,0,25.8,8.8,26.9,11.2c4.2,8.5-4.5,52.9-23.9,107.2c-14.3,40-34.3,66.2-35.9,69.1
						c0,0-0.7-2.9,4.4-23.3s31.4-147.4,31.4-154S173.2,30,173.2,30z"/>
				</g>
			</g>
			<g>
				<g>
					<g>
						<g>
							<line class="st8" x1="203.9" y1="206" x2="203.9" y2="206.5"/>
							<line class="st12" x1="203.9" y1="208.4" x2="203.9" y2="311.8"/>
							<line class="st8" x1="203.9" y1="312.8" x2="203.9" y2="313.3"/>
						</g>
					</g>
					<g>
						<path class="st5" d="M195.6,317l-1.3,17.7c-0.6,10.1,4.2,13.2,9.2,13.2h54.7l-0.2-4.6L195.6,317z"/>
						<path class="st6" d="M195.6,316.4l-0.6,14.5c-0.6,10.1,2.8,15.7,8.6,15.7h54.6l-0.2-4.6L195.6,316.4z"/>
						<path class="st3" d="M195.6,320.9v-5.1h61.5l1.5,29.8h-53.7c-7.1,0-9.2-8.4-9.2-15.5l0,0V320.9z"/>
						<g>
							<g>
								<line class="st8" x1="196.1" y1="318.9" x2="196.6" y2="318.9"/>
								<line class="st13" x1="198.6" y1="318.9" x2="255.6" y2="318.9"/>
								<line class="st8" x1="256.6" y1="318.9" x2="257.1" y2="318.9"/>
							</g>
						</g>
					</g>
				</g>
				<g>
					<g>
						<g>
							<line class="st8" x1="96.9" y1="206" x2="96.9" y2="206.5"/>
							<line class="st12" x1="96.9" y1="208.4" x2="96.9" y2="311.8"/>
							<line class="st8" x1="96.9" y1="312.8" x2="96.9" y2="313.3"/>
						</g>
					</g>
					<g>
						<path class="st5" d="M105.2,317l1.3,17.7c0.6,10.1-4.2,13.2-9.2,13.2H42.6l0.2-4.6L105.2,317z"/>
						<path class="st6" d="M105.2,316.4l0.6,14.5c0.6,10.1-2.8,15.7-8.6,15.7H42.6l0.2-4.6L105.2,316.4z"/>
						<path class="st3" d="M105.2,320.9v-5.1H43.7l-1.5,29.8h53.7c7.1,0,9.2-8.4,9.2-15.5l0,0V320.9z"/>
						<g>
							<g>
								<line class="st8" x1="104.8" y1="318.9" x2="104.3" y2="318.9"/>
								<line class="st14" x1="102.2" y1="318.9" x2="45.2" y2="318.9"/>
								<line class="st8" x1="44.2" y1="318.9" x2="43.7" y2="318.9"/>
							</g>
						</g>
					</g>
				</g>
			</g>
			<g>
				<g id="XMLID_7409_">
					<circle id="XMLID_7424_" class="st5" cx="153.7" cy="221.7" r="6"/>
					<circle id="XMLID_7423_" class="st15" cx="153.8" cy="221.5" r="5.8"/>
					<polygon id="XMLID_7422_" class="st16" points="161.2,221.3 153.9,219.8 145.7,221.3 153.9,222.7 					"/>
					<circle id="XMLID_7421_" class="st17" cx="153.7" cy="220.7" r="5.8"/>
					<circle id="XMLID_7420_" class="st18" cx="153.7" cy="220.7" r="5"/>
					<circle id="XMLID_7419_" class="st19" cx="152.7" cy="219.4" r="0.7"/>
					<circle id="XMLID_7418_" class="st19" cx="154.5" cy="223" r="0.7"/>
					<line id="XMLID_7417_" class="st20" x1="152.4" y1="219.4" x2="154.2" y2="222.9"/>
					<line id="XMLID_7416_" class="st20" x1="152.9" y1="219.2" x2="154.6" y2="222.7"/>
					<line id="XMLID_7415_" class="st20" x1="152.4" y1="219.4" x2="154.2" y2="222.9"/>
					<line id="XMLID_7414_" class="st20" x1="152.9" y1="219.2" x2="154.6" y2="222.7"/>
					<circle id="XMLID_7413_" class="st19" cx="151.8" cy="222" r="0.7"/>
					<circle id="XMLID_7412_" class="st19" cx="155.4" cy="220.3" r="0.7"/>
					<line id="XMLID_7411_" class="st20" x1="151.8" y1="222.3" x2="155.4" y2="220.6"/>
					<line id="XMLID_7410_" class="st20" x1="151.6" y1="221.8" x2="155.2" y2="220.1"/>
				</g>
				<g id="XMLID_7393_">
					<circle id="XMLID_7408_" class="st5" cx="153.7" cy="287.3" r="6"/>
					<circle id="XMLID_7407_" class="st15" cx="153.8" cy="287.1" r="5.8"/>
					<polygon id="XMLID_7406_" class="st16" points="161.2,286.9 153.9,285.4 145.7,286.9 153.9,288.3 					"/>
					<circle id="XMLID_7405_" class="st17" cx="153.7" cy="286.3" r="5.8"/>
					<circle id="XMLID_7404_" class="st18" cx="153.7" cy="286.3" r="5"/>
					<circle id="XMLID_7403_" class="st19" cx="152.7" cy="285" r="0.7"/>
					<circle id="XMLID_7402_" class="st19" cx="154.5" cy="288.6" r="0.7"/>
					<line id="XMLID_7401_" class="st20" x1="152.4" y1="285" x2="154.2" y2="288.5"/>
					<line id="XMLID_7400_" class="st20" x1="152.9" y1="284.8" x2="154.6" y2="288.3"/>
					<line id="XMLID_7399_" class="st20" x1="152.4" y1="285" x2="154.2" y2="288.5"/>
					<line id="XMLID_7398_" class="st20" x1="152.9" y1="284.8" x2="154.6" y2="288.3"/>
					<circle id="XMLID_7397_" class="st19" cx="151.8" cy="287.6" r="0.7"/>
					<circle id="XMLID_7396_" class="st19" cx="155.4" cy="285.9" r="0.7"/>
					<line id="XMLID_7395_" class="st20" x1="151.8" y1="287.9" x2="155.4" y2="286.2"/>
					<line id="XMLID_7394_" class="st20" x1="151.6" y1="287.4" x2="155.2" y2="285.7"/>
				</g>
			</g>
			<g>
				<g>
					<g id="XMLID_9812_">
						<path class="st16" d="M318.9,402.9l-4.2,0.3l-4,1.2c-0.3,0.1-0.2,0.5,0.1,0.4l4.2-0.3l4-1.2
							C319.3,403.2,319.2,402.8,318.9,402.9z"/>
						<circle id="XMLID_9824_" class="st5" cx="316.2" cy="403.8" r="3.1"/>
						<circle id="XMLID_9823_" class="st15" cx="316.3" cy="403.7" r="3"/>
						<circle id="XMLID_9822_" class="st21" cx="316.2" cy="403.3" r="3"/>
						<circle id="XMLID_9821_" class="st18" cx="316.2" cy="403.3" r="2.6"/>
						<circle id="XMLID_9820_" class="st19" cx="315.7" cy="402.6" r="0.4"/>
						<circle id="XMLID_9819_" class="st19" cx="316.6" cy="404.4" r="0.4"/>
						<line id="XMLID_9818_" class="st22" x1="315.6" y1="402.6" x2="316.5" y2="404.4"/>
						<line id="XMLID_9817_" class="st22" x1="315.8" y1="402.5" x2="316.7" y2="404.3"/>
						<circle id="XMLID_9816_" class="st19" cx="315.2" cy="404" r="0.4"/>
						<circle id="XMLID_9815_" class="st19" cx="317.1" cy="403.1" r="0.4"/>
						<line id="XMLID_9814_" class="st22" x1="315.2" y1="404.1" x2="317.1" y2="403.2"/>
						<line id="XMLID_9813_" class="st22" x1="315.1" y1="403.9" x2="317" y2="403"/>
					</g>
					<g id="XMLID_9799_">
						<path class="st16" d="M317.6,396l-4.2,0.3l-4,1.2c-0.3,0.1-0.2,0.5,0.1,0.4l4.2-0.3l4-1.2C318,396.3,317.9,396,317.6,396z"/>
						<circle id="XMLID_9811_" class="st5" cx="314.9" cy="396.9" r="3.1"/>
						<circle id="XMLID_9810_" class="st15" cx="315" cy="396.8" r="3"/>
						<circle id="XMLID_9809_" class="st21" cx="314.9" cy="396.4" r="3"/>
						<circle id="XMLID_9808_" class="st18" cx="314.9" cy="396.4" r="2.6"/>
						<circle id="XMLID_9807_" class="st19" cx="314.4" cy="395.7" r="0.4"/>
						<circle id="XMLID_9806_" class="st19" cx="315.4" cy="397.6" r="0.4"/>
						<line id="XMLID_9805_" class="st22" x1="314.3" y1="395.7" x2="315.2" y2="397.6"/>
						<line id="XMLID_9804_" class="st22" x1="314.5" y1="395.6" x2="315.4" y2="397.5"/>
						<circle id="XMLID_9803_" class="st19" cx="314" cy="397.1" r="0.4"/>
						<circle id="XMLID_9802_" class="st19" cx="315.8" cy="396.2" r="0.4"/>
						<line id="XMLID_9801_" class="st22" x1="314" y1="397.2" x2="315.8" y2="396.3"/>
						<line id="XMLID_9800_" class="st22" x1="313.9" y1="397" x2="315.7" y2="396.1"/>
					</g>
					<g id="XMLID_9786_">
						<path class="st16" d="M320.2,409.7l-4.2,0.3l-4,1.2c-0.3,0.1-0.2,0.5,0.1,0.4l4.2-0.3l4-1.2
							C320.5,410.1,320.5,409.7,320.2,409.7z"/>
						<circle id="XMLID_9798_" class="st5" cx="317.5" cy="410.7" r="3.1"/>
						<circle id="XMLID_9797_" class="st15" cx="317.6" cy="410.6" r="3"/>
						<circle id="XMLID_9796_" class="st21" cx="317.5" cy="410.1" r="3"/>
						<circle id="XMLID_9795_" class="st18" cx="317.5" cy="410.1" r="2.6"/>
						<circle id="XMLID_9794_" class="st19" cx="317" cy="409.5" r="0.4"/>
						<circle id="XMLID_9793_" class="st19" cx="317.9" cy="411.3" r="0.4"/>
						<line id="XMLID_9792_" class="st22" x1="316.9" y1="409.5" x2="317.8" y2="411.3"/>
						<line id="XMLID_9791_" class="st22" x1="317.1" y1="409.4" x2="318" y2="411.2"/>
						<circle id="XMLID_9790_" class="st19" cx="316.5" cy="410.8" r="0.4"/>
						<circle id="XMLID_9789_" class="st19" cx="318.4" cy="409.9" r="0.4"/>
						<line id="XMLID_9788_" class="st22" x1="316.5" y1="411" x2="318.4" y2="410.1"/>
						<line id="XMLID_9787_" class="st22" x1="316.4" y1="410.7" x2="318.3" y2="409.8"/>
					</g>
					<g id="XMLID_9773_">
						<path class="st16" d="M321.5,416.6l-4.2,0.3l-4,1.2c-0.3,0.1-0.2,0.5,0.1,0.4l4.2-0.3l4-1.2
							C321.8,417,321.7,416.6,321.5,416.6z"/>
						<circle id="XMLID_9785_" class="st5" cx="318.8" cy="417.6" r="3.1"/>
						<circle id="XMLID_9784_" class="st15" cx="318.8" cy="417.4" r="3"/>
						<circle id="XMLID_9783_" class="st21" cx="318.8" cy="417" r="3"/>
						<circle id="XMLID_9782_" class="st18" cx="318.8" cy="417" r="2.6"/>
						<circle id="XMLID_9781_" class="st19" cx="318.3" cy="416.3" r="0.4"/>
						<circle id="XMLID_9780_" class="st19" cx="319.2" cy="418.2" r="0.4"/>
						<line id="XMLID_9779_" class="st22" x1="318.1" y1="416.3" x2="319" y2="418.2"/>
						<line id="XMLID_9778_" class="st22" x1="318.4" y1="416.2" x2="319.3" y2="418.1"/>
						<circle id="XMLID_9777_" class="st19" cx="317.8" cy="417.7" r="0.4"/>
						<circle id="XMLID_9776_" class="st19" cx="319.7" cy="416.8" r="0.4"/>
						<line id="XMLID_9775_" class="st22" x1="317.8" y1="417.9" x2="319.7" y2="417"/>
						<line id="XMLID_9774_" class="st22" x1="317.7" y1="417.6" x2="319.6" y2="416.7"/>
					</g>
				</g>
				<g>
					<g id="XMLID_9760_">
						<path class="st16" d="M-18.1,402.9l4.2,0.3l4,1.2c0.3,0.1,0.2,0.5-0.1,0.4l-4.2-0.3l-4-1.2C-18.4,403.2-18.4,402.8-18.1,402.9
							z"/>
						<circle id="XMLID_9772_" class="st5" cx="-15.4" cy="403.8" r="3.1"/>
						<circle id="XMLID_9771_" class="st15" cx="-15.5" cy="403.7" r="3"/>
						<circle id="XMLID_9770_" class="st21" cx="-15.4" cy="403.3" r="3"/>
						<circle id="XMLID_9769_" class="st18" cx="-15.4" cy="403.3" r="2.6"/>
						<circle id="XMLID_9768_" class="st19" cx="-14.9" cy="402.6" r="0.4"/>
						<circle id="XMLID_9767_" class="st19" cx="-15.8" cy="404.4" r="0.4"/>
						<line id="XMLID_9766_" class="st22" x1="-14.8" y1="402.6" x2="-15.7" y2="404.4"/>
						<line id="XMLID_9765_" class="st22" x1="-15" y1="402.5" x2="-15.9" y2="404.3"/>
						<circle id="XMLID_9764_" class="st19" cx="-14.4" cy="404" r="0.4"/>
						<circle id="XMLID_9763_" class="st19" cx="-16.3" cy="403.1" r="0.4"/>
						<line id="XMLID_9762_" class="st22" x1="-14.4" y1="404.1" x2="-16.3" y2="403.2"/>
						<line id="XMLID_9761_" class="st22" x1="-14.3" y1="403.9" x2="-16.2" y2="403"/>
					</g>
					<g id="XMLID_9747_">
						<path class="st16" d="M-16.8,396l4.2,0.3l4,1.2c0.3,0.1,0.2,0.5-0.1,0.4l-4.2-0.3l-4-1.2C-17.2,396.3-17.1,396-16.8,396z"/>
						<circle id="XMLID_9759_" class="st5" cx="-14.1" cy="396.9" r="3.1"/>
						<circle id="XMLID_9758_" class="st15" cx="-14.2" cy="396.8" r="3"/>
						<circle id="XMLID_9757_" class="st21" cx="-14.1" cy="396.4" r="3"/>
						<circle id="XMLID_9756_" class="st18" cx="-14.1" cy="396.4" r="2.6"/>
						<circle id="XMLID_9755_" class="st19" cx="-13.6" cy="395.7" r="0.4"/>
						<circle id="XMLID_9754_" class="st19" cx="-14.5" cy="397.6" r="0.4"/>
						<line id="XMLID_9753_" class="st22" x1="-13.5" y1="395.7" x2="-14.4" y2="397.6"/>
						<line id="XMLID_9752_" class="st22" x1="-13.7" y1="395.6" x2="-14.6" y2="397.5"/>
						<circle id="XMLID_9751_" class="st19" cx="-13.2" cy="397.1" r="0.4"/>
						<circle id="XMLID_9750_" class="st19" cx="-15" cy="396.2" r="0.4"/>
						<line id="XMLID_9749_" class="st22" x1="-13.2" y1="397.2" x2="-15" y2="396.3"/>
						<line id="XMLID_9748_" class="st22" x1="-13.1" y1="397" x2="-14.9" y2="396.1"/>
					</g>
					<g id="XMLID_9734_">
						<path class="st16" d="M-19.4,409.7l4.2,0.3l4,1.2c0.3,0.1,0.2,0.5-0.1,0.4l-4.2-0.3l-4-1.2C-19.7,410.1-19.7,409.7-19.4,409.7
							z"/>
						<circle id="XMLID_9746_" class="st5" cx="-16.7" cy="410.7" r="3.1"/>
						<circle id="XMLID_9745_" class="st15" cx="-16.7" cy="410.6" r="3"/>
						<circle id="XMLID_9744_" class="st21" cx="-16.7" cy="410.1" r="3"/>
						<circle id="XMLID_9743_" class="st18" cx="-16.7" cy="410.1" r="2.6"/>
						<circle id="XMLID_9742_" class="st19" cx="-16.2" cy="409.5" r="0.4"/>
						<circle id="XMLID_9741_" class="st19" cx="-17.1" cy="411.3" r="0.4"/>
						<line id="XMLID_9740_" class="st22" x1="-16.1" y1="409.5" x2="-17" y2="411.3"/>
						<line id="XMLID_9739_" class="st22" x1="-16.3" y1="409.4" x2="-17.2" y2="411.2"/>
						<circle id="XMLID_9738_" class="st19" cx="-15.7" cy="410.8" r="0.4"/>
						<circle id="XMLID_9737_" class="st19" cx="-17.6" cy="409.9" r="0.4"/>
						<line id="XMLID_9736_" class="st22" x1="-15.7" y1="411" x2="-17.6" y2="410.1"/>
						<line id="XMLID_9735_" class="st22" x1="-15.6" y1="410.7" x2="-17.5" y2="409.8"/>
					</g>
					<g id="XMLID_9721_">
						<path class="st16" d="M-20.7,416.6l4.2,0.3l4,1.2c0.3,0.1,0.2,0.5-0.1,0.4l-4.2-0.3l-4-1.2C-21,417-20.9,416.6-20.7,416.6z"/>
						<circle id="XMLID_9733_" class="st5" cx="-18" cy="417.6" r="3.1"/>
						<circle id="XMLID_9732_" class="st15" cx="-18" cy="417.4" r="3"/>
						<circle id="XMLID_9731_" class="st21" cx="-18" cy="417" r="3"/>
						<circle id="XMLID_9730_" class="st18" cx="-18" cy="417" r="2.6"/>
						<circle id="XMLID_9729_" class="st19" cx="-17.5" cy="416.3" r="0.4"/>
						<circle id="XMLID_9728_" class="st19" cx="-18.4" cy="418.2" r="0.4"/>
						<line id="XMLID_9727_" class="st22" x1="-17.3" y1="416.3" x2="-18.2" y2="418.2"/>
						<line id="XMLID_9726_" class="st22" x1="-17.6" y1="416.2" x2="-18.5" y2="418.1"/>
						<circle id="XMLID_9725_" class="st19" cx="-17" cy="417.7" r="0.4"/>
						<circle id="XMLID_9724_" class="st19" cx="-18.9" cy="416.8" r="0.4"/>
						<line id="XMLID_9723_" class="st22" x1="-17" y1="417.9" x2="-18.9" y2="417"/>
						<line id="XMLID_9722_" class="st22" x1="-16.9" y1="417.6" x2="-18.8" y2="416.7"/>
					</g>
				</g>
			</g>
		</g>
	</g>
	<g id="XMLID_1_" class="st0">
		<defs>
			<rect id="XMLID_4932_" x="-13.5" width="327.1" height="300"/>
		</defs>
		<clipPath id="XMLID_4_">
			<use xlink:href="#XMLID_4932_"  style="overflow:visible;"/>
		</clipPath>
	</g>
	<g class="st0">
		<path class="st23" d="M150.1,4.6c38.7,0,75.1,15.1,102.5,42.5c27.4,27.4,42.5,63.8,42.5,102.5s-15.1,75.1-42.5,102.5
			c-27.4,27.4-63.8,42.5-102.5,42.5S75,279.5,47.6,252.1C20.2,224.7,5.1,188.3,5.1,149.6S20.2,74.5,47.6,47.1
			C75,19.7,111.4,4.6,150.1,4.6 M150.1-0.4c-82.8,0-150,67.2-150,150s67.2,150,150,150s150-67.2,150-150S232.9-0.4,150.1-0.4
			L150.1-0.4z"/>
	</g>
</g>
</svg>
