<?xml version="1.0" encoding="utf-8"?>
<!-- Generator: Adobe Illustrator 19.0.0, SVG Export Plug-In . SVG Version: 6.00 Build 0)  -->
<svg version="1.1" id="Layer_1" xmlns="http://www.w3.org/2000/svg" xmlns:xlink="http://www.w3.org/1999/xlink" x="0px" y="0px"
	 viewBox="0 0 300 300" style="enable-background:new 0 0 300 300;" xml:space="preserve">
<style type="text/css">
	.st0{clip-path:url(#SVGID_2_);}
	.st1{clip-path:url(#XMLID_3_);}
	.st2{fill:#F1F1F2;stroke:#404041;stroke-miterlimit:10;}
	.st3{fill:#FFFFFF;stroke:#404041;stroke-miterlimit:10;}
	.st4{fill:#929497;}
	.st5{fill:#F1F1F2;}
	.st6{fill:#C5C7C9;}
	.st7{fill:none;stroke:#404041;stroke-miterlimit:10;}
	.st8{fill:none;stroke:#808184;stroke-width:0.5;stroke-miterlimit:10;}
	.st9{fill:none;stroke:#808184;stroke-width:0.5;stroke-miterlimit:10;stroke-dasharray:0.9993,1.9985;}
	.st10{fill:none;stroke:#808184;stroke-width:0.5;stroke-miterlimit:10;stroke-dasharray:1,2;}
	.st11{fill:#FFFFFF;stroke:#404041;stroke-linejoin:round;stroke-miterlimit:10;}
	.st12{fill:none;stroke:#808184;stroke-width:0.5;stroke-miterlimit:10;stroke-dasharray:0.9943,1.9886;}
	.st13{fill:none;stroke:#808184;stroke-width:0.5;stroke-miterlimit:10;stroke-dasharray:1.0166,2.0331;}
	.st14{fill:none;stroke:#808184;stroke-width:0.5;stroke-miterlimit:10;stroke-dasharray:1.0177,2.0353;}
	.st15{fill:#DBDCDD;}
	.st16{fill:#404041;stroke:#D0D2D3;stroke-width:0.5;stroke-miterlimit:10;}
	.st17{fill:#FFFFFF;stroke:#6D6E70;stroke-miterlimit:10;}
	.st18{fill:#FFFFFF;stroke:#929497;stroke-width:0.25;stroke-miterlimit:10;}
	.st19{fill:#404041;}
	.st20{fill:none;stroke:#6D6E70;stroke-width:0.5;stroke-miterlimit:10;}
	.st21{fill:#FFFFFF;stroke:#6D6E70;stroke-width:0.5;stroke-miterlimit:10;}
	.st22{fill:none;stroke:#6D6E70;stroke-width:0.25;stroke-miterlimit:10;}
	.st23{fill:#9AA0BB;}
</style>
<g>
	<defs>
		<circle id="SVGID_1_" cx="150.1" cy="149.6" r="150"/>
	</defs>
	<use xlink:href="#SVGID_1_"  style="overflow:visible;fill:#DDDDDD;"/>
	<clipPath id="SVGID_2_">
		<use xlink:href="#SVGID_1_"  style="overflow:visible;"/>
	</clipPath>
	<g id="XMLID_254_" class="st0">
		<defs>
			<rect id="XMLID_4044_" x="-13.5" width="327.1" height="300"/>
		</defs>
		<clipPath id="XMLID_3_">
			<use xlink:href="#XMLID_4044_"  style="overflow:visible;"/>
		</clipPath>
		<g class="st1">
			<g>
				<g>
					<polygon class="st2" points="174.4,35.3 184.3,46.4 149.7,224.6 115.5,46.4 125,35.3 					"/>
					<path class="st3" d="M174.8,30c0,0,0.1-0.6-24.9-0.6c-0.1,0-0.2,0-0.3,0c-0.1,0-0.2,0-0.3,0c-25,0-24.9,0.6-24.9,0.6l-3,10.9
						c0,0,4.1,1,13.9,1.4c3.8,0.2,8.8,0.3,14.4,0.3c5.7,0,10.1-0.1,13.9-0.3c9.9-0.4,13.9-1.4,13.9-1.4L174.8,30z"/>
					<g>
						<path class="st4" d="M129.1,29.7c0,0-2.6,2.9-2.4,6.6c0.2,3.7,0.4,4.9,0.4,4.9l-4.5-0.3l2.1-10.8L129.1,29.7z"/>
						<path class="st5" d="M130.1,29.6c-0.7,0-1.3,0-1.8,0.1c-1.5,2.4-1.5,9.3-1.4,11.8c0.8,0.1,1.7,0.1,2.7,0.2
							c-0.2-0.7-0.4-2.3-0.4-5.1C129.2,33.2,129.8,30.7,130.1,29.6z"/>
						<path class="st6" d="M128.5,29.7c-0.4,0-0.7,0-1,0c-0.6,0.5-1.2,1.4-1.4,2.9c-0.3,3.1-0.4,7-0.5,8.8c0.8,0.1,1.7,0.2,2.7,0.2
							C127.9,39,127.1,32,128.5,29.7z"/>
					</g>
					<g>
						<path class="st4" d="M170.1,29.7c0,0,2.6,2.9,2.4,6.6c-0.2,3.7-0.4,4.9-0.4,4.9l4.3,0.2L174.6,30L170.1,29.7z"/>
						<path class="st5" d="M169,29.6c0.7,0,1.3,0,1.8,0.1c1.5,2.4,1.5,9.3,1.4,11.8c-0.8,0.1-1.7,0.1-2.7,0.2
							c0.2-0.7,0.4-2.3,0.4-5.1C169.9,33.2,169.3,30.7,169,29.6z"/>
						<path class="st6" d="M170.6,29.7c0.4,0,0.7,0,1,0c0.6,0.5,1.2,1.4,1.4,2.9c0.3,3.1,0.4,7,0.5,8.8c-0.8,0.1-1.7,0.2-2.7,0.2
							C171.2,39,172.1,32,170.6,29.7z"/>
					</g>
					<path class="st7" d="M174.8,30c0,0,0.1-0.6-24.9-0.6c-0.1,0-0.2,0-0.3,0c-0.1,0-0.2,0-0.3,0c-25,0-24.9,0.6-24.9,0.6l-3,10.9
						c0,0,4.1,1,13.9,1.4c3.8,0.2,8.8,0.3,14.4,0.3c5.7,0,10.1-0.1,13.9-0.3c9.9-0.4,13.9-1.4,13.9-1.4L174.8,30z"/>
					<g>
						<polygon class="st4" points="126.3,63.9 149.9,164.1 173,63.9 157.9,195.1 149.1,221.3 142.2,193.9 						"/>
						<polygon class="st6" points="149.7,178.8 173.6,58.9 149.9,161.6 125.8,58.9 						"/>
					</g>
					<g>
						<g>
							<line class="st8" x1="149.9" y1="44" x2="149.9" y2="44.5"/>
							<line class="st9" x1="149.9" y1="46.5" x2="149.9" y2="198.4"/>
							<line class="st8" x1="149.9" y1="199.4" x2="149.9" y2="199.9"/>
						</g>
					</g>
					<path class="st4" d="M137,46.7l0.9,0.9c0,0,6.5-0.5,12-0.5c5.5,0,12.4,0.5,12.4,0.5l0.6-0.9H137z"/>
					<path class="st6" d="M137.7,47.4l0.7,0.7c0,0,6.1-0.5,11.5-0.5c5.4,0,12.2,0.5,12.2,0.5l0.4-0.7l-12.5-0.2L137.7,47.4z"/>
					<path class="st3" d="M149.9,42.5c-5.7,0-10.4,0-14.3-0.2l1.6,4.4h12.6h0.1h12.6l1.6-4.4C160.4,42.5,155.6,42.5,149.9,42.5z"/>
				</g>
				<path class="st2" d="M162.6,437.7c0-0.7,0-25.3,0-25.3h-25.4v25.3H162.6z"/>
				<g>
					<polygon class="st4" points="150.1,421.8 140.3,443.8 149.9,408.7 159.9,444.2 					"/>
					<polygon class="st6" points="149.9,426.2 140.3,443.8 149.9,418.8 159.9,444.2 					"/>
				</g>
				<path class="st3" d="M163.5,289.1c-2.3-52.5-4.9-38.4-4.9-38.4l-4.5-37.8l-6.7,9c-5.4-27.1-14.2-71.9-15.5-81.1
					c-2.2-14.9-8.8-67.7-8.8-67.7c-4.5-28.7,2-43,2-43s-21.6,12.3-26,15.2c-2.3,1.5-22.2,10.3-39.2,18.1C39.3,72.9,36.5,78,36.5,78
					c15.9,9.8,19.2,45.2,19.5,86.6c0.3,41.5-11.2,112.2-12.6,149c-1.5,38.2-9.3,132-9.3,132s68.2,17.4,86.9,12.3
					c18.6-5.1,20.1-15.6,23.8-25.2l5.5-19.2C150.1,413.5,165.8,341.6,163.5,289.1z"/>
				<g>
					<path class="st5" d="M56.2,239.3c6-41.1,3.4-74.1-0.7-99.9c0.8,5.1,1.2,14.1,1.3,15.4c0.7,8.7,1.4,17.7,1.2,26.4
						c-0.2,18.2-1.5,39.1-4.8,62c-2.8,19.6-4.9,28.3-6.4,31.7c-0.3,2.8-0.6,5.5-0.8,8.2C49.7,282.9,52.3,265.7,56.2,239.3z"/>
					<path class="st6" d="M52.5,222.6c-1.8,17.7-3.9,35.8-5.7,52.3c1.5-3.4,3.6-12.1,6.4-31.7c3.3-22.9,4.9-41.7,4.9-72.4l0-0.1
						c0.3-11.1-2.7-31.8-2.7-30.9C57.1,164.5,54.2,207.9,52.5,222.6z"/>
				</g>
				<path class="st3" d="M55.9,164.6c-0.3-38.9-3.2-72.4-16.6-84.5l-2.8-1.6c0,0-4.3-1.4-8.8,19.9C23.1,119.7-25,422.2-25,422.2
					s8,7,24.6,7.6s25-3.5,25-3.5l26.1-188.7C53.5,211.2,56.1,184.5,55.9,164.6z"/>
				<g>
					<path class="st5" d="M150.1,198c0,0-15.4,46-15.4,109.5S149.9,416,149.9,416l0.1-77.5l3.1-135L150.1,198z"/>
					<path class="st6" d="M152.7,198c0,0-16.2,38-16.2,101.5S149.9,416,149.9,416l2.8-77.5l3.1-135L152.7,198z"/>
				</g>
				<g>
					<path class="st3" d="M244.1,164.6c0.3-41.5,3.6-76.8,19.5-86.6c0,0-2.9-5.1-23.5-14.6c-19.4-9-35.7-16-42.1-19.7
						c-0.4-0.2-0.8-0.4-1.1-0.6c-5.5-3.4-22.1-13.1-22.1-13.1s3.8,14.9-0.6,43.7c0,0-6.6,47.4-8.8,62.3
						c-2.2,14.9-17.3,94.2-19.3,106.1c-0.5,3.1-4.5,7.4-4.8,10c-0.5,5.2-2.8,16.7-3.2,37.2c-1,52.6,11.8,124.3,11.8,124.3l5.7,19.4
						c3.7,9.7,4.9,19.9,23.6,25c18.6,5.1,84.4-12.3,84.4-12.3s-5.4-93.8-6.9-132C255.3,276.8,243.8,206.1,244.1,164.6z"/>
				</g>
				<g>
					<path class="st5" d="M243.8,239.3c-6-41.1-3.4-74.1,0.7-99.9c-0.8,5.1-1.2,14.1-1.3,15.4c-0.7,8.7-1.4,17.7-1.2,26.4
						c0.2,18.2,1.5,39.1,4.8,62c2.8,19.6,4.9,28.3,6.4,31.7c0.3,2.8,0.6,5.5,0.8,8.2C250.2,282.9,247.6,265.7,243.8,239.3z"/>
					<path class="st6" d="M247.5,222.6c1.8,17.7,3.9,35.8,5.7,52.3c-1.5-3.4-3.6-12.1-6.4-31.7c-3.3-22.9-4.9-41.7-4.9-72.4l0-0.1
						c-0.3-11.1,2.7-31.8,2.7-30.9C242.9,164.5,245.7,207.9,247.5,222.6z"/>
				</g>
				<path class="st3" d="M272.4,97.8c-4.5-21.3-8.8-19.9-8.8-19.9l0,0c-15.9,9.8-19.2,45.2-19.5,86.6c-0.1,19.3,2.3,45,5,70.6
					l26.3,190.6c0,0,8.4,4.1,25,3.5c16.6-0.6,24.6-7.6,24.6-7.6S276.9,119.2,272.4,97.8z"/>
			</g>
			<g>
				<polygon class="st5" points="233.5,168.9 233.5,166.4 174.1,168.1 174.1,170.6 				"/>
				<polygon class="st6" points="233.5,169.9 233.5,167.4 174.1,169.1 174.1,171.6 				"/>
				<path class="st3" d="M233.3,168.5v13.7c0,0.5-0.4,0.9-0.9,0.9l-56.8,1.2c-0.5,0-0.9-0.4-0.9-0.9v-13.2L233.3,168.5z"/>
				<line class="st10" x1="174.8" y1="170.8" x2="233.3" y2="169.1"/>
			</g>
			<g>
				<g>
					<g>
						<path class="st5" d="M100.6,42.8c-3.2,1.3-4.3,2.6-4.4,5.8c0,0-0.8,13.5,1.1,26.1c10.1,65.6,37.7,139.2,46,154.1
							c2.1,3.7,3.5,5.6,5.8,1.5c4.6-8.2,5.7-5.5,5.7-5.5l-2.2-7.7L104.1,41.3L100.6,42.8z"/>
						<path class="st6" d="M105.6,42.1c0,0-4.5-0.3-6.4,1.9c-1.2,1.4-1.6,3.9-1.5,5.6c0.5,58.3,33.2,150,45,176.3
							c2,4.5,2.8,9.2,5.2,13.5c2.2,3.9,5.2-5.2,5.2-5.2l-2.9-15.8L111.9,83.7L105.6,42.1z"/>
					</g>
					<path class="st11" d="M126.8,29.9c0,0-24.9,10-26.1,12.9c-4.2,10.4,4.5,64.5,23.9,130.8c7.2,24.8,15.2,46.5,22.2,60.9
						c1,2,8.3-4.7,7.8-7.4c-0.6-2.9-0.6-3.7-1.4-8.2c-5.9-33.4-29.3-168.6-29.3-176.6S126.8,29.9,126.8,29.9z"/>
					<g>
						<polygon class="st5" points="149.3,197.6 142.5,223.9 144.6,229.2 149.9,206.6 						"/>
						<polygon class="st6" points="150.2,200 143.4,226.3 145.5,231.6 150.8,209 						"/>
					</g>
					<g>
						<path class="st5" d="M200.2,43.5c3.2,1.3,4.3,2.6,4.4,5.8c0,0,0.8,13.5-1.1,26.1c-10.1,65.6-36,138.4-44.4,153.4
							c-8.3,15-18.5,30.2-18.5,30.2l10-40.5l46.1-176.4L200.2,43.5z"/>
						<path class="st6" d="M195.1,42.8c0,0,4.5-0.3,6.4,1.9c1.2,1.4,1.6,3.9,1.5,5.6c-0.5,58.3-32.4,149.2-44.2,175.5
							c-6.9,15.5-18.6,32.6-18.6,32.6l9.5-40l37.5-134.8L195.1,42.8z"/>
					</g>
					<path class="st11" d="M173.2,29.9c0,0,25.8,10.8,26.9,13.6c4.2,10.4-4.5,64.5-23.9,130.8c-14.3,48.8-34.3,80.8-35.9,84.2
						c0,0-0.7-3.5,4.4-28.4s31.4-179.8,31.4-187.8S173.2,29.9,173.2,29.9z"/>
				</g>
			</g>
			<g>
				<g>
					<g>
						<g>
							<line class="st8" x1="203.9" y1="206.6" x2="203.9" y2="207.1"/>
							<line class="st12" x1="203.9" y1="209" x2="203.9" y2="312.4"/>
							<line class="st8" x1="203.9" y1="313.4" x2="203.9" y2="313.9"/>
						</g>
					</g>
					<g>
						<path class="st5" d="M195.6,317.6l-1.3,17.7c-0.6,10.1,4.2,13.2,9.2,13.2h54.7l-0.2-4.6L195.6,317.6z"/>
						<path class="st6" d="M195.6,317l-0.6,14.5c-0.6,10.1,2.8,15.7,8.6,15.7h54.6l-0.2-4.6L195.6,317z"/>
						<path class="st3" d="M195.6,321.5v-5.1h61.5l1.5,29.8h-53.7c-7.1,0-9.2-8.4-9.2-15.5v0V321.5z"/>
						<g>
							<g>
								<line class="st8" x1="196.1" y1="319.5" x2="196.6" y2="319.5"/>
								<line class="st13" x1="198.6" y1="319.5" x2="255.6" y2="319.5"/>
								<line class="st8" x1="256.6" y1="319.5" x2="257.1" y2="319.5"/>
							</g>
						</g>
					</g>
				</g>
				<g>
					<g>
						<g>
							<line class="st8" x1="96.9" y1="206.6" x2="96.9" y2="207.1"/>
							<line class="st12" x1="96.9" y1="209" x2="96.9" y2="312.4"/>
							<line class="st8" x1="96.9" y1="313.4" x2="96.9" y2="313.9"/>
						</g>
					</g>
					<g>
						<path class="st5" d="M105.2,317.6l1.3,17.7c0.6,10.1-4.2,13.2-9.2,13.2H42.6l0.2-4.6L105.2,317.6z"/>
						<path class="st6" d="M105.2,317l0.6,14.5c0.6,10.1-2.8,15.7-8.6,15.7H42.6l0.2-4.6L105.2,317z"/>
						<path class="st3" d="M105.2,321.5v-5.1H43.7l-1.5,29.8h53.7c7.1,0,9.2-8.4,9.2-15.5v0V321.5z"/>
						<g>
							<g>
								<line class="st8" x1="104.8" y1="319.5" x2="104.3" y2="319.5"/>
								<line class="st14" x1="102.2" y1="319.5" x2="45.2" y2="319.5"/>
								<line class="st8" x1="44.2" y1="319.5" x2="43.7" y2="319.5"/>
							</g>
						</g>
					</g>
				</g>
			</g>
			<g>
				<g id="XMLID_9193_">
					<circle id="XMLID_9208_" class="st5" cx="153.7" cy="259.7" r="6"/>
					<circle id="XMLID_9207_" class="st15" cx="153.8" cy="259.5" r="5.8"/>
					<polygon id="XMLID_9206_" class="st16" points="161.2,259.3 153.9,257.9 145.7,259.3 153.9,260.7 					"/>
					<circle id="XMLID_9205_" class="st17" cx="153.7" cy="258.7" r="5.8"/>
					<circle id="XMLID_9204_" class="st18" cx="153.7" cy="258.7" r="5"/>
					<circle id="XMLID_9203_" class="st19" cx="152.7" cy="257.4" r="0.7"/>
					<circle id="XMLID_9202_" class="st19" cx="154.5" cy="261" r="0.7"/>
					<line id="XMLID_9201_" class="st20" x1="152.4" y1="257.4" x2="154.2" y2="261"/>
					<line id="XMLID_9200_" class="st20" x1="152.9" y1="257.2" x2="154.6" y2="260.8"/>
					<line id="XMLID_9199_" class="st20" x1="152.4" y1="257.4" x2="154.2" y2="261"/>
					<line id="XMLID_9198_" class="st20" x1="152.9" y1="257.2" x2="154.6" y2="260.8"/>
					<circle id="XMLID_9197_" class="st19" cx="151.8" cy="260.1" r="0.7"/>
					<circle id="XMLID_9196_" class="st19" cx="155.4" cy="258.3" r="0.7"/>
					<line id="XMLID_9195_" class="st20" x1="151.8" y1="260.3" x2="155.4" y2="258.6"/>
					<line id="XMLID_9194_" class="st20" x1="151.6" y1="259.9" x2="155.2" y2="258.1"/>
				</g>
				<g id="XMLID_9177_">
					<circle id="XMLID_9192_" class="st5" cx="153.7" cy="325.3" r="6"/>
					<circle id="XMLID_9191_" class="st15" cx="153.8" cy="325.1" r="5.8"/>
					<polygon id="XMLID_9190_" class="st16" points="161.2,324.9 153.9,323.5 145.7,324.9 153.9,326.3 					"/>
					<circle id="XMLID_9189_" class="st17" cx="153.7" cy="324.3" r="5.8"/>
					<circle id="XMLID_9188_" class="st18" cx="153.7" cy="324.3" r="5"/>
					<circle id="XMLID_9187_" class="st19" cx="152.7" cy="323" r="0.7"/>
					<circle id="XMLID_9186_" class="st19" cx="154.5" cy="326.6" r="0.7"/>
					<line id="XMLID_9185_" class="st20" x1="152.4" y1="323" x2="154.2" y2="326.6"/>
					<line id="XMLID_9184_" class="st20" x1="152.9" y1="322.8" x2="154.6" y2="326.4"/>
					<line id="XMLID_9183_" class="st20" x1="152.4" y1="323" x2="154.2" y2="326.6"/>
					<line id="XMLID_9182_" class="st20" x1="152.9" y1="322.8" x2="154.6" y2="326.4"/>
					<circle id="XMLID_9181_" class="st19" cx="151.8" cy="325.7" r="0.7"/>
					<circle id="XMLID_9180_" class="st19" cx="155.4" cy="323.9" r="0.7"/>
					<line id="XMLID_9179_" class="st20" x1="151.8" y1="325.9" x2="155.4" y2="324.2"/>
					<line id="XMLID_9178_" class="st20" x1="151.6" y1="325.5" x2="155.2" y2="323.7"/>
				</g>
			</g>
			<g>
				<g>
					<g id="XMLID_13410_">
						<path class="st16" d="M318.9,401.3l-4.2,0.3l-4,1.2c-0.3,0.1-0.2,0.5,0.1,0.4l4.2-0.3l4-1.2
							C319.3,401.7,319.2,401.3,318.9,401.3z"/>
						<circle id="XMLID_13422_" class="st5" cx="316.2" cy="402.2" r="3.1"/>
						<circle id="XMLID_13421_" class="st15" cx="316.3" cy="402.1" r="3"/>
						<circle id="XMLID_13420_" class="st21" cx="316.2" cy="401.7" r="3"/>
						<circle id="XMLID_13419_" class="st18" cx="316.2" cy="401.7" r="2.6"/>
						<circle id="XMLID_13418_" class="st19" cx="315.7" cy="401" r="0.4"/>
						<circle id="XMLID_13417_" class="st19" cx="316.6" cy="402.9" r="0.4"/>
						<line id="XMLID_13416_" class="st22" x1="315.6" y1="401" x2="316.5" y2="402.9"/>
						<line id="XMLID_13415_" class="st22" x1="315.8" y1="400.9" x2="316.7" y2="402.8"/>
						<circle id="XMLID_13414_" class="st19" cx="315.2" cy="402.4" r="0.4"/>
						<circle id="XMLID_13413_" class="st19" cx="317.1" cy="401.5" r="0.4"/>
						<line id="XMLID_13412_" class="st22" x1="315.2" y1="402.6" x2="317.1" y2="401.7"/>
						<line id="XMLID_13411_" class="st22" x1="315.1" y1="402.3" x2="317" y2="401.4"/>
					</g>
					<g id="XMLID_13397_">
						<path class="st16" d="M317.6,394.4l-4.2,0.3l-4,1.2c-0.3,0.1-0.2,0.5,0.1,0.4l4.2-0.3l4-1.2
							C318,394.8,317.9,394.4,317.6,394.4z"/>
						<circle id="XMLID_13409_" class="st5" cx="314.9" cy="395.4" r="3.1"/>
						<circle id="XMLID_13408_" class="st15" cx="315" cy="395.2" r="3"/>
						<circle id="XMLID_13407_" class="st21" cx="314.9" cy="394.8" r="3"/>
						<circle id="XMLID_13406_" class="st18" cx="314.9" cy="394.8" r="2.6"/>
						<circle id="XMLID_13405_" class="st19" cx="314.4" cy="394.1" r="0.4"/>
						<circle id="XMLID_13404_" class="st19" cx="315.4" cy="396" r="0.4"/>
						<line id="XMLID_13403_" class="st22" x1="314.3" y1="394.1" x2="315.2" y2="396"/>
						<line id="XMLID_13402_" class="st22" x1="314.5" y1="394" x2="315.4" y2="395.9"/>
						<circle id="XMLID_13401_" class="st19" cx="314" cy="395.5" r="0.4"/>
						<circle id="XMLID_13400_" class="st19" cx="315.8" cy="394.6" r="0.4"/>
						<line id="XMLID_13399_" class="st22" x1="314" y1="395.7" x2="315.8" y2="394.8"/>
						<line id="XMLID_13398_" class="st22" x1="313.9" y1="395.4" x2="315.7" y2="394.5"/>
					</g>
					<g id="XMLID_13384_">
						<path class="st16" d="M320.2,408.2l-4.2,0.3l-4,1.2c-0.3,0.1-0.2,0.5,0.1,0.4l4.2-0.3l4-1.2
							C320.5,408.6,320.5,408.2,320.2,408.2z"/>
						<circle id="XMLID_13396_" class="st5" cx="317.5" cy="409.1" r="3.1"/>
						<circle id="XMLID_13395_" class="st15" cx="317.6" cy="409" r="3"/>
						<circle id="XMLID_13394_" class="st21" cx="317.5" cy="408.6" r="3"/>
						<circle id="XMLID_13393_" class="st18" cx="317.5" cy="408.6" r="2.6"/>
						<circle id="XMLID_13392_" class="st19" cx="317" cy="407.9" r="0.4"/>
						<circle id="XMLID_13391_" class="st19" cx="317.9" cy="409.8" r="0.4"/>
						<line id="XMLID_13390_" class="st22" x1="316.9" y1="407.9" x2="317.8" y2="409.8"/>
						<line id="XMLID_13389_" class="st22" x1="317.1" y1="407.8" x2="318" y2="409.7"/>
						<circle id="XMLID_13388_" class="st19" cx="316.5" cy="409.3" r="0.4"/>
						<circle id="XMLID_13387_" class="st19" cx="318.4" cy="408.4" r="0.4"/>
						<line id="XMLID_13386_" class="st22" x1="316.5" y1="409.4" x2="318.4" y2="408.5"/>
						<line id="XMLID_13385_" class="st22" x1="316.4" y1="409.2" x2="318.3" y2="408.3"/>
					</g>
					<g id="XMLID_13371_">
						<path class="st16" d="M321.5,415.1l-4.2,0.3l-4,1.2c-0.3,0.1-0.2,0.5,0.1,0.4l4.2-0.3l4-1.2
							C321.8,415.4,321.7,415.1,321.5,415.1z"/>
						<circle id="XMLID_13383_" class="st5" cx="318.8" cy="416" r="3.1"/>
						<circle id="XMLID_13382_" class="st15" cx="318.8" cy="415.9" r="3"/>
						<circle id="XMLID_13381_" class="st21" cx="318.8" cy="415.5" r="3"/>
						<circle id="XMLID_13380_" class="st18" cx="318.8" cy="415.5" r="2.6"/>
						<circle id="XMLID_13379_" class="st19" cx="318.3" cy="414.8" r="0.4"/>
						<circle id="XMLID_13378_" class="st19" cx="319.2" cy="416.7" r="0.4"/>
						<line id="XMLID_13377_" class="st22" x1="318.1" y1="414.8" x2="319" y2="416.6"/>
						<line id="XMLID_13376_" class="st22" x1="318.4" y1="414.7" x2="319.3" y2="416.5"/>
						<circle id="XMLID_13375_" class="st19" cx="317.8" cy="416.2" r="0.4"/>
						<circle id="XMLID_13374_" class="st19" cx="319.7" cy="415.3" r="0.4"/>
						<line id="XMLID_13373_" class="st22" x1="317.8" y1="416.3" x2="319.7" y2="415.4"/>
						<line id="XMLID_13372_" class="st22" x1="317.7" y1="416.1" x2="319.6" y2="415.2"/>
					</g>
				</g>
				<g>
					<g id="XMLID_13358_">
						<path class="st16" d="M-18.1,401.3l4.2,0.3l4,1.2c0.3,0.1,0.2,0.5-0.1,0.4l-4.2-0.3l-4-1.2C-18.4,401.7-18.4,401.3-18.1,401.3
							z"/>
						<circle id="XMLID_13370_" class="st5" cx="-15.4" cy="402.2" r="3.1"/>
						<circle id="XMLID_13369_" class="st15" cx="-15.5" cy="402.1" r="3"/>
						<circle id="XMLID_13368_" class="st21" cx="-15.4" cy="401.7" r="3"/>
						<circle id="XMLID_13367_" class="st18" cx="-15.4" cy="401.7" r="2.6"/>
						<circle id="XMLID_13366_" class="st19" cx="-14.9" cy="401" r="0.4"/>
						<circle id="XMLID_13365_" class="st19" cx="-15.8" cy="402.9" r="0.4"/>
						<line id="XMLID_13364_" class="st22" x1="-14.8" y1="401" x2="-15.7" y2="402.9"/>
						<line id="XMLID_13363_" class="st22" x1="-15" y1="400.9" x2="-15.9" y2="402.8"/>
						<circle id="XMLID_13362_" class="st19" cx="-14.4" cy="402.4" r="0.4"/>
						<circle id="XMLID_13361_" class="st19" cx="-16.3" cy="401.5" r="0.4"/>
						<line id="XMLID_13360_" class="st22" x1="-14.4" y1="402.6" x2="-16.3" y2="401.7"/>
						<line id="XMLID_13359_" class="st22" x1="-14.3" y1="402.3" x2="-16.2" y2="401.4"/>
					</g>
					<g id="XMLID_13345_">
						<path class="st16" d="M-16.8,394.4l4.2,0.3l4,1.2c0.3,0.1,0.2,0.5-0.1,0.4l-4.2-0.3l-4-1.2C-17.2,394.8-17.1,394.4-16.8,394.4
							z"/>
						<circle id="XMLID_13357_" class="st5" cx="-14.1" cy="395.4" r="3.1"/>
						<circle id="XMLID_13356_" class="st15" cx="-14.2" cy="395.2" r="3"/>
						<circle id="XMLID_13355_" class="st21" cx="-14.1" cy="394.8" r="3"/>
						<circle id="XMLID_13354_" class="st18" cx="-14.1" cy="394.8" r="2.6"/>
						<circle id="XMLID_13353_" class="st19" cx="-13.6" cy="394.1" r="0.4"/>
						<circle id="XMLID_13352_" class="st19" cx="-14.5" cy="396" r="0.4"/>
						<line id="XMLID_13351_" class="st22" x1="-13.5" y1="394.1" x2="-14.4" y2="396"/>
						<line id="XMLID_13350_" class="st22" x1="-13.7" y1="394" x2="-14.6" y2="395.9"/>
						<circle id="XMLID_13349_" class="st19" cx="-13.2" cy="395.5" r="0.4"/>
						<circle id="XMLID_13348_" class="st19" cx="-15" cy="394.6" r="0.4"/>
						<line id="XMLID_13347_" class="st22" x1="-13.2" y1="395.7" x2="-15" y2="394.8"/>
						<line id="XMLID_13346_" class="st22" x1="-13.1" y1="395.4" x2="-14.9" y2="394.5"/>
					</g>
					<g id="XMLID_13332_">
						<path class="st16" d="M-19.4,408.2l4.2,0.3l4,1.2c0.3,0.1,0.2,0.5-0.1,0.4l-4.2-0.3l-4-1.2C-19.7,408.6-19.7,408.2-19.4,408.2
							z"/>
						<circle id="XMLID_13344_" class="st5" cx="-16.7" cy="409.1" r="3.1"/>
						<circle id="XMLID_13343_" class="st15" cx="-16.7" cy="409" r="3"/>
						<circle id="XMLID_13342_" class="st21" cx="-16.7" cy="408.6" r="3"/>
						<circle id="XMLID_13341_" class="st18" cx="-16.7" cy="408.6" r="2.6"/>
						<circle id="XMLID_13340_" class="st19" cx="-16.2" cy="407.9" r="0.4"/>
						<circle id="XMLID_13339_" class="st19" cx="-17.1" cy="409.8" r="0.4"/>
						<line id="XMLID_13338_" class="st22" x1="-16.1" y1="407.9" x2="-17" y2="409.8"/>
						<line id="XMLID_13337_" class="st22" x1="-16.3" y1="407.8" x2="-17.2" y2="409.7"/>
						<circle id="XMLID_13336_" class="st19" cx="-15.7" cy="409.3" r="0.4"/>
						<circle id="XMLID_13335_" class="st19" cx="-17.6" cy="408.4" r="0.4"/>
						<line id="XMLID_13334_" class="st22" x1="-15.7" y1="409.4" x2="-17.6" y2="408.5"/>
						<line id="XMLID_13333_" class="st22" x1="-15.6" y1="409.2" x2="-17.5" y2="408.3"/>
					</g>
					<g id="XMLID_13319_">
						<path class="st16" d="M-20.7,415.1l4.2,0.3l4,1.2c0.3,0.1,0.2,0.5-0.1,0.4l-4.2-0.3l-4-1.2C-21,415.4-20.9,415.1-20.7,415.1z"
							/>
						<circle id="XMLID_13331_" class="st5" cx="-18" cy="416" r="3.1"/>
						<circle id="XMLID_13330_" class="st15" cx="-18" cy="415.9" r="3"/>
						<circle id="XMLID_13329_" class="st21" cx="-18" cy="415.5" r="3"/>
						<circle id="XMLID_13328_" class="st18" cx="-18" cy="415.5" r="2.6"/>
						<circle id="XMLID_13327_" class="st19" cx="-17.5" cy="414.8" r="0.4"/>
						<circle id="XMLID_13326_" class="st19" cx="-18.4" cy="416.7" r="0.4"/>
						<line id="XMLID_13325_" class="st22" x1="-17.3" y1="414.8" x2="-18.2" y2="416.6"/>
						<line id="XMLID_13324_" class="st22" x1="-17.6" y1="414.7" x2="-18.5" y2="416.5"/>
						<circle id="XMLID_13323_" class="st19" cx="-17" cy="416.2" r="0.4"/>
						<circle id="XMLID_13322_" class="st19" cx="-18.9" cy="415.3" r="0.4"/>
						<line id="XMLID_13321_" class="st22" x1="-17" y1="416.3" x2="-18.9" y2="415.4"/>
						<line id="XMLID_13320_" class="st22" x1="-16.9" y1="416.1" x2="-18.8" y2="415.2"/>
					</g>
				</g>
			</g>
		</g>
	</g>
	<g id="XMLID_1_" class="st0">
		<defs>
			<rect id="XMLID_4932_" x="-13.5" width="327.1" height="300"/>
		</defs>
		<clipPath id="XMLID_4_">
			<use xlink:href="#XMLID_4932_"  style="overflow:visible;"/>
		</clipPath>
	</g>
	<g class="st0">
		<path class="st23" d="M150.1,4.6c38.7,0,75.1,15.1,102.5,42.5c27.4,27.4,42.5,63.8,42.5,102.5s-15.1,75.1-42.5,102.5
			c-27.4,27.4-63.8,42.5-102.5,42.5S75,279.5,47.6,252.1C20.2,224.7,5.1,188.3,5.1,149.6S20.2,74.5,47.6,47.1
			C75,19.7,111.4,4.6,150.1,4.6 M150.1-0.4c-82.8,0-150,67.2-150,150s67.2,150,150,150s150-67.2,150-150S232.9-0.4,150.1-0.4
			L150.1-0.4z"/>
	</g>
</g>
</svg>
