<?xml version="1.0" encoding="utf-8"?>
<!-- Generator: Adobe Illustrator 19.0.0, SVG Export Plug-In . SVG Version: 6.00 Build 0)  -->
<svg version="1.1" id="Layer_1" xmlns="http://www.w3.org/2000/svg" xmlns:xlink="http://www.w3.org/1999/xlink" x="0px" y="0px"
	 viewBox="0 0 300 300" style="enable-background:new 0 0 300 300;" xml:space="preserve">
<style type="text/css">
	.st0{clip-path:url(#SVGID_2_);}
	.st1{clip-path:url(#XMLID_3_);}
	.st2{fill:#F1F1F2;stroke:#404041;stroke-miterlimit:10;}
	.st3{fill:#FFFFFF;stroke:#404041;stroke-miterlimit:10;}
	.st4{fill:#929497;}
	.st5{fill:#F1F1F2;}
	.st6{fill:#C5C7C9;}
	.st7{fill:none;stroke:#404041;stroke-miterlimit:10;}
	.st8{fill:none;stroke:#808184;stroke-width:0.5;stroke-miterlimit:10;}
	.st9{fill:none;stroke:#808184;stroke-width:0.5;stroke-miterlimit:10;stroke-dasharray:0.9993,1.9985;}
	.st10{fill:none;stroke:#808184;stroke-width:0.5;stroke-miterlimit:10;stroke-dasharray:1,2;}
	.st11{fill:#404041;stroke:#D0D2D3;stroke-width:0.5;stroke-miterlimit:10;}
	.st12{fill:none;stroke:#808184;stroke-width:0.5;stroke-miterlimit:10;stroke-dasharray:0.9943,1.9886;}
	.st13{fill:none;stroke:#808184;stroke-width:0.5;stroke-miterlimit:10;stroke-dasharray:1.0166,2.0331;}
	.st14{fill:none;stroke:#808184;stroke-width:0.5;stroke-miterlimit:10;stroke-dasharray:1.0177,2.0353;}
	.st15{fill:#DBDCDD;}
	.st16{fill:#FFFFFF;stroke:#6D6E70;stroke-miterlimit:10;}
	.st17{fill:#FFFFFF;stroke:#929497;stroke-width:0.25;stroke-miterlimit:10;}
	.st18{fill:#404041;}
	.st19{fill:none;stroke:#6D6E70;stroke-width:0.5;stroke-miterlimit:10;}
	.st20{fill:#FFFFFF;stroke:#6D6E70;stroke-width:0.5;stroke-miterlimit:10;}
	.st21{fill:none;stroke:#6D6E70;stroke-width:0.25;stroke-miterlimit:10;}
	.st22{fill:#9AA0BB;}
</style>
<g>
	<defs>
		<circle id="SVGID_1_" cx="150.1" cy="149.6" r="150"/>
	</defs>
	<use xlink:href="#SVGID_1_"  style="overflow:visible;fill:#DDDDDD;"/>
	<clipPath id="SVGID_2_">
		<use xlink:href="#SVGID_1_"  style="overflow:visible;"/>
	</clipPath>
	<g id="XMLID_254_" class="st0">
		<defs>
			<rect id="XMLID_4044_" x="-13.5" width="327.1" height="300"/>
		</defs>
		<clipPath id="XMLID_3_">
			<use xlink:href="#XMLID_4044_"  style="overflow:visible;"/>
		</clipPath>
		<g class="st1">
			<g>
				<g>
					<g>
						<polygon class="st2" points="174.4,35.6 184.3,46.7 149.9,226.5 115.5,46.7 125,35.6 						"/>
						<path class="st3" d="M174.8,30.3c0,0,0.1-0.6-24.9-0.6c-0.1,0-0.2,0-0.3,0c-0.1,0-0.2,0-0.3,0c-25,0-24.9,0.6-24.9,0.6
							l-3,10.9c0,0,4.1,1,13.9,1.4c3.8,0.2,8.8,0.3,14.4,0.3c5.7,0,10.1-0.1,13.9-0.3c9.9-0.4,13.9-1.4,13.9-1.4L174.8,30.3z"/>
						<g>
							<path class="st4" d="M129.1,30c0,0-2.6,2.9-2.4,6.6c0.2,3.7,0.4,4.9,0.4,4.9h-5.5l3-11.1L129.1,30z"/>
							<path class="st5" d="M130.1,30c-0.7,0-1.3,0-1.8,0.1c-1.5,2.4-1.5,9.3-1.4,11.8c0.8,0.1,1.7,0.1,2.7,0.2
								c-0.2-0.7-0.4-2.3-0.4-5.1C129.2,33.6,129.8,31,130.1,30z"/>
							<path class="st6" d="M128.5,30c-0.4,0-0.7,0-1,0c-0.6,0.5-1.2,1.4-1.4,2.9c-0.3,3.1-0.4,7-0.5,8.8c0.8,0.1,1.7,0.2,2.7,0.2
								C127.9,39.3,127.1,32.3,128.5,30z"/>
						</g>
						<g>
							<path class="st4" d="M170.1,30c0,0,2.6,2.9,2.4,6.6c-0.2,3.7-0.4,4.9-0.4,4.9h5.7l-3.3-11.1L170.1,30z"/>
							<path class="st5" d="M169,30c0.7,0,1.3,0,1.8,0.1c1.5,2.4,1.5,9.3,1.4,11.8c-0.8,0.1-1.7,0.1-2.7,0.2
								c0.2-0.7,0.4-2.3,0.4-5.1C169.9,33.6,169.3,31,169,30z"/>
							<path class="st6" d="M170.6,30c0.4,0,0.7,0,1,0c0.6,0.5,1.2,1.4,1.4,2.9c0.3,3.1,0.4,7,0.5,8.8c-0.8,0.1-1.7,0.2-2.7,0.2
								C171.2,39.3,172.1,32.3,170.6,30z"/>
						</g>
						<path class="st7" d="M174.8,30.3c0,0,0.1-0.6-24.9-0.6c-0.1,0-0.2,0-0.3,0c-0.1,0-0.2,0-0.3,0c-25,0-24.9,0.6-24.9,0.6
							l-3,10.9c0,0,4.1,1,13.9,1.4c3.8,0.2,8.8,0.3,14.4,0.3c5.7,0,10.1-0.1,13.9-0.3c9.9-0.4,13.9-1.4,13.9-1.4L174.8,30.3z"/>
						<g>
							<polygon class="st4" points="126.3,64.2 149.9,182.2 173,64.2 157.9,195.5 149.1,233.1 142.2,194.2 							"/>
							<polygon class="st6" points="149.7,196.6 173.6,59.3 149.9,167.5 125.8,59.3 							"/>
						</g>
						<g>
							<g>
								<line class="st8" x1="149.9" y1="44.3" x2="149.9" y2="44.8"/>
								<line class="st9" x1="149.9" y1="46.8" x2="149.9" y2="198.7"/>
								<line class="st8" x1="149.9" y1="199.7" x2="149.9" y2="200.2"/>
							</g>
						</g>
						<path class="st4" d="M137,47l0.9,0.9c0,0,6.5-0.5,12-0.5c5.5,0,12.4,0.5,12.4,0.5l0.6-0.9H137z"/>
						<path class="st6" d="M137.7,47.7l0.7,0.7c0,0,6.1-0.5,11.5-0.5c5.4,0,12.2,0.5,12.2,0.5l0.4-0.7l-12.5-0.2L137.7,47.7z"/>
						<path class="st3" d="M149.9,42.8c-5.7,0-10.4,0-14.3-0.2l1.6,4.4h12.6h0.1h12.6l1.6-4.4C160.4,42.8,155.6,42.8,149.9,42.8z"/>
					</g>
					<path class="st2" d="M162.6,438c0-0.7,0-25.3,0-25.3h-25.4V438H162.6z"/>
					<g>
						<polygon class="st4" points="150.1,422.1 140.3,444.1 149.9,409 159.9,444.5 						"/>
						<polygon class="st6" points="149.9,426.5 140.3,444.1 149.9,419.1 159.9,444.5 						"/>
					</g>
					<path class="st3" d="M163.5,289.4c-2.3-52.5-4.9-38.4-4.9-38.4l-8-26.7c-5.4-27.1-12.1-79.3-13.4-88.5
						c-2.2-14.9-16.3-62.4-16.3-62.4c-4.5-28.7,4.2-43,4.2-43s-21.6,12.3-26,15.2c-2.3,1.5-22.2,10.3-39.2,18.1
						c-20.6,9.5-23.5,14.6-23.5,14.6c15.9,9.8,19.2,45.2,19.5,86.6c0.3,41.5-11.2,112.2-12.6,149C41.8,352.2,34,446,34,446
						s68.2,17.4,86.9,12.3c18.6-5.1,20.1-15.6,23.8-25.2l5.5-19.2C150.1,413.8,165.8,341.9,163.5,289.4z"/>
					<g>
						<path class="st5" d="M56.2,239.6c6-41.1,3.4-74.1-0.7-99.9c0.8,5.1,1.2,14.1,1.3,15.4c0.7,8.7,1.4,17.7,1.2,26.4
							c-0.2,18.2-1.5,39.1-4.8,62c-2.8,19.6-4.9,28.3-6.4,31.7c-0.3,2.8-0.6,5.5-0.8,8.2C49.7,283.2,52.3,266.1,56.2,239.6z"/>
						<path class="st6" d="M52.5,222.9c-1.8,17.7-3.9,35.8-5.7,52.3c1.5-3.4,3.6-12.1,6.4-31.7c3.3-22.9,4.9-41.7,4.9-72.4l0-0.1
							c0.3-11.1-2.7-31.8-2.7-30.9C57.1,164.8,54.2,208.2,52.5,222.9z"/>
					</g>
					<path class="st3" d="M55.9,164.9c-0.3-38.9-3.2-72.4-16.6-84.5l-2.8-1.6c0,0-4.3-1.4-8.8,19.9C23.1,120-25,422.5-25,422.5
						s8,7,24.6,7.6s25-3.5,25-3.5l26.1-188.7C53.5,211.5,56.1,184.9,55.9,164.9z"/>
					<g>
						<path class="st5" d="M153.8,207.9c0,0-18.8,44.7-18.8,108.2s21,109.4,21,109.4l-2.2-77.1l3.1-135L153.8,207.9z"/>
						<path class="st6" d="M156.4,207.9c0,0-18.8,44.7-18.8,108.2s21,109.4,21,109.4l-2.2-77.1l3.1-135L156.4,207.9z"/>
					</g>
					<g>
						<path class="st3" d="M244.1,164.9c0.3-41.5,3.6-76.8,19.5-86.6c0,0-2.9-5.1-23.5-14.6c-19.4-9-35.7-16-42.1-19.7
							c-0.4-0.2-0.8-0.4-1.1-0.6c-5.5-3.4-22.1-13.1-22.1-13.1s7.9,14.3,3.5,43c0,0-14.2,47.5-16.4,62.4
							c-2.2,14.9-9.7,93.9-11.7,105.7c-0.5,3.1-3.6,7.1-4,9.7c-0.9,5.7-1.6,10.5-1.9,12.4c-0.5,6-3.3,14.3-3.8,26.5
							c-2.3,52.5,9.3,123.8,9.3,123.8l5.7,19.4c3.7,9.7,4.9,19.9,23.6,25s84.4-12.3,84.4-12.3s-5.4-93.8-6.9-132
							C255.3,277.1,243.8,206.4,244.1,164.9z"/>
					</g>
					<g>
						<path class="st5" d="M243.8,239.6c-6-41.1-3.4-74.1,0.7-99.9c-0.8,5.1-1.2,14.1-1.3,15.4c-0.7,8.7-1.4,17.7-1.2,26.4
							c0.2,18.2,1.5,39.1,4.8,62c2.8,19.6,4.9,28.3,6.4,31.7c0.3,2.8,0.6,5.5,0.8,8.2C250.2,283.2,247.6,266.1,243.8,239.6z"/>
						<path class="st6" d="M247.5,222.9c1.8,17.7,3.9,35.8,5.7,52.3c-1.5-3.4-3.6-12.1-6.4-31.7c-3.3-22.9-4.9-41.7-4.9-72.4l0-0.1
							c-0.3-11.1,2.7-31.8,2.7-30.9C242.9,164.8,245.7,208.2,247.5,222.9z"/>
					</g>
					<path class="st3" d="M272.4,98.2c-4.5-21.3-8.8-19.9-8.8-19.9l0,0c-15.9,9.8-19.2,45.2-19.5,86.6c-0.1,19.3,2.3,45,5,70.6
						l26.3,190.6c0,0,8.4,4.1,25,3.5C317,429,325,422,325,422S276.9,119.5,272.4,98.2z"/>
				</g>
			</g>
			<g>
				<polygon class="st5" points="233.2,169.1 233.2,166.5 173.8,168.2 173.8,170.8 				"/>
				<polygon class="st6" points="233.2,170.1 233.2,167.5 173.8,169.2 173.8,171.8 				"/>
				<path class="st3" d="M233,168.6v13.7c0,0.5-0.4,0.9-0.9,0.9l-56.8,1.2c-0.5,0-0.9-0.4-0.9-0.9v-13.2L233,168.6z"/>
				<line class="st10" x1="174.5" y1="170.9" x2="233" y2="169.2"/>
			</g>
			<g>
				<g>
					<g>
						<path class="st5" d="M82.1,89.3c0,0-3.4,2.5-2,6.2c1.4,3.7,49.1,124.8,57.5,141.3c2.9,5.7,6.3,13.1,9.7,20.3
							c2.6,5.6,4.4-6.8,4.4-6.8l-2.7-11.7L92.1,96.5L82.1,89.3z"/>
						<path class="st6" d="M82.9,89.3c0,0-3.5,1-2.1,4.7c1.4,3.7,49.3,126.3,57.6,142.8c2.7,5.3,5.9,12.1,9,18.9
							c1.6,3.6,4.3-9,4.3-9l-1.8-8L92.9,96.5L82.9,89.3z"/>
						<polygon class="st5" points="103.1,48.4 92.1,88.6 92.1,90.1 94.3,94.5 112.2,101.8 116.6,101.9 103.9,57.6 						"/>
						<polygon class="st6" points="103.1,48.4 93.1,88.8 93.1,90.3 96.6,99.2 111.8,106.8 119.5,101.9 106.8,57.6 						"/>
					</g>
					<path class="st3" d="M126.4,30.4c0,0-18.4,6.7-22,15.2s-10.3,44-10.3,44l18.7,8.5c0,0-28-11-30.8-8.8
						c-1.7,1.4-0.3,5.5,4.1,14.6c3.2,6.6,34.7,94.6,48.7,122.9c5.3,10.7,9.6,20.3,13.1,28.4c1.3,3.1,7.2-6.3,6.9-7.7
						c-0.6-3.3-1.3-3.3-2.1-7.9c-5.5-32.9-14.2-115.7-19-141.8c-5.5-29.8-10.3-44.8-10.3-53.7S126.4,30.4,126.4,30.4z"/>
					<line class="st10" x1="129.1" y1="74.6" x2="112.8" y2="98.1"/>
				</g>
				<g>
					<polygon class="st5" points="149.7,220.3 143.5,244.2 145.4,249 150.2,228.5 					"/>
					<polygon class="st6" points="150.5,222.5 144.3,246.4 146.2,251.2 151,230.7 					"/>
				</g>
				<g>
					<path class="st5" d="M218.1,89.3c0,0,3.4,2.5,2,6.2c-1.4,3.7-49.1,124.8-57.5,141.3c-8.3,16.5-21.4,46.6-21.4,46.6l10-44.8
						L208,96.5L218.1,89.3z"/>
					<path class="st6" d="M217.3,89.3c0,0,3.5,1,2.1,4.7c-1.4,3.7-49.3,126.3-57.6,142.8s-20.9,46-20.9,46l9.5-44.2l56.9-142.1
						L217.3,89.3z"/>
					<polygon class="st5" points="197.1,48.4 208,88.6 208,90.1 205.8,94.5 188,101.8 183.5,101.9 196.3,57.6 					"/>
					<polygon class="st6" points="197.1,48.4 207,88.8 207,90.3 203.5,99.2 188.4,106.8 180.6,101.9 193.4,57.6 					"/>
				</g>
				<path class="st3" d="M173.7,30.4c0,0,18.4,6.7,22,15.2s10.3,44,10.3,44l-18.7,8.5c0,0,28-11,30.8-8.8c1.7,1.4,0.3,5.5-4.1,14.6
					c-3.2,6.6-34.7,94.6-48.7,122.9c-14,28.3-21.1,48.2-24.4,56.1c0,0-0.7-3.9,4.4-31.4s15.6-124,21.1-153.8
					c5.5-29.8,10.3-44.8,10.3-53.7S173.7,30.4,173.7,30.4z"/>
				<line class="st10" x1="171" y1="74.6" x2="187.3" y2="98.1"/>
				<path class="st11" d="M206,97.7l-2.8,1c-0.8,0.2-1.6,0.5-2.3,0.9l-2.6,1.2c-0.2,0.1-0.1,0.5,0.2,0.4l2.7-0.9
					c0.8-0.2,1.5-0.5,2.3-0.9l2.8-1.3C206.3,98,206.2,97.7,206,97.7z"/>
			</g>
			<g>
				<g>
					<g>
						<g>
							<line class="st8" x1="203.7" y1="206.7" x2="203.7" y2="207.2"/>
							<line class="st12" x1="203.7" y1="209.2" x2="203.7" y2="312.6"/>
							<line class="st8" x1="203.7" y1="313.6" x2="203.7" y2="314.1"/>
						</g>
					</g>
					<g>
						<path class="st5" d="M195.4,317.8l-1.3,17.7c-0.6,10.1,4.2,13.2,9.2,13.2h54.7l-0.2-4.6L195.4,317.8z"/>
						<path class="st6" d="M195.4,317.2l-0.6,14.5c-0.6,10.1,2.8,15.7,8.6,15.7h54.6l-0.2-4.6L195.4,317.2z"/>
						<path class="st3" d="M195.4,321.6v-5.1h61.5l1.5,29.8h-53.7c-7.1,0-9.2-8.4-9.2-15.5v0V321.6z"/>
						<g>
							<g>
								<line class="st8" x1="195.9" y1="319.6" x2="196.4" y2="319.6"/>
								<line class="st13" x1="198.5" y1="319.6" x2="255.4" y2="319.6"/>
								<line class="st8" x1="256.4" y1="319.6" x2="256.9" y2="319.6"/>
							</g>
						</g>
					</g>
				</g>
				<g>
					<g>
						<g>
							<line class="st8" x1="96.7" y1="206.7" x2="96.7" y2="207.2"/>
							<line class="st12" x1="96.7" y1="209.2" x2="96.7" y2="312.6"/>
							<line class="st8" x1="96.7" y1="313.6" x2="96.7" y2="314.1"/>
						</g>
					</g>
					<g>
						<path class="st5" d="M105,317.8l1.3,17.7c0.6,10.1-4.2,13.2-9.2,13.2H42.4l0.2-4.6L105,317.8z"/>
						<path class="st6" d="M105,317.2l0.6,14.5c0.6,10.1-2.8,15.7-8.6,15.7H42.4l0.2-4.6L105,317.2z"/>
						<path class="st3" d="M105,321.6v-5.1H43.5L42,346.4h53.7c7.1,0,9.2-8.4,9.2-15.5v0V321.6z"/>
						<g>
							<g>
								<line class="st8" x1="104.6" y1="319.6" x2="104.1" y2="319.6"/>
								<line class="st14" x1="102" y1="319.6" x2="45" y2="319.6"/>
								<line class="st8" x1="44" y1="319.6" x2="43.5" y2="319.6"/>
							</g>
						</g>
					</g>
				</g>
			</g>
			<g>
				<g id="XMLID_9545_">
					<circle id="XMLID_9560_" class="st5" cx="152.3" cy="288.5" r="6"/>
					<circle id="XMLID_9559_" class="st15" cx="152.4" cy="288.3" r="5.8"/>
					<polygon id="XMLID_9558_" class="st11" points="159.8,288.1 152.5,286.7 144.3,288.1 152.5,289.5 					"/>
					<circle id="XMLID_9557_" class="st16" cx="152.3" cy="287.5" r="5.8"/>
					<circle id="XMLID_9556_" class="st17" cx="152.3" cy="287.5" r="5"/>
					<circle id="XMLID_9555_" class="st18" cx="151.3" cy="286.2" r="0.7"/>
					<circle id="XMLID_9554_" class="st18" cx="153.1" cy="289.8" r="0.7"/>
					<line id="XMLID_9553_" class="st19" x1="151" y1="286.2" x2="152.8" y2="289.8"/>
					<line id="XMLID_9552_" class="st19" x1="151.5" y1="286" x2="153.2" y2="289.6"/>
					<line id="XMLID_9551_" class="st19" x1="151" y1="286.2" x2="152.8" y2="289.8"/>
					<line id="XMLID_9550_" class="st19" x1="151.5" y1="286" x2="153.2" y2="289.6"/>
					<circle id="XMLID_9549_" class="st18" cx="150.4" cy="288.9" r="0.7"/>
					<circle id="XMLID_9548_" class="st18" cx="154" cy="287.1" r="0.7"/>
					<line id="XMLID_9547_" class="st19" x1="150.4" y1="289.1" x2="154" y2="287.4"/>
					<line id="XMLID_9546_" class="st19" x1="150.2" y1="288.7" x2="153.8" y2="286.9"/>
				</g>
				<g id="XMLID_9529_">
					<circle id="XMLID_9544_" class="st5" cx="152.3" cy="354.1" r="6"/>
					<circle id="XMLID_9543_" class="st15" cx="152.4" cy="353.9" r="5.8"/>
					<polygon id="XMLID_9542_" class="st11" points="159.8,353.7 152.5,352.3 144.3,353.7 152.5,355.1 					"/>
					<circle id="XMLID_9541_" class="st16" cx="152.3" cy="353.1" r="5.8"/>
					<circle id="XMLID_9540_" class="st17" cx="152.3" cy="353.1" r="5"/>
					<circle id="XMLID_9539_" class="st18" cx="151.3" cy="351.8" r="0.7"/>
					<circle id="XMLID_9538_" class="st18" cx="153.1" cy="355.4" r="0.7"/>
					<line id="XMLID_9537_" class="st19" x1="151" y1="351.8" x2="152.8" y2="355.4"/>
					<line id="XMLID_9536_" class="st19" x1="151.5" y1="351.6" x2="153.2" y2="355.2"/>
					<line id="XMLID_9535_" class="st19" x1="151" y1="351.8" x2="152.8" y2="355.4"/>
					<line id="XMLID_9534_" class="st19" x1="151.5" y1="351.6" x2="153.2" y2="355.2"/>
					<circle id="XMLID_9533_" class="st18" cx="150.4" cy="354.5" r="0.7"/>
					<circle id="XMLID_9532_" class="st18" cx="154" cy="352.7" r="0.7"/>
					<line id="XMLID_9531_" class="st19" x1="150.4" y1="354.7" x2="154" y2="353"/>
					<line id="XMLID_9530_" class="st19" x1="150.2" y1="354.3" x2="153.8" y2="352.5"/>
				</g>
			</g>
			<g>
				<g>
					<g id="XMLID_15416_">
						<path class="st11" d="M319,402.6l-4.2,0.3l-4,1.2c-0.3,0.1-0.2,0.5,0.1,0.4l4.2-0.3l4-1.2C319.4,403,319.3,402.6,319,402.6z"
							/>
						<circle id="XMLID_15428_" class="st5" cx="316.3" cy="403.6" r="3.1"/>
						<circle id="XMLID_15427_" class="st15" cx="316.4" cy="403.4" r="3"/>
						<circle id="XMLID_15426_" class="st20" cx="316.3" cy="403" r="3"/>
						<circle id="XMLID_15425_" class="st17" cx="316.3" cy="403" r="2.6"/>
						<circle id="XMLID_15424_" class="st18" cx="315.8" cy="402.3" r="0.4"/>
						<circle id="XMLID_15423_" class="st18" cx="316.7" cy="404.2" r="0.4"/>
						<line id="XMLID_15422_" class="st21" x1="315.7" y1="402.3" x2="316.6" y2="404.2"/>
						<line id="XMLID_15421_" class="st21" x1="315.9" y1="402.2" x2="316.8" y2="404.1"/>
						<circle id="XMLID_15420_" class="st18" cx="315.4" cy="403.7" r="0.4"/>
						<circle id="XMLID_15419_" class="st18" cx="317.2" cy="402.8" r="0.4"/>
						<line id="XMLID_15418_" class="st21" x1="315.4" y1="403.9" x2="317.2" y2="403"/>
						<line id="XMLID_15417_" class="st21" x1="315.3" y1="403.6" x2="317.1" y2="402.7"/>
					</g>
					<g id="XMLID_15403_">
						<path class="st11" d="M317.7,395.7l-4.2,0.3l-4,1.2c-0.3,0.1-0.2,0.5,0.1,0.4l4.2-0.3l4-1.2
							C318.1,396.1,318,395.7,317.7,395.7z"/>
						<circle id="XMLID_15415_" class="st5" cx="315" cy="396.7" r="3.1"/>
						<circle id="XMLID_15414_" class="st15" cx="315.1" cy="396.6" r="3"/>
						<circle id="XMLID_15413_" class="st20" cx="315" cy="396.1" r="3"/>
						<circle id="XMLID_15412_" class="st17" cx="315" cy="396.1" r="2.6"/>
						<circle id="XMLID_15411_" class="st18" cx="314.6" cy="395.5" r="0.4"/>
						<circle id="XMLID_15410_" class="st18" cx="315.5" cy="397.3" r="0.4"/>
						<line id="XMLID_15409_" class="st21" x1="314.4" y1="395.5" x2="315.3" y2="397.3"/>
						<line id="XMLID_15408_" class="st21" x1="314.7" y1="395.4" x2="315.6" y2="397.2"/>
						<circle id="XMLID_15407_" class="st18" cx="314.1" cy="396.8" r="0.4"/>
						<circle id="XMLID_15406_" class="st18" cx="315.9" cy="395.9" r="0.4"/>
						<line id="XMLID_15405_" class="st21" x1="314.1" y1="397" x2="315.9" y2="396.1"/>
						<line id="XMLID_15404_" class="st21" x1="314" y1="396.7" x2="315.8" y2="395.8"/>
					</g>
					<g id="XMLID_15208_">
						<path class="st11" d="M320.3,409.5l-4.2,0.3l-4,1.2c-0.3,0.1-0.2,0.5,0.1,0.4l4.2-0.3l4-1.2
							C320.6,409.9,320.6,409.5,320.3,409.5z"/>
						<circle id="XMLID_15402_" class="st5" cx="317.6" cy="410.4" r="3.1"/>
						<circle id="XMLID_15401_" class="st15" cx="317.7" cy="410.3" r="3"/>
						<circle id="XMLID_15400_" class="st20" cx="317.6" cy="409.9" r="3"/>
						<circle id="XMLID_15399_" class="st17" cx="317.6" cy="409.9" r="2.6"/>
						<circle id="XMLID_15216_" class="st18" cx="317.1" cy="409.2" r="0.4"/>
						<circle id="XMLID_15215_" class="st18" cx="318" cy="411.1" r="0.4"/>
						<line id="XMLID_15214_" class="st21" x1="317" y1="409.2" x2="317.9" y2="411.1"/>
						<line id="XMLID_15213_" class="st21" x1="317.2" y1="409.1" x2="318.1" y2="411"/>
						<circle id="XMLID_15212_" class="st18" cx="316.6" cy="410.6" r="0.4"/>
						<circle id="XMLID_15211_" class="st18" cx="318.5" cy="409.7" r="0.4"/>
						<line id="XMLID_15210_" class="st21" x1="316.6" y1="410.8" x2="318.5" y2="409.9"/>
						<line id="XMLID_15209_" class="st21" x1="316.5" y1="410.5" x2="318.4" y2="409.6"/>
					</g>
					<g id="XMLID_15195_">
						<path class="st11" d="M321.6,416.4l-4.2,0.3l-4,1.2c-0.3,0.1-0.2,0.5,0.1,0.4l4.2-0.3l4-1.2
							C321.9,416.7,321.9,416.4,321.6,416.4z"/>
						<circle id="XMLID_15207_" class="st5" cx="318.9" cy="417.3" r="3.1"/>
						<circle id="XMLID_15206_" class="st15" cx="318.9" cy="417.2" r="3"/>
						<circle id="XMLID_15205_" class="st20" cx="318.9" cy="416.8" r="3"/>
						<circle id="XMLID_15204_" class="st17" cx="318.9" cy="416.8" r="2.6"/>
						<circle id="XMLID_15203_" class="st18" cx="318.4" cy="416.1" r="0.4"/>
						<circle id="XMLID_15202_" class="st18" cx="319.3" cy="418" r="0.4"/>
						<line id="XMLID_15201_" class="st21" x1="318.2" y1="416.1" x2="319.2" y2="418"/>
						<line id="XMLID_15200_" class="st21" x1="318.5" y1="416" x2="319.4" y2="417.9"/>
						<circle id="XMLID_15199_" class="st18" cx="317.9" cy="417.5" r="0.4"/>
						<circle id="XMLID_15198_" class="st18" cx="319.8" cy="416.6" r="0.4"/>
						<line id="XMLID_15197_" class="st21" x1="317.9" y1="417.6" x2="319.8" y2="416.7"/>
						<line id="XMLID_15196_" class="st21" x1="317.8" y1="417.4" x2="319.7" y2="416.5"/>
					</g>
				</g>
				<g>
					<g id="XMLID_15182_">
						<path class="st11" d="M-18,402.6l4.2,0.3l4,1.2c0.3,0.1,0.2,0.5-0.1,0.4l-4.2-0.3l-4-1.2C-18.3,403-18.3,402.6-18,402.6z"/>
						<circle id="XMLID_15194_" class="st5" cx="-15.3" cy="403.6" r="3.1"/>
						<circle id="XMLID_15193_" class="st15" cx="-15.4" cy="403.4" r="3"/>
						<circle id="XMLID_15192_" class="st20" cx="-15.3" cy="403" r="3"/>
						<circle id="XMLID_15191_" class="st17" cx="-15.3" cy="403" r="2.6"/>
						<circle id="XMLID_15190_" class="st18" cx="-14.8" cy="402.3" r="0.4"/>
						<circle id="XMLID_15189_" class="st18" cx="-15.7" cy="404.2" r="0.4"/>
						<line id="XMLID_15188_" class="st21" x1="-14.7" y1="402.3" x2="-15.6" y2="404.2"/>
						<line id="XMLID_15187_" class="st21" x1="-14.9" y1="402.2" x2="-15.8" y2="404.1"/>
						<circle id="XMLID_15186_" class="st18" cx="-14.3" cy="403.7" r="0.4"/>
						<circle id="XMLID_15185_" class="st18" cx="-16.2" cy="402.8" r="0.4"/>
						<line id="XMLID_15184_" class="st21" x1="-14.3" y1="403.9" x2="-16.2" y2="403"/>
						<line id="XMLID_15183_" class="st21" x1="-14.2" y1="403.6" x2="-16.1" y2="402.7"/>
					</g>
					<g id="XMLID_15169_">
						<path class="st11" d="M-16.7,395.7l4.2,0.3l4,1.2c0.3,0.1,0.2,0.5-0.1,0.4l-4.2-0.3l-4-1.2C-17.1,396.1-17,395.7-16.7,395.7z"
							/>
						<circle id="XMLID_15181_" class="st5" cx="-14" cy="396.7" r="3.1"/>
						<circle id="XMLID_15180_" class="st15" cx="-14.1" cy="396.6" r="3"/>
						<circle id="XMLID_15179_" class="st20" cx="-14" cy="396.1" r="3"/>
						<circle id="XMLID_15178_" class="st17" cx="-14" cy="396.1" r="2.6"/>
						<circle id="XMLID_15177_" class="st18" cx="-13.5" cy="395.5" r="0.4"/>
						<circle id="XMLID_15176_" class="st18" cx="-14.4" cy="397.3" r="0.4"/>
						<line id="XMLID_15175_" class="st21" x1="-13.4" y1="395.5" x2="-14.3" y2="397.3"/>
						<line id="XMLID_15174_" class="st21" x1="-13.6" y1="395.4" x2="-14.5" y2="397.2"/>
						<circle id="XMLID_15173_" class="st18" cx="-13.1" cy="396.8" r="0.4"/>
						<circle id="XMLID_15172_" class="st18" cx="-14.9" cy="395.9" r="0.4"/>
						<line id="XMLID_15171_" class="st21" x1="-13.1" y1="397" x2="-14.9" y2="396.1"/>
						<line id="XMLID_15170_" class="st21" x1="-13" y1="396.7" x2="-14.8" y2="395.8"/>
					</g>
					<g id="XMLID_15156_">
						<path class="st11" d="M-19.3,409.5l4.2,0.3l4,1.2c0.3,0.1,0.2,0.5-0.1,0.4l-4.2-0.3l-4-1.2C-19.6,409.9-19.5,409.5-19.3,409.5
							z"/>
						<circle id="XMLID_15168_" class="st5" cx="-16.6" cy="410.4" r="3.1"/>
						<circle id="XMLID_15167_" class="st15" cx="-16.6" cy="410.3" r="3"/>
						<circle id="XMLID_15166_" class="st20" cx="-16.6" cy="409.9" r="3"/>
						<circle id="XMLID_15165_" class="st17" cx="-16.6" cy="409.9" r="2.6"/>
						<circle id="XMLID_15164_" class="st18" cx="-16.1" cy="409.2" r="0.4"/>
						<circle id="XMLID_15163_" class="st18" cx="-17" cy="411.1" r="0.4"/>
						<line id="XMLID_15162_" class="st21" x1="-15.9" y1="409.2" x2="-16.8" y2="411.1"/>
						<line id="XMLID_15161_" class="st21" x1="-16.2" y1="409.1" x2="-17.1" y2="411"/>
						<circle id="XMLID_15160_" class="st18" cx="-15.6" cy="410.6" r="0.4"/>
						<circle id="XMLID_15159_" class="st18" cx="-17.5" cy="409.7" r="0.4"/>
						<line id="XMLID_15158_" class="st21" x1="-15.6" y1="410.8" x2="-17.5" y2="409.9"/>
						<line id="XMLID_15157_" class="st21" x1="-15.5" y1="410.5" x2="-17.4" y2="409.6"/>
					</g>
					<g id="XMLID_15143_">
						<path class="st11" d="M-20.6,416.4l4.2,0.3l4,1.2c0.3,0.1,0.2,0.5-0.1,0.4l-4.2-0.3l-4-1.2C-20.9,416.7-20.8,416.4-20.6,416.4
							z"/>
						<circle id="XMLID_15155_" class="st5" cx="-17.9" cy="417.3" r="3.1"/>
						<circle id="XMLID_15154_" class="st15" cx="-17.9" cy="417.2" r="3"/>
						<circle id="XMLID_15153_" class="st20" cx="-17.9" cy="416.8" r="3"/>
						<circle id="XMLID_15152_" class="st17" cx="-17.9" cy="416.8" r="2.6"/>
						<circle id="XMLID_15151_" class="st18" cx="-17.4" cy="416.1" r="0.4"/>
						<circle id="XMLID_15150_" class="st18" cx="-18.3" cy="418" r="0.4"/>
						<line id="XMLID_15149_" class="st21" x1="-17.2" y1="416.1" x2="-18.1" y2="418"/>
						<line id="XMLID_15148_" class="st21" x1="-17.5" y1="416" x2="-18.4" y2="417.9"/>
						<circle id="XMLID_15147_" class="st18" cx="-16.9" cy="417.5" r="0.4"/>
						<circle id="XMLID_15146_" class="st18" cx="-18.8" cy="416.6" r="0.4"/>
						<line id="XMLID_15145_" class="st21" x1="-16.9" y1="417.6" x2="-18.8" y2="416.7"/>
						<line id="XMLID_15144_" class="st21" x1="-16.8" y1="417.4" x2="-18.6" y2="416.5"/>
					</g>
				</g>
			</g>
		</g>
	</g>
	<g id="XMLID_1_" class="st0">
		<defs>
			<rect id="XMLID_4932_" x="-13.5" width="327.1" height="300"/>
		</defs>
		<clipPath id="XMLID_4_">
			<use xlink:href="#XMLID_4932_"  style="overflow:visible;"/>
		</clipPath>
	</g>
	<g class="st0">
		<path class="st22" d="M150.1,4.6c38.7,0,75.1,15.1,102.5,42.5c27.4,27.4,42.5,63.8,42.5,102.5s-15.1,75.1-42.5,102.5
			c-27.4,27.4-63.8,42.5-102.5,42.5S75,279.5,47.6,252.1C20.2,224.7,5.1,188.3,5.1,149.6S20.2,74.5,47.6,47.1
			C75,19.7,111.4,4.6,150.1,4.6 M150.1-0.4c-82.8,0-150,67.2-150,150s67.2,150,150,150s150-67.2,150-150S232.9-0.4,150.1-0.4
			L150.1-0.4z"/>
	</g>
</g>
</svg>
