<?xml version="1.0" encoding="utf-8"?>
<!-- Generator: Adobe Illustrator 19.0.0, SVG Export Plug-In . SVG Version: 6.00 Build 0)  -->
<svg version="1.1" id="Layer_1" xmlns="http://www.w3.org/2000/svg" xmlns:xlink="http://www.w3.org/1999/xlink" x="0px" y="0px"
	 viewBox="0 0 300 300" style="enable-background:new 0 0 300 300;" xml:space="preserve">
<style type="text/css">
	.st0{clip-path:url(#SVGID_2_);}
	.st1{clip-path:url(#XMLID_3_);}
	.st2{fill:#F1F1F2;stroke:#404041;stroke-miterlimit:10;}
	.st3{fill:#FFFFFF;stroke:#404041;stroke-miterlimit:10;}
	.st4{fill:#929497;}
	.st5{fill:#F1F1F2;}
	.st6{fill:#C5C7C9;}
	.st7{fill:none;stroke:#404041;stroke-miterlimit:10;}
	.st8{fill:none;stroke:#808184;stroke-width:0.5;stroke-miterlimit:10;}
	.st9{fill:none;stroke:#808184;stroke-width:0.5;stroke-miterlimit:10;stroke-dasharray:0.9993,1.9985;}
	.st10{fill:none;stroke:#808184;stroke-width:0.5;stroke-miterlimit:10;stroke-dasharray:1,2;}
	.st11{fill:#404041;stroke:#D0D2D3;stroke-width:0.5;stroke-miterlimit:10;}
	.st12{fill:none;stroke:#808184;stroke-width:0.5;stroke-miterlimit:10;stroke-dasharray:0.9943,1.9886;}
	.st13{fill:none;stroke:#808184;stroke-width:0.5;stroke-miterlimit:10;stroke-dasharray:1.0166,2.0331;}
	.st14{fill:none;stroke:#808184;stroke-width:0.5;stroke-miterlimit:10;stroke-dasharray:1.0177,2.0353;}
	.st15{fill:#DBDCDD;}
	.st16{fill:#FFFFFF;stroke:#6D6E70;stroke-miterlimit:10;}
	.st17{fill:#FFFFFF;stroke:#929497;stroke-width:0.25;stroke-miterlimit:10;}
	.st18{fill:#404041;}
	.st19{fill:none;stroke:#6D6E70;stroke-width:0.5;stroke-miterlimit:10;}
	.st20{fill:#FFFFFF;stroke:#6D6E70;stroke-width:0.5;stroke-miterlimit:10;}
	.st21{fill:none;stroke:#6D6E70;stroke-width:0.25;stroke-miterlimit:10;}
	.st22{fill:#9AA0BB;}
</style>
<g>
	<defs>
		<circle id="SVGID_1_" cx="150.1" cy="149.6" r="150"/>
	</defs>
	<use xlink:href="#SVGID_1_"  style="overflow:visible;fill:#DDDDDD;"/>
	<clipPath id="SVGID_2_">
		<use xlink:href="#SVGID_1_"  style="overflow:visible;"/>
	</clipPath>
	<g id="XMLID_254_" class="st0">
		<defs>
			<rect id="XMLID_4044_" x="-13.5" width="327.1" height="300"/>
		</defs>
		<clipPath id="XMLID_3_">
			<use xlink:href="#XMLID_4044_"  style="overflow:visible;"/>
		</clipPath>
		<g class="st1">
			<g>
				<g>
					<g>
						<polygon class="st2" points="174.4,35.3 184.3,46.4 147.3,210.9 115.5,46.4 125,35.3 						"/>
						<path class="st3" d="M174.8,30c0,0,0.1-0.6-24.9-0.6c-0.1,0-0.2,0-0.3,0c-0.1,0-0.2,0-0.3,0c-25,0-24.9,0.6-24.9,0.6l-3,10.9
							c0,0,4.1,1,13.9,1.4c3.8,0.2,8.8,0.3,14.4,0.3c5.7,0,10.1-0.1,13.9-0.3c9.9-0.4,13.9-1.4,13.9-1.4L174.8,30z"/>
						<g>
							<path class="st4" d="M129.1,29.7c0,0-2.6,2.9-2.4,6.6s0.4,4.9,0.4,4.9h-2.7l0.3-11.1L129.1,29.7z"/>
							<path class="st5" d="M130.1,29.6c-0.7,0-1.3,0-1.8,0.1c-1.5,2.4-1.5,9.3-1.4,11.8c0.8,0.1,1.7,0.1,2.7,0.2
								c-0.2-0.7-0.4-2.3-0.4-5.1C129.2,33.2,129.8,30.7,130.1,29.6z"/>
							<path class="st6" d="M128.5,29.7c-0.4,0-0.7,0-1,0c-0.6,0.5-1.2,1.4-1.4,2.9c-0.3,3.1-0.4,7-0.5,8.8c0.8,0.1,1.7,0.2,2.7,0.2
								C127.9,39,127.1,32,128.5,29.7z"/>
						</g>
						<g>
							<path class="st4" d="M170.1,29.7c0,0,2.6,2.9,2.4,6.6c-0.2,3.7-0.4,4.9-0.4,4.9h2.7L174.6,30L170.1,29.7z"/>
							<path class="st5" d="M169,29.6c0.7,0,1.3,0,1.8,0.1c1.5,2.4,1.5,9.3,1.4,11.8c-0.8,0.1-1.7,0.1-2.7,0.2
								c0.2-0.7,0.4-2.3,0.4-5.1C169.9,33.2,169.3,30.7,169,29.6z"/>
							<path class="st6" d="M170.6,29.7c0.4,0,0.7,0,1,0c0.6,0.5,1.2,1.4,1.4,2.9c0.3,3.1,0.4,7,0.5,8.8c-0.8,0.1-1.7,0.2-2.7,0.2
								C171.2,39,172.1,32,170.6,29.7z"/>
						</g>
						<path class="st7" d="M174.8,30c0,0,0.1-0.6-24.9-0.6c-0.1,0-0.2,0-0.3,0c-0.1,0-0.2,0-0.3,0c-25,0-24.9,0.6-24.9,0.6l-3,10.9
							c0,0,4.1,1,13.9,1.4c3.8,0.2,8.8,0.3,14.4,0.3c5.7,0,10.1-0.1,13.9-0.3c9.9-0.4,13.9-1.4,13.9-1.4L174.8,30z"/>
						<g>
							<polygon class="st4" points="126.3,63.9 149.9,175.8 173,63.9 157.9,195.1 149.1,204.4 142.2,193.9 							"/>
							<polygon class="st6" points="149.7,190.3 173.6,58.9 149.9,175.2 125.8,58.9 							"/>
						</g>
						<g>
							<g>
								<line class="st8" x1="149.9" y1="44" x2="149.9" y2="44.5"/>
								<line class="st9" x1="149.9" y1="46.5" x2="149.9" y2="198.4"/>
								<line class="st8" x1="149.9" y1="199.4" x2="149.9" y2="199.9"/>
							</g>
						</g>
						<path class="st4" d="M137,46.7l0.9,0.9c0,0,6.5-0.5,12-0.5c5.5,0,12.4,0.5,12.4,0.5l0.6-0.9H137z"/>
						<path class="st6" d="M137.7,47.4l0.7,0.7c0,0,6.1-0.5,11.5-0.5c5.4,0,12.2,0.5,12.2,0.5l0.4-0.7l-12.5-0.2L137.7,47.4z"/>
						<path class="st3" d="M149.9,42.5c-5.7,0-10.4,0-14.3-0.2l1.6,4.4h12.6h0.1h12.6l1.6-4.4C160.4,42.5,155.6,42.5,149.9,42.5z"/>
					</g>
					<path class="st2" d="M162.6,437.7c0-0.7,0-25.3,0-25.3h-25.4v25.3H162.6z"/>
					<g>
						<polygon class="st4" points="150.1,421.8 140.3,443.8 149.9,408.7 159.9,444.2 						"/>
						<polygon class="st6" points="149.9,426.2 140.3,443.8 149.9,418.8 159.9,444.2 						"/>
					</g>
					<path class="st3" d="M163.5,289.1c-2.3-52.5-4.9-38.4-4.9-38.4l-4.5-37.8l-3.5-7.6c-5.4-27.1-12.1-60.6-13.4-69.8
						c-2.2-14.9-9.5-62.4-9.5-62.4c-4.5-28.7-2.5-43-2.5-43s-21.6,12.3-26,15.2c-2.3,1.5-22.2,10.3-39.2,18.1
						C39.3,72.9,36.5,78,36.5,78c15.9,9.8,19.2,45.2,19.5,86.6s-11.2,112.2-12.6,149c-1.5,38.2-9.3,132-9.3,132s68.2,17.4,86.9,12.3
						c18.6-5.1,20.1-15.6,23.8-25.2l5.5-19.2C150.1,413.5,165.8,341.6,163.5,289.1z"/>
					<g>
						<path class="st5" d="M56.2,239.3c6-41.1,3.4-74.1-0.7-99.9c0.8,5.1,1.2,14.1,1.3,15.4c0.7,8.7,1.4,17.7,1.2,26.4
							c-0.2,18.2-1.5,39.1-4.8,62c-2.8,19.6-4.9,28.3-6.4,31.7c-0.3,2.8-0.6,5.5-0.8,8.2C49.7,282.9,52.3,265.7,56.2,239.3z"/>
						<path class="st6" d="M52.5,222.6c-1.8,17.7-3.9,35.8-5.7,52.3c1.5-3.4,3.6-12.1,6.4-31.7c3.3-22.9,4.9-41.7,4.9-72.4l0-0.1
							c0.3-11.1-2.7-31.8-2.7-30.9C57.1,164.5,54.2,207.9,52.5,222.6z"/>
					</g>
					<path class="st3" d="M55.9,164.6c-0.3-38.9-3.2-72.4-16.6-84.5l-2.8-1.6c0,0-4.3-1.4-8.8,19.9C23.1,119.7-25,422.2-25,422.2
						s8,7,24.6,7.6s25-3.5,25-3.5l26.1-188.7C53.5,211.2,56.1,184.5,55.9,164.6z"/>
					<g>
						<path class="st5" d="M149.5,198.5c0,0-18.8,44.7-18.8,108.2s21,109.4,21,109.4l-2.2-77.1l3.1-135L149.5,198.5z"/>
						<path class="st6" d="M152.1,198.5c0,0-18.8,44.7-18.8,108.2s21,109.4,21,109.4l-2.2-77.1l3.1-135L152.1,198.5z"/>
					</g>
					<g>
						<path class="st3" d="M244.1,164.6c0.3-41.5,3.6-76.8,19.5-86.6c0,0-2.9-5.1-23.5-14.6c-19.4-9-35.7-16-42.1-19.7
							c-0.4-0.2-0.8-0.4-1.1-0.6c-5.5-3.4-22.1-13.1-22.1-13.1s1.1,14.3-3.4,43c0,0-7.4,47.5-9.5,62.4
							c-2.2,14.9-18.4,93.7-20.4,105.5c-0.5,3.1-1,6-1.4,8.6c-0.9,5.7-1.6,10.9-1.9,12.7c-0.5,6-1.1,14.6-1.6,26.8
							c-2.3,52.5,13.3,124.4,13.3,124.4l5.7,19.4c3.7,9.7,4.9,19.9,23.6,25c18.6,5.1,84.4-12.3,84.4-12.3s-5.4-93.8-6.9-132
							C255.3,276.8,243.8,206.1,244.1,164.6z"/>
					</g>
					<g>
						<path class="st5" d="M243.8,239.3c-6-41.1-3.4-74.1,0.7-99.9c-0.8,5.1-1.2,14.1-1.3,15.4c-0.7,8.7-1.4,17.7-1.2,26.4
							c0.2,18.2,1.5,39.1,4.8,62c2.8,19.6,4.9,28.3,6.4,31.7c0.3,2.8,0.6,5.5,0.8,8.2C250.2,282.9,247.6,265.7,243.8,239.3z"/>
						<path class="st6" d="M247.5,222.6c1.8,17.7,3.9,35.8,5.7,52.3c-1.5-3.4-3.6-12.1-6.4-31.7c-3.3-22.9-4.9-41.7-4.9-72.4l0-0.1
							c-0.3-11.1,2.7-31.8,2.7-30.9C242.9,164.5,245.7,207.9,247.5,222.6z"/>
					</g>
					<path class="st3" d="M272.4,97.8c-4.5-21.3-8.8-19.9-8.8-19.9l0,0c-15.9,9.8-19.2,45.2-19.5,86.6c-0.1,19.3,2.3,45,5,70.6
						l26.3,190.6c0,0,8.4,4.1,25,3.5c16.6-0.6,24.6-7.6,24.6-7.6S276.9,119.2,272.4,97.8z"/>
				</g>
			</g>
			<g>
				<polygon class="st5" points="233.2,168.9 233.2,166.4 173.8,168.1 173.8,170.6 				"/>
				<polygon class="st6" points="233.2,169.9 233.2,167.4 173.8,169.1 173.8,171.6 				"/>
				<path class="st3" d="M233,168.5v13.7c0,0.5-0.4,0.9-0.9,0.9l-56.8,1.2c-0.5,0-0.9-0.4-0.9-0.9v-13.2L233,168.5z"/>
				<line class="st10" x1="174.5" y1="170.8" x2="233" y2="169.1"/>
			</g>
			<g>
				<g>
					<path class="st5" d="M148.7,219.5c-2.6-4.3-5.3-9-7.5-13.1c-7-13-15.9-33.1-24.2-53c-13.6-32.7-25.8-65-25.8-65l1.8-5.1
						l54.1,131.6l1.4,2.6C148.6,217.4,150.4,222.4,148.7,219.5z"/>
					<path class="st6" d="M148.6,217.4c-2.4-4.5-5.3-10.3-9.1-17.5C121.8,165.5,91.9,86.3,91.9,86.3l1.2-3L148.8,212l1.1,2.8
						C149.9,214.8,151.4,222.7,148.6,217.4z"/>
					<polygon class="st5" points="106.1,77.2 94.8,71 95.8,66.1 105.1,64.1 113.1,75.8 108.5,79 					"/>
					<polygon class="st6" points="108.1,76.2 95.2,69 96.1,64.4 106.1,62.1 114.1,74.5 109.5,78 					"/>
				</g>
				<path class="st3" d="M109.4,75.2l-14.3-8.6l4.5-21.9c0.4-0.2,0.8-0.4,1.1-0.6c5.5-3.4,24-13.9,24-13.9s-1.1,14.3,3.4,43
					c0,0,7.4,47.5,9.5,62.4c1.4,9.4,8.3,44.2,13.8,71.6c1,5-1.9,11.4-3.3,8.6c-11.8-24.6-22.2-48.3-30.9-68.7
					c-13.4-34.4-24.7-63.4-24.7-63.4L109.4,75.2z"/>
				<g>
					<polygon class="st5" points="149.2,193.9 145.3,207.2 147.9,212.5 150,198 					"/>
					<polygon class="st6" points="149.4,195.2 146.6,210.1 148.4,213.5 151,198.3 					"/>
				</g>
				<g>
					<path class="st5" d="M143.3,231l-0.4,2.7c0,0,9.9-15.6,16.2-27.3c7-13,15.9-33.1,24.2-53c13.6-32.7,25.8-65,25.8-65l-1.8-5.1
						l-54.1,131.6L143.3,231z"/>
					<path class="st6" d="M142.9,233.7c0,0,2.6-4.1,17.9-33.8c17.7-34.4,47.6-113.6,47.6-113.6l-1.2-3L151.4,212L142.9,233.7z"/>
					<polygon class="st5" points="194.2,77.2 205.5,71 204.5,66.1 195.2,64.1 187.2,75.8 191.8,79 					"/>
					<polygon class="st6" points="192.1,76.2 205.1,69 204.1,64.4 194.2,62.1 186.2,74.5 190.8,78 					"/>
				</g>
				<path class="st3" d="M190,75.2l14.3-8.6l-4.5-21.9c-0.4-0.2-0.8-0.4-1.1-0.6c-5.5-3.4-24-13.9-24-13.9s1.1,14.3-3.4,43
					c0,0-7.4,47.5-9.5,62.4c-1.9,12.9-14.2,73.2-18.9,97.2l0,0.2c15.2-30.7,28.6-60.8,39.2-85.9c13.4-34.4,24.7-63.4,24.7-63.4
					L190,75.2z"/>
				<path class="st11" d="M199.6,87.4l-2.7-1.2c-0.7-0.4-1.5-0.6-2.3-0.8l-2.8-0.8c-0.3-0.1-0.4,0.3-0.2,0.4l2.6,1.1
					c0.7,0.4,1.5,0.6,2.3,0.8l2.9,0.9C199.7,87.8,199.8,87.5,199.6,87.4z"/>
			</g>
			<g>
				<g>
					<g>
						<g>
							<line class="st8" x1="203.4" y1="206.6" x2="203.4" y2="207.1"/>
							<line class="st12" x1="203.4" y1="209" x2="203.4" y2="312.4"/>
							<line class="st8" x1="203.4" y1="313.4" x2="203.4" y2="313.9"/>
						</g>
					</g>
					<g>
						<path class="st5" d="M195.1,317.6l-1.3,17.7c-0.6,10.1,4.2,13.2,9.2,13.2h54.7l-0.2-4.6L195.1,317.6z"/>
						<path class="st6" d="M195.1,317l-0.6,14.5c-0.6,10.1,2.8,15.7,8.6,15.7h54.6l-0.2-4.6L195.1,317z"/>
						<path class="st3" d="M195.1,321.5v-5.1h61.5l1.5,29.8h-53.7c-7.1,0-9.2-8.4-9.2-15.5v0V321.5z"/>
						<g>
							<g>
								<line class="st8" x1="195.6" y1="319.5" x2="196.1" y2="319.5"/>
								<line class="st13" x1="198.1" y1="319.5" x2="255" y2="319.5"/>
								<line class="st8" x1="256" y1="319.5" x2="256.5" y2="319.5"/>
							</g>
						</g>
					</g>
				</g>
				<g>
					<g>
						<g>
							<line class="st8" x1="96.3" y1="206.6" x2="96.3" y2="207.1"/>
							<line class="st12" x1="96.3" y1="209" x2="96.3" y2="312.4"/>
							<line class="st8" x1="96.3" y1="313.4" x2="96.3" y2="313.9"/>
						</g>
					</g>
					<g>
						<path class="st5" d="M104.6,317.6l1.3,17.7c0.6,10.1-4.2,13.2-9.2,13.2H42l0.2-4.6L104.6,317.6z"/>
						<path class="st6" d="M104.6,317l0.6,14.5c0.6,10.1-2.8,15.7-8.6,15.7H42l0.2-4.6L104.6,317z"/>
						<path class="st3" d="M104.6,321.5v-5.1H43.2l-1.5,29.8h53.7c7.1,0,9.2-8.4,9.2-15.5v0V321.5z"/>
						<g>
							<g>
								<line class="st8" x1="104.2" y1="319.5" x2="103.7" y2="319.5"/>
								<line class="st14" x1="101.7" y1="319.5" x2="44.7" y2="319.5"/>
								<line class="st8" x1="43.7" y1="319.5" x2="43.2" y2="319.5"/>
							</g>
						</g>
					</g>
				</g>
			</g>
			<g>
				<g id="XMLID_9289_">
					<circle id="XMLID_9304_" class="st5" cx="152.3" cy="233.5" r="6"/>
					<circle id="XMLID_9303_" class="st15" cx="152.4" cy="233.2" r="5.8"/>
					<polygon id="XMLID_9302_" class="st11" points="159.8,233 152.5,231.6 144.3,233 152.5,234.5 					"/>
					<circle id="XMLID_9301_" class="st16" cx="152.3" cy="232.4" r="5.8"/>
					<circle id="XMLID_9300_" class="st17" cx="152.3" cy="232.4" r="5"/>
					<circle id="XMLID_9299_" class="st18" cx="151.3" cy="231.1" r="0.7"/>
					<circle id="XMLID_9298_" class="st18" cx="153.1" cy="234.7" r="0.7"/>
					<line id="XMLID_9297_" class="st19" x1="151" y1="231.1" x2="152.8" y2="234.7"/>
					<line id="XMLID_9296_" class="st19" x1="151.5" y1="230.9" x2="153.2" y2="234.5"/>
					<line id="XMLID_9295_" class="st19" x1="151" y1="231.1" x2="152.8" y2="234.7"/>
					<line id="XMLID_9294_" class="st19" x1="151.5" y1="230.9" x2="153.2" y2="234.5"/>
					<circle id="XMLID_9293_" class="st18" cx="150.4" cy="233.8" r="0.7"/>
					<circle id="XMLID_9292_" class="st18" cx="154" cy="232" r="0.7"/>
					<line id="XMLID_9291_" class="st19" x1="150.4" y1="234.1" x2="154" y2="232.3"/>
					<line id="XMLID_9290_" class="st19" x1="150.2" y1="233.6" x2="153.8" y2="231.9"/>
				</g>
				<g id="XMLID_9273_">
					<circle id="XMLID_9288_" class="st5" cx="152.3" cy="299.1" r="6"/>
					<circle id="XMLID_9287_" class="st15" cx="152.4" cy="298.8" r="5.8"/>
					<polygon id="XMLID_9286_" class="st11" points="159.8,298.6 152.5,297.2 144.3,298.6 152.5,300.1 					"/>
					<circle id="XMLID_9285_" class="st16" cx="152.3" cy="298" r="5.8"/>
					<circle id="XMLID_9284_" class="st17" cx="152.3" cy="298" r="5"/>
					<circle id="XMLID_9283_" class="st18" cx="151.3" cy="296.7" r="0.7"/>
					<circle id="XMLID_9282_" class="st18" cx="153.1" cy="300.3" r="0.7"/>
					<line id="XMLID_9281_" class="st19" x1="151" y1="296.7" x2="152.8" y2="300.3"/>
					<line id="XMLID_9280_" class="st19" x1="151.5" y1="296.5" x2="153.2" y2="300.1"/>
					<line id="XMLID_9279_" class="st19" x1="151" y1="296.7" x2="152.8" y2="300.3"/>
					<line id="XMLID_9278_" class="st19" x1="151.5" y1="296.5" x2="153.2" y2="300.1"/>
					<circle id="XMLID_9277_" class="st18" cx="150.4" cy="299.4" r="0.7"/>
					<circle id="XMLID_9276_" class="st18" cx="154" cy="297.6" r="0.7"/>
					<line id="XMLID_9275_" class="st19" x1="150.4" y1="299.7" x2="154" y2="297.9"/>
					<line id="XMLID_9274_" class="st19" x1="150.2" y1="299.2" x2="153.8" y2="297.5"/>
				</g>
			</g>
			<g>
				<g>
					<g id="XMLID_13826_">
						<path class="st11" d="M318.8,401.3l-4.2,0.3l-4,1.2c-0.3,0.1-0.2,0.5,0.1,0.4l4.2-0.3l4-1.2
							C319.2,401.7,319.1,401.3,318.8,401.3z"/>
						<circle id="XMLID_13838_" class="st5" cx="316.1" cy="402.2" r="3.1"/>
						<circle id="XMLID_13837_" class="st15" cx="316.2" cy="402.1" r="3"/>
						<circle id="XMLID_13836_" class="st20" cx="316.1" cy="401.7" r="3"/>
						<circle id="XMLID_13835_" class="st17" cx="316.1" cy="401.7" r="2.6"/>
						<circle id="XMLID_13834_" class="st18" cx="315.6" cy="401" r="0.4"/>
						<circle id="XMLID_13833_" class="st18" cx="316.5" cy="402.9" r="0.4"/>
						<line id="XMLID_13832_" class="st21" x1="315.5" y1="401" x2="316.4" y2="402.9"/>
						<line id="XMLID_13831_" class="st21" x1="315.7" y1="400.9" x2="316.6" y2="402.8"/>
						<circle id="XMLID_13830_" class="st18" cx="315.1" cy="402.4" r="0.4"/>
						<circle id="XMLID_13829_" class="st18" cx="317" cy="401.5" r="0.4"/>
						<line id="XMLID_13828_" class="st21" x1="315.1" y1="402.6" x2="317" y2="401.7"/>
						<line id="XMLID_13827_" class="st21" x1="315" y1="402.3" x2="316.9" y2="401.4"/>
					</g>
					<g id="XMLID_13813_">
						<path class="st11" d="M317.5,394.4l-4.2,0.3l-4,1.2c-0.3,0.1-0.2,0.5,0.1,0.4l4.2-0.3l4-1.2
							C317.9,394.8,317.8,394.4,317.5,394.4z"/>
						<circle id="XMLID_13825_" class="st5" cx="314.8" cy="395.4" r="3.1"/>
						<circle id="XMLID_13824_" class="st15" cx="314.9" cy="395.2" r="3"/>
						<circle id="XMLID_13823_" class="st20" cx="314.8" cy="394.8" r="3"/>
						<circle id="XMLID_13822_" class="st17" cx="314.8" cy="394.8" r="2.6"/>
						<circle id="XMLID_13821_" class="st18" cx="314.3" cy="394.1" r="0.4"/>
						<circle id="XMLID_13820_" class="st18" cx="315.3" cy="396" r="0.4"/>
						<line id="XMLID_13819_" class="st21" x1="314.2" y1="394.1" x2="315.1" y2="396"/>
						<line id="XMLID_13818_" class="st21" x1="314.4" y1="394" x2="315.3" y2="395.9"/>
						<circle id="XMLID_13817_" class="st18" cx="313.9" cy="395.5" r="0.4"/>
						<circle id="XMLID_13816_" class="st18" cx="315.7" cy="394.6" r="0.4"/>
						<line id="XMLID_13815_" class="st21" x1="313.9" y1="395.7" x2="315.7" y2="394.8"/>
						<line id="XMLID_13814_" class="st21" x1="313.8" y1="395.4" x2="315.6" y2="394.5"/>
					</g>
					<g id="XMLID_13800_">
						<path class="st11" d="M320.1,408.2l-4.2,0.3l-4,1.2c-0.3,0.1-0.2,0.5,0.1,0.4l4.2-0.3l4-1.2
							C320.4,408.6,320.4,408.2,320.1,408.2z"/>
						<circle id="XMLID_13812_" class="st5" cx="317.4" cy="409.1" r="3.1"/>
						<circle id="XMLID_13811_" class="st15" cx="317.4" cy="409" r="3"/>
						<circle id="XMLID_13810_" class="st20" cx="317.4" cy="408.6" r="3"/>
						<circle id="XMLID_13809_" class="st17" cx="317.4" cy="408.6" r="2.6"/>
						<circle id="XMLID_13808_" class="st18" cx="316.9" cy="407.9" r="0.4"/>
						<circle id="XMLID_13807_" class="st18" cx="317.8" cy="409.8" r="0.4"/>
						<line id="XMLID_13806_" class="st21" x1="316.8" y1="407.9" x2="317.7" y2="409.8"/>
						<line id="XMLID_13805_" class="st21" x1="317" y1="407.8" x2="317.9" y2="409.7"/>
						<circle id="XMLID_13804_" class="st18" cx="316.4" cy="409.3" r="0.4"/>
						<circle id="XMLID_13803_" class="st18" cx="318.3" cy="408.4" r="0.4"/>
						<line id="XMLID_13802_" class="st21" x1="316.4" y1="409.4" x2="318.3" y2="408.5"/>
						<line id="XMLID_13801_" class="st21" x1="316.3" y1="409.2" x2="318.2" y2="408.3"/>
					</g>
					<g id="XMLID_13787_">
						<path class="st11" d="M321.4,415.1l-4.2,0.3l-4,1.2c-0.3,0.1-0.2,0.5,0.1,0.4l4.2-0.3l4-1.2
							C321.7,415.4,321.6,415.1,321.4,415.1z"/>
						<circle id="XMLID_13799_" class="st5" cx="318.7" cy="416" r="3.1"/>
						<circle id="XMLID_13798_" class="st15" cx="318.7" cy="415.9" r="3"/>
						<circle id="XMLID_13797_" class="st20" cx="318.7" cy="415.5" r="3"/>
						<circle id="XMLID_13796_" class="st17" cx="318.7" cy="415.5" r="2.6"/>
						<circle id="XMLID_13795_" class="st18" cx="318.2" cy="414.8" r="0.4"/>
						<circle id="XMLID_13794_" class="st18" cx="319.1" cy="416.7" r="0.4"/>
						<line id="XMLID_13793_" class="st21" x1="318" y1="414.8" x2="318.9" y2="416.6"/>
						<line id="XMLID_13792_" class="st21" x1="318.3" y1="414.7" x2="319.2" y2="416.5"/>
						<circle id="XMLID_13791_" class="st18" cx="317.7" cy="416.2" r="0.4"/>
						<circle id="XMLID_13790_" class="st18" cx="319.6" cy="415.3" r="0.4"/>
						<line id="XMLID_13789_" class="st21" x1="317.7" y1="416.3" x2="319.6" y2="415.4"/>
						<line id="XMLID_13788_" class="st21" x1="317.6" y1="416.1" x2="319.5" y2="415.2"/>
					</g>
				</g>
				<g>
					<g id="XMLID_13774_">
						<path class="st11" d="M-18.2,401.3l4.2,0.3l4,1.2c0.3,0.1,0.2,0.5-0.1,0.4l-4.2-0.3l-4-1.2C-18.5,401.7-18.5,401.3-18.2,401.3
							z"/>
						<circle id="XMLID_13786_" class="st5" cx="-15.5" cy="402.2" r="3.1"/>
						<circle id="XMLID_13785_" class="st15" cx="-15.6" cy="402.1" r="3"/>
						<circle id="XMLID_13784_" class="st20" cx="-15.5" cy="401.7" r="3"/>
						<circle id="XMLID_13783_" class="st17" cx="-15.5" cy="401.7" r="2.6"/>
						<circle id="XMLID_13782_" class="st18" cx="-15" cy="401" r="0.4"/>
						<circle id="XMLID_13781_" class="st18" cx="-15.9" cy="402.9" r="0.4"/>
						<line id="XMLID_13780_" class="st21" x1="-14.9" y1="401" x2="-15.8" y2="402.9"/>
						<line id="XMLID_13779_" class="st21" x1="-15.1" y1="400.9" x2="-16" y2="402.8"/>
						<circle id="XMLID_13778_" class="st18" cx="-14.5" cy="402.4" r="0.4"/>
						<circle id="XMLID_13777_" class="st18" cx="-16.4" cy="401.5" r="0.4"/>
						<line id="XMLID_13776_" class="st21" x1="-14.5" y1="402.6" x2="-16.4" y2="401.7"/>
						<line id="XMLID_13775_" class="st21" x1="-14.4" y1="402.3" x2="-16.3" y2="401.4"/>
					</g>
					<g id="XMLID_13761_">
						<path class="st11" d="M-16.9,394.4l4.2,0.3l4,1.2c0.3,0.1,0.2,0.5-0.1,0.4l-4.2-0.3l-4-1.2C-17.3,394.8-17.2,394.4-16.9,394.4
							z"/>
						<circle id="XMLID_13773_" class="st5" cx="-14.2" cy="395.4" r="3.1"/>
						<circle id="XMLID_13772_" class="st15" cx="-14.3" cy="395.2" r="3"/>
						<circle id="XMLID_13771_" class="st20" cx="-14.2" cy="394.8" r="3"/>
						<circle id="XMLID_13770_" class="st17" cx="-14.2" cy="394.8" r="2.6"/>
						<circle id="XMLID_13769_" class="st18" cx="-13.7" cy="394.1" r="0.4"/>
						<circle id="XMLID_13768_" class="st18" cx="-14.6" cy="396" r="0.4"/>
						<line id="XMLID_13767_" class="st21" x1="-13.6" y1="394.1" x2="-14.5" y2="396"/>
						<line id="XMLID_13766_" class="st21" x1="-13.8" y1="394" x2="-14.7" y2="395.9"/>
						<circle id="XMLID_13765_" class="st18" cx="-13.3" cy="395.5" r="0.4"/>
						<circle id="XMLID_13764_" class="st18" cx="-15.1" cy="394.6" r="0.4"/>
						<line id="XMLID_13763_" class="st21" x1="-13.3" y1="395.7" x2="-15.1" y2="394.8"/>
						<line id="XMLID_13762_" class="st21" x1="-13.2" y1="395.4" x2="-15" y2="394.5"/>
					</g>
					<g id="XMLID_13748_">
						<path class="st11" d="M-19.5,408.2l4.2,0.3l4,1.2c0.3,0.1,0.2,0.5-0.1,0.4l-4.2-0.3l-4-1.2C-19.8,408.6-19.8,408.2-19.5,408.2
							z"/>
						<circle id="XMLID_13760_" class="st5" cx="-16.8" cy="409.1" r="3.1"/>
						<circle id="XMLID_13759_" class="st15" cx="-16.8" cy="409" r="3"/>
						<circle id="XMLID_13758_" class="st20" cx="-16.8" cy="408.6" r="3"/>
						<circle id="XMLID_13757_" class="st17" cx="-16.8" cy="408.6" r="2.6"/>
						<circle id="XMLID_13756_" class="st18" cx="-16.3" cy="407.9" r="0.4"/>
						<circle id="XMLID_13755_" class="st18" cx="-17.2" cy="409.8" r="0.4"/>
						<line id="XMLID_13754_" class="st21" x1="-16.2" y1="407.9" x2="-17.1" y2="409.8"/>
						<line id="XMLID_13753_" class="st21" x1="-16.4" y1="407.8" x2="-17.3" y2="409.7"/>
						<circle id="XMLID_13752_" class="st18" cx="-15.8" cy="409.3" r="0.4"/>
						<circle id="XMLID_13751_" class="st18" cx="-17.7" cy="408.4" r="0.4"/>
						<line id="XMLID_13750_" class="st21" x1="-15.8" y1="409.4" x2="-17.7" y2="408.5"/>
						<line id="XMLID_13749_" class="st21" x1="-15.7" y1="409.2" x2="-17.6" y2="408.3"/>
					</g>
					<g id="XMLID_13735_">
						<path class="st11" d="M-20.8,415.1l4.2,0.3l4,1.2c0.3,0.1,0.2,0.5-0.1,0.4l-4.2-0.3l-4-1.2C-21.1,415.4-21,415.1-20.8,415.1z"
							/>
						<circle id="XMLID_13747_" class="st5" cx="-18.1" cy="416" r="3.1"/>
						<circle id="XMLID_13746_" class="st15" cx="-18.1" cy="415.9" r="3"/>
						<circle id="XMLID_13745_" class="st20" cx="-18.1" cy="415.5" r="3"/>
						<circle id="XMLID_13744_" class="st17" cx="-18.1" cy="415.5" r="2.6"/>
						<circle id="XMLID_13743_" class="st18" cx="-17.6" cy="414.8" r="0.4"/>
						<circle id="XMLID_13742_" class="st18" cx="-18.5" cy="416.7" r="0.4"/>
						<line id="XMLID_13741_" class="st21" x1="-17.4" y1="414.8" x2="-18.3" y2="416.6"/>
						<line id="XMLID_13740_" class="st21" x1="-17.7" y1="414.7" x2="-18.6" y2="416.5"/>
						<circle id="XMLID_13739_" class="st18" cx="-17.1" cy="416.2" r="0.4"/>
						<circle id="XMLID_13738_" class="st18" cx="-19" cy="415.3" r="0.4"/>
						<line id="XMLID_13737_" class="st21" x1="-17.1" y1="416.3" x2="-19" y2="415.4"/>
						<line id="XMLID_13736_" class="st21" x1="-17" y1="416.1" x2="-18.9" y2="415.2"/>
					</g>
				</g>
			</g>
		</g>
	</g>
	<g id="XMLID_1_" class="st0">
		<defs>
			<rect id="XMLID_4932_" x="-13.5" width="327.1" height="300"/>
		</defs>
		<clipPath id="XMLID_4_">
			<use xlink:href="#XMLID_4932_"  style="overflow:visible;"/>
		</clipPath>
	</g>
	<g class="st0">
		<path class="st22" d="M150.1,4.6c38.7,0,75.1,15.1,102.5,42.5c27.4,27.4,42.5,63.8,42.5,102.5s-15.1,75.1-42.5,102.5
			c-27.4,27.4-63.8,42.5-102.5,42.5S75,279.5,47.6,252.1C20.2,224.7,5.1,188.3,5.1,149.6S20.2,74.5,47.6,47.1
			C75,19.7,111.4,4.6,150.1,4.6 M150.1-0.4c-82.8,0-150,67.2-150,150s67.2,150,150,150s150-67.2,150-150S232.9-0.4,150.1-0.4
			L150.1-0.4z"/>
	</g>
</g>
</svg>
