<?xml version="1.0" encoding="utf-8"?>
<!-- Generator: Adobe Illustrator 19.0.0, SVG Export Plug-In . SVG Version: 6.00 Build 0)  -->
<svg version="1.1" id="Layer_1" xmlns="http://www.w3.org/2000/svg" xmlns:xlink="http://www.w3.org/1999/xlink" x="0px" y="0px"
	 viewBox="0 0 300 300" style="enable-background:new 0 0 300 300;" xml:space="preserve">
<style type="text/css">
	.st0{clip-path:url(#SVGID_2_);}
	.st1{clip-path:url(#XMLID_3_);}
	.st2{fill:#F1F1F2;stroke:#404041;stroke-miterlimit:10;}
	.st3{fill:#FFFFFF;stroke:#404041;stroke-miterlimit:10;}
	.st4{fill:#929497;}
	.st5{fill:#F1F1F2;}
	.st6{fill:#C5C7C9;}
	.st7{fill:none;stroke:#404041;stroke-miterlimit:10;}
	.st8{fill:none;stroke:#808184;stroke-width:0.5;stroke-miterlimit:10;}
	.st9{fill:none;stroke:#808184;stroke-width:0.5;stroke-miterlimit:10;stroke-dasharray:0.9993,1.9985;}
	.st10{fill:none;stroke:#808184;stroke-width:0.5;stroke-miterlimit:10;stroke-dasharray:1,2;}
	.st11{fill:#404041;stroke:#D0D2D3;stroke-width:0.5;stroke-miterlimit:10;}
	.st12{fill:none;stroke:#808184;stroke-width:0.5;stroke-miterlimit:10;stroke-dasharray:0.9943,1.9886;}
	.st13{fill:none;stroke:#808184;stroke-width:0.5;stroke-miterlimit:10;stroke-dasharray:1.0166,2.0331;}
	.st14{fill:none;stroke:#808184;stroke-width:0.5;stroke-miterlimit:10;stroke-dasharray:1.0177,2.0353;}
	.st15{fill:#DBDCDD;}
	.st16{fill:#FFFFFF;stroke:#6D6E70;stroke-miterlimit:10;}
	.st17{fill:#FFFFFF;stroke:#929497;stroke-width:0.25;stroke-miterlimit:10;}
	.st18{fill:#404041;}
	.st19{fill:none;stroke:#6D6E70;stroke-width:0.5;stroke-miterlimit:10;}
	.st20{fill:#FFFFFF;stroke:#6D6E70;stroke-width:0.5;stroke-miterlimit:10;}
	.st21{fill:none;stroke:#6D6E70;stroke-width:0.25;stroke-miterlimit:10;}
	.st22{fill:#9AA0BB;}
</style>
<g>
	<defs>
		<circle id="SVGID_1_" cx="150.1" cy="149.6" r="150"/>
	</defs>
	<use xlink:href="#SVGID_1_"  style="overflow:visible;fill:#DDDDDD;"/>
	<clipPath id="SVGID_2_">
		<use xlink:href="#SVGID_1_"  style="overflow:visible;"/>
	</clipPath>
	<g id="XMLID_254_" class="st0">
		<defs>
			<rect id="XMLID_4044_" x="-13.5" width="327.1" height="300"/>
		</defs>
		<clipPath id="XMLID_3_">
			<use xlink:href="#XMLID_4044_"  style="overflow:visible;"/>
		</clipPath>
		<g class="st1">
			<g>
				<g>
					<g>
						<polygon class="st2" points="174.4,35.7 184.3,46.8 149.9,226.6 115.5,46.8 125,35.7 						"/>
						<path class="st3" d="M174.8,30.4c0,0,0.1-0.6-24.9-0.6c-0.1,0-0.2,0-0.3,0c-0.1,0-0.2,0-0.3,0c-25,0-24.9,0.6-24.9,0.6
							l-3,10.9c0,0,4.1,1,13.9,1.4c3.8,0.2,8.8,0.3,14.4,0.3c5.7,0,10.1-0.1,13.9-0.3c9.9-0.4,13.9-1.4,13.9-1.4L174.8,30.4z"/>
						<g>
							<path class="st4" d="M129.1,30.1c0,0-2.6,2.9-2.4,6.6c0.2,3.7,0.4,4.9,0.4,4.9h-5.5l3-11.1L129.1,30.1z"/>
							<path class="st5" d="M130.1,30c-0.7,0-1.3,0-1.8,0.1c-1.5,2.4-1.5,9.3-1.4,11.8c0.8,0.1,1.7,0.1,2.7,0.2
								c-0.2-0.7-0.4-2.3-0.4-5.1C129.2,33.6,129.8,31.1,130.1,30z"/>
							<path class="st6" d="M128.5,30.1c-0.4,0-0.7,0-1,0c-0.6,0.5-1.2,1.4-1.4,2.9c-0.3,3.1-0.4,7-0.5,8.8c0.8,0.1,1.7,0.2,2.7,0.2
								C127.9,39.4,127.1,32.4,128.5,30.1z"/>
						</g>
						<g>
							<path class="st4" d="M170.1,30.1c0,0,2.6,2.9,2.4,6.6c-0.2,3.7-0.4,4.9-0.4,4.9h5.7l-3.3-11.1L170.1,30.1z"/>
							<path class="st5" d="M169,30c0.7,0,1.3,0,1.8,0.1c1.5,2.4,1.5,9.3,1.4,11.8c-0.8,0.1-1.7,0.1-2.7,0.2
								c0.2-0.7,0.4-2.3,0.4-5.1C169.9,33.6,169.3,31.1,169,30z"/>
							<path class="st6" d="M170.6,30.1c0.4,0,0.7,0,1,0c0.6,0.5,1.2,1.4,1.4,2.9c0.3,3.1,0.4,7,0.5,8.8c-0.8,0.1-1.7,0.2-2.7,0.2
								C171.2,39.4,172.1,32.4,170.6,30.1z"/>
						</g>
						<path class="st7" d="M174.8,30.4c0,0,0.1-0.6-24.9-0.6c-0.1,0-0.2,0-0.3,0c-0.1,0-0.2,0-0.3,0c-25,0-24.9,0.6-24.9,0.6
							l-3,10.9c0,0,4.1,1,13.9,1.4c3.8,0.2,8.8,0.3,14.4,0.3c5.7,0,10.1-0.1,13.9-0.3c9.9-0.4,13.9-1.4,13.9-1.4L174.8,30.4z"/>
						<g>
							<polygon class="st4" points="126.3,64.3 149.9,182.3 173,64.3 157.9,195.5 149.1,233.2 142.2,194.3 							"/>
							<polygon class="st6" points="149.7,196.7 173.6,59.3 149.9,167.6 125.8,59.3 							"/>
						</g>
						<g>
							<g>
								<line class="st8" x1="149.9" y1="44.4" x2="149.9" y2="44.9"/>
								<line class="st9" x1="149.9" y1="46.9" x2="149.9" y2="198.8"/>
								<line class="st8" x1="149.9" y1="199.8" x2="149.9" y2="200.3"/>
							</g>
						</g>
						<path class="st4" d="M137,47.1l0.9,0.9c0,0,6.5-0.5,12-0.5c5.5,0,12.4,0.5,12.4,0.5l0.6-0.9H137z"/>
						<path class="st6" d="M137.7,47.8l0.7,0.7c0,0,6.1-0.5,11.5-0.5s12.2,0.5,12.2,0.5l0.4-0.7l-12.5-0.2L137.7,47.8z"/>
						<path class="st3" d="M149.9,42.9c-5.7,0-10.4,0-14.3-0.2l1.6,4.4h12.6h0.1h12.6l1.6-4.4C160.4,42.9,155.6,42.9,149.9,42.9z"/>
					</g>
					<path class="st2" d="M162.6,438.1c0-0.7,0-25.3,0-25.3h-25.4v25.3H162.6z"/>
					<g>
						<polygon class="st4" points="150.1,422.2 140.3,444.2 149.9,409.1 159.9,444.6 						"/>
						<polygon class="st6" points="149.9,426.6 140.3,444.2 149.9,419.2 159.9,444.6 						"/>
					</g>
					<path class="st3" d="M163.5,289.5c-2.3-52.5-4.9-38.4-4.9-38.4l-8-26.7c-5.4-27.1-12.1-79.3-13.4-88.5
						c-2.2-14.9-16.3-62.4-16.3-62.4c-4.5-28.7,4.2-43,4.2-43s-21.6,12.3-26,15.2c-2.3,1.5-22.2,10.3-39.2,18.1
						c-20.6,9.5-23.5,14.6-23.5,14.6c15.9,9.8,19.2,45.2,19.5,86.6S44.7,277.2,43.3,314c-1.5,38.2-9.3,132-9.3,132
						s68.2,17.4,86.9,12.3c18.6-5.1,20.1-15.6,23.8-25.2l5.5-19.2C150.1,413.9,165.8,342,163.5,289.5z"/>
					<g>
						<path class="st5" d="M56.2,239.7c6-41.1,3.4-74.1-0.7-99.9c0.8,5.1,1.2,14.1,1.3,15.4c0.7,8.7,1.4,17.7,1.2,26.4
							c-0.2,18.2-1.5,39.1-4.8,62c-2.8,19.6-4.9,28.3-6.4,31.7c-0.3,2.8-0.6,5.5-0.8,8.2C49.7,283.2,52.3,266.1,56.2,239.7z"/>
						<path class="st6" d="M52.5,223c-1.8,17.7-3.9,35.8-5.7,52.3c1.5-3.4,3.6-12.1,6.4-31.7c3.3-22.9,4.9-41.7,4.9-72.4l0-0.1
							c0.3-11.1-2.7-31.8-2.7-30.9C57.1,164.9,54.2,208.3,52.5,223z"/>
					</g>
					<path class="st3" d="M55.9,165c-0.3-38.9-3.2-72.4-16.6-84.5l-2.8-1.6c0,0-4.3-1.4-8.8,19.9C23.1,120.1-25,422.6-25,422.6
						s8,7,24.6,7.6s25-3.5,25-3.5L50.6,238C53.5,211.6,56.1,184.9,55.9,165z"/>
					<g>
						<path class="st5" d="M153.5,211.3c0,0-18.8,44.7-18.8,108.2s21,109.4,21,109.4l-2.2-77.1l3.1-135L153.5,211.3z"/>
						<path class="st6" d="M156.2,211.3c0,0-18.8,44.7-18.8,108.2s21,109.4,21,109.4l-2.2-77.1l3.1-135L156.2,211.3z"/>
					</g>
					<g>
						<path class="st3" d="M244.1,165c0.3-41.5,3.6-76.8,19.5-86.6c0,0-2.9-5.1-23.5-14.6c-19.4-9-35.7-16-42.1-19.7
							c-0.4-0.2-0.8-0.4-1.1-0.6c-5.5-3.4-22.1-13.1-22.1-13.1s7.9,14.3,3.5,43c0,0-14.2,47.5-16.4,62.4
							c-2.2,14.9-9.7,93.9-11.7,105.7c-0.5,3.1-3.6,7.1-4,9.7c-0.9,5.7-1.6,10.5-1.9,12.4c-0.5,6-3.3,14.3-3.8,26.5
							c-2.3,52.5,9.3,123.8,9.3,123.8l5.7,19.4c3.7,9.7,4.9,19.9,23.6,25s84.4-12.3,84.4-12.3s-5.4-93.8-6.9-132
							C255.3,277.2,243.8,206.5,244.1,165z"/>
					</g>
					<g>
						<path class="st5" d="M243.8,239.7c-6-41.1-3.4-74.1,0.7-99.9c-0.8,5.1-1.2,14.1-1.3,15.4c-0.7,8.7-1.4,17.7-1.2,26.4
							c0.2,18.2,1.5,39.1,4.8,62c2.8,19.6,4.9,28.3,6.4,31.7c0.3,2.8,0.6,5.5,0.8,8.2C250.2,283.2,247.6,266.1,243.8,239.7z"/>
						<path class="st6" d="M247.5,223c1.8,17.7,3.9,35.8,5.7,52.3c-1.5-3.4-3.6-12.1-6.4-31.7c-3.3-22.9-4.9-41.7-4.9-72.4l0-0.1
							c-0.3-11.1,2.7-31.8,2.7-30.9C242.9,164.9,245.7,208.3,247.5,223z"/>
					</g>
					<path class="st3" d="M272.4,98.2c-4.5-21.3-8.8-19.9-8.8-19.9l0,0c-15.9,9.8-19.2,45.2-19.5,86.6c-0.1,19.3,2.3,45,5,70.6
						l26.3,190.6c0,0,8.4,4.1,25,3.5c16.6-0.6,24.6-7.6,24.6-7.6S276.9,119.5,272.4,98.2z"/>
				</g>
			</g>
			<g>
				<polygon class="st5" points="233.2,169.1 233.2,166.6 173.8,168.3 173.8,170.8 				"/>
				<polygon class="st6" points="233.2,170.1 233.2,167.6 173.8,169.3 173.8,171.8 				"/>
				<path class="st3" d="M233,168.7v13.7c0,0.5-0.4,0.9-0.9,0.9l-56.8,1.2c-0.5,0-0.9-0.4-0.9-0.9v-13.2L233,168.7z"/>
				<line class="st10" x1="174.5" y1="171" x2="233" y2="169.3"/>
			</g>
			<g>
				<g>
					<g>
						<path class="st5" d="M86.2,86.3c0,0-3.4,3.4-2,7.2c1.4,3.7,42.6,115.6,52.2,138.1c2.9,6.7,7,16.1,10.9,25.1
							c2.4,5.5,4.4-6.1,4.4-6.1L149,238L92.1,96.6L86.2,86.3z"/>
						<path class="st6" d="M87,86.3c0,0-3.5,2-2.1,5.7c1.4,3.7,45,123,53.3,139.6c3.2,6.4,7.1,15.5,10.7,24.2
							c1.9,4.7,2.4-10.5,2.4-10.5l-1.5-7.2L92.9,96.6L87,86.3z"/>
						<polygon class="st5" points="106.7,46.7 94.5,87.5 112.1,101.9 116.6,102 103.8,57.7 						"/>
						<polygon class="st6" points="106.7,46.7 96.3,86.4 106.3,92.9 111.7,106.9 119.5,102 106.7,57.7 						"/>
					</g>
					<path class="st3" d="M126.4,30.4c0,0-14.7,4.9-18.4,13.3C104.3,52.2,97.8,86,97.8,86l18.1,7.9c0,0-26.2-9.2-28.9-6.9
						c-1.7,1.4-0.3,6.7,4.1,15.8c3.2,6.6,32.6,94.6,45.6,123.4c5.1,11.2,9.1,20.8,12.2,28.8c1.4,3.6,0.1-1,0.8-1.7
						c0.2-0.2,3.7-10.8,3.2-13.6c-5.5-32.8-14.3-115.4-19.1-141.8C128.2,68,123.4,53,123.4,44.1S126.4,30.4,126.4,30.4z"/>
					<line class="st10" x1="129.1" y1="74.6" x2="115.9" y2="93.9"/>
					<g>
						<polygon class="st5" points="149.7,219.7 144.3,243 145.7,247 150.2,227.9 						"/>
						<polygon class="st6" points="150.5,221.9 144.7,244.2 146.5,249.2 151,230 						"/>
					</g>
					<g>
						<path class="st5" d="M213.9,86.3c0,0,3.4,3.4,2,7.2c-1.4,3.7-42.6,115.6-52.2,138.1c-7.3,17-22.5,51.2-22.5,51.2l10-44.8
							L208,96.6L213.9,86.3z"/>
						<path class="st6" d="M213.1,86.3c0,0,3.5,2,2.1,5.7s-45,123-53.3,139.6s-21,50.7-21,50.7l9.5-44.2l56.9-141.4L213.1,86.3z"/>
						<polygon class="st5" points="193.4,46.7 205.6,87.5 188,101.9 183.5,102 196.3,57.7 						"/>
						<polygon class="st6" points="193.4,46.7 203.8,86.4 193.8,92.9 188.4,106.9 180.6,102 193.4,57.7 						"/>
					</g>
					<path class="st3" d="M173.7,30.4c0,0,14.7,4.9,18.4,13.3c3.7,8.5,10.3,42.2,10.3,42.2l-18.1,7.9c0,0,26.2-9.2,28.9-6.9
						c1.7,1.4,0.3,6.7-4.1,15.8c-3.2,6.6-32.6,94.6-45.6,123.4c-13.5,30-19.3,48.2-22.6,56.1c0,0-0.7-3.9,4.4-31.4
						s15.6-123.2,21.1-153c5.5-29.8,10.3-44.8,10.3-53.7S173.7,30.4,173.7,30.4z"/>
					<line class="st10" x1="171" y1="74.6" x2="184.2" y2="93.9"/>
				</g>
				<path class="st11" d="M202.4,95.3l-2.8,1c-0.8,0.2-1.6,0.5-2.3,0.9l-2.6,1.2c-0.2,0.1-0.1,0.5,0.2,0.4l2.7-0.9
					c0.8-0.2,1.5-0.5,2.3-0.9l2.8-1.3C202.8,95.6,202.6,95.3,202.4,95.3z"/>
			</g>
			<g>
				<g>
					<g>
						<g>
							<line class="st8" x1="203.7" y1="206.8" x2="203.7" y2="207.3"/>
							<line class="st12" x1="203.7" y1="209.3" x2="203.7" y2="312.7"/>
							<line class="st8" x1="203.7" y1="313.7" x2="203.7" y2="314.2"/>
						</g>
					</g>
					<g>
						<path class="st5" d="M195.4,317.9l-1.3,17.7c-0.6,10.1,4.2,13.2,9.2,13.2H258l-0.2-4.6L195.4,317.9z"/>
						<path class="st6" d="M195.4,317.3l-0.6,14.5c-0.6,10.1,2.8,15.7,8.6,15.7H258l-0.2-4.6L195.4,317.3z"/>
						<path class="st3" d="M195.4,321.7v-5.1h61.5l1.5,29.8h-53.7c-7.1,0-9.2-8.4-9.2-15.5l0,0V321.7z"/>
						<g>
							<g>
								<line class="st8" x1="195.8" y1="319.7" x2="196.3" y2="319.7"/>
								<line class="st13" x1="198.4" y1="319.7" x2="255.3" y2="319.7"/>
								<line class="st8" x1="256.3" y1="319.7" x2="256.8" y2="319.7"/>
							</g>
						</g>
					</g>
				</g>
				<g>
					<g>
						<g>
							<line class="st8" x1="96.6" y1="206.8" x2="96.6" y2="207.3"/>
							<line class="st12" x1="96.6" y1="209.3" x2="96.6" y2="312.7"/>
							<line class="st8" x1="96.6" y1="313.7" x2="96.6" y2="314.2"/>
						</g>
					</g>
					<g>
						<path class="st5" d="M104.9,317.9l1.3,17.7c0.6,10.1-4.2,13.2-9.2,13.2H42.3l0.2-4.6L104.9,317.9z"/>
						<path class="st6" d="M104.9,317.3l0.6,14.5c0.6,10.1-2.8,15.7-8.6,15.7H42.3l0.2-4.6L104.9,317.3z"/>
						<path class="st3" d="M104.9,321.7v-5.1H43.4l-1.5,29.8h53.7c7.1,0,9.2-8.4,9.2-15.5l0,0V321.7z"/>
						<g>
							<g>
								<line class="st8" x1="104.5" y1="319.7" x2="104" y2="319.7"/>
								<line class="st14" x1="102" y1="319.7" x2="45" y2="319.7"/>
								<line class="st8" x1="43.9" y1="319.7" x2="43.4" y2="319.7"/>
							</g>
						</g>
					</g>
				</g>
			</g>
			<g>
				<g id="XMLID_9577_">
					<circle id="XMLID_9592_" class="st5" cx="152.3" cy="288.3" r="6"/>
					<circle id="XMLID_9591_" class="st15" cx="152.4" cy="288" r="5.8"/>
					<polygon id="XMLID_9590_" class="st11" points="159.8,287.8 152.5,286.4 144.3,287.8 152.5,289.3 					"/>
					<circle id="XMLID_9589_" class="st16" cx="152.3" cy="287.3" r="5.8"/>
					<circle id="XMLID_9588_" class="st17" cx="152.3" cy="287.3" r="5"/>
					<circle id="XMLID_9587_" class="st18" cx="151.3" cy="285.9" r="0.7"/>
					<circle id="XMLID_9586_" class="st18" cx="153.1" cy="289.5" r="0.7"/>
					<line id="XMLID_9585_" class="st19" x1="151" y1="285.9" x2="152.8" y2="289.5"/>
					<line id="XMLID_9584_" class="st19" x1="151.5" y1="285.7" x2="153.2" y2="289.3"/>
					<line id="XMLID_9583_" class="st19" x1="151" y1="285.9" x2="152.8" y2="289.5"/>
					<line id="XMLID_9582_" class="st19" x1="151.5" y1="285.7" x2="153.2" y2="289.3"/>
					<circle id="XMLID_9581_" class="st18" cx="150.4" cy="288.6" r="0.7"/>
					<circle id="XMLID_9580_" class="st18" cx="154" cy="286.9" r="0.7"/>
					<line id="XMLID_9579_" class="st19" x1="150.4" y1="288.9" x2="154" y2="287.1"/>
					<line id="XMLID_9578_" class="st19" x1="150.2" y1="288.4" x2="153.8" y2="286.7"/>
				</g>
				<g id="XMLID_9561_">
					<circle id="XMLID_9576_" class="st5" cx="152.3" cy="353.9" r="6"/>
					<circle id="XMLID_9575_" class="st15" cx="152.4" cy="353.6" r="5.8"/>
					<polygon id="XMLID_9574_" class="st11" points="159.8,353.4 152.5,352 144.3,353.4 152.5,354.9 					"/>
					<circle id="XMLID_9573_" class="st16" cx="152.3" cy="352.9" r="5.8"/>
					<circle id="XMLID_9572_" class="st17" cx="152.3" cy="352.9" r="5"/>
					<circle id="XMLID_9571_" class="st18" cx="151.3" cy="351.5" r="0.7"/>
					<circle id="XMLID_9570_" class="st18" cx="153.1" cy="355.1" r="0.7"/>
					<line id="XMLID_9569_" class="st19" x1="151" y1="351.5" x2="152.8" y2="355.1"/>
					<line id="XMLID_9568_" class="st19" x1="151.5" y1="351.3" x2="153.2" y2="354.9"/>
					<line id="XMLID_9567_" class="st19" x1="151" y1="351.5" x2="152.8" y2="355.1"/>
					<line id="XMLID_9566_" class="st19" x1="151.5" y1="351.3" x2="153.2" y2="354.9"/>
					<circle id="XMLID_9565_" class="st18" cx="150.4" cy="354.2" r="0.7"/>
					<circle id="XMLID_9564_" class="st18" cx="154" cy="352.5" r="0.7"/>
					<line id="XMLID_9563_" class="st19" x1="150.4" y1="354.5" x2="154" y2="352.7"/>
					<line id="XMLID_9562_" class="st19" x1="150.2" y1="354" x2="153.8" y2="352.3"/>
				</g>
			</g>
			<g>
				<g>
					<g id="XMLID_15520_">
						<path class="st11" d="M318.6,402.7l-4.2,0.3l-4,1.2c-0.3,0.1-0.2,0.5,0.1,0.4l4.2-0.3l4-1.2
							C318.9,403.1,318.8,402.7,318.6,402.7z"/>
						<circle id="XMLID_15532_" class="st5" cx="315.9" cy="403.6" r="3.1"/>
						<circle id="XMLID_15531_" class="st15" cx="315.9" cy="403.5" r="3"/>
						<circle id="XMLID_15530_" class="st20" cx="315.9" cy="403.1" r="3"/>
						<circle id="XMLID_15529_" class="st17" cx="315.9" cy="403.1" r="2.6"/>
						<circle id="XMLID_15528_" class="st18" cx="315.4" cy="402.4" r="0.4"/>
						<circle id="XMLID_15527_" class="st18" cx="316.3" cy="404.3" r="0.4"/>
						<line id="XMLID_15526_" class="st21" x1="315.2" y1="402.4" x2="316.1" y2="404.3"/>
						<line id="XMLID_15525_" class="st21" x1="315.5" y1="402.3" x2="316.4" y2="404.2"/>
						<circle id="XMLID_15524_" class="st18" cx="314.9" cy="403.8" r="0.4"/>
						<circle id="XMLID_15523_" class="st18" cx="316.8" cy="402.9" r="0.4"/>
						<line id="XMLID_15522_" class="st21" x1="314.9" y1="404" x2="316.8" y2="403.1"/>
						<line id="XMLID_15521_" class="st21" x1="314.8" y1="403.7" x2="316.7" y2="402.8"/>
					</g>
					<g id="XMLID_15507_">
						<path class="st11" d="M317.3,395.8l-4.2,0.3l-4,1.2c-0.3,0.1-0.2,0.5,0.1,0.4l4.2-0.3l4-1.2
							C317.6,396.2,317.6,395.8,317.3,395.8z"/>
						<circle id="XMLID_15519_" class="st5" cx="314.6" cy="396.8" r="3.1"/>
						<circle id="XMLID_15518_" class="st15" cx="314.6" cy="396.6" r="3"/>
						<circle id="XMLID_15517_" class="st20" cx="314.6" cy="396.2" r="3"/>
						<circle id="XMLID_15516_" class="st17" cx="314.6" cy="396.2" r="2.6"/>
						<circle id="XMLID_15515_" class="st18" cx="314.1" cy="395.5" r="0.4"/>
						<circle id="XMLID_15514_" class="st18" cx="315" cy="397.4" r="0.4"/>
						<line id="XMLID_15513_" class="st21" x1="313.9" y1="395.5" x2="314.9" y2="397.4"/>
						<line id="XMLID_15512_" class="st21" x1="314.2" y1="395.4" x2="315.1" y2="397.3"/>
						<circle id="XMLID_15511_" class="st18" cx="313.6" cy="396.9" r="0.4"/>
						<circle id="XMLID_15510_" class="st18" cx="315.5" cy="396" r="0.4"/>
						<line id="XMLID_15509_" class="st21" x1="313.6" y1="397.1" x2="315.5" y2="396.2"/>
						<line id="XMLID_15508_" class="st21" x1="313.5" y1="396.8" x2="315.4" y2="395.9"/>
					</g>
					<g id="XMLID_15494_">
						<path class="st11" d="M319.8,409.6l-4.2,0.3l-4,1.2c-0.3,0.1-0.2,0.5,0.1,0.4l4.2-0.3l4-1.2
							C320.2,409.9,320.1,409.6,319.8,409.6z"/>
						<circle id="XMLID_15506_" class="st5" cx="317.2" cy="410.5" r="3.1"/>
						<circle id="XMLID_15505_" class="st15" cx="317.2" cy="410.4" r="3"/>
						<circle id="XMLID_15504_" class="st20" cx="317.2" cy="410" r="3"/>
						<circle id="XMLID_15503_" class="st17" cx="317.2" cy="410" r="2.6"/>
						<circle id="XMLID_15502_" class="st18" cx="316.7" cy="409.3" r="0.4"/>
						<circle id="XMLID_15501_" class="st18" cx="317.6" cy="411.2" r="0.4"/>
						<line id="XMLID_15500_" class="st21" x1="316.5" y1="409.3" x2="317.4" y2="411.2"/>
						<line id="XMLID_15499_" class="st21" x1="316.8" y1="409.2" x2="317.7" y2="411.1"/>
						<circle id="XMLID_15498_" class="st18" cx="316.2" cy="410.7" r="0.4"/>
						<circle id="XMLID_15497_" class="st18" cx="318" cy="409.8" r="0.4"/>
						<line id="XMLID_15496_" class="st21" x1="316.2" y1="410.8" x2="318" y2="409.9"/>
						<line id="XMLID_15495_" class="st21" x1="316.1" y1="410.6" x2="317.9" y2="409.7"/>
					</g>
					<g id="XMLID_15481_">
						<path class="st11" d="M321.1,416.5l-4.2,0.3l-4,1.2c-0.3,0.1-0.2,0.5,0.1,0.4l4.2-0.3l4-1.2
							C321.5,416.8,321.4,416.5,321.1,416.5z"/>
						<circle id="XMLID_15493_" class="st5" cx="318.4" cy="417.4" r="3.1"/>
						<circle id="XMLID_15492_" class="st15" cx="318.5" cy="417.3" r="3"/>
						<circle id="XMLID_15491_" class="st20" cx="318.4" cy="416.9" r="3"/>
						<circle id="XMLID_15490_" class="st17" cx="318.4" cy="416.9" r="2.6"/>
						<circle id="XMLID_15489_" class="st18" cx="317.9" cy="416.2" r="0.4"/>
						<circle id="XMLID_15488_" class="st18" cx="318.8" cy="418.1" r="0.4"/>
						<line id="XMLID_15487_" class="st21" x1="317.8" y1="416.2" x2="318.7" y2="418"/>
						<line id="XMLID_15486_" class="st21" x1="318" y1="416.1" x2="318.9" y2="417.9"/>
						<circle id="XMLID_15485_" class="st18" cx="317.5" cy="417.6" r="0.4"/>
						<circle id="XMLID_15484_" class="st18" cx="319.3" cy="416.7" r="0.4"/>
						<line id="XMLID_15483_" class="st21" x1="317.5" y1="417.7" x2="319.3" y2="416.8"/>
						<line id="XMLID_15482_" class="st21" x1="317.4" y1="417.5" x2="319.2" y2="416.6"/>
					</g>
				</g>
				<g>
					<g id="XMLID_15468_">
						<path class="st11" d="M-18.5,402.7l4.2,0.3l4,1.2c0.3,0.1,0.2,0.5-0.1,0.4l-4.2-0.3l-4-1.2C-18.8,403.1-18.7,402.7-18.5,402.7
							z"/>
						<circle id="XMLID_15480_" class="st5" cx="-15.8" cy="403.6" r="3.1"/>
						<circle id="XMLID_15479_" class="st15" cx="-15.8" cy="403.5" r="3"/>
						<circle id="XMLID_15478_" class="st20" cx="-15.8" cy="403.1" r="3"/>
						<circle id="XMLID_15477_" class="st17" cx="-15.8" cy="403.1" r="2.6"/>
						<circle id="XMLID_15476_" class="st18" cx="-15.3" cy="402.4" r="0.4"/>
						<circle id="XMLID_15475_" class="st18" cx="-16.2" cy="404.3" r="0.4"/>
						<line id="XMLID_15474_" class="st21" x1="-15.1" y1="402.4" x2="-16" y2="404.3"/>
						<line id="XMLID_15473_" class="st21" x1="-15.4" y1="402.3" x2="-16.3" y2="404.2"/>
						<circle id="XMLID_15472_" class="st18" cx="-14.8" cy="403.8" r="0.4"/>
						<circle id="XMLID_15471_" class="st18" cx="-16.7" cy="402.9" r="0.4"/>
						<line id="XMLID_15470_" class="st21" x1="-14.8" y1="404" x2="-16.6" y2="403.1"/>
						<line id="XMLID_15469_" class="st21" x1="-14.7" y1="403.7" x2="-16.5" y2="402.8"/>
					</g>
					<g id="XMLID_15455_">
						<path class="st11" d="M-17.2,395.8l4.2,0.3l4,1.2c0.3,0.1,0.2,0.5-0.1,0.4l-4.2-0.3l-4-1.2C-17.5,396.2-17.4,395.8-17.2,395.8
							z"/>
						<circle id="XMLID_15467_" class="st5" cx="-14.5" cy="396.8" r="3.1"/>
						<circle id="XMLID_15466_" class="st15" cx="-14.5" cy="396.6" r="3"/>
						<circle id="XMLID_15465_" class="st20" cx="-14.5" cy="396.2" r="3"/>
						<circle id="XMLID_15464_" class="st17" cx="-14.5" cy="396.2" r="2.6"/>
						<circle id="XMLID_15463_" class="st18" cx="-14" cy="395.5" r="0.4"/>
						<circle id="XMLID_15462_" class="st18" cx="-14.9" cy="397.4" r="0.4"/>
						<line id="XMLID_15461_" class="st21" x1="-13.8" y1="395.5" x2="-14.7" y2="397.4"/>
						<line id="XMLID_15460_" class="st21" x1="-14.1" y1="395.4" x2="-15" y2="397.3"/>
						<circle id="XMLID_15459_" class="st18" cx="-13.5" cy="396.9" r="0.4"/>
						<circle id="XMLID_15458_" class="st18" cx="-15.4" cy="396" r="0.4"/>
						<line id="XMLID_15457_" class="st21" x1="-13.5" y1="397.1" x2="-15.4" y2="396.2"/>
						<line id="XMLID_15456_" class="st21" x1="-13.4" y1="396.8" x2="-15.3" y2="395.9"/>
					</g>
					<g id="XMLID_15442_">
						<path class="st11" d="M-19.7,409.6l4.2,0.3l4,1.2c0.3,0.1,0.2,0.5-0.1,0.4l-4.2-0.3l-4-1.2C-20.1,409.9-20,409.6-19.7,409.6z"
							/>
						<circle id="XMLID_15454_" class="st5" cx="-17" cy="410.5" r="3.1"/>
						<circle id="XMLID_15453_" class="st15" cx="-17.1" cy="410.4" r="3"/>
						<circle id="XMLID_15452_" class="st20" cx="-17" cy="410" r="3"/>
						<circle id="XMLID_15451_" class="st17" cx="-17" cy="410" r="2.6"/>
						<circle id="XMLID_15450_" class="st18" cx="-16.5" cy="409.3" r="0.4"/>
						<circle id="XMLID_15449_" class="st18" cx="-17.5" cy="411.2" r="0.4"/>
						<line id="XMLID_15448_" class="st21" x1="-16.4" y1="409.3" x2="-17.3" y2="411.2"/>
						<line id="XMLID_15447_" class="st21" x1="-16.6" y1="409.2" x2="-17.6" y2="411.1"/>
						<circle id="XMLID_15446_" class="st18" cx="-16.1" cy="410.7" r="0.4"/>
						<circle id="XMLID_15445_" class="st18" cx="-17.9" cy="409.8" r="0.4"/>
						<line id="XMLID_15444_" class="st21" x1="-16.1" y1="410.8" x2="-17.9" y2="409.9"/>
						<line id="XMLID_15443_" class="st21" x1="-16" y1="410.6" x2="-17.8" y2="409.7"/>
					</g>
					<g id="XMLID_15429_">
						<path class="st11" d="M-21,416.5l4.2,0.3l4,1.2c0.3,0.1,0.2,0.5-0.1,0.4l-4.2-0.3l-4-1.2C-21.4,416.8-21.3,416.5-21,416.5z"/>
						<circle id="XMLID_15441_" class="st5" cx="-18.3" cy="417.4" r="3.1"/>
						<circle id="XMLID_15440_" class="st15" cx="-18.4" cy="417.3" r="3"/>
						<circle id="XMLID_15439_" class="st20" cx="-18.3" cy="416.9" r="3"/>
						<circle id="XMLID_15438_" class="st17" cx="-18.3" cy="416.9" r="2.6"/>
						<circle id="XMLID_15437_" class="st18" cx="-17.8" cy="416.2" r="0.4"/>
						<circle id="XMLID_15436_" class="st18" cx="-18.7" cy="418.1" r="0.4"/>
						<line id="XMLID_15435_" class="st21" x1="-17.7" y1="416.2" x2="-18.6" y2="418"/>
						<line id="XMLID_15434_" class="st21" x1="-17.9" y1="416.1" x2="-18.8" y2="417.9"/>
						<circle id="XMLID_15433_" class="st18" cx="-17.4" cy="417.6" r="0.4"/>
						<circle id="XMLID_15432_" class="st18" cx="-19.2" cy="416.7" r="0.4"/>
						<line id="XMLID_15431_" class="st21" x1="-17.4" y1="417.7" x2="-19.2" y2="416.8"/>
						<line id="XMLID_15430_" class="st21" x1="-17.3" y1="417.5" x2="-19.1" y2="416.6"/>
					</g>
				</g>
			</g>
		</g>
	</g>
	<g id="XMLID_1_" class="st0">
		<defs>
			<rect id="XMLID_4932_" x="-13.5" width="327.1" height="300"/>
		</defs>
		<clipPath id="XMLID_4_">
			<use xlink:href="#XMLID_4932_"  style="overflow:visible;"/>
		</clipPath>
	</g>
	<g class="st0">
		<path class="st22" d="M150.1,4.6c38.7,0,75.1,15.1,102.5,42.5c27.4,27.4,42.5,63.8,42.5,102.5s-15.1,75.1-42.5,102.5
			c-27.4,27.4-63.8,42.5-102.5,42.5S75,279.5,47.6,252.1C20.2,224.7,5.1,188.3,5.1,149.6S20.2,74.5,47.6,47.1
			C75,19.7,111.4,4.6,150.1,4.6 M150.1-0.4c-82.8,0-150,67.2-150,150s67.2,150,150,150s150-67.2,150-150S232.9-0.4,150.1-0.4
			L150.1-0.4z"/>
	</g>
</g>
</svg>
