<?xml version="1.0" encoding="utf-8"?>
<!-- Generator: Adobe Illustrator 19.0.0, SVG Export Plug-In . SVG Version: 6.00 Build 0)  -->
<svg version="1.1" id="Layer_1" xmlns="http://www.w3.org/2000/svg" xmlns:xlink="http://www.w3.org/1999/xlink" x="0px" y="0px"
	 viewBox="0 0 300 300" style="enable-background:new 0 0 300 300;" xml:space="preserve">
<style type="text/css">
	.st0{clip-path:url(#SVGID_2_);}
	.st1{clip-path:url(#XMLID_3_);}
	.st2{fill:#F1F1F2;stroke:#404041;stroke-miterlimit:10;}
	.st3{fill:#FFFFFF;stroke:#404041;stroke-miterlimit:10;}
	.st4{fill:#929497;}
	.st5{fill:#F1F1F2;}
	.st6{fill:#C5C7C9;}
	.st7{fill:none;stroke:#404041;stroke-miterlimit:10;}
	.st8{fill:none;stroke:#808184;stroke-width:0.5;stroke-miterlimit:10;}
	.st9{fill:none;stroke:#808184;stroke-width:0.5;stroke-miterlimit:10;stroke-dasharray:0.9993,1.9985;}
	.st10{fill:none;stroke:#808184;stroke-width:0.5;stroke-miterlimit:10;stroke-dasharray:1,2;}
	.st11{fill:#FFFFFF;stroke:#404041;stroke-linejoin:round;stroke-miterlimit:10;}
	.st12{fill:none;stroke:#808184;stroke-width:0.5;stroke-miterlimit:10;stroke-dasharray:0.9943,1.9886;}
	.st13{fill:none;stroke:#808184;stroke-width:0.5;stroke-miterlimit:10;stroke-dasharray:1.0166,2.0331;}
	.st14{fill:none;stroke:#808184;stroke-width:0.5;stroke-miterlimit:10;stroke-dasharray:1.0177,2.0353;}
	.st15{fill:#DBDCDD;}
	.st16{fill:#404041;stroke:#D0D2D3;stroke-width:0.5;stroke-miterlimit:10;}
	.st17{fill:#FFFFFF;stroke:#6D6E70;stroke-miterlimit:10;}
	.st18{fill:#FFFFFF;stroke:#929497;stroke-width:0.25;stroke-miterlimit:10;}
	.st19{fill:#404041;}
	.st20{fill:none;stroke:#6D6E70;stroke-width:0.5;stroke-miterlimit:10;}
	.st21{fill:#FFFFFF;stroke:#6D6E70;stroke-width:0.5;stroke-miterlimit:10;}
	.st22{fill:none;stroke:#6D6E70;stroke-width:0.25;stroke-miterlimit:10;}
	.st23{fill:#9AA0BB;}
</style>
<g>
	<defs>
		<circle id="SVGID_1_" cx="150.1" cy="149.6" r="150"/>
	</defs>
	<use xlink:href="#SVGID_1_"  style="overflow:visible;fill:#DDDDDD;"/>
	<clipPath id="SVGID_2_">
		<use xlink:href="#SVGID_1_"  style="overflow:visible;"/>
	</clipPath>
	<g id="XMLID_254_" class="st0">
		<defs>
			<rect id="XMLID_4044_" x="-13.5" width="327.1" height="300"/>
		</defs>
		<clipPath id="XMLID_3_">
			<use xlink:href="#XMLID_4044_"  style="overflow:visible;"/>
		</clipPath>
		<g class="st1">
			<g>
				<g>
					<polygon class="st2" points="174.4,35.3 184.3,46.4 149.7,224.6 115.5,46.4 125,35.3 					"/>
					<path class="st3" d="M174.8,30c0,0,0.1-0.6-24.9-0.6c-0.1,0-0.2,0-0.3,0c-0.1,0-0.2,0-0.3,0c-25,0-24.9,0.6-24.9,0.6l-3,10.9
						c0,0,4.1,1,13.9,1.4c3.8,0.2,8.8,0.3,14.4,0.3c5.7,0,10.1-0.1,13.9-0.3c9.9-0.4,13.9-1.4,13.9-1.4L174.8,30z"/>
					<g>
						<path class="st4" d="M129.1,29.7c0,0-2.6,2.9-2.4,6.6c0.2,3.7,0.4,4.9,0.4,4.9l-4.5-0.3l2.1-10.8L129.1,29.7z"/>
						<path class="st5" d="M130.1,29.6c-0.7,0-1.3,0-1.8,0.1c-1.5,2.4-1.5,9.3-1.4,11.8c0.8,0.1,1.7,0.1,2.7,0.2
							c-0.2-0.7-0.4-2.3-0.4-5.1C129.2,33.2,129.8,30.7,130.1,29.6z"/>
						<path class="st6" d="M128.5,29.7c-0.4,0-0.7,0-1,0c-0.6,0.5-1.2,1.4-1.4,2.9c-0.3,3.1-0.4,7-0.5,8.8c0.8,0.1,1.7,0.2,2.7,0.2
							C127.9,39,127.1,32,128.5,29.7z"/>
					</g>
					<g>
						<path class="st4" d="M170.1,29.7c0,0,2.6,2.9,2.4,6.6c-0.2,3.7-0.4,4.9-0.4,4.9l4.3,0.2L174.6,30L170.1,29.7z"/>
						<path class="st5" d="M169,29.6c0.7,0,1.3,0,1.8,0.1c1.5,2.4,1.5,9.3,1.4,11.8c-0.8,0.1-1.7,0.1-2.7,0.2
							c0.2-0.7,0.4-2.3,0.4-5.1C169.9,33.2,169.3,30.7,169,29.6z"/>
						<path class="st6" d="M170.6,29.7c0.4,0,0.7,0,1,0c0.6,0.5,1.2,1.4,1.4,2.9c0.3,3.1,0.4,7,0.5,8.8c-0.8,0.1-1.7,0.2-2.7,0.2
							C171.2,39,172.1,32,170.6,29.7z"/>
					</g>
					<path class="st7" d="M174.8,30c0,0,0.1-0.6-24.9-0.6c-0.1,0-0.2,0-0.3,0c-0.1,0-0.2,0-0.3,0c-25,0-24.9,0.6-24.9,0.6l-3,10.9
						c0,0,4.1,1,13.9,1.4c3.8,0.2,8.8,0.3,14.4,0.3c5.7,0,10.1-0.1,13.9-0.3c9.9-0.4,13.9-1.4,13.9-1.4L174.8,30z"/>
					<g>
						<polygon class="st4" points="126.3,63.9 149.9,175.8 173,63.9 157.9,195.1 149.1,221.3 142.2,193.9 						"/>
						<polygon class="st6" points="149.7,195.9 173.6,58.9 149.9,175.2 125.8,58.9 						"/>
					</g>
					<g>
						<g>
							<line class="st8" x1="149.9" y1="44" x2="149.9" y2="44.5"/>
							<line class="st9" x1="149.9" y1="46.5" x2="149.9" y2="198.4"/>
							<line class="st8" x1="149.9" y1="199.4" x2="149.9" y2="199.9"/>
						</g>
					</g>
					<path class="st4" d="M137,46.7l0.9,0.9c0,0,6.5-0.5,12-0.5c5.5,0,12.4,0.5,12.4,0.5l0.6-0.9H137z"/>
					<path class="st6" d="M137.7,47.4l0.7,0.7c0,0,6.1-0.5,11.5-0.5c5.4,0,12.2,0.5,12.2,0.5l0.4-0.7l-12.5-0.2L137.7,47.4z"/>
					<path class="st3" d="M149.9,42.5c-5.7,0-10.4,0-14.3-0.2l1.6,4.4h12.6h0.1h12.6l1.6-4.4C160.4,42.5,155.6,42.5,149.9,42.5z"/>
				</g>
				<path class="st2" d="M162.6,437.7c0-0.7,0-25.3,0-25.3h-25.4v25.3H162.6z"/>
				<g>
					<polygon class="st4" points="150.1,421.8 140.3,443.8 149.9,408.7 159.9,444.2 					"/>
					<polygon class="st6" points="149.9,426.2 140.3,443.8 149.9,418.8 159.9,444.2 					"/>
				</g>
				<path class="st3" d="M163.5,289.1c-2.3-52.5-4.9-38.4-4.9-38.4l-4.5-37.8l-6.7,9c-5.4-27.1-14.2-71.9-15.5-81.1
					c-2.2-14.9-8.8-67.7-8.8-67.7c-4.5-28.7,2-43,2-43s-21.6,12.3-26,15.2c-2.3,1.5-22.2,10.3-39.2,18.1C39.3,72.9,36.5,78,36.5,78
					c15.9,9.8,19.2,45.2,19.5,86.6c0.3,41.5-11.2,112.2-12.6,149c-1.5,38.2-9.3,132-9.3,132s68.2,17.4,86.9,12.3
					c18.6-5.1,20.1-15.6,23.8-25.2l5.5-19.2C150.1,413.5,165.8,341.6,163.5,289.1z"/>
				<g>
					<path class="st5" d="M56.2,239.3c6-41.1,3.4-74.1-0.7-99.9c0.8,5.1,1.2,14.1,1.3,15.4c0.7,8.7,1.4,17.7,1.2,26.4
						c-0.2,18.2-1.5,39.1-4.8,62c-2.8,19.6-4.9,28.3-6.4,31.7c-0.3,2.8-0.6,5.5-0.8,8.2C49.7,282.9,52.3,265.7,56.2,239.3z"/>
					<path class="st6" d="M52.5,222.6c-1.8,17.7-3.9,35.8-5.7,52.3c1.5-3.4,3.6-12.1,6.4-31.7c3.3-22.9,4.9-41.7,4.9-72.4l0-0.1
						c0.3-11.1-2.7-31.8-2.7-30.9C57.1,164.5,54.2,207.9,52.5,222.6z"/>
				</g>
				<path class="st3" d="M55.9,164.6c-0.3-38.9-3.2-72.4-16.6-84.5l-2.8-1.6c0,0-4.3-1.4-8.8,19.9C23.1,119.7-25,422.2-25,422.2
					s8,7,24.6,7.6s25-3.5,25-3.5l26.1-188.7C53.5,211.2,56.1,184.5,55.9,164.6z"/>
				<g>
					<path class="st5" d="M150.1,198c0,0-15.4,46-15.4,109.5S149.9,416,149.9,416l0.1-77.5l3.1-135L150.1,198z"/>
					<path class="st6" d="M152.7,198c0,0-15.7,44-15.7,107.5S149.9,416,149.9,416l2.8-77.5l3.1-135L152.7,198z"/>
				</g>
				<g>
					<path class="st3" d="M244.1,164.6c0.3-41.5,3.6-76.8,19.5-86.6c0,0-2.9-5.1-23.5-14.6c-19.4-9-35.7-16-42.1-19.7
						c-0.4-0.2-0.8-0.4-1.1-0.6c-5.5-3.4-22.1-13.1-22.1-13.1s3.8,14.9-0.6,43.7c0,0-6.6,47.4-8.8,62.3
						c-2.2,14.9-17.3,94.2-19.3,106.1c-0.5,3.1-1,6-1.4,8.6c-0.9,5.7-1.6,10.9-1.9,12.7c-0.5,6-2.8,13.5-3.4,25.7
						c-2.3,52.5,10.5,124.4,10.5,124.4l5.7,19.4c3.7,9.7,4.9,19.9,23.6,25c18.6,5.1,84.4-12.3,84.4-12.3s-5.4-93.8-6.9-132
						C255.3,276.8,243.8,206.1,244.1,164.6z"/>
				</g>
				<g>
					<path class="st5" d="M243.8,239.3c-6-41.1-3.4-74.1,0.7-99.9c-0.8,5.1-1.2,14.1-1.3,15.4c-0.7,8.7-1.4,17.7-1.2,26.4
						c0.2,18.2,1.5,39.1,4.8,62c2.8,19.6,4.9,28.3,6.4,31.7c0.3,2.8,0.6,5.5,0.8,8.2C250.2,282.9,247.6,265.7,243.8,239.3z"/>
					<path class="st6" d="M247.5,222.6c1.8,17.7,3.9,35.8,5.7,52.3c-1.5-3.4-3.6-12.1-6.4-31.7c-3.3-22.9-4.9-41.7-4.9-72.4l0-0.1
						c-0.3-11.1,2.7-31.8,2.7-30.9C242.9,164.5,245.7,207.9,247.5,222.6z"/>
				</g>
				<path class="st3" d="M272.4,97.8c-4.5-21.3-8.8-19.9-8.8-19.9l0,0c-15.9,9.8-19.2,45.2-19.5,86.6c-0.1,19.3,2.3,45,5,70.6
					l26.3,190.6c0,0,8.4,4.1,25,3.5c16.6-0.6,24.6-7.6,24.6-7.6S276.9,119.2,272.4,97.8z"/>
			</g>
			<g>
				<polygon class="st5" points="233.5,168.7 233.5,166.2 174.1,167.9 174.1,170.4 				"/>
				<polygon class="st6" points="233.5,169.7 233.5,167.2 174.1,168.9 174.1,171.4 				"/>
				<path class="st3" d="M233.3,168.3v13.7c0,0.5-0.4,0.9-0.9,0.9l-56.8,1.2c-0.5,0-0.9-0.4-0.9-0.9V170L233.3,168.3z"/>
				<line class="st10" x1="174.8" y1="170.6" x2="233.3" y2="168.9"/>
			</g>
			<g>
				<g>
					<g>
						<path class="st5" d="M100.2,43.6C97,45,95.9,46.5,95.7,50c0,0-0.8,14.9,1.1,28.8c10.1,72.5,37.7,153.7,46,170.3
							c2.1,4.1,3.5,6.2,5.8,1.6c4.6-9.1,5.7-6.1,5.7-6.1l-2.2-8.5L103.7,42L100.2,43.6z"/>
						<path class="st6" d="M105.3,42.9c0,0-4.5-0.4-6.4,2.1c-1.2,1.6-1.6,4.3-1.5,6.2c0.5,64.4,33.2,165.7,45,194.7
							c2,5,2.8,10.2,5.2,15c2.2,4.3,5.2-5.8,5.2-5.8l-2.9-17.4L111.5,88.8L105.3,42.9z"/>
					</g>
					<path class="st11" d="M126.4,29.4c0,0-24.9,11.1-26.1,14.2c-4.2,11.5,4.5,71.3,23.9,144.4c7.2,27.4,15.2,51.4,22.2,67.3
						c1,2.2,8.3-5.2,7.8-8.1c-0.6-3.2-0.6-4.1-1.4-9c-5.9-36.9-29.3-186.2-29.3-195.1S126.4,29.4,126.4,29.4z"/>
					<g>
						<polygon class="st5" points="148.9,214.7 142.1,243.7 144.2,249.5 149.5,224.6 						"/>
						<polygon class="st6" points="149.8,217.3 143,246.4 145.1,252.2 150.4,227.3 						"/>
					</g>
					<g>
						<path class="st5" d="M199.8,44.4c3.2,1.4,4.3,2.9,4.4,6.4c0,0,0.8,14.9-1.1,28.8c-10.1,72.5-36,152.9-44.4,169.5
							c-8.3,16.5-18.5,33.4-18.5,33.4l10-44.8l46.1-194.8L199.8,44.4z"/>
						<path class="st6" d="M194.7,43.7c0,0,4.5-0.4,6.4,2.1c1.2,1.6,1.6,4.3,1.5,6.2c-0.5,64.4-32.4,164.9-44.2,193.9
							c-6.9,17.2-18.6,36-18.6,36l9.5-44.2l37.5-148.9L194.7,43.7z"/>
					</g>
					<path class="st11" d="M172.8,29.4c0,0,25.8,11.9,26.9,15c4.2,11.5-4.5,71.3-23.9,144.4c-14.3,53.9-34.3,89.2-35.9,93
						c0,0-0.7-3.9,4.4-31.4s31.4-198.6,31.4-207.4S172.8,29.4,172.8,29.4z"/>
				</g>
			</g>
			<g>
				<g>
					<g>
						<g>
							<line class="st8" x1="203.9" y1="206.4" x2="203.9" y2="206.9"/>
							<line class="st12" x1="203.9" y1="208.9" x2="203.9" y2="312.3"/>
							<line class="st8" x1="203.9" y1="313.3" x2="203.9" y2="313.8"/>
						</g>
					</g>
					<g>
						<path class="st5" d="M195.6,317.5l-1.3,17.7c-0.6,10.1,4.2,13.2,9.2,13.2h54.7l-0.2-4.6L195.6,317.5z"/>
						<path class="st6" d="M195.6,316.9l-0.6,14.5c-0.6,10.1,2.8,15.7,8.6,15.7h54.6l-0.2-4.6L195.6,316.9z"/>
						<path class="st3" d="M195.6,321.3v-5.1h61.5l1.5,29.8h-53.7c-7.1,0-9.2-8.4-9.2-15.5l0,0V321.3z"/>
						<g>
							<g>
								<line class="st8" x1="196.1" y1="319.3" x2="196.6" y2="319.3"/>
								<line class="st13" x1="198.6" y1="319.3" x2="255.6" y2="319.3"/>
								<line class="st8" x1="256.6" y1="319.3" x2="257.1" y2="319.3"/>
							</g>
						</g>
					</g>
				</g>
				<g>
					<g>
						<g>
							<line class="st8" x1="96.9" y1="206.4" x2="96.9" y2="206.9"/>
							<line class="st12" x1="96.9" y1="208.9" x2="96.9" y2="312.3"/>
							<line class="st8" x1="96.9" y1="313.3" x2="96.9" y2="313.8"/>
						</g>
					</g>
					<g>
						<path class="st5" d="M105.2,317.5l1.3,17.7c0.6,10.1-4.2,13.2-9.2,13.2H42.6l0.2-4.6L105.2,317.5z"/>
						<path class="st6" d="M105.2,316.9l0.6,14.5c0.6,10.1-2.8,15.7-8.6,15.7H42.6l0.2-4.6L105.2,316.9z"/>
						<path class="st3" d="M105.2,321.3v-5.1H43.7l-1.5,29.8h53.7c7.1,0,9.2-8.4,9.2-15.5l0,0V321.3z"/>
						<g>
							<g>
								<line class="st8" x1="104.8" y1="319.3" x2="104.3" y2="319.3"/>
								<line class="st14" x1="102.2" y1="319.3" x2="45.2" y2="319.3"/>
								<line class="st8" x1="44.2" y1="319.3" x2="43.7" y2="319.3"/>
							</g>
						</g>
					</g>
				</g>
			</g>
			<g>
				<g id="XMLID_9481_">
					<circle id="XMLID_9496_" class="st5" cx="152.9" cy="291.2" r="6"/>
					<circle id="XMLID_9495_" class="st15" cx="153" cy="291" r="5.8"/>
					<polygon id="XMLID_9494_" class="st16" points="160.4,290.8 153.1,289.3 144.9,290.8 153.2,292.2 					"/>
					<circle id="XMLID_9493_" class="st17" cx="152.9" cy="290.2" r="5.8"/>
					<circle id="XMLID_9492_" class="st18" cx="152.9" cy="290.2" r="5"/>
					<circle id="XMLID_9491_" class="st19" cx="151.9" cy="288.9" r="0.7"/>
					<circle id="XMLID_9490_" class="st19" cx="153.7" cy="292.5" r="0.7"/>
					<line id="XMLID_9489_" class="st20" x1="151.7" y1="288.9" x2="153.4" y2="292.5"/>
					<line id="XMLID_9488_" class="st20" x1="152.1" y1="288.7" x2="153.9" y2="292.3"/>
					<line id="XMLID_9487_" class="st20" x1="151.7" y1="288.9" x2="153.4" y2="292.5"/>
					<line id="XMLID_9486_" class="st20" x1="152.1" y1="288.7" x2="153.9" y2="292.3"/>
					<circle id="XMLID_9485_" class="st19" cx="151" cy="291.6" r="0.7"/>
					<circle id="XMLID_9484_" class="st19" cx="154.6" cy="289.8" r="0.7"/>
					<line id="XMLID_9483_" class="st20" x1="151" y1="291.8" x2="154.6" y2="290.1"/>
					<line id="XMLID_9482_" class="st20" x1="150.8" y1="291.4" x2="154.4" y2="289.6"/>
				</g>
				<g id="XMLID_9465_">
					<circle id="XMLID_9480_" class="st5" cx="152.9" cy="356.8" r="6"/>
					<circle id="XMLID_9479_" class="st15" cx="153" cy="356.6" r="5.8"/>
					<polygon id="XMLID_9478_" class="st16" points="160.4,356.4 153.1,354.9 144.9,356.4 153.2,357.8 					"/>
					<circle id="XMLID_9477_" class="st17" cx="152.9" cy="355.8" r="5.8"/>
					<circle id="XMLID_9476_" class="st18" cx="152.9" cy="355.8" r="5"/>
					<circle id="XMLID_9475_" class="st19" cx="151.9" cy="354.5" r="0.7"/>
					<circle id="XMLID_9474_" class="st19" cx="153.7" cy="358.1" r="0.7"/>
					<line id="XMLID_9473_" class="st20" x1="151.7" y1="354.5" x2="153.4" y2="358.1"/>
					<line id="XMLID_9472_" class="st20" x1="152.1" y1="354.3" x2="153.9" y2="357.9"/>
					<line id="XMLID_9471_" class="st20" x1="151.7" y1="354.5" x2="153.4" y2="358.1"/>
					<line id="XMLID_9470_" class="st20" x1="152.1" y1="354.3" x2="153.9" y2="357.9"/>
					<circle id="XMLID_9469_" class="st19" cx="151" cy="357.2" r="0.7"/>
					<circle id="XMLID_9468_" class="st19" cx="154.6" cy="355.4" r="0.7"/>
					<line id="XMLID_9467_" class="st20" x1="151" y1="357.4" x2="154.6" y2="355.7"/>
					<line id="XMLID_9466_" class="st20" x1="150.8" y1="357" x2="154.4" y2="355.2"/>
				</g>
			</g>
			<g>
				<g>
					<g id="XMLID_14714_">
						<path class="st16" d="M318.9,402.3l-4.2,0.3l-4,1.2c-0.3,0.1-0.2,0.5,0.1,0.4l4.2-0.3l4-1.2
							C319.3,402.7,319.2,402.3,318.9,402.3z"/>
						<circle id="XMLID_14726_" class="st5" cx="316.2" cy="403.2" r="3.1"/>
						<circle id="XMLID_14725_" class="st15" cx="316.3" cy="403.1" r="3"/>
						<circle id="XMLID_14724_" class="st21" cx="316.2" cy="402.7" r="3"/>
						<circle id="XMLID_14723_" class="st18" cx="316.2" cy="402.7" r="2.6"/>
						<circle id="XMLID_14722_" class="st19" cx="315.7" cy="402" r="0.4"/>
						<circle id="XMLID_14721_" class="st19" cx="316.6" cy="403.9" r="0.4"/>
						<line id="XMLID_14720_" class="st22" x1="315.6" y1="402" x2="316.5" y2="403.9"/>
						<line id="XMLID_14719_" class="st22" x1="315.8" y1="401.9" x2="316.7" y2="403.8"/>
						<circle id="XMLID_14718_" class="st19" cx="315.2" cy="403.4" r="0.4"/>
						<circle id="XMLID_14717_" class="st19" cx="317.1" cy="402.5" r="0.4"/>
						<line id="XMLID_14716_" class="st22" x1="315.2" y1="403.6" x2="317.1" y2="402.7"/>
						<line id="XMLID_14715_" class="st22" x1="315.1" y1="403.3" x2="317" y2="402.4"/>
					</g>
					<g id="XMLID_14701_">
						<path class="st16" d="M317.6,395.4l-4.2,0.3l-4,1.2c-0.3,0.1-0.2,0.5,0.1,0.4l4.2-0.3l4-1.2
							C318,395.8,317.9,395.4,317.6,395.4z"/>
						<circle id="XMLID_14713_" class="st5" cx="314.9" cy="396.4" r="3.1"/>
						<circle id="XMLID_14712_" class="st15" cx="315" cy="396.2" r="3"/>
						<circle id="XMLID_14711_" class="st21" cx="314.9" cy="395.8" r="3"/>
						<circle id="XMLID_14710_" class="st18" cx="314.9" cy="395.8" r="2.6"/>
						<circle id="XMLID_14709_" class="st19" cx="314.4" cy="395.1" r="0.4"/>
						<circle id="XMLID_14708_" class="st19" cx="315.4" cy="397" r="0.4"/>
						<line id="XMLID_14707_" class="st22" x1="314.3" y1="395.1" x2="315.2" y2="397"/>
						<line id="XMLID_14706_" class="st22" x1="314.5" y1="395" x2="315.4" y2="396.9"/>
						<circle id="XMLID_14705_" class="st19" cx="314" cy="396.5" r="0.4"/>
						<circle id="XMLID_14704_" class="st19" cx="315.8" cy="395.6" r="0.4"/>
						<line id="XMLID_14703_" class="st22" x1="314" y1="396.7" x2="315.8" y2="395.8"/>
						<line id="XMLID_14702_" class="st22" x1="313.9" y1="396.4" x2="315.7" y2="395.5"/>
					</g>
					<g id="XMLID_14688_">
						<path class="st16" d="M320.2,409.2l-4.2,0.3l-4,1.2c-0.3,0.1-0.2,0.5,0.1,0.4l4.2-0.3l4-1.2
							C320.5,409.6,320.5,409.2,320.2,409.2z"/>
						<circle id="XMLID_14700_" class="st5" cx="317.5" cy="410.1" r="3.1"/>
						<circle id="XMLID_14699_" class="st15" cx="317.6" cy="410" r="3"/>
						<circle id="XMLID_14698_" class="st21" cx="317.5" cy="409.6" r="3"/>
						<circle id="XMLID_14697_" class="st18" cx="317.5" cy="409.6" r="2.6"/>
						<circle id="XMLID_14696_" class="st19" cx="317" cy="408.9" r="0.4"/>
						<circle id="XMLID_14695_" class="st19" cx="317.9" cy="410.8" r="0.4"/>
						<line id="XMLID_14694_" class="st22" x1="316.9" y1="408.9" x2="317.8" y2="410.8"/>
						<line id="XMLID_14693_" class="st22" x1="317.1" y1="408.8" x2="318" y2="410.7"/>
						<circle id="XMLID_14692_" class="st19" cx="316.5" cy="410.3" r="0.4"/>
						<circle id="XMLID_14691_" class="st19" cx="318.4" cy="409.4" r="0.4"/>
						<line id="XMLID_14690_" class="st22" x1="316.5" y1="410.4" x2="318.4" y2="409.5"/>
						<line id="XMLID_14689_" class="st22" x1="316.4" y1="410.2" x2="318.3" y2="409.3"/>
					</g>
					<g id="XMLID_14675_">
						<path class="st16" d="M321.5,416.1l-4.2,0.3l-4,1.2c-0.3,0.1-0.2,0.5,0.1,0.4l4.2-0.3l4-1.2
							C321.8,416.4,321.7,416.1,321.5,416.1z"/>
						<circle id="XMLID_14687_" class="st5" cx="318.8" cy="417" r="3.1"/>
						<circle id="XMLID_14686_" class="st15" cx="318.8" cy="416.9" r="3"/>
						<circle id="XMLID_14685_" class="st21" cx="318.8" cy="416.5" r="3"/>
						<circle id="XMLID_14684_" class="st18" cx="318.8" cy="416.5" r="2.6"/>
						<circle id="XMLID_14683_" class="st19" cx="318.3" cy="415.8" r="0.4"/>
						<circle id="XMLID_14682_" class="st19" cx="319.2" cy="417.7" r="0.4"/>
						<line id="XMLID_14681_" class="st22" x1="318.1" y1="415.8" x2="319" y2="417.6"/>
						<line id="XMLID_14680_" class="st22" x1="318.4" y1="415.7" x2="319.3" y2="417.5"/>
						<circle id="XMLID_14679_" class="st19" cx="317.8" cy="417.2" r="0.4"/>
						<circle id="XMLID_14678_" class="st19" cx="319.7" cy="416.3" r="0.4"/>
						<line id="XMLID_14677_" class="st22" x1="317.8" y1="417.3" x2="319.7" y2="416.4"/>
						<line id="XMLID_14676_" class="st22" x1="317.7" y1="417.1" x2="319.6" y2="416.2"/>
					</g>
				</g>
				<g>
					<g id="XMLID_14662_">
						<path class="st16" d="M-18.1,402.3l4.2,0.3l4,1.2c0.3,0.1,0.2,0.5-0.1,0.4l-4.2-0.3l-4-1.2C-18.4,402.7-18.4,402.3-18.1,402.3
							z"/>
						<circle id="XMLID_14674_" class="st5" cx="-15.4" cy="403.2" r="3.1"/>
						<circle id="XMLID_14673_" class="st15" cx="-15.5" cy="403.1" r="3"/>
						<circle id="XMLID_14672_" class="st21" cx="-15.4" cy="402.7" r="3"/>
						<circle id="XMLID_14671_" class="st18" cx="-15.4" cy="402.7" r="2.6"/>
						<circle id="XMLID_14670_" class="st19" cx="-14.9" cy="402" r="0.4"/>
						<circle id="XMLID_14669_" class="st19" cx="-15.8" cy="403.9" r="0.4"/>
						<line id="XMLID_14668_" class="st22" x1="-14.8" y1="402" x2="-15.7" y2="403.9"/>
						<line id="XMLID_14667_" class="st22" x1="-15" y1="401.9" x2="-15.9" y2="403.8"/>
						<circle id="XMLID_14666_" class="st19" cx="-14.4" cy="403.4" r="0.4"/>
						<circle id="XMLID_14665_" class="st19" cx="-16.3" cy="402.5" r="0.4"/>
						<line id="XMLID_14664_" class="st22" x1="-14.4" y1="403.6" x2="-16.3" y2="402.7"/>
						<line id="XMLID_14663_" class="st22" x1="-14.3" y1="403.3" x2="-16.2" y2="402.4"/>
					</g>
					<g id="XMLID_14649_">
						<path class="st16" d="M-16.8,395.4l4.2,0.3l4,1.2c0.3,0.1,0.2,0.5-0.1,0.4l-4.2-0.3l-4-1.2C-17.2,395.8-17.1,395.4-16.8,395.4
							z"/>
						<circle id="XMLID_14661_" class="st5" cx="-14.1" cy="396.4" r="3.1"/>
						<circle id="XMLID_14660_" class="st15" cx="-14.2" cy="396.2" r="3"/>
						<circle id="XMLID_14659_" class="st21" cx="-14.1" cy="395.8" r="3"/>
						<circle id="XMLID_14658_" class="st18" cx="-14.1" cy="395.8" r="2.6"/>
						<circle id="XMLID_14657_" class="st19" cx="-13.6" cy="395.1" r="0.4"/>
						<circle id="XMLID_14656_" class="st19" cx="-14.5" cy="397" r="0.4"/>
						<line id="XMLID_14655_" class="st22" x1="-13.5" y1="395.1" x2="-14.4" y2="397"/>
						<line id="XMLID_14654_" class="st22" x1="-13.7" y1="395" x2="-14.6" y2="396.9"/>
						<circle id="XMLID_14653_" class="st19" cx="-13.2" cy="396.5" r="0.4"/>
						<circle id="XMLID_14652_" class="st19" cx="-15" cy="395.6" r="0.4"/>
						<line id="XMLID_14651_" class="st22" x1="-13.2" y1="396.7" x2="-15" y2="395.8"/>
						<line id="XMLID_14650_" class="st22" x1="-13.1" y1="396.4" x2="-14.9" y2="395.5"/>
					</g>
					<g id="XMLID_14268_">
						<path class="st16" d="M-19.4,409.2l4.2,0.3l4,1.2c0.3,0.1,0.2,0.5-0.1,0.4l-4.2-0.3l-4-1.2C-19.7,409.6-19.7,409.2-19.4,409.2
							z"/>
						<circle id="XMLID_14280_" class="st5" cx="-16.7" cy="410.1" r="3.1"/>
						<circle id="XMLID_14279_" class="st15" cx="-16.7" cy="410" r="3"/>
						<circle id="XMLID_14278_" class="st21" cx="-16.7" cy="409.6" r="3"/>
						<circle id="XMLID_14277_" class="st18" cx="-16.7" cy="409.6" r="2.6"/>
						<circle id="XMLID_14276_" class="st19" cx="-16.2" cy="408.9" r="0.4"/>
						<circle id="XMLID_14275_" class="st19" cx="-17.1" cy="410.8" r="0.4"/>
						<line id="XMLID_14274_" class="st22" x1="-16.1" y1="408.9" x2="-17" y2="410.8"/>
						<line id="XMLID_14273_" class="st22" x1="-16.3" y1="408.8" x2="-17.2" y2="410.7"/>
						<circle id="XMLID_14272_" class="st19" cx="-15.7" cy="410.3" r="0.4"/>
						<circle id="XMLID_14271_" class="st19" cx="-17.6" cy="409.4" r="0.4"/>
						<line id="XMLID_14270_" class="st22" x1="-15.7" y1="410.4" x2="-17.6" y2="409.5"/>
						<line id="XMLID_14269_" class="st22" x1="-15.6" y1="410.2" x2="-17.5" y2="409.3"/>
					</g>
					<g id="XMLID_14255_">
						<path class="st16" d="M-20.7,416.1l4.2,0.3l4,1.2c0.3,0.1,0.2,0.5-0.1,0.4l-4.2-0.3l-4-1.2C-21,416.4-20.9,416.1-20.7,416.1z"
							/>
						<circle id="XMLID_14267_" class="st5" cx="-18" cy="417" r="3.1"/>
						<circle id="XMLID_14266_" class="st15" cx="-18" cy="416.9" r="3"/>
						<circle id="XMLID_14265_" class="st21" cx="-18" cy="416.5" r="3"/>
						<circle id="XMLID_14264_" class="st18" cx="-18" cy="416.5" r="2.6"/>
						<circle id="XMLID_14263_" class="st19" cx="-17.5" cy="415.8" r="0.4"/>
						<circle id="XMLID_14262_" class="st19" cx="-18.4" cy="417.7" r="0.4"/>
						<line id="XMLID_14261_" class="st22" x1="-17.3" y1="415.8" x2="-18.2" y2="417.6"/>
						<line id="XMLID_14260_" class="st22" x1="-17.6" y1="415.7" x2="-18.5" y2="417.5"/>
						<circle id="XMLID_14259_" class="st19" cx="-17" cy="417.2" r="0.4"/>
						<circle id="XMLID_14258_" class="st19" cx="-18.9" cy="416.3" r="0.4"/>
						<line id="XMLID_14257_" class="st22" x1="-17" y1="417.3" x2="-18.9" y2="416.4"/>
						<line id="XMLID_14256_" class="st22" x1="-16.9" y1="417.1" x2="-18.8" y2="416.2"/>
					</g>
				</g>
			</g>
		</g>
	</g>
	<g id="XMLID_1_" class="st0">
		<defs>
			<rect id="XMLID_4932_" x="-13.5" width="327.1" height="300"/>
		</defs>
		<clipPath id="XMLID_4_">
			<use xlink:href="#XMLID_4932_"  style="overflow:visible;"/>
		</clipPath>
	</g>
	<g class="st0">
		<path class="st23" d="M150.1,4.6c38.7,0,75.1,15.1,102.5,42.5c27.4,27.4,42.5,63.8,42.5,102.5s-15.1,75.1-42.5,102.5
			c-27.4,27.4-63.8,42.5-102.5,42.5S75,279.5,47.6,252.1C20.2,224.7,5.1,188.3,5.1,149.6S20.2,74.5,47.6,47.1
			C75,19.7,111.4,4.6,150.1,4.6 M150.1-0.4c-82.8,0-150,67.2-150,150s67.2,150,150,150s150-67.2,150-150S232.9-0.4,150.1-0.4
			L150.1-0.4z"/>
	</g>
</g>
</svg>
