<?xml version="1.0" encoding="utf-8"?>
<!-- Generator: Adobe Illustrator 19.0.0, SVG Export Plug-In . SVG Version: 6.00 Build 0)  -->
<svg version="1.1" id="Layer_1" xmlns="http://www.w3.org/2000/svg" xmlns:xlink="http://www.w3.org/1999/xlink" x="0px" y="0px"
	 viewBox="0 0 300 300" style="enable-background:new 0 0 300 300;" xml:space="preserve">
<style type="text/css">
	.st0{clip-path:url(#SVGID_2_);}
	.st1{clip-path:url(#XMLID_3_);}
	.st2{fill:#F1F1F2;stroke:#404041;stroke-miterlimit:10;}
	.st3{fill:#FFFFFF;stroke:#404041;stroke-miterlimit:10;}
	.st4{fill:#929497;}
	.st5{fill:#F1F1F2;}
	.st6{fill:#C5C7C9;}
	.st7{fill:none;stroke:#404041;stroke-miterlimit:10;}
	.st8{fill:none;stroke:#808184;stroke-width:0.5;stroke-miterlimit:10;}
	.st9{fill:none;stroke:#808184;stroke-width:0.5;stroke-miterlimit:10;stroke-dasharray:0.9993,1.9985;}
	.st10{fill:none;stroke:#808184;stroke-width:0.5;stroke-miterlimit:10;stroke-dasharray:1,2;}
	.st11{fill:#FFFFFF;stroke:#404041;stroke-linejoin:round;stroke-miterlimit:10;}
	.st12{fill:none;stroke:#808184;stroke-width:0.5;stroke-miterlimit:10;stroke-dasharray:0.9943,1.9886;}
	.st13{fill:none;stroke:#808184;stroke-width:0.5;stroke-miterlimit:10;stroke-dasharray:1.0166,2.0331;}
	.st14{fill:none;stroke:#808184;stroke-width:0.5;stroke-miterlimit:10;stroke-dasharray:1.0177,2.0353;}
	.st15{fill:#DBDCDD;}
	.st16{fill:#404041;stroke:#D0D2D3;stroke-width:0.5;stroke-miterlimit:10;}
	.st17{fill:#FFFFFF;stroke:#6D6E70;stroke-miterlimit:10;}
	.st18{fill:#FFFFFF;stroke:#929497;stroke-width:0.25;stroke-miterlimit:10;}
	.st19{fill:#404041;}
	.st20{fill:none;stroke:#6D6E70;stroke-width:0.5;stroke-miterlimit:10;}
	.st21{fill:#FFFFFF;stroke:#6D6E70;stroke-width:0.5;stroke-miterlimit:10;}
	.st22{fill:none;stroke:#6D6E70;stroke-width:0.25;stroke-miterlimit:10;}
	.st23{fill:#9AA0BB;}
</style>
<g>
	<defs>
		<circle id="SVGID_1_" cx="150.1" cy="149.6" r="150"/>
	</defs>
	<use xlink:href="#SVGID_1_"  style="overflow:visible;fill:#DDDDDD;"/>
	<clipPath id="SVGID_2_">
		<use xlink:href="#SVGID_1_"  style="overflow:visible;"/>
	</clipPath>
	<g id="XMLID_254_" class="st0">
		<defs>
			<rect id="XMLID_4044_" x="-13.5" width="327.1" height="300"/>
		</defs>
		<clipPath id="XMLID_3_">
			<use xlink:href="#XMLID_4044_"  style="overflow:visible;"/>
		</clipPath>
		<g class="st1">
			<g>
				<g>
					<polygon class="st2" points="174.4,35.3 184.3,46.4 149.7,224.6 115.5,46.4 125,35.3 					"/>
					<path class="st3" d="M174.8,30c0,0,0.1-0.6-24.9-0.6c-0.1,0-0.2,0-0.3,0c-0.1,0-0.2,0-0.3,0c-25,0-24.9,0.6-24.9,0.6l-3,10.9
						c0,0,4.1,1,13.9,1.4c3.8,0.2,8.8,0.3,14.4,0.3c5.7,0,10.1-0.1,13.9-0.3c9.9-0.4,13.9-1.4,13.9-1.4L174.8,30z"/>
					<g>
						<path class="st4" d="M129.1,29.7c0,0-2.6,2.9-2.4,6.6c0.2,3.7,0.4,4.9,0.4,4.9l-4.5-0.3l2.1-10.8L129.1,29.7z"/>
						<path class="st5" d="M130.1,29.6c-0.7,0-1.3,0-1.8,0.1c-1.5,2.4-1.5,9.3-1.4,11.8c0.8,0.1,1.7,0.1,2.7,0.2
							c-0.2-0.7-0.4-2.3-0.4-5.1C129.2,33.2,129.8,30.7,130.1,29.6z"/>
						<path class="st6" d="M128.5,29.7c-0.4,0-0.7,0-1,0c-0.6,0.5-1.2,1.4-1.4,2.9c-0.3,3.1-0.4,7-0.5,8.8c0.8,0.1,1.7,0.2,2.7,0.2
							C127.9,39,127.1,32,128.5,29.7z"/>
					</g>
					<g>
						<path class="st4" d="M170.1,29.7c0,0,2.6,2.9,2.4,6.6c-0.2,3.7-0.4,4.9-0.4,4.9l4.3,0.2L174.6,30L170.1,29.7z"/>
						<path class="st5" d="M169,29.6c0.7,0,1.3,0,1.8,0.1c1.5,2.4,1.5,9.3,1.4,11.8c-0.8,0.1-1.7,0.1-2.7,0.2
							c0.2-0.7,0.4-2.3,0.4-5.1C169.9,33.2,169.3,30.7,169,29.6z"/>
						<path class="st6" d="M170.6,29.7c0.4,0,0.7,0,1,0c0.6,0.5,1.2,1.4,1.4,2.9c0.3,3.1,0.4,7,0.5,8.8c-0.8,0.1-1.7,0.2-2.7,0.2
							C171.2,39,172.1,32,170.6,29.7z"/>
					</g>
					<path class="st7" d="M174.8,30c0,0,0.1-0.6-24.9-0.6c-0.1,0-0.2,0-0.3,0c-0.1,0-0.2,0-0.3,0c-25,0-24.9,0.6-24.9,0.6l-3,10.9
						c0,0,4.1,1,13.9,1.4c3.8,0.2,8.8,0.3,14.4,0.3c5.7,0,10.1-0.1,13.9-0.3c9.9-0.4,13.9-1.4,13.9-1.4L174.8,30z"/>
					<g>
						<polygon class="st4" points="126.3,63.9 149.9,164.1 173,63.9 157.9,195.1 149.1,221.3 142.2,193.9 						"/>
						<polygon class="st6" points="149.7,178.8 173.6,58.9 149.9,161.6 125.8,58.9 						"/>
					</g>
					<g>
						<g>
							<line class="st8" x1="149.9" y1="44" x2="149.9" y2="44.5"/>
							<line class="st9" x1="149.9" y1="46.5" x2="149.9" y2="198.4"/>
							<line class="st8" x1="149.9" y1="199.4" x2="149.9" y2="199.9"/>
						</g>
					</g>
					<path class="st4" d="M137,46.7l0.9,0.9c0,0,6.5-0.5,12-0.5c5.5,0,12.4,0.5,12.4,0.5l0.6-0.9H137z"/>
					<path class="st6" d="M137.7,47.4l0.7,0.7c0,0,6.1-0.5,11.5-0.5c5.4,0,12.2,0.5,12.2,0.5l0.4-0.7l-12.5-0.2L137.7,47.4z"/>
					<path class="st3" d="M149.9,42.5c-5.7,0-10.4,0-14.3-0.2l1.6,4.4h12.6h0.1h12.6l1.6-4.4C160.4,42.5,155.6,42.5,149.9,42.5z"/>
				</g>
				<path class="st2" d="M162.6,437.7c0-0.7,0-25.3,0-25.3h-25.4v25.3H162.6z"/>
				<g>
					<polygon class="st4" points="150.1,421.8 140.3,443.8 149.9,408.7 159.9,444.2 					"/>
					<polygon class="st6" points="149.9,426.2 140.3,443.8 149.9,418.8 159.9,444.2 					"/>
				</g>
				<path class="st3" d="M163.5,289.1c-2.3-52.5-4.9-38.4-4.9-38.4l-4.5-37.8l-6.7,9c-5.4-27.1-14.2-71.9-15.5-81.1
					c-2.2-14.9-8.8-67.7-8.8-67.7c-4.5-28.7,2-43,2-43s-21.6,12.3-26,15.2c-2.3,1.5-22.2,10.3-39.2,18.1C39.3,72.9,36.5,78,36.5,78
					c15.9,9.8,19.2,45.2,19.5,86.6c0.3,41.5-11.2,112.2-12.6,149c-1.5,38.2-9.3,132-9.3,132s68.2,17.4,86.9,12.3
					c18.6-5.1,20.1-15.6,23.8-25.2l5.5-19.2C150.1,413.5,165.8,341.6,163.5,289.1z"/>
				<g>
					<path class="st5" d="M56.2,239.3c6-41.1,3.4-74.1-0.7-99.9c0.8,5.1,1.2,14.1,1.3,15.4c0.7,8.7,1.4,17.7,1.2,26.4
						c-0.2,18.2-1.5,39.1-4.8,62c-2.8,19.6-4.9,28.3-6.4,31.7c-0.3,2.8-0.6,5.5-0.8,8.2C49.7,282.9,52.3,265.7,56.2,239.3z"/>
					<path class="st6" d="M52.5,222.6c-1.8,17.7-3.9,35.8-5.7,52.3c1.5-3.4,3.6-12.1,6.4-31.7c3.3-22.9,4.9-41.7,4.9-72.4l0-0.1
						c0.3-11.1-2.7-31.8-2.7-30.9C57.1,164.5,54.2,207.9,52.5,222.6z"/>
				</g>
				<path class="st3" d="M55.9,164.6c-0.3-38.9-3.2-72.4-16.6-84.5l-2.8-1.6c0,0-4.3-1.4-8.8,19.9C23.1,119.7-25,422.2-25,422.2
					s8,7,24.6,7.6s25-3.5,25-3.5l26.1-188.7C53.5,211.2,56.1,184.5,55.9,164.6z"/>
				<g>
					<path class="st5" d="M150.1,198c0,0-15.4,46-15.4,109.5S149.9,416,149.9,416l0.1-77.5l3.1-135L150.1,198z"/>
					<path class="st6" d="M152.7,198c0,0-16.2,38-16.2,101.5S149.9,416,149.9,416l2.8-77.5l3.1-135L152.7,198z"/>
				</g>
				<g>
					<path class="st3" d="M244.1,164.6c0.3-41.5,3.6-76.8,19.5-86.6c0,0-2.9-5.1-23.5-14.6c-19.4-9-35.7-16-42.1-19.7
						c-0.4-0.2-0.8-0.4-1.1-0.6c-5.5-3.4-22.1-13.1-22.1-13.1s3.8,14.9-0.6,43.7c0,0-6.6,47.4-8.8,62.3
						c-2.2,14.9-17.3,94.2-19.3,106.1c-0.5,3.1-4.5,7.4-4.8,10c-0.5,5.2-2.8,16.7-3.2,37.2c-1,52.6,11.8,124.3,11.8,124.3l5.7,19.4
						c3.7,9.7,4.9,19.9,23.6,25c18.6,5.1,84.4-12.3,84.4-12.3s-5.4-93.8-6.9-132C255.3,276.8,243.8,206.1,244.1,164.6z"/>
				</g>
				<g>
					<path class="st5" d="M243.8,239.3c-6-41.1-3.4-74.1,0.7-99.9c-0.8,5.1-1.2,14.1-1.3,15.4c-0.7,8.7-1.4,17.7-1.2,26.4
						c0.2,18.2,1.5,39.1,4.8,62c2.8,19.6,4.9,28.3,6.4,31.7c0.3,2.8,0.6,5.5,0.8,8.2C250.2,282.9,247.6,265.7,243.8,239.3z"/>
					<path class="st6" d="M247.5,222.6c1.8,17.7,3.9,35.8,5.7,52.3c-1.5-3.4-3.6-12.1-6.4-31.7c-3.3-22.9-4.9-41.7-4.9-72.4l0-0.1
						c-0.3-11.1,2.7-31.8,2.7-30.9C242.9,164.5,245.7,207.9,247.5,222.6z"/>
				</g>
				<path class="st3" d="M272.4,97.8c-4.5-21.3-8.8-19.9-8.8-19.9l0,0c-15.9,9.8-19.2,45.2-19.5,86.6c-0.1,19.3,2.3,45,5,70.6
					l26.3,190.6c0,0,8.4,4.1,25,3.5c16.6-0.6,24.6-7.6,24.6-7.6S276.9,119.2,272.4,97.8z"/>
			</g>
			<g>
				<polygon class="st5" points="233.2,168.9 233.2,166.4 173.8,168.1 173.8,170.6 				"/>
				<polygon class="st6" points="233.2,169.9 233.2,167.4 173.8,169.1 173.8,171.6 				"/>
				<path class="st3" d="M233,168.5v13.7c0,0.5-0.4,0.9-0.9,0.9l-56.8,1.2c-0.5,0-0.9-0.4-0.9-0.9v-13.2L233,168.5z"/>
				<line class="st10" x1="174.5" y1="170.8" x2="233" y2="169.1"/>
			</g>
			<g>
				<g>
					<g>
						<path class="st5" d="M97.2,44.2c-3.2,1.3-4.3,2.6-4.4,5.7c0,0,0,13.5,2,26c10.1,65.4,35.5,135.1,46,152.2
							c2.2,3.6,4.1,7.5,6.4,10.9c5.2,7.9,4.4-13.5,4.4-13.5l-2.2-7.7L100.8,42.8L97.2,44.2z"/>
						<path class="st6" d="M102.3,43.5c0,0-4.5-0.3-6.4,1.9c-1.2,1.4-1.6,3.9-1.5,5.6c1.8,53.3,32.5,152.1,46.6,174.2
							c2.7,4.2,4.5,9.2,6.9,13.5c2.2,3.9,5.2-5.2,5.2-5.2l-2.9-15.7L111.8,83.5L102.3,43.5z"/>
					</g>
					<path class="st11" d="M126.7,29.9c0,0-28.2,11.5-29.4,14.3c-4.2,10.3,4.5,64.3,23.9,130.4c7.2,24.7,18.5,44.9,25.5,59.2
						c1,2,9-1.7,8.5-4.4c-0.6-2.9-1.3-6.7-2.1-11.1c-5.9-33.3-29.3-168.1-29.3-176S126.7,29.9,126.7,29.9z"/>
					<g>
						<polygon class="st5" points="149.3,197.1 142.4,223.3 144.5,228.5 149.9,206.1 						"/>
						<polygon class="st6" points="150.2,199.5 143.3,225.7 145.4,230.9 150.8,208.5 						"/>
					</g>
					<g>
						<path class="st5" d="M202.6,44.2c3.2,1.3,4.3,2.6,4.4,5.7c0,0,0.8,13.5-1.1,26c-10.1,65.4-38.5,137.3-46.8,152.2
							c-8.3,14.9-18.5,30.1-18.5,30.1l10-40.4l48.6-175.1L202.6,44.2z"/>
						<path class="st6" d="M197.5,43.5c0,0,4.5-0.3,6.4,1.9c1.2,1.4,1.6,3.9,1.5,5.6c-0.5,58.1-34.9,148-46.6,174.2
							c-6.9,15.5-18.6,32.5-18.6,32.5l9.5-39.9l39.9-133.6L197.5,43.5z"/>
					</g>
					<path class="st11" d="M173.1,29.9c0,0,28.2,11.5,29.4,14.3c4.2,10.3-4.5,64.3-23.9,130.4c-14.3,48.6-36.3,79.3-37.9,82.7
						c0,0-1.2-3,3.9-27.9c5.1-24.9,31.4-179.2,31.4-187.2S173.1,29.9,173.1,29.9z"/>
				</g>
			</g>
			<g>
				<g>
					<g>
						<g>
							<line class="st8" x1="203.7" y1="206.6" x2="203.7" y2="207.1"/>
							<line class="st12" x1="203.7" y1="209" x2="203.7" y2="312.4"/>
							<line class="st8" x1="203.7" y1="313.4" x2="203.7" y2="313.9"/>
						</g>
					</g>
					<g>
						<path class="st5" d="M195.4,317.6l-1.3,17.7c-0.6,10.1,4.2,13.2,9.2,13.2h54.7l-0.2-4.6L195.4,317.6z"/>
						<path class="st6" d="M195.4,317l-0.6,14.5c-0.6,10.1,2.8,15.7,8.6,15.7h54.6l-0.2-4.6L195.4,317z"/>
						<path class="st3" d="M195.4,321.5v-5.1h61.5l1.5,29.8h-53.7c-7.1,0-9.2-8.4-9.2-15.5l0,0V321.5z"/>
						<g>
							<g>
								<line class="st8" x1="195.9" y1="319.5" x2="196.4" y2="319.5"/>
								<line class="st13" x1="198.5" y1="319.5" x2="255.4" y2="319.5"/>
								<line class="st8" x1="256.4" y1="319.5" x2="256.9" y2="319.5"/>
							</g>
						</g>
					</g>
				</g>
				<g>
					<g>
						<g>
							<line class="st8" x1="96.7" y1="206.6" x2="96.7" y2="207.1"/>
							<line class="st12" x1="96.7" y1="209" x2="96.7" y2="312.4"/>
							<line class="st8" x1="96.7" y1="313.4" x2="96.7" y2="313.9"/>
						</g>
					</g>
					<g>
						<path class="st5" d="M105,317.6l1.3,17.7c0.6,10.1-4.2,13.2-9.2,13.2H42.4l0.2-4.6L105,317.6z"/>
						<path class="st6" d="M105,317l0.6,14.5c0.6,10.1-2.8,15.7-8.6,15.7H42.4l0.2-4.6L105,317z"/>
						<path class="st3" d="M105,321.5v-5.1H43.5L42,346.2h53.7c7.1,0,9.2-8.4,9.2-15.5l0,0V321.5z"/>
						<g>
							<g>
								<line class="st8" x1="104.6" y1="319.5" x2="104.1" y2="319.5"/>
								<line class="st14" x1="102" y1="319.5" x2="45" y2="319.5"/>
								<line class="st8" x1="44" y1="319.5" x2="43.5" y2="319.5"/>
							</g>
						</g>
					</g>
				</g>
			</g>
			<g>
				<g id="XMLID_9225_">
					<circle id="XMLID_9240_" class="st5" cx="152.2" cy="259.7" r="6"/>
					<circle id="XMLID_9239_" class="st15" cx="152.2" cy="259.5" r="5.8"/>
					<polygon id="XMLID_9238_" class="st16" points="159.7,259.3 152.4,257.9 144.2,259.3 152.4,260.7 					"/>
					<circle id="XMLID_9237_" class="st17" cx="152.2" cy="258.7" r="5.8"/>
					<circle id="XMLID_9236_" class="st18" cx="152.2" cy="258.7" r="5"/>
					<circle id="XMLID_9235_" class="st19" cx="151.2" cy="257.4" r="0.7"/>
					<circle id="XMLID_9234_" class="st19" cx="152.9" cy="261" r="0.7"/>
					<line id="XMLID_9233_" class="st20" x1="150.9" y1="257.4" x2="152.7" y2="261"/>
					<line id="XMLID_9232_" class="st20" x1="151.4" y1="257.2" x2="153.1" y2="260.8"/>
					<line id="XMLID_9231_" class="st20" x1="150.9" y1="257.4" x2="152.7" y2="261"/>
					<line id="XMLID_9230_" class="st20" x1="151.4" y1="257.2" x2="153.1" y2="260.8"/>
					<circle id="XMLID_9229_" class="st19" cx="150.3" cy="260.1" r="0.7"/>
					<circle id="XMLID_9228_" class="st19" cx="153.9" cy="258.3" r="0.7"/>
					<line id="XMLID_9227_" class="st20" x1="150.3" y1="260.3" x2="153.8" y2="258.6"/>
					<line id="XMLID_9226_" class="st20" x1="150.1" y1="259.9" x2="153.7" y2="258.1"/>
				</g>
				<g id="XMLID_9209_">
					<circle id="XMLID_9224_" class="st5" cx="152.2" cy="325.3" r="6"/>
					<circle id="XMLID_9223_" class="st15" cx="152.2" cy="325.1" r="5.8"/>
					<polygon id="XMLID_9222_" class="st16" points="159.7,324.9 152.4,323.5 144.2,324.9 152.4,326.3 					"/>
					<circle id="XMLID_9221_" class="st17" cx="152.2" cy="324.3" r="5.8"/>
					<circle id="XMLID_9220_" class="st18" cx="152.2" cy="324.3" r="5"/>
					<circle id="XMLID_9219_" class="st19" cx="151.2" cy="323" r="0.7"/>
					<circle id="XMLID_9218_" class="st19" cx="152.9" cy="326.6" r="0.7"/>
					<line id="XMLID_9217_" class="st20" x1="150.9" y1="323" x2="152.7" y2="326.6"/>
					<line id="XMLID_9216_" class="st20" x1="151.4" y1="322.8" x2="153.1" y2="326.4"/>
					<line id="XMLID_9215_" class="st20" x1="150.9" y1="323" x2="152.7" y2="326.6"/>
					<line id="XMLID_9214_" class="st20" x1="151.4" y1="322.8" x2="153.1" y2="326.4"/>
					<circle id="XMLID_9213_" class="st19" cx="150.3" cy="325.7" r="0.7"/>
					<circle id="XMLID_9212_" class="st19" cx="153.9" cy="323.9" r="0.7"/>
					<line id="XMLID_9211_" class="st20" x1="150.3" y1="325.9" x2="153.8" y2="324.2"/>
					<line id="XMLID_9210_" class="st20" x1="150.1" y1="325.5" x2="153.7" y2="323.7"/>
				</g>
			</g>
			<g>
				<g>
					<g id="XMLID_13618_">
						<path class="st16" d="M318.2,401.3l-4.2,0.3l-4,1.2c-0.3,0.1-0.2,0.5,0.1,0.4l4.2-0.3l4-1.2
							C318.5,401.7,318.5,401.3,318.2,401.3z"/>
						<circle id="XMLID_13630_" class="st5" cx="315.5" cy="402.2" r="3.1"/>
						<circle id="XMLID_13629_" class="st15" cx="315.6" cy="402.1" r="3"/>
						<circle id="XMLID_13628_" class="st21" cx="315.5" cy="401.7" r="3"/>
						<circle id="XMLID_13627_" class="st18" cx="315.5" cy="401.7" r="2.6"/>
						<circle id="XMLID_13626_" class="st19" cx="315" cy="401" r="0.4"/>
						<circle id="XMLID_13625_" class="st19" cx="315.9" cy="402.9" r="0.4"/>
						<line id="XMLID_13624_" class="st22" x1="314.9" y1="401" x2="315.8" y2="402.9"/>
						<line id="XMLID_13623_" class="st22" x1="315.1" y1="400.9" x2="316" y2="402.8"/>
						<circle id="XMLID_13622_" class="st19" cx="314.5" cy="402.4" r="0.4"/>
						<circle id="XMLID_13621_" class="st19" cx="316.4" cy="401.5" r="0.4"/>
						<line id="XMLID_13620_" class="st22" x1="314.5" y1="402.6" x2="316.4" y2="401.7"/>
						<line id="XMLID_13619_" class="st22" x1="314.4" y1="402.3" x2="316.3" y2="401.4"/>
					</g>
					<g id="XMLID_13605_">
						<path class="st16" d="M316.9,394.4l-4.2,0.3l-4,1.2c-0.3,0.1-0.2,0.5,0.1,0.4l4.2-0.3l4-1.2
							C317.3,394.8,317.2,394.4,316.9,394.4z"/>
						<circle id="XMLID_13617_" class="st5" cx="314.2" cy="395.4" r="3.1"/>
						<circle id="XMLID_13616_" class="st15" cx="314.3" cy="395.2" r="3"/>
						<circle id="XMLID_13615_" class="st21" cx="314.2" cy="394.8" r="3"/>
						<circle id="XMLID_13614_" class="st18" cx="314.2" cy="394.8" r="2.6"/>
						<circle id="XMLID_13613_" class="st19" cx="313.7" cy="394.1" r="0.4"/>
						<circle id="XMLID_13612_" class="st19" cx="314.6" cy="396" r="0.4"/>
						<line id="XMLID_13611_" class="st22" x1="313.6" y1="394.1" x2="314.5" y2="396"/>
						<line id="XMLID_13610_" class="st22" x1="313.8" y1="394" x2="314.7" y2="395.9"/>
						<circle id="XMLID_13609_" class="st19" cx="313.3" cy="395.5" r="0.4"/>
						<circle id="XMLID_13608_" class="st19" cx="315.1" cy="394.6" r="0.4"/>
						<line id="XMLID_13607_" class="st22" x1="313.3" y1="395.7" x2="315.1" y2="394.8"/>
						<line id="XMLID_13606_" class="st22" x1="313.2" y1="395.4" x2="315" y2="394.5"/>
					</g>
					<g id="XMLID_13592_">
						<path class="st16" d="M319.5,408.2l-4.2,0.3l-4,1.2c-0.3,0.1-0.2,0.5,0.1,0.4l4.2-0.3l4-1.2
							C319.8,408.6,319.7,408.2,319.5,408.2z"/>
						<circle id="XMLID_13604_" class="st5" cx="316.8" cy="409.1" r="3.1"/>
						<circle id="XMLID_13603_" class="st15" cx="316.8" cy="409" r="3"/>
						<circle id="XMLID_13602_" class="st21" cx="316.8" cy="408.6" r="3"/>
						<circle id="XMLID_13601_" class="st18" cx="316.8" cy="408.6" r="2.6"/>
						<circle id="XMLID_13600_" class="st19" cx="316.3" cy="407.9" r="0.4"/>
						<circle id="XMLID_13599_" class="st19" cx="317.2" cy="409.8" r="0.4"/>
						<line id="XMLID_13598_" class="st22" x1="316.1" y1="407.9" x2="317" y2="409.8"/>
						<line id="XMLID_13597_" class="st22" x1="316.4" y1="407.8" x2="317.3" y2="409.7"/>
						<circle id="XMLID_13596_" class="st19" cx="315.8" cy="409.3" r="0.4"/>
						<circle id="XMLID_13595_" class="st19" cx="317.7" cy="408.4" r="0.4"/>
						<line id="XMLID_13594_" class="st22" x1="315.8" y1="409.4" x2="317.7" y2="408.5"/>
						<line id="XMLID_13593_" class="st22" x1="315.7" y1="409.2" x2="317.6" y2="408.3"/>
					</g>
					<g id="XMLID_13579_">
						<path class="st16" d="M320.8,415.1l-4.2,0.3l-4,1.2c-0.3,0.1-0.2,0.5,0.1,0.4l4.2-0.3l4-1.2
							C321.1,415.4,321,415.1,320.8,415.1z"/>
						<circle id="XMLID_13591_" class="st5" cx="318.1" cy="416" r="3.1"/>
						<circle id="XMLID_13590_" class="st15" cx="318.1" cy="415.9" r="3"/>
						<circle id="XMLID_13589_" class="st21" cx="318.1" cy="415.5" r="3"/>
						<circle id="XMLID_13588_" class="st18" cx="318.1" cy="415.5" r="2.6"/>
						<circle id="XMLID_13587_" class="st19" cx="317.6" cy="414.8" r="0.4"/>
						<circle id="XMLID_13586_" class="st19" cx="318.5" cy="416.7" r="0.4"/>
						<line id="XMLID_13585_" class="st22" x1="317.4" y1="414.8" x2="318.3" y2="416.6"/>
						<line id="XMLID_13584_" class="st22" x1="317.7" y1="414.7" x2="318.6" y2="416.5"/>
						<circle id="XMLID_13583_" class="st19" cx="317.1" cy="416.2" r="0.4"/>
						<circle id="XMLID_13582_" class="st19" cx="319" cy="415.3" r="0.4"/>
						<line id="XMLID_13581_" class="st22" x1="317.1" y1="416.3" x2="318.9" y2="415.4"/>
						<line id="XMLID_13580_" class="st22" x1="317" y1="416.1" x2="318.8" y2="415.2"/>
					</g>
				</g>
				<g>
					<g id="XMLID_13566_">
						<path class="st16" d="M-18.8,401.3l4.2,0.3l4,1.2c0.3,0.1,0.2,0.5-0.1,0.4l-4.2-0.3l-4-1.2C-19.2,401.7-19.1,401.3-18.8,401.3
							z"/>
						<circle id="XMLID_13578_" class="st5" cx="-16.1" cy="402.2" r="3.1"/>
						<circle id="XMLID_13577_" class="st15" cx="-16.2" cy="402.1" r="3"/>
						<circle id="XMLID_13576_" class="st21" cx="-16.1" cy="401.7" r="3"/>
						<circle id="XMLID_13575_" class="st18" cx="-16.1" cy="401.7" r="2.6"/>
						<circle id="XMLID_13574_" class="st19" cx="-15.6" cy="401" r="0.4"/>
						<circle id="XMLID_13573_" class="st19" cx="-16.5" cy="402.9" r="0.4"/>
						<line id="XMLID_13572_" class="st22" x1="-15.5" y1="401" x2="-16.4" y2="402.9"/>
						<line id="XMLID_13571_" class="st22" x1="-15.7" y1="400.9" x2="-16.6" y2="402.8"/>
						<circle id="XMLID_13570_" class="st19" cx="-15.2" cy="402.4" r="0.4"/>
						<circle id="XMLID_13569_" class="st19" cx="-17" cy="401.5" r="0.4"/>
						<line id="XMLID_13568_" class="st22" x1="-15.2" y1="402.6" x2="-17" y2="401.7"/>
						<line id="XMLID_13567_" class="st22" x1="-15.1" y1="402.3" x2="-16.9" y2="401.4"/>
					</g>
					<g id="XMLID_13553_">
						<path class="st16" d="M-17.5,394.4l4.2,0.3l4,1.2c0.3,0.1,0.2,0.5-0.1,0.4l-4.2-0.3l-4-1.2C-17.9,394.8-17.8,394.4-17.5,394.4
							z"/>
						<circle id="XMLID_13565_" class="st5" cx="-14.9" cy="395.4" r="3.1"/>
						<circle id="XMLID_13564_" class="st15" cx="-14.9" cy="395.2" r="3"/>
						<circle id="XMLID_13563_" class="st21" cx="-14.9" cy="394.8" r="3"/>
						<circle id="XMLID_13562_" class="st18" cx="-14.9" cy="394.8" r="2.6"/>
						<circle id="XMLID_13561_" class="st19" cx="-14.4" cy="394.1" r="0.4"/>
						<circle id="XMLID_13560_" class="st19" cx="-15.3" cy="396" r="0.4"/>
						<line id="XMLID_13559_" class="st22" x1="-14.2" y1="394.1" x2="-15.1" y2="396"/>
						<line id="XMLID_13558_" class="st22" x1="-14.5" y1="394" x2="-15.4" y2="395.9"/>
						<circle id="XMLID_13557_" class="st19" cx="-13.9" cy="395.5" r="0.4"/>
						<circle id="XMLID_13556_" class="st19" cx="-15.7" cy="394.6" r="0.4"/>
						<line id="XMLID_13555_" class="st22" x1="-13.9" y1="395.7" x2="-15.7" y2="394.8"/>
						<line id="XMLID_13554_" class="st22" x1="-13.8" y1="395.4" x2="-15.6" y2="394.5"/>
					</g>
					<g id="XMLID_13540_">
						<path class="st16" d="M-20.1,408.2l4.2,0.3l4,1.2c0.3,0.1,0.2,0.5-0.1,0.4l-4.2-0.3l-4-1.2C-20.4,408.6-20.4,408.2-20.1,408.2
							z"/>
						<circle id="XMLID_13552_" class="st5" cx="-17.4" cy="409.1" r="3.1"/>
						<circle id="XMLID_13551_" class="st15" cx="-17.5" cy="409" r="3"/>
						<circle id="XMLID_13550_" class="st21" cx="-17.4" cy="408.6" r="3"/>
						<circle id="XMLID_13549_" class="st18" cx="-17.4" cy="408.6" r="2.6"/>
						<circle id="XMLID_13548_" class="st19" cx="-16.9" cy="407.9" r="0.4"/>
						<circle id="XMLID_13547_" class="st19" cx="-17.8" cy="409.8" r="0.4"/>
						<line id="XMLID_13546_" class="st22" x1="-16.8" y1="407.9" x2="-17.7" y2="409.8"/>
						<line id="XMLID_13545_" class="st22" x1="-17" y1="407.8" x2="-17.9" y2="409.7"/>
						<circle id="XMLID_13544_" class="st19" cx="-16.4" cy="409.3" r="0.4"/>
						<circle id="XMLID_13543_" class="st19" cx="-18.3" cy="408.4" r="0.4"/>
						<line id="XMLID_13542_" class="st22" x1="-16.4" y1="409.4" x2="-18.3" y2="408.5"/>
						<line id="XMLID_13541_" class="st22" x1="-16.3" y1="409.2" x2="-18.2" y2="408.3"/>
					</g>
					<g id="XMLID_13527_">
						<path class="st16" d="M-21.4,415.1l4.2,0.3l4,1.2c0.3,0.1,0.2,0.5-0.1,0.4l-4.2-0.3l-4-1.2C-21.7,415.4-21.7,415.1-21.4,415.1
							z"/>
						<circle id="XMLID_13539_" class="st5" cx="-18.7" cy="416" r="3.1"/>
						<circle id="XMLID_13538_" class="st15" cx="-18.7" cy="415.9" r="3"/>
						<circle id="XMLID_13537_" class="st21" cx="-18.7" cy="415.5" r="3"/>
						<circle id="XMLID_13536_" class="st18" cx="-18.7" cy="415.5" r="2.6"/>
						<circle id="XMLID_13535_" class="st19" cx="-18.2" cy="414.8" r="0.4"/>
						<circle id="XMLID_13534_" class="st19" cx="-19.1" cy="416.7" r="0.4"/>
						<line id="XMLID_13533_" class="st22" x1="-18" y1="414.8" x2="-19" y2="416.6"/>
						<line id="XMLID_13532_" class="st22" x1="-18.3" y1="414.7" x2="-19.2" y2="416.5"/>
						<circle id="XMLID_13531_" class="st19" cx="-17.7" cy="416.2" r="0.4"/>
						<circle id="XMLID_13530_" class="st19" cx="-19.6" cy="415.3" r="0.4"/>
						<line id="XMLID_13529_" class="st22" x1="-17.7" y1="416.3" x2="-19.6" y2="415.4"/>
						<line id="XMLID_13528_" class="st22" x1="-17.6" y1="416.1" x2="-19.5" y2="415.2"/>
					</g>
				</g>
			</g>
		</g>
	</g>
	<g id="XMLID_1_" class="st0">
		<defs>
			<rect id="XMLID_4932_" x="-13.5" width="327.1" height="300"/>
		</defs>
		<clipPath id="XMLID_4_">
			<use xlink:href="#XMLID_4932_"  style="overflow:visible;"/>
		</clipPath>
	</g>
	<g class="st0">
		<path class="st23" d="M150.1,4.6c38.7,0,75.1,15.1,102.5,42.5c27.4,27.4,42.5,63.8,42.5,102.5s-15.1,75.1-42.5,102.5
			c-27.4,27.4-63.8,42.5-102.5,42.5S75,279.5,47.6,252.1C20.2,224.7,5.1,188.3,5.1,149.6S20.2,74.5,47.6,47.1
			C75,19.7,111.4,4.6,150.1,4.6 M150.1-0.4c-82.8,0-150,67.2-150,150s67.2,150,150,150s150-67.2,150-150S232.9-0.4,150.1-0.4
			L150.1-0.4z"/>
	</g>
</g>
</svg>
