<?xml version="1.0" encoding="utf-8"?>
<!-- Generator: Adobe Illustrator 19.0.0, SVG Export Plug-In . SVG Version: 6.00 Build 0)  -->
<svg version="1.1" id="Layer_1" xmlns="http://www.w3.org/2000/svg" xmlns:xlink="http://www.w3.org/1999/xlink" x="0px" y="0px"
	 viewBox="0 0 300 300" style="enable-background:new 0 0 300 300;" xml:space="preserve">
<style type="text/css">
	.st0{clip-path:url(#SVGID_2_);}
	.st1{clip-path:url(#XMLID_3_);}
	.st2{clip-path:url(#SVGID_4_);}
	.st3{fill:#FFFFFF;stroke:#404041;stroke-miterlimit:10;}
	.st4{fill:#F1F1F2;}
	.st5{fill:#C5C7C9;}
	.st6{fill:#F1F1F2;stroke:#404041;stroke-miterlimit:10;}
	.st7{fill:#929497;}
	.st8{fill:none;stroke:#808184;stroke-width:0.5;stroke-miterlimit:10;stroke-dasharray:1,2;}
	.st9{fill:none;stroke:#404041;stroke-miterlimit:10;}
	.st10{fill:#9AA0BB;}
</style>
<g>
	<defs>
		<circle id="SVGID_1_" cx="150.1" cy="149.6" r="150"/>
	</defs>
	<use xlink:href="#SVGID_1_"  style="overflow:visible;fill:#DDDDDD;"/>
	<clipPath id="SVGID_2_">
		<use xlink:href="#SVGID_1_"  style="overflow:visible;"/>
	</clipPath>
	<g id="XMLID_4081_" class="st0">
		<defs>
			<rect id="XMLID_4118_" y="-0.4" width="300" height="300"/>
		</defs>
		<clipPath id="XMLID_3_">
			<use xlink:href="#XMLID_4118_"  style="overflow:visible;"/>
		</clipPath>
		<g class="st1">
			<defs>
				<rect id="SVGID_3_" x="-25" y="29.8" width="350" height="302.5"/>
			</defs>
			<clipPath id="SVGID_4_">
				<use xlink:href="#SVGID_3_"  style="overflow:visible;"/>
			</clipPath>
			<g class="st2">
				<path class="st3" d="M121.8,696.3L36,103.5c0.5,22,3.9,57,9,97.6c7,55.5,57.2,489.1,57.2,489.1s1.2,7.4,47.6,7.4
					c22.1,0,34-1.1,40.2-2.2c-3.9,0.6-10.1,1.2-19.7,1.7C143.2,698.5,121.8,696.3,121.8,696.3z"/>
				<g>
					<path class="st4" d="M45,171.4l66,523.1c0,0,4.9,2,18.4,2s5.6-179.1,5.6-179.1L94.6,189.6l-52.9-64.9L45,171.4z"/>
					<path class="st5" d="M44.7,171.4l70.9,523.7c0,0,3.9,1.4,17.4,1.4s6.4-179.1,6.4-179.1L99,189.6l-52.9-64.9L44.7,171.4z"/>
				</g>
				<path class="st6" d="M39.5,72.2c0,0,32.5-5.6,110.3-5.6s110.8,5.6,110.8,5.6s-39.8,22.4-100.8,22.6
					C98.9,95.1,39.5,72.2,39.5,72.2z"/>
				<g>
					<path class="st5" d="M39.2,72.4c0,0,79.2,7.9,115.6,7.9s104.3-7.9,104.3-7.9l-11.9,26.1l-117.5,23.2l-50.7-14l-31.4-15
						L39.2,72.4z"/>
					<path class="st7" d="M39.2,75c0,0,79.2,7.9,115.6,7.9S259.1,75,259.1,75l-11.9,26.1l-117.5,23.2l-50.7-14l-31.4-15L39.2,75z"/>
				</g>
				<path class="st3" d="M262.6,91.1C146.4,97.8,39.2,75,36.7,90.4C36,94.6,35.8,100.9,36,109l85.8,592.8c0,0,21.4,2.2,48.7,0.8
					c9.6-0.5,15.7-1.1,19.7-1.7c5.9-1,6.9-2,6.9-2s33-269.6,50.3-383.9S262.6,91.1,262.6,91.1z"/>
				<g>
					<path class="st4" d="M263.4,91.3l-0.8-7l-13.3-1.5l-99.1,7.6l-99.1-7.6l-13.3,1.5l-0.8,7L36.4,93l4.9,1.1l0.4,0.4l3.8,0.7
						l0.4-0.3c0,0,16.9,4.2,29.7,5.8c12.8,1.6,28.5,3.3,28.5,3.3l1.1,0.7l5.1,0.5l1.2-0.8c0,0,12.9,2,28.8,2c0.2,0,0.3,0,0.5,0
						c15.4,0,18.8,0,18.8,0c0.2,0,0.3,0,0.5,0c15.8,0,28.8-2,28.8-2l1.2,0.8l5.1-0.5l1.1-0.7c0,0,15.7-1.7,28.5-3.3
						c12.8-1.6,29.7-5.8,29.7-5.8l0.4,0.3l3.8-0.7L259,94l4.9-1.1L263.4,91.3z"/>
					<path class="st5" d="M263.3,90.7l-0.8-7l-13.3-1.5l-99.1,7.6L51,82.3l-13.3,1.5l-0.8,7l-0.6,1.7l4.9,1.1l0.4,0.4l3.8,0.7
						l0.4-0.3c0,0,16.9,4.2,29.7,5.8c12.8,1.6,28.5,3.3,28.5,3.3l1.1,0.7l5.1,0.5l1.2-0.8c0,0,12.9,2,28.8,2c0.2,0,0.3,0,0.5,0
						c15.4,0,18.8,0,18.8,0c0.2,0,0.3,0,0.5,0c15.8,0,28.8-2,28.8-2l1.2,0.8l5.1-0.5l1.1-0.7c0,0,15.7-1.7,28.5-3.3
						c12.8-1.6,29.7-5.8,29.7-5.8l0.4,0.3l3.8-0.7l0.4-0.4l4.9-1.1L263.3,90.7z"/>
				</g>
				<line class="st8" x1="111.8" y1="101.7" x2="111.8" y2="146.5"/>
				<line class="st8" x1="46.3" y1="92.2" x2="46.3" y2="137.1"/>
				<g>
					<polygon class="st4" points="172.7,702.7 180.4,702 180.4,93 172.7,97.1 					"/>
					<polygon class="st5" points="171.8,702.7 179.4,702.1 179.4,93 171.8,97.1 					"/>
				</g>
				<polygon class="st3" points="170.4,702.6 178.1,702.1 178.1,93 170.4,97.1 				"/>
				<g>
					<path class="st3" d="M261.9,73c-0.2-0.5-0.7-0.9-1.3-0.8c-8.3,1.7-68,13.3-110.6,13.7c-42.6-0.4-102.3-12-110.6-13.7
						c-0.6-0.1-1.1,0.2-1.3,0.8c-3.3,10.2-2.1,15.7-1.5,17.4c0.1,0.4,0.4,0.7,0.8,0.7c23.7,5.9,68.1,13.7,112.5,13.7
						s88.9-7.9,112.5-13.7c0.4-0.1,0.7-0.4,0.8-0.7C264,88.7,265.1,83.2,261.9,73z"/>
					<g>
						<polygon class="st4" points="112,83.6 113.4,83.8 112.2,103.1 110.3,103.2 110.7,83.9 						"/>
						<polygon class="st5" points="111.3,83.6 112.6,83.8 111.4,103.1 109.5,103.2 109.9,83.9 						"/>
					</g>
					<g>
						<polygon class="st4" points="193.9,83 195.3,83.1 196.4,102.4 194.5,102.8 192.6,83.6 						"/>
						<polygon class="st5" points="193.2,83.1 194.5,83.2 195.6,102.5 193.7,102.9 191.8,83.7 						"/>
					</g>
					<g>
						<polygon class="st4" points="257.1,72.9 258.4,72.9 260.1,92.2 258.2,92.6 255.8,73.5 						"/>
						<polygon class="st5" points="256.3,73 257.7,73 259.3,92.3 257.4,92.7 255,73.6 						"/>
					</g>
					<g>
						<polygon class="st4" points="48.8,74.2 50.1,74.5 48.2,93.7 46.3,93.8 47.4,74.6 						"/>
						<polygon class="st5" points="48,74.2 49.3,74.4 47.4,93.7 45.5,93.8 46.6,74.5 						"/>
					</g>
					<path class="st3" d="M105.5,102.5l1.1-19.2c0-0.6,0.6-1.1,1.3-1.1l2.6,0.3c1,0.1,1.4,0.5,1.4,1.1l-1,19.2
						c0,0.6-0.5,1.1-1.3,1.1l-2.7-0.3C106.1,103.6,105.5,103.1,105.5,102.5z"/>
					<path class="st3" d="M41.7,92.1l1.7-18.6c0-0.6,0.5-1,1.2-1L47,73c0.7,0,1.3,0.4,1.3,1l-1.7,18.5c0,0.5-0.5,1-1.2,1L43,93.1
						C42.3,93.1,41.7,92.7,41.7,92.1z"/>
					<path class="st3" d="M258.4,92.1l-1.7-18.6c0-0.6-0.5-1-1.2-1l-2.4,0.5c-0.7,0-1.3,0.4-1.3,1l1.7,18.5c0,0.5,0.5,1,1.2,1
						l2.4-0.5C257.8,93.1,258.4,92.7,258.4,92.1z"/>
					<path class="st3" d="M194.6,102.5l-1.1-19.2c0-0.6-0.6-1.1-1.3-1.1l-2.6,0.3c-1,0.1-1.4,0.5-1.4,1.1l1,19.2
						c0,0.6,0.5,1.1,1.3,1.1l2.7-0.3C193.9,103.6,194.6,103.1,194.6,102.5z"/>
				</g>
				<g>
					<path class="st4" d="M178.4,177.3c0,0,16.8-48,21.4-73.7c0,0-4,41.1-12.2,64.6s-9.5,20.3-9.5,20.3L178.4,177.3z"/>
					<path class="st5" d="M178.4,184.6c0,0,16.8-51.7,21.4-77.5c0,0-4.3,38.7-12.6,62.3s-9.1,20.1-9.1,20.1L178.4,184.6z"/>
				</g>
				<path class="st9" d="M200,102c0,0-6.9,66.5-21.6,87.5"/>
				<path class="st8" d="M178.4,187.8c0,0,9.9-21,15-49.4s5.4-36.2,5.4-36.2"/>
			</g>
		</g>
	</g>
	<g id="XMLID_1_" class="st0">
		<defs>
			<rect id="XMLID_4932_" x="-13.5" width="327.1" height="300"/>
		</defs>
		<clipPath id="XMLID_4_">
			<use xlink:href="#XMLID_4932_"  style="overflow:visible;"/>
		</clipPath>
	</g>
	<g class="st0">
		<path class="st10" d="M150.1,4.6c38.7,0,75.1,15.1,102.5,42.5c27.4,27.4,42.5,63.8,42.5,102.5s-15.1,75.1-42.5,102.5
			c-27.4,27.4-63.8,42.5-102.5,42.5S75,279.5,47.6,252.1C20.2,224.7,5.1,188.3,5.1,149.6S20.2,74.5,47.6,47.1
			C75,19.7,111.4,4.6,150.1,4.6 M150.1-0.4c-82.8,0-150,67.2-150,150s67.2,150,150,150s150-67.2,150-150S232.9-0.4,150.1-0.4
			L150.1-0.4z"/>
	</g>
</g>
</svg>
