<?xml version="1.0" encoding="utf-8"?>
<!-- Generator: Adobe Illustrator 19.0.0, SVG Export Plug-In . SVG Version: 6.00 Build 0)  -->
<svg version="1.1" id="Layer_1" xmlns="http://www.w3.org/2000/svg" xmlns:xlink="http://www.w3.org/1999/xlink" x="0px" y="0px"
	 viewBox="0 0 300 300" style="enable-background:new 0 0 300 300;" xml:space="preserve">
<style type="text/css">
	.st0{clip-path:url(#SVGID_2_);}
	.st1{clip-path:url(#XMLID_3_);}
	.st2{clip-path:url(#SVGID_4_);}
	.st3{fill:#F1F1F2;stroke:#404041;stroke-miterlimit:10;}
	.st4{fill:#C5C7C9;}
	.st5{fill:#929497;}
	.st6{fill:#FFFFFF;stroke:#404041;stroke-miterlimit:10;}
	.st7{fill:#F1F1F2;}
	.st8{fill:#FFFFFF;stroke:#808184;stroke-width:0.5;stroke-miterlimit:10;stroke-dasharray:1,2;}
	.st9{fill:#DBDCDD;}
	.st10{fill:#404041;stroke:#D0D2D3;stroke-width:0.5;stroke-miterlimit:10;}
	.st11{fill:#FFFFFF;stroke:#6D6E70;stroke-width:0.5;stroke-miterlimit:10;}
	.st12{fill:#FFFFFF;stroke:#929497;stroke-width:0.25;stroke-miterlimit:10;}
	.st13{fill:#404041;}
	.st14{fill:none;stroke:#6D6E70;stroke-width:0.5;stroke-miterlimit:10;}
	.st15{fill:#9AA0BB;}
</style>
<g>
	<defs>
		<circle id="SVGID_1_" cx="150.1" cy="149.6" r="150"/>
	</defs>
	<use xlink:href="#SVGID_1_"  style="overflow:visible;fill:#DDDDDD;"/>
	<clipPath id="SVGID_2_">
		<use xlink:href="#SVGID_1_"  style="overflow:visible;"/>
	</clipPath>
	<g id="XMLID_4081_" class="st0">
		<defs>
			<rect id="XMLID_4118_" y="-0.4" width="300" height="300"/>
		</defs>
		<clipPath id="XMLID_3_">
			<use xlink:href="#XMLID_4118_"  style="overflow:visible;"/>
		</clipPath>
		<g class="st1">
			<defs>
				<rect id="SVGID_3_" x="-25" y="29.7" width="350" height="302.5"/>
			</defs>
			<clipPath id="SVGID_4_">
				<use xlink:href="#SVGID_3_"  style="overflow:visible;"/>
			</clipPath>
			<g class="st2">
				<g>
					<path class="st3" d="M39.3,72.2c0,0,32.5-5.6,110.3-5.6s110.8,5.6,110.8,5.6s-39.8,22.4-100.8,22.6
						C98.7,95.1,39.3,72.2,39.3,72.2z"/>
					<g>
						<path class="st4" d="M39,72.4c0,0,79.2,7.9,115.6,7.9s104.3-7.9,104.3-7.9L247,98.5l-117.5,23.2l-50.7-14l-31.4-15L39,72.4z"
							/>
						<path class="st5" d="M39,75c0,0,79.2,7.9,115.6,7.9S258.9,75,258.9,75L247,101.2l-117.5,23.2l-50.7-14l-31.4-15L39,75z"/>
					</g>
					<path class="st6" d="M273.7,194.7c0-57-9.9-102.1-9.9-102.1l-0.8-7.1L144.9,97L37,85.5l-0.8,7.1c0,0-9.9,45.1-9.9,102.1
						c0,55.7-17.4,480.8-18.2,500.5c0,0.4,0.2,0.9,0.6,1.1c3,1.5,16.5,7.2,44.1,7.2c28,0,46.4-3.7,50.3-4.6c0.5-0.1,0.8-0.5,0.9-1
						l47.6-462.7L196,697.9c0.1,0.5,0.4,0.9,0.9,1c3.9,0.9,22.3,4.6,50.3,4.6c27.6,0,41.1-5.7,44.1-7.2c0.4-0.2,0.6-0.6,0.6-1.1
						C291.1,675.5,273.7,250.4,273.7,194.7z"/>
					<g>
						<path class="st7" d="M263.2,91.3l-0.8-7l-13.3-1.5L150,90.4l-99.1-7.6l-13.3,1.5l-0.8,7L36.2,93c0,0,26.5,6.1,39.3,7.7
							c12.8,1.6,28.5,3.3,28.5,3.3l7.4,0.4c0,0,12.9,2,28.8,2c0.2,0,0.3,0,0.5,0c15.4,0,18.8,0,18.8,0c0.2,0,0.3,0,0.5,0
							c15.8,0,28.9-1.5,28.9-1.5l7.2-0.9c0,0,15.7-1.7,28.5-3.3c12.8-1.6,29.7-5.8,29.7-5.8l4.6-0.8l4.9-1.1L263.2,91.3z"/>
						<path class="st4" d="M263.2,90.7l-0.8-7L249,82.3L150,89.9l-99.1-7.6l-13.3,1.5l-0.8,7l-0.6,1.7l4.9,1.1l4.6,0.8
							c0,0,16.9,4.2,29.7,5.8c12.8,1.6,28.5,3.3,28.5,3.3l7.4,0.4c0,0,12.9,2,28.8,2c0.2,0,0.3,0,0.5,0c15.4,0,18.8,0,18.8,0
							c0.2,0,0.3,0,0.5,0c15.8,0,36.2-2.4,36.2-2.4s15.7-1.7,28.5-3.3c12.8-1.6,29.7-5.8,29.7-5.8l4.6-0.8l4.9-1.1L263.2,90.7z"/>
					</g>
					<g>
						<path class="st6" d="M261.7,73c-0.2-0.5-0.7-0.9-1.3-0.8c-8.3,1.7-68,13.3-110.6,13.7c-42.6-0.4-102.3-12-110.6-13.7
							c-0.6-0.1-1.1,0.2-1.3,0.8c-3.3,10.2-2.1,15.7-1.5,17.4c0.1,0.4,0.4,0.7,0.8,0.7c23.7,5.9,68.1,13.7,112.5,13.7
							s88.9-7.9,112.5-13.7c0.4-0.1,0.7-0.4,0.8-0.7C263.8,88.7,265,83.2,261.7,73z"/>
						<g>
							<polygon class="st7" points="67.8,77.3 69.1,77.5 67.9,96.9 66,97 66.4,77.7 							"/>
							<polygon class="st4" points="67,77.3 68.3,77.5 67.1,96.9 65.2,97 65.6,77.7 							"/>
						</g>
						<path class="st6" d="M61.2,96.3l1.1-19.2c0-0.6,0.6-1.1,1.3-1.1l2.6,0.3c1,0.1,1.4,0.5,1.4,1.1l-1,19.2c0,0.6-0.5,1.1-1.3,1.1
							l-2.7-0.3C61.9,97.4,61.2,96.9,61.2,96.3z"/>
						<g>
							<polygon class="st7" points="232.3,77.3 230.9,77.5 232.1,96.9 234,97 233.6,77.7 							"/>
							<polygon class="st4" points="233.1,77.3 231.7,77.5 232.9,96.9 234.8,97 234.4,77.7 							"/>
						</g>
						<path class="st6" d="M238.8,96.3l-1.1-19.2c0-0.6-0.6-1.1-1.3-1.1l-2.6,0.3c-1,0.1-1.4,0.5-1.4,1.1l1,19.2
							c0,0.6,0.5,1.1,1.3,1.1l2.7-0.3C238.2,97.4,238.8,96.9,238.8,96.3z"/>
						<g>
							<rect x="147.4" y="85.7" class="st7" width="8.3" height="19"/>
							<rect x="148.1" y="85.7" class="st4" width="7" height="19"/>
						</g>
						<path class="st6" d="M150.3,105.5h2.6c0.8,0,1.4-0.6,1.4-1.4v-18c0-0.8-0.6-1.4-1.4-1.4h-2.6c-0.8,0-1.4,0.6-1.4,1.4v18
							C148.9,104.9,149.6,105.5,150.3,105.5z"/>
					</g>
				</g>
				<path class="st7" d="M179.6,136c0,0,13.2-0.7,34.5-0.7s35.2,0.7,35.2,0.7l-1.4-0.9c0,0-29-1.5-35.4-1.6
					c-6.4-0.1-32.2,1.1-32.2,1.1L179.6,136z"/>
				<path class="st4" d="M179.6,135.5c0,0,13.2-0.7,34.5-0.7s35.2,0.7,35.2,0.7l-1.4-0.9c0,0-29-1.5-35.4-1.6
					c-6.4-0.1-32.2,1.1-32.2,1.1L179.6,135.5z"/>
				<path class="st7" d="M249.3,135.3c0,0-13.2,0.7-34.5,0.7s-35.2-0.7-35.2-0.7l1.4,0.9c0,0,29,1.5,35.4,1.6
					c6.4,0.1,32.2-1.1,32.2-1.1L249.3,135.3z"/>
				<path class="st4" d="M249.3,135.9c0,0-13.2,0.7-34.5,0.7s-35.2-0.7-35.2-0.7l1.4,0.9c0,0,29,1.5,35.4,1.6
					c6.4,0.1,32.2-1.7,32.2-1.7L249.3,135.9z"/>
				<path class="st6" d="M179.2,135.5v-1.1c0-0.4,0.5-0.8,1.2-0.8l25.1-0.8c5.8-0.2,11.5-0.2,17.3,0l25.3,0.8c0.7,0,1.2,0.4,1.2,0.8
					v1.1c0,0-20.5-0.7-35.1-0.7C200.7,134.8,179.2,135.5,179.2,135.5z"/>
				<path class="st8" d="M249.3,135.8v1.3c0,0.4-0.5,0.8-1.2,0.8l-25.1,1.1c-5.8,0.2-11.5,0.2-17.3,0l-25.3-1.1
					c-0.7,0-1.2-0.4-1.2-0.8v-1.3c0,0,3.3,1.7,35.1,1.7S249.3,135.8,249.3,135.8z"/>
				<g id="XMLID_8047_">
					<circle id="XMLID_8062_" class="st7" cx="214.4" cy="145" r="4.3"/>
					<circle id="XMLID_8061_" class="st9" cx="214.5" cy="144.9" r="4.2"/>
					<path id="XMLID_8060_" class="st10" d="M214.6,153l0.7-7.2l-0.4-2.9c-0.1-0.8-1.2-0.8-1.3,0l-0.4,3l0.7,7.2
						C214,153.4,214.6,153.4,214.6,153z"/>
					<circle id="XMLID_8059_" class="st11" cx="214.4" cy="144.3" r="4.2"/>
					<circle id="XMLID_8058_" class="st12" cx="214.4" cy="144.3" r="3.6"/>
					<circle id="XMLID_8057_" class="st13" cx="213.7" cy="143.3" r="0.5"/>
					<circle id="XMLID_8056_" class="st13" cx="215" cy="145.9" r="0.5"/>
					<line id="XMLID_8055_" class="st14" x1="213.5" y1="143.3" x2="214.8" y2="145.9"/>
					<line id="XMLID_8054_" class="st14" x1="213.9" y1="143.2" x2="215.1" y2="145.8"/>
					<line id="XMLID_8053_" class="st14" x1="213.5" y1="143.3" x2="214.8" y2="145.9"/>
					<line id="XMLID_8052_" class="st14" x1="213.9" y1="143.2" x2="215.1" y2="145.8"/>
					<circle id="XMLID_8051_" class="st13" cx="213.1" cy="145.3" r="0.5"/>
					<circle id="XMLID_8050_" class="st13" cx="215.7" cy="144" r="0.5"/>
					<line id="XMLID_8049_" class="st14" x1="213.1" y1="145.5" x2="215.6" y2="144.2"/>
					<line id="XMLID_8048_" class="st14" x1="212.9" y1="145.1" x2="215.5" y2="143.9"/>
				</g>
				<line class="st6" x1="151.6" y1="105.5" x2="151.6" y2="235.3"/>
				<path class="st7" d="M151.9,117.4c0,0-7.4,183.4-8.1,190.2l8.1-74.2c0,0,7.5,79.3,7.5,73.4C159.4,300.8,151.9,117.4,151.9,117.4
					z"/>
			</g>
		</g>
	</g>
	<g id="XMLID_1_" class="st0">
		<defs>
			<rect id="XMLID_4932_" x="-13.5" width="327.1" height="300"/>
		</defs>
		<clipPath id="XMLID_4_">
			<use xlink:href="#XMLID_4932_"  style="overflow:visible;"/>
		</clipPath>
	</g>
	<g class="st0">
		<path class="st15" d="M150.1,4.6c38.7,0,75.1,15.1,102.5,42.5c27.4,27.4,42.5,63.8,42.5,102.5s-15.1,75.1-42.5,102.5
			c-27.4,27.4-63.8,42.5-102.5,42.5S75,279.5,47.6,252.1C20.2,224.7,5.1,188.3,5.1,149.6S20.2,74.5,47.6,47.1
			C75,19.7,111.4,4.6,150.1,4.6 M150.1-0.4c-82.8,0-150,67.2-150,150s67.2,150,150,150s150-67.2,150-150S232.9-0.4,150.1-0.4
			L150.1-0.4z"/>
	</g>
</g>
</svg>
