<?xml version="1.0" encoding="utf-8"?>
<!-- Generator: Adobe Illustrator 19.0.0, SVG Export Plug-In . SVG Version: 6.00 Build 0)  -->
<svg version="1.1" id="Layer_1" xmlns="http://www.w3.org/2000/svg" xmlns:xlink="http://www.w3.org/1999/xlink" x="0px" y="0px"
	 viewBox="0 0 300 300" style="enable-background:new 0 0 300 300;" xml:space="preserve">
<style type="text/css">
	.st0{clip-path:url(#SVGID_2_);}
	.st1{clip-path:url(#XMLID_4_);}
	.st2{fill:#FFFFFF;stroke:#404041;stroke-miterlimit:10;}
	.st3{fill:#F1F1F2;}
	.st4{fill:#C5C7C9;}
	.st5{fill:#FFFFFF;}
	.st6{fill:#404041;}
	.st7{fill:none;}
	.st8{fill:#808184;}
	.st9{fill:none;stroke:#404041;stroke-miterlimit:10;}
	.st10{fill:none;stroke:#808184;stroke-width:0.5;stroke-miterlimit:10;stroke-dasharray:1,2;}
	.st11{fill:#DBDCDD;}
	.st12{fill:#404041;stroke:#D0D2D3;stroke-width:0.5;stroke-miterlimit:10;}
	.st13{fill:#FFFFFF;stroke:#6D6E70;stroke-miterlimit:10;}
	.st14{fill:#FFFFFF;stroke:#929497;stroke-width:0.25;stroke-miterlimit:10;}
	.st15{fill:none;stroke:#6D6E70;stroke-width:0.5;stroke-miterlimit:10;}
	.st16{fill:#929497;}
	.st17{fill:none;stroke:#6D6E70;stroke-width:0.25;stroke-miterlimit:10;}
	.st18{fill:#F2F2F2;}
	.st19{fill:#BFBFBF;}
	.st20{fill:#808080;}
	.st21{fill:none;stroke:#FFFFFF;stroke-miterlimit:10;}
	.st22{fill:#F2F2F2;stroke:#404041;stroke-miterlimit:10;}
	.st23{clip-path:url(#XMLID_5_);fill:#808080;}
	.st24{clip-path:url(#XMLID_5_);fill:#BFBFBF;}
	.st25{fill:#9AA0BB;}
</style>
<g>
	<defs>
		<circle id="SVGID_1_" cx="150.1" cy="149.6" r="150"/>
	</defs>
	<use xlink:href="#SVGID_1_"  style="overflow:visible;fill:#DDDDDD;"/>
	<clipPath id="SVGID_2_">
		<use xlink:href="#SVGID_1_"  style="overflow:visible;"/>
	</clipPath>
	<g id="XMLID_4081_" class="st0">
		<defs>
			<rect id="XMLID_4118_" y="-0.4" width="300" height="300"/>
		</defs>
		<clipPath id="XMLID_4_">
			<use xlink:href="#XMLID_4118_"  style="overflow:visible;"/>
		</clipPath>
		<g class="st1">
			<g>
				<g>
					<g>
						<path class="st2" d="M299.2,255.5c3.5-25.5,41-62.9,55.8-100.3l-0.1-9.3c0,0,4.9,0.2,11.3,32.5c4,20.5,14.4,82.5,26,208.4
							c3.3,35.9,8.3,97.9,13.2,148.3c5,51.3,4.8,94.1,4.8,94.1l-67.9,5.2c0,0-10.8-51.8-14.8-89.5c-3.4-32.3-6.9-64.3-12.1-116.5
							C304.1,316.2,298.6,259.9,299.2,255.5z"/>
						<path class="st2" d="M0.8,255.5c-3.5-25.5-41-62.9-55.8-100.3l0.1-9.3c0,0-4.9,0.2-11.3,32.5c-4,20.5-14.4,82.5-26,208.4
							c-3.3,35.9-8.3,97.9-13.2,148.3c-5,51.3-4.8,94.1-4.8,94.1l67.9,5.2c0,0,10.8-51.8,14.8-89.5c3.4-32.3,6.9-64.3,12.1-116.5
							C-4.1,316.2,1.4,259.9,0.8,255.5z"/>
						<g>
							<polygon class="st3" points="-109.5,624.5 -40.9,629.3 -43.6,638.2 -109.5,633.5 							"/>
							<polygon class="st4" points="-109.5,627 -40.9,631.8 -43.6,640.7 -109.5,636 							"/>
						</g>
						<g id="XMLID_5461_">
							<g id="XMLID_5462_">
								<g id="XMLID_5468_">
									<g>
										<path class="st5" d="M-86,630.9l-25-1.8c-0.8-0.1-1.5,0.5-1.5,1.3l-2.1,45.9c-0.1,0.8,0.5,1.5,1.3,1.5l23.9,1.8l0,0
											c-0.7,0-1.4-0.6-1.3-1.5l0,0l2.3-32.3C-88.5,645.4-85.8,630.9-86,630.9z"/>
									</g>
									<g>
										<path class="st6" d="M-115,676.3l2.1-45.9c0.1-0.9,0.9-1.6,1.8-1.6l25,1.8l0.1,0l0.1,0.1c0.1,0.2,0.1,0.8-1.9,12
											c-0.3,1.6-0.6,3-0.6,3.2l-2.3,32.3c0,0.4,0.1,0.7,0.3,0.9c0.2,0.2,0.5,0.4,0.8,0.4l1.3,0.6l-25.1-1.9
											C-114.4,678-115.1,677.2-115,676.3z M-91.1,678.1l2.3-32.3c0-0.1,0.2-1.1,0.6-3.2c0.6-3.4,1.9-10.2,2-11.5l-24.8-1.8
											c-0.7,0-1.2,0.4-1.3,1.1l-2.1,45.9c0,0.7,0.4,1.2,1.1,1.3l22.7,1.7C-91,679-91.1,678.5-91.1,678.1z"/>
									</g>
								</g>
								<g id="XMLID_5467_">
									<g>
										<path class="st5" d="M-41.1,634.1c1.2,0.1,2.1,0.8,2.1,1.6l-4.4,45.9c-0.1,0.8-1.1,1.4-2.3,1.3l-66.6-4.9
											c-1.2-0.1-2.1-0.8-2.1-1.6l2.1-45.9c0.1-0.8,1.1-1.4,2.3-1.3L-41.1,634.1z"/>
									</g>
									<path class="st7" d="M-39.3,635.7l-4.4,45.9c0,0.7-0.6,1.1-1.3,1.1l-43.6-3.2l3-48.3l45.2,3.2
										C-39.8,634.4-39.3,635-39.3,635.7z"/>
									<path class="st6" d="M-45,682.6c0.7,0,1.2-0.4,1.3-1.1l4.4-45.9c0-0.7-0.4-1.2-1.1-1.3l-70.9-5l0-0.5l70.9,5
										c0.9,0.1,1.6,0.9,1.6,1.8l-4.4,45.9c-0.1,0.9-0.9,1.6-1.8,1.6l-68.5-5.1l0-0.5L-45,682.6z"/>
								</g>
								<g id="XMLID_5466_">
									<g>
										<g>
											
												<rect x="-86.4" y="632" transform="matrix(-0.9975 -7.105730e-02 7.105730e-02 -0.9975 -217.2306 1256.5264)" class="st8" width="0.3" height="0.3"/>
										</g>
									</g>
									<g>
										<g>
											<path class="st8" d="M-88,678.8l0.5,0l0,0.3l-0.5,0L-88,678.8z M-86.5,678.9l0.5,0l0,0.3l-0.5,0L-86.5,678.9z M-84.9,679
												l0.5,0l0,0.3l-0.5,0L-84.9,679z M-83.4,679.1l0.5,0l0,0.3l-0.5,0L-83.4,679.1z M-81.9,679.2l0.5,0l0,0.3l-0.5,0
												L-81.9,679.2z M-80.4,679.4l0.5,0l0,0.3l-0.5,0L-80.4,679.4z M-78.9,679.5l0.5,0l0,0.3l-0.5,0L-78.9,679.5z M-77.4,679.6
												l0.5,0l0,0.3l-0.5,0L-77.4,679.6z M-75.9,679.7l0.5,0l0,0.3l-0.5,0L-75.9,679.7z M-74.4,679.8l0.5,0l0,0.3l-0.5,0
												L-74.4,679.8z M-72.9,679.9l0.5,0l0,0.3l-0.5,0L-72.9,679.9z M-71.3,680l0.5,0l0,0.3l-0.5,0L-71.3,680z M-69.8,680.1
												l0.5,0l0,0.3l-0.5,0L-69.8,680.1z M-68.3,680.2l0.5,0l0,0.3l-0.5,0L-68.3,680.2z M-66.8,680.3l0.5,0l0,0.3l-0.5,0
												L-66.8,680.3z M-65.3,680.4l0.5,0l0,0.3l-0.5,0L-65.3,680.4z M-63.8,680.5l0.5,0l0,0.3l-0.5,0L-63.8,680.5z M-62.3,680.6
												l0.5,0l0,0.3l-0.5,0L-62.3,680.6z M-61.9,680.8l0.5,0l0,0.3l-0.5,0L-61.9,680.8z M-60.4,680.9l0.5,0l0,0.3l-0.5,0
												L-60.4,680.9z M-58.9,681l0.5,0l0,0.3l-0.5,0L-58.9,681z M-57.4,681.1l0.5,0l0,0.3l-0.5,0L-57.4,681.1z M-55.9,681.2
												l0.5,0l0,0.3l-0.5,0L-55.9,681.2z M-54.4,681.3l0.5,0l0,0.3l-0.5,0L-54.4,681.3z M-52.8,681.4l0.5,0l0,0.3l-0.5,0
												L-52.8,681.4z M-51.3,681.5l0.5,0l0,0.3l-0.5,0L-51.3,681.5z M-49.8,681.6l0.5,0l0,0.3l-0.5,0L-49.8,681.6z M-48.3,681.7
												l0.5,0l0,0.3l-0.5,0L-48.3,681.7z M-46.8,681.8l0.5,0l0,0.3l-0.5,0L-46.8,681.8z M-45.3,681.9l0.5,0l0,0.3l-0.5,0
												L-45.3,681.9z M-89.5,678.7l0.2-0.2c0.1,0.1,0.2,0.2,0.3,0.2L-89,679C-89.2,678.9-89.4,678.8-89.5,678.7z"/>
										</g>
									</g>
									<g>
										<g>
											
												<rect x="-43.8" y="682.1" transform="matrix(-0.9975 -7.105730e-02 7.105730e-02 -0.9975 -135.6656 1359.532)" class="st8" width="0.3" height="0.3"/>
										</g>
									</g>
								</g>
								<g id="XMLID_5465_">
									<g>
										<g>
											
												<rect x="-86.5" y="635.2" transform="matrix(-0.9975 -7.105730e-02 7.105730e-02 -0.9975 -217.7259 1262.8129)" class="st8" width="0.3" height="0.3"/>
										</g>
									</g>
									<g>
										<g>
											<path class="st8" d="M-85.2,635.2l0.5,0l0,0.3l-0.5,0L-85.2,635.2z M-83.7,635.3l0.5,0l0,0.3l-0.5,0L-83.7,635.3z
												 M-82.2,635.5l0.5,0l0,0.3l-0.5,0L-82.2,635.5z M-80.7,635.6l0.5,0l0,0.3l-0.5,0L-80.7,635.6z M-79.2,635.7l0.5,0l0,0.3
												l-0.5,0L-79.2,635.7z M-77.6,635.8l0.5,0l0,0.3l-0.5,0L-77.6,635.8z M-76.1,635.9l0.5,0l0,0.3l-0.5,0L-76.1,635.9z
												 M-74.6,636l0.5,0l0,0.3l-0.5,0L-74.6,636z M-73.1,636.1l0.5,0l0,0.3l-0.5,0L-73.1,636.1z M-71.5,636.2l0.5,0l0,0.3
												l-0.5,0L-71.5,636.2z M-70,636.3l0.5,0l0,0.3l-0.5,0L-70,636.3z M-68.5,636.4l0.5,0l0,0.3l-0.5,0L-68.5,636.4z
												 M-67,636.5l0.5,0l0,0.3l-0.5,0L-67,636.5z M-65.4,636.6l0.5,0l0,0.3l-0.5,0L-65.4,636.6z M-63.9,636.8l0.5,0l0,0.3
												l-0.5,0L-63.9,636.8z M-62.4,636.9l0.5,0l0,0.3l-0.5,0L-62.4,636.9z M-60.9,637l0.5,0l0,0.3l-0.5,0L-60.9,637z
												 M-59.3,637.1l0.5,0l0,0.3l-0.5,0L-59.3,637.1z M-57.8,637.2l0.5,0l0,0.3l-0.5,0L-57.8,637.2z M-56.3,637.3l0.5,0l0,0.3
												l-0.5,0L-56.3,637.3z M-54.8,637.4l0.5,0l0,0.3l-0.5,0L-54.8,637.4z M-53.2,637.5l0.5,0l0,0.3l-0.5,0L-53.2,637.5z
												 M-51.7,637.6l0.5,0l0,0.3l-0.5,0L-51.7,637.6z M-50.2,637.7l0.5,0l0,0.3l-0.5,0L-50.2,637.7z M-48.7,637.8l0.5,0l0,0.3
												l-0.5,0L-48.7,637.8z M-47.1,637.9l0.5,0l0,0.3l-0.5,0L-47.1,637.9z M-45.6,638.1l0.5,0l0,0.3l-0.5,0L-45.6,638.1z
												 M-44.1,638.2l0.5,0l0,0.3l-0.5,0L-44.1,638.2z M-42.6,638.3l0.5,0l0,0.3l-0.5,0L-42.6,638.3z M-41,638.4l0.5,0l0,0.3
												l-0.5,0L-41,638.4z"/>
										</g>
									</g>
									<g>
										<g>
											<polygon class="st8" points="-39.5,638.7 -39.2,638.8 -39.1,638.4 -39.4,638.4 -39.4,638.5 -39.5,638.5 											"/>
										</g>
									</g>
									<g>
										<g>
											
												<rect x="-39.3" y="636.7" transform="matrix(-0.9975 -7.105730e-02 7.105730e-02 -0.9975 -123.4678 1269.6086)" class="st8" width="0.3" height="0.6"/>
										</g>
									</g>
									<g>
										<g>
											<polygon class="st8" points="-39.2,635.6 -38.9,635.6 -38.9,635.2 -39.3,635.2 -39.3,635.5 -39.2,635.5 											"/>
										</g>
									</g>
									<g>
										<g>
											<path class="st8" d="M-85,632l0.5,0l0,0.3l-0.5,0L-85,632z M-83.5,632.1l0.5,0l0,0.3l-0.5,0L-83.5,632.1z M-82,632.2
												l0.5,0l0,0.3l-0.5,0L-82,632.2z M-80.4,632.3l0.5,0l0,0.3l-0.5,0L-80.4,632.3z M-78.9,632.4l0.5,0l0,0.3l-0.5,0
												L-78.9,632.4z M-77.4,632.5l0.5,0l0,0.3l-0.5,0L-77.4,632.5z M-75.9,632.6l0.5,0l0,0.3l-0.5,0L-75.9,632.6z M-74.3,632.7
												l0.5,0l0,0.3l-0.5,0L-74.3,632.7z M-72.8,632.8l0.5,0l0,0.3l-0.5,0L-72.8,632.8z M-71.3,632.9l0.5,0l0,0.3l-0.5,0
												L-71.3,632.9z M-69.8,633l0.5,0l0,0.3l-0.5,0L-69.8,633z M-68.2,633.2l0.5,0l0,0.3l-0.5,0L-68.2,633.2z M-66.7,633.3
												l0.5,0l0,0.3l-0.5,0L-66.7,633.3z M-65.2,633.4l0.5,0l0,0.3l-0.5,0L-65.2,633.4z M-63.7,633.5l0.5,0l0,0.3l-0.5,0
												L-63.7,633.5z M-62.1,633.6l0.5,0l0,0.3l-0.5,0L-62.1,633.6z M-60.6,633.7l0.5,0l0,0.3l-0.5,0L-60.6,633.7z M-59.1,633.8
												l0.5,0l0,0.3l-0.5,0L-59.1,633.8z M-57.6,633.9l0.5,0l0,0.3l-0.5,0L-57.6,633.9z M-56,634l0.5,0l0,0.3l-0.5,0L-56,634z
												 M-54.5,634.1l0.5,0l0,0.3l-0.5,0L-54.5,634.1z M-53,634.2l0.5,0l0,0.3l-0.5,0L-53,634.2z M-51.5,634.4l0.5,0l0,0.3
												l-0.5,0L-51.5,634.4z M-50,634.5l0.5,0l0,0.3l-0.5,0L-50,634.5z M-48.4,634.6l0.5,0l0,0.3l-0.5,0L-48.4,634.6z
												 M-46.9,634.7l0.5,0l0,0.3l-0.5,0L-46.9,634.7z M-45.4,634.8l0.5,0l0,0.3l-0.5,0L-45.4,634.8z M-43.9,634.9l0.5,0l0,0.3
												l-0.5,0L-43.9,634.9z M-42.3,635l0.5,0l0,0.3l-0.5,0L-42.3,635z M-40.8,635.1l0.5,0l0,0.3l-0.5,0L-40.8,635.1z"/>
										</g>
									</g>
									<g>
										<g>
											
												<rect x="-86.3" y="631.9" transform="matrix(-0.9975 -7.105730e-02 7.105730e-02 -0.9975 -217.0278 1256.2924)" class="st8" width="0.3" height="0.3"/>
										</g>
									</g>
								</g>
								<g id="XMLID_5464_">
									<g>
										<g>
											
												<rect x="-112.8" y="633.3" transform="matrix(-0.9975 -7.105730e-02 7.105730e-02 -0.9975 -270.1484 1257.1993)" class="st8" width="0.3" height="0.3"/>
										</g>
									</g>
									<g>
										<g>
											<path class="st8" d="M-111.5,633.4l0.5,0l0,0.3l-0.5,0L-111.5,633.4z M-110,633.5l0.5,0l0,0.3l-0.5,0L-110,633.5z
												 M-108.4,633.6l0.5,0l0,0.3l-0.5,0L-108.4,633.6z M-106.8,633.7l0.5,0l0,0.3l-0.5,0L-106.8,633.7z M-105.3,633.8l0.5,0
												l0,0.3l-0.5,0L-105.3,633.8z M-103.7,633.9l0.5,0l0,0.3l-0.5,0L-103.7,633.9z M-102.1,634l0.5,0l0,0.3l-0.5,0L-102.1,634
												z M-100.6,634.1l0.5,0l0,0.3l-0.5,0L-100.6,634.1z M-99,634.3l0.5,0l0,0.3l-0.5,0L-99,634.3z M-97.4,634.4l0.5,0l0,0.3
												l-0.5,0L-97.4,634.4z M-95.9,634.5l0.5,0l0,0.3l-0.5,0L-95.9,634.5z M-94.3,634.6l0.5,0l0,0.3l-0.5,0L-94.3,634.6z
												 M-92.7,634.7l0.5,0l0,0.3l-0.5,0L-92.7,634.7z M-91.2,634.8l0.5,0l0,0.3l-0.5,0L-91.2,634.8z M-89.6,634.9l0.5,0l0,0.3
												l-0.5,0L-89.6,634.9z"/>
										</g>
									</g>
									<g>
										<g>
											<polygon class="st8" points="-88.1,635.3 -87.7,635.3 -87.7,634.9 -87.9,634.9 -87.9,635 -88,635 											"/>
										</g>
									</g>
									<g>
										<g>
											<polygon class="st8" points="-87.7,632.2 -87.5,632.2 -87.4,631.8 -87.8,631.8 -87.8,632 -87.7,632 											"/>
										</g>
									</g>
									<g>
										<g>
											<path class="st8" d="M-111.3,630.1l0.5,0l0,0.3l-0.5,0L-111.3,630.1z M-109.7,630.2l0.5,0l0,0.3l-0.5,0L-109.7,630.2z
												 M-108.2,630.3l0.5,0l0,0.3l-0.5,0L-108.2,630.3z M-106.6,630.4l0.5,0l0,0.3l-0.5,0L-106.6,630.4z M-105,630.5l0.5,0
												l0,0.3l-0.5,0L-105,630.5z M-103.5,630.6l0.5,0l0,0.3l-0.5,0L-103.5,630.6z M-101.9,630.8l0.5,0l0,0.3l-0.5,0
												L-101.9,630.8z M-100.3,630.9l0.5,0l0,0.3l-0.5,0L-100.3,630.9z M-98.8,631l0.5,0l0,0.3l-0.5,0L-98.8,631z M-97.2,631.1
												l0.5,0l0,0.3l-0.5,0L-97.2,631.1z M-95.6,631.2l0.5,0l0,0.3l-0.5,0L-95.6,631.2z M-94.1,631.3l0.5,0l0,0.3l-0.5,0
												L-94.1,631.3z M-92.5,631.4l0.5,0l0,0.3l-0.5,0L-92.5,631.4z M-90.9,631.5l0.5,0l0,0.3l-0.5,0L-90.9,631.5z M-89.4,631.7
												l0.5,0l0,0.3l-0.5,0L-89.4,631.7z"/>
										</g>
									</g>
									<g>
										<g>
											
												<rect x="-112.6" y="630" transform="matrix(-0.9975 -7.105730e-02 7.105730e-02 -0.9975 -269.4503 1250.6788)" class="st8" width="0.3" height="0.3"/>
										</g>
									</g>
								</g>
								<g id="XMLID_5463_">
									<g>
										<path class="st8" d="M-114.5,676.8l0.5,0l0,0.3l-0.5,0L-114.5,676.8z M-112.9,677l0.5,0l0,0.3l-0.5,0L-112.9,677z
											 M-111.4,677.1l0.5,0l0,0.3l-0.5,0L-111.4,677.1z M-109.9,677.2l0.5,0l0,0.3l-0.5,0L-109.9,677.2z M-108.4,677.3l0.5,0
											l0,0.3l-0.5,0L-108.4,677.3z M-106.9,677.4l0.5,0l0,0.3l-0.5,0L-106.9,677.4z M-105.3,677.5l0.5,0l0,0.3l-0.5,0
											L-105.3,677.5z M-103.8,677.6l0.5,0l0,0.3l-0.5,0L-103.8,677.6z M-102.3,677.7l0.5,0l0,0.3l-0.5,0L-102.3,677.7z
											 M-100.8,677.8l-0.6,0l0,0.3l0.6,0L-100.8,677.8z M-100.4,677.9l0.5,0l0,0.3l-0.5,0L-100.4,677.9z M-98.9,678l0.5,0l0,0.3
											l-0.5,0L-98.9,678z M-97.4,678.1l0.5,0l0,0.3l-0.5,0L-97.4,678.1z M-95.8,678.3l0.5,0l0,0.3l-0.5,0L-95.8,678.3z
											 M-94.3,678.4l0.5,0l0,0.3l-0.5,0L-94.3,678.4z M-92.8,678.5l0.5,0l0,0.3l-0.5,0L-92.8,678.5z M-91.3,678.6l0.5,0l0,0.3
											l-0.5,0L-91.3,678.6z M-89.7,678.7l0.5,0l0,0.3l-0.5,0L-89.7,678.7z M-88.2,678.8l0.5,0l0,0.3l-0.5,0L-88.2,678.8z
											 M-86.7,678.9l0.2,0l0,0.3l-0.2,0L-86.7,678.9z"/>
									</g>
								</g>
								<path class="st9" d="M-113.9,676.3l2.1-45.9c0-0.5,0.4-0.9,1-1.1l0-0.4l70.9,5c0.9,0.1,1.6,0.9,1.6,1.8l-4.4,45.9
									c-0.1,0.9-0.9,1.6-1.8,1.6l-68.5-5.1l0-0.5C-113.6,677.3-114,676.8-113.9,676.3z"/>
							</g>
						</g>
						<g>
							<polygon class="st3" points="409.4,624.5 340.8,629.3 343.6,638.2 409.4,633.5 							"/>
							<polygon class="st4" points="409.4,627 340.8,631.8 343.6,640.7 409.4,636 							"/>
						</g>
						<g id="XMLID_4689_">
							<g id="XMLID_4690_">
								<g id="XMLID_5334_">
									<g>
										<path class="st5" d="M386,630.9l25-1.8c0.8-0.1,1.5,0.5,1.5,1.3l2.1,45.9c0.1,0.8-0.5,1.5-1.3,1.5l-23.9,1.8l0,0
											c0.7,0,1.4-0.6,1.3-1.5l0,0l-2.3-32.3C388.5,645.4,385.8,630.9,386,630.9z"/>
									</g>
									<g>
										<path class="st6" d="M413.4,678.1l-25.1,1.9l1.3-0.6c0.3,0,0.6-0.2,0.8-0.4c0.1-0.2,0.3-0.4,0.3-0.9l-2.3-32.3
											c0-0.1-0.3-1.5-0.6-3.2c-2-11.2-2-11.8-1.9-12l0.1-0.1l0.1,0l25-1.8c0.9-0.1,1.7,0.6,1.8,1.6l2.1,45.9
											C415.1,677.2,414.4,678,413.4,678.1z M390.7,679.3l22.7-1.7c0.7,0,1.1-0.6,1.1-1.3l-2.1-45.9c0-0.7-0.6-1.1-1.3-1.1
											l-24.8,1.8c0.1,1.3,1.3,8.1,2,11.5c0.4,2.1,0.6,3.1,0.6,3.2l2.3,32.3C391.1,678.5,391,679,390.7,679.3z"/>
									</g>
								</g>
								<g id="XMLID_5301_">
									<g>
										<path class="st5" d="M341.1,634.1c-1.2,0.1-2.1,0.8-2.1,1.6l4.4,45.9c0.1,0.8,1.1,1.4,2.3,1.3l66.6-4.9
											c1.2-0.1,2.1-0.8,2.1-1.6l-2.1-45.9c-0.1-0.8-1.1-1.4-2.3-1.3L341.1,634.1z"/>
									</g>
									<path class="st7" d="M339.3,635.7l4.4,45.9c0,0.7,0.6,1.1,1.3,1.1l43.6-3.2l-3-48.3l-45.2,3.2
										C339.8,634.4,339.3,635,339.3,635.7z"/>
									<path class="st6" d="M345,682.6c-0.7,0-1.2-0.4-1.3-1.1l-4.4-45.9c0-0.7,0.4-1.2,1.1-1.3l70.9-5l0-0.5l-70.9,5
										c-0.9,0.1-1.6,0.9-1.6,1.8l4.4,45.9c0.1,0.9,0.9,1.6,1.8,1.6l68.5-5.1l0-0.5L345,682.6z"/>
								</g>
								<g id="XMLID_5300_">
									<g>
										<g>
											
												<rect x="386.1" y="632" transform="matrix(0.9975 -7.105730e-02 7.105730e-02 0.9975 -43.9409 29.0449)" class="st8" width="0.3" height="0.3"/>
										</g>
									</g>
									<g>
										<g>
											<path class="st8" d="M388,679.1l-0.5,0l0-0.3l0.5,0L388,679.1z M386.5,679.2l-0.5,0l0-0.3l0.5,0L386.5,679.2z M385,679.3
												l-0.5,0l0-0.3l0.5,0L385,679.3z M383.5,679.4l-0.5,0l0-0.3l0.5,0L383.5,679.4z M381.9,679.5l-0.5,0l0-0.3l0.5,0
												L381.9,679.5z M380.4,679.6l-0.5,0l0-0.3l0.5,0L380.4,679.6z M378.9,679.7l-0.5,0l0-0.3l0.5,0L378.9,679.7z M377.4,679.8
												l-0.5,0l0-0.3l0.5,0L377.4,679.8z M375.9,679.9l-0.5,0l0-0.3l0.5,0L375.9,679.9z M374.4,680l-0.5,0l0-0.3l0.5,0
												L374.4,680z M372.9,680.1l-0.5,0l0-0.3l0.5,0L372.9,680.1z M371.4,680.3l-0.5,0l0-0.3l0.5,0L371.4,680.3z M369.8,680.4
												l-0.5,0l0-0.3l0.5,0L369.8,680.4z M368.3,680.5l-0.5,0l0-0.3l0.5,0L368.3,680.5z M366.8,680.6l-0.5,0l0-0.3l0.5,0
												L366.8,680.6z M365.3,680.7l-0.5,0l0-0.3l0.5,0L365.3,680.7z M363.8,680.8l-0.5,0l0-0.3l0.5,0L363.8,680.8z M362.3,680.9
												l-0.5,0l0-0.3l0.5,0L362.3,680.9z M361.9,681l-0.5,0l0-0.3l0.5,0L361.9,681z M360.4,681.1l-0.5,0l0-0.3l0.5,0
												L360.4,681.1z M358.9,681.2l-0.5,0l0-0.3l0.5,0L358.9,681.2z M357.4,681.3l-0.5,0l0-0.3l0.5,0L357.4,681.3z M355.9,681.4
												l-0.5,0l0-0.3l0.5,0L355.9,681.4z M354.4,681.5l-0.5,0l0-0.3l0.5,0L354.4,681.5z M352.9,681.7l-0.5,0l0-0.3l0.5,0
												L352.9,681.7z M351.3,681.8l-0.5,0l0-0.3l0.5,0L351.3,681.8z M349.8,681.9l-0.5,0l0-0.3l0.5,0L349.8,681.9z M348.3,682
												l-0.5,0l0-0.3l0.5,0L348.3,682z M346.8,682.1l-0.5,0l0-0.3l0.5,0L346.8,682.1z M345.3,682.2l-0.5,0l0-0.3l0.5,0
												L345.3,682.2z M389,679l-0.1-0.2c0.1,0,0.3-0.1,0.3-0.2l0.2,0.2C389.4,678.8,389.2,678.9,389,679z"/>
										</g>
									</g>
									<g>
										<g>
											
												<rect x="343.5" y="682.1" transform="matrix(0.9975 -7.105730e-02 7.105730e-02 0.9975 -47.6051 26.1433)" class="st8" width="0.3" height="0.3"/>
										</g>
									</g>
								</g>
								<g id="XMLID_5299_">
									<g>
										<g>
											
												<rect x="386.3" y="635.2" transform="matrix(0.9975 -7.105730e-02 7.105730e-02 0.9975 -44.1645 29.0625)" class="st8" width="0.3" height="0.3"/>
										</g>
									</g>
									<g>
										<g>
											<path class="st8" d="M385.3,635.5l-0.5,0l0-0.3l0.5,0L385.3,635.5z M383.7,635.6l-0.5,0l0-0.3l0.5,0L383.7,635.6z
												 M382.2,635.7l-0.5,0l0-0.3l0.5,0L382.2,635.7z M380.7,635.8l-0.5,0l0-0.3l0.5,0L380.7,635.8z M379.2,635.9l-0.5,0l0-0.3
												l0.5,0L379.2,635.9z M377.6,636l-0.5,0l0-0.3l0.5,0L377.6,636z M376.1,636.1l-0.5,0l0-0.3l0.5,0L376.1,636.1z
												 M374.6,636.2l-0.5,0l0-0.3l0.5,0L374.6,636.2z M373.1,636.4l-0.5,0l0-0.3l0.5,0L373.1,636.4z M371.5,636.5l-0.5,0l0-0.3
												l0.5,0L371.5,636.5z M370,636.6l-0.5,0l0-0.3l0.5,0L370,636.6z M368.5,636.7l-0.5,0l0-0.3l0.5,0L368.5,636.7z M367,636.8
												l-0.5,0l0-0.3l0.5,0L367,636.8z M365.4,636.9l-0.5,0l0-0.3l0.5,0L365.4,636.9z M363.9,637l-0.5,0l0-0.3l0.5,0L363.9,637z
												 M362.4,637.1l-0.5,0l0-0.3l0.5,0L362.4,637.1z M360.9,637.2l-0.5,0l0-0.3l0.5,0L360.9,637.2z M359.4,637.3l-0.5,0l0-0.3
												l0.5,0L359.4,637.3z M357.8,637.4l-0.5,0l0-0.3l0.5,0L357.8,637.4z M356.3,637.6l-0.5,0l0-0.3l0.5,0L356.3,637.6z
												 M354.8,637.7l-0.5,0l0-0.3l0.5,0L354.8,637.7z M353.3,637.8l-0.5,0l0-0.3l0.5,0L353.3,637.8z M351.7,637.9l-0.5,0l0-0.3
												l0.5,0L351.7,637.9z M350.2,638l-0.5,0l0-0.3l0.5,0L350.2,638z M348.7,638.1l-0.5,0l0-0.3l0.5,0L348.7,638.1z
												 M347.2,638.2l-0.5,0l0-0.3l0.5,0L347.2,638.2z M345.6,638.3l-0.5,0l0-0.3l0.5,0L345.6,638.3z M344.1,638.4l-0.5,0l0-0.3
												l0.5,0L344.1,638.4z M342.6,638.5l-0.5,0l0-0.3l0.5,0L342.6,638.5z M341.1,638.6l-0.5,0l0-0.3l0.5,0L341.1,638.6z"/>
										</g>
									</g>
									<g>
										<g>
											<polygon class="st8" points="339.5,638.7 339.2,638.8 339.1,638.4 339.4,638.4 339.4,638.5 339.5,638.5 											"/>
										</g>
									</g>
									<g>
										<g>
											
												<rect x="339" y="636.7" transform="matrix(0.9975 -7.105730e-02 7.105730e-02 0.9975 -44.4062 25.7094)" class="st8" width="0.3" height="0.6"/>
										</g>
									</g>
									<g>
										<g>
											<polygon class="st8" points="339.2,635.6 338.9,635.6 338.9,635.2 339.3,635.2 339.3,635.5 339.2,635.5 											"/>
										</g>
									</g>
									<g>
										<g>
											<path class="st8" d="M385,632.2l-0.5,0l0-0.3l0.5,0L385,632.2z M383.5,632.3l-0.5,0l0-0.3l0.5,0L383.5,632.3z M382,632.4
												l-0.5,0l0-0.3l0.5,0L382,632.4z M380.5,632.5l-0.5,0l0-0.3l0.5,0L380.5,632.5z M378.9,632.6l-0.5,0l0-0.3l0.5,0
												L378.9,632.6z M377.4,632.8l-0.5,0l0-0.3l0.5,0L377.4,632.8z M375.9,632.9l-0.5,0l0-0.3l0.5,0L375.9,632.9z M374.4,633
												l-0.5,0l0-0.3l0.5,0L374.4,633z M372.8,633.1l-0.5,0l0-0.3l0.5,0L372.8,633.1z M371.3,633.2l-0.5,0l0-0.3l0.5,0
												L371.3,633.2z M369.8,633.3l-0.5,0l0-0.3l0.5,0L369.8,633.3z M368.3,633.4l-0.5,0l0-0.3l0.5,0L368.3,633.4z M366.7,633.5
												l-0.5,0l0-0.3l0.5,0L366.7,633.5z M365.2,633.6l-0.5,0l0-0.3l0.5,0L365.2,633.6z M363.7,633.7l-0.5,0l0-0.3l0.5,0
												L363.7,633.7z M362.2,633.8l-0.5,0l0-0.3l0.5,0L362.2,633.8z M360.6,634l-0.5,0l0-0.3l0.5,0L360.6,634z M359.1,634.1
												l-0.5,0l0-0.3l0.5,0L359.1,634.1z M357.6,634.2l-0.5,0l0-0.3l0.5,0L357.6,634.2z M356.1,634.3l-0.5,0l0-0.3l0.5,0
												L356.1,634.3z M354.5,634.4l-0.5,0l0-0.3l0.5,0L354.5,634.4z M353,634.5l-0.5,0l0-0.3l0.5,0L353,634.5z M351.5,634.6
												l-0.5,0l0-0.3l0.5,0L351.5,634.6z M350,634.7l-0.5,0l0-0.3l0.5,0L350,634.7z M348.4,634.8l-0.5,0l0-0.3l0.5,0
												L348.4,634.8z M346.9,634.9l-0.5,0l0-0.3l0.5,0L346.9,634.9z M345.4,635l-0.5,0l0-0.3l0.5,0L345.4,635z M343.9,635.1
												l-0.5,0l0-0.3l0.5,0L343.9,635.1z M342.3,635.3l-0.5,0l0-0.3l0.5,0L342.3,635.3z M340.8,635.4l-0.5,0l0-0.3l0.5,0
												L340.8,635.4z"/>
										</g>
									</g>
									<g>
										<g>
											
												<rect x="386" y="631.9" transform="matrix(0.9975 -7.105730e-02 7.105730e-02 0.9975 -43.9325 29.0377)" class="st8" width="0.3" height="0.3"/>
										</g>
									</g>
								</g>
								<g id="XMLID_4692_">
									<g>
										<g>
											
												<rect x="412.6" y="633.3" transform="matrix(0.9975 -7.105730e-02 7.105730e-02 0.9975 -43.9648 30.9273)" class="st8" width="0.3" height="0.3"/>
										</g>
									</g>
									<g>
										<g>
											<path class="st8" d="M411.6,633.6l-0.5,0l0-0.3l0.5,0L411.6,633.6z M410,633.7l-0.5,0l0-0.3l0.5,0L410,633.7z
												 M408.4,633.8l-0.5,0l0-0.3l0.5,0L408.4,633.8z M406.9,633.9l-0.5,0l0-0.3l0.5,0L406.9,633.9z M405.3,634.1l-0.5,0l0-0.3
												l0.5,0L405.3,634.1z M403.7,634.2l-0.5,0l0-0.3l0.5,0L403.7,634.2z M402.2,634.3l-0.5,0l0-0.3l0.5,0L402.2,634.3z
												 M400.6,634.4l-0.5,0l0-0.3l0.5,0L400.6,634.4z M399,634.5l-0.5,0l0-0.3l0.5,0L399,634.5z M397.5,634.6l-0.5,0l0-0.3
												l0.5,0L397.5,634.6z M395.9,634.7l-0.5,0l0-0.3l0.5,0L395.9,634.7z M394.3,634.8l-0.5,0l0-0.3l0.5,0L394.3,634.8z
												 M392.8,635l-0.5,0l0-0.3l0.5,0L392.8,635z M391.2,635.1l-0.5,0l0-0.3l0.5,0L391.2,635.1z M389.6,635.2l-0.5,0l0-0.3
												l0.5,0L389.6,635.2z"/>
										</g>
									</g>
									<g>
										<g>
											<polygon class="st8" points="388.1,635.3 387.7,635.3 387.7,634.9 387.9,634.9 387.9,635 388,635 											"/>
										</g>
									</g>
									<g>
										<g>
											<polygon class="st8" points="387.7,632.2 387.5,632.2 387.4,631.8 387.8,631.8 387.8,632 387.7,632 											"/>
										</g>
									</g>
									<g>
										<g>
											<path class="st8" d="M411.3,630.3l-0.5,0l0-0.3l0.5,0L411.3,630.3z M409.8,630.5l-0.5,0l0-0.3l0.5,0L409.8,630.5z
												 M408.2,630.6l-0.5,0l0-0.3l0.5,0L408.2,630.6z M406.6,630.7l-0.5,0l0-0.3l0.5,0L406.6,630.7z M405.1,630.8l-0.5,0l0-0.3
												l0.5,0L405.1,630.8z M403.5,630.9l-0.5,0l0-0.3l0.5,0L403.5,630.9z M401.9,631l-0.5,0l0-0.3l0.5,0L401.9,631z
												 M400.4,631.1l-0.5,0l0-0.3l0.5,0L400.4,631.1z M398.8,631.2l-0.5,0l0-0.3l0.5,0L398.8,631.2z M397.2,631.3l-0.5,0l0-0.3
												l0.5,0L397.2,631.3z M395.7,631.5l-0.5,0l0-0.3l0.5,0L395.7,631.5z M394.1,631.6l-0.5,0l0-0.3l0.5,0L394.1,631.6z
												 M392.5,631.7l-0.5,0l0-0.3l0.5,0L392.5,631.7z M391,631.8l-0.5,0l0-0.3l0.5,0L391,631.8z M389.4,631.9l-0.5,0l0-0.3
												l0.5,0L389.4,631.9z"/>
										</g>
									</g>
									<g>
										<g>
											
												<rect x="412.4" y="630" transform="matrix(0.9975 -7.105730e-02 7.105730e-02 0.9975 -43.7328 30.9025)" class="st8" width="0.3" height="0.3"/>
										</g>
									</g>
								</g>
								<g id="XMLID_4691_">
									<g>
										<path class="st8" d="M414.5,677.1l-0.5,0l0-0.3l0.5,0L414.5,677.1z M413,677.2l-0.5,0l0-0.3l0.5,0L413,677.2z
											 M411.4,677.3l-0.5,0l0-0.3l0.5,0L411.4,677.3z M409.9,677.4l-0.5,0l0-0.3l0.5,0L409.9,677.4z M408.4,677.5l-0.5,0l0-0.3
											l0.5,0L408.4,677.5z M406.9,677.6l-0.5,0l0-0.3l0.5,0L406.9,677.6z M405.3,677.7l-0.5,0l0-0.3l0.5,0L405.3,677.7z
											 M403.8,677.9l-0.5,0l0-0.3l0.5,0L403.8,677.9z M402.3,678l-0.5,0l0-0.3l0.5,0L402.3,678z M400.8,678.1l0.6,0l0-0.3
											l-0.6,0L400.8,678.1z M400.4,678.2l-0.5,0l0-0.3l0.5,0L400.4,678.2z M398.9,678.3l-0.5,0l0-0.3l0.5,0L398.9,678.3z
											 M397.4,678.4l-0.5,0l0-0.3l0.5,0L397.4,678.4z M395.8,678.5l-0.5,0l0-0.3l0.5,0L395.8,678.5z M394.3,678.6l-0.5,0l0-0.3
											l0.5,0L394.3,678.6z M392.8,678.7l-0.5,0l0-0.3l0.5,0L392.8,678.7z M391.3,678.8l-0.5,0l0-0.3l0.5,0L391.3,678.8z
											 M389.8,678.9l-0.5,0l0-0.3l0.5,0L389.8,678.9z M388.2,679l-0.5,0l0-0.3l0.5,0L388.2,679z M386.7,679.2l-0.2,0l0-0.3
											l0.2,0L386.7,679.2z"/>
									</g>
								</g>
							</g>
							<path class="st9" d="M414.4,676.3l-2.1-45.9c0-0.5-0.4-0.9-1-1.1l0-0.4l-70.9,5c-0.9,0.1-1.6,0.9-1.6,1.8l4.4,45.9
								c0.1,0.9,0.9,1.6,1.8,1.6l68.5-5.1l0-0.5C414.1,677.3,414.5,676.8,414.4,676.3z"/>
						</g>
					</g>
					<path class="st2" d="M307.9,549.8c-2.7-34.9-4.8-102.2-5.4-182.3c-0.2-35.2-0.6-67.7,7.7-96.4c14.4-49.6,47.3-110.2,45.6-122.9
						c-0.5-3.5-3.6-6.3-8.3-8.9l0,0c0,0-3.3-3.3-23-8.4c0,0,0,0,0,0c-1.5-0.4-3.1-0.9-4.6-1.4c0,0-23.1-8.4-28.1-10.4
						c-3.4-1.4-7.1-2.9-10.7-4.5l0.6,0.2c-2.2-0.9-4.3-1.8-6.3-2.6c-9.4-4-18.9-6.9-26.8-10.3c-8.4-3.8-16.5-7.5-21.6-10.3
						c-0.1-0.3-27.9-7.7-73.5-7.7c-43.8,0-80.2,7.3-80.3,7.7c-5.1,2.8-13.1,5.2-21.5,9c-8,3.4-17.4,7.6-26.8,11.6
						c-2,0.8-44.5,17.3-44.5,17.3c-1.6,0.5-3.1,0.9-4.6,1.4c0,0,0,0,0,0c-19.8,5.1-23,8.4-23,8.4l0,0c-4.8,2.5-7.9,5.4-8.3,8.9
						c-1.7,12.7,31.2,73.3,45.6,122.9c8.3,28.6,7.9,61.1,7.7,96.4C-3,447.6-5.1,514.9-7.9,549.8c-2.9,37.5-11.7,118.5-11.7,118.5
						c-0.2-0.1-4.3,39-4.3,39s2.9,6.3,63.7,16.3c39.2,6.4,78.9,8.1,102.3,8.5c16,0.7,67.6-0.1,118.1-8.5
						c60.8-10,63.7-16.3,63.7-16.3s-4.1-39.1-4.3-39C319.5,668.3,310.8,587.3,307.9,549.8z"/>
					<g>
						<path class="st3" d="M-19.6,243.2c0,0,15.1,11.7,17.8,46.8s0,56.4,0,56.4s0.7-28.8-5.4-62.2S-19.6,243.2-19.6,243.2z"/>
						<path class="st4" d="M-19.6,243.2c0,0,9.5,17.1,12.7,30.1c3.2,13,4.4,49.7,4.4,49.7s-1-29.8-7.7-51.8
							C-16.8,249.1-19.6,243.2-19.6,243.2z"/>
					</g>
					<g>
						<path class="st3" d="M319.8,243.2c0,0-15.1,11.7-17.8,46.8c-2.7,35.2,0,56.4,0,56.4s-0.7-28.8,5.4-62.2
							C313.5,250.8,319.8,243.2,319.8,243.2z"/>
						<path class="st4" d="M319.8,243.2c0,0-9.5,17.1-12.7,30.1c-3.2,13-4.4,49.7-4.4,49.7s1-29.8,7.7-51.8
							C317,249.1,319.8,243.2,319.8,243.2z"/>
					</g>
				</g>
				<g id="XMLID_5469_">
					<polygon id="XMLID_5645_" class="st3" points="128.3,731.1 136.4,731.1 136.4,127.4 128.3,130.5 					"/>
					<polygon id="XMLID_5644_" class="st4" points="130.9,731.1 139.1,731.1 141.8,123.6 130.9,127.4 					"/>
					<path id="XMLID_5643_" class="st2" d="M170.5,143.4c-1.2-7.7-16.1,5.9-16.1,5.9s-8,4.3-18.6,4.9l-2.5,12.1v1.5v61.9v501.8
						c0,1.2,1,2.2,2.2,2.2h32.8c1.2,0,2.2-1,2.2-2.2V163.6v5v-2.3V143.4z"/>
					<polyline class="st2" points="165.9,141.2 139.9,141.2 133.4,140.9 133.4,221.1 					"/>
					<polyline id="XMLID_5642_" class="st10" points="-50.9,163.5 152,114.9 350.9,163.5 					"/>
					<g id="XMLID_5628_">
						<circle id="XMLID_5641_" class="st3" cx="151.3" cy="273.2" r="6.6"/>
						<circle id="XMLID_5640_" class="st11" cx="151.4" cy="273" r="6.3"/>
						<polygon id="XMLID_5639_" class="st12" points="151.2,282.5 152.9,273.4 151.6,263 148.9,273.2 						"/>
						<circle id="XMLID_5638_" class="st13" cx="151.3" cy="272.1" r="6.3"/>
						<circle id="XMLID_5637_" class="st14" cx="151.3" cy="272.1" r="5.4"/>
						<circle id="XMLID_5636_" class="st6" cx="149.4" cy="270.8" r="1"/>
						<circle id="XMLID_5635_" class="st6" cx="153.5" cy="270.8" r="1"/>
						<circle id="XMLID_5634_" class="st6" cx="149.4" cy="274.4" r="1"/>
						<circle id="XMLID_5633_" class="st6" cx="153.5" cy="274.4" r="1"/>
						<line id="XMLID_5632_" class="st15" x1="149.5" y1="271" x2="153.6" y2="271.1"/>
						<line id="XMLID_5631_" class="st15" x1="149.5" y1="270.4" x2="153.6" y2="270.5"/>
						<line id="XMLID_5630_" class="st15" x1="149.4" y1="274.7" x2="153.5" y2="274.8"/>
						<line id="XMLID_5629_" class="st15" x1="149.4" y1="274.1" x2="153.5" y2="274.2"/>
					</g>
					<g id="XMLID_5589_">
						<circle id="XMLID_5627_" class="st3" cx="151.3" cy="374.7" r="6.6"/>
						<circle id="XMLID_5626_" class="st11" cx="151.4" cy="374.4" r="6.3"/>
						<polygon id="XMLID_5625_" class="st12" points="151.2,383.9 152.9,374.8 151.6,364.5 148.9,374.6 						"/>
						<circle id="XMLID_5616_" class="st13" cx="151.3" cy="373.5" r="6.3"/>
						<circle id="XMLID_5615_" class="st14" cx="151.3" cy="373.5" r="5.4"/>
						<circle id="XMLID_5614_" class="st6" cx="149.4" cy="372.2" r="1"/>
						<circle id="XMLID_5613_" class="st6" cx="153.5" cy="372.3" r="1"/>
						<circle id="XMLID_5612_" class="st6" cx="149.4" cy="375.8" r="1"/>
						<circle id="XMLID_5611_" class="st6" cx="153.5" cy="375.9" r="1"/>
						<line id="XMLID_5610_" class="st15" x1="149.5" y1="372.5" x2="153.6" y2="372.5"/>
						<line id="XMLID_5609_" class="st15" x1="149.5" y1="371.9" x2="153.6" y2="371.9"/>
						<line id="XMLID_5608_" class="st15" x1="149.4" y1="376.2" x2="153.5" y2="376.2"/>
						<line id="XMLID_5607_" class="st15" x1="149.4" y1="375.6" x2="153.5" y2="375.6"/>
					</g>
					<g id="XMLID_5584_">
						<circle id="XMLID_5659_" class="st3" cx="151.3" cy="476.1" r="6.6"/>
						<circle id="XMLID_5658_" class="st11" cx="151.4" cy="475.9" r="6.3"/>
						<polygon id="XMLID_5657_" class="st12" points="151.2,485.4 152.9,476.3 151.6,465.9 148.9,476.1 						"/>
						<circle id="XMLID_5656_" class="st13" cx="151.3" cy="475" r="6.3"/>
						<circle id="XMLID_5655_" class="st14" cx="151.3" cy="475" r="5.4"/>
						<circle id="XMLID_5654_" class="st6" cx="149.4" cy="473.7" r="1"/>
						<circle id="XMLID_5653_" class="st6" cx="153.5" cy="473.7" r="1"/>
						<circle id="XMLID_5652_" class="st6" cx="149.4" cy="477.3" r="1"/>
						<circle id="XMLID_5651_" class="st6" cx="153.5" cy="477.3" r="1"/>
						<line id="XMLID_5650_" class="st15" x1="149.5" y1="473.9" x2="153.6" y2="474"/>
						<line id="XMLID_5649_" class="st15" x1="149.5" y1="473.3" x2="153.6" y2="473.4"/>
						<line id="XMLID_5648_" class="st15" x1="149.4" y1="477.6" x2="153.5" y2="477.7"/>
						<line id="XMLID_5646_" class="st15" x1="149.4" y1="477" x2="153.5" y2="477.1"/>
					</g>
					<g id="XMLID_5660_">
						<circle id="XMLID_5673_" class="st3" cx="151.3" cy="577.6" r="6.6"/>
						<circle id="XMLID_5672_" class="st11" cx="151.4" cy="577.3" r="6.3"/>
						<polygon id="XMLID_5671_" class="st12" points="151.2,586.8 152.9,577.7 151.6,567.4 148.9,577.5 						"/>
						<circle id="XMLID_5670_" class="st13" cx="151.3" cy="576.4" r="6.3"/>
						<circle id="XMLID_5669_" class="st14" cx="151.3" cy="576.4" r="5.4"/>
						<circle id="XMLID_5668_" class="st6" cx="149.4" cy="575.1" r="1"/>
						<circle id="XMLID_5667_" class="st6" cx="153.5" cy="575.2" r="1"/>
						<circle id="XMLID_5666_" class="st6" cx="149.4" cy="578.7" r="1"/>
						<circle id="XMLID_5665_" class="st6" cx="153.5" cy="578.8" r="1"/>
						<line id="XMLID_5664_" class="st15" x1="149.5" y1="575.4" x2="153.6" y2="575.4"/>
						<line id="XMLID_5663_" class="st15" x1="149.5" y1="574.8" x2="153.6" y2="574.8"/>
						<line id="XMLID_5662_" class="st15" x1="149.4" y1="579.1" x2="153.5" y2="579.1"/>
						<line id="XMLID_5661_" class="st15" x1="149.4" y1="578.5" x2="153.5" y2="578.5"/>
					</g>
					<g id="XMLID_5674_">
						<circle id="XMLID_5687_" class="st3" cx="151.3" cy="679" r="6.6"/>
						<circle id="XMLID_5686_" class="st11" cx="151.4" cy="678.8" r="6.3"/>
						<polygon id="XMLID_5685_" class="st12" points="151.2,688.3 152.9,679.2 151.6,668.8 148.9,679 						"/>
						<circle id="XMLID_5684_" class="st13" cx="151.3" cy="677.9" r="6.3"/>
						<circle id="XMLID_5683_" class="st14" cx="151.3" cy="677.9" r="5.4"/>
						<circle id="XMLID_5682_" class="st6" cx="149.4" cy="676.6" r="1"/>
						<circle id="XMLID_5681_" class="st6" cx="153.5" cy="676.6" r="1"/>
						<circle id="XMLID_5680_" class="st6" cx="149.4" cy="680.2" r="1"/>
						<circle id="XMLID_5679_" class="st6" cx="153.5" cy="680.2" r="1"/>
						<line id="XMLID_5678_" class="st15" x1="149.5" y1="676.8" x2="153.6" y2="676.9"/>
						<line id="XMLID_5677_" class="st15" x1="149.5" y1="676.2" x2="153.6" y2="676.3"/>
						<line id="XMLID_5676_" class="st15" x1="149.4" y1="680.5" x2="153.5" y2="680.6"/>
						<line id="XMLID_5675_" class="st15" x1="149.4" y1="679.9" x2="153.5" y2="680"/>
					</g>
					<g id="XMLID_5470_">
						<polygon id="XMLID_5588_" class="st12" points="151.3,168.1 153,162.4 151.5,157.4 149.5,162.3 						"/>
						<ellipse id="XMLID_5587_" class="st3" cx="151.3" cy="163.2" rx="6.6" ry="4.3"/>
						<ellipse id="XMLID_5586_" class="st11" cx="151.4" cy="163.1" rx="6.3" ry="4.1"/>
						<path id="XMLID_5585_" class="st13" d="M153.8,166.1c3.4-0.9,5-3.5,3.6-5.7c-1.4-2.2-5.2-3.3-8.6-2.4c-3.4,0.9-5,3.5-3.6,5.7
							C146.6,165.9,150.5,167,153.8,166.1z"/>
						<g id="XMLID_5583_">
							<path class="st5" d="M153.4,165.5c2.8-0.8,4.2-2.9,3.1-4.8c-1.2-1.9-4.4-2.8-7.3-2c-2.8,0.8-4.2,2.9-3.1,4.8
								C147.3,165.3,150.6,166.2,153.4,165.5z"/>
							<path class="st16" d="M153.4,165.4c0,0,0.1,0,0.3-0.1c0.2-0.1,0.5-0.2,0.9-0.4c0.4-0.2,0.8-0.4,1.2-0.8
								c0.4-0.4,0.8-0.9,0.8-1.5c0.1-0.6-0.1-1.3-0.5-1.8c-0.5-0.6-1.1-0.9-1.8-1.2c-0.7-0.2-1.5-0.4-2.4-0.4
								c-0.8,0-1.6,0.1-2.4,0.3c-0.1,0-0.5,0.1-0.6,0.2c-0.2,0.1-0.3,0.1-0.5,0.2c-0.3,0.2-0.7,0.4-1,0.6c-0.6,0.5-0.9,1-1,1.7
								c0,0.3,0.1,0.7,0.2,1c0.1,0.1,0.2,0.4,0.3,0.5c0.1,0.1,0.2,0.3,0.3,0.4c0.5,0.5,1.1,0.9,1.7,1.1c0.6,0.3,1.2,0.4,1.8,0.5
								c0.5,0.1,1,0.1,1.4,0c0.4,0,0.7-0.1,0.9-0.1C153.3,165.4,153.4,165.4,153.4,165.4z M153.5,165.5c0,0-0.1,0-0.3,0.1
								c-0.2,0.1-0.5,0.1-0.9,0.2c-0.8,0.1-2,0.1-3.3-0.3c-0.7-0.2-1.4-0.5-2-1c-0.6-0.5-1.1-1.3-1.2-2.2c-0.1-0.9,0.4-1.8,1.1-2.4
								c0.7-0.6,1.6-1,2.4-1.3c1.8-0.5,3.8-0.3,5.3,0.4c0.8,0.4,1.5,0.9,1.9,1.6c0.5,0.7,0.6,1.5,0.4,2.2c-0.2,0.7-0.6,1.2-1,1.6
								c-0.4,0.4-0.9,0.6-1.2,0.8c-0.4,0.2-0.7,0.3-0.9,0.3C153.6,165.5,153.5,165.5,153.5,165.5z"/>
						</g>
						<path id="XMLID_5582_" class="st6" d="M148.4,161.3c0,0.3,0.5,0.5,1,0.5c0.5,0,1-0.3,1-0.6c0-0.3-0.5-0.5-1-0.5
							C148.8,160.7,148.4,161,148.4,161.3z"/>
						<path id="XMLID_5581_" class="st6" d="M152.5,161.3c0,0.3,0.5,0.5,1,0.5c0.5,0,1-0.3,1-0.6s-0.5-0.5-1-0.5
							C152.9,160.8,152.5,161,152.5,161.3z"/>
						<path id="XMLID_5580_" class="st6" d="M148.4,164c0,0.3,0.5,0.5,1,0.5c0.5,0,1-0.3,1-0.6s-0.5-0.5-1-0.5
							C148.8,163.4,148.4,163.7,148.4,164z"/>
						<path id="XMLID_5579_" class="st6" d="M152.5,164c0,0.3,0.5,0.5,1,0.5c0.5,0,1-0.3,1-0.6c0-0.3-0.5-0.5-1-0.5
							C152.9,163.5,152.5,163.7,152.5,164z"/>
						<line id="XMLID_5578_" class="st17" x1="149.5" y1="161.4" x2="153.6" y2="161.5"/>
						<line id="XMLID_5577_" class="st17" x1="149.5" y1="161.1" x2="153.6" y2="161.1"/>
						<line id="XMLID_5576_" class="st17" x1="149.4" y1="164.2" x2="153.5" y2="164.2"/>
						<line id="XMLID_5575_" class="st17" x1="149.4" y1="163.8" x2="153.5" y2="163.9"/>
					</g>
					<g>
						<rect x="132.4" y="149.9" class="st3" width="38.2" height="13.2"/>
						<rect x="132.4" y="124.3" class="st4" width="38.2" height="36.1"/>
					</g>
				</g>
			</g>
			<g id="XMLID_5590_">
				<g>
					<polyline class="st18" points="83.4,171.7 139.2,165.9 149.6,160.6 160.5,165.9 216.6,171.7 169.7,155.4 149.2,159.3 
						133.1,158.2 					"/>
					<polyline class="st19" points="83.4,171.7 139.2,162 149.6,160.6 160.5,162 216.6,171.7 169.7,155.4 149.2,159.3 133.1,158.2 
											"/>
				</g>
				<path class="st2" d="M220,58.2c-7.4-21.3-26.5-33.5-69.1-33.5c-0.3,0-0.6,0-1,0c-0.3,0-0.6,0-0.9,0c-42.6,0-61.7,12.2-69.1,33.5
					c-7.4,21.3-2.7,54.2-2.7,54.2l6.1,59.2l51.1-12h31l51.1,12l6.1-58.9C222.7,112.8,227.4,79.6,220,58.2z"/>
				<polygon id="XMLID_5606_" class="st20" points="217.5,83.4 217.5,83.4 217.5,83.4 				"/>
				<path id="XMLID_5605_" class="st21" d="M217.5,83.4c0,0-0.1,0.2-0.2,0.7C217.4,83.8,217.4,83.6,217.5,83.4z"/>
				<path id="XMLID_5604_" class="st21" d="M151.4,28.2c-0.2,0-0.3,0-0.5,0c-0.3,0-1.6,0-1.9,0c-0.2,0-0.3,0-0.5,0
					c-48,0.6-70.9,18.7-67.6,47.3c0.4,3.4,1.2,7,2.3,10.7c6.2,9.7,61.9,53.4,68.5,53.4c7,0,65.6-56.2,65.6-56.2
					c0.7-2.7,1.2-5.4,1.5-7.9C222.4,46.9,199.5,28.8,151.4,28.2z"/>
				<g id="XMLID_5600_">
					<path id="XMLID_5603_" class="st20" d="M96,66.6c-3.3-12-1.1-21.1,1.1-26.4C84.7,48.4,79.3,60.5,81,75.4
						c0.6,5.2,2.2,10.9,4.3,16.8l10.2-10.6L96,66.6z"/>
					<path id="XMLID_5602_" class="st19" d="M95.8,75.3h3.3l9.6-9c0,0,4.4-4.9-2.4-16c-3-4.9-3.4-9.8-2.8-13.7
						c-3.2,1.5-6.1,3.2-8.6,5.1C90.5,56.1,95.8,75.3,95.8,75.3z"/>
					<path id="XMLID_5601_" class="st18" d="M106.1,55.6c4.1,8.7,8,13.3,8,13.3s6.4-2.4,1.6-6.3c-3.4-2.8-3.4-19.6-3.1-29.5
						c-3.7,1.2-7.1,2.5-10.1,4C102.3,43.6,104,51.3,106.1,55.6z"/>
				</g>
				<g id="XMLID_5596_">
					<path id="XMLID_5599_" class="st20" d="M204.2,66.6c3.3-12,1.1-21.1-1.1-26.4c12.4,8.2,17.9,20.3,16.1,35.2
						c-0.6,5.2-2.2,10.9-4.3,16.8l-10.2-10.6L204.2,66.6z"/>
					<path id="XMLID_5598_" class="st19" d="M204.4,75.3h-3.3l-9.6-9c0,0-4.4-4.9,2.4-16c3-4.9,3.4-9.8,2.8-13.7
						c3.2,1.5,6.1,3.2,8.6,5.1C209.6,56.1,204.4,75.3,204.4,75.3z"/>
					<path id="XMLID_5597_" class="st18" d="M194.1,55.6c-4.1,8.7-8,13.3-8,13.3s-6.4-2.4-1.6-6.3c3.4-2.8,3.4-19.6,3.1-29.5
						c3.7,1.2,7.1,2.5,10.1,4C197.9,43.6,196.2,51.3,194.1,55.6z"/>
				</g>
				<path id="XMLID_5595_" class="st9" d="M165.5,159.7c0,0,49.7-49.9,53.5-84.3c3.1-28.6-19.5-46.7-67.6-47.3c-0.2,0-0.3,0-0.5,0
					c-0.3,0-1.6,0-1.9,0c-0.2,0-0.3,0-0.5,0c-48,0.6-70.9,18.7-67.6,47.3c3.4,29.1,53.5,84.3,53.5,84.3"/>
				<path class="st9" d="M220,58.2c-7.4-21.3-26.5-33.5-69.1-33.5c-0.3,0-0.6,0-1,0c-0.3,0-0.6,0-0.9,0c-42.6,0-61.7,12.2-69.1,33.5
					c-7.4,21.3-2.7,54.2-2.7,54.2l6.1,59.2l51.1-12h31l51.1,12l6.1-58.9C222.7,112.8,227.4,79.6,220,58.2z"/>
				<path id="XMLID_5594_" class="st22" d="M82.7,84c0.3-0.8,6.1-18.2,30.4-22.6c18.4-3.3,31.7-3.3,37.1-3.1
					c5.4-0.2,18.7-0.2,37.1,3.1c21.5,3.9,28.8,18.6,30.2,21.9c0,0-4.6,28.5-51.9,76.4l-16,0.2l-15.1-0.2
					C134.5,159.7,93.8,114.8,82.7,84z"/>
				<path class="st10" d="M166.4,158.8l48.2,10.7c0,0,7.1-55.1,8.3-66.5"/>
				<g>
					<defs>
						<path id="XMLID_5591_" d="M82.7,84c0.3-0.8,6.1-18.2,30.4-22.6c18.4-3.3,31.7-3.3,37.1-3.1c5.4-0.2,18.7-0.2,37.1,3.1
							c21.5,3.9,28.8,18.6,30.2,21.9c0,0-4.6,28.1-51.9,75.9l-16,0.2l-15.1-0.2C134.5,159.3,93.8,114.8,82.7,84z"/>
					</defs>
					<clipPath id="XMLID_5_">
						<use xlink:href="#XMLID_5591_"  style="overflow:visible;"/>
					</clipPath>
					<path id="XMLID_5593_" class="st23" d="M148.5,157.7c-2.8,0-9.5-1.4-13.1-3.9C115,140.1,88,94.3,82.8,86.1
						c8.3,28.1,28.7,47.2,39.7,63.8c12.5,18.8,27.1,10.7,27.1,10.7s13.3,11,25.8-7.8c11.3-17,35.7-40.4,43.3-68.8
						c0.1-0.4-1.7-0.7-1.7-0.7l0.9,0c0,0-28.5,51.4-51.4,68.7C161.8,155.6,151.8,157.7,148.5,157.7z"/>
					<path id="XMLID_5592_" class="st24" d="M148.5,157.7c3.8,0,12.7-1.9,17.9-5.6c21.6-15.6,47.1-57.5,50.3-67
						c0,0-40,69.2-67.8,69.2c-25.2,0-66.4-69-66.4-69s28.2,51.1,50.9,67.5C137.8,155.8,145.1,157.7,148.5,157.7z"/>
				</g>
				<path class="st10" d="M133.1,159l-47.7,10.3c0,0-6.5-53.9-9.3-69.8"/>
			</g>
		</g>
	</g>
	<g id="XMLID_1_" class="st0">
		<defs>
			<rect id="XMLID_4932_" x="-13.5" width="327.1" height="300"/>
		</defs>
		<clipPath id="XMLID_6_">
			<use xlink:href="#XMLID_4932_"  style="overflow:visible;"/>
		</clipPath>
	</g>
	<g class="st0">
		<path class="st25" d="M150.1,4.6c38.7,0,75.1,15.1,102.5,42.5c27.4,27.4,42.5,63.8,42.5,102.5s-15.1,75.1-42.5,102.5
			c-27.4,27.4-63.8,42.5-102.5,42.5S75,279.5,47.6,252.1C20.2,224.7,5.1,188.3,5.1,149.6S20.2,74.5,47.6,47.1
			C75,19.7,111.4,4.6,150.1,4.6 M150.1-0.4c-82.8,0-150,67.2-150,150s67.2,150,150,150s150-67.2,150-150S232.9-0.4,150.1-0.4
			L150.1-0.4z"/>
	</g>
</g>
</svg>
