<?xml version="1.0" encoding="utf-8"?>
<!-- Generator: Adobe Illustrator 19.0.0, SVG Export Plug-In . SVG Version: 6.00 Build 0)  -->
<svg version="1.1" id="Layer_1" xmlns="http://www.w3.org/2000/svg" xmlns:xlink="http://www.w3.org/1999/xlink" x="0px" y="0px"
	 viewBox="0 0 300 300" style="enable-background:new 0 0 300 300;" xml:space="preserve">
<style type="text/css">
	.st0{clip-path:url(#SVGID_2_);}
	.st1{clip-path:url(#XMLID_3_);}
	.st2{clip-path:url(#XMLID_4_);fill:#FFFFFF;stroke:#404041;stroke-miterlimit:10;}
	.st3{clip-path:url(#XMLID_4_);}
	.st4{fill:#404041;stroke:#D0D2D3;stroke-width:0.5;stroke-miterlimit:10;}
	.st5{fill:#F1F1F2;}
	.st6{fill:#DBDCDD;}
	.st7{fill:#FFFFFF;stroke:#6D6E70;stroke-width:0.5;stroke-miterlimit:10;}
	.st8{fill:#FFFFFF;stroke:#929497;stroke-width:0.25;stroke-miterlimit:10;}
	.st9{fill:#404041;}
	.st10{fill:none;stroke:#6D6E70;stroke-width:0.25;stroke-miterlimit:10;}
	.st11{fill:none;}
	.st12{fill:#9AA0BB;}
</style>
<g>
	<defs>
		<circle id="SVGID_1_" cx="150.1" cy="149.6" r="150"/>
	</defs>
	<use xlink:href="#SVGID_1_"  style="overflow:visible;fill:#DDDDDD;"/>
	<clipPath id="SVGID_2_">
		<use xlink:href="#SVGID_1_"  style="overflow:visible;"/>
	</clipPath>
	<g id="XMLID_254_" class="st0">
		<defs>
			<rect id="XMLID_4044_" x="-13.5" width="327.1" height="300"/>
		</defs>
		<clipPath id="XMLID_3_">
			<use xlink:href="#XMLID_4044_"  style="overflow:visible;"/>
		</clipPath>
		<g id="XMLID_3227_" class="st1">
			<defs>
				<rect id="XMLID_3228_" x="0" width="300" height="300"/>
			</defs>
			<clipPath id="XMLID_4_">
				<use xlink:href="#XMLID_3228_"  style="overflow:visible;"/>
			</clipPath>
			<path id="XMLID_3522_" class="st2" d="M62.3,238.5c0,0,33.7,16.5,100.4,14c66.6-2.5,98.7-30.4,98.7-30.4S234.1,50.4,199-168.5
				H6.2L62.3,238.5z"/>
			<g id="XMLID_3259_" class="st3">
				<path id="XMLID_3407_" class="st4" d="M235.8,144.4l-16.7,1.4l-16.1,4.9c-1,0.3-0.7,1.8,0.3,1.8l16.7-1.4l16.1-4.9
					C237.1,145.9,236.9,144.4,235.8,144.4z"/>
				<circle id="XMLID_3406_" class="st5" cx="225" cy="148.2" r="12.5"/>
				<circle id="XMLID_3405_" class="st6" cx="225.2" cy="147.7" r="12"/>
				<circle id="XMLID_3404_" class="st7" cx="225" cy="146" r="12"/>
				<circle id="XMLID_3403_" class="st8" cx="225" cy="146" r="10.4"/>
				<circle id="XMLID_3402_" class="st9" cx="223" cy="143.3" r="1.5"/>
				<circle id="XMLID_3401_" class="st9" cx="226.6" cy="150.8" r="1.5"/>
				<line id="XMLID_3340_" class="st10" x1="222.4" y1="143.3" x2="226" y2="150.7"/>
				<line id="XMLID_3329_" class="st10" x1="223.4" y1="142.9" x2="227" y2="150.3"/>
				<circle id="XMLID_3315_" class="st9" cx="221.1" cy="148.8" r="1.5"/>
				<circle id="XMLID_3262_" class="st9" cx="228.5" cy="145.2" r="1.5"/>
				<line id="XMLID_3261_" class="st10" x1="221.1" y1="149.4" x2="228.5" y2="145.8"/>
				<line id="XMLID_3260_" class="st10" x1="220.7" y1="148.4" x2="228.1" y2="144.8"/>
			</g>
			<g id="XMLID_3245_" class="st3">
				<path id="XMLID_3258_" class="st4" d="M230,117.3l-16.7,1.4l-16.1,4.9c-1,0.3-0.7,1.8,0.3,1.8l16.7-1.4l16.1-4.9
					C231.4,118.8,231.1,117.3,230,117.3z"/>
				<circle id="XMLID_3257_" class="st5" cx="219.2" cy="121.1" r="12.5"/>
				<circle id="XMLID_3256_" class="st6" cx="219.4" cy="120.6" r="12"/>
				<circle id="XMLID_3255_" class="st7" cx="219.2" cy="118.9" r="12"/>
				<circle id="XMLID_3254_" class="st8" cx="219.2" cy="118.9" r="10.4"/>
				<circle id="XMLID_3253_" class="st9" cx="217.2" cy="116.2" r="1.5"/>
				<circle id="XMLID_3252_" class="st9" cx="220.8" cy="123.7" r="1.5"/>
				<line id="XMLID_3251_" class="st10" x1="216.6" y1="116.2" x2="220.2" y2="123.6"/>
				<line id="XMLID_3250_" class="st10" x1="217.6" y1="115.8" x2="221.2" y2="123.2"/>
				<circle id="XMLID_3249_" class="st9" cx="215.3" cy="121.7" r="1.5"/>
				<circle id="XMLID_3248_" class="st9" cx="222.7" cy="118.1" r="1.5"/>
				<line id="XMLID_3247_" class="st10" x1="215.3" y1="122.3" x2="222.7" y2="118.7"/>
				<line id="XMLID_3246_" class="st10" x1="214.9" y1="121.3" x2="222.3" y2="117.7"/>
			</g>
			<g id="XMLID_3231_" class="st3">
				<path id="XMLID_3244_" class="st4" d="M242.3,172.3l-16.7,1.4l-16.1,4.9c-1,0.3-0.7,1.8,0.3,1.8l16.7-1.4l16.1-4.9
					C243.7,173.7,243.4,172.2,242.3,172.3z"/>
				<circle id="XMLID_3243_" class="st5" cx="231.5" cy="176" r="12.5"/>
				<circle id="XMLID_3242_" class="st6" cx="231.7" cy="175.5" r="12"/>
				<circle id="XMLID_3241_" class="st7" cx="231.5" cy="173.9" r="12"/>
				<circle id="XMLID_3240_" class="st8" cx="231.5" cy="173.9" r="10.4"/>
				<circle id="XMLID_3239_" class="st9" cx="229.5" cy="171.1" r="1.5"/>
				<circle id="XMLID_3238_" class="st9" cx="233.1" cy="178.6" r="1.5"/>
				<line id="XMLID_3237_" class="st10" x1="228.9" y1="171.1" x2="232.5" y2="178.6"/>
				<line id="XMLID_3236_" class="st10" x1="229.9" y1="170.7" x2="233.5" y2="178.2"/>
				<circle id="XMLID_3235_" class="st9" cx="227.6" cy="176.7" r="1.5"/>
				<circle id="XMLID_3234_" class="st9" cx="235" cy="173" r="1.5"/>
				<line id="XMLID_3233_" class="st10" x1="227.6" y1="177.3" x2="235" y2="173.7"/>
				<line id="XMLID_3232_" class="st10" x1="227.2" y1="176.3" x2="234.6" y2="172.7"/>
			</g>
			<g id="XMLID_3229_" class="st3">
				<path id="XMLID_3230_" class="st11" d="M207.8,179.2L207.8,179.2C207.8,179.2,207.8,179.2,207.8,179.2L207.8,179.2z"/>
			</g>
		</g>
	</g>
	<g id="XMLID_1_" class="st0">
		<defs>
			<rect id="XMLID_4932_" x="-13.5" width="327.1" height="300"/>
		</defs>
		<clipPath id="XMLID_5_">
			<use xlink:href="#XMLID_4932_"  style="overflow:visible;"/>
		</clipPath>
	</g>
	<g class="st0">
		<path class="st12" d="M150.1,4.6c38.7,0,75.1,15.1,102.5,42.5c27.4,27.4,42.5,63.8,42.5,102.5s-15.1,75.1-42.5,102.5
			c-27.4,27.4-63.8,42.5-102.5,42.5S75,279.5,47.6,252.1C20.2,224.7,5.1,188.3,5.1,149.6S20.2,74.5,47.6,47.1
			C75,19.7,111.4,4.6,150.1,4.6 M150.1-0.4c-82.8,0-150,67.2-150,150s67.2,150,150,150s150-67.2,150-150S232.9-0.4,150.1-0.4
			L150.1-0.4z"/>
	</g>
</g>
</svg>
