<?xml version="1.0" encoding="utf-8"?>
<!-- Generator: Adobe Illustrator 19.0.0, SVG Export Plug-In . SVG Version: 6.00 Build 0)  -->
<svg version="1.1" id="Layer_1" xmlns="http://www.w3.org/2000/svg" xmlns:xlink="http://www.w3.org/1999/xlink" x="0px" y="0px"
	 viewBox="0 0 300 300" style="enable-background:new 0 0 300 300;" xml:space="preserve">
<style type="text/css">
	.st0{clip-path:url(#SVGID_2_);}
	.st1{clip-path:url(#XMLID_3_);}
	.st2{clip-path:url(#XMLID_4_);}
	.st3{fill:#FFFFFF;stroke:#404041;stroke-miterlimit:10;}
	.st4{fill:#404041;stroke:#D0D2D3;stroke-width:0.5;stroke-miterlimit:10;}
	.st5{fill:#F1F1F2;}
	.st6{fill:#DBDCDD;}
	.st7{fill:#FFFFFF;stroke:#6D6E70;stroke-width:0.5;stroke-miterlimit:10;}
	.st8{fill:#FFFFFF;stroke:#929497;stroke-width:0.25;stroke-miterlimit:10;}
	.st9{fill:#404041;}
	.st10{fill:none;stroke:#6D6E70;stroke-width:0.25;stroke-miterlimit:10;}
	.st11{fill:#9AA0BB;}
</style>
<g>
	<defs>
		<circle id="SVGID_1_" cx="150.1" cy="149.6" r="150"/>
	</defs>
	<use xlink:href="#SVGID_1_"  style="overflow:visible;fill:#DDDDDD;"/>
	<clipPath id="SVGID_2_">
		<use xlink:href="#SVGID_1_"  style="overflow:visible;"/>
	</clipPath>
	<g id="XMLID_254_" class="st0">
		<defs>
			<rect id="XMLID_4044_" x="-13.5" width="327.1" height="300"/>
		</defs>
		<clipPath id="XMLID_3_">
			<use xlink:href="#XMLID_4044_"  style="overflow:visible;"/>
		</clipPath>
		<g id="XMLID_12616_" class="st1">
			<defs>
				<rect id="XMLID_12617_" x="0" width="300" height="300"/>
			</defs>
			<clipPath id="XMLID_4_">
				<use xlink:href="#XMLID_12617_"  style="overflow:visible;"/>
			</clipPath>
			<g id="XMLID_12618_" class="st2">
				<path id="XMLID_12664_" class="st3" d="M62.3,238.5c0,0,33.7,16.5,100.4,14c66.6-2.5,98.7-30.4,98.7-30.4S234.1,50.4,199-168.5
					H6.2L62.3,238.5z"/>
				<g id="XMLID_12650_">
					<path id="XMLID_12663_" class="st4" d="M235.8,144.4l-16.7,1.4l-16.1,4.9c-1,0.3-0.7,1.8,0.3,1.8l16.7-1.4l16.1-4.9
						C237.1,145.9,236.9,144.4,235.8,144.4z"/>
					<circle id="XMLID_12662_" class="st5" cx="225" cy="148.2" r="12.5"/>
					<circle id="XMLID_12661_" class="st6" cx="225.2" cy="147.7" r="12"/>
					<circle id="XMLID_12660_" class="st7" cx="225" cy="146" r="12"/>
					<circle id="XMLID_12659_" class="st8" cx="225" cy="146" r="10.4"/>
					<circle id="XMLID_12658_" class="st9" cx="223" cy="143.3" r="1.5"/>
					<circle id="XMLID_12657_" class="st9" cx="226.6" cy="150.8" r="1.5"/>
					<line id="XMLID_12656_" class="st10" x1="222.4" y1="143.3" x2="226" y2="150.7"/>
					<line id="XMLID_12655_" class="st10" x1="223.4" y1="142.9" x2="227" y2="150.3"/>
					<circle id="XMLID_12654_" class="st9" cx="221.1" cy="148.8" r="1.5"/>
					<circle id="XMLID_12653_" class="st9" cx="228.5" cy="145.2" r="1.5"/>
					<line id="XMLID_12652_" class="st10" x1="221.1" y1="149.4" x2="228.5" y2="145.8"/>
					<line id="XMLID_12651_" class="st10" x1="220.7" y1="148.4" x2="228.1" y2="144.8"/>
				</g>
				<g id="XMLID_12636_">
					<path id="XMLID_12649_" class="st4" d="M230,117.3l-16.7,1.4l-16.1,4.9c-1,0.3-0.7,1.8,0.3,1.8l16.7-1.4l16.1-4.9
						C231.4,118.8,231.1,117.3,230,117.3z"/>
					<circle id="XMLID_12648_" class="st5" cx="219.2" cy="121.1" r="12.5"/>
					<circle id="XMLID_12647_" class="st6" cx="219.4" cy="120.6" r="12"/>
					<circle id="XMLID_12646_" class="st7" cx="219.2" cy="118.9" r="12"/>
					<circle id="XMLID_12645_" class="st8" cx="219.2" cy="118.9" r="10.4"/>
					<circle id="XMLID_12644_" class="st9" cx="217.2" cy="116.2" r="1.5"/>
					<circle id="XMLID_12643_" class="st9" cx="220.8" cy="123.7" r="1.5"/>
					<line id="XMLID_12642_" class="st10" x1="216.6" y1="116.2" x2="220.2" y2="123.6"/>
					<line id="XMLID_12641_" class="st10" x1="217.6" y1="115.8" x2="221.2" y2="123.2"/>
					<circle id="XMLID_12640_" class="st9" cx="215.3" cy="121.7" r="1.5"/>
					<circle id="XMLID_12639_" class="st9" cx="222.7" cy="118.1" r="1.5"/>
					<line id="XMLID_12638_" class="st10" x1="215.3" y1="122.3" x2="222.7" y2="118.7"/>
					<line id="XMLID_12637_" class="st10" x1="214.9" y1="121.3" x2="222.3" y2="117.7"/>
				</g>
				<g id="XMLID_12622_">
					<path id="XMLID_12635_" class="st4" d="M241.6,171.5l-16.7,1.4l-16.1,4.9c-1,0.3-0.7,1.8,0.3,1.8l16.7-1.4l16.1-4.9
						C242.9,173,242.7,171.5,241.6,171.5z"/>
					<circle id="XMLID_12634_" class="st5" cx="230.8" cy="175.3" r="12.5"/>
					<circle id="XMLID_12633_" class="st6" cx="231" cy="174.8" r="12"/>
					<circle id="XMLID_12632_" class="st7" cx="230.8" cy="173.1" r="12"/>
					<circle id="XMLID_12631_" class="st8" cx="230.8" cy="173.1" r="10.4"/>
					<circle id="XMLID_12630_" class="st9" cx="228.8" cy="170.4" r="1.5"/>
					<circle id="XMLID_12629_" class="st9" cx="232.4" cy="177.9" r="1.5"/>
					<line id="XMLID_12628_" class="st10" x1="228.2" y1="170.4" x2="231.8" y2="177.8"/>
					<line id="XMLID_12627_" class="st10" x1="229.2" y1="170" x2="232.8" y2="177.4"/>
					<circle id="XMLID_12626_" class="st9" cx="226.8" cy="176" r="1.5"/>
					<circle id="XMLID_12625_" class="st9" cx="234.3" cy="172.3" r="1.5"/>
					<line id="XMLID_12624_" class="st10" x1="226.8" y1="176.5" x2="234.3" y2="172.9"/>
					<line id="XMLID_12623_" class="st10" x1="226.4" y1="175.5" x2="233.9" y2="171.9"/>
				</g>
				<g id="XMLID_12619_">
					<path id="XMLID_12621_" class="st4" d="M247.4,197.5l-16.7,1.4l-16.1,4.9c-1,0.3-0.7,1.8,0.3,1.8l16.7-1.4l16.1-4.9
						C248.7,198.9,248.4,197.5,247.4,197.5z"/>
					<circle id="XMLID_12620_" class="st9" cx="232.6" cy="201.9" r="1.5"/>
				</g>
			</g>
		</g>
	</g>
	<g id="XMLID_1_" class="st0">
		<defs>
			<rect id="XMLID_4932_" x="-13.5" width="327.1" height="300"/>
		</defs>
		<clipPath id="XMLID_5_">
			<use xlink:href="#XMLID_4932_"  style="overflow:visible;"/>
		</clipPath>
	</g>
	<g class="st0">
		<path class="st11" d="M150.1,4.6c38.7,0,75.1,15.1,102.5,42.5c27.4,27.4,42.5,63.8,42.5,102.5s-15.1,75.1-42.5,102.5
			c-27.4,27.4-63.8,42.5-102.5,42.5S75,279.5,47.6,252.1C20.2,224.7,5.1,188.3,5.1,149.6S20.2,74.5,47.6,47.1
			C75,19.7,111.4,4.6,150.1,4.6 M150.1-0.4c-82.8,0-150,67.2-150,150s67.2,150,150,150s150-67.2,150-150S232.9-0.4,150.1-0.4
			L150.1-0.4z"/>
	</g>
</g>
</svg>
