<?xml version="1.0" encoding="utf-8"?>
<!-- Generator: Adobe Illustrator 19.0.0, SVG Export Plug-In . SVG Version: 6.00 Build 0)  -->
<svg version="1.1" id="Layer_1" xmlns="http://www.w3.org/2000/svg" xmlns:xlink="http://www.w3.org/1999/xlink" x="0px" y="0px"
	 viewBox="0 0 300 300" style="enable-background:new 0 0 300 300;" xml:space="preserve">
<style type="text/css">
	.st0{clip-path:url(#SVGID_2_);}
	.st1{clip-path:url(#XMLID_3_);}
	.st2{clip-path:url(#XMLID_4_);fill:#FFFFFF;stroke:#404041;stroke-miterlimit:10;}
	.st3{clip-path:url(#XMLID_4_);}
	.st4{fill:#404041;stroke:#D0D2D3;stroke-width:0.5;stroke-miterlimit:10;}
	.st5{fill:#F1F1F2;}
	.st6{fill:#DBDCDD;}
	.st7{fill:#FFFFFF;stroke:#6D6E70;stroke-width:0.5;stroke-miterlimit:10;}
	.st8{fill:#FFFFFF;stroke:#929497;stroke-width:0.25;stroke-miterlimit:10;}
	.st9{fill:#404041;}
	.st10{fill:none;stroke:#6D6E70;stroke-width:0.25;stroke-miterlimit:10;}
	.st11{fill:#9AA0BB;}
</style>
<g>
	<defs>
		<circle id="SVGID_1_" cx="150.1" cy="149.6" r="150"/>
	</defs>
	<use xlink:href="#SVGID_1_"  style="overflow:visible;fill:#DDDDDD;"/>
	<clipPath id="SVGID_2_">
		<use xlink:href="#SVGID_1_"  style="overflow:visible;"/>
	</clipPath>
	<g id="XMLID_254_" class="st0">
		<defs>
			<rect id="XMLID_4044_" x="-13.5" width="327.1" height="300"/>
		</defs>
		<clipPath id="XMLID_3_">
			<use xlink:href="#XMLID_4044_"  style="overflow:visible;"/>
		</clipPath>
		<g id="XMLID_11642_" class="st1">
			<defs>
				<rect id="XMLID_11643_" x="0" width="300" height="300"/>
			</defs>
			<clipPath id="XMLID_4_">
				<use xlink:href="#XMLID_11643_"  style="overflow:visible;"/>
			</clipPath>
			<path id="XMLID_11672_" class="st2" d="M62.3,238.5c0,0,33.7,16.5,100.4,14c66.6-2.5,98.7-30.4,98.7-30.4S234.1,50.4,199-168.5
				H6.2L62.3,238.5z"/>
			<g id="XMLID_11658_" class="st3">
				<path id="XMLID_11671_" class="st4" d="M237,140.6l-16.7,1.4l-16.1,4.9c-1,0.3-0.7,1.8,0.3,1.8l16.7-1.4l16.1-4.9
					C238.4,142,238.1,140.5,237,140.6z"/>
				<circle id="XMLID_11670_" class="st5" cx="226.2" cy="144.3" r="12.5"/>
				<circle id="XMLID_11669_" class="st6" cx="226.4" cy="143.8" r="12"/>
				<circle id="XMLID_11668_" class="st7" cx="226.2" cy="142.2" r="12"/>
				<circle id="XMLID_11667_" class="st8" cx="226.2" cy="142.2" r="10.4"/>
				<circle id="XMLID_11666_" class="st9" cx="224.2" cy="139.4" r="1.5"/>
				<circle id="XMLID_11665_" class="st9" cx="227.9" cy="146.9" r="1.5"/>
				<line id="XMLID_11664_" class="st10" x1="223.6" y1="139.4" x2="227.3" y2="146.9"/>
				<line id="XMLID_11663_" class="st10" x1="224.6" y1="139" x2="228.2" y2="146.5"/>
				<circle id="XMLID_11662_" class="st9" cx="222.3" cy="145" r="1.5"/>
				<circle id="XMLID_11661_" class="st9" cx="229.8" cy="141.4" r="1.5"/>
				<line id="XMLID_11660_" class="st10" x1="222.3" y1="145.6" x2="229.8" y2="142"/>
				<line id="XMLID_11659_" class="st10" x1="221.9" y1="144.6" x2="229.4" y2="141"/>
			</g>
			<g id="XMLID_11644_" class="st3">
				<path id="XMLID_11657_" class="st4" d="M241.9,169.8l-16.7,1.4l-16.1,4.9c-1,0.3-0.7,1.8,0.3,1.8l16.7-1.4l16.1-4.9
					C243.2,171.2,242.9,169.7,241.9,169.8z"/>
				<circle id="XMLID_11656_" class="st5" cx="231.1" cy="173.5" r="12.5"/>
				<circle id="XMLID_11655_" class="st6" cx="231.2" cy="173" r="12"/>
				<circle id="XMLID_11654_" class="st7" cx="231.1" cy="171.4" r="12"/>
				<circle id="XMLID_11653_" class="st8" cx="231.1" cy="171.4" r="10.4"/>
				<circle id="XMLID_11652_" class="st9" cx="229.1" cy="168.6" r="1.5"/>
				<circle id="XMLID_11651_" class="st9" cx="232.7" cy="176.1" r="1.5"/>
				<line id="XMLID_11650_" class="st10" x1="228.5" y1="168.6" x2="232.1" y2="176.1"/>
				<line id="XMLID_11649_" class="st10" x1="229.5" y1="168.2" x2="233.1" y2="175.7"/>
				<circle id="XMLID_11648_" class="st9" cx="227.1" cy="174.2" r="1.5"/>
				<circle id="XMLID_11647_" class="st9" cx="234.6" cy="170.6" r="1.5"/>
				<line id="XMLID_11646_" class="st10" x1="227.1" y1="174.8" x2="234.6" y2="171.2"/>
				<line id="XMLID_11645_" class="st10" x1="226.7" y1="173.8" x2="234.2" y2="170.2"/>
			</g>
		</g>
	</g>
	<g id="XMLID_1_" class="st0">
		<defs>
			<rect id="XMLID_4932_" x="-13.5" width="327.1" height="300"/>
		</defs>
		<clipPath id="XMLID_5_">
			<use xlink:href="#XMLID_4932_"  style="overflow:visible;"/>
		</clipPath>
	</g>
	<g class="st0">
		<path class="st11" d="M150.1,4.6c38.7,0,75.1,15.1,102.5,42.5c27.4,27.4,42.5,63.8,42.5,102.5s-15.1,75.1-42.5,102.5
			c-27.4,27.4-63.8,42.5-102.5,42.5S75,279.5,47.6,252.1C20.2,224.7,5.1,188.3,5.1,149.6S20.2,74.5,47.6,47.1
			C75,19.7,111.4,4.6,150.1,4.6 M150.1-0.4c-82.8,0-150,67.2-150,150s67.2,150,150,150s150-67.2,150-150S232.9-0.4,150.1-0.4
			L150.1-0.4z"/>
	</g>
</g>
</svg>
