<?xml version="1.0" encoding="utf-8"?>
<!-- Generator: Adobe Illustrator 19.0.0, SVG Export Plug-In . SVG Version: 6.00 Build 0)  -->
<svg version="1.1" id="Layer_1" xmlns="http://www.w3.org/2000/svg" xmlns:xlink="http://www.w3.org/1999/xlink" x="0px" y="0px"
	 viewBox="0 0 300 300" style="enable-background:new 0 0 300 300;" xml:space="preserve">
<style type="text/css">
	.st0{clip-path:url(#SVGID_2_);}
	.st1{clip-path:url(#XMLID_6_);}
	.st2{clip-path:url(#XMLID_7_);}
	.st3{fill:#FFFFFF;stroke:#404041;stroke-miterlimit:10;}
	.st4{fill:#F1F1F2;}
	.st5{fill:#C5C7C9;}
	.st6{fill:#FFFFFF;}
	.st7{fill:#404041;}
	.st8{fill:none;}
	.st9{fill:#808184;}
	.st10{fill:none;stroke:#404041;stroke-miterlimit:10;}
	.st11{fill:none;stroke:#808184;stroke-width:0.5;stroke-miterlimit:10;stroke-dasharray:1,2;}
	.st12{fill:#DBDCDD;}
	.st13{fill:#404041;stroke:#D0D2D3;stroke-width:0.5;stroke-miterlimit:10;}
	.st14{fill:#FFFFFF;stroke:#6D6E70;stroke-miterlimit:10;}
	.st15{fill:#FFFFFF;stroke:#929497;stroke-width:0.25;stroke-miterlimit:10;}
	.st16{fill:none;stroke:#6D6E70;stroke-width:0.5;stroke-miterlimit:10;}
	.st17{fill:#929497;}
	.st18{fill:none;stroke:#6D6E70;stroke-width:0.25;stroke-miterlimit:10;}
	.st19{fill:#F2F2F2;}
	.st20{fill:#BFBFBF;}
	.st21{fill:#808080;}
	.st22{fill:#F2F2F2;stroke:#404041;stroke-miterlimit:10;}
	.st23{fill:none;stroke:#929497;stroke-width:0.5;stroke-miterlimit:10;stroke-dasharray:1,2;}
	.st24{fill:#9AA0BB;}
</style>
<g>
	<defs>
		<circle id="SVGID_1_" cx="150.1" cy="149.6" r="150"/>
	</defs>
	<use xlink:href="#SVGID_1_"  style="overflow:visible;fill:#DDDDDD;"/>
	<clipPath id="SVGID_2_">
		<use xlink:href="#SVGID_1_"  style="overflow:visible;"/>
	</clipPath>
	<g id="XMLID_4081_" class="st0">
		<defs>
			<rect id="XMLID_4118_" y="-0.4" width="300" height="300"/>
		</defs>
		<clipPath id="XMLID_6_">
			<use xlink:href="#XMLID_4118_"  style="overflow:visible;"/>
		</clipPath>
		<g id="XMLID_3531_" class="st1">
			<defs>
				<rect id="XMLID_3536_" y="-100.4" width="287.6" height="400"/>
			</defs>
			<clipPath id="XMLID_7_">
				<use xlink:href="#XMLID_3536_"  style="overflow:visible;"/>
			</clipPath>
			<g class="st2">
				<g id="XMLID_3537_">
					<g id="XMLID_3558_">
						<g id="XMLID_3745_">
							<g id="XMLID_3753_">
								<path id="XMLID_5369_" class="st3" d="M203.1,166.4c3.2-23.6,38-58.3,51.8-93.1l-0.1-8.7c0,0,4.6,0.1,10.4,30.2
									c3.7,19.1,13.3,76.6,24.1,193.4c3.1,33.3,7.7,90.8,12.3,137.6c4.7,47.6,4.5,87.4,4.5,87.4l-63.1,4.9
									c0,0-10.1-48.1-13.7-83.1c-3.2-30-6.4-59.7-11.2-108.1C207.7,222.8,202.6,170.5,203.1,166.4z"/>
								<path id="XMLID_5368_" class="st3" d="M-73.8,166.4c-3.2-23.6-38-58.3-51.8-93.1l0.1-8.7c0,0-4.6,0.1-10.4,30.2
									c-3.7,19.1-13.3,76.6-24.1,193.4c-3.1,33.3-7.7,90.8-12.3,137.6c-4.7,47.6-4.5,87.4-4.5,87.4l63.1,4.9
									c0,0,10.1-48.1,13.7-83.1c3.2-30,6.4-59.7,11.2-108.1C-78.4,222.8-73.3,170.5-73.8,166.4z"/>
								<g id="XMLID_5365_">
									<polygon id="XMLID_5367_" class="st4" points="-176.2,508.8 -112.5,513.3 -115,521.6 -176.2,517.2 									"/>
									<polygon id="XMLID_5366_" class="st5" points="-176.2,511.2 -112.5,515.7 -115,523.9 -176.2,519.5 									"/>
								</g>
								<g id="XMLID_4263_">
									<g id="XMLID_4264_">
										<g id="XMLID_5358_">
											<g id="XMLID_5363_">
												<path id="XMLID_5364_" class="st6" d="M-154.4,514.8l-23.2-1.7c-0.7-0.1-1.4,0.5-1.4,1.2l-2,42.6
													c-0.1,0.7,0.5,1.4,1.2,1.4l22.2,1.7l0,0c-0.6,0-1.3-0.6-1.2-1.4l0,0l2.1-29.9C-156.7,528.3-154.1,514.8-154.4,514.8z"/>
											</g>
											<g id="XMLID_5359_">
												<path id="XMLID_5360_" class="st7" d="M-181.3,556.9l2-42.6c0.1-0.9,0.8-1.5,1.7-1.5l23.2,1.7l0.1,0l0.1,0.1
													c0.1,0.2,0.1,0.8-1.8,11.1c-0.3,1.5-0.5,2.8-0.5,2.9l-2.1,29.9c0,0.4,0.1,0.6,0.3,0.8c0.2,0.2,0.5,0.4,0.7,0.4l1.2,0.6
													l-23.3-1.7C-180.7,558.5-181.3,557.8-181.3,556.9z M-159.1,558.6l2.1-29.9c0-0.1,0.2-1,0.5-3c0.6-3.1,1.7-9.5,1.8-10.7
													l-23-1.6c-0.6,0-1.1,0.4-1.2,1l-2,42.6c0,0.6,0.4,1.1,1,1.2l21,1.6C-159,559.4-159.1,559-159.1,558.6z"/>
											</g>
										</g>
										<g id="XMLID_5353_">
											<g id="XMLID_5356_">
												<path id="XMLID_5357_" class="st6" d="M-112.7,517.8c1.1,0.1,2,0.7,1.9,1.5l-4.1,42.6c-0.1,0.7-1,1.3-2.1,1.2l-61.8-4.6
													c-1.1-0.1-2-0.7-1.9-1.5l2-42.6c0.1-0.7,1-1.3,2.1-1.2L-112.7,517.8z"/>
											</g>
											<path id="XMLID_5355_" class="st8" d="M-111,519.2l-4.1,42.6c0,0.6-0.6,1.1-1.2,1l-40.4-3l2.8-44.8l41.9,3
												C-111.4,518.1-111,518.6-111,519.2z"/>
											<path id="XMLID_5354_" class="st7" d="M-116.3,562.8c0.6,0,1.1-0.4,1.2-1l4.1-42.6c0-0.6-0.4-1.1-1-1.2l-65.8-4.6l0-0.5
												l65.8,4.6c0.9,0.1,1.5,0.8,1.5,1.7l-4.1,42.6c-0.1,0.9-0.8,1.5-1.7,1.5l-63.6-4.7l0-0.5L-116.3,562.8z"/>
										</g>
										<g id="XMLID_4649_">
											<g id="XMLID_5350_">
												<g id="XMLID_5351_">
													
														<rect id="XMLID_5352_" x="-154.7" y="515.8" transform="matrix(-0.9975 -7.105733e-02 7.105733e-02 -0.9975 -345.4594 1019.5856)" class="st9" width="0.2" height="0.2"/>
												</g>
											</g>
											<g id="XMLID_4653_">
												<g id="XMLID_4654_">
													<path id="XMLID_4655_" class="st9" d="M-156.2,559.3l0.5,0l0,0.2l-0.5,0L-156.2,559.3z M-154.8,559.4l0.5,0l0,0.2
														l-0.5,0L-154.8,559.4z M-153.4,559.5l0.5,0l0,0.2l-0.5,0L-153.4,559.5z M-152,559.6l0.5,0l0,0.2l-0.5,0L-152,559.6z
														 M-150.6,559.7l0.5,0l0,0.2l-0.5,0L-150.6,559.7z M-149.2,559.8l0.5,0l0,0.2l-0.5,0L-149.2,559.8z M-147.8,559.9l0.5,0
														l0,0.2l-0.5,0L-147.8,559.9z M-146.4,560l0.5,0l0,0.2l-0.5,0L-146.4,560z M-145,560.1l0.5,0l0,0.2l-0.5,0L-145,560.1z
														 M-143.6,560.2l0.5,0l0,0.2l-0.5,0L-143.6,560.2z M-142.1,560.3l0.5,0l0,0.2l-0.5,0L-142.1,560.3z M-140.7,560.4l0.5,0
														l0,0.2l-0.5,0L-140.7,560.4z M-139.3,560.5l0.5,0l0,0.2l-0.5,0L-139.3,560.5z M-137.9,560.6l0.5,0l0,0.2l-0.5,0
														L-137.9,560.6z M-136.5,560.7l0.5,0l0,0.2l-0.5,0L-136.5,560.7z M-135.1,560.8l0.5,0l0,0.2l-0.5,0L-135.1,560.8z
														 M-133.7,560.9l0.5,0l0,0.2l-0.5,0L-133.7,560.9z M-132.3,561l0.5,0l0,0.2l-0.5,0L-132.3,561z M-132,561.1l0.5,0l0,0.2
														l-0.5,0L-132,561.1z M-130.6,561.2l0.5,0l0,0.2l-0.5,0L-130.6,561.2z M-129.2,561.3l0.5,0l0,0.2l-0.5,0L-129.2,561.3z
														 M-127.8,561.4l0.5,0l0,0.2l-0.5,0L-127.8,561.4z M-126.4,561.5l0.5,0l0,0.2l-0.5,0L-126.4,561.5z M-125,561.6l0.5,0
														l0,0.2l-0.5,0L-125,561.6z M-123.6,561.7l0.5,0l0,0.2l-0.5,0L-123.6,561.7z M-122.2,561.8l0.5,0l0,0.2l-0.5,0
														L-122.2,561.8z M-120.8,561.9l0.5,0l0,0.2l-0.5,0L-120.8,561.9z M-119.4,562l0.5,0l0,0.2l-0.5,0L-119.4,562z
														 M-118,562.1l0.5,0l0,0.2l-0.5,0L-118,562.1z M-116.6,562.2l0.5,0l0,0.2l-0.5,0L-116.6,562.2z M-157.6,559.1l0.2-0.1
														c0.1,0.1,0.2,0.2,0.3,0.2l-0.1,0.2C-157.3,559.4-157.5,559.3-157.6,559.1z"/>
												</g>
											</g>
											<g id="XMLID_4650_">
												<g id="XMLID_4651_">
													
														<rect id="XMLID_4652_" x="-115.2" y="562.3" transform="matrix(-0.9975 -7.105733e-02 7.105733e-02 -0.9975 -269.7698 1115.1715)" class="st9" width="0.2" height="0.2"/>
												</g>
											</g>
										</g>
										<g id="XMLID_4339_">
											<g id="XMLID_4646_">
												<g id="XMLID_4647_">
													
														<rect id="XMLID_4648_" x="-154.8" y="518.7" transform="matrix(-0.9975 -7.105733e-02 7.105733e-02 -0.9975 -345.919 1025.4193)" class="st9" width="0.2" height="0.2"/>
												</g>
											</g>
											<g id="XMLID_4589_">
												<g id="XMLID_4590_">
													<path id="XMLID_4591_" class="st9" d="M-153.7,518.8l0.5,0l0,0.2l-0.5,0L-153.7,518.8z M-152.2,518.9l0.5,0l0,0.2
														l-0.5,0L-152.2,518.9z M-150.8,519l0.5,0l0,0.2l-0.5,0L-150.8,519z M-149.4,519.1l0.5,0l0,0.2l-0.5,0L-149.4,519.1z
														 M-148,519.2l0.5,0l0,0.2l-0.5,0L-148,519.2z M-146.6,519.3l0.5,0l0,0.2l-0.5,0L-146.6,519.3z M-145.2,519.4l0.5,0
														l0,0.2l-0.5,0L-145.2,519.4z M-143.7,519.5l0.5,0l0,0.2l-0.5,0L-143.7,519.5z M-142.3,519.6l0.5,0l0,0.2l-0.5,0
														L-142.3,519.6z M-140.9,519.7l0.5,0l0,0.2l-0.5,0L-140.9,519.7z M-139.5,519.8l0.5,0l0,0.2l-0.5,0L-139.5,519.8z
														 M-138.1,519.9l0.5,0l0,0.2l-0.5,0L-138.1,519.9z M-136.7,520l0.5,0l0,0.2l-0.5,0L-136.7,520z M-135.3,520.1l0.5,0
														l0,0.2l-0.5,0L-135.3,520.1z M-133.8,520.2l0.5,0l0,0.2l-0.5,0L-133.8,520.2z M-132.4,520.3l0.5,0l0,0.2l-0.5,0
														L-132.4,520.3z M-131,520.4l0.5,0l0,0.2l-0.5,0L-131,520.4z M-129.6,520.5l0.5,0l0,0.2l-0.5,0L-129.6,520.5z
														 M-128.2,520.6l0.5,0l0,0.2l-0.5,0L-128.2,520.6z M-126.8,520.7l0.5,0l0,0.2l-0.5,0L-126.8,520.7z M-125.4,520.8l0.5,0
														l0,0.2l-0.5,0L-125.4,520.8z M-123.9,520.9l0.5,0l0,0.2l-0.5,0L-123.9,520.9z M-122.5,521l0.5,0l0,0.2l-0.5,0
														L-122.5,521z M-121.1,521.1l0.5,0l0,0.2l-0.5,0L-121.1,521.1z M-119.7,521.2l0.5,0l0,0.2l-0.5,0L-119.7,521.2z
														 M-118.3,521.3l0.5,0l0,0.2l-0.5,0L-118.3,521.3z M-116.9,521.4l0.5,0l0,0.2l-0.5,0L-116.9,521.4z M-115.5,521.5l0.5,0
														l0,0.2l-0.5,0L-115.5,521.5z M-114,521.6l0.5,0l0,0.2l-0.5,0L-114,521.6z M-112.6,521.7l0.5,0l0,0.2l-0.5,0
														L-112.6,521.7z"/>
												</g>
											</g>
											<g id="XMLID_4586_">
												<g id="XMLID_4587_">
													<polygon id="XMLID_4588_" class="st9" points="-111.2,522.1 -110.9,522.1 -110.8,521.8 -111.1,521.7 -111.1,521.9 
														-111.2,521.8 													"/>
												</g>
											</g>
											<g id="XMLID_4583_">
												<g id="XMLID_4584_">
													
														<rect id="XMLID_4585_" x="-111" y="520.2" transform="matrix(-0.9975 -7.105733e-02 7.105733e-02 -0.9975 -258.4505 1031.7256)" class="st9" width="0.2" height="0.5"/>
												</g>
											</g>
											<g id="XMLID_4580_">
												<g id="XMLID_4581_">
													<polygon id="XMLID_4582_" class="st9" points="-110.9,519.2 -110.7,519.2 -110.6,518.8 -111,518.8 -111,519 
														-110.9,519.1 													"/>
												</g>
											</g>
											<g id="XMLID_4343_">
												<g id="XMLID_4344_">
													<path id="XMLID_4345_" class="st9" d="M-153.4,515.8l0.5,0l0,0.2l-0.5,0L-153.4,515.8z M-152,515.9l0.5,0l0,0.2l-0.5,0
														L-152,515.9z M-150.6,516l0.5,0l0,0.2l-0.5,0L-150.6,516z M-149.2,516.1l0.5,0l0,0.2l-0.5,0L-149.2,516.1z
														 M-147.8,516.2l0.5,0l0,0.2l-0.5,0L-147.8,516.2z M-146.4,516.3l0.5,0l0,0.2l-0.5,0L-146.4,516.3z M-144.9,516.4l0.5,0
														l0,0.2l-0.5,0L-144.9,516.4z M-143.5,516.5l0.5,0l0,0.2l-0.5,0L-143.5,516.5z M-142.1,516.6l0.5,0l0,0.2l-0.5,0
														L-142.1,516.6z M-140.7,516.7l0.5,0l0,0.2l-0.5,0L-140.7,516.7z M-139.3,516.8l0.5,0l0,0.2l-0.5,0L-139.3,516.8z
														 M-137.9,516.9l0.5,0l0,0.2l-0.5,0L-137.9,516.9z M-136.5,517l0.5,0l0,0.2l-0.5,0L-136.5,517z M-135,517.1l0.5,0l0,0.2
														l-0.5,0L-135,517.1z M-133.6,517.2l0.5,0l0,0.2l-0.5,0L-133.6,517.2z M-132.2,517.3l0.5,0l0,0.2l-0.5,0L-132.2,517.3z
														 M-130.8,517.4l0.5,0l0,0.2l-0.5,0L-130.8,517.4z M-129.4,517.5l0.5,0l0,0.2l-0.5,0L-129.4,517.5z M-128,517.6l0.5,0
														l0,0.2l-0.5,0L-128,517.6z M-126.6,517.7l0.5,0l0,0.2l-0.5,0L-126.6,517.7z M-125.1,517.8l0.5,0l0,0.2l-0.5,0
														L-125.1,517.8z M-123.7,517.9l0.5,0l0,0.2l-0.5,0L-123.7,517.9z M-122.3,518l0.5,0l0,0.2l-0.5,0L-122.3,518z
														 M-120.9,518.1l0.5,0l0,0.2l-0.5,0L-120.9,518.1z M-119.5,518.2l0.5,0l0,0.2l-0.5,0L-119.5,518.2z M-118.1,518.3l0.5,0
														l0,0.2l-0.5,0L-118.1,518.3z M-116.7,518.4l0.5,0l0,0.2l-0.5,0L-116.7,518.4z M-115.2,518.5l0.5,0l0,0.2l-0.5,0
														L-115.2,518.5z M-113.8,518.6l0.5,0l0,0.2l-0.5,0L-113.8,518.6z M-112.4,518.7l0.5,0l0,0.2l-0.5,0L-112.4,518.7z"/>
												</g>
											</g>
											<g id="XMLID_4340_">
												<g id="XMLID_4341_">
													
														<rect id="XMLID_4342_" x="-154.6" y="515.7" transform="matrix(-0.9975 -7.105733e-02 7.105733e-02 -0.9975 -345.2712 1019.3685)" class="st9" width="0.2" height="0.2"/>
												</g>
											</g>
										</g>
										<g id="XMLID_4289_">
											<g id="XMLID_4336_">
												<g id="XMLID_4337_">
													
														<rect id="XMLID_4338_" x="-179.3" y="517" transform="matrix(-0.9975 -7.105733e-02 7.105733e-02 -0.9975 -394.5654 1020.2101)" class="st9" width="0.2" height="0.2"/>
												</g>
											</g>
											<g id="XMLID_4317_">
												<g id="XMLID_4318_">
													<path id="XMLID_4319_" class="st9" d="M-178,517.1l0.5,0l0,0.2l-0.5,0L-178,517.1z M-176.6,517.2l0.5,0l0,0.2l-0.5,0
														L-176.6,517.2z M-175.1,517.3l0.5,0l0,0.2l-0.5,0L-175.1,517.3z M-173.7,517.4l0.5,0l0,0.2l-0.5,0L-173.7,517.4z
														 M-172.2,517.5l0.5,0l0,0.2l-0.5,0L-172.2,517.5z M-170.8,517.6l0.5,0l0,0.2l-0.5,0L-170.8,517.6z M-169.3,517.7l0.5,0
														l0,0.2l-0.5,0L-169.3,517.7z M-167.9,517.8l0.5,0l0,0.2l-0.5,0L-167.9,517.8z M-166.4,517.9l0.5,0l0,0.2l-0.5,0
														L-166.4,517.9z M-165,518l0.5,0l0,0.2l-0.5,0L-165,518z M-163.5,518.1l0.5,0l0,0.2l-0.5,0L-163.5,518.1z M-162.1,518.2
														l0.5,0l0,0.2l-0.5,0L-162.1,518.2z M-160.6,518.3l0.5,0l0,0.2l-0.5,0L-160.6,518.3z M-159.2,518.4l0.5,0l0,0.2l-0.5,0
														L-159.2,518.4z M-157.7,518.5l0.5,0l0,0.2l-0.5,0L-157.7,518.5z"/>
												</g>
											</g>
											<g id="XMLID_4314_">
												<g id="XMLID_4315_">
													<polygon id="XMLID_4316_" class="st9" points="-156.3,518.9 -155.9,518.9 -155.9,518.5 -156.1,518.5 -156.1,518.6 
														-156.2,518.6 													"/>
												</g>
											</g>
											<g id="XMLID_4311_">
												<g id="XMLID_4312_">
													<polygon id="XMLID_4313_" class="st9" points="-155.9,516 -155.7,516 -155.7,515.6 -156,515.6 -156,515.8 
														-155.9,515.8 													"/>
												</g>
											</g>
											<g id="XMLID_4293_">
												<g id="XMLID_4294_">
													<path id="XMLID_4295_" class="st9" d="M-177.8,514l0.5,0l0,0.2l-0.5,0L-177.8,514z M-176.4,514.1l0.5,0l0,0.2l-0.5,0
														L-176.4,514.1z M-174.9,514.3l0.5,0l0,0.2l-0.5,0L-174.9,514.3z M-173.5,514.4l0.5,0l0,0.2l-0.5,0L-173.5,514.4z
														 M-172,514.5l0.5,0l0,0.2l-0.5,0L-172,514.5z M-170.6,514.6l0.5,0l0,0.2l-0.5,0L-170.6,514.6z M-169.1,514.7l0.5,0
														l0,0.2l-0.5,0L-169.1,514.7z M-167.7,514.8l0.5,0l0,0.2l-0.5,0L-167.7,514.8z M-166.2,514.9l0.5,0l0,0.2l-0.5,0
														L-166.2,514.9z M-164.7,515l0.5,0l0,0.2l-0.5,0L-164.7,515z M-163.3,515.1l0.5,0l0,0.2l-0.5,0L-163.3,515.1z
														 M-161.8,515.2l0.5,0l0,0.2l-0.5,0L-161.8,515.2z M-160.4,515.3l0.5,0l0,0.2l-0.5,0L-160.4,515.3z M-158.9,515.4l0.5,0
														l0,0.2l-0.5,0L-158.9,515.4z M-157.5,515.5l0.5,0l0,0.2l-0.5,0L-157.5,515.5z"/>
												</g>
											</g>
											<g id="XMLID_4290_">
												<g id="XMLID_4291_">
													
														<rect id="XMLID_4292_" x="-179" y="514" transform="matrix(-0.9975 -7.105733e-02 7.105733e-02 -0.9975 -393.9176 1014.1593)" class="st9" width="0.2" height="0.2"/>
												</g>
											</g>
										</g>
										<g id="XMLID_4266_">
											<g id="XMLID_4267_">
												<path id="XMLID_4268_" class="st9" d="M-180.8,557.4l0.5,0l0,0.2l-0.5,0L-180.8,557.4z M-179.4,557.5l0.5,0l0,0.2
													l-0.5,0L-179.4,557.5z M-177.9,557.6l0.5,0l0,0.2l-0.5,0L-177.9,557.6z M-176.5,557.7l0.5,0l0,0.2l-0.5,0L-176.5,557.7z
													 M-175.1,557.8l0.5,0l0,0.2l-0.5,0L-175.1,557.8z M-173.7,557.9l0.5,0l0,0.2l-0.5,0L-173.7,557.9z M-172.3,558l0.5,0
													l0,0.2l-0.5,0L-172.3,558z M-170.9,558.1l0.5,0l0,0.2l-0.5,0L-170.9,558.1z M-169.5,558.2l0.5,0l0,0.2l-0.5,0
													L-169.5,558.2z M-168,558.3l-0.6,0l0,0.2l0.6,0L-168,558.3z M-167.7,558.4l0.5,0l0,0.2l-0.5,0L-167.7,558.4z
													 M-166.3,558.5l0.5,0l0,0.2l-0.5,0L-166.3,558.5z M-164.9,558.6l0.5,0l0,0.2l-0.5,0L-164.9,558.6z M-163.5,558.7l0.5,0
													l0,0.2l-0.5,0L-163.5,558.7z M-162.1,558.8l0.5,0l0,0.2l-0.5,0L-162.1,558.8z M-160.6,558.9l0.5,0l0,0.2l-0.5,0
													L-160.6,558.9z M-159.2,559l0.5,0l0,0.2l-0.5,0L-159.2,559z M-157.8,559.1l0.5,0l0,0.2l-0.5,0L-157.8,559.1z
													 M-156.4,559.2l0.5,0l0,0.2l-0.5,0L-156.4,559.2z M-155,559.3l0.1,0l0,0.2l-0.1,0L-155,559.3z"/>
											</g>
										</g>
										<path id="XMLID_4265_" class="st10" d="M-180.3,557l2-42.6c0-0.5,0.4-0.8,0.9-1l0-0.4l65.8,4.6c0.9,0.1,1.5,0.8,1.5,1.7
											l-4.1,42.6c-0.1,0.9-0.8,1.5-1.7,1.5l-63.6-4.7l0-0.4C-180,557.9-180.3,557.4-180.3,557z"/>
									</g>
								</g>
								<g id="XMLID_4260_">
									<polygon id="XMLID_4262_" class="st4" points="305.4,508.8 241.7,513.3 244.3,521.6 305.4,517.2 									"/>
									<polygon id="XMLID_4261_" class="st5" points="305.4,511.2 241.7,515.7 244.3,523.9 305.4,519.5 									"/>
								</g>
								<g id="XMLID_3754_">
									<g id="XMLID_3761_">
										<g id="XMLID_4253_">
											<g id="XMLID_4258_">
												<path id="XMLID_4259_" class="st6" d="M283.7,514.8l23.2-1.7c0.7-0.1,1.4,0.5,1.4,1.2l2,42.6c0.1,0.7-0.5,1.4-1.2,1.4
													l-22.2,1.7l0,0c0.6,0,1.3-0.6,1.2-1.4l0,0l-2.1-29.9C286,528.3,283.4,514.8,283.7,514.8z"/>
											</g>
											<g id="XMLID_4254_">
												<path id="XMLID_4255_" class="st7" d="M309.1,558.6l-23.3,1.7l1.2-0.6c0.3,0,0.5-0.2,0.7-0.4c0.1-0.2,0.3-0.4,0.3-0.8
													l-2.1-29.9c0-0.1-0.2-1.4-0.5-2.9c-1.9-10.4-1.9-10.9-1.8-11.1l0.1-0.1l0.1,0l23.2-1.7c0.9-0.1,1.6,0.6,1.7,1.5l2,42.6
													C310.6,557.8,310,558.5,309.1,558.6z M288,559.7l21-1.6c0.6,0,1.1-0.6,1-1.2l-2-42.6c0-0.6-0.6-1.1-1.2-1l-23,1.6
													c0.1,1.2,1.2,7.5,1.8,10.7c0.4,1.9,0.5,2.9,0.5,3l2.1,29.9C288.4,559,288.3,559.4,288,559.7z"/>
											</g>
										</g>
										<g id="XMLID_4247_">
											<g id="XMLID_4251_">
												<path id="XMLID_4252_" class="st6" d="M242,517.8c-1.1,0.1-2,0.7-1.9,1.5l4.1,42.6c0.1,0.7,1,1.3,2.1,1.2l61.8-4.6
													c1.1-0.1,2-0.7,1.9-1.5l-2-42.6c-0.1-0.7-1-1.3-2.1-1.2L242,517.8z"/>
											</g>
											<path id="XMLID_4250_" class="st8" d="M240.3,519.2l4.1,42.6c0,0.6,0.6,1.1,1.2,1l40.4-3l-2.8-44.8l-41.9,3
												C240.7,518.1,240.3,518.6,240.3,519.2z"/>
											<path id="XMLID_4248_" class="st7" d="M245.6,562.8c-0.6,0-1.1-0.4-1.2-1l-4.1-42.6c0-0.6,0.4-1.1,1-1.2l65.8-4.6l0-0.5
												l-65.8,4.6c-0.9,0.1-1.5,0.8-1.5,1.7l4.1,42.6c0.1,0.9,0.8,1.5,1.7,1.5l63.6-4.7l0-0.5L245.6,562.8z"/>
										</g>
										<g id="XMLID_4206_">
											<g id="XMLID_4244_">
												<g id="XMLID_4245_">
													
														<rect id="XMLID_4246_" x="283.8" y="515.8" transform="matrix(0.9975 -7.105733e-02 7.105733e-02 0.9975 -35.9435 21.4773)" class="st9" width="0.2" height="0.2"/>
												</g>
											</g>
											<g id="XMLID_4210_">
												<g id="XMLID_4211_">
													<path id="XMLID_4212_" class="st9" d="M285.5,559.5l-0.5,0l0-0.2l0.5,0L285.5,559.5z M284.1,559.6l-0.5,0l0-0.2l0.5,0
														L284.1,559.6z M282.7,559.7l-0.5,0l0-0.2l0.5,0L282.7,559.7z M281.3,559.8l-0.5,0l0-0.2l0.5,0L281.3,559.8z
														 M279.9,559.9l-0.5,0l0-0.2l0.5,0L279.9,559.9z M278.5,560l-0.5,0l0-0.2l0.5,0L278.5,560z M277.1,560.1l-0.5,0l0-0.2
														l0.5,0L277.1,560.1z M275.7,560.2l-0.5,0l0-0.2l0.5,0L275.7,560.2z M274.3,560.3l-0.5,0l0-0.2l0.5,0L274.3,560.3z
														 M272.9,560.4l-0.5,0l0-0.2l0.5,0L272.9,560.4z M271.5,560.5l-0.5,0l0-0.2l0.5,0L271.5,560.5z M270.1,560.6l-0.5,0
														l0-0.2l0.5,0L270.1,560.6z M268.7,560.7l-0.5,0l0-0.2l0.5,0L268.7,560.7z M267.3,560.8l-0.5,0l0-0.2l0.5,0L267.3,560.8
														z M265.9,560.9l-0.5,0l0-0.2l0.5,0L265.9,560.9z M264.5,561l-0.5,0l0-0.2l0.5,0L264.5,561z M263.1,561.1l-0.5,0l0-0.2
														l0.5,0L263.1,561.1z M261.6,561.2l-0.5,0l0-0.2l0.5,0L261.6,561.2z M261.3,561.3l-0.5,0l0-0.2l0.5,0L261.3,561.3z
														 M259.9,561.4l-0.5,0l0-0.2l0.5,0L259.9,561.4z M258.5,561.5l-0.5,0l0-0.2l0.5,0L258.5,561.5z M257.1,561.6l-0.5,0
														l0-0.2l0.5,0L257.1,561.6z M255.7,561.7l-0.5,0l0-0.2l0.5,0L255.7,561.7z M254.3,561.8l-0.5,0l0-0.2l0.5,0L254.3,561.8
														z M252.9,561.9l-0.5,0l0-0.2l0.5,0L252.9,561.9z M251.5,562l-0.5,0l0-0.2l0.5,0L251.5,562z M250.1,562.1l-0.5,0l0-0.2
														l0.5,0L250.1,562.1z M248.7,562.2l-0.5,0l0-0.2l0.5,0L248.7,562.2z M247.3,562.3l-0.5,0l0-0.2l0.5,0L247.3,562.3z
														 M245.9,562.4l-0.5,0l0-0.2l0.5,0L245.9,562.4z M286.5,559.4l-0.1-0.2c0.1,0,0.2-0.1,0.3-0.2l0.2,0.1
														C286.8,559.3,286.6,559.4,286.5,559.4z"/>
												</g>
											</g>
											<g id="XMLID_4207_">
												<g id="XMLID_4208_">
													
														<rect id="XMLID_4209_" x="244.2" y="562.3" transform="matrix(0.9975 -7.105733e-02 7.105733e-02 0.9975 -39.3438 18.7847)" class="st9" width="0.2" height="0.2"/>
												</g>
											</g>
										</g>
										<g id="XMLID_4123_">
											<g id="XMLID_4203_">
												<g id="XMLID_4204_">
													
														<rect id="XMLID_4205_" x="283.9" y="518.7" transform="matrix(0.9975 -7.105733e-02 7.105733e-02 0.9975 -36.151 21.4936)" class="st9" width="0.2" height="0.2"/>
												</g>
											</g>
											<g id="XMLID_4169_">
												<g id="XMLID_4170_">
													<path id="XMLID_4171_" class="st9" d="M283,519.1l-0.5,0l0-0.2l0.5,0L283,519.1z M281.6,519.2l-0.5,0l0-0.2l0.5,0
														L281.6,519.2z M280.1,519.3l-0.5,0l0-0.2l0.5,0L280.1,519.3z M278.7,519.4l-0.5,0l0-0.2l0.5,0L278.7,519.4z
														 M277.3,519.5l-0.5,0l0-0.2l0.5,0L277.3,519.5z M275.9,519.6l-0.5,0l0-0.2l0.5,0L275.9,519.6z M274.5,519.7l-0.5,0
														l0-0.2l0.5,0L274.5,519.7z M273.1,519.8l-0.5,0l0-0.2l0.5,0L273.1,519.8z M271.7,519.9l-0.5,0l0-0.2l0.5,0L271.7,519.9
														z M270.2,520l-0.5,0l0-0.2l0.5,0L270.2,520z M268.8,520.1l-0.5,0l0-0.2l0.5,0L268.8,520.1z M267.4,520.2l-0.5,0l0-0.2
														l0.5,0L267.4,520.2z M266,520.3l-0.5,0l0-0.2l0.5,0L266,520.3z M264.6,520.4l-0.5,0l0-0.2l0.5,0L264.6,520.4z
														 M263.2,520.5l-0.5,0l0-0.2l0.5,0L263.2,520.5z M261.8,520.6l-0.5,0l0-0.2l0.5,0L261.8,520.6z M260.3,520.7l-0.5,0
														l0-0.2l0.5,0L260.3,520.7z M258.9,520.8l-0.5,0l0-0.2l0.5,0L258.9,520.8z M257.5,520.9l-0.5,0l0-0.2l0.5,0L257.5,520.9
														z M256.1,521l-0.5,0l0-0.2l0.5,0L256.1,521z M254.7,521.1l-0.5,0l0-0.2l0.5,0L254.7,521.1z M253.3,521.2l-0.5,0l0-0.2
														l0.5,0L253.3,521.2z M251.8,521.3l-0.5,0l0-0.2l0.5,0L251.8,521.3z M250.4,521.4l-0.5,0l0-0.2l0.5,0L250.4,521.4z
														 M249,521.5l-0.5,0l0-0.2l0.5,0L249,521.5z M247.6,521.6l-0.5,0l0-0.2l0.5,0L247.6,521.6z M246.2,521.7l-0.5,0l0-0.2
														l0.5,0L246.2,521.7z M244.8,521.8l-0.5,0l0-0.2l0.5,0L244.8,521.8z M243.4,521.9l-0.5,0l0-0.2l0.5,0L243.4,521.9z
														 M241.9,522l-0.5,0l0-0.2l0.5,0L241.9,522z"/>
												</g>
											</g>
											<g id="XMLID_4166_">
												<g id="XMLID_4167_">
													<polygon id="XMLID_4168_" class="st9" points="240.5,522.1 240.2,522.1 240.2,521.8 240.4,521.7 240.4,521.9 
														240.5,521.8 													"/>
												</g>
											</g>
											<g id="XMLID_4163_">
												<g id="XMLID_4164_">
													
														<rect id="XMLID_4165_" x="240.1" y="520.2" transform="matrix(0.9975 -7.105733e-02 7.105733e-02 0.9975 -36.3754 18.3821)" class="st9" width="0.2" height="0.5"/>
												</g>
											</g>
											<g id="XMLID_4160_">
												<g id="XMLID_4161_">
													<polygon id="XMLID_4162_" class="st9" points="240.2,519.2 240,519.2 239.9,518.8 240.3,518.8 240.3,519 240.2,519.1 
																											"/>
												</g>
											</g>
											<g id="XMLID_4127_">
												<g id="XMLID_4128_">
													<path id="XMLID_4129_" class="st9" d="M282.8,516l-0.5,0l0-0.2l0.5,0L282.8,516z M281.3,516.1l-0.5,0l0-0.2l0.5,0
														L281.3,516.1z M279.9,516.2l-0.5,0l0-0.2l0.5,0L279.9,516.2z M278.5,516.3l-0.5,0l0-0.2l0.5,0L278.5,516.3z
														 M277.1,516.4l-0.5,0l0-0.2l0.5,0L277.1,516.4z M275.7,516.5l-0.5,0l0-0.2l0.5,0L275.7,516.5z M274.3,516.6l-0.5,0
														l0-0.2l0.5,0L274.3,516.6z M272.9,516.7l-0.5,0l0-0.2l0.5,0L272.9,516.7z M271.4,516.8l-0.5,0l0-0.2l0.5,0L271.4,516.8
														z M270,516.9l-0.5,0l0-0.2l0.5,0L270,516.9z M268.6,517l-0.5,0l0-0.2l0.5,0L268.6,517z M267.2,517.1l-0.5,0l0-0.2
														l0.5,0L267.2,517.1z M265.8,517.2l-0.5,0l0-0.2l0.5,0L265.8,517.2z M264.4,517.3l-0.5,0l0-0.2l0.5,0L264.4,517.3z
														 M263,517.4l-0.5,0l0-0.2l0.5,0L263,517.4z M261.5,517.5l-0.5,0l0-0.2l0.5,0L261.5,517.5z M260.1,517.6l-0.5,0l0-0.2
														l0.5,0L260.1,517.6z M258.7,517.7l-0.5,0l0-0.2l0.5,0L258.7,517.7z M257.3,517.8l-0.5,0l0-0.2l0.5,0L257.3,517.8z
														 M255.9,517.9l-0.5,0l0-0.2l0.5,0L255.9,517.9z M254.5,518l-0.5,0l0-0.2l0.5,0L254.5,518z M253,518.1l-0.5,0l0-0.2
														l0.5,0L253,518.1z M251.6,518.2l-0.5,0l0-0.2l0.5,0L251.6,518.2z M250.2,518.3l-0.5,0l0-0.2l0.5,0L250.2,518.3z
														 M248.8,518.4l-0.5,0l0-0.2l0.5,0L248.8,518.4z M247.4,518.5l-0.5,0l0-0.2l0.5,0L247.4,518.5z M246,518.6l-0.5,0l0-0.2
														l0.5,0L246,518.6z M244.6,518.7l-0.5,0l0-0.2l0.5,0L244.6,518.7z M243.1,518.8l-0.5,0l0-0.2l0.5,0L243.1,518.8z
														 M241.7,518.9l-0.5,0l0-0.2l0.5,0L241.7,518.9z"/>
												</g>
											</g>
											<g id="XMLID_4124_">
												<g id="XMLID_4125_">
													
														<rect id="XMLID_4126_" x="283.7" y="515.7" transform="matrix(0.9975 -7.105733e-02 7.105733e-02 0.9975 -35.9358 21.4706)" class="st9" width="0.2" height="0.2"/>
												</g>
											</g>
										</g>
										<g id="XMLID_3808_">
											<g id="XMLID_4120_">
												<g id="XMLID_4121_">
													
														<rect id="XMLID_4122_" x="308.3" y="517" transform="matrix(0.9975 -7.105733e-02 7.105733e-02 0.9975 -35.9657 23.2242)" class="st9" width="0.2" height="0.2"/>
												</g>
											</g>
											<g id="XMLID_3856_">
												<g id="XMLID_3857_">
													<path id="XMLID_3859_" class="st9" d="M307.4,517.3l-0.5,0l0-0.2l0.5,0L307.4,517.3z M305.9,517.4l-0.5,0l0-0.2l0.5,0
														L305.9,517.4z M304.5,517.5l-0.5,0l0-0.2l0.5,0L304.5,517.5z M303,517.6l-0.5,0l0-0.2l0.5,0L303,517.6z M301.6,517.7
														l-0.5,0l0-0.2l0.5,0L301.6,517.7z M300.1,517.8l-0.5,0l0-0.2l0.5,0L300.1,517.8z M298.6,517.9l-0.5,0l0-0.2l0.5,0
														L298.6,517.9z M297.2,518l-0.5,0l0-0.2l0.5,0L297.2,518z M295.7,518.1l-0.5,0l0-0.2l0.5,0L295.7,518.1z M294.3,518.2
														l-0.5,0l0-0.2l0.5,0L294.3,518.2z M292.8,518.4l-0.5,0l0-0.2l0.5,0L292.8,518.4z M291.4,518.5l-0.5,0l0-0.2l0.5,0
														L291.4,518.5z M289.9,518.6l-0.5,0l0-0.2l0.5,0L289.9,518.6z M288.5,518.7l-0.5,0l0-0.2l0.5,0L288.5,518.7z M287,518.8
														l-0.5,0l0-0.2l0.5,0L287,518.8z"/>
												</g>
											</g>
											<g id="XMLID_3853_">
												<g id="XMLID_3854_">
													<polygon id="XMLID_3855_" class="st9" points="285.6,518.9 285.2,518.9 285.2,518.5 285.4,518.5 285.4,518.6 
														285.5,518.6 													"/>
												</g>
											</g>
											<g id="XMLID_3850_">
												<g id="XMLID_3851_">
													<polygon id="XMLID_3852_" class="st9" points="285.2,516 285,516 285,515.6 285.3,515.6 285.3,515.8 285.2,515.8 
																											"/>
												</g>
											</g>
											<g id="XMLID_3812_">
												<g id="XMLID_3813_">
													<path id="XMLID_3814_" class="st9" d="M307.1,514.3l-0.5,0l0-0.2l0.5,0L307.1,514.3z M305.7,514.4l-0.5,0l0-0.2l0.5,0
														L305.7,514.4z M304.2,514.5l-0.5,0l0-0.2l0.5,0L304.2,514.5z M302.8,514.6l-0.5,0l0-0.2l0.5,0L302.8,514.6z
														 M301.3,514.7l-0.5,0l0-0.2l0.5,0L301.3,514.7z M299.9,514.8l-0.5,0l0-0.2l0.5,0L299.9,514.8z M298.4,514.9l-0.5,0
														l0-0.2l0.5,0L298.4,514.9z M297,515l-0.5,0l0-0.2l0.5,0L297,515z M295.5,515.1l-0.5,0l0-0.2l0.5,0L295.5,515.1z
														 M294.1,515.2l-0.5,0l0-0.2l0.5,0L294.1,515.2z M292.6,515.3l-0.5,0l0-0.2l0.5,0L292.6,515.3z M291.2,515.4l-0.5,0
														l0-0.2l0.5,0L291.2,515.4z M289.7,515.5l-0.5,0l0-0.2l0.5,0L289.7,515.5z M288.3,515.6l-0.5,0l0-0.2l0.5,0L288.3,515.6
														z M286.8,515.7l-0.5,0l0-0.2l0.5,0L286.8,515.7z"/>
												</g>
											</g>
											<g id="XMLID_3809_">
												<g id="XMLID_3810_">
													
														<rect id="XMLID_3811_" x="308.1" y="514" transform="matrix(0.9975 -7.105733e-02 7.105733e-02 0.9975 -35.7505 23.2011)" class="st9" width="0.2" height="0.2"/>
												</g>
											</g>
										</g>
										<g id="XMLID_3762_">
											<g id="XMLID_3763_">
												<path id="XMLID_3765_" class="st9" d="M310.1,557.7l-0.5,0l0-0.2l0.5,0L310.1,557.7z M308.7,557.8l-0.5,0l0-0.2l0.5,0
													L308.7,557.8z M307.3,557.9l-0.5,0l0-0.2l0.5,0L307.3,557.9z M305.8,558l-0.5,0l0-0.2l0.5,0L305.8,558z M304.4,558.1
													l-0.5,0l0-0.2l0.5,0L304.4,558.1z M303,558.2l-0.5,0l0-0.2l0.5,0L303,558.2z M301.6,558.3l-0.5,0l0-0.2l0.5,0
													L301.6,558.3z M300.2,558.4l-0.5,0l0-0.2l0.5,0L300.2,558.4z M298.8,558.5l-0.5,0l0-0.2l0.5,0L298.8,558.5z
													 M297.4,558.6l0.6,0l0-0.2l-0.6,0L297.4,558.6z M297,558.7l-0.5,0l0-0.2l0.5,0L297,558.7z M295.6,558.8l-0.5,0l0-0.2
													l0.5,0L295.6,558.8z M294.2,558.9l-0.5,0l0-0.2l0.5,0L294.2,558.9z M292.8,559l-0.5,0l0-0.2l0.5,0L292.8,559z
													 M291.4,559.1l-0.5,0l0-0.2l0.5,0L291.4,559.1z M290,559.2l-0.5,0l0-0.2l0.5,0L290,559.2z M288.6,559.3l-0.5,0l0-0.2
													l0.5,0L288.6,559.3z M287.1,559.4l-0.5,0l0-0.2l0.5,0L287.1,559.4z M285.7,559.5l-0.5,0l0-0.2l0.5,0L285.7,559.5z
													 M284.3,559.6l-0.1,0l0-0.2l0.1,0L284.3,559.6z"/>
											</g>
										</g>
									</g>
									<path id="XMLID_3760_" class="st10" d="M310,557l-2-42.6c0-0.5-0.4-0.8-0.9-1l0-0.4l-65.8,4.6c-0.9,0.1-1.5,0.8-1.5,1.7
										l4.1,42.6c0.1,0.9,0.8,1.5,1.7,1.5l63.6-4.7l0-0.4C309.7,557.9,310.1,557.4,310,557z"/>
								</g>
							</g>
							<path id="XMLID_3752_" class="st3" d="M211.1,439.5c-2.5-32.4-4.5-94.8-5-169.2c-0.2-32.7-0.6-62.8,7.1-89.4
								c13.4-46.1,43.9-102.3,42.3-114.1c-0.4-3.2-3.3-5.9-7.7-8.2l0,0c0,0-3-3-21.4-7.8c0,0,0,0,0,0c-1.4-0.4-2.9-0.8-4.3-1.3
								c0,0-21.5-7.8-26.1-9.7c-3.2-1.3-6.5-2.7-10-4.2l0.5,0.2c-2-0.8-4-1.7-5.8-2.4c-8.7-3.7-17.5-6.4-24.9-9.5
								c-7.8-3.5-15.3-7-20.1-9.6c-0.1-0.3-25.9-7.1-68.2-7.1c-40.7,0-74.4,6.8-74.5,7.2c-4.7,2.6-12.2,4.8-20,8.3
								c-7.4,3.2-16.2,7-24.9,10.7c-1.8,0.8-41.3,16.1-41.3,16.1c-1.5,0.4-2.9,0.8-4.3,1.3c0,0,0,0,0,0c-18.3,4.7-21.4,7.8-21.4,7.8
								l0,0c-4.4,2.4-7.3,5-7.7,8.2c-1.6,11.8,28.9,68,42.3,114.1c7.7,26.6,7.4,56.7,7.1,89.4c-0.5,74.4-2.5,136.8-5,169.2
								c-2.7,34.8-10.8,110-10.8,110c-0.2-0.1-4,36.2-4,36.2s2.7,5.9,59.1,15.2c36.3,6,73.3,7.5,94.9,7.8
								c14.9,0.7,62.7-0.1,109.5-7.8c56.4-9.3,59.1-15.2,59.1-15.2s-3.8-36.3-4-36.2C222,549.5,213.8,474.4,211.1,439.5z"/>
							<g id="XMLID_3749_">
								<path id="XMLID_3751_" class="st4" d="M-92.7,155c0,0,14.1,10.8,16.5,43.5c2.5,32.6,0,52.4,0,52.4s0.6-26.7-5-57.8
									C-86.9,162.1-92.7,155-92.7,155z"/>
								<path id="XMLID_3750_" class="st5" d="M-92.7,155c0,0,8.8,15.8,11.8,27.9c3,12.1,4.1,46.1,4.1,46.1s-1-27.7-7.1-48.1
									C-90.2,160.5-92.7,155-92.7,155z"/>
							</g>
							<g id="XMLID_3746_">
								<path id="XMLID_3748_" class="st4" d="M222.2,155c0,0-14.1,10.8-16.5,43.5c-2.5,32.6,0,52.4,0,52.4s-0.6-26.7,5-57.8
									S222.2,155,222.2,155z"/>
								<path id="XMLID_3747_" class="st5" d="M222.2,155c0,0-8.8,15.8-11.8,27.9c-3,12.1-4.1,46.1-4.1,46.1s1-27.7,7.1-48.1
									S222.2,155,222.2,155z"/>
							</g>
						</g>
						<g id="XMLID_3559_">
							<polygon id="XMLID_3744_" class="st4" points="44.5,607.8 52.1,607.8 52.1,47.6 44.5,50.4 							"/>
							<polygon id="XMLID_3743_" class="st5" points="47,607.8 54.5,607.8 57.1,44 47,47.6 							"/>
							<path id="XMLID_3742_" class="st3" d="M83.7,62.4c-1.1-7.1-14.9,5.5-14.9,5.5s-7.4,3.9-17.3,4.5l-2.3,11.2V85v57.4v465.6
								c0,1.1,0.9,2,2,2h30.4c1.1,0,2-0.9,2-2v-527v4.6v-2.1V62.4z"/>
							<polyline id="XMLID_3741_" class="st3" points="79.5,60.4 55.3,60.4 49.3,60.1 49.3,134.5 							"/>
							<polyline id="XMLID_3740_" class="st11" points="-121.7,81.1 66.5,36 251,81.1 							"/>
							<g id="XMLID_3725_">
								<circle id="XMLID_3739_" class="st4" cx="65.9" cy="182.9" r="6.1"/>
								<circle id="XMLID_3738_" class="st12" cx="66" cy="182.6" r="5.9"/>
								<polygon id="XMLID_3736_" class="st13" points="65.8,191.5 67.3,183 66.1,173.4 63.6,182.8 								"/>
								<circle id="XMLID_3735_" class="st14" cx="65.9" cy="181.8" r="5.9"/>
								<circle id="XMLID_3734_" class="st15" cx="65.9" cy="181.8" r="5.1"/>
								<circle id="XMLID_3733_" class="st7" cx="64.1" cy="180.6" r="0.9"/>
								<circle id="XMLID_3732_" class="st7" cx="67.9" cy="180.7" r="0.9"/>
								<circle id="XMLID_3731_" class="st7" cx="64.1" cy="183.9" r="0.9"/>
								<circle id="XMLID_3730_" class="st7" cx="67.9" cy="184" r="0.9"/>
								<line id="XMLID_3729_" class="st16" x1="64.2" y1="180.9" x2="68" y2="180.9"/>
								<line id="XMLID_3728_" class="st16" x1="64.2" y1="180.3" x2="68" y2="180.3"/>
								<line id="XMLID_3727_" class="st16" x1="64.1" y1="184.3" x2="67.9" y2="184.3"/>
								<line id="XMLID_3726_" class="st16" x1="64.1" y1="183.7" x2="67.9" y2="183.8"/>
							</g>
							<g id="XMLID_3711_">
								<circle id="XMLID_3724_" class="st4" cx="65.9" cy="277" r="6.1"/>
								<circle id="XMLID_3723_" class="st12" cx="66" cy="276.8" r="5.9"/>
								<polygon id="XMLID_3722_" class="st13" points="65.8,285.6 67.3,277.2 66.1,267.6 63.6,277 								"/>
								<circle id="XMLID_3721_" class="st14" cx="65.9" cy="276" r="5.9"/>
								<circle id="XMLID_3720_" class="st15" cx="65.9" cy="276" r="5.1"/>
								<circle id="XMLID_3719_" class="st7" cx="64.1" cy="274.7" r="0.9"/>
								<circle id="XMLID_3718_" class="st7" cx="67.9" cy="274.8" r="0.9"/>
								<circle id="XMLID_3717_" class="st7" cx="64.1" cy="278.1" r="0.9"/>
								<circle id="XMLID_3716_" class="st7" cx="67.9" cy="278.1" r="0.9"/>
								<line id="XMLID_3715_" class="st16" x1="64.2" y1="275" x2="68" y2="275.1"/>
								<line id="XMLID_3714_" class="st16" x1="64.2" y1="274.4" x2="68" y2="274.5"/>
								<line id="XMLID_3713_" class="st16" x1="64.1" y1="278.4" x2="67.9" y2="278.5"/>
								<line id="XMLID_3712_" class="st16" x1="64.1" y1="277.9" x2="67.9" y2="277.9"/>
							</g>
							<g id="XMLID_3697_">
								<circle id="XMLID_3710_" class="st4" cx="65.9" cy="371.2" r="6.1"/>
								<circle id="XMLID_3709_" class="st12" cx="66" cy="370.9" r="5.9"/>
								<polygon id="XMLID_3708_" class="st13" points="65.8,379.7 67.3,371.3 66.1,361.7 63.6,371.1 								"/>
								<circle id="XMLID_3707_" class="st14" cx="65.9" cy="370.1" r="5.9"/>
								<circle id="XMLID_3706_" class="st15" cx="65.9" cy="370.1" r="5.1"/>
								<circle id="XMLID_3705_" class="st7" cx="64.1" cy="368.9" r="0.9"/>
								<circle id="XMLID_3704_" class="st7" cx="67.9" cy="368.9" r="0.9"/>
								<circle id="XMLID_3703_" class="st7" cx="64.1" cy="372.2" r="0.9"/>
								<circle id="XMLID_3702_" class="st7" cx="67.9" cy="372.3" r="0.9"/>
								<line id="XMLID_3701_" class="st16" x1="64.2" y1="369.1" x2="68" y2="369.2"/>
								<line id="XMLID_3700_" class="st16" x1="64.2" y1="368.6" x2="68" y2="368.6"/>
								<line id="XMLID_3699_" class="st16" x1="64.1" y1="372.6" x2="67.9" y2="372.6"/>
								<line id="XMLID_3698_" class="st16" x1="64.1" y1="372" x2="67.9" y2="372"/>
							</g>
							<g id="XMLID_3602_">
								<circle id="XMLID_3696_" class="st4" cx="65.9" cy="465.3" r="6.1"/>
								<circle id="XMLID_3695_" class="st12" cx="66" cy="465.1" r="5.9"/>
								<polygon id="XMLID_3694_" class="st13" points="65.8,473.9 67.3,465.5 66.1,455.9 63.6,465.3 								"/>
								<circle id="XMLID_3693_" class="st14" cx="65.9" cy="464.3" r="5.9"/>
								<circle id="XMLID_3692_" class="st15" cx="65.9" cy="464.3" r="5.1"/>
								<circle id="XMLID_3691_" class="st7" cx="64.1" cy="463" r="0.9"/>
								<circle id="XMLID_3690_" class="st7" cx="67.9" cy="463.1" r="0.9"/>
								<circle id="XMLID_3613_" class="st7" cx="64.1" cy="466.4" r="0.9"/>
								<circle id="XMLID_3612_" class="st7" cx="67.9" cy="466.4" r="0.9"/>
								<line id="XMLID_3611_" class="st16" x1="64.2" y1="463.3" x2="68" y2="463.3"/>
								<line id="XMLID_3610_" class="st16" x1="64.2" y1="462.7" x2="68" y2="462.8"/>
								<line id="XMLID_3609_" class="st16" x1="64.1" y1="466.7" x2="67.9" y2="466.8"/>
								<line id="XMLID_3608_" class="st16" x1="64.1" y1="466.1" x2="67.9" y2="466.2"/>
							</g>
							<g id="XMLID_3588_">
								<circle id="XMLID_3601_" class="st4" cx="65.9" cy="559.5" r="6.1"/>
								<circle id="XMLID_3600_" class="st12" cx="66" cy="559.2" r="5.9"/>
								<polygon id="XMLID_3599_" class="st13" points="65.8,568 67.3,559.6 66.1,550 63.6,559.4 								"/>
								<circle id="XMLID_3598_" class="st14" cx="65.9" cy="558.4" r="5.9"/>
								<circle id="XMLID_3597_" class="st15" cx="65.9" cy="558.4" r="5.1"/>
								<circle id="XMLID_3596_" class="st7" cx="64.1" cy="557.2" r="0.9"/>
								<circle id="XMLID_3595_" class="st7" cx="67.9" cy="557.2" r="0.9"/>
								<circle id="XMLID_3594_" class="st7" cx="64.1" cy="560.5" r="0.9"/>
								<circle id="XMLID_3593_" class="st7" cx="67.9" cy="560.6" r="0.9"/>
								<line id="XMLID_3592_" class="st16" x1="64.2" y1="557.4" x2="68" y2="557.5"/>
								<line id="XMLID_3591_" class="st16" x1="64.2" y1="556.8" x2="68" y2="556.9"/>
								<line id="XMLID_3590_" class="st16" x1="64.1" y1="560.9" x2="67.9" y2="560.9"/>
								<line id="XMLID_3589_" class="st16" x1="64.1" y1="560.3" x2="67.9" y2="560.3"/>
							</g>
							<g id="XMLID_3563_">
								<polygon id="XMLID_3587_" class="st13" points="65.9,98.3 67.5,92.9 66.1,88.3 64.2,92.9 								"/>
								<ellipse id="XMLID_3586_" class="st4" cx="65.9" cy="93.7" rx="6.1" ry="4"/>
								<ellipse id="XMLID_3585_" class="st12" cx="66" cy="93.5" rx="5.9" ry="3.8"/>
								<path id="XMLID_3584_" class="st14" d="M68.2,96.4c3.1-0.8,4.6-3.2,3.3-5.3c-1.3-2.1-4.8-3.1-7.9-2.2
									c-3.1,0.8-4.6,3.2-3.3,5.3S65.1,97.2,68.2,96.4z"/>
								<g id="XMLID_3577_">
									<path class="st6" d="M67.9,95.8c2.6-0.7,3.9-2.7,2.8-4.5c-1.1-1.8-4.1-2.6-6.7-1.9c-2.6,0.7-3.9,2.7-2.8,4.5
										C62.2,95.7,65.2,96.5,67.9,95.8z"/>
									<path class="st17" d="M67.8,95.7c0,0,0.1,0,0.3-0.1c0.2-0.1,0.5-0.2,0.8-0.3c0.3-0.2,0.7-0.4,1.1-0.8
										c0.3-0.4,0.7-0.8,0.8-1.4c0.1-0.6-0.1-1.2-0.5-1.7c-0.4-0.5-1-0.8-1.7-1.1c-0.7-0.2-1.4-0.3-2.2-0.4
										c-0.7,0-1.5,0.1-2.2,0.3c-0.1,0-0.4,0.1-0.6,0.2c-0.2,0.1-0.3,0.1-0.5,0.2c-0.3,0.2-0.6,0.3-0.9,0.5
										c-0.5,0.4-0.9,0.9-0.9,1.5c0,0.3,0,0.6,0.2,0.9c0,0.1,0.2,0.3,0.3,0.4c0.1,0.1,0.2,0.2,0.3,0.4c0.5,0.5,1,0.8,1.6,1.1
										c0.6,0.3,1.1,0.4,1.6,0.4c0.5,0.1,1,0.1,1.3,0c0.4,0,0.7-0.1,0.8-0.1C67.7,95.8,67.8,95.7,67.8,95.7z M67.9,95.8
										c0,0-0.1,0-0.3,0.1C67.4,96,67.1,96,66.7,96c-0.7,0.1-1.8,0.1-3.1-0.3c-0.6-0.2-1.3-0.5-1.8-1c-0.6-0.5-1.1-1.2-1.1-2
										c-0.1-0.8,0.4-1.7,1-2.2c0.6-0.6,1.4-1,2.3-1.2c1.7-0.4,3.5-0.3,5,0.4c0.7,0.3,1.4,0.8,1.8,1.5c0.4,0.6,0.6,1.4,0.4,2
										c-0.2,0.6-0.6,1.1-0.9,1.5c-0.4,0.3-0.8,0.6-1.1,0.7c-0.3,0.2-0.6,0.3-0.8,0.3C68,95.8,67.9,95.8,67.9,95.8z"/>
								</g>
								<path id="XMLID_3576_" class="st7" d="M63.2,91.9c0,0.3,0.4,0.5,0.9,0.5c0.5,0,0.9-0.2,0.9-0.5c0-0.3-0.4-0.5-0.9-0.5
									C63.6,91.4,63.1,91.6,63.2,91.9z"/>
								<path id="XMLID_3575_" class="st7" d="M67,91.9c0,0.3,0.4,0.5,0.9,0.5c0.5,0,0.9-0.2,0.9-0.5c0-0.3-0.4-0.5-0.9-0.5
									C67.4,91.4,67,91.7,67,91.9z"/>
								<path id="XMLID_3574_" class="st7" d="M63.1,94.4c0,0.3,0.4,0.5,0.9,0.5c0.5,0,0.9-0.2,0.9-0.5c0-0.3-0.4-0.5-0.9-0.5
									C63.5,93.9,63.1,94.1,63.1,94.4z"/>
								<path id="XMLID_3573_" class="st7" d="M67,94.4c0,0.3,0.4,0.5,0.9,0.5c0.5,0,0.9-0.2,0.9-0.5c0-0.3-0.4-0.5-0.9-0.5
									C67.4,93.9,66.9,94.2,67,94.4z"/>
								<line id="XMLID_3572_" class="st18" x1="64.2" y1="92" x2="68" y2="92.1"/>
								<line id="XMLID_3571_" class="st18" x1="64.2" y1="91.7" x2="68" y2="91.7"/>
								<line id="XMLID_3565_" class="st18" x1="64.1" y1="94.6" x2="67.9" y2="94.6"/>
								<line id="XMLID_3564_" class="st18" x1="64.1" y1="94.3" x2="67.9" y2="94.3"/>
							</g>
							<g id="XMLID_3560_">
								<rect id="XMLID_3562_" x="48.3" y="81.4" class="st4" width="35.4" height="12.2"/>
								<rect id="XMLID_3561_" x="48.3" y="57.6" class="st5" width="35.4" height="33.5"/>
							</g>
						</g>
					</g>
					<g id="XMLID_3538_">
						<path id="XMLID_3557_" class="st5" d="M-2.3,108.4c0,0,48-7.8,67.2-27c0,0,12.1,14.8,66.7,27L63.2,62.1L-2.3,108.4z"/>
						<path id="XMLID_3556_" class="st3" d="M138.5-5.3c-0.5-9.8,2.6-34.6-49.2-34.6H67.4h-5.5H40C-11.8-39.9-8.6-15-9.2-5.3
							c-0.5,9.8-0.3,26.4,3.4,59.7c2.8,25.4,1.3,44.1,0.5,51.5c-0.2,1.7,1.4,3,3,2.5c6.8-2.1,22.4-7,34.1-12.2
							c14.5-6.5,31-17,32.9-18.1c1.8,1.2,18.4,11.6,32.9,18.1c11.6,5.2,27.2,10.1,34.1,12.2c1.6,0.5,3.2-0.8,3-2.5
							c-0.9-7.4-2.3-26,0.5-51.5C138.7,21.2,139,4.5,138.5-5.3z"/>
						<path id="XMLID_3555_" class="st3" d="M92.3-36.7C82.5-37,72.6-37.1,64.7-37c-7.9-0.1-17.9,0-27.6,0.3
							C15.7-36-20.5-31.2,1.9,4.6c22.4,35.8,62.8,70.6,62.8,70.6S105,40.4,127.4,4.6C149.8-31.2,113.6-36,92.3-36.7z"/>
						<g id="XMLID_3548_">
							<path id="XMLID_3554_" class="st19" d="M116.7-17.8c-3.7,10-3.7,13.2-3.7,13.2s6,7.8,7.7-0.8c1-5.4,3.5-17,3.2-25.1
								c-2-1.1-4.3-1.9-6.6-2.7C118.2-29,118.7-23.2,116.7-17.8z"/>
							<path id="XMLID_3553_" class="st20" d="M117.8-2.6c-5,3.2,0,7.7,0,7.7s4,3.4,8.4-5.4c3.6-7.2,6.1-16.5,5.4-24
								c-2-2.8-4.8-4.9-8.2-6.6C122.8-21.6,121.4-4.9,117.8-2.6z"/>
							<path id="XMLID_3552_" class="st21" d="M129.2-27c0.8,4.3,1,9.1-0.9,12.2c-4.2,7-5.5,16.5-5.5,16.5l1.5,7.7
								c1.1-1.6,2.1-3.2,3.2-4.9C137.3-11.2,135.8-20.9,129.2-27z"/>
						</g>
						<g id="XMLID_3544_">
							<path id="XMLID_3547_" class="st19" d="M12.6-17.8c3.7,10,3.7,13.2,3.7,13.2s-6,7.8-7.7-0.8c-1-5.4-3.5-17-3.2-25.1
								c2-1.1,4.3-1.9,6.6-2.7C11.1-29,10.6-23.2,12.6-17.8z"/>
							<path id="XMLID_3546_" class="st20" d="M11.5-2.6c5,3.2,0,7.7,0,7.7s-4,3.4-8.4-5.4c-3.6-7.2-6.1-16.5-5.4-24
								c2-2.8,4.8-4.9,8.2-6.6C6.5-21.6,8-4.9,11.5-2.6z"/>
							<path id="XMLID_3545_" class="st21" d="M0.1-27c-0.8,4.3-1,9.1,0.9,12.2c4.2,7,5.5,16.5,5.5,16.5L5,9.5
								C4,7.9,2.9,6.2,1.9,4.6C-8-11.2-6.5-20.9,0.1-27z"/>
						</g>
						<path id="XMLID_3543_" class="st10" d="M16.7-9.9c15.3-0.3,32.3,3.8,50.6,4c18.4,0.3,42.9-4,50.3-4c12.6,0,8.8,16,8.8,16
							c0.3-0.5,0.6-1,0.9-1.5c22.4-35.8-13.8-40.6-35.1-41.3C82.5-37,72.6-37.1,64.7-37c-7.9-0.1-17.9,0-27.6,0.3
							C15.7-36-20.5-31.2,1.9,4.6c0.3,0.5,0.6,1,0.9,1.5C2.8,6.1,1.4-9.6,16.7-9.9z"/>
						<path id="XMLID_3542_" class="st10" d="M2.8,6.1c0,0-1.4-15.7,13.9-16c15.3-0.3,32.3,3.8,50.6,4s42.9-4,50.3-4
							c12.6,0,8.8,16,8.8,16"/>
						<path id="XMLID_3541_" class="st11" d="M-1-0.3c0,0-1.5-15.7,14.8-16c16.2-0.3,99.2,0,107.1,0c13.4,0,9.3,16,9.3,16"/>
						<path id="XMLID_3540_" class="st22" d="M64.7,75.2c0,0,39.3-33.8,61.8-69.1c0,0,3.8-16-8.8-16c-7.4,0-85.6-0.3-101,0
							C1.4-9.6,2.8,6.1,2.8,6.1C25.4,41.4,64.7,75.2,64.7,75.2z"/>
						<path id="XMLID_3539_" class="st21" d="M2.8,6.1c22.6,35.3,61.8,69.1,61.8,69.1s39.3-33.8,61.8-69.1L64.7,71.9L2.8,6.1z"/>
						<path id="XMLID_3551_" class="st20" d="M2.8,6.1c0,0,6.8,9.8,17.3,21.4c17.3,19.2,42.1,44.4,44.6,44.4
							c2.1,0,45.1-41.3,61.8-65.8l0,0c0,0-57.4,61.6-61.8,61.6C60.2,67.6,2.8,6.1,2.8,6.1z"/>
						<path id="XMLID_3550_" class="st23" d="M-9,16.9c0,0,5.2,44.6,5.6,58.3c0.3,11.2-1,30.9-0.8,31.6c0.9,3,30.7-8.4,46.1-16.5
							c15.1-8,22.6-13.2,22.6-13.2"/>
						<path id="XMLID_3549_" class="st23" d="M138.3,16.9c0,0-5.2,44.6-5.6,58.3c-0.3,11.2,1,30.9,0.8,31.6
							c-0.9,3-30.7-8.4-46.1-16.5c-15.1-8-22.6-13.2-22.6-13.2"/>
					</g>
				</g>
				<g id="XMLID_3532_">
					<path id="XMLID_3535_" class="st3" d="M127.5,141.7v55c0,6.3,4.8,11.4,10.7,11.4h45.8c5.7,0,10.4-5,10.4-11.1v-55.3H127.5z"/>
					<path id="XMLID_3534_" class="st11" d="M130,141.7v53.4c0,5.9,4.4,10.8,9.9,10.8h42.3c5.5,0,9.9-4.8,9.9-10.8v-53.4"/>
					<line id="XMLID_3533_" class="st11" x1="192" y1="153" x2="130" y2="153"/>
				</g>
			</g>
		</g>
	</g>
	<g id="XMLID_1_" class="st0">
		<defs>
			<rect id="XMLID_4932_" x="-13.5" width="327.1" height="300"/>
		</defs>
		<clipPath id="XMLID_8_">
			<use xlink:href="#XMLID_4932_"  style="overflow:visible;"/>
		</clipPath>
	</g>
	<g class="st0">
		<path class="st24" d="M150.1,4.6c38.7,0,75.1,15.1,102.5,42.5c27.4,27.4,42.5,63.8,42.5,102.5s-15.1,75.1-42.5,102.5
			c-27.4,27.4-63.8,42.5-102.5,42.5S75,279.5,47.6,252.1C20.2,224.7,5.1,188.3,5.1,149.6S20.2,74.5,47.6,47.1
			C75,19.7,111.4,4.6,150.1,4.6 M150.1-0.4c-82.8,0-150,67.2-150,150s67.2,150,150,150s150-67.2,150-150S232.9-0.4,150.1-0.4
			L150.1-0.4z"/>
	</g>
</g>
</svg>
