<?xml version="1.0" encoding="utf-8"?>
<!-- Generator: Adobe Illustrator 19.0.0, SVG Export Plug-In . SVG Version: 6.00 Build 0)  -->
<svg version="1.1" id="Layer_1" xmlns="http://www.w3.org/2000/svg" xmlns:xlink="http://www.w3.org/1999/xlink" x="0px" y="0px"
	 viewBox="0 0 300 300" style="enable-background:new 0 0 300 300;" xml:space="preserve">
<style type="text/css">
	.st0{clip-path:url(#SVGID_2_);}
	.st1{fill:#9AA0BB;}
	.st2{fill:#F1F1F2;stroke:#404041;stroke-miterlimit:10;}
	.st3{fill:#FFFFFF;stroke:#404041;stroke-miterlimit:10;}
	.st4{fill:#929497;}
	.st5{fill:#F1F1F2;}
	.st6{fill:#C5C7C9;}
	.st7{fill:none;stroke:#404041;stroke-miterlimit:10;}
	.st8{fill:none;stroke:#808184;stroke-width:0.5;stroke-miterlimit:10;}
	.st9{fill:none;stroke:#808184;stroke-width:0.5;stroke-miterlimit:10;stroke-dasharray:0.9936,1.9872;}
	.st10{fill:none;stroke:#808184;stroke-width:0.5;stroke-miterlimit:10;stroke-dasharray:1.0089,2.0179;}
	.st11{fill:none;stroke:#808184;stroke-width:0.5;stroke-miterlimit:10;stroke-dasharray:0.9901,1.9803;}
	.st12{fill:none;stroke:#808184;stroke-width:0.5;stroke-miterlimit:10;stroke-dasharray:1,2;}
	.st13{fill:#DBDCDD;}
	.st14{fill:#404041;stroke:#D0D2D3;stroke-width:0.5;stroke-miterlimit:10;}
	.st15{fill:#FFFFFF;stroke:#6D6E70;stroke-miterlimit:10;}
	.st16{fill:#FFFFFF;stroke:#929497;stroke-width:0.25;stroke-miterlimit:10;}
	.st17{fill:#404041;}
	.st18{fill:none;stroke:#6D6E70;stroke-width:0.5;stroke-miterlimit:10;}
	.st19{fill:none;stroke:#808184;stroke-width:0.5;stroke-miterlimit:10;stroke-dasharray:0.9891,1.9781;}
	.st20{fill:#FFFFFF;stroke:#6D6E70;stroke-width:0.5;stroke-miterlimit:10;}
	.st21{fill:none;stroke:#6D6E70;stroke-width:0.25;stroke-miterlimit:10;}
</style>
<g>
	<defs>
		<circle id="SVGID_1_" cx="150.1" cy="149.6" r="150"/>
	</defs>
	<use xlink:href="#SVGID_1_"  style="overflow:visible;fill:#DDDDDD;"/>
	<clipPath id="SVGID_2_">
		<use xlink:href="#SVGID_1_"  style="overflow:visible;"/>
	</clipPath>
	<g id="XMLID_1_" class="st0">
		<defs>
			<rect id="XMLID_4932_" x="-13.5" width="327.1" height="300"/>
		</defs>
		<clipPath id="XMLID_8_">
			<use xlink:href="#XMLID_4932_"  style="overflow:visible;"/>
		</clipPath>
	</g>
	<g class="st0">
		<path class="st1" d="M150.1,4.6c38.7,0,75.1,15.1,102.5,42.5c27.4,27.4,42.5,63.8,42.5,102.5s-15.1,75.1-42.5,102.5
			c-27.4,27.4-63.8,42.5-102.5,42.5S75,279.5,47.6,252.1C20.2,224.7,5.1,188.3,5.1,149.6S20.2,74.5,47.6,47.1
			C75,19.7,111.4,4.6,150.1,4.6 M150.1-0.4c-82.8,0-150,67.2-150,150s67.2,150,150,150s150-67.2,150-150S232.9-0.4,150.1-0.4
			L150.1-0.4z"/>
	</g>
	<g id="XMLID_21342_" class="st0">
		<g id="XMLID_21344_">
			<g id="XMLID_21453_">
				<g id="XMLID_21525_">
					<polygon id="XMLID_21548_" class="st2" points="163.1,38.2 168.4,44.1 150,140.4 131.5,44.1 136.6,38.2 					"/>
					<path id="XMLID_21547_" class="st3" d="M163.3,35.3c0,0,0.1-0.3-13.3-0.3c0,0-0.1,0-0.1,0c0,0-0.1,0-0.1,0
						c-13.4,0-13.3,0.3-13.3,0.3l-1.6,5.8c0,0,2.2,0.5,7.5,0.8c2,0.1,4.7,0.1,7.7,0.1c3,0,5.4-0.1,7.5-0.1c5.3-0.2,7.5-0.8,7.5-0.8
						L163.3,35.3z"/>
					<g id="XMLID_21543_">
						<path id="XMLID_21546_" class="st4" d="M138.8,35.2c0,0-1.4,1.5-1.3,3.5c0.1,2,0.2,2.6,0.2,2.6h-2.9l1.6-6L138.8,35.2z"/>
						<path id="XMLID_21545_" class="st5" d="M139.4,35.2c-0.4,0-0.7,0-1,0c-0.8,1.3-0.8,5-0.8,6.3c0.4,0,0.9,0.1,1.4,0.1
							c-0.1-0.4-0.2-1.2-0.2-2.7C138.9,37.1,139.2,35.7,139.4,35.2z"/>
						<path id="XMLID_21544_" class="st6" d="M138.5,35.2c-0.2,0-0.4,0-0.5,0c-0.3,0.3-0.6,0.7-0.7,1.6c-0.2,1.6-0.2,3.7-0.3,4.7
							c0.4,0,0.9,0.1,1.4,0.1C138.2,40.2,137.7,36.4,138.5,35.2z"/>
					</g>
					<g id="XMLID_21539_">
						<path id="XMLID_21542_" class="st4" d="M160.8,35.2c0,0,1.4,1.5,1.3,3.5c-0.1,2-0.2,2.6-0.2,2.6h3.1l-1.7-6L160.8,35.2z"/>
						<path id="XMLID_21541_" class="st5" d="M160.2,35.2c0.4,0,0.7,0,1,0c0.8,1.3,0.8,5,0.8,6.3c-0.4,0-0.9,0.1-1.4,0.1
							c0.1-0.4,0.2-1.2,0.2-2.7C160.7,37.1,160.4,35.7,160.2,35.2z"/>
						<path id="XMLID_21540_" class="st6" d="M161.1,35.2c0.2,0,0.4,0,0.5,0c0.3,0.3,0.6,0.7,0.7,1.6c0.2,1.6,0.2,3.7,0.3,4.7
							c-0.4,0-0.9,0.1-1.4,0.1C161.4,40.2,161.8,36.4,161.1,35.2z"/>
					</g>
					<path id="XMLID_21538_" class="st7" d="M163.3,35.3c0,0,0.1-0.3-13.3-0.3c0,0-0.1,0-0.1,0c0,0-0.1,0-0.1,0
						c-13.4,0-13.3,0.3-13.3,0.3l-1.6,5.8c0,0,2.2,0.5,7.5,0.8c2,0.1,4.7,0.1,7.7,0.1c3,0,5.4-0.1,7.5-0.1c5.3-0.2,7.5-0.8,7.5-0.8
						L163.3,35.3z"/>
					<g id="XMLID_21535_">
						<polygon id="XMLID_21537_" class="st4" points="137.3,53.5 150,116.7 162.3,53.5 154.2,123.8 149.5,143.9 145.8,123.1 						
							"/>
						<polygon id="XMLID_21536_" class="st6" points="149.8,124.4 162.6,50.8 150,108.8 137,50.8 						"/>
					</g>
					<g id="XMLID_21529_">
						<g>
							<line class="st8" x1="149.9" y1="42.8" x2="149.9" y2="43.3"/>
							<line class="st9" x1="149.9" y1="45.3" x2="149.9" y2="124.8"/>
							<line class="st8" x1="149.9" y1="125.8" x2="149.9" y2="126.3"/>
						</g>
					</g>
					<path id="XMLID_21528_" class="st4" d="M143,44.3l0.5,0.5c0,0,3.5-0.3,6.4-0.3s6.6,0.3,6.6,0.3l0.3-0.5H143z"/>
					<path id="XMLID_21527_" class="st6" d="M143.4,44.7l0.4,0.4c0,0,3.3-0.2,6.2-0.2c2.9,0,6.5,0.2,6.5,0.2l0.2-0.4l-6.7-0.1
						L143.4,44.7z"/>
					<path id="XMLID_21526_" class="st3" d="M150,42c-3.1,0-5.6,0-7.6-0.1l0.9,2.3h6.7h0.1h6.7l0.9-2.3C155.6,42,153,42,150,42z"/>
				</g>
				<path id="XMLID_21524_" class="st2" d="M156.7,253.6c0-0.4,0-13.5,0-13.5h-13.6v13.5H156.7z"/>
				<g id="XMLID_21521_">
					<polygon id="XMLID_21523_" class="st4" points="150.1,245.1 144.8,256.9 149.9,238.1 155.3,257.1 					"/>
					<polygon id="XMLID_21522_" class="st6" points="149.9,247.5 144.8,256.9 149.9,243.5 155.3,257.1 					"/>
				</g>
				<path id="XMLID_21519_" class="st3" d="M157.2,174.1c-1.2-28.1-2.6-20.6-2.6-20.6l-4.3-14.3c-2.9-14.5-6.5-42.5-7.2-47.4
					c-1.2-8-8.7-33.4-8.7-33.4c-2.4-15.4,2.2-23,2.2-23s-11.6,6.6-13.9,8.2c-1.2,0.8-11.9,5.5-21,9.7c-11,5.1-12.6,7.8-12.6,7.8
					c8.5,5.3,10.3,24.2,10.4,46.4c0.2,22.2-6,60.1-6.7,79.8c-0.8,20.5-5,70.7-5,70.7s36.5,9.3,46.5,6.6c10-2.7,10.8-8.3,12.7-13.5
					l2.9-10.3C150.1,240.7,158.4,202.2,157.2,174.1z"/>
				<g id="XMLID_21513_">
					<g>
						<line class="st8" x1="121.3" y1="129.8" x2="121.3" y2="130.3"/>
						<line class="st10" x1="121.3" y1="132.3" x2="121.3" y2="185.8"/>
						<line class="st8" x1="121.3" y1="186.8" x2="121.3" y2="187.3"/>
					</g>
				</g>
				<g id="XMLID_21503_">
					<path id="XMLID_21512_" class="st5" d="M125.8,189.3l0.7,9.5c0.3,5.4-2.2,7.1-4.9,7.1H92.3l0.1-2.5L125.8,189.3z"/>
					<path id="XMLID_21511_" class="st6" d="M125.8,189l0.3,7.8c0.3,5.4-1.5,8.4-4.6,8.4H92.3l0.1-2.5L125.8,189z"/>
					<path id="XMLID_21510_" class="st3" d="M125.8,191.3v-2.7H92.9l-0.8,16h28.8c3.8,0,4.9-4.5,4.9-8.3l0,0V191.3z"/>
					<g id="XMLID_21504_">
						<g>
							<line class="st8" x1="125.6" y1="190.3" x2="125.1" y2="190.3"/>
							<line class="st11" x1="123.1" y1="190.3" x2="94.4" y2="190.3"/>
							<line class="st8" x1="93.4" y1="190.3" x2="92.9" y2="190.3"/>
						</g>
					</g>
				</g>
				<g id="XMLID_21500_">
					<path id="XMLID_21502_" class="st5" d="M99.8,147.4c3.2-22,1.8-39.7-0.4-53.5c0.4,2.7,0.7,7.6,0.7,8.3
						c0.4,4.7,0.8,9.5,0.6,14.1c-0.1,9.8-0.8,20.9-2.6,33.2c-1.5,10.5-2.6,15.2-3.4,17c-0.2,1.5-0.3,2.9-0.5,4.4
						C96.3,170.7,97.7,161.6,99.8,147.4z"/>
					<path id="XMLID_21501_" class="st6" d="M97.8,138.5c-1,9.5-2.1,19.2-3,28c0.8-1.8,1.9-6.5,3.4-17c1.8-12.3,2.6-22.3,2.6-38.8
						l0,0c0.2-6-1.5-17-1.4-16.5C100.2,107.4,98.7,130.6,97.8,138.5z"/>
				</g>
				<path id="XMLID_21499_" class="st3" d="M99.6,107.4c-0.2-20.8-1.7-38.7-8.9-45.2l-1.5-0.9c0,0-2.3-0.8-4.7,10.6
					c-2.4,11.4-28.2,173.4-28.2,173.4s4.3,3.7,13.2,4.1c8.9,0.3,13.4-1.9,13.4-1.9l13.9-101.1C98.3,132.4,99.7,118.1,99.6,107.4z"/>
				<g id="XMLID_21496_">
					<path id="XMLID_21498_" class="st5" d="M152,130.5c0,0-10.1,23.9-10.1,57.9s11.2,58.6,11.2,58.6l-1.2-41.3l1.7-72.3L152,130.5z
						"/>
					<path id="XMLID_21497_" class="st6" d="M153.5,130.5c0,0-10.1,23.9-10.1,57.9s11.2,58.6,11.2,58.6l-1.2-41.3l1.7-72.3
						L153.5,130.5z"/>
				</g>
				<g id="XMLID_21458_">
					<path id="XMLID_21495_" class="st3" d="M200.4,107.4c0.2-22.2,1.9-41.1,10.4-46.4c0,0-1.5-2.7-12.6-7.8
						c-10.4-4.8-19.1-8.6-22.5-10.5c-0.2-0.1-0.4-0.2-0.6-0.3c-3-1.8-11.8-7-11.8-7s4.2,7.7,1.9,23c0,0-7.6,25.4-8.8,33.4
						s-5.2,50.3-6.3,56.6c-0.3,1.6-1.9,3.8-2.1,5.2c-0.5,3-0.9,5.6-1,6.6c-0.3,3.2-1.7,7.7-2,14.2c-1.2,28.1,5,66.3,5,66.3l3,10.4
						c2,5.2,2.6,10.7,12.6,13.4c10,2.7,45.2-6.6,45.2-6.6s-2.9-50.2-3.7-70.7C206.4,167.5,200.2,129.6,200.4,107.4z"/>
					<polygon id="XMLID_21494_" class="st5" points="194.6,109.6 194.6,108.3 162.8,109.2 162.8,110.5 					"/>
					<polygon id="XMLID_21493_" class="st6" points="194.6,110.2 194.6,108.8 162.8,109.7 162.8,111.1 					"/>
					<polygon id="XMLID_21492_" class="st3" points="194.5,109.4 194.5,117.2 163.1,117.9 163.1,110.3 					"/>
					<line id="XMLID_21491_" class="st12" x1="163.1" y1="110.6" x2="194.5" y2="109.7"/>
					<g id="XMLID_21485_">
						<g>
							<line class="st8" x1="178.7" y1="129.8" x2="178.7" y2="130.3"/>
							<line class="st10" x1="178.7" y1="132.3" x2="178.7" y2="185.8"/>
							<line class="st8" x1="178.7" y1="186.8" x2="178.7" y2="187.3"/>
						</g>
					</g>
					<g id="XMLID_9019_">
						<circle id="XMLID_9034_" class="st5" cx="151.2" cy="167.7" r="3.2"/>
						<circle id="XMLID_9033_" class="st13" cx="151.3" cy="167.5" r="3.1"/>
						<polygon id="XMLID_9032_" class="st14" points="155.2,167.4 151.3,166.7 147,167.4 151.4,168.2 						"/>
						<circle id="XMLID_9031_" class="st15" cx="151.2" cy="167.1" r="3.1"/>
						<circle id="XMLID_9030_" class="st16" cx="151.2" cy="167.1" r="2.7"/>
						<circle id="XMLID_9029_" class="st17" cx="150.7" cy="166.4" r="0.4"/>
						<circle id="XMLID_9028_" class="st17" cx="151.6" cy="168.3" r="0.4"/>
						<line id="XMLID_9027_" class="st18" x1="150.6" y1="166.4" x2="151.5" y2="168.3"/>
						<line id="XMLID_9026_" class="st18" x1="150.8" y1="166.3" x2="151.7" y2="168.2"/>
						<line id="XMLID_9025_" class="st18" x1="150.6" y1="166.4" x2="151.5" y2="168.3"/>
						<line id="XMLID_9024_" class="st18" x1="150.8" y1="166.3" x2="151.7" y2="168.2"/>
						<circle id="XMLID_9023_" class="st17" cx="150.2" cy="167.8" r="0.4"/>
						<circle id="XMLID_9022_" class="st17" cx="152.1" cy="166.9" r="0.4"/>
						<line id="XMLID_9021_" class="st18" x1="150.2" y1="168" x2="152.1" y2="167.1"/>
						<line id="XMLID_9020_" class="st18" x1="150.1" y1="167.7" x2="152" y2="166.8"/>
					</g>
					<g id="XMLID_21459_">
						<path id="XMLID_21468_" class="st5" d="M174.2,189.3l-0.7,9.5c-0.3,5.4,2.2,7.1,4.9,7.1h29.3l-0.1-2.5L174.2,189.3z"/>
						<path id="XMLID_21467_" class="st6" d="M174.2,189l-0.3,7.8c-0.3,5.4,1.5,8.4,4.6,8.4h29.2l-0.1-2.5L174.2,189z"/>
						<path id="XMLID_21466_" class="st3" d="M174.2,191.3v-2.7h32.9l0.8,16h-28.8c-3.8,0-4.9-4.5-4.9-8.3l0,0V191.3z"/>
						<g id="XMLID_21460_">
							<g>
								<line class="st8" x1="174.5" y1="190.3" x2="175" y2="190.3"/>
								<line class="st19" x1="177" y1="190.3" x2="205.6" y2="190.3"/>
								<line class="st8" x1="206.6" y1="190.3" x2="207.1" y2="190.3"/>
							</g>
						</g>
					</g>
				</g>
				<g id="XMLID_21455_">
					<path id="XMLID_21457_" class="st5" d="M200.2,147.4c-3.2-22-1.8-39.7,0.4-53.5c-0.4,2.7-0.7,7.6-0.7,8.3
						c-0.4,4.7-0.8,9.5-0.6,14.1c0.1,9.8,0.8,20.9,2.6,33.2c1.5,10.5,2.6,15.2,3.4,17c0.2,1.5,0.3,2.9,0.5,4.4
						C203.6,170.7,202.3,161.6,200.2,147.4z"/>
					<path id="XMLID_21456_" class="st6" d="M202.2,138.5c1,9.5,2.1,19.2,3,28c-0.8-1.8-1.9-6.5-3.4-17c-1.8-12.3-2.6-22.3-2.6-38.8
						l0,0c-0.2-6,1.5-17,1.4-16.5C199.7,107.4,201.3,130.6,202.2,138.5z"/>
				</g>
				<path id="XMLID_21454_" class="st3" d="M215.5,71.7c-2.4-11.4-4.7-10.6-4.7-10.6l0,0c-8.5,5.3-10.3,24.2-10.4,46.4
					c-0.1,10.3,1.2,24.1,2.7,37.8l14.1,102.1c0,0,4.5,2.2,13.4,1.9c8.9-0.3,13.2-4.1,13.2-4.1S217.9,83.1,215.5,71.7z"/>
			</g>
			<g id="XMLID_21434_">
				<g id="XMLID_21445_">
					<g id="XMLID_21448_">
						<path id="XMLID_21452_" class="st5" d="M113.6,66.9c0,0-1.8,1.3-1,3.3c0.8,2,26.3,66.8,30.8,75.7c1.5,3,3.4,7,5.2,10.9
							c1.4,3,2.4-3.6,2.4-3.6l-1.4-6.3L119,70.8L113.6,66.9z"/>
						<path id="XMLID_21451_" class="st6" d="M114.1,66.9c0,0-1.9,0.5-1.1,2.5c0.8,2,26.4,67.6,30.9,76.5c1.4,2.8,3.2,6.5,4.8,10.1
							c0.9,1.9,2.3-4.8,2.3-4.8l-1-4.3l-30.5-76.1L114.1,66.9z"/>
						<polygon id="XMLID_21450_" class="st5" points="124.9,45 119,66.5 119,67.3 120.2,69.7 129.7,73.6 132.1,73.7 125.3,50 						
							"/>
						<polygon id="XMLID_21449_" class="st6" points="124.9,45 119.6,66.7 119.6,67.5 121.4,72.2 129.5,76.3 133.7,73.7 126.8,50 
													"/>
					</g>
					<path id="XMLID_21447_" class="st3" d="M137.4,35.4c0,0-9.8,3.6-11.8,8.1c-2,4.5-5.5,23.6-5.5,23.6l10,4.6c0,0-15-5.9-16.5-4.7
						c-0.9,0.7-0.2,3,2.2,7.8c1.7,3.5,18.6,50.6,26.1,65.8c2.8,5.7,5.1,10.8,7,15.2c0.7,1.6,3.8-3.4,3.7-4.1
						c-0.3-1.8-0.7-1.8-1.1-4.2c-3-17.6-7.6-61.9-10.2-75.9c-3-15.9-5.5-24-5.5-28.7S137.4,35.4,137.4,35.4z"/>
					<line id="XMLID_21446_" class="st12" x1="138.8" y1="59" x2="130.1" y2="71.6"/>
				</g>
				<g id="XMLID_21442_">
					<polygon id="XMLID_21444_" class="st5" points="149.8,137.1 146.5,149.9 147.5,152.4 150.1,141.5 					"/>
					<polygon id="XMLID_21443_" class="st6" points="150.3,138.3 147,151 148,153.6 150.5,142.6 					"/>
				</g>
				<g id="XMLID_21437_">
					<path id="XMLID_21441_" class="st5" d="M186.5,66.9c0,0,1.8,1.3,1,3.3c-0.8,2-26.3,66.8-30.8,75.7c-4.5,8.9-11.5,25-11.5,25
						l5.3-24l30.5-76.1L186.5,66.9z"/>
					<path id="XMLID_21440_" class="st6" d="M186,66.9c0,0,1.9,0.5,1.1,2.5c-0.8,2-26.4,67.6-30.9,76.5
						c-4.5,8.9-11.2,24.6-11.2,24.6l5.1-23.7l30.5-76.1L186,66.9z"/>
					<polygon id="XMLID_21439_" class="st5" points="175.2,45 181.1,66.5 181.1,67.3 179.9,69.7 170.3,73.6 167.9,73.7 174.8,50 
											"/>
					<polygon id="XMLID_21438_" class="st6" points="175.2,45 180.5,66.7 180.5,67.5 178.7,72.2 170.6,76.3 166.4,73.7 173.2,50 
											"/>
				</g>
				<path id="XMLID_21436_" class="st3" d="M162.7,35.4c0,0,9.8,3.6,11.8,8.1s5.5,23.6,5.5,23.6l-10,4.6c0,0,15-5.9,16.5-4.7
					c0.9,0.7,0.2,3-2.2,7.8c-1.7,3.5-20,52.1-26.9,67.5c-8.1,18.2-10.5,24.1-12.2,28.3c0,0-0.4-2.1,2.4-16.8
					c2.8-14.8,8.4-66.4,11.3-82.3s5.5-24,5.5-28.7S162.7,35.4,162.7,35.4z"/>
				<line id="XMLID_21435_" class="st12" x1="161.3" y1="59" x2="170" y2="71.6"/>
			</g>
			<g id="XMLID_21345_">
				<g id="XMLID_9006_">
					<path id="XMLID_21433_" class="st14" d="M241.2,236l-2.2,0.2l-2.2,0.7c-0.1,0-0.1,0.2,0,0.2l2.2-0.2l2.1-0.6
						C241.3,236.2,241.3,236,241.2,236z"/>
					<circle id="XMLID_9018_" class="st5" cx="239.7" cy="236.5" r="1.7"/>
					<circle id="XMLID_9017_" class="st13" cx="239.7" cy="236.4" r="1.6"/>
					<circle id="XMLID_9016_" class="st20" cx="239.7" cy="236.2" r="1.6"/>
					<circle id="XMLID_9015_" class="st16" cx="239.7" cy="236.2" r="1.4"/>
					<circle id="XMLID_9014_" class="st17" cx="239.5" cy="235.9" r="0.2"/>
					<circle id="XMLID_9013_" class="st17" cx="239.9" cy="236.9" r="0.2"/>
					<line id="XMLID_9012_" class="st21" x1="239.4" y1="235.9" x2="239.9" y2="236.8"/>
					<line id="XMLID_9011_" class="st21" x1="239.5" y1="235.8" x2="240" y2="236.8"/>
					<circle id="XMLID_9010_" class="st17" cx="239.2" cy="236.6" r="0.2"/>
					<circle id="XMLID_9009_" class="st17" cx="240.2" cy="236.1" r="0.2"/>
					<line id="XMLID_9008_" class="st21" x1="239.2" y1="236.7" x2="240.2" y2="236.2"/>
					<line id="XMLID_9007_" class="st21" x1="239.1" y1="236.5" x2="240.1" y2="236.1"/>
				</g>
				<g id="XMLID_8993_">
					<path id="XMLID_21419_" class="st14" d="M240.5,232.4l-2.2,0.2l-2.2,0.7c-0.1,0-0.1,0.2,0,0.2l2.2-0.2l2.1-0.6
						C240.6,232.6,240.6,232.4,240.5,232.4z"/>
					<circle id="XMLID_9005_" class="st5" cx="239" cy="232.9" r="1.7"/>
					<circle id="XMLID_9004_" class="st13" cx="239" cy="232.8" r="1.6"/>
					<circle id="XMLID_9003_" class="st20" cx="239" cy="232.6" r="1.6"/>
					<circle id="XMLID_9002_" class="st16" cx="239" cy="232.6" r="1.4"/>
					<circle id="XMLID_9001_" class="st17" cx="238.7" cy="232.2" r="0.2"/>
					<circle id="XMLID_9000_" class="st17" cx="239.2" cy="233.2" r="0.2"/>
					<line id="XMLID_8999_" class="st21" x1="238.7" y1="232.2" x2="239.2" y2="233.2"/>
					<line id="XMLID_8998_" class="st21" x1="238.8" y1="232.2" x2="239.3" y2="233.2"/>
					<circle id="XMLID_8997_" class="st17" cx="238.5" cy="233" r="0.2"/>
					<circle id="XMLID_8996_" class="st17" cx="239.5" cy="232.5" r="0.2"/>
					<line id="XMLID_8995_" class="st21" x1="238.5" y1="233.1" x2="239.5" y2="232.6"/>
					<line id="XMLID_8994_" class="st21" x1="238.4" y1="232.9" x2="239.4" y2="232.4"/>
				</g>
				<g id="XMLID_8980_">
					<path id="XMLID_21405_" class="st14" d="M241.7,239.6l-2.2,0.2l-2.2,0.7c-0.1,0-0.1,0.2,0,0.2l2.2-0.2l2.1-0.6
						C241.9,239.8,241.9,239.6,241.7,239.6z"/>
					<circle id="XMLID_8992_" class="st5" cx="240.3" cy="240.1" r="1.7"/>
					<circle id="XMLID_8991_" class="st13" cx="240.3" cy="240.1" r="1.6"/>
					<circle id="XMLID_8990_" class="st20" cx="240.3" cy="239.8" r="1.6"/>
					<circle id="XMLID_8989_" class="st16" cx="240.3" cy="239.8" r="1.4"/>
					<circle id="XMLID_8988_" class="st17" cx="240" cy="239.5" r="0.2"/>
					<circle id="XMLID_8987_" class="st17" cx="240.5" cy="240.5" r="0.2"/>
					<line id="XMLID_8986_" class="st21" x1="239.9" y1="239.5" x2="240.4" y2="240.5"/>
					<line id="XMLID_8985_" class="st21" x1="240.1" y1="239.4" x2="240.5" y2="240.4"/>
					<circle id="XMLID_8984_" class="st17" cx="239.7" cy="240.2" r="0.2"/>
					<circle id="XMLID_8983_" class="st17" cx="240.7" cy="239.7" r="0.2"/>
					<line id="XMLID_8982_" class="st21" x1="239.7" y1="240.3" x2="240.7" y2="239.8"/>
					<line id="XMLID_8981_" class="st21" x1="239.7" y1="240.2" x2="240.7" y2="239.7"/>
				</g>
				<g id="XMLID_8979_">
					<path id="XMLID_21391_" class="st14" d="M242.6,242.3l-1.6,0.2c-0.4,0-0.9,0.1-1.3,0.2l-1.5,0.4c-0.1,0-0.1,0.2,0,0.2l1.5-0.2
						c0.4,0,0.9-0.1,1.3-0.2l1.6-0.4C242.8,242.5,242.7,242.3,242.6,242.3z"/>
				</g>
				<g id="XMLID_8966_">
					<path id="XMLID_21389_" class="st14" d="M60,236l2.2,0.2l2.2,0.7c0.1,0,0.1,0.2,0,0.2l-2.2-0.2l-2.1-0.6
						C59.9,236.2,59.9,236,60,236z"/>
					<circle id="XMLID_8978_" class="st5" cx="61.5" cy="236.5" r="1.7"/>
					<circle id="XMLID_8977_" class="st13" cx="61.4" cy="236.4" r="1.6"/>
					<circle id="XMLID_8976_" class="st20" cx="61.5" cy="236.2" r="1.6"/>
					<circle id="XMLID_8975_" class="st16" cx="61.5" cy="236.2" r="1.4"/>
					<circle id="XMLID_8974_" class="st17" cx="61.7" cy="235.9" r="0.2"/>
					<circle id="XMLID_8973_" class="st17" cx="61.3" cy="236.9" r="0.2"/>
					<line id="XMLID_8972_" class="st21" x1="61.8" y1="235.9" x2="61.3" y2="236.8"/>
					<line id="XMLID_8971_" class="st21" x1="61.7" y1="235.8" x2="61.2" y2="236.8"/>
					<circle id="XMLID_8970_" class="st17" cx="62" cy="236.6" r="0.2"/>
					<circle id="XMLID_8969_" class="st17" cx="61" cy="236.1" r="0.2"/>
					<line id="XMLID_8968_" class="st21" x1="62" y1="236.7" x2="61" y2="236.2"/>
					<line id="XMLID_8967_" class="st21" x1="62.1" y1="236.5" x2="61.1" y2="236.1"/>
				</g>
				<g id="XMLID_8953_">
					<path id="XMLID_21375_" class="st14" d="M60.7,232.4l2.2,0.2l2.2,0.7c0.1,0,0.1,0.2,0,0.2l-2.2-0.2l-2.1-0.6
						C60.6,232.6,60.6,232.4,60.7,232.4z"/>
					<circle id="XMLID_8965_" class="st5" cx="62.2" cy="232.9" r="1.7"/>
					<circle id="XMLID_8964_" class="st13" cx="62.2" cy="232.8" r="1.6"/>
					<circle id="XMLID_8963_" class="st20" cx="62.2" cy="232.6" r="1.6"/>
					<circle id="XMLID_8962_" class="st16" cx="62.2" cy="232.6" r="1.4"/>
					<circle id="XMLID_8961_" class="st17" cx="62.5" cy="232.2" r="0.2"/>
					<circle id="XMLID_8960_" class="st17" cx="62" cy="233.2" r="0.2"/>
					<line id="XMLID_8959_" class="st21" x1="62.5" y1="232.2" x2="62" y2="233.2"/>
					<line id="XMLID_8958_" class="st21" x1="62.4" y1="232.2" x2="61.9" y2="233.2"/>
					<circle id="XMLID_8957_" class="st17" cx="62.7" cy="233" r="0.2"/>
					<circle id="XMLID_8956_" class="st17" cx="61.7" cy="232.5" r="0.2"/>
					<line id="XMLID_8955_" class="st21" x1="62.7" y1="233.1" x2="61.7" y2="232.6"/>
					<line id="XMLID_8954_" class="st21" x1="62.8" y1="232.9" x2="61.8" y2="232.4"/>
				</g>
				<g id="XMLID_8940_">
					<path id="XMLID_21361_" class="st14" d="M59.5,239.6l2.2,0.2l2.2,0.7c0.1,0,0.1,0.2,0,0.2l-2.2-0.2l-2.1-0.6
						C59.3,239.8,59.3,239.6,59.5,239.6z"/>
					<circle id="XMLID_8952_" class="st5" cx="60.9" cy="240.1" r="1.7"/>
					<circle id="XMLID_8951_" class="st13" cx="60.9" cy="240.1" r="1.6"/>
					<circle id="XMLID_8950_" class="st20" cx="60.9" cy="239.8" r="1.6"/>
					<circle id="XMLID_8949_" class="st16" cx="60.9" cy="239.8" r="1.4"/>
					<circle id="XMLID_8948_" class="st17" cx="61.2" cy="239.5" r="0.2"/>
					<circle id="XMLID_8947_" class="st17" cx="60.7" cy="240.5" r="0.2"/>
					<line id="XMLID_8946_" class="st21" x1="61.3" y1="239.5" x2="60.8" y2="240.5"/>
					<line id="XMLID_8945_" class="st21" x1="61.1" y1="239.4" x2="60.7" y2="240.4"/>
					<circle id="XMLID_8944_" class="st17" cx="61.4" cy="240.2" r="0.2"/>
					<circle id="XMLID_8943_" class="st17" cx="60.5" cy="239.7" r="0.2"/>
					<line id="XMLID_8942_" class="st21" x1="61.4" y1="240.3" x2="60.5" y2="239.8"/>
					<line id="XMLID_8941_" class="st21" x1="61.5" y1="240.2" x2="60.5" y2="239.7"/>
				</g>
				<g id="XMLID_8939_">
					<path id="XMLID_21347_" class="st14" d="M58.6,242.3l1.6,0.2c0.4,0,0.9,0.1,1.3,0.2l1.5,0.4c0.1,0,0.1,0.2,0,0.2l-1.5-0.2
						c-0.4,0-0.9-0.1-1.3-0.2l-1.6-0.4C58.4,242.5,58.5,242.3,58.6,242.3z"/>
				</g>
			</g>
		</g>
		<path id="XMLID_21343_" class="st14" d="M180,71.4l-1.5,0.5c-0.4,0.1-0.8,0.3-1.2,0.5l-1.4,0.7c-0.1,0.1,0,0.3,0.1,0.2l1.4-0.5
			c0.4-0.1,0.8-0.3,1.2-0.5l1.5-0.7C180.2,71.6,180.1,71.4,180,71.4z"/>
	</g>
</g>
</svg>
