<?xml version="1.0" encoding="utf-8"?>
<!-- Generator: Adobe Illustrator 19.0.0, SVG Export Plug-In . SVG Version: 6.00 Build 0)  -->
<svg version="1.1" id="Layer_1" xmlns="http://www.w3.org/2000/svg" xmlns:xlink="http://www.w3.org/1999/xlink" x="0px" y="0px"
	 viewBox="0 0 300 300" style="enable-background:new 0 0 300 300;" xml:space="preserve">
<style type="text/css">
	.st0{clip-path:url(#SVGID_2_);}
	.st1{fill:#9AA0BB;}
	.st2{fill:#F1F1F2;stroke:#404041;stroke-miterlimit:10;}
	.st3{fill:#DDDDDD;stroke:#404041;stroke-miterlimit:10;}
	.st4{fill:#C5C7C9;}
	.st5{fill:#929497;}
	.st6{fill:#FFFFFF;stroke:#404041;stroke-miterlimit:10;}
	.st7{fill:#F1F1F2;}
	.st8{fill:none;stroke:#404041;stroke-miterlimit:10;}
	.st9{fill:none;stroke:#808184;stroke-width:0.5;stroke-miterlimit:10;}
	.st10{fill:none;stroke:#808184;stroke-width:0.5;stroke-miterlimit:10;stroke-dasharray:1.016,2.032;}
	.st11{fill:#FFFFFF;stroke:#404041;stroke-linecap:round;stroke-linejoin:round;stroke-miterlimit:10;}
	.st12{fill:none;stroke:#808184;stroke-width:0.5;stroke-miterlimit:10;stroke-dasharray:0.9747,1.9493;}
	.st13{fill:#DBDCDD;}
	.st14{fill:#404041;stroke:#D0D2D3;stroke-width:0.5;stroke-miterlimit:10;}
	.st15{fill:#FFFFFF;stroke:#6D6E70;stroke-miterlimit:10;}
	.st16{fill:#656668;}
	.st17{fill:#595B5C;}
	.st18{fill:#FFFFFF;stroke:#404041;stroke-linejoin:round;stroke-miterlimit:10;}
	.st19{fill:none;stroke:#808184;stroke-width:0.5;stroke-miterlimit:10;stroke-dasharray:1,2;}
	.st20{fill:#FFFFFF;stroke:#6D6E70;stroke-width:0.5;stroke-miterlimit:10;}
	.st21{fill:#FFFFFF;stroke:#929497;stroke-width:0.25;stroke-miterlimit:10;}
	.st22{fill:#404041;}
	.st23{fill:none;stroke:#6D6E70;stroke-width:0.25;stroke-miterlimit:10;}
</style>
<g>
	<defs>
		<circle id="SVGID_1_" cx="150.1" cy="149.6" r="150"/>
	</defs>
	<use xlink:href="#SVGID_1_"  style="overflow:visible;fill:#DDDDDD;"/>
	<clipPath id="SVGID_2_">
		<use xlink:href="#SVGID_1_"  style="overflow:visible;"/>
	</clipPath>
	<g id="XMLID_1_" class="st0">
		<defs>
			<rect id="XMLID_4932_" x="-13.5" width="327.1" height="300"/>
		</defs>
		<clipPath id="XMLID_6_">
			<use xlink:href="#XMLID_4932_"  style="overflow:visible;"/>
		</clipPath>
	</g>
	<g class="st0">
		<path class="st1" d="M150.1,4.6c38.7,0,75.1,15.1,102.5,42.5c27.4,27.4,42.5,63.8,42.5,102.5s-15.1,75.1-42.5,102.5
			c-27.4,27.4-63.8,42.5-102.5,42.5S75,279.5,47.6,252.1C20.2,224.7,5.1,188.3,5.1,149.6S20.2,74.5,47.6,47.1
			C75,19.7,111.4,4.6,150.1,4.6 M150.1-0.4c-82.8,0-150,67.2-150,150s67.2,150,150,150s150-67.2,150-150S232.9-0.4,150.1-0.4
			L150.1-0.4z"/>
	</g>
	<g id="XMLID_22653_" class="st0">
		<g id="XMLID_22675_">
			<path id="XMLID_22903_" class="st2" d="M196.2,164.3c0,0-20,106.7-25.6,109c-3.5,1.4-6.1,1.7-8.7-1.1l-4.7-117.9L196.2,164.3z"/>
			<path id="XMLID_22902_" class="st3" d="M162.2,272.2c0,0-1.8,2.8-5.4,2.8c-3.6,0-7.1-2.8-7.1-2.8V146.4h12.4V272.2z"/>
			<path id="XMLID_22901_" class="st2" d="M103.8,164.3c0,0,20,106.7,25.6,109c3.5,1.4,6.1,1.7,8.7-1.1l4.7-117.9L103.8,164.3z"/>
			<path id="XMLID_22900_" class="st3" d="M137.8,272.2c0,0,1.8,2.8,5.4,2.8c3.6,0,7.1-2.8,7.1-2.8V146.4h-12.4V272.2z"/>
			<g id="XMLID_22897_">
				<path id="XMLID_22899_" class="st4" d="M137.8,137.3c0,0,3.1,49.8,3.1,69.6s-3.1,58.8-3.1,58.8V137.3z"/>
				<path id="XMLID_22898_" class="st4" d="M137.7,137.3c0,0-3.1,49.8-3.1,69.6s3.1,58.8,3.1,58.8V137.3z"/>
			</g>
			<g id="XMLID_22894_">
				<path id="XMLID_22896_" class="st4" d="M162.5,138.9c0,0,3,48.5,3,67.9s-3,57.3-3,57.3V138.9z"/>
				<path id="XMLID_22895_" class="st4" d="M162.4,138.9c0,0-3,48.5-3,67.9s3,57.3,3,57.3V138.9z"/>
			</g>
			<g id="XMLID_22891_">
				<path id="XMLID_22893_" class="st4" d="M150.4,116.6c0,0,2,54.2,2,82.8s-2,72.8-2,72.8"/>
				<path id="XMLID_22892_" class="st4" d="M150.2,116.6c0,0-2,54.2-2,82.8s2,72.8,2,72.8"/>
			</g>
			<g id="XMLID_22888_">
				<path id="XMLID_22890_" class="st4" d="M104.4,166.8l24.2,12.1c1.2,0.6,2.7,0.3,3.6-0.7l18.3-20.6l18.9,20.5
					c0.9,1.1,2.4,1.4,3.6,0.8l22.5-11l0.7-4.3l-38.4-22.4l-34.5,1.3l-19.6,21.4L104.4,166.8z"/>
				<path id="XMLID_22889_" class="st5" d="M104,165.8l24.5,11.8c1.2,0.6,2.7,0.3,3.6-0.7l18.2-21.2l19,21.1
					c0.9,1.1,2.4,1.5,3.7,0.8l22.5-10.7l0.8-3.4l-38.6-23.5l-34.5,1.3l-19.8,21.7L104,165.8z"/>
			</g>
			<g id="XMLID_22791_">
				<g id="XMLID_22792_">
					<g id="XMLID_22864_">
						<polygon id="XMLID_22887_" class="st2" points="161.1,27.5 167.1,32.3 150.5,123.5 133.6,32.3 139.8,27.5 						"/>
						<path id="XMLID_22886_" class="st6" d="M160.5,25.3c0,0-0.1-0.3-9.9-0.3c0,0-0.1,0-0.1,0c0,0-0.1,0-0.1,0
							c-10.7,0-11,0.3-11,0.3l-2.8,4.7c0,0,3.5,0.4,7.8,0.6c1.6,0.1,3.8,0.1,6.2,0.1c2.4,0,4.3,0,6-0.1c4.2-0.2,7.8-0.6,7.8-0.6
							L160.5,25.3z"/>
						<g id="XMLID_22882_">
							<path id="XMLID_22885_" class="st5" d="M140.9,25.1c0,0-1.1,1.2-1,2.8c0.1,1.6,0.2,2.1,0.2,2.1h-4.5l3.9-4.8L140.9,25.1z"/>
							<path id="XMLID_22884_" class="st7" d="M141.3,25.1c-0.3,0-0.5,0-0.8,0c-0.6,1.1-0.6,4-0.6,5.1c0.3,0,0.7,0.1,1.2,0.1
								c-0.1-0.3-0.2-1-0.2-2.2C140.9,26.7,141.2,25.6,141.3,25.1z"/>
							<path id="XMLID_22883_" class="st4" d="M140.6,25.1c-0.2,0-0.3,0-0.4,0c-0.3,0.2-0.5,0.6-0.6,1.2c-0.1,1.3-0.2,3-0.2,3.8
								c0.3,0,0.7,0.1,1.2,0.1C140.4,29.2,140,26.1,140.6,25.1z"/>
						</g>
						<g id="XMLID_22878_">
							<path id="XMLID_22881_" class="st5" d="M159.2,25.1c0,0,1.1,1.2,1,2.8s-0.2,2.1-0.2,2.1h4l-3.8-4.8L159.2,25.1z"/>
							<path id="XMLID_22880_" class="st7" d="M158.8,25.1c0.3,0,0.5,0,0.8,0c0.6,1.1,0.6,4,0.6,5.1c-0.3,0-0.7,0.1-1.2,0.1
								c0.1-0.3,0.2-1,0.2-2.2C159.2,26.7,158.9,25.6,158.8,25.1z"/>
							<path id="XMLID_22879_" class="st4" d="M159.5,25.1c0.2,0,0.3,0,0.4,0c0.3,0.2,0.5,0.6,0.6,1.2c0.1,1.3,0.2,3,0.2,3.8
								c-0.3,0-0.7,0.1-1.2,0.1C159.7,29.2,160.1,26.1,159.5,25.1z"/>
						</g>
						<path id="XMLID_22877_" class="st8" d="M160.6,25.4c-0.1-0.1-0.2-0.2-0.4-0.2c-0.6-0.1-2-0.2-9.7-0.2c0,0-0.1,0-0.1,0
							c0,0-0.1,0-0.1,0c-10.7,0-11,0.3-11,0.3l-2.8,4.6c0,0,3.5,0.4,7.8,0.6c1.6,0.1,3.8,0.1,6.2,0.1c2.4,0,4.3,0,6-0.1
							c4.2-0.2,8.1-0.6,8.1-0.6L160.6,25.4z"/>
						<g id="XMLID_22874_">
							<polygon id="XMLID_22876_" class="st5" points="140.4,39.8 150.5,88.2 159.8,39.8 156.3,96.4 150.6,125 144,96.6 							"/>
							<polygon id="XMLID_22875_" class="st4" points="150.4,95.4 160.4,37.7 150.5,88.2 140.2,37.7 							"/>
						</g>
						<g id="XMLID_22868_">
							<g>
								<line class="st9" x1="150.5" y1="31.3" x2="150.5" y2="31.8"/>
								<line class="st10" x1="150.5" y1="33.8" x2="150.5" y2="96.8"/>
								<line class="st9" x1="150.5" y1="97.8" x2="150.5" y2="98.3"/>
							</g>
						</g>
						<path id="XMLID_22867_" class="st5" d="M145,32.5l0.4,0.4c0,0,2.8-0.2,5.1-0.2s5.3,0.2,5.3,0.2l0.3-0.4H145z"/>
						<path id="XMLID_22866_" class="st4" d="M145.3,32.8l0.3,0.3c0,0,2.6-0.2,5-0.2c2.3,0,5.2,0.2,5.2,0.2l0.2-0.3l-5.4-0.1
							L145.3,32.8z"/>
						<path id="XMLID_22865_" class="st6" d="M150.5,30.7c-2.5,0-4.5,0-6.1-0.1l0.7,1.9h5.4h0.1h5.4l0.7-1.9
							C155,30.7,153,30.7,150.5,30.7z"/>
					</g>
					<path id="XMLID_22863_" class="st11" d="M130.7,175.6c-0.6,0.7-1.6,0.9-2.4,0.5l-24.8-11.9c0,0,0.5-12.9,0.7-17
						c0.6-15.8,5.5-46.2,5.4-64.1c-0.1-17.8-1.5-33-8.4-37.3c0,0,1.2-2.2,10.1-6.3c8.3-3.9,15.3-6.9,18.1-8.5
						c0.2-0.1,0.3-0.2,0.5-0.3c2.4-1.5,9.5-5.6,9.5-5.6s-5.5,5.7-3.6,18c0,0,16.4,81.9,17.4,91.2c0.5,5.2-0.7,13.2-3.2,17.9v0
						L130.7,175.6z"/>
					<g id="XMLID_22857_">
						<g>
							<line class="st9" x1="122.6" y1="115.9" x2="122.4" y2="116.4"/>
							<line class="st12" x1="121.9" y1="118.3" x2="109.3" y2="165.3"/>
							<line class="st9" x1="109" y1="166.3" x2="108.9" y2="166.8"/>
						</g>
					</g>
					<g id="XMLID_22854_">
						<path id="XMLID_22856_" class="st7" d="M109.8,115.3c2.6-17.7,1.5-31.8-0.3-43c0.3,2.2,0.5,6.1,0.6,6.6
							c0.3,3.8,0.6,7.6,0.5,11.3c-0.1,7.8-0.6,16.8-2.1,26.7c-1.2,8.4-2.1,12.2-2.8,13.6c-0.1,1.2-0.2,2.4-0.4,3.5
							C107,134,108.1,126.7,109.8,115.3z"/>
						<path id="XMLID_22855_" class="st4" d="M108.2,108.1c-0.8,7.6-1.7,15.4-2.4,22.5c0.6-1.5,1.5-5.2,2.8-13.6
							c1.4-9.8,2.1-17.9,2.1-31.1l0,0c0.1-4.8-1.2-13.7-1.1-13.3C110.2,83.1,108.9,101.8,108.2,108.1z"/>
					</g>
					<path id="XMLID_22853_" class="st6" d="M97.5,54.5c1.9-9.2,3.8-8.5,3.8-8.5l0,0c6.8,4.2,8.2,19.4,8.4,37.3
						c0.1,8.3-1,19.3-2.2,30.4l-11.3,82c0,0-3.6,1.8-10.7,1.5c-7.1-0.3-10.6-3.3-10.6-3.3S95.5,63.6,97.5,54.5z"/>
					<g id="XMLID_9972_">
						<circle id="XMLID_9978_" class="st7" cx="123.5" cy="114.1" r="2.6"/>
						<circle id="XMLID_9977_" class="st13" cx="123.4" cy="114" r="2.5"/>
						<polygon id="XMLID_9976_" class="st14" points="120.2,113.9 123.4,113.3 126.9,113.9 123.4,114.5 						"/>
						<circle id="XMLID_9975_" class="st15" cx="123.5" cy="113.6" r="2.5"/>
						<circle id="XMLID_9974_" class="st16" cx="123.5" cy="113.6" r="2.3"/>
						<path id="XMLID_9973_" class="st17" d="M122.1,111.8c-1,0.8-1.2,2.3-0.4,3.3s2.3,1.2,3.3,0.4S123.1,111,122.1,111.8z"/>
					</g>
					<g id="XMLID_9965_">
						<circle id="XMLID_9971_" class="st7" cx="123.5" cy="139.9" r="2.6"/>
						<circle id="XMLID_9970_" class="st13" cx="123.4" cy="139.8" r="2.5"/>
						<polygon id="XMLID_9969_" class="st14" points="120.2,139.7 123.4,139.1 126.9,139.7 123.4,140.3 						"/>
						<circle id="XMLID_9968_" class="st15" cx="123.5" cy="139.4" r="2.5"/>
						<circle id="XMLID_9967_" class="st16" cx="123.5" cy="139.4" r="2.3"/>
						<path id="XMLID_9966_" class="st17" d="M122.1,137.6c-1,0.8-1.2,2.3-0.4,3.3c0.8,1,2.3,1.2,3.3,0.4
							C125.9,140.5,123.1,136.8,122.1,137.6z"/>
					</g>
					<g id="XMLID_9958_">
						<circle id="XMLID_9964_" class="st7" cx="123.5" cy="165.8" r="2.6"/>
						<circle id="XMLID_9963_" class="st13" cx="123.4" cy="165.7" r="2.5"/>
						<polygon id="XMLID_9962_" class="st14" points="120.2,165.6 123.4,165 126.9,165.6 123.4,166.2 						"/>
						<circle id="XMLID_9961_" class="st15" cx="123.5" cy="165.3" r="2.5"/>
						<circle id="XMLID_9960_" class="st16" cx="123.5" cy="165.3" r="2.3"/>
						<path id="XMLID_9959_" class="st17" d="M122.1,163.4c-1,0.8-1.2,2.3-0.4,3.3c0.8,1,2.3,1.2,3.3,0.4S123.1,162.7,122.1,163.4z"
							/>
					</g>
					<g id="XMLID_22829_">
						<path id="XMLID_22831_" class="st7" d="M150.5,108.3c0,0-6.2,20.1-6,27s4.7,19.1,4.7,19.1l2.8-2.1l0.3-36L150.5,108.3z"/>
						<path id="XMLID_22830_" class="st4" d="M150.7,109.2c0,0-5.9,19.2-5.8,26.2c0.2,7,4.3,18.7,4.3,18.7l3.2-2.8l0.3-36
							L150.7,109.2z"/>
					</g>
					<path id="XMLID_22828_" class="st18" d="M169.3,175.6c0.6,0.7,1.6,0.9,2.4,0.5l24.8-11.9c0,0-0.5-12.9-0.7-17
						c-0.6-15.8-5.5-46.2-5.4-64.1c0.1-17.8,1.5-33,8.4-37.3c0,0-1.2-2.2-10.1-6.3c-8.3-3.9-15.3-6.9-18.1-8.5
						c-0.2-0.1-0.3-0.2-0.5-0.3c-2.4-1.5-9.5-5.6-9.5-5.6s5.5,5.7,3.6,18c0,0-17.2,81.8-18.2,91.1c-0.5,5.2,1.6,13.3,4,18.1v0
						L169.3,175.6z"/>
					<polygon id="XMLID_22827_" class="st7" points="185.7,84.9 185.7,83.8 160.1,84.6 160.1,85.7 					"/>
					<polygon id="XMLID_22826_" class="st4" points="185.7,85.4 185.7,84.3 160.1,85 160.1,86.1 					"/>
					<path id="XMLID_22825_" class="st8" d="M185.6,85.1v5.5c0,0.2-0.2,0.4-0.4,0.4l-24.4,0.5c-0.2,0-0.4-0.2-0.4-0.4v-5.3
						c0-0.2,0.2-0.4,0.4-0.4l24.4-0.7C185.4,84.8,185.6,84.9,185.6,85.1z"/>
					<line id="XMLID_22824_" class="st19" x1="160.4" y1="85.7" x2="185.6" y2="85"/>
					<g id="XMLID_22818_">
						<g>
							<line class="st9" x1="177.4" y1="115.9" x2="177.6" y2="116.4"/>
							<line class="st12" x1="178.1" y1="118.3" x2="190.7" y2="165.3"/>
							<line class="st9" x1="191" y1="166.3" x2="191.1" y2="166.8"/>
						</g>
					</g>
					<g id="XMLID_22815_">
						<path id="XMLID_22817_" class="st7" d="M190.2,115.3c-2.6-17.7-1.5-31.8,0.3-43c-0.3,2.2-0.5,6.1-0.6,6.6
							c-0.3,3.8-0.6,7.6-0.5,11.3c0.1,7.8,0.6,16.8,2.1,26.7c1.2,8.4,2.1,12.2,2.8,13.6c0.1,1.2,0.2,2.4,0.4,3.5
							C193,134,191.9,126.7,190.2,115.3z"/>
						<path id="XMLID_22816_" class="st4" d="M191.8,108.1c0.8,7.6,1.7,15.4,2.4,22.5c-0.6-1.5-1.5-5.2-2.8-13.6
							c-1.4-9.8-2.1-17.9-2.1-31.1l0,0c-0.1-4.8,1.2-13.7,1.1-13.3C189.8,83.1,191.1,101.8,191.8,108.1z"/>
					</g>
					<path id="XMLID_22814_" class="st6" d="M202.5,54.5c-1.9-9.2-3.8-8.5-3.8-8.5l0,0c-6.8,4.2-8.2,19.4-8.4,37.3
						c-0.1,8.3,1,19.3,2.2,30.4l11.3,82c0,0,3.6,1.8,10.7,1.5c7.1-0.3,10.6-3.3,10.6-3.3S204.5,63.6,202.5,54.5z"/>
					<g id="XMLID_9951_">
						<circle id="XMLID_9957_" class="st7" cx="176.5" cy="114.1" r="2.6"/>
						<circle id="XMLID_9956_" class="st13" cx="176.6" cy="114" r="2.5"/>
						<polygon id="XMLID_9955_" class="st14" points="179.8,113.9 176.6,113.3 173.1,113.9 176.6,114.5 						"/>
						<circle id="XMLID_9954_" class="st15" cx="176.5" cy="113.6" r="2.5"/>
						<circle id="XMLID_9953_" class="st16" cx="176.5" cy="113.6" r="2.3"/>
						<path id="XMLID_9952_" class="st17" d="M177.9,111.8c1,0.8,1.2,2.3,0.4,3.3c-0.8,1-2.3,1.2-3.3,0.4
							C174.1,114.7,176.9,111,177.9,111.8z"/>
					</g>
					<g id="XMLID_9944_">
						<circle id="XMLID_9950_" class="st7" cx="176.5" cy="139.9" r="2.6"/>
						<circle id="XMLID_9949_" class="st13" cx="176.6" cy="139.8" r="2.5"/>
						<polygon id="XMLID_9948_" class="st14" points="179.8,139.7 176.6,139.1 173.1,139.7 176.6,140.3 						"/>
						<circle id="XMLID_9947_" class="st15" cx="176.5" cy="139.4" r="2.5"/>
						<circle id="XMLID_9946_" class="st16" cx="176.5" cy="139.4" r="2.3"/>
						<path id="XMLID_9945_" class="st17" d="M177.9,137.6c1,0.8,1.2,2.3,0.4,3.3c-0.8,1-2.3,1.2-3.3,0.4
							C174.1,140.5,176.9,136.8,177.9,137.6z"/>
					</g>
					<g id="XMLID_9937_">
						<circle id="XMLID_9943_" class="st7" cx="176.5" cy="165.8" r="2.6"/>
						<circle id="XMLID_9942_" class="st13" cx="176.6" cy="165.7" r="2.5"/>
						<polygon id="XMLID_9941_" class="st14" points="179.8,165.6 176.6,165 173.1,165.6 176.6,166.2 						"/>
						<circle id="XMLID_9940_" class="st15" cx="176.5" cy="165.3" r="2.5"/>
						<circle id="XMLID_9939_" class="st16" cx="176.5" cy="165.3" r="2.3"/>
						<path id="XMLID_9938_" class="st17" d="M177.9,163.4c1,0.8,1.2,2.3,0.4,3.3c-0.8,1-2.3,1.2-3.3,0.4
							C174.1,166.3,176.9,162.7,177.9,163.4z"/>
					</g>
				</g>
			</g>
			<g id="XMLID_22676_">
				<g id="XMLID_22734_">
					<g id="XMLID_9924_">
						<path id="XMLID_22790_" class="st14" d="M222.8,185.4l-1.8,0.1l-1.7,0.5c-0.1,0-0.1,0.2,0,0.2l1.8-0.2l1.7-0.5
							C222.9,185.5,222.9,185.4,222.8,185.4z"/>
						<circle id="XMLID_9936_" class="st7" cx="221.6" cy="185.8" r="1.3"/>
						<circle id="XMLID_9935_" class="st13" cx="221.6" cy="185.7" r="1.3"/>
						<circle id="XMLID_9934_" class="st20" cx="221.6" cy="185.6" r="1.3"/>
						<circle id="XMLID_9933_" class="st21" cx="221.6" cy="185.6" r="1.1"/>
						<circle id="XMLID_9932_" class="st22" cx="221.4" cy="185.3" r="0.2"/>
						<circle id="XMLID_9931_" class="st22" cx="221.8" cy="186.1" r="0.2"/>
						<line id="XMLID_9930_" class="st23" x1="221.3" y1="185.3" x2="221.7" y2="186.1"/>
						<line id="XMLID_9929_" class="st23" x1="221.4" y1="185.2" x2="221.8" y2="186"/>
						<circle id="XMLID_9928_" class="st22" cx="221.2" cy="185.9" r="0.2"/>
						<circle id="XMLID_9927_" class="st22" cx="222" cy="185.5" r="0.2"/>
						<line id="XMLID_9926_" class="st23" x1="221.2" y1="185.9" x2="222" y2="185.5"/>
						<line id="XMLID_9925_" class="st23" x1="221.1" y1="185.8" x2="221.9" y2="185.4"/>
					</g>
					<g id="XMLID_9861_">
						<path id="XMLID_22776_" class="st14" d="M222.2,182.4l-1.8,0.1l-1.7,0.5c-0.1,0-0.1,0.2,0,0.2l1.8-0.2l1.7-0.5
							C222.4,182.6,222.3,182.4,222.2,182.4z"/>
						<circle id="XMLID_9923_" class="st7" cx="221.1" cy="182.8" r="1.3"/>
						<circle id="XMLID_9922_" class="st13" cx="221.1" cy="182.8" r="1.3"/>
						<circle id="XMLID_9871_" class="st20" cx="221.1" cy="182.6" r="1.3"/>
						<circle id="XMLID_9870_" class="st21" cx="221.1" cy="182.6" r="1.1"/>
						<circle id="XMLID_9869_" class="st22" cx="220.8" cy="182.3" r="0.2"/>
						<circle id="XMLID_9868_" class="st22" cx="221.2" cy="183.1" r="0.2"/>
						<line id="XMLID_9867_" class="st23" x1="220.8" y1="182.3" x2="221.2" y2="183.1"/>
						<line id="XMLID_9866_" class="st23" x1="220.9" y1="182.3" x2="221.3" y2="183.1"/>
						<circle id="XMLID_9865_" class="st22" cx="220.6" cy="182.9" r="0.2"/>
						<circle id="XMLID_9864_" class="st22" cx="221.4" cy="182.5" r="0.2"/>
						<line id="XMLID_9863_" class="st23" x1="220.6" y1="183" x2="221.4" y2="182.6"/>
						<line id="XMLID_9862_" class="st23" x1="220.6" y1="182.9" x2="221.4" y2="182.5"/>
					</g>
					<g id="XMLID_9848_">
						<path id="XMLID_22762_" class="st14" d="M223.3,188.3l-1.8,0.1l-1.7,0.5c-0.1,0-0.1,0.2,0,0.2l1.8-0.2l1.7-0.5
							C223.5,188.5,223.4,188.3,223.3,188.3z"/>
						<circle id="XMLID_9860_" class="st7" cx="222.2" cy="188.7" r="1.3"/>
						<circle id="XMLID_9859_" class="st13" cx="222.2" cy="188.7" r="1.3"/>
						<circle id="XMLID_9858_" class="st20" cx="222.2" cy="188.5" r="1.3"/>
						<circle id="XMLID_9857_" class="st21" cx="222.2" cy="188.5" r="1.1"/>
						<circle id="XMLID_9856_" class="st22" cx="221.9" cy="188.2" r="0.2"/>
						<circle id="XMLID_9855_" class="st22" cx="222.3" cy="189" r="0.2"/>
						<line id="XMLID_9854_" class="st23" x1="221.9" y1="188.2" x2="222.3" y2="189"/>
						<line id="XMLID_9853_" class="st23" x1="222" y1="188.2" x2="222.4" y2="189"/>
						<circle id="XMLID_9852_" class="st22" cx="221.7" cy="188.8" r="0.2"/>
						<circle id="XMLID_9851_" class="st22" cx="222.5" cy="188.4" r="0.2"/>
						<line id="XMLID_9850_" class="st23" x1="221.7" y1="188.9" x2="222.5" y2="188.5"/>
						<line id="XMLID_9849_" class="st23" x1="221.7" y1="188.8" x2="222.5" y2="188.4"/>
					</g>
					<g id="XMLID_9750_">
						<path id="XMLID_22748_" class="st14" d="M223.9,191.3l-1.8,0.1l-1.7,0.5c-0.1,0-0.1,0.2,0,0.2l1.8-0.2l1.7-0.5
							C224,191.5,224,191.3,223.9,191.3z"/>
						<circle id="XMLID_9847_" class="st7" cx="222.7" cy="191.7" r="1.3"/>
						<circle id="XMLID_9846_" class="st13" cx="222.7" cy="191.7" r="1.3"/>
						<circle id="XMLID_9845_" class="st20" cx="222.7" cy="191.5" r="1.3"/>
						<circle id="XMLID_9844_" class="st21" cx="222.7" cy="191.5" r="1.1"/>
						<circle id="XMLID_9843_" class="st22" cx="222.5" cy="191.2" r="0.2"/>
						<circle id="XMLID_9842_" class="st22" cx="222.9" cy="192" r="0.2"/>
						<line id="XMLID_9841_" class="st23" x1="222.4" y1="191.2" x2="222.8" y2="192"/>
						<line id="XMLID_9755_" class="st23" x1="222.5" y1="191.1" x2="222.9" y2="191.9"/>
						<circle id="XMLID_9754_" class="st22" cx="222.3" cy="191.8" r="0.2"/>
						<circle id="XMLID_9753_" class="st22" cx="223.1" cy="191.4" r="0.2"/>
						<line id="XMLID_9752_" class="st23" x1="222.3" y1="191.8" x2="223.1" y2="191.5"/>
						<line id="XMLID_9751_" class="st23" x1="222.2" y1="191.7" x2="223" y2="191.4"/>
					</g>
				</g>
				<g id="XMLID_22677_">
					<g id="XMLID_9737_">
						<path id="XMLID_22733_" class="st14" d="M77.8,185.4l1.8,0.1l1.7,0.5c0.1,0,0.1,0.2,0,0.2l-1.8-0.2l-1.7-0.5
							C77.7,185.5,77.7,185.4,77.8,185.4z"/>
						<circle id="XMLID_9749_" class="st7" cx="79" cy="185.8" r="1.3"/>
						<circle id="XMLID_9748_" class="st13" cx="79" cy="185.7" r="1.3"/>
						<circle id="XMLID_9747_" class="st20" cx="79" cy="185.6" r="1.3"/>
						<circle id="XMLID_9746_" class="st21" cx="79" cy="185.6" r="1.1"/>
						<circle id="XMLID_9745_" class="st22" cx="79.2" cy="185.3" r="0.2"/>
						<circle id="XMLID_9744_" class="st22" cx="78.8" cy="186.1" r="0.2"/>
						<line id="XMLID_9743_" class="st23" x1="79.3" y1="185.3" x2="78.9" y2="186.1"/>
						<line id="XMLID_9742_" class="st23" x1="79.2" y1="185.2" x2="78.8" y2="186"/>
						<circle id="XMLID_9741_" class="st22" cx="79.4" cy="185.9" r="0.2"/>
						<circle id="XMLID_9740_" class="st22" cx="78.6" cy="185.5" r="0.2"/>
						<line id="XMLID_9739_" class="st23" x1="79.4" y1="185.9" x2="78.6" y2="185.5"/>
						<line id="XMLID_9738_" class="st23" x1="79.5" y1="185.8" x2="78.7" y2="185.4"/>
					</g>
					<g id="XMLID_9724_">
						<path id="XMLID_22719_" class="st14" d="M78.4,182.4l1.8,0.1l1.7,0.5c0.1,0,0.1,0.2,0,0.2l-1.8-0.2l-1.7-0.5
							C78.2,182.6,78.3,182.4,78.4,182.4z"/>
						<circle id="XMLID_9736_" class="st7" cx="79.5" cy="182.8" r="1.3"/>
						<circle id="XMLID_9735_" class="st13" cx="79.5" cy="182.8" r="1.3"/>
						<circle id="XMLID_9734_" class="st20" cx="79.5" cy="182.6" r="1.3"/>
						<circle id="XMLID_9733_" class="st21" cx="79.5" cy="182.6" r="1.1"/>
						<circle id="XMLID_9732_" class="st22" cx="79.8" cy="182.3" r="0.2"/>
						<circle id="XMLID_9731_" class="st22" cx="79.4" cy="183.1" r="0.2"/>
						<line id="XMLID_9730_" class="st23" x1="79.8" y1="182.3" x2="79.4" y2="183.1"/>
						<line id="XMLID_9729_" class="st23" x1="79.7" y1="182.3" x2="79.3" y2="183.1"/>
						<circle id="XMLID_9728_" class="st22" cx="80" cy="182.9" r="0.2"/>
						<circle id="XMLID_9727_" class="st22" cx="79.2" cy="182.5" r="0.2"/>
						<line id="XMLID_9726_" class="st23" x1="80" y1="183" x2="79.2" y2="182.6"/>
						<line id="XMLID_9725_" class="st23" x1="80" y1="182.9" x2="79.2" y2="182.5"/>
					</g>
					<g id="XMLID_9689_">
						<path id="XMLID_22705_" class="st14" d="M77.3,188.3l1.8,0.1l1.7,0.5c0.1,0,0.1,0.2,0,0.2l-1.8-0.2l-1.7-0.5
							C77.1,188.5,77.2,188.3,77.3,188.3z"/>
						<circle id="XMLID_9723_" class="st7" cx="78.4" cy="188.7" r="1.3"/>
						<circle id="XMLID_9722_" class="st13" cx="78.4" cy="188.7" r="1.3"/>
						<circle id="XMLID_9721_" class="st20" cx="78.4" cy="188.5" r="1.3"/>
						<circle id="XMLID_9698_" class="st21" cx="78.4" cy="188.5" r="1.1"/>
						<circle id="XMLID_9697_" class="st22" cx="78.7" cy="188.2" r="0.2"/>
						<circle id="XMLID_9696_" class="st22" cx="78.3" cy="189" r="0.2"/>
						<line id="XMLID_9695_" class="st23" x1="78.7" y1="188.2" x2="78.3" y2="189"/>
						<line id="XMLID_9694_" class="st23" x1="78.6" y1="188.2" x2="78.2" y2="189"/>
						<circle id="XMLID_9693_" class="st22" cx="78.9" cy="188.8" r="0.2"/>
						<circle id="XMLID_9692_" class="st22" cx="78.1" cy="188.4" r="0.2"/>
						<line id="XMLID_9691_" class="st23" x1="78.9" y1="188.9" x2="78.1" y2="188.5"/>
						<line id="XMLID_9690_" class="st23" x1="78.9" y1="188.8" x2="78.1" y2="188.4"/>
					</g>
					<g id="XMLID_9676_">
						<path id="XMLID_22691_" class="st14" d="M76.7,191.3l1.8,0.1l1.7,0.5c0.1,0,0.1,0.2,0,0.2l-1.8-0.2l-1.7-0.5
							C76.6,191.5,76.6,191.3,76.7,191.3z"/>
						<circle id="XMLID_9688_" class="st7" cx="77.9" cy="191.7" r="1.3"/>
						<circle id="XMLID_9687_" class="st13" cx="77.9" cy="191.7" r="1.3"/>
						<circle id="XMLID_9686_" class="st20" cx="77.9" cy="191.5" r="1.3"/>
						<circle id="XMLID_9685_" class="st21" cx="77.9" cy="191.5" r="1.1"/>
						<circle id="XMLID_9684_" class="st22" cx="78.1" cy="191.2" r="0.2"/>
						<circle id="XMLID_9683_" class="st22" cx="77.7" cy="192" r="0.2"/>
						<line id="XMLID_9682_" class="st23" x1="78.2" y1="191.2" x2="77.8" y2="192"/>
						<line id="XMLID_9681_" class="st23" x1="78.1" y1="191.1" x2="77.7" y2="191.9"/>
						<circle id="XMLID_9680_" class="st22" cx="78.3" cy="191.8" r="0.2"/>
						<circle id="XMLID_9679_" class="st22" cx="77.5" cy="191.4" r="0.2"/>
						<line id="XMLID_9678_" class="st23" x1="78.3" y1="191.8" x2="77.5" y2="191.5"/>
						<line id="XMLID_9677_" class="st23" x1="78.4" y1="191.7" x2="77.6" y2="191.4"/>
					</g>
				</g>
			</g>
		</g>
		<g id="XMLID_22655_">
			<g id="XMLID_22656_">
				<g id="XMLID_22667_">
					<g id="XMLID_22670_">
						<path id="XMLID_22674_" class="st7" d="M120.8,50.6c0,0-1.4,1.1-0.8,2.7s21.1,53.7,24.7,60.8c1.2,2.4,2.7,5.6,4.2,8.7
							c1.1,2.4,1.9-2.9,1.9-2.9l-1.1-5l-24.5-61.1L120.8,50.6z"/>
						<path id="XMLID_22673_" class="st4" d="M121.2,50.6c0,0-1.5,0.4-0.9,2s21.2,54.3,24.8,61.4c1.2,2.3,2.5,5.2,3.9,8.1
							c0.7,1.5,1.8-3.9,1.8-3.9l-0.8-3.4l-24.5-61.1L121.2,50.6z"/>
						<polygon id="XMLID_22672_" class="st7" points="129.9,33.1 125.2,50.3 125.2,51 126.1,52.9 133.8,56 135.7,56.1 130.2,37 
													"/>
						<polygon id="XMLID_22671_" class="st4" points="129.9,33.1 125.6,50.4 125.6,51.1 127.1,54.9 133.6,58.2 136.9,56.1 131.4,37 
													"/>
					</g>
					<path id="XMLID_22669_" class="st6" d="M139.9,25.3c0,0-7.9,2.9-9.5,6.5S126,50.8,126,50.8l8,3.7c0,0-12.1-4.7-13.2-3.8
						c-0.7,0.6-0.1,2.4,1.8,6.3c1.4,2.8,14.9,40.7,20.9,52.8c2.3,4.6,4.1,8.7,5.6,12.2c0.6,1.3,3.1-2.7,3-3.3
						c-0.3-1.4-0.6-1.4-0.9-3.4c-2.4-14.2-6.1-49.7-8.2-61c-2.4-12.8-4.4-19.3-4.4-23.1S139.9,25.3,139.9,25.3z"/>
					<line id="XMLID_22668_" class="st19" x1="141.1" y1="44.3" x2="134.1" y2="54.4"/>
				</g>
				<g id="XMLID_22664_">
					<polygon id="XMLID_22666_" class="st7" points="149.9,107 147.3,117.3 148.1,119.3 150.1,110.5 					"/>
					<polygon id="XMLID_22665_" class="st4" points="150.3,107.9 147.6,118.2 148.4,120.2 150.5,111.5 					"/>
				</g>
				<g id="XMLID_22659_">
					<path id="XMLID_22663_" class="st7" d="M179.3,50.6c0,0,1.4,1.1,0.8,2.7c-0.6,1.6-21.1,53.7-24.7,60.8c-3.6,7.1-9.2,20-9.2,20
						l4.3-19.3L175,53.8L179.3,50.6z"/>
					<path id="XMLID_22662_" class="st4" d="M179,50.6c0,0,1.5,0.4,0.9,2c-0.6,1.6-21.2,54.3-24.8,61.4c-3.6,7.1-9,19.8-9,19.8
						l4.1-19l24.5-61.1L179,50.6z"/>
					<polygon id="XMLID_22661_" class="st7" points="170.3,33.1 175,50.3 175,51 174.1,52.9 166.4,56 164.5,56.1 169.9,37 					"/>
					<polygon id="XMLID_22660_" class="st4" points="170.3,33.1 174.6,50.4 174.6,51.1 173.1,54.9 166.6,58.2 163.2,56.1 168.7,37 
											"/>
				</g>
				<path id="XMLID_22658_" class="st6" d="M160.2,25.3c0,0,7.9,2.9,9.5,6.5s4.4,18.9,4.4,18.9l-8,3.7c0,0,12.1-4.7,13.2-3.8
					c0.7,0.6,0.1,2.4-1.8,6.3c-1.4,2.8-14.9,40.7-20.9,52.8c-6,12.2-9.1,20.7-10.5,24.1c0,0-0.3-1.7,1.9-13.5
					c2.2-11.9,6.7-53.3,9.1-66.1c2.4-12.8,4.4-19.3,4.4-23.1S160.2,25.3,160.2,25.3z"/>
				<line id="XMLID_22657_" class="st19" x1="159.1" y1="44.3" x2="166.1" y2="54.4"/>
			</g>
		</g>
		<path id="XMLID_22654_" class="st14" d="M174.1,54.3l-1.2,0.4c-0.3,0.1-0.7,0.2-1,0.4l-1.1,0.5c-0.1,0.1,0,0.2,0.1,0.2l1.2-0.4
			c0.3-0.1,0.7-0.2,1-0.4l1.2-0.6C174.3,54.4,174.3,54.2,174.1,54.3z"/>
	</g>
</g>
</svg>
