<?xml version="1.0" encoding="utf-8"?>
<!-- Generator: Adobe Illustrator 19.0.0, SVG Export Plug-In . SVG Version: 6.00 Build 0)  -->
<svg version="1.1" id="Layer_1" xmlns="http://www.w3.org/2000/svg" xmlns:xlink="http://www.w3.org/1999/xlink" x="0px" y="0px"
	 viewBox="0 0 300 300" style="enable-background:new 0 0 300 300;" xml:space="preserve">
<style type="text/css">
	.st0{clip-path:url(#SVGID_2_);}
	.st1{fill:#9AA0BB;}
	.st2{fill:#FFFFFF;stroke:#404041;stroke-miterlimit:10;}
	.st3{fill:none;stroke:#808184;stroke-width:0.5;stroke-miterlimit:10;}
	.st4{fill:none;stroke:#808184;stroke-width:0.5;stroke-miterlimit:10;stroke-dasharray:0.9958,1.9916;}
	.st5{fill:#F1F1F2;}
	.st6{fill:#DBDCDD;}
	.st7{fill:#F1F1F2;stroke:#404041;stroke-miterlimit:10;}
	.st8{fill:#929497;}
	.st9{fill:#C5C7C9;}
	.st10{fill:none;stroke:#404041;stroke-miterlimit:10;}
	.st11{fill:none;stroke:#808184;stroke-width:0.5;stroke-miterlimit:10;stroke-dasharray:0.997,1.994;}
	.st12{fill:none;stroke:#808184;stroke-width:0.5;stroke-miterlimit:10;stroke-dasharray:1,2;}
	.st13{fill:#FFFFFF;stroke:#404041;stroke-linejoin:round;stroke-miterlimit:10;}
	.st14{fill:#FFFFFF;stroke:#808184;stroke-width:0.5;stroke-miterlimit:10;stroke-dasharray:1,2;}
	.st15{fill:none;stroke:#808184;stroke-width:0.5;stroke-miterlimit:10;stroke-dasharray:1.0035,2.0069;}
	.st16{fill:#404041;stroke:#D0D2D3;stroke-width:0.5;stroke-miterlimit:10;}
	.st17{fill:#FFFFFF;stroke:#6D6E70;stroke-miterlimit:10;}
	.st18{fill:#FFFFFF;stroke:#929497;stroke-width:0.25;stroke-miterlimit:10;}
	.st19{fill:#404041;}
	.st20{fill:none;stroke:#6D6E70;stroke-width:0.5;stroke-miterlimit:10;}
	.st21{fill:#FFFFFF;stroke:#6D6E70;stroke-width:0.5;stroke-miterlimit:10;}
	.st22{fill:none;stroke:#6D6E70;stroke-width:0.25;stroke-miterlimit:10;}
</style>
<g>
	<defs>
		<circle id="SVGID_1_" cx="150.1" cy="149.6" r="150"/>
	</defs>
	<use xlink:href="#SVGID_1_"  style="overflow:visible;fill:#DDDDDD;"/>
	<clipPath id="SVGID_2_">
		<use xlink:href="#SVGID_1_"  style="overflow:visible;"/>
	</clipPath>
	<g id="XMLID_1_" class="st0">
		<defs>
			<rect id="XMLID_4932_" x="-13.5" width="327.1" height="300"/>
		</defs>
		<clipPath id="XMLID_6_">
			<use xlink:href="#XMLID_4932_"  style="overflow:visible;"/>
		</clipPath>
	</g>
	<g class="st0">
		<path class="st1" d="M150.1,4.6c38.7,0,75.1,15.1,102.5,42.5c27.4,27.4,42.5,63.8,42.5,102.5s-15.1,75.1-42.5,102.5
			c-27.4,27.4-63.8,42.5-102.5,42.5S75,279.5,47.6,252.1C20.2,224.7,5.1,188.3,5.1,149.6S20.2,74.5,47.6,47.1
			C75,19.7,111.4,4.6,150.1,4.6 M150.1-0.4c-82.8,0-150,67.2-150,150s67.2,150,150,150s150-67.2,150-150S232.9-0.4,150.1-0.4
			L150.1-0.4z"/>
	</g>
	<g id="XMLID_22185_" class="st0">
		<g id="XMLID_22205_">
			<path id="XMLID_22450_" class="st2" d="M157.5,173.5c-1.3-29.2-2.7-21.4-2.7-21.4l-2.5-21l-1.9-4.3c-3-15.1-6.7-33.7-7.5-38.8
				c-1.2-8.3-5.3-34.7-5.3-34.7c-2.5-16-1.4-23.9-1.4-23.9s-12,6.9-14.5,8.5c-1.3,0.8-12.4,5.7-21.8,10.1
				c-11.5,5.3-13.1,8.1-13.1,8.1c8.8,5.5,10.7,25.1,10.8,48.2s-6.2,62.4-7,82.9c-0.8,21.3-5.2,63.9-5.2,63.9s3.8,7,75.1,7
				c0.5,0,0.8-0.5,0.8-1C161,249.6,158.7,200.8,157.5,173.5z"/>
			<g id="XMLID_22444_">
				<g>
					<line class="st3" x1="109.1" y1="121.5" x2="109.1" y2="122"/>
					<line class="st4" x1="109.1" y1="124" x2="109.1" y2="185.7"/>
					<line class="st3" x1="109.1" y1="186.7" x2="109.1" y2="187.2"/>
				</g>
			</g>
			<path id="XMLID_22443_" class="st5" d="M95.3,186.1c11.5,0,16.7,0,16.7,0v-0.8c0,0-5.2,0-16.7,0c-1.7,0-3.2,0-4.6-0.1
				c0,0.3,0,0.6,0,0.8C92.1,186.1,93.6,186.1,95.3,186.1z"/>
			<path id="XMLID_22442_" class="st6" d="M90.7,186c0,0.4,0,0.8-0.1,1.2c0,1-0.1,2.1-0.1,3.2l18.8,0.8l2.7-3.2v-1.8
				c0,0-5.2,0-16.7,0C93.6,186.1,92.1,186.1,90.7,186z"/>
			<g id="XMLID_22418_">
				<polygon id="XMLID_22441_" class="st7" points="163.6,32.3 169.1,38.5 149.9,131.1 130.8,38.5 136.1,32.3 				"/>
				<path id="XMLID_22440_" class="st2" d="M163.8,29.3c0,0,0.1-0.3-13.8-0.3c0,0-0.1,0-0.1,0c0,0-0.1,0-0.1,0
					c-13.9,0-13.8,0.3-13.8,0.3l-1.7,6c0,0,2.3,0.6,7.8,0.8c2.1,0.1,4.9,0.1,8,0.1c3.2,0,5.6-0.1,7.8-0.1c5.5-0.2,7.8-0.8,7.8-0.8
					L163.8,29.3z"/>
				<g id="XMLID_22436_">
					<path id="XMLID_22439_" class="st8" d="M138.3,29.2c0,0-1.4,1.6-1.3,3.7s0.2,2.7,0.2,2.7h-1.5l0.2-6.2L138.3,29.2z"/>
					<path id="XMLID_22438_" class="st5" d="M138.9,29.2c-0.4,0-0.7,0-1,0c-0.8,1.4-0.8,5.2-0.8,6.6c0.4,0,0.9,0.1,1.5,0.1
						c-0.1-0.4-0.2-1.3-0.2-2.8C138.4,31.2,138.8,29.8,138.9,29.2z"/>
					<path id="XMLID_22437_" class="st9" d="M138,29.2c-0.2,0-0.4,0-0.6,0c-0.3,0.3-0.7,0.8-0.8,1.6c-0.2,1.7-0.2,3.9-0.3,4.9
						c0.4,0,0.9,0.1,1.5,0.1C137.7,34.4,137.2,30.5,138,29.2z"/>
				</g>
				<g id="XMLID_22432_">
					<path id="XMLID_22435_" class="st8" d="M161.2,29.2c0,0,1.4,1.6,1.3,3.7s-0.2,2.7-0.2,2.7h3.2l-1.9-6.2L161.2,29.2z"/>
					<path id="XMLID_22434_" class="st5" d="M160.6,29.2c0.4,0,0.7,0,1,0c0.8,1.4,0.8,5.2,0.8,6.6c-0.4,0-0.9,0.1-1.5,0.1
						c0.1-0.4,0.2-1.3,0.2-2.8C161.1,31.2,160.8,29.8,160.6,29.2z"/>
					<path id="XMLID_22433_" class="st9" d="M161.5,29.2c0.2,0,0.4,0,0.6,0c0.3,0.3,0.7,0.8,0.8,1.6c0.2,1.7,0.2,3.9,0.3,4.9
						c-0.4,0-0.9,0.1-1.5,0.1C161.8,34.4,162.3,30.5,161.5,29.2z"/>
				</g>
				<path id="XMLID_22431_" class="st10" d="M163.8,29.3c0,0,0.1-0.3-13.8-0.3c0,0-0.1,0-0.1,0c0,0-0.1,0-0.1,0
					c-13.9,0-13.8,0.3-13.8,0.3l-1.7,6c0,0,2.3,0.6,7.8,0.8c2.1,0.1,4.9,0.1,8,0.1c3.2,0,5.6-0.1,7.8-0.1c5.5-0.2,7.8-0.8,7.8-0.8
					L163.8,29.3z"/>
				<g id="XMLID_22428_">
					<polygon id="XMLID_22430_" class="st8" points="136,48.8 150,80.9 164.3,48.8 154.4,121.3 149.5,126.4 145.6,120.6 					"/>
					<polygon id="XMLID_22429_" class="st9" points="149.9,82.4 164.5,48.7 150,78.6 135.6,48.7 					"/>
				</g>
				<g id="XMLID_22422_">
					<g>
						<line class="st3" x1="149.9" y1="37.1" x2="149.9" y2="37.6"/>
						<line class="st11" x1="149.9" y1="39.6" x2="149.9" y2="122.4"/>
						<line class="st3" x1="149.9" y1="123.4" x2="149.9" y2="123.9"/>
					</g>
				</g>
				<path id="XMLID_22421_" class="st8" d="M142.8,38.6l0.5,0.5c0,0,3.6-0.3,6.7-0.3s6.9,0.3,6.9,0.3l0.3-0.5H142.8z"/>
				<path id="XMLID_22420_" class="st9" d="M143.1,39.1l0.4,0.4c0,0,3.4-0.3,6.4-0.3s6.8,0.3,6.8,0.3l0.2-0.4l-7-0.1L143.1,39.1z"/>
				<path id="XMLID_22419_" class="st2" d="M150,36.3c-3.2,0-5.8,0-7.9-0.1l0.9,2.4h7h0.1h7l0.9-2.4C155.8,36.3,153.1,36.3,150,36.3
					z"/>
			</g>
			<g id="XMLID_22415_">
				<path id="XMLID_22417_" class="st5" d="M97.8,145.8c3.3-22.9,1.9-41.2-0.4-55.6c0.4,2.8,0.7,7.9,0.7,8.6
					c0.4,4.9,0.8,9.9,0.6,14.7c-0.1,10.2-0.8,21.8-2.7,34.5c-1.6,10.9-2.7,15.8-3.6,17.6c-0.2,1.5-0.3,3.1-0.5,4.5
					C94.2,170.1,95.6,160.5,97.8,145.8z"/>
				<path id="XMLID_22416_" class="st9" d="M95.7,136.5c-1,9.8-2.2,19.9-3.2,29.1c0.8-1.9,2-6.7,3.6-17.6
					c1.8-12.7,2.7-23.2,2.7-40.3l0,0c0.2-6.2-1.5-17.7-1.5-17.2C98.3,104.2,96.7,128.4,95.7,136.5z"/>
			</g>
			<path id="XMLID_22414_" class="st2" d="M97.6,104.3c-0.2-21.6-1.8-40.3-9.2-47l-1.6-0.9c0,0-2.4-0.8-4.9,11.1
				c-2.5,11.9-29.3,180.2-29.3,180.2s4.4,3.9,13.7,4.2c9.2,0.3,13.9-1.9,13.9-1.9l14.5-105C96.3,130.2,97.7,115.4,97.6,104.3z"/>
			<path id="XMLID_22413_" class="st2" d="M97.5,238.5c8,0,14.5-6.5,14.5-14.5V187c0,0-4.3,0-18.1,0c-1.2,0-2.2,0-3.2,0
				c0,0.1,0,0.1,0,0.2c-0.5,13.9-2.6,36.8-3.9,51.1c1.2,0.1,2.6,0.2,3.9,0.2H97.5z"/>
			<path id="XMLID_22412_" class="st12" d="M86.7,237.9c0.9,0.1,1.8,0.1,2.9,0.1h7c8.3,0,15-6.4,15-14.3v-36.3c0,0-4.4,0-18.7,0
				c-0.8,0-1.6,0-2.3,0"/>
			<g id="XMLID_22409_">
				<polygon id="XMLID_22411_" class="st5" points="140,99.8 119.2,141.8 119.2,256.7 129.5,257.1 144.5,104.8 				"/>
				<polygon id="XMLID_22410_" class="st9" points="140.8,99.8 120,141.8 120,256.7 130.3,257.1 145.3,104.8 				"/>
			</g>
			<path id="XMLID_22408_" class="st13" d="M202.4,104.3c0.2-23.1,2-42.7,10.8-48.2c0,0-1.6-2.8-13.1-8.1
				c-10.8-5-19.8-8.9-23.4-10.9c-0.2-0.1-0.4-0.2-0.6-0.3c-3.1-1.9-12.3-7.3-12.3-7.3s8,7.8,0.5,24.2c0,0-1.2,3.8-5.8,15.1
				c-2.1,5-37.3,73.9-37.3,73.9v116c0,0,38.3,1.1,58.1,0s34-7.4,34-7.4s-3-42.7-3.8-63.9C208.6,166.7,202.2,127.4,202.4,104.3z"/>
			<g id="XMLID_22325_">
				<g id="XMLID_22405_">
					<path id="XMLID_22407_" class="st5" d="M175.5,188v-2.7c0,0,5.2,0,16.7,0s16.9-1.5,16.9-1.5l0.2,6.1l-31,1.3L175.5,188z"/>
					<path id="XMLID_22406_" class="st6" d="M175.5,188.8v-2.7c0,0,5.2,0,16.7,0s16.9-1.5,16.9-1.5l0.2,6.1l-31,1.3L175.5,188.8z"/>
				</g>
				<path id="XMLID_22404_" class="st5" d="M209.6,189.2c0,0-6.3,0.4-16.5,0.4c-10.2,0-16.8-0.4-16.8-0.4l0.7,0.5
					c0,0,13.9,0.9,16.9,0.9c3,0.1,15.4-0.7,15.4-0.7L209.6,189.2z"/>
				<path id="XMLID_22403_" class="st9" d="M209.6,189.6c0,0-6.3,0.4-16.5,0.4c-10.2,0-16.8-0.4-16.8-0.4l0.7,0.5
					c0,0,13.9,0.9,16.9,0.9c3,0.1,15.4-1,15.4-1L209.6,189.6z"/>
				<path id="XMLID_22402_" class="st14" d="M209.6,189.5v0.8c0,0.3-0.3,0.5-0.6,0.5l-12,0.7c-2.8,0.1-5.5,0.1-8.3,0l-12.1-0.7
					c-0.3,0-0.6-0.2-0.6-0.5v-0.8c0,0,1.6,1,16.8,1S209.6,189.5,209.6,189.5z"/>
				<polygon id="XMLID_22401_" class="st5" points="196.3,106.6 196.3,105.1 163.3,106.1 163.3,107.5 				"/>
				<polygon id="XMLID_22400_" class="st9" points="196.3,107.1 196.3,105.7 163.3,106.7 163.3,108.1 				"/>
				<path id="XMLID_22399_" class="st2" d="M196.2,106.3v7.6c0,0.3-0.2,0.5-0.5,0.5l-31.6,0.7c-0.3,0-0.5-0.2-0.5-0.5v-7.4
					L196.2,106.3z"/>
				<line id="XMLID_22398_" class="st12" x1="163.6" y1="107.6" x2="196.2" y2="106.7"/>
				<g id="XMLID_22392_">
					<g>
						<line class="st3" x1="182.2" y1="121.5" x2="182.2" y2="122"/>
						<line class="st15" x1="182.2" y1="124" x2="182.2" y2="186.2"/>
						<line class="st3" x1="182.2" y1="187.2" x2="182.2" y2="187.7"/>
					</g>
				</g>
				<g id="XMLID_9529_">
					<circle id="XMLID_9544_" class="st5" cx="165.6" cy="142.3" r="3.3"/>
					<circle id="XMLID_9543_" class="st6" cx="165.7" cy="142.2" r="3.2"/>
					<polygon id="XMLID_9542_" class="st16" points="169.8,142.1 165.7,141.3 161.2,142.1 165.8,142.9 					"/>
					<circle id="XMLID_9541_" class="st17" cx="165.6" cy="141.7" r="3.2"/>
					<circle id="XMLID_9540_" class="st18" cx="165.6" cy="141.7" r="2.8"/>
					<circle id="XMLID_9539_" class="st19" cx="165.1" cy="141" r="0.4"/>
					<circle id="XMLID_9538_" class="st19" cx="166.1" cy="143" r="0.4"/>
					<line id="XMLID_9537_" class="st20" x1="164.9" y1="141" x2="165.9" y2="143"/>
					<line id="XMLID_9536_" class="st20" x1="165.2" y1="140.9" x2="166.2" y2="142.9"/>
					<line id="XMLID_9535_" class="st20" x1="164.9" y1="141" x2="165.9" y2="143"/>
					<line id="XMLID_9534_" class="st20" x1="165.2" y1="140.9" x2="166.2" y2="142.9"/>
					<circle id="XMLID_9533_" class="st19" cx="164.6" cy="142.5" r="0.4"/>
					<circle id="XMLID_9532_" class="st19" cx="166.6" cy="141.5" r="0.4"/>
					<line id="XMLID_9531_" class="st20" x1="164.6" y1="142.7" x2="166.6" y2="141.7"/>
					<line id="XMLID_9530_" class="st20" x1="164.5" y1="142.4" x2="166.5" y2="141.4"/>
				</g>
				<g id="XMLID_9513_">
					<circle id="XMLID_9528_" class="st5" cx="129.7" cy="142.3" r="3.3"/>
					<circle id="XMLID_9527_" class="st6" cx="129.7" cy="142.2" r="3.2"/>
					<polygon id="XMLID_9526_" class="st16" points="133.9,142.1 129.8,141.3 125.3,142.1 129.8,142.9 					"/>
					<circle id="XMLID_9525_" class="st17" cx="129.7" cy="141.7" r="3.2"/>
					<circle id="XMLID_9524_" class="st18" cx="129.7" cy="141.7" r="2.8"/>
					<circle id="XMLID_9523_" class="st19" cx="129.2" cy="141" r="0.4"/>
					<circle id="XMLID_9522_" class="st19" cx="130.1" cy="143" r="0.4"/>
					<line id="XMLID_9521_" class="st20" x1="129" y1="141" x2="130" y2="143"/>
					<line id="XMLID_9520_" class="st20" x1="129.3" y1="140.9" x2="130.2" y2="142.9"/>
					<line id="XMLID_9519_" class="st20" x1="129" y1="141" x2="130" y2="143"/>
					<line id="XMLID_9518_" class="st20" x1="129.3" y1="140.9" x2="130.2" y2="142.9"/>
					<circle id="XMLID_9517_" class="st19" cx="128.7" cy="142.5" r="0.4"/>
					<circle id="XMLID_9516_" class="st19" cx="130.6" cy="141.5" r="0.4"/>
					<line id="XMLID_9515_" class="st20" x1="128.7" y1="142.7" x2="130.6" y2="141.7"/>
					<line id="XMLID_9514_" class="st20" x1="128.5" y1="142.4" x2="130.5" y2="141.4"/>
				</g>
				<g id="XMLID_9497_">
					<circle id="XMLID_9512_" class="st5" cx="165.6" cy="188.4" r="3.3"/>
					<circle id="XMLID_9511_" class="st6" cx="165.7" cy="188.3" r="3.2"/>
					<polygon id="XMLID_9510_" class="st16" points="169.8,188.2 165.7,187.4 161.2,188.2 165.8,189 					"/>
					<circle id="XMLID_9509_" class="st17" cx="165.6" cy="187.8" r="3.2"/>
					<circle id="XMLID_9508_" class="st18" cx="165.6" cy="187.8" r="2.8"/>
					<circle id="XMLID_9507_" class="st19" cx="165.1" cy="187.1" r="0.4"/>
					<circle id="XMLID_9506_" class="st19" cx="166.1" cy="189.1" r="0.4"/>
					<line id="XMLID_9505_" class="st20" x1="164.9" y1="187.1" x2="165.9" y2="189.1"/>
					<line id="XMLID_9504_" class="st20" x1="165.2" y1="187" x2="166.2" y2="189"/>
					<line id="XMLID_9503_" class="st20" x1="164.9" y1="187.1" x2="165.9" y2="189.1"/>
					<line id="XMLID_9502_" class="st20" x1="165.2" y1="187" x2="166.2" y2="189"/>
					<circle id="XMLID_9501_" class="st19" cx="164.6" cy="188.6" r="0.4"/>
					<circle id="XMLID_9500_" class="st19" cx="166.6" cy="187.6" r="0.4"/>
					<line id="XMLID_9499_" class="st20" x1="164.6" y1="188.8" x2="166.6" y2="187.8"/>
					<line id="XMLID_9498_" class="st20" x1="164.5" y1="188.5" x2="166.5" y2="187.5"/>
				</g>
				<g id="XMLID_9481_">
					<circle id="XMLID_9496_" class="st5" cx="129.7" cy="188.4" r="3.3"/>
					<circle id="XMLID_9495_" class="st6" cx="129.7" cy="188.3" r="3.2"/>
					<polygon id="XMLID_9494_" class="st16" points="133.9,188.2 129.8,187.4 125.3,188.2 129.8,189 					"/>
					<circle id="XMLID_9493_" class="st17" cx="129.7" cy="187.8" r="3.2"/>
					<circle id="XMLID_9492_" class="st18" cx="129.7" cy="187.8" r="2.8"/>
					<circle id="XMLID_9491_" class="st19" cx="129.2" cy="187.1" r="0.4"/>
					<circle id="XMLID_9490_" class="st19" cx="130.1" cy="189.1" r="0.4"/>
					<line id="XMLID_9489_" class="st20" x1="129" y1="187.1" x2="130" y2="189.1"/>
					<line id="XMLID_9488_" class="st20" x1="129.3" y1="187" x2="130.2" y2="189"/>
					<line id="XMLID_9487_" class="st20" x1="129" y1="187.1" x2="130" y2="189.1"/>
					<line id="XMLID_9486_" class="st20" x1="129.3" y1="187" x2="130.2" y2="189"/>
					<circle id="XMLID_9485_" class="st19" cx="128.7" cy="188.6" r="0.4"/>
					<circle id="XMLID_9484_" class="st19" cx="130.6" cy="187.6" r="0.4"/>
					<line id="XMLID_9483_" class="st20" x1="128.7" y1="188.8" x2="130.6" y2="187.8"/>
					<line id="XMLID_9482_" class="st20" x1="128.5" y1="188.5" x2="130.5" y2="187.5"/>
				</g>
				<path id="XMLID_22327_" class="st2" d="M209.3,185.3c0,0-1.7,1.7-15.6,1.7c-13.9,0-18.1,0-18.1,0v36.9c0,8,6.5,14.5,14.5,14.5
					h6.9c8.7,0,15.1-2.9,15.1-2.9L209.3,185.3z"/>
				<path id="XMLID_22326_" class="st12" d="M209.1,186.2c0,0-0.2,1.3-14.5,1.3s-18.7,0-18.7,0v36.3c0,7.9,6.7,14.3,15,14.3h7
					c8.9,0,13.6-3.1,13.6-3.1"/>
			</g>
			<g id="XMLID_22322_">
				<path id="XMLID_22324_" class="st5" d="M202.2,145.8c-3.3-22.9-1.9-41.2,0.4-55.6c-0.4,2.8-0.7,7.9-0.7,8.6
					c-0.4,4.9-0.8,9.9-0.6,14.7c0.1,10.2,0.8,21.8,2.7,34.5c1.6,10.9,2.7,15.8,3.6,17.6c0.2,1.5,0.3,3.1,0.5,4.5
					C205.7,170.1,204.3,160.5,202.2,145.8z"/>
				<path id="XMLID_22323_" class="st9" d="M204.2,136.5c1,9.8,2.2,19.9,3.2,29.1c-0.8-1.9-2-6.7-3.6-17.6
					c-1.8-12.7-2.7-23.2-2.7-40.3l0,0c-0.2-6.2,1.5-17.7,1.5-17.2C201.7,104.2,203.3,128.4,204.2,136.5z"/>
			</g>
			<path id="XMLID_22321_" class="st2" d="M218.1,67.1c-2.5-11.9-4.9-11.1-4.9-11.1l0,0c-8.8,5.5-10.7,25.1-10.8,48.2
				c-0.1,10.7,1.3,25,2.8,39.3l14.6,106.1c0,0,4.7,2.3,13.9,1.9c9.2-0.3,13.7-4.2,13.7-4.2S220.6,79,218.1,67.1z"/>
			<g id="XMLID_22206_">
				<g id="XMLID_22264_">
					<g id="XMLID_9468_">
						<path id="XMLID_22320_" class="st16" d="M244.1,236.5l-2.3,0.2l-2.2,0.7c-0.1,0-0.1,0.3,0,0.2l2.3-0.2l2.2-0.7
							C244.2,236.7,244.2,236.5,244.1,236.5z"/>
						<circle id="XMLID_9480_" class="st5" cx="242.6" cy="237.1" r="1.7"/>
						<circle id="XMLID_9479_" class="st6" cx="242.6" cy="237" r="1.7"/>
						<circle id="XMLID_9478_" class="st21" cx="242.6" cy="236.8" r="1.7"/>
						<circle id="XMLID_9477_" class="st18" cx="242.6" cy="236.8" r="1.4"/>
						<circle id="XMLID_9476_" class="st19" cx="242.3" cy="236.4" r="0.2"/>
						<circle id="XMLID_9475_" class="st19" cx="242.8" cy="237.4" r="0.2"/>
						<line id="XMLID_9474_" class="st22" x1="242.2" y1="236.4" x2="242.7" y2="237.4"/>
						<line id="XMLID_9473_" class="st22" x1="242.3" y1="236.3" x2="242.8" y2="237.4"/>
						<circle id="XMLID_9472_" class="st19" cx="242" cy="237.1" r="0.2"/>
						<circle id="XMLID_9471_" class="st19" cx="243" cy="236.6" r="0.2"/>
						<line id="XMLID_9470_" class="st22" x1="242" y1="237.2" x2="243" y2="236.7"/>
						<line id="XMLID_9469_" class="st22" x1="242" y1="237.1" x2="243" y2="236.6"/>
					</g>
					<g id="XMLID_9455_">
						<path id="XMLID_22306_" class="st16" d="M243.3,232.7l-2.3,0.2l-2.2,0.7c-0.1,0-0.1,0.3,0,0.2l2.3-0.2l2.2-0.7
							C243.5,232.9,243.5,232.7,243.3,232.7z"/>
						<circle id="XMLID_9467_" class="st5" cx="241.8" cy="233.2" r="1.7"/>
						<circle id="XMLID_9466_" class="st6" cx="241.9" cy="233.2" r="1.7"/>
						<circle id="XMLID_9465_" class="st21" cx="241.8" cy="232.9" r="1.7"/>
						<circle id="XMLID_9464_" class="st18" cx="241.8" cy="232.9" r="1.4"/>
						<circle id="XMLID_9463_" class="st19" cx="241.6" cy="232.5" r="0.2"/>
						<circle id="XMLID_9462_" class="st19" cx="242.1" cy="233.6" r="0.2"/>
						<line id="XMLID_9461_" class="st22" x1="241.5" y1="232.5" x2="242" y2="233.6"/>
						<line id="XMLID_9460_" class="st22" x1="241.6" y1="232.5" x2="242.1" y2="233.5"/>
						<circle id="XMLID_9459_" class="st19" cx="241.3" cy="233.3" r="0.2"/>
						<circle id="XMLID_9458_" class="st19" cx="242.3" cy="232.8" r="0.2"/>
						<line id="XMLID_9457_" class="st22" x1="241.3" y1="233.4" x2="242.3" y2="232.9"/>
						<line id="XMLID_9456_" class="st22" x1="241.2" y1="233.3" x2="242.3" y2="232.8"/>
					</g>
					<g id="XMLID_9442_">
						<path id="XMLID_22292_" class="st16" d="M244.8,240.4l-2.3,0.2l-2.2,0.7c-0.1,0-0.1,0.3,0,0.2l2.3-0.2l2.2-0.7
							C245,240.6,244.9,240.4,244.8,240.4z"/>
						<circle id="XMLID_9454_" class="st5" cx="243.3" cy="240.9" r="1.7"/>
						<circle id="XMLID_9453_" class="st6" cx="243.3" cy="240.8" r="1.7"/>
						<circle id="XMLID_9452_" class="st21" cx="243.3" cy="240.6" r="1.7"/>
						<circle id="XMLID_9451_" class="st18" cx="243.3" cy="240.6" r="1.4"/>
						<circle id="XMLID_9450_" class="st19" cx="243" cy="240.2" r="0.2"/>
						<circle id="XMLID_9449_" class="st19" cx="243.5" cy="241.2" r="0.2"/>
						<line id="XMLID_9448_" class="st22" x1="242.9" y1="240.2" x2="243.4" y2="241.2"/>
						<line id="XMLID_9447_" class="st22" x1="243" y1="240.1" x2="243.5" y2="241.2"/>
						<circle id="XMLID_9446_" class="st19" cx="242.7" cy="241" r="0.2"/>
						<circle id="XMLID_9445_" class="st19" cx="243.8" cy="240.5" r="0.2"/>
						<line id="XMLID_9444_" class="st22" x1="242.7" y1="241.1" x2="243.8" y2="240.6"/>
						<line id="XMLID_9443_" class="st22" x1="242.7" y1="240.9" x2="243.7" y2="240.4"/>
					</g>
					<g id="XMLID_9429_">
						<path id="XMLID_22278_" class="st16" d="M245.5,244.2l-2.3,0.2l-2.2,0.7c-0.1,0-0.1,0.3,0,0.2l2.3-0.2l2.2-0.7
							C245.7,244.4,245.6,244.2,245.5,244.2z"/>
						<circle id="XMLID_9441_" class="st5" cx="244" cy="244.7" r="1.7"/>
						<circle id="XMLID_9440_" class="st6" cx="244" cy="244.6" r="1.7"/>
						<circle id="XMLID_9439_" class="st21" cx="244" cy="244.4" r="1.7"/>
						<circle id="XMLID_9438_" class="st18" cx="244" cy="244.4" r="1.4"/>
						<circle id="XMLID_9437_" class="st19" cx="243.7" cy="244" r="0.2"/>
						<circle id="XMLID_9436_" class="st19" cx="244.2" cy="245.1" r="0.2"/>
						<line id="XMLID_9435_" class="st22" x1="243.6" y1="244" x2="244.1" y2="245.1"/>
						<line id="XMLID_9434_" class="st22" x1="243.8" y1="244" x2="244.3" y2="245"/>
						<circle id="XMLID_9433_" class="st19" cx="243.4" cy="244.8" r="0.2"/>
						<circle id="XMLID_9432_" class="st19" cx="244.5" cy="244.3" r="0.2"/>
						<line id="XMLID_9431_" class="st22" x1="243.4" y1="244.9" x2="244.5" y2="244.4"/>
						<line id="XMLID_9430_" class="st22" x1="243.4" y1="244.7" x2="244.4" y2="244.2"/>
					</g>
				</g>
				<g id="XMLID_22207_">
					<g id="XMLID_9416_">
						<path id="XMLID_22263_" class="st16" d="M56.5,236.5l2.3,0.2l2.2,0.7c0.1,0,0.1,0.3,0,0.2l-2.3-0.2l-2.2-0.7
							C56.3,236.7,56.4,236.5,56.5,236.5z"/>
						<circle id="XMLID_9428_" class="st5" cx="58" cy="237.1" r="1.7"/>
						<circle id="XMLID_9427_" class="st6" cx="58" cy="237" r="1.7"/>
						<circle id="XMLID_9426_" class="st21" cx="58" cy="236.8" r="1.7"/>
						<circle id="XMLID_9425_" class="st18" cx="58" cy="236.8" r="1.4"/>
						<circle id="XMLID_9424_" class="st19" cx="58.3" cy="236.4" r="0.2"/>
						<circle id="XMLID_9423_" class="st19" cx="57.8" cy="237.4" r="0.2"/>
						<line id="XMLID_9422_" class="st22" x1="58.4" y1="236.4" x2="57.9" y2="237.4"/>
						<line id="XMLID_9421_" class="st22" x1="58.2" y1="236.3" x2="57.7" y2="237.4"/>
						<circle id="XMLID_9420_" class="st19" cx="58.6" cy="237.1" r="0.2"/>
						<circle id="XMLID_9419_" class="st19" cx="57.5" cy="236.6" r="0.2"/>
						<line id="XMLID_9418_" class="st22" x1="58.6" y1="237.2" x2="57.5" y2="236.7"/>
						<line id="XMLID_9417_" class="st22" x1="58.6" y1="237.1" x2="57.6" y2="236.6"/>
					</g>
					<g id="XMLID_9403_">
						<path id="XMLID_22249_" class="st16" d="M57.2,232.7l2.3,0.2l2.2,0.7c0.1,0,0.1,0.3,0,0.2l-2.3-0.2l-2.2-0.7
							C57,232.9,57.1,232.7,57.2,232.7z"/>
						<circle id="XMLID_9415_" class="st5" cx="58.7" cy="233.2" r="1.7"/>
						<circle id="XMLID_9414_" class="st6" cx="58.7" cy="233.2" r="1.7"/>
						<circle id="XMLID_9413_" class="st21" cx="58.7" cy="232.9" r="1.7"/>
						<circle id="XMLID_9412_" class="st18" cx="58.7" cy="232.9" r="1.4"/>
						<circle id="XMLID_9411_" class="st19" cx="59" cy="232.5" r="0.2"/>
						<circle id="XMLID_9410_" class="st19" cx="58.5" cy="233.6" r="0.2"/>
						<line id="XMLID_9409_" class="st22" x1="59.1" y1="232.5" x2="58.6" y2="233.6"/>
						<line id="XMLID_9408_" class="st22" x1="58.9" y1="232.5" x2="58.4" y2="233.5"/>
						<circle id="XMLID_9407_" class="st19" cx="59.3" cy="233.3" r="0.2"/>
						<circle id="XMLID_9406_" class="st19" cx="58.2" cy="232.8" r="0.2"/>
						<line id="XMLID_9405_" class="st22" x1="59.3" y1="233.4" x2="58.2" y2="232.9"/>
						<line id="XMLID_9404_" class="st22" x1="59.3" y1="233.3" x2="58.3" y2="232.8"/>
					</g>
					<g id="XMLID_9390_">
						<path id="XMLID_22235_" class="st16" d="M55.8,240.4l2.3,0.2l2.2,0.7c0.1,0,0.1,0.3,0,0.2l-2.3-0.2l-2.2-0.7
							C55.6,240.6,55.7,240.4,55.8,240.4z"/>
						<circle id="XMLID_9402_" class="st5" cx="57.3" cy="240.9" r="1.7"/>
						<circle id="XMLID_9401_" class="st6" cx="57.3" cy="240.8" r="1.7"/>
						<circle id="XMLID_9400_" class="st21" cx="57.3" cy="240.6" r="1.7"/>
						<circle id="XMLID_9399_" class="st18" cx="57.3" cy="240.6" r="1.4"/>
						<circle id="XMLID_9398_" class="st19" cx="57.6" cy="240.2" r="0.2"/>
						<circle id="XMLID_9397_" class="st19" cx="57.1" cy="241.2" r="0.2"/>
						<line id="XMLID_9396_" class="st22" x1="57.7" y1="240.2" x2="57.2" y2="241.2"/>
						<line id="XMLID_9395_" class="st22" x1="57.5" y1="240.1" x2="57" y2="241.2"/>
						<circle id="XMLID_9394_" class="st19" cx="57.8" cy="241" r="0.2"/>
						<circle id="XMLID_9393_" class="st19" cx="56.8" cy="240.5" r="0.2"/>
						<line id="XMLID_9392_" class="st22" x1="57.8" y1="241.1" x2="56.8" y2="240.6"/>
						<line id="XMLID_9391_" class="st22" x1="57.9" y1="240.9" x2="56.9" y2="240.4"/>
					</g>
					<g id="XMLID_9377_">
						<path id="XMLID_22221_" class="st16" d="M55.1,244.2l2.3,0.2l2.2,0.7c0.1,0,0.1,0.3,0,0.2l-2.3-0.2l-2.2-0.7
							C54.9,244.4,54.9,244.2,55.1,244.2z"/>
						<circle id="XMLID_9389_" class="st5" cx="56.6" cy="244.7" r="1.7"/>
						<circle id="XMLID_9388_" class="st6" cx="56.6" cy="244.6" r="1.7"/>
						<circle id="XMLID_9387_" class="st21" cx="56.6" cy="244.4" r="1.7"/>
						<circle id="XMLID_9386_" class="st18" cx="56.6" cy="244.4" r="1.4"/>
						<circle id="XMLID_9385_" class="st19" cx="56.9" cy="244" r="0.2"/>
						<circle id="XMLID_9384_" class="st19" cx="56.4" cy="245.1" r="0.2"/>
						<line id="XMLID_9383_" class="st22" x1="56.9" y1="244" x2="56.4" y2="245.1"/>
						<line id="XMLID_9382_" class="st22" x1="56.8" y1="244" x2="56.3" y2="245"/>
						<circle id="XMLID_9381_" class="st19" cx="57.1" cy="244.8" r="0.2"/>
						<circle id="XMLID_9380_" class="st19" cx="56.1" cy="244.3" r="0.2"/>
						<line id="XMLID_9379_" class="st22" x1="57.1" y1="244.9" x2="56.1" y2="244.4"/>
						<line id="XMLID_9378_" class="st22" x1="57.2" y1="244.7" x2="56.2" y2="244.2"/>
					</g>
				</g>
			</g>
		</g>
		<g id="XMLID_22187_">
			<g id="XMLID_22200_">
				<path id="XMLID_22204_" class="st5" d="M110.6,66.9c-0.7-1.9-0.6-3.6,1.2-4.5c0.7-0.4,2.9,0.3,3.2,1
					c0.5,1.4,21.3,21.8,35.9,37.5c6.7,7.3-4.3,7.8-4.3,7.8l-32.3-35.8c-1.5-1.7-2.7-3.6-3.5-5.7L110.6,66.9z"/>
				<path id="XMLID_22203_" class="st9" d="M112.9,64.8c0.6,1.5,23.2,22.5,37.9,37.8c5.9,6.1-3.1,6.2-3.1,6.2l-32.1-35.2
					c-1.7-1.8-3.4-4-4.4-6.3c0,0-0.6-1.5-0.6-3.1c0-1.6,1-1.8,1.9-1.8C112.4,62.2,112.1,62.7,112.9,64.8z"/>
				<polygon id="XMLID_22202_" class="st5" points="124.1,39.4 118,61.8 118,62.6 119.2,65.1 129.1,69.1 131.6,69.2 124.5,44.6 				
					"/>
				<path id="XMLID_22201_" class="st9" d="M124.1,39.4l-5.5,22.5v0c-0.1,0.5,0,1.1,0.2,1.6l1.7,4.2l8.4,4.2l4.3-2.7l-7.1-24.6
					L124.1,39.4z"/>
			</g>
			<path id="XMLID_22199_" class="st2" d="M137.1,29.4c0,0-10.2,3.7-12.3,8.4c-2,4.7-5.7,24.5-5.7,24.5l10.4,4.7
				c0,0-16-5.8-17.6-4.5c-0.9,0.8-1.7,2.3,2.7,7.7c1.2,1.5,15.8,17.8,30.8,34.5c6.6,7.4,10.1-9.2,9.1-11.2
				c-6.5-13.2-12.1-24.6-13.1-27.5c-5.5-15.9-6-24.2-6-29.1S137.1,29.4,137.1,29.4z"/>
			<line id="XMLID_22198_" class="st12" x1="137.9" y1="54.8" x2="129.5" y2="67.1"/>
			<g id="XMLID_22195_">
				<polygon id="XMLID_22197_" class="st5" points="148.9,82.6 140.9,99.8 142.1,100.8 149.8,84.2 				"/>
				<polygon id="XMLID_22196_" class="st9" points="149.4,83.7 141.5,100.1 142.6,102.8 151.5,85.6 				"/>
			</g>
			<g id="XMLID_22190_">
				<path id="XMLID_22194_" class="st5" d="M189.7,66.9c0.7-1.9,0.6-3.6-1.2-4.5c-0.7-0.4-2.9,0.3-3.2,1
					c-0.8,2.1-44.8,44.7-49.5,53.9c-4.6,9.2-14.8,26.4-14.8,26.4l28.3-30.3l36.7-40.6c1.5-1.7,2.7-3.6,3.5-5.7L189.7,66.9z"/>
				<path id="XMLID_22193_" class="st9" d="M187.4,64.8c-0.8,2.1-45.1,42.7-49.8,51.9S121,143.4,121,143.4l63.8-69.9
					c1.7-1.8,3.4-4,4.4-6.3c0,0,0.6-1.5,0.6-3.1c0-1.6-1-1.8-1.9-1.8C187.8,62.2,188.1,62.7,187.4,64.8z"/>
				<polygon id="XMLID_22192_" class="st5" points="176.2,39.4 182.3,61.8 182.3,62.6 181.1,65.1 171.1,69.1 168.6,69.2 175.7,44.6 
									"/>
				<path id="XMLID_22191_" class="st9" d="M176.2,39.4l5.5,22.5v0c0.1,0.5,0,1.1-0.2,1.6l-1.7,4.2l-8.4,4.2l-4.3-2.7l7.1-24.6
					L176.2,39.4z"/>
			</g>
			<path id="XMLID_22189_" class="st2" d="M163.2,29.4c0,0,10.2,3.7,12.3,8.4c2,4.7,5.7,24.5,5.7,24.5l-10.4,4.7
				c0,0,16-5.8,17.6-4.5c0.9,0.8,1.7,2.3-2.7,7.7c-2.6,3.2-63.8,71.3-64.5,72.2c0,0,35.1-68.8,37.7-76.4c5.5-15.9,6-24.2,6-29.1
				S163.2,29.4,163.2,29.4z"/>
			<line id="XMLID_22188_" class="st12" x1="162.4" y1="55" x2="170.8" y2="67.1"/>
		</g>
		<path id="XMLID_22186_" class="st16" d="M181.1,66.9l-1.5,0.5c-0.4,0.1-0.9,0.3-1.3,0.5l-1.5,0.7c-0.1,0.1,0,0.3,0.1,0.2l1.5-0.5
			c0.4-0.1,0.9-0.3,1.3-0.5l1.5-0.7C181.4,67,181.3,66.8,181.1,66.9z"/>
	</g>
</g>
</svg>
