<?xml version="1.0" encoding="utf-8"?>
<!-- Generator: Adobe Illustrator 19.0.0, SVG Export Plug-In . SVG Version: 6.00 Build 0)  -->
<svg version="1.1" id="Layer_1" xmlns="http://www.w3.org/2000/svg" xmlns:xlink="http://www.w3.org/1999/xlink" x="0px" y="0px"
	 viewBox="0 0 300 300" style="enable-background:new 0 0 300 300;" xml:space="preserve">
<style type="text/css">
	.st0{clip-path:url(#SVGID_2_);}
	.st1{fill:#9AA0BB;}
	.st2{fill:#F1F1F2;stroke:#404041;stroke-miterlimit:10;}
	.st3{fill:none;stroke:#808184;stroke-width:0.5;stroke-miterlimit:10;stroke-dasharray:1,2;}
	.st4{fill:#C5C7C9;}
	.st5{fill:#929497;}
	.st6{fill:#FFFFFF;stroke:#404041;stroke-miterlimit:10;}
	.st7{fill:#F1F1F2;}
	.st8{fill:none;stroke:#404041;stroke-miterlimit:10;}
	.st9{fill:none;stroke:#808184;stroke-width:0.5;stroke-miterlimit:10;}
	.st10{fill:none;stroke:#808184;stroke-width:0.5;stroke-miterlimit:10;stroke-dasharray:1.0048,2.0095;}
	.st11{fill:none;stroke:#808184;stroke-width:0.5;stroke-miterlimit:10;stroke-dasharray:1.0244,2.0488;}
	.st12{fill:#DBDCDD;}
	.st13{fill:#404041;stroke:#D0D2D3;stroke-width:0.5;stroke-miterlimit:10;}
	.st14{fill:#FFFFFF;stroke:#6D6E70;stroke-miterlimit:10;}
	.st15{fill:#FFFFFF;stroke:#929497;stroke-width:0.25;stroke-miterlimit:10;}
	.st16{fill:#404041;}
	.st17{fill:none;stroke:#6D6E70;stroke-width:0.5;stroke-miterlimit:10;}
	.st18{fill:#FFFFFF;stroke:#6D6E70;stroke-width:0.5;stroke-miterlimit:10;}
	.st19{fill:none;stroke:#6D6E70;stroke-width:0.25;stroke-miterlimit:10;}
</style>
<g>
	<defs>
		<circle id="SVGID_1_" cx="150.1" cy="149.6" r="150"/>
	</defs>
	<use xlink:href="#SVGID_1_"  style="overflow:visible;fill:#DDDDDD;"/>
	<clipPath id="SVGID_2_">
		<use xlink:href="#SVGID_1_"  style="overflow:visible;"/>
	</clipPath>
	<g id="XMLID_1_" class="st0">
		<defs>
			<rect id="XMLID_4932_" x="-13.5" width="327.1" height="300"/>
		</defs>
		<clipPath id="XMLID_3_">
			<use xlink:href="#XMLID_4932_"  style="overflow:visible;"/>
		</clipPath>
	</g>
	<g class="st0">
		<path class="st1" d="M150.1,4.6c38.7,0,75.1,15.1,102.5,42.5c27.4,27.4,42.5,63.8,42.5,102.5s-15.1,75.1-42.5,102.5
			c-27.4,27.4-63.8,42.5-102.5,42.5S75,279.5,47.6,252.1C20.2,224.7,5.1,188.3,5.1,149.6S20.2,74.5,47.6,47.1
			C75,19.7,111.4,4.6,150.1,4.6 M150.1-0.4c-82.8,0-150,67.2-150,150s67.2,150,150,150s150-67.2,150-150S232.9-0.4,150.1-0.4
			L150.1-0.4z"/>
	</g>
	<g id="XMLID_22452_" class="st0">
		<g id="XMLID_22474_">
			<g id="XMLID_22562_">
				<path id="XMLID_22652_" class="st2" d="M206.8,262.7c0,0-12.2,12.2-57.5,12.2L145,171.2l58.8,84.7L206.8,262.7z"/>
				<path id="XMLID_22651_" class="st3" d="M151.8,271.5c0,0,42.5,1.5,53.9-12.4l-55.6-78.3L151.8,271.5z"/>
				<g id="XMLID_22648_">
					<path id="XMLID_22650_" class="st4" d="M155.6,275l-5.3-86.2l1,85.9C151.3,274.7,152,275.1,155.6,275z"/>
					<path id="XMLID_22649_" class="st5" d="M153.6,274.7l-3.3-85.9l-0.6,85.9C149.7,274.7,150.4,275.3,153.6,274.7z"/>
				</g>
				<path id="XMLID_22647_" class="st2" d="M91.8,262.6c0,0,7.4,12.3,58.8,12.3V170.3l-56.9,85.9L91.8,262.6z"/>
				<path id="XMLID_22646_" class="st3" d="M148,271.5c0,0-42.8,1.5-54.2-12.4l53.7-77.2L148,271.5z"/>
				<g id="XMLID_22643_">
					<path id="XMLID_22645_" class="st4" d="M95.2,259.1c0,0,38.9-29.6,53.3-58.7c0,0,9.3,23,57.3,60.7l-57.2-80.1L95.2,259.1z"/>
					<path id="XMLID_22644_" class="st5" d="M95.2,253.1c0,0,39-27.6,53.5-56.7c0,0,15.9,31.4,56,64.5l-56-85.8L95.2,253.1z"/>
				</g>
				<g id="XMLID_22619_">
					<polygon id="XMLID_22642_" class="st2" points="162.2,28 167.2,33.6 150,123 132.7,33.6 137.5,28 					"/>
					<path id="XMLID_22641_" class="st6" d="M162.5,25.3c0,0,0.1-0.3-12.5-0.3c0,0-0.1,0-0.1,0c0,0-0.1,0-0.1,0
						c-12.5,0-12.5,0.3-12.5,0.3l-1.5,5.4c0,0,2,0.5,7,0.7c1.9,0.1,4.4,0.1,7.2,0.1c2.8,0,5.1,0,7-0.1c4.9-0.2,7-0.7,7-0.7
						L162.5,25.3z"/>
					<g id="XMLID_22637_">
						<path id="XMLID_22640_" class="st5" d="M139.5,25.2c0,0-1.3,1.5-1.2,3.3s0.2,2.5,0.2,2.5l-2.2-0.2l1-5.4L139.5,25.2z"/>
						<path id="XMLID_22639_" class="st7" d="M140,25.1c-0.3,0-0.6,0-0.9,0c-0.7,1.2-0.7,4.7-0.7,5.9c0.4,0,0.9,0.1,1.4,0.1
							c-0.1-0.4-0.2-1.1-0.2-2.6C139.6,27,139.9,25.7,140,25.1z"/>
						<path id="XMLID_22638_" class="st4" d="M139.2,25.2c-0.2,0-0.4,0-0.5,0c-0.3,0.3-0.6,0.7-0.7,1.5c-0.2,1.5-0.2,3.5-0.2,4.4
							c0.4,0,0.8,0.1,1.4,0.1C138.9,29.8,138.5,26.3,139.2,25.2z"/>
					</g>
					<g id="XMLID_22633_">
						<path id="XMLID_22636_" class="st5" d="M160.1,25.2c0,0,1.3,1.5,1.2,3.3s-0.2,2.5-0.2,2.5l2.6-0.2l-1.4-5.4L160.1,25.2z"/>
						<path id="XMLID_22635_" class="st7" d="M159.5,25.1c0.3,0,0.6,0,0.9,0c0.7,1.2,0.7,4.7,0.7,5.9c-0.4,0-0.9,0.1-1.4,0.1
							c0.1-0.4,0.2-1.1,0.2-2.6C160,27,159.7,25.7,159.5,25.1z"/>
						<path id="XMLID_22634_" class="st4" d="M160.4,25.2c0.2,0,0.4,0,0.5,0c0.3,0.3,0.6,0.7,0.7,1.5c0.2,1.5,0.2,3.5,0.2,4.4
							c-0.4,0-0.8,0.1-1.4,0.1C160.6,29.8,161.1,26.3,160.4,25.2z"/>
					</g>
					<path id="XMLID_22632_" class="st8" d="M162.5,25.3c0,0,0.1-0.3-12.5-0.3c0,0-0.1,0-0.1,0c0,0-0.1,0-0.1,0
						c-12.5,0-12.5,0.3-12.5,0.3l-1.5,5.4c0,0,2,0.5,7,0.7c1.9,0.1,4.4,0.1,7.2,0.1c2.8,0,5.1,0,7-0.1c4.9-0.2,7-0.7,7-0.7
						L162.5,25.3z"/>
					<g id="XMLID_22629_">
						<polygon id="XMLID_22631_" class="st5" points="138.1,42.3 150,98.4 161.6,42.3 154,108.1 149.6,122.9 146.1,107.5 						"/>
						<polygon id="XMLID_22630_" class="st4" points="149.8,105.7 161.8,39.8 150,98.1 137.9,39.8 						"/>
					</g>
					<g id="XMLID_22623_">
						<g>
							<line class="st9" x1="149.9" y1="32.3" x2="149.9" y2="32.8"/>
							<line class="st10" x1="149.9" y1="34.8" x2="149.9" y2="121.3"/>
							<line class="st9" x1="149.9" y1="122.3" x2="149.9" y2="122.8"/>
						</g>
					</g>
					<path id="XMLID_22622_" class="st5" d="M143.5,33.7l0.5,0.5c0,0,3.2-0.2,6-0.2c2.8,0,6.2,0.2,6.2,0.2l0.3-0.5H143.5z"/>
					<path id="XMLID_22621_" class="st4" d="M143.8,34.1l0.3,0.3c0,0,3.1-0.2,5.8-0.2c2.7,0,6.1,0.2,6.1,0.2l0.2-0.3l-6.3-0.1
						L143.8,34.1z"/>
					<path id="XMLID_22620_" class="st6" d="M150,31.6c-2.9,0-5.2,0-7.2-0.1l0.8,2.2h6.3h0.1h6.3l0.8-2.2
						C155.2,31.6,152.8,31.6,150,31.6z"/>
				</g>
				<path id="XMLID_22618_" class="st6" d="M102.8,92.8c-0.1-19.5-1.6-36.3-8.3-42.4l-1.4-0.8c0,0-2.2-0.7-4.4,10
					C86.4,70.3,62.2,222,62.2,222s4,3.5,12.3,3.8c8.3,0.3,12.5-1.7,12.5-1.7l13.1-94.6C101.6,116.2,102.9,102.8,102.8,92.8z"/>
				<line id="XMLID_22617_" class="st8" x1="150.3" y1="51.3" x2="150.3" y2="51.5"/>
				<path id="XMLID_22616_" class="st6" d="M148,117.3c-2.7-13.6-5.6-34.4-6.3-39.1c-1.1-7.5-6.1-31.3-6.1-31.3
					c-2.2-14.4,1.5-21.4,1.5-21.4s-10.5,6-12.7,7.5c-1.2,0.8-11.2,5.2-19.6,9.1c-10.3,4.8-11.8,7.3-11.8,7.3
					c8,4.9,9.6,22.7,9.8,43.5c0.2,20.8-5.6,56.3-6.3,74.7c-0.7,19.2-4.7,95.1-4.7,95.1s54.1-47.5,58.2-81.1
					C154,149.5,148,117.3,148,117.3z"/>
				<g id="XMLID_22610_">
					<g>
						<line class="st9" x1="122.1" y1="113.8" x2="122.1" y2="114.3"/>
						<line class="st11" x1="122.1" y1="116.3" x2="122.1" y2="161.4"/>
						<line class="st9" x1="122.1" y1="162.4" x2="122.1" y2="162.9"/>
					</g>
				</g>
				<path id="XMLID_22609_" class="st3" d="M96.5,163.7c0,0,29.9-2.5,48.2,1.4"/>
				<g id="XMLID_22606_">
					<path id="XMLID_22608_" class="st7" d="M102.9,130.3c3-20.6,1.7-37.1-0.3-50.1c0.4,2.6,0.6,7.1,0.7,7.7
						c0.3,4.4,0.7,8.9,0.6,13.2c-0.1,9.2-0.7,19.6-2.4,31.1c-1.4,9.8-2.5,14.2-3.2,15.9c-0.1,1.4-0.3,2.8-0.4,4.1
						C99.7,152.1,101,143.5,102.9,130.3z"/>
					<path id="XMLID_22607_" class="st4" d="M101.1,121.9c-0.9,8.9-2,18-2.8,26.2c0.8-1.7,1.8-6.1,3.2-15.9
						c1.6-11.5,2.5-20.9,2.5-36.3l0,0c0.2-5.6-1.4-16-1.3-15.5C103.4,92.8,102,114.5,101.1,121.9z"/>
				</g>
				<g id="XMLID_22603_">
					<path id="XMLID_22605_" class="st7" d="M149.4,119.2c0,0-4.8,8.4-5.9,37.9c-1.1,28.2,4.1,34.4,4.1,34.4l1.3-22.4l1.3-47.5
						L149.4,119.2z"/>
					<path id="XMLID_22604_" class="st4" d="M150.3,118.1c0,0-4.7,18.1-6.1,36c-2,24.7,3.6,36.3,3.6,36.3l2-4.7l1.5-65.1
						L150.3,118.1z"/>
				</g>
				<g id="XMLID_22597_">
					<g>
						<line class="st9" x1="179.7" y1="113.8" x2="179.7" y2="114.3"/>
						<line class="st11" x1="179.7" y1="116.3" x2="179.7" y2="161.4"/>
						<line class="st9" x1="179.7" y1="162.4" x2="179.7" y2="162.9"/>
					</g>
				</g>
				<path id="XMLID_22596_" class="st3" d="M154.2,163.7c0,0,29.9-2.5,48.2,1.4"/>
				<path id="XMLID_22595_" class="st6" d="M203.5,167.6c-0.7-18.5-6.5-53.9-6.3-74.7s1.8-38.5,9.8-43.5c0,0-1.4-2.5-11.8-7.3
					c-9.7-4.5-17.9-8-21.1-9.9c-0.2-0.1-0.4-0.2-0.5-0.3c-2.8-1.7-10.9-6.3-10.9-6.3s2.6,6.9,0.4,21.3c0,0-4.2,23.8-5.3,31.3
					c-0.8,5.3-4.8,28.7-7.6,42.8c-0.1,0.5-2.5,14-4.9,32.2c-1.2,8.7-0.5,18.5,0.9,28.3c4.7,33.5,60.8,81.1,60.8,81.1v-0.8
					C207,261.8,204.3,186.7,203.5,167.6z"/>
				<g id="XMLID_9655_">
					<circle id="XMLID_9675_" class="st7" cx="151.3" cy="159.1" r="3"/>
					<circle id="XMLID_9674_" class="st12" cx="151.4" cy="159" r="2.9"/>
					<polygon id="XMLID_9673_" class="st13" points="155.1,158.9 151.4,158.2 147.4,158.9 151.5,159.6 					"/>
					<circle id="XMLID_9672_" class="st14" cx="151.3" cy="158.6" r="2.9"/>
					<circle id="XMLID_9671_" class="st15" cx="151.3" cy="158.6" r="2.5"/>
					<circle id="XMLID_9670_" class="st16" cx="150.9" cy="157.9" r="0.4"/>
					<circle id="XMLID_9664_" class="st16" cx="151.7" cy="159.7" r="0.4"/>
					<line id="XMLID_9663_" class="st17" x1="150.7" y1="157.9" x2="151.6" y2="159.7"/>
					<line id="XMLID_9662_" class="st17" x1="151" y1="157.8" x2="151.8" y2="159.6"/>
					<line id="XMLID_9661_" class="st17" x1="150.7" y1="157.9" x2="151.6" y2="159.7"/>
					<line id="XMLID_9660_" class="st17" x1="151" y1="157.8" x2="151.8" y2="159.6"/>
					<circle id="XMLID_9659_" class="st16" cx="150.4" cy="159.3" r="0.4"/>
					<circle id="XMLID_9658_" class="st16" cx="152.2" cy="158.4" r="0.4"/>
					<line id="XMLID_9657_" class="st17" x1="150.4" y1="159.4" x2="152.2" y2="158.6"/>
					<line id="XMLID_9656_" class="st17" x1="150.3" y1="159.2" x2="152.1" y2="158.3"/>
				</g>
				<g id="XMLID_22567_">
					<polygon id="XMLID_22578_" class="st7" points="191.8,94.9 191.8,93.6 162,94.5 162,95.7 					"/>
					<polygon id="XMLID_22577_" class="st4" points="191.8,95.4 191.8,94.1 162,95 162,96.2 					"/>
					<polygon id="XMLID_22576_" class="st6" points="191.7,94.7 191.7,102 162.3,102.6 162.3,95.5 					"/>
					<line id="XMLID_22575_" class="st3" x1="162.3" y1="95.8" x2="191.7" y2="95"/>
					<g id="XMLID_22569_">
						<g>
							<line class="st9" x1="176.9" y1="113.8" x2="176.9" y2="114.3"/>
							<line class="st11" x1="176.9" y1="116.3" x2="176.9" y2="161.4"/>
							<line class="st9" x1="176.9" y1="162.4" x2="176.9" y2="162.9"/>
						</g>
					</g>
					<path id="XMLID_22568_" class="st3" d="M202.4,163.7c0,0-37.9-2.1-56.1,1.8"/>
				</g>
				<g id="XMLID_22564_">
					<path id="XMLID_22566_" class="st7" d="M197,130.3c-3-20.6-1.7-37.1,0.3-50.1c-0.4,2.6-0.6,7.1-0.7,7.7
						c-0.3,4.4-0.7,8.9-0.6,13.2c0.1,9.2,0.7,19.6,2.4,31.1c1.4,9.8,2.5,14.2,3.2,15.9c0.1,1.4,0.3,2.8,0.4,4.1
						C200.2,152.1,199,143.5,197,130.3z"/>
					<path id="XMLID_22565_" class="st4" d="M198.9,121.9c0.9,8.9,2,18,2.8,26.2c-0.8-1.7-1.8-6.1-3.2-15.9
						c-1.6-11.5-2.5-20.9-2.5-36.3l0,0c-0.2-5.6,1.4-16,1.3-15.5C196.6,92.8,198,114.5,198.9,121.9z"/>
				</g>
				<path id="XMLID_22563_" class="st6" d="M211.4,59.3c-2.3-10.7-4.4-10-4.4-10l0,0c-8,4.9-9.6,22.7-9.8,43.5
					c-0.1,9.7,1.1,22.5,2.5,35.4l13.2,95.6c0,0,4.2,2.1,12.5,1.7c8.3-0.3,12.3-3.8,12.3-3.8S213.6,70,211.4,59.3z"/>
			</g>
			<g id="XMLID_22475_">
				<g id="XMLID_22519_">
					<g id="XMLID_9642_">
						<path id="XMLID_22561_" class="st13" d="M234.8,212l-2.1,0.2l-2,0.6c-0.1,0-0.1,0.2,0,0.2l2.1-0.2l2-0.6
							C234.9,212.2,234.9,212,234.8,212z"/>
						<circle id="XMLID_9654_" class="st7" cx="233.4" cy="212.5" r="1.6"/>
						<circle id="XMLID_9653_" class="st12" cx="233.4" cy="212.4" r="1.5"/>
						<circle id="XMLID_9652_" class="st18" cx="233.4" cy="212.2" r="1.5"/>
						<circle id="XMLID_9651_" class="st15" cx="233.4" cy="212.2" r="1.3"/>
						<circle id="XMLID_9650_" class="st16" cx="233.2" cy="211.9" r="0.2"/>
						<circle id="XMLID_9649_" class="st16" cx="233.6" cy="212.8" r="0.2"/>
						<line id="XMLID_9648_" class="st19" x1="233.1" y1="211.9" x2="233.5" y2="212.8"/>
						<line id="XMLID_9647_" class="st19" x1="233.2" y1="211.8" x2="233.7" y2="212.8"/>
						<circle id="XMLID_9646_" class="st16" cx="232.9" cy="212.6" r="0.2"/>
						<circle id="XMLID_9645_" class="st16" cx="233.9" cy="212.1" r="0.2"/>
						<line id="XMLID_9644_" class="st19" x1="232.9" y1="212.6" x2="233.9" y2="212.2"/>
						<line id="XMLID_9643_" class="st19" x1="232.9" y1="212.5" x2="233.8" y2="212.1"/>
					</g>
					<g id="XMLID_9597_">
						<path id="XMLID_22547_" class="st13" d="M234.1,208.6l-2.1,0.2l-2,0.6c-0.1,0-0.1,0.2,0,0.2l2.1-0.2l2-0.6
							C234.3,208.8,234.3,208.6,234.1,208.6z"/>
						<circle id="XMLID_9641_" class="st7" cx="232.8" cy="209" r="1.6"/>
						<circle id="XMLID_9640_" class="st12" cx="232.8" cy="209" r="1.5"/>
						<circle id="XMLID_9639_" class="st18" cx="232.8" cy="208.8" r="1.5"/>
						<circle id="XMLID_9638_" class="st15" cx="232.8" cy="208.8" r="1.3"/>
						<circle id="XMLID_9637_" class="st16" cx="232.5" cy="208.4" r="0.2"/>
						<circle id="XMLID_9636_" class="st16" cx="233" cy="209.4" r="0.2"/>
						<line id="XMLID_9635_" class="st19" x1="232.4" y1="208.4" x2="232.9" y2="209.4"/>
						<line id="XMLID_9602_" class="st19" x1="232.6" y1="208.4" x2="233" y2="209.3"/>
						<circle id="XMLID_9601_" class="st16" cx="232.3" cy="209.1" r="0.2"/>
						<circle id="XMLID_9600_" class="st16" cx="233.2" cy="208.7" r="0.2"/>
						<line id="XMLID_9599_" class="st19" x1="232.3" y1="209.2" x2="233.2" y2="208.7"/>
						<line id="XMLID_9598_" class="st19" x1="232.2" y1="209.1" x2="233.2" y2="208.6"/>
					</g>
					<g id="XMLID_9584_">
						<path id="XMLID_22533_" class="st13" d="M235.4,215.5l-2.1,0.2l-2,0.6c-0.1,0-0.1,0.2,0,0.2l2.1-0.2l2-0.6
							C235.6,215.7,235.5,215.5,235.4,215.5z"/>
						<circle id="XMLID_9596_" class="st7" cx="234.1" cy="215.9" r="1.6"/>
						<circle id="XMLID_9595_" class="st12" cx="234.1" cy="215.9" r="1.5"/>
						<circle id="XMLID_9594_" class="st18" cx="234.1" cy="215.7" r="1.5"/>
						<circle id="XMLID_9593_" class="st15" cx="234.1" cy="215.7" r="1.3"/>
						<circle id="XMLID_9592_" class="st16" cx="233.8" cy="215.3" r="0.2"/>
						<circle id="XMLID_9591_" class="st16" cx="234.3" cy="216.3" r="0.2"/>
						<line id="XMLID_9590_" class="st19" x1="233.7" y1="215.3" x2="234.2" y2="216.3"/>
						<line id="XMLID_9589_" class="st19" x1="233.9" y1="215.3" x2="234.3" y2="216.2"/>
						<circle id="XMLID_9588_" class="st16" cx="233.6" cy="216" r="0.2"/>
						<circle id="XMLID_9587_" class="st16" cx="234.5" cy="215.6" r="0.2"/>
						<line id="XMLID_9586_" class="st19" x1="233.6" y1="216.1" x2="234.5" y2="215.6"/>
						<line id="XMLID_9585_" class="st19" x1="233.5" y1="216" x2="234.4" y2="215.5"/>
					</g>
				</g>
				<g id="XMLID_22476_">
					<g id="XMLID_9571_">
						<path id="XMLID_22518_" class="st13" d="M65.8,212l2.1,0.2l2,0.6c0.1,0,0.1,0.2,0,0.2l-2.1-0.2l-2-0.6
							C65.6,212.2,65.6,212,65.8,212z"/>
						<circle id="XMLID_9583_" class="st7" cx="67.1" cy="212.5" r="1.6"/>
						<circle id="XMLID_9582_" class="st12" cx="67.1" cy="212.4" r="1.5"/>
						<circle id="XMLID_9581_" class="st18" cx="67.1" cy="212.2" r="1.5"/>
						<circle id="XMLID_9580_" class="st15" cx="67.1" cy="212.2" r="1.3"/>
						<circle id="XMLID_9579_" class="st16" cx="67.4" cy="211.9" r="0.2"/>
						<circle id="XMLID_9578_" class="st16" cx="66.9" cy="212.8" r="0.2"/>
						<line id="XMLID_9577_" class="st19" x1="67.4" y1="211.9" x2="67" y2="212.8"/>
						<line id="XMLID_9576_" class="st19" x1="67.3" y1="211.8" x2="66.9" y2="212.8"/>
						<circle id="XMLID_9575_" class="st16" cx="67.6" cy="212.6" r="0.2"/>
						<circle id="XMLID_9574_" class="st16" cx="66.7" cy="212.1" r="0.2"/>
						<line id="XMLID_9573_" class="st19" x1="67.6" y1="212.6" x2="66.7" y2="212.2"/>
						<line id="XMLID_9572_" class="st19" x1="67.6" y1="212.5" x2="66.7" y2="212.1"/>
					</g>
					<g id="XMLID_9558_">
						<path id="XMLID_22504_" class="st13" d="M66.4,208.6l2.1,0.2l2,0.6c0.1,0,0.1,0.2,0,0.2l-2.1-0.2l-2-0.6
							C66.2,208.8,66.3,208.6,66.4,208.6z"/>
						<circle id="XMLID_9570_" class="st7" cx="67.7" cy="209" r="1.6"/>
						<circle id="XMLID_9569_" class="st12" cx="67.7" cy="209" r="1.5"/>
						<circle id="XMLID_9568_" class="st18" cx="67.7" cy="208.8" r="1.5"/>
						<circle id="XMLID_9567_" class="st15" cx="67.7" cy="208.8" r="1.3"/>
						<circle id="XMLID_9566_" class="st16" cx="68" cy="208.4" r="0.2"/>
						<circle id="XMLID_9565_" class="st16" cx="67.5" cy="209.4" r="0.2"/>
						<line id="XMLID_9564_" class="st19" x1="68.1" y1="208.4" x2="67.6" y2="209.4"/>
						<line id="XMLID_9563_" class="st19" x1="67.9" y1="208.4" x2="67.5" y2="209.3"/>
						<circle id="XMLID_9562_" class="st16" cx="68.2" cy="209.1" r="0.2"/>
						<circle id="XMLID_9561_" class="st16" cx="67.3" cy="208.7" r="0.2"/>
						<line id="XMLID_9560_" class="st19" x1="68.2" y1="209.2" x2="67.3" y2="208.7"/>
						<line id="XMLID_9559_" class="st19" x1="68.3" y1="209.1" x2="67.4" y2="208.6"/>
					</g>
					<g id="XMLID_9545_">
						<path id="XMLID_22490_" class="st13" d="M65.1,215.5l2.1,0.2l2,0.6c0.1,0,0.1,0.2,0,0.2l-2.1-0.2l-2-0.6
							C64.9,215.7,65,215.5,65.1,215.5z"/>
						<circle id="XMLID_9557_" class="st7" cx="66.5" cy="215.9" r="1.6"/>
						<circle id="XMLID_9556_" class="st12" cx="66.4" cy="215.9" r="1.5"/>
						<circle id="XMLID_9555_" class="st18" cx="66.5" cy="215.7" r="1.5"/>
						<circle id="XMLID_9554_" class="st15" cx="66.5" cy="215.7" r="1.3"/>
						<circle id="XMLID_9553_" class="st16" cx="66.7" cy="215.3" r="0.2"/>
						<circle id="XMLID_9552_" class="st16" cx="66.3" cy="216.3" r="0.2"/>
						<line id="XMLID_9551_" class="st19" x1="66.8" y1="215.3" x2="66.3" y2="216.3"/>
						<line id="XMLID_9550_" class="st19" x1="66.7" y1="215.3" x2="66.2" y2="216.2"/>
						<circle id="XMLID_9549_" class="st16" cx="67" cy="216" r="0.2"/>
						<circle id="XMLID_9548_" class="st16" cx="66" cy="215.6" r="0.2"/>
						<line id="XMLID_9547_" class="st19" x1="67" y1="216.1" x2="66" y2="215.6"/>
						<line id="XMLID_9546_" class="st19" x1="67" y1="216" x2="66.1" y2="215.5"/>
					</g>
				</g>
			</g>
		</g>
		<g id="XMLID_22454_">
			<g id="XMLID_22455_">
				<g id="XMLID_22466_">
					<g id="XMLID_22469_">
						<path id="XMLID_22473_" class="st7" d="M115.9,54.9c0,0-1.7,1.2-1,3.1c0.7,1.9,24.6,62.6,28.8,70.9c1.4,2.9,3.2,6.6,4.8,10.2
							c1.3,2.8,2.2-3.4,2.2-3.4l-1.3-5.9l-28.5-71.3L115.9,54.9z"/>
						<path id="XMLID_22472_" class="st4" d="M116.3,54.9c0,0-1.8,0.5-1.1,2.4c0.7,1.9,24.7,63.3,28.9,71.6c1.3,2.7,3,6.1,4.5,9.5
							c0.8,1.8,2.1-4.5,2.1-4.5l-0.9-4l-28.5-71.3L116.3,54.9z"/>
						<polygon id="XMLID_22471_" class="st7" points="126.4,34.4 120.9,54.5 120.9,55.3 122.1,57.5 131,61.2 133.2,61.2 126.8,39 
													"/>
						<polygon id="XMLID_22470_" class="st4" points="126.4,34.4 121.4,54.7 121.4,55.4 123.2,59.9 130.8,63.7 134.7,61.2 128.3,39 
													"/>
					</g>
					<path id="XMLID_22468_" class="st6" d="M138.1,25.3c0,0-9.2,3.4-11.1,7.6S121.9,55,121.9,55l9.4,4.3c0,0-14.1-5.5-15.4-4.4
						c-0.8,0.7-0.2,2.8,2.1,7.3c1.6,3.3,17.4,47.4,24.4,61.6c2.7,5.4,4.8,10.2,6.6,14.2c0.7,1.5,3.6-3.1,3.5-3.8
						c-0.3-1.7-0.7-1.7-1-4c-2.8-16.5-7.1-58-9.5-71.1c-2.8-14.9-5.2-22.5-5.2-26.9S138.1,25.3,138.1,25.3z"/>
					<line id="XMLID_22467_" class="st3" x1="139.5" y1="47.5" x2="131.3" y2="59.3"/>
				</g>
				<g id="XMLID_22463_">
					<polygon id="XMLID_22465_" class="st7" points="149.8,120.6 146.7,132.6 147.7,135 150.1,124.7 					"/>
					<polygon id="XMLID_22464_" class="st4" points="150.2,121.7 147.1,133.7 148.1,136.1 150.5,125.8 					"/>
				</g>
				<g id="XMLID_22458_">
					<path id="XMLID_22462_" class="st7" d="M184.1,54.9c0,0,1.7,1.2,1,3.1c-0.7,1.9-24.6,62.6-28.8,70.9
						c-4.2,8.3-10.7,23.4-10.7,23.4l5-22.5l28.5-71.3L184.1,54.9z"/>
					<path id="XMLID_22461_" class="st4" d="M183.7,54.9c0,0,1.8,0.5,1.1,2.4c-0.7,1.9-24.7,63.3-28.9,71.6
						c-4.2,8.3-10.5,23.1-10.5,23.1l4.7-22.2l28.5-71.3L183.7,54.9z"/>
					<polygon id="XMLID_22460_" class="st7" points="173.6,34.4 179.1,54.5 179.1,55.3 177.9,57.5 169,61.2 166.8,61.2 173.2,39 
											"/>
					<polygon id="XMLID_22459_" class="st4" points="173.6,34.4 178.6,54.7 178.6,55.4 176.8,59.9 169.2,63.7 165.3,61.2 171.7,39 
											"/>
				</g>
				<path id="XMLID_22457_" class="st6" d="M161.9,25.3c0,0,9.2,3.4,11.1,7.6s5.1,22.1,5.1,22.1l-9.4,4.3c0,0,14.1-5.5,15.4-4.4
					c0.8,0.7,0.2,2.8-2.1,7.3c-1.6,3.3-17.4,47.4-24.4,61.6S147,148,145.4,152c0,0-0.4-1.9,2.2-15.8s7.8-62.2,10.6-77.1
					s5.2-22.5,5.2-26.9S161.9,25.3,161.9,25.3z"/>
				<line id="XMLID_22456_" class="st3" x1="160.5" y1="47.5" x2="168.7" y2="59.3"/>
			</g>
		</g>
		<path id="XMLID_22453_" class="st13" d="M178.1,59.1l-1.4,0.5c-0.4,0.1-0.8,0.3-1.1,0.5l-1.3,0.6c-0.1,0.1,0,0.2,0.1,0.2l1.3-0.5
			c0.4-0.1,0.8-0.3,1.1-0.5l1.4-0.6C178.3,59.3,178.2,59.1,178.1,59.1z"/>
	</g>
</g>
</svg>
