<?xml version="1.0" encoding="utf-8"?>
<!-- Generator: Adobe Illustrator 19.0.0, SVG Export Plug-In . SVG Version: 6.00 Build 0)  -->
<svg version="1.1" id="Layer_1" xmlns="http://www.w3.org/2000/svg" xmlns:xlink="http://www.w3.org/1999/xlink" x="0px" y="0px"
	 viewBox="0 0 300 300" style="enable-background:new 0 0 300 300;" xml:space="preserve">
<style type="text/css">
	.st0{clip-path:url(#SVGID_2_);}
	.st1{fill:#9AA0BB;}
	.st2{fill:#F1F1F2;stroke:#404041;stroke-miterlimit:10;}
	.st3{fill:#424242;stroke:#404041;stroke-miterlimit:10;}
	.st4{fill:#929497;}
	.st5{fill:#F1F1F2;}
	.st6{fill:#C5C7C9;}
	.st7{fill:none;stroke:#404041;stroke-miterlimit:10;}
	.st8{fill:none;stroke:#808184;stroke-width:0.5;stroke-miterlimit:10;}
	.st9{fill:none;stroke:#808184;stroke-width:0.5;stroke-miterlimit:10;stroke-dasharray:0.9936,1.9872;}
	.st10{fill:#FFFFFF;stroke:#404041;stroke-miterlimit:10;}
	.st11{fill:none;stroke:#808184;stroke-width:0.5;stroke-miterlimit:10;stroke-dasharray:1,2;}
	.st12{fill:none;stroke:#808184;stroke-width:0.5;stroke-miterlimit:10;stroke-dasharray:1.0162,2.0324;}
	.st13{fill:#FFFFFF;stroke:#808184;stroke-width:0.5;stroke-miterlimit:10;stroke-dasharray:1,2;}
	.st14{fill:none;stroke:#808184;stroke-width:0.5;stroke-miterlimit:10;stroke-dasharray:1.0089,2.0179;}
	.st15{fill:#DBDCDD;}
	.st16{fill:#404041;stroke:#D0D2D3;stroke-width:0.5;stroke-miterlimit:10;}
	.st17{fill:#FFFFFF;stroke:#6D6E70;stroke-miterlimit:10;}
	.st18{fill:#FFFFFF;stroke:#929497;stroke-width:0.25;stroke-miterlimit:10;}
	.st19{fill:#404041;}
	.st20{fill:none;stroke:#6D6E70;stroke-width:0.5;stroke-miterlimit:10;}
	.st21{fill:#FFFFFF;stroke:#6D6E70;stroke-width:0.5;stroke-miterlimit:10;}
	.st22{fill:none;stroke:#6D6E70;stroke-width:0.25;stroke-miterlimit:10;}
</style>
<g>
	<defs>
		<circle id="SVGID_1_" cx="150.1" cy="149.6" r="150"/>
	</defs>
	<use xlink:href="#SVGID_1_"  style="overflow:visible;fill:#DDDDDD;"/>
	<clipPath id="SVGID_2_">
		<use xlink:href="#SVGID_1_"  style="overflow:visible;"/>
	</clipPath>
	<g id="XMLID_1_" class="st0">
		<defs>
			<rect id="XMLID_4932_" x="-13.5" width="327.1" height="300"/>
		</defs>
		<clipPath id="XMLID_6_">
			<use xlink:href="#XMLID_4932_"  style="overflow:visible;"/>
		</clipPath>
	</g>
	<g class="st0">
		<path class="st1" d="M150.1,4.6c38.7,0,75.1,15.1,102.5,42.5c27.4,27.4,42.5,63.8,42.5,102.5s-15.1,75.1-42.5,102.5
			c-27.4,27.4-63.8,42.5-102.5,42.5S75,279.5,47.6,252.1C20.2,224.7,5.1,188.3,5.1,149.6S20.2,74.5,47.6,47.1
			C75,19.7,111.4,4.6,150.1,4.6 M150.1-0.4c-82.8,0-150,67.2-150,150s67.2,150,150,150s150-67.2,150-150S232.9-0.4,150.1-0.4
			L150.1-0.4z"/>
	</g>
	<g id="XMLID_21772_" class="st0">
		<g id="XMLID_21956_">
			<g id="XMLID_21976_">
				<polygon id="XMLID_21999_" class="st2" points="163.1,38.2 168.4,44.1 150,142.2 131.5,44.1 136.6,38.2 				"/>
				<path id="XMLID_21998_" class="st3" d="M163.3,35.3c0,0,0.1-0.3-13.3-0.3c0,0-0.1,0-0.1,0c0,0-0.1,0-0.1,0
					c-13.4,0-13.3,0.3-13.3,0.3l-1.6,5.8c0,0,2.2,0.5,7.5,0.8c2,0.1,4.7,0.1,7.7,0.1c3,0,5.4-0.1,7.5-0.1c5.3-0.2,7.5-0.8,7.5-0.8
					L163.3,35.3z"/>
				<g id="XMLID_21994_">
					<path id="XMLID_21997_" class="st4" d="M138.8,35.2c0,0-1.4,1.5-1.3,3.5c0.1,2,0.2,2.6,0.2,2.6h-2.4l1.1-6L138.8,35.2z"/>
					<path id="XMLID_21996_" class="st5" d="M139.4,35.2c-0.4,0-0.7,0-1,0c-0.8,1.3-0.8,5-0.8,6.3c0.4,0,0.9,0.1,1.4,0.1
						c-0.1-0.4-0.2-1.2-0.2-2.7C138.9,37.1,139.2,35.7,139.4,35.2z"/>
					<path id="XMLID_21995_" class="st6" d="M138.5,35.2c-0.2,0-0.4,0-0.5,0c-0.3,0.3-0.6,0.7-0.7,1.6c-0.2,1.6-0.2,3.7-0.3,4.7
						c0.4,0,0.9,0.1,1.4,0.1C138.2,40.2,137.7,36.4,138.5,35.2z"/>
				</g>
				<g id="XMLID_21990_">
					<path id="XMLID_21993_" class="st4" d="M160.8,35.2c0,0,1.4,1.5,1.3,3.5c-0.1,2-0.2,2.6-0.2,2.6h3.1l-1.7-6L160.8,35.2z"/>
					<path id="XMLID_21992_" class="st5" d="M160.2,35.2c0.4,0,0.7,0,1,0c0.8,1.3,0.8,5,0.8,6.3c-0.4,0-0.9,0.1-1.4,0.1
						c0.1-0.4,0.2-1.2,0.2-2.7C160.7,37.1,160.4,35.7,160.2,35.2z"/>
					<path id="XMLID_21991_" class="st6" d="M161.1,35.2c0.2,0,0.4,0,0.5,0c0.3,0.3,0.6,0.7,0.7,1.6c0.2,1.6,0.2,3.7,0.3,4.7
						c-0.4,0-0.9,0.1-1.4,0.1C161.4,40.2,161.8,36.4,161.1,35.2z"/>
				</g>
				<path id="XMLID_21989_" class="st7" d="M163.3,35.3c0,0,0.1-0.3-13.3-0.3c0,0-0.1,0-0.1,0c0,0-0.1,0-0.1,0
					c-13.4,0-13.3,0.3-13.3,0.3l-1.6,5.8c0,0,2.2,0.5,7.5,0.8c2,0.1,4.7,0.1,7.7,0.1c3,0,5.4-0.1,7.5-0.1c5.3-0.2,7.5-0.8,7.5-0.8
					L163.3,35.3z"/>
				<g id="XMLID_21986_">
					<polygon id="XMLID_21988_" class="st4" points="137.3,53.5 150,113.4 162.3,53.5 154.2,123.8 150,145 145.8,123.1 					"/>
					<polygon id="XMLID_21987_" class="st6" points="149.8,121.2 162.6,50.8 150,113.1 137,50.8 					"/>
				</g>
				<g id="XMLID_21980_">
					<g>
						<line class="st8" x1="149.9" y1="42.8" x2="149.9" y2="43.3"/>
						<line class="st9" x1="149.9" y1="45.3" x2="149.9" y2="124.8"/>
						<line class="st8" x1="149.9" y1="125.8" x2="149.9" y2="126.3"/>
					</g>
				</g>
				<path id="XMLID_21979_" class="st4" d="M143,44.3l0.5,0.5c0,0,3.5-0.3,6.4-0.3s6.6,0.3,6.6,0.3l0.3-0.5H143z"/>
				<path id="XMLID_21978_" class="st6" d="M143.4,44.7l0.4,0.4c0,0,3.3-0.2,6.2-0.2c2.9,0,6.5,0.2,6.5,0.2l0.2-0.4l-6.7-0.1
					L143.4,44.7z"/>
				<path id="XMLID_21977_" class="st10" d="M150,42c-3.1,0-5.6,0-7.6-0.1l0.9,2.3h6.7h0.1h6.7l0.9-2.3C155.6,42,153,42,150,42z"/>
			</g>
			<path id="XMLID_21975_" class="st2" d="M156.7,253.6c0-0.9,0-33.3,0-33.3h-13.6v33.3H156.7z"/>
			<g id="XMLID_21972_">
				<polygon id="XMLID_21974_" class="st4" points="150.1,236.3 144.8,254.5 148.9,226.1 155.3,254.8 				"/>
				<polygon id="XMLID_21973_" class="st6" points="149.7,240.5 144.8,254.5 149.5,233.7 155.3,254.8 				"/>
			</g>
			<path id="XMLID_21970_" class="st10" d="M157.2,174.1c-1.2-28.1-2.6-25.4-2.6-25.4l-2.4-0.7l-1.9-4.1
				c-2.9-14.5-6.5-47.2-7.2-52.1c-1.2-8-5.1-33.4-5.1-33.4c-6.3-16.8-1.4-23-1.4-23s-11.6,6.6-13.9,8.2c-1.2,0.8-11.9,5.5-21,9.7
				c-11,5.1-12.6,7.8-12.6,7.8c8.5,5.3,10.3,24.2,10.4,46.4c0.2,22.2-6,60.1-6.7,79.8c-0.8,20.5-5,70.7-5,70.7s36.5,9.3,46.5,6.6
				c6.6-1.8,8.7-4.8,10-8.2c1.1-3,1.9-6.1,2.2-9.2l3.4-27.8C150.1,219.3,158.4,202.2,157.2,174.1z"/>
			<g id="XMLID_21967_">
				<path id="XMLID_21969_" class="st5" d="M99.8,147.4c3.2-22,1.8-39.7-0.4-53.5c0.4,2.7,0.7,7.6,0.7,8.3c0.4,4.7,0.8,9.5,0.6,14.1
					c-0.1,9.8-0.8,20.9-2.6,33.2c-1.5,10.5-2.6,15.2-3.4,17c-0.2,1.5-0.3,2.9-0.5,4.4C96.3,170.7,97.7,161.6,99.8,147.4z"/>
				<path id="XMLID_21968_" class="st6" d="M97.8,138.5c-1,9.5-2.1,19.2-3,28c0.8-1.8,1.9-6.5,3.4-17c1.8-12.3,2.6-22.3,2.6-38.8
					l0,0c0.2-6-1.5-17-1.4-16.5C100.2,107.4,98.7,130.6,97.8,138.5z"/>
			</g>
			<path id="XMLID_21966_" class="st10" d="M99.6,107.4c-0.2-20.8-1.7-38.7-8.9-45.2l-1.5-0.9c0,0-2.3-0.8-4.7,10.6
				c-2.4,11.4-28.2,173.4-28.2,173.4s4.3,3.7,13.2,4.1c8.9,0.3,13.4-1.9,13.4-1.9l13.9-101.1C98.3,132.4,99.7,118.1,99.6,107.4z"/>
			<g id="XMLID_21963_">
				<path id="XMLID_21965_" class="st5" d="M148.6,127.7c0,0-6,12.6-6,48.8c0,27.3,5.9,56.9,5.9,56.9l3.3-105.5L148.6,127.7z"/>
				<path id="XMLID_21964_" class="st6" d="M149.5,127.4c0,0-5.8,9.3-5.8,48.1c0,37.3,4.9,57.4,4.9,57.4l2.7-105.6L149.5,127.4z"/>
			</g>
			<g id="XMLID_21961_">
				<path id="XMLID_21962_" class="st10" d="M200.4,107.4c0.2-22.2,1.9-41.1,10.4-46.4c0,0-1.5-2.7-12.6-7.8
					c-10.4-4.8-19.1-8.6-22.5-10.5c-0.2-0.1-0.4-0.2-0.6-0.3c-3-1.8-11.8-7-11.8-7s2.2,5.5-0.2,20.9c0,0-3.6,21.9-5.5,38.2
					c-1.6,14.1-12.8,40.9-12.8,66.4c0,3.3-0.3,17.1-0.3,20.8c0,47.1,10,71.7,11.1,74.7c1.2,3.3,3.4,6.3,9.9,8.1
					c10,2.7,45.2-6.6,45.2-6.6s-2.9-50.2-3.7-70.7C206.4,167.5,200.2,129.6,200.4,107.4z"/>
			</g>
			<g id="XMLID_21958_">
				<path id="XMLID_21960_" class="st5" d="M200.2,147.4c-3.2-22-1.8-39.7,0.4-53.5c-0.4,2.7-0.7,7.6-0.7,8.3
					c-0.4,4.7-0.8,9.5-0.6,14.1c0.1,9.8,0.8,20.9,2.6,33.2c1.5,10.5,2.6,15.2,3.4,17c0.2,1.5,0.3,2.9,0.5,4.4
					C203.6,170.7,202.3,161.6,200.2,147.4z"/>
				<path id="XMLID_21959_" class="st6" d="M202.2,138.5c1,9.5,2.1,19.2,3,28c-0.8-1.8-1.9-6.5-3.4-17c-1.8-12.3-2.6-22.3-2.6-38.8
					l0,0c-0.2-6,1.5-17,1.4-16.5C199.7,107.4,201.3,130.6,202.2,138.5z"/>
			</g>
			<path id="XMLID_21957_" class="st10" d="M215.5,71.7c-2.4-11.4-4.7-10.6-4.7-10.6l0,0c-8.5,5.3-10.3,24.2-10.4,46.4
				c-0.1,10.3,1.2,24.1,2.7,37.8l14.1,102.1c0,0,4.5,2.2,13.4,1.9c8.9-0.3,13.2-4.1,13.2-4.1S217.9,83.1,215.5,71.7z"/>
		</g>
		<g id="XMLID_21951_">
			<polygon id="XMLID_21955_" class="st5" points="194.7,109.7 194.7,108.4 162.9,109.3 162.9,110.6 			"/>
			<polygon id="XMLID_21954_" class="st6" points="194.7,110.3 194.7,108.9 162.9,109.8 162.9,111.2 			"/>
			<path id="XMLID_21953_" class="st10" d="M194.6,109.5v7.4c0,0.3-0.2,0.5-0.5,0.5l-30.4,0.6c-0.3,0-0.5-0.2-0.5-0.5v-7.1
				L194.6,109.5z"/>
			<line id="XMLID_21952_" class="st11" x1="163.2" y1="110.7" x2="194.6" y2="109.8"/>
		</g>
		<g id="XMLID_21938_">
			<g id="XMLID_21939_">
				<g id="XMLID_21948_">
					<path id="XMLID_21950_" class="st5" d="M124.9,42.2c-1.7,0.7-2.3,1.4-2.4,3.1c0,0-0.4,7.2,0.6,13.9c5.4,35,17.5,74.3,22,82.3
						c1.1,2,2.2,4,3.4,5.9c2.8,4.2,2.3-7.2,2.3-7.2l-1.2-4.1l-22.9-94.5L124.9,42.2z"/>
					<path id="XMLID_21949_" class="st6" d="M127.6,41.8c0,0-2.4-0.2-3.4,1c-0.6,0.8-0.8,2.1-0.8,3c0.3,31.1,15.6,80.1,21.9,94.1
						c1.1,2.4,2.4,4.9,3.7,7.2c1.2,2.1,2.8-2.8,2.8-2.8l-1.5-8.4L129.6,64L127.6,41.8z"/>
				</g>
				<path id="XMLID_21947_" class="st3" d="M137.6,35.3c0,0-12,5.3-12.6,6.9c-2.2,5.5,1.5,34.8,11.9,70.2
					c3.9,13.2,7.7,24.4,11.5,32.1c0.5,1.1,4.3-3.3,4.1-4.8c-0.3-1.6-0.2-1.2-0.6-3.5c-3.2-17.8-15.7-90-15.7-94.3
					S137.6,35.3,137.6,35.3z"/>
				<g id="XMLID_21944_">
					<polygon id="XMLID_21946_" class="st5" points="149.7,124.8 146,138.9 147.1,141.7 150,129.6 					"/>
					<polygon id="XMLID_21945_" class="st6" points="150.1,126.1 146.5,140.1 147.6,142.9 150.4,130.9 					"/>
				</g>
				<g id="XMLID_21941_">
					<path id="XMLID_21943_" class="st5" d="M175.1,42.2c1.7,0.7,2.3,1.4,2.4,3.1c0,0,0.4,7.2-0.6,13.9c-5.4,35-17.5,74.3-22,82.3
						s-9.9,16.1-9.9,16.1l5.3-21.6l22.9-94.5L175.1,42.2z"/>
					<path id="XMLID_21942_" class="st6" d="M172.4,41.8c0,0,2.4-0.2,3.4,1c0.6,0.8,0.8,2.1,0.8,3c-0.3,31.1-15.6,80.1-21.9,94.1
						c-3.7,8.3-10,17.4-10,17.4l5.1-21.4l19.6-72.3L172.4,41.8z"/>
				</g>
				<path id="XMLID_21940_" class="st3" d="M162.4,35.3c0,0,12,5.3,12.6,6.9c2.2,5.5-1.5,34.8-11.9,70.2c-7.6,26-17.5,43.1-18.4,45
					c0,0-0.4-1.9,2.4-15.2c2.8-13.3,16.8-96,16.8-100.2S162.4,35.3,162.4,35.3z"/>
			</g>
		</g>
		<g id="XMLID_21905_">
			<g id="XMLID_21919_">
				<g id="XMLID_21932_">
					<g>
						<line class="st8" x1="121.3" y1="136.6" x2="121.3" y2="137.1"/>
						<line class="st12" x1="121.3" y1="139.2" x2="121.3" y2="193"/>
						<line class="st8" x1="121.3" y1="194" x2="121.3" y2="194.5"/>
					</g>
				</g>
				<path id="XMLID_21931_" class="st5" d="M124.5,196c0,0-6.1-0.4-15.9-0.4S92.4,196,92.4,196l0.7-0.5c0,0,13.4-0.8,16.3-0.9
					c2.9-0.1,14.8,0.6,14.8,0.6L124.5,196z"/>
				<path id="XMLID_21930_" class="st6" d="M124.5,195.7c0,0-6.1-0.4-15.9-0.4s-16.2,0.4-16.2,0.4l0.7-0.5c0,0,13.4-0.8,16.3-0.9
					c2.9-0.1,14.8,0.6,14.8,0.6L124.5,195.7z"/>
				<path id="XMLID_21929_" class="st5" d="M92.4,195.6c0,0,6.1,0.4,15.9,0.4s16.2-0.4,16.2-0.4l-0.7,0.5c0,0-13.4,0.8-16.3,0.9
					c-2.9,0.1-14.8-0.6-14.8-0.6L92.4,195.6z"/>
				<path id="XMLID_21928_" class="st6" d="M92.4,195.9c0,0,6.1,0.4,15.9,0.4s16.2-0.4,16.2-0.4l-0.7,0.5c0,0-13.4,0.8-16.3,0.9
					c-2.9,0.1-14.8-1-14.8-1L92.4,195.9z"/>
				<path id="XMLID_21927_" class="st10" d="M124.7,195.7v-0.6c0-0.2-0.3-0.5-0.6-0.5l-11.5-0.4c-2.7-0.1-5.3-0.1-8,0L93,194.6
					c-0.3,0-0.6,0.2-0.6,0.5v0.6c0,0,9.4-0.4,16.2-0.4C114.8,195.3,124.7,195.7,124.7,195.7z"/>
				<path id="XMLID_21926_" class="st13" d="M92.4,195.9v0.7c0,0.2,0.2,0.4,0.6,0.5l11.6,0.6c2.7,0.1,5.3,0.1,8,0l11.7-0.6
					c0.3,0,0.6-0.2,0.6-0.5v-0.7c0,0-1.5,0.9-16.2,0.9S92.4,195.9,92.4,195.9z"/>
				<path id="XMLID_21925_" class="st5" d="M124.5,177.3c0,0-4.7-0.4-12.3-0.4s-12.6,0.4-12.6,0.4l0.5-0.5c0,0,10.4-0.8,12.6-0.9
					c2.3-0.1,11.5,0.6,11.5,0.6L124.5,177.3z"/>
				<path id="XMLID_21924_" class="st6" d="M124.5,177c0,0-4.7-0.4-12.3-0.4S99.6,177,99.6,177l0.5-0.5c0,0,10.4-0.8,12.6-0.9
					c2.3-0.1,11.5,0.6,11.5,0.6L124.5,177z"/>
				<path id="XMLID_21923_" class="st5" d="M99.6,176.9c0,0,4.7,0.4,12.3,0.4s12.6-0.4,12.6-0.4l-0.5,0.5c0,0-10.4,0.8-12.6,0.9
					c-2.3,0.1-11.5-0.6-11.5-0.6L99.6,176.9z"/>
				<path id="XMLID_21922_" class="st6" d="M99.6,177.2c0,0,4.7,0.4,12.3,0.4s12.6-0.4,12.6-0.4l-0.5,0.5c0,0-10.4,0.8-12.6,0.9
					c-2.3,0.1-11.5-1-11.5-1L99.6,177.2z"/>
				<path id="XMLID_21921_" class="st10" d="M124.7,177v-0.6c0-0.2-0.2-0.5-0.4-0.5l-9-0.4c-2.1-0.1-4.1-0.1-6.2,0l-9,0.4
					c-0.2,0-0.4,0.2-0.4,0.5v0.6c0,0,7.3-0.4,12.5-0.4C117,176.6,124.7,177,124.7,177z"/>
				<path id="XMLID_21920_" class="st13" d="M99.6,177.2v0.7c0,0.2,0.2,0.4,0.4,0.5l9,0.6c2.1,0.1,4.1,0.1,6.2,0l9.1-0.6
					c0.2,0,0.4-0.2,0.4-0.5v-0.7c0,0-1.2,0.9-12.5,0.9S99.6,177.2,99.6,177.2z"/>
			</g>
			<g id="XMLID_21906_">
				<path id="XMLID_21918_" class="st5" d="M175.4,196c0,0,6.1-0.4,15.9-0.4c9.8,0,16.2,0.4,16.2,0.4l-0.7-0.5
					c0,0-13.4-0.8-16.3-0.9c-2.9-0.1-14.8,0.6-14.8,0.6L175.4,196z"/>
				<path id="XMLID_21917_" class="st6" d="M175.4,195.7c0,0,6.1-0.4,15.9-0.4c9.8,0,16.2,0.4,16.2,0.4l-0.7-0.5
					c0,0-13.4-0.8-16.3-0.9c-2.9-0.1-14.8,0.6-14.8,0.6L175.4,195.7z"/>
				<path id="XMLID_21916_" class="st5" d="M207.5,195.6c0,0-6.1,0.4-15.9,0.4s-16.2-0.4-16.2-0.4l0.7,0.5c0,0,13.4,0.8,16.3,0.9
					c2.9,0.1,14.8-0.6,14.8-0.6L207.5,195.6z"/>
				<path id="XMLID_21915_" class="st6" d="M207.5,195.9c0,0-6.1,0.4-15.9,0.4s-16.2-0.4-16.2-0.4l0.7,0.5c0,0,13.4,0.8,16.3,0.9
					c2.9,0.1,14.8-1,14.8-1L207.5,195.9z"/>
				<path id="XMLID_21914_" class="st10" d="M175.2,195.7v-0.6c0-0.2,0.3-0.5,0.6-0.5l11.5-0.4c2.7-0.1,5.3-0.1,8,0l11.7,0.4
					c0.3,0,0.6,0.2,0.6,0.5v0.6c0,0-9.4-0.4-16.2-0.4C185.1,195.3,175.2,195.7,175.2,195.7z"/>
				<path id="XMLID_21913_" class="st13" d="M207.5,195.9v0.7c0,0.2-0.2,0.4-0.6,0.5l-11.6,0.6c-2.7,0.1-5.3,0.1-8,0l-11.7-0.6
					c-0.3,0-0.6-0.2-0.6-0.5v-0.7c0,0,1.5,0.9,16.2,0.9C205.9,196.8,207.5,195.9,207.5,195.9z"/>
				<g id="XMLID_21907_">
					<g>
						<line class="st8" x1="181.1" y1="136.6" x2="181.1" y2="137.1"/>
						<line class="st14" x1="181.1" y1="139.1" x2="181.1" y2="192.6"/>
						<line class="st8" x1="181.1" y1="193.6" x2="181.1" y2="194.1"/>
					</g>
				</g>
			</g>
		</g>
		<g id="XMLID_21888_">
			<g id="XMLID_9262_">
				<circle id="XMLID_9277_" class="st5" cx="151.3" cy="158.4" r="3.2"/>
				<circle id="XMLID_9276_" class="st15" cx="151.4" cy="158.2" r="3.1"/>
				<polygon id="XMLID_9275_" class="st16" points="155.4,158.1 151.4,157.4 147.1,158.1 151.5,158.9 				"/>
				<circle id="XMLID_9274_" class="st17" cx="151.3" cy="157.8" r="3.1"/>
				<circle id="XMLID_9273_" class="st18" cx="151.3" cy="157.8" r="2.7"/>
				<circle id="XMLID_9272_" class="st19" cx="150.8" cy="157.1" r="0.4"/>
				<circle id="XMLID_9271_" class="st19" cx="151.8" cy="159" r="0.4"/>
				<line id="XMLID_9270_" class="st20" x1="150.7" y1="157.1" x2="151.6" y2="159"/>
				<line id="XMLID_9269_" class="st20" x1="150.9" y1="157" x2="151.9" y2="158.9"/>
				<line id="XMLID_9268_" class="st20" x1="150.7" y1="157.1" x2="151.6" y2="159"/>
				<line id="XMLID_9267_" class="st20" x1="150.9" y1="157" x2="151.9" y2="158.9"/>
				<circle id="XMLID_9266_" class="st19" cx="150.3" cy="158.5" r="0.4"/>
				<circle id="XMLID_9265_" class="st19" cx="152.3" cy="157.6" r="0.4"/>
				<line id="XMLID_9264_" class="st20" x1="150.3" y1="158.7" x2="152.2" y2="157.8"/>
				<line id="XMLID_9263_" class="st20" x1="150.2" y1="158.4" x2="152.1" y2="157.5"/>
			</g>
		</g>
		<g id="XMLID_21773_">
			<g id="XMLID_21831_">
				<g id="XMLID_9249_">
					<path id="XMLID_21887_" class="st16" d="M240.2,234.2l-2.2,0.2l-2.2,0.7c-0.1,0-0.1,0.2,0,0.2l2.2-0.2l2.1-0.6
						C240.3,234.4,240.3,234.2,240.2,234.2z"/>
					<circle id="XMLID_9261_" class="st5" cx="238.7" cy="234.7" r="1.7"/>
					<circle id="XMLID_9260_" class="st15" cx="238.7" cy="234.6" r="1.6"/>
					<circle id="XMLID_9259_" class="st21" cx="238.7" cy="234.4" r="1.6"/>
					<circle id="XMLID_9258_" class="st18" cx="238.7" cy="234.4" r="1.4"/>
					<circle id="XMLID_9257_" class="st19" cx="238.5" cy="234" r="0.2"/>
					<circle id="XMLID_9256_" class="st19" cx="238.9" cy="235" r="0.2"/>
					<line id="XMLID_9255_" class="st22" x1="238.4" y1="234" x2="238.9" y2="235"/>
					<line id="XMLID_9254_" class="st22" x1="238.5" y1="234" x2="239" y2="235"/>
					<circle id="XMLID_9253_" class="st19" cx="238.2" cy="234.8" r="0.2"/>
					<circle id="XMLID_9252_" class="st19" cx="239.2" cy="234.3" r="0.2"/>
					<line id="XMLID_9251_" class="st22" x1="238.2" y1="234.8" x2="239.2" y2="234.3"/>
					<line id="XMLID_9250_" class="st22" x1="238.1" y1="234.7" x2="239.1" y2="234.2"/>
				</g>
				<g id="XMLID_9236_">
					<path id="XMLID_21873_" class="st16" d="M239.5,230.5l-2.2,0.2l-2.2,0.7c-0.1,0-0.1,0.2,0,0.2l2.2-0.2l2.1-0.6
						C239.7,230.7,239.6,230.5,239.5,230.5z"/>
					<circle id="XMLID_9248_" class="st5" cx="238" cy="231" r="1.7"/>
					<circle id="XMLID_9247_" class="st15" cx="238.1" cy="230.9" r="1.6"/>
					<circle id="XMLID_9246_" class="st21" cx="238" cy="230.7" r="1.6"/>
					<circle id="XMLID_9245_" class="st18" cx="238" cy="230.7" r="1.4"/>
					<circle id="XMLID_9244_" class="st19" cx="237.8" cy="230.3" r="0.2"/>
					<circle id="XMLID_9243_" class="st19" cx="238.3" cy="231.3" r="0.2"/>
					<line id="XMLID_9242_" class="st22" x1="237.7" y1="230.3" x2="238.2" y2="231.3"/>
					<line id="XMLID_9241_" class="st22" x1="237.8" y1="230.3" x2="238.3" y2="231.3"/>
					<circle id="XMLID_9240_" class="st19" cx="237.5" cy="231.1" r="0.2"/>
					<circle id="XMLID_9239_" class="st19" cx="238.5" cy="230.6" r="0.2"/>
					<line id="XMLID_9238_" class="st22" x1="237.5" y1="231.1" x2="238.5" y2="230.7"/>
					<line id="XMLID_9237_" class="st22" x1="237.5" y1="231" x2="238.5" y2="230.5"/>
				</g>
				<g id="XMLID_9223_">
					<path id="XMLID_21859_" class="st16" d="M240.9,237.8l-2.2,0.2l-2.2,0.7c-0.1,0-0.1,0.2,0,0.2l2.2-0.2l2.1-0.6
						C241,238,241,237.8,240.9,237.8z"/>
					<circle id="XMLID_9235_" class="st5" cx="239.4" cy="238.3" r="1.7"/>
					<circle id="XMLID_9234_" class="st15" cx="239.4" cy="238.3" r="1.6"/>
					<circle id="XMLID_9233_" class="st21" cx="239.4" cy="238.1" r="1.6"/>
					<circle id="XMLID_9232_" class="st18" cx="239.4" cy="238.1" r="1.4"/>
					<circle id="XMLID_9231_" class="st19" cx="239.1" cy="237.7" r="0.2"/>
					<circle id="XMLID_9230_" class="st19" cx="239.6" cy="238.7" r="0.2"/>
					<line id="XMLID_9229_" class="st22" x1="239.1" y1="237.7" x2="239.5" y2="238.7"/>
					<line id="XMLID_9228_" class="st22" x1="239.2" y1="237.6" x2="239.7" y2="238.6"/>
					<circle id="XMLID_9227_" class="st19" cx="238.9" cy="238.4" r="0.2"/>
					<circle id="XMLID_9226_" class="st19" cx="239.9" cy="238" r="0.2"/>
					<line id="XMLID_9225_" class="st22" x1="238.9" y1="238.5" x2="239.9" y2="238"/>
					<line id="XMLID_9224_" class="st22" x1="238.8" y1="238.4" x2="239.8" y2="237.9"/>
				</g>
				<g id="XMLID_9210_">
					<path id="XMLID_21845_" class="st16" d="M241.5,241.5l-2.2,0.2l-2.2,0.7c-0.1,0-0.1,0.2,0,0.2l2.2-0.2l2.1-0.6
						C241.7,241.7,241.7,241.5,241.5,241.5z"/>
					<circle id="XMLID_9222_" class="st5" cx="240.1" cy="242" r="1.7"/>
					<circle id="XMLID_9221_" class="st15" cx="240.1" cy="242" r="1.6"/>
					<circle id="XMLID_9220_" class="st21" cx="240.1" cy="241.7" r="1.6"/>
					<circle id="XMLID_9219_" class="st18" cx="240.1" cy="241.7" r="1.4"/>
					<circle id="XMLID_9218_" class="st19" cx="239.8" cy="241.4" r="0.2"/>
					<circle id="XMLID_9217_" class="st19" cx="240.3" cy="242.4" r="0.2"/>
					<line id="XMLID_9216_" class="st22" x1="239.7" y1="241.4" x2="240.2" y2="242.4"/>
					<line id="XMLID_9215_" class="st22" x1="239.9" y1="241.3" x2="240.4" y2="242.3"/>
					<circle id="XMLID_9214_" class="st19" cx="239.6" cy="242.1" r="0.2"/>
					<circle id="XMLID_9213_" class="st19" cx="240.6" cy="241.6" r="0.2"/>
					<line id="XMLID_9212_" class="st22" x1="239.6" y1="242.2" x2="240.6" y2="241.7"/>
					<line id="XMLID_9211_" class="st22" x1="239.5" y1="242.1" x2="240.5" y2="241.6"/>
				</g>
			</g>
			<g id="XMLID_21774_">
				<g id="XMLID_9197_">
					<path id="XMLID_21830_" class="st16" d="M59.7,234.2l2.2,0.2l2.2,0.7c0.1,0,0.1,0.2,0,0.2l-2.2-0.2l-2.1-0.6
						C59.5,234.4,59.6,234.2,59.7,234.2z"/>
					<circle id="XMLID_9209_" class="st5" cx="61.1" cy="234.7" r="1.7"/>
					<circle id="XMLID_9208_" class="st15" cx="61.1" cy="234.6" r="1.6"/>
					<circle id="XMLID_9207_" class="st21" cx="61.1" cy="234.4" r="1.6"/>
					<circle id="XMLID_9206_" class="st18" cx="61.1" cy="234.4" r="1.4"/>
					<circle id="XMLID_9205_" class="st19" cx="61.4" cy="234" r="0.2"/>
					<circle id="XMLID_9204_" class="st19" cx="60.9" cy="235" r="0.2"/>
					<line id="XMLID_9203_" class="st22" x1="61.5" y1="234" x2="61" y2="235"/>
					<line id="XMLID_9202_" class="st22" x1="61.4" y1="234" x2="60.9" y2="235"/>
					<circle id="XMLID_9201_" class="st19" cx="61.7" cy="234.8" r="0.2"/>
					<circle id="XMLID_9200_" class="st19" cx="60.7" cy="234.3" r="0.2"/>
					<line id="XMLID_9199_" class="st22" x1="61.7" y1="234.8" x2="60.7" y2="234.3"/>
					<line id="XMLID_9198_" class="st22" x1="61.7" y1="234.7" x2="60.7" y2="234.2"/>
				</g>
				<g id="XMLID_9184_">
					<path id="XMLID_21816_" class="st16" d="M60.4,230.5l2.2,0.2l2.2,0.7c0.1,0,0.1,0.2,0,0.2l-2.2-0.2l-2.1-0.6
						C60.2,230.7,60.2,230.5,60.4,230.5z"/>
					<circle id="XMLID_9196_" class="st5" cx="61.8" cy="231" r="1.7"/>
					<circle id="XMLID_9195_" class="st15" cx="61.8" cy="230.9" r="1.6"/>
					<circle id="XMLID_9194_" class="st21" cx="61.8" cy="230.7" r="1.6"/>
					<circle id="XMLID_9193_" class="st18" cx="61.8" cy="230.7" r="1.4"/>
					<circle id="XMLID_9192_" class="st19" cx="62.1" cy="230.3" r="0.2"/>
					<circle id="XMLID_9191_" class="st19" cx="61.6" cy="231.3" r="0.2"/>
					<line id="XMLID_9190_" class="st22" x1="62.2" y1="230.3" x2="61.7" y2="231.3"/>
					<line id="XMLID_9189_" class="st22" x1="62" y1="230.3" x2="61.6" y2="231.3"/>
					<circle id="XMLID_9188_" class="st19" cx="62.4" cy="231.1" r="0.2"/>
					<circle id="XMLID_9187_" class="st19" cx="61.4" cy="230.6" r="0.2"/>
					<line id="XMLID_9186_" class="st22" x1="62.4" y1="231.1" x2="61.4" y2="230.7"/>
					<line id="XMLID_9185_" class="st22" x1="62.4" y1="231" x2="61.4" y2="230.5"/>
				</g>
				<g id="XMLID_9171_">
					<path id="XMLID_21802_" class="st16" d="M59,237.8l2.2,0.2l2.2,0.7c0.1,0,0.1,0.2,0,0.2l-2.2-0.2l-2.1-0.6
						C58.8,238,58.9,237.8,59,237.8z"/>
					<circle id="XMLID_9183_" class="st5" cx="60.5" cy="238.3" r="1.7"/>
					<circle id="XMLID_9182_" class="st15" cx="60.4" cy="238.3" r="1.6"/>
					<circle id="XMLID_9181_" class="st21" cx="60.5" cy="238.1" r="1.6"/>
					<circle id="XMLID_9180_" class="st18" cx="60.5" cy="238.1" r="1.4"/>
					<circle id="XMLID_9179_" class="st19" cx="60.7" cy="237.7" r="0.2"/>
					<circle id="XMLID_9178_" class="st19" cx="60.2" cy="238.7" r="0.2"/>
					<line id="XMLID_9177_" class="st22" x1="60.8" y1="237.7" x2="60.3" y2="238.7"/>
					<line id="XMLID_9176_" class="st22" x1="60.7" y1="237.6" x2="60.2" y2="238.6"/>
					<circle id="XMLID_9175_" class="st19" cx="61" cy="238.4" r="0.2"/>
					<circle id="XMLID_9174_" class="st19" cx="60" cy="238" r="0.2"/>
					<line id="XMLID_9173_" class="st22" x1="61" y1="238.5" x2="60" y2="238"/>
					<line id="XMLID_9172_" class="st22" x1="61" y1="238.4" x2="60" y2="237.9"/>
				</g>
				<g id="XMLID_9153_">
					<path id="XMLID_21788_" class="st16" d="M58.3,241.5l2.2,0.2l2.2,0.7c0.1,0,0.1,0.2,0,0.2l-2.2-0.2l-2.1-0.6
						C58.2,241.7,58.2,241.5,58.3,241.5z"/>
					<circle id="XMLID_9170_" class="st5" cx="59.8" cy="242" r="1.7"/>
					<circle id="XMLID_9169_" class="st15" cx="59.7" cy="242" r="1.6"/>
					<circle id="XMLID_9168_" class="st21" cx="59.8" cy="241.7" r="1.6"/>
					<circle id="XMLID_9167_" class="st18" cx="59.8" cy="241.7" r="1.4"/>
					<circle id="XMLID_9166_" class="st19" cx="60" cy="241.4" r="0.2"/>
					<circle id="XMLID_9165_" class="st19" cx="59.6" cy="242.4" r="0.2"/>
					<line id="XMLID_9164_" class="st22" x1="60.1" y1="241.4" x2="59.6" y2="242.4"/>
					<line id="XMLID_9158_" class="st22" x1="60" y1="241.3" x2="59.5" y2="242.3"/>
					<circle id="XMLID_9157_" class="st19" cx="60.3" cy="242.1" r="0.2"/>
					<circle id="XMLID_9156_" class="st19" cx="59.3" cy="241.6" r="0.2"/>
					<line id="XMLID_9155_" class="st22" x1="60.3" y1="242.2" x2="59.3" y2="241.7"/>
					<line id="XMLID_9154_" class="st22" x1="60.4" y1="242.1" x2="59.4" y2="241.6"/>
				</g>
			</g>
		</g>
	</g>
</g>
</svg>
