<?xml version="1.0" encoding="utf-8"?>
<!-- Generator: Adobe Illustrator 19.0.0, SVG Export Plug-In . SVG Version: 6.00 Build 0)  -->
<svg version="1.1" id="Layer_1" xmlns="http://www.w3.org/2000/svg" xmlns:xlink="http://www.w3.org/1999/xlink" x="0px" y="0px"
	 viewBox="0 0 300 300" style="enable-background:new 0 0 300 300;" xml:space="preserve">
<style type="text/css">
	.st0{clip-path:url(#SVGID_2_);}
	.st1{fill:#9AA0BB;}
	.st2{fill:#F1F1F2;stroke:#404041;stroke-miterlimit:10;}
	.st3{fill:#FFFFFF;stroke:#404041;stroke-miterlimit:10;}
	.st4{fill:#929497;}
	.st5{fill:#F1F1F2;}
	.st6{fill:#C5C7C9;}
	.st7{fill:none;stroke:#404041;stroke-miterlimit:10;}
	.st8{fill:none;stroke:#808184;stroke-width:0.5;stroke-miterlimit:10;}
	.st9{fill:none;stroke:#808184;stroke-width:0.5;stroke-miterlimit:10;stroke-dasharray:0.9936,1.9872;}
	.st10{fill:none;stroke:#808184;stroke-width:0.5;stroke-miterlimit:10;stroke-dasharray:1.0089,2.0179;}
	.st11{fill:none;stroke:#808184;stroke-width:0.5;stroke-miterlimit:10;stroke-dasharray:0.9901,1.9803;}
	.st12{fill:none;stroke:#808184;stroke-width:0.5;stroke-miterlimit:10;stroke-dasharray:1,2;}
	.st13{fill:none;stroke:#808184;stroke-width:0.5;stroke-miterlimit:10;stroke-dasharray:0.9891,1.9781;}
	.st14{fill:#DBDCDD;}
	.st15{fill:#404041;stroke:#D0D2D3;stroke-width:0.5;stroke-miterlimit:10;}
	.st16{fill:#FFFFFF;stroke:#6D6E70;stroke-miterlimit:10;}
	.st17{fill:#FFFFFF;stroke:#929497;stroke-width:0.25;stroke-miterlimit:10;}
	.st18{fill:#404041;}
	.st19{fill:none;stroke:#6D6E70;stroke-width:0.5;stroke-miterlimit:10;}
	.st20{fill:#FFFFFF;stroke:#6D6E70;stroke-width:0.5;stroke-miterlimit:10;}
	.st21{fill:none;stroke:#6D6E70;stroke-width:0.25;stroke-miterlimit:10;}
</style>
<g>
	<defs>
		<circle id="SVGID_1_" cx="150.1" cy="149.6" r="150"/>
	</defs>
	<use xlink:href="#SVGID_1_"  style="overflow:visible;fill:#DDDDDD;"/>
	<clipPath id="SVGID_2_">
		<use xlink:href="#SVGID_1_"  style="overflow:visible;"/>
	</clipPath>
	<g id="XMLID_1_" class="st0">
		<defs>
			<rect id="XMLID_4932_" x="-13.5" width="327.1" height="300"/>
		</defs>
		<clipPath id="XMLID_8_">
			<use xlink:href="#XMLID_4932_"  style="overflow:visible;"/>
		</clipPath>
	</g>
	<g class="st0">
		<path class="st1" d="M150.1,4.6c38.7,0,75.1,15.1,102.5,42.5c27.4,27.4,42.5,63.8,42.5,102.5s-15.1,75.1-42.5,102.5
			c-27.4,27.4-63.8,42.5-102.5,42.5S75,279.5,47.6,252.1C20.2,224.7,5.1,188.3,5.1,149.6S20.2,74.5,47.6,47.1
			C75,19.7,111.4,4.6,150.1,4.6 M150.1-0.4c-82.8,0-150,67.2-150,150s67.2,150,150,150s150-67.2,150-150S232.9-0.4,150.1-0.4
			L150.1-0.4z"/>
	</g>
	<g id="XMLID_21107_" class="st0">
		<g id="XMLID_21213_">
			<g id="XMLID_21318_">
				<polygon id="XMLID_21341_" class="st2" points="163.1,38.2 168.4,44.1 148.6,132.2 131.5,44.1 136.6,38.2 				"/>
				<path id="XMLID_21340_" class="st3" d="M163.3,35.3c0,0,0.1-0.3-13.3-0.3c0,0-0.1,0-0.1,0c0,0-0.1,0-0.1,0
					c-13.4,0-13.3,0.3-13.3,0.3l-1.6,5.8c0,0,2.2,0.5,7.5,0.8c2,0.1,4.7,0.1,7.7,0.1c3,0,5.4-0.1,7.5-0.1c5.3-0.2,7.5-0.8,7.5-0.8
					L163.3,35.3z"/>
				<g id="XMLID_21336_">
					<path id="XMLID_21339_" class="st4" d="M138.8,35.2c0,0-1.4,1.5-1.3,3.5c0.1,2,0.2,2.6,0.2,2.6h-1.5l0.1-6L138.8,35.2z"/>
					<path id="XMLID_21338_" class="st5" d="M139.4,35.2c-0.4,0-0.7,0-1,0c-0.8,1.3-0.8,5-0.8,6.3c0.4,0,0.9,0.1,1.4,0.1
						c-0.1-0.4-0.2-1.2-0.2-2.7C138.9,37.1,139.2,35.7,139.4,35.2z"/>
					<path id="XMLID_21337_" class="st6" d="M138.5,35.2c-0.2,0-0.4,0-0.5,0c-0.3,0.3-0.6,0.7-0.7,1.6c-0.2,1.6-0.2,3.7-0.3,4.7
						c0.4,0,0.9,0.1,1.4,0.1C138.2,40.2,137.7,36.4,138.5,35.2z"/>
				</g>
				<g id="XMLID_21332_">
					<path id="XMLID_21335_" class="st4" d="M160.8,35.2c0,0,1.4,1.5,1.3,3.5c-0.1,2-0.2,2.6-0.2,2.6h1.5l-0.1-6L160.8,35.2z"/>
					<path id="XMLID_21334_" class="st5" d="M160.2,35.2c0.4,0,0.7,0,1,0c0.8,1.3,0.8,5,0.8,6.3c-0.4,0-0.9,0.1-1.4,0.1
						c0.1-0.4,0.2-1.2,0.2-2.7C160.7,37.1,160.4,35.7,160.2,35.2z"/>
					<path id="XMLID_21333_" class="st6" d="M161.1,35.2c0.2,0,0.4,0,0.5,0c0.3,0.3,0.6,0.7,0.7,1.6c0.2,1.6,0.2,3.7,0.3,4.7
						c-0.4,0-0.9,0.1-1.4,0.1C161.4,40.2,161.8,36.4,161.1,35.2z"/>
				</g>
				<path id="XMLID_21331_" class="st7" d="M163.3,35.3c0,0,0.1-0.3-13.3-0.3c0,0-0.1,0-0.1,0c0,0-0.1,0-0.1,0
					c-13.4,0-13.3,0.3-13.3,0.3l-1.6,5.8c0,0,2.2,0.5,7.5,0.8c2,0.1,4.7,0.1,7.7,0.1c3,0,5.4-0.1,7.5-0.1c5.3-0.2,7.5-0.8,7.5-0.8
					L163.3,35.3z"/>
				<g id="XMLID_21328_">
					<polygon id="XMLID_21330_" class="st4" points="137.3,53.5 150,113.4 162.3,53.5 154.2,123.8 149.5,128.7 145.8,123.1 					"/>
					<polygon id="XMLID_21329_" class="st6" points="149.8,121.2 162.6,50.8 150,113.1 137,50.8 					"/>
				</g>
				<g id="XMLID_21322_">
					<g>
						<line class="st8" x1="149.9" y1="42.8" x2="149.9" y2="43.3"/>
						<line class="st9" x1="149.9" y1="45.3" x2="149.9" y2="124.8"/>
						<line class="st8" x1="149.9" y1="125.8" x2="149.9" y2="126.3"/>
					</g>
				</g>
				<path id="XMLID_21321_" class="st4" d="M143,44.3l0.5,0.5c0,0,3.5-0.3,6.4-0.3s6.6,0.3,6.6,0.3l0.3-0.5H143z"/>
				<path id="XMLID_21320_" class="st6" d="M143.4,44.7l0.4,0.4c0,0,3.3-0.2,6.2-0.2c2.9,0,6.5,0.2,6.5,0.2l0.2-0.4l-6.7-0.1
					L143.4,44.7z"/>
				<path id="XMLID_21319_" class="st3" d="M150,42c-3.1,0-5.6,0-7.6-0.1l0.9,2.3h6.7h0.1h6.7l0.9-2.3C155.6,42,153,42,150,42z"/>
			</g>
			<path id="XMLID_21317_" class="st2" d="M156.7,253.6c0-0.4,0-13.5,0-13.5h-13.6v13.5H156.7z"/>
			<g id="XMLID_21314_">
				<polygon id="XMLID_21316_" class="st4" points="150.1,245.1 144.8,256.9 149.9,238.1 155.3,257.1 				"/>
				<polygon id="XMLID_21315_" class="st6" points="149.9,247.5 144.8,256.9 149.9,243.5 155.3,257.1 				"/>
			</g>
			<path id="XMLID_21312_" class="st3" d="M157.2,174.1c-1.2-28.1-2.6-20.6-2.6-20.6l-2.4-20.2l-1.9-4.1
				c-2.9-14.5-6.5-32.5-7.2-37.4c-1.2-8-5.1-33.4-5.1-33.4c-2.4-15.4-1.4-23-1.4-23s-11.6,6.6-13.9,8.2c-1.2,0.8-11.9,5.5-21,9.7
				c-11,5.1-12.6,7.8-12.6,7.8c8.5,5.3,10.3,24.2,10.4,46.4c0.2,22.2-6,60.1-6.7,79.8c-0.8,20.5-5,70.7-5,70.7s36.5,9.3,46.5,6.6
				c10-2.7,10.8-8.3,12.7-13.5l2.9-10.3C150.1,240.7,158.4,202.2,157.2,174.1z"/>
			<g id="XMLID_21306_">
				<g>
					<line class="st8" x1="121.3" y1="129.8" x2="121.3" y2="130.3"/>
					<line class="st10" x1="121.3" y1="132.3" x2="121.3" y2="185.8"/>
					<line class="st8" x1="121.3" y1="186.8" x2="121.3" y2="187.3"/>
				</g>
			</g>
			<g id="XMLID_21296_">
				<path id="XMLID_21305_" class="st5" d="M125.8,189.3l0.7,9.5c0.3,5.4-2.2,7.1-4.9,7.1H92.3l0.1-2.5L125.8,189.3z"/>
				<path id="XMLID_21304_" class="st6" d="M125.8,189l0.3,7.8c0.3,5.4-1.5,8.4-4.6,8.4H92.3l0.1-2.5L125.8,189z"/>
				<path id="XMLID_21303_" class="st3" d="M125.8,191.3v-2.7H92.9l-0.8,16h28.8c3.8,0,4.9-4.5,4.9-8.3l0,0V191.3z"/>
				<g id="XMLID_21297_">
					<g>
						<line class="st8" x1="125.6" y1="190.3" x2="125.1" y2="190.3"/>
						<line class="st11" x1="123.1" y1="190.3" x2="94.4" y2="190.3"/>
						<line class="st8" x1="93.4" y1="190.3" x2="92.9" y2="190.3"/>
					</g>
				</g>
			</g>
			<g id="XMLID_21293_">
				<path id="XMLID_21295_" class="st5" d="M99.8,147.4c3.2-22,1.8-39.7-0.4-53.5c0.4,2.7,0.7,7.6,0.7,8.3c0.4,4.7,0.8,9.5,0.6,14.1
					c-0.1,9.8-0.8,20.9-2.6,33.2c-1.5,10.5-2.6,15.2-3.4,17c-0.2,1.5-0.3,2.9-0.5,4.4C96.3,170.7,97.7,161.6,99.8,147.4z"/>
				<path id="XMLID_21294_" class="st6" d="M97.8,138.5c-1,9.5-2.1,19.2-3,28c0.8-1.8,1.9-6.5,3.4-17c1.8-12.3,2.6-22.3,2.6-38.8
					l0,0c0.2-6-1.5-17-1.4-16.5C100.2,107.4,98.7,130.6,97.8,138.5z"/>
			</g>
			<path id="XMLID_21292_" class="st3" d="M99.6,107.4c-0.2-20.8-1.7-38.7-8.9-45.2l-1.5-0.9c0,0-2.3-0.8-4.7,10.6
				c-2.4,11.4-28.2,173.4-28.2,173.4s4.3,3.7,13.2,4.1c8.9,0.3,13.4-1.9,13.4-1.9l13.9-101.1C98.3,132.4,99.7,118.1,99.6,107.4z"/>
			<g id="XMLID_21289_">
				<path id="XMLID_21291_" class="st5" d="M150.2,125.6c0,0-10.1,23.9-10.1,57.9s11.2,58.6,11.2,58.6l-1.2-41.3l1.7-72.3
					L150.2,125.6z"/>
				<path id="XMLID_21290_" class="st6" d="M151.7,125.6c0,0-10.1,23.9-10.1,57.9s11.2,58.6,11.2,58.6l-1.2-41.3l1.7-72.3
					L151.7,125.6z"/>
			</g>
			<g id="XMLID_21218_">
				<path id="XMLID_21288_" class="st3" d="M200.4,107.4c0.2-22.2,1.9-41.1,10.4-46.4c0,0-1.5-2.7-12.6-7.8
					c-10.4-4.8-19.1-8.6-22.5-10.5c-0.2-0.1-0.4-0.2-0.6-0.3c-3-1.8-11.8-7-11.8-7s0.6,7.7-1.8,23c0,0-3.9,25.4-5.1,33.4
					s-9.9,50.2-10.9,56.5c-0.3,1.6-0.5,3.2-0.8,4.6c-0.5,3-0.9,5.8-1,6.8c-0.3,3.2-0.6,7.8-0.9,14.3c-1.2,28.1,7.1,66.6,7.1,66.6
					l3,10.4c2,5.2,2.6,10.7,12.6,13.4c10,2.7,45.2-6.6,45.2-6.6s-2.9-50.2-3.7-70.7C206.4,167.5,200.2,129.6,200.4,107.4z"/>
				<polygon id="XMLID_21287_" class="st5" points="194.6,109.6 194.6,108.3 162.8,109.2 162.8,110.5 				"/>
				<polygon id="XMLID_21286_" class="st6" points="194.6,110.2 194.6,108.8 162.8,109.7 162.8,111.1 				"/>
				<polygon id="XMLID_21285_" class="st3" points="194.5,109.4 194.5,117.2 163.1,117.9 163.1,110.3 				"/>
				<line id="XMLID_21284_" class="st12" x1="163.1" y1="110.6" x2="194.5" y2="109.7"/>
				<g id="XMLID_21278_">
					<g>
						<line class="st8" x1="178.7" y1="129.8" x2="178.7" y2="130.3"/>
						<line class="st10" x1="178.7" y1="132.3" x2="178.7" y2="185.8"/>
						<line class="st8" x1="178.7" y1="186.8" x2="178.7" y2="187.3"/>
					</g>
				</g>
				<g id="XMLID_21268_">
					<path id="XMLID_21277_" class="st5" d="M174.2,189.3l-0.7,9.5c-0.3,5.4,2.2,7.1,4.9,7.1h29.3l-0.1-2.5L174.2,189.3z"/>
					<path id="XMLID_21276_" class="st6" d="M174.2,189l-0.3,7.8c-0.3,5.4,1.5,8.4,4.6,8.4h29.2l-0.1-2.5L174.2,189z"/>
					<path id="XMLID_21275_" class="st3" d="M174.2,191.3v-2.7h32.9l0.8,16h-28.8c-3.8,0-4.9-4.5-4.9-8.3l0,0V191.3z"/>
					<g id="XMLID_21269_">
						<g>
							<line class="st8" x1="174.5" y1="190.3" x2="175" y2="190.3"/>
							<line class="st13" x1="177" y1="190.3" x2="205.6" y2="190.3"/>
							<line class="st8" x1="206.6" y1="190.3" x2="207.1" y2="190.3"/>
						</g>
					</g>
				</g>
				<g id="XMLID_21219_">
					<g id="XMLID_8923_">
						<circle id="XMLID_8938_" class="st5" cx="151.2" cy="165.3" r="3.2"/>
						<circle id="XMLID_8937_" class="st14" cx="151.3" cy="165.2" r="3.1"/>
						<polygon id="XMLID_8936_" class="st15" points="155.2,165 151.3,164.3 147,165 151.4,165.8 						"/>
						<circle id="XMLID_8935_" class="st16" cx="151.2" cy="164.7" r="3.1"/>
						<circle id="XMLID_8934_" class="st17" cx="151.2" cy="164.7" r="2.7"/>
						<circle id="XMLID_8933_" class="st18" cx="150.7" cy="164" r="0.4"/>
						<circle id="XMLID_8932_" class="st18" cx="151.6" cy="165.9" r="0.4"/>
						<line id="XMLID_8931_" class="st19" x1="150.6" y1="164" x2="151.5" y2="165.9"/>
						<line id="XMLID_8930_" class="st19" x1="150.8" y1="163.9" x2="151.7" y2="165.8"/>
						<line id="XMLID_8929_" class="st19" x1="150.6" y1="164" x2="151.5" y2="165.9"/>
						<line id="XMLID_8928_" class="st19" x1="150.8" y1="163.9" x2="151.7" y2="165.8"/>
						<circle id="XMLID_8927_" class="st18" cx="150.2" cy="165.5" r="0.4"/>
						<circle id="XMLID_8926_" class="st18" cx="152.1" cy="164.5" r="0.4"/>
						<line id="XMLID_8925_" class="st19" x1="150.2" y1="165.6" x2="152.1" y2="164.7"/>
						<line id="XMLID_8924_" class="st19" x1="150.1" y1="165.4" x2="152" y2="164.4"/>
					</g>
					<g id="XMLID_8050_">
						<circle id="XMLID_8922_" class="st5" cx="151.2" cy="138.2" r="3.2"/>
						<circle id="XMLID_8921_" class="st14" cx="151.3" cy="138.1" r="3.1"/>
						<polygon id="XMLID_8920_" class="st15" points="155.2,138 151.3,137.2 147,138 151.4,138.8 						"/>
						<circle id="XMLID_8062_" class="st16" cx="151.2" cy="137.7" r="3.1"/>
						<circle id="XMLID_8061_" class="st17" cx="151.2" cy="137.7" r="2.7"/>
						<circle id="XMLID_8060_" class="st18" cx="150.7" cy="137" r="0.4"/>
						<circle id="XMLID_8059_" class="st18" cx="151.6" cy="138.9" r="0.4"/>
						<line id="XMLID_8058_" class="st19" x1="150.6" y1="137" x2="151.5" y2="138.9"/>
						<line id="XMLID_8057_" class="st19" x1="150.8" y1="136.9" x2="151.7" y2="138.8"/>
						<line id="XMLID_8056_" class="st19" x1="150.6" y1="137" x2="151.5" y2="138.9"/>
						<line id="XMLID_8055_" class="st19" x1="150.8" y1="136.9" x2="151.7" y2="138.8"/>
						<circle id="XMLID_8054_" class="st18" cx="150.2" cy="138.4" r="0.4"/>
						<circle id="XMLID_8053_" class="st18" cx="152.1" cy="137.5" r="0.4"/>
						<line id="XMLID_8052_" class="st19" x1="150.2" y1="138.6" x2="152.1" y2="137.6"/>
						<line id="XMLID_8051_" class="st19" x1="150.1" y1="138.3" x2="152" y2="137.4"/>
					</g>
					<g id="XMLID_7241_">
						<circle id="XMLID_8049_" class="st5" cx="151.2" cy="192.3" r="3.2"/>
						<circle id="XMLID_8048_" class="st14" cx="151.3" cy="192.2" r="3.1"/>
						<polygon id="XMLID_8047_" class="st15" points="155.2,192.1 151.3,191.3 147,192.1 151.4,192.8 						"/>
						<circle id="XMLID_8046_" class="st16" cx="151.2" cy="191.8" r="3.1"/>
						<circle id="XMLID_8045_" class="st17" cx="151.2" cy="191.8" r="2.7"/>
						<circle id="XMLID_8044_" class="st18" cx="150.7" cy="191.1" r="0.4"/>
						<circle id="XMLID_8043_" class="st18" cx="151.6" cy="193" r="0.4"/>
						<line id="XMLID_8042_" class="st19" x1="150.6" y1="191.1" x2="151.5" y2="193"/>
						<line id="XMLID_8041_" class="st19" x1="150.8" y1="191" x2="151.7" y2="192.9"/>
						<line id="XMLID_7374_" class="st19" x1="150.6" y1="191.1" x2="151.5" y2="193"/>
						<line id="XMLID_7248_" class="st19" x1="150.8" y1="191" x2="151.7" y2="192.9"/>
						<circle id="XMLID_7245_" class="st18" cx="150.2" cy="192.5" r="0.4"/>
						<circle id="XMLID_7244_" class="st18" cx="152.1" cy="191.6" r="0.4"/>
						<line id="XMLID_7243_" class="st19" x1="150.2" y1="192.6" x2="152.1" y2="191.7"/>
						<line id="XMLID_7242_" class="st19" x1="150.1" y1="192.4" x2="152" y2="191.5"/>
					</g>
				</g>
			</g>
			<g id="XMLID_21215_">
				<path id="XMLID_21217_" class="st5" d="M200.2,147.4c-3.2-22-1.8-39.7,0.4-53.5c-0.4,2.7-0.7,7.6-0.7,8.3
					c-0.4,4.7-0.8,9.5-0.6,14.1c0.1,9.8,0.8,20.9,2.6,33.2c1.5,10.5,2.6,15.2,3.4,17c0.2,1.5,0.3,2.9,0.5,4.4
					C203.6,170.7,202.3,161.6,200.2,147.4z"/>
				<path id="XMLID_21216_" class="st6" d="M202.2,138.5c1,9.5,2.1,19.2,3,28c-0.8-1.8-1.9-6.5-3.4-17c-1.8-12.3-2.6-22.3-2.6-38.8
					l0,0c-0.2-6,1.5-17,1.4-16.5C199.7,107.4,201.3,130.6,202.2,138.5z"/>
			</g>
			<path id="XMLID_21214_" class="st3" d="M215.5,71.7c-2.4-11.4-4.7-10.6-4.7-10.6l0,0c-8.5,5.3-10.3,24.2-10.4,46.4
				c-0.1,10.3,1.2,24.1,2.7,37.8l14.1,102.1c0,0,4.5,2.2,13.4,1.9c8.9-0.3,13.2-4.1,13.2-4.1S217.9,83.1,215.5,71.7z"/>
		</g>
		<g id="XMLID_21197_">
			<g id="XMLID_21208_">
				<path id="XMLID_21212_" class="st5" d="M134.6,109.7c-8.6-17.8-18.4-41.3-18.4-41.3l1-2.8l32.4,69.3c0,0,0.4,2.7-0.5,1
					C145.1,129.5,139.4,119.5,134.6,109.7z"/>
				<path id="XMLID_21211_" class="st6" d="M148.8,135.3c-4.1-7.5-10.4-19.1-15.6-29.9c-8.7-18-16.6-38.1-16.6-38.1l0.6-1.6
					l32.1,68.7C149.3,134.4,149,135.6,148.8,135.3z"/>
				<polygon id="XMLID_21210_" class="st5" points="124.4,61.7 118.2,58.5 119.2,55.5 125.7,53.7 130,60 127.5,61.7 				"/>
				<polygon id="XMLID_21209_" class="st6" points="124.8,61 118.5,57.6 119.5,54.4 126.1,52.5 130.3,59.2 127.9,61 				"/>
			</g>
			<path id="XMLID_21207_" class="st3" d="M126,60.6l-7-4.1c0,0,0.1-0.6,2.1-6s3-7.8,3-7.8c0.2-0.1,0.4-0.2,0.6-0.3
				c3-1.8,11.8-7,11.8-7s-0.6,7.7,1.8,23c0,0,3.9,25.4,5.1,33.4c0.7,5.2,4.7,24.6,7.6,39.5c0.5,2.3-1.1,5.6-1.7,4.4
				c-14.4-26.8-24.6-51.2-29.2-62.7c-1.7-4.4-2.8-7.1-2.8-7.1L126,60.6z"/>
			<g id="XMLID_21204_">
				<polygon id="XMLID_21206_" class="st5" points="149.5,123.5 146.9,131.2 148.4,133.9 149.9,125.6 				"/>
				<polygon id="XMLID_21205_" class="st6" points="149.6,124.1 147.7,132.6 148.7,134.1 150.4,125.8 				"/>
			</g>
			<g id="XMLID_21199_">
				<path id="XMLID_21203_" class="st5" d="M165.1,109.7c8.6-17.8,18.4-41.3,18.4-41.3l-1-2.8l-36.2,77.4
					C146.4,143.1,157.2,126.1,165.1,109.7z"/>
				<path id="XMLID_21202_" class="st6" d="M146.4,143.5c0,0,11.4-20.1,20.2-38.1s16.6-38.1,16.6-38.1l-0.6-1.6l-36.2,77.4V143.5z"
					/>
				<polygon id="XMLID_21201_" class="st5" points="175.3,61.7 181.6,58.5 180.6,55.5 174,53.7 169.8,60 172.2,61.7 				"/>
				<polygon id="XMLID_21200_" class="st6" points="175,61 181.3,57.6 180.3,54.4 173.7,52.5 169.4,59.2 171.9,61 				"/>
			</g>
			<path id="XMLID_21198_" class="st3" d="M173.8,60.6l7-4.1c0,0-0.1-0.6-2.1-6s-3-7.8-3-7.8c-0.2-0.1-0.4-0.2-0.6-0.3
				c-3-1.8-11.8-7-11.8-7s0.6,7.7-1.8,23c0,0-3.9,25.4-5.1,33.4c-1,6.8-7.4,38-10,51.3c16.5-29.7,28.2-57.5,33.3-70.2
				c1.7-4.4,2.8-7.1,2.8-7.1L173.8,60.6z"/>
		</g>
		<g id="XMLID_21108_">
			<g id="XMLID_7228_">
				<path id="XMLID_21196_" class="st15" d="M240.9,235.8l-2.2,0.2l-2.2,0.7c-0.1,0-0.1,0.2,0,0.2l2.2-0.2l2.1-0.6
					C241.1,236,241.1,235.8,240.9,235.8z"/>
				<circle id="XMLID_7240_" class="st5" cx="239.5" cy="236.3" r="1.7"/>
				<circle id="XMLID_7239_" class="st14" cx="239.5" cy="236.3" r="1.6"/>
				<circle id="XMLID_7238_" class="st20" cx="239.5" cy="236" r="1.6"/>
				<circle id="XMLID_7237_" class="st17" cx="239.5" cy="236" r="1.4"/>
				<circle id="XMLID_7236_" class="st18" cx="239.2" cy="235.7" r="0.2"/>
				<circle id="XMLID_7235_" class="st18" cx="239.7" cy="236.7" r="0.2"/>
				<line id="XMLID_7234_" class="st21" x1="239.1" y1="235.7" x2="239.6" y2="236.7"/>
				<line id="XMLID_7233_" class="st21" x1="239.3" y1="235.6" x2="239.8" y2="236.6"/>
				<circle id="XMLID_7232_" class="st18" cx="239" cy="236.4" r="0.2"/>
				<circle id="XMLID_7231_" class="st18" cx="240" cy="235.9" r="0.2"/>
				<line id="XMLID_7230_" class="st21" x1="239" y1="236.5" x2="240" y2="236"/>
				<line id="XMLID_7229_" class="st21" x1="238.9" y1="236.4" x2="239.9" y2="235.9"/>
			</g>
			<g id="XMLID_7209_">
				<path id="XMLID_21182_" class="st15" d="M240.2,232.2l-2.2,0.2l-2.2,0.7c-0.1,0-0.1,0.2,0,0.2l2.2-0.2l2.1-0.6
					C240.4,232.4,240.4,232.2,240.2,232.2z"/>
				<circle id="XMLID_7227_" class="st5" cx="238.8" cy="232.7" r="1.7"/>
				<circle id="XMLID_7226_" class="st14" cx="238.8" cy="232.6" r="1.6"/>
				<circle id="XMLID_7225_" class="st20" cx="238.8" cy="232.4" r="1.6"/>
				<circle id="XMLID_7224_" class="st17" cx="238.8" cy="232.4" r="1.4"/>
				<circle id="XMLID_7223_" class="st18" cx="238.5" cy="232.1" r="0.2"/>
				<circle id="XMLID_7222_" class="st18" cx="239" cy="233.1" r="0.2"/>
				<line id="XMLID_7217_" class="st21" x1="238.4" y1="232.1" x2="238.9" y2="233.1"/>
				<line id="XMLID_7216_" class="st21" x1="238.6" y1="232" x2="239.1" y2="233"/>
				<circle id="XMLID_7213_" class="st18" cx="238.3" cy="232.8" r="0.2"/>
				<circle id="XMLID_7212_" class="st18" cx="239.3" cy="232.3" r="0.2"/>
				<line id="XMLID_7211_" class="st21" x1="238.3" y1="232.9" x2="239.3" y2="232.4"/>
				<line id="XMLID_7210_" class="st21" x1="238.2" y1="232.7" x2="239.2" y2="232.3"/>
			</g>
			<g id="XMLID_7193_">
				<path id="XMLID_21168_" class="st15" d="M241.5,239.4l-2.2,0.2l-2.2,0.7c-0.1,0-0.1,0.2,0,0.2l2.2-0.2l2.1-0.6
					C241.7,239.6,241.6,239.4,241.5,239.4z"/>
				<circle id="XMLID_7208_" class="st5" cx="240" cy="239.9" r="1.7"/>
				<circle id="XMLID_7207_" class="st14" cx="240.1" cy="239.9" r="1.6"/>
				<circle id="XMLID_7206_" class="st20" cx="240" cy="239.6" r="1.6"/>
				<circle id="XMLID_7205_" class="st17" cx="240" cy="239.6" r="1.4"/>
				<circle id="XMLID_7201_" class="st18" cx="239.8" cy="239.3" r="0.2"/>
				<circle id="XMLID_7200_" class="st18" cx="240.3" cy="240.3" r="0.2"/>
				<line id="XMLID_7199_" class="st21" x1="239.7" y1="239.3" x2="240.2" y2="240.3"/>
				<line id="XMLID_7198_" class="st21" x1="239.8" y1="239.2" x2="240.3" y2="240.2"/>
				<circle id="XMLID_7197_" class="st18" cx="239.5" cy="240" r="0.2"/>
				<circle id="XMLID_7196_" class="st18" cx="240.5" cy="239.5" r="0.2"/>
				<line id="XMLID_7195_" class="st21" x1="239.5" y1="240.1" x2="240.5" y2="239.6"/>
				<line id="XMLID_7194_" class="st21" x1="239.5" y1="240" x2="240.5" y2="239.5"/>
			</g>
			<g id="XMLID_7192_">
				<path id="XMLID_21154_" class="st15" d="M242.3,242.1l-1.6,0.2c-0.4,0-0.9,0.1-1.3,0.2l-1.5,0.4c-0.1,0-0.1,0.2,0,0.2l1.5-0.2
					c0.4,0,0.9-0.1,1.3-0.2l1.6-0.4C242.5,242.3,242.5,242.1,242.3,242.1z"/>
			</g>
			<g id="XMLID_7177_">
				<path id="XMLID_21152_" class="st15" d="M59.8,235.8L62,236l2.2,0.7c0.1,0,0.1,0.2,0,0.2l-2.2-0.2l-2.1-0.6
					C59.6,236,59.7,235.8,59.8,235.8z"/>
				<circle id="XMLID_7191_" class="st5" cx="61.2" cy="236.3" r="1.7"/>
				<circle id="XMLID_7190_" class="st14" cx="61.2" cy="236.3" r="1.6"/>
				<circle id="XMLID_7189_" class="st20" cx="61.2" cy="236" r="1.6"/>
				<circle id="XMLID_7186_" class="st17" cx="61.2" cy="236" r="1.4"/>
				<circle id="XMLID_7185_" class="st18" cx="61.5" cy="235.7" r="0.2"/>
				<circle id="XMLID_7184_" class="st18" cx="61" cy="236.7" r="0.2"/>
				<line id="XMLID_7183_" class="st21" x1="61.6" y1="235.7" x2="61.1" y2="236.7"/>
				<line id="XMLID_7182_" class="st21" x1="61.5" y1="235.6" x2="61" y2="236.6"/>
				<circle id="XMLID_7181_" class="st18" cx="61.8" cy="236.4" r="0.2"/>
				<circle id="XMLID_7180_" class="st18" cx="60.8" cy="235.9" r="0.2"/>
				<line id="XMLID_7179_" class="st21" x1="61.8" y1="236.5" x2="60.8" y2="236"/>
				<line id="XMLID_7178_" class="st21" x1="61.8" y1="236.4" x2="60.8" y2="235.9"/>
			</g>
			<g id="XMLID_7164_">
				<path id="XMLID_21138_" class="st15" d="M60.5,232.2l2.2,0.2l2.2,0.7c0.1,0,0.1,0.2,0,0.2l-2.2-0.2l-2.1-0.6
					C60.3,232.4,60.4,232.2,60.5,232.2z"/>
				<circle id="XMLID_7176_" class="st5" cx="62" cy="232.7" r="1.7"/>
				<circle id="XMLID_7175_" class="st14" cx="61.9" cy="232.6" r="1.6"/>
				<circle id="XMLID_7174_" class="st20" cx="62" cy="232.4" r="1.6"/>
				<circle id="XMLID_7173_" class="st17" cx="62" cy="232.4" r="1.4"/>
				<circle id="XMLID_7172_" class="st18" cx="62.2" cy="232.1" r="0.2"/>
				<circle id="XMLID_7171_" class="st18" cx="61.7" cy="233.1" r="0.2"/>
				<line id="XMLID_7170_" class="st21" x1="62.3" y1="232.1" x2="61.8" y2="233.1"/>
				<line id="XMLID_7169_" class="st21" x1="62.2" y1="232" x2="61.7" y2="233"/>
				<circle id="XMLID_7168_" class="st18" cx="62.5" cy="232.8" r="0.2"/>
				<circle id="XMLID_7167_" class="st18" cx="61.5" cy="232.3" r="0.2"/>
				<line id="XMLID_7166_" class="st21" x1="62.5" y1="232.9" x2="61.5" y2="232.4"/>
				<line id="XMLID_7165_" class="st21" x1="62.5" y1="232.7" x2="61.5" y2="232.3"/>
			</g>
			<g id="XMLID_7146_">
				<path id="XMLID_21124_" class="st15" d="M59.3,239.4l2.2,0.2l2.2,0.7c0.1,0,0.1,0.2,0,0.2l-2.2-0.2l-2.1-0.6
					C59.1,239.6,59.1,239.4,59.3,239.4z"/>
				<circle id="XMLID_7163_" class="st5" cx="60.7" cy="239.9" r="1.7"/>
				<circle id="XMLID_7162_" class="st14" cx="60.7" cy="239.9" r="1.6"/>
				<circle id="XMLID_7161_" class="st20" cx="60.7" cy="239.6" r="1.6"/>
				<circle id="XMLID_7160_" class="st17" cx="60.7" cy="239.6" r="1.4"/>
				<circle id="XMLID_7159_" class="st18" cx="61" cy="239.3" r="0.2"/>
				<circle id="XMLID_7154_" class="st18" cx="60.5" cy="240.3" r="0.2"/>
				<line id="XMLID_7153_" class="st21" x1="61" y1="239.3" x2="60.6" y2="240.3"/>
				<line id="XMLID_7151_" class="st21" x1="60.9" y1="239.2" x2="60.4" y2="240.2"/>
				<circle id="XMLID_7150_" class="st18" cx="61.2" cy="240" r="0.2"/>
				<circle id="XMLID_7149_" class="st18" cx="60.2" cy="239.5" r="0.2"/>
				<line id="XMLID_7148_" class="st21" x1="61.2" y1="240.1" x2="60.2" y2="239.6"/>
				<line id="XMLID_7147_" class="st21" x1="61.3" y1="240" x2="60.3" y2="239.5"/>
			</g>
			<g id="XMLID_7145_">
				<path id="XMLID_21110_" class="st15" d="M58.4,242.1l1.6,0.2c0.4,0,0.9,0.1,1.3,0.2l1.5,0.4c0.1,0,0.1,0.2,0,0.2l-1.5-0.2
					c-0.4,0-0.9-0.1-1.3-0.2l-1.6-0.4C58.2,242.3,58.3,242.1,58.4,242.1z"/>
			</g>
		</g>
	</g>
</g>
</svg>
