<?xml version="1.0" encoding="utf-8"?>
<!-- Generator: Adobe Illustrator 19.0.0, SVG Export Plug-In . SVG Version: 6.00 Build 0)  -->
<svg version="1.1" id="Layer_1" xmlns="http://www.w3.org/2000/svg" xmlns:xlink="http://www.w3.org/1999/xlink" x="0px" y="0px"
	 viewBox="0 0 300 300" style="enable-background:new 0 0 300 300;" xml:space="preserve">
<style type="text/css">
	.st0{clip-path:url(#SVGID_2_);}
	.st1{fill:#9AA0BB;}
	.st2{fill:#404041;stroke:#D0D2D3;stroke-width:0.5;stroke-miterlimit:10;}
	.st3{fill:#F1F1F2;stroke:#404041;stroke-miterlimit:10;}
	.st4{fill:#FFFFFF;stroke:#404041;stroke-miterlimit:10;}
	.st5{fill:#929497;}
	.st6{fill:#F1F1F2;}
	.st7{fill:#C5C7C9;}
	.st8{fill:none;stroke:#404041;stroke-miterlimit:10;}
	.st9{fill:none;stroke:#808184;stroke-width:0.5;stroke-miterlimit:10;}
	.st10{fill:none;stroke:#808184;stroke-width:0.5;stroke-miterlimit:10;stroke-dasharray:0.997,1.994;}
	.st11{fill:none;stroke:#808184;stroke-width:0.5;stroke-miterlimit:10;stroke-dasharray:1.0061,2.0121;}
	.st12{fill:#FFFFFF;stroke:#808184;stroke-width:0.5;stroke-miterlimit:10;stroke-dasharray:1,2;}
	.st13{fill:none;stroke:#808184;stroke-width:0.5;stroke-miterlimit:10;stroke-dasharray:1,2;}
	.st14{fill:none;stroke:#808184;stroke-width:0.5;stroke-miterlimit:10;stroke-dasharray:1.016,2.0321;}
	.st15{fill:#DBDCDD;}
	.st16{fill:#FFFFFF;stroke:#6D6E70;stroke-miterlimit:10;}
	.st17{fill:#FFFFFF;stroke:#929497;stroke-width:0.25;stroke-miterlimit:10;}
	.st18{fill:#404041;}
	.st19{fill:none;stroke:#6D6E70;stroke-width:0.5;stroke-miterlimit:10;}
	.st20{fill:#FFFFFF;stroke:#404041;stroke-linejoin:round;stroke-miterlimit:10;}
	.st21{fill:#FFFFFF;stroke:#6D6E70;stroke-width:0.5;stroke-miterlimit:10;}
	.st22{fill:none;stroke:#6D6E70;stroke-width:0.25;stroke-miterlimit:10;}
</style>
<g>
	<defs>
		<circle id="SVGID_1_" cx="150.1" cy="149.6" r="150"/>
	</defs>
	<use xlink:href="#SVGID_1_"  style="overflow:visible;fill:#DDDDDD;"/>
	<clipPath id="SVGID_2_">
		<use xlink:href="#SVGID_1_"  style="overflow:visible;"/>
	</clipPath>
	<g id="XMLID_1_" class="st0">
		<defs>
			<rect id="XMLID_4932_" x="-13.5" width="327.1" height="300"/>
		</defs>
		<clipPath id="XMLID_3_">
			<use xlink:href="#XMLID_4932_"  style="overflow:visible;"/>
		</clipPath>
	</g>
	<g class="st0">
		<path class="st1" d="M150.1,4.6c38.7,0,75.1,15.1,102.5,42.5c27.4,27.4,42.5,63.8,42.5,102.5s-15.1,75.1-42.5,102.5
			c-27.4,27.4-63.8,42.5-102.5,42.5S75,279.5,47.6,252.1C20.2,224.7,5.1,188.3,5.1,149.6S20.2,74.5,47.6,47.1
			C75,19.7,111.4,4.6,150.1,4.6 M150.1-0.4c-82.8,0-150,67.2-150,150s67.2,150,150,150s150-67.2,150-150S232.9-0.4,150.1-0.4
			L150.1-0.4z"/>
	</g>
	<g id="XMLID_22000_" class="st0">
		<path id="XMLID_22184_" class="st2" d="M181.2,66.9l-1.5,0.5c-0.4,0.1-0.9,0.3-1.3,0.5l-1.5,0.7c-0.1,0.1,0,0.3,0.1,0.2l1.5-0.5
			c0.4-0.1,0.9-0.3,1.3-0.5l1.5-0.7C181.4,67,181.3,66.8,181.2,66.9z"/>
		<g id="XMLID_22020_">
			<g id="XMLID_22160_">
				<polygon id="XMLID_22183_" class="st3" points="163.6,32.3 169.1,38.5 149.9,141.9 130.8,38.5 136.1,32.3 				"/>
				<path id="XMLID_22182_" class="st4" d="M163.8,29.3c0,0,0.1-0.3-13.8-0.3c0,0-0.1,0-0.1,0c0,0-0.1,0-0.1,0
					c-13.9,0-13.8,0.3-13.8,0.3l-1.7,6c0,0,2.3,0.6,7.8,0.8c2.1,0.1,4.9,0.1,8,0.1c3.2,0,5.6-0.1,7.8-0.1c5.5-0.2,7.8-0.8,7.8-0.8
					L163.8,29.3z"/>
				<g id="XMLID_22178_">
					<path id="XMLID_22181_" class="st5" d="M138.3,29.2c0,0-1.4,1.6-1.3,3.7s0.2,2.7,0.2,2.7h-2.7l1.3-6.2L138.3,29.2z"/>
					<path id="XMLID_22180_" class="st6" d="M138.9,29.2c-0.4,0-0.7,0-1,0c-0.8,1.4-0.8,5.2-0.8,6.6c0.4,0,0.9,0.1,1.5,0.1
						c-0.1-0.4-0.2-1.3-0.2-2.8C138.4,31.2,138.8,29.8,138.9,29.2z"/>
					<path id="XMLID_22179_" class="st7" d="M138,29.2c-0.2,0-0.4,0-0.6,0c-0.3,0.3-0.7,0.8-0.8,1.6c-0.2,1.7-0.2,3.9-0.3,4.9
						c0.4,0,0.9,0.1,1.5,0.1C137.7,34.4,137.2,30.5,138,29.2z"/>
				</g>
				<g id="XMLID_22174_">
					<path id="XMLID_22177_" class="st5" d="M161.2,29.2c0,0,1.4,1.6,1.3,3.7s-0.2,2.7-0.2,2.7h3.2l-1.8-6.2L161.2,29.2z"/>
					<path id="XMLID_22176_" class="st6" d="M160.6,29.2c0.4,0,0.7,0,1,0c0.8,1.4,0.8,5.2,0.8,6.6c-0.4,0-0.9,0.1-1.5,0.1
						c0.1-0.4,0.2-1.3,0.2-2.8C161.1,31.2,160.8,29.8,160.6,29.2z"/>
					<path id="XMLID_22175_" class="st7" d="M161.5,29.2c0.2,0,0.4,0,0.6,0c0.3,0.3,0.7,0.8,0.8,1.6c0.2,1.7,0.2,3.9,0.3,4.9
						c-0.4,0-0.9,0.1-1.5,0.1C161.8,34.4,162.3,30.5,161.5,29.2z"/>
				</g>
				<path id="XMLID_22173_" class="st8" d="M163.8,29.3c0,0,0.1-0.3-13.8-0.3c0,0-0.1,0-0.1,0c0,0-0.1,0-0.1,0
					c-13.9,0-13.8,0.3-13.8,0.3l-1.7,6c0,0,2.3,0.6,7.8,0.8c2.1,0.1,4.9,0.1,8,0.1c3.2,0,5.6-0.1,7.8-0.1c5.5-0.2,7.8-0.8,7.8-0.8
					L163.8,29.3z"/>
				<g id="XMLID_22170_">
					<polygon id="XMLID_22172_" class="st5" points="136.8,54.7 150,82.7 162.8,54.7 154.4,87.5 149.5,89.8 145.6,87.2 					"/>
					<polygon id="XMLID_22171_" class="st7" points="149.8,86.3 163.1,53.5 150,82.6 136.5,53.5 					"/>
				</g>
				<g id="XMLID_22164_">
					<g>
						<line class="st9" x1="149.9" y1="37.1" x2="149.9" y2="37.6"/>
						<line class="st10" x1="149.9" y1="39.6" x2="149.9" y2="122.4"/>
						<line class="st9" x1="149.9" y1="123.4" x2="149.9" y2="123.9"/>
					</g>
				</g>
				<path id="XMLID_22163_" class="st5" d="M142.8,38.6l0.5,0.5c0,0,3.6-0.3,6.7-0.3s6.9,0.3,6.9,0.3l0.3-0.5H142.8z"/>
				<path id="XMLID_22162_" class="st7" d="M143.1,39.1l0.4,0.4c0,0,3.4-0.3,6.4-0.3s6.8,0.3,6.8,0.3l0.2-0.4l-7-0.1L143.1,39.1z"/>
				<path id="XMLID_22161_" class="st4" d="M150,36.3c-3.2,0-5.8,0-7.9-0.1l0.9,2.4h7h0.1h7l0.9-2.4C155.8,36.3,153.1,36.3,150,36.3
					z"/>
			</g>
			<path id="XMLID_22158_" class="st4" d="M157.5,173.5c-1.3-29.2-2.7-21.4-2.7-21.4l-2.5-3.3l-1.9-4.3c-3-15.1-1.5-44.3-2.2-49.4
				c-1.2-8.3-14-41.9-14-41.9c-2.5-16,2-23.9,2-23.9s-12,6.9-14.5,8.5c-1.3,0.8-12.4,5.7-21.8,10.1c-11.5,5.3-13.1,8.1-13.1,8.1
				c8.8,5.5,10.7,25.1,10.8,48.2s-6.2,62.4-7,82.9c-0.8,21.3-5.2,63.9-5.2,63.9s62.5,9.2,75.1,7c0.5-0.1,0.8-0.5,0.8-1
				C161,249.6,158.7,200.8,157.5,173.5z"/>
			<g id="XMLID_22152_">
				<g>
					<line class="st9" x1="118" y1="135.9" x2="118" y2="136.4"/>
					<line class="st11" x1="118" y1="138.4" x2="118" y2="185.7"/>
					<line class="st9" x1="118" y1="186.7" x2="118" y2="187.2"/>
				</g>
			</g>
			<g id="XMLID_22149_">
				<path id="XMLID_22151_" class="st6" d="M97.8,145.8c3.3-22.9,1.9-41.2-0.4-55.6c0.4,2.8,0.7,7.9,0.7,8.6
					c0.4,4.9,0.8,9.9,0.6,14.7c-0.1,10.2-0.8,21.8-2.7,34.5c-1.6,10.9-2.7,15.8-3.6,17.6c-0.2,1.5-0.3,3.1-0.5,4.5
					C94.2,170.1,95.6,160.5,97.8,145.8z"/>
				<path id="XMLID_22150_" class="st7" d="M95.7,136.5c-1,9.8-2.2,19.9-3.2,29.1c0.8-1.9,2-6.7,3.6-17.6
					c1.8-12.7,2.7-23.2,2.7-40.3l0,0c0.2-6.2-1.5-17.7-1.5-17.2C98.3,104.2,96.7,128.4,95.7,136.5z"/>
			</g>
			<path id="XMLID_22148_" class="st4" d="M97.6,104.3c-0.2-21.6-1.8-40.3-9.2-47l-1.6-0.9c0,0-2.4-0.8-4.9,11.1
				c-2.5,11.9-29.3,180.2-29.3,180.2s4.4,3.9,13.7,4.2c9.2,0.3,13.9-1.9,13.9-1.9l14.5-105C96.3,130.2,97.7,115.4,97.6,104.3z"/>
			<path id="XMLID_22147_" class="st6" d="M123.5,188.8c0,0-6.3-0.4-16.5-0.4s-16.8,0.4-16.8,0.4l0.7-0.5c0,0,13.9-0.9,16.9-0.9
				c3-0.1,15.4,0.7,15.4,0.7L123.5,188.8z"/>
			<path id="XMLID_22146_" class="st7" d="M123.5,188.5c0,0-6.3-0.4-16.5-0.4s-16.8,0.4-16.8,0.4l0.7-0.5c0,0,13.9-0.9,16.9-0.9
				c3-0.1,15.4,0.7,15.4,0.7L123.5,188.5z"/>
			<path id="XMLID_22145_" class="st6" d="M90.2,188.4c0,0,6.3,0.4,16.5,0.4s16.8-0.4,16.8-0.4l-0.7,0.5c0,0-13.9,0.9-16.9,0.9
				c-3,0.1-15.4-0.7-15.4-0.7L90.2,188.4z"/>
			<path id="XMLID_22144_" class="st7" d="M90.2,188.7c0,0,6.3,0.4,16.5,0.4s16.8-0.4,16.8-0.4l-0.7,0.5c0,0-13.9,0.9-16.9,0.9
				c-3,0.1-15.4-1-15.4-1L90.2,188.7z"/>
			<path id="XMLID_22143_" class="st4" d="M123.7,188.5v-0.6c0-0.3-0.3-0.5-0.6-0.5l-12-0.4c-2.8-0.1-5.5-0.1-8.3,0l-12.1,0.4
				c-0.3,0-0.6,0.2-0.6,0.5v0.6c0,0,9.8-0.4,16.8-0.4C113.4,188.1,123.7,188.5,123.7,188.5z"/>
			<path id="XMLID_22142_" class="st12" d="M90.2,188.7v0.8c0,0.3,0.3,0.5,0.6,0.5l12,0.7c2.8,0.1,5.5,0.1,8.3,0l12.1-0.7
				c0.3,0,0.6-0.2,0.6-0.5v-0.8c0,0-1.6,1-16.8,1S90.2,188.7,90.2,188.7z"/>
			<g id="XMLID_22139_">
				<path id="XMLID_22141_" class="st6" d="M150.5,150.8c-0.7,1.6-2.8,6.6-5.4,12.8l1.9-14.1l1-42.7l-3.6-2.6
					c-4.8,11.8-15.1,52.4-15.1,52.4L130,257c3.6,0.6,5.7,0.3,5.7,0.3l6.9-21.7l12.1-86.5C154.7,149,152.9,145.7,150.5,150.8z"/>
				<path id="XMLID_22140_" class="st7" d="M151.2,150.8c-0.7,1.5-2.6,6.1-4.9,11.9l6.2-53.1l-6.9-4.6l-14.8,51.1l-0.1,100.7
					c3.6,0.6,5.8,0.4,5.8,0.4l6.9-21.7l12.1-86.5C155.4,149,153.6,145.7,151.2,150.8z"/>
			</g>
			<path id="XMLID_22138_" class="st4" d="M202.4,104.3c0.2-23.1,2-42.7,10.8-48.2c0,0-1.6-2.8-13.1-8.1c-10.8-5-19.8-8.9-23.4-10.9
				c-0.2-0.1-0.4-0.2-0.6-0.3c-3.1-1.9-12.3-7.3-12.3-7.3s3.6,8,1.1,23.9c0,0-7,21.7-7,30.1c0,22.8-18.8,56-26.1,73.9
				c0,0,0,67.4,0,77.1v24c0,0,27.7,1.1,47.4,0s34-7.4,34-7.4s-3-42.7-3.8-63.9C208.6,166.7,202.2,127.4,202.4,104.3z"/>
			<g id="XMLID_22025_">
				<path id="XMLID_22137_" class="st6" d="M176.2,189.6c0,0,6.3-0.4,16.5-0.4c10.2,0,16.8,0.4,16.8,0.4l-0.7-0.5
					c0,0-13.9-0.9-16.9-0.9c-3-0.1-15.4,0.7-15.4,0.7L176.2,189.6z"/>
				<path id="XMLID_22136_" class="st7" d="M176.2,189.3c0,0,6.3-0.4,16.5-0.4c10.2,0,16.8,0.4,16.8,0.4l-0.7-0.5
					c0,0-13.9-0.9-16.9-0.9c-3-0.1-15.4,0.7-15.4,0.7L176.2,189.3z"/>
				<path id="XMLID_22135_" class="st6" d="M209.6,189.2c0,0-6.3,0.4-16.5,0.4c-10.2,0-16.8-0.4-16.8-0.4l0.7,0.5
					c0,0,13.9,0.9,16.9,0.9c3,0.1,15.4-0.7,15.4-0.7L209.6,189.2z"/>
				<path id="XMLID_22134_" class="st7" d="M209.6,189.6c0,0-6.3,0.4-16.5,0.4c-10.2,0-16.8-0.4-16.8-0.4l0.7,0.5
					c0,0,13.9,0.9,16.9,0.9c3,0.1,15.4-1,15.4-1L209.6,189.6z"/>
				<path id="XMLID_22133_" class="st4" d="M176,189.3v-0.6c0-0.3,0.3-0.5,0.6-0.5l12-0.4c2.8-0.1,5.5-0.1,8.3,0l12.1,0.4
					c0.3,0,0.6,0.2,0.6,0.5v0.6c0,0-9.8-0.4-16.8-0.4C186.3,188.9,176,189.3,176,189.3z"/>
				<path id="XMLID_22132_" class="st12" d="M209.6,189.5v0.8c0,0.3-0.3,0.5-0.6,0.5l-12,0.7c-2.8,0.1-5.5,0.1-8.3,0l-12.1-0.7
					c-0.3,0-0.6-0.2-0.6-0.5v-0.8c0,0,1.6,1,16.8,1S209.6,189.5,209.6,189.5z"/>
				<polygon id="XMLID_22131_" class="st6" points="196.3,106.6 196.3,105.1 163.3,106.1 163.3,107.5 				"/>
				<polygon id="XMLID_22130_" class="st7" points="196.3,107.1 196.3,105.7 163.3,106.7 163.3,108.1 				"/>
				<path id="XMLID_22129_" class="st4" d="M196.2,106.3v7.6c0,0.3-0.2,0.5-0.5,0.5l-31.6,0.7c-0.3,0-0.5-0.2-0.5-0.5v-7.4
					L196.2,106.3z"/>
				<line id="XMLID_22128_" class="st13" x1="163.6" y1="107.6" x2="196.2" y2="106.7"/>
				<g id="XMLID_22122_">
					<g>
						<line class="st9" x1="182.2" y1="135.9" x2="182.2" y2="136.4"/>
						<line class="st14" x1="182.2" y1="138.4" x2="182.2" y2="186.2"/>
						<line class="st9" x1="182.2" y1="187.2" x2="182.2" y2="187.7"/>
					</g>
				</g>
				<g id="XMLID_9358_">
					<circle id="XMLID_9376_" class="st6" cx="138.2" cy="201.9" r="3.3"/>
					<circle id="XMLID_9375_" class="st15" cx="138.3" cy="201.8" r="3.2"/>
					<polygon id="XMLID_9374_" class="st2" points="142.4,201.7 138.3,200.9 134.9,201.7 138.4,202.5 					"/>
					<circle id="XMLID_9373_" class="st16" cx="138.2" cy="201.4" r="3.2"/>
					<circle id="XMLID_9372_" class="st17" cx="138.2" cy="201.4" r="2.8"/>
					<circle id="XMLID_9371_" class="st18" cx="137.7" cy="200.6" r="0.4"/>
					<circle id="XMLID_9370_" class="st18" cx="138.7" cy="202.6" r="0.4"/>
					<line id="XMLID_9369_" class="st19" x1="137.6" y1="200.6" x2="138.5" y2="202.6"/>
					<line id="XMLID_9368_" class="st19" x1="137.8" y1="200.5" x2="138.8" y2="202.5"/>
					<line id="XMLID_9367_" class="st19" x1="137.6" y1="200.6" x2="138.5" y2="202.6"/>
					<line id="XMLID_9366_" class="st19" x1="137.8" y1="200.5" x2="138.8" y2="202.5"/>
					<circle id="XMLID_9365_" class="st18" cx="137.2" cy="202.1" r="0.4"/>
					<circle id="XMLID_9363_" class="st18" cx="139.2" cy="201.1" r="0.4"/>
					<line id="XMLID_9362_" class="st19" x1="137.2" y1="202.3" x2="139.2" y2="201.3"/>
					<line id="XMLID_9359_" class="st19" x1="137.1" y1="202" x2="139.1" y2="201"/>
				</g>
				<g id="XMLID_9342_">
					<circle id="XMLID_9357_" class="st6" cx="138.2" cy="165.2" r="3.3"/>
					<circle id="XMLID_9356_" class="st15" cx="138.3" cy="165.1" r="3.2"/>
					<polygon id="XMLID_9355_" class="st2" points="142.4,165 138.3,164.2 134.9,165 138.4,165.8 					"/>
					<circle id="XMLID_9354_" class="st16" cx="138.2" cy="164.7" r="3.2"/>
					<circle id="XMLID_9353_" class="st17" cx="138.2" cy="164.7" r="2.8"/>
					<circle id="XMLID_9352_" class="st18" cx="137.7" cy="163.9" r="0.4"/>
					<circle id="XMLID_9351_" class="st18" cx="138.7" cy="165.9" r="0.4"/>
					<line id="XMLID_9350_" class="st19" x1="137.6" y1="163.9" x2="138.5" y2="165.9"/>
					<line id="XMLID_9349_" class="st19" x1="137.8" y1="163.8" x2="138.8" y2="165.8"/>
					<line id="XMLID_9348_" class="st19" x1="137.6" y1="163.9" x2="138.5" y2="165.9"/>
					<line id="XMLID_9347_" class="st19" x1="137.8" y1="163.8" x2="138.8" y2="165.8"/>
					<circle id="XMLID_9346_" class="st18" cx="137.2" cy="165.4" r="0.4"/>
					<circle id="XMLID_9345_" class="st18" cx="139.2" cy="164.5" r="0.4"/>
					<line id="XMLID_9344_" class="st19" x1="137.2" y1="165.6" x2="139.2" y2="164.6"/>
					<line id="XMLID_9343_" class="st19" x1="137.1" y1="165.3" x2="139.1" y2="164.4"/>
				</g>
				<g id="XMLID_9326_">
					<circle id="XMLID_9341_" class="st6" cx="164.1" cy="201.9" r="3.3"/>
					<circle id="XMLID_9340_" class="st15" cx="164.1" cy="201.8" r="3.2"/>
					<polygon id="XMLID_9339_" class="st2" points="168.2,201.7 164.2,200.9 159.6,201.7 164.2,202.5 					"/>
					<circle id="XMLID_9338_" class="st16" cx="164.1" cy="201.4" r="3.2"/>
					<circle id="XMLID_9337_" class="st17" cx="164.1" cy="201.4" r="2.8"/>
					<circle id="XMLID_9336_" class="st18" cx="163.5" cy="200.6" r="0.4"/>
					<circle id="XMLID_9335_" class="st18" cx="164.5" cy="202.6" r="0.4"/>
					<line id="XMLID_9334_" class="st19" x1="163.4" y1="200.6" x2="164.3" y2="202.6"/>
					<line id="XMLID_9333_" class="st19" x1="163.6" y1="200.5" x2="164.6" y2="202.5"/>
					<line id="XMLID_9332_" class="st19" x1="163.4" y1="200.6" x2="164.3" y2="202.6"/>
					<line id="XMLID_9331_" class="st19" x1="163.6" y1="200.5" x2="164.6" y2="202.5"/>
					<circle id="XMLID_9330_" class="st18" cx="163" cy="202.1" r="0.4"/>
					<circle id="XMLID_9329_" class="st18" cx="165" cy="201.1" r="0.4"/>
					<line id="XMLID_9328_" class="st19" x1="163" y1="202.3" x2="165" y2="201.3"/>
					<line id="XMLID_9327_" class="st19" x1="162.9" y1="202" x2="164.9" y2="201"/>
				</g>
				<g id="XMLID_9310_">
					<circle id="XMLID_9325_" class="st6" cx="164.1" cy="165.2" r="3.3"/>
					<circle id="XMLID_9324_" class="st15" cx="164.1" cy="165.1" r="3.2"/>
					<polygon id="XMLID_9323_" class="st2" points="168.2,165 164.2,164.2 159.6,165 164.2,165.8 					"/>
					<circle id="XMLID_9322_" class="st16" cx="164.1" cy="164.7" r="3.2"/>
					<circle id="XMLID_9321_" class="st17" cx="164.1" cy="164.7" r="2.8"/>
					<circle id="XMLID_9320_" class="st18" cx="163.5" cy="163.9" r="0.4"/>
					<circle id="XMLID_9319_" class="st18" cx="164.5" cy="165.9" r="0.4"/>
					<line id="XMLID_9318_" class="st19" x1="163.4" y1="163.9" x2="164.3" y2="165.9"/>
					<line id="XMLID_9317_" class="st19" x1="163.6" y1="163.8" x2="164.6" y2="165.8"/>
					<line id="XMLID_9316_" class="st19" x1="163.4" y1="163.9" x2="164.3" y2="165.9"/>
					<line id="XMLID_9315_" class="st19" x1="163.6" y1="163.8" x2="164.6" y2="165.8"/>
					<circle id="XMLID_9314_" class="st18" cx="163" cy="165.4" r="0.4"/>
					<circle id="XMLID_9313_" class="st18" cx="165" cy="164.5" r="0.4"/>
					<line id="XMLID_9312_" class="st19" x1="163" y1="165.6" x2="165" y2="164.6"/>
					<line id="XMLID_9311_" class="st19" x1="162.9" y1="165.3" x2="164.9" y2="164.4"/>
				</g>
				<g id="XMLID_9294_">
					<circle id="XMLID_9309_" class="st6" cx="175.9" cy="132.4" r="3.3"/>
					<circle id="XMLID_9308_" class="st15" cx="175.9" cy="132.3" r="3.2"/>
					<polygon id="XMLID_9307_" class="st2" points="180.1,132.2 176,131.4 171.5,132.2 176,133 					"/>
					<circle id="XMLID_9306_" class="st16" cx="175.9" cy="131.9" r="3.2"/>
					<circle id="XMLID_9305_" class="st17" cx="175.9" cy="131.9" r="2.8"/>
					<circle id="XMLID_9304_" class="st18" cx="175.4" cy="131.1" r="0.4"/>
					<circle id="XMLID_9303_" class="st18" cx="176.3" cy="133.1" r="0.4"/>
					<line id="XMLID_9302_" class="st19" x1="175.2" y1="131.1" x2="176.2" y2="133.1"/>
					<line id="XMLID_9301_" class="st19" x1="175.5" y1="131" x2="176.4" y2="133"/>
					<line id="XMLID_9300_" class="st19" x1="175.2" y1="131.1" x2="176.2" y2="133.1"/>
					<line id="XMLID_9299_" class="st19" x1="175.5" y1="131" x2="176.4" y2="133"/>
					<circle id="XMLID_9298_" class="st18" cx="174.8" cy="132.6" r="0.4"/>
					<circle id="XMLID_9297_" class="st18" cx="176.8" cy="131.7" r="0.4"/>
					<line id="XMLID_9296_" class="st19" x1="174.8" y1="132.8" x2="176.8" y2="131.8"/>
					<line id="XMLID_9295_" class="st19" x1="174.7" y1="132.5" x2="176.7" y2="131.6"/>
				</g>
				<g id="XMLID_9278_">
					<circle id="XMLID_9293_" class="st6" cx="121.7" cy="132.4" r="3.3"/>
					<circle id="XMLID_9292_" class="st15" cx="121.7" cy="132.3" r="3.2"/>
					<polygon id="XMLID_9291_" class="st2" points="125.8,132.2 121.8,131.4 117.2,132.2 121.8,133 					"/>
					<circle id="XMLID_9290_" class="st16" cx="121.7" cy="131.9" r="3.2"/>
					<circle id="XMLID_9289_" class="st17" cx="121.7" cy="131.9" r="2.8"/>
					<circle id="XMLID_9288_" class="st18" cx="121.1" cy="131.1" r="0.4"/>
					<circle id="XMLID_9287_" class="st18" cx="122.1" cy="133.1" r="0.4"/>
					<line id="XMLID_9286_" class="st19" x1="121" y1="131.1" x2="121.9" y2="133.1"/>
					<line id="XMLID_9285_" class="st19" x1="121.2" y1="131" x2="122.2" y2="133"/>
					<line id="XMLID_9284_" class="st19" x1="121" y1="131.1" x2="121.9" y2="133.1"/>
					<line id="XMLID_9283_" class="st19" x1="121.2" y1="131" x2="122.2" y2="133"/>
					<circle id="XMLID_9282_" class="st18" cx="120.6" cy="132.6" r="0.4"/>
					<circle id="XMLID_9281_" class="st18" cx="122.6" cy="131.7" r="0.4"/>
					<line id="XMLID_9280_" class="st19" x1="120.6" y1="132.8" x2="122.6" y2="131.8"/>
					<line id="XMLID_9279_" class="st19" x1="120.5" y1="132.5" x2="122.5" y2="131.6"/>
				</g>
			</g>
			<g id="XMLID_22022_">
				<path id="XMLID_22024_" class="st6" d="M202.2,145.8c-3.3-22.9-1.9-41.2,0.4-55.6c-0.4,2.8-0.7,7.9-0.7,8.6
					c-0.4,4.9-0.8,9.9-0.6,14.7c0.1,10.2,0.8,21.8,2.7,34.5c1.6,10.9,2.7,15.8,3.6,17.6c0.2,1.5,0.3,3.1,0.5,4.5
					C205.7,170.1,204.3,160.5,202.2,145.8z"/>
				<path id="XMLID_22023_" class="st7" d="M204.2,136.5c1,9.8,2.2,19.9,3.2,29.1c-0.8-1.9-2-6.7-3.6-17.6
					c-1.8-12.7-2.7-23.2-2.7-40.3l0,0c-0.2-6.2,1.5-17.7,1.5-17.2C201.7,104.2,203.3,128.4,204.2,136.5z"/>
			</g>
			<path id="XMLID_22021_" class="st4" d="M218.1,67.1c-2.5-11.9-4.9-11.1-4.9-11.1l0,0c-8.8,5.5-10.7,25.1-10.8,48.2
				c-0.1,10.7,1.3,25,2.8,39.3l14.6,106.1c0,0,4.7,2.3,13.9,1.9c9.2-0.3,13.7-4.2,13.7-4.2S220.6,79,218.1,67.1z"/>
		</g>
		<g id="XMLID_22002_">
			<g id="XMLID_22015_">
				<path id="XMLID_22019_" class="st6" d="M110.4,66.9c-0.7-1.9-0.6-3.6,1.2-4.5c0.7-0.4,2.9,0.3,3.2,1
					c0.5,1.4,21.3,21.8,35.9,37.5c6.7,7.3-4.3,7.8-4.3,7.8L114,72.9c-1.5-1.7-2.7-3.6-3.5-5.7L110.4,66.9z"/>
				<path id="XMLID_22018_" class="st7" d="M112.8,64.8c0.6,1.5,23.2,22.5,37.9,37.8c5.9,6.1-3.1,6.2-3.1,6.2l-32.1-35.2
					c-1.7-1.8-3.4-4-4.4-6.3c0,0-0.6-1.5-0.6-3.1c0-1.6,1-1.8,1.9-1.8C112.3,62.2,112,62.7,112.8,64.8z"/>
				<polygon id="XMLID_22017_" class="st6" points="123.9,39.4 117.8,61.8 117.8,62.6 119.1,65.1 129,69.1 131.5,69.2 124.4,44.6 
									"/>
				<path id="XMLID_22016_" class="st7" d="M123.9,39.4l-5.5,22.5v0c-0.1,0.5,0,1.1,0.2,1.6l1.7,4.2l8.4,4.2l4.3-2.7L126,44.6
					L123.9,39.4z"/>
			</g>
			<path id="XMLID_22014_" class="st4" d="M136.9,29.4c0,0-10.2,3.7-12.3,8.4c-2,4.7-5.7,24.5-5.7,24.5l10.4,4.7
				c0,0-16-5.8-17.6-4.5c-0.9,0.8-1.7,2.3,2.7,7.7c1.2,1.5,15.8,17.8,30.8,34.5c6.6,7.4,10.1-9.2,9.1-11.2
				c-6.5-13.2-12.1-24.6-13.1-27.5c-5.5-15.9-6-24.2-6-29.1S136.9,29.4,136.9,29.4z"/>
			<line id="XMLID_22013_" class="st13" x1="137.8" y1="54.8" x2="129.4" y2="67.1"/>
			<g id="XMLID_22010_">
				<polygon id="XMLID_22012_" class="st6" points="150.8,85.5 142.8,102.7 144,103.7 151.7,87.1 				"/>
				<polygon id="XMLID_22011_" class="st7" points="151.2,86.6 144,103.7 146.3,106 153.3,88.5 				"/>
			</g>
			<g id="XMLID_22005_">
				<path id="XMLID_22009_" class="st6" d="M189.6,66.9c0.7-1.9,0.6-3.6-1.2-4.5c-0.7-0.4-2.9,0.3-3.2,1
					c-0.8,2.1-35.2,60.6-39.8,69.8s-14.8,26.4-14.8,26.4L186,72.9c1.5-1.7,2.7-3.6,3.5-5.7L189.6,66.9z"/>
				<path id="XMLID_22008_" class="st7" d="M187.2,64.8c-0.8,2.1-35.4,58.6-40.1,67.8c-4.6,9.2-16.3,25.4-16.3,25.4l53.8-84.5
					c1.7-1.8,3.4-4,4.4-6.3c0,0,0.6-1.5,0.6-3.1c0-1.6-1-1.8-1.9-1.8C187.7,62.2,188,62.7,187.2,64.8z"/>
				<polygon id="XMLID_22007_" class="st6" points="176.1,39.4 182.2,61.8 182.2,62.6 180.9,65.1 171,69.1 168.5,69.2 175.6,44.6 
									"/>
				<path id="XMLID_22006_" class="st7" d="M176.1,39.4l5.5,22.5v0c0.1,0.5,0,1.1-0.2,1.6l-1.7,4.2l-8.4,4.2l-4.3-2.7l7.1-24.6
					L176.1,39.4z"/>
			</g>
			<path id="XMLID_22004_" class="st20" d="M163.1,29.4c0,0,10.2,3.7,12.3,8.4c2,4.7,5.7,24.5,5.7,24.5l-10.4,4.7
				c0,0,16-5.8,17.6-4.5c0.9,0.8,1.7,2.3-2.7,7.7c-2.6,3.2-54,86.7-54.6,87.6c0,0,25.2-84.3,27.9-91.9c5.5-15.9,6-24.2,6-29.1
				S163.1,29.4,163.1,29.4z"/>
			<line id="XMLID_22003_" class="st13" x1="162.2" y1="55" x2="170.6" y2="67.1"/>
		</g>
		<path id="XMLID_22001_" class="st2" d="M186.2,65.5l-1.5,0.5c-0.4,0.1-0.9,0.3-1.3,0.5l-1.5,0.7c-0.1,0.1,0,0.3,0.1,0.2l1.5-0.5
			c0.4-0.1,0.9-0.3,1.3-0.5l1.5-0.7C186.4,65.7,186.3,65.5,186.2,65.5z"/>
		<g id="XMLID_1488_">
			<g id="XMLID_2271_">
				<g id="XMLID_2573_">
					<path id="XMLID_3063_" class="st2" d="M243.8,236.5l-2.3,0.2l-2.2,0.7c-0.1,0-0.1,0.3,0,0.2l2.3-0.2l2.2-0.7
						C244,236.7,243.9,236.5,243.8,236.5z"/>
					<circle id="XMLID_3062_" class="st6" cx="242.3" cy="237.1" r="1.7"/>
					<circle id="XMLID_3061_" class="st15" cx="242.3" cy="237" r="1.7"/>
					<circle id="XMLID_3060_" class="st21" cx="242.3" cy="236.8" r="1.7"/>
					<circle id="XMLID_3059_" class="st17" cx="242.3" cy="236.8" r="1.4"/>
					<circle id="XMLID_3058_" class="st18" cx="242" cy="236.4" r="0.2"/>
					<circle id="XMLID_3057_" class="st18" cx="242.5" cy="237.4" r="0.2"/>
					<line id="XMLID_3056_" class="st22" x1="241.9" y1="236.4" x2="242.4" y2="237.4"/>
					<line id="XMLID_2844_" class="st22" x1="242.1" y1="236.3" x2="242.6" y2="237.4"/>
					<circle id="XMLID_2577_" class="st18" cx="241.8" cy="237.1" r="0.2"/>
					<circle id="XMLID_2576_" class="st18" cx="242.8" cy="236.6" r="0.2"/>
					<line id="XMLID_2575_" class="st22" x1="241.8" y1="237.2" x2="242.8" y2="236.7"/>
					<line id="XMLID_2574_" class="st22" x1="241.7" y1="237.1" x2="242.7" y2="236.6"/>
				</g>
				<g id="XMLID_2559_">
					<path id="XMLID_2572_" class="st2" d="M243.1,232.7l-2.3,0.2l-2.2,0.7c-0.1,0-0.1,0.3,0,0.2l2.3-0.2l2.2-0.7
						C243.3,232.9,243.2,232.7,243.1,232.7z"/>
					<circle id="XMLID_2571_" class="st6" cx="241.6" cy="233.2" r="1.7"/>
					<circle id="XMLID_2570_" class="st15" cx="241.6" cy="233.2" r="1.7"/>
					<circle id="XMLID_2569_" class="st21" cx="241.6" cy="232.9" r="1.7"/>
					<circle id="XMLID_2568_" class="st17" cx="241.6" cy="232.9" r="1.4"/>
					<circle id="XMLID_2567_" class="st18" cx="241.3" cy="232.5" r="0.2"/>
					<circle id="XMLID_2566_" class="st18" cx="241.8" cy="233.6" r="0.2"/>
					<line id="XMLID_2565_" class="st22" x1="241.2" y1="232.5" x2="241.7" y2="233.6"/>
					<line id="XMLID_2564_" class="st22" x1="241.4" y1="232.5" x2="241.9" y2="233.5"/>
					<circle id="XMLID_2563_" class="st18" cx="241" cy="233.3" r="0.2"/>
					<circle id="XMLID_2562_" class="st18" cx="242.1" cy="232.8" r="0.2"/>
					<line id="XMLID_2561_" class="st22" x1="241" y1="233.4" x2="242.1" y2="232.9"/>
					<line id="XMLID_2560_" class="st22" x1="241" y1="233.3" x2="242" y2="232.8"/>
				</g>
				<g id="XMLID_2362_">
					<path id="XMLID_2558_" class="st2" d="M244.5,240.4l-2.3,0.2l-2.2,0.7c-0.1,0-0.1,0.3,0,0.2l2.3-0.2l2.2-0.7
						C244.7,240.6,244.7,240.4,244.5,240.4z"/>
					<circle id="XMLID_2557_" class="st6" cx="243" cy="240.9" r="1.7"/>
					<circle id="XMLID_2556_" class="st15" cx="243" cy="240.8" r="1.7"/>
					<circle id="XMLID_2555_" class="st21" cx="243" cy="240.6" r="1.7"/>
					<circle id="XMLID_2554_" class="st17" cx="243" cy="240.6" r="1.4"/>
					<circle id="XMLID_2553_" class="st18" cx="242.7" cy="240.2" r="0.2"/>
					<circle id="XMLID_2552_" class="st18" cx="243.2" cy="241.2" r="0.2"/>
					<line id="XMLID_2551_" class="st22" x1="242.7" y1="240.2" x2="243.2" y2="241.2"/>
					<line id="XMLID_2550_" class="st22" x1="242.8" y1="240.1" x2="243.3" y2="241.2"/>
					<circle id="XMLID_2549_" class="st18" cx="242.5" cy="241" r="0.2"/>
					<circle id="XMLID_2548_" class="st18" cx="243.5" cy="240.5" r="0.2"/>
					<line id="XMLID_2547_" class="st22" x1="242.5" y1="241.1" x2="243.5" y2="240.6"/>
					<line id="XMLID_2546_" class="st22" x1="242.4" y1="240.9" x2="243.4" y2="240.4"/>
				</g>
				<g id="XMLID_2272_">
					<path id="XMLID_2360_" class="st2" d="M245.2,244.2l-2.3,0.2l-2.2,0.7c-0.1,0-0.1,0.3,0,0.2l2.3-0.2l2.2-0.7
						C245.4,244.4,245.4,244.2,245.2,244.2z"/>
					<circle id="XMLID_2359_" class="st6" cx="243.7" cy="244.7" r="1.7"/>
					<circle id="XMLID_2323_" class="st15" cx="243.8" cy="244.6" r="1.7"/>
					<circle id="XMLID_2284_" class="st21" cx="243.7" cy="244.4" r="1.7"/>
					<circle id="XMLID_2283_" class="st17" cx="243.7" cy="244.4" r="1.4"/>
					<circle id="XMLID_2282_" class="st18" cx="243.4" cy="244" r="0.2"/>
					<circle id="XMLID_2280_" class="st18" cx="244" cy="245.1" r="0.2"/>
					<line id="XMLID_2278_" class="st22" x1="243.4" y1="244" x2="243.9" y2="245.1"/>
					<line id="XMLID_2277_" class="st22" x1="243.5" y1="244" x2="244" y2="245"/>
					<circle id="XMLID_2276_" class="st18" cx="243.2" cy="244.8" r="0.2"/>
					<circle id="XMLID_2275_" class="st18" cx="244.2" cy="244.3" r="0.2"/>
					<line id="XMLID_2274_" class="st22" x1="243.2" y1="244.9" x2="244.2" y2="244.4"/>
					<line id="XMLID_2273_" class="st22" x1="243.1" y1="244.7" x2="244.2" y2="244.2"/>
				</g>
			</g>
			<g id="XMLID_1539_">
				<g id="XMLID_1582_">
					<path id="XMLID_2270_" class="st2" d="M56.3,236.5l2.3,0.2l2.2,0.7c0.1,0,0.1,0.3,0,0.2l-2.3-0.2l-2.2-0.7
						C56.1,236.7,56.1,236.5,56.3,236.5z"/>
					<circle id="XMLID_2269_" class="st6" cx="57.8" cy="237.1" r="1.7"/>
					<circle id="XMLID_2268_" class="st15" cx="57.7" cy="237" r="1.7"/>
					<circle id="XMLID_2267_" class="st21" cx="57.8" cy="236.8" r="1.7"/>
					<circle id="XMLID_2266_" class="st17" cx="57.8" cy="236.8" r="1.4"/>
					<circle id="XMLID_2265_" class="st18" cx="58" cy="236.4" r="0.2"/>
					<circle id="XMLID_2264_" class="st18" cx="57.5" cy="237.4" r="0.2"/>
					<line id="XMLID_1588_" class="st22" x1="58.1" y1="236.4" x2="57.6" y2="237.4"/>
					<line id="XMLID_1587_" class="st22" x1="58" y1="236.3" x2="57.5" y2="237.4"/>
					<circle id="XMLID_1586_" class="st18" cx="58.3" cy="237.1" r="0.2"/>
					<circle id="XMLID_1585_" class="st18" cx="57.3" cy="236.6" r="0.2"/>
					<line id="XMLID_1584_" class="st22" x1="58.3" y1="237.2" x2="57.3" y2="236.7"/>
					<line id="XMLID_1583_" class="st22" x1="58.4" y1="237.1" x2="57.3" y2="236.6"/>
				</g>
				<g id="XMLID_1568_">
					<path id="XMLID_1581_" class="st2" d="M57,232.7l2.3,0.2l2.2,0.7c0.1,0,0.1,0.3,0,0.2l-2.3-0.2l-2.2-0.7
						C56.8,232.9,56.8,232.7,57,232.7z"/>
					<circle id="XMLID_1580_" class="st6" cx="58.5" cy="233.2" r="1.7"/>
					<circle id="XMLID_1579_" class="st15" cx="58.4" cy="233.2" r="1.7"/>
					<circle id="XMLID_1578_" class="st21" cx="58.5" cy="232.9" r="1.7"/>
					<circle id="XMLID_1577_" class="st17" cx="58.5" cy="232.9" r="1.4"/>
					<circle id="XMLID_1576_" class="st18" cx="58.7" cy="232.5" r="0.2"/>
					<circle id="XMLID_1575_" class="st18" cx="58.2" cy="233.6" r="0.2"/>
					<line id="XMLID_1574_" class="st22" x1="58.8" y1="232.5" x2="58.3" y2="233.6"/>
					<line id="XMLID_1573_" class="st22" x1="58.7" y1="232.5" x2="58.2" y2="233.5"/>
					<circle id="XMLID_1572_" class="st18" cx="59" cy="233.3" r="0.2"/>
					<circle id="XMLID_1571_" class="st18" cx="58" cy="232.8" r="0.2"/>
					<line id="XMLID_1570_" class="st22" x1="59" y1="233.4" x2="58" y2="232.9"/>
					<line id="XMLID_1569_" class="st22" x1="59.1" y1="233.3" x2="58" y2="232.8"/>
				</g>
				<g id="XMLID_1554_">
					<path id="XMLID_1567_" class="st2" d="M55.5,240.4l2.3,0.2l2.2,0.7c0.1,0,0.1,0.3,0,0.2l-2.3-0.2l-2.2-0.7
						C55.4,240.6,55.4,240.4,55.5,240.4z"/>
					<circle id="XMLID_1566_" class="st6" cx="57" cy="240.9" r="1.7"/>
					<circle id="XMLID_1565_" class="st15" cx="57" cy="240.8" r="1.7"/>
					<circle id="XMLID_1564_" class="st21" cx="57" cy="240.6" r="1.7"/>
					<circle id="XMLID_1563_" class="st17" cx="57" cy="240.6" r="1.4"/>
					<circle id="XMLID_1562_" class="st18" cx="57.3" cy="240.2" r="0.2"/>
					<circle id="XMLID_1561_" class="st18" cx="56.8" cy="241.2" r="0.2"/>
					<line id="XMLID_1560_" class="st22" x1="57.4" y1="240.2" x2="56.9" y2="241.2"/>
					<line id="XMLID_1559_" class="st22" x1="57.3" y1="240.1" x2="56.8" y2="241.2"/>
					<circle id="XMLID_1558_" class="st18" cx="57.6" cy="241" r="0.2"/>
					<circle id="XMLID_1557_" class="st18" cx="56.6" cy="240.5" r="0.2"/>
					<line id="XMLID_1556_" class="st22" x1="57.6" y1="241.1" x2="56.6" y2="240.6"/>
					<line id="XMLID_1555_" class="st22" x1="57.6" y1="240.9" x2="56.6" y2="240.4"/>
				</g>
				<g id="XMLID_1540_">
					<path id="XMLID_1553_" class="st2" d="M54.8,244.2l2.3,0.2l2.2,0.7c0.1,0,0.1,0.3,0,0.2l-2.3-0.2l-2.2-0.7
						C54.6,244.4,54.7,244.2,54.8,244.2z"/>
					<circle id="XMLID_1552_" class="st6" cx="56.3" cy="244.7" r="1.7"/>
					<circle id="XMLID_1551_" class="st15" cx="56.3" cy="244.6" r="1.7"/>
					<circle id="XMLID_1550_" class="st21" cx="56.3" cy="244.4" r="1.7"/>
					<circle id="XMLID_1549_" class="st17" cx="56.3" cy="244.4" r="1.4"/>
					<circle id="XMLID_1548_" class="st18" cx="56.6" cy="244" r="0.2"/>
					<circle id="XMLID_1547_" class="st18" cx="56.1" cy="245.1" r="0.2"/>
					<line id="XMLID_1546_" class="st22" x1="56.7" y1="244" x2="56.2" y2="245.1"/>
					<line id="XMLID_1545_" class="st22" x1="56.6" y1="244" x2="56.1" y2="245"/>
					<circle id="XMLID_1544_" class="st18" cx="56.9" cy="244.8" r="0.2"/>
					<circle id="XMLID_1543_" class="st18" cx="55.8" cy="244.3" r="0.2"/>
					<line id="XMLID_1542_" class="st22" x1="56.9" y1="244.9" x2="55.8" y2="244.4"/>
					<line id="XMLID_1541_" class="st22" x1="56.9" y1="244.7" x2="55.9" y2="244.2"/>
				</g>
			</g>
		</g>
	</g>
</g>
</svg>
