<?xml version="1.0" encoding="utf-8"?>
<!-- Generator: Adobe Illustrator 19.0.0, SVG Export Plug-In . SVG Version: 6.00 Build 0)  -->
<svg version="1.1" id="Layer_1" xmlns="http://www.w3.org/2000/svg" xmlns:xlink="http://www.w3.org/1999/xlink" x="0px" y="0px"
	 viewBox="0 0 300 300" style="enable-background:new 0 0 300 300;" xml:space="preserve">
<style type="text/css">
	.st0{clip-path:url(#SVGID_2_);}
	.st1{clip-path:url(#XMLID_3_);}
	.st2{clip-path:url(#XMLID_4_);}
	.st3{fill:#FFFFFF;stroke:#404041;stroke-miterlimit:10;}
	.st4{fill:#F1F1F2;}
	.st5{fill:#C5C7C9;}
	.st6{fill:#404041;stroke:#D0D2D3;stroke-width:0.5;stroke-miterlimit:10;}
	.st7{fill:#DBDCDD;}
	.st8{fill:#FFFFFF;stroke:#6D6E70;stroke-width:0.5;stroke-miterlimit:10;}
	.st9{fill:#FFFFFF;stroke:#929497;stroke-width:0.25;stroke-miterlimit:10;}
	.st10{fill:#404041;}
	.st11{fill:none;stroke:#6D6E70;stroke-width:0.25;stroke-miterlimit:10;}
	.st12{fill:#9AA0BB;}
</style>
<g>
	<defs>
		<circle id="SVGID_1_" cx="150.1" cy="149.6" r="150"/>
	</defs>
	<use xlink:href="#SVGID_1_"  style="overflow:visible;fill:#DDDDDD;"/>
	<clipPath id="SVGID_2_">
		<use xlink:href="#SVGID_1_"  style="overflow:visible;"/>
	</clipPath>
	<g id="XMLID_4081_" class="st0">
		<defs>
			<rect id="XMLID_4118_" y="-0.4" width="300" height="300"/>
		</defs>
		<clipPath id="XMLID_3_">
			<use xlink:href="#XMLID_4118_"  style="overflow:visible;"/>
		</clipPath>
		<g id="XMLID_3209_" class="st1">
			<defs>
				<rect id="XMLID_3210_" width="300" height="300"/>
			</defs>
			<clipPath id="XMLID_4_">
				<use xlink:href="#XMLID_3210_"  style="overflow:visible;"/>
			</clipPath>
			<g id="XMLID_20741_" class="st2">
				<path id="XMLID_20742_" class="st3" d="M68.4,222.9c0,0,11.8,9.7,80.9,9.7s81-9.7,81-9.7S220.1,47.9,219.6,43.8l20,180.4
					c0,0,6,2.9,17.9,2.5c11.9-0.4,17.6-5.4,17.6-5.4S240.6,5.1,237.4-10.1c-3.2-15.2-6.3-14.2-6.3-14.2c0,0-2-3.6-16.8-10.4
					c-13.9-6.4-25.5-11.5-30.1-14c-0.3-0.2-0.5-0.3-0.8-0.4c-3.9-2.4-15.7-8.7-15.8-8.7l-0.5-0.9c-0.1-0.1-0.2-0.2-0.3-0.2
					c-0.7,0-3.9,0-17,0c-0.1,0-0.1,0-0.2,0c-0.1,0-0.1,0-0.2,0c-17.9,0-17.8,0.4-17.8,0.4l-0.3,1c-2.9,1.6-15.2,8.1-17.9,10
					c-1.7,1.1-15.9,7.3-28,12.9c-14.7,6.8-16.8,10.4-16.8,10.4c0.7,0.4,0,0.4,0,0.4s-3.1-1-6.3,14.2C59.4,5.5,25,221.6,25,221.6
					s5.7,5,17.6,5.4s17.9-2.5,17.9-2.5L80.6,43.8C79,65.6,68.4,222.9,68.4,222.9z"/>
				<path id="XMLID_20873_" class="st3" d="M98.2,230.2c11.9,1.4,28.5,2.4,51.1,2.4l2.2,0c23.3-0.1,40.4-1.2,52.1-2.6"/>
				<g id="XMLID_20747_">
					<g id="XMLID_20863_">
						<g id="XMLID_20869_">
							<path id="XMLID_20871_" class="st4" d="M83,90.9c4.3-29.4,2.4-52.9-0.5-71.4c0.6,3.7,0.9,10.1,0.9,11
								c0.5,6.2,1,12.7,0.8,18.8c-0.1,13-1.1,27.9-3.4,44.3c-2,14-3.5,20.2-4.6,22.7c-0.2,2-0.4,3.9-0.6,5.8
								C78.4,122,80.2,109.8,83,90.9z"/>
							<path id="XMLID_20870_" class="st5" d="M80.3,79c-1.3,12.6-2.8,25.6-4.1,37.4c1.1-2.4,2.6-8.6,4.6-22.7
								C83.2,77.4,84.3,64,84.3,42l0-0.1c0.2-7.9-1.9-22.7-1.9-22.1C83.6,37.5,81.6,68.5,80.3,79z"/>
						</g>
						<path id="XMLID_20868_" class="st3" d="M82.8,37.6c-0.2-27.8-2.3-51.7-11.9-60.4l-2-1.2c0,0-3.1-1-6.3,14.2
							C59.4,5.5,25,221.6,25,221.6s5.7,5,17.6,5.4s17.9-2.5,17.9-2.5L79,89.7C81.1,70.8,82.9,51.8,82.8,37.6z"/>
						<g id="XMLID_20865_">
							<path id="XMLID_20867_" class="st4" d="M217,90.9c-4.3-29.4-2.4-52.9,0.5-71.4c-0.6,3.7-0.9,10.1-0.9,11
								c-0.5,6.2-1,12.7-0.8,18.8c0.1,13,1.1,27.9,3.4,44.3c2,14,3.5,20.2,4.6,22.7c0.2,2,0.4,3.9,0.6,5.8
								C221.6,122,219.7,109.8,217,90.9z"/>
							<path id="XMLID_20866_" class="st5" d="M219.6,79c1.3,12.6,2.8,25.6,4.1,37.4c-1.1-2.4-2.6-8.6-4.6-22.7
								c-2.3-16.4-3.5-29.8-3.5-51.7l0-0.1c-0.2-7.9,1.9-22.7,1.9-22.1C216.3,37.5,218.4,68.5,219.6,79z"/>
						</g>
						<path id="XMLID_20864_" class="st3" d="M237.4-10.1c-3.2-15.2-6.3-14.2-6.3-14.2l0,0c-11.3,7-13.7,32.3-13.9,61.9
							c-0.1,13.8,1.6,32.1,3.6,50.4l18.8,136.1c0,0,6,2.9,17.9,2.5c11.9-0.4,17.6-5.4,17.6-5.4S240.6,5.1,237.4-10.1z"/>
					</g>
					<g id="XMLID_20748_">
						<g id="XMLID_20806_">
							<g id="XMLID_20849_">
								<path id="XMLID_20862_" class="st6" d="M270.3,207.4l-3,0.2l-2.9,0.9c-0.2,0.1-0.1,0.3,0.1,0.3l3-0.2l2.9-0.9
									C270.5,207.6,270.5,207.3,270.3,207.4z"/>
								<circle id="XMLID_20861_" class="st4" cx="268.4" cy="208" r="2.2"/>
								<circle id="XMLID_20860_" class="st7" cx="268.4" cy="207.9" r="2.1"/>
								<circle id="XMLID_20859_" class="st8" cx="268.4" cy="207.6" r="2.1"/>
								<circle id="XMLID_20858_" class="st9" cx="268.4" cy="207.6" r="1.8"/>
								<circle id="XMLID_20857_" class="st10" cx="268" cy="207.2" r="0.3"/>
								<circle id="XMLID_20856_" class="st10" cx="268.6" cy="208.5" r="0.3"/>
								<line id="XMLID_20855_" class="st11" x1="267.9" y1="207.2" x2="268.5" y2="208.5"/>
								<line id="XMLID_20854_" class="st11" x1="268.1" y1="207.1" x2="268.7" y2="208.4"/>
								<circle id="XMLID_20853_" class="st10" cx="267.7" cy="208.1" r="0.3"/>
								<circle id="XMLID_20852_" class="st10" cx="269" cy="207.5" r="0.3"/>
								<line id="XMLID_20851_" class="st11" x1="267.7" y1="208.2" x2="269" y2="207.6"/>
								<line id="XMLID_20850_" class="st11" x1="267.6" y1="208.1" x2="268.9" y2="207.4"/>
							</g>
							<g id="XMLID_20835_">
								<path id="XMLID_20848_" class="st6" d="M269.4,202.4l-3,0.2l-2.9,0.9c-0.2,0.1-0.1,0.3,0.1,0.3l3-0.2l2.9-0.9
									C269.6,202.7,269.6,202.4,269.4,202.4z"/>
								<circle id="XMLID_20847_" class="st4" cx="267.4" cy="203.1" r="2.2"/>
								<circle id="XMLID_20846_" class="st7" cx="267.5" cy="203" r="2.1"/>
								<circle id="XMLID_20845_" class="st8" cx="267.4" cy="202.7" r="2.1"/>
								<circle id="XMLID_20844_" class="st9" cx="267.4" cy="202.7" r="1.8"/>
								<circle id="XMLID_20843_" class="st10" cx="267.1" cy="202.2" r="0.3"/>
								<circle id="XMLID_20842_" class="st10" cx="267.7" cy="203.6" r="0.3"/>
								<line id="XMLID_20841_" class="st11" x1="267" y1="202.2" x2="267.6" y2="203.6"/>
								<line id="XMLID_20840_" class="st11" x1="267.2" y1="202.2" x2="267.8" y2="203.5"/>
								<circle id="XMLID_20839_" class="st10" cx="266.7" cy="203.2" r="0.3"/>
								<circle id="XMLID_20838_" class="st10" cx="268.1" cy="202.6" r="0.3"/>
								<line id="XMLID_20837_" class="st11" x1="266.7" y1="203.3" x2="268.1" y2="202.7"/>
								<line id="XMLID_20836_" class="st11" x1="266.7" y1="203.2" x2="268" y2="202.5"/>
							</g>
							<g id="XMLID_20821_">
								<path id="XMLID_20834_" class="st6" d="M271.2,212.3l-3,0.2l-2.9,0.9c-0.2,0.1-0.1,0.3,0.1,0.3l3-0.2l2.9-0.9
									C271.4,212.5,271.4,212.3,271.2,212.3z"/>
								<circle id="XMLID_20833_" class="st4" cx="269.3" cy="212.9" r="2.2"/>
								<circle id="XMLID_20832_" class="st7" cx="269.3" cy="212.8" r="2.1"/>
								<circle id="XMLID_20831_" class="st8" cx="269.3" cy="212.6" r="2.1"/>
								<circle id="XMLID_20830_" class="st9" cx="269.3" cy="212.6" r="1.8"/>
								<circle id="XMLID_20829_" class="st10" cx="268.9" cy="212.1" r="0.3"/>
								<circle id="XMLID_20828_" class="st10" cx="269.6" cy="213.4" r="0.3"/>
								<line id="XMLID_20827_" class="st11" x1="268.8" y1="212.1" x2="269.5" y2="213.4"/>
								<line id="XMLID_20826_" class="st11" x1="269" y1="212" x2="269.6" y2="213.3"/>
								<circle id="XMLID_20825_" class="st10" cx="268.6" cy="213.1" r="0.3"/>
								<circle id="XMLID_20824_" class="st10" cx="269.9" cy="212.4" r="0.3"/>
								<line id="XMLID_20823_" class="st11" x1="268.6" y1="213.2" x2="269.9" y2="212.5"/>
								<line id="XMLID_20822_" class="st11" x1="268.5" y1="213" x2="269.8" y2="212.3"/>
							</g>
							<g id="XMLID_20807_">
								<path id="XMLID_20820_" class="st6" d="M272.1,217.2l-3,0.2l-2.9,0.9c-0.2,0.1-0.1,0.3,0.1,0.3l3-0.2l2.9-0.9
									C272.3,217.4,272.3,217.2,272.1,217.2z"/>
								<circle id="XMLID_20819_" class="st4" cx="270.2" cy="217.9" r="2.2"/>
								<circle id="XMLID_20818_" class="st7" cx="270.2" cy="217.8" r="2.1"/>
								<circle id="XMLID_20817_" class="st8" cx="270.2" cy="217.5" r="2.1"/>
								<circle id="XMLID_20816_" class="st9" cx="270.2" cy="217.5" r="1.8"/>
								<circle id="XMLID_20815_" class="st10" cx="269.8" cy="217" r="0.3"/>
								<circle id="XMLID_20814_" class="st10" cx="270.5" cy="218.3" r="0.3"/>
								<line id="XMLID_20813_" class="st11" x1="269.7" y1="217" x2="270.4" y2="218.3"/>
								<line id="XMLID_20812_" class="st11" x1="269.9" y1="216.9" x2="270.5" y2="218.2"/>
								<circle id="XMLID_20811_" class="st10" cx="269.5" cy="218" r="0.3"/>
								<circle id="XMLID_20810_" class="st10" cx="270.8" cy="217.3" r="0.3"/>
								<line id="XMLID_20809_" class="st11" x1="269.5" y1="218.1" x2="270.8" y2="217.4"/>
								<line id="XMLID_20808_" class="st11" x1="269.4" y1="217.9" x2="270.7" y2="217.3"/>
							</g>
						</g>
						<g id="XMLID_20749_">
							<g id="XMLID_20792_">
								<path id="XMLID_20805_" class="st6" d="M29.5,207.4l3,0.2l2.9,0.9c0.2,0.1,0.1,0.3-0.1,0.3l-3-0.2l-2.9-0.9
									C29.3,207.6,29.4,207.3,29.5,207.4z"/>
								<circle id="XMLID_20804_" class="st4" cx="31.5" cy="208" r="2.2"/>
								<circle id="XMLID_20803_" class="st7" cx="31.4" cy="207.9" r="2.1"/>
								<circle id="XMLID_20802_" class="st8" cx="31.5" cy="207.6" r="2.1"/>
								<circle id="XMLID_20801_" class="st9" cx="31.5" cy="207.6" r="1.8"/>
								<circle id="XMLID_20800_" class="st10" cx="31.8" cy="207.2" r="0.3"/>
								<circle id="XMLID_20799_" class="st10" cx="31.2" cy="208.5" r="0.3"/>
								<line id="XMLID_20798_" class="st11" x1="31.9" y1="207.2" x2="31.3" y2="208.5"/>
								<line id="XMLID_20797_" class="st11" x1="31.8" y1="207.1" x2="31.1" y2="208.4"/>
								<circle id="XMLID_20796_" class="st10" cx="32.2" cy="208.1" r="0.3"/>
								<circle id="XMLID_20795_" class="st10" cx="30.8" cy="207.5" r="0.3"/>
								<line id="XMLID_20794_" class="st11" x1="32.2" y1="208.2" x2="30.8" y2="207.6"/>
								<line id="XMLID_20793_" class="st11" x1="32.2" y1="208.1" x2="30.9" y2="207.4"/>
							</g>
							<g id="XMLID_20778_">
								<path id="XMLID_20791_" class="st6" d="M30.5,202.4l3,0.2l2.9,0.9c0.2,0.1,0.1,0.3-0.1,0.3l-3-0.2l-2.9-0.9
									C30.2,202.7,30.3,202.4,30.5,202.4z"/>
								<circle id="XMLID_20790_" class="st4" cx="32.4" cy="203.1" r="2.2"/>
								<circle id="XMLID_20789_" class="st7" cx="32.3" cy="203" r="2.1"/>
								<circle id="XMLID_20788_" class="st8" cx="32.4" cy="202.7" r="2.1"/>
								<circle id="XMLID_20787_" class="st9" cx="32.4" cy="202.7" r="1.8"/>
								<circle id="XMLID_20786_" class="st10" cx="32.7" cy="202.2" r="0.3"/>
								<circle id="XMLID_20785_" class="st10" cx="32.1" cy="203.6" r="0.3"/>
								<line id="XMLID_20784_" class="st11" x1="32.8" y1="202.2" x2="32.2" y2="203.6"/>
								<line id="XMLID_20783_" class="st11" x1="32.7" y1="202.2" x2="32" y2="203.5"/>
								<circle id="XMLID_20782_" class="st10" cx="33.1" cy="203.2" r="0.3"/>
								<circle id="XMLID_20781_" class="st10" cx="31.7" cy="202.6" r="0.3"/>
								<line id="XMLID_20780_" class="st11" x1="33.1" y1="203.3" x2="31.8" y2="202.7"/>
								<line id="XMLID_20779_" class="st11" x1="33.2" y1="203.2" x2="31.8" y2="202.5"/>
							</g>
							<g id="XMLID_20764_">
								<path id="XMLID_20777_" class="st6" d="M28.6,212.3l3,0.2l2.9,0.9c0.2,0.1,0.1,0.3-0.1,0.3l-3-0.2l-2.9-0.9
									C28.4,212.5,28.4,212.3,28.6,212.3z"/>
								<circle id="XMLID_20776_" class="st4" cx="30.6" cy="212.9" r="2.2"/>
								<circle id="XMLID_20775_" class="st7" cx="30.5" cy="212.8" r="2.1"/>
								<circle id="XMLID_20774_" class="st8" cx="30.6" cy="212.6" r="2.1"/>
								<circle id="XMLID_20773_" class="st9" cx="30.6" cy="212.6" r="1.8"/>
								<circle id="XMLID_20772_" class="st10" cx="30.9" cy="212.1" r="0.3"/>
								<circle id="XMLID_20771_" class="st10" cx="30.3" cy="213.4" r="0.3"/>
								<line id="XMLID_20770_" class="st11" x1="31" y1="212.1" x2="30.4" y2="213.4"/>
								<line id="XMLID_20769_" class="st11" x1="30.8" y1="212" x2="30.2" y2="213.3"/>
								<circle id="XMLID_20768_" class="st10" cx="31.3" cy="213.1" r="0.3"/>
								<circle id="XMLID_20767_" class="st10" cx="29.9" cy="212.4" r="0.3"/>
								<line id="XMLID_20766_" class="st11" x1="31.3" y1="213.2" x2="29.9" y2="212.5"/>
								<line id="XMLID_20765_" class="st11" x1="31.3" y1="213" x2="30" y2="212.3"/>
							</g>
							<g id="XMLID_20750_">
								<path id="XMLID_20763_" class="st6" d="M27.7,217.2l3,0.2l2.9,0.9c0.2,0.1,0.1,0.3-0.1,0.3l-3-0.2l-2.9-0.9
									C27.5,217.4,27.5,217.2,27.7,217.2z"/>
								<circle id="XMLID_20762_" class="st4" cx="29.6" cy="217.9" r="2.2"/>
								<circle id="XMLID_20761_" class="st7" cx="29.6" cy="217.8" r="2.1"/>
								<circle id="XMLID_20760_" class="st8" cx="29.6" cy="217.5" r="2.1"/>
								<circle id="XMLID_20759_" class="st9" cx="29.6" cy="217.5" r="1.8"/>
								<circle id="XMLID_20758_" class="st10" cx="30" cy="217" r="0.3"/>
								<circle id="XMLID_20757_" class="st10" cx="29.3" cy="218.3" r="0.3"/>
								<line id="XMLID_20756_" class="st11" x1="30.1" y1="217" x2="29.5" y2="218.3"/>
								<line id="XMLID_20755_" class="st11" x1="29.9" y1="216.9" x2="29.3" y2="218.2"/>
								<circle id="XMLID_20754_" class="st10" cx="30.3" cy="218" r="0.3"/>
								<circle id="XMLID_20753_" class="st10" cx="29" cy="217.3" r="0.3"/>
								<line id="XMLID_20752_" class="st11" x1="30.3" y1="218.1" x2="29" y2="217.4"/>
								<line id="XMLID_20751_" class="st11" x1="30.4" y1="217.9" x2="29.1" y2="217.3"/>
							</g>
						</g>
					</g>
				</g>
				<g id="XMLID_20744_">
					<path id="XMLID_20746_" class="st4" d="M176.9-52.9l1.9,1.1c0,0-7,4.4-28.7,4.4s-29.5-4.4-29.5-4.4l3-1.1l26.1-0.9L176.9-52.9z
						"/>
					<path id="XMLID_20745_" class="st5" d="M174.7-54.3l2.9,1.7c0,0-5.3,3.9-27.7,3.9s-27.4-3.9-27.4-3.9l3.3-2.4l23.7-0.2
						L174.7-54.3z"/>
				</g>
				<path id="XMLID_20743_" class="st3" d="M124.1-53.3c0,0-0.8,3.6,26.1,3.6s26.1-3.6,26.1-3.6l-3-5.7c0,0-11.7,0-21,0
					S127-59,127-59L124.1-53.3z"/>
			</g>
		</g>
	</g>
	<g id="XMLID_1_" class="st0">
		<defs>
			<rect id="XMLID_4932_" x="-13.5" width="327.1" height="300"/>
		</defs>
		<clipPath id="XMLID_5_">
			<use xlink:href="#XMLID_4932_"  style="overflow:visible;"/>
		</clipPath>
	</g>
	<g class="st0">
		<path class="st12" d="M150.1,4.6c38.7,0,75.1,15.1,102.5,42.5c27.4,27.4,42.5,63.8,42.5,102.5s-15.1,75.1-42.5,102.5
			c-27.4,27.4-63.8,42.5-102.5,42.5S75,279.5,47.6,252.1C20.2,224.7,5.1,188.3,5.1,149.6S20.2,74.5,47.6,47.1
			C75,19.7,111.4,4.6,150.1,4.6 M150.1-0.4c-82.8,0-150,67.2-150,150s67.2,150,150,150s150-67.2,150-150S232.9-0.4,150.1-0.4
			L150.1-0.4z"/>
	</g>
</g>
</svg>
