<?xml version="1.0" encoding="utf-8"?>
<!-- Generator: Adobe Illustrator 19.0.0, SVG Export Plug-In . SVG Version: 6.00 Build 0)  -->
<svg version="1.1" id="Layer_1" xmlns="http://www.w3.org/2000/svg" xmlns:xlink="http://www.w3.org/1999/xlink" x="0px" y="0px"
	 viewBox="0 0 300 300" style="enable-background:new 0 0 300 300;" xml:space="preserve">
<style type="text/css">
	.st0{clip-path:url(#SVGID_2_);}
	.st1{clip-path:url(#XMLID_3_);}
	.st2{clip-path:url(#SVGID_4_);}
	.st3{fill:#F1F1F2;stroke:#404041;stroke-miterlimit:10;}
	.st4{fill:#C5C7C9;}
	.st5{fill:#929497;}
	.st6{fill:#FFFFFF;stroke:#404041;stroke-miterlimit:10;}
	.st7{fill:#F1F1F2;}
	.st8{fill:none;stroke:#808184;stroke-width:0.5;stroke-miterlimit:10;stroke-dasharray:1,2;}
	.st9{fill:none;stroke:#404041;stroke-miterlimit:10;}
	.st10{fill:none;stroke:#C5C7C9;stroke-miterlimit:10;}
	.st11{fill:#9AA0BB;}
</style>
<g>
	<defs>
		<circle id="SVGID_1_" cx="150.1" cy="149.6" r="150"/>
	</defs>
	<use xlink:href="#SVGID_1_"  style="overflow:visible;fill:#DDDDDD;"/>
	<clipPath id="SVGID_2_">
		<use xlink:href="#SVGID_1_"  style="overflow:visible;"/>
	</clipPath>
	<g id="XMLID_4081_" class="st0">
		<defs>
			<rect id="XMLID_4118_" y="-0.4" width="300" height="300"/>
		</defs>
		<clipPath id="XMLID_3_">
			<use xlink:href="#XMLID_4118_"  style="overflow:visible;"/>
		</clipPath>
		<g class="st1">
			<defs>
				<rect id="SVGID_3_" x="-25" y="29.1" width="350" height="302.5"/>
			</defs>
			<clipPath id="SVGID_4_">
				<use xlink:href="#SVGID_3_"  style="overflow:visible;"/>
			</clipPath>
			<g class="st2">
				<path class="st3" d="M39.3,71.6c0,0,32.5-5.6,110.3-5.6s110.8,5.6,110.8,5.6s-39.8,22.4-100.8,22.6
					C98.7,94.5,39.3,71.6,39.3,71.6z"/>
				<g>
					<path class="st4" d="M39,71.8c0,0,79.2,7.9,115.6,7.9s104.3-7.9,104.3-7.9L247,97.9l-117.5,23.2l-50.7-14l-31.4-15L39,71.8z"/>
					<path class="st5" d="M39,74.4c0,0,79.2,7.9,115.6,7.9s104.3-7.9,104.3-7.9L247,100.5l-117.5,23.2l-50.7-14l-31.4-15L39,74.4z"
						/>
				</g>
				<path class="st6" d="M36.2,92c0,0-9.9,45.1-9.9,102.1c0,55.7-17.4,480.8-18.2,500.5c0,0.4,0.2,0.9,0.6,1.1
					c3,1.5,16.5,7.2,44.1,7.2c28,0,46.4-3.7,50.3-4.6c0.5-0.1,0.8-0.5,0.9-1l38-495l9.8-105.2L37,84.8L36.2,92z"/>
				<g>
					<path class="st7" d="M137.1,104v105.5c0,0-0.3,5.1,3.2,9.9l5.5-76.2v-39L137.1,104z"/>
					<path class="st4" d="M138.5,104v105.5c0,0-0.3,5.1,3.2,9.9l5.5-76.2v-39L138.5,104z"/>
				</g>
				<path class="st6" d="M263.8,92c0,0,9.9,45.1,9.9,102.1c0,55.7,17.4,480.8,18.2,500.5c0,0.4-0.2,0.9-0.6,1.1
					c-3,1.5-16.5,7.2-44.1,7.2c-28,0-46.4-3.7-50.3-4.6c-0.5-0.1-0.8-0.5-0.9-1l-55.7-481.1V96.8l122.7-12L263.8,92z"/>
				<path class="st8" d="M140.3,103.9l19.1-3.5v4.1V162c0,12.3-4.4,24.2-12.7,34.2l-6.4,6"/>
				<line class="st6" x1="140.3" y1="217.5" x2="140.3" y2="105.7"/>
				<g>
					<path class="st7" d="M263.2,90.6l-0.8-7l-13.3-1.5L150,89.8l-99.1-7.6l-13.3,1.5l-0.8,7l-0.6,1.7l4.9,1.1l0.4,0.4l3.8,0.7
						l0.4-0.3c0,0,16.9,4.2,29.7,5.8c12.8,1.6,28.5,3.3,28.5,3.3l1.1,0.7l5.1,0.5l1.2-0.8c0,0,12.9,2,28.8,2c0.2,0,0.3,0,0.5,0
						c15.4,0,18.8,0,18.8,0c0.2,0,0.3,0,0.5,0c15.8,0,28.8-2,28.8-2l1.2,0.8l5.1-0.5l1.1-0.7c0,0,15.7-1.7,28.5-3.3
						c12.8-1.6,29.7-5.8,29.7-5.8l0.4,0.3l3.8-0.7l0.4-0.4l4.9-1.1L263.2,90.6z"/>
					<path class="st4" d="M263.2,90.1l-0.8-7L249,81.7L150,89.2l-99.1-7.6l-13.3,1.5l-0.8,7l-0.6,1.7l4.9,1.1l0.4,0.4l3.8,0.7
						l0.4-0.3c0,0,16.9,4.2,29.7,5.8c12.8,1.6,28.5,3.3,28.5,3.3l1.1,0.7l5.1,0.5l1.2-0.8c0,0,12.9,2,28.8,2c0.2,0,0.3,0,0.5,0
						c15.4,0,18.8,0,18.8,0c0.2,0,0.3,0,0.5,0c15.8,0,28.8-2,28.8-2l1.2,0.8l5.1-0.5l1.1-0.7c0,0,15.7-1.7,28.5-3.3
						c12.8-1.6,29.7-5.8,29.7-5.8l0.4,0.3l3.8-0.7l0.4-0.4l4.9-1.1L263.2,90.1z"/>
				</g>
				<g>
					<path class="st7" d="M246,94.5c0,0,7.3,31.9,13.1,48c5.9,16.1,13.1,32.2,13.1,32.2s-16.1-30.5-22.6-50.9s-6.9-30.9-6.9-30.9
						L246,94.5z"/>
					<path class="st4" d="M244.1,94.5c0,0,7.3,31.9,13.1,48s13.9,30.2,13.9,30.2s-15.1-28.5-21.5-49s-6.9-30.9-6.9-30.9L244.1,94.5z
						"/>
				</g>
				<path class="st9" d="M242.7,94.6c0,0-0.3,10.9,11,40.5c11.3,29.6,19.1,40.5,19.1,40.5"/>
				<g>
					<path class="st7" d="M53.5,94c0,0-7.3,31.9-13.1,48s-13.1,32.2-13.1,32.2s16.1-30.5,22.6-50.9s6.9-30.9,6.9-30.9L53.5,94z"/>
					<path class="st4" d="M55.4,94c0,0-7.3,31.9-13.1,48s-13.9,30.2-13.9,30.2s15.1-28.5,21.5-49s6.9-30.9,6.9-30.9L55.4,94z"/>
				</g>
				<path class="st9" d="M56.8,94c0,0,0.3,10.9-11,40.5S26.7,175,26.7,175"/>
				<g>
					<path class="st7" d="M208.4,460.5c7.9,65.7,36.4,229.6,36.4,229.6L192.1,178C192.1,178,200.4,394.8,208.4,460.5z"/>
					<path class="st7" d="M223.3,425.5c-7.9-65.7-30.9-247.5-30.9-247.5L245,690.1C245,690.1,231.2,491.3,223.3,425.5z"/>
				</g>
				<line class="st10" x1="191.3" y1="164.4" x2="246" y2="702.4"/>
				<g>
					<path class="st7" d="M93.1,460.5c-7.9,65.7-36.4,229.6-36.4,229.6L109.3,178C109.3,178,101,394.8,93.1,460.5z"/>
					<path class="st7" d="M82.8,407.6c7.9-65.7,26.3-229.6,26.3-229.6L56.5,690.1C56.5,690.1,74.8,473.3,82.8,407.6z"/>
				</g>
				<line class="st10" x1="110.1" y1="164.4" x2="55.4" y2="702.4"/>
				<line class="st8" x1="192.5" y1="101.8" x2="192.5" y2="145.9"/>
				<line class="st10" x1="214.3" y1="90.3" x2="216.1" y2="108.7"/>
				<line class="st10" x1="83.9" y1="90.3" x2="82.1" y2="108.7"/>
				<line class="st8" x1="110.1" y1="101.8" x2="110.1" y2="145.9"/>
				<g>
					<path class="st6" d="M261.7,72.3c-0.2-0.5-0.7-0.9-1.3-0.8c-8.3,1.7-68,13.3-110.6,13.7c-42.6-0.4-102.3-12-110.6-13.7
						c-0.6-0.1-1.1,0.2-1.3,0.8C34.8,82.5,36,88,36.5,89.8c0.1,0.4,0.4,0.7,0.8,0.7c23.7,5.9,68.1,13.7,112.5,13.7
						s88.9-7.9,112.5-13.7c0.4-0.1,0.7-0.4,0.8-0.7C263.8,88,265,82.5,261.7,72.3z"/>
					<g>
						<polygon class="st7" points="111.9,82.9 113.2,83.1 112,102.4 110.1,102.6 110.5,83.3 						"/>
						<polygon class="st4" points="111.1,82.9 112.4,83.1 111.2,102.4 109.3,102.6 109.7,83.3 						"/>
					</g>
					<g>
						<polygon class="st7" points="193.8,82.4 195.1,82.4 196.3,101.8 194.4,102.1 192.5,82.9 						"/>
						<polygon class="st4" points="193,82.5 194.3,82.5 195.5,101.8 193.6,102.2 191.7,83 						"/>
					</g>
					<g>
						<polygon class="st7" points="257,72.2 258.3,72.2 259.9,91.5 258,91.9 255.6,72.8 						"/>
						<polygon class="st4" points="256.2,72.3 257.5,72.4 259.1,91.7 257.2,92.1 254.9,72.9 						"/>
					</g>
					<g>
						<polygon class="st7" points="48.7,73.6 50,73.8 48,93.1 46.1,93.1 47.3,73.9 						"/>
						<polygon class="st4" points="47.9,73.5 49.2,73.8 47.2,93.1 45.3,93.1 46.5,73.9 						"/>
					</g>
					<path class="st6" d="M105.3,101.9l1.1-19.2c0-0.6,0.6-1.1,1.3-1.1l2.6,0.3c1,0.1,1.4,0.5,1.4,1.1l-1,19.2
						c0,0.6-0.5,1.1-1.3,1.1l-2.7-0.3C106,103,105.3,102.5,105.3,101.9z"/>
					<path class="st6" d="M41.6,91.4l1.7-18.6c0-0.6,0.5-1,1.2-1l2.4,0.5c0.7,0,1.3,0.4,1.3,1l-1.7,18.5c0,0.5-0.5,1-1.2,1l-2.4-0.5
						C42.2,92.5,41.6,92,41.6,91.4z"/>
					<path class="st6" d="M258.2,91.4l-1.7-18.6c0-0.6-0.5-1-1.2-1l-2.4,0.5c-0.7,0-1.3,0.4-1.3,1l1.7,18.5c0,0.5,0.5,1,1.2,1
						l2.4-0.5C257.6,92.5,258.2,92,258.2,91.4z"/>
					<g>
						<rect x="122.2" y="83.8" class="st7" width="1.2" height="20.2"/>
						<rect x="122.8" y="83.8" class="st4" width="1.2" height="20.2"/>
					</g>
					<path class="st6" d="M124,83.8l-0.1,21.1c0,0,16,1.5,37.4,0.3s30-2.6,30-2.6L188,82.7c0,0-20.3,1.8-33.5,2
						C139.4,85,124,83.8,124,83.8z"/>
					<path class="st6" d="M194.5,101.9l-1.1-19.2c0-0.6-0.6-1.1-1.3-1.1l-2.6,0.3c-1,0.1-1.4,0.5-1.4,1.1l1,19.2
						c0,0.6,0.5,1.1,1.3,1.1l2.7-0.3C193.8,103,194.4,102.5,194.5,101.9z"/>
				</g>
			</g>
		</g>
	</g>
	<g id="XMLID_1_" class="st0">
		<defs>
			<rect id="XMLID_4932_" x="-13.5" width="327.1" height="300"/>
		</defs>
		<clipPath id="XMLID_4_">
			<use xlink:href="#XMLID_4932_"  style="overflow:visible;"/>
		</clipPath>
	</g>
	<g class="st0">
		<path class="st11" d="M150.1,4.6c38.7,0,75.1,15.1,102.5,42.5c27.4,27.4,42.5,63.8,42.5,102.5s-15.1,75.1-42.5,102.5
			c-27.4,27.4-63.8,42.5-102.5,42.5S75,279.5,47.6,252.1C20.2,224.7,5.1,188.3,5.1,149.6S20.2,74.5,47.6,47.1
			C75,19.7,111.4,4.6,150.1,4.6 M150.1-0.4c-82.8,0-150,67.2-150,150s67.2,150,150,150s150-67.2,150-150S232.9-0.4,150.1-0.4
			L150.1-0.4z"/>
	</g>
</g>
</svg>
