<?xml version="1.0" encoding="utf-8"?>
<!-- Generator: Adobe Illustrator 19.0.0, SVG Export Plug-In . SVG Version: 6.00 Build 0)  -->
<svg version="1.1" id="Layer_1" xmlns="http://www.w3.org/2000/svg" xmlns:xlink="http://www.w3.org/1999/xlink" x="0px" y="0px"
	 viewBox="0 0 300 300" style="enable-background:new 0 0 300 300;" xml:space="preserve">
<style type="text/css">
	.st0{clip-path:url(#SVGID_2_);}
	.st1{clip-path:url(#XMLID_3_);}
	.st2{fill:#FFFFFF;stroke:#404041;stroke-miterlimit:10;}
	.st3{fill:#F1F1F2;}
	.st4{fill:#C5C7C9;}
	.st5{fill:#FFFFFF;}
	.st6{fill:#404041;}
	.st7{fill:none;}
	.st8{fill:#808184;}
	.st9{fill:none;stroke:#404041;stroke-miterlimit:10;}
	.st10{fill:#DBDCDD;}
	.st11{fill:#D0D2D3;}
	.st12{fill:#6D6E70;}
	.st13{fill:#929497;}
	.st14{fill:#9AA0BB;}
</style>
<g>
	<defs>
		<circle id="SVGID_1_" cx="150.1" cy="149.6" r="150"/>
	</defs>
	<use xlink:href="#SVGID_1_"  style="overflow:visible;fill:#DDDDDD;"/>
	<clipPath id="SVGID_2_">
		<use xlink:href="#SVGID_1_"  style="overflow:visible;"/>
	</clipPath>
	<g id="XMLID_4081_" class="st0">
		<defs>
			<rect id="XMLID_4118_" y="-0.4" width="300" height="300"/>
		</defs>
		<clipPath id="XMLID_3_">
			<use xlink:href="#XMLID_4118_"  style="overflow:visible;"/>
		</clipPath>
		<g class="st1">
			<g>
				<path class="st2" d="M79.6,20.2C78,8.2,60.3-9.4,53.3-27.1l0-4.4c0,0-2.3,0.1-5.3,15.3c-1.9,9.7-6.8,38.9-12.3,98.3
					c-1.6,16.9-3.9,46.2-6.2,69.9c-2.4,24.2-2.3,44.4-2.3,44.4l32,2.5c0,0,5.1-24.4,7-42.2c1.6-15.3,3.2-30.3,5.7-55
					C77.3,48.9,79.9,22.3,79.6,20.2z"/>
				<g>
					<polygon class="st3" points="27.6,194.3 60,196.6 58.7,200.8 27.6,198.6 					"/>
					<polygon class="st4" points="27.6,195.5 60,197.8 58.7,202 27.6,199.7 					"/>
				</g>
				<g id="XMLID_9370_">
					<g id="XMLID_9371_">
						<g id="XMLID_9377_">
							<g>
								<path class="st5" d="M38.7,197.3l-11.8-0.8c-0.4,0-0.7,0.3-0.7,0.6l-1,21.6c0,0.4,0.3,0.7,0.6,0.7l11.3,0.8l0,0
									c-0.3,0-0.6-0.3-0.6-0.7l0,0l1.1-15.2C37.5,204.2,38.8,197.3,38.7,197.3z"/>
							</g>
							<g>
								<path class="st6" d="M25,218.7l1-21.6c0-0.4,0.4-0.8,0.9-0.7l11.8,0.8l0.1,0l0,0c0.1,0.1,0.1,0.4-0.9,5.6
									c-0.1,0.8-0.3,1.4-0.3,1.5l-1.1,15.2c0,0.2,0.1,0.3,0.1,0.4c0.1,0.1,0.2,0.2,0.4,0.2l0.6,0.3l-11.9-0.9
									C25.3,219.6,25,219.2,25,218.7z M36.3,219.6l1.1-15.2c0-0.1,0.1-0.5,0.3-1.5c0.3-1.6,0.9-4.8,0.9-5.4l-11.7-0.8
									c-0.3,0-0.6,0.2-0.6,0.5l-1,21.6c0,0.3,0.2,0.6,0.5,0.6l10.7,0.8C36.3,220,36.3,219.8,36.3,219.6z"/>
							</g>
						</g>
						<g id="XMLID_9376_">
							<g>
								<path class="st5" d="M59.8,198.8c0.6,0,1,0.4,1,0.8l-2.1,21.6c0,0.4-0.5,0.6-1.1,0.6l-31.4-2.3c-0.6,0-1-0.4-1-0.8l1-21.6
									c0-0.4,0.5-0.6,1.1-0.6L59.8,198.8z"/>
							</g>
							<path class="st7" d="M60.7,199.6l-2.1,21.6c0,0.3-0.3,0.5-0.6,0.5l-20.5-1.5l1.4-22.8l21.3,1.5
								C60.5,199,60.7,199.3,60.7,199.6z"/>
							<path class="st6" d="M58,221.7c0.3,0,0.6-0.2,0.6-0.5l2.1-21.6c0-0.3-0.2-0.6-0.5-0.6l-33.4-2.3l0-0.2l33.4,2.3
								c0.4,0,0.8,0.4,0.7,0.9l-2.1,21.6c0,0.4-0.4,0.8-0.9,0.7l-32.3-2.4l0-0.2L58,221.7z"/>
						</g>
						<g id="XMLID_9375_">
							<g>
								<g>
									
										<rect x="38.5" y="197.8" transform="matrix(-0.9975 -7.105730e-02 7.105730e-02 -0.9975 62.9475 398.0562)" class="st8" width="0.1" height="0.1"/>
								</g>
							</g>
							<g>
								<g>
									<path class="st8" d="M37.7,219.9l0.2,0l0,0.1l-0.2,0L37.7,219.9z M38.5,220l0.2,0l0,0.1l-0.2,0L38.5,220z M39.2,220l0.2,0
										l0,0.1l-0.2,0L39.2,220z M39.9,220.1l0.2,0l0,0.1l-0.2,0L39.9,220.1z M40.6,220.1l0.2,0l0,0.1l-0.2,0L40.6,220.1z
										 M41.3,220.2l0.2,0l0,0.1l-0.2,0L41.3,220.2z M42,220.2l0.2,0l0,0.1l-0.2,0L42,220.2z M42.7,220.3l0.2,0l0,0.1l-0.2,0
										L42.7,220.3z M43.5,220.3l0.2,0l0,0.1l-0.2,0L43.5,220.3z M44.2,220.4l0.2,0l0,0.1l-0.2,0L44.2,220.4z M44.9,220.4l0.2,0
										l0,0.1l-0.2,0L44.9,220.4z M45.6,220.5l0.2,0l0,0.1l-0.2,0L45.6,220.5z M46.3,220.5l0.2,0l0,0.1l-0.2,0L46.3,220.5z
										 M47,220.6l0.2,0l0,0.1l-0.2,0L47,220.6z M47.7,220.6l0.2,0l0,0.1l-0.2,0L47.7,220.6z M48.4,220.7l0.2,0l0,0.1l-0.2,0
										L48.4,220.7z M49.2,220.7l0.2,0l0,0.1l-0.2,0L49.2,220.7z M49.9,220.8l0.2,0l0,0.1l-0.2,0L49.9,220.8z M50,220.8l0.2,0
										l0,0.1l-0.2,0L50,220.8z M50.8,220.9l0.2,0l0,0.1l-0.2,0L50.8,220.9z M51.5,220.9l0.2,0l0,0.1l-0.2,0L51.5,220.9z
										 M52.2,221l0.2,0l0,0.1l-0.2,0L52.2,221z M52.9,221l0.2,0l0,0.1l-0.2,0L52.9,221z M53.6,221.1l0.2,0l0,0.1l-0.2,0
										L53.6,221.1z M54.3,221.1l0.2,0l0,0.1l-0.2,0L54.3,221.1z M55,221.2l0.2,0l0,0.1l-0.2,0L55,221.2z M55.7,221.3l0.2,0l0,0.1
										l-0.2,0L55.7,221.3z M56.5,221.3l0.2,0l0,0.1l-0.2,0L56.5,221.3z M57.2,221.4l0.2,0l0,0.1l-0.2,0L57.2,221.4z M57.9,221.4
										l0.2,0l0,0.1l-0.2,0L57.9,221.4z M37,219.9L37,219.9c0.1,0,0.2,0,0.3,0l0,0.1C37.2,220,37.1,219.9,37,219.9z"/>
								</g>
							</g>
							<g>
								<g>
									
										<rect x="58.6" y="221.5" transform="matrix(-0.9975 -7.105730e-02 7.105730e-02 -0.9975 101.4216 446.6438)" class="st8" width="0.1" height="0.1"/>
								</g>
							</g>
						</g>
						<g id="XMLID_9374_">
							<g>
								<g>
									
										<rect x="38.4" y="199.3" transform="matrix(-0.9975 -7.105730e-02 7.105730e-02 -0.9975 62.7139 401.0216)" class="st8" width="0.1" height="0.1"/>
								</g>
							</g>
							<g>
								<g>
									<path class="st8" d="M39,199.4l0.2,0l0,0.1l-0.2,0L39,199.4z M39.8,199.4l0.2,0l0,0.1l-0.2,0L39.8,199.4z M40.5,199.5
										l0.2,0l0,0.1l-0.2,0L40.5,199.5z M41.2,199.5l0.2,0l0,0.1l-0.2,0L41.2,199.5z M41.9,199.6l0.2,0l0,0.1l-0.2,0L41.9,199.6z
										 M42.6,199.6l0.2,0l0,0.1l-0.2,0L42.6,199.6z M43.3,199.7l0.2,0l0,0.1l-0.2,0L43.3,199.7z M44.1,199.7l0.2,0l0,0.1l-0.2,0
										L44.1,199.7z M44.8,199.8l0.2,0l0,0.1l-0.2,0L44.8,199.8z M45.5,199.8l0.2,0l0,0.1l-0.2,0L45.5,199.8z M46.2,199.9l0.2,0
										l0,0.1l-0.2,0L46.2,199.9z M46.9,199.9l0.2,0l0,0.1l-0.2,0L46.9,199.9z M47.7,200l0.2,0l0,0.1l-0.2,0L47.7,200z M48.4,200
										l0.2,0l0,0.1l-0.2,0L48.4,200z M49.1,200.1l0.2,0l0,0.1l-0.2,0L49.1,200.1z M49.8,200.1l0.2,0l0,0.1l-0.2,0L49.8,200.1z
										 M50.5,200.2l0.2,0l0,0.1l-0.2,0L50.5,200.2z M51.3,200.2l0.2,0l0,0.1l-0.2,0L51.3,200.2z M52,200.3l0.2,0l0,0.1l-0.2,0
										L52,200.3z M52.7,200.3l0.2,0l0,0.1l-0.2,0L52.7,200.3z M53.4,200.4l0.2,0l0,0.1l-0.2,0L53.4,200.4z M54.1,200.4l0.2,0
										l0,0.1l-0.2,0L54.1,200.4z M54.9,200.5l0.2,0l0,0.1l-0.2,0L54.9,200.5z M55.6,200.6l0.2,0l0,0.1l-0.2,0L55.6,200.6z
										 M56.3,200.6l0.2,0l0,0.1l-0.2,0L56.3,200.6z M57,200.7l0.2,0l0,0.1l-0.2,0L57,200.7z M57.7,200.7l0.2,0l0,0.1l-0.2,0
										L57.7,200.7z M58.4,200.8l0.2,0l0,0.1l-0.2,0L58.4,200.8z M59.2,200.8l0.2,0l0,0.1l-0.2,0L59.2,200.8z M59.9,200.9l0.2,0
										l0,0.1l-0.2,0L59.9,200.9z"/>
								</g>
							</g>
							<g>
								<g>
									<polygon class="st8" points="60.6,201 60.8,201 60.8,200.9 60.7,200.9 60.7,200.9 60.6,200.9 									"/>
								</g>
							</g>
							<g>
								<g>
									
										<rect x="60.7" y="200.1" transform="matrix(-0.9975 -7.105730e-02 7.105730e-02 -0.9975 107.1753 404.2271)" class="st8" width="0.1" height="0.3"/>
								</g>
							</g>
							<g>
								<g>
									<polygon class="st8" points="60.8,199.6 60.9,199.6 60.9,199.4 60.7,199.4 60.7,199.5 60.8,199.5 									"/>
								</g>
							</g>
							<g>
								<g>
									<path class="st8" d="M39.1,197.8l0.2,0l0,0.1l-0.2,0L39.1,197.8z M39.9,197.9l0.2,0l0,0.1l-0.2,0L39.9,197.9z M40.6,197.9
										l0.2,0l0,0.1l-0.2,0L40.6,197.9z M41.3,198l0.2,0l0,0.1l-0.2,0L41.3,198z M42,198l0.2,0l0,0.1l-0.2,0L42,198z M42.7,198.1
										l0.2,0l0,0.1l-0.2,0L42.7,198.1z M43.5,198.1l0.2,0l0,0.1l-0.2,0L43.5,198.1z M44.2,198.2l0.2,0l0,0.1l-0.2,0L44.2,198.2z
										 M44.9,198.2l0.2,0l0,0.1l-0.2,0L44.9,198.2z M45.6,198.3l0.2,0l0,0.1l-0.2,0L45.6,198.3z M46.3,198.3l0.2,0l0,0.1l-0.2,0
										L46.3,198.3z M47.1,198.4l0.2,0l0,0.1l-0.2,0L47.1,198.4z M47.8,198.4l0.2,0l0,0.1l-0.2,0L47.8,198.4z M48.5,198.5l0.2,0
										l0,0.1l-0.2,0L48.5,198.5z M49.2,198.5l0.2,0l0,0.1l-0.2,0L49.2,198.5z M49.9,198.6l0.2,0l0,0.1l-0.2,0L49.9,198.6z
										 M50.6,198.6l0.2,0l0,0.1l-0.2,0L50.6,198.6z M51.4,198.7l0.2,0l0,0.1l-0.2,0L51.4,198.7z M52.1,198.8l0.2,0l0,0.1l-0.2,0
										L52.1,198.8z M52.8,198.8l0.2,0l0,0.1l-0.2,0L52.8,198.8z M53.5,198.9l0.2,0l0,0.1l-0.2,0L53.5,198.9z M54.2,198.9l0.2,0
										l0,0.1l-0.2,0L54.2,198.9z M55,199l0.2,0l0,0.1l-0.2,0L55,199z M55.7,199l0.2,0l0,0.1l-0.2,0L55.7,199z M56.4,199.1l0.2,0
										l0,0.1l-0.2,0L56.4,199.1z M57.1,199.1l0.2,0l0,0.1l-0.2,0L57.1,199.1z M57.8,199.2l0.2,0l0,0.1l-0.2,0L57.8,199.2z
										 M58.6,199.2l0.2,0l0,0.1l-0.2,0L58.6,199.2z M59.3,199.3l0.2,0l0,0.1l-0.2,0L59.3,199.3z M60,199.3l0.2,0l0,0.1l-0.2,0
										L60,199.3z"/>
								</g>
							</g>
							<g>
								<g>
									
										<rect x="38.5" y="197.8" transform="matrix(-0.9975 -7.105730e-02 7.105730e-02 -0.9975 63.0432 397.9459)" class="st8" width="0.1" height="0.1"/>
								</g>
							</g>
						</g>
						<g id="XMLID_9373_">
							<g>
								<g>
									
										<rect x="26" y="198.5" transform="matrix(-0.9975 -7.105730e-02 7.105730e-02 -0.9975 37.9863 398.3737)" class="st8" width="0.1" height="0.1"/>
								</g>
							</g>
							<g>
								<g>
									<path class="st8" d="M26.6,198.5l0.2,0l0,0.1l-0.2,0L26.6,198.5z M27.4,198.5l0.2,0l0,0.1l-0.2,0L27.4,198.5z M28.1,198.6
										l0.2,0l0,0.1l-0.2,0L28.1,198.6z M28.9,198.6l0.2,0l0,0.1l-0.2,0L28.9,198.6z M29.6,198.7l0.2,0l0,0.1l-0.2,0L29.6,198.7z
										 M30.3,198.8l0.2,0l0,0.1l-0.2,0L30.3,198.8z M31.1,198.8l0.2,0l0,0.1l-0.2,0L31.1,198.8z M31.8,198.9l0.2,0l0,0.1l-0.2,0
										L31.8,198.9z M32.5,198.9l0.2,0l0,0.1l-0.2,0L32.5,198.9z M33.3,199l0.2,0l0,0.1l-0.2,0L33.3,199z M34,199l0.2,0l0,0.1
										l-0.2,0L34,199z M34.8,199.1l0.2,0l0,0.1l-0.2,0L34.8,199.1z M35.5,199.1l0.2,0l0,0.1l-0.2,0L35.5,199.1z M36.2,199.2
										l0.2,0l0,0.1l-0.2,0L36.2,199.2z M37,199.2l0.2,0l0,0.1l-0.2,0L37,199.2z"/>
								</g>
							</g>
							<g>
								<g>
									<polygon class="st8" points="37.7,199.4 37.9,199.4 37.9,199.2 37.8,199.2 37.8,199.3 37.7,199.3 									"/>
								</g>
							</g>
							<g>
								<g>
									<polygon class="st8" points="37.9,197.9 38,197.9 38,197.7 37.8,197.7 37.8,197.9 37.9,197.9 									"/>
								</g>
							</g>
							<g>
								<g>
									<path class="st8" d="M26.7,196.9l0.2,0l0,0.1l-0.2,0L26.7,196.9z M27.5,197l0.2,0l0,0.1l-0.2,0L27.5,197z M28.2,197.1
										l0.2,0l0,0.1l-0.2,0L28.2,197.1z M29,197.1l0.2,0l0,0.1l-0.2,0L29,197.1z M29.7,197.2l0.2,0l0,0.1l-0.2,0L29.7,197.2z
										 M30.4,197.2l0.2,0l0,0.1l-0.2,0L30.4,197.2z M31.2,197.3l0.2,0l0,0.1l-0.2,0L31.2,197.3z M31.9,197.3l0.2,0l0,0.1l-0.2,0
										L31.9,197.3z M32.7,197.4l0.2,0l0,0.1l-0.2,0L32.7,197.4z M33.4,197.4l0.2,0l0,0.1l-0.2,0L33.4,197.4z M34.1,197.5l0.2,0
										l0,0.1l-0.2,0L34.1,197.5z M34.9,197.5l0.2,0l0,0.1l-0.2,0L34.9,197.5z M35.6,197.6l0.2,0l0,0.1l-0.2,0L35.6,197.6z
										 M36.3,197.6l0.2,0l0,0.1l-0.2,0L36.3,197.6z M37.1,197.7l0.2,0l0,0.1l-0.2,0L37.1,197.7z"/>
								</g>
							</g>
							<g>
								<g>
									
										<rect x="26.1" y="196.9" transform="matrix(-0.9975 -7.105730e-02 7.105730e-02 -0.9975 38.3156 395.298)" class="st8" width="0.1" height="0.1"/>
								</g>
							</g>
						</g>
						<g id="XMLID_9372_">
							<g>
								<path class="st8" d="M25.3,219l0.2,0l0,0.1l-0.2,0L25.3,219z M26,219.1l0.2,0l0,0.1l-0.2,0L26,219.1z M26.7,219.1l0.2,0
									l0,0.1l-0.2,0L26.7,219.1z M27.4,219.2l0.2,0l0,0.1l-0.2,0L27.4,219.2z M28.1,219.2l0.2,0l0,0.1l-0.2,0L28.1,219.2z
									 M28.8,219.3l0.2,0l0,0.1l-0.2,0L28.8,219.3z M29.6,219.3l0.2,0l0,0.1l-0.2,0L29.6,219.3z M30.3,219.4l0.2,0l0,0.1l-0.2,0
									L30.3,219.4z M31,219.4l0.2,0l0,0.1l-0.2,0L31,219.4z M31.7,219.5l-0.3,0l0,0.1l0.3,0L31.7,219.5z M31.9,219.5l0.2,0l0,0.1
									l-0.2,0L31.9,219.5z M32.6,219.6l0.2,0l0,0.1l-0.2,0L32.6,219.6z M33.3,219.6l0.2,0l0,0.1l-0.2,0L33.3,219.6z M34,219.7
									l0.2,0l0,0.1l-0.2,0L34,219.7z M34.8,219.7l0.2,0l0,0.1l-0.2,0L34.8,219.7z M35.5,219.8l0.2,0l0,0.1l-0.2,0L35.5,219.8z
									 M36.2,219.8l0.2,0l0,0.1l-0.2,0L36.2,219.8z M36.9,219.9l0.2,0l0,0.1l-0.2,0L36.9,219.9z M37.6,219.9l0.2,0l0,0.1l-0.2,0
									L37.6,219.9z M38.4,220L38.4,220l0.1,0.1l-0.1,0L38.4,220z"/>
							</g>
						</g>
						<path class="st9" d="M25.5,218.8l1-21.6c0-0.2,0.2-0.4,0.5-0.5l0-0.2l33.4,2.3c0.4,0,0.8,0.4,0.7,0.9l-2.1,21.6
							c0,0.4-0.4,0.8-0.9,0.7l-32.3-2.4l0-0.2C25.7,219.2,25.5,219,25.5,218.8z"/>
					</g>
				</g>
				<g>
					<g id="XMLID_9286_">
						<g>
							<g id="XMLID_9299_">
								<circle class="st3" cx="151.4" cy="28.4" r="2.1"/>
							</g>
							<g id="XMLID_9298_">
								<circle class="st10" cx="151.4" cy="28.4" r="2"/>
							</g>
						</g>
						<g id="XMLID_9297_">
							<polygon class="st6" points="148.9,28 151.3,27.6 154,27.9 151.3,28.6 							"/>
							<path class="st11" d="M148.8,28l2.5-0.4l0,0l2.8,0.3l-2.7,0.7l0,0L148.8,28z M151.3,27.6l-2.2,0.4l2.3,0.6l2.5-0.7
								L151.3,27.6z"/>
						</g>
						<g id="XMLID_9296_">
							<circle class="st5" cx="151.4" cy="28.1" r="2"/>
							<path class="st12" d="M150.7,30c-0.5-0.2-0.9-0.6-1.1-1.1c-0.2-0.5-0.2-1.1,0-1.6c0.2-0.5,0.6-0.9,1.1-1.1
								c0.5-0.2,1.1-0.2,1.6,0c1.1,0.4,1.6,1.7,1.2,2.7l0,0c-0.2,0.5-0.6,0.9-1.1,1.1c-0.3,0.1-0.5,0.2-0.8,0.2
								C151.2,30.2,150.9,30.1,150.7,30z M150.7,26.4c-0.5,0.2-0.8,0.6-1,1c-0.2,0.5-0.2,1,0,1.4c0.2,0.5,0.6,0.8,1,1
								c0.5,0.2,1,0.2,1.4,0c0.5-0.2,0.8-0.6,1-1l0,0c0.4-1-0.1-2-1-2.4c-0.2-0.1-0.5-0.1-0.7-0.1C151.2,26.2,151,26.3,150.7,26.4z"
								/>
						</g>
						<g id="XMLID_9295_">
							<circle class="st5" cx="151.4" cy="28.1" r="1.7"/>
							<path class="st13" d="M150.8,29.7c-0.9-0.4-1.3-1.4-1-2.3c0.4-0.9,1.4-1.3,2.3-1c0.9,0.4,1.3,1.4,1,2.3
								c-0.3,0.7-0.9,1.1-1.6,1.1C151.2,29.8,151,29.8,150.8,29.7z M149.9,27.5c-0.3,0.9,0.1,1.8,0.9,2.2c0.9,0.3,1.8-0.1,2.2-0.9
								c0.3-0.9-0.1-1.8-0.9-2.2c-0.2-0.1-0.4-0.1-0.6-0.1C150.8,26.4,150.2,26.8,149.9,27.5z"/>
						</g>
						<g>
							<g id="XMLID_9294_">
								<circle class="st6" cx="152" cy="28.7" r="0.3"/>
							</g>
							<g id="XMLID_9293_">
								<circle class="st6" cx="152" cy="27.4" r="0.3"/>
							</g>
							<g id="XMLID_9292_">
								<circle class="st6" cx="150.9" cy="28.7" r="0.3"/>
							</g>
							<g id="XMLID_9291_">
								<circle class="st6" cx="150.9" cy="27.4" r="0.3"/>
							</g>
							<g id="XMLID_9290_">
								
									<rect x="150.5" y="28" transform="matrix(-0.6589 0.7522 -0.7522 -0.6589 272.224 -67.3534)" class="st12" width="1.8" height="0.1"/>
							</g>
							<g id="XMLID_9289_">
								
									<rect x="150.6" y="28.1" transform="matrix(-0.6589 0.7522 -0.7522 -0.6589 272.5677 -67.2883)" class="st12" width="1.8" height="0.1"/>
							</g>
							<g id="XMLID_9288_">
								
									<rect x="151.3" y="27.2" transform="matrix(-0.7405 0.6721 -0.6721 -0.7405 282.376 -52.7406)" class="st12" width="0.1" height="1.9"/>
							</g>
							<g id="XMLID_9287_">
								
									<rect x="151.5" y="27.1" transform="matrix(-0.7405 0.6721 -0.6721 -0.7405 282.5034 -53.0755)" class="st12" width="0.1" height="1.9"/>
							</g>
						</g>
					</g>
				</g>
				<path class="st2" d="M220.4,20.2c1.6-12,19.3-29.6,26.3-47.3l0-4.4c0,0,2.3,0.1,5.3,15.3c1.9,9.7,6.8,38.9,12.3,98.3
					c1.6,16.9,3.9,46.2,6.2,69.9c2.4,24.2,2.3,44.4,2.3,44.4l-32,2.5c0,0-5.1-24.4-7-42.2c-1.6-15.3-3.2-30.3-5.7-55
					C222.7,48.9,220.1,22.3,220.4,20.2z"/>
				<g>
					<polygon class="st3" points="272.4,194.3 240,196.6 241.3,200.8 272.4,198.6 					"/>
					<polygon class="st4" points="272.4,195.5 240,197.8 241.3,202 272.4,199.7 					"/>
				</g>
				<g id="XMLID_9278_">
					<g id="XMLID_9279_">
						<g id="XMLID_9285_">
							<g>
								<path class="st5" d="M261.3,197.3l11.8-0.8c0.4,0,0.7,0.3,0.7,0.6l1,21.6c0,0.4-0.3,0.7-0.6,0.7l-11.3,0.8l0,0
									c0.3,0,0.6-0.3,0.6-0.7l0,0l-1.1-15.2C262.5,204.2,261.2,197.3,261.3,197.3z"/>
							</g>
							<g>
								<path class="st6" d="M274.3,219.6l-11.9,0.9l0.6-0.3c0.1,0,0.3-0.1,0.4-0.2c0.1-0.1,0.1-0.2,0.1-0.4l-1.1-15.2
									c0-0.1-0.1-0.7-0.3-1.5c-1-5.3-1-5.6-0.9-5.6l0,0l0.1,0l11.8-0.8c0.4,0,0.8,0.3,0.9,0.7l1,21.6
									C275,219.2,274.7,219.6,274.3,219.6z M263.5,220.2l10.7-0.8c0.3,0,0.5-0.3,0.5-0.6l-1-21.6c0-0.3-0.3-0.5-0.6-0.5l-11.7,0.8
									c0,0.6,0.6,3.8,0.9,5.4c0.2,1,0.3,1.5,0.3,1.5l1.1,15.2C263.7,219.8,263.7,220,263.5,220.2z"/>
							</g>
						</g>
						<g id="XMLID_9284_">
							<g>
								<path class="st5" d="M240.2,198.8c-0.6,0-1,0.4-1,0.8l2.1,21.6c0,0.4,0.5,0.6,1.1,0.6l31.4-2.3c0.6,0,1-0.4,1-0.8l-1-21.6
									c0-0.4-0.5-0.6-1.1-0.6L240.2,198.8z"/>
							</g>
							<path class="st7" d="M239.3,199.6l2.1,21.6c0,0.3,0.3,0.5,0.6,0.5l20.5-1.5l-1.4-22.8l-21.3,1.5
								C239.5,199,239.3,199.3,239.3,199.6z"/>
							<path class="st6" d="M242,221.7c-0.3,0-0.6-0.2-0.6-0.5l-2.1-21.6c0-0.3,0.2-0.6,0.5-0.6l33.4-2.3l0-0.2l-33.4,2.3
								c-0.4,0-0.8,0.4-0.7,0.9l2.1,21.6c0,0.4,0.4,0.8,0.9,0.7l32.3-2.4l0-0.2L242,221.7z"/>
						</g>
						<g id="XMLID_9283_">
							<g>
								<g>
									
										<rect x="261.4" y="197.8" transform="matrix(0.9975 -7.105730e-02 7.105730e-02 0.9975 -13.402 19.0779)" class="st8" width="0.1" height="0.1"/>
								</g>
							</g>
							<g>
								<g>
									<path class="st8" d="M262.3,220l-0.2,0l0-0.1l0.2,0L262.3,220z M261.5,220.1l-0.2,0l0-0.1l0.2,0L261.5,220.1z M260.8,220.2
										l-0.2,0l0-0.1l0.2,0L260.8,220.2z M260.1,220.2l-0.2,0l0-0.1l0.2,0L260.1,220.2z M259.4,220.3l-0.2,0l0-0.1l0.2,0
										L259.4,220.3z M258.7,220.3l-0.2,0l0-0.1l0.2,0L258.7,220.3z M258,220.4l-0.2,0l0-0.1l0.2,0L258,220.4z M257.3,220.4
										l-0.2,0l0-0.1l0.2,0L257.3,220.4z M256.6,220.5l-0.2,0l0-0.1l0.2,0L256.6,220.5z M255.8,220.5l-0.2,0l0-0.1l0.2,0
										L255.8,220.5z M255.1,220.6l-0.2,0l0-0.1l0.2,0L255.1,220.6z M254.4,220.6l-0.2,0l0-0.1l0.2,0L254.4,220.6z M253.7,220.7
										l-0.2,0l0-0.1l0.2,0L253.7,220.7z M253,220.7l-0.2,0l0-0.1l0.2,0L253,220.7z M252.3,220.8l-0.2,0l0-0.1l0.2,0L252.3,220.8z
										 M251.6,220.8l-0.2,0l0-0.1l0.2,0L251.6,220.8z M250.8,220.9l-0.2,0l0-0.1l0.2,0L250.8,220.9z M250.1,220.9l-0.2,0l0-0.1
										l0.2,0L250.1,220.9z M250,221l-0.2,0l0-0.1l0.2,0L250,221z M249.3,221l-0.2,0l0-0.1l0.2,0L249.3,221z M248.5,221.1l-0.2,0
										l0-0.1l0.2,0L248.5,221.1z M247.8,221.1l-0.2,0l0-0.1l0.2,0L247.8,221.1z M247.1,221.2l-0.2,0l0-0.1l0.2,0L247.1,221.2z
										 M246.4,221.2l-0.2,0l0-0.1l0.2,0L246.4,221.2z M245.7,221.3l-0.2,0l0-0.1l0.2,0L245.7,221.3z M245,221.3l-0.2,0l0-0.1
										l0.2,0L245,221.3z M244.3,221.4l-0.2,0l0-0.1l0.2,0L244.3,221.4z M243.5,221.4l-0.2,0l0-0.1l0.2,0L243.5,221.4z
										 M242.8,221.5l-0.2,0l0-0.1l0.2,0L242.8,221.5z M242.1,221.5l-0.2,0l0-0.1l0.2,0L242.1,221.5z M262.7,220l0-0.1
										c0.1,0,0.1-0.1,0.2-0.1l0.1,0.1C262.9,219.9,262.8,220,262.7,220z"/>
								</g>
							</g>
							<g>
								<g>
									
										<rect x="241.3" y="221.5" transform="matrix(0.9975 -7.105730e-02 7.105730e-02 0.9975 -15.1304 17.7093)" class="st8" width="0.1" height="0.1"/>
								</g>
							</g>
						</g>
						<g id="XMLID_9282_">
							<g>
								<g>
									
										<rect x="261.5" y="199.3" transform="matrix(0.9975 -7.105730e-02 7.105730e-02 0.9975 -13.5075 19.0862)" class="st8" width="0.1" height="0.1"/>
								</g>
							</g>
							<g>
								<g>
									<path class="st8" d="M261,199.5l-0.2,0l0-0.1l0.2,0L261,199.5z M260.3,199.5l-0.2,0l0-0.1l0.2,0L260.3,199.5z M259.5,199.6
										l-0.2,0l0-0.1l0.2,0L259.5,199.6z M258.8,199.6l-0.2,0l0-0.1l0.2,0L258.8,199.6z M258.1,199.7l-0.2,0l0-0.1l0.2,0
										L258.1,199.7z M257.4,199.7l-0.2,0l0-0.1l0.2,0L257.4,199.7z M256.7,199.8l-0.2,0l0-0.1l0.2,0L256.7,199.8z M255.9,199.9
										l-0.2,0l0-0.1l0.2,0L255.9,199.9z M255.2,199.9l-0.2,0l0-0.1l0.2,0L255.2,199.9z M254.5,200l-0.2,0l0-0.1l0.2,0L254.5,200z
										 M253.8,200l-0.2,0l0-0.1l0.2,0L253.8,200z M253.1,200.1l-0.2,0l0-0.1l0.2,0L253.1,200.1z M252.3,200.1l-0.2,0l0-0.1l0.2,0
										L252.3,200.1z M251.6,200.2l-0.2,0l0-0.1l0.2,0L251.6,200.2z M250.9,200.2l-0.2,0l0-0.1l0.2,0L250.9,200.2z M250.2,200.3
										l-0.2,0l0-0.1l0.2,0L250.2,200.3z M249.5,200.3l-0.2,0l0-0.1l0.2,0L249.5,200.3z M248.8,200.4l-0.2,0l0-0.1l0.2,0
										L248.8,200.4z M248,200.4l-0.2,0l0-0.1l0.2,0L248,200.4z M247.3,200.5l-0.2,0l0-0.1l0.2,0L247.3,200.5z M246.6,200.5
										l-0.2,0l0-0.1l0.2,0L246.6,200.5z M245.9,200.6l-0.2,0l0-0.1l0.2,0L245.9,200.6z M245.2,200.6l-0.2,0l0-0.1l0.2,0
										L245.2,200.6z M244.4,200.7l-0.2,0l0-0.1l0.2,0L244.4,200.7z M243.7,200.7l-0.2,0l0-0.1l0.2,0L243.7,200.7z M243,200.8
										l-0.2,0l0-0.1l0.2,0L243,200.8z M242.3,200.8l-0.2,0l0-0.1l0.2,0L242.3,200.8z M241.6,200.9l-0.2,0l0-0.1l0.2,0
										L241.6,200.9z M240.8,200.9l-0.2,0l0-0.1l0.2,0L240.8,200.9z M240.1,201l-0.2,0l0-0.1l0.2,0L240.1,201z"/>
								</g>
							</g>
							<g>
								<g>
									<polygon class="st8" points="239.4,201 239.2,201 239.2,200.9 239.3,200.9 239.3,200.9 239.4,200.9 									"/>
								</g>
							</g>
							<g>
								<g>
									
										<rect x="239.2" y="200.1" transform="matrix(0.9975 -7.105730e-02 7.105730e-02 0.9975 -13.6215 17.5046)" class="st8" width="0.1" height="0.3"/>
								</g>
							</g>
							<g>
								<g>
									<polygon class="st8" points="239.2,199.6 239.1,199.6 239.1,199.4 239.3,199.4 239.3,199.5 239.2,199.5 									"/>
								</g>
							</g>
							<g>
								<g>
									<path class="st8" d="M260.9,197.9l-0.2,0l0-0.1l0.2,0L260.9,197.9z M260.1,198l-0.2,0l0-0.1l0.2,0L260.1,198z M259.4,198.1
										l-0.2,0l0-0.1l0.2,0L259.4,198.1z M258.7,198.1l-0.2,0l0-0.1l0.2,0L258.7,198.1z M258,198.2l-0.2,0l0-0.1l0.2,0L258,198.2z
										 M257.3,198.2l-0.2,0l0-0.1l0.2,0L257.3,198.2z M256.6,198.3l-0.2,0l0-0.1l0.2,0L256.6,198.3z M255.8,198.3l-0.2,0l0-0.1
										l0.2,0L255.8,198.3z M255.1,198.4l-0.2,0l0-0.1l0.2,0L255.1,198.4z M254.4,198.4l-0.2,0l0-0.1l0.2,0L254.4,198.4z
										 M253.7,198.5l-0.2,0l0-0.1l0.2,0L253.7,198.5z M253,198.5l-0.2,0l0-0.1l0.2,0L253,198.5z M252.2,198.6l-0.2,0l0-0.1l0.2,0
										L252.2,198.6z M251.5,198.6l-0.2,0l0-0.1l0.2,0L251.5,198.6z M250.8,198.7l-0.2,0l0-0.1l0.2,0L250.8,198.7z M250.1,198.7
										l-0.2,0l0-0.1l0.2,0L250.1,198.7z M249.4,198.8l-0.2,0l0-0.1l0.2,0L249.4,198.8z M248.6,198.8l-0.2,0l0-0.1l0.2,0
										L248.6,198.8z M247.9,198.9l-0.2,0l0-0.1l0.2,0L247.9,198.9z M247.2,198.9l-0.2,0l0-0.1l0.2,0L247.2,198.9z M246.5,199
										l-0.2,0l0-0.1l0.2,0L246.5,199z M245.8,199l-0.2,0l0-0.1l0.2,0L245.8,199z M245,199.1l-0.2,0l0-0.1l0.2,0L245,199.1z
										 M244.3,199.1l-0.2,0l0-0.1l0.2,0L244.3,199.1z M243.6,199.2l-0.2,0l0-0.1l0.2,0L243.6,199.2z M242.9,199.2l-0.2,0l0-0.1
										l0.2,0L242.9,199.2z M242.2,199.3l-0.2,0l0-0.1l0.2,0L242.2,199.3z M241.4,199.3l-0.2,0l0-0.1l0.2,0L241.4,199.3z
										 M240.7,199.4l-0.2,0l0-0.1l0.2,0L240.7,199.4z M240,199.4l-0.2,0l0-0.1l0.2,0L240,199.4z"/>
								</g>
							</g>
							<g>
								<g>
									
										<rect x="261.3" y="197.8" transform="matrix(0.9975 -7.105730e-02 7.105730e-02 0.9975 -13.398 19.0745)" class="st8" width="0.1" height="0.1"/>
								</g>
							</g>
						</g>
						<g id="XMLID_9281_">
							<g>
								<g>
									
										<rect x="273.9" y="198.5" transform="matrix(0.9975 -7.105730e-02 7.105730e-02 0.9975 -13.4133 19.9659)" class="st8" width="0.1" height="0.1"/>
								</g>
							</g>
							<g>
								<g>
									<path class="st8" d="M273.4,198.6l-0.2,0l0-0.1l0.2,0L273.4,198.6z M272.6,198.7l-0.2,0l0-0.1l0.2,0L272.6,198.7z
										 M271.9,198.7l-0.2,0l0-0.1l0.2,0L271.9,198.7z M271.2,198.8l-0.2,0l0-0.1l0.2,0L271.2,198.8z M270.4,198.8l-0.2,0l0-0.1
										l0.2,0L270.4,198.8z M269.7,198.9l-0.2,0l0-0.1l0.2,0L269.7,198.9z M268.9,198.9l-0.2,0l0-0.1l0.2,0L268.9,198.9z
										 M268.2,199l-0.2,0l0-0.1l0.2,0L268.2,199z M267.5,199l-0.2,0l0-0.1l0.2,0L267.5,199z M266.7,199.1l-0.2,0l0-0.1l0.2,0
										L266.7,199.1z M266,199.1l-0.2,0l0-0.1l0.2,0L266,199.1z M265.2,199.2l-0.2,0l0-0.1l0.2,0L265.2,199.2z M264.5,199.2
										l-0.2,0l0-0.1l0.2,0L264.5,199.2z M263.8,199.3l-0.2,0l0-0.1l0.2,0L263.8,199.3z M263,199.3l-0.2,0l0-0.1l0.2,0L263,199.3z
										"/>
								</g>
							</g>
							<g>
								<g>
									<polygon class="st8" points="262.3,199.4 262.1,199.4 262.1,199.2 262.2,199.2 262.2,199.3 262.3,199.3 									"/>
								</g>
							</g>
							<g>
								<g>
									<polygon class="st8" points="262.1,197.9 262,197.9 262,197.7 262.2,197.7 262.2,197.9 262.1,197.9 									"/>
								</g>
							</g>
							<g>
								<g>
									<path class="st8" d="M273.3,197.1l-0.2,0l0-0.1l0.2,0L273.3,197.1z M272.5,197.1l-0.2,0l0-0.1l0.2,0L272.5,197.1z
										 M271.8,197.2l-0.2,0l0-0.1l0.2,0L271.8,197.2z M271,197.2l-0.2,0l0-0.1l0.2,0L271,197.2z M270.3,197.3l-0.2,0l0-0.1l0.2,0
										L270.3,197.3z M269.6,197.3l-0.2,0l0-0.1l0.2,0L269.6,197.3z M268.8,197.4l-0.2,0l0-0.1l0.2,0L268.8,197.4z M268.1,197.4
										l-0.2,0l0-0.1l0.2,0L268.1,197.4z M267.4,197.5l-0.2,0l0-0.1l0.2,0L267.4,197.5z M266.6,197.5l-0.2,0l0-0.1l0.2,0
										L266.6,197.5z M265.9,197.6l-0.2,0l0-0.1l0.2,0L265.9,197.6z M265.1,197.6l-0.2,0l0-0.1l0.2,0L265.1,197.6z M264.4,197.7
										l-0.2,0l0-0.1l0.2,0L264.4,197.7z M263.7,197.8l-0.2,0l0-0.1l0.2,0L263.7,197.8z M262.9,197.8l-0.2,0l0-0.1l0.2,0
										L262.9,197.8z"/>
								</g>
							</g>
							<g>
								<g>
									
										<rect x="273.8" y="196.9" transform="matrix(0.9975 -7.105730e-02 7.105730e-02 0.9975 -13.3038 19.9542)" class="st8" width="0.1" height="0.1"/>
								</g>
							</g>
						</g>
						<g id="XMLID_9280_">
							<g>
								<path class="st8" d="M274.8,219.1l-0.2,0l0-0.1l0.2,0L274.8,219.1z M274,219.2l-0.2,0l0-0.1l0.2,0L274,219.2z M273.3,219.2
									l-0.2,0l0-0.1l0.2,0L273.3,219.2z M272.6,219.3l-0.2,0l0-0.1l0.2,0L272.6,219.3z M271.9,219.3l-0.2,0l0-0.1l0.2,0
									L271.9,219.3z M271.2,219.4l-0.2,0l0-0.1l0.2,0L271.2,219.4z M270.4,219.4l-0.2,0l0-0.1l0.2,0L270.4,219.4z M269.7,219.5
									l-0.2,0l0-0.1l0.2,0L269.7,219.5z M269,219.5l-0.2,0l0-0.1l0.2,0L269,219.5z M268.3,219.6l0.3,0l0-0.1l-0.3,0L268.3,219.6z
									 M268.1,219.6l-0.2,0l0-0.1l0.2,0L268.1,219.6z M267.4,219.7l-0.2,0l0-0.1l0.2,0L267.4,219.7z M266.7,219.7l-0.2,0l0-0.1
									l0.2,0L266.7,219.7z M266,219.8l-0.2,0l0-0.1l0.2,0L266,219.8z M265.2,219.8l-0.2,0l0-0.1l0.2,0L265.2,219.8z M264.5,219.9
									l-0.2,0l0-0.1l0.2,0L264.5,219.9z M263.8,219.9l-0.2,0l0-0.1l0.2,0L263.8,219.9z M263.1,220l-0.2,0l0-0.1l0.2,0L263.1,220z
									 M262.4,220l-0.2,0l0-0.1l0.2,0L262.4,220z M261.7,220.1L261.7,220.1l-0.1-0.1l0.1,0L261.7,220.1z"/>
							</g>
						</g>
					</g>
					<path class="st9" d="M274.7,218.8l-1-21.6c0-0.2-0.2-0.4-0.5-0.5l0-0.2l-33.4,2.3c-0.4,0-0.8,0.4-0.7,0.9l2.1,21.6
						c0,0.4,0.4,0.8,0.9,0.7l32.3-2.4l0-0.2C274.6,219.2,274.7,219,274.7,218.8z"/>
				</g>
				<path class="st2" d="M224.5,159.1c-1.3-16.5-2.3-48.2-2.5-86c-0.1-16.6-0.3-31.9,3.6-45.5c6.8-23.4,22.3-52,21.5-58
					c-0.2-1.6-1.7-3-3.9-4.2l0,0c0,0-1.5-1.5-10.9-3.9c0,0,0,0,0,0c-0.7-0.2-1.5-0.4-2.2-0.6c0,0-10.9-4-13.3-4.9
					c-1.6-0.7-3.3-1.4-5.1-2.1l0.3,0.1c-1-0.4-2-0.8-3-1.2c-4.4-1.9-8.9-3.2-12.6-4.8c-4-1.8-7.8-3.5-10.2-4.9
					c-1.4-4.9-3.7-12.2-6.3-16.7c0,0-3.4-7.9-30.2-7.9c-26.8,0-29,7-29,7c-0.2,0.3-0.5,0.6-0.6,0.9c-2.7,4.5-5,11.9-6.3,16.7
					c-2.4,1.3-6.2,2.5-10.1,4.2c-3.8,1.6-8.2,3.6-12.7,5.5c-0.9,0.4-21,8.2-21,8.2c-0.7,0.2-1.5,0.4-2.2,0.6c0,0,0,0,0,0
					c-9.3,2.4-10.9,3.9-10.9,3.9l0,0c-2.2,1.2-3.7,2.5-3.9,4.2c-0.8,6,14.7,34.6,21.5,58c3.9,13.5,3.7,28.8,3.6,45.5
					c-0.2,37.8-1.2,69.5-2.5,86C74.2,176.8,70,215,70,215c-0.1-0.1-2,18.4-2,18.4s1.4,3,30.1,7.7c18.5,3,37.2,3.8,48.3,4
					c7.5,0.3,31.9-0.1,55.7-4c28.7-4.7,30.1-7.7,30.1-7.7s-2-18.5-2-18.4C230,215,225.8,176.8,224.5,159.1z"/>
				<g>
					<path class="st3" d="M70,14.4c0,0,7.1,5.5,8.4,22.1s0,26.6,0,26.6s0.3-13.6-2.5-29.4S70,14.4,70,14.4z"/>
					<path class="st4" d="M70,14.4c0,0,4.5,8.1,6,14.2c1.5,6.1,2.1,23.4,2.1,23.4S77.6,38,74.4,27.6C71.3,17.2,70,14.4,70,14.4z"/>
				</g>
				<g>
					<path class="st3" d="M230.1,14.4c0,0-7.1,5.5-8.4,22.1c-1.3,16.6,0,26.6,0,26.6s-0.3-13.6,2.5-29.4
						C227.1,18,230.1,14.4,230.1,14.4z"/>
					<path class="st4" d="M230.1,14.4c0,0-4.5,8.1-6,14.2c-1.5,6.1-2.1,23.4-2.1,23.4s0.5-14.1,3.6-24.4
						C228.8,17.2,230.1,14.4,230.1,14.4z"/>
				</g>
			</g>
			<path class="st9" d="M63.9-0.7c0,0,22.8-25.7,88.4-25.7s83.7,25.7,83.7,25.7"/>
			<g>
				<path class="st3" d="M113.7-57l-4.3,2.3c0,0,14-3.6,41.4-3.6s39.7,3.6,39.7,3.6l-3.3-1.8L171-62.9C171-62.9,116.1-67.5,113.7-57
					z"/>
				<path class="st4" d="M113.7-56.8l-2.3,1.1c0,0,12-3.6,39.4-3.6s37.1,3.6,37.1,3.6l-3.3-1.8L171-64C171-64,116.1-67.4,113.7-56.8
					z"/>
			</g>
			<path class="st2" d="M113.7-57c0,0,7-3.5,35.2-3.5s37.3,3.4,37.3,3.4s-4.3-15.5-7.6-18.3c-3.3-2.8-11-6.3-28-6.3
				s-26.2,2.6-29.2,6C118.3-72.3,115.3-62.8,113.7-57z"/>
			<path class="st4" d="M176.8,79.1c0,0-4.3,132.7,9.6,163.6"/>
			<path class="st3" d="M176.8,79.8c0,0-1.7,131.6,9.7,162.9"/>
			<path class="st4" d="M118.7,79.1c0,0,4.3,132.7-9.6,163.6"/>
			<path class="st3" d="M118.7,79.8c0,0,1.7,131.6-9.7,162.9"/>
		</g>
	</g>
	<g id="XMLID_1_" class="st0">
		<defs>
			<rect id="XMLID_4932_" x="-13.5" width="327.1" height="300"/>
		</defs>
		<clipPath id="XMLID_4_">
			<use xlink:href="#XMLID_4932_"  style="overflow:visible;"/>
		</clipPath>
	</g>
	<g class="st0">
		<path class="st14" d="M150.1,4.6c38.7,0,75.1,15.1,102.5,42.5c27.4,27.4,42.5,63.8,42.5,102.5s-15.1,75.1-42.5,102.5
			c-27.4,27.4-63.8,42.5-102.5,42.5S75,279.5,47.6,252.1C20.2,224.7,5.1,188.3,5.1,149.6S20.2,74.5,47.6,47.1
			C75,19.7,111.4,4.6,150.1,4.6 M150.1-0.4c-82.8,0-150,67.2-150,150s67.2,150,150,150s150-67.2,150-150S232.9-0.4,150.1-0.4
			L150.1-0.4z"/>
	</g>
</g>
</svg>
