<?xml version="1.0" encoding="utf-8"?>
<!-- Generator: Adobe Illustrator 19.0.0, SVG Export Plug-In . SVG Version: 6.00 Build 0)  -->
<svg version="1.1" id="Layer_1" xmlns="http://www.w3.org/2000/svg" xmlns:xlink="http://www.w3.org/1999/xlink" x="0px" y="0px"
	 viewBox="0 0 300 300" style="enable-background:new 0 0 300 300;" xml:space="preserve">
<style type="text/css">
	.st0{clip-path:url(#SVGID_2_);}
	.st1{clip-path:url(#XMLID_3_);}
	.st2{fill:#FFFFFF;stroke:#404041;stroke-miterlimit:10;}
	.st3{fill:#F1F1F2;}
	.st4{fill:#C5C7C9;}
	.st5{fill:#FFFFFF;}
	.st6{fill:#404041;}
	.st7{fill:none;}
	.st8{fill:#808184;}
	.st9{fill:none;stroke:#404041;stroke-miterlimit:10;}
	.st10{fill:#9AA0BB;}
</style>
<g>
	<defs>
		<circle id="SVGID_1_" cx="150.1" cy="149.6" r="150"/>
	</defs>
	<use xlink:href="#SVGID_1_"  style="overflow:visible;fill:#DDDDDD;"/>
	<clipPath id="SVGID_2_">
		<use xlink:href="#SVGID_1_"  style="overflow:visible;"/>
	</clipPath>
	<g id="XMLID_4081_" class="st0">
		<defs>
			<rect id="XMLID_4118_" y="-0.4" width="300" height="300"/>
		</defs>
		<clipPath id="XMLID_3_">
			<use xlink:href="#XMLID_4118_"  style="overflow:visible;"/>
		</clipPath>
		<g class="st1">
			<g>
				<path class="st2" d="M79.6,131.6c-1.6-12-19.3-29.6-26.3-47.3l0-4.4c0,0-2.3,0.1-5.3,15.3c-1.9,9.7-6.8,38.9-12.3,98.3
					c-1.6,16.9-3.9,46.2-6.2,69.9c-2.4,24.2-2.3,44.4-2.3,44.4l32,2.5c0,0,5.1-24.4,7-42.2c1.6-15.3,3.2-30.3,5.7-55
					C77.3,160.2,79.9,133.7,79.6,131.6z"/>
				<g>
					<polygon class="st3" points="27.6,305.7 60,307.9 58.7,312.1 27.6,309.9 					"/>
					<polygon class="st4" points="27.6,306.8 60,309.1 58.7,313.3 27.6,311.1 					"/>
				</g>
				<g id="XMLID_5617_">
					<g id="XMLID_5618_">
						<g id="XMLID_5624_">
							<g>
								<path class="st5" d="M38.7,308.7l-11.8-0.8c-0.4,0-0.7,0.3-0.7,0.6l-1,21.6c0,0.4,0.3,0.7,0.6,0.7l11.3,0.8l0,0
									c-0.3,0-0.6-0.3-0.6-0.7l0,0l1.1-15.2C37.5,315.5,38.8,308.7,38.7,308.7z"/>
							</g>
							<g>
								<path class="st6" d="M25,330.1l1-21.6c0-0.4,0.4-0.8,0.9-0.7l11.8,0.8l0.1,0l0,0c0.1,0.1,0.1,0.4-0.9,5.6
									c-0.1,0.8-0.3,1.4-0.3,1.5L36.5,331c0,0.2,0.1,0.3,0.1,0.4c0.1,0.1,0.2,0.2,0.4,0.2l0.6,0.3l-11.9-0.9
									C25.3,330.9,25,330.5,25,330.1z M36.3,330.9l1.1-15.2c0-0.1,0.1-0.5,0.3-1.5c0.3-1.6,0.9-4.8,0.9-5.4L26.8,308
									c-0.3,0-0.6,0.2-0.6,0.5l-1,21.6c0,0.3,0.2,0.6,0.5,0.6l10.7,0.8C36.3,331.4,36.3,331.2,36.3,330.9z"/>
							</g>
						</g>
						<g id="XMLID_5623_">
							<g>
								<path class="st5" d="M59.8,310.2c0.6,0,1,0.4,1,0.8l-2.1,21.6c0,0.4-0.5,0.6-1.1,0.6l-31.4-2.3c-0.6,0-1-0.4-1-0.8l1-21.6
									c0-0.4,0.5-0.6,1.1-0.6L59.8,310.2z"/>
							</g>
							<path class="st7" d="M60.7,310.9l-2.1,21.6c0,0.3-0.3,0.5-0.6,0.5l-20.5-1.5l1.4-22.8l21.3,1.5
								C60.5,310.4,60.7,310.6,60.7,310.9z"/>
							<path class="st6" d="M58,333.1c0.3,0,0.6-0.2,0.6-0.5l2.1-21.6c0-0.3-0.2-0.6-0.5-0.6L26.7,308l0-0.2l33.4,2.3
								c0.4,0,0.8,0.4,0.7,0.9l-2.1,21.6c0,0.4-0.4,0.8-0.9,0.7l-32.3-2.4l0-0.2L58,333.1z"/>
						</g>
						<g id="XMLID_5622_">
							<g>
								<g>
									
										<rect x="38.5" y="309.2" transform="matrix(-0.9975 -7.105730e-02 7.105730e-02 -0.9975 55.035 620.4841)" class="st8" width="0.1" height="0.1"/>
								</g>
							</g>
							<g>
								<g>
									<path class="st8" d="M37.7,331.3l0.2,0l0,0.1l-0.2,0L37.7,331.3z M38.5,331.3l0.2,0l0,0.1l-0.2,0L38.5,331.3z M39.2,331.4
										l0.2,0l0,0.1l-0.2,0L39.2,331.4z M39.9,331.4l0.2,0l0,0.1l-0.2,0L39.9,331.4z M40.6,331.5l0.2,0l0,0.1l-0.2,0L40.6,331.5z
										 M41.3,331.5l0.2,0l0,0.1l-0.2,0L41.3,331.5z M42,331.6l0.2,0l0,0.1l-0.2,0L42,331.6z M42.7,331.6l0.2,0l0,0.1l-0.2,0
										L42.7,331.6z M43.5,331.7l0.2,0l0,0.1l-0.2,0L43.5,331.7z M44.2,331.7l0.2,0l0,0.1l-0.2,0L44.2,331.7z M44.9,331.8l0.2,0
										l0,0.1l-0.2,0L44.9,331.8z M45.6,331.8l0.2,0l0,0.1l-0.2,0L45.6,331.8z M46.3,331.9l0.2,0l0,0.1l-0.2,0L46.3,331.9z
										 M47,331.9l0.2,0l0,0.1l-0.2,0L47,331.9z M47.7,332l0.2,0l0,0.1l-0.2,0L47.7,332z M48.4,332l0.2,0l0,0.1l-0.2,0L48.4,332z
										 M49.2,332.1l0.2,0l0,0.1l-0.2,0L49.2,332.1z M49.9,332.1l0.2,0l0,0.1l-0.2,0L49.9,332.1z M50,332.2l0.2,0l0,0.1l-0.2,0
										L50,332.2z M50.8,332.2l0.2,0l0,0.1l-0.2,0L50.8,332.2z M51.5,332.3l0.2,0l0,0.1l-0.2,0L51.5,332.3z M52.2,332.4l0.2,0
										l0,0.1l-0.2,0L52.2,332.4z M52.9,332.4l0.2,0l0,0.1l-0.2,0L52.9,332.4z M53.6,332.5l0.2,0l0,0.1l-0.2,0L53.6,332.5z
										 M54.3,332.5l0.2,0l0,0.1l-0.2,0L54.3,332.5z M55,332.6l0.2,0l0,0.1l-0.2,0L55,332.6z M55.7,332.6l0.2,0l0,0.1l-0.2,0
										L55.7,332.6z M56.5,332.7l0.2,0l0,0.1l-0.2,0L56.5,332.7z M57.2,332.7l0.2,0l0,0.1l-0.2,0L57.2,332.7z M57.9,332.8l0.2,0
										l0,0.1l-0.2,0L57.9,332.8z M37,331.2L37,331.2c0.1,0,0.2,0,0.3,0l0,0.1C37.2,331.3,37.1,331.3,37,331.2z"/>
								</g>
							</g>
							<g>
								<g>
									
										<rect x="58.6" y="332.8" transform="matrix(-0.9975 -7.105730e-02 7.105730e-02 -0.9975 93.509 669.0717)" class="st8" width="0.1" height="0.1"/>
								</g>
							</g>
						</g>
						<g id="XMLID_5621_">
							<g>
								<g>
									
										<rect x="38.4" y="310.7" transform="matrix(-0.9975 -7.105730e-02 7.105730e-02 -0.9975 54.8013 623.4495)" class="st8" width="0.1" height="0.1"/>
								</g>
							</g>
							<g>
								<g>
									<path class="st8" d="M39,310.7l0.2,0l0,0.1l-0.2,0L39,310.7z M39.8,310.8l0.2,0l0,0.1l-0.2,0L39.8,310.8z M40.5,310.8
										l0.2,0l0,0.1l-0.2,0L40.5,310.8z M41.2,310.9l0.2,0l0,0.1l-0.2,0L41.2,310.9z M41.9,310.9l0.2,0l0,0.1l-0.2,0L41.9,310.9z
										 M42.6,311l0.2,0l0,0.1l-0.2,0L42.6,311z M43.3,311l0.2,0l0,0.1l-0.2,0L43.3,311z M44.1,311.1l0.2,0l0,0.1l-0.2,0
										L44.1,311.1z M44.8,311.1l0.2,0l0,0.1l-0.2,0L44.8,311.1z M45.5,311.2l0.2,0l0,0.1l-0.2,0L45.5,311.2z M46.2,311.2l0.2,0
										l0,0.1l-0.2,0L46.2,311.2z M46.9,311.3l0.2,0l0,0.1l-0.2,0L46.9,311.3z M47.7,311.3l0.2,0l0,0.1l-0.2,0L47.7,311.3z
										 M48.4,311.4l0.2,0l0,0.1l-0.2,0L48.4,311.4z M49.1,311.4l0.2,0l0,0.1l-0.2,0L49.1,311.4z M49.8,311.5l0.2,0l0,0.1l-0.2,0
										L49.8,311.5z M50.5,311.5l0.2,0l0,0.1l-0.2,0L50.5,311.5z M51.3,311.6l0.2,0l0,0.1l-0.2,0L51.3,311.6z M52,311.7l0.2,0
										l0,0.1l-0.2,0L52,311.7z M52.7,311.7l0.2,0l0,0.1l-0.2,0L52.7,311.7z M53.4,311.8l0.2,0l0,0.1l-0.2,0L53.4,311.8z
										 M54.1,311.8l0.2,0l0,0.1l-0.2,0L54.1,311.8z M54.9,311.9l0.2,0l0,0.1l-0.2,0L54.9,311.9z M55.6,311.9l0.2,0l0,0.1l-0.2,0
										L55.6,311.9z M56.3,312l0.2,0l0,0.1l-0.2,0L56.3,312z M57,312l0.2,0l0,0.1l-0.2,0L57,312z M57.7,312.1l0.2,0l0,0.1l-0.2,0
										L57.7,312.1z M58.4,312.1l0.2,0l0,0.1l-0.2,0L58.4,312.1z M59.2,312.2l0.2,0l0,0.1l-0.2,0L59.2,312.2z M59.9,312.2l0.2,0
										l0,0.1l-0.2,0L59.9,312.2z"/>
								</g>
							</g>
							<g>
								<g>
									<polygon class="st8" points="60.6,312.4 60.8,312.4 60.8,312.2 60.7,312.2 60.7,312.3 60.6,312.3 									"/>
								</g>
							</g>
							<g>
								<g>
									
										<rect x="60.7" y="311.4" transform="matrix(-0.9975 -7.105730e-02 7.105730e-02 -0.9975 99.2627 626.655)" class="st8" width="0.1" height="0.3"/>
								</g>
							</g>
							<g>
								<g>
									<polygon class="st8" points="60.8,310.9 60.9,310.9 60.9,310.7 60.7,310.7 60.7,310.8 60.8,310.8 									"/>
								</g>
							</g>
							<g>
								<g>
									<path class="st8" d="M39.1,309.2l0.2,0l0,0.1l-0.2,0L39.1,309.2z M39.9,309.2l0.2,0l0,0.1l-0.2,0L39.9,309.2z M40.6,309.3
										l0.2,0l0,0.1l-0.2,0L40.6,309.3z M41.3,309.3l0.2,0l0,0.1l-0.2,0L41.3,309.3z M42,309.4l0.2,0l0,0.1l-0.2,0L42,309.4z
										 M42.7,309.4l0.2,0l0,0.1l-0.2,0L42.7,309.4z M43.5,309.5l0.2,0l0,0.1l-0.2,0L43.5,309.5z M44.2,309.5l0.2,0l0,0.1l-0.2,0
										L44.2,309.5z M44.9,309.6l0.2,0l0,0.1l-0.2,0L44.9,309.6z M45.6,309.6l0.2,0l0,0.1l-0.2,0L45.6,309.6z M46.3,309.7l0.2,0
										l0,0.1l-0.2,0L46.3,309.7z M47.1,309.7l0.2,0l0,0.1l-0.2,0L47.1,309.7z M47.8,309.8l0.2,0l0,0.1l-0.2,0L47.8,309.8z
										 M48.5,309.9l0.2,0l0,0.1l-0.2,0L48.5,309.9z M49.2,309.9l0.2,0l0,0.1l-0.2,0L49.2,309.9z M49.9,310l0.2,0l0,0.1l-0.2,0
										L49.9,310z M50.6,310l0.2,0l0,0.1l-0.2,0L50.6,310z M51.4,310.1l0.2,0l0,0.1l-0.2,0L51.4,310.1z M52.1,310.1l0.2,0l0,0.1
										l-0.2,0L52.1,310.1z M52.8,310.2l0.2,0l0,0.1l-0.2,0L52.8,310.2z M53.5,310.2l0.2,0l0,0.1l-0.2,0L53.5,310.2z M54.2,310.3
										l0.2,0l0,0.1l-0.2,0L54.2,310.3z M55,310.3l0.2,0l0,0.1l-0.2,0L55,310.3z M55.7,310.4l0.2,0l0,0.1l-0.2,0L55.7,310.4z
										 M56.4,310.4l0.2,0l0,0.1l-0.2,0L56.4,310.4z M57.1,310.5l0.2,0l0,0.1l-0.2,0L57.1,310.5z M57.8,310.5l0.2,0l0,0.1l-0.2,0
										L57.8,310.5z M58.6,310.6l0.2,0l0,0.1l-0.2,0L58.6,310.6z M59.3,310.6l0.2,0l0,0.1l-0.2,0L59.3,310.6z M60,310.7l0.2,0
										l0,0.1l-0.2,0L60,310.7z"/>
								</g>
							</g>
							<g>
								<g>
									
										<rect x="38.5" y="309.1" transform="matrix(-0.9975 -7.105730e-02 7.105730e-02 -0.9975 55.1306 620.3737)" class="st8" width="0.1" height="0.1"/>
								</g>
							</g>
						</g>
						<g id="XMLID_5620_">
							<g>
								<g>
									
										<rect x="26" y="309.8" transform="matrix(-0.9975 -7.105730e-02 7.105730e-02 -0.9975 30.0737 620.8016)" class="st8" width="0.1" height="0.1"/>
								</g>
							</g>
							<g>
								<g>
									<path class="st8" d="M26.6,309.8l0.2,0l0,0.1l-0.2,0L26.6,309.8z M27.4,309.9l0.2,0l0,0.1l-0.2,0L27.4,309.9z M28.1,310
										l0.2,0l0,0.1l-0.2,0L28.1,310z M28.9,310l0.2,0l0,0.1l-0.2,0L28.9,310z M29.6,310.1l0.2,0l0,0.1l-0.2,0L29.6,310.1z
										 M30.3,310.1l0.2,0l0,0.1l-0.2,0L30.3,310.1z M31.1,310.2l0.2,0l0,0.1l-0.2,0L31.1,310.2z M31.8,310.2l0.2,0l0,0.1l-0.2,0
										L31.8,310.2z M32.5,310.3l0.2,0l0,0.1l-0.2,0L32.5,310.3z M33.3,310.3l0.2,0l0,0.1l-0.2,0L33.3,310.3z M34,310.4l0.2,0
										l0,0.1l-0.2,0L34,310.4z M34.8,310.4l0.2,0l0,0.1l-0.2,0L34.8,310.4z M35.5,310.5l0.2,0l0,0.1l-0.2,0L35.5,310.5z
										 M36.2,310.5l0.2,0l0,0.1l-0.2,0L36.2,310.5z M37,310.6l0.2,0l0,0.1l-0.2,0L37,310.6z"/>
								</g>
							</g>
							<g>
								<g>
									<polygon class="st8" points="37.7,310.8 37.9,310.8 37.9,310.6 37.8,310.6 37.8,310.6 37.7,310.6 									"/>
								</g>
							</g>
							<g>
								<g>
									<polygon class="st8" points="37.9,309.3 38,309.3 38,309.1 37.8,309.1 37.8,309.2 37.9,309.2 									"/>
								</g>
							</g>
							<g>
								<g>
									<path class="st8" d="M26.7,308.3l0.2,0l0,0.1l-0.2,0L26.7,308.3z M27.5,308.4l0.2,0l0,0.1l-0.2,0L27.5,308.4z M28.2,308.4
										l0.2,0l0,0.1l-0.2,0L28.2,308.4z M29,308.5l0.2,0l0,0.1l-0.2,0L29,308.5z M29.7,308.5l0.2,0l0,0.1l-0.2,0L29.7,308.5z
										 M30.4,308.6l0.2,0l0,0.1l-0.2,0L30.4,308.6z M31.2,308.6l0.2,0l0,0.1l-0.2,0L31.2,308.6z M31.9,308.7l0.2,0l0,0.1l-0.2,0
										L31.9,308.7z M32.7,308.7l0.2,0l0,0.1l-0.2,0L32.7,308.7z M33.4,308.8l0.2,0l0,0.1l-0.2,0L33.4,308.8z M34.1,308.8l0.2,0
										l0,0.1l-0.2,0L34.1,308.8z M34.9,308.9l0.2,0l0,0.1l-0.2,0L34.9,308.9z M35.6,308.9l0.2,0l0,0.1l-0.2,0L35.6,308.9z
										 M36.3,309l0.2,0l0,0.1l-0.2,0L36.3,309z M37.1,309l0.2,0l0,0.1l-0.2,0L37.1,309z"/>
								</g>
							</g>
							<g>
								<g>
									
										<rect x="26.1" y="308.3" transform="matrix(-0.9975 -7.105730e-02 7.105730e-02 -0.9975 30.403 617.7258)" class="st8" width="0.1" height="0.1"/>
								</g>
							</g>
						</g>
						<g id="XMLID_5619_">
							<g>
								<path class="st8" d="M25.3,330.4l0.2,0l0,0.1l-0.2,0L25.3,330.4z M26,330.4l0.2,0l0,0.1l-0.2,0L26,330.4z M26.7,330.5l0.2,0
									l0,0.1l-0.2,0L26.7,330.5z M27.4,330.5l0.2,0l0,0.1l-0.2,0L27.4,330.5z M28.1,330.6l0.2,0l0,0.1l-0.2,0L28.1,330.6z
									 M28.8,330.6l0.2,0l0,0.1l-0.2,0L28.8,330.6z M29.6,330.7l0.2,0l0,0.1l-0.2,0L29.6,330.7z M30.3,330.7l0.2,0l0,0.1l-0.2,0
									L30.3,330.7z M31,330.8l0.2,0l0,0.1l-0.2,0L31,330.8z M31.7,330.8l-0.3,0l0,0.1l0.3,0L31.7,330.8z M31.9,330.9l0.2,0l0,0.1
									l-0.2,0L31.9,330.9z M32.6,330.9l0.2,0l0,0.1l-0.2,0L32.6,330.9z M33.3,331l0.2,0l0,0.1l-0.2,0L33.3,331z M34,331l0.2,0
									l0,0.1l-0.2,0L34,331z M34.8,331.1l0.2,0l0,0.1l-0.2,0L34.8,331.1z M35.5,331.1l0.2,0l0,0.1l-0.2,0L35.5,331.1z M36.2,331.2
									l0.2,0l0,0.1l-0.2,0L36.2,331.2z M36.9,331.2l0.2,0l0,0.1l-0.2,0L36.9,331.2z M37.6,331.3l0.2,0l0,0.1l-0.2,0L37.6,331.3z
									 M38.4,331.3L38.4,331.3l0.1,0.1l-0.1,0L38.4,331.3z"/>
							</g>
						</g>
						<path class="st9" d="M25.5,330.1l1-21.6c0-0.2,0.2-0.4,0.5-0.5l0-0.2l33.4,2.3c0.4,0,0.8,0.4,0.7,0.9l-2.1,21.6
							c0,0.4-0.4,0.8-0.9,0.7l-32.3-2.4l0-0.2C25.7,330.6,25.5,330.4,25.5,330.1z"/>
					</g>
				</g>
				<path class="st2" d="M220.4,131.6c1.6-12,19.3-29.6,26.3-47.3l0-4.4c0,0,2.3,0.1,5.3,15.3c1.9,9.7,6.8,38.9,12.3,98.3
					c1.6,16.9,3.9,46.2,6.2,69.9c2.4,24.2,2.3,44.4,2.3,44.4l-32,2.5c0,0-5.1-24.4-7-42.2c-1.6-15.3-3.2-30.3-5.7-55
					C222.7,160.2,220.1,133.7,220.4,131.6z"/>
				<g>
					<polygon class="st3" points="272.4,305.7 240,307.9 241.3,312.1 272.4,309.9 					"/>
					<polygon class="st4" points="272.4,306.8 240,309.1 241.3,313.3 272.4,311.1 					"/>
				</g>
				<g id="XMLID_4693_">
					<g id="XMLID_5292_">
						<g id="XMLID_5298_">
							<g>
								<path class="st5" d="M261.3,308.7l11.8-0.8c0.4,0,0.7,0.3,0.7,0.6l1,21.6c0,0.4-0.3,0.7-0.6,0.7l-11.3,0.8l0,0
									c0.3,0,0.6-0.3,0.6-0.7l0,0l-1.1-15.2C262.5,315.5,261.2,308.7,261.3,308.7z"/>
							</g>
							<g>
								<path class="st6" d="M274.3,330.9l-11.9,0.9l0.6-0.3c0.1,0,0.3-0.1,0.4-0.2c0.1-0.1,0.1-0.2,0.1-0.4l-1.1-15.2
									c0-0.1-0.1-0.7-0.3-1.5c-1-5.3-1-5.6-0.9-5.6l0,0l0.1,0l11.8-0.8c0.4,0,0.8,0.3,0.9,0.7l1,21.6
									C275,330.5,274.7,330.9,274.3,330.9z M263.5,331.5l10.7-0.8c0.3,0,0.5-0.3,0.5-0.6l-1-21.6c0-0.3-0.3-0.5-0.6-0.5l-11.7,0.8
									c0,0.6,0.6,3.8,0.9,5.4c0.2,1,0.3,1.5,0.3,1.5l1.1,15.2C263.7,331.2,263.7,331.4,263.5,331.5z"/>
							</g>
						</g>
						<g id="XMLID_5297_">
							<g>
								<path class="st5" d="M240.2,310.2c-0.6,0-1,0.4-1,0.8l2.1,21.6c0,0.4,0.5,0.6,1.1,0.6l31.4-2.3c0.6,0,1-0.4,1-0.8l-1-21.6
									c0-0.4-0.5-0.6-1.1-0.6L240.2,310.2z"/>
							</g>
							<path class="st7" d="M239.3,310.9l2.1,21.6c0,0.3,0.3,0.5,0.6,0.5l20.5-1.5l-1.4-22.8l-21.3,1.5
								C239.5,310.4,239.3,310.6,239.3,310.9z"/>
							<path class="st6" d="M242,333.1c-0.3,0-0.6-0.2-0.6-0.5l-2.1-21.6c0-0.3,0.2-0.6,0.5-0.6l33.4-2.3l0-0.2l-33.4,2.3
								c-0.4,0-0.8,0.4-0.7,0.9l2.1,21.6c0,0.4,0.4,0.8,0.9,0.7l32.3-2.4l0-0.2L242,333.1z"/>
						</g>
						<g id="XMLID_5296_">
							<g>
								<g>
									
										<rect x="261.4" y="309.2" transform="matrix(0.9975 -7.105730e-02 7.105730e-02 0.9975 -21.3145 19.3594)" class="st8" width="0.1" height="0.1"/>
								</g>
							</g>
							<g>
								<g>
									<path class="st8" d="M262.3,331.4l-0.2,0l0-0.1l0.2,0L262.3,331.4z M261.5,331.5l-0.2,0l0-0.1l0.2,0L261.5,331.5z
										 M260.8,331.5l-0.2,0l0-0.1l0.2,0L260.8,331.5z M260.1,331.6l-0.2,0l0-0.1l0.2,0L260.1,331.6z M259.4,331.6l-0.2,0l0-0.1
										l0.2,0L259.4,331.6z M258.7,331.7l-0.2,0l0-0.1l0.2,0L258.7,331.7z M258,331.7l-0.2,0l0-0.1l0.2,0L258,331.7z M257.3,331.8
										l-0.2,0l0-0.1l0.2,0L257.3,331.8z M256.6,331.8l-0.2,0l0-0.1l0.2,0L256.6,331.8z M255.8,331.9l-0.2,0l0-0.1l0.2,0
										L255.8,331.9z M255.1,331.9l-0.2,0l0-0.1l0.2,0L255.1,331.9z M254.4,332l-0.2,0l0-0.1l0.2,0L254.4,332z M253.7,332l-0.2,0
										l0-0.1l0.2,0L253.7,332z M253,332.1l-0.2,0l0-0.1l0.2,0L253,332.1z M252.3,332.1l-0.2,0l0-0.1l0.2,0L252.3,332.1z
										 M251.6,332.2l-0.2,0l0-0.1l0.2,0L251.6,332.2z M250.8,332.2l-0.2,0l0-0.1l0.2,0L250.8,332.2z M250.1,332.3l-0.2,0l0-0.1
										l0.2,0L250.1,332.3z M250,332.3l-0.2,0l0-0.1l0.2,0L250,332.3z M249.3,332.4l-0.2,0l0-0.1l0.2,0L249.3,332.4z M248.5,332.4
										l-0.2,0l0-0.1l0.2,0L248.5,332.4z M247.8,332.5l-0.2,0l0-0.1l0.2,0L247.8,332.5z M247.1,332.5l-0.2,0l0-0.1l0.2,0
										L247.1,332.5z M246.4,332.6l-0.2,0l0-0.1l0.2,0L246.4,332.6z M245.7,332.6l-0.2,0l0-0.1l0.2,0L245.7,332.6z M245,332.7
										l-0.2,0l0-0.1l0.2,0L245,332.7z M244.3,332.7l-0.2,0l0-0.1l0.2,0L244.3,332.7z M243.5,332.8l-0.2,0l0-0.1l0.2,0
										L243.5,332.8z M242.8,332.8l-0.2,0l0-0.1l0.2,0L242.8,332.8z M242.1,332.9l-0.2,0l0-0.1l0.2,0L242.1,332.9z M262.7,331.4
										l0-0.1c0.1,0,0.1-0.1,0.2-0.1l0.1,0.1C262.9,331.3,262.8,331.3,262.7,331.4z"/>
								</g>
							</g>
							<g>
								<g>
									
										<rect x="241.3" y="332.8" transform="matrix(0.9975 -7.105730e-02 7.105730e-02 0.9975 -23.043 17.9907)" class="st8" width="0.1" height="0.1"/>
								</g>
							</g>
						</g>
						<g id="XMLID_5295_">
							<g>
								<g>
									
										<rect x="261.5" y="310.7" transform="matrix(0.9975 -7.105730e-02 7.105730e-02 0.9975 -21.42 19.3677)" class="st8" width="0.1" height="0.1"/>
								</g>
							</g>
							<g>
								<g>
									<path class="st8" d="M261,310.8l-0.2,0l0-0.1l0.2,0L261,310.8z M260.3,310.9l-0.2,0l0-0.1l0.2,0L260.3,310.9z M259.5,311
										l-0.2,0l0-0.1l0.2,0L259.5,311z M258.8,311l-0.2,0l0-0.1l0.2,0L258.8,311z M258.1,311.1l-0.2,0l0-0.1l0.2,0L258.1,311.1z
										 M257.4,311.1l-0.2,0l0-0.1l0.2,0L257.4,311.1z M256.7,311.2l-0.2,0l0-0.1l0.2,0L256.7,311.2z M255.9,311.2l-0.2,0l0-0.1
										l0.2,0L255.9,311.2z M255.2,311.3l-0.2,0l0-0.1l0.2,0L255.2,311.3z M254.5,311.3l-0.2,0l0-0.1l0.2,0L254.5,311.3z
										 M253.8,311.4l-0.2,0l0-0.1l0.2,0L253.8,311.4z M253.1,311.4l-0.2,0l0-0.1l0.2,0L253.1,311.4z M252.3,311.5l-0.2,0l0-0.1
										l0.2,0L252.3,311.5z M251.6,311.5l-0.2,0l0-0.1l0.2,0L251.6,311.5z M250.9,311.6l-0.2,0l0-0.1l0.2,0L250.9,311.6z
										 M250.2,311.6l-0.2,0l0-0.1l0.2,0L250.2,311.6z M249.5,311.7l-0.2,0l0-0.1l0.2,0L249.5,311.7z M248.8,311.7l-0.2,0l0-0.1
										l0.2,0L248.8,311.7z M248,311.8l-0.2,0l0-0.1l0.2,0L248,311.8z M247.3,311.8l-0.2,0l0-0.1l0.2,0L247.3,311.8z M246.6,311.9
										l-0.2,0l0-0.1l0.2,0L246.6,311.9z M245.9,311.9l-0.2,0l0-0.1l0.2,0L245.9,311.9z M245.2,312l-0.2,0l0-0.1l0.2,0L245.2,312z
										 M244.4,312l-0.2,0l0-0.1l0.2,0L244.4,312z M243.7,312.1l-0.2,0l0-0.1l0.2,0L243.7,312.1z M243,312.1l-0.2,0l0-0.1l0.2,0
										L243,312.1z M242.3,312.2l-0.2,0l0-0.1l0.2,0L242.3,312.2z M241.6,312.2l-0.2,0l0-0.1l0.2,0L241.6,312.2z M240.8,312.3
										l-0.2,0l0-0.1l0.2,0L240.8,312.3z M240.1,312.3l-0.2,0l0-0.1l0.2,0L240.1,312.3z"/>
								</g>
							</g>
							<g>
								<g>
									<polygon class="st8" points="239.4,312.4 239.2,312.4 239.2,312.2 239.3,312.2 239.3,312.3 239.4,312.3 									"/>
								</g>
							</g>
							<g>
								<g>
									
										<rect x="239.2" y="311.4" transform="matrix(0.9975 -7.105730e-02 7.105730e-02 0.9975 -21.5341 17.7861)" class="st8" width="0.1" height="0.3"/>
								</g>
							</g>
							<g>
								<g>
									<polygon class="st8" points="239.2,310.9 239.1,310.9 239.1,310.7 239.3,310.7 239.3,310.8 239.2,310.8 									"/>
								</g>
							</g>
							<g>
								<g>
									<path class="st8" d="M260.9,309.3l-0.2,0l0-0.1l0.2,0L260.9,309.3z M260.1,309.4l-0.2,0l0-0.1l0.2,0L260.1,309.4z
										 M259.4,309.4l-0.2,0l0-0.1l0.2,0L259.4,309.4z M258.7,309.5l-0.2,0l0-0.1l0.2,0L258.7,309.5z M258,309.5l-0.2,0l0-0.1
										l0.2,0L258,309.5z M257.3,309.6l-0.2,0l0-0.1l0.2,0L257.3,309.6z M256.6,309.6l-0.2,0l0-0.1l0.2,0L256.6,309.6z
										 M255.8,309.7l-0.2,0l0-0.1l0.2,0L255.8,309.7z M255.1,309.7l-0.2,0l0-0.1l0.2,0L255.1,309.7z M254.4,309.8l-0.2,0l0-0.1
										l0.2,0L254.4,309.8z M253.7,309.8l-0.2,0l0-0.1l0.2,0L253.7,309.8z M253,309.9l-0.2,0l0-0.1l0.2,0L253,309.9z M252.2,309.9
										l-0.2,0l0-0.1l0.2,0L252.2,309.9z M251.5,310l-0.2,0l0-0.1l0.2,0L251.5,310z M250.8,310l-0.2,0l0-0.1l0.2,0L250.8,310z
										 M250.1,310.1l-0.2,0l0-0.1l0.2,0L250.1,310.1z M249.4,310.1l-0.2,0l0-0.1l0.2,0L249.4,310.1z M248.6,310.2l-0.2,0l0-0.1
										l0.2,0L248.6,310.2z M247.9,310.2l-0.2,0l0-0.1l0.2,0L247.9,310.2z M247.2,310.3l-0.2,0l0-0.1l0.2,0L247.2,310.3z
										 M246.5,310.3l-0.2,0l0-0.1l0.2,0L246.5,310.3z M245.8,310.4l-0.2,0l0-0.1l0.2,0L245.8,310.4z M245,310.4l-0.2,0l0-0.1
										l0.2,0L245,310.4z M244.3,310.5l-0.2,0l0-0.1l0.2,0L244.3,310.5z M243.6,310.5l-0.2,0l0-0.1l0.2,0L243.6,310.5z
										 M242.9,310.6l-0.2,0l0-0.1l0.2,0L242.9,310.6z M242.2,310.6l-0.2,0l0-0.1l0.2,0L242.2,310.6z M241.4,310.7l-0.2,0l0-0.1
										l0.2,0L241.4,310.7z M240.7,310.7l-0.2,0l0-0.1l0.2,0L240.7,310.7z M240,310.8l-0.2,0l0-0.1l0.2,0L240,310.8z"/>
								</g>
							</g>
							<g>
								<g>
									
										<rect x="261.3" y="309.1" transform="matrix(0.9975 -7.105730e-02 7.105730e-02 0.9975 -21.3106 19.356)" class="st8" width="0.1" height="0.1"/>
								</g>
							</g>
						</g>
						<g id="XMLID_5294_">
							<g>
								<g>
									
										<rect x="273.9" y="309.8" transform="matrix(0.9975 -7.105730e-02 7.105730e-02 0.9975 -21.3258 20.2474)" class="st8" width="0.1" height="0.1"/>
								</g>
							</g>
							<g>
								<g>
									<path class="st8" d="M273.4,310l-0.2,0l0-0.1l0.2,0L273.4,310z M272.6,310l-0.2,0l0-0.1l0.2,0L272.6,310z M271.9,310.1
										l-0.2,0l0-0.1l0.2,0L271.9,310.1z M271.2,310.1l-0.2,0l0-0.1l0.2,0L271.2,310.1z M270.4,310.2l-0.2,0l0-0.1l0.2,0
										L270.4,310.2z M269.7,310.2l-0.2,0l0-0.1l0.2,0L269.7,310.2z M268.9,310.3l-0.2,0l0-0.1l0.2,0L268.9,310.3z M268.2,310.3
										l-0.2,0l0-0.1l0.2,0L268.2,310.3z M267.5,310.4l-0.2,0l0-0.1l0.2,0L267.5,310.4z M266.7,310.4l-0.2,0l0-0.1l0.2,0
										L266.7,310.4z M266,310.5l-0.2,0l0-0.1l0.2,0L266,310.5z M265.2,310.5l-0.2,0l0-0.1l0.2,0L265.2,310.5z M264.5,310.6
										l-0.2,0l0-0.1l0.2,0L264.5,310.6z M263.8,310.6l-0.2,0l0-0.1l0.2,0L263.8,310.6z M263,310.7l-0.2,0l0-0.1l0.2,0L263,310.7z
										"/>
								</g>
							</g>
							<g>
								<g>
									<polygon class="st8" points="262.3,310.8 262.1,310.8 262.1,310.6 262.2,310.6 262.2,310.6 262.3,310.6 									"/>
								</g>
							</g>
							<g>
								<g>
									<polygon class="st8" points="262.1,309.3 262,309.3 262,309.1 262.2,309.1 262.2,309.2 262.1,309.2 									"/>
								</g>
							</g>
							<g>
								<g>
									<path class="st8" d="M273.3,308.4l-0.2,0l0-0.1l0.2,0L273.3,308.4z M272.5,308.5l-0.2,0l0-0.1l0.2,0L272.5,308.5z
										 M271.8,308.5l-0.2,0l0-0.1l0.2,0L271.8,308.5z M271,308.6l-0.2,0l0-0.1l0.2,0L271,308.6z M270.3,308.6l-0.2,0l0-0.1l0.2,0
										L270.3,308.6z M269.6,308.7l-0.2,0l0-0.1l0.2,0L269.6,308.7z M268.8,308.7l-0.2,0l0-0.1l0.2,0L268.8,308.7z M268.1,308.8
										l-0.2,0l0-0.1l0.2,0L268.1,308.8z M267.4,308.8l-0.2,0l0-0.1l0.2,0L267.4,308.8z M266.6,308.9l-0.2,0l0-0.1l0.2,0
										L266.6,308.9z M265.9,308.9l-0.2,0l0-0.1l0.2,0L265.9,308.9z M265.1,309l-0.2,0l0-0.1l0.2,0L265.1,309z M264.4,309.1
										l-0.2,0l0-0.1l0.2,0L264.4,309.1z M263.7,309.1l-0.2,0l0-0.1l0.2,0L263.7,309.1z M262.9,309.2l-0.2,0l0-0.1l0.2,0
										L262.9,309.2z"/>
								</g>
							</g>
							<g>
								<g>
									
										<rect x="273.8" y="308.3" transform="matrix(0.9975 -7.105730e-02 7.105730e-02 0.9975 -21.2164 20.2356)" class="st8" width="0.1" height="0.1"/>
								</g>
							</g>
						</g>
						<g id="XMLID_5293_">
							<g>
								<path class="st8" d="M274.8,330.5l-0.2,0l0-0.1l0.2,0L274.8,330.5z M274,330.5l-0.2,0l0-0.1l0.2,0L274,330.5z M273.3,330.6
									l-0.2,0l0-0.1l0.2,0L273.3,330.6z M272.6,330.6l-0.2,0l0-0.1l0.2,0L272.6,330.6z M271.9,330.7l-0.2,0l0-0.1l0.2,0
									L271.9,330.7z M271.2,330.7l-0.2,0l0-0.1l0.2,0L271.2,330.7z M270.4,330.8l-0.2,0l0-0.1l0.2,0L270.4,330.8z M269.7,330.8
									l-0.2,0l0-0.1l0.2,0L269.7,330.8z M269,330.9l-0.2,0l0-0.1l0.2,0L269,330.9z M268.3,330.9l0.3,0l0-0.1l-0.3,0L268.3,330.9z
									 M268.1,331l-0.2,0l0-0.1l0.2,0L268.1,331z M267.4,331l-0.2,0l0-0.1l0.2,0L267.4,331z M266.7,331.1l-0.2,0l0-0.1l0.2,0
									L266.7,331.1z M266,331.1l-0.2,0l0-0.1l0.2,0L266,331.1z M265.2,331.2l-0.2,0l0-0.1l0.2,0L265.2,331.2z M264.5,331.2l-0.2,0
									l0-0.1l0.2,0L264.5,331.2z M263.8,331.3l-0.2,0l0-0.1l0.2,0L263.8,331.3z M263.1,331.3l-0.2,0l0-0.1l0.2,0L263.1,331.3z
									 M262.4,331.4l-0.2,0l0-0.1l0.2,0L262.4,331.4z M261.7,331.4L261.7,331.4l-0.1-0.1l0.1,0L261.7,331.4z"/>
							</g>
						</g>
					</g>
					<path class="st9" d="M274.7,330.1l-1-21.6c0-0.2-0.2-0.4-0.5-0.5l0-0.2l-33.4,2.3c-0.4,0-0.8,0.4-0.7,0.9l2.1,21.6
						c0,0.4,0.4,0.8,0.9,0.7l32.3-2.4l0-0.2C274.6,330.6,274.7,330.4,274.7,330.1z"/>
				</g>
				<path class="st2" d="M224.5,270.4c-1.3-16.5-2.3-48.2-2.5-86c-0.1-16.6-0.3-31.9,3.6-45.5c6.8-23.4,22.3-52,21.5-58
					c-0.2-1.6-1.7-3-3.9-4.2l0,0c0,0-1.5-1.5-10.9-3.9c0,0,0,0,0,0c-0.7-0.2-1.5-0.4-2.2-0.6c0,0-10.9-4-13.3-4.9
					c-1.6-0.7-3.3-1.4-5.1-2.1l0.3,0.1c-1-0.4-2-0.8-3-1.2c-4.4-1.9-8.9-3.2-12.6-4.8c-4-1.8-7.8-3.5-10.2-4.9
					c-1.4-4.9-3.7-12.2-6.3-16.7c0,0-3.4-7.9-30.2-7.9c-26.8,0-29,7-29,7c-0.2,0.3-0.5,0.6-0.6,0.9c-2.7,4.5-5,11.9-6.3,16.7
					c-2.4,1.3-6.2,2.5-10.1,4.2c-3.8,1.6-8.2,3.6-12.7,5.5c-0.9,0.4-21,8.2-21,8.2c-0.7,0.2-1.5,0.4-2.2,0.6c0,0,0,0,0,0
					c-9.3,2.4-10.9,3.9-10.9,3.9l0,0c-2.2,1.2-3.7,2.5-3.9,4.2c-0.8,6,14.7,34.6,21.5,58c3.9,13.5,3.7,28.8,3.6,45.5
					c-0.2,37.8-1.2,69.5-2.5,86c-1.4,17.7-5.5,55.9-5.5,55.9c-0.1-0.1-2,18.4-2,18.4s1.4,3,30.1,7.7c18.5,3,37.2,3.8,48.3,4
					c7.5,0.3,31.9-0.1,55.7-4c28.7-4.7,30.1-7.7,30.1-7.7s-2-18.5-2-18.4C230,326.3,225.8,288.1,224.5,270.4z"/>
				<g>
					<path class="st3" d="M70,125.8c0,0,7.1,5.5,8.4,22.1s0,26.6,0,26.6s0.3-13.6-2.5-29.4S70,125.8,70,125.8z"/>
					<path class="st4" d="M70,125.8c0,0,4.5,8.1,6,14.2c1.5,6.1,2.1,23.4,2.1,23.4s-0.5-14.1-3.6-24.4C71.3,128.6,70,125.8,70,125.8
						z"/>
				</g>
				<g>
					<path class="st3" d="M230.1,125.8c0,0-7.1,5.5-8.4,22.1c-1.3,16.6,0,26.6,0,26.6s-0.3-13.6,2.5-29.4
						C227.1,129.4,230.1,125.8,230.1,125.8z"/>
					<path class="st4" d="M230.1,125.8c0,0-4.5,8.1-6,14.2c-1.5,6.1-2.1,23.4-2.1,23.4s0.5-14.1,3.6-24.4
						C228.8,128.6,230.1,125.8,230.1,125.8z"/>
				</g>
			</g>
			<path class="st9" d="M63.9,110.7c0,0,22.8-25.7,88.4-25.7s83.7,25.7,83.7,25.7"/>
			<g>
				<path class="st3" d="M113.7,54.4l-4.3,2.3c0,0,14-3.6,41.4-3.6s39.7,3.6,39.7,3.6l-3.3-1.8L171,48.5
					C171,48.5,116.1,43.8,113.7,54.4z"/>
				<path class="st4" d="M113.7,54.5l-2.3,1.1c0,0,12-3.6,39.4-3.6s37.1,3.6,37.1,3.6l-3.3-1.8L171,47.4
					C171,47.4,116.1,44,113.7,54.5z"/>
			</g>
			<path class="st2" d="M113.7,54.4c0,0,7-3.5,35.2-3.5s37.3,3.4,37.3,3.4s-4.3-15.5-7.6-18.3c-3.3-2.8-11-6.3-28-6.3
				s-26.2,2.6-29.2,6C118.3,39.1,115.3,48.6,113.7,54.4z"/>
		</g>
	</g>
	<g id="XMLID_1_" class="st0">
		<defs>
			<rect id="XMLID_4932_" x="-13.5" width="327.1" height="300"/>
		</defs>
		<clipPath id="XMLID_4_">
			<use xlink:href="#XMLID_4932_"  style="overflow:visible;"/>
		</clipPath>
	</g>
	<g class="st0">
		<path class="st10" d="M150.1,4.6c38.7,0,75.1,15.1,102.5,42.5c27.4,27.4,42.5,63.8,42.5,102.5s-15.1,75.1-42.5,102.5
			c-27.4,27.4-63.8,42.5-102.5,42.5S75,279.5,47.6,252.1C20.2,224.7,5.1,188.3,5.1,149.6S20.2,74.5,47.6,47.1
			C75,19.7,111.4,4.6,150.1,4.6 M150.1-0.4c-82.8,0-150,67.2-150,150s67.2,150,150,150s150-67.2,150-150S232.9-0.4,150.1-0.4
			L150.1-0.4z"/>
	</g>
</g>
</svg>
