<?xml version="1.0" encoding="utf-8"?>
<!-- Generator: Adobe Illustrator 19.0.0, SVG Export Plug-In . SVG Version: 6.00 Build 0)  -->
<svg version="1.1" id="Layer_1" xmlns="http://www.w3.org/2000/svg" xmlns:xlink="http://www.w3.org/1999/xlink" x="0px" y="0px"
	 viewBox="0 0 300 300" style="enable-background:new 0 0 300 300;" xml:space="preserve">
<style type="text/css">
	.st0{clip-path:url(#SVGID_2_);}
	.st1{clip-path:url(#XMLID_3_);}
	.st2{clip-path:url(#SVGID_4_);}
	.st3{fill:#F1F1F2;stroke:#404041;stroke-miterlimit:10;}
	.st4{fill:#C5C7C9;}
	.st5{fill:#929497;}
	.st6{fill:#FFFFFF;stroke:#404041;stroke-miterlimit:10;}
	.st7{fill:#F1F1F2;}
	.st8{fill:none;stroke:#808184;stroke-width:0.5;stroke-miterlimit:10;stroke-dasharray:1,2;}
	.st9{fill:none;stroke:#404041;stroke-miterlimit:10;}
	.st10{fill:none;stroke:#C5C7C9;stroke-miterlimit:10;}
	.st11{fill:#9AA0BB;}
</style>
<g>
	<defs>
		<circle id="SVGID_1_" cx="150.1" cy="149.6" r="150"/>
	</defs>
	<use xlink:href="#SVGID_1_"  style="overflow:visible;fill:#DDDDDD;"/>
	<clipPath id="SVGID_2_">
		<use xlink:href="#SVGID_1_"  style="overflow:visible;"/>
	</clipPath>
	<g id="XMLID_4081_" class="st0">
		<defs>
			<rect id="XMLID_4118_" y="-0.4" width="300" height="300"/>
		</defs>
		<clipPath id="XMLID_3_">
			<use xlink:href="#XMLID_4118_"  style="overflow:visible;"/>
		</clipPath>
		<g class="st1">
			<defs>
				<rect id="SVGID_3_" x="-24.9" y="28.8" width="350" height="302.5"/>
			</defs>
			<clipPath id="SVGID_4_">
				<use xlink:href="#SVGID_3_"  style="overflow:visible;"/>
			</clipPath>
			<g class="st2">
				<g>
					<path class="st3" d="M39.4,71.2c0,0,32.5-5.6,110.3-5.6s110.8,5.6,110.8,5.6s-39.8,22.4-100.8,22.6
						C98.8,94.1,39.4,71.2,39.4,71.2z"/>
					<g>
						<path class="st4" d="M39.1,71.4c0,0,79.2,7.9,115.6,7.9S259,71.4,259,71.4l-11.9,26.1l-117.5,23.2l-50.7-14l-31.4-15
							L39.1,71.4z"/>
						<path class="st5" d="M39.1,74c0,0,79.2,7.9,115.6,7.9S259,74,259,74l-11.9,26.1l-117.5,23.2l-50.7-14l-31.4-15L39.1,74z"/>
					</g>
					<path class="st6" d="M36.3,91.6c0,0-9.9,45.1-9.9,102.1c0,55.7-17.4,480.8-18.2,500.5c0,0.4,0.2,0.9,0.6,1.1
						c3,1.5,16.5,7.2,44.1,7.2c28,0,46.4-3.7,50.3-4.6c0.5-0.1,0.8-0.5,0.9-1l55.7-477.9l-7.9-122.3L37.1,84.5L36.3,91.6z"/>
					<g>
						<path class="st7" d="M137.2,103.7v105.5c0,0-0.3,5.1,3.2,9.9l5.5-76.2v-39L137.2,103.7z"/>
						<path class="st4" d="M138.6,103.7v105.5c0,0-0.3,5.1,3.2,9.9l5.5-76.2v-39L138.6,103.7z"/>
					</g>
					<g>
						<path class="st7" d="M140.4,217.1c0,0,0.9,49.6,3.6,65.9c3,17.8,4.9,27.3,4.9,27.3l0.3-6.1l-2.6-72.3L140.4,217.1z"/>
						<path class="st4" d="M140.8,210.5c0,0,1.8,51.5,5,69.7c2.8,16.2,3.3,28.2,3.3,28.2l2-13.7l-2.6-72.3L140.8,210.5z"/>
					</g>
					<path class="st6" d="M263.9,91.6c0,0,9.9,45.1,9.9,102.1c0,55.7,17.4,480.8,18.2,500.5c0,0.4-0.2,0.9-0.6,1.1
						c-3,1.5-16.5,7.2-44.1,7.2c-28,0-46.4-3.7-50.3-4.6c-0.5-0.1-0.8-0.5-0.9-1l-55.7-477.9V96.4l122.7-12L263.9,91.6z"/>
					<path class="st8" d="M140.4,104.1l19.1-4v4.8v66.1c0,14.1-4.4,27.9-12.7,39.3l-6.4,6.9"/>
					<line class="st6" x1="140.4" y1="217.1" x2="140.4" y2="105.3"/>
					<g>
						<path class="st7" d="M263.3,90.3l-0.8-7l-13.3-1.5l-99.1,7.6L51,81.8l-13.3,1.5l-0.8,7L36.3,92l4.9,1.1l0.4,0.4l3.8,0.7
							l0.4-0.3c0,0,16.9,4.2,29.7,5.8c12.8,1.6,28.5,3.3,28.5,3.3l1.1,0.7l5.1,0.5l1.2-0.8c0,0,12.9,2,28.8,2c0.2,0,0.3,0,0.5,0
							c15.4,0,18.8,0,18.8,0c0.2,0,0.3,0,0.5,0c15.8,0,28.8-2,28.8-2l1.2,0.8l5.1-0.5l1.1-0.7c0,0,15.7-1.7,28.5-3.3
							c12.8-1.6,29.7-5.8,29.7-5.8l0.4,0.3l3.8-0.7l0.4-0.4l4.9-1.1L263.3,90.3z"/>
						<path class="st4" d="M263.3,89.7l-0.8-7l-13.3-1.5l-99.1,7.6L51,81.3l-13.3,1.5l-0.8,7l-0.6,1.7l4.9,1.1l0.4,0.4l3.8,0.7
							l0.4-0.3c0,0,16.9,4.2,29.7,5.8c12.8,1.6,28.5,3.3,28.5,3.3l1.1,0.7l5.1,0.5l1.2-0.8c0,0,12.9,2,28.8,2c0.2,0,0.3,0,0.5,0
							c15.4,0,18.8,0,18.8,0c0.2,0,0.3,0,0.5,0c15.8,0,28.8-2,28.8-2l1.2,0.8l5.1-0.5l1.1-0.7c0,0,15.7-1.7,28.5-3.3
							c12.8-1.6,29.7-5.8,29.7-5.8l0.4,0.3l3.8-0.7l0.4-0.4l4.9-1.1L263.3,89.7z"/>
					</g>
					<g>
						<path class="st7" d="M246.1,94.2c0,0,7.3,31.9,13.1,48c5.9,16.1,13.1,32.2,13.1,32.2s-16.1-30.5-22.6-50.9
							c-6.5-20.5-6.9-30.9-6.9-30.9L246.1,94.2z"/>
						<path class="st4" d="M244.2,94.2c0,0,7.3,31.9,13.1,48s13.9,30.2,13.9,30.2s-15.1-28.5-21.5-49c-6.5-20.5-6.9-30.9-6.9-30.9
							L244.2,94.2z"/>
					</g>
					<path class="st9" d="M242.8,94.2c0,0-0.3,10.9,11,40.5c11.3,29.6,19.1,40.5,19.1,40.5"/>
					<g>
						<path class="st7" d="M53.6,93.6c0,0-7.3,31.9-13.1,48s-13.1,32.2-13.1,32.2s16.1-30.5,22.6-50.9S56.9,92,56.9,92L53.6,93.6z"
							/>
						<path class="st4" d="M55.5,93.6c0,0-7.3,31.9-13.1,48s-13.9,30.2-13.9,30.2s15.1-28.5,21.5-49S56.9,92,56.9,92L55.5,93.6z"/>
					</g>
					<path class="st9" d="M56.9,93.7c0,0,0.3,10.9-11,40.5s-19.1,40.5-19.1,40.5"/>
					<g>
						<path class="st7" d="M208.5,460.2c7.9,65.7,36.4,229.6,36.4,229.6l-52.6-512.1C192.2,177.6,200.5,394.5,208.5,460.2z"/>
						<path class="st7" d="M223.4,425.2c-7.9-65.7-30.9-247.5-30.9-247.5l52.6,512.1C245.1,689.7,231.3,490.9,223.4,425.2z"/>
					</g>
					<line class="st10" x1="191.4" y1="164" x2="246.1" y2="702.1"/>
					<g>
						<path class="st7" d="M93.2,460.2c-7.9,65.7-36.4,229.6-36.4,229.6l52.6-512.1C109.4,177.6,101.1,394.5,93.2,460.2z"/>
						<path class="st7" d="M82.9,407.2c7.9-65.7,26.3-229.6,26.3-229.6L56.6,689.7C56.6,689.7,74.9,472.9,82.9,407.2z"/>
					</g>
					<line class="st10" x1="110.2" y1="164" x2="55.5" y2="702.1"/>
					<line class="st8" x1="192.6" y1="101.5" x2="192.6" y2="145.5"/>
					<line class="st8" x1="110.2" y1="101.5" x2="110.2" y2="145.5"/>
					<g>
						<path class="st6" d="M261.8,72c-0.2-0.5-0.7-0.9-1.3-0.8c-8.3,1.7-68,13.3-110.6,13.7c-42.6-0.4-102.3-12-110.6-13.7
							c-0.6-0.1-1.1,0.2-1.3,0.8c-3.3,10.2-2.1,15.7-1.5,17.4c0.1,0.4,0.4,0.7,0.8,0.7c23.7,5.9,68.1,13.7,112.5,13.7
							s88.9-7.9,112.5-13.7c0.4-0.1,0.7-0.4,0.8-0.7C263.9,87.7,265.1,82.2,261.8,72z"/>
						<g>
							<polygon class="st7" points="112,82.6 113.3,82.8 112.1,102.1 110.2,102.2 110.6,82.9 							"/>
							<polygon class="st4" points="111.2,82.6 112.5,82.8 111.3,102.1 109.4,102.2 109.8,82.9 							"/>
						</g>
						<g>
							<polygon class="st7" points="193.9,82 195.2,82.1 196.4,101.4 194.5,101.8 192.6,82.6 							"/>
							<polygon class="st4" points="193.1,82.1 194.4,82.2 195.6,101.5 193.7,101.9 191.8,82.7 							"/>
						</g>
						<g>
							<polygon class="st7" points="257.1,71.9 258.4,71.9 260,91.2 258.1,91.6 255.7,72.5 							"/>
							<polygon class="st4" points="256.3,72 257.6,72 259.2,91.3 257.3,91.7 255,72.6 							"/>
						</g>
						<g>
							<polygon class="st7" points="48.8,73.2 50.1,73.5 48.1,92.7 46.2,92.8 47.4,73.6 							"/>
							<polygon class="st4" points="48,73.2 49.3,73.4 47.3,92.7 45.4,92.8 46.6,73.5 							"/>
						</g>
						<path class="st6" d="M105.4,101.5l1.1-19.2c0-0.6,0.6-1.1,1.3-1.1l2.6,0.3c1,0.1,1.4,0.5,1.4,1.1l-1,19.2
							c0,0.6-0.5,1.1-1.3,1.1l-2.7-0.3C106.1,102.6,105.4,102.1,105.4,101.5z"/>
						<path class="st6" d="M41.7,91.1l1.7-18.6c0-0.6,0.5-1,1.2-1L47,72c0.7,0,1.3,0.4,1.3,1l-1.7,18.5c0,0.5-0.5,1-1.2,1L43,92.1
							C42.3,92.1,41.7,91.7,41.7,91.1z"/>
						<path class="st6" d="M258.3,91.1l-1.7-18.6c0-0.6-0.5-1-1.2-1L253,72c-0.7,0-1.3,0.4-1.3,1l1.7,18.5c0,0.5,0.5,1,1.2,1
							l2.4-0.5C257.7,92.1,258.3,91.7,258.3,91.1z"/>
						<g>
							<rect x="122.3" y="83.4" class="st7" width="1.2" height="20.2"/>
							<rect x="122.9" y="83.4" class="st4" width="1.2" height="20.2"/>
						</g>
						<path class="st6" d="M124.1,83.4l-0.1,21.1c0,0,16,1.5,37.4,0.3c21.4-1.2,30-2.6,30-2.6l-3.3-19.8c0,0-20.3,1.8-33.5,2
							C139.5,84.7,124.1,83.4,124.1,83.4z"/>
						<path class="st6" d="M194.6,101.5l-1.1-19.2c0-0.6-0.6-1.1-1.3-1.1l-2.6,0.3c-1,0.1-1.4,0.5-1.4,1.1l1,19.2
							c0,0.6,0.5,1.1,1.3,1.1l2.7-0.3C193.9,102.6,194.5,102.1,194.6,101.5z"/>
					</g>
				</g>
				<path class="st6" d="M267.8,105.3"/>
			</g>
		</g>
	</g>
	<g id="XMLID_1_" class="st0">
		<defs>
			<rect id="XMLID_4932_" x="-13.5" width="327.1" height="300"/>
		</defs>
		<clipPath id="XMLID_4_">
			<use xlink:href="#XMLID_4932_"  style="overflow:visible;"/>
		</clipPath>
	</g>
	<g class="st0">
		<path class="st11" d="M150.1,4.6c38.7,0,75.1,15.1,102.5,42.5c27.4,27.4,42.5,63.8,42.5,102.5s-15.1,75.1-42.5,102.5
			c-27.4,27.4-63.8,42.5-102.5,42.5S75,279.5,47.6,252.1C20.2,224.7,5.1,188.3,5.1,149.6S20.2,74.5,47.6,47.1
			C75,19.7,111.4,4.6,150.1,4.6 M150.1-0.4c-82.8,0-150,67.2-150,150s67.2,150,150,150s150-67.2,150-150S232.9-0.4,150.1-0.4
			L150.1-0.4z"/>
	</g>
</g>
</svg>
