<?xml version="1.0" encoding="utf-8"?>
<!-- Generator: Adobe Illustrator 19.0.0, SVG Export Plug-In . SVG Version: 6.00 Build 0)  -->
<svg version="1.1" id="Layer_1" xmlns="http://www.w3.org/2000/svg" xmlns:xlink="http://www.w3.org/1999/xlink" x="0px" y="0px"
	 viewBox="-489 251 300 300" style="enable-background:new -489 251 300 300;" xml:space="preserve">
<style type="text/css">
	.st0{fill:#DDDDDD;}
	.st1{clip-path:url(#SVGID_3_);}
	.st2{fill:#FFFFFF;stroke:#404041;stroke-miterlimit:10;}
	.st3{fill:#F1F1F2;}
	.st4{fill:#DBDBDB;}
	.st5{fill:#DBDBDB;stroke:#404041;stroke-miterlimit:10;}
	.st6{fill:#C5C7C9;}
	.st7{fill:#FFFFFF;stroke:#808184;stroke-width:0.5;stroke-miterlimit:10;stroke-dasharray:1,2;}
	.st8{fill:#404041;stroke:#D0D2D3;stroke-width:0.5;stroke-miterlimit:10;}
	.st9{fill:#DBDCDD;}
	.st10{fill:#FFFFFF;stroke:#6D6E70;stroke-width:0.5;stroke-miterlimit:10;}
	.st11{fill:#FFFFFF;stroke:#929497;stroke-width:0.25;stroke-miterlimit:10;}
	.st12{fill:#404041;}
	.st13{fill:none;stroke:#6D6E70;stroke-width:0.25;stroke-miterlimit:10;}
	.st14{fill:#FFFFFF;stroke:#404041;stroke-width:0.5;stroke-miterlimit:10;}
	.st15{fill:#929497;}
	.st16{fill:none;stroke:#404041;stroke-miterlimit:10;}
	.st17{fill:none;stroke:#808184;stroke-width:0.5;stroke-miterlimit:10;}
	.st18{fill:none;stroke:#808184;stroke-width:0.5;stroke-miterlimit:10;stroke-dasharray:0.9948,1.9896;}
	.st19{clip-path:url(#SVGID_7_);}
	.st20{fill:#9AA0BB;}
</style>
<g>
	<g>
		<circle id="SVGID_1_" class="st0" cx="-338.9" cy="400.6" r="150"/>
	</g>
	<g>
		<defs>
			<circle id="SVGID_2_" cx="-338.9" cy="400.6" r="150"/>
		</defs>
		<clipPath id="SVGID_3_">
			<use xlink:href="#SVGID_2_"  style="overflow:visible;"/>
		</clipPath>
		<g class="st1">
			<g id="XMLID_146_">
				<g id="XMLID_712_">
					<g id="XMLID_713_">
						<g id="XMLID_718_">
							<path id="XMLID_729_" class="st2" d="M-354.3,286.4c0,0-13.6,7.8-16.4,9.6c-1.5,1-14,6.5-24.7,11.4c-13,6-14.8,9.2-14.8,9.2
								c10,6.2,12.1,28.5,12.3,54.6"/>
							<path id="XMLID_728_" class="st2" d="M-397.9,371.2c-0.2-24.5-2-45.6-10.5-53.3l-1.8-1c0,0-2.7-0.9-5.6,12.5
								c-0.6,3-2.6,14.9-5.4,31.5"/>
							<g id="XMLID_725_">
								<path id="XMLID_727_" class="st3" d="M-357.6,290.5c0,0-32,29.5-37.3,34.2c-5.3,4.7-25.1,32.2-25.1,32.2l19.6-11l39.9-46.3
									L-357.6,290.5z"/>
								<path id="XMLID_726_" class="st4" d="M-356.7,292.1c0,0-32,29.5-37.3,34.2c-5.3,4.7-25.1,32.2-25.1,32.2l19.6-11l39.9-46.3
									L-356.7,292.1z"/>
							</g>
							<g id="XMLID_723_">
								<path id="XMLID_724_" class="st2" d="M-279.3,371.2c0.2-26.1,2.3-48.4,12.3-54.6c0,0-1.8-3.2-14.8-9.2
									c-12.2-5.7-22.5-10.1-26.5-12.4c-0.2-0.1-0.5-0.3-0.7-0.4c-3.5-2.1-13.9-8.2-13.9-8.2"/>
							</g>
							<path id="XMLID_722_" class="st2" d="M-254.8,368.5c-3.4-20.7-6-35.9-6.7-39.4c-2.8-13.4-5.6-12.5-5.6-12.5l0,0
								c-10,6.2-12.1,28.5-12.3,54.6"/>
							<g id="XMLID_719_">
								<path id="XMLID_721_" class="st3" d="M-318.7,290.5c0,0,32,29.5,37.3,34.2c5.3,4.7,25.1,32.2,25.1,32.2l-19.6-11l-39.9-46.3
									L-318.7,290.5z"/>
								<path id="XMLID_720_" class="st4" d="M-319.6,292.1c0,0,32,29.5,37.3,34.2c5.3,4.7,25.1,32.2,25.1,32.2l-19.6-11l-39.9-46.3
									L-319.6,292.1z"/>
							</g>
						</g>
						<g id="XMLID_714_">
							<g id="XMLID_716_">
								<path id="XMLID_717_" class="st2" d="M-355.3,295c0-5.6,1.9-8.6,1.9-8.6s-11.6,4.2-13.9,9.6c-2.3,5.3-6.5,27.8-6.5,27.8"/>
							</g>
							<path id="XMLID_715_" class="st2" d="M-321.8,295c0-5.6-1.9-8.6-1.9-8.6s11.6,4.2,13.9,9.6c2.3,5.3,6.5,27.8,6.5,27.8"/>
						</g>
					</g>
				</g>
				<path id="XMLID_711_" class="st2" d="M-189,476.9c0.1-32.2-42.5-91.8-63.4-114.7c-45.2-49.7-71.7-76.2-71.7-76.2l-29.8,0.4
					c0,0-23.4,29.4-71.7,76.2c-22.8,22-63.5,82.5-63.4,114.7c0,0,3.6,11.1,23.9,18.6c17.2,6.3,54.1,20,87.3,20.2
					c27.7,0.1,24.8-0.3,34.8,0h8.1c10.1-0.3,8.3,0.1,34.8,0c33.1-0.1,70.1-14.3,87.3-20.6C-192.6,488-189,476.9-189,476.9z"/>
				<path id="XMLID_710_" class="st5" d="M-379.9,381.9c0,0-21.3-3.1-21-17.1c0.3-14,36.4-38.3,36.4-38.3L-379.9,381.9z"/>
				<path id="XMLID_709_" class="st5" d="M-411.7,508.1c0,0-19.1-3.5-45.3-13c-17.5-6.4-16.1-11.2-16.1-11.2
					c-1.2-6.9,13.7-50.7,24.4-72.7c10.6-22,15-20.8,20-21.4c4.9-0.5,41.9,15.9,41.9,15.9s-7.9,28.6-13.9,52.3
					C-405.5,477.2-411.9,507.3-411.7,508.1z"/>
				<g id="XMLID_700_">
					<g id="XMLID_702_">
						<path id="XMLID_708_" class="st3" d="M-387.6,389.4c0,0-6.3-3.4-16.8-8.3c-10.5-4.9-17.5-7.6-17.5-7.6l1-0.2
							c0,0,14.7,5.7,17.8,7.1c3.2,1.4,15.5,8,15.5,8L-387.6,389.4z"/>
						<path id="XMLID_707_" class="st6" d="M-387.5,389.1c0,0-6.3-3.4-16.8-8.3c-10.5-4.9-17.5-7.6-17.5-7.6l1-0.2
							c0,0,14.7,5.7,17.8,7.1c3.2,1.4,15.5,8,15.5,8L-387.5,389.1z"/>
						<path id="XMLID_706_" class="st3" d="M-421.7,373.1c0,0,6.3,3.4,16.8,8.3c10.5,4.9,17.5,7.6,17.5,7.6l-1,0.2
							c0,0-14.7-5.7-17.8-7.1c-3.2-1.4-15.5-8-15.5-8L-421.7,373.1z"/>
						<path id="XMLID_705_" class="st6" d="M-421.8,373.5c0,0,6.3,3.4,16.8,8.3c10.5,4.9,17.5,7.6,17.5,7.6l-1,0.2
							c0,0-14.7-5.7-17.8-7.1c-3.2-1.4-15.4-8.4-15.4-8.4L-421.8,373.5z"/>
						<path id="XMLID_704_" class="st2" d="M-387.2,389.2l0.3-0.6c0.1-0.3,0-0.6-0.4-0.8l-12.1-6.2c-2.8-1.4-5.6-2.7-8.5-3.9
							l-12.7-5.3c-0.3-0.1-0.7-0.1-0.8,0.2l-0.3,0.6c0,0,10.3,4.2,17.4,7.6C-397.6,383.9-387.2,389.2-387.2,389.2z"/>
						<path id="XMLID_703_" class="st7" d="M-421.8,373.4l-0.4,0.8c-0.1,0.3,0,0.6,0.4,0.8l12,6.4c2.8,1.4,5.6,2.7,8.5,3.9l12.8,5.1
							c0.3,0.1,0.7,0,0.8-0.2l0.4-0.8c0,0-2.1,0.3-17.7-7C-420.7,375.1-421.8,373.4-421.8,373.4z"/>
					</g>
					<path id="XMLID_701_" class="st2" d="M-414.1,376.4l5.4,15.9l16.8-5.5c0,0-4.2-2.2-9.9-4.9
						C-409.5,378.3-414.1,376.4-414.1,376.4z"/>
				</g>
				<g id="XMLID_213_">
					<path id="XMLID_699_" class="st8" d="M-407.4,389.5l0.8-2.5l1.3-2.3c0.1-0.1,0.3,0,0.3,0.1l-0.8,2.5l-1.3,2.3
						C-407.3,389.8-407.5,389.7-407.4,389.5z"/>
					<circle id="XMLID_458_" class="st3" cx="-406.5" cy="388.1" r="2"/>
					<circle id="XMLID_457_" class="st9" cx="-406.6" cy="388.1" r="1.9"/>
					<circle id="XMLID_456_" class="st10" cx="-406.6" cy="387.8" r="1.9"/>
					<circle id="XMLID_455_" class="st11" cx="-406.6" cy="387.8" r="1.6"/>
					<circle id="XMLID_454_" class="st12" cx="-406.3" cy="387.3" r="0.2"/>
					<circle id="XMLID_453_" class="st12" cx="-406.7" cy="388.6" r="0.2"/>
					<line id="XMLID_452_" class="st13" x1="-406.3" y1="387.3" x2="-406.6" y2="388.6"/>
					<line id="XMLID_451_" class="st13" x1="-406.4" y1="387.3" x2="-406.8" y2="388.5"/>
					<circle id="XMLID_450_" class="st12" cx="-405.9" cy="388.2" r="0.2"/>
					<circle id="XMLID_216_" class="st12" cx="-407.2" cy="387.8" r="0.2"/>
					<line id="XMLID_215_" class="st13" x1="-405.9" y1="388.2" x2="-407.1" y2="387.8"/>
					<line id="XMLID_214_" class="st13" x1="-405.9" y1="388.1" x2="-407.1" y2="387.7"/>
				</g>
				<path id="XMLID_212_" class="st5" d="M-297.8,382c0,0,21-3.5,20.7-17.5c-0.3-14-36.7-38.2-36.7-38.2L-297.8,382z"/>
				<path id="XMLID_211_" class="st5" d="M-266.3,507.7c0,0,19.3-3,45.3-13c17.4-6.7,16.6-11.2,16.6-11.2
					c1.2-6.9-14.3-50.7-24.9-72.7s-15-20.8-20-21.4c-4.9-0.5-41.8,16.3-41.8,16.3s7.8,27,13.6,51.4
					C-272.9,475.9-266.1,506.8-266.3,507.7z"/>
				<g id="XMLID_203_">
					<g id="XMLID_204_">
						<path id="XMLID_210_" class="st3" d="M-290.4,389c0,0,6.3-3.4,16.8-8.3c10.5-4.9,17.5-7.6,17.5-7.6l-1-0.2
							c0,0-14.7,5.7-17.8,7.1c-3.2,1.4-15.5,8-15.5,8L-290.4,389z"/>
						<path id="XMLID_209_" class="st6" d="M-290.5,388.7c0,0,6.3-3.4,16.8-8.3c10.5-4.9,17.5-7.6,17.5-7.6l-1-0.2
							c0,0-14.7,5.7-17.8,7.1c-3.2,1.4-15.5,8-15.5,8L-290.5,388.7z"/>
						<path id="XMLID_208_" class="st3" d="M-256.3,372.7c0,0-6.3,3.4-16.8,8.3s-17.5,7.6-17.5,7.6l1,0.2c0,0,14.7-5.7,17.8-7.1
							c3.2-1.4,15.5-8,15.5-8L-256.3,372.7z"/>
						<path id="XMLID_207_" class="st6" d="M-256.2,373c0,0-6.3,3.4-16.8,8.3c-10.5,4.9-17.5,7.6-17.5,7.6l1,0.2
							c0,0,14.7-5.7,17.8-7.1c3.2-1.4,15.4-8.4,15.4-8.4L-256.2,373z"/>
						<path id="XMLID_206_" class="st2" d="M-290.8,388.8l-0.3-0.6c-0.1-0.3,0-0.6,0.4-0.8l12.1-6.2c2.8-1.4,5.6-2.7,8.5-3.9
							l12.7-5.3c0.3-0.1,0.7-0.1,0.8,0.2l0.3,0.6c0,0-10.3,4.2-17.4,7.6C-280.4,383.5-290.8,388.8-290.8,388.8z"/>
						<path id="XMLID_205_" class="st7" d="M-256.2,373l0.4,0.8c0.1,0.3,0,0.6-0.4,0.8l-12,6.4c-2.8,1.4-5.6,2.7-8.5,3.9l-12.8,5.1
							c-0.3,0.1-0.7,0-0.8-0.2l-0.4-0.8c0,0,2.1,0.3,17.7-7C-257.3,374.7-256.2,373-256.2,373z"/>
					</g>
				</g>
				<g id="XMLID_194_">
					<g id="XMLID_196_">
						<path id="XMLID_202_" class="st3" d="M-261.2,425.5c0,0,5.2-2.8,13.8-6.7c8.6-3.9,14.4-6.1,14.4-6.1l-0.8-0.2
							c0,0-12.1,4.6-14.7,5.7c-2.6,1.1-12.8,6.5-12.8,6.5L-261.2,425.5z"/>
						<path id="XMLID_201_" class="st6" d="M-261.3,425.2c0,0,5.2-2.8,13.8-6.7s14.4-6.1,14.4-6.1l-0.8-0.2c0,0-12.1,4.6-14.7,5.7
							s-12.8,6.5-12.8,6.5L-261.3,425.2z"/>
						<path id="XMLID_200_" class="st3" d="M-233.2,412.3c0,0-5.2,2.8-13.8,6.7s-14.4,6.1-14.4,6.1l0.8,0.2c0,0,12.1-4.6,14.7-5.7
							c2.6-1.1,12.8-6.5,12.8-6.5L-233.2,412.3z"/>
						<path id="XMLID_199_" class="st6" d="M-233.1,412.6c0,0-5.2,2.8-13.8,6.7s-14.4,6.1-14.4,6.1l0.8,0.2c0,0,12.1-4.6,14.7-5.7
							c2.6-1.1,12.6-6.8,12.6-6.8L-233.1,412.6z"/>
						<path id="XMLID_198_" class="st2" d="M-261.5,425.3l-0.2-0.5c-0.1-0.2,0-0.5,0.3-0.6l10-5c2.3-1.1,4.6-2.2,7-3.2l10.4-4.3
							c0.3-0.1,0.6,0,0.7,0.2l0.2,0.5c0,0-8.4,3.4-14.4,6.1C-253,421-261.5,425.3-261.5,425.3z"/>
						<path id="XMLID_197_" class="st7" d="M-233.1,412.5l0.3,0.6c0.1,0.2,0,0.5-0.3,0.6l-9.9,5.2c-2.3,1.1-4.6,2.2-7,3.2l-10.5,4.1
							c-0.3,0.1-0.6,0-0.7-0.2l-0.3-0.6c0,0,1.7,0.2,14.6-5.7C-234,413.9-233.1,412.5-233.1,412.5z"/>
					</g>
				</g>
				<g id="XMLID_179_">
					<g id="XMLID_180_">
						<path id="XMLID_192_" class="st3" d="M-259.9,384.5c0,0,1.8-1.1,4.8-2.6c3-1.5,5-2.3,5-2.3l-0.3-0.1c0,0-4.2,1.7-5.1,2.1
							s-4.5,2.5-4.5,2.5L-259.9,384.5z"/>
						<path id="XMLID_189_" class="st6" d="M-259.9,384.4c0,0,1.8-1.1,4.8-2.6c3-1.5,5-2.3,5-2.3l-0.3-0.1c0,0-4.2,1.7-5.1,2.1
							c-0.9,0.4-4.5,2.5-4.5,2.5L-259.9,384.4z"/>
						<path id="XMLID_186_" class="st3" d="M-250.1,379.5c0,0-1.8,1.1-4.8,2.6s-5,2.3-5,2.3l0.3,0.1c0,0,4.2-1.7,5.1-2.1
							s4.5-2.5,4.5-2.5L-250.1,379.5z"/>
						<path id="XMLID_185_" class="st6" d="M-250.1,379.6c0,0-1.8,1.1-4.8,2.6c-3,1.5-5,2.3-5,2.3l0.3,0.1c0,0,4.2-1.7,5.1-2.1
							s4.4-2.6,4.4-2.6L-250.1,379.6z"/>
						<path id="XMLID_184_" class="st14" d="M-260,384.4l-0.1-0.2c0-0.1,0-0.2,0.1-0.3l3.5-1.9c0.8-0.4,1.6-0.8,2.4-1.2l3.6-1.6
							c0.1,0,0.2,0,0.2,0.1l0.1,0.2c0,0-2.9,1.3-5,2.3C-257,382.8-260,384.4-260,384.4z"/>
						<path id="XMLID_182_" class="st7" d="M-250.1,379.6l0.1,0.3c0,0.1,0,0.2-0.1,0.3l-3.5,2c-0.8,0.4-1.6,0.8-2.4,1.2l-3.7,1.5
							c-0.1,0-0.2,0-0.2-0.1l-0.1-0.3c0,0,0.6,0.1,5.1-2.1S-250.1,379.6-250.1,379.6z"/>
					</g>
				</g>
				<g id="XMLID_168_">
					<path id="XMLID_178_" class="st2" d="M-322.9,286.3c0,0,0.1-0.4-15.7-0.4c-0.1,0-0.1,0-0.2,0c-0.1,0-0.1,0-0.2,0
						c-15.7,0-15.7,0.4-15.7,0.4l-1.9,6.8c0,0,2.6,0.6,8.8,0.9c2.4,0.1,5.5,0.2,9.1,0.2c3.6,0,6.4-0.1,8.8-0.2
						c6.2-0.3,8.8-0.9,8.8-0.9L-322.9,286.3z"/>
					<g id="XMLID_174_">
						<path id="XMLID_177_" class="st15" d="M-351.8,286.2c0,0-1.6,1.8-1.5,4.1s0.2,3.1,0.2,3.1h-3.4l1.9-7L-351.8,286.2z"/>
						<path id="XMLID_176_" class="st3" d="M-351.1,286.1c-0.4,0-0.8,0-1.1,0c-0.9,1.5-0.9,5.8-0.9,7.4c0.5,0,1.1,0.1,1.7,0.1
							c-0.1-0.5-0.2-1.4-0.2-3.2C-351.7,288.4-351.3,286.8-351.1,286.1z"/>
						<path id="XMLID_175_" class="st6" d="M-352.1,286.2c-0.2,0-0.4,0-0.6,0c-0.4,0.3-0.8,0.9-0.9,1.8c-0.2,1.9-0.3,4.4-0.3,5.5
							c0.5,0,1.1,0.1,1.7,0.1C-352.5,292-353,287.6-352.1,286.2z"/>
					</g>
					<g id="XMLID_170_">
						<path id="XMLID_173_" class="st15" d="M-325.9,286.2c0,0,1.6,1.8,1.5,4.1s-0.2,3.1-0.2,3.1h3.6l-2.1-7L-325.9,286.2z"/>
						<path id="XMLID_172_" class="st3" d="M-326.6,286.1c0.4,0,0.8,0,1.1,0c0.9,1.5,0.9,5.8,0.9,7.4c-0.5,0-1.1,0.1-1.7,0.1
							c0.1-0.5,0.2-1.4,0.2-3.2C-326,288.4-326.4,286.8-326.6,286.1z"/>
						<path id="XMLID_171_" class="st6" d="M-325.6,286.2c0.2,0,0.4,0,0.6,0c0.4,0.3,0.8,0.9,0.9,1.8c0.2,1.9,0.3,4.4,0.3,5.5
							c-0.5,0-1.1,0.1-1.7,0.1C-325.2,292-324.6,287.6-325.6,286.2z"/>
					</g>
					<path id="XMLID_169_" class="st16" d="M-322.9,286.3c0,0,0.1-0.4-15.7-0.4c-0.1,0-0.1,0-0.2,0c-0.1,0-0.1,0-0.2,0
						c-15.7,0-15.7,0.4-15.7,0.4l-1.9,6.8c0,0,2.6,0.6,8.8,0.9c2.4,0.1,5.5,0.2,9.1,0.2c3.6,0,6.4-0.1,8.8-0.2
						c6.2-0.3,8.8-0.9,8.8-0.9L-322.9,286.3z"/>
				</g>
				<path id="XMLID_167_" class="st3" d="M-321.7,293.4c0,0,21.6,92.2,28.3,115.7c6.7,23.5,20.5,67.5,20.5,67.5
					s-15.8-65.2-30.7-114.9s-17.4-68.4-17.4-68.4H-321.7z"/>
				<path id="XMLID_166_" class="st6" d="M-321,293.4c0,0,2,11.7,6,27.7c7.1,29.1,18.7,72.8,23,88c6.7,23.5,21.2,77.1,21.2,77.1
					s-13.3-64.9-32.2-122.1c-16.4-49.8-18.8-70.7-18.8-70.7H-321z"/>
				<path id="XMLID_165_" class="st3" d="M-356.5,293.5c0,0-21.6,92.2-28.3,115.7s-20.5,67.5-20.5,67.5s15.8-65.2,30.7-114.9
					s17.4-68.4,17.4-68.4H-356.5z"/>
				<path id="XMLID_164_" class="st6" d="M-356.6,293.5c0,0-22.8,92.2-29.5,115.7c-6.7,23.5-21.2,77.1-21.2,77.1
					s14.8-64.5,32.2-122.1c14.9-49.7,19.3-70,19.3-70L-356.6,293.5z"/>
				<path id="XMLID_163_" class="st5" d="M-321,293.4c3.5,19.1,8.4,37.7,8.4,37.7s16.9,57.6,27.5,96.2
					c10.6,38.6,18.8,80.4,18.8,80.4s-12.2,5.6-72.7,5.6s-72.7-5.2-72.7-5.2s8.2-41.8,18.8-80.4c10.6-38.6,27-96.3,27-96.3
					s4.4-20.1,9.4-38c0,0,2.9,0.8,17.9,0.8S-321,293.4-321,293.4z"/>
				<g id="XMLID_96_">
					<path id="XMLID_98_" class="st4" d="M-321.7,293.4l15.9,72.2l32.4,143.9l5.5-1.3c0,0-2.1-19.5-20.8-87.9
						c-4.6-16.8-9.8-34.4-14-51.1c-6.4-26-11.6-49.7-15.3-63.2C-321.8,292.5-321.7,293.4-321.7,293.4z"/>
					<path id="XMLID_97_" class="st15" d="M-321.2,295l50.4,213.8l4.5-1.2c0,0-2.5-20.1-21.3-88.6c-11.7-42.8-24.6-92.1-30.7-114.4
						C-322,291.3-321.2,295-321.2,295z"/>
				</g>
				<g id="XMLID_100_">
					<path id="XMLID_110_" class="st4" d="M-356.3,293.4l-15.9,72.2l-32.4,143.9l-5.5-1.3c0,0,2.1-19.5,20.8-87.9
						c4.6-16.8,9.8-34.4,14-51.1c6.4-26,11.6-49.7,15.3-63.2C-356.2,292.5-356.3,293.4-356.3,293.4z"/>
					<path id="XMLID_101_" class="st15" d="M-356.8,295l-50.4,213.8l-4.5-1.2c0,0,2.5-20.1,21.3-88.6
						c11.7-42.8,24.6-92.1,30.7-114.4C-356,291.3-356.8,295-356.8,295z"/>
				</g>
				<g id="XMLID_153_">
					<g>
						<line class="st17" x1="-338.6" y1="295.2" x2="-338.6" y2="295.7"/>
						<line class="st18" x1="-338.6" y1="297.7" x2="-338.6" y2="514.5"/>
						<line class="st17" x1="-338.6" y1="515.5" x2="-338.6" y2="516"/>
					</g>
				</g>
				<path id="XMLID_152_" class="st15" d="M-346.8,296.9l0.6,0.6c0,0,4.1-0.3,7.5-0.3c3.5,0,7.8,0.3,7.8,0.3l0.4-0.6H-346.8z"/>
				<path id="XMLID_151_" class="st6" d="M-346.3,297.3l0.4,0.4c0,0,3.9-0.3,7.3-0.3s7.7,0.3,7.7,0.3l0.2-0.4l-7.9-0.2L-346.3,297.3
					z"/>
				<path id="XMLID_150_" class="st2" d="M-338.6,294.3c-3.6,0-6.6,0-9-0.1l1,2.8h7.9h0.1h7.9l1-2.8
					C-332,294.2-335,294.3-338.6,294.3z"/>
			</g>
			<g>
				<defs>
					<circle id="SVGID_4_" cx="-338.9" cy="400.6" r="150"/>
				</defs>
				<clipPath id="SVGID_5_">
					<use xlink:href="#SVGID_4_"  style="overflow:visible;"/>
				</clipPath>
			</g>
			<g>
				<defs>
					<circle id="SVGID_6_" cx="-338.9" cy="400.6" r="150"/>
				</defs>
				<clipPath id="SVGID_7_">
					<use xlink:href="#SVGID_6_"  style="overflow:visible;"/>
				</clipPath>
				<g class="st19">
					<path class="st20" d="M-338.9,255.6c38.7,0,75.1,15.1,102.5,42.5s42.5,63.8,42.5,102.5s-15.1,75.1-42.5,102.5
						s-63.8,42.5-102.5,42.5s-75.1-15.1-102.5-42.5s-42.5-63.8-42.5-102.5s15.1-75.1,42.5-102.5S-377.6,255.6-338.9,255.6
						 M-338.9,250.6c-82.8,0-150,67.2-150,150s67.2,150,150,150s150-67.2,150-150S-256.1,250.6-338.9,250.6L-338.9,250.6z"/>
				</g>
			</g>
		</g>
	</g>
</g>
</svg>
