<?xml version="1.0" encoding="utf-8"?>
<!-- Generator: Adobe Illustrator 19.0.0, SVG Export Plug-In . SVG Version: 6.00 Build 0)  -->
<svg version="1.1" id="Layer_1" xmlns="http://www.w3.org/2000/svg" xmlns:xlink="http://www.w3.org/1999/xlink" x="0px" y="0px"
	 viewBox="-489 251 300 300" style="enable-background:new -489 251 300 300;" xml:space="preserve">
<style type="text/css">
	.st0{fill:#DDDDDD;}
	.st1{clip-path:url(#SVGID_3_);}
	.st2{fill:#FFFFFF;stroke:#404041;stroke-miterlimit:10;}
	.st3{fill:#F1F1F2;}
	.st4{fill:#DBDBDB;}
	.st5{fill:#C5C7C9;}
	.st6{fill:#FFFFFF;stroke:#808184;stroke-width:0.5;stroke-miterlimit:10;stroke-dasharray:1,2;}
	.st7{fill:#FFFFFF;stroke:#404041;stroke-width:0.5;stroke-miterlimit:10;}
	.st8{fill:#929497;}
	.st9{fill:none;stroke:#404041;stroke-miterlimit:10;}
	.st10{fill:#DBDBDB;stroke:#404041;stroke-miterlimit:10;}
	.st11{fill:none;stroke:#808184;stroke-width:0.5;stroke-miterlimit:10;}
	.st12{fill:none;stroke:#808184;stroke-width:0.5;stroke-miterlimit:10;stroke-dasharray:0.9948,1.9896;}
	.st13{clip-path:url(#SVGID_7_);}
	.st14{fill:#9AA0BB;}
</style>
<g>
	<g>
		<circle id="SVGID_1_" class="st0" cx="-338.9" cy="400.6" r="150"/>
	</g>
	<g>
		<defs>
			<circle id="SVGID_2_" cx="-338.9" cy="400.6" r="150"/>
		</defs>
		<clipPath id="SVGID_3_">
			<use xlink:href="#SVGID_2_"  style="overflow:visible;"/>
		</clipPath>
		<g class="st1">
			<g>
				<defs>
					<circle id="SVGID_4_" cx="-338.9" cy="400.6" r="150"/>
				</defs>
				<clipPath id="SVGID_5_">
					<use xlink:href="#SVGID_4_"  style="overflow:visible;"/>
				</clipPath>
			</g>
			<g id="XMLID_29_">
				<g id="XMLID_27_">
					<g id="XMLID_28_">
						<g id="XMLID_1170_">
							<path id="XMLID_1321_" class="st2" d="M-353.6,286.4c0,0-13.6,7.8-16.4,9.6c-1.5,1-14,6.5-24.7,11.4c-13,6-14.8,9.2-14.8,9.2
								c10,6.2,12.1,28.5,12.3,54.6"/>
							<path id="XMLID_41_" class="st2" d="M-397.2,371.2c-0.2-24.5-2-45.6-10.5-53.3l-1.8-1c0,0-2.7-0.9-5.6,12.5
								c-0.6,3-2.6,14.9-5.4,31.5"/>
							<g id="XMLID_38_">
								<path id="XMLID_40_" class="st3" d="M-357,290.5c0,0-32,29.5-37.3,34.2c-5.3,4.7-25.1,32.2-25.1,32.2l19.6-11l39.9-46.3
									L-357,290.5z"/>
								<path id="XMLID_39_" class="st4" d="M-356,292.1c0,0-32,29.5-37.3,34.2c-5.3,4.7-25.1,32.2-25.1,32.2l19.6-11l39.9-46.3
									L-356,292.1z"/>
							</g>
							<g id="XMLID_1175_">
								<path id="XMLID_37_" class="st2" d="M-278.6,371.2c0.2-26.1,2.3-48.4,12.3-54.6c0,0-1.8-3.2-14.8-9.2
									c-12.2-5.7-22.5-10.1-26.5-12.4c-0.2-0.1-0.5-0.3-0.7-0.4c-3.5-2.1-13.9-8.2-13.9-8.2"/>
							</g>
							<path id="XMLID_52_" class="st2" d="M-254.1,368.5c-3.4-20.7-6-35.9-6.7-39.4c-2.8-13.4-5.6-12.5-5.6-12.5l0,0
								c-10,6.2-12.1,28.5-12.3,54.6"/>
							<g id="XMLID_34_">
								<path id="XMLID_36_" class="st3" d="M-318.1,290.5c0,0,32,29.5,37.3,34.2c5.3,4.7,25.1,32.2,25.1,32.2l-19.6-11l-39.9-46.3
									L-318.1,290.5z"/>
								<path id="XMLID_35_" class="st4" d="M-319,292.1c0,0,32,29.5,37.3,34.2c5.3,4.7,25.1,32.2,25.1,32.2l-19.6-11l-39.9-46.3
									L-319,292.1z"/>
							</g>
						</g>
						<g id="XMLID_746_">
							<g id="XMLID_1162_">
								<path id="XMLID_33_" class="st2" d="M-354.6,295c0-5.6,1.9-8.6,1.9-8.6s-11.6,4.2-13.9,9.6c-2.3,5.3-6.5,27.8-6.5,27.8"/>
							</g>
							<path id="XMLID_32_" class="st2" d="M-321.1,295c0-5.6-1.9-8.6-1.9-8.6s11.6,4.2,13.9,9.6c2.3,5.3,6.5,27.8,6.5,27.8"/>
						</g>
					</g>
				</g>
				<path id="XMLID_130_" class="st2" d="M-188.4,476.9c0.1-32.2-42.5-91.8-63.4-114.7c-45.2-49.7-71.7-76.2-71.7-76.2l-29.8,0.4
					c0,0-23.4,29.4-71.7,76.2c-22.8,22-63.5,82.5-63.4,114.7c0,0,3.6,11.1,23.9,18.6c17.2,6.3,54.1,20,87.3,20.2
					c27.7,0.1,24.8-0.3,34.8,0h8.1c10.1-0.3,8.3,0.1,34.8,0c33.1-0.1,70.1-14.3,87.3-20.6C-192,488-188.4,476.9-188.4,476.9z"/>
				<g id="XMLID_74_">
					<g id="XMLID_66_">
						<path id="XMLID_72_" class="st3" d="M-387,389.4c0,0-6.3-3.4-16.8-8.3c-10.5-4.9-17.5-7.6-17.5-7.6l1-0.2
							c0,0,14.7,5.7,17.8,7.1c3.2,1.4,15.5,8,15.5,8L-387,389.4z"/>
						<path id="XMLID_71_" class="st5" d="M-386.8,389.1c0,0-6.3-3.4-16.8-8.3c-10.5-4.9-17.5-7.6-17.5-7.6l1-0.2
							c0,0,14.7,5.7,17.8,7.1c3.2,1.4,15.5,8,15.5,8L-386.8,389.1z"/>
						<path id="XMLID_70_" class="st3" d="M-421,373.1c0,0,6.3,3.4,16.8,8.3c10.5,4.9,17.5,7.6,17.5,7.6l-1,0.2
							c0,0-14.7-5.7-17.8-7.1c-3.2-1.4-15.5-8-15.5-8L-421,373.1z"/>
						<path id="XMLID_69_" class="st5" d="M-421.2,373.5c0,0,6.3,3.4,16.8,8.3c10.5,4.9,17.5,7.6,17.5,7.6l-1,0.2
							c0,0-14.7-5.7-17.8-7.1c-3.2-1.4-15.4-8.4-15.4-8.4L-421.2,373.5z"/>
						<path id="XMLID_68_" class="st2" d="M-386.6,389.2l0.3-0.6c0.1-0.3,0-0.6-0.4-0.8l-12.1-6.2c-2.8-1.4-5.6-2.7-8.5-3.9
							l-12.7-5.3c-0.3-0.1-0.7-0.1-0.8,0.2l-0.3,0.6c0,0,10.3,4.2,17.4,7.6C-397,383.9-386.6,389.2-386.6,389.2z"/>
						<path id="XMLID_26_" class="st6" d="M-421.2,373.4l-0.4,0.8c-0.1,0.3,0,0.6,0.4,0.8l12,6.4c2.8,1.4,5.6,2.7,8.5,3.9l12.8,5.1
							c0.3,0.1,0.7,0,0.8-0.2l0.4-0.8c0,0-2.1,0.3-17.7-7C-420,375.1-421.2,373.4-421.2,373.4z"/>
					</g>
				</g>
				<g id="XMLID_19_">
					<g id="XMLID_20_">
						<path id="XMLID_125_" class="st3" d="M-289.8,389c0,0,6.3-3.4,16.8-8.3c10.5-4.9,17.5-7.6,17.5-7.6l-1-0.2
							c0,0-14.7,5.7-17.8,7.1c-3.2,1.4-15.5,8-15.5,8L-289.8,389z"/>
						<path id="XMLID_25_" class="st5" d="M-289.9,388.7c0,0,6.3-3.4,16.8-8.3c10.5-4.9,17.5-7.6,17.5-7.6l-1-0.2
							c0,0-14.7,5.7-17.8,7.1c-3.2,1.4-15.5,8-15.5,8L-289.9,388.7z"/>
						<path id="XMLID_24_" class="st3" d="M-255.7,372.7c0,0-6.3,3.4-16.8,8.3s-17.5,7.6-17.5,7.6l1,0.2c0,0,14.7-5.7,17.8-7.1
							c3.2-1.4,15.5-8,15.5-8L-255.7,372.7z"/>
						<path id="XMLID_23_" class="st5" d="M-255.5,373c0,0-6.3,3.4-16.8,8.3c-10.5,4.9-17.5,7.6-17.5,7.6l1,0.2
							c0,0,14.7-5.7,17.8-7.1s15.4-8.4,15.4-8.4L-255.5,373z"/>
						<path id="XMLID_22_" class="st2" d="M-290.1,388.8l-0.3-0.6c-0.1-0.3,0-0.6,0.4-0.8l12.1-6.2c2.8-1.4,5.6-2.7,8.5-3.9
							l12.7-5.3c0.3-0.1,0.7-0.1,0.8,0.2l0.3,0.6c0,0-10.3,4.2-17.4,7.6C-279.7,383.5-290.1,388.8-290.1,388.8z"/>
						<path id="XMLID_21_" class="st6" d="M-255.6,373l0.4,0.8c0.1,0.3,0,0.6-0.4,0.8l-12,6.4c-2.8,1.4-5.6,2.7-8.5,3.9l-12.8,5.1
							c-0.3,0.1-0.7,0-0.8-0.2l-0.4-0.8c0,0,2.1,0.3,17.7-7S-255.6,373-255.6,373z"/>
					</g>
				</g>
				<g id="XMLID_30_">
					<g id="XMLID_57_">
						<path id="XMLID_18_" class="st3" d="M-259.3,384.5c0,0,1.8-1.1,4.8-2.6c3-1.5,5-2.3,5-2.3l-0.3-0.1c0,0-4.2,1.7-5.1,2.1
							s-4.5,2.5-4.5,2.5L-259.3,384.5z"/>
						<path id="XMLID_65_" class="st5" d="M-259.3,384.4c0,0,1.8-1.1,4.8-2.6c3-1.5,5-2.3,5-2.3l-0.3-0.1c0,0-4.2,1.7-5.1,2.1
							c-0.9,0.4-4.5,2.5-4.5,2.5L-259.3,384.4z"/>
						<path id="XMLID_63_" class="st3" d="M-249.5,379.5c0,0-1.8,1.1-4.8,2.6s-5,2.3-5,2.3l0.3,0.1c0,0,4.2-1.7,5.1-2.1
							s4.5-2.5,4.5-2.5L-249.5,379.5z"/>
						<path id="XMLID_60_" class="st5" d="M-249.4,379.6c0,0-1.8,1.1-4.8,2.6c-3,1.5-5,2.3-5,2.3l0.3,0.1c0,0,4.2-1.7,5.1-2.1
							s4.4-2.6,4.4-2.6L-249.4,379.6z"/>
						<path id="XMLID_59_" class="st7" d="M-259.4,384.4l-0.1-0.2c0-0.1,0-0.2,0.1-0.3l3.5-1.9c0.8-0.4,1.6-0.8,2.4-1.2l3.6-1.6
							c0.1,0,0.2,0,0.2,0.1l0.1,0.2c0,0-2.9,1.3-5,2.3C-256.4,382.8-259.4,384.4-259.4,384.4z"/>
						<path id="XMLID_58_" class="st6" d="M-249.4,379.6l0.1,0.3c0,0.1,0,0.2-0.1,0.3l-3.5,2c-0.8,0.4-1.6,0.8-2.4,1.2l-3.7,1.5
							c-0.1,0-0.2,0-0.2-0.1l-0.1-0.3c0,0,0.6,0.1,5.1-2.1C-249.8,380.2-249.4,379.6-249.4,379.6z"/>
					</g>
				</g>
				<g id="XMLID_1493_">
					<path id="XMLID_1528_" class="st2" d="M-322.3,286.3c0,0,0.1-0.4-15.7-0.4c-0.1,0-0.1,0-0.2,0c-0.1,0-0.1,0-0.2,0
						c-15.7,0-15.7,0.4-15.7,0.4l-1.9,6.8c0,0,2.6,0.6,8.8,0.9c2.4,0.1,5.5,0.2,9.1,0.2c3.6,0,6.4-0.1,8.8-0.2
						c6.2-0.3,8.8-0.9,8.8-0.9L-322.3,286.3z"/>
					<g id="XMLID_1524_">
						<path id="XMLID_1527_" class="st8" d="M-351.1,286.2c0,0-1.6,1.8-1.5,4.1s0.2,3.1,0.2,3.1h-3.4l1.9-7L-351.1,286.2z"/>
						<path id="XMLID_1526_" class="st3" d="M-350.5,286.1c-0.4,0-0.8,0-1.1,0c-0.9,1.5-0.9,5.8-0.9,7.4c0.5,0,1.1,0.1,1.7,0.1
							c-0.1-0.5-0.2-1.4-0.2-3.2C-351,288.4-350.7,286.8-350.5,286.1z"/>
						<path id="XMLID_1525_" class="st5" d="M-351.5,286.2c-0.2,0-0.4,0-0.6,0c-0.4,0.3-0.8,0.9-0.9,1.8c-0.2,1.9-0.3,4.4-0.3,5.5
							c0.5,0,1.1,0.1,1.7,0.1C-351.8,292-352.4,287.6-351.5,286.2z"/>
					</g>
					<g id="XMLID_1520_">
						<path id="XMLID_1523_" class="st8" d="M-325.3,286.2c0,0,1.6,1.8,1.5,4.1s-0.2,3.1-0.2,3.1h3.6l-2.1-7L-325.3,286.2z"/>
						<path id="XMLID_1522_" class="st3" d="M-325.9,286.1c0.4,0,0.8,0,1.1,0c0.9,1.5,0.9,5.8,0.9,7.4c-0.5,0-1.1,0.1-1.7,0.1
							c0.1-0.5,0.2-1.4,0.2-3.2C-325.4,288.4-325.7,286.8-325.9,286.1z"/>
						<path id="XMLID_1521_" class="st5" d="M-324.9,286.2c0.2,0,0.4,0,0.6,0c0.4,0.3,0.8,0.9,0.9,1.8c0.2,1.9,0.3,4.4,0.3,5.5
							c-0.5,0-1.1,0.1-1.7,0.1C-324.6,292-324,287.6-324.9,286.2z"/>
					</g>
					<path id="XMLID_1519_" class="st9" d="M-322.3,286.3c0,0,0.1-0.4-15.7-0.4c-0.1,0-0.1,0-0.2,0c-0.1,0-0.1,0-0.2,0
						c-15.7,0-15.7,0.4-15.7,0.4l-1.9,6.8c0,0,2.6,0.6,8.8,0.9c2.4,0.1,5.5,0.2,9.1,0.2c3.6,0,6.4-0.1,8.8-0.2
						c6.2-0.3,8.8-0.9,8.8-0.9L-322.3,286.3z"/>
				</g>
				<path id="XMLID_17_" class="st3" d="M-321.1,293.4c0,0,21.6,92.2,28.3,115.7c6.7,23.5,20.5,67.5,20.5,67.5
					s-15.8-65.2-30.7-114.9s-17.4-68.4-17.4-68.4H-321.1z"/>
				<path id="XMLID_16_" class="st5" d="M-320.9,293.4c0,0,2,11.7,6,27.7c7.1,29.1,18.7,72.8,23,88c6.7,23.5,21.2,77.1,21.2,77.1
					s-13.3-64.9-32.2-122.1c-16.4-49.8-18.8-70.7-18.8-70.7H-320.9z"/>
				<path id="XMLID_15_" class="st3" d="M-355.8,293.5c0,0-21.6,92.2-28.3,115.7s-20.5,67.5-20.5,67.5s15.8-65.2,30.7-114.9
					s17.4-68.4,17.4-68.4H-355.8z"/>
				<path id="XMLID_14_" class="st5" d="M-356,293.5c0,0-22.8,92.2-29.5,115.7c-6.7,23.5-21.2,77.1-21.2,77.1s14.8-64.5,32.2-122.1
					c14.9-49.7,19.3-70,19.3-70L-356,293.5z"/>
				<g id="XMLID_129_">
					<path id="XMLID_31_" class="st2" d="M-320.4,293.4c3.5,19.1,8.4,37.7,8.4,37.7s16.9,57.6,27.5,96.2
						c10.6,38.6,18.8,80.4,18.8,80.4s-12.2,5.6-72.7,5.6s-72.7-5.2-72.7-5.2s8.2-41.8,18.8-80.4c10.6-38.6,27-96.3,27-96.3
						s4.4-20.1,9.4-38c0,0,2.9,0.8,17.9,0.8S-320.4,293.4-320.4,293.4z"/>
				</g>
				<g id="XMLID_734_">
					<rect id="XMLID_732_" x="-348.6" y="330" class="st4" width="2.3" height="180.8"/>
					<rect id="XMLID_735_" x="-348" y="330" class="st8" width="2.3" height="180.8"/>
				</g>
				<g id="XMLID_737_">
					<rect id="XMLID_739_" x="-330.4" y="330" class="st4" width="2.3" height="180.8"/>
					<rect id="XMLID_738_" x="-331.1" y="330" class="st8" width="2.3" height="180.8"/>
				</g>
				<path id="XMLID_13_" class="st10" d="M-296.2,508.2h-1.3c0,0-1-22.8,0-77.9c0.2-13,0.1-41.4,0.3-47.2l1,4.1V508.2z"/>
				<rect id="XMLID_733_" x="-331.1" y="320.2" class="st10" width="1.3" height="193.1"/>
				<g id="XMLID_10_">
					<path id="XMLID_12_" class="st4" d="M-339.7,324.4c0,0,6.6,4.9,13.6,10.7c6.9,5.8,19.1,18.8,21.3,22.6l2.4,4.2l-12.6-44.9
						l-24.6,7.1V324.4z"/>
					<path id="XMLID_11_" class="st8" d="M-339.3,323.7c0,0,6.6,4.9,13.6,10.7c6.9,5.8,19.1,18.8,21.3,22.6l1.8,4.5l-12-45.2
						l-24.6,7.1V323.7z"/>
				</g>
				<g id="XMLID_1510_">
					<g>
						<line class="st11" x1="-338" y1="295.2" x2="-338" y2="295.7"/>
						<line class="st12" x1="-338" y1="297.7" x2="-338" y2="514.5"/>
						<line class="st11" x1="-338" y1="515.5" x2="-338" y2="516"/>
					</g>
				</g>
				<path id="XMLID_77_" class="st10" d="M-380.9,508.2h1.3c0,0,1-22.8,0-77.9c-0.2-13-0.1-41.4-0.3-47.2l-1,4.1V508.2z"/>
				<g id="XMLID_8_">
					<path id="XMLID_127_" class="st4" d="M-355.6,293.4l-15.9,72.2l-32.4,143.9l-5.5-1.3c0,0,2.1-19.5,20.8-87.9
						c4.6-16.8,9.8-34.4,14-51.1c6.4-26,11.6-49.7,15.3-63.2C-355.6,292.5-355.6,293.4-355.6,293.4z"/>
					<path id="XMLID_9_" class="st8" d="M-356.1,295l-50.4,214.3l-4.5-1.2c0,0,2.5-20.6,21.3-89.1c11.7-42.8,24.6-92.1,30.7-114.4
						C-355.3,291.3-356.1,295-356.1,295z"/>
				</g>
				<path id="XMLID_75_" class="st10" d="M-411,508.1l1.2,0.2c0,0,13.2-62.5,20.6-88.8c2-7,10.3-40.4,5-21.2
					c-2.8,10.2-5.6,20.2-7.9,28.9C-402.9,467.2-411,508.1-411,508.1z"/>
				<path id="XMLID_78_" class="st10" d="M-421.3,506.3l1.2,0.1c0,0,16.2-45.8,24.6-72.1c1.9-5.8,10.7-33.4,10.7-33.4
					c0.1-0.3,2.2-7.8,2.1-7.4c0,0-10.1,30.5-13.4,40.2C-409.9,474.6-421.3,506.3-421.3,506.3z"/>
				<path id="XMLID_7_" class="st10" d="M-414.3,507.7l1.2,0.1c0,0,10.5-46.3,18.9-72.6l2.5-9.3
					C-405.4,466.7-414.3,507.7-414.3,507.7z"/>
				<rect id="XMLID_731_" x="-347" y="320.2" class="st10" width="1.3" height="193.1"/>
				<path id="XMLID_73_" class="st10" d="M-351.7,293.7c0,0-5.2,16.2,13.3,30c18.5,13.8,31.7,25.1,35,35.5c0,0-10-37.8-10.5-39.8
					c-3.3-13.3-6.8-26-6.8-26S-328.7,294-351.7,293.7z"/>
				<g id="XMLID_6_">
					<path id="XMLID_126_" class="st4" d="M-324,293.4c0,0,3.7,6.2,0.1,15.9c-4,10.8-23.9,23.5-33.1,32.6
						c-9.2,9.1-17.8,21.5-17.8,21.5l17.8-52.3L-324,293.4z"/>
					<path id="XMLID_128_" class="st8" d="M-324.8,293.7c0,0,4.3,1.7-0.1,16.1c-0.7,2.2-2.8,5-4.2,6.8c-7.3,8.9-22.8,18.5-30,25.6
						c-9.2,9.1-14,17.9-14,17.9l15.2-49.8L-324.8,293.7z"/>
				</g>
				<path id="XMLID_145_" class="st10" d="M-324.8,293.7c0,0,5.2,16.2-13.3,30c-18.5,13.8-31.7,25.1-35,35.5c0,0,10-37.8,10.5-39.8
					c3.3-13.3,6.8-26,6.8-26S-347.9,294-324.8,293.7z"/>
				<path id="XMLID_1509_" class="st8" d="M-346.1,296.9l0.6,0.6c0,0,4.1-0.3,7.5-0.3c3.5,0,7.8,0.3,7.8,0.3l0.4-0.6H-346.1z"/>
				<path id="XMLID_1495_" class="st5" d="M-345.7,297.3l0.4,0.4c0,0,3.9-0.3,7.3-0.3c3.4,0,7.7,0.3,7.7,0.3l0.2-0.4l-7.9-0.2
					L-345.7,297.3z"/>
				<path id="XMLID_1494_" class="st2" d="M-338,294.3c-3.6,0-6.6,0-9-0.1l1,2.8h7.9h0.1h7.9l1-2.8
					C-331.4,294.2-334.4,294.3-338,294.3z"/>
				<path id="XMLID_76_" class="st10" d="M-390.7,511.3c0,0-1.1,0.4,9.3,1c10.4,0.6,11.6,0.5,11.6,0.5v-54.4h-20.9V511.3z"/>
				<g id="XMLID_3_">
					<path id="XMLID_5_" class="st4" d="M-321.1,293.4l15.9,72.2l32.4,143.9l5.5-1.3c0,0-2.1-19.5-20.8-87.9
						c-4.6-16.8-9.8-34.4-14-51.1c-6.4-26-11.6-49.7-15.3-63.2C-321.2,292.5-321.1,293.4-321.1,293.4z"/>
					<path id="XMLID_4_" class="st8" d="M-320.6,295l50.4,213.8l4.5-1.2c0,0-2.5-20.1-21.3-88.6c-11.7-42.8-24.6-92.1-30.7-114.4
						C-321.4,291.3-320.6,295-320.6,295z"/>
				</g>
				<path id="XMLID_149_" class="st10" d="M-265.5,508.1l-1.2,0.2c0,0-13.2-62.5-20.6-88.8c-2-7-10.3-40.4-5-21.2
					c2.8,10.2,5.6,20.2,7.9,28.9C-273.7,467.2-265.5,508.1-265.5,508.1z"/>
				<path id="XMLID_148_" class="st10" d="M-255.2,506.3l-1.2,0.1c0,0-16.2-45.8-24.6-72.1c-1.9-5.8-10.7-33.4-10.7-33.4
					c-0.1-0.3-2.2-7.8-2.1-7.4c0,0,10.1,30.5,13.4,40.2C-266.7,474.6-255.2,506.3-255.2,506.3z"/>
				<path id="XMLID_147_" class="st10" d="M-262.2,507.7l-1.2,0.1c0,0-10.5-46.3-18.9-72.6l-2.5-9.3
					C-271.1,466.7-262.2,507.7-262.2,507.7z"/>
				<path id="XMLID_131_" class="st10" d="M-286.4,511.3c0,0,1.1,0.4-9.3,1c-10.4,0.6-11.6,0.5-11.6,0.5v-54.4h20.9V511.3z"/>
				<path id="XMLID_1_" class="st10" d="M-255.6,503.8c0,0-15.8,8-82.4,6.8c-66.6,1.2-82.4-6.8-82.4-6.8l-0.9,2.5
					c7,1.7,14.8,3,14.8,3c29.2,5.4,68.5,3.9,68.5,3.9s39.4,1.6,68.5-3.9c0,0,7.7-1.3,14.8-3L-255.6,503.8z"/>
			</g>
			<g>
				<defs>
					<circle id="SVGID_6_" cx="-338.9" cy="400.6" r="150"/>
				</defs>
				<clipPath id="SVGID_7_">
					<use xlink:href="#SVGID_6_"  style="overflow:visible;"/>
				</clipPath>
				<g class="st13">
					<path class="st14" d="M-338.9,255.6c38.7,0,75.1,15.1,102.5,42.5s42.5,63.8,42.5,102.5s-15.1,75.1-42.5,102.5
						s-63.8,42.5-102.5,42.5s-75.1-15.1-102.5-42.5s-42.5-63.8-42.5-102.5s15.1-75.1,42.5-102.5S-377.6,255.6-338.9,255.6
						 M-338.9,250.6c-82.8,0-150,67.2-150,150s67.2,150,150,150s150-67.2,150-150S-256.1,250.6-338.9,250.6L-338.9,250.6z"/>
				</g>
			</g>
		</g>
	</g>
</g>
</svg>
