<?xml version="1.0" encoding="utf-8"?>
<!-- Generator: Adobe Illustrator 21.1.0, SVG Export Plug-In . SVG Version: 6.00 Build 0)  -->
<svg version="1.1" id="Layer_1" xmlns="http://www.w3.org/2000/svg" xmlns:xlink="http://www.w3.org/1999/xlink" x="0px" y="0px"
	 viewBox="0 0 300 300" style="enable-background:new 0 0 300 300;" xml:space="preserve">
<style type="text/css">
	.st0{fill:#DDDDDD;}
	.st1{clip-path:url(#SVGID_3_);}
	.st2{clip-path:url(#SVGID_5_);}
	.st3{fill:#FFFFFF;stroke:#404041;stroke-miterlimit:10;}
	.st4{fill:#F1F1F2;}
	.st5{fill:#C5C7C9;}
	.st6{fill:#FFFFFF;}
	.st7{fill:#404041;}
	.st8{fill:none;}
	.st9{fill:#808184;}
	.st10{fill:none;stroke:#404041;stroke-miterlimit:10;}
	.st11{fill:none;stroke:#808184;stroke-width:0.5;stroke-miterlimit:10;stroke-dasharray:1,2;}
	.st12{fill:#DBDCDD;}
	.st13{fill:#404041;stroke:#D0D2D3;stroke-width:0.5;stroke-miterlimit:10;}
	.st14{fill:#FFFFFF;stroke:#6D6E70;stroke-miterlimit:10;}
	.st15{fill:#FFFFFF;stroke:#929497;stroke-width:0.25;stroke-miterlimit:10;}
	.st16{fill:none;stroke:#6D6E70;stroke-width:0.5;stroke-miterlimit:10;}
	.st17{fill:#929497;}
	.st18{fill:none;stroke:#6D6E70;stroke-width:0.25;stroke-miterlimit:10;}
	.st19{fill:#808080;}
	.st20{fill:#BFBFBF;}
	.st21{fill:#F2F2F2;}
	.st22{fill:#F2F2F2;stroke:#404041;stroke-miterlimit:10;}
	.st23{fill:none;stroke:#929497;stroke-width:0.5;stroke-miterlimit:10;stroke-dasharray:1,2;}
	.st24{clip-path:url(#SVGID_9_);}
	.st25{fill:#9AA0BB;}
</style>
<g>
	<g>
		<circle id="SVGID_1_" class="st0" cx="150.1" cy="149.6" r="150"/>
	</g>
	<g>
		<defs>
			<circle id="SVGID_2_" cx="150.1" cy="149.6" r="150"/>
		</defs>
		<clipPath id="SVGID_3_">
			<use xlink:href="#SVGID_2_"  style="overflow:visible;"/>
		</clipPath>
		<g class="st1">
			<g id="XMLID_4081_">
				<defs>
					<rect id="SVGID_4_" y="-0.4" width="300" height="300"/>
				</defs>
				<clipPath id="SVGID_5_">
					<use xlink:href="#SVGID_4_"  style="overflow:visible;"/>
				</clipPath>
				<g class="st2">
					<g>
						<g>
							<g>
								<path class="st3" d="M204.9,103.1c1.1-8.2,13.2-20.3,18-32.4l0-3c0,0,1.6,0.1,3.6,10.5c1.3,6.6,4.6,26.6,8.4,67.3
									c1.1,11.6,2.7,31.6,4.3,47.9c1.6,16.6,1.5,30.4,1.5,30.4l-21.9,1.7c0,0-3.5-16.7-4.8-28.9c-1.1-10.4-2.2-20.8-3.9-37.6
									C206.4,122.7,204.7,104.5,204.9,103.1z"/>
								<path class="st3" d="M108.5,103.1c-1.1-8.2-13.2-20.3-18-32.4l0-3c0,0-1.6,0.1-3.6,10.5c-1.3,6.6-4.6,26.6-8.4,67.3
									c-1.1,11.6-2.7,31.6-4.3,47.9c-1.6,16.6-1.5,30.4-1.5,30.4l21.9,1.7c0,0,3.5-16.7,4.8-28.9c1.1-10.4,2.2-20.8,3.9-37.6
									C106.9,122.7,108.7,104.5,108.5,103.1z"/>
								<g>
									<polygon class="st4" points="72.9,222.2 95.1,223.7 94.2,226.6 72.9,225.1 									"/>
									<polygon class="st5" points="72.9,223 95.1,224.6 94.2,227.4 72.9,225.9 									"/>
								</g>
								<g id="XMLID_8741_">
									<g id="XMLID_8742_">
										<g id="XMLID_8748_">
											<g>
												<path class="st6" d="M80.5,224.3l-8.1-0.6c-0.3,0-0.5,0.2-0.5,0.4l-0.7,14.8c0,0.3,0.2,0.5,0.4,0.5l7.7,0.6l0,0
													c-0.2,0-0.5-0.2-0.4-0.5l0,0l0.7-10.4C79.7,228.9,80.6,224.3,80.5,224.3z"/>
											</g>
											<g>
												<path class="st7" d="M71.1,238.9l0.7-14.8c0-0.3,0.3-0.5,0.6-0.5l8.1,0.6h0l0,0c0,0.1,0,0.3-0.6,3.9
													c-0.1,0.5-0.2,1-0.2,1L79,239.5c0,0.1,0,0.2,0.1,0.3s0.2,0.1,0.3,0.1l0.4,0.2l-8.1-0.6
													C71.3,239.5,71.1,239.2,71.1,238.9z M78.9,239.5l0.7-10.4c0,0,0.1-0.4,0.2-1c0.2-1.1,0.6-3.3,0.6-3.7l-8-0.6
													c-0.2,0-0.4,0.1-0.4,0.4l-0.7,14.8c0,0.2,0.1,0.4,0.4,0.4l7.3,0.5C78.9,239.8,78.9,239.6,78.9,239.5z"/>
											</g>
										</g>
										<g id="XMLID_8747_">
											<g>
												<path class="st6" d="M95,225.3c0.4,0,0.7,0.3,0.7,0.5l-1.4,14.8c0,0.3-0.4,0.5-0.7,0.4L72,239.5c-0.4,0-0.7-0.3-0.7-0.5
													l0.7-14.8c0-0.3,0.4-0.5,0.7-0.4L95,225.3z"/>
											</g>
											<path class="st8" d="M95.6,225.8l-1.4,14.8c0,0.2-0.2,0.4-0.4,0.4l-14.1-1l1-15.6l14.6,1
												C95.4,225.4,95.6,225.6,95.6,225.8z"/>
											<path class="st7" d="M93.7,241c0.2,0,0.4-0.1,0.4-0.4l1.4-14.8c0-0.2-0.1-0.4-0.4-0.4l-22.9-1.6v-0.2l22.9,1.6
												c0.3,0,0.5,0.3,0.5,0.6l-1.4,14.8c0,0.3-0.3,0.5-0.6,0.5l-22.1-1.6v-0.2L93.7,241z"/>
										</g>
										<g id="XMLID_8746_">
											<g>
												<g>
													
														<rect x="80.4" y="224.6" transform="matrix(7.105533e-02 -0.9975 0.9975 7.105533e-02 -149.3785 288.8896)" class="st9" width="0.1" height="0.1"/>
												</g>
											</g>
											<g>
												<g>
													<path class="st9" d="M79.9,239.7H80v0.1L79.9,239.7L79.9,239.7z M80.3,239.8h0.2v0.1L80.3,239.8L80.3,239.8z
														 M80.9,239.8H81v0.1L80.9,239.8L80.9,239.8z M81.3,239.8h0.2v0.1L81.3,239.8L81.3,239.8z M81.8,239.9H82v0.1
														L81.8,239.9L81.8,239.9z M82.3,239.9h0.2v0.1L82.3,239.9L82.3,239.9z M82.8,240H83v0.1L82.8,240L82.8,240z M83.3,240
														h0.2v0.1L83.3,240L83.3,240z M83.8,240h0.2v0.1L83.8,240L83.8,240z M84.2,240h0.2v0.1L84.2,240L84.2,240z M84.7,240.1
														h0.2v0.1L84.7,240.1L84.7,240.1z M85.2,240.1h0.2v0.1L85.2,240.1L85.2,240.1z M85.7,240.1h0.2v0.1L85.7,240.1
														L85.7,240.1z M86.2,240.2h0.2v0.1L86.2,240.2L86.2,240.2z M86.7,240.2h0.2v0.1L86.7,240.2L86.7,240.2z M87.2,240.2h0.2
														v0.1L87.2,240.2L87.2,240.2z M87.7,240.3h0.2v0.1L87.7,240.3L87.7,240.3z M88.2,240.3h0.2v0.1L88.2,240.3L88.2,240.3z
														 M88.3,240.4h0.2v0.1L88.3,240.4L88.3,240.4z M88.8,240.4h0.2v0.1L88.8,240.4L88.8,240.4z M89.2,240.4h0.2v0.1
														L89.2,240.4L89.2,240.4z M89.7,240.5h0.2v0.1L89.7,240.5L89.7,240.5z M90.2,240.5h0.2v0.1L90.2,240.5L90.2,240.5z
														 M90.7,240.5h0.2v0.1L90.7,240.5L90.7,240.5z M91.2,240.6h0.2v0.1L91.2,240.6L91.2,240.6z M91.7,240.6h0.2v0.1
														L91.7,240.6L91.7,240.6z M92.2,240.6h0.2v0.1L92.2,240.6L92.2,240.6z M92.7,240.7h0.2v0.1L92.7,240.7L92.7,240.7z
														 M93.2,240.7h0.2v0.1L93.2,240.7L93.2,240.7z M93.6,240.7h0.2v0.1L93.6,240.7L93.6,240.7z M79.4,239.7L79.4,239.7
														c0.1,0,0.1,0,0.2,0v0.1C79.5,239.8,79.4,239.7,79.4,239.7z"/>
												</g>
											</g>
											<g>
												<g>
													
														<rect x="94.1" y="240.7" transform="matrix(7.105533e-02 -0.9975 0.9975 7.105533e-02 -152.6958 317.6142)" class="st9" width="0.1" height="0.1"/>
												</g>
											</g>
										</g>
										<g id="XMLID_8745_">
											<g>
												<g>
													
														<rect x="80.3" y="225.6" transform="matrix(7.105533e-02 -0.9975 0.9975 7.105533e-02 -150.4278 289.7657)" class="st9" width="0.1" height="0.1"/>
												</g>
											</g>
											<g>
												<g>
													<path class="st9" d="M80.8,225.6h0.2v0.1L80.8,225.6L80.8,225.6z M81.2,225.7h0.2v0.1L81.2,225.7L81.2,225.7z
														 M81.7,225.7h0.2v0.1L81.7,225.7L81.7,225.7z M82.2,225.8h0.2v0.1L82.2,225.8L82.2,225.8z M82.7,225.8h0.2v0.1
														L82.7,225.8L82.7,225.8z M83.2,225.8h0.2v0.1L83.2,225.8L83.2,225.8z M83.7,225.9h0.2v0.1L83.7,225.9L83.7,225.9z
														 M84.2,225.9h0.2v0.1L84.2,225.9L84.2,225.9z M84.7,225.9h0.2v0.1L84.7,225.9L84.7,225.9z M85.2,226h0.2v0.1L85.2,226
														L85.2,226z M85.7,226h0.2v0.1L85.7,226L85.7,226z M86.2,226h0.2v0.1L86.2,226L86.2,226z M86.6,226.1h0.2v0.1
														L86.6,226.1L86.6,226.1z M87.2,226.1h0.2v0.1L87.2,226.1L87.2,226.1z M87.6,226.2h0.2v0.1L87.6,226.2L87.6,226.2z
														 M88.1,226.2h0.2v0.1L88.1,226.2L88.1,226.2z M88.6,226.2h0.2v0.1L88.6,226.2L88.6,226.2z M89.1,226.3h0.2v0.1
														L89.1,226.3L89.1,226.3z M89.6,226.3h0.2v0.1L89.6,226.3L89.6,226.3z M90.1,226.3h0.2v0.1L90.1,226.3L90.1,226.3z
														 M90.6,226.4h0.2v0.1L90.6,226.4L90.6,226.4z M91.1,226.4h0.2v0.1L91.1,226.4L91.1,226.4z M91.6,226.4h0.2v0.1
														L91.6,226.4L91.6,226.4z M92.1,226.5h0.2v0.1L92.1,226.5L92.1,226.5z M92.5,226.5h0.2v0.1L92.5,226.5L92.5,226.5z
														 M93.1,226.5h0.2v0.1L93.1,226.5L93.1,226.5z M93.5,226.6h0.2v0.1L93.5,226.6L93.5,226.6z M94,226.6h0.2v0.1L94,226.6
														L94,226.6z M94.5,226.7h0.2v0.1L94.5,226.7L94.5,226.7z M95,226.7h0.2v0.1L95,226.7L95,226.7z"/>
												</g>
											</g>
											<g>
												<g>
													<polygon class="st9" points="95.5,226.8 95.6,226.8 95.6,226.7 95.5,226.7 95.5,226.7 95.5,226.7 													"/>
												</g>
											</g>
											<g>
												<g>
													
														<rect x="95.5" y="226.2" transform="matrix(7.105533e-02 -0.9975 0.9975 7.105533e-02 -136.8228 305.5339)" class="st9" width="0.2" height="0.1"/>
												</g>
											</g>
											<g>
												<g>
													<polygon class="st9" points="95.6,225.8 95.7,225.8 95.7,225.6 95.6,225.6 95.6,225.7 95.6,225.7 													"/>
												</g>
											</g>
											<g>
												<g>
													<path class="st9" d="M80.8,224.6H81v0.1L80.8,224.6L80.8,224.6z M81.3,224.6h0.2v0.1L81.3,224.6L81.3,224.6z
														 M81.8,224.7H82v0.1L81.8,224.7L81.8,224.7z M82.3,224.7h0.2v0.1L82.3,224.7L82.3,224.7z M82.8,224.7H83v0.1
														L82.8,224.7L82.8,224.7z M83.3,224.8h0.2v0.1L83.3,224.8L83.3,224.8z M83.8,224.8h0.2v0.1L83.8,224.8L83.8,224.8z
														 M84.3,224.8h0.2v0.1L84.3,224.8L84.3,224.8z M84.8,224.9h0.2v0.1L84.8,224.9L84.8,224.9z M85.2,224.9h0.2v0.1
														L85.2,224.9L85.2,224.9z M85.7,224.9h0.2v0.1L85.7,224.9L85.7,224.9z M86.2,225h0.2v0.1L86.2,225L86.2,225z M86.7,225
														h0.2v0.1L86.7,225L86.7,225z M87.2,225.1h0.2v0.1L87.2,225.1L87.2,225.1z M87.7,225.1h0.2v0.1L87.7,225.1L87.7,225.1z
														 M88.2,225.1h0.2v0.1L88.2,225.1L88.2,225.1z M88.7,225.2h0.2v0.1L88.7,225.2L88.7,225.2z M89.2,225.2h0.2v0.1
														L89.2,225.2L89.2,225.2z M89.7,225.2h0.2v0.1L89.7,225.2L89.7,225.2z M90.2,225.3h0.2v0.1L90.2,225.3L90.2,225.3z
														 M90.7,225.3h0.2v0.1L90.7,225.3L90.7,225.3z M91.2,225.3h0.2v0.1L91.2,225.3L91.2,225.3z M91.6,225.4h0.2v0.1
														L91.6,225.4L91.6,225.4z M92.1,225.4h0.2v0.1L92.1,225.4L92.1,225.4z M92.6,225.5h0.2v0.1L92.6,225.5L92.6,225.5z
														 M93.1,225.5h0.2v0.1L93.1,225.5L93.1,225.5z M93.6,225.5h0.2v0.1L93.6,225.5L93.6,225.5z M94.1,225.6h0.2v0.1
														L94.1,225.6L94.1,225.6z M94.6,225.6h0.2v0.1L94.6,225.6L94.6,225.6z M95.1,225.6h0.2v0.1L95.1,225.6L95.1,225.6z"/>
												</g>
											</g>
											<g>
												<g>
													
														<rect x="80.4" y="224.5" transform="matrix(7.105533e-02 -0.9975 0.9975 7.105533e-02 -149.3042 288.8781)" class="st9" width="0.1" height="0.1"/>
												</g>
											</g>
										</g>
										<g id="XMLID_8744_">
											<g>
												<g>
													
														<rect x="71.8" y="225" transform="matrix(7.105533e-02 -0.9975 0.9975 7.105533e-02 -157.7265 280.7343)" class="st9" width="0.1" height="0.1"/>
												</g>
											</g>
											<g>
												<g>
													<path class="st9" d="M72.3,225.1h0.2v0.1L72.3,225.1L72.3,225.1z M72.8,225.1h0.2v0.1L72.8,225.1L72.8,225.1z
														 M73.3,225.1h0.2v0.1L73.3,225.1L73.3,225.1z M73.8,225.2h0.2v0.1L73.8,225.2L73.8,225.2z M74.3,225.2h0.2v0.1
														L74.3,225.2L74.3,225.2z M74.8,225.2h0.2v0.1L74.8,225.2L74.8,225.2z M75.3,225.3h0.2v0.1L75.3,225.3L75.3,225.3z
														 M75.8,225.3h0.2v0.1L75.8,225.3L75.8,225.3z M76.3,225.4h0.2v0.1L76.3,225.4L76.3,225.4z M76.8,225.4H77v0.1
														L76.8,225.4L76.8,225.4z M77.3,225.4h0.2v0.1L77.3,225.4L77.3,225.4z M77.8,225.5H78v0.1L77.8,225.5L77.8,225.5z
														 M78.3,225.5h0.2v0.1L78.3,225.5L78.3,225.5z M78.8,225.5H79v0.1L78.8,225.5L78.8,225.5z M79.3,225.6h0.2v0.1
														L79.3,225.6L79.3,225.6z"/>
												</g>
											</g>
											<g>
												<g>
													<polygon class="st9" points="79.8,225.7 80,225.7 80,225.6 79.9,225.6 79.9,225.6 79.9,225.6 													"/>
												</g>
											</g>
											<g>
												<g>
													<polygon class="st9" points="80,224.7 80,224.7 80,224.6 79.9,224.6 79.9,224.6 80,224.6 													"/>
												</g>
											</g>
											<g>
												<g>
													<path class="st9" d="M72.3,224h0.2v0.1L72.3,224L72.3,224z M72.8,224H73v0.1L72.8,224L72.8,224z M73.3,224.1h0.2v0.1
														L73.3,224.1L73.3,224.1z M73.9,224.1H74v0.1L73.9,224.1L73.9,224.1z M74.4,224.1h0.2v0.1L74.4,224.1L74.4,224.1z
														 M74.9,224.2H75v0.1L74.9,224.2L74.9,224.2z M75.4,224.2h0.2v0.1L75.4,224.2L75.4,224.2z M75.9,224.3H76v0.1
														L75.9,224.3L75.9,224.3z M76.4,224.3h0.2v0.1L76.4,224.3L76.4,224.3z M76.9,224.3H77v0.1L76.9,224.3L76.9,224.3z
														 M77.4,224.4h0.2v0.1L77.4,224.4L77.4,224.4z M77.9,224.4H78v0.1L77.9,224.4L77.9,224.4z M78.4,224.4h0.2v0.1
														L78.4,224.4L78.4,224.4z M78.9,224.5h0.2v0.1L78.9,224.5L78.9,224.5z M79.4,224.5h0.2v0.1L79.4,224.5L79.4,224.5z"/>
												</g>
											</g>
											<g>
												<g>
													
														<rect x="71.9" y="224" transform="matrix(7.105533e-02 -0.9975 0.9975 7.105533e-02 -156.603 279.8468)" class="st9" width="0.1" height="0.1"/>
												</g>
											</g>
										</g>
										<g id="XMLID_8743_">
											<g>
												<path class="st9" d="M71.3,239.1h0.2v0.1L71.3,239.1L71.3,239.1z M71.8,239.1H72v0.1L71.8,239.1L71.8,239.1z
													 M72.3,239.2h0.2v0.1L72.3,239.2L72.3,239.2z M72.8,239.2h0.2v0.1L72.8,239.2L72.8,239.2z M73.3,239.2h0.2v0.1
													L73.3,239.2L73.3,239.2z M73.8,239.3h0.2v0.1L73.8,239.3L73.8,239.3z M74.3,239.3h0.2v0.1L74.3,239.3L74.3,239.3z
													 M74.8,239.3h0.2v0.1L74.8,239.3L74.8,239.3z M75.2,239.4h0.2v0.1L75.2,239.4L75.2,239.4z M75.7,239.4h-0.2v0.1
													L75.7,239.4L75.7,239.4z M75.9,239.4H76v0.1L75.9,239.4L75.9,239.4z M76.3,239.5h0.2v0.1L76.3,239.5L76.3,239.5z
													 M76.8,239.5H77v0.1L76.8,239.5L76.8,239.5z M77.3,239.6h0.2v0.1L77.3,239.6L77.3,239.6z M77.8,239.6H78v0.1L77.8,239.6
													L77.8,239.6z M78.3,239.6h0.2v0.1L78.3,239.6L78.3,239.6z M78.8,239.7H79v0.1L78.8,239.7L78.8,239.7z M79.3,239.7h0.2
													v0.1L79.3,239.7L79.3,239.7z M79.8,239.7H80v0.1L79.8,239.7L79.8,239.7z M80.3,239.8L80.3,239.8L80.3,239.8L80.3,239.8
													L80.3,239.8z"/>
											</g>
										</g>
										<path class="st10" d="M71.5,238.9l0.7-14.8c0-0.2,0.1-0.3,0.3-0.4v-0.1l22.9,1.6c0.3,0,0.5,0.3,0.5,0.6l-1.4,14.8
											c0,0.3-0.3,0.5-0.6,0.5l-22.1-1.6v-0.2C71.6,239.2,71.5,239.1,71.5,238.9z"/>
									</g>
								</g>
								<g>
									<polygon class="st4" points="240.4,222.2 218.3,223.7 219.2,226.6 240.4,225.1 									"/>
									<polygon class="st5" points="240.4,223 218.3,224.6 219.2,227.4 240.4,225.9 									"/>
								</g>
								<g id="XMLID_8733_">
									<g id="XMLID_8734_">
										<g id="XMLID_8740_">
											<g>
												<path class="st6" d="M232.9,224.3l8.1-0.6c0.3,0,0.5,0.2,0.5,0.4l0.7,14.8c0,0.3-0.2,0.5-0.4,0.5L234,240l0,0
													c0.2,0,0.5-0.2,0.4-0.5l0,0l-0.7-10.4C233.7,228.9,232.8,224.3,232.9,224.3z"/>
											</g>
											<g>
												<path class="st7" d="M241.7,239.5l-8.1,0.6l0.4-0.2c0.1,0,0.2-0.1,0.3-0.1c0-0.1,0.1-0.1,0.1-0.3l-0.7-10.4
													c0,0-0.1-0.5-0.2-1c-0.6-3.6-0.6-3.8-0.6-3.9l0,0h0l8.1-0.6c0.3,0,0.5,0.2,0.6,0.5l0.7,14.8
													C242.3,239.2,242,239.5,241.7,239.5z M234.4,239.9l7.3-0.5c0.2,0,0.4-0.2,0.4-0.4l-0.7-14.8c0-0.2-0.2-0.4-0.4-0.4
													l-8,0.6c0,0.4,0.4,2.6,0.6,3.7c0.1,0.7,0.2,1,0.2,1l0.7,10.4C234.5,239.6,234.5,239.8,234.4,239.9z"/>
											</g>
										</g>
										<g id="XMLID_8739_">
											<g>
												<path class="st6" d="M218.4,225.3c-0.4,0-0.7,0.3-0.7,0.5l1.4,14.8c0,0.3,0.4,0.5,0.7,0.4l21.5-1.6
													c0.4,0,0.7-0.3,0.7-0.5l-0.7-14.8c0-0.3-0.4-0.5-0.7-0.4L218.4,225.3z"/>
											</g>
											<path class="st8" d="M217.8,225.8l1.4,14.8c0,0.2,0.2,0.4,0.4,0.4l14.1-1l-1-15.6l-14.6,1
												C218,225.4,217.8,225.6,217.8,225.8z"/>
											<path class="st7" d="M219.6,241c-0.2,0-0.4-0.1-0.4-0.4l-1.4-14.8c0-0.2,0.1-0.4,0.4-0.4l22.9-1.6v-0.2l-22.9,1.6
												c-0.3,0-0.5,0.3-0.5,0.6l1.4,14.8c0,0.3,0.3,0.5,0.6,0.5l22.1-1.6v-0.2L219.6,241z"/>
										</g>
										<g id="XMLID_8738_">
											<g>
												<g>
													
														<rect x="232.9" y="224.6" transform="matrix(0.9975 -7.105533e-02 7.105533e-02 0.9975 -15.3752 17.1213)" class="st9" width="0.1" height="0.1"/>
												</g>
											</g>
											<g>
												<g>
													<path class="st9" d="M233.5,239.8h-0.2v-0.1L233.5,239.8L233.5,239.8z M233,239.9h-0.2v-0.1L233,239.9L233,239.9z
														 M232.6,239.9h-0.2v-0.1L232.6,239.9L232.6,239.9z M232.1,239.9h-0.2v-0.1L232.1,239.9L232.1,239.9z M231.6,240h-0.2
														v-0.1L231.6,240L231.6,240z M231.1,240h-0.2v-0.1L231.1,240L231.1,240z M230.6,240h-0.2v-0.1L230.6,240L230.6,240z
														 M230.1,240h-0.2V240L230.1,240L230.1,240z M229.6,240.1h-0.2V240L229.6,240.1L229.6,240.1z M229.1,240.1H229V240
														L229.1,240.1L229.1,240.1z M228.7,240.1h-0.2V240L228.7,240.1L228.7,240.1z M228.2,240.2H228v-0.1L228.2,240.2
														L228.2,240.2z M227.7,240.2h-0.2v-0.1L227.7,240.2L227.7,240.2z M227.2,240.3H227v-0.1L227.2,240.3L227.2,240.3z
														 M226.7,240.3h-0.2v-0.1L226.7,240.3L226.7,240.3z M226.2,240.3H226v-0.1L226.2,240.3L226.2,240.3z M225.7,240.4h-0.2
														v-0.1L225.7,240.4L225.7,240.4z M225.2,240.4h-0.2v-0.1L225.2,240.4L225.2,240.4z M225.1,240.4h-0.2v-0.1L225.1,240.4
														L225.1,240.4z M224.6,240.5h-0.2v-0.1L224.6,240.5L224.6,240.5z M224.1,240.5H224v-0.1L224.1,240.5L224.1,240.5z
														 M223.6,240.5h-0.2v-0.1L223.6,240.5L223.6,240.5z M223.2,240.6H223v-0.1L223.2,240.6L223.2,240.6z M222.7,240.6h-0.2
														v-0.1L222.7,240.6L222.7,240.6z M222.2,240.7H222v-0.1L222.2,240.7L222.2,240.7z M221.7,240.7h-0.2v-0.1L221.7,240.7
														L221.7,240.7z M221.2,240.7H221v-0.1L221.2,240.7L221.2,240.7z M220.7,240.8h-0.2v-0.1L220.7,240.8L220.7,240.8z
														 M220.2,240.8h-0.2v-0.1L220.2,240.8L220.2,240.8z M219.7,240.8h-0.2v-0.1L219.7,240.8L219.7,240.8z M233.8,239.8
														L233.8,239.8c0-0.1,0.1-0.1,0.1-0.1l0.1,0.1C234,239.7,233.9,239.8,233.8,239.8z"/>
												</g>
											</g>
											<g>
												<g>
													
														<rect x="219.2" y="240.8" transform="matrix(0.9975 -7.105533e-02 7.105533e-02 0.9975 -16.5592 16.1851)" class="st9" width="0.1" height="0.1"/>
												</g>
											</g>
										</g>
										<g id="XMLID_8737_">
											<g>
												<g>
													
														<rect x="233" y="225.7" transform="matrix(0.9975 -7.105533e-02 7.105533e-02 0.9975 -15.4483 17.1286)" class="st9" width="0.1" height="0.1"/>
												</g>
											</g>
											<g>
												<g>
													<path class="st9" d="M232.7,225.7h-0.2v-0.1L232.7,225.7L232.7,225.7z M232.1,225.8H232v-0.1L232.1,225.8L232.1,225.8z
														 M231.7,225.8h-0.2v-0.1L231.7,225.8L231.7,225.8z M231.2,225.8H231v-0.1L231.2,225.8L231.2,225.8z M230.7,225.9h-0.2
														v-0.1L230.7,225.9L230.7,225.9z M230.2,225.9H230v-0.1L230.2,225.9L230.2,225.9z M229.7,225.9h-0.2v-0.1L229.7,225.9
														L229.7,225.9z M229.2,226H229v-0.1L229.2,226L229.2,226z M228.7,226h-0.2v-0.1L228.7,226L228.7,226z M228.2,226.1H228
														V226L228.2,226.1L228.2,226.1z M227.7,226.1h-0.2V226L227.7,226.1L227.7,226.1z M227.2,226.1h-0.2V226L227.2,226.1
														L227.2,226.1z M226.7,226.2h-0.2v-0.1L226.7,226.2L226.7,226.2z M226.2,226.2h-0.2v-0.1L226.2,226.2L226.2,226.2z
														 M225.7,226.2h-0.2v-0.1L225.7,226.2L225.7,226.2z M225.3,226.3h-0.2v-0.1L225.3,226.3L225.3,226.3z M224.8,226.3h-0.2
														v-0.1L224.8,226.3L224.8,226.3z M224.3,226.3h-0.2v-0.1L224.3,226.3L224.3,226.3z M223.8,226.4h-0.2v-0.1L223.8,226.4
														L223.8,226.4z M223.3,226.4h-0.2v-0.1L223.3,226.4L223.3,226.4z M222.8,226.5h-0.2v-0.1L222.8,226.5L222.8,226.5z
														 M222.3,226.5h-0.2v-0.1L222.3,226.5L222.3,226.5z M221.8,226.5h-0.2v-0.1L221.8,226.5L221.8,226.5z M221.3,226.6h-0.2
														v-0.1L221.3,226.6L221.3,226.6z M220.8,226.6h-0.2v-0.1L220.8,226.6L220.8,226.6z M220.4,226.6h-0.2v-0.1L220.4,226.6
														L220.4,226.6z M219.8,226.7h-0.2v-0.1L219.8,226.7L219.8,226.7z M219.4,226.7h-0.2v-0.1L219.4,226.7L219.4,226.7z
														 M218.9,226.7h-0.2v-0.1L218.9,226.7L218.9,226.7z M218.4,226.7h-0.2v-0.1L218.4,226.7L218.4,226.7z"/>
												</g>
											</g>
											<g>
												<g>
													<polygon class="st9" points="217.9,226.8 217.8,226.8 217.7,226.7 217.8,226.7 217.8,226.7 217.9,226.7 													
														"/>
												</g>
											</g>
											<g>
												<g>
													
														<rect x="217.7" y="226.1" transform="matrix(0.9975 -7.105533e-02 7.105533e-02 0.9975 -15.5249 16.0448)" class="st9" width="0.1" height="0.2"/>
												</g>
											</g>
											<g>
												<g>
													<polygon class="st9" points="217.8,225.8 217.7,225.8 217.7,225.6 217.8,225.6 217.8,225.7 217.8,225.7 													
														"/>
												</g>
											</g>
											<g>
												<g>
													<path class="st9" d="M232.6,224.7h-0.2v-0.1L232.6,224.7L232.6,224.7z M232.1,224.7h-0.2v-0.1L232.1,224.7L232.1,224.7
														z M231.6,224.7h-0.2v-0.1L231.6,224.7L231.6,224.7z M231.1,224.8h-0.2v-0.1L231.1,224.8L231.1,224.8z M230.6,224.8
														h-0.2v-0.1L230.6,224.8L230.6,224.8z M230.1,224.9h-0.2v-0.1L230.1,224.9L230.1,224.9z M229.6,224.9h-0.2v-0.1
														L229.6,224.9L229.6,224.9z M229.1,224.9H229v-0.1L229.1,224.9L229.1,224.9z M228.6,225h-0.2v-0.1L228.6,225L228.6,225z
														 M228.1,225H228v-0.1L228.1,225L228.1,225z M227.7,225h-0.2v-0.1L227.7,225L227.7,225z M227.2,225.1H227V225
														L227.2,225.1L227.2,225.1z M226.7,225.1h-0.2V225L226.7,225.1L226.7,225.1z M226.2,225.1H226V225L226.2,225.1
														L226.2,225.1z M225.7,225.2h-0.2v-0.1L225.7,225.2L225.7,225.2z M225.2,225.2H225v-0.1L225.2,225.2L225.2,225.2z
														 M224.7,225.3h-0.2v-0.1L224.7,225.3L224.7,225.3z M224.2,225.3H224v-0.1L224.2,225.3L224.2,225.3z M223.7,225.3h-0.2
														v-0.1L223.7,225.3L223.7,225.3z M223.2,225.4h-0.2v-0.1L223.2,225.4L223.2,225.4z M222.7,225.4h-0.2v-0.1L222.7,225.4
														L222.7,225.4z M222.2,225.4h-0.2v-0.1L222.2,225.4L222.2,225.4z M221.7,225.5h-0.2v-0.1L221.7,225.5L221.7,225.5z
														 M221.3,225.5h-0.2v-0.1L221.3,225.5L221.3,225.5z M220.7,225.5h-0.2v-0.1L220.7,225.5L220.7,225.5z M220.3,225.6h-0.2
														v-0.1L220.3,225.6L220.3,225.6z M219.8,225.6h-0.2v-0.1L219.8,225.6L219.8,225.6z M219.3,225.6h-0.2v-0.1L219.3,225.6
														L219.3,225.6z M218.8,225.7h-0.2v-0.1L218.8,225.7L218.8,225.7z M218.3,225.7h-0.2v-0.1L218.3,225.7L218.3,225.7z"/>
												</g>
											</g>
											<g>
												<g>
													
														<rect x="232.9" y="224.6" transform="matrix(0.9975 -7.105533e-02 7.105533e-02 0.9975 -15.373 17.119)" class="st9" width="0.1" height="0.1"/>
												</g>
											</g>
										</g>
										<g id="XMLID_8736_">
											<g>
												<g>
													
														<rect x="241.5" y="225" transform="matrix(0.9975 -7.105533e-02 7.105533e-02 0.9975 -15.3833 17.7303)" class="st9" width="0.1" height="0.1"/>
												</g>
											</g>
											<g>
												<g>
													<path class="st9" d="M241.1,225.1H241V225L241.1,225.1L241.1,225.1z M240.6,225.2h-0.2v-0.1L240.6,225.2L240.6,225.2z
														 M240.1,225.2H240v-0.1L240.1,225.2L240.1,225.2z M239.6,225.2h-0.2v-0.1L239.6,225.2L239.6,225.2z M239.1,225.3H239
														v-0.1L239.1,225.3L239.1,225.3z M238.6,225.3h-0.2v-0.1L238.6,225.3L238.6,225.3z M238.1,225.4h-0.2v-0.1L238.1,225.4
														L238.1,225.4z M237.6,225.4h-0.2v-0.1L237.6,225.4L237.6,225.4z M237.1,225.4h-0.2v-0.1L237.1,225.4L237.1,225.4z
														 M236.6,225.5h-0.2v-0.1L236.6,225.5L236.6,225.5z M236.1,225.5h-0.2v-0.1L236.1,225.5L236.1,225.5z M235.6,225.5h-0.2
														v-0.1L235.6,225.5L235.6,225.5z M235.1,225.6h-0.2v-0.1L235.1,225.6L235.1,225.6z M234.6,225.6h-0.2v-0.1L234.6,225.6
														L234.6,225.6z M234,225.6h-0.2v-0.1L234,225.6L234,225.6z"/>
												</g>
											</g>
											<g>
												<g>
													<polygon class="st9" points="233.6,225.7 233.4,225.7 233.4,225.6 233.5,225.6 233.5,225.6 233.5,225.6 													
														"/>
												</g>
											</g>
											<g>
												<g>
													<polygon class="st9" points="233.4,224.7 233.4,224.7 233.3,224.6 233.5,224.6 233.5,224.6 233.4,224.6 													
														"/>
												</g>
											</g>
											<g>
												<g>
													<path class="st9" d="M241,224.1h-0.2V224L241,224.1L241,224.1z M240.6,224.1h-0.2V224L240.6,224.1L240.6,224.1z
														 M240,224.2h-0.2v-0.1L240,224.2L240,224.2z M239.5,224.2h-0.2v-0.1L239.5,224.2L239.5,224.2z M239,224.2h-0.2v-0.1
														L239,224.2L239,224.2z M238.5,224.3h-0.2v-0.1L238.5,224.3L238.5,224.3z M238,224.3h-0.2v-0.1L238,224.3L238,224.3z
														 M237.5,224.3h-0.2v-0.1L237.5,224.3L237.5,224.3z M237,224.4h-0.2v-0.1L237,224.4L237,224.4z M236.5,224.4h-0.2v-0.1
														L236.5,224.4L236.5,224.4z M236,224.5h-0.2v-0.1L236,224.5L236,224.5z M235.5,224.5h-0.2v-0.1L235.5,224.5L235.5,224.5
														z M235,224.5h-0.2v-0.1L235,224.5L235,224.5z M234.5,224.6h-0.2v-0.1L234.5,224.6L234.5,224.6z M234,224.6h-0.2v-0.1
														L234,224.6L234,224.6z"/>
												</g>
											</g>
											<g>
												<g>
													
														<rect x="241.4" y="224" transform="matrix(0.9975 -7.105533e-02 7.105533e-02 0.9975 -15.3077 17.723)" class="st9" width="0.1" height="0.1"/>
												</g>
											</g>
										</g>
										<g id="XMLID_8735_">
											<g>
												<path class="st9" d="M242.1,239.2h-0.2v-0.1L242.1,239.2L242.1,239.2z M241.6,239.2h-0.2v-0.1L241.6,239.2L241.6,239.2z
													 M241.1,239.2h-0.2v-0.1L241.1,239.2L241.1,239.2z M240.6,239.3h-0.2v-0.1L240.6,239.3L240.6,239.3z M240.1,239.3H240
													v-0.1L240.1,239.3L240.1,239.3z M239.6,239.3h-0.2v-0.1L239.6,239.3L239.6,239.3z M239.1,239.4H239v-0.1L239.1,239.4
													L239.1,239.4z M238.6,239.4h-0.2v-0.1L238.6,239.4L238.6,239.4z M238.1,239.5H238v-0.1L238.1,239.5L238.1,239.5z
													 M237.7,239.5h0.2v-0.1L237.7,239.5L237.7,239.5z M237.5,239.5h-0.2v-0.1L237.5,239.5L237.5,239.5z M237,239.6h-0.2
													v-0.1L237,239.6L237,239.6z M236.6,239.6h-0.2v-0.1L236.6,239.6L236.6,239.6z M236,239.6h-0.2v-0.1L236,239.6L236,239.6
													z M235.6,239.7h-0.2v-0.1L235.6,239.7L235.6,239.7z M235.1,239.7h-0.2v-0.1L235.1,239.7L235.1,239.7z M234.6,239.7h-0.2
													v-0.1L234.6,239.7L234.6,239.7z M234.1,239.8h-0.2v-0.1L234.1,239.8L234.1,239.8z M233.6,239.8h-0.2v-0.1L233.6,239.8
													L233.6,239.8z M233.1,239.9L233.1,239.9L233.1,239.9L233.1,239.9L233.1,239.9z"/>
											</g>
										</g>
									</g>
									<path class="st10" d="M242,238.9l-0.7-14.8c0-0.2-0.1-0.3-0.3-0.4v-0.1l-22.9,1.6c-0.3,0-0.5,0.3-0.5,0.6l1.4,14.8
										c0,0.3,0.3,0.5,0.6,0.5l22.1-1.6v-0.2C242,239.2,242.1,239.1,242,238.9z"/>
								</g>
							</g>
							<path class="st3" d="M207.7,198.1c-0.9-11.3-1.5-33-1.7-58.9c-0.1-11.4-0.2-21.9,2.5-31.1c4.6-16,15.3-35.6,14.7-39.7
								c-0.2-1.1-1.2-2-2.7-2.9l0,0c0,0-1.1-1.1-7.4-2.7l0,0c-0.5-0.1-1-0.3-1.5-0.5c0,0-7.5-2.7-9.1-3.4c-1.1-0.5-2.3-0.9-3.5-1.5
								l0.2,0.1c-0.7-0.3-1.4-0.6-2-0.8c-3-1.3-6.1-2.2-8.7-3.3c-2.7-1.2-5.3-2.4-7-3.3c0-0.1-9-2.5-23.7-2.5
								c-14.1,0-25.9,2.4-25.9,2.5c-1.6,0.9-4.2,1.7-6.9,2.9c-2.6,1.1-5.6,2.5-8.7,3.7c-0.6,0.3-14.4,5.6-14.4,5.6
								c-0.5,0.2-1,0.3-1.5,0.5l0,0c-6.4,1.6-7.4,2.7-7.4,2.7l0,0c-1.5,0.8-2.6,1.7-2.7,2.9c-0.5,4.1,10.1,23.7,14.7,39.7
								c2.7,9.2,2.6,19.7,2.5,31.1c-0.3,25.9-0.9,47.6-1.8,58.9c-0.9,12.1-3.8,38.3-3.8,38.3c-0.1,0-1.4,12.6-1.4,12.6
								s0.9,2,20.6,5.3c12.7,2.1,25.5,2.6,33,2.7c5.2,0.2,21.8,0,38.1-2.7c19.6-3.2,20.6-5.3,20.6-5.3s-1.3-12.6-1.4-12.6
								C211.4,236.3,208.6,210.2,207.7,198.1z"/>
							<g>
								<path class="st4" d="M101.9,99.1c0,0,4.9,3.8,5.7,15.1s0,18.2,0,18.2s0.2-9.3-1.7-20.1S101.9,99.1,101.9,99.1z"/>
								<path class="st5" d="M101.9,99.1c0,0,3.1,5.5,4.1,9.7s1.4,16,1.4,16s-0.3-9.6-2.5-16.7C102.8,101,101.9,99.1,101.9,99.1z"/>
							</g>
							<g>
								<path class="st4" d="M211.5,99.1c0,0-4.9,3.8-5.7,15.1c-0.9,11.4,0,18.2,0,18.2s-0.2-9.3,1.7-20.1
									C209.5,101.5,211.5,99.1,211.5,99.1z"/>
								<path class="st5" d="M211.5,99.1c0,0-3.1,5.5-4.1,9.7s-1.4,16-1.4,16s0.3-9.6,2.5-16.7C210.6,101,211.5,99.1,211.5,99.1z"/>
							</g>
						</g>
						<g id="XMLID_8336_">
							<polygon id="XMLID_8732_" class="st4" points="149.7,256.6 152.3,256.6 152.3,61.7 149.7,62.7 							"/>
							<polygon id="XMLID_8731_" class="st5" points="150.5,256.6 153.2,256.6 154,60.5 150.5,61.7 							"/>
							<path id="XMLID_8730_" class="st3" d="M163.3,66.9c-0.4-2.5-5.2,1.9-5.2,1.9s-2.6,1.4-6,1.6l-0.8,3.9v0.5v20v162
								c0,0.4,0.3,0.7,0.7,0.7h10.6c0.4,0,0.7-0.3,0.7-0.7V73.4V75v-0.7L163.3,66.9L163.3,66.9z"/>
							<polyline class="st3" points="161.8,66.2 153.4,66.2 151.3,66.1 151.3,92 							"/>
							<polyline id="XMLID_8729_" class="st11" points="91.8,73.4 157.3,57.7 221.5,73.4 							"/>
							<g id="XMLID_8715_">
								<circle id="XMLID_8728_" class="st4" cx="157.1" cy="108.8" r="2.1"/>
								<circle id="XMLID_8727_" class="st12" cx="157.1" cy="108.7" r="2"/>
								<polygon id="XMLID_8726_" class="st13" points="157.1,111.8 157.6,108.8 157.2,105.5 156.3,108.8 								"/>
								<circle id="XMLID_8725_" class="st14" cx="157.1" cy="108.4" r="2"/>
								<circle id="XMLID_8724_" class="st15" cx="157.1" cy="108.4" r="1.7"/>
								<circle id="XMLID_8723_" class="st7" cx="156.5" cy="108" r="0.3"/>
								<circle id="XMLID_8722_" class="st7" cx="157.8" cy="108" r="0.3"/>
								<circle id="XMLID_8721_" class="st7" cx="156.5" cy="109.2" r="0.3"/>
								<circle id="XMLID_8720_" class="st7" cx="157.8" cy="109.2" r="0.3"/>
								<line id="XMLID_8719_" class="st16" x1="156.5" y1="108.1" x2="157.9" y2="108.1"/>
								<line id="XMLID_8718_" class="st16" x1="156.5" y1="107.9" x2="157.9" y2="107.9"/>
								<line id="XMLID_8717_" class="st16" x1="156.5" y1="109.3" x2="157.8" y2="109.3"/>
								<line id="XMLID_8716_" class="st16" x1="156.5" y1="109.1" x2="157.8" y2="109.1"/>
							</g>
							<g id="XMLID_8701_">
								<circle id="XMLID_8714_" class="st4" cx="157.1" cy="141.5" r="2.1"/>
								<circle id="XMLID_8713_" class="st12" cx="157.1" cy="141.5" r="2"/>
								<polygon id="XMLID_8712_" class="st13" points="157.1,144.5 157.6,141.6 157.2,138.3 156.3,141.5 								"/>
								<circle id="XMLID_8711_" class="st14" cx="157.1" cy="141.2" r="2"/>
								<circle id="XMLID_8710_" class="st15" cx="157.1" cy="141.2" r="1.7"/>
								<circle id="XMLID_8709_" class="st7" cx="156.5" cy="140.7" r="0.3"/>
								<circle id="XMLID_8708_" class="st7" cx="157.8" cy="140.8" r="0.3"/>
								<circle id="XMLID_8707_" class="st7" cx="156.5" cy="141.9" r="0.3"/>
								<circle id="XMLID_8706_" class="st7" cx="157.8" cy="141.9" r="0.3"/>
								<line id="XMLID_8705_" class="st16" x1="156.5" y1="140.8" x2="157.9" y2="140.8"/>
								<line id="XMLID_8704_" class="st16" x1="156.5" y1="140.6" x2="157.9" y2="140.6"/>
								<line id="XMLID_8703_" class="st16" x1="156.5" y1="142" x2="157.8" y2="142"/>
								<line id="XMLID_8702_" class="st16" x1="156.5" y1="141.8" x2="157.8" y2="141.8"/>
							</g>
							<g id="XMLID_8679_">
								<circle id="XMLID_8700_" class="st4" cx="157.1" cy="174.3" r="2.1"/>
								<circle id="XMLID_8699_" class="st12" cx="157.1" cy="174.2" r="2"/>
								<polygon id="XMLID_8698_" class="st13" points="157.1,177.3 157.6,174.4 157.2,171 156.3,174.3 								"/>
								<circle id="XMLID_8697_" class="st14" cx="157.1" cy="173.9" r="2"/>
								<circle id="XMLID_8696_" class="st15" cx="157.1" cy="173.9" r="1.7"/>
								<circle id="XMLID_8695_" class="st7" cx="156.5" cy="173.5" r="0.3"/>
								<circle id="XMLID_8686_" class="st7" cx="157.8" cy="173.5" r="0.3"/>
								<circle id="XMLID_8685_" class="st7" cx="156.5" cy="174.7" r="0.3"/>
								<circle id="XMLID_8684_" class="st7" cx="157.8" cy="174.7" r="0.3"/>
								<line id="XMLID_8683_" class="st16" x1="156.5" y1="173.6" x2="157.9" y2="173.6"/>
								<line id="XMLID_8682_" class="st16" x1="156.5" y1="173.4" x2="157.9" y2="173.4"/>
								<line id="XMLID_8681_" class="st16" x1="156.5" y1="174.8" x2="157.8" y2="174.8"/>
								<line id="XMLID_8680_" class="st16" x1="156.5" y1="174.6" x2="157.8" y2="174.6"/>
							</g>
							<g id="XMLID_8581_">
								<circle id="XMLID_8678_" class="st4" cx="157.1" cy="207.1" r="2.1"/>
								<circle id="XMLID_8677_" class="st12" cx="157.1" cy="207" r="2"/>
								<polygon id="XMLID_8676_" class="st13" points="157.1,210 157.6,207.1 157.2,203.8 156.3,207 								"/>
								<circle id="XMLID_8675_" class="st14" cx="157.1" cy="206.7" r="2"/>
								<circle id="XMLID_8674_" class="st15" cx="157.1" cy="206.7" r="1.7"/>
								<circle id="XMLID_8673_" class="st7" cx="156.5" cy="206.2" r="0.3"/>
								<circle id="XMLID_8588_" class="st7" cx="157.8" cy="206.3" r="0.3"/>
								<circle id="XMLID_8587_" class="st7" cx="156.5" cy="207.4" r="0.3"/>
								<circle id="XMLID_8586_" class="st7" cx="157.8" cy="207.4" r="0.3"/>
								<line id="XMLID_8585_" class="st16" x1="156.5" y1="206.3" x2="157.9" y2="206.3"/>
								<line id="XMLID_8584_" class="st16" x1="156.5" y1="206.1" x2="157.9" y2="206.1"/>
								<line id="XMLID_8583_" class="st16" x1="156.5" y1="207.5" x2="157.8" y2="207.5"/>
								<line id="XMLID_8582_" class="st16" x1="156.5" y1="207.3" x2="157.8" y2="207.3"/>
							</g>
							<g id="XMLID_8567_">
								<circle id="XMLID_8580_" class="st4" cx="157.1" cy="239.8" r="2.1"/>
								<circle id="XMLID_8579_" class="st12" cx="157.1" cy="239.7" r="2"/>
								<polygon id="XMLID_8578_" class="st13" points="157.1,242.8 157.6,239.9 157.2,236.5 156.3,239.8 								"/>
								<circle id="XMLID_8577_" class="st14" cx="157.1" cy="239.4" r="2"/>
								<circle id="XMLID_8576_" class="st15" cx="157.1" cy="239.4" r="1.7"/>
								<circle id="XMLID_8575_" class="st7" cx="156.5" cy="239" r="0.3"/>
								<circle id="XMLID_8574_" class="st7" cx="157.8" cy="239" r="0.3"/>
								<circle id="XMLID_8573_" class="st7" cx="156.5" cy="240.2" r="0.3"/>
								<circle id="XMLID_8572_" class="st7" cx="157.8" cy="240.2" r="0.3"/>
								<line id="XMLID_8571_" class="st16" x1="156.5" y1="239.1" x2="157.9" y2="239.1"/>
								<line id="XMLID_8570_" class="st16" x1="156.5" y1="238.9" x2="157.9" y2="238.9"/>
								<line id="XMLID_8569_" class="st16" x1="156.5" y1="240.3" x2="157.8" y2="240.3"/>
								<line id="XMLID_8568_" class="st16" x1="156.5" y1="240.1" x2="157.8" y2="240.1"/>
							</g>
							<g id="XMLID_8460_">
								<polygon id="XMLID_8566_" class="st13" points="157.1,81 157.7,79.1 157.2,77.5 156.5,79.1 								"/>
								<ellipse id="XMLID_8565_" class="st4" cx="157.1" cy="79.4" rx="2.1" ry="1.4"/>
								<ellipse id="XMLID_8564_" class="st12" cx="157.1" cy="79.4" rx="2" ry="1.3"/>
								<path id="XMLID_8563_" class="st14" d="M157.9,80.3c1.1-0.3,1.6-1.1,1.2-1.8c-0.5-0.7-1.7-1.1-2.8-0.8s-1.6,1.1-1.2,1.8
									C155.6,80.3,156.9,80.6,157.9,80.3z"/>
								<g id="XMLID_8561_">
									<path class="st6" d="M157.8,80.1c0.9-0.3,1.4-0.9,1-1.5c-0.4-0.6-1.4-0.9-2.4-0.6c-0.9,0.3-1.4,0.9-1,1.5
										C155.8,80.1,156.9,80.4,157.8,80.1z"/>
									<path class="st17" d="M157.8,80.1C157.8,80.1,157.8,80.1,157.8,80.1c0.2-0.1,0.3-0.1,0.4-0.2c0.1-0.1,0.3-0.1,0.4-0.3
										c0.1-0.1,0.3-0.3,0.3-0.5c0-0.2,0-0.4-0.2-0.6c-0.2-0.2-0.4-0.3-0.6-0.4c-0.2-0.1-0.5-0.1-0.8-0.1c-0.3,0-0.5,0-0.8,0.1
										c0,0-0.2,0-0.2,0.1c-0.1,0-0.1,0-0.2,0.1c-0.1,0.1-0.2,0.1-0.3,0.2c-0.2,0.2-0.3,0.3-0.3,0.5c0,0.1,0,0.2,0.1,0.3
										c0,0,0.1,0.1,0.1,0.2c0,0,0.1,0.1,0.1,0.1c0.2,0.2,0.4,0.3,0.5,0.4c0.2,0.1,0.4,0.1,0.6,0.2c0.2,0,0.3,0,0.5,0
										c0.1,0,0.2,0,0.3,0C157.8,80.1,157.8,80.1,157.8,80.1z M157.8,80.1C157.8,80.1,157.8,80.1,157.8,80.1
										c-0.2,0.1-0.3,0.1-0.4,0.1c-0.3,0-0.6,0-1.1-0.1c-0.2-0.1-0.5-0.2-0.6-0.3c-0.2-0.2-0.4-0.4-0.4-0.7c0-0.3,0.1-0.6,0.4-0.8
										c0.2-0.2,0.5-0.3,0.8-0.4c0.6-0.2,1.2-0.1,1.7,0.1c0.3,0.1,0.5,0.3,0.6,0.5c0.2,0.2,0.2,0.5,0.1,0.7
										c-0.1,0.2-0.2,0.4-0.3,0.5s-0.3,0.2-0.4,0.3C158.1,80.1,158,80.1,157.8,80.1C157.9,80.1,157.8,80.1,157.8,80.1z"/>
								</g>
								<path id="XMLID_8468_" class="st7" d="M156.2,78.8c0,0.1,0.2,0.2,0.3,0.2c0.2,0,0.3-0.1,0.3-0.2s-0.2-0.2-0.3-0.2
									C156.3,78.6,156.2,78.7,156.2,78.8z"/>
								<path id="XMLID_8467_" class="st7" d="M157.5,78.8c0,0.1,0.2,0.2,0.3,0.2s0.3-0.1,0.3-0.2s-0.2-0.2-0.3-0.2
									C157.6,78.6,157.5,78.7,157.5,78.8z"/>
								<path id="XMLID_8466_" class="st7" d="M156.2,79.7c0,0.1,0.2,0.2,0.3,0.2c0.2,0,0.3-0.1,0.3-0.2s-0.2-0.2-0.3-0.2
									C156.3,79.5,156.2,79.6,156.2,79.7z"/>
								<path id="XMLID_8465_" class="st7" d="M157.5,79.7c0,0.1,0.2,0.2,0.3,0.2s0.3-0.1,0.3-0.2s-0.2-0.2-0.3-0.2
									C157.6,79.5,157.5,79.6,157.5,79.7z"/>
								<line id="XMLID_8464_" class="st18" x1="156.5" y1="78.8" x2="157.9" y2="78.9"/>
								<line id="XMLID_8463_" class="st18" x1="156.5" y1="78.7" x2="157.9" y2="78.7"/>
								<line id="XMLID_8462_" class="st18" x1="156.5" y1="79.7" x2="157.8" y2="79.7"/>
								<line id="XMLID_8461_" class="st18" x1="156.5" y1="79.6" x2="157.8" y2="79.6"/>
							</g>
							<g>
								<rect x="151" y="75.1" class="st4" width="12.3" height="4.3"/>
								<rect x="151" y="66.9" class="st5" width="12.3" height="11.7"/>
							</g>
						</g>
					</g>
					<g id="XMLID_6917_">
						<path class="st5" d="M160.3,66.1l23.4,7.8c0,0-16,5.8-27.2,5.8c-11.2,0-26.1-5.6-26.1-5.6L160.3,66.1z"/>
						<path id="XMLID_6967_" class="st3" d="M185.6,53.4c-2.1-8-3.5-17-4.7-19.2c-1.3-2.1-1.7-5.1-21.9-5.1c-0.8,0-1.6,0-2.3,0.1
							c-0.7,0-1.5-0.1-2.3-0.1c-20.2,0-20.4,2.8-21.7,5c-1.3,2.1-2.8,11.3-4.9,19.3c-1.1,4-0.8,8.9-0.4,12.8s0.3,6.8,0.3,6.8
							c11.8,4.9,29.2,5.4,29.2,5.4s16.7-0.5,28.5-5.4c0,0,0-3.4,0.5-7.7C186.4,61.6,186.6,57.2,185.6,53.4z"/>
						<path id="XMLID_6966_" class="st10" d="M178.2,33.3c-2.6-2.6-11.3-3.1-21.3-3.1l0,0c0,0-0.1,0-0.1,0s-0.1,0-0.1,0l0,0
							c-10.1,0-18.8,0.5-21.3,3.1c-7,5.4,1,19,9.8,32.8c6.7,10.4,9.9,12,11.1,12c0.2,0,0.4,0,0.5,0c0.1,0,0.2,0,0.4,0
							c1.1,0.1,4.4-1.3,11.2-12C177.2,52.3,185.2,38.7,178.2,33.3z"/>
						<path id="XMLID_6965_" class="st10" d="M156.7,45.7c6.3,0,9.3-0.6,14-0.5c4.5,0.1,8.4,0.8,8.7,0.9c2.1-5.6,2.2-10.2-1.2-12.8
							c-2.6-2.6-11.3-3.1-21.3-3.1l0,0c0,0-0.1,0-0.1,0s-0.1,0-0.1,0l0,0c-10.1,0-18.8,0.5-21.3,3.1c-3.4,2.6-3.3,7.2-1.2,12.8
							c0.7-0.1,4.4-0.7,8.6-0.9C147.4,45.1,150.4,45.7,156.7,45.7z"/>
						<g id="XMLID_6961_">
							<path id="XMLID_6964_" class="st19" d="M137.2,45.7c-1.7-6.4-0.4-11.2,0.7-13.8c-1.1,0.4-1.9,0.8-2.5,1.4
								c-4.6,3.6-2.7,10.7,1.6,19.1C137.9,51.7,138.3,49.9,137.2,45.7z"/>
							<path id="XMLID_6963_" class="st20" d="M137.3,46.2h2.7c0,0,0-2.6-1-5.9c-0.6-2,0.3-6.2,1.2-9.1c-1,0.2-2,0.5-2.7,0.8
								c-0.7,1.7-1.3,3.6-1.6,5C134.9,41,137.3,46.2,137.3,46.2z"/>
							<path id="XMLID_6962_" class="st21" d="M141.2,47.2c-1-0.7,1-12.2,1.8-16.5c-1.1,0.1-2.1,0.3-3.1,0.5
								c-1.4,3.4-1.5,9.3-1.5,9.3C138.6,46.7,142.4,48.1,141.2,47.2z"/>
						</g>
						<g id="XMLID_6957_">
							<path id="XMLID_6960_" class="st19" d="M176.4,45.7c1.7-6.4,0.4-11.2-0.7-13.8c1.1,0.4,1.9,0.8,2.5,1.4
								c4.6,3.6,2.7,10.7-1.6,19.1C175.7,51.7,175.3,49.9,176.4,45.7z"/>
							<path id="XMLID_6959_" class="st20" d="M176.2,46.2h-2.7c0,0,0-2.6,1-5.9c0.6-2-0.3-6.2-1.2-9.1c1,0.2,2,0.5,2.7,0.8
								c0.7,1.7,1.3,3.6,1.6,5C178.6,41,176.2,46.2,176.2,46.2z"/>
							<path id="XMLID_6958_" class="st21" d="M172.3,47.2c1-0.7-1-12.2-1.8-16.5c1.1,0.1,2.1,0.3,3.1,0.5c1.4,3.4,1.5,9.3,1.5,9.3
								C174.9,46.7,171.1,48.1,172.3,47.2z"/>
						</g>
						<path id="XMLID_6956_" class="st22" d="M156.3,78.1c0.2,0,0.4,0,0.5,0c0.1,0,0.2,0,0.4,0c1.1,0.1,4.4-1.3,11.2-12
							c4.5-7,8.8-14,11-20c-0.3-0.1-4.2-2.3-8.7-2.4c-4.6-0.2-7.7,0.5-14,0.5c-6.3,0-9.3-0.6-14-0.5c-4.2,0.1-7.8,2.3-8.6,2.4
							c2.2,5.9,6.5,12.9,11,20C151.9,76.5,155,78.1,156.3,78.1z"/>
						<path id="XMLID_6955_" class="st23" d="M179.9,43.5c0,0-4.1-0.8-8.9-0.9c-4.8-0.2-7.8,0.5-14.3,0.5s-9.6-0.6-14.3-0.5
							c-4.8,0.2-8.9,0.9-8.9,0.9"/>
						<path id="XMLID_6954_" class="st5" d="M134,46.1c0,0,18.1,29.5,22.7,29.5c4.6,0,22.7-29.5,22.7-29.5s-16.9,31.4-22.7,31.4
							C150.2,77.5,134,46.1,134,46.1z"/>
						<path id="XMLID_6953_" class="st19" d="M179.4,46.2c-7.6,14-15.7,25.7-19.8,29.7c-1.5,1.4-3.7,1.5-5.3,0.1
							c-8.4-7.5-17.7-25.4-19.8-29.2c2.3,5.7,6.4,12.4,10.7,19.1c8,12.5,11,12,11.6,12c0.6,0,3.6,0.5,11.6-12
							c3.4-5.3,6.7-10.5,9-15.3c0.9-1.9,1.5-3.5,1.8-4.2C179.3,46.5,179.3,46.4,179.4,46.2z"/>
						<path id="XMLID_6920_" class="st10" d="M156.3,78.1c0,0,0.4,0,0.5,0c0.1,0,0.4,0,0.4,0c1.1,0.1,4.4-1.3,11.2-12
							c4.5-7,8.8-14,11-20c-0.3-0.1-4.2-2.2-8.7-2.4c-4.6-0.2-7.7,0.5-14,0.5c-6.3,0-9.3-0.6-14-0.5c-4.2,0.1-7.8,2.2-8.6,2.4
							c2.2,5.9,6.5,12.9,11,20C151.9,76.5,155,78.1,156.3,78.1z"/>
						<path id="XMLID_6919_" class="st23" d="M183.8,46.8c0,0,2,8.1,2.1,11.2c0,0,0.2,3.5-0.1,6.6c-0.3,3.1-0.5,5.5-0.5,6.9
							c0,0.2-0.1,1.4-0.1,1.4s-3.3,2.1-13.4,3.8c-10,1.6-15.2,1.6-15.2,1.6"/>
						<path id="XMLID_6918_" class="st23" d="M129.6,46.8c0,0-2,8.1-2.1,11.2c0,0-0.2,3.5,0.1,6.6c0.3,3.1,0.5,5.5,0.5,6.9
							c0,0.2,0.1,1.4,0.1,1.4s3.3,2.1,13.4,3.8c10,1.6,15.2,1.6,15.2,1.6"/>
					</g>
				</g>
			</g>
			<g>
				<defs>
					<circle id="SVGID_6_" cx="150.1" cy="149.6" r="150"/>
				</defs>
				<clipPath id="SVGID_7_">
					<use xlink:href="#SVGID_6_"  style="overflow:visible;"/>
				</clipPath>
			</g>
			<g>
				<defs>
					<circle id="SVGID_8_" cx="150.1" cy="149.6" r="150"/>
				</defs>
				<clipPath id="SVGID_9_">
					<use xlink:href="#SVGID_8_"  style="overflow:visible;"/>
				</clipPath>
				<g class="st24">
					<path class="st25" d="M150.1,4.6c38.7,0,75.1,15.1,102.5,42.5s42.5,63.8,42.5,102.5s-15.1,75.1-42.5,102.5
						s-63.8,42.5-102.5,42.5S75,279.5,47.6,252.1C20.2,224.7,5.1,188.3,5.1,149.6S20.2,74.5,47.6,47.1S111.4,4.6,150.1,4.6
						 M150.1-0.4c-82.8,0-150,67.2-150,150s67.2,150,150,150s150-67.2,150-150S232.9-0.4,150.1-0.4L150.1-0.4z"/>
				</g>
			</g>
		</g>
	</g>
</g>
</svg>
