<?xml version="1.0" encoding="utf-8"?>
<!-- Generator: Adobe Illustrator 19.0.0, SVG Export Plug-In . SVG Version: 6.00 Build 0)  -->
<svg version="1.1" id="Layer_1" xmlns="http://www.w3.org/2000/svg" xmlns:xlink="http://www.w3.org/1999/xlink" x="0px" y="0px"
	 viewBox="-199 0 300 300" style="enable-background:new -199 0 300 300;" xml:space="preserve">
<style type="text/css">
	.st0{fill:#DDDDDD;}
	.st1{clip-path:url(#SVGID_3_);}
	.st2{clip-path:url(#SVGID_4_);}
	.st3{fill:#404041;}
	.st4{clip-path:url(#SVGID_6_);}
	.st5{clip-path:url(#SVGID_10_);}
	.st6{fill:#9AA0BB;}
</style>
<g>
	<g>
		<circle id="SVGID_1_" class="st0" cx="-48.9" cy="150" r="150"/>
	</g>
	<g>
		<defs>
			<circle id="SVGID_2_" cx="-48.9" cy="150" r="150"/>
		</defs>
		<clipPath id="SVGID_3_">
			<use xlink:href="#SVGID_2_"  style="overflow:visible;"/>
		</clipPath>
		<g class="st1">
			<defs>
				<rect id="SVGID_63_" x="-106" y="-708.8" width="100" height="2880.2"/>
			</defs>
			<clipPath id="SVGID_4_">
				<use xlink:href="#SVGID_63_"  style="overflow:visible;"/>
			</clipPath>
			<g class="st2">
				<g>
					<g>
						<rect x="-43.8" y="-4899.6" class="st3" width="15.9" height="63.2"/>
					</g>
				</g>
				<g>
					<g>
						<rect x="-59.6" y="-4836.4" class="st3" width="15.9" height="63.2"/>
					</g>
				</g>
				<g>
					<g>
						<rect x="-75.5" y="-4773.2" class="st3" width="15.9" height="63.2"/>
					</g>
				</g>
				<g>
					<g>
						<rect x="-43.8" y="-4646.8" class="st3" width="15.9" height="63.2"/>
					</g>
				</g>
				<g>
					<g>
						<rect x="-59.6" y="-4710" class="st3" width="15.9" height="63.2"/>
					</g>
				</g>
				<g>
					<g>
						<rect x="-75.5" y="-4989.4" class="st3" width="15.9" height="26.6"/>
					</g>
				</g>
				<g>
					<g>
						<rect x="-43.8" y="-4899.6" class="st3" width="15.9" height="63.2"/>
					</g>
				</g>
				<g>
					<g>
						<rect x="-59.6" y="-4962.8" class="st3" width="15.9" height="63.2"/>
					</g>
				</g>
				<g>
					<g>
						<rect x="-43.8" y="-4394" class="st3" width="15.9" height="63.2"/>
					</g>
				</g>
				<g>
					<g>
						<rect x="-59.6" y="-4330.8" class="st3" width="15.9" height="63.2"/>
					</g>
				</g>
				<g>
					<g>
						<rect x="-75.5" y="-4267.6" class="st3" width="15.9" height="63.2"/>
					</g>
				</g>
				<g>
					<g>
						<rect x="-43.8" y="-4141.2" class="st3" width="15.9" height="63.2"/>
					</g>
				</g>
				<g>
					<g>
						<rect x="-59.6" y="-4204.4" class="st3" width="15.9" height="63.2"/>
					</g>
				</g>
				<g>
					<g>
						<rect x="-75.5" y="-4520.4" class="st3" width="15.9" height="63.2"/>
					</g>
				</g>
				<g>
					<g>
						<rect x="-43.8" y="-4394" class="st3" width="15.9" height="63.2"/>
					</g>
				</g>
				<g>
					<g>
						<rect x="-59.6" y="-4457.2" class="st3" width="15.9" height="63.2"/>
					</g>
				</g>
				<g>
					<g>
						<rect x="-59.6" y="-4583.6" class="st3" width="15.9" height="63.2"/>
					</g>
				</g>
				<g>
					<g>
						<rect x="-43.8" y="-3888.4" class="st3" width="15.9" height="63.2"/>
					</g>
				</g>
				<g>
					<g>
						<rect x="-59.6" y="-3825.2" class="st3" width="15.9" height="63.2"/>
					</g>
				</g>
				<g>
					<g>
						<rect x="-75.5" y="-3762" class="st3" width="15.9" height="63.2"/>
					</g>
				</g>
				<g>
					<g>
						<rect x="-43.8" y="-3635.6" class="st3" width="15.9" height="63.2"/>
					</g>
				</g>
				<g>
					<g>
						<rect x="-59.6" y="-3698.8" class="st3" width="15.9" height="63.2"/>
					</g>
				</g>
				<g>
					<g>
						<rect x="-75.5" y="-4014.8" class="st3" width="15.9" height="63.2"/>
					</g>
				</g>
				<g>
					<g>
						<rect x="-43.8" y="-3888.4" class="st3" width="15.9" height="63.2"/>
					</g>
				</g>
				<g>
					<g>
						<rect x="-59.6" y="-3951.6" class="st3" width="15.9" height="63.2"/>
					</g>
				</g>
				<g>
					<g>
						<rect x="-59.6" y="-4078" class="st3" width="15.9" height="63.2"/>
					</g>
				</g>
				<g>
					<g>
						<rect x="-43.8" y="-3382.8" class="st3" width="15.9" height="63.2"/>
					</g>
				</g>
				<g>
					<g>
						<rect x="-59.6" y="-3319.6" class="st3" width="15.9" height="63.2"/>
					</g>
				</g>
				<g>
					<g>
						<rect x="-75.5" y="-3256.4" class="st3" width="15.9" height="63.2"/>
					</g>
				</g>
				<g>
					<g>
						<rect x="-43.8" y="-3130" class="st3" width="15.9" height="63.2"/>
					</g>
				</g>
				<g>
					<g>
						<rect x="-59.6" y="-3193.2" class="st3" width="15.9" height="63.2"/>
					</g>
				</g>
				<g>
					<g>
						<rect x="-75.5" y="-3509.2" class="st3" width="15.9" height="63.2"/>
					</g>
				</g>
				<g>
					<g>
						<rect x="-43.8" y="-3382.8" class="st3" width="15.9" height="63.2"/>
					</g>
				</g>
				<g>
					<g>
						<rect x="-59.6" y="-3446" class="st3" width="15.9" height="63.2"/>
					</g>
				</g>
				<g>
					<g>
						<rect x="-59.6" y="-3572.4" class="st3" width="15.9" height="63.2"/>
					</g>
				</g>
				<g>
					<g>
						<rect x="-43.8" y="-2877.2" class="st3" width="15.9" height="63.2"/>
					</g>
				</g>
				<g>
					<g>
						<rect x="-59.6" y="-2814" class="st3" width="15.9" height="63.2"/>
					</g>
				</g>
				<g>
					<g>
						<rect x="-75.5" y="-2750.8" class="st3" width="15.9" height="63.2"/>
					</g>
				</g>
				<g>
					<g>
						<rect x="-43.8" y="-2624.4" class="st3" width="15.9" height="63.2"/>
					</g>
				</g>
				<g>
					<g>
						<rect x="-59.6" y="-2687.6" class="st3" width="15.9" height="63.2"/>
					</g>
				</g>
				<g>
					<g>
						<rect x="-75.5" y="-3003.6" class="st3" width="15.9" height="63.2"/>
					</g>
				</g>
				<g>
					<g>
						<rect x="-43.8" y="-2877.2" class="st3" width="15.9" height="63.2"/>
					</g>
				</g>
				<g>
					<g>
						<rect x="-59.6" y="-2940.4" class="st3" width="15.9" height="63.2"/>
					</g>
				</g>
				<g>
					<g>
						<rect x="-59.6" y="-3066.8" class="st3" width="15.9" height="63.2"/>
					</g>
				</g>
				<g>
					<g>
						<rect x="-43.8" y="-2371.6" class="st3" width="15.9" height="63.2"/>
					</g>
				</g>
				<g>
					<g>
						<rect x="-59.6" y="-2308.4" class="st3" width="15.9" height="63.2"/>
					</g>
				</g>
				<g>
					<g>
						<rect x="-75.5" y="-2245.2" class="st3" width="15.9" height="63.2"/>
					</g>
				</g>
				<g>
					<g>
						<rect x="-43.8" y="-2118.8" class="st3" width="15.9" height="63.2"/>
					</g>
				</g>
				<g>
					<g>
						<rect x="-59.6" y="-2182" class="st3" width="15.9" height="63.2"/>
					</g>
				</g>
				<g>
					<g>
						<rect x="-75.5" y="-2498" class="st3" width="15.9" height="63.2"/>
					</g>
				</g>
				<g>
					<g>
						<rect x="-43.8" y="-2371.6" class="st3" width="15.9" height="63.2"/>
					</g>
				</g>
				<g>
					<g>
						<rect x="-59.6" y="-2434.8" class="st3" width="15.9" height="63.2"/>
					</g>
				</g>
				<g>
					<g>
						<rect x="-59.6" y="-2561.2" class="st3" width="15.9" height="63.2"/>
					</g>
				</g>
				<g>
					<g>
						<rect x="-43.8" y="-1866" class="st3" width="15.9" height="63.2"/>
					</g>
				</g>
				<g>
					<g>
						<rect x="-59.6" y="-1802.8" class="st3" width="15.9" height="63.2"/>
					</g>
				</g>
				<g>
					<g>
						<rect x="-75.5" y="-1739.6" class="st3" width="15.9" height="63.2"/>
					</g>
				</g>
				<g>
					<g>
						<rect x="-43.8" y="-1613.2" class="st3" width="15.9" height="63.2"/>
					</g>
				</g>
				<g>
					<g>
						<rect x="-59.6" y="-1676.4" class="st3" width="15.9" height="63.2"/>
					</g>
				</g>
				<g>
					<g>
						<rect x="-75.5" y="-1992.4" class="st3" width="15.9" height="63.2"/>
					</g>
				</g>
				<g>
					<g>
						<rect x="-43.8" y="-1866" class="st3" width="15.9" height="63.2"/>
					</g>
				</g>
				<g>
					<g>
						<rect x="-59.6" y="-1929.2" class="st3" width="15.9" height="63.2"/>
					</g>
				</g>
				<g>
					<g>
						<rect x="-59.6" y="-2055.6" class="st3" width="15.9" height="63.2"/>
					</g>
				</g>
				<g>
					<g>
						<rect x="-43.8" y="-1360.4" class="st3" width="15.9" height="63.2"/>
					</g>
				</g>
				<g>
					<g>
						<rect x="-59.6" y="-1297.2" class="st3" width="15.9" height="63.2"/>
					</g>
				</g>
				<g>
					<g>
						<rect x="-75.5" y="-1234" class="st3" width="15.9" height="63.2"/>
					</g>
				</g>
				<g>
					<g>
						<rect x="-43.8" y="-1107.6" class="st3" width="15.9" height="63.2"/>
					</g>
				</g>
				<g>
					<g>
						<rect x="-59.6" y="-1170.8" class="st3" width="15.9" height="63.2"/>
					</g>
				</g>
				<g>
					<g>
						<rect x="-75.5" y="-1486.8" class="st3" width="15.9" height="63.2"/>
					</g>
				</g>
				<g>
					<g>
						<rect x="-43.8" y="-1360.4" class="st3" width="15.9" height="63.2"/>
					</g>
				</g>
				<g>
					<g>
						<rect x="-59.6" y="-1423.6" class="st3" width="15.9" height="63.2"/>
					</g>
				</g>
				<g>
					<g>
						<rect x="-59.6" y="-1550" class="st3" width="15.9" height="63.2"/>
					</g>
				</g>
				<g>
					<g>
						<rect x="-43.8" y="-854.8" class="st3" width="15.9" height="63.2"/>
					</g>
				</g>
				<g>
					<g>
						<rect x="-59.6" y="-791.6" class="st3" width="15.9" height="63.2"/>
					</g>
				</g>
				<g>
					<g>
						<rect x="-75.5" y="-728.4" class="st3" width="15.9" height="63.2"/>
					</g>
				</g>
				<g>
					<g>
						<rect x="-43.8" y="-602" class="st3" width="15.9" height="63.2"/>
					</g>
				</g>
				<g>
					<g>
						<rect x="-59.6" y="-665.2" class="st3" width="15.9" height="63.2"/>
					</g>
				</g>
				<g>
					<g>
						<rect x="-75.5" y="-981.2" class="st3" width="15.9" height="63.2"/>
					</g>
				</g>
				<g>
					<g>
						<rect x="-43.8" y="-854.8" class="st3" width="15.9" height="63.2"/>
					</g>
				</g>
				<g>
					<g>
						<rect x="-59.6" y="-918" class="st3" width="15.9" height="63.2"/>
					</g>
				</g>
				<g>
					<g>
						<rect x="-59.6" y="-1044.4" class="st3" width="15.9" height="63.2"/>
					</g>
				</g>
				<g>
					<g>
						<rect x="-43.8" y="-349.2" class="st3" width="15.9" height="63.2"/>
					</g>
				</g>
				<g>
					<g>
						<rect x="-59.6" y="-286" class="st3" width="15.9" height="63.2"/>
					</g>
				</g>
				<g>
					<g>
						<rect x="-75.5" y="-222.8" class="st3" width="15.9" height="63.2"/>
					</g>
				</g>
				<g>
					<g>
						<rect x="-43.8" y="-96.4" class="st3" width="15.9" height="63.2"/>
					</g>
				</g>
				<g>
					<g>
						<rect x="-59.6" y="-159.6" class="st3" width="15.9" height="63.2"/>
					</g>
				</g>
				<g>
					<g>
						<rect x="-75.5" y="-475.6" class="st3" width="15.9" height="63.2"/>
					</g>
				</g>
				<g>
					<g>
						<rect x="-43.8" y="-349.2" class="st3" width="15.9" height="63.2"/>
					</g>
				</g>
				<g>
					<g>
						<rect x="-59.6" y="-412.4" class="st3" width="15.9" height="63.2"/>
					</g>
				</g>
				<g>
					<g>
						<rect x="-59.6" y="-538.8" class="st3" width="15.9" height="63.2"/>
					</g>
				</g>
				<g>
					<g>
						<rect x="-43.8" y="156.4" class="st3" width="15.9" height="63.2"/>
					</g>
				</g>
				<g>
					<g>
						<rect x="-59.6" y="219.6" class="st3" width="15.9" height="63.2"/>
					</g>
				</g>
				<g>
					<g>
						<rect x="-75.5" y="282.8" class="st3" width="15.9" height="63.2"/>
					</g>
				</g>
				<g>
					<g>
						<rect x="-43.8" y="409.2" class="st3" width="15.9" height="63.2"/>
					</g>
				</g>
				<g>
					<g>
						<rect x="-59.6" y="346" class="st3" width="15.9" height="63.2"/>
					</g>
				</g>
				<g>
					<g>
						<rect x="-75.5" y="30" class="st3" width="15.9" height="63.2"/>
					</g>
				</g>
				<g>
					<g>
						<rect x="-43.8" y="156.4" class="st3" width="15.9" height="63.2"/>
					</g>
				</g>
				<g>
					<g>
						<rect x="-59.6" y="93.2" class="st3" width="15.9" height="63.2"/>
					</g>
				</g>
				<g>
					<g>
						<rect x="-59.6" y="-33.2" class="st3" width="15.9" height="63.2"/>
					</g>
				</g>
				<g>
					<g>
						<rect x="-43.8" y="662" class="st3" width="15.9" height="63.2"/>
					</g>
				</g>
				<g>
					<g>
						<rect x="-59.6" y="725.2" class="st3" width="15.9" height="63.2"/>
					</g>
				</g>
				<g>
					<g>
						<rect x="-75.5" y="788.4" class="st3" width="15.9" height="63.2"/>
					</g>
				</g>
				<g>
					<g>
						<rect x="-43.8" y="914.8" class="st3" width="15.9" height="63.2"/>
					</g>
				</g>
				<g>
					<g>
						<rect x="-59.6" y="851.6" class="st3" width="15.9" height="63.2"/>
					</g>
				</g>
				<g>
					<g>
						<rect x="-75.5" y="535.6" class="st3" width="15.9" height="63.2"/>
					</g>
				</g>
				<g>
					<g>
						<rect x="-43.8" y="662" class="st3" width="15.9" height="63.2"/>
					</g>
				</g>
				<g>
					<g>
						<rect x="-59.6" y="598.8" class="st3" width="15.9" height="63.2"/>
					</g>
				</g>
				<g>
					<g>
						<rect x="-59.6" y="472.4" class="st3" width="15.9" height="63.2"/>
					</g>
				</g>
				<g>
					<g>
						<rect x="-43.8" y="1167.6" class="st3" width="15.9" height="63.2"/>
					</g>
				</g>
				<g>
					<g>
						<rect x="-59.6" y="1230.8" class="st3" width="15.9" height="63.2"/>
					</g>
				</g>
				<g>
					<g>
						<rect x="-75.5" y="1294" class="st3" width="15.9" height="63.2"/>
					</g>
				</g>
				<g>
					<g>
						<rect x="-43.8" y="1420.4" class="st3" width="15.9" height="63.2"/>
					</g>
				</g>
				<g>
					<g>
						<rect x="-59.6" y="1357.2" class="st3" width="15.9" height="63.2"/>
					</g>
				</g>
				<g>
					<g>
						<rect x="-75.5" y="1041.2" class="st3" width="15.9" height="63.2"/>
					</g>
				</g>
				<g>
					<g>
						<rect x="-43.8" y="1167.6" class="st3" width="15.9" height="63.2"/>
					</g>
				</g>
				<g>
					<g>
						<rect x="-59.6" y="1104.4" class="st3" width="15.9" height="63.2"/>
					</g>
				</g>
				<g>
					<g>
						<rect x="-59.6" y="978" class="st3" width="15.9" height="63.2"/>
					</g>
				</g>
				<g>
					<g>
						<rect x="-43.8" y="1673.2" class="st3" width="15.9" height="63.2"/>
					</g>
				</g>
				<g>
					<g>
						<rect x="-59.6" y="1736.4" class="st3" width="15.9" height="63.2"/>
					</g>
				</g>
				<g>
					<g>
						<rect x="-75.5" y="1799.6" class="st3" width="15.9" height="63.2"/>
					</g>
				</g>
				<g>
					<g>
						<rect x="-43.8" y="1926" class="st3" width="15.9" height="63.2"/>
					</g>
				</g>
				<g>
					<g>
						<rect x="-59.6" y="1862.8" class="st3" width="15.9" height="63.2"/>
					</g>
				</g>
				<g>
					<g>
						<rect x="-75.5" y="1546.8" class="st3" width="15.9" height="63.2"/>
					</g>
				</g>
				<g>
					<g>
						<rect x="-43.8" y="1673.2" class="st3" width="15.9" height="63.2"/>
					</g>
				</g>
				<g>
					<g>
						<rect x="-59.6" y="1610" class="st3" width="15.9" height="63.2"/>
					</g>
				</g>
				<g>
					<g>
						<rect x="-59.6" y="1483.6" class="st3" width="15.9" height="63.2"/>
					</g>
				</g>
				<g>
					<g>
						<rect x="-43.8" y="2178.8" class="st3" width="15.9" height="63.2"/>
					</g>
				</g>
				<g>
					<g>
						<rect x="-59.6" y="2242" class="st3" width="15.9" height="63.2"/>
					</g>
				</g>
				<g>
					<g>
						<rect x="-75.5" y="2305.2" class="st3" width="15.9" height="63.2"/>
					</g>
				</g>
				<g>
					<g>
						<rect x="-43.8" y="2431.6" class="st3" width="15.9" height="63.2"/>
					</g>
				</g>
				<g>
					<g>
						<rect x="-59.6" y="2368.4" class="st3" width="15.9" height="63.2"/>
					</g>
				</g>
				<g>
					<g>
						<rect x="-75.5" y="2052.4" class="st3" width="15.9" height="63.2"/>
					</g>
				</g>
				<g>
					<g>
						<rect x="-43.8" y="2178.8" class="st3" width="15.9" height="63.2"/>
					</g>
				</g>
				<g>
					<g>
						<rect x="-59.6" y="2115.6" class="st3" width="15.9" height="63.2"/>
					</g>
				</g>
				<g>
					<g>
						<rect x="-59.6" y="1989.2" class="st3" width="15.9" height="63.2"/>
					</g>
				</g>
				<g>
					<g>
						<rect x="-43.8" y="2684.4" class="st3" width="15.9" height="63.2"/>
					</g>
				</g>
				<g>
					<g>
						<rect x="-59.6" y="2747.6" class="st3" width="15.9" height="63.2"/>
					</g>
				</g>
				<g>
					<g>
						<rect x="-75.5" y="2810.8" class="st3" width="15.9" height="63.2"/>
					</g>
				</g>
				<g>
					<g>
						<rect x="-43.8" y="2937.2" class="st3" width="15.9" height="63.2"/>
					</g>
				</g>
				<g>
					<g>
						<rect x="-59.6" y="2874" class="st3" width="15.9" height="63.2"/>
					</g>
				</g>
				<g>
					<g>
						<rect x="-75.5" y="2558" class="st3" width="15.9" height="63.2"/>
					</g>
				</g>
				<g>
					<g>
						<rect x="-43.8" y="2684.4" class="st3" width="15.9" height="63.2"/>
					</g>
				</g>
				<g>
					<g>
						<rect x="-59.6" y="2621.2" class="st3" width="15.9" height="63.2"/>
					</g>
				</g>
				<g>
					<g>
						<rect x="-59.6" y="2494.8" class="st3" width="15.9" height="63.2"/>
					</g>
				</g>
				<g>
					<g>
						<rect x="-43.8" y="3190" class="st3" width="15.9" height="63.2"/>
					</g>
				</g>
				<g>
					<g>
						<rect x="-59.6" y="3253.2" class="st3" width="15.9" height="63.2"/>
					</g>
				</g>
				<g>
					<g>
						<rect x="-75.5" y="3316.4" class="st3" width="15.9" height="63.2"/>
					</g>
				</g>
				<g>
					<g>
						<rect x="-43.8" y="3442.8" class="st3" width="15.9" height="63.2"/>
					</g>
				</g>
				<g>
					<g>
						<rect x="-59.6" y="3379.6" class="st3" width="15.9" height="63.2"/>
					</g>
				</g>
				<g>
					<g>
						<rect x="-75.5" y="3063.6" class="st3" width="15.9" height="63.2"/>
					</g>
				</g>
				<g>
					<g>
						<rect x="-43.8" y="3190" class="st3" width="15.9" height="63.2"/>
					</g>
				</g>
				<g>
					<g>
						<rect x="-59.6" y="3126.8" class="st3" width="15.9" height="63.2"/>
					</g>
				</g>
				<g>
					<g>
						<rect x="-59.6" y="3000.4" class="st3" width="15.9" height="63.2"/>
					</g>
				</g>
				<g>
					<g>
						<rect x="-43.8" y="3695.6" class="st3" width="15.9" height="63.2"/>
					</g>
				</g>
				<g>
					<g>
						<rect x="-59.6" y="3758.8" class="st3" width="15.9" height="63.2"/>
					</g>
				</g>
				<g>
					<g>
						<rect x="-75.5" y="3822" class="st3" width="15.9" height="63.2"/>
					</g>
				</g>
				<g>
					<g>
						<rect x="-43.8" y="3948.4" class="st3" width="15.9" height="63.2"/>
					</g>
				</g>
				<g>
					<g>
						<rect x="-59.6" y="3885.2" class="st3" width="15.9" height="63.2"/>
					</g>
				</g>
				<g>
					<g>
						<rect x="-75.5" y="3569.2" class="st3" width="15.9" height="63.2"/>
					</g>
				</g>
				<g>
					<g>
						<rect x="-43.8" y="3695.6" class="st3" width="15.9" height="63.2"/>
					</g>
				</g>
				<g>
					<g>
						<rect x="-59.6" y="3632.4" class="st3" width="15.9" height="63.2"/>
					</g>
				</g>
				<g>
					<g>
						<rect x="-59.6" y="3506" class="st3" width="15.9" height="63.2"/>
					</g>
				</g>
			</g>
		</g>
	</g>
	<g>
		<defs>
			<circle id="SVGID_5_" cx="-48.9" cy="150" r="150"/>
		</defs>
		<clipPath id="SVGID_6_">
			<use xlink:href="#SVGID_5_"  style="overflow:visible;"/>
		</clipPath>
		<g class="st4">
			<g>
				<defs>
					<circle id="SVGID_7_" cx="-48.9" cy="150" r="150"/>
				</defs>
				<clipPath id="SVGID_8_">
					<use xlink:href="#SVGID_7_"  style="overflow:visible;"/>
				</clipPath>
			</g>
			<g>
				<defs>
					<circle id="SVGID_9_" cx="-48.9" cy="150" r="150"/>
				</defs>
				<clipPath id="SVGID_10_">
					<use xlink:href="#SVGID_9_"  style="overflow:visible;"/>
				</clipPath>
				<g class="st5">
					<path class="st6" d="M-48.9,5c38.7,0,75.1,15.1,102.5,42.5S96.1,111.3,96.1,150S81,225.1,53.6,252.5S-10.2,295-48.9,295
						s-75.1-15.1-102.5-42.5s-42.5-63.8-42.5-102.5s15.1-75.1,42.5-102.5S-87.6,5-48.9,5 M-48.9,0c-82.8,0-150,67.2-150,150
						s67.2,150,150,150s150-67.2,150-150S33.9,0-48.9,0L-48.9,0z"/>
				</g>
			</g>
		</g>
	</g>
</g>
</svg>
