<?xml version="1.0" encoding="utf-8"?>
<!-- Generator: Adobe Illustrator 19.0.0, SVG Export Plug-In . SVG Version: 6.00 Build 0)  -->
<svg version="1.1" id="Layer_1" xmlns="http://www.w3.org/2000/svg" xmlns:xlink="http://www.w3.org/1999/xlink" x="0px" y="0px"
	 viewBox="-199 0 300 300" style="enable-background:new -199 0 300 300;" xml:space="preserve">
<style type="text/css">
	.st0{fill:#DDDDDD;}
	.st1{clip-path:url(#SVGID_3_);}
	.st2{clip-path:url(#SVGID_16_);}
	.st3{clip-path:url(#SVGID_17_);}
	.st4{clip-path:url(#SVGID_18_);}
	.st5{clip-path:url(#SVGID_19_);}
	.st6{clip-path:url(#SVGID_20_);}
	.st7{clip-path:url(#SVGID_21_);}
	.st8{clip-path:url(#SVGID_22_);}
	.st9{clip-path:url(#SVGID_23_);}
	.st10{clip-path:url(#SVGID_24_);}
	.st11{clip-path:url(#SVGID_25_);}
	.st12{clip-path:url(#SVGID_26_);}
	.st13{clip-path:url(#SVGID_27_);}
	.st14{fill:none;}
	.st15{fill:#404041;}
	.st16{fill:#FFFFFF;}
	.st17{clip-path:url(#SVGID_29_);}
	.st18{clip-path:url(#SVGID_31_);}
	.st19{fill:#9AA0BB;}
</style>
<g>
	<g>
		<circle id="SVGID_1_" class="st0" cx="-49" cy="150" r="150"/>
	</g>
	<g>
		<g>
			<defs>
				<circle id="SVGID_2_" cx="-49" cy="150" r="150"/>
			</defs>
			<clipPath id="SVGID_3_">
				<use xlink:href="#SVGID_2_"  style="overflow:visible;"/>
			</clipPath>
			<g class="st1">
				<g>
					<defs>
						<rect id="SVGID_4_" x="-86.9" y="-603.7" width="72" height="1369.8"/>
					</defs>
					<defs>
						<rect id="SVGID_5_" x="-86.9" y="-603.7" width="72" height="1369.8"/>
					</defs>
					<defs>
						<rect id="SVGID_6_" x="-86.9" y="-603.7" width="72" height="1369.8"/>
					</defs>
					<defs>
						<rect id="SVGID_7_" x="-86.9" y="-603.7" width="72" height="1369.8"/>
					</defs>
					<defs>
						<rect id="SVGID_8_" x="-86.9" y="-603.7" width="72" height="1369.8"/>
					</defs>
					<defs>
						<rect id="SVGID_9_" x="-86.9" y="-603.7" width="72" height="1369.8"/>
					</defs>
					<defs>
						<rect id="SVGID_10_" x="-86.9" y="-603.7" width="72" height="1369.8"/>
					</defs>
					<defs>
						<rect id="SVGID_11_" x="-86.9" y="-603.7" width="72" height="1369.8"/>
					</defs>
					<defs>
						<rect id="SVGID_12_" x="-86.9" y="-603.7" width="72" height="1369.8"/>
					</defs>
					<defs>
						<rect id="SVGID_13_" x="-86.9" y="-603.7" width="72" height="1369.8"/>
					</defs>
					<defs>
						<rect id="SVGID_14_" x="-86.9" y="-603.7" width="72" height="1369.8"/>
					</defs>
					<defs>
						<rect id="SVGID_15_" x="-86.9" y="-603.7" width="72" height="1369.8"/>
					</defs>
					<clipPath id="SVGID_16_">
						<use xlink:href="#SVGID_4_"  style="overflow:visible;"/>
					</clipPath>
					<clipPath id="SVGID_17_" class="st2">
						<use xlink:href="#SVGID_5_"  style="overflow:visible;"/>
					</clipPath>
					<clipPath id="SVGID_18_" class="st3">
						<use xlink:href="#SVGID_6_"  style="overflow:visible;"/>
					</clipPath>
					<clipPath id="SVGID_19_" class="st4">
						<use xlink:href="#SVGID_7_"  style="overflow:visible;"/>
					</clipPath>
					<clipPath id="SVGID_20_" class="st5">
						<use xlink:href="#SVGID_8_"  style="overflow:visible;"/>
					</clipPath>
					<clipPath id="SVGID_21_" class="st6">
						<use xlink:href="#SVGID_9_"  style="overflow:visible;"/>
					</clipPath>
					<clipPath id="SVGID_22_" class="st7">
						<use xlink:href="#SVGID_10_"  style="overflow:visible;"/>
					</clipPath>
					<clipPath id="SVGID_23_" class="st8">
						<use xlink:href="#SVGID_11_"  style="overflow:visible;"/>
					</clipPath>
					<clipPath id="SVGID_24_" class="st9">
						<use xlink:href="#SVGID_12_"  style="overflow:visible;"/>
					</clipPath>
					<clipPath id="SVGID_25_" class="st10">
						<use xlink:href="#SVGID_13_"  style="overflow:visible;"/>
					</clipPath>
					<clipPath id="SVGID_26_" class="st11">
						<use xlink:href="#SVGID_14_"  style="overflow:visible;"/>
					</clipPath>
					<clipPath id="SVGID_27_" class="st12">
						<use xlink:href="#SVGID_15_"  style="overflow:visible;"/>
					</clipPath>
					<g class="st13">
						<g>
							<rect x="-91.6" y="-896.4" class="st14" width="228.1" height="1964.2"/>
						</g>
					</g>
					<g class="st13">
						<g>
							<path class="st15" d="M123.6-849.1l2.2,0.2l0,1933.9l-3.6-1.9C80.9,1061,16.1,1028,6.6,1028c-26.3,0-86.2,45-86.8,45.5
								l-3.9,2.9V-803.2l1.2-0.7c1.3-0.8,31.6-18.6,103.3-33.1c53.2-10.7,83.6-12.2,96.2-12.2C121-849.2,123.2-849,123.6-849.1z
								 M-79.1,1066.8c14-10.2,61.6-43.6,85.8-43.6c12.7,0,94.1,43,114.3,53.8l0-1921.3c-8.1-0.2-39.4-0.1-99.6,12.1
								c-63.2,12.8-94.4,28.4-100.6,31.8L-79.1,1066.8z"/>
						</g>
					</g>
					<g class="st13">
						<g>
							<rect x="-70.2" y="-887.4" class="st14" width="182.8" height="1915.5"/>
						</g>
					</g>
					<g class="st13">
						<g>
							<path class="st15" d="M107.7,1060.4H-68.8l0-1936.4h176.5L107.7,1060.4z M-63.9,1055.5h166.8l0-1926.7H-63.9V1055.5z"/>
						</g>
					</g>
					<g class="st13">
						<g>
							<rect x="-58.7" y="-873.6" class="st14" width="156.4" height="1901.7"/>
						</g>
					</g>
					<g class="st13">
						<g>
							<path class="st15" d="M96.3,1056.1H-55.1V-850.4H96.3L96.3,1056.1z M-50.3,1051.3H91.4l0-1896.9H-50.3L-50.3,1051.3z"/>
						</g>
					</g>
					<g class="st13">
						<g>
							<rect x="-46.2" y="-848" class="st14" width="133.6" height="1901.7"/>
						</g>
					</g>
					<g class="st13">
						<g>
							<path class="st15" d="M85.2,1056.1H-42.9V-850.4H85.2L85.2,1056.1z M-38.2,1051.3H80.3l0-1896.9H-38.2L-38.2,1051.3z"/>
						</g>
					</g>
					<g class="st13">
						<g>
							<rect x="-35.1" y="-848" class="st14" width="112.4" height="1901.7"/>
						</g>
					</g>
					<g class="st13">
						<g>
							<path class="st15" d="M72.9,1056.1H-30.9V-850.4H72.9L72.9,1056.1z M-26,1051.3h94.1l0-1896.9H-26V1051.3z"/>
						</g>
					</g>
					<g class="st13">
						<g>
							<rect x="-24.1" y="-848" class="st14" width="90.2" height="1901.7"/>
						</g>
					</g>
					<g class="st13">
						<g>
							<rect x="-16.8" y="-848" class="st16" width="75.1" height="1901.3"/>
						</g>
						<g>
							<path class="st15" d="M60.7,1055.7h-80V-850.4h80V1055.7z M-14.4,1050.9h70.3V-845.6h-70.3V1050.9z"/>
						</g>
					</g>
				</g>
			</g>
			<g class="st1">
				<g>
					<defs>
						<circle id="SVGID_28_" cx="-49" cy="150" r="150"/>
					</defs>
					<clipPath id="SVGID_29_">
						<use xlink:href="#SVGID_28_"  style="overflow:visible;"/>
					</clipPath>
					<g class="st17">
						<g>
							<g>
								<defs>
									<circle id="SVGID_30_" cx="-49" cy="150" r="150"/>
								</defs>
								<clipPath id="SVGID_31_">
									<use xlink:href="#SVGID_30_"  style="overflow:visible;"/>
								</clipPath>
								<g class="st18">
									<path class="st19" d="M-49,5c38.7,0,75.1,15.1,102.5,42.5S96,111.3,96,150c0,38.7-15.1,75.1-42.5,102.5S-10.3,295-49,295
										s-75.1-15.1-102.5-42.5S-194,188.7-194,150s15.1-75.1,42.5-102.5S-87.7,5-49,5 M-49,0c-82.8,0-150,67.2-150,150
										s67.2,150,150,150s150-67.2,150-150C101,67.2,33.8,0-49,0L-49,0z"/>
								</g>
							</g>
						</g>
					</g>
				</g>
			</g>
		</g>
	</g>
</g>
</svg>
