<?xml version="1.0" encoding="utf-8"?>
<!-- Generator: Adobe Illustrator 19.0.0, SVG Export Plug-In . SVG Version: 6.00 Build 0)  -->
<svg version="1.1" id="Layer_1" xmlns="http://www.w3.org/2000/svg" xmlns:xlink="http://www.w3.org/1999/xlink" x="0px" y="0px"
	 viewBox="-199 0 300 300" style="enable-background:new -199 0 300 300;" xml:space="preserve">
<style type="text/css">
	.st0{fill:#DDDDDD;}
	.st1{clip-path:url(#SVGID_3_);}
	.st2{clip-path:url(#SVGID_6_);}
	.st3{clip-path:url(#SVGID_7_);}
	.st4{fill:#404041;}
	.st5{clip-path:url(#SVGID_9_);}
	.st6{clip-path:url(#SVGID_11_);}
	.st7{fill:#9AA0BB;}
</style>
<g>
	<g>
		<circle id="SVGID_1_" class="st0" cx="-49" cy="150" r="150"/>
	</g>
	<g>
		<g>
			<defs>
				<circle id="SVGID_2_" cx="-49" cy="150" r="150"/>
			</defs>
			<clipPath id="SVGID_3_">
				<use xlink:href="#SVGID_2_"  style="overflow:visible;"/>
			</clipPath>
			<g class="st1">
				<g>
					<g>
						<defs>
							<rect id="SVGID_4_" x="-84.8" y="-455.4" width="70" height="1210.8"/>
						</defs>
						<defs>
							<rect id="SVGID_5_" x="-84.8" y="-455.4" width="70" height="1210.8"/>
						</defs>
						<clipPath id="SVGID_6_">
							<use xlink:href="#SVGID_4_"  style="overflow:visible;"/>
						</clipPath>
						<clipPath id="SVGID_7_" class="st2">
							<use xlink:href="#SVGID_5_"  style="overflow:visible;"/>
						</clipPath>
						<g class="st3">
							<g>
								<rect x="-23" y="-686.7" class="st4" width="8.5" height="1603.2"/>
							</g>
						</g>
						<g class="st3">
							<g>
								<g>
									<rect x="-48.1" y="-673.7" class="st4" width="4.3" height="1593.4"/>
								</g>
							</g>
							<g>
								<g>
									<rect x="-60.2" y="-672.1" class="st4" width="4.3" height="1598.1"/>
								</g>
							</g>
							<g>
								<g>
									<rect x="-72.4" y="-667.3" class="st4" width="4.3" height="1593.4"/>
								</g>
							</g>
							<g>
								<g>
									<rect x="-84.5" y="-667.3" class="st4" width="4.3" height="1593.4"/>
								</g>
							</g>
						</g>
					</g>
				</g>
			</g>
			<g class="st1">
				<g>
					<defs>
						<circle id="SVGID_8_" cx="-49" cy="150" r="150"/>
					</defs>
					<clipPath id="SVGID_9_">
						<use xlink:href="#SVGID_8_"  style="overflow:visible;"/>
					</clipPath>
					<g class="st5">
						<g>
							<g>
								<defs>
									<circle id="SVGID_10_" cx="-49" cy="150" r="150"/>
								</defs>
								<clipPath id="SVGID_11_">
									<use xlink:href="#SVGID_10_"  style="overflow:visible;"/>
								</clipPath>
								<g class="st6">
									<path class="st7" d="M-49,5c38.7,0,75.1,15.1,102.5,42.5S96,111.3,96,150c0,38.7-15.1,75.1-42.5,102.5S-10.3,295-49,295
										s-75.1-15.1-102.5-42.5S-194,188.7-194,150s15.1-75.1,42.5-102.5S-87.7,5-49,5 M-49,0c-82.8,0-150,67.2-150,150
										s67.2,150,150,150s150-67.2,150-150C101,67.2,33.8,0-49,0L-49,0z"/>
								</g>
							</g>
						</g>
					</g>
				</g>
			</g>
		</g>
	</g>
</g>
</svg>
