<?xml version="1.0" encoding="utf-8"?>
<!-- Generator: Adobe Illustrator 19.0.0, SVG Export Plug-In . SVG Version: 6.00 Build 0)  -->
<svg version="1.1" id="Layer_1" xmlns="http://www.w3.org/2000/svg" xmlns:xlink="http://www.w3.org/1999/xlink" x="0px" y="0px"
	 viewBox="-199 0 300 300" style="enable-background:new -199 0 300 300;" xml:space="preserve">
<style type="text/css">
	.st0{fill:#DDDDDD;}
	.st1{clip-path:url(#SVGID_3_);}
	.st2{clip-path:url(#SVGID_5_);}
	.st3{fill:none;stroke:#ACACAF;stroke-width:0.5;stroke-miterlimit:10;stroke-dasharray:1,2;}
	.st4{fill:#ACACAF;}
	.st5{fill:#F1F1F2;}
	.st6{fill:#C5C7C9;}
	.st7{fill:#929497;}
	.st8{clip-path:url(#SVGID_7_);}
	.st9{clip-path:url(#SVGID_11_);}
	.st10{fill:#9AA0BB;}
</style>
<g>
	<g>
		<circle id="SVGID_1_" class="st0" cx="-48.9" cy="150" r="150"/>
	</g>
	<g>
		<defs>
			<circle id="SVGID_2_" cx="-48.9" cy="150" r="150"/>
		</defs>
		<clipPath id="SVGID_3_">
			<use xlink:href="#SVGID_2_"  style="overflow:visible;"/>
		</clipPath>
		<g class="st1">
			<defs>
				<rect id="SVGID_4_" x="-83.5" y="5.5" width="69" height="462.5"/>
			</defs>
			<clipPath id="SVGID_5_">
				<use xlink:href="#SVGID_4_"  style="overflow:visible;"/>
			</clipPath>
			<g class="st2">
				<g>
					<g>
						<g>
							<g>
								<g>
									<path class="st3" d="M-49,679.5"/>
								</g>
							</g>
						</g>
					</g>
				</g>
			</g>
			<g class="st2">
				<g>
					<g>
						<g>
							<g>
								<g>
									<path class="st4" d="M-48.2,372.9h-1.6v-3.3h1.6V372.9z M-48.2,363.1h-1.6v-3.3h1.6V363.1z M-48.2,353.3h-1.6V350h1.6
										V353.3z M-48.2,343.5h-1.6v-3.3h1.6V343.5z M-48.2,333.7h-1.6v-3.3h1.6V333.7z M-48.2,323.9h-1.6v-3.3h1.6V323.9z
										 M-48.2,314.1h-1.6v-3.3h1.6V314.1z M-48.2,304.3h-1.6v-3.3h1.6V304.3z M-48.2,294.5h-1.6v-3.3h1.6V294.5z M-48.2,284.7
										h-1.6v-3.3h1.6V284.7z M-48.2,274.9h-1.6v-3.3h1.6V274.9z"/>
								</g>
							</g>
						</g>
					</g>
				</g>
			</g>
			<g class="st2">
				<g>
					<g>
						<g>
							<g>
								<g>
									<path class="st4" d="M-48.2,192.1h-1.6v-3.3h1.6V192.1z M-48.2,182.3h-1.6V179h1.6V182.3z M-48.2,172.5h-1.6v-3.3h1.6
										V172.5z M-48.2,162.7h-1.6v-3.3h1.6V162.7z M-48.2,152.9h-1.6v-3.3h1.6V152.9z M-48.2,143.1h-1.6v-3.3h1.6V143.1z
										 M-48.2,133.3h-1.6V130h1.6V133.3z M-48.2,123.5h-1.6v-3.3h1.6V123.5z M-48.2,113.7h-1.6v-3.3h1.6V113.7z M-48.2,103.9
										h-1.6v-3.3h1.6V103.9z M-48.2,94.1h-1.6v-3.3h1.6V94.1z M-48.2,84.4h-1.6v-3.3h1.6V84.4z"/>
								</g>
							</g>
						</g>
					</g>
				</g>
			</g>
			<g class="st2">
				<g>
					<g>
						<g>
							<g>
								<g>
									<g>
										<g>
											<g>
												<g>
													<path class="st5" d="M-14.1,257.5h-2.6v-1.6h2.6V257.5z M-23.3,257.5h-3.3v-1.6h3.3V257.5z"/>
												</g>
											</g>
										</g>
									</g>
								</g>
							</g>
						</g>
						<g>
							<g>
								<g>
									<g>
										<g>
											<g>
												<g>
													<path class="st5" d="M-70.8,257.5h-2.6v-1.6h2.6V257.5z M-79.9,257.5h-3.3v-1.6h3.3V257.5z"/>
												</g>
											</g>
										</g>
									</g>
								</g>
							</g>
						</g>
						<g>
							<g>
								<g>
									<g>
										<g>
											<g>
												<g>
													<g>
														<path class="st5" d="M-25.4,254.2c-7.5,9-21.5,11.2-23.4,11.4c-1.8-0.3-15.9-2.5-23.4-11.4c-8-9.6-7-8.8-11-8.6
															c0,0,2.8,2.4,6.7,8.1c3.3,4.9,11,12.7,21.7,14.9c0.6,0.4,2.3,0.6,5.9,0.6l0,0c0,0,0,0,0,0h0l0,0
															c3.6,0,5.3-0.3,5.9-0.6c10.7-2.2,18.4-10,21.7-14.9c3.9-5.7,6.7-8.1,6.7-8.1C-18.4,245.4-17.4,244.6-25.4,254.2z"/>
													</g>
												</g>
											</g>
										</g>
									</g>
								</g>
							</g>
							<g>
								<g>
									<g>
										<g>
											<g>
												<g>
													<g>
														<path class="st6" d="M-25.4,254.2c-7.5,9-21.5,11.2-23.4,11.4c-1.8-0.3-15.9-2.5-23.4-11.4c-8-9.6-7-8.8-11-8.6
															c0,0,3.7,0.9,7.6,6.6c3.3,4.9,11.1,12.7,21.9,14.9c0.2,0.2,3.4,0.5,3.7,0.5c0.7,0,2.1,0.1,7.3-0.8
															c9.8-2.5,17.4-10.1,20.5-14.6c3.9-5.7,7.6-6.6,7.6-6.6C-18.4,245.4-17.4,244.6-25.4,254.2z"/>
													</g>
												</g>
											</g>
										</g>
									</g>
								</g>
							</g>
						</g>
						<g>
							<g>
								<g>
									<g>
										<g>
											<g>
												<g>
													<path class="st7" d="M-14.1,245.9c0,0-0.3-0.1-0.9-0.2c-0.6,0-1.5,0-2.5,0.5c-1,0.4-1.9,1.4-2.7,2.7
														c-0.8,1.4-1.9,2.9-3.2,4.4c-2.6,3-5.9,6.4-10.2,9.1c-2.1,1.4-4.5,2.6-7.1,3.4c-2.6,0.9-5.4,1.4-8.1,1.4l-1,0l-0.6,0
														l-0.5-0.1l-1.9-0.2c-1.4-0.3-2.8-0.6-4.1-1c-2.6-0.8-5-2.1-7.1-3.4c-4.3-2.7-7.6-6.1-10.2-9.1c-1.3-1.5-2.4-3-3.2-4.4
														c-0.8-1.4-1.6-2.2-2.7-2.7c-1-0.5-1.9-0.5-2.5-0.5c-0.6,0-0.9,0.1-0.9,0.1s0.3-0.2,0.9-0.3c0.6-0.1,1.6-0.3,2.7,0
														c1.2,0.3,2.5,1.3,3.4,2.6c1,1.2,2.2,2.5,3.5,3.9c2.7,2.7,6.3,5.5,10.3,7.9c2,1.2,4.3,2.1,6.6,2.9
														c1.2,0.4,2.3,0.6,3.4,0.9l1.9,0.2l0.5,0c-0.1,0,0.3,0,0.4,0l0.9,0c2.4,0,4.9-0.3,7.2-1.1c2.3-0.8,4.5-1.7,6.6-2.9
														c4.1-2.4,7.6-5.2,10.4-7.9c1.4-1.4,2.5-2.6,3.5-3.9c1-1.3,2.3-2.3,3.4-2.6c1.2-0.4,2.1-0.2,2.7,0
														C-14.4,245.8-14.1,245.9-14.1,245.9z"/>
												</g>
											</g>
										</g>
									</g>
								</g>
							</g>
						</g>
						<g>
							<g>
								<g>
									<g>
										<g>
											<g>
												<g>
													<path class="st7" d="M-83.1,245.6c0.5-0.9,1.3-1.8,2.3-2.3c0.5-0.3,1-0.4,1.5-0.6c0.3-0.1,0.5-0.2,0.8-0.2
														c0.3,0,0.5-0.1,0.9,0l0,0c4.7,1.4,9.5,2.7,14.3,3.8c4.8,1.1,9.6,2.1,14.4,2.2c1.2,0,2.5-0.1,3.6-0.2
														c1.2-0.1,2.4-0.3,3.6-0.5c2.4-0.4,4.8-0.9,7.2-1.5c4.8-1.1,9.5-2.4,14.2-3.8l0,0l0,0c1.3-0.2,2.6-0.2,3.8,0.2
														c0.6,0.2,1.2,0.6,1.5,1.1c0.4,0.5,0.4,1.2,0.5,1.8c-0.1-0.6-0.2-1.2-0.6-1.7c-0.4-0.5-0.9-0.8-1.5-0.9
														c-1.1-0.3-2.4-0.2-3.5,0.1l0,0c-4.6,1.8-9.3,3.3-14.1,4.6c-2.4,0.6-4.8,1.2-7.3,1.6c-1.2,0.2-2.5,0.4-3.7,0.5
														c-1.3,0.1-2.5,0.2-3.8,0.2c-5.1-0.2-9.9-1.2-14.7-2.4c-4.8-1.3-9.5-2.8-14.1-4.5l0,0c-0.2,0-0.5,0-0.7,0
														c-0.3,0-0.5,0.1-0.8,0.1c-0.5,0.1-1,0.3-1.5,0.5C-81.7,244.1-82.5,244.7-83.1,245.6z"/>
												</g>
											</g>
										</g>
									</g>
								</g>
							</g>
						</g>
					</g>
					<g>
						<g>
							<g>
								<g>
									<g>
										<g>
											<g>
												<g>
													<path class="st5" d="M-14.1,242.3h-1.2v-1.6h1.2V242.3z M-21.8,242.3h-3.3v-1.6h3.3V242.3z"/>
												</g>
											</g>
										</g>
									</g>
								</g>
							</g>
						</g>
						<g>
							<g>
								<g>
									<g>
										<g>
											<g>
												<g>
													<rect x="-83.1" y="240.7" class="st5" width="3.3" height="1.6"/>
												</g>
											</g>
										</g>
									</g>
								</g>
							</g>
						</g>
						<g>
							<g>
								<g>
									<g>
										<g>
											<g>
												<g>
													<g>
														<path class="st5" d="M-25.4,239c-7.5,9-21.5,11.2-23.4,11.4c-1.8-0.3-15.9-2.5-23.4-11.4c-8-9.6-7-8.8-11-8.6
															c0,0,2.8,2.4,6.7,8.1c3.3,4.9,11,12.7,21.7,14.9c0.6,0.4,2.3,0.6,5.9,0.6l0,0c0,0,0,0,0,0h0l0,0
															c3.6,0,5.3-0.3,5.9-0.6c10.7-2.2,18.4-10,21.7-14.9c3.9-5.7,6.7-8.1,6.7-8.1C-18.4,230.2-17.4,229.4-25.4,239z"/>
													</g>
												</g>
											</g>
										</g>
									</g>
								</g>
							</g>
							<g>
								<g>
									<g>
										<g>
											<g>
												<g>
													<g>
														<path class="st6" d="M-25.4,239c-7.5,9-21.5,11.2-23.4,11.4c-1.8-0.3-15.9-2.5-23.4-11.4c-8-9.6-7-8.8-11-8.6
															c0,0,3.7,0.9,7.6,6.6c3.3,4.9,11.1,12.7,21.9,14.9c0.2,0.2,3.4,0.5,3.7,0.5c0.7,0,2.1,0.1,7.3-0.8
															c9.8-2.5,17.4-10.1,20.5-14.6c3.9-5.7,7.6-6.6,7.6-6.6C-18.4,230.2-17.4,229.4-25.4,239z"/>
													</g>
												</g>
											</g>
										</g>
									</g>
								</g>
							</g>
						</g>
						<g>
							<g>
								<g>
									<g>
										<g>
											<g>
												<g>
													<path class="st7" d="M-14.1,230.7c0,0-0.3-0.1-0.9-0.2c-0.6,0-1.5,0-2.5,0.5c-1,0.4-1.9,1.4-2.7,2.7
														c-0.8,1.4-1.9,2.9-3.2,4.4c-2.6,3-5.9,6.4-10.2,9.1c-2.1,1.4-4.5,2.6-7.1,3.4c-2.6,0.9-5.4,1.4-8.1,1.4l-1,0l-0.6,0
														l-0.5-0.1l-1.9-0.2c-1.4-0.3-2.8-0.6-4.1-1c-2.6-0.8-5-2.1-7.1-3.4c-4.3-2.7-7.6-6.1-10.2-9.1c-1.3-1.5-2.4-3-3.2-4.4
														c-0.8-1.4-1.6-2.2-2.7-2.7c-1-0.5-1.9-0.5-2.5-0.5c-0.6,0-0.9,0.1-0.9,0.1s0.3-0.2,0.9-0.3c0.6-0.1,1.6-0.3,2.7,0
														c1.2,0.3,2.5,1.3,3.4,2.6c1,1.2,2.2,2.5,3.5,3.9c2.7,2.7,6.3,5.5,10.3,7.9c2,1.2,4.3,2.1,6.6,2.9
														c1.2,0.4,2.3,0.6,3.4,0.9l1.9,0.2l0.5,0c-0.1,0,0.3,0,0.4,0l0.9,0c2.4,0,4.9-0.3,7.2-1.1c2.3-0.8,4.5-1.7,6.6-2.9
														c4.1-2.4,7.6-5.2,10.4-7.9c1.4-1.4,2.5-2.6,3.5-3.9c1-1.3,2.3-2.3,3.4-2.6c1.2-0.4,2.1-0.2,2.7,0
														C-14.4,230.6-14.1,230.7-14.1,230.7z"/>
												</g>
											</g>
										</g>
									</g>
								</g>
							</g>
						</g>
						<g>
							<g>
								<g>
									<g>
										<g>
											<g>
												<g>
													<path class="st7" d="M-83.1,230.4c0.5-0.9,1.3-1.8,2.3-2.3c0.5-0.3,1-0.4,1.5-0.6c0.3-0.1,0.5-0.2,0.8-0.2
														c0.3,0,0.5-0.1,0.9,0l0,0c4.7,1.4,9.5,2.7,14.3,3.8c4.8,1.1,9.6,2.1,14.4,2.2c1.2,0,2.5-0.1,3.6-0.2
														c1.2-0.1,2.4-0.3,3.6-0.5c2.4-0.4,4.8-0.9,7.2-1.5c4.8-1.1,9.5-2.4,14.2-3.8l0,0l0,0c1.3-0.2,2.6-0.2,3.8,0.2
														c0.6,0.2,1.2,0.6,1.5,1.1c0.4,0.5,0.4,1.2,0.5,1.8c-0.1-0.6-0.2-1.2-0.6-1.7c-0.4-0.5-0.9-0.8-1.5-0.9
														c-1.1-0.3-2.4-0.2-3.5,0.1l0,0c-4.6,1.8-9.3,3.3-14.1,4.6c-2.4,0.6-4.8,1.2-7.3,1.6c-1.2,0.2-2.5,0.4-3.7,0.5
														c-1.3,0.1-2.5,0.2-3.8,0.2c-5.1-0.2-9.9-1.2-14.7-2.4c-4.8-1.3-9.5-2.8-14.1-4.5l0,0c-0.2,0-0.5,0-0.7,0
														c-0.3,0-0.5,0.1-0.8,0.1c-0.5,0.1-1,0.3-1.5,0.5C-81.7,228.9-82.5,229.5-83.1,230.4z"/>
												</g>
											</g>
										</g>
									</g>
								</g>
							</g>
						</g>
					</g>
					<g>
						<g>
							<g>
								<g>
									<g>
										<g>
											<g>
												<g>
													<path class="st5" d="M-15.1,227.1h-3.3v-1.6h3.3V227.1z M-24.9,227.1h-3.3v-1.6h3.3V227.1z"/>
												</g>
											</g>
										</g>
									</g>
								</g>
							</g>
						</g>
						<g>
							<g>
								<g>
									<g>
										<g>
											<g>
												<g>
													<path class="st5" d="M-70.1,227.1h-3.3v-1.6h3.3V227.1z M-79.9,227.1h-3.3v-1.6h3.3V227.1z"/>
												</g>
											</g>
										</g>
									</g>
								</g>
							</g>
						</g>
						<g>
							<g>
								<g>
									<g>
										<g>
											<g>
												<g>
													<g>
														<path class="st5" d="M-25.4,223.8c-7.5,9-21.5,11.2-23.4,11.4c-1.8-0.3-15.9-2.5-23.4-11.4c-8-9.6-7-8.8-11-8.6
															c0,0,2.8,2.4,6.7,8.1c3.3,4.9,11,12.7,21.7,14.9c0.6,0.4,2.3,0.6,5.9,0.6l0,0c0,0,0,0,0,0h0l0,0
															c3.6,0,5.3-0.3,5.9-0.6c10.7-2.2,18.4-10,21.7-14.9c3.9-5.7,6.7-8.1,6.7-8.1C-18.4,215-17.4,214.2-25.4,223.8z"/>
													</g>
												</g>
											</g>
										</g>
									</g>
								</g>
							</g>
							<g>
								<g>
									<g>
										<g>
											<g>
												<g>
													<g>
														<path class="st6" d="M-25.4,223.8c-7.5,9-21.5,11.2-23.4,11.4c-1.8-0.3-15.9-2.5-23.4-11.4c-8-9.6-7-8.8-11-8.6
															c0,0,3.7,0.9,7.6,6.6c3.3,4.9,11.1,12.7,21.9,14.9c0.2,0.2,3.4,0.5,3.7,0.5c0.7,0,2.1,0.1,7.3-0.8
															c9.8-2.5,17.4-10.1,20.5-14.6c3.9-5.7,7.6-6.6,7.6-6.6C-18.4,215-17.4,214.2-25.4,223.8z"/>
													</g>
												</g>
											</g>
										</g>
									</g>
								</g>
							</g>
						</g>
						<g>
							<g>
								<g>
									<g>
										<g>
											<g>
												<g>
													<path class="st7" d="M-14.1,215.5c0,0-0.3-0.1-0.9-0.2c-0.6,0-1.5,0-2.5,0.5c-1,0.4-1.9,1.4-2.7,2.7
														c-0.8,1.4-1.9,2.9-3.2,4.4c-2.6,3-5.9,6.4-10.2,9.1c-2.1,1.4-4.5,2.6-7.1,3.4c-2.6,0.9-5.4,1.4-8.1,1.4l-1,0l-0.6,0
														l-0.5-0.1l-1.9-0.2c-1.4-0.3-2.8-0.6-4.1-1c-2.6-0.8-5-2.1-7.1-3.4c-4.3-2.7-7.6-6.1-10.2-9.1c-1.3-1.5-2.4-3-3.2-4.4
														c-0.8-1.4-1.6-2.2-2.7-2.7c-1-0.5-1.9-0.5-2.5-0.5c-0.6,0-0.9,0.1-0.9,0.1s0.3-0.2,0.9-0.3c0.6-0.1,1.6-0.3,2.7,0
														c1.2,0.3,2.5,1.3,3.4,2.6c1,1.2,2.2,2.5,3.5,3.9c2.7,2.7,6.3,5.5,10.3,7.9c2,1.2,4.3,2.1,6.6,2.9
														c1.2,0.4,2.3,0.6,3.4,0.9l1.9,0.2l0.5,0c-0.1,0,0.3,0,0.4,0l0.9,0c2.4,0,4.9-0.3,7.2-1.1c2.3-0.8,4.5-1.7,6.6-2.9
														c4.1-2.4,7.6-5.2,10.4-7.9c1.4-1.4,2.5-2.6,3.5-3.9c1-1.3,2.3-2.3,3.4-2.6c1.2-0.4,2.1-0.2,2.7,0
														C-14.4,215.4-14.1,215.5-14.1,215.5z"/>
												</g>
											</g>
										</g>
									</g>
								</g>
							</g>
						</g>
						<g>
							<g>
								<g>
									<g>
										<g>
											<g>
												<g>
													<path class="st7" d="M-83.1,215.2c0.5-0.9,1.3-1.8,2.3-2.3c0.5-0.3,1-0.4,1.5-0.6c0.3-0.1,0.5-0.2,0.8-0.2
														c0.3,0,0.5-0.1,0.9,0l0,0c4.7,1.4,9.5,2.7,14.3,3.8c4.8,1.1,9.6,2.1,14.4,2.2c1.2,0,2.5-0.1,3.6-0.2
														c1.2-0.1,2.4-0.3,3.6-0.5c2.4-0.4,4.8-0.9,7.2-1.5c4.8-1.1,9.5-2.4,14.2-3.8l0,0l0,0c1.3-0.2,2.6-0.2,3.8,0.2
														c0.6,0.2,1.2,0.6,1.5,1.1c0.4,0.5,0.4,1.2,0.5,1.8c-0.1-0.6-0.2-1.2-0.6-1.7c-0.4-0.5-0.9-0.8-1.5-0.9
														c-1.1-0.3-2.4-0.2-3.5,0.1l0,0c-4.6,1.8-9.3,3.3-14.1,4.6c-2.4,0.6-4.8,1.2-7.3,1.6c-1.2,0.2-2.5,0.4-3.7,0.5
														c-1.3,0.1-2.5,0.2-3.8,0.2c-5.1-0.2-9.9-1.2-14.7-2.4c-4.8-1.3-9.5-2.8-14.1-4.5l0,0c-0.2,0-0.5,0-0.7,0
														c-0.3,0-0.5,0.1-0.8,0.1c-0.5,0.1-1,0.3-1.5,0.5C-81.7,213.7-82.5,214.3-83.1,215.2z"/>
												</g>
											</g>
										</g>
									</g>
								</g>
							</g>
						</g>
					</g>
					<g>
						<g>
							<g>
								<g>
									<g>
										<g>
											<g>
												<g>
													<path class="st5" d="M-14.1,212h-1.9v-1.6h1.9V212z M-22.6,212h-3.3v-1.6h3.3V212z"/>
												</g>
											</g>
										</g>
									</g>
								</g>
							</g>
						</g>
						<g>
							<g>
								<g>
									<g>
										<g>
											<g>
												<g>
													<path class="st5" d="M-71,212h-2.4v-1.6h2.4V212z M-79.9,212h-3.3v-1.6h3.3V212z"/>
												</g>
											</g>
										</g>
									</g>
								</g>
							</g>
						</g>
						<g>
							<g>
								<g>
									<g>
										<g>
											<g>
												<g>
													<g>
														<path class="st5" d="M-25.4,208.7c-7.5,9-21.5,11.2-23.4,11.4c-1.8-0.3-15.9-2.5-23.4-11.4c-8-9.6-7-8.8-11-8.6
															c0,0,2.8,2.4,6.7,8.1c3.3,4.9,11,12.7,21.7,14.9c0.6,0.4,2.3,0.6,5.9,0.6l0,0c0,0,0,0,0,0h0l0,0
															c3.6,0,5.3-0.3,5.9-0.6c10.7-2.2,18.4-10,21.7-14.9c3.9-5.7,6.7-8.1,6.7-8.1C-18.4,199.8-17.4,199.1-25.4,208.7z"/>
													</g>
												</g>
											</g>
										</g>
									</g>
								</g>
							</g>
							<g>
								<g>
									<g>
										<g>
											<g>
												<g>
													<g>
														<path class="st6" d="M-25.4,208.7c-7.5,9-21.5,11.2-23.4,11.4c-1.8-0.3-15.9-2.5-23.4-11.4c-8-9.6-7-8.8-11-8.6
															c0,0,3.7,0.9,7.6,6.6c3.3,4.9,11.1,12.7,21.9,14.9c0.2,0.2,3.4,0.5,3.7,0.5c0.7,0,2.1,0.1,7.3-0.8
															c9.8-2.5,17.4-10.1,20.5-14.6c3.9-5.7,7.6-6.6,7.6-6.6C-18.4,199.8-17.4,199.1-25.4,208.7z"/>
													</g>
												</g>
											</g>
										</g>
									</g>
								</g>
							</g>
						</g>
						<g>
							<g>
								<g>
									<g>
										<g>
											<g>
												<g>
													<path class="st7" d="M-14.1,200.4c0,0-0.3-0.1-0.9-0.2c-0.6,0-1.5,0-2.5,0.5c-1,0.4-1.9,1.4-2.7,2.7
														c-0.8,1.4-1.9,2.9-3.2,4.4c-2.6,3-5.9,6.4-10.2,9.1c-2.1,1.4-4.5,2.6-7.1,3.4c-2.6,0.9-5.4,1.4-8.1,1.4l-1,0l-0.6,0
														l-0.5-0.1l-1.9-0.2c-1.4-0.3-2.8-0.6-4.1-1c-2.6-0.8-5-2.1-7.1-3.4c-4.3-2.7-7.6-6.1-10.2-9.1c-1.3-1.5-2.4-3-3.2-4.4
														c-0.8-1.4-1.6-2.2-2.7-2.7c-1-0.5-1.9-0.5-2.5-0.5c-0.6,0-0.9,0.1-0.9,0.1s0.3-0.2,0.9-0.3c0.6-0.1,1.6-0.3,2.7,0
														c1.2,0.3,2.5,1.3,3.4,2.6c1,1.2,2.2,2.5,3.5,3.9c2.7,2.7,6.3,5.5,10.3,7.9c2,1.2,4.3,2.1,6.6,2.9
														c1.2,0.4,2.3,0.6,3.4,0.9l1.9,0.2l0.5,0c-0.1,0,0.3,0,0.4,0l0.9,0c2.4,0,4.9-0.3,7.2-1.1c2.3-0.8,4.5-1.7,6.6-2.9
														c4.1-2.4,7.6-5.2,10.4-7.9c1.4-1.4,2.5-2.6,3.5-3.9c1-1.3,2.3-2.3,3.4-2.6c1.2-0.4,2.1-0.2,2.7,0
														C-14.4,200.2-14.1,200.4-14.1,200.4z"/>
												</g>
											</g>
										</g>
									</g>
								</g>
							</g>
						</g>
						<g>
							<g>
								<g>
									<g>
										<g>
											<g>
												<g>
													<path class="st7" d="M-83.1,200c0.5-0.9,1.3-1.8,2.3-2.3c0.5-0.3,1-0.4,1.5-0.6c0.3-0.1,0.5-0.2,0.8-0.2
														c0.3,0,0.5-0.1,0.9,0l0,0c4.7,1.4,9.5,2.7,14.3,3.8c4.8,1.1,9.6,2.1,14.4,2.2c1.2,0,2.5-0.1,3.6-0.2
														c1.2-0.1,2.4-0.3,3.6-0.5c2.4-0.4,4.8-0.9,7.2-1.5c4.8-1.1,9.5-2.4,14.2-3.8l0,0l0,0c1.3-0.2,2.6-0.2,3.8,0.2
														c0.6,0.2,1.2,0.6,1.5,1.1c0.4,0.5,0.4,1.2,0.5,1.8c-0.1-0.6-0.2-1.2-0.6-1.7c-0.4-0.5-0.9-0.8-1.5-0.9
														c-1.1-0.3-2.4-0.2-3.5,0.1l0,0c-4.6,1.8-9.3,3.3-14.1,4.6c-2.4,0.6-4.8,1.2-7.3,1.6c-1.2,0.2-2.5,0.4-3.7,0.5
														c-1.3,0.1-2.5,0.2-3.8,0.2c-5.1-0.2-9.9-1.2-14.7-2.4c-4.8-1.3-9.5-2.8-14.1-4.5l0,0c-0.2,0-0.5,0-0.7,0
														c-0.3,0-0.5,0.1-0.8,0.1c-0.5,0.1-1,0.3-1.5,0.5C-81.7,198.5-82.5,199.2-83.1,200z"/>
												</g>
											</g>
										</g>
									</g>
								</g>
							</g>
						</g>
					</g>
				</g>
				<g>
					<g>
						<g>
							<g>
								<g>
									<g>
										<g>
											<g>
												<g>
													<path class="st5" d="M-71.1,25.4h-3.3v-1.6h3.3V25.4z M-80.9,25.4h-2.6v-1.6h2.6V25.4z"/>
												</g>
											</g>
										</g>
									</g>
								</g>
							</g>
						</g>
						<g>
							<g>
								<g>
									<g>
										<g>
											<g>
												<g>
													<path class="st5" d="M-14.5,25.4h-3.3v-1.6h3.3V25.4z M-24.3,25.4h-2.6v-1.6h2.6V25.4z"/>
												</g>
											</g>
										</g>
									</g>
								</g>
							</g>
						</g>
						<g>
							<g>
								<g>
									<g>
										<g>
											<g>
												<g>
													<g>
														<path class="st5" d="M-72.2,27.1c7.5-9,21.5-11.2,23.4-11.4c1.8,0.3,15.9,2.5,23.4,11.4c8,9.6,7,8.8,11,8.6
															c0,0-2.8-2.4-6.7-8.1c-3.3-4.9-11-12.7-21.7-14.9c-0.6-0.4-2.3-0.6-5.9-0.6l0,0c0,0,0,0,0,0h0l0,0
															c-3.6,0-5.3,0.3-5.9,0.6c-10.7,2.2-18.4,10-21.7,14.9c-3.9,5.7-6.7,8.1-6.7,8.1C-79.3,35.9-80.2,36.7-72.2,27.1z"/>
													</g>
												</g>
											</g>
										</g>
									</g>
								</g>
							</g>
							<g>
								<g>
									<g>
										<g>
											<g>
												<g>
													<g>
														<path class="st6" d="M-72.2,27.1c7.5-9,21.5-11.2,23.4-11.4c1.8,0.3,15.9,2.5,23.4,11.4c8,9.6,7,8.8,11,8.6
															c0,0-3.7-0.9-7.6-6.6c-3.3-4.9-11.1-12.7-21.9-14.9c-0.2-0.2-3.4-0.5-3.7-0.5c-0.7,0-2.1-0.1-7.3,0.8
															c-9.8,2.5-17.4,10.1-20.5,14.6c-3.9,5.7-7.6,6.6-7.6,6.6C-79.3,35.9-80.2,36.7-72.2,27.1z"/>
													</g>
												</g>
											</g>
										</g>
									</g>
								</g>
							</g>
						</g>
						<g>
							<g>
								<g>
									<g>
										<g>
											<g>
												<g>
													<path class="st7" d="M-83.5,35.4c0,0,0.3,0.1,0.9,0.2c0.6,0,1.5,0,2.5-0.5c1-0.4,1.9-1.4,2.7-2.7
														c0.8-1.4,1.9-2.9,3.2-4.4c2.6-3,5.9-6.4,10.2-9.1c2.1-1.4,4.5-2.6,7.1-3.4c2.6-0.9,5.4-1.4,8.1-1.4l1,0l0.6,0l0.5,0.1
														l1.9,0.2c1.4,0.3,2.8,0.6,4.1,1c2.6,0.8,5,2.1,7.1,3.4c4.3,2.7,7.6,6.1,10.2,9.1c1.3,1.5,2.4,3,3.2,4.4
														c0.8,1.4,1.6,2.2,2.7,2.7c1,0.5,1.9,0.5,2.5,0.5c0.6,0,0.9-0.1,0.9-0.1s-0.3,0.2-0.9,0.3c-0.6,0.1-1.6,0.3-2.7,0
														c-1.2-0.3-2.5-1.3-3.4-2.6c-1-1.2-2.2-2.5-3.5-3.9c-2.7-2.7-6.3-5.5-10.3-7.9c-2-1.2-4.3-2.1-6.6-2.9
														c-1.2-0.4-2.3-0.6-3.4-0.9l-1.9-0.2l-0.5-0.1c0.1,0-0.3,0-0.4,0l-0.9,0c-2.4,0-4.9,0.3-7.2,1.1
														c-2.3,0.8-4.5,1.7-6.6,2.9c-4.1,2.4-7.6,5.2-10.4,7.9c-1.4,1.4-2.5,2.6-3.5,3.9c-1,1.3-2.3,2.3-3.4,2.6
														c-1.2,0.4-2.1,0.2-2.7,0C-83.2,35.5-83.5,35.4-83.5,35.4z"/>
												</g>
											</g>
										</g>
									</g>
								</g>
							</g>
						</g>
						<g>
							<g>
								<g>
									<g>
										<g>
											<g>
												<g>
													<path class="st7" d="M-14.5,35.7c-0.5,0.9-1.3,1.8-2.3,2.3c-0.5,0.3-1,0.4-1.5,0.6c-0.3,0.1-0.5,0.2-0.8,0.2
														c-0.3,0-0.5,0.1-0.9,0l0,0c-4.7-1.4-9.5-2.7-14.3-3.8c-4.8-1.1-9.6-2.1-14.4-2.2c-1.2,0-2.5,0.1-3.6,0.2
														c-1.2,0.1-2.4,0.3-3.6,0.5c-2.4,0.4-4.8,0.9-7.2,1.5c-4.8,1.1-9.5,2.4-14.2,3.8l0,0l0,0c-1.3,0.2-2.6,0.2-3.8-0.2
														c-0.6-0.2-1.2-0.6-1.5-1.1c-0.4-0.5-0.4-1.2-0.5-1.8c0.1,0.6,0.2,1.2,0.6,1.7c0.4,0.5,0.9,0.8,1.5,0.9
														c1.1,0.3,2.4,0.2,3.5-0.1l0,0c4.6-1.8,9.3-3.3,14.1-4.6c2.4-0.6,4.8-1.2,7.3-1.6c1.2-0.2,2.5-0.4,3.7-0.5
														c1.3-0.1,2.5-0.2,3.8-0.2c5.1,0.2,9.9,1.2,14.7,2.4c4.8,1.3,9.5,2.8,14.1,4.5l0,0c0.2,0,0.5,0,0.7,0
														c0.3,0,0.5-0.1,0.8-0.1c0.5-0.1,1-0.3,1.5-0.5C-16,37.2-15.1,36.6-14.5,35.7z"/>
												</g>
											</g>
										</g>
									</g>
								</g>
							</g>
						</g>
					</g>
					<g>
						<g>
							<g>
								<g>
									<g>
										<g>
											<g>
												<g>
													<path class="st5" d="M-72.5,40.6h-3.3v-1.6h3.3V40.6z M-82.3,40.6h-1.2v-1.6h1.2V40.6z"/>
												</g>
											</g>
										</g>
									</g>
								</g>
							</g>
						</g>
						<g>
							<g>
								<g>
									<g>
										<g>
											<g>
												<g>
													<rect x="-17.8" y="38.9" class="st5" width="3.3" height="1.6"/>
												</g>
											</g>
										</g>
									</g>
								</g>
							</g>
						</g>
						<g>
							<g>
								<g>
									<g>
										<g>
											<g>
												<g>
													<g>
														<path class="st5" d="M-72.2,42.2c7.5-9,21.5-11.2,23.4-11.4c1.8,0.3,15.9,2.5,23.4,11.4c8,9.6,7,8.8,11,8.6
															c0,0-2.8-2.4-6.7-8.1c-3.3-4.9-11-12.7-21.7-14.9c-0.6-0.4-2.3-0.6-5.9-0.6l0,0c0,0,0,0,0,0h0l0,0
															c-3.6,0-5.3,0.3-5.9,0.6c-10.7,2.2-18.4,10-21.7,14.9c-3.9,5.7-6.7,8.1-6.7,8.1C-79.3,51.1-80.2,51.8-72.2,42.2z"/>
													</g>
												</g>
											</g>
										</g>
									</g>
								</g>
							</g>
							<g>
								<g>
									<g>
										<g>
											<g>
												<g>
													<g>
														<path class="st6" d="M-72.2,42.2c7.5-9,21.5-11.2,23.4-11.4c1.8,0.3,15.9,2.5,23.4,11.4c8,9.6,7,8.8,11,8.6
															c0,0-3.7-0.9-7.6-6.6c-3.3-4.9-11.1-12.7-21.9-14.9c-0.2-0.2-3.4-0.5-3.7-0.5c-0.7,0-2.1-0.1-7.3,0.8
															c-9.8,2.5-17.4,10.1-20.5,14.6c-3.9,5.7-7.6,6.6-7.6,6.6C-79.3,51.1-80.2,51.8-72.2,42.2z"/>
													</g>
												</g>
											</g>
										</g>
									</g>
								</g>
							</g>
						</g>
						<g>
							<g>
								<g>
									<g>
										<g>
											<g>
												<g>
													<path class="st7" d="M-83.5,50.5c0,0,0.3,0.1,0.9,0.2c0.6,0,1.5,0,2.5-0.5c1-0.4,1.9-1.4,2.7-2.7
														c0.8-1.4,1.9-2.9,3.2-4.4c2.6-3,5.9-6.4,10.2-9.1c2.1-1.4,4.5-2.6,7.1-3.4c2.6-0.9,5.4-1.4,8.1-1.4l1,0l0.6,0l0.5,0.1
														l1.9,0.2c1.4,0.3,2.8,0.6,4.1,1c2.6,0.8,5,2.1,7.1,3.4c4.3,2.7,7.6,6.1,10.2,9.1c1.3,1.5,2.4,3,3.2,4.4
														c0.8,1.4,1.6,2.2,2.7,2.7c1,0.5,1.9,0.5,2.5,0.5c0.6,0,0.9-0.1,0.9-0.1s-0.3,0.2-0.9,0.3c-0.6,0.1-1.6,0.3-2.7,0
														c-1.2-0.3-2.5-1.3-3.4-2.6c-1-1.2-2.2-2.5-3.5-3.9c-2.7-2.7-6.3-5.5-10.3-7.9c-2-1.2-4.3-2.1-6.6-2.9
														c-1.2-0.4-2.3-0.6-3.4-0.9l-1.9-0.2l-0.5,0c0.1,0-0.3,0-0.4,0l-0.9,0c-2.4,0-4.9,0.3-7.2,1.1c-2.3,0.8-4.5,1.7-6.6,2.9
														c-4.1,2.4-7.6,5.2-10.4,7.9c-1.4,1.4-2.5,2.6-3.5,3.9c-1,1.3-2.3,2.3-3.4,2.6c-1.2,0.4-2.1,0.2-2.7,0
														C-83.2,50.7-83.5,50.5-83.5,50.5z"/>
												</g>
											</g>
										</g>
									</g>
								</g>
							</g>
						</g>
						<g>
							<g>
								<g>
									<g>
										<g>
											<g>
												<g>
													<path class="st7" d="M-14.5,50.8c-0.5,0.9-1.3,1.8-2.3,2.3c-0.5,0.3-1,0.4-1.5,0.6c-0.3,0.1-0.5,0.2-0.8,0.2
														c-0.3,0-0.5,0.1-0.9,0l0,0c-4.7-1.4-9.5-2.7-14.3-3.8c-4.8-1.1-9.6-2.1-14.4-2.2c-1.2,0-2.5,0.1-3.6,0.2
														c-1.2,0.1-2.4,0.3-3.6,0.5c-2.4,0.4-4.8,0.9-7.2,1.5c-4.8,1.1-9.5,2.4-14.2,3.8l0,0l0,0c-1.3,0.2-2.6,0.2-3.8-0.2
														c-0.6-0.2-1.2-0.6-1.5-1.1c-0.4-0.5-0.4-1.2-0.5-1.8c0.1,0.6,0.2,1.2,0.6,1.7c0.4,0.5,0.9,0.8,1.5,0.9
														c1.1,0.3,2.4,0.2,3.5-0.1l0,0c4.6-1.8,9.3-3.3,14.1-4.6c2.4-0.6,4.8-1.2,7.3-1.6c1.2-0.2,2.5-0.4,3.7-0.5
														c1.3-0.1,2.5-0.2,3.8-0.2c5.1,0.2,9.9,1.2,14.7,2.4c4.8,1.3,9.5,2.8,14.1,4.5l0,0c0.2,0,0.5,0,0.7,0
														c0.3,0,0.5-0.1,0.8-0.1c0.5-0.1,1-0.3,1.5-0.5C-16,52.4-15.1,51.7-14.5,50.8z"/>
												</g>
											</g>
										</g>
									</g>
								</g>
							</g>
						</g>
					</g>
					<g>
						<g>
							<g>
								<g>
									<g>
										<g>
											<g>
												<g>
													<path class="st5" d="M-69.5,55.8h-3.3v-1.6h3.3V55.8z M-79.3,55.8h-3.3v-1.6h3.3V55.8z"/>
												</g>
											</g>
										</g>
									</g>
								</g>
							</g>
						</g>
						<g>
							<g>
								<g>
									<g>
										<g>
											<g>
												<g>
													<path class="st5" d="M-14.5,55.8h-3.3v-1.6h3.3V55.8z M-24.3,55.8h-3.3v-1.6h3.3V55.8z"/>
												</g>
											</g>
										</g>
									</g>
								</g>
							</g>
						</g>
						<g>
							<g>
								<g>
									<g>
										<g>
											<g>
												<g>
													<g>
														<path class="st5" d="M-72.2,57.4c7.5-9,21.5-11.2,23.4-11.4c1.8,0.3,15.9,2.5,23.4,11.4c8,9.6,7,8.8,11,8.6
															c0,0-2.8-2.4-6.7-8.1c-3.3-4.9-11-12.7-21.7-14.9c-0.6-0.4-2.3-0.6-5.9-0.6l0,0c0,0,0,0,0,0h0l0,0
															c-3.6,0-5.3,0.3-5.9,0.6c-10.7,2.2-18.4,10-21.7,14.9c-3.9,5.7-6.7,8.1-6.7,8.1C-79.3,66.3-80.2,67-72.2,57.4z"/>
													</g>
												</g>
											</g>
										</g>
									</g>
								</g>
							</g>
							<g>
								<g>
									<g>
										<g>
											<g>
												<g>
													<g>
														<path class="st6" d="M-72.2,57.4c7.5-9,21.5-11.2,23.4-11.4c1.8,0.3,15.9,2.5,23.4,11.4c8,9.6,7,8.8,11,8.6
															c0,0-3.7-0.9-7.6-6.6c-3.3-4.9-11.1-12.7-21.9-14.9c-0.2-0.2-3.4-0.5-3.7-0.5c-0.7,0-2.1-0.1-7.3,0.8
															c-9.8,2.5-17.4,10.1-20.5,14.6c-3.9,5.7-7.6,6.6-7.6,6.6C-79.3,66.3-80.2,67-72.2,57.4z"/>
													</g>
												</g>
											</g>
										</g>
									</g>
								</g>
							</g>
						</g>
						<g>
							<g>
								<g>
									<g>
										<g>
											<g>
												<g>
													<path class="st7" d="M-83.5,65.7c0,0,0.3,0.1,0.9,0.2c0.6,0,1.5,0,2.5-0.5c1-0.4,1.9-1.4,2.7-2.7
														c0.8-1.4,1.9-2.9,3.2-4.4c2.6-3,5.9-6.4,10.2-9.1c2.1-1.4,4.5-2.6,7.1-3.4c2.6-0.9,5.4-1.4,8.1-1.4l1,0l0.6,0l0.5,0.1
														l1.9,0.2c1.4,0.3,2.8,0.6,4.1,1c2.6,0.8,5,2.1,7.1,3.4c4.3,2.7,7.6,6.1,10.2,9.1c1.3,1.5,2.4,3,3.2,4.4
														c0.8,1.4,1.6,2.2,2.7,2.7c1,0.5,1.9,0.5,2.5,0.5c0.6,0,0.9-0.1,0.9-0.1s-0.3,0.2-0.9,0.3c-0.6,0.1-1.6,0.3-2.7,0
														c-1.2-0.3-2.5-1.3-3.4-2.6c-1-1.2-2.2-2.5-3.5-3.9c-2.7-2.7-6.3-5.5-10.3-7.9c-2-1.2-4.3-2.1-6.6-2.9
														c-1.2-0.4-2.3-0.6-3.4-0.9l-1.9-0.2l-0.5,0c0.1,0-0.3,0-0.4,0l-0.9,0c-2.4,0-4.9,0.3-7.2,1.1c-2.3,0.8-4.5,1.7-6.6,2.9
														c-4.1,2.4-7.6,5.2-10.4,7.9c-1.4,1.4-2.5,2.6-3.5,3.9c-1,1.3-2.3,2.3-3.4,2.6c-1.2,0.4-2.1,0.2-2.7,0
														C-83.2,65.9-83.5,65.7-83.5,65.7z"/>
												</g>
											</g>
										</g>
									</g>
								</g>
							</g>
						</g>
						<g>
							<g>
								<g>
									<g>
										<g>
											<g>
												<g>
													<path class="st7" d="M-14.5,66c-0.5,0.9-1.3,1.8-2.3,2.3c-0.5,0.3-1,0.4-1.5,0.6c-0.3,0.1-0.5,0.2-0.8,0.2
														c-0.3,0-0.5,0.1-0.9,0l0,0c-4.7-1.4-9.5-2.7-14.3-3.8c-4.8-1.1-9.6-2.1-14.4-2.2c-1.2,0-2.5,0.1-3.6,0.2
														c-1.2,0.1-2.4,0.3-3.6,0.5c-2.4,0.4-4.8,0.9-7.2,1.5c-4.8,1.1-9.5,2.4-14.2,3.8l0,0l0,0c-1.3,0.2-2.6,0.2-3.8-0.2
														c-0.6-0.2-1.2-0.6-1.5-1.1c-0.4-0.5-0.4-1.2-0.5-1.8c0.1,0.6,0.2,1.2,0.6,1.7c0.4,0.5,0.9,0.8,1.5,0.9
														c1.1,0.3,2.4,0.2,3.5-0.1l0,0c4.6-1.8,9.3-3.3,14.1-4.6c2.4-0.6,4.8-1.2,7.3-1.6c1.2-0.2,2.5-0.4,3.7-0.5
														c1.3-0.1,2.5-0.2,3.8-0.2c5.1,0.2,9.9,1.2,14.7,2.4c4.8,1.3,9.5,2.8,14.1,4.5l0,0c0.2,0,0.5,0,0.7,0
														c0.3,0,0.5-0.1,0.8-0.1c0.5-0.1,1-0.3,1.5-0.5C-16,67.6-15.1,66.9-14.5,66z"/>
												</g>
											</g>
										</g>
									</g>
								</g>
							</g>
						</g>
					</g>
					<g>
						<g>
							<g>
								<g>
									<g>
										<g>
											<g>
												<g>
													<path class="st5" d="M-71.8,70.9H-75v-1.6h3.3V70.9z M-81.6,70.9h-1.9v-1.6h1.9V70.9z"/>
												</g>
											</g>
										</g>
									</g>
								</g>
							</g>
						</g>
						<g>
							<g>
								<g>
									<g>
										<g>
											<g>
												<g>
													<path class="st5" d="M-14.5,70.9h-3.3v-1.6h3.3V70.9z M-24.3,70.9h-2.4v-1.6h2.4V70.9z"/>
												</g>
											</g>
										</g>
									</g>
								</g>
							</g>
						</g>
						<g>
							<g>
								<g>
									<g>
										<g>
											<g>
												<g>
													<g>
														<path class="st5" d="M-72.2,72.6c7.5-9,21.5-11.2,23.4-11.4c1.8,0.3,15.9,2.5,23.4,11.4c8,9.6,7,8.8,11,8.6
															c0,0-2.8-2.4-6.7-8.1c-3.3-4.9-11-12.7-21.7-14.9c-0.6-0.4-2.3-0.6-5.9-0.6l0,0c0,0,0,0,0,0h0l0,0
															c-3.6,0-5.3,0.3-5.9,0.6c-10.7,2.2-18.4,10-21.7,14.9c-3.9,5.7-6.7,8.1-6.7,8.1C-79.3,81.5-80.2,82.2-72.2,72.6z"/>
													</g>
												</g>
											</g>
										</g>
									</g>
								</g>
							</g>
							<g>
								<g>
									<g>
										<g>
											<g>
												<g>
													<g>
														<path class="st6" d="M-72.2,72.6c7.5-9,21.5-11.2,23.4-11.4c1.8,0.3,15.9,2.5,23.4,11.4c8,9.6,7,8.8,11,8.6
															c0,0-3.7-0.9-7.6-6.6c-3.3-4.9-11.1-12.7-21.9-14.9c-0.2-0.2-3.4-0.5-3.7-0.5c-0.7,0-2.1-0.1-7.3,0.8
															c-9.8,2.5-17.4,10.1-20.5,14.6c-3.9,5.7-7.6,6.6-7.6,6.6C-79.3,81.5-80.2,82.2-72.2,72.6z"/>
													</g>
												</g>
											</g>
										</g>
									</g>
								</g>
							</g>
						</g>
						<g>
							<g>
								<g>
									<g>
										<g>
											<g>
												<g>
													<path class="st7" d="M-83.5,80.9c0,0,0.3,0.1,0.9,0.2c0.6,0,1.5,0,2.5-0.5c1-0.4,1.9-1.4,2.7-2.7
														c0.8-1.4,1.9-2.9,3.2-4.4c2.6-3,5.9-6.4,10.2-9.1c2.1-1.4,4.5-2.6,7.1-3.4c2.6-0.9,5.4-1.4,8.1-1.4l1,0l0.6,0l0.5,0.1
														l1.9,0.2c1.4,0.3,2.8,0.6,4.1,1c2.6,0.8,5,2.1,7.1,3.4c4.3,2.7,7.6,6.1,10.2,9.1c1.3,1.5,2.4,3,3.2,4.4
														c0.8,1.4,1.6,2.2,2.7,2.7c1,0.5,1.9,0.5,2.5,0.5c0.6,0,0.9-0.1,0.9-0.1s-0.3,0.2-0.9,0.3c-0.6,0.1-1.6,0.3-2.7,0
														c-1.2-0.3-2.5-1.3-3.4-2.6c-1-1.2-2.2-2.5-3.5-3.9c-2.7-2.7-6.3-5.5-10.3-7.9c-2-1.2-4.3-2.1-6.6-2.9
														c-1.2-0.4-2.3-0.6-3.4-0.9l-1.9-0.2l-0.5,0c0.1,0-0.3,0-0.4,0l-0.9,0c-2.4,0-4.9,0.3-7.2,1.1c-2.3,0.8-4.5,1.7-6.6,2.9
														c-4.1,2.4-7.6,5.2-10.4,7.9c-1.4,1.4-2.5,2.6-3.5,3.9c-1,1.3-2.3,2.3-3.4,2.6c-1.2,0.4-2.1,0.2-2.7,0
														C-83.2,81.1-83.5,80.9-83.5,80.9z"/>
												</g>
											</g>
										</g>
									</g>
								</g>
							</g>
						</g>
						<g>
							<g>
								<g>
									<g>
										<g>
											<g>
												<g>
													<path class="st7" d="M-14.5,81.2c-0.5,0.9-1.3,1.8-2.3,2.3c-0.5,0.3-1,0.4-1.5,0.6c-0.3,0.1-0.5,0.2-0.8,0.2
														c-0.3,0-0.5,0.1-0.9,0l0,0c-4.7-1.4-9.5-2.7-14.3-3.8c-4.8-1.1-9.6-2.1-14.4-2.2c-1.2,0-2.5,0.1-3.6,0.2
														c-1.2,0.1-2.4,0.3-3.6,0.5c-2.4,0.4-4.8,0.9-7.2,1.5c-4.8,1.1-9.5,2.4-14.2,3.8l0,0l0,0c-1.3,0.2-2.6,0.2-3.8-0.2
														c-0.6-0.2-1.2-0.6-1.5-1.1c-0.4-0.5-0.4-1.2-0.5-1.8c0.1,0.6,0.2,1.2,0.6,1.7c0.4,0.5,0.9,0.8,1.5,0.9
														c1.1,0.3,2.4,0.2,3.5-0.1l0,0c4.6-1.8,9.3-3.3,14.1-4.6c2.4-0.6,4.8-1.2,7.3-1.6c1.2-0.2,2.5-0.4,3.7-0.5
														c1.3-0.1,2.5-0.2,3.8-0.2c5.1,0.2,9.9,1.2,14.7,2.4c4.8,1.3,9.5,2.8,14.1,4.5l0,0c0.2,0,0.5,0,0.7,0
														c0.3,0,0.5-0.1,0.8-0.1c0.5-0.1,1-0.3,1.5-0.5C-16,82.8-15.1,82.1-14.5,81.2z"/>
												</g>
											</g>
										</g>
									</g>
								</g>
							</g>
						</g>
					</g>
				</g>
				<g>
					<g>
						<g>
							<g>
								<g>
									<g>
										<g>
											<g>
												<g>
													<path class="st5" d="M-71.1,389h-3.3v-1.6h3.3V389z M-80.9,389h-2.6v-1.6h2.6V389z"/>
												</g>
											</g>
										</g>
									</g>
								</g>
							</g>
						</g>
						<g>
							<g>
								<g>
									<g>
										<g>
											<g>
												<g>
													<path class="st5" d="M-14.5,389h-3.3v-1.6h3.3V389z M-24.3,389h-2.6v-1.6h2.6V389z"/>
												</g>
											</g>
										</g>
									</g>
								</g>
							</g>
						</g>
						<g>
							<g>
								<g>
									<g>
										<g>
											<g>
												<g>
													<g>
														<path class="st5" d="M-72.2,390.7c7.5-9,21.5-11.2,23.4-11.4c1.8,0.3,15.9,2.5,23.4,11.4c8,9.6,7,8.8,11,8.6
															c0,0-2.8-2.4-6.7-8.1c-3.3-4.9-11-12.7-21.7-14.9c-0.6-0.4-2.3-0.6-5.9-0.6l0,0c0,0,0,0,0,0h0l0,0
															c-3.6,0-5.3,0.3-5.9,0.6c-10.7,2.2-18.4,10-21.7,14.9c-3.9,5.7-6.7,8.1-6.7,8.1C-79.3,399.5-80.2,400.3-72.2,390.7z"
															/>
													</g>
												</g>
											</g>
										</g>
									</g>
								</g>
							</g>
							<g>
								<g>
									<g>
										<g>
											<g>
												<g>
													<g>
														<path class="st6" d="M-72.2,390.7c7.5-9,21.5-11.2,23.4-11.4c1.8,0.3,15.9,2.5,23.4,11.4c8,9.6,7,8.8,11,8.6
															c0,0-3.7-0.9-7.6-6.6c-3.3-4.9-11.1-12.7-21.9-14.9c-0.2-0.2-3.4-0.5-3.7-0.5c-0.7,0-2.1-0.1-7.3,0.8
															c-9.8,2.5-17.4,10.1-20.5,14.6c-3.9,5.7-7.6,6.6-7.6,6.6C-79.3,399.5-80.2,400.3-72.2,390.7z"/>
													</g>
												</g>
											</g>
										</g>
									</g>
								</g>
							</g>
						</g>
						<g>
							<g>
								<g>
									<g>
										<g>
											<g>
												<g>
													<path class="st7" d="M-83.5,399c0,0,0.3,0.1,0.9,0.2c0.6,0,1.5,0,2.5-0.5c1-0.4,1.9-1.4,2.7-2.7
														c0.8-1.4,1.9-2.9,3.2-4.4c2.6-3,5.9-6.4,10.2-9.1c2.1-1.4,4.5-2.6,7.1-3.4c2.6-0.9,5.4-1.4,8.1-1.4l1,0l0.6,0l0.5,0.1
														l1.9,0.2c1.4,0.3,2.8,0.6,4.1,1c2.6,0.8,5,2.1,7.1,3.4c4.3,2.7,7.6,6.1,10.2,9.1c1.3,1.5,2.4,3,3.2,4.4
														c0.8,1.4,1.6,2.2,2.7,2.7c1,0.5,1.9,0.5,2.5,0.5c0.6,0,0.9-0.1,0.9-0.1s-0.3,0.2-0.9,0.3c-0.6,0.1-1.6,0.3-2.7,0
														c-1.2-0.3-2.5-1.3-3.4-2.6c-1-1.2-2.2-2.5-3.5-3.9c-2.7-2.7-6.3-5.5-10.3-7.9c-2-1.2-4.3-2.1-6.6-2.9
														c-1.2-0.4-2.3-0.6-3.4-0.9l-1.9-0.2l-0.5,0c0.1,0-0.3,0-0.4,0l-0.9,0c-2.4,0-4.9,0.3-7.2,1.1c-2.3,0.8-4.5,1.7-6.6,2.9
														c-4.1,2.4-7.6,5.2-10.4,7.9c-1.4,1.4-2.5,2.6-3.5,3.9c-1,1.3-2.3,2.3-3.4,2.6c-1.2,0.4-2.1,0.2-2.7,0
														C-83.2,399.1-83.5,399-83.5,399z"/>
												</g>
											</g>
										</g>
									</g>
								</g>
							</g>
						</g>
						<g>
							<g>
								<g>
									<g>
										<g>
											<g>
												<g>
													<path class="st7" d="M-14.5,399.3c-0.5,0.9-1.3,1.8-2.3,2.3c-0.5,0.3-1,0.4-1.5,0.6c-0.3,0.1-0.5,0.2-0.8,0.2
														c-0.3,0-0.5,0.1-0.9,0l0,0c-4.7-1.4-9.5-2.7-14.3-3.8c-4.8-1.1-9.6-2.1-14.4-2.2c-1.2,0-2.5,0.1-3.6,0.2
														c-1.2,0.1-2.4,0.3-3.6,0.5c-2.4,0.4-4.8,0.9-7.2,1.5c-4.8,1.1-9.5,2.4-14.2,3.8l0,0l0,0c-1.3,0.2-2.6,0.2-3.8-0.2
														c-0.6-0.2-1.2-0.6-1.5-1.1c-0.4-0.5-0.4-1.2-0.5-1.8c0.1,0.6,0.2,1.2,0.6,1.7c0.4,0.5,0.9,0.8,1.5,0.9
														c1.1,0.3,2.4,0.2,3.5-0.1l0,0c4.6-1.8,9.3-3.3,14.1-4.6c2.4-0.6,4.8-1.2,7.3-1.6c1.2-0.2,2.5-0.4,3.7-0.5
														c1.3-0.1,2.5-0.2,3.8-0.2c5.1,0.2,9.9,1.2,14.7,2.4c4.8,1.3,9.5,2.8,14.1,4.5l0,0c0.2,0,0.5,0,0.7,0
														c0.3,0,0.5-0.1,0.8-0.1c0.5-0.1,1-0.3,1.5-0.5C-16,400.8-15.1,400.2-14.5,399.3z"/>
												</g>
											</g>
										</g>
									</g>
								</g>
							</g>
						</g>
					</g>
					<g>
						<g>
							<g>
								<g>
									<g>
										<g>
											<g>
												<g>
													<path class="st5" d="M-72.5,404.2h-3.3v-1.6h3.3V404.2z M-82.3,404.2h-1.2v-1.6h1.2V404.2z"/>
												</g>
											</g>
										</g>
									</g>
								</g>
							</g>
						</g>
						<g>
							<g>
								<g>
									<g>
										<g>
											<g>
												<g>
													<rect x="-17.8" y="402.5" class="st5" width="3.3" height="1.6"/>
												</g>
											</g>
										</g>
									</g>
								</g>
							</g>
						</g>
						<g>
							<g>
								<g>
									<g>
										<g>
											<g>
												<g>
													<g>
														<path class="st5" d="M-72.2,405.8c7.5-9,21.5-11.2,23.4-11.4c1.8,0.3,15.9,2.5,23.4,11.4c8,9.6,7,8.8,11,8.6
															c0,0-2.8-2.4-6.7-8.1c-3.3-4.9-11-12.7-21.7-14.9c-0.6-0.4-2.3-0.6-5.9-0.6l0,0c0,0,0,0,0,0h0l0,0
															c-3.6,0-5.3,0.3-5.9,0.6c-10.7,2.2-18.4,10-21.7,14.9c-3.9,5.7-6.7,8.1-6.7,8.1C-79.3,414.7-80.2,415.4-72.2,405.8z"
															/>
													</g>
												</g>
											</g>
										</g>
									</g>
								</g>
							</g>
							<g>
								<g>
									<g>
										<g>
											<g>
												<g>
													<g>
														<path class="st6" d="M-72.2,405.8c7.5-9,21.5-11.2,23.4-11.4c1.8,0.3,15.9,2.5,23.4,11.4c8,9.6,7,8.8,11,8.6
															c0,0-3.7-0.9-7.6-6.6c-3.3-4.9-11.1-12.7-21.9-14.9c-0.2-0.2-3.4-0.5-3.7-0.5c-0.7,0-2.1-0.1-7.3,0.8
															c-9.8,2.5-17.4,10.1-20.5,14.6c-3.9,5.7-7.6,6.6-7.6,6.6C-79.3,414.7-80.2,415.4-72.2,405.8z"/>
													</g>
												</g>
											</g>
										</g>
									</g>
								</g>
							</g>
						</g>
						<g>
							<g>
								<g>
									<g>
										<g>
											<g>
												<g>
													<path class="st7" d="M-83.5,414.1c0,0,0.3,0.1,0.9,0.2c0.6,0,1.5,0,2.5-0.5c1-0.4,1.9-1.4,2.7-2.7
														c0.8-1.4,1.9-2.9,3.2-4.4c2.6-3,5.9-6.4,10.2-9.1c2.1-1.4,4.5-2.6,7.1-3.4c2.6-0.9,5.4-1.4,8.1-1.4l1,0l0.6,0l0.5,0.1
														l1.9,0.2c1.4,0.3,2.8,0.6,4.1,1c2.6,0.8,5,2.1,7.1,3.4c4.3,2.7,7.6,6.1,10.2,9.1c1.3,1.5,2.4,3,3.2,4.4
														c0.8,1.4,1.6,2.2,2.7,2.7c1,0.5,1.9,0.5,2.5,0.5c0.6,0,0.9-0.1,0.9-0.1s-0.3,0.2-0.9,0.3c-0.6,0.1-1.6,0.3-2.7,0
														c-1.2-0.3-2.5-1.3-3.4-2.6c-1-1.2-2.2-2.5-3.5-3.9c-2.7-2.7-6.3-5.5-10.3-7.9c-2-1.2-4.3-2.1-6.6-2.9
														c-1.2-0.4-2.3-0.6-3.4-0.9l-1.9-0.2l-0.5,0c0.1,0-0.3,0-0.4,0l-0.9,0c-2.4,0-4.9,0.3-7.2,1.1c-2.3,0.8-4.5,1.7-6.6,2.9
														c-4.1,2.4-7.6,5.2-10.4,7.9c-1.4,1.4-2.5,2.6-3.5,3.9c-1,1.3-2.3,2.3-3.4,2.6c-1.2,0.4-2.1,0.2-2.7,0
														C-83.2,414.3-83.5,414.1-83.5,414.1z"/>
												</g>
											</g>
										</g>
									</g>
								</g>
							</g>
						</g>
						<g>
							<g>
								<g>
									<g>
										<g>
											<g>
												<g>
													<path class="st7" d="M-14.5,414.5c-0.5,0.9-1.3,1.8-2.3,2.3c-0.5,0.3-1,0.4-1.5,0.6c-0.3,0.1-0.5,0.2-0.8,0.2
														c-0.3,0-0.5,0.1-0.9,0l0,0c-4.7-1.4-9.5-2.7-14.3-3.8c-4.8-1.1-9.6-2.1-14.4-2.2c-1.2,0-2.5,0.1-3.6,0.2
														c-1.2,0.1-2.4,0.3-3.6,0.5c-2.4,0.4-4.8,0.9-7.2,1.5c-4.8,1.1-9.5,2.4-14.2,3.8l0,0l0,0c-1.3,0.2-2.6,0.2-3.8-0.2
														c-0.6-0.2-1.2-0.6-1.5-1.1c-0.4-0.5-0.4-1.2-0.5-1.8c0.1,0.6,0.2,1.2,0.6,1.7c0.4,0.5,0.9,0.8,1.5,0.9
														c1.1,0.3,2.4,0.2,3.5-0.1l0,0c4.6-1.8,9.3-3.3,14.1-4.6c2.4-0.6,4.8-1.2,7.3-1.6c1.2-0.2,2.5-0.4,3.7-0.5
														c1.3-0.1,2.5-0.2,3.8-0.2c5.1,0.2,9.9,1.2,14.7,2.4c4.8,1.3,9.5,2.8,14.1,4.5l0,0c0.2,0,0.5,0,0.7,0
														c0.3,0,0.5-0.1,0.8-0.1c0.5-0.1,1-0.3,1.5-0.5C-16,416-15.1,415.3-14.5,414.5z"/>
												</g>
											</g>
										</g>
									</g>
								</g>
							</g>
						</g>
					</g>
					<g>
						<g>
							<g>
								<g>
									<g>
										<g>
											<g>
												<g>
													<path class="st5" d="M-69.5,419.4h-3.3v-1.6h3.3V419.4z M-79.3,419.4h-3.3v-1.6h3.3V419.4z"/>
												</g>
											</g>
										</g>
									</g>
								</g>
							</g>
						</g>
						<g>
							<g>
								<g>
									<g>
										<g>
											<g>
												<g>
													<path class="st5" d="M-14.5,419.4h-3.3v-1.6h3.3V419.4z M-24.3,419.4h-3.3v-1.6h3.3V419.4z"/>
												</g>
											</g>
										</g>
									</g>
								</g>
							</g>
						</g>
						<g>
							<g>
								<g>
									<g>
										<g>
											<g>
												<g>
													<g>
														<path class="st5" d="M-72.2,421c7.5-9,21.5-11.2,23.4-11.4c1.8,0.3,15.9,2.5,23.4,11.4c8,9.6,7,8.8,11,8.6
															c0,0-2.8-2.4-6.7-8.1c-3.3-4.9-11-12.7-21.7-14.9c-0.6-0.4-2.3-0.6-5.9-0.6l0,0c0,0,0,0,0,0h0l0,0
															c-3.6,0-5.3,0.3-5.9,0.6c-10.7,2.2-18.4,10-21.7,14.9c-3.9,5.7-6.7,8.1-6.7,8.1C-79.3,429.9-80.2,430.6-72.2,421z"/>
													</g>
												</g>
											</g>
										</g>
									</g>
								</g>
							</g>
							<g>
								<g>
									<g>
										<g>
											<g>
												<g>
													<g>
														<path class="st6" d="M-72.2,421c7.5-9,21.5-11.2,23.4-11.4c1.8,0.3,15.9,2.5,23.4,11.4c8,9.6,7,8.8,11,8.6
															c0,0-3.7-0.9-7.6-6.6c-3.3-4.9-11.1-12.7-21.9-14.9c-0.2-0.2-3.4-0.5-3.7-0.5c-0.7,0-2.1-0.1-7.3,0.8
															c-9.8,2.5-17.4,10.1-20.5,14.6c-3.9,5.7-7.6,6.6-7.6,6.6C-79.3,429.9-80.2,430.6-72.2,421z"/>
													</g>
												</g>
											</g>
										</g>
									</g>
								</g>
							</g>
						</g>
						<g>
							<g>
								<g>
									<g>
										<g>
											<g>
												<g>
													<path class="st7" d="M-83.5,429.3c0,0,0.3,0.1,0.9,0.2c0.6,0,1.5,0,2.5-0.5c1-0.4,1.9-1.4,2.7-2.7
														c0.8-1.4,1.9-2.9,3.2-4.4c2.6-3,5.9-6.4,10.2-9.1c2.1-1.4,4.5-2.6,7.1-3.4c2.6-0.9,5.4-1.4,8.1-1.4l1,0l0.6,0l0.5,0.1
														l1.9,0.2c1.4,0.3,2.8,0.6,4.1,1c2.6,0.8,5,2.1,7.1,3.4c4.3,2.7,7.6,6.1,10.2,9.1c1.3,1.5,2.4,3,3.2,4.4
														c0.8,1.4,1.6,2.2,2.7,2.7c1,0.5,1.9,0.5,2.5,0.5c0.6,0,0.9-0.1,0.9-0.1s-0.3,0.2-0.9,0.3c-0.6,0.1-1.6,0.3-2.7,0
														c-1.2-0.3-2.5-1.3-3.4-2.6c-1-1.2-2.2-2.5-3.5-3.9c-2.7-2.7-6.3-5.5-10.3-7.9c-2-1.2-4.3-2.1-6.6-2.9
														c-1.2-0.4-2.3-0.6-3.4-0.9l-1.9-0.2l-0.5,0c0.1,0-0.3,0-0.4,0l-0.9,0c-2.4,0-4.9,0.3-7.2,1.1c-2.3,0.8-4.5,1.7-6.6,2.9
														c-4.1,2.4-7.6,5.2-10.4,7.9c-1.4,1.4-2.5,2.6-3.5,3.9c-1,1.3-2.3,2.3-3.4,2.6c-1.2,0.4-2.1,0.2-2.7,0
														C-83.2,429.5-83.5,429.3-83.5,429.3z"/>
												</g>
											</g>
										</g>
									</g>
								</g>
							</g>
						</g>
						<g>
							<g>
								<g>
									<g>
										<g>
											<g>
												<g>
													<path class="st7" d="M-14.5,429.6c-0.5,0.9-1.3,1.8-2.3,2.3c-0.5,0.3-1,0.4-1.5,0.6c-0.3,0.1-0.5,0.2-0.8,0.2
														c-0.3,0-0.5,0.1-0.9,0l0,0c-4.7-1.4-9.5-2.7-14.3-3.8c-4.8-1.1-9.6-2.1-14.4-2.2c-1.2,0-2.5,0.1-3.6,0.2
														c-1.2,0.1-2.4,0.3-3.6,0.5c-2.4,0.4-4.8,0.9-7.2,1.5c-4.8,1.1-9.5,2.4-14.2,3.8l0,0l0,0c-1.3,0.2-2.6,0.2-3.8-0.2
														c-0.6-0.2-1.2-0.6-1.5-1.1c-0.4-0.5-0.4-1.2-0.5-1.8c0.1,0.6,0.2,1.2,0.6,1.7c0.4,0.5,0.9,0.8,1.5,0.9
														c1.1,0.3,2.4,0.2,3.5-0.1l0,0c4.6-1.8,9.3-3.3,14.1-4.6c2.4-0.6,4.8-1.2,7.3-1.6c1.2-0.2,2.5-0.4,3.7-0.5
														c1.3-0.1,2.5-0.2,3.8-0.2c5.1,0.2,9.9,1.2,14.7,2.4c4.8,1.3,9.5,2.8,14.1,4.5l0,0c0.2,0,0.5,0,0.7,0
														c0.3,0,0.5-0.1,0.8-0.1c0.5-0.1,1-0.3,1.5-0.5C-16,431.2-15.1,430.5-14.5,429.6z"/>
												</g>
											</g>
										</g>
									</g>
								</g>
							</g>
						</g>
					</g>
					<g>
						<g>
							<g>
								<g>
									<g>
										<g>
											<g>
												<g>
													<path class="st5" d="M-71.8,434.5H-75v-1.6h3.3V434.5z M-81.6,434.5h-1.9v-1.6h1.9V434.5z"/>
												</g>
											</g>
										</g>
									</g>
								</g>
							</g>
						</g>
						<g>
							<g>
								<g>
									<g>
										<g>
											<g>
												<g>
													<path class="st5" d="M-14.5,434.5h-3.3v-1.6h3.3V434.5z M-24.3,434.5h-2.4v-1.6h2.4V434.5z"/>
												</g>
											</g>
										</g>
									</g>
								</g>
							</g>
						</g>
						<g>
							<g>
								<g>
									<g>
										<g>
											<g>
												<g>
													<g>
														<path class="st5" d="M-72.2,436.2c7.5-9,21.5-11.2,23.4-11.4c1.8,0.3,15.9,2.5,23.4,11.4c8,9.6,7,8.8,11,8.6
															c0,0-2.8-2.4-6.7-8.1c-3.3-4.9-11-12.7-21.7-14.9c-0.6-0.4-2.3-0.6-5.9-0.6l0,0c0,0,0,0,0,0h0l0,0
															c-3.6,0-5.3,0.3-5.9,0.6c-10.7,2.2-18.4,10-21.7,14.9c-3.9,5.7-6.7,8.1-6.7,8.1C-79.3,445.1-80.2,445.8-72.2,436.2z"
															/>
													</g>
												</g>
											</g>
										</g>
									</g>
								</g>
							</g>
							<g>
								<g>
									<g>
										<g>
											<g>
												<g>
													<g>
														<path class="st6" d="M-72.2,436.2c7.5-9,21.5-11.2,23.4-11.4c1.8,0.3,15.9,2.5,23.4,11.4c8,9.6,7,8.8,11,8.6
															c0,0-3.7-0.9-7.6-6.6c-3.3-4.9-11.1-12.7-21.9-14.9c-0.2-0.2-3.4-0.5-3.7-0.5c-0.7,0-2.1-0.1-7.3,0.8
															c-9.8,2.5-17.4,10.1-20.5,14.6c-3.9,5.7-7.6,6.6-7.6,6.6C-79.3,445.1-80.2,445.8-72.2,436.2z"/>
													</g>
												</g>
											</g>
										</g>
									</g>
								</g>
							</g>
						</g>
						<g>
							<g>
								<g>
									<g>
										<g>
											<g>
												<g>
													<path class="st7" d="M-83.5,444.5c0,0,0.3,0.1,0.9,0.2c0.6,0,1.5,0,2.5-0.5c1-0.4,1.9-1.4,2.7-2.7
														c0.8-1.4,1.9-2.9,3.2-4.4c2.6-3,5.9-6.4,10.2-9.1c2.1-1.4,4.5-2.6,7.1-3.4c2.6-0.9,5.4-1.4,8.1-1.4l1,0l0.6,0l0.5,0.1
														l1.9,0.2c1.4,0.3,2.8,0.6,4.1,1c2.6,0.8,5,2.1,7.1,3.4c4.3,2.7,7.6,6.1,10.2,9.1c1.3,1.5,2.4,3,3.2,4.4
														c0.8,1.4,1.6,2.2,2.7,2.7c1,0.5,1.9,0.5,2.5,0.5c0.6,0,0.9-0.1,0.9-0.1s-0.3,0.2-0.9,0.3c-0.6,0.1-1.6,0.3-2.7,0
														c-1.2-0.3-2.5-1.3-3.4-2.6c-1-1.2-2.2-2.5-3.5-3.9c-2.7-2.7-6.3-5.5-10.3-7.9c-2-1.2-4.3-2.1-6.6-2.9
														c-1.2-0.4-2.3-0.6-3.4-0.9l-1.9-0.2l-0.5,0c0.1,0-0.3,0-0.4,0l-0.9,0c-2.4,0-4.9,0.3-7.2,1.1c-2.3,0.8-4.5,1.7-6.6,2.9
														c-4.1,2.4-7.6,5.2-10.4,7.9c-1.4,1.4-2.5,2.6-3.5,3.9c-1,1.3-2.3,2.3-3.4,2.6c-1.2,0.4-2.1,0.2-2.7,0
														C-83.2,444.7-83.5,444.5-83.5,444.5z"/>
												</g>
											</g>
										</g>
									</g>
								</g>
							</g>
						</g>
						<g>
							<g>
								<g>
									<g>
										<g>
											<g>
												<g>
													<path class="st7" d="M-14.5,444.8c-0.5,0.9-1.3,1.8-2.3,2.3c-0.5,0.3-1,0.4-1.5,0.6c-0.3,0.1-0.5,0.2-0.8,0.2
														c-0.3,0-0.5,0.1-0.9,0l0,0c-4.7-1.4-9.5-2.7-14.3-3.8c-4.8-1.1-9.6-2.1-14.4-2.2c-1.2,0-2.5,0.1-3.6,0.2
														c-1.2,0.1-2.4,0.3-3.6,0.5c-2.4,0.4-4.8,0.9-7.2,1.5c-4.8,1.1-9.5,2.4-14.2,3.8l0,0l0,0c-1.3,0.2-2.6,0.2-3.8-0.2
														c-0.6-0.2-1.2-0.6-1.5-1.1c-0.4-0.5-0.4-1.2-0.5-1.8c0.1,0.6,0.2,1.2,0.6,1.7c0.4,0.5,0.9,0.8,1.5,0.9
														c1.1,0.3,2.4,0.2,3.5-0.1l0,0c4.6-1.8,9.3-3.3,14.1-4.6c2.4-0.6,4.8-1.2,7.3-1.6c1.2-0.2,2.5-0.4,3.7-0.5
														c1.3-0.1,2.5-0.2,3.8-0.2c5.1,0.2,9.9,1.2,14.7,2.4c4.8,1.3,9.5,2.8,14.1,4.5l0,0c0.2,0,0.5,0,0.7,0
														c0.3,0,0.5-0.1,0.8-0.1c0.5-0.1,1-0.3,1.5-0.5C-16,446.4-15.1,445.7-14.5,444.8z"/>
												</g>
											</g>
										</g>
									</g>
								</g>
							</g>
						</g>
					</g>
				</g>
			</g>
		</g>
	</g>
	<g>
		<defs>
			<circle id="SVGID_6_" cx="-48.9" cy="150" r="150"/>
		</defs>
		<clipPath id="SVGID_7_">
			<use xlink:href="#SVGID_6_"  style="overflow:visible;"/>
		</clipPath>
		<g class="st8">
			<g>
				<defs>
					<circle id="SVGID_8_" cx="-48.9" cy="150" r="150"/>
				</defs>
				<clipPath id="SVGID_9_">
					<use xlink:href="#SVGID_8_"  style="overflow:visible;"/>
				</clipPath>
			</g>
			<g>
				<defs>
					<circle id="SVGID_10_" cx="-48.9" cy="150" r="150"/>
				</defs>
				<clipPath id="SVGID_11_">
					<use xlink:href="#SVGID_10_"  style="overflow:visible;"/>
				</clipPath>
				<g class="st9">
					<path class="st10" d="M-48.9,5c38.7,0,75.1,15.1,102.5,42.5S96.1,111.3,96.1,150S81,225.1,53.6,252.5S-10.2,295-48.9,295
						s-75.1-15.1-102.5-42.5s-42.5-63.8-42.5-102.5s15.1-75.1,42.5-102.5S-87.6,5-48.9,5 M-48.9,0c-82.8,0-150,67.2-150,150
						s67.2,150,150,150s150-67.2,150-150S33.9,0-48.9,0L-48.9,0z"/>
				</g>
			</g>
		</g>
	</g>
</g>
</svg>
