<?xml version="1.0" encoding="utf-8"?>
<!-- Generator: Adobe Illustrator 19.0.0, SVG Export Plug-In . SVG Version: 6.00 Build 0)  -->
<svg version="1.1" id="Layer_1" xmlns="http://www.w3.org/2000/svg" xmlns:xlink="http://www.w3.org/1999/xlink" x="0px" y="0px"
	 viewBox="-199 0 300 300" style="enable-background:new -199 0 300 300;" xml:space="preserve">
<style type="text/css">
	.st0{fill:#DDDDDD;}
	.st1{clip-path:url(#SVGID_3_);}
	.st2{clip-path:url(#SVGID_5_);}
	.st3{fill:#404041;}
	.st4{clip-path:url(#SVGID_7_);}
	.st5{clip-path:url(#SVGID_9_);}
	.st6{fill:#9AA0BB;}
</style>
<g>
	<g>
		<circle id="SVGID_1_" class="st0" cx="-49" cy="150" r="150"/>
	</g>
	<g>
		<g>
			<defs>
				<circle id="SVGID_2_" cx="-49" cy="150" r="150"/>
			</defs>
			<clipPath id="SVGID_3_">
				<use xlink:href="#SVGID_2_"  style="overflow:visible;"/>
			</clipPath>
			<g class="st1">
				<g>
					<defs>
						<rect id="SVGID_4_" x="-185.6" y="-2428.7" width="290" height="5173.3"/>
					</defs>
					<clipPath id="SVGID_5_">
						<use xlink:href="#SVGID_4_"  style="overflow:visible;"/>
					</clipPath>
					<g class="st2">
						<g>
							<g>
								<path class="st3" d="M-38.1,2760.9c0,0-1.9,1.6-6,3.4c-3.9,1.6-11.3,3.6-19.4-0.8c-7.7-4.6-12.6-13.7-15.6-22.8
									c-2.9-9.2-3.9-21.8,1.5-32.9c2.6-5.6,7.2-10.7,12.9-13.7c5.5-3.5,12.8-3.6,16.8-3.7c12.7-0.3,22.2,6.9,26.4,14.2
									c4.5,7,5.4,13.6,5.9,17.9c0.5,4.4,0.1,6.9,0.1,6.9l-1.8,0.3c0,0-1.1-2.1-3-5.7c-2-3.5-5.2-8.4-9.7-12.4
									c-4.5-3.9-10.8-5.8-16.1-5c-8.6,1.3-11.2,4.6-15.4,10c-3.6,5.7-5.2,13.2-4,21.1c0.7,8.1,3.1,14.9,7,18.9
									c3.8,4,9.5,4.7,13.4,4.2s6.1-1.4,6.1-1.4L-38.1,2760.9z"/>
							</g>
						</g>
						<g>
							<g>
								<path class="st3" d="M-38.1,2823.7c0,0-1.9,1.6-6,3.4c-3.9,1.6-11.3,3.6-19.4-0.8c-7.7-4.6-12.6-13.7-15.6-22.8
									c-2.9-9.2-3.9-21.8,1.5-32.9c2.6-5.6,7.2-10.7,12.9-13.7c5.5-3.5,12.8-3.6,16.8-3.7c12.7-0.3,22.2,6.9,26.4,14.2
									c4.5,7,5.4,13.5,5.9,17.9s0.1,6.9,0.1,6.9l-1.8,0.3c0,0-1.1-2.1-3-5.7c-2-3.5-5.2-8.4-9.7-12.4c-4.5-3.9-10.8-5.8-16.1-5
									c-8.6,1.3-11.2,4.6-15.4,10c-3.6,5.7-5.2,13.2-4,21.1c0.7,8.1,3.1,14.9,7,18.9c3.8,4,9.5,4.7,13.4,4.2s6.1-1.4,6.1-1.4
									L-38.1,2823.7z"/>
							</g>
						</g>
						<g>
							<g>
								<path class="st3" d="M-38.1,2886.4c0,0-1.9,1.6-6,3.4c-3.9,1.6-11.3,3.6-19.4-0.8c-7.7-4.6-12.6-13.7-15.6-22.8
									c-2.9-9.2-3.9-21.8,1.5-32.9c2.6-5.6,7.2-10.7,12.9-13.7c5.5-3.5,12.8-3.6,16.8-3.7c12.7-0.3,22.2,6.9,26.4,14.2
									c4.5,7,5.4,13.5,5.9,17.9s0.1,6.9,0.1,6.9l-1.8,0.3c0,0-1.1-2.1-3-5.7c-2-3.5-5.2-8.4-9.7-12.4c-4.5-3.9-10.8-5.8-16.1-5
									c-8.6,1.3-11.2,4.6-15.4,10c-3.6,5.7-5.2,13.3-4,21.1c0.7,8.1,3.1,14.9,7,18.9c3.8,4,9.5,4.7,13.4,4.2s6.1-1.4,6.1-1.4
									L-38.1,2886.4z"/>
							</g>
						</g>
						<g>
							<g>
								<path class="st3" d="M-38.1,2509.8c0,0-1.9,1.6-6,3.4c-3.9,1.6-11.3,3.6-19.4-0.8c-7.7-4.6-12.6-13.7-15.6-22.8
									c-2.9-9.2-3.9-21.8,1.5-32.9c2.6-5.6,7.2-10.7,12.9-13.7c5.5-3.5,12.8-3.6,16.8-3.7c12.7-0.3,22.2,6.9,26.4,14.2
									c4.5,7,5.4,13.6,5.9,17.9c0.5,4.4,0.1,6.9,0.1,6.9l-1.8,0.3c0,0-1.1-2.1-3-5.7c-2-3.5-5.2-8.4-9.7-12.4
									c-4.5-3.9-10.8-5.8-16.1-5c-8.6,1.3-11.2,4.6-15.4,10c-3.6,5.7-5.2,13.2-4,21.1c0.7,8.1,3.1,14.9,7,18.9
									c3.8,4,9.5,4.7,13.4,4.2s6.1-1.4,6.1-1.4L-38.1,2509.8z"/>
							</g>
						</g>
						<g>
							<g>
								<path class="st3" d="M-38.1,2572.6c0,0-1.9,1.6-6,3.4c-3.9,1.6-11.3,3.6-19.4-0.8c-7.7-4.6-12.6-13.7-15.6-22.8
									c-2.9-9.2-3.9-21.8,1.5-32.9c2.6-5.6,7.2-10.7,12.9-13.7c5.5-3.5,12.8-3.6,16.8-3.7c12.7-0.3,22.2,6.9,26.4,14.2
									c4.5,7,5.4,13.5,5.9,17.9s0.1,6.9,0.1,6.9l-1.8,0.3c0,0-1.1-2.1-3-5.7c-2-3.4-5.2-8.4-9.7-12.4c-4.5-3.9-10.8-5.8-16.1-5
									c-8.6,1.3-11.2,4.6-15.4,10c-3.6,5.7-5.2,13.2-4,21.1c0.7,8.1,3.1,14.9,7,18.9c3.8,4,9.5,4.7,13.4,4.2s6.1-1.4,6.1-1.4
									L-38.1,2572.6z"/>
							</g>
						</g>
						<g>
							<g>
								<path class="st3" d="M-38.1,2635.3c0,0-1.9,1.6-6,3.4c-3.9,1.6-11.3,3.6-19.4-0.8c-7.7-4.6-12.6-13.7-15.6-22.8
									c-2.9-9.2-3.9-21.8,1.5-32.9c2.6-5.6,7.2-10.7,12.9-13.7c5.5-3.5,12.8-3.6,16.8-3.7c12.7-0.3,22.2,6.9,26.4,14.2
									c4.5,7,5.4,13.5,5.9,17.9s0.1,6.9,0.1,6.9l-1.8,0.3c0,0-1.1-2.1-3-5.7c-2-3.5-5.2-8.4-9.7-12.4c-4.5-3.9-10.8-5.8-16.1-5
									c-8.6,1.3-11.2,4.6-15.4,10c-3.6,5.7-5.2,13.3-4,21.1c0.7,8.1,3.1,14.9,7,18.9c3.8,4,9.5,4.7,13.4,4.2s6.1-1.4,6.1-1.4
									L-38.1,2635.3z"/>
							</g>
						</g>
						<g>
							<g>
								<path class="st3" d="M-38.1,2698.1c0,0-1.9,1.6-6,3.4c-3.9,1.6-11.3,3.6-19.4-0.8c-7.7-4.6-12.6-13.7-15.6-22.8
									c-2.9-9.2-3.9-21.8,1.5-32.9c2.6-5.6,7.2-10.7,12.9-13.7c5.5-3.5,12.8-3.6,16.8-3.7c12.7-0.3,22.2,6.9,26.4,14.2
									c4.5,7,5.4,13.5,5.9,17.9s0.1,6.9,0.1,6.9l-1.8,0.3c0,0-1.1-2.1-3-5.7c-2-3.5-5.2-8.4-9.7-12.4s-10.8-5.8-16.1-5
									c-8.6,1.3-11.2,4.6-15.4,10c-3.6,5.7-5.2,13.2-4,21.1c0.7,8,3.1,14.9,7,18.9c3.8,4.1,9.5,4.7,13.4,4.2s6.1-1.4,6.1-1.4
									L-38.1,2698.1z"/>
							</g>
						</g>
						<g>
							<g>
								<path class="st3" d="M-38.1,2258.7c0,0-1.9,1.6-6,3.4c-3.9,1.6-11.3,3.6-19.4-0.8c-7.7-4.6-12.6-13.7-15.6-22.8
									c-2.9-9.2-3.9-21.8,1.5-32.9c2.6-5.6,7.2-10.7,12.9-13.7c5.5-3.5,12.8-3.6,16.8-3.7c12.7-0.3,22.2,6.9,26.4,14.2
									c4.5,7,5.4,13.6,5.9,17.9c0.5,4.4,0.1,6.9,0.1,6.9l-1.8,0.3c0,0-1.1-2.1-3-5.7c-2-3.5-5.2-8.4-9.7-12.4
									c-4.5-3.9-10.8-5.8-16.1-5c-8.6,1.3-11.2,4.6-15.4,10c-3.6,5.7-5.2,13.2-4,21.1c0.7,8.1,3.1,14.9,7,18.9
									c3.8,4,9.5,4.7,13.4,4.2c3.9-0.5,6.1-1.4,6.1-1.4L-38.1,2258.7z"/>
							</g>
						</g>
						<g>
							<g>
								<path class="st3" d="M-38.1,2321.5c0,0-1.9,1.6-6,3.4c-3.9,1.6-11.3,3.6-19.4-0.8c-7.7-4.6-12.6-13.7-15.6-22.8
									c-2.9-9.2-3.9-21.8,1.5-32.9c2.6-5.6,7.2-10.7,12.9-13.7c5.5-3.5,12.8-3.6,16.8-3.7c12.7-0.3,22.2,6.9,26.4,14.2
									c4.5,7,5.4,13.5,5.9,17.9c0.5,4.4,0.1,6.9,0.1,6.9l-1.8,0.3c0,0-1.1-2.1-3-5.7c-2-3.4-5.2-8.4-9.7-12.4
									c-4.5-3.9-10.8-5.8-16.1-5c-8.6,1.3-11.2,4.6-15.4,10c-3.6,5.7-5.2,13.2-4,21.1c0.7,8.1,3.1,14.9,7,18.9
									c3.8,4,9.5,4.7,13.4,4.2s6.1-1.4,6.1-1.4L-38.1,2321.5z"/>
							</g>
						</g>
						<g>
							<g>
								<path class="st3" d="M-38.1,2384.3c0,0-1.9,1.6-6,3.4c-3.9,1.6-11.3,3.6-19.4-0.8c-7.7-4.6-12.6-13.7-15.6-22.8
									c-2.9-9.2-3.9-21.8,1.5-32.9c2.6-5.6,7.2-10.7,12.9-13.7c5.5-3.5,12.8-3.6,16.8-3.7c12.7-0.3,22.2,6.9,26.4,14.2
									c4.5,7,5.4,13.5,5.9,17.9c0.5,4.4,0.1,6.9,0.1,6.9l-1.8,0.3c0,0-1.1-2.1-3-5.7c-2-3.5-5.2-8.4-9.7-12.4
									c-4.5-3.9-10.8-5.8-16.1-5c-8.6,1.3-11.2,4.6-15.4,10c-3.6,5.7-5.2,13.3-4,21.1c0.7,8.1,3.1,14.9,7,18.9
									c3.8,4,9.5,4.7,13.4,4.2s6.1-1.4,6.1-1.4L-38.1,2384.3z"/>
							</g>
						</g>
						<g>
							<g>
								<path class="st3" d="M-38.1,2447c0,0-1.9,1.6-6,3.4c-3.9,1.6-11.3,3.6-19.4-0.8c-7.7-4.6-12.6-13.7-15.6-22.8
									c-2.9-9.2-3.9-21.8,1.5-32.9c2.6-5.6,7.2-10.7,12.9-13.7c5.5-3.5,12.8-3.6,16.8-3.7c12.7-0.3,22.2,6.9,26.4,14.2
									c4.5,7,5.4,13.5,5.9,17.9s0.1,6.9,0.1,6.9l-1.8,0.3c0,0-1.1-2.1-3-5.7c-2-3.5-5.2-8.4-9.7-12.4s-10.8-5.8-16.1-5
									c-8.6,1.3-11.2,4.6-15.4,10c-3.6,5.7-5.2,13.2-4,21.1c0.7,8,3.1,14.9,7,18.9c3.8,4.1,9.5,4.7,13.4,4.2s6.1-1.4,6.1-1.4
									L-38.1,2447z"/>
							</g>
						</g>
						<g>
							<g>
								<path class="st3" d="M-38.1,2007.6c0,0-1.9,1.6-6,3.4c-3.9,1.6-11.3,3.6-19.4-0.8c-7.7-4.6-12.6-13.7-15.6-22.8
									c-2.9-9.2-3.9-21.8,1.5-32.9c2.6-5.6,7.2-10.7,12.9-13.7c5.5-3.5,12.8-3.6,16.8-3.7c12.7-0.3,22.2,6.9,26.4,14.2
									c4.5,7,5.4,13.6,5.9,17.9c0.5,4.4,0.1,6.9,0.1,6.9l-1.8,0.3c0,0-1.1-2.1-3-5.7c-2-3.5-5.2-8.4-9.7-12.4
									c-4.5-3.9-10.8-5.8-16.1-5c-8.6,1.3-11.2,4.6-15.4,10c-3.6,5.7-5.2,13.2-4,21.1c0.7,8.1,3.1,14.9,7,18.9
									c3.8,4,9.5,4.7,13.4,4.2s6.1-1.4,6.1-1.4L-38.1,2007.6z"/>
							</g>
						</g>
						<g>
							<g>
								<path class="st3" d="M-38.1,2070.4c0,0-1.9,1.6-6,3.4c-3.9,1.6-11.3,3.6-19.4-0.8c-7.7-4.6-12.6-13.7-15.6-22.8
									c-2.9-9.2-3.9-21.8,1.5-32.9c2.6-5.6,7.2-10.7,12.9-13.7c5.5-3.5,12.8-3.6,16.8-3.7c12.7-0.3,22.2,6.9,26.4,14.2
									c4.5,7,5.4,13.5,5.9,17.9s0.1,6.9,0.1,6.9l-1.8,0.3c0,0-1.1-2.1-3-5.7c-2-3.4-5.2-8.4-9.7-12.4c-4.5-3.9-10.8-5.8-16.1-5
									c-8.6,1.3-11.2,4.6-15.4,10c-3.6,5.7-5.2,13.2-4,21.1c0.7,8.1,3.1,14.9,7,18.9c3.8,4,9.5,4.7,13.4,4.2s6.1-1.4,6.1-1.4
									L-38.1,2070.4z"/>
							</g>
						</g>
						<g>
							<g>
								<path class="st3" d="M-38.1,2133.2c0,0-1.9,1.6-6,3.4c-3.9,1.6-11.3,3.6-19.4-0.8c-7.7-4.6-12.6-13.7-15.6-22.8
									c-2.9-9.2-3.9-21.8,1.5-32.9c2.6-5.6,7.2-10.7,12.9-13.7c5.5-3.5,12.8-3.6,16.8-3.7c12.7-0.3,22.2,6.9,26.4,14.2
									c4.5,7,5.4,13.5,5.9,17.9c0.5,4.4,0.1,6.9,0.1,6.9l-1.8,0.3c0,0-1.1-2.1-3-5.7c-2-3.5-5.2-8.4-9.7-12.4
									c-4.5-3.9-10.8-5.8-16.1-5c-8.6,1.3-11.2,4.6-15.4,10c-3.6,5.7-5.2,13.3-4,21.1c0.7,8.1,3.1,14.9,7,18.9
									c3.8,4,9.5,4.7,13.4,4.2c3.9-0.5,6.1-1.4,6.1-1.4L-38.1,2133.2z"/>
							</g>
						</g>
						<g>
							<g>
								<path class="st3" d="M-38.1,2195.9c0,0-1.9,1.6-6,3.4c-3.9,1.6-11.3,3.6-19.4-0.8c-7.7-4.6-12.6-13.7-15.6-22.8
									c-2.9-9.2-3.9-21.8,1.5-32.9c2.6-5.6,7.2-10.7,12.9-13.7c5.5-3.5,12.8-3.6,16.8-3.7c12.7-0.3,22.2,6.9,26.4,14.2
									c4.5,7,5.4,13.5,5.9,17.9c0.5,4.4,0.1,6.9,0.1,6.9l-1.8,0.3c0,0-1.1-2.1-3-5.7c-2-3.5-5.2-8.4-9.7-12.4s-10.8-5.8-16.1-5
									c-8.6,1.3-11.2,4.6-15.4,10c-3.6,5.7-5.2,13.2-4,21.1c0.7,8,3.1,14.9,7,18.9c3.8,4.1,9.5,4.7,13.4,4.2s6.1-1.4,6.1-1.4
									L-38.1,2195.9z"/>
							</g>
						</g>
						<g>
							<g>
								<path class="st3" d="M-38.1,1756.5c0,0-1.9,1.6-6,3.4c-3.9,1.6-11.3,3.6-19.4-0.8c-7.7-4.6-12.6-13.7-15.6-22.8
									c-2.9-9.2-3.9-21.8,1.5-32.9c2.6-5.6,7.2-10.7,12.9-13.7c5.5-3.5,12.8-3.6,16.8-3.7c12.7-0.3,22.2,6.9,26.4,14.2
									c4.5,7,5.4,13.6,5.9,17.9c0.5,4.4,0.1,6.9,0.1,6.9l-1.8,0.3c0,0-1.1-2.1-3-5.7c-2-3.5-5.2-8.4-9.7-12.4
									c-4.5-3.9-10.8-5.8-16.1-5c-8.6,1.3-11.2,4.6-15.4,10c-3.6,5.7-5.2,13.2-4,21.1c0.7,8.1,3.1,14.9,7,18.9
									c3.8,4,9.5,4.7,13.4,4.2s6.1-1.4,6.1-1.4L-38.1,1756.5z"/>
							</g>
						</g>
						<g>
							<g>
								<path class="st3" d="M-38.1,1819.3c0,0-1.9,1.6-6,3.4c-3.9,1.6-11.3,3.6-19.4-0.8c-7.7-4.6-12.6-13.7-15.6-22.8
									c-2.9-9.2-3.9-21.8,1.5-32.9c2.6-5.6,7.2-10.7,12.9-13.7c5.5-3.5,12.8-3.6,16.8-3.7c12.7-0.3,22.2,6.9,26.4,14.2
									c4.5,7,5.4,13.5,5.9,17.9s0.1,6.9,0.1,6.9l-1.8,0.3c0,0-1.1-2.1-3-5.7c-2-3.4-5.2-8.4-9.7-12.4c-4.5-3.9-10.8-5.8-16.1-5
									c-8.6,1.3-11.2,4.6-15.4,10c-3.6,5.7-5.2,13.2-4,21.1c0.7,8.1,3.1,14.9,7,18.9c3.8,4,9.5,4.7,13.4,4.2s6.1-1.4,6.1-1.4
									L-38.1,1819.3z"/>
							</g>
						</g>
						<g>
							<g>
								<path class="st3" d="M-38.1,1882.1c0,0-1.9,1.6-6,3.4c-3.9,1.6-11.3,3.6-19.4-0.8c-7.7-4.6-12.6-13.7-15.6-22.8
									c-2.9-9.2-3.9-21.8,1.5-32.9c2.6-5.6,7.2-10.7,12.9-13.7c5.5-3.5,12.8-3.6,16.8-3.7c12.7-0.3,22.2,6.9,26.4,14.2
									c4.5,7,5.4,13.5,5.9,17.9s0.1,6.9,0.1,6.9l-1.8,0.3c0,0-1.1-2.1-3-5.7c-2-3.5-5.2-8.4-9.7-12.4c-4.5-3.9-10.8-5.8-16.1-5
									c-8.6,1.3-11.2,4.6-15.4,10c-3.6,5.7-5.2,13.3-4,21.1c0.7,8.1,3.1,14.9,7,18.9c3.8,4,9.5,4.7,13.4,4.2s6.1-1.4,6.1-1.4
									L-38.1,1882.1z"/>
							</g>
						</g>
						<g>
							<g>
								<path class="st3" d="M-38.1,1944.9c0,0-1.9,1.6-6,3.4c-3.9,1.6-11.3,3.6-19.4-0.8c-7.7-4.6-12.6-13.7-15.6-22.8
									c-2.9-9.2-3.9-21.8,1.5-32.9c2.6-5.6,7.2-10.7,12.9-13.7c5.5-3.5,12.8-3.6,16.8-3.7c12.7-0.3,22.2,6.9,26.4,14.2
									c4.5,7,5.4,13.5,5.9,17.9s0.1,6.9,0.1,6.9l-1.8,0.3c0,0-1.1-2.1-3-5.7c-2-3.5-5.2-8.4-9.7-12.4s-10.8-5.8-16.1-5
									c-8.6,1.3-11.2,4.6-15.4,10c-3.6,5.7-5.2,13.2-4,21.1c0.7,8,3.1,14.9,7,18.9c3.8,4.1,9.5,4.7,13.4,4.2s6.1-1.4,6.1-1.4
									L-38.1,1944.9z"/>
							</g>
						</g>
						<g>
							<g>
								<path class="st3" d="M-38.1,1505.5c0,0-1.9,1.6-6,3.4c-3.9,1.6-11.3,3.6-19.4-0.8c-7.7-4.6-12.6-13.7-15.6-22.8
									c-2.9-9.2-3.9-21.8,1.5-32.9c2.6-5.6,7.2-10.7,12.9-13.7c5.5-3.5,12.8-3.6,16.8-3.7c12.7-0.3,22.2,6.9,26.4,14.2
									c4.5,7,5.4,13.6,5.9,17.9c0.5,4.4,0.1,6.9,0.1,6.9l-1.8,0.3c0,0-1.1-2.1-3-5.7c-2-3.5-5.2-8.4-9.7-12.4
									c-4.5-3.9-10.8-5.8-16.1-5c-8.6,1.3-11.2,4.6-15.4,10c-3.6,5.7-5.2,13.2-4,21.1c0.7,8.1,3.1,14.9,7,18.9
									c3.8,4,9.5,4.7,13.4,4.2s6.1-1.4,6.1-1.4L-38.1,1505.5z"/>
							</g>
						</g>
						<g>
							<g>
								<path class="st3" d="M-38.1,1568.2c0,0-1.9,1.6-6,3.4c-3.9,1.6-11.3,3.6-19.4-0.8c-7.7-4.6-12.6-13.7-15.6-22.8
									c-2.9-9.2-3.9-21.8,1.5-32.9c2.6-5.6,7.2-10.7,12.9-13.7c5.5-3.5,12.8-3.6,16.8-3.7c12.7-0.3,22.2,6.9,26.4,14.2
									c4.5,7,5.4,13.5,5.9,17.9s0.1,6.9,0.1,6.9l-1.8,0.3c0,0-1.1-2.1-3-5.7c-2-3.4-5.2-8.4-9.7-12.4c-4.5-3.9-10.8-5.8-16.1-5
									c-8.6,1.3-11.2,4.6-15.4,10c-3.6,5.7-5.2,13.2-4,21.1c0.7,8.1,3.1,14.9,7,18.9c3.8,4,9.5,4.7,13.4,4.2s6.1-1.4,6.1-1.4
									L-38.1,1568.2z"/>
							</g>
						</g>
						<g>
							<g>
								<path class="st3" d="M-38.1,1631c0,0-1.9,1.6-6,3.4c-3.9,1.6-11.3,3.6-19.4-0.8c-7.7-4.6-12.6-13.7-15.6-22.8
									c-2.9-9.2-3.9-21.8,1.5-32.9c2.6-5.6,7.2-10.7,12.9-13.7c5.5-3.5,12.8-3.6,16.8-3.7c12.7-0.3,22.2,6.9,26.4,14.2
									c4.5,7,5.4,13.5,5.9,17.9s0.1,6.9,0.1,6.9l-1.8,0.3c0,0-1.1-2.1-3-5.7c-2-3.5-5.2-8.4-9.7-12.4c-4.5-3.9-10.8-5.8-16.1-5
									c-8.6,1.3-11.2,4.6-15.4,10c-3.6,5.7-5.2,13.3-4,21.1c0.7,8.1,3.1,14.9,7,18.9c3.8,4,9.5,4.7,13.4,4.2s6.1-1.4,6.1-1.4
									L-38.1,1631z"/>
							</g>
						</g>
						<g>
							<g>
								<path class="st3" d="M-38.1,1693.8c0,0-1.9,1.6-6,3.4c-3.9,1.6-11.3,3.6-19.4-0.8c-7.7-4.6-12.6-13.7-15.6-22.8
									c-2.9-9.2-3.9-21.8,1.5-32.9c2.6-5.6,7.2-10.7,12.9-13.7c5.5-3.5,12.8-3.6,16.8-3.7c12.7-0.3,22.2,6.9,26.4,14.2
									c4.5,7,5.4,13.5,5.9,17.9s0.1,6.9,0.1,6.9l-1.8,0.3c0,0-1.1-2.1-3-5.7c-2-3.5-5.2-8.4-9.7-12.4s-10.8-5.8-16.1-5
									c-8.6,1.3-11.2,4.6-15.4,10c-3.6,5.7-5.2,13.2-4,21.1c0.7,8,3.1,14.9,7,18.9c3.8,4.1,9.5,4.7,13.4,4.2s6.1-1.4,6.1-1.4
									L-38.1,1693.8z"/>
							</g>
						</g>
						<g>
							<g>
								<path class="st3" d="M-38.1,1254.4c0,0-1.9,1.6-6,3.4c-3.9,1.6-11.3,3.6-19.4-0.8c-7.7-4.6-12.6-13.7-15.6-22.8
									c-2.9-9.2-3.9-21.8,1.5-32.9c2.6-5.6,7.2-10.7,12.9-13.7c5.5-3.5,12.8-3.6,16.8-3.7c12.7-0.3,22.2,6.9,26.4,14.2
									c4.5,7,5.4,13.6,5.9,17.9c0.5,4.4,0.1,6.9,0.1,6.9l-1.8,0.3c0,0-1.1-2.1-3-5.7c-2-3.5-5.2-8.4-9.7-12.4
									c-4.5-3.9-10.8-5.8-16.1-5c-8.6,1.3-11.2,4.6-15.4,10c-3.6,5.7-5.2,13.2-4,21.1c0.7,8.1,3.1,14.9,7,18.9
									c3.8,4,9.5,4.7,13.4,4.2s6.1-1.4,6.1-1.4L-38.1,1254.4z"/>
							</g>
						</g>
						<g>
							<g>
								<path class="st3" d="M-38.1,1317.1c0,0-1.9,1.6-6,3.4c-3.9,1.6-11.3,3.6-19.4-0.8c-7.7-4.6-12.6-13.7-15.6-22.8
									c-2.9-9.2-3.9-21.8,1.5-32.9c2.6-5.6,7.2-10.7,12.9-13.7c5.5-3.5,12.8-3.6,16.8-3.7c12.7-0.3,22.2,6.9,26.4,14.2
									c4.5,7,5.4,13.5,5.9,17.9s0.1,6.9,0.1,6.9l-1.8,0.3c0,0-1.1-2.1-3-5.7c-2-3.4-5.2-8.4-9.7-12.4c-4.5-3.9-10.8-5.8-16.1-5
									c-8.6,1.3-11.2,4.6-15.4,10c-3.6,5.7-5.2,13.2-4,21.1c0.7,8.1,3.1,14.9,7,18.9c3.8,4,9.5,4.7,13.4,4.2s6.1-1.4,6.1-1.4
									L-38.1,1317.1z"/>
							</g>
						</g>
						<g>
							<g>
								<path class="st3" d="M-38.1,1379.9c0,0-1.9,1.6-6,3.4c-3.9,1.6-11.3,3.6-19.4-0.8c-7.7-4.6-12.6-13.7-15.6-22.8
									c-2.9-9.2-3.9-21.8,1.5-32.9c2.6-5.6,7.2-10.7,12.9-13.7c5.5-3.5,12.8-3.6,16.8-3.7c12.7-0.3,22.2,6.9,26.4,14.2
									c4.5,7,5.4,13.5,5.9,17.9s0.1,6.9,0.1,6.9l-1.8,0.3c0,0-1.1-2.1-3-5.7c-2-3.5-5.2-8.4-9.7-12.4c-4.5-3.9-10.8-5.8-16.1-5
									c-8.6,1.3-11.2,4.6-15.4,10c-3.6,5.7-5.2,13.3-4,21.1c0.7,8.1,3.1,14.9,7,18.9c3.8,4,9.5,4.7,13.4,4.2s6.1-1.4,6.1-1.4
									L-38.1,1379.9z"/>
							</g>
						</g>
						<g>
							<g>
								<path class="st3" d="M-38.1,1442.7c0,0-1.9,1.6-6,3.4c-3.9,1.6-11.3,3.6-19.4-0.8c-7.7-4.6-12.6-13.7-15.6-22.8
									c-2.9-9.2-3.9-21.8,1.5-32.9c2.6-5.6,7.2-10.7,12.9-13.7c5.5-3.5,12.8-3.6,16.8-3.7c12.7-0.3,22.2,6.9,26.4,14.2
									c4.5,7,5.4,13.5,5.9,17.9s0.1,6.9,0.1,6.9l-1.8,0.3c0,0-1.1-2.1-3-5.7c-2-3.5-5.2-8.4-9.7-12.4s-10.8-5.8-16.1-5
									c-8.6,1.3-11.2,4.6-15.4,10c-3.6,5.7-5.2,13.2-4,21.1c0.7,8,3.1,14.9,7,18.9c3.8,4.1,9.5,4.7,13.4,4.2s6.1-1.4,6.1-1.4
									L-38.1,1442.7z"/>
							</g>
						</g>
						<g>
							<g>
								<path class="st3" d="M-38.1,1003.3c0,0-1.9,1.6-6,3.4c-3.9,1.6-11.3,3.6-19.4-0.8c-7.7-4.6-12.6-13.7-15.6-22.8
									c-2.9-9.2-3.9-21.8,1.5-32.9c2.6-5.6,7.2-10.7,12.9-13.7c5.5-3.5,12.8-3.6,16.8-3.7c12.7-0.3,22.2,6.9,26.4,14.2
									c4.5,7,5.4,13.6,5.9,17.9c0.5,4.4,0.1,6.9,0.1,6.9l-1.8,0.3c0,0-1.1-2.1-3-5.7c-2-3.5-5.2-8.4-9.7-12.4
									c-4.5-3.9-10.8-5.8-16.1-5c-8.6,1.3-11.2,4.6-15.4,10c-3.6,5.7-5.2,13.2-4,21.1c0.7,8.1,3.1,14.9,7,18.9
									c3.8,4.1,9.5,4.7,13.4,4.2s6.1-1.4,6.1-1.4L-38.1,1003.3z"/>
							</g>
						</g>
						<g>
							<g>
								<path class="st3" d="M-38.1,1066.1c0,0-1.9,1.6-6,3.4c-3.9,1.6-11.3,3.6-19.4-0.8c-7.7-4.6-12.6-13.7-15.6-22.8
									c-2.9-9.2-3.9-21.8,1.5-32.9c2.6-5.6,7.2-10.7,12.9-13.7c5.5-3.5,12.8-3.6,16.8-3.7c12.7-0.3,22.2,6.9,26.4,14.2
									c4.5,7,5.4,13.6,5.9,17.9c0.5,4.4,0.1,6.9,0.1,6.9l-1.8,0.3c0,0-1.1-2.1-3-5.7c-2-3.4-5.2-8.4-9.7-12.4
									c-4.5-3.9-10.8-5.8-16.1-5c-8.6,1.3-11.2,4.6-15.4,10c-3.6,5.7-5.2,13.2-4,21.1c0.7,8.1,3.1,14.9,7,18.9
									c3.8,4,9.5,4.7,13.4,4.2s6.1-1.4,6.1-1.4L-38.1,1066.1z"/>
							</g>
						</g>
						<g>
							<g>
								<path class="st3" d="M-38.1,1128.8c0,0-1.9,1.6-6,3.4c-3.9,1.6-11.3,3.6-19.4-0.8c-7.7-4.6-12.6-13.7-15.6-22.8
									c-2.9-9.2-3.9-21.8,1.5-32.9c2.6-5.6,7.2-10.7,12.9-13.7c5.5-3.5,12.8-3.6,16.8-3.7c12.7-0.3,22.2,6.9,26.4,14.2
									c4.5,7,5.4,13.5,5.9,17.9s0.1,6.9,0.1,6.9l-1.8,0.3c0,0-1.1-2.1-3-5.7c-2-3.5-5.2-8.4-9.7-12.4c-4.5-3.9-10.8-5.8-16.1-5
									c-8.6,1.3-11.2,4.6-15.4,10c-3.6,5.7-5.2,13.2-4,21.1c0.7,8.1,3.1,14.9,7,18.9c3.8,4,9.5,4.7,13.4,4.2s6.1-1.4,6.1-1.4
									L-38.1,1128.8z"/>
							</g>
						</g>
						<g>
							<g>
								<path class="st3" d="M-38.1,1191.6c0,0-1.9,1.6-6,3.4c-3.9,1.6-11.3,3.6-19.4-0.8c-7.7-4.6-12.6-13.7-15.6-22.8
									c-2.9-9.2-3.9-21.8,1.5-32.9c2.6-5.6,7.2-10.7,12.9-13.7c5.5-3.5,12.8-3.6,16.8-3.7c12.7-0.3,22.2,6.9,26.4,14.2
									c4.5,7,5.4,13.5,5.9,17.9s0.1,6.9,0.1,6.9l-1.8,0.3c0,0-1.1-2.1-3-5.7c-2-3.5-5.2-8.4-9.7-12.4c-4.5-3.9-10.8-5.8-16.1-5
									c-8.6,1.3-11.2,4.6-15.4,10c-3.6,5.7-5.2,13.2-4,21.1c0.7,8,3.1,14.9,7,18.9c3.8,4.1,9.5,4.7,13.4,4.2s6.1-1.4,6.1-1.4
									L-38.1,1191.6z"/>
							</g>
						</g>
						<g>
							<g>
								<path class="st3" d="M-38.1,752.2c0,0-1.9,1.6-6,3.4c-3.9,1.6-11.3,3.6-19.4-0.8c-7.7-4.6-12.6-13.7-15.6-22.8
									c-2.9-9.2-3.9-21.8,1.5-32.9c2.6-5.6,7.2-10.7,12.9-13.7c5.5-3.5,12.8-3.6,16.8-3.7c12.7-0.3,22.2,6.9,26.4,14.2
									c4.5,7,5.4,13.6,5.9,17.9c0.5,4.4,0.1,6.9,0.1,6.9l-1.8,0.3c0,0-1.1-2.1-3-5.7c-2-3.5-5.2-8.4-9.7-12.4
									c-4.5-3.9-10.8-5.8-16.1-5c-8.6,1.3-11.2,4.6-15.4,10c-3.6,5.7-5.2,13.2-4,21.1c0.7,8.1,3.1,14.9,7,18.9
									c3.8,4.1,9.5,4.7,13.4,4.2s6.1-1.4,6.1-1.4L-38.1,752.2z"/>
							</g>
						</g>
						<g>
							<g>
								<path class="st3" d="M-38.1,815c0,0-1.9,1.6-6,3.4c-3.9,1.6-11.3,3.6-19.4-0.8c-7.7-4.6-12.6-13.7-15.6-22.8
									c-2.9-9.2-3.9-21.8,1.5-32.9c2.6-5.6,7.2-10.7,12.9-13.7c5.5-3.5,12.8-3.6,16.8-3.7c12.7-0.3,22.2,6.9,26.4,14.2
									c4.5,7,5.4,13.6,5.9,17.9c0.5,4.4,0.1,6.9,0.1,6.9l-1.8,0.3c0,0-1.1-2.1-3-5.7c-2-3.4-5.2-8.4-9.7-12.4
									c-4.5-3.9-10.8-5.8-16.1-5c-8.6,1.3-11.2,4.6-15.4,10c-3.6,5.7-5.2,13.2-4,21.1c0.7,8.1,3.1,14.9,7,18.9
									c3.8,4,9.5,4.7,13.4,4.2s6.1-1.4,6.1-1.4L-38.1,815z"/>
							</g>
						</g>
						<g>
							<g>
								<path class="st3" d="M-38.1,877.7c0,0-1.9,1.6-6,3.4c-3.9,1.6-11.3,3.6-19.4-0.8c-7.7-4.6-12.6-13.7-15.6-22.8
									c-2.9-9.2-3.9-21.8,1.5-32.9c2.6-5.6,7.2-10.7,12.9-13.7c5.5-3.5,12.8-3.6,16.8-3.7c12.7-0.3,22.2,6.9,26.4,14.2
									c4.5,7,5.4,13.5,5.9,17.9s0.1,6.9,0.1,6.9l-1.8,0.3c0,0-1.1-2.1-3-5.7c-2-3.5-5.2-8.4-9.7-12.4c-4.5-3.9-10.8-5.8-16.1-5
									c-8.6,1.3-11.2,4.6-15.4,10c-3.6,5.7-5.2,13.2-4,21.1c0.7,8.1,3.1,14.9,7,18.9c3.8,4,9.5,4.7,13.4,4.2s6.1-1.4,6.1-1.4
									L-38.1,877.7z"/>
							</g>
						</g>
						<g>
							<g>
								<path class="st3" d="M-38.1,940.5c0,0-1.9,1.6-6,3.4c-3.9,1.6-11.3,3.6-19.4-0.8c-7.7-4.6-12.6-13.7-15.6-22.8
									c-2.9-9.2-3.9-21.8,1.5-32.9c2.6-5.6,7.2-10.7,12.9-13.7c5.5-3.5,12.8-3.6,16.8-3.7c12.7-0.3,22.2,6.9,26.4,14.2
									c4.5,7,5.4,13.5,5.9,17.9s0.1,6.9,0.1,6.9l-1.8,0.3c0,0-1.1-2.1-3-5.7c-2-3.5-5.2-8.4-9.7-12.4c-4.5-3.9-10.8-5.8-16.1-5
									c-8.6,1.3-11.2,4.6-15.4,10c-3.6,5.7-5.2,13.2-4,21.1c0.7,8,3.1,14.9,7,18.9c3.8,4.1,9.5,4.7,13.4,4.2S-39,939-39,939
									L-38.1,940.5z"/>
							</g>
						</g>
						<g>
							<g>
								<path class="st3" d="M-38.1,501.1c0,0-1.9,1.6-6,3.4c-3.9,1.6-11.3,3.6-19.4-0.8c-7.7-4.6-12.6-13.7-15.6-22.8
									c-2.9-9.2-3.9-21.8,1.5-32.9c2.6-5.6,7.2-10.7,12.9-13.7c5.5-3.5,12.8-3.6,16.8-3.7c12.7-0.3,22.2,6.9,26.4,14.2
									c4.5,7,5.4,13.6,5.9,17.9c0.5,4.4,0.1,6.9,0.1,6.9l-1.8,0.3c0,0-1.1-2.1-3-5.7c-2-3.5-5.2-8.4-9.7-12.4s-10.8-5.8-16.1-5
									c-8.6,1.3-11.2,4.6-15.4,10c-3.6,5.7-5.2,13.2-4,21.1c0.7,8.1,3.1,14.9,7,18.9c3.8,4.1,9.5,4.7,13.4,4.2s6.1-1.4,6.1-1.4
									L-38.1,501.1z"/>
							</g>
						</g>
						<g>
							<g>
								<path class="st3" d="M-38.1,563.9c0,0-1.9,1.6-6,3.4c-3.9,1.6-11.3,3.6-19.4-0.8c-7.7-4.6-12.6-13.7-15.6-22.8
									c-2.9-9.2-3.9-21.8,1.5-32.9c2.6-5.6,7.2-10.7,12.9-13.7c5.5-3.5,12.8-3.6,16.8-3.7c12.7-0.3,22.2,6.9,26.4,14.2
									c4.5,7,5.4,13.6,5.9,17.9c0.5,4.4,0.1,6.9,0.1,6.9l-1.8,0.3c0,0-1.1-2.1-3-5.7c-2-3.4-5.2-8.4-9.7-12.4
									c-4.5-3.9-10.8-5.8-16.1-5c-8.6,1.3-11.2,4.6-15.4,10c-3.6,5.7-5.2,13.2-4,21.1c0.7,8.1,3.1,14.9,7,18.9
									c3.8,4,9.5,4.7,13.4,4.2c3.9-0.5,6.1-1.4,6.1-1.4L-38.1,563.9z"/>
							</g>
						</g>
						<g>
							<g>
								<path class="st3" d="M-38.1,626.7c0,0-1.9,1.6-6,3.4c-3.9,1.6-11.3,3.6-19.4-0.8c-7.7-4.6-12.6-13.7-15.6-22.8
									c-2.9-9.2-3.9-21.8,1.5-32.9c2.6-5.6,7.2-10.7,12.9-13.7c5.5-3.5,12.8-3.6,16.8-3.7c12.7-0.3,22.2,6.9,26.4,14.2
									c4.5,7,5.4,13.5,5.9,17.9c0.5,4.4,0.1,6.9,0.1,6.9l-1.8,0.3c0,0-1.1-2.1-3-5.7c-2-3.5-5.2-8.4-9.7-12.4
									c-4.5-3.9-10.8-5.8-16.1-5c-8.6,1.3-11.2,4.6-15.4,10c-3.6,5.7-5.2,13.2-4,21.1c0.7,8.1,3.1,14.9,7,18.9
									c3.8,4,9.5,4.7,13.4,4.2s6.1-1.4,6.1-1.4L-38.1,626.7z"/>
							</g>
						</g>
						<g>
							<g>
								<path class="st3" d="M-38.1,689.4c0,0-1.9,1.6-6,3.4c-3.9,1.6-11.3,3.6-19.4-0.8c-7.7-4.6-12.6-13.7-15.6-22.8
									c-2.9-9.2-3.9-21.8,1.5-32.9c2.6-5.6,7.2-10.7,12.9-13.7c5.5-3.5,12.8-3.6,16.8-3.7c12.7-0.3,22.2,6.9,26.4,14.2
									c4.5,7,5.4,13.5,5.9,17.9c0.5,4.4,0.1,6.9,0.1,6.9l-1.8,0.3c0,0-1.1-2.1-3-5.7c-2-3.5-5.2-8.4-9.7-12.4
									c-4.5-3.9-10.8-5.8-16.1-5c-8.6,1.3-11.2,4.6-15.4,10c-3.6,5.7-5.2,13.2-4,21.1c0.7,8,3.1,14.9,7,18.9
									c3.8,4.1,9.5,4.7,13.4,4.2s6.1-1.4,6.1-1.4L-38.1,689.4z"/>
							</g>
						</g>
						<g>
							<g>
								<path class="st3" d="M-38.1,250c0,0-1.9,1.6-6,3.4c-3.9,1.6-11.3,3.6-19.4-0.8c-7.7-4.6-12.6-13.6-15.6-22.8
									c-2.9-9.2-3.9-21.8,1.5-32.9c2.6-5.6,7.2-10.7,12.9-13.7c5.5-3.5,12.8-3.6,16.8-3.7c12.7-0.3,22.2,6.9,26.4,14.2
									c4.5,7,5.4,13.6,5.9,17.9c0.5,4.4,0.1,6.9,0.1,6.9l-1.8,0.3c0,0-1.1-2.1-3-5.7c-2-3.5-5.2-8.4-9.7-12.4s-10.8-5.8-16.1-5
									c-8.6,1.3-11.2,4.6-15.4,10c-3.6,5.7-5.2,13.2-4,21.1c0.7,8,3.1,14.9,7,18.9c3.8,4.1,9.5,4.7,13.4,4.2s6.1-1.4,6.1-1.4
									L-38.1,250z"/>
							</g>
						</g>
						<g>
							<g>
								<path class="st3" d="M-38.1,312.8c0,0-1.9,1.6-6,3.4c-3.9,1.6-11.3,3.6-19.4-0.8c-7.7-4.6-12.6-13.7-15.6-22.8
									c-2.9-9.2-3.9-21.8,1.5-32.9c2.7-5.6,7.2-10.7,13-13.8c5.5-3.5,12.8-3.6,16.8-3.7c12.7-0.3,22.2,6.9,26.4,14.2
									c4.5,7,5.4,13.6,5.9,17.9c0.5,4.4,0.1,6.9,0.1,6.9l-1.8,0.3c0,0-1.1-2.1-3-5.7c-2-3.4-5.2-8.4-9.7-12.4
									c-4.5-3.9-10.8-5.8-16.1-5c-8.6,1.3-11.2,4.6-15.4,10c-3.6,5.7-5.2,13.2-4,21.1c0.7,8.1,3.1,14.9,7,18.9
									c3.8,4,9.5,4.7,13.4,4.2s6.1-1.4,6.1-1.4L-38.1,312.8z"/>
							</g>
						</g>
						<g>
							<g>
								<path class="st3" d="M-38.1,375.6c0,0-1.9,1.6-6,3.4c-3.9,1.6-11.3,3.6-19.4-0.8c-7.7-4.6-12.6-13.7-15.6-22.8
									c-2.9-9.2-3.9-21.8,1.5-32.9c2.6-5.6,7.2-10.7,12.9-13.7c5.6-3.6,12.8-3.7,16.9-3.8c12.7-0.3,22.2,6.9,26.4,14.2
									c4.5,7,5.4,13.5,5.9,17.9s0.1,6.9,0.1,6.9l-1.8,0.3c0,0-1.1-2.1-3-5.7c-2-3.5-5.2-8.4-9.7-12.4c-4.5-3.9-10.8-5.8-16.1-5
									c-8.6,1.3-11.2,4.6-15.4,10c-3.6,5.7-5.2,13.2-4,21.1c0.7,8.1,3.1,14.9,7,18.9c3.8,4,9.5,4.7,13.4,4.2s6.1-1.4,6.1-1.4
									L-38.1,375.6z"/>
							</g>
						</g>
						<g>
							<g>
								<path class="st3" d="M-38.1,438.3c0,0-1.9,1.6-6,3.4c-3.9,1.6-11.3,3.6-19.4-0.8c-7.7-4.6-12.6-13.7-15.6-22.8
									c-2.9-9.2-3.9-21.8,1.5-32.9c2.6-5.6,7.2-10.7,12.9-13.7c5.5-3.5,12.8-3.6,16.8-3.7c12.7-0.3,22.2,6.9,26.4,14.2
									c4.5,7,5.4,13.5,5.9,17.9s0.1,6.9,0.1,6.9l-1.8,0.3c0,0-1.1-2.1-3-5.7c-2-3.5-5.2-8.4-9.7-12.4c-4.5-3.9-10.8-5.8-16.1-5
									c-8.6,1.3-11.2,4.6-15.4,10c-3.6,5.7-5.2,13.2-4,21.1c0.7,8,3.1,14.9,7,18.9c3.8,4.1,9.5,4.7,13.4,4.2
									c3.9-0.5,6.1-1.4,6.1-1.4L-38.1,438.3z"/>
							</g>
						</g>
						<g>
							<g>
								<path class="st3" d="M-38.1-1.1c0,0-1.9,1.6-6,3.4C-48,3.9-55.4,5.9-63.5,1.5c-7.7-4.6-12.6-13.7-15.6-22.8
									c-2.9-9.2-3.9-21.8,1.5-32.9c2.6-5.6,7.2-10.7,12.9-13.7c5.5-3.5,12.8-3.6,16.8-3.7c12.7-0.3,22.2,6.9,26.4,14.2
									c4.5,7,5.4,13.6,5.9,17.9c0.5,4.4,0.1,6.9,0.1,6.9l-1.8,0.3c0,0-1.1-2.1-3-5.7c-2-3.5-5.2-8.4-9.7-12.4s-10.8-5.8-16.1-5
									c-8.6,1.3-11.2,4.6-15.4,10c-3.6,5.7-5.2,13.2-4,21.1c0.7,8,3.1,14.9,7,18.9c3.8,4.1,9.5,4.7,13.4,4.2S-39-2.6-39-2.6
									L-38.1-1.1z"/>
							</g>
						</g>
						<g>
							<g>
								<path class="st3" d="M-38.1,61.7c0,0-1.9,1.6-6,3.4c-3.9,1.6-11.3,3.6-19.4-0.8c-7.7-4.6-12.6-13.7-15.6-22.8
									C-82,32.3-83,19.7-77.6,8.6C-75,3-70.4-2.1-64.7-5.1c5.5-3.5,12.8-3.6,16.8-3.7c12.7-0.3,22.2,6.9,26.4,14.2
									c4.5,7,5.4,13.6,5.9,17.9c0.5,4.4,0.1,6.9,0.1,6.9l-1.8,0.3c0,0-1.1-2.1-3-5.7c-2-3.5-5.2-8.4-9.7-12.4
									c-4.5-3.9-10.8-5.8-16.1-5c-8.6,1.3-11.2,4.6-15.4,10c-3.6,5.7-5.2,13.2-4,21.1c0.7,8.1,3.1,14.9,7,18.9
									c3.8,4,9.5,4.7,13.4,4.2s6.1-1.4,6.1-1.4L-38.1,61.7z"/>
							</g>
						</g>
						<g>
							<g>
								<path class="st3" d="M-38.1,124.5c0,0-1.9,1.6-6,3.4c-3.9,1.6-11.3,3.6-19.4-0.8c-7.7-4.6-12.6-13.7-15.6-22.8
									c-2.9-9.2-3.9-21.8,1.5-32.9c2.6-5.6,7.2-10.7,12.9-13.7c5.5-3.5,12.8-3.6,16.8-3.7c12.7-0.3,22.2,6.9,26.4,14.2
									c4.5,7,5.4,13.5,5.9,17.9s0.1,6.9,0.1,6.9l-1.8,0.3c0,0-1.1-2.1-3-5.7c-2-3.5-5.2-8.4-9.7-12.4c-4.5-3.9-10.8-5.8-16.1-5
									c-8.6,1.3-11.2,4.6-15.4,10c-3.6,5.7-5.2,13.2-4,21.1c0.7,8.1,3.1,14.9,7,18.9c3.8,4,9.5,4.7,13.4,4.2S-39,123-39,123
									L-38.1,124.5z"/>
							</g>
						</g>
						<g>
							<g>
								<path class="st3" d="M-38.1,187.3c0,0-1.9,1.6-6,3.4c-3.9,1.6-11.3,3.6-19.4-0.8c-7.7-4.6-12.6-13.7-15.6-22.8
									c-2.9-9.2-3.9-21.8,1.5-32.9c2.6-5.6,7.2-10.7,12.9-13.7c5.5-3.5,12.8-3.6,16.8-3.7c12.7-0.3,22.2,6.9,26.4,14.2
									c4.5,7,5.4,13.5,5.9,17.9s0.1,6.9,0.1,6.9l-1.8,0.3c0,0-1.1-2.1-3-5.7c-2-3.5-5.2-8.4-9.7-12.4c-4.5-3.9-10.8-5.8-16.1-5
									c-8.6,1.3-11.2,4.6-15.4,10c-3.6,5.7-5.2,13.2-4,21.1c0.7,8.1,3.1,14.9,7,18.9c3.8,4.1,9.5,4.7,13.4,4.2s6.1-1.4,6.1-1.4
									L-38.1,187.3z"/>
							</g>
						</g>
						<g>
							<g>
								<path class="st3" d="M-38.1-252.1c0,0-1.9,1.6-6,3.4c-3.9,1.6-11.3,3.6-19.4-0.8c-7.7-4.6-12.6-13.7-15.6-22.8
									c-2.9-9.2-3.9-21.8,1.5-32.9c2.6-5.6,7.2-10.7,12.9-13.7c5.5-3.5,12.8-3.6,16.8-3.7c12.7-0.3,22.2,6.9,26.4,14.2
									c4.5,7,5.4,13.5,5.9,17.9s0.1,6.9,0.1,6.9l-1.8,0.3c0,0-1.1-2.1-3-5.7c-2-3.5-5.2-8.4-9.7-12.4s-10.8-5.8-16.1-5
									c-8.6,1.3-11.2,4.6-15.4,10c-3.6,5.7-5.2,13.2-4,21.1c0.7,8,3.1,14.9,7,18.9c3.8,4.1,9.5,4.7,13.4,4.2s6.1-1.4,6.1-1.4
									L-38.1-252.1z"/>
							</g>
						</g>
						<g>
							<g>
								<path class="st3" d="M-38.1-189.4c0,0-1.9,1.6-6,3.4c-3.9,1.6-11.3,3.6-19.4-0.8c-7.7-4.6-12.6-13.7-15.6-22.8
									c-2.9-9.2-3.9-21.8,1.5-32.9c2.6-5.6,7.2-10.7,12.9-13.7c5.5-3.5,12.8-3.6,16.8-3.7c12.7-0.3,22.2,6.9,26.4,14.2
									c4.5,7,5.4,13.6,5.9,17.9c0.5,4.4,0.1,6.9,0.1,6.9l-1.8,0.3c0,0-1.1-2.1-3-5.7c-2-3.5-5.2-8.4-9.7-12.4
									c-4.5-3.9-10.8-5.8-16.1-5c-8.6,1.3-11.2,4.6-15.4,10c-3.6,5.7-5.2,13.2-4,21.1c0.7,8.1,3.1,14.9,7,18.9
									c3.8,4,9.5,4.7,13.4,4.2s6.1-1.4,6.1-1.4L-38.1-189.4z"/>
							</g>
						</g>
						<g>
							<g>
								<path class="st3" d="M-38.1-126.6c0,0-1.9,1.6-6,3.4c-3.9,1.6-11.3,3.6-19.4-0.8c-7.7-4.6-12.6-13.7-15.6-22.8
									c-2.9-9.2-3.9-21.8,1.5-32.9c2.6-5.6,7.2-10.7,12.9-13.7c5.5-3.5,12.8-3.6,16.8-3.7c12.7-0.3,22.2,6.9,26.4,14.2
									c4.5,7,5.4,13.5,5.9,17.9s0.1,6.9,0.1,6.9l-1.8,0.3c0,0-1.1-2.1-3-5.7c-2-3.5-5.2-8.4-9.7-12.4c-4.5-3.9-10.8-5.8-16.1-5
									c-8.6,1.3-11.2,4.6-15.4,10c-3.6,5.7-5.2,13.2-4,21.1c0.7,8.1,3.1,14.9,7,18.9c3.8,4,9.5,4.7,13.4,4.2s6.1-1.4,6.1-1.4
									L-38.1-126.6z"/>
							</g>
						</g>
						<g>
							<g>
								<path class="st3" d="M-38.1-63.8c0,0-1.9,1.6-6,3.4c-3.9,1.6-11.3,3.6-19.4-0.8c-7.7-4.6-12.6-13.7-15.6-22.8
									c-2.9-9.2-3.9-21.8,1.5-32.9c2.6-5.6,7.2-10.7,12.9-13.7c5.5-3.5,12.8-3.6,16.8-3.7c12.7-0.3,22.2,6.9,26.4,14.2
									c4.5,7,5.4,13.5,5.9,17.9s0.1,6.9,0.1,6.9l-1.8,0.3c0,0-1.1-2.1-3-5.7c-2-3.5-5.2-8.4-9.7-12.4c-4.5-3.9-10.8-5.8-16.1-5
									c-8.6,1.3-11.2,4.6-15.4,10c-3.6,5.7-5.2,13.3-4,21.1c0.7,8.1,3.1,14.9,7,18.9c3.8,4,9.5,4.7,13.4,4.2s6.1-1.4,6.1-1.4
									L-38.1-63.8z"/>
							</g>
						</g>
						<g>
							<g>
								<path class="st3" d="M-38.1-503.2c0,0-1.9,1.6-6,3.4c-3.9,1.6-11.3,3.6-19.4-0.8c-7.7-4.6-12.6-13.7-15.6-22.8
									c-2.9-9.2-3.9-21.8,1.5-32.9c2.6-5.6,7.2-10.7,12.9-13.7c5.5-3.5,12.8-3.6,16.8-3.7c12.7-0.3,22.2,6.9,26.4,14.2
									c4.5,7,5.4,13.5,5.9,17.9s0.1,6.9,0.1,6.9l-1.8,0.3c0,0-1.1-2.1-3-5.7c-2-3.5-5.2-8.4-9.7-12.4s-10.8-5.8-16.1-5
									c-8.6,1.3-11.2,4.6-15.4,10c-3.6,5.7-5.2,13.2-4,21.1c0.7,8,3.1,14.9,7,18.9c3.8,4.1,9.5,4.7,13.4,4.2s6.1-1.4,6.1-1.4
									L-38.1-503.2z"/>
							</g>
						</g>
						<g>
							<g>
								<path class="st3" d="M-38.1-440.5c0,0-1.9,1.6-6,3.4c-3.9,1.6-11.3,3.6-19.4-0.8c-7.7-4.6-12.6-13.7-15.6-22.8
									c-2.9-9.2-3.9-21.8,1.5-32.9c2.6-5.6,7.2-10.7,12.9-13.7c5.5-3.5,12.8-3.6,16.8-3.7c12.7-0.3,22.2,6.9,26.4,14.2
									c4.5,7,5.4,13.6,5.9,17.9c0.5,4.4,0.1,6.9,0.1,6.9l-1.8,0.3c0,0-1.1-2.1-3-5.7c-2-3.5-5.2-8.4-9.7-12.4
									c-4.5-3.9-10.8-5.8-16.1-5c-8.6,1.3-11.2,4.6-15.4,10c-3.6,5.7-5.2,13.2-4,21.1c0.7,8.1,3.1,14.9,7,18.9
									c3.8,4,9.5,4.7,13.4,4.2S-39-442-39-442L-38.1-440.5z"/>
							</g>
						</g>
						<g>
							<g>
								<path class="st3" d="M-38.1-377.7c0,0-1.9,1.6-6,3.4c-3.9,1.6-11.3,3.6-19.4-0.8c-7.7-4.6-12.6-13.7-15.6-22.8
									c-2.9-9.2-3.9-21.8,1.5-32.9c2.6-5.6,7.2-10.7,12.9-13.7c5.5-3.5,12.8-3.6,16.8-3.7c12.7-0.3,22.2,6.9,26.4,14.2
									c4.5,7,5.4,13.5,5.9,17.9s0.1,6.9,0.1,6.9l-1.8,0.3c0,0-1.1-2.1-3-5.7c-2-3.4-5.2-8.4-9.7-12.4c-4.5-3.9-10.8-5.8-16.1-5
									c-8.6,1.3-11.2,4.6-15.4,10c-3.6,5.7-5.2,13.2-4,21.1c0.7,8.1,3.1,14.9,7,18.9c3.8,4,9.5,4.7,13.4,4.2s6.1-1.4,6.1-1.4
									L-38.1-377.7z"/>
							</g>
						</g>
						<g>
							<g>
								<path class="st3" d="M-38.1-314.9c0,0-1.9,1.6-6,3.4c-3.9,1.6-11.3,3.6-19.4-0.8c-7.7-4.6-12.6-13.7-15.6-22.8
									c-2.9-9.2-3.9-21.8,1.5-32.9c2.6-5.6,7.2-10.7,12.9-13.7c5.5-3.5,12.8-3.6,16.8-3.7c12.7-0.3,22.2,6.9,26.4,14.2
									c4.5,7,5.4,13.5,5.9,17.9s0.1,6.9,0.1,6.9l-1.8,0.3c0,0-1.1-2.1-3-5.7c-2-3.5-5.2-8.4-9.7-12.4c-4.5-3.9-10.8-5.8-16.1-5
									c-8.6,1.3-11.2,4.6-15.4,10c-3.6,5.7-5.2,13.3-4,21.1c0.7,8.1,3.1,14.9,7,18.9c3.8,4,9.5,4.7,13.4,4.2s6.1-1.4,6.1-1.4
									L-38.1-314.9z"/>
							</g>
						</g>
						<g>
							<g>
								<path class="st3" d="M-38.1-754.3c0,0-1.9,1.6-6,3.4c-3.9,1.6-11.3,3.6-19.4-0.8c-7.7-4.6-12.6-13.7-15.6-22.8
									c-2.9-9.2-3.9-21.8,1.5-32.9c2.6-5.6,7.2-10.7,12.9-13.7c5.5-3.5,12.8-3.6,16.8-3.7c12.7-0.3,22.2,6.9,26.4,14.2
									c4.5,7,5.4,13.5,5.9,17.9s0.1,6.9,0.1,6.9l-1.8,0.3c0,0-1.1-2.1-3-5.7c-2-3.5-5.2-8.4-9.7-12.4s-10.8-5.8-16.1-5
									c-8.6,1.3-11.2,4.6-15.4,10c-3.6,5.7-5.2,13.2-4,21.1c0.7,8,3.1,14.9,7,18.9c3.8,4.1,9.5,4.7,13.4,4.2s6.1-1.4,6.1-1.4
									L-38.1-754.3z"/>
							</g>
						</g>
						<g>
							<g>
								<path class="st3" d="M-38.1-691.5c0,0-1.9,1.6-6,3.4c-3.9,1.6-11.3,3.6-19.4-0.8c-7.7-4.6-12.6-13.7-15.6-22.8
									c-2.9-9.2-3.9-21.8,1.5-32.9c2.6-5.6,7.2-10.7,12.9-13.7c5.5-3.5,12.8-3.6,16.8-3.7c12.7-0.3,22.2,6.9,26.4,14.2
									c4.5,7,5.4,13.6,5.9,17.9c0.5,4.4,0.1,6.9,0.1,6.9l-1.8,0.3c0,0-1.1-2.1-3-5.7c-2-3.5-5.2-8.4-9.7-12.4
									c-4.5-3.9-10.8-5.8-16.1-5c-8.6,1.3-11.2,4.6-15.4,10c-3.6,5.7-5.2,13.2-4,21.1c0.7,8.1,3.1,14.9,7,18.9
									c3.8,4,9.5,4.7,13.4,4.2S-39-693-39-693L-38.1-691.5z"/>
							</g>
						</g>
						<g>
							<g>
								<path class="st3" d="M-38.1-628.8c0,0-1.9,1.6-6,3.4c-3.9,1.6-11.3,3.6-19.4-0.8c-7.7-4.6-12.6-13.7-15.6-22.8
									c-2.9-9.2-3.9-21.8,1.5-32.9c2.6-5.6,7.2-10.7,12.9-13.7c5.5-3.5,12.8-3.6,16.8-3.7c12.7-0.3,22.2,6.9,26.4,14.2
									c4.5,7,5.4,13.5,5.9,17.9s0.1,6.9,0.1,6.9l-1.8,0.3c0,0-1.1-2.1-3-5.7c-2-3.4-5.2-8.4-9.7-12.4c-4.5-3.9-10.8-5.8-16.1-5
									c-8.6,1.3-11.2,4.6-15.4,10c-3.6,5.7-5.2,13.2-4,21.1c0.7,8.1,3.1,14.9,7,18.9c3.8,4,9.5,4.7,13.4,4.2s6.1-1.4,6.1-1.4
									L-38.1-628.8z"/>
							</g>
						</g>
						<g>
							<g>
								<path class="st3" d="M-38.1-566c0,0-1.9,1.6-6,3.4c-3.9,1.6-11.3,3.6-19.4-0.8c-7.7-4.6-12.6-13.7-15.6-22.8
									c-2.9-9.2-3.9-21.8,1.5-32.9c2.6-5.6,7.2-10.7,12.9-13.7c5.5-3.5,12.8-3.6,16.8-3.7c12.7-0.3,22.2,6.9,26.4,14.2
									c4.5,7,5.4,13.5,5.9,17.9s0.1,6.9,0.1,6.9l-1.8,0.3c0,0-1.1-2.1-3-5.7c-2-3.5-5.2-8.4-9.7-12.4c-4.5-3.9-10.8-5.8-16.1-5
									c-8.6,1.3-11.2,4.6-15.4,10c-3.6,5.7-5.2,13.3-4,21.1c0.7,8.1,3.1,14.9,7,18.9c3.8,4,9.5,4.7,13.4,4.2s6.1-1.4,6.1-1.4
									L-38.1-566z"/>
							</g>
						</g>
						<g>
							<g>
								<path class="st3" d="M-38.1-1005.4c0,0-1.9,1.6-6,3.4c-3.9,1.6-11.3,3.6-19.4-0.8c-7.7-4.6-12.6-13.7-15.6-22.8
									c-2.9-9.2-3.9-21.8,1.5-32.9c2.6-5.6,7.2-10.7,12.9-13.7c5.5-3.5,12.8-3.6,16.8-3.7c12.7-0.3,22.2,6.9,26.4,14.2
									c4.5,7,5.4,13.5,5.9,17.9s0.1,6.9,0.1,6.9l-1.8,0.3c0,0-1.1-2.1-3-5.7c-2-3.5-5.2-8.4-9.7-12.4s-10.8-5.8-16.1-5
									c-8.6,1.3-11.2,4.6-15.4,10c-3.6,5.7-5.2,13.2-4,21.1c0.7,8,3.1,14.9,7,18.9c3.8,4.1,9.5,4.7,13.4,4.2s6.1-1.4,6.1-1.4
									L-38.1-1005.4z"/>
							</g>
						</g>
						<g>
							<g>
								<path class="st3" d="M-38.1-942.6c0,0-1.9,1.6-6,3.4c-3.9,1.6-11.3,3.6-19.4-0.8c-7.7-4.6-12.6-13.7-15.6-22.8
									c-2.9-9.2-3.9-21.8,1.5-32.9c2.6-5.6,7.2-10.7,12.9-13.7c5.5-3.5,12.8-3.6,16.8-3.7c12.7-0.3,22.2,6.9,26.4,14.2
									c4.5,7,5.4,13.6,5.9,17.9c0.5,4.4,0.1,6.9,0.1,6.9l-1.8,0.3c0,0-1.1-2.1-3-5.7c-2-3.5-5.2-8.4-9.7-12.4
									c-4.5-3.9-10.8-5.8-16.1-5c-8.6,1.3-11.2,4.6-15.4,10c-3.6,5.7-5.2,13.2-4,21.1c0.7,8.1,3.1,14.9,7,18.9
									c3.8,4,9.5,4.7,13.4,4.2s6.1-1.4,6.1-1.4L-38.1-942.6z"/>
							</g>
						</g>
						<g>
							<g>
								<path class="st3" d="M-38.1-879.9c0,0-1.9,1.6-6,3.4c-3.9,1.6-11.3,3.6-19.4-0.8c-7.7-4.6-12.6-13.7-15.6-22.8
									c-2.9-9.2-3.9-21.8,1.5-32.9c2.6-5.6,7.2-10.7,12.9-13.7c5.5-3.5,12.8-3.6,16.8-3.7c12.7-0.3,22.2,6.9,26.4,14.2
									c4.5,7,5.4,13.5,5.9,17.9s0.1,6.9,0.1,6.9l-1.8,0.3c0,0-1.1-2.1-3-5.7c-2-3.4-5.2-8.4-9.7-12.4c-4.5-3.9-10.8-5.8-16.1-5
									c-8.6,1.3-11.2,4.6-15.4,10c-3.6,5.7-5.2,13.2-4,21.1c0.7,8.1,3.1,14.9,7,18.9c3.8,4,9.5,4.7,13.4,4.2s6.1-1.4,6.1-1.4
									L-38.1-879.9z"/>
							</g>
						</g>
						<g>
							<g>
								<path class="st3" d="M-38.1-817.1c0,0-1.9,1.6-6,3.4c-3.9,1.6-11.3,3.6-19.4-0.8c-7.7-4.6-12.6-13.7-15.6-22.8
									c-2.9-9.2-3.9-21.8,1.5-32.9c2.6-5.6,7.2-10.7,12.9-13.7c5.5-3.5,12.8-3.6,16.8-3.7c12.7-0.3,22.2,6.9,26.4,14.2
									c4.5,7,5.4,13.5,5.9,17.9s0.1,6.9,0.1,6.9l-1.8,0.3c0,0-1.1-2.1-3-5.7c-2-3.5-5.2-8.4-9.7-12.4c-4.5-3.9-10.8-5.8-16.1-5
									c-8.6,1.3-11.2,4.6-15.4,10c-3.6,5.7-5.2,13.3-4,21.1c0.7,8.1,3.1,14.9,7,18.9c3.8,4,9.5,4.7,13.4,4.2s6.1-1.4,6.1-1.4
									L-38.1-817.1z"/>
							</g>
						</g>
						<g>
							<g>
								<path class="st3" d="M-38.1-1256.5c0,0-1.9,1.6-6,3.4c-3.9,1.6-11.3,3.6-19.4-0.8c-7.7-4.6-12.6-13.7-15.6-22.8
									c-2.9-9.2-3.9-21.8,1.5-32.9c2.6-5.6,7.2-10.7,12.9-13.7c5.5-3.5,12.8-3.6,16.8-3.7c12.7-0.3,22.2,6.9,26.4,14.2
									c4.5,7,5.4,13.5,5.9,17.9s0.1,6.9,0.1,6.9l-1.8,0.3c0,0-1.1-2.1-3-5.7c-2-3.5-5.2-8.4-9.7-12.4s-10.8-5.8-16.1-5
									c-8.6,1.3-11.2,4.6-15.4,10c-3.6,5.7-5.2,13.2-4,21.1c0.7,8,3.1,14.9,7,18.9c3.8,4.1,9.5,4.7,13.4,4.2s6.1-1.4,6.1-1.4
									L-38.1-1256.5z"/>
							</g>
						</g>
						<g>
							<g>
								<path class="st3" d="M-38.1-1193.7c0,0-1.9,1.6-6,3.4c-3.9,1.6-11.3,3.6-19.4-0.8c-7.7-4.6-12.6-13.7-15.6-22.8
									c-2.9-9.2-3.9-21.8,1.5-32.9c2.6-5.6,7.2-10.7,12.9-13.7c5.5-3.5,12.8-3.6,16.8-3.7c12.7-0.3,22.2,6.9,26.4,14.2
									c4.5,7,5.4,13.6,5.9,17.9c0.5,4.4,0.1,6.9,0.1,6.9l-1.8,0.3c0,0-1.1-2.1-3-5.7c-2-3.5-5.2-8.4-9.7-12.4
									c-4.5-3.9-10.8-5.8-16.1-5c-8.6,1.3-11.2,4.6-15.4,10c-3.6,5.7-5.2,13.2-4,21.1c0.7,8.1,3.1,14.9,7,18.9
									c3.8,4,9.5,4.7,13.4,4.2s6.1-1.4,6.1-1.4L-38.1-1193.7z"/>
							</g>
						</g>
						<g>
							<g>
								<path class="st3" d="M-38.1-1130.9c0,0-1.9,1.6-6,3.4c-3.9,1.6-11.3,3.6-19.4-0.8c-7.7-4.6-12.6-13.7-15.6-22.8
									c-2.9-9.2-3.9-21.8,1.5-32.9c2.6-5.6,7.2-10.7,12.9-13.7c5.5-3.5,12.8-3.6,16.8-3.7c12.7-0.3,22.2,6.9,26.4,14.2
									c4.5,7,5.4,13.5,5.9,17.9s0.1,6.9,0.1,6.9l-1.8,0.3c0,0-1.1-2.1-3-5.7c-2-3.4-5.2-8.4-9.7-12.4c-4.5-3.9-10.8-5.8-16.1-5
									c-8.6,1.3-11.2,4.6-15.4,10c-3.6,5.7-5.2,13.2-4,21.1c0.7,8.1,3.1,14.9,7,18.9c3.8,4,9.5,4.7,13.4,4.2s6.1-1.4,6.1-1.4
									L-38.1-1130.9z"/>
							</g>
						</g>
						<g>
							<g>
								<path class="st3" d="M-38.1-1068.2c0,0-1.9,1.6-6,3.4c-3.9,1.6-11.3,3.6-19.4-0.8c-7.7-4.6-12.6-13.7-15.6-22.8
									c-2.9-9.2-3.9-21.8,1.5-32.9c2.6-5.6,7.2-10.7,12.9-13.7c5.5-3.5,12.8-3.6,16.8-3.7c12.7-0.3,22.2,6.9,26.4,14.2
									c4.5,7,5.4,13.5,5.9,17.9s0.1,6.9,0.1,6.9l-1.8,0.3c0,0-1.1-2.1-3-5.7c-2-3.5-5.2-8.4-9.7-12.4c-4.5-3.9-10.8-5.8-16.1-5
									c-8.6,1.3-11.2,4.6-15.4,10c-3.6,5.7-5.2,13.3-4,21.1c0.7,8.1,3.1,14.9,7,18.9c3.8,4,9.5,4.7,13.4,4.2s6.1-1.4,6.1-1.4
									L-38.1-1068.2z"/>
							</g>
						</g>
						<g>
							<g>
								<path class="st3" d="M-38.1-1507.6c0,0-1.9,1.6-6,3.4c-3.9,1.6-11.3,3.6-19.4-0.8c-7.7-4.6-12.6-13.7-15.6-22.8
									c-2.9-9.2-3.9-21.8,1.5-32.9c2.6-5.6,7.2-10.7,12.9-13.7c5.5-3.5,12.8-3.6,16.8-3.7c12.7-0.3,22.2,6.9,26.4,14.2
									c4.5,7,5.4,13.5,5.9,17.9s0.1,6.9,0.1,6.9l-1.8,0.3c0,0-1.1-2.1-3-5.7c-2-3.5-5.2-8.4-9.7-12.4c-4.5-3.9-10.8-5.8-16.1-5
									c-8.6,1.3-11.2,4.6-15.4,10c-3.6,5.7-5.2,13.2-4,21.1c0.7,8,3.1,14.9,7,18.9c3.8,4.1,9.5,4.7,13.4,4.2s6.1-1.4,6.1-1.4
									L-38.1-1507.6z"/>
							</g>
						</g>
						<g>
							<g>
								<path class="st3" d="M-38.1-1444.8c0,0-1.9,1.6-6,3.4c-3.9,1.6-11.3,3.6-19.4-0.8c-7.7-4.6-12.6-13.7-15.6-22.8
									c-2.9-9.2-3.9-21.8,1.5-32.9c2.6-5.6,7.2-10.7,12.9-13.7c5.5-3.5,12.8-3.6,16.8-3.7c12.7-0.3,22.2,6.9,26.4,14.2
									c4.5,7,5.4,13.6,5.9,17.9c0.5,4.4,0.1,6.9,0.1,6.9l-1.8,0.3c0,0-1.1-2.1-3-5.7c-2-3.5-5.2-8.4-9.7-12.4
									c-4.5-3.9-10.8-5.8-16.1-5c-8.6,1.3-11.2,4.6-15.4,10c-3.6,5.7-5.2,13.2-4,21.1c0.7,8.1,3.1,14.9,7,18.9
									c3.8,4,9.5,4.7,13.4,4.2s6.1-1.4,6.1-1.4L-38.1-1444.8z"/>
							</g>
						</g>
						<g>
							<g>
								<path class="st3" d="M-38.1-1382c0,0-1.9,1.6-6,3.4c-3.9,1.6-11.3,3.6-19.4-0.8c-7.7-4.6-12.6-13.7-15.6-22.8
									c-2.9-9.2-3.9-21.8,1.5-32.9c2.6-5.6,7.2-10.7,12.9-13.7c5.5-3.5,12.8-3.6,16.8-3.7c12.7-0.3,22.2,6.9,26.4,14.2
									c4.5,7,5.4,13.5,5.9,17.9s0.1,6.9,0.1,6.9l-1.8,0.3c0,0-1.1-2.1-3-5.7c-2-3.4-5.2-8.4-9.7-12.4c-4.5-3.9-10.8-5.8-16.1-5
									c-8.6,1.3-11.2,4.6-15.4,10c-3.6,5.7-5.2,13.2-4,21.1c0.7,8.1,3.1,14.9,7,18.9c3.8,4,9.5,4.7,13.4,4.2s6.1-1.4,6.1-1.4
									L-38.1-1382z"/>
							</g>
						</g>
						<g>
							<g>
								<path class="st3" d="M-38.1-1319.3c0,0-1.9,1.6-6,3.4c-3.9,1.6-11.3,3.6-19.4-0.8c-7.7-4.6-12.6-13.7-15.6-22.8
									c-2.9-9.2-3.9-21.8,1.5-32.9c2.6-5.6,7.2-10.7,12.9-13.7c5.5-3.5,12.8-3.6,16.8-3.7c12.7-0.3,22.2,6.9,26.4,14.2
									c4.5,7,5.4,13.5,5.9,17.9s0.1,6.9,0.1,6.9l-1.8,0.3c0,0-1.1-2.1-3-5.7c-2-3.5-5.2-8.4-9.7-12.4c-4.5-3.9-10.8-5.8-16.1-5
									c-8.6,1.3-11.2,4.6-15.4,10c-3.6,5.7-5.2,13.3-4,21.1c0.7,8.1,3.1,14.9,7,18.9c3.8,4,9.5,4.7,13.4,4.2s6.1-1.4,6.1-1.4
									L-38.1-1319.3z"/>
							</g>
						</g>
						<g>
							<g>
								<path class="st3" d="M-38.1-1758.7c0,0-1.9,1.6-6,3.4c-3.9,1.6-11.3,3.6-19.4-0.8c-7.7-4.6-12.6-13.7-15.6-22.8
									c-2.9-9.2-3.9-21.8,1.5-32.9c2.6-5.6,7.2-10.7,12.9-13.7c5.5-3.5,12.8-3.6,16.8-3.7c12.7-0.3,22.2,6.9,26.4,14.2
									c4.5,7,5.4,13.5,5.9,17.9s0.1,6.9,0.1,6.9l-1.8,0.3c0,0-1.1-2.1-3-5.7c-2-3.5-5.2-8.4-9.7-12.4c-4.5-3.9-10.8-5.8-16.1-5
									c-8.6,1.3-11.2,4.6-15.4,10c-3.6,5.7-5.2,13.2-4,21.1c0.7,8,3.1,14.9,7,18.9c3.8,4.1,9.5,4.7,13.4,4.2s6.1-1.4,6.1-1.4
									L-38.1-1758.7z"/>
							</g>
						</g>
						<g>
							<g>
								<path class="st3" d="M-38.1-1695.9c0,0-1.9,1.6-6,3.4c-3.9,1.6-11.3,3.6-19.4-0.8c-7.7-4.6-12.6-13.7-15.6-22.8
									c-2.9-9.2-3.9-21.8,1.5-32.9c2.6-5.6,7.2-10.7,12.9-13.7c5.5-3.5,12.8-3.6,16.8-3.7c12.7-0.3,22.2,6.9,26.4,14.2
									c4.5,7,5.4,13.6,5.9,17.9c0.5,4.4,0.1,6.9,0.1,6.9l-1.8,0.3c0,0-1.1-2.1-3-5.7c-2-3.5-5.2-8.4-9.7-12.4
									c-4.5-3.9-10.8-5.8-16.1-5c-8.6,1.3-11.2,4.6-15.4,10c-3.6,5.7-5.2,13.2-4,21.1c0.7,8.1,3.1,14.9,7,18.9
									c3.8,4,9.5,4.7,13.4,4.2s6.1-1.4,6.1-1.4L-38.1-1695.9z"/>
							</g>
						</g>
						<g>
							<g>
								<path class="st3" d="M-38.1-1633.1c0,0-1.9,1.6-6,3.4c-3.9,1.6-11.3,3.6-19.4-0.8c-7.7-4.6-12.6-13.7-15.6-22.8
									c-2.9-9.2-3.9-21.8,1.5-32.9c2.6-5.6,7.2-10.7,12.9-13.7c5.5-3.5,12.8-3.6,16.8-3.7c12.7-0.3,22.2,6.9,26.4,14.2
									c4.5,7,5.4,13.5,5.9,17.9s0.1,6.9,0.1,6.9l-1.8,0.3c0,0-1.1-2.1-3-5.7c-2-3.4-5.2-8.4-9.7-12.4c-4.5-3.9-10.8-5.8-16.1-5
									c-8.6,1.3-11.2,4.6-15.4,10c-3.6,5.7-5.2,13.2-4,21.1c0.7,8.1,3.1,14.9,7,18.9c3.8,4,9.5,4.7,13.4,4.2s6.1-1.4,6.1-1.4
									L-38.1-1633.1z"/>
							</g>
						</g>
						<g>
							<g>
								<path class="st3" d="M-38.1-1570.3c0,0-1.9,1.6-6,3.4c-3.9,1.6-11.3,3.6-19.4-0.8c-7.7-4.6-12.6-13.7-15.6-22.8
									c-2.9-9.2-3.9-21.8,1.5-32.9c2.6-5.6,7.2-10.7,12.9-13.7c5.5-3.5,12.8-3.6,16.8-3.7c12.7-0.3,22.2,6.9,26.4,14.2
									c4.5,7,5.4,13.5,5.9,17.9s0.1,6.9,0.1,6.9l-1.8,0.3c0,0-1.1-2.1-3-5.7c-2-3.5-5.2-8.4-9.7-12.4c-4.5-3.9-10.8-5.8-16.1-5
									c-8.6,1.3-11.2,4.6-15.4,10c-3.6,5.7-5.2,13.2-4,21.1c0.7,8.1,3.1,14.9,7,18.9c3.8,4,9.5,4.7,13.4,4.2s6.1-1.4,6.1-1.4
									L-38.1-1570.3z"/>
							</g>
						</g>
						<g>
							<g>
								<path class="st3" d="M-38.1-2009.7c0,0-1.9,1.6-6,3.4c-3.9,1.6-11.3,3.6-19.4-0.8c-7.7-4.6-12.6-13.7-15.6-22.8
									c-2.9-9.2-3.9-21.8,1.5-32.9c2.6-5.6,7.2-10.7,12.9-13.7c5.5-3.5,12.8-3.6,16.8-3.7c12.7-0.3,22.2,6.9,26.4,14.2
									c4.5,7,5.4,13.5,5.9,17.9s0.1,6.9,0.1,6.9l-1.8,0.3c0,0-1.1-2.1-3-5.7c-2-3.5-5.2-8.4-9.7-12.4c-4.5-3.9-10.8-5.8-16.1-5
									c-8.6,1.3-11.2,4.6-15.4,10c-3.6,5.7-5.2,13.2-4,21.1c0.7,8,3.1,14.9,7,18.9c3.8,4.1,9.5,4.7,13.4,4.2s6.1-1.4,6.1-1.4
									L-38.1-2009.7z"/>
							</g>
						</g>
						<g>
							<g>
								<path class="st3" d="M-38.1-1947c0,0-1.9,1.6-6,3.4c-3.9,1.6-11.3,3.6-19.4-0.8c-7.7-4.6-12.6-13.7-15.6-22.8
									c-2.9-9.2-3.9-21.8,1.5-32.9c2.6-5.6,7.2-10.7,12.9-13.7c5.5-3.5,12.8-3.6,16.8-3.7c12.7-0.3,22.2,6.9,26.4,14.2
									c4.5,7,5.4,13.6,5.9,17.9c0.5,4.4,0.1,6.9,0.1,6.9l-1.8,0.3c0,0-1.1-2.1-3-5.7c-2-3.5-5.2-8.4-9.7-12.4
									c-4.5-3.9-10.8-5.8-16.1-5c-8.6,1.3-11.2,4.6-15.4,10c-3.6,5.7-5.2,13.2-4,21.1c0.7,8.1,3.1,14.9,7,18.9
									c3.8,4.1,9.5,4.7,13.4,4.2s6.1-1.4,6.1-1.4L-38.1-1947z"/>
							</g>
						</g>
						<g>
							<g>
								<path class="st3" d="M-38.1-1884.2c0,0-1.9,1.6-6,3.4c-3.9,1.6-11.3,3.6-19.4-0.8c-7.7-4.6-12.6-13.7-15.6-22.8
									c-2.9-9.2-3.9-21.8,1.5-32.9c2.6-5.6,7.2-10.7,12.9-13.7c5.5-3.5,12.8-3.6,16.8-3.7c12.7-0.3,22.2,6.9,26.4,14.2
									c4.5,7,5.4,13.6,5.9,17.9c0.5,4.4,0.1,6.9,0.1,6.9l-1.8,0.3c0,0-1.1-2.1-3-5.7c-2-3.4-5.2-8.4-9.7-12.4
									c-4.5-3.9-10.8-5.8-16.1-5c-8.6,1.3-11.2,4.6-15.4,10c-3.6,5.7-5.2,13.2-4,21.1c0.7,8.1,3.1,14.9,7,18.9
									c3.8,4,9.5,4.7,13.4,4.2s6.1-1.4,6.1-1.4L-38.1-1884.2z"/>
							</g>
						</g>
						<g>
							<g>
								<path class="st3" d="M-38.1-1821.4c0,0-1.9,1.6-6,3.4c-3.9,1.6-11.3,3.6-19.4-0.8c-7.7-4.6-12.6-13.7-15.6-22.8
									c-2.9-9.2-3.9-21.8,1.5-32.9c2.6-5.6,7.2-10.7,12.9-13.7c5.5-3.5,12.8-3.6,16.8-3.7c12.7-0.3,22.2,6.9,26.4,14.2
									c4.5,7,5.4,13.5,5.9,17.9s0.1,6.9,0.1,6.9l-1.8,0.3c0,0-1.1-2.1-3-5.7c-2-3.5-5.2-8.4-9.7-12.4c-4.5-3.9-10.8-5.8-16.1-5
									c-8.6,1.3-11.2,4.6-15.4,10c-3.6,5.7-5.2,13.2-4,21.1c0.7,8.1,3.1,14.9,7,18.9c3.8,4,9.5,4.7,13.4,4.2s6.1-1.4,6.1-1.4
									L-38.1-1821.4z"/>
							</g>
						</g>
						<g>
							<g>
								<path class="st3" d="M-38.1-2260.8c0,0-1.9,1.6-6,3.4c-3.9,1.6-11.3,3.6-19.4-0.8c-7.7-4.6-12.6-13.7-15.6-22.8
									c-2.9-9.2-3.9-21.8,1.5-32.9c2.6-5.6,7.2-10.7,12.9-13.7c5.5-3.5,12.8-3.6,16.8-3.7c12.7-0.3,22.2,6.9,26.4,14.2
									c4.5,7,5.4,13.5,5.9,17.9s0.1,6.9,0.1,6.9l-1.8,0.3c0,0-1.1-2.1-3-5.7c-2-3.5-5.2-8.4-9.7-12.4c-4.5-3.9-10.8-5.8-16.1-5
									c-8.6,1.3-11.2,4.6-15.4,10c-3.6,5.7-5.2,13.2-4,21.1c0.7,8,3.1,14.9,7,18.9c3.8,4.1,9.5,4.7,13.4,4.2s6.1-1.4,6.1-1.4
									L-38.1-2260.8z"/>
							</g>
						</g>
						<g>
							<g>
								<path class="st3" d="M-38.1-2198.1c0,0-1.9,1.6-6,3.4c-3.9,1.6-11.3,3.6-19.4-0.8c-7.7-4.6-12.6-13.7-15.6-22.8
									c-2.9-9.2-3.9-21.8,1.5-32.9c2.6-5.6,7.2-10.7,12.9-13.7c5.5-3.5,12.8-3.6,16.8-3.7c12.7-0.3,22.2,6.9,26.4,14.2
									c4.5,7,5.4,13.6,5.9,17.9c0.5,4.4,0.1,6.9,0.1,6.9l-1.8,0.3c0,0-1.1-2.1-3-5.7c-2-3.5-5.2-8.4-9.7-12.4
									c-4.5-3.9-10.8-5.8-16.1-5c-8.6,1.3-11.2,4.6-15.4,10c-3.6,5.7-5.2,13.2-4,21.1c0.7,8.1,3.1,14.9,7,18.9
									c3.8,4.1,9.5,4.7,13.4,4.2s6.1-1.4,6.1-1.4L-38.1-2198.1z"/>
							</g>
						</g>
						<g>
							<g>
								<path class="st3" d="M-38.1-2135.3c0,0-1.9,1.6-6,3.4c-3.9,1.6-11.3,3.6-19.4-0.8c-7.7-4.6-12.6-13.7-15.6-22.8
									c-2.9-9.2-3.9-21.8,1.5-32.9c2.6-5.6,7.2-10.7,12.9-13.7c5.5-3.5,12.8-3.6,16.8-3.7c12.7-0.3,22.2,6.9,26.4,14.2
									c4.5,7,5.4,13.6,5.9,17.9c0.5,4.4,0.1,6.9,0.1,6.9l-1.8,0.3c0,0-1.1-2.1-3-5.7c-2-3.4-5.2-8.4-9.7-12.4
									c-4.5-3.9-10.8-5.8-16.1-5c-8.6,1.3-11.2,4.6-15.4,10c-3.6,5.7-5.2,13.2-4,21.1c0.7,8.1,3.1,14.9,7,18.9
									c3.8,4,9.5,4.7,13.4,4.2s6.1-1.4,6.1-1.4L-38.1-2135.3z"/>
							</g>
						</g>
						<g>
							<g>
								<path class="st3" d="M-38.1-2072.5c0,0-1.9,1.6-6,3.4c-3.9,1.6-11.3,3.6-19.4-0.8c-7.7-4.6-12.6-13.7-15.6-22.8
									c-2.9-9.2-3.9-21.8,1.5-32.9c2.6-5.6,7.2-10.7,12.9-13.7c5.5-3.5,12.8-3.6,16.8-3.7c12.7-0.3,22.2,6.9,26.4,14.2
									c4.5,7,5.4,13.5,5.9,17.9s0.1,6.9,0.1,6.9l-1.8,0.3c0,0-1.1-2.1-3-5.7c-2-3.5-5.2-8.4-9.7-12.4c-4.5-3.9-10.8-5.8-16.1-5
									c-8.6,1.3-11.2,4.6-15.4,10c-3.6,5.7-5.2,13.2-4,21.1c0.7,8.1,3.1,14.9,7,18.9c3.8,4,9.5,4.7,13.4,4.2s6.1-1.4,6.1-1.4
									L-38.1-2072.5z"/>
							</g>
						</g>
						<g>
							<g>
								<path class="st3" d="M-38.1-2449.1c0,0-1.9,1.6-6,3.4c-3.9,1.6-11.3,3.6-19.4-0.8c-7.7-4.6-12.6-13.7-15.6-22.8
									c-2.9-9.2-3.9-21.8,1.5-32.9c2.6-5.6,7.2-10.7,12.9-13.7c5.5-3.5,12.8-3.6,16.8-3.7c12.7-0.3,22.2,6.9,26.4,14.2
									c4.5,7,5.4,13.6,5.9,17.9c0.5,4.4,0.1,6.9,0.1,6.9l-1.8,0.3c0,0-1.1-2.1-3-5.7c-2-3.5-5.2-8.4-9.7-12.4s-10.8-5.8-16.1-5
									c-8.6,1.3-11.2,4.6-15.4,10c-3.6,5.7-5.2,13.2-4,21.1c0.7,8.1,3.1,14.9,7,18.9c3.8,4.1,9.5,4.7,13.4,4.2s6.1-1.4,6.1-1.4
									L-38.1-2449.1z"/>
							</g>
						</g>
						<g>
							<g>
								<path class="st3" d="M-38.1-2386.4c0,0-1.9,1.6-6,3.4c-3.9,1.6-11.3,3.6-19.4-0.8c-7.7-4.6-12.6-13.7-15.6-22.8
									c-2.9-9.2-3.9-21.8,1.5-32.9c2.6-5.6,7.2-10.7,12.9-13.7c5.5-3.5,12.8-3.6,16.8-3.7c12.7-0.3,22.2,6.9,26.4,14.2
									c4.5,7,5.4,13.6,5.9,17.9c0.5,4.4,0.1,6.9,0.1,6.9l-1.8,0.3c0,0-1.1-2.1-3-5.7c-2-3.4-5.2-8.4-9.7-12.4
									c-4.5-3.9-10.8-5.8-16.1-5c-8.6,1.3-11.2,4.6-15.4,10c-3.6,5.7-5.2,13.2-4,21.1c0.7,8.1,3.1,14.9,7,18.9
									c3.8,4,9.5,4.7,13.4,4.2s6.1-1.4,6.1-1.4L-38.1-2386.4z"/>
							</g>
						</g>
						<g>
							<g>
								<path class="st3" d="M-38.1-2323.6c0,0-1.9,1.6-6,3.4c-3.9,1.6-11.3,3.6-19.4-0.8c-7.7-4.6-12.6-13.7-15.6-22.8
									c-2.9-9.2-3.9-21.8,1.5-32.9c2.6-5.6,7.2-10.7,12.9-13.7c5.5-3.5,12.8-3.6,16.8-3.7c12.7-0.3,22.2,6.9,26.4,14.2
									c4.5,7,5.4,13.5,5.9,17.9s0.1,6.9,0.1,6.9l-1.8,0.3c0,0-1.1-2.1-3-5.7c-2-3.5-5.2-8.4-9.7-12.4c-4.5-3.9-10.8-5.8-16.1-5
									c-8.6,1.3-11.2,4.6-15.4,10c-3.6,5.7-5.2,13.2-4,21.1c0.7,8.1,3.1,14.9,7,18.9c3.8,4,9.5,4.7,13.4,4.2s6.1-1.4,6.1-1.4
									L-38.1-2323.6z"/>
							</g>
						</g>
					</g>
				</g>
			</g>
			<g class="st1">
				<g>
					<defs>
						<circle id="SVGID_6_" cx="-49" cy="150" r="150"/>
					</defs>
					<clipPath id="SVGID_7_">
						<use xlink:href="#SVGID_6_"  style="overflow:visible;"/>
					</clipPath>
					<g class="st4">
						<g>
							<g>
								<defs>
									<circle id="SVGID_8_" cx="-49" cy="150" r="150"/>
								</defs>
								<clipPath id="SVGID_9_">
									<use xlink:href="#SVGID_8_"  style="overflow:visible;"/>
								</clipPath>
								<g class="st5">
									<path class="st6" d="M-49,295c-38.7,0-75.1-15.1-102.5-42.5S-194,188.7-194,150s15.1-75.1,42.5-102.5S-87.7,5-49,5
										S26.1,20.1,53.5,47.5S96,111.3,96,150c0,38.7-15.1,75.1-42.5,102.5S-10.3,295-49,295 M-49,300c82.8,0,150-67.2,150-150
										C101,67.2,33.8,0-49,0s-150,67.2-150,150S-131.8,300-49,300L-49,300z"/>
								</g>
							</g>
						</g>
					</g>
				</g>
			</g>
		</g>
	</g>
</g>
</svg>
