<?xml version="1.0" encoding="utf-8"?>
<!-- Generator: Adobe Illustrator 19.0.0, SVG Export Plug-In . SVG Version: 6.00 Build 0)  -->
<svg version="1.1" id="Layer_1" xmlns="http://www.w3.org/2000/svg" xmlns:xlink="http://www.w3.org/1999/xlink" x="0px" y="0px"
	 viewBox="-199 0 300 300" style="enable-background:new -199 0 300 300;" xml:space="preserve">
<style type="text/css">
	.st0{fill:#DDDDDD;}
	.st1{clip-path:url(#SVGID_3_);}
	.st2{clip-path:url(#SVGID_4_);}
	.st3{clip-path:url(#SVGID_5_);}
	.st4{fill:#404041;}
	.st5{clip-path:url(#SVGID_7_);}
	.st6{clip-path:url(#SVGID_11_);}
	.st7{fill:#9AA0BB;}
</style>
<g>
	<g>
		<circle id="SVGID_1_" class="st0" cx="-48.9" cy="150" r="150"/>
	</g>
	<g>
		<defs>
			<circle id="SVGID_2_" cx="-48.9" cy="150" r="150"/>
		</defs>
		<clipPath id="SVGID_3_">
			<use xlink:href="#SVGID_2_"  style="overflow:visible;"/>
		</clipPath>
		<g class="st1">
			<defs>
				<rect id="SVGID_57_" x="-99" y="-387.7" width="102" height="1075.5"/>
			</defs>
			<clipPath id="SVGID_4_">
				<use xlink:href="#SVGID_57_"  style="overflow:visible;"/>
			</clipPath>
			<g class="st2">
				<defs>
					<rect id="SVGID_59_" x="-99.1" y="-139.2" width="101" height="578.4"/>
				</defs>
				<clipPath id="SVGID_5_">
					<use xlink:href="#SVGID_59_"  style="overflow:visible;"/>
				</clipPath>
				<g class="st3">
					<g>
						<g>
							<path class="st4" d="M-47.3,1225h-2V-444.3c0-54.5,8.3-111.9,8.4-112.5l2,0.3c-0.1,0.6-8.4,57.8-8.4,112.2V1225z"/>
						</g>
					</g>
					<g>
						<g>
							<path class="st4" d="M-71.8,1225h-2V-412.2c0-69,9.7-143.8,9.8-144.5l2,0.3c-0.1,0.7-9.8,75.4-9.8,144.2V1225z"/>
						</g>
					</g>
					<g>
						<g>
							<path class="st4" d="M-59.6,1225h-2V-414.6c0-74.6,8.3-141.5,8.4-142.2l2,0.3c-0.1,0.7-8.4,67.5-8.4,141.9V1225z"/>
						</g>
					</g>
					<g>
						<g>
							<path class="st4" d="M-35.1,1225h-2V-457.9c0-57.4,10.2-102.8,10.3-103.3l2,0.5c-0.1,0.5-10.3,45.7-10.3,102.8V1225z"/>
						</g>
					</g>
					<g>
						<g>
							<path class="st4" d="M-22.9,1225h-2V-465.9c0-48.5,10.7-96.8,10.8-97.3l2,0.4c-0.1,0.5-10.7,48.5-10.7,96.8V1225z"/>
						</g>
					</g>
					<g>
						<g>
							<path class="st4" d="M-10.6,1225h-2V-485.7c0-47.2,9.8-82.8,9.9-83.2l2,0.5c-0.1,0.4-9.8,35.8-9.8,82.6V1225z"/>
						</g>
					</g>
					<g>
						<g>
							<rect x="-0.4" y="-556.6" class="st4" width="2" height="1781.6"/>
						</g>
					</g>
					<g>
						<g>
							<rect x="-86.1" y="-556.6" class="st4" width="2" height="1781.6"/>
						</g>
					</g>
				</g>
				<g class="st3">
					<g>
						<rect x="-0.4" y="-582.6" class="st4" width="2" height="1803.2"/>
					</g>
				</g>
				<g class="st3">
					<g>
						<rect x="-98.7" y="-582.6" class="st4" width="2" height="1803.2"/>
					</g>
				</g>
			</g>
		</g>
	</g>
	<g>
		<defs>
			<circle id="SVGID_6_" cx="-48.9" cy="150" r="150"/>
		</defs>
		<clipPath id="SVGID_7_">
			<use xlink:href="#SVGID_6_"  style="overflow:visible;"/>
		</clipPath>
		<g class="st5">
			<g>
				<defs>
					<circle id="SVGID_8_" cx="-48.9" cy="150" r="150"/>
				</defs>
				<clipPath id="SVGID_9_">
					<use xlink:href="#SVGID_8_"  style="overflow:visible;"/>
				</clipPath>
			</g>
			<g>
				<defs>
					<circle id="SVGID_10_" cx="-48.9" cy="150" r="150"/>
				</defs>
				<clipPath id="SVGID_11_">
					<use xlink:href="#SVGID_10_"  style="overflow:visible;"/>
				</clipPath>
				<g class="st6">
					<path class="st7" d="M-48.9,5c38.7,0,75.1,15.1,102.5,42.5S96.1,111.3,96.1,150S81,225.1,53.6,252.5S-10.2,295-48.9,295
						s-75.1-15.1-102.5-42.5s-42.5-63.8-42.5-102.5s15.1-75.1,42.5-102.5S-87.6,5-48.9,5 M-48.9,0c-82.8,0-150,67.2-150,150
						s67.2,150,150,150s150-67.2,150-150S33.9,0-48.9,0L-48.9,0z"/>
				</g>
			</g>
		</g>
	</g>
</g>
</svg>
