<?xml version="1.0" encoding="utf-8"?>
<!-- Generator: Adobe Illustrator 19.0.0, SVG Export Plug-In . SVG Version: 6.00 Build 0)  -->
<svg version="1.1" id="Layer_1" xmlns="http://www.w3.org/2000/svg" xmlns:xlink="http://www.w3.org/1999/xlink" x="0px" y="0px"
	 viewBox="-199 0 300 300" style="enable-background:new -199 0 300 300;" xml:space="preserve">
<style type="text/css">
	.st0{fill:#DDDDDD;}
	.st1{clip-path:url(#SVGID_3_);}
	.st2{clip-path:url(#SVGID_4_);}
	.st3{fill:#FFFFFF;stroke:#404041;stroke-miterlimit:10;}
	.st4{fill:#F1F1F2;}
	.st5{fill:#C5C7C9;}
	.st6{fill:#929497;}
	.st7{fill:#FFFFFF;}
	.st8{fill:#404041;}
	.st9{fill:none;}
	.st10{fill:#808184;}
	.st11{fill:none;stroke:#404041;stroke-miterlimit:10;}
	.st12{fill:none;stroke:#808184;stroke-width:0.5;stroke-miterlimit:10;stroke-dasharray:1,2;}
	.st13{fill:#DBDCDD;}
	.st14{fill:#D0D2D3;}
	.st15{fill:#6D6E70;}
	.st16{fill:#404041;stroke:#D0D2D3;stroke-width:0.5;stroke-miterlimit:10;}
	.st17{fill:#FFFFFF;stroke:#6D6E70;stroke-width:0.4;stroke-miterlimit:10;}
	.st18{fill:none;stroke:#6D6E70;stroke-width:0.1;stroke-miterlimit:10;}
	.st19{fill:#F1F1F2;stroke:#404041;stroke-miterlimit:10;}
	.st20{clip-path:url(#SVGID_5_);fill:#C5C7C9;}
	.st21{clip-path:url(#SVGID_5_);fill:#F1F1F2;}
	.st22{clip-path:url(#SVGID_5_);fill:#929497;}
	.st23{clip-path:url(#SVGID_6_);fill:#C5C7C9;}
	.st24{clip-path:url(#SVGID_6_);fill:#929497;}
	.st25{clip-path:url(#SVGID_6_);fill:#F1F1F2;}
	.st26{clip-path:url(#SVGID_8_);}
	.st27{clip-path:url(#SVGID_12_);}
	.st28{fill:#9AA0BB;}
</style>
<g>
	<g>
		<circle id="SVGID_1_" class="st0" cx="-48.9" cy="150" r="150"/>
	</g>
	<g>
		<defs>
			<circle id="SVGID_2_" cx="-48.9" cy="150" r="150"/>
		</defs>
		<clipPath id="SVGID_3_">
			<use xlink:href="#SVGID_2_"  style="overflow:visible;"/>
		</clipPath>
		<g class="st1">
			<g>
				<defs>
					<rect id="SVGID_17_" x="-199" y="-39.3" width="300" height="358.5"/>
				</defs>
				<clipPath id="SVGID_4_">
					<use xlink:href="#SVGID_17_"  style="overflow:visible;"/>
				</clipPath>
				<g class="st2">
					<path class="st3" d="M-109.1,266.3c-4.5-33-53.1-81.5-72.4-130.1l0.1-12.1c0,0-6.4,0.2-14.6,42.1
						c-5.2,26.6-18.6,106.9-33.7,270.1c-4.3,46.5-10.7,126.9-17.1,192.2c-6.5,66.6-6.2,122-6.2,122l88.1,6.8
						c0,0,14.1-67.1,19.2-116.1c4.4-41.9,8.9-83.3,15.7-151C-115.4,345-108.3,272-109.1,266.3z"/>
					<g>
						<polygon class="st4" points="-252,744.6 -163.1,750.9 -166.6,762.4 -252,756.3 						"/>
						<polygon class="st5" points="-252,747.8 -163.1,754.1 -166.6,765.6 -252,759.5 						"/>
					</g>
					<path class="st3" d="M-17.8,57.5c-3-0.6-48.6,20.4-81.5,33.8s-80.8,19.4-83,35.9s40.4,95,59.1,159.3
						c10.8,37.1,10.3,79.2,10,124.9c-0.7,103.9-8.4,191.1-12,236.4c-4.6,59.3-15,149.8-13.9,171.2c0.1,1.3-0.1,1.3,0,1.6
						c1.7,5.2,10.2,32.8,240.3,32.8V249.1l-13.6-30.7l-76.9-161H-17.8z"/>
					<rect x="-85" y="99.7" class="st4" width="13.7" height="240.7"/>
					<rect x="-45.4" y="99.7" class="st4" width="13.7" height="240.7"/>
					<rect x="-65.2" y="99.7" class="st6" width="13.7" height="240.7"/>
					<g id="XMLID_550_">
						<g id="XMLID_551_">
							<g id="XMLID_557_">
								<g>
									<path class="st7" d="M-221.6,752.9l-32.5-2.3c-1-0.1-1.9,0.7-2,1.7l-2.7,59.5c-0.1,1,0.7,1.9,1.7,2l31,2.3l0,0
										c-0.8,0-1.8-0.8-1.7-2l0,0l3-41.8C-224.8,771.7-221.3,752.9-221.6,752.9z"/>
								</g>
								<g>
									<path class="st8" d="M-259.1,811.8l2.7-59.5c0.1-1.2,1.1-2.1,2.3-2l32.5,2.3l0.2,0l0.1,0.1c0.2,0.2,0.2,1-2.5,15.5
										c-0.4,2.1-0.7,3.9-0.7,4.1l-3,41.8c0,0.5,0.2,0.9,0.4,1.1c0.3,0.3,0.6,0.5,1,0.5l1.6,0.8l-32.6-2.4
										C-258.3,814-259.2,813-259.1,811.8z M-228.2,814.1l3-41.8c0-0.2,0.2-1.5,0.7-4.2c0.8-4.4,2.4-13.3,2.5-14.9l-32.2-2.3
										c-0.8-0.1-1.6,0.6-1.6,1.4l-2.7,59.5c-0.1,0.8,0.6,1.6,1.4,1.6l29.4,2.2C-228,815.2-228.2,814.7-228.2,814.1z"/>
								</g>
							</g>
							<g id="XMLID_556_">
								<g>
									<path class="st7" d="M-163.4,757c1.6,0.1,2.8,1,2.7,2.1l-5.7,59.5c-0.1,1-1.4,1.8-2.9,1.7l-86.3-6.4
										c-1.6-0.1-2.8-1-2.7-2.1l2.7-59.5c0.1-1,1.4-1.8,2.9-1.7L-163.4,757z"/>
								</g>
								<path class="st9" d="M-161,759.1l-5.7,59.5c-0.1,0.8-0.8,1.5-1.6,1.4l-56.5-4.1l3.9-62.6l58.5,4.2
									C-161.6,757.5-161,758.2-161,759.1z"/>
								<path class="st8" d="M-168.4,820c0.8,0.1,1.6-0.6,1.6-1.4l5.7-59.5c0.1-0.8-0.6-1.6-1.4-1.6l-91.9-6.4l0-0.7l91.9,6.4
									c1.2,0.1,2.1,1.1,2,2.3l-5.7,59.5c-0.1,1.2-1.1,2.1-2.3,2l-88.8-6.6l0-0.7L-168.4,820z"/>
							</g>
							<g id="XMLID_555_">
								<g>
									<g>
										
											<rect x="-222.1" y="754.3" transform="matrix(-0.9975 -7.105730e-02 7.105730e-02 -0.9975 -496.846 1491.3381)" class="st10" width="0.3" height="0.3"/>
									</g>
								</g>
								<g>
									<g>
										<path class="st10" d="M-224.1,815l0.7,0l0,0.3l-0.7,0L-224.1,815z M-222.1,815.2l0.7,0l0,0.3l-0.7,0L-222.1,815.2z
											 M-220.2,815.3l0.7,0l0,0.3l-0.7,0L-220.2,815.3z M-218.2,815.4l0.7,0l0,0.3l-0.7,0L-218.2,815.4z M-216.3,815.6l0.7,0
											l0,0.3l-0.7,0L-216.3,815.6z M-214.3,815.7l0.7,0l0,0.3l-0.7,0L-214.3,815.7z M-212.4,815.9l0.7,0l0,0.3l-0.7,0
											L-212.4,815.9z M-210.4,816l0.7,0l0,0.3l-0.7,0L-210.4,816z M-208.4,816.1l0.7,0l0,0.3l-0.7,0L-208.4,816.1z
											 M-206.5,816.3l0.7,0l0,0.3l-0.7,0L-206.5,816.3z M-204.5,816.4l0.7,0l0,0.3l-0.7,0L-204.5,816.4z M-202.6,816.6l0.7,0
											l0,0.3l-0.7,0L-202.6,816.6z M-200.6,816.7l0.7,0l0,0.3l-0.7,0L-200.6,816.7z M-198.6,816.8l0.7,0l0,0.3l-0.7,0
											L-198.6,816.8z M-196.7,817l0.7,0l0,0.3l-0.7,0L-196.7,817z M-194.7,817.1l0.7,0l0,0.3l-0.7,0L-194.7,817.1z
											 M-192.8,817.3l0.7,0l0,0.3l-0.7,0L-192.8,817.3z M-190.8,817.4l0.7,0l0,0.3l-0.7,0L-190.8,817.4z M-190.3,817.5l0.7,0
											l0,0.3l-0.7,0L-190.3,817.5z M-188.4,817.7l0.7,0l0,0.3l-0.7,0L-188.4,817.7z M-186.4,817.8l0.7,0l0,0.3l-0.7,0
											L-186.4,817.8z M-184.5,818l0.7,0l0,0.3l-0.7,0L-184.5,818z M-182.5,818.1l0.7,0l0,0.3l-0.7,0L-182.5,818.1z
											 M-180.5,818.2l0.7,0l0,0.3l-0.7,0L-180.5,818.2z M-178.6,818.4l0.7,0l0,0.3l-0.7,0L-178.6,818.4z M-176.6,818.5l0.7,0
											l0,0.3l-0.7,0L-176.6,818.5z M-174.7,818.6l0.7,0l0,0.3l-0.7,0L-174.7,818.6z M-172.7,818.8l0.7,0l0,0.3l-0.7,0
											L-172.7,818.8z M-170.7,818.9l0.7,0l0,0.3l-0.7,0L-170.7,818.9z M-168.8,819.1l0.7,0l0,0.3l-0.7,0L-168.8,819.1z
											 M-226.1,814.8l0.3-0.2c0.1,0.1,0.3,0.2,0.4,0.3l-0.1,0.3C-225.7,815.2-225.9,815-226.1,814.8z"/>
									</g>
								</g>
								<g>
									<g>
										
											<rect x="-166.8" y="819.2" transform="matrix(-0.9975 -7.105730e-02 7.105730e-02 -0.9975 -391.1215 1624.854)" class="st10" width="0.3" height="0.3"/>
									</g>
								</g>
							</g>
							<g id="XMLID_554_">
								<g>
									<g>
										
											<rect x="-222.2" y="758.4" transform="matrix(-0.9975 -7.105730e-02 7.105730e-02 -0.9975 -497.4881 1499.4867)" class="st10" width="0.3" height="0.3"/>
									</g>
								</g>
								<g>
									<g>
										<path class="st10" d="M-220.6,758.5l0.7,0l0,0.3l-0.7,0L-220.6,758.5z M-218.6,758.7l0.7,0l0,0.3l-0.7,0L-218.6,758.7z
											 M-216.6,758.8l0.7,0l0,0.3l-0.7,0L-216.6,758.8z M-214.7,759l0.7,0l0,0.3l-0.7,0L-214.7,759z M-212.7,759.1l0.7,0l0,0.3
											l-0.7,0L-212.7,759.1z M-210.7,759.2l0.7,0l0,0.3l-0.7,0L-210.7,759.2z M-208.7,759.4l0.7,0l0,0.3l-0.7,0L-208.7,759.4z
											 M-206.7,759.5l0.7,0l0,0.3l-0.7,0L-206.7,759.5z M-204.8,759.7l0.7,0l0,0.3l-0.7,0L-204.8,759.7z M-202.8,759.8l0.7,0
											l0,0.3l-0.7,0L-202.8,759.8z M-200.8,759.9l0.7,0l0,0.3l-0.7,0L-200.8,759.9z M-198.8,760.1l0.7,0l0,0.3l-0.7,0
											L-198.8,760.1z M-196.9,760.2l0.7,0l0,0.3l-0.7,0L-196.9,760.2z M-194.9,760.4l0.7,0l0,0.3l-0.7,0L-194.9,760.4z
											 M-192.9,760.5l0.7,0l0,0.3l-0.7,0L-192.9,760.5z M-190.9,760.6l0.7,0l0,0.3l-0.7,0L-190.9,760.6z M-189,760.8l0.7,0
											l0,0.3l-0.7,0L-189,760.8z M-187,760.9l0.7,0l0,0.3l-0.7,0L-187,760.9z M-185,761.1l0.7,0l0,0.3l-0.7,0L-185,761.1z
											 M-183,761.2l0.7,0l0,0.3l-0.7,0L-183,761.2z M-181.1,761.3l0.7,0l0,0.3l-0.7,0L-181.1,761.3z M-179.1,761.5l0.7,0l0,0.3
											l-0.7,0L-179.1,761.5z M-177.1,761.6l0.7,0l0,0.3l-0.7,0L-177.1,761.6z M-175.1,761.8l0.7,0l0,0.3l-0.7,0L-175.1,761.8z
											 M-173.2,761.9l0.7,0l0,0.3l-0.7,0L-173.2,761.9z M-171.2,762.1l0.7,0l0,0.3l-0.7,0L-171.2,762.1z M-169.2,762.2l0.7,0
											l0,0.3l-0.7,0L-169.2,762.2z M-167.2,762.3l0.7,0l0,0.3l-0.7,0L-167.2,762.3z M-165.2,762.5l0.7,0l0,0.3l-0.7,0
											L-165.2,762.5z M-163.3,762.6l0.7,0l0,0.3l-0.7,0L-163.3,762.6z"/>
									</g>
								</g>
								<g>
									<g>
										<polygon class="st10" points="-161.3,763.1 -160.8,763.1 -160.8,762.6 -161.1,762.6 -161.1,762.8 -161.3,762.8 										
											"/>
									</g>
								</g>
								<g>
									<g>
										
											<rect x="-161" y="760.5" transform="matrix(-0.9975 -7.105730e-02 7.105730e-02 -0.9975 -375.3106 1508.2954)" class="st10" width="0.3" height="0.7"/>
									</g>
								</g>
								<g>
									<g>
										<polygon class="st10" points="-160.9,759 -160.5,759 -160.5,758.5 -161,758.5 -161,758.8 -160.9,758.9 										"/>
									</g>
								</g>
								<g>
									<g>
										<path class="st10" d="M-220.3,754.3l0.7,0l0,0.3l-0.7,0L-220.3,754.3z M-218.3,754.4l0.7,0l0,0.3l-0.7,0L-218.3,754.4z
											 M-216.3,754.6l0.7,0l0,0.3l-0.7,0L-216.3,754.6z M-214.3,754.7l0.7,0l0,0.3l-0.7,0L-214.3,754.7z M-212.4,754.9l0.7,0
											l0,0.3l-0.7,0L-212.4,754.9z M-210.4,755l0.7,0l0,0.3l-0.7,0L-210.4,755z M-208.4,755.1l0.7,0l0,0.3l-0.7,0L-208.4,755.1z
											 M-206.4,755.3l0.7,0l0,0.3l-0.7,0L-206.4,755.3z M-204.5,755.4l0.7,0l0,0.3l-0.7,0L-204.5,755.4z M-202.5,755.6l0.7,0
											l0,0.3l-0.7,0L-202.5,755.6z M-200.5,755.7l0.7,0l0,0.3l-0.7,0L-200.5,755.7z M-198.5,755.8l0.7,0l0,0.3l-0.7,0
											L-198.5,755.8z M-196.6,756l0.7,0l0,0.3l-0.7,0L-196.6,756z M-194.6,756.1l0.7,0l0,0.3l-0.7,0L-194.6,756.1z
											 M-192.6,756.3l0.7,0l0,0.3l-0.7,0L-192.6,756.3z M-190.6,756.4l0.7,0l0,0.3l-0.7,0L-190.6,756.4z M-188.7,756.5l0.7,0
											l0,0.3l-0.7,0L-188.7,756.5z M-186.7,756.7l0.7,0l0,0.3l-0.7,0L-186.7,756.7z M-184.7,756.8l0.7,0l0,0.3l-0.7,0
											L-184.7,756.8z M-182.7,757l0.7,0l0,0.3l-0.7,0L-182.7,757z M-180.8,757.1l0.7,0l0,0.3l-0.7,0L-180.8,757.1z
											 M-178.8,757.2l0.7,0l0,0.3l-0.7,0L-178.8,757.2z M-176.8,757.4l0.7,0l0,0.3l-0.7,0L-176.8,757.4z M-174.8,757.5l0.7,0
											l0,0.3l-0.7,0L-174.8,757.5z M-172.9,757.7l0.7,0l0,0.3l-0.7,0L-172.9,757.7z M-170.9,757.8l0.7,0l0,0.3l-0.7,0
											L-170.9,757.8z M-168.9,758l0.7,0l0,0.3l-0.7,0L-168.9,758z M-166.9,758.1l0.7,0l0,0.3l-0.7,0L-166.9,758.1z
											 M-164.9,758.2l0.7,0l0,0.3l-0.7,0L-164.9,758.2z M-163,758.4l0.7,0l0,0.3l-0.7,0L-163,758.4z"/>
									</g>
								</g>
								<g>
									<g>
										
											<rect x="-221.9" y="754.2" transform="matrix(-0.9975 -7.105730e-02 7.105730e-02 -0.9975 -496.5831 1491.0349)" class="st10" width="0.3" height="0.3"/>
									</g>
								</g>
							</g>
							<g id="XMLID_553_">
								<g>
									<g>
										
											<rect x="-256.3" y="756" transform="matrix(-0.9975 -7.105730e-02 7.105730e-02 -0.9975 -565.4381 1492.2104)" class="st10" width="0.3" height="0.3"/>
									</g>
								</g>
								<g>
									<g>
										<path class="st10" d="M-254.6,756.1l0.7,0l0,0.3l-0.7,0L-254.6,756.1z M-252.6,756.3l0.7,0l0,0.3l-0.7,0L-252.6,756.3z
											 M-250.6,756.4l0.7,0l0,0.3l-0.7,0L-250.6,756.4z M-248.6,756.5l0.7,0l0,0.3l-0.7,0L-248.6,756.5z M-246.5,756.7l0.7,0
											l0,0.3l-0.7,0L-246.5,756.7z M-244.5,756.8l0.7,0l0,0.3l-0.7,0L-244.5,756.8z M-242.5,757l0.7,0l0,0.3l-0.7,0L-242.5,757z
											 M-240.4,757.1l0.7,0l0,0.3l-0.7,0L-240.4,757.1z M-238.4,757.3l0.7,0l0,0.3l-0.7,0L-238.4,757.3z M-236.4,757.4l0.7,0
											l0,0.3l-0.7,0L-236.4,757.4z M-234.4,757.6l0.7,0l0,0.3l-0.7,0L-234.4,757.6z M-232.3,757.7l0.7,0l0,0.3l-0.7,0
											L-232.3,757.7z M-230.3,757.8l0.7,0l0,0.3l-0.7,0L-230.3,757.8z M-228.3,758l0.7,0l0,0.3l-0.7,0L-228.3,758z
											 M-226.2,758.1l0.7,0l0,0.3l-0.7,0L-226.2,758.1z"/>
									</g>
								</g>
								<g>
									<g>
										<polygon class="st10" points="-224.2,758.6 -223.7,758.6 -223.7,758.1 -224,758.1 -224,758.3 -224.2,758.3 										"/>
									</g>
								</g>
								<g>
									<g>
										<polygon class="st10" points="-223.8,754.5 -223.4,754.6 -223.4,754.1 -223.9,754 -223.9,754.4 -223.8,754.4 										
											"/>
									</g>
								</g>
								<g>
									<g>
										<path class="st10" d="M-254.3,751.9l0.7,0l0,0.3l-0.7,0L-254.3,751.9z M-252.3,752l0.7,0l0,0.3l-0.7,0L-252.3,752z
											 M-250.3,752.2l0.7,0l0,0.3l-0.7,0L-250.3,752.2z M-248.3,752.3l0.7,0l0,0.3l-0.7,0L-248.3,752.3z M-246.2,752.4l0.7,0
											l0,0.3l-0.7,0L-246.2,752.4z M-244.2,752.6l0.7,0l0,0.3l-0.7,0L-244.2,752.6z M-242.2,752.7l0.7,0l0,0.3l-0.7,0
											L-242.2,752.7z M-240.1,752.9l0.7,0l0,0.3l-0.7,0L-240.1,752.9z M-238.1,753l0.7,0l0,0.3l-0.7,0L-238.1,753z
											 M-236.1,753.2l0.7,0l0,0.3l-0.7,0L-236.1,753.2z M-234,753.3l0.7,0l0,0.3l-0.7,0L-234,753.3z M-232,753.5l0.7,0l0,0.3
											l-0.7,0L-232,753.5z M-230,753.6l0.7,0l0,0.3l-0.7,0L-230,753.6z M-228,753.7l0.7,0l0,0.3l-0.7,0L-228,753.7z
											 M-225.9,753.9l0.7,0l0,0.3l-0.7,0L-225.9,753.9z"/>
									</g>
								</g>
								<g>
									<g>
										
											<rect x="-256" y="751.8" transform="matrix(-0.9975 -7.105730e-02 7.105730e-02 -0.9975 -564.5332 1483.7587)" class="st10" width="0.3" height="0.3"/>
									</g>
								</g>
							</g>
							<g id="XMLID_552_">
								<g>
									<path class="st10" d="M-258.4,812.5l0.7,0l0,0.3l-0.7,0L-258.4,812.5z M-256.5,812.6l0.7,0l0,0.3l-0.7,0L-256.5,812.6z
										 M-254.5,812.7l0.7,0l0,0.3l-0.7,0L-254.5,812.7z M-252.5,812.9l0.7,0l0,0.3l-0.7,0L-252.5,812.9z M-250.6,813l0.7,0l0,0.3
										l-0.7,0L-250.6,813z M-248.6,813.2l0.7,0l0,0.3l-0.7,0L-248.6,813.2z M-246.6,813.3l0.7,0l0,0.3l-0.7,0L-246.6,813.3z
										 M-244.6,813.5l0.7,0l0,0.3l-0.7,0L-244.6,813.5z M-242.7,813.6l0.7,0l0,0.3l-0.7,0L-242.7,813.6z M-240.7,813.7l-0.8,0
										l0,0.3l0.8,0L-240.7,813.7z M-240.2,813.9l0.7,0l0,0.3l-0.7,0L-240.2,813.9z M-238.2,814l0.7,0l0,0.3l-0.7,0L-238.2,814z
										 M-236.3,814.2l0.7,0l0,0.3l-0.7,0L-236.3,814.2z M-234.3,814.3l0.7,0l0,0.3l-0.7,0L-234.3,814.3z M-232.3,814.4l0.7,0
										l0,0.3l-0.7,0L-232.3,814.4z M-230.3,814.6l0.7,0l0,0.3l-0.7,0L-230.3,814.6z M-228.4,814.7l0.7,0l0,0.3l-0.7,0
										L-228.4,814.7z M-226.4,814.9l0.7,0l0,0.3l-0.7,0L-226.4,814.9z M-224.4,815l0.7,0l0,0.3l-0.7,0L-224.4,815z M-222.5,815.1
										l0.2,0l0,0.3l-0.2,0L-222.5,815.1z"/>
								</g>
							</g>
							<path class="st11" d="M-257.7,811.8l2.7-59.5c0-0.6,0.6-1.2,1.3-1.4l0-0.6l91.9,6.4c1.2,0.1,2.1,1.1,2,2.3l-5.7,59.5
								c-0.1,1.2-1.1,2.1-2.3,2l-88.8-6.6l0-0.6C-257.3,813.1-257.8,812.5-257.7,811.8z"/>
						</g>
					</g>
					<path class="st3" d="M-139.2,801.2c0,0,13.5,8.2,30.2,11c20.7,3.5,46.2,1.9,56.4,4.2c28.4,6.2,56,24.9,153.7,24.9v42.9
						c0,0-80.8,2-159.6-11S-141,852-141,852L-139.2,801.2z"/>
					<path class="st12" d="M-139.2,802.7c0,0,13.5,8.2,30.2,11c20.7,3.5,46.2,1.9,56.4,4.2c28.4,6.2,56,24.9,153.7,24.9"/>
					<g>
						<g id="XMLID_536_">
							<g>
								<g id="XMLID_549_">
									<circle class="st4" cx="-55.2" cy="821.7" r="5.7"/>
								</g>
								<g id="XMLID_548_">
									<circle class="st13" cx="-55.2" cy="821.5" r="5.5"/>
								</g>
							</g>
							<g id="XMLID_547_">
								<polygon class="st8" points="-62.1,820.5 -55.7,819.4 -48.3,820.2 -55.5,822.2 								"/>
								<path class="st14" d="M-62.4,820.5l6.7-1.2l0,0l7.7,0.9l-7.5,2l0,0L-62.4,820.5z M-55.7,819.4l-6.1,1.1l6.3,1.6l6.8-1.8
									L-55.7,819.4z"/>
							</g>
							<g id="XMLID_546_">
								<circle class="st7" cx="-55.2" cy="820.8" r="5.5"/>
								<path class="st15" d="M-57.4,826.1c-1.4-0.6-2.5-1.7-3.1-3.1c-0.6-1.4-0.6-3,0-4.4c0.6-1.4,1.7-2.5,3.1-3.1
									c1.4-0.6,3-0.6,4.4,0c3,1.2,4.4,4.6,3.2,7.5l0,0c-0.6,1.4-1.7,2.5-3.1,3.1c-0.7,0.3-1.5,0.5-2.2,0.5
									C-56,826.5-56.7,826.4-57.4,826.1z M-57.2,816c-1.3,0.5-2.2,1.5-2.8,2.8c-0.5,1.3-0.5,2.7,0,3.9c0.5,1.3,1.5,2.2,2.8,2.8
									c1.3,0.5,2.7,0.5,3.9,0c1.3-0.5,2.2-1.5,2.8-2.8l0,0c1.1-2.6-0.2-5.6-2.8-6.7c-0.6-0.3-1.3-0.4-1.9-0.4
									C-55.9,815.6-56.6,815.8-57.2,816z"/>
							</g>
							<g id="XMLID_545_">
								<circle class="st7" cx="-55.2" cy="820.8" r="4.7"/>
								<path class="st6" d="M-57.1,825.2c-2.5-1-3.7-3.8-2.6-6.3c1-2.5,3.8-3.7,6.3-2.6c2.5,1,3.7,3.8,2.6,6.3
									c-0.8,1.9-2.6,3-4.5,3C-55.8,825.6-56.5,825.5-57.1,825.2z M-59.5,819c-1,2.3,0.2,5,2.5,6c2.3,1,5-0.2,6-2.5
									c1-2.3-0.2-5-2.5-6c-0.6-0.2-1.1-0.3-1.7-0.3C-57,816.2-58.7,817.3-59.5,819z"/>
							</g>
							<g>
								<g id="XMLID_544_">
									<circle class="st8" cx="-53.6" cy="822.5" r="0.9"/>
								</g>
								<g id="XMLID_543_">
									<circle class="st8" cx="-53.7" cy="819" r="0.9"/>
								</g>
								<g id="XMLID_542_">
									<circle class="st8" cx="-56.8" cy="822.5" r="0.9"/>
								</g>
								<g id="XMLID_541_">
									<circle class="st8" cx="-56.8" cy="819" r="0.9"/>
								</g>
								<g id="XMLID_540_">
									
										<rect x="-57.9" y="820.5" transform="matrix(-0.6589 0.7522 -0.7522 -0.6589 525.3572 1403.0199)" class="st15" width="5" height="0.2"/>
								</g>
								<g id="XMLID_539_">
									
										<rect x="-57.5" y="820.8" transform="matrix(-0.6589 0.7522 -0.7522 -0.6589 526.3018 1403.1986)" class="st15" width="5" height="0.2"/>
								</g>
								<g id="XMLID_538_">
									
										<rect x="-55.5" y="818.3" transform="matrix(-0.7405 0.6721 -0.6721 -0.7405 455.2389 1466.0411)" class="st15" width="0.2" height="5.1"/>
								</g>
								<g id="XMLID_537_">
									
										<rect x="-55.2" y="818" transform="matrix(-0.7405 0.6721 -0.6721 -0.7405 455.5891 1465.1207)" class="st15" width="0.2" height="5.1"/>
								</g>
							</g>
						</g>
					</g>
					<polyline class="st12" points="5.5,100.9 67.6,251.7 67.6,840 					"/>
					<g>
						<path class="st4" d="M83.2,210.9l-20.5,37c-3,5.4-4.6,11.5-4.6,17.7v618.6h26l2-666.9L83.2,210.9z"/>
						<path class="st5" d="M85.4,213.6L67.8,248c-2.7,5.4-4.2,11.3-4.2,17.3v618.9h26L85.4,213.6z"/>
					</g>
					<path class="st3" d="M-171.6,115.8c55.8-16.9,82-9.5,117.1-9.5c21,0,70.1-38.4,70.1-38.4S-0.3,45.5-13.7,53.2
						S-61.5,75.4-78,82.3s-38.2,16-63.8,22.6C-167.4,111.5-171.6,115.8-171.6,115.8z"/>
					<path class="st3" d="M277.8,266.3c4.5-33,53.1-81.5,72.4-130.1l-0.1-12.1c0,0,6.4,0.2,14.6,42.1
						c5.2,26.6,18.6,106.9,33.7,270.1c4.3,46.5,10.7,126.9,17.1,192.2c6.5,66.6,6.2,122,6.2,122l-88.1,6.8c0,0-14.1-67.1-19.2-116.1
						c-4.4-41.9-8.9-83.3-15.7-151C284.1,345,277,272,277.8,266.3z"/>
					<g>
						<polygon class="st4" points="420.6,744.6 331.7,750.9 335.3,762.4 420.6,756.3 						"/>
						<polygon class="st5" points="420.6,747.8 331.7,754.1 335.3,765.6 420.6,759.5 						"/>
					</g>
					<path class="st3" d="M186.5,57.5c3-0.6,48.6,20.4,81.5,33.8s80.8,19.4,83,35.9c2.2,16.5-40.4,95-59.1,159.3
						c-10.8,37.1-10.3,79.2-10,124.9c0.7,103.9,8.4,191.1,12,236.4c4.6,59.3,15,149.8,13.9,171.2c-0.1,1.3,0.1,1.3,0,1.6
						c-1.7,5.2-10.2,32.8-240.3,32.8V276c0-12.7,2.7-25.2,8-36.7l82.6-181.8H186.5z"/>
					<g id="XMLID_528_">
						<g id="XMLID_529_">
							<g id="XMLID_535_">
								<g>
									<path class="st7" d="M390.3,752.9l32.5-2.3c1-0.1,1.9,0.7,2,1.7l2.7,59.5c0.1,1-0.7,1.9-1.7,2l-31,2.3l0,0
										c0.8,0,1.8-0.8,1.7-2l0,0l-3-41.8C393.5,771.7,390,752.9,390.3,752.9z"/>
								</g>
								<g>
									<path class="st8" d="M425.8,814.1l-32.6,2.4l1.6-0.8c0.4,0,0.8-0.2,1-0.5c0.2-0.2,0.4-0.6,0.4-1.1l-3-41.8
										c0-0.2-0.3-2-0.7-4.1c-2.6-14.5-2.7-15.3-2.5-15.5l0.1-0.1l0.2,0l32.5-2.3c1.2-0.1,2.3,0.8,2.3,2l2.7,59.5
										C427.9,813,427,814,425.8,814.1z M396.4,815.6l29.4-2.2c0.8-0.1,1.5-0.8,1.4-1.6l-2.7-59.5c-0.1-0.8-0.8-1.5-1.6-1.4
										l-32.2,2.3c0.1,1.6,1.7,10.5,2.5,14.9c0.5,2.7,0.7,4,0.7,4.2l3,41.8C396.9,814.7,396.7,815.2,396.4,815.6z"/>
								</g>
							</g>
							<g id="XMLID_534_">
								<g>
									<path class="st7" d="M332.1,757c-1.6,0.1-2.8,1-2.7,2.1l5.7,59.5c0.1,1,1.4,1.8,2.9,1.7l86.3-6.4c1.6-0.1,2.8-1,2.7-2.1
										l-2.7-59.5c-0.1-1-1.4-1.8-2.9-1.7L332.1,757z"/>
								</g>
								<path class="st9" d="M329.7,759.1l5.7,59.5c0.1,0.8,0.8,1.5,1.6,1.4l56.5-4.1l-3.9-62.6l-58.5,4.2
									C330.3,757.5,329.7,758.2,329.7,759.1z"/>
								<path class="st8" d="M337.1,820c-0.8,0.1-1.6-0.6-1.6-1.4l-5.7-59.5c-0.1-0.8,0.6-1.6,1.4-1.6L423,751l0-0.7l-91.9,6.4
									c-1.2,0.1-2.1,1.1-2,2.3l5.7,59.5c0.1,1.2,1.1,2.1,2.3,2l88.8-6.6l0-0.7L337.1,820z"/>
							</g>
							<g id="XMLID_533_">
								<g>
									<g>
										
											<rect x="390.4" y="754.3" transform="matrix(0.9975 -7.105730e-02 7.105730e-02 0.9975 -52.6258 29.6621)" class="st10" width="0.3" height="0.3"/>
									</g>
								</g>
								<g>
									<g>
										<path class="st10" d="M392.8,815.3l-0.7,0l0-0.3l0.7,0L392.8,815.3z M390.9,815.5l-0.7,0l0-0.3l0.7,0L390.9,815.5z
											 M388.9,815.6l-0.7,0l0-0.3l0.7,0L388.9,815.6z M387,815.8l-0.7,0l0-0.3l0.7,0L387,815.8z M385,815.9l-0.7,0l0-0.3l0.7,0
											L385,815.9z M383,816l-0.7,0l0-0.3l0.7,0L383,816z M381.1,816.2l-0.7,0l0-0.3l0.7,0L381.1,816.2z M379.1,816.3l-0.7,0
											l0-0.3l0.7,0L379.1,816.3z M377.2,816.5l-0.7,0l0-0.3l0.7,0L377.2,816.5z M375.2,816.6l-0.7,0l0-0.3l0.7,0L375.2,816.6z
											 M373.2,816.7l-0.7,0l0-0.3l0.7,0L373.2,816.7z M371.3,816.9l-0.7,0l0-0.3l0.7,0L371.3,816.9z M369.3,817l-0.7,0l0-0.3
											l0.7,0L369.3,817z M367.4,817.2l-0.7,0l0-0.3l0.7,0L367.4,817.2z M365.4,817.3l-0.7,0l0-0.3l0.7,0L365.4,817.3z
											 M363.4,817.4l-0.7,0l0-0.3l0.7,0L363.4,817.4z M361.5,817.6l-0.7,0l0-0.3l0.7,0L361.5,817.6z M359.5,817.7l-0.7,0l0-0.3
											l0.7,0L359.5,817.7z M359.1,817.9l-0.7,0l0-0.3l0.7,0L359.1,817.9z M357.1,818l-0.7,0l0-0.3l0.7,0L357.1,818z
											 M355.1,818.1l-0.7,0l0-0.3l0.7,0L355.1,818.1z M353.2,818.3l-0.7,0l0-0.3l0.7,0L353.2,818.3z M351.2,818.4l-0.7,0l0-0.3
											l0.7,0L351.2,818.4z M349.3,818.6l-0.7,0l0-0.3l0.7,0L349.3,818.6z M347.3,818.7l-0.7,0l0-0.3l0.7,0L347.3,818.7z
											 M345.3,818.8l-0.7,0l0-0.3l0.7,0L345.3,818.8z M343.4,819l-0.7,0l0-0.3l0.7,0L343.4,819z M341.4,819.1l-0.7,0l0-0.3
											l0.7,0L341.4,819.1z M339.5,819.3l-0.7,0l0-0.3l0.7,0L339.5,819.3z M337.5,819.4l-0.7,0l0-0.3l0.7,0L337.5,819.4z
											 M394.2,815.2l-0.1-0.3c0.2,0,0.3-0.1,0.4-0.3l0.3,0.2C394.6,815,394.4,815.2,394.2,815.2z"/>
									</g>
								</g>
								<g>
									<g>
										
											<rect x="335.2" y="819.2" transform="matrix(0.9975 -7.105730e-02 7.105730e-02 0.9975 -57.3755 25.9011)" class="st10" width="0.3" height="0.3"/>
									</g>
								</g>
							</g>
							<g id="XMLID_532_">
								<g>
									<g>
										
											<rect x="390.6" y="758.4" transform="matrix(0.9975 -7.105730e-02 7.105730e-02 0.9975 -52.9157 29.6849)" class="st10" width="0.3" height="0.3"/>
									</g>
								</g>
								<g>
									<g>
										<path class="st10" d="M389.3,758.9l-0.7,0l0-0.3l0.7,0L389.3,758.9z M387.3,759l-0.7,0l0-0.3l0.7,0L387.3,759z
											 M385.4,759.1l-0.7,0l0-0.3l0.7,0L385.4,759.1z M383.4,759.3l-0.7,0l0-0.3l0.7,0L383.4,759.3z M381.4,759.4l-0.7,0l0-0.3
											l0.7,0L381.4,759.4z M379.4,759.6l-0.7,0l0-0.3l0.7,0L379.4,759.6z M377.4,759.7l-0.7,0l0-0.3l0.7,0L377.4,759.7z
											 M375.5,759.8l-0.7,0l0-0.3l0.7,0L375.5,759.8z M373.5,760l-0.7,0l0-0.3l0.7,0L373.5,760z M371.5,760.1l-0.7,0l0-0.3
											l0.7,0L371.5,760.1z M369.5,760.3l-0.7,0l0-0.3l0.7,0L369.5,760.3z M367.6,760.4l-0.7,0l0-0.3l0.7,0L367.6,760.4z
											 M365.6,760.6l-0.7,0l0-0.3l0.7,0L365.6,760.6z M363.6,760.7l-0.7,0l0-0.3l0.7,0L363.6,760.7z M361.6,760.8l-0.7,0l0-0.3
											l0.7,0L361.6,760.8z M359.7,761l-0.7,0l0-0.3l0.7,0L359.7,761z M357.7,761.1l-0.7,0l0-0.3l0.7,0L357.7,761.1z
											 M355.7,761.3l-0.7,0l0-0.3l0.7,0L355.7,761.3z M353.7,761.4l-0.7,0l0-0.3l0.7,0L353.7,761.4z M351.8,761.5l-0.7,0l0-0.3
											l0.7,0L351.8,761.5z M349.8,761.7l-0.7,0l0-0.3l0.7,0L349.8,761.7z M347.8,761.8l-0.7,0l0-0.3l0.7,0L347.8,761.8z
											 M345.8,762l-0.7,0l0-0.3l0.7,0L345.8,762z M343.9,762.1l-0.7,0l0-0.3l0.7,0L343.9,762.1z M341.9,762.2l-0.7,0l0-0.3
											l0.7,0L341.9,762.2z M339.9,762.4l-0.7,0l0-0.3l0.7,0L339.9,762.4z M337.9,762.5l-0.7,0l0-0.3l0.7,0L337.9,762.5z
											 M335.9,762.7l-0.7,0l0-0.3l0.7,0L335.9,762.7z M334,762.8l-0.7,0l0-0.3l0.7,0L334,762.8z M332,762.9l-0.7,0l0-0.3l0.7,0
											L332,762.9z"/>
									</g>
								</g>
								<g>
									<g>
										<polygon class="st10" points="330,763.1 329.5,763.1 329.5,762.6 329.8,762.6 329.8,762.8 330,762.8 										"/>
									</g>
								</g>
								<g>
									<g>
										
											<rect x="329.4" y="760.5" transform="matrix(0.9975 -7.105730e-02 7.105730e-02 0.9975 -53.2291 25.3386)" class="st10" width="0.3" height="0.7"/>
									</g>
								</g>
								<g>
									<g>
										<polygon class="st10" points="329.6,759 329.2,759 329.2,758.5 329.7,758.5 329.7,758.8 329.6,758.9 										"/>
									</g>
								</g>
								<g>
									<g>
										<path class="st10" d="M389,754.6l-0.7,0l0-0.3l0.7,0L389,754.6z M387,754.8l-0.7,0l0-0.3l0.7,0L387,754.8z M385,754.9
											l-0.7,0l0-0.3l0.7,0L385,754.9z M383.1,755l-0.7,0l0-0.3l0.7,0L383.1,755z M381.1,755.2l-0.7,0l0-0.3l0.7,0L381.1,755.2z
											 M379.1,755.3l-0.7,0l0-0.3l0.7,0L379.1,755.3z M377.1,755.5l-0.7,0l0-0.3l0.7,0L377.1,755.5z M375.2,755.6l-0.7,0l0-0.3
											l0.7,0L375.2,755.6z M373.2,755.7l-0.7,0l0-0.3l0.7,0L373.2,755.7z M371.2,755.9l-0.7,0l0-0.3l0.7,0L371.2,755.9z
											 M369.2,756l-0.7,0l0-0.3l0.7,0L369.2,756z M367.3,756.2l-0.7,0l0-0.3l0.7,0L367.3,756.2z M365.3,756.3l-0.7,0l0-0.3
											l0.7,0L365.3,756.3z M363.3,756.5l-0.7,0l0-0.3l0.7,0L363.3,756.5z M361.3,756.6l-0.7,0l0-0.3l0.7,0L361.3,756.6z
											 M359.4,756.7l-0.7,0l0-0.3l0.7,0L359.4,756.7z M357.4,756.9l-0.7,0l0-0.3l0.7,0L357.4,756.9z M355.4,757l-0.7,0l0-0.3
											l0.7,0L355.4,757z M353.4,757.2l-0.7,0l0-0.3l0.7,0L353.4,757.2z M351.5,757.3l-0.7,0l0-0.3l0.7,0L351.5,757.3z
											 M349.5,757.4l-0.7,0l0-0.3l0.7,0L349.5,757.4z M347.5,757.6l-0.7,0l0-0.3l0.7,0L347.5,757.6z M345.5,757.7l-0.7,0l0-0.3
											l0.7,0L345.5,757.7z M343.6,757.9l-0.7,0l0-0.3l0.7,0L343.6,757.9z M341.6,758l-0.7,0l0-0.3l0.7,0L341.6,758z
											 M339.6,758.1l-0.7,0l0-0.3l0.7,0L339.6,758.1z M337.6,758.3l-0.7,0l0-0.3l0.7,0L337.6,758.3z M335.6,758.4l-0.7,0l0-0.3
											l0.7,0L335.6,758.4z M333.7,758.6l-0.7,0l0-0.3l0.7,0L333.7,758.6z M331.7,758.7l-0.7,0l0-0.3l0.7,0L331.7,758.7z"/>
									</g>
								</g>
								<g>
									<g>
										
											<rect x="390.3" y="754.2" transform="matrix(0.9975 -7.105730e-02 7.105730e-02 0.9975 -52.6151 29.6527)" class="st10" width="0.3" height="0.3"/>
									</g>
								</g>
							</g>
							<g id="XMLID_531_">
								<g>
									<g>
										
											<rect x="424.7" y="756" transform="matrix(0.9975 -7.105730e-02 7.105730e-02 0.9975 -52.6569 32.1022)" class="st10" width="0.3" height="0.3"/>
									</g>
								</g>
								<g>
									<g>
										<path class="st10" d="M423.4,756.4l-0.7,0l0-0.3l0.7,0L423.4,756.4z M421.3,756.6l-0.7,0l0-0.3l0.7,0L421.3,756.6z
											 M419.3,756.7l-0.7,0l0-0.3l0.7,0L419.3,756.7z M417.3,756.9l-0.7,0l0-0.3l0.7,0L417.3,756.9z M415.3,757l-0.7,0l0-0.3
											l0.7,0L415.3,757z M413.2,757.2l-0.7,0l0-0.3l0.7,0L413.2,757.2z M411.2,757.3l-0.7,0l0-0.3l0.7,0L411.2,757.3z
											 M409.2,757.4l-0.7,0l0-0.3l0.7,0L409.2,757.4z M407.1,757.6l-0.7,0l0-0.3l0.7,0L407.1,757.6z M405.1,757.7l-0.7,0l0-0.3
											l0.7,0L405.1,757.7z M403.1,757.9l-0.7,0l0-0.3l0.7,0L403.1,757.9z M401,758l-0.7,0l0-0.3l0.7,0L401,758z M399,758.2
											l-0.7,0l0-0.3l0.7,0L399,758.2z M397,758.3l-0.7,0l0-0.3l0.7,0L397,758.3z M395,758.5l-0.7,0l0-0.3l0.7,0L395,758.5z"/>
									</g>
								</g>
								<g>
									<g>
										<polygon class="st10" points="392.9,758.6 392.4,758.6 392.4,758.1 392.7,758.1 392.7,758.3 392.9,758.3 										"/>
									</g>
								</g>
								<g>
									<g>
										<polygon class="st10" points="392.5,754.5 392.1,754.6 392.1,754.1 392.6,754 392.6,754.4 392.5,754.4 										"/>
									</g>
								</g>
								<g>
									<g>
										<path class="st10" d="M423.1,752.2l-0.7,0l0-0.3l0.7,0L423.1,752.2z M421,752.3l-0.7,0l0-0.3l0.7,0L421,752.3z M419,752.5
											l-0.7,0l0-0.3l0.7,0L419,752.5z M417,752.6l-0.7,0l0-0.3l0.7,0L417,752.6z M415,752.8l-0.7,0l0-0.3l0.7,0L415,752.8z
											 M412.9,752.9l-0.7,0l0-0.3l0.7,0L412.9,752.9z M410.9,753.1l-0.7,0l0-0.3l0.7,0L410.9,753.1z M408.9,753.2l-0.7,0l0-0.3
											l0.7,0L408.9,753.2z M406.8,753.3l-0.7,0l0-0.3l0.7,0L406.8,753.3z M404.8,753.5l-0.7,0l0-0.3l0.7,0L404.8,753.5z
											 M402.8,753.6l-0.7,0l0-0.3l0.7,0L402.8,753.6z M400.7,753.8l-0.7,0l0-0.3l0.7,0L400.7,753.8z M398.7,753.9l-0.7,0l0-0.3
											l0.7,0L398.7,753.9z M396.7,754.1l-0.7,0l0-0.3l0.7,0L396.7,754.1z M394.7,754.2l-0.7,0l0-0.3l0.7,0L394.7,754.2z"/>
									</g>
								</g>
								<g>
									<g>
										
											<rect x="424.4" y="751.8" transform="matrix(0.9975 -7.105730e-02 7.105730e-02 0.9975 -52.3562 32.07)" class="st10" width="0.3" height="0.3"/>
									</g>
								</g>
							</g>
							<g id="XMLID_530_">
								<g>
									<path class="st10" d="M427.2,812.8l-0.7,0l0-0.3l0.7,0L427.2,812.8z M425.2,812.9l-0.7,0l0-0.3l0.7,0L425.2,812.9z
										 M423.2,813.1l-0.7,0l0-0.3l0.7,0L423.2,813.1z M421.3,813.2l-0.7,0l0-0.3l0.7,0L421.3,813.2z M419.3,813.4l-0.7,0l0-0.3
										l0.7,0L419.3,813.4z M417.3,813.5l-0.7,0l0-0.3l0.7,0L417.3,813.5z M415.3,813.6l-0.7,0l0-0.3l0.7,0L415.3,813.6z
										 M413.4,813.8l-0.7,0l0-0.3l0.7,0L413.4,813.8z M411.4,813.9l-0.7,0l0-0.3l0.7,0L411.4,813.9z M409.4,814.1l0.8,0l0-0.3
										l-0.8,0L409.4,814.1z M408.9,814.2l-0.7,0l0-0.3l0.7,0L408.9,814.2z M407,814.3l-0.7,0l0-0.3l0.7,0L407,814.3z M405,814.5
										l-0.7,0l0-0.3l0.7,0L405,814.5z M403,814.6l-0.7,0l0-0.3l0.7,0L403,814.6z M401,814.8l-0.7,0l0-0.3l0.7,0L401,814.8z
										 M399.1,814.9l-0.7,0l0-0.3l0.7,0L399.1,814.9z M397.1,815l-0.7,0l0-0.3l0.7,0L397.1,815z M395.1,815.2l-0.7,0l0-0.3l0.7,0
										L395.1,815.2z M393.2,815.3l-0.7,0l0-0.3l0.7,0L393.2,815.3z M391.2,815.5l-0.2,0l0-0.3l0.2,0L391.2,815.5z"/>
								</g>
							</g>
						</g>
						<path class="st11" d="M427.1,811.8l-2.7-59.5c0-0.6-0.6-1.2-1.3-1.4l0-0.6l-91.9,6.4c-1.2,0.1-2.1,1.1-2,2.3l5.7,59.5
							c0.1,1.2,1.1,2.1,2.3,2l88.8-6.6l0-0.6C426.7,813.1,427.1,812.5,427.1,811.8z"/>
					</g>
					<g>
						<g id="XMLID_514_">
							<g>
								<g id="XMLID_527_">
									<circle class="st4" cx="80.4" cy="783.7" r="5.7"/>
								</g>
								<g id="XMLID_526_">
									<circle class="st13" cx="80.4" cy="783.6" r="5.5"/>
								</g>
							</g>
							<g id="XMLID_525_">
								<polygon class="st8" points="87.3,782.6 80.8,781.4 73.5,782.3 80.7,784.2 								"/>
								<path class="st14" d="M80.7,784.3L80.7,784.3l-7.5-2l7.7-0.9l0,0l6.7,1.2L80.7,784.3z M73.8,782.3l6.8,1.8l6.3-1.6l-6.1-1.1
									L73.8,782.3z"/>
							</g>
							<g id="XMLID_524_">
								<circle class="st7" cx="80.4" cy="782.8" r="5.5"/>
								<path class="st15" d="M80.4,788.6c-0.8,0-1.5-0.2-2.2-0.5c-1.4-0.6-2.5-1.7-3.1-3.1l0,0c-1.2-3,0.2-6.3,3.2-7.5
									c1.4-0.6,3-0.6,4.4,0c1.4,0.6,2.5,1.7,3.1,3.1c0.6,1.4,0.6,3,0,4.4c-0.6,1.4-1.7,2.5-3.1,3.1
									C81.9,788.5,81.1,788.6,80.4,788.6z M80.4,777.7c-0.7,0-1.3,0.1-1.9,0.4c-2.6,1.1-3.9,4.1-2.8,6.7l0,0
									c0.5,1.3,1.5,2.3,2.8,2.8c1.3,0.5,2.7,0.5,3.9,0c1.3-0.5,2.3-1.5,2.8-2.8c0.5-1.3,0.5-2.7,0-3.9c-0.5-1.3-1.5-2.3-2.8-2.8
									C81.7,777.8,81,777.7,80.4,777.7z"/>
							</g>
							<g id="XMLID_523_">
								<circle class="st7" cx="80.4" cy="782.8" r="4.7"/>
								<path class="st6" d="M80.4,787.6c-1.9,0-3.7-1.1-4.5-3c-1-2.5,0.2-5.3,2.6-6.3c2.5-1,5.3,0.2,6.3,2.6c1,2.5-0.2,5.3-2.6,6.3
									C81.6,787.5,81,787.6,80.4,787.6z M80.4,778.2c-0.6,0-1.2,0.1-1.7,0.3c-2.3,1-3.5,3.6-2.5,6c1,2.3,3.6,3.5,6,2.5
									c2.3-1,3.5-3.6,2.5-6C83.9,779.3,82.2,778.2,80.4,778.2z"/>
							</g>
							<g>
								<g id="XMLID_522_">
									<circle class="st8" cx="78.8" cy="784.6" r="0.9"/>
								</g>
								<g id="XMLID_521_">
									<circle class="st8" cx="78.8" cy="781" r="0.9"/>
								</g>
								<g id="XMLID_520_">
									<circle class="st8" cx="81.9" cy="784.6" r="0.9"/>
								</g>
								<g id="XMLID_519_">
									<circle class="st8" cx="82" cy="781" r="0.9"/>
								</g>
								<g id="XMLID_518_">
									
										<rect x="78.1" y="782.6" transform="matrix(0.6589 0.7522 -0.7522 0.6589 616.2064 206.3573)" class="st15" width="5" height="0.2"/>
								</g>
								<g id="XMLID_517_">
									
										<rect x="77.6" y="782.9" transform="matrix(0.6589 0.7522 -0.7522 0.6589 616.2874 206.7856)" class="st15" width="5" height="0.2"/>
								</g>
								<g id="XMLID_516_">
									
										<rect x="80.5" y="780.4" transform="matrix(0.7405 0.6721 -0.6721 0.7405 547.1391 149.0446)" class="st15" width="0.2" height="5.1"/>
								</g>
								<g id="XMLID_515_">
									
										<rect x="80.1" y="780" transform="matrix(0.7405 0.6721 -0.6721 0.7405 546.7837 149.1798)" class="st15" width="0.2" height="5.1"/>
								</g>
							</g>
						</g>
					</g>
					<g>
						<g id="XMLID_500_">
							<g>
								<g id="XMLID_513_">
									<circle class="st4" cx="80.4" cy="684.8" r="5.7"/>
								</g>
								<g id="XMLID_512_">
									<circle class="st13" cx="80.4" cy="684.6" r="5.5"/>
								</g>
							</g>
							<g id="XMLID_511_">
								<polygon class="st8" points="87.3,683.6 80.8,682.4 73.5,683.3 80.7,685.2 								"/>
								<path class="st14" d="M80.7,685.3L80.7,685.3l-7.5-2l7.7-0.9l0,0l6.7,1.2L80.7,685.3z M73.8,683.3l6.8,1.8l6.3-1.6l-6.1-1.1
									L73.8,683.3z"/>
							</g>
							<g id="XMLID_510_">
								<circle class="st7" cx="80.4" cy="683.8" r="5.5"/>
								<path class="st15" d="M80.4,689.6c-0.8,0-1.5-0.2-2.2-0.5c-1.4-0.6-2.5-1.7-3.1-3.1l0,0c-1.2-3,0.2-6.3,3.2-7.5
									c1.4-0.6,3-0.6,4.4,0c1.4,0.6,2.5,1.7,3.1,3.1c0.6,1.4,0.6,3,0,4.4c-0.6,1.4-1.7,2.5-3.1,3.1
									C81.9,689.5,81.1,689.6,80.4,689.6z M80.4,678.7c-0.7,0-1.3,0.1-1.9,0.4c-2.6,1.1-3.9,4.1-2.8,6.7l0,0
									c0.5,1.3,1.5,2.3,2.8,2.8c1.3,0.5,2.7,0.5,3.9,0c1.3-0.5,2.3-1.5,2.8-2.8c0.5-1.3,0.5-2.7,0-3.9c-0.5-1.3-1.5-2.3-2.8-2.8
									C81.7,678.8,81,678.7,80.4,678.7z"/>
							</g>
							<g id="XMLID_509_">
								<circle class="st7" cx="80.4" cy="683.8" r="4.7"/>
								<path class="st6" d="M80.4,688.6c-1.9,0-3.7-1.1-4.5-3c-1-2.5,0.2-5.3,2.6-6.3c2.5-1,5.3,0.2,6.3,2.6c1,2.5-0.2,5.3-2.6,6.3
									C81.6,688.5,81,688.6,80.4,688.6z M80.4,679.2c-0.6,0-1.2,0.1-1.7,0.3c-2.3,1-3.5,3.6-2.5,6c1,2.3,3.6,3.5,6,2.5
									c2.3-1,3.5-3.6,2.5-6C83.9,680.3,82.2,679.2,80.4,679.2z"/>
							</g>
							<g>
								<g id="XMLID_508_">
									<circle class="st8" cx="78.8" cy="685.6" r="0.9"/>
								</g>
								<g id="XMLID_507_">
									<circle class="st8" cx="78.8" cy="682" r="0.9"/>
								</g>
								<g id="XMLID_506_">
									<circle class="st8" cx="81.9" cy="685.6" r="0.9"/>
								</g>
								<g id="XMLID_505_">
									<circle class="st8" cx="82" cy="682.1" r="0.9"/>
								</g>
								<g id="XMLID_504_">
									
										<rect x="78.1" y="683.6" transform="matrix(0.6589 0.7522 -0.7522 0.6589 541.7451 172.5941)" class="st15" width="5" height="0.2"/>
								</g>
								<g id="XMLID_503_">
									
										<rect x="77.6" y="683.9" transform="matrix(0.6589 0.7522 -0.7522 0.6589 541.8262 173.0224)" class="st15" width="5" height="0.2"/>
								</g>
								<g id="XMLID_502_">
									
										<rect x="80.5" y="681.4" transform="matrix(0.7405 0.6721 -0.6721 0.7405 480.609 123.3538)" class="st15" width="0.2" height="5.1"/>
								</g>
								<g id="XMLID_501_">
									
										<rect x="80.1" y="681" transform="matrix(0.7405 0.6721 -0.6721 0.7405 480.2536 123.489)" class="st15" width="0.2" height="5.1"/>
								</g>
							</g>
						</g>
					</g>
					<g>
						<g id="XMLID_486_">
							<g>
								<g id="XMLID_499_">
									<circle class="st4" cx="80.4" cy="585.8" r="5.7"/>
								</g>
								<g id="XMLID_498_">
									<circle class="st13" cx="80.4" cy="585.6" r="5.5"/>
								</g>
							</g>
							<g id="XMLID_497_">
								<polygon class="st8" points="87.3,584.6 80.8,583.4 73.5,584.3 80.7,586.2 								"/>
								<path class="st14" d="M80.7,586.3L80.7,586.3l-7.5-2l7.7-0.9l0,0l6.7,1.2L80.7,586.3z M73.8,584.3l6.8,1.8l6.3-1.6l-6.1-1.1
									L73.8,584.3z"/>
							</g>
							<g id="XMLID_496_">
								<circle class="st7" cx="80.4" cy="584.8" r="5.5"/>
								<path class="st15" d="M80.4,590.6c-0.8,0-1.5-0.2-2.2-0.5c-1.4-0.6-2.5-1.7-3.1-3.1l0,0c-1.2-3,0.2-6.3,3.2-7.5
									c1.4-0.6,3-0.6,4.4,0c1.4,0.6,2.5,1.7,3.1,3.1c0.6,1.4,0.6,3,0,4.4c-0.6,1.4-1.7,2.5-3.1,3.1
									C81.9,590.5,81.1,590.6,80.4,590.6z M80.4,579.7c-0.7,0-1.3,0.1-1.9,0.4c-2.6,1.1-3.9,4.1-2.8,6.7l0,0
									c0.5,1.3,1.5,2.3,2.8,2.8c1.3,0.5,2.7,0.5,3.9,0c1.3-0.5,2.3-1.5,2.8-2.8c0.5-1.3,0.5-2.7,0-3.9c-0.5-1.3-1.5-2.3-2.8-2.8
									C81.7,579.8,81,579.7,80.4,579.7z"/>
							</g>
							<g id="XMLID_495_">
								<circle class="st7" cx="80.4" cy="584.8" r="4.7"/>
								<path class="st6" d="M80.4,589.7c-1.9,0-3.7-1.1-4.5-3c-1-2.5,0.2-5.3,2.6-6.3c2.5-1,5.3,0.2,6.3,2.6c1,2.5-0.2,5.3-2.6,6.3
									C81.6,589.5,81,589.7,80.4,589.7z M80.4,580.3c-0.6,0-1.2,0.1-1.7,0.3c-2.3,1-3.5,3.6-2.5,6c1,2.3,3.6,3.5,6,2.5
									c2.3-1,3.5-3.6,2.5-6C83.9,581.3,82.2,580.3,80.4,580.3z"/>
							</g>
							<g>
								<g id="XMLID_494_">
									<circle class="st8" cx="78.8" cy="586.6" r="0.9"/>
								</g>
								<g id="XMLID_493_">
									<circle class="st8" cx="78.8" cy="583.1" r="0.9"/>
								</g>
								<g id="XMLID_492_">
									<circle class="st8" cx="81.9" cy="586.6" r="0.9"/>
								</g>
								<g id="XMLID_491_">
									<circle class="st8" cx="82" cy="583.1" r="0.9"/>
								</g>
								<g id="XMLID_490_">
									
										<rect x="78.1" y="584.6" transform="matrix(0.6589 0.7522 -0.7522 0.6589 467.2838 138.831)" class="st15" width="5" height="0.2"/>
								</g>
								<g id="XMLID_489_">
									
										<rect x="77.6" y="584.9" transform="matrix(0.6589 0.7522 -0.7522 0.6589 467.3649 139.2593)" class="st15" width="5" height="0.2"/>
								</g>
								<g id="XMLID_488_">
									
										<rect x="80.5" y="582.4" transform="matrix(0.7405 0.6721 -0.6721 0.7405 414.0789 97.6629)" class="st15" width="0.2" height="5.1"/>
								</g>
								<g id="XMLID_487_">
									
										<rect x="80.1" y="582" transform="matrix(0.7405 0.6721 -0.6721 0.7405 413.7234 97.7981)" class="st15" width="0.2" height="5.1"/>
								</g>
							</g>
						</g>
					</g>
					<g>
						<g id="XMLID_472_">
							<g>
								<g id="XMLID_485_">
									<circle class="st4" cx="80.4" cy="486.8" r="5.7"/>
								</g>
								<g id="XMLID_484_">
									<circle class="st13" cx="80.4" cy="486.6" r="5.5"/>
								</g>
							</g>
							<g id="XMLID_483_">
								<polygon class="st8" points="87.3,485.6 80.8,484.4 73.5,485.3 80.7,487.2 								"/>
								<path class="st14" d="M80.7,487.3L80.7,487.3l-7.5-2l7.7-0.9l0,0l6.7,1.2L80.7,487.3z M73.8,485.4l6.8,1.8l6.3-1.6l-6.1-1.1
									L73.8,485.4z"/>
							</g>
							<g id="XMLID_482_">
								<circle class="st7" cx="80.4" cy="485.8" r="5.5"/>
								<path class="st15" d="M80.4,491.6c-0.8,0-1.5-0.2-2.2-0.5c-1.4-0.6-2.5-1.7-3.1-3.1l0,0c-1.2-3,0.2-6.3,3.2-7.5
									c1.4-0.6,3-0.6,4.4,0c1.4,0.6,2.5,1.7,3.1,3.1c0.6,1.4,0.6,3,0,4.4c-0.6,1.4-1.7,2.5-3.1,3.1
									C81.9,491.5,81.1,491.6,80.4,491.6z M80.4,480.7c-0.7,0-1.3,0.1-1.9,0.4c-2.6,1.1-3.9,4.1-2.8,6.7l0,0
									c0.5,1.3,1.5,2.3,2.8,2.8c1.3,0.5,2.7,0.5,3.9,0c1.3-0.5,2.3-1.5,2.8-2.8c0.5-1.3,0.5-2.7,0-3.9c-0.5-1.3-1.5-2.3-2.8-2.8
									C81.7,480.9,81,480.7,80.4,480.7z"/>
							</g>
							<g id="XMLID_481_">
								<circle class="st7" cx="80.4" cy="485.8" r="4.7"/>
								<path class="st6" d="M80.4,490.7c-1.9,0-3.7-1.1-4.5-3c-1-2.5,0.2-5.3,2.6-6.3c2.5-1,5.3,0.2,6.3,2.6c1,2.5-0.2,5.3-2.6,6.3
									C81.6,490.6,81,490.7,80.4,490.7z M80.4,481.3c-0.6,0-1.2,0.1-1.7,0.3c-2.3,1-3.5,3.6-2.5,6c1,2.3,3.6,3.5,6,2.5
									c2.3-1,3.5-3.6,2.5-6C83.9,482.3,82.2,481.3,80.4,481.3z"/>
							</g>
							<g>
								<g id="XMLID_480_">
									<circle class="st8" cx="78.8" cy="487.6" r="0.9"/>
								</g>
								<g id="XMLID_479_">
									<circle class="st8" cx="78.8" cy="484.1" r="0.9"/>
								</g>
								<g id="XMLID_478_">
									<circle class="st8" cx="81.9" cy="487.6" r="0.9"/>
								</g>
								<g id="XMLID_477_">
									<circle class="st8" cx="82" cy="484.1" r="0.9"/>
								</g>
								<g id="XMLID_476_">
									
										<rect x="78.1" y="485.6" transform="matrix(0.6589 0.7522 -0.7522 0.6589 392.8226 105.0679)" class="st15" width="5" height="0.2"/>
								</g>
								<g id="XMLID_475_">
									
										<rect x="77.6" y="485.9" transform="matrix(0.6589 0.7522 -0.7522 0.6589 392.9037 105.4962)" class="st15" width="5" height="0.2"/>
								</g>
								<g id="XMLID_474_">
									
										<rect x="80.5" y="483.4" transform="matrix(0.7405 0.6721 -0.6721 0.7405 347.5487 71.972)" class="st15" width="0.2" height="5.1"/>
								</g>
								<g id="XMLID_473_">
									
										<rect x="80.1" y="483" transform="matrix(0.7405 0.6721 -0.6721 0.7405 347.1933 72.1073)" class="st15" width="0.2" height="5.1"/>
								</g>
							</g>
						</g>
					</g>
					<g>
						<g id="XMLID_458_">
							<g>
								<g id="XMLID_471_">
									<circle class="st4" cx="80.4" cy="387.8" r="5.7"/>
								</g>
								<g id="XMLID_470_">
									<circle class="st13" cx="80.4" cy="387.6" r="5.5"/>
								</g>
							</g>
							<g id="XMLID_469_">
								<polygon class="st8" points="87.3,386.6 80.8,385.4 73.5,386.3 80.7,388.3 								"/>
								<path class="st14" d="M80.7,388.3L80.7,388.3l-7.5-2l7.7-0.9l0,0l6.7,1.2L80.7,388.3z M73.8,386.4l6.8,1.8l6.3-1.6l-6.1-1.1
									L73.8,386.4z"/>
							</g>
							<g id="XMLID_468_">
								<circle class="st7" cx="80.4" cy="386.9" r="5.5"/>
								<path class="st15" d="M80.4,392.6c-0.8,0-1.5-0.2-2.2-0.5c-1.4-0.6-2.5-1.7-3.1-3.1l0,0c-1.2-3,0.2-6.3,3.2-7.5
									c1.4-0.6,3-0.6,4.4,0c1.4,0.6,2.5,1.7,3.1,3.1c0.6,1.4,0.6,3,0,4.4c-0.6,1.4-1.7,2.5-3.1,3.1
									C81.9,392.5,81.1,392.6,80.4,392.6z M80.4,381.7c-0.7,0-1.3,0.1-1.9,0.4c-2.6,1.1-3.9,4.1-2.8,6.7l0,0
									c0.5,1.3,1.5,2.3,2.8,2.8c1.3,0.5,2.7,0.5,3.9,0c1.3-0.5,2.3-1.5,2.8-2.8c0.5-1.3,0.5-2.7,0-3.9c-0.5-1.3-1.5-2.3-2.8-2.8
									C81.7,381.9,81,381.7,80.4,381.7z"/>
							</g>
							<g id="XMLID_467_">
								<circle class="st7" cx="80.4" cy="386.9" r="4.7"/>
								<path class="st6" d="M80.4,391.7c-1.9,0-3.7-1.1-4.5-3c-1-2.5,0.2-5.3,2.6-6.3c2.5-1,5.3,0.2,6.3,2.6c1,2.5-0.2,5.3-2.6,6.3
									C81.6,391.6,81,391.7,80.4,391.7z M80.4,382.3c-0.6,0-1.2,0.1-1.7,0.3c-2.3,1-3.5,3.6-2.5,6c1,2.3,3.6,3.5,6,2.5
									c2.3-1,3.5-3.6,2.5-6C83.9,383.3,82.2,382.3,80.4,382.3z"/>
							</g>
							<g>
								<g id="XMLID_466_">
									<circle class="st8" cx="78.8" cy="388.6" r="0.9"/>
								</g>
								<g id="XMLID_465_">
									<circle class="st8" cx="78.8" cy="385.1" r="0.9"/>
								</g>
								<g id="XMLID_464_">
									<circle class="st8" cx="81.9" cy="388.6" r="0.9"/>
								</g>
								<g id="XMLID_463_">
									<circle class="st8" cx="82" cy="385.1" r="0.9"/>
								</g>
								<g id="XMLID_462_">
									
										<rect x="78.1" y="386.6" transform="matrix(0.6589 0.7522 -0.7522 0.6589 318.3613 71.3047)" class="st15" width="5" height="0.2"/>
								</g>
								<g id="XMLID_461_">
									
										<rect x="77.6" y="386.9" transform="matrix(0.6589 0.7522 -0.7522 0.6589 318.4424 71.733)" class="st15" width="5" height="0.2"/>
								</g>
								<g id="XMLID_460_">
									
										<rect x="80.5" y="384.4" transform="matrix(0.7405 0.6721 -0.6721 0.7405 281.0186 46.2812)" class="st15" width="0.2" height="5.1"/>
								</g>
								<g id="XMLID_459_">
									
										<rect x="80.1" y="384" transform="matrix(0.7405 0.6721 -0.6721 0.7405 280.6632 46.4164)" class="st15" width="0.2" height="5.1"/>
								</g>
							</g>
						</g>
					</g>
					<g>
						<g id="XMLID_444_">
							<g>
								<g id="XMLID_457_">
									<circle class="st4" cx="80.4" cy="288.8" r="5.7"/>
								</g>
								<g id="XMLID_456_">
									<circle class="st13" cx="80.4" cy="288.6" r="5.5"/>
								</g>
							</g>
							<g id="XMLID_455_">
								<polygon class="st8" points="87.3,287.6 80.8,286.5 73.5,287.3 80.7,289.3 								"/>
								<path class="st14" d="M80.7,289.3L80.7,289.3l-7.5-2l7.7-0.9l0,0l6.7,1.2L80.7,289.3z M73.8,287.4l6.8,1.8l6.3-1.6l-6.1-1.1
									L73.8,287.4z"/>
							</g>
							<g id="XMLID_454_">
								<circle class="st7" cx="80.4" cy="287.9" r="5.5"/>
								<path class="st15" d="M80.4,293.6c-0.8,0-1.5-0.2-2.2-0.5c-1.4-0.6-2.5-1.7-3.1-3.1l0,0c-1.2-3,0.2-6.3,3.2-7.5
									c1.4-0.6,3-0.6,4.4,0c1.4,0.6,2.5,1.7,3.1,3.1c0.6,1.4,0.6,3,0,4.4c-0.6,1.4-1.7,2.5-3.1,3.1
									C81.9,293.5,81.1,293.6,80.4,293.6z M80.4,282.7c-0.7,0-1.3,0.1-1.9,0.4c-2.6,1.1-3.9,4.1-2.8,6.7l0,0
									c0.5,1.3,1.5,2.3,2.8,2.8c1.3,0.5,2.7,0.5,3.9,0c1.3-0.5,2.3-1.5,2.8-2.8c0.5-1.3,0.5-2.7,0-3.9c-0.5-1.3-1.5-2.3-2.8-2.8
									C81.7,282.9,81,282.7,80.4,282.7z"/>
							</g>
							<g id="XMLID_453_">
								<circle class="st7" cx="80.4" cy="287.9" r="4.7"/>
								<path class="st6" d="M80.4,292.7c-1.9,0-3.7-1.1-4.5-3c-1-2.5,0.2-5.3,2.6-6.3c2.5-1,5.3,0.2,6.3,2.6c1,2.5-0.2,5.3-2.6,6.3
									C81.6,292.6,81,292.7,80.4,292.7z M80.4,283.3c-0.6,0-1.2,0.1-1.7,0.3c-2.3,1-3.5,3.6-2.5,6c1,2.3,3.6,3.5,6,2.5
									c2.3-1,3.5-3.6,2.5-6C83.9,284.4,82.2,283.3,80.4,283.3z"/>
							</g>
							<g>
								<g id="XMLID_452_">
									<circle class="st8" cx="78.8" cy="289.6" r="0.9"/>
								</g>
								<g id="XMLID_451_">
									<circle class="st8" cx="78.8" cy="286.1" r="0.9"/>
								</g>
								<g id="XMLID_450_">
									<circle class="st8" cx="81.9" cy="289.6" r="0.9"/>
								</g>
								<g id="XMLID_449_">
									<circle class="st8" cx="82" cy="286.1" r="0.9"/>
								</g>
								<g id="XMLID_448_">
									
										<rect x="78.1" y="287.6" transform="matrix(0.6589 0.7522 -0.7522 0.6589 243.9001 37.5416)" class="st15" width="5" height="0.2"/>
								</g>
								<g id="XMLID_447_">
									
										<rect x="77.6" y="287.9" transform="matrix(0.6589 0.7522 -0.7522 0.6589 243.9811 37.9699)" class="st15" width="5" height="0.2"/>
								</g>
								<g id="XMLID_446_">
									
										<rect x="80.5" y="285.4" transform="matrix(0.7405 0.6721 -0.6721 0.7405 214.4885 20.5903)" class="st15" width="0.2" height="5.1"/>
								</g>
								<g id="XMLID_445_">
									
										<rect x="80.1" y="285.1" transform="matrix(0.7405 0.6721 -0.6721 0.7405 214.133 20.7255)" class="st15" width="0.2" height="5.1"/>
								</g>
							</g>
						</g>
					</g>
					<path class="st3" d="M340.3,115.8c-55.8-16.9-82-9.5-117.1-9.5c-21,0-70.1-38.4-70.1-38.4s15.9-22.3,29.3-14.7
						s47.8,22.2,64.3,29.2s38.2,16,63.8,22.6C336.1,111.5,340.3,115.8,340.3,115.8z"/>
					<g id="XMLID_427_">
						<polygon id="XMLID_442_" class="st16" points="221.5,99.4 220.5,102.6 221.5,105.3 222.8,102.6 						"/>
						<g>
							<ellipse id="XMLID_441_" class="st4" cx="221.6" cy="101.9" rx="4.4" ry="2.8"/>
							<ellipse id="XMLID_440_" class="st13" cx="221.7" cy="101.7" rx="4.2" ry="2.7"/>
						</g>
						<path id="XMLID_439_" class="st17" d="M220,98.1c-2.2,0.6-3.3,2.3-2.4,3.8c0.9,1.5,3.5,2.2,5.7,1.6c2.2-0.6,3.3-2.3,2.4-3.8
							C224.7,98.2,222.2,97.5,220,98.1z"/>
						<g id="XMLID_437_">
							<path class="st7" d="M220.2,98.5c-1.9,0.5-2.8,1.9-2,3.2c0.8,1.3,2.9,1.9,4.8,1.3c1.9-0.5,2.8-1.9,2-3.2
								C224.3,98.6,222.1,98,220.2,98.5z"/>
							<path class="st6" d="M220.2,98.5c0,0-0.3,0.1-0.8,0.3c-0.2,0.1-0.5,0.3-0.8,0.5c-0.3,0.3-0.5,0.6-0.6,1
								c-0.1,0.4,0,0.9,0.3,1.3c0.3,0.4,0.7,0.7,1.2,0.9c1,0.4,2.3,0.5,3.4,0.2c0.6-0.2,1.1-0.4,1.5-0.8c0.4-0.4,0.7-0.9,0.7-1.4
								c0-0.5-0.3-1-0.7-1.3c-0.4-0.3-0.8-0.6-1.2-0.7c-0.9-0.3-1.6-0.3-2.2-0.3C220.5,98.4,220.2,98.5,220.2,98.5z M220.2,98.5
								c0,0,0.3-0.1,0.8-0.2c0.5-0.1,1.3-0.1,2.2,0.2c0.4,0.1,0.9,0.3,1.3,0.7c0.4,0.3,0.8,0.8,0.8,1.4c0.1,0.6-0.3,1.2-0.7,1.6
								c-0.4,0.4-1,0.7-1.6,0.8c-1.2,0.3-2.5,0.2-3.5-0.3c-0.5-0.2-1-0.6-1.3-1c-0.3-0.4-0.4-1-0.3-1.4c0.1-0.5,0.4-0.8,0.7-1
								c0.3-0.2,0.6-0.4,0.8-0.5C219.9,98.5,220.2,98.5,220.2,98.5z"/>
						</g>
						<path id="XMLID_436_" class="st8" d="M223.6,101.3c0-0.2-0.3-0.4-0.7-0.4c-0.4,0-0.6,0.2-0.6,0.4s0.3,0.4,0.7,0.4
							C223.3,101.6,223.6,101.5,223.6,101.3z"/>
						<path id="XMLID_435_" class="st8" d="M220.9,101.2c0-0.2-0.3-0.4-0.7-0.4c-0.4,0-0.6,0.2-0.6,0.4s0.3,0.4,0.7,0.4
							C220.6,101.6,220.9,101.4,220.9,101.2z"/>
						<path id="XMLID_434_" class="st8" d="M223.6,99.5c0-0.2-0.3-0.4-0.7-0.4c-0.4,0-0.6,0.2-0.6,0.4s0.3,0.4,0.7,0.4
							C223.3,99.8,223.6,99.7,223.6,99.5z"/>
						<path id="XMLID_433_" class="st8" d="M220.9,99.5c0-0.2-0.3-0.4-0.7-0.4c-0.4,0-0.6,0.2-0.6,0.4s0.3,0.4,0.7,0.4
							C220.6,99.8,220.9,99.7,220.9,99.5z"/>
						<line id="XMLID_432_" class="st18" x1="222.9" y1="101.2" x2="220.2" y2="99.2"/>
						<line id="XMLID_431_" class="st18" x1="222.8" y1="101.4" x2="220.2" y2="99.5"/>
						<line id="XMLID_430_" class="st18" x1="222.9" y1="99.3" x2="220.2" y2="101.2"/>
						<line id="XMLID_429_" class="st18" x1="222.9" y1="99.6" x2="220.2" y2="101.4"/>
					</g>
					<polyline class="st12" points="164.1,100.9 102,251.7 102,840 					"/>
					<path class="st7" d="M128.6,99c0,0,1.4,7.8-1.6,15c-3,7.1-19.3,42-25.1,58.3s-17.6,41.4-17.6,41.4L91,219l51.2-114
						c0,0-2.5-0.3-5.9-1.5C133.1,102.3,128.6,99,128.6,99z"/>
					<path class="st3" d="M128.6,99c0,0,1.4,7.8-1.6,15c-3,7.1-19.3,42-25.1,58.3s-17,40.9-17,40.9"/>
					<g>
						<path class="st19" d="M157.9,7.4c0,0-3.8-15-39.3-15s-73.4,0-73.4,0S21.7-5.4,14.9,2.9C-26.4,53,59,154.7,59,154.7l27.3,61.3
							L142,96.7l25.8-59.5L157.9,7.4z"/>
						<g>
							<polygon class="st5" points="12.2,51.6 87.3,193.6 158.4,51.6 144.7,93.3 86.7,216.1 64,161.6 31.7,115.6 14.5,75.8 							
								"/>
							<polygon class="st6" points="12.2,51.6 87.3,202.6 158.4,51.6 144.7,93.3 86.3,215.3 65.1,168.6 31.7,128.9 14.5,89.1 
															"/>
						</g>
						<path class="st3" d="M157.9,42.6c0,0-3.7-14.5-73.5-14.5S10.7,42.6,10.7,42.6L3.8,28.7L5.5,10L16.8-1.2c0,0-4.8-6.4,67.5-6.4
							s67.8,7.9,67.8,7.9l11.9,13.1l3.7,23.9L157.9,42.6z"/>
						<g>
							<path class="st6" d="M25.7,0.7c0,0-3.7,9.8-3.2,19s2,14.5,2,14.5l-13.8,8.3c0,0-3.4-25,0.6-30.3S17.3,3.6,25.7,0.7z"/>
							<path class="st5" d="M30.1-0.3c0,0-2.3,9.7-1.7,19.2s1.7,14.3,1.7,14.3l-8.5,2.5c0,0-3.8-5.8-3-18
								c0.8-12.2,3.1-15.5,3.1-15.5L30.1-0.3z"/>
							<path class="st4" d="M34.1-1.7c0,0-2.3,10.5-2.1,19.4c0.2,8.9,1,15,1,15l-4.5,0.5c0,0-4.2-7.6-3.4-17.5s3.4-16.1,3.4-16.1
								L34.1-1.7z"/>
						</g>
						<g>
							<path class="st6" d="M143.3,0.7c0,0,3.7,9.8,3.2,19s-2,14.5-2,14.5l13.8,8.3c0,0,3.4-25-0.6-30.3
								C153.7,6.9,151.7,3.6,143.3,0.7z"/>
							<path class="st5" d="M138.9-0.3c0,0,2.3,9.7,1.7,19.2s-1.7,14.3-1.7,14.3l8.5,2.5c0,0,3.8-5.8,3-18s-3.1-15.5-3.1-15.5
								L138.9-0.3z"/>
							<path class="st4" d="M134.9-1.7c0,0,2.3,10.5,2.1,19.4s-1,15-1,15l4.5,0.5c0,0,4.2-7.6,3.4-17.5c-0.7-9.9-3.4-16.1-3.4-16.1
								L134.9-1.7z"/>
						</g>
						<path class="st7" d="M41.9,101.3c0,0-0.3-1.6,1.6,8.9c1.3,7.6,6.4,22.3,23.2,62.1c6.7,15.9,16.2,38.2,16.2,38.2L75,223.2
							L7.3,85.3c0,0,15.5,8.8,21.7,11.2C32.3,97.8,41.9,101.3,41.9,101.3z"/>
						<path class="st12" d="M158.1,93.3c0,0,9.4-42.7,1-55.5c-8.3-12.9-19.9-15.8-39.6-16c-19.7-0.2-61.6,0-61.6,0l-23.6,1.5
							c0,0-20.2-1.2-22.2,10.1"/>
						<g>
							<polygon class="st4" points="147.6,104.9 203.8,159.3 179.8,91.1 159.6,97.6 							"/>
							<polygon class="st5" points="159.8,100.1 203.8,159.3 186.5,82.3 165.8,92.8 							"/>
							<path class="st6" d="M167.5,99.9c0,0,32.4,51.9,32.1,51.2c-0.3-0.6-21.6-64.5-21.6-64.5L167.5,99.9z"/>
						</g>
						<path class="st3" d="M128.6,99c0,0,18.5,10.9,32.7,3.4c14.2-7.5,11.3-9.3,11.3-9.3l-14.6-29.1c0,0-4.4,7.7-19.2,12.7
							C124.1,81.5,128.6,99,128.6,99z"/>
						<g>
							<defs>
								<path id="SVGID_21_" d="M130,98.5c0,0,17.6,10.4,31.1,3.2c13.5-7.2,10.7-8.9,10.7-8.9L158,65.2c0,0-4.2,7.3-18.2,12
									C125.7,82,130,98.5,130,98.5z"/>
							</defs>
							<clipPath id="SVGID_5_">
								<use xlink:href="#SVGID_21_"  style="overflow:visible;"/>
							</clipPath>
							<path class="st20" d="M147.4,72.4c0.3-0.2,14,30,14,30l10.8-6.9l-12.4-34.8L147.4,72.4z"/>
							<polygon class="st21" points="150.1,71.4 140.6,76 151.5,106.2 162.6,102 							"/>
							<polygon class="st22" points="154.7,67.8 170.1,97 176,92.1 160.8,62.7 							"/>
						</g>
						<path class="st16" d="M151,87.2l-4-0.8c-1.1-0.3-2.3-0.5-3.4-0.5l-4-0.4c-0.4,0-0.4,0.5-0.1,0.6l3.9,0.8
							c1.1,0.3,2.2,0.4,3.4,0.5l4.2,0.4C151.3,87.8,151.4,87.3,151,87.2z"/>
						<path class="st11" d="M159.8,45.8c0,0-3.8-17.7-64.2-17.7c-19.9,0-25,0-25,0"/>
						<path class="st12" d="M156.3,63.9h1.8c0,0,14.6,25.3,26.2,50c10.4,22.2,19.7,43.9,20.6,45.4c0,0,3.6,3.1,3.6-2.5
							c0-5.6-4.6-61-4.6-61"/>
						<g>
							<g>
								<polygon class="st4" points="38.6,98.5 -35.2,159.3 -11.2,91.1 12.3,84.7 								"/>
								<polygon class="st5" points="17.5,87.5 -35.2,159.3 -17.9,82.3 5.8,83 								"/>
								<polygon class="st6" points="7.3,83.7 -33.6,158 -6.5,73.7 								"/>
							</g>
							<path class="st3" d="M41.9,101.3c0,0-12.8-3.9-27-11.5s-13.7-6-13.7-6l9.4-19.9c0,0,10.9,7.2,19.2,12.7
								c4.1,2.7,10.9,5.8,11,8.2C41,93.4,41.9,101.3,41.9,101.3z"/>
							<g id="XMLID_411_">
								<polygon id="XMLID_426_" class="st16" points="15.6,75.2 14.5,78.4 15.5,81.2 16.8,78.5 								"/>
								<g>
									<ellipse id="XMLID_425_" class="st4" cx="15.7" cy="77.8" rx="4.4" ry="2.8"/>
									<ellipse id="XMLID_424_" class="st13" cx="15.7" cy="77.6" rx="4.2" ry="2.7"/>
								</g>
								<path id="XMLID_423_" class="st17" d="M17.3,79.3c2.2-0.6,3.3-2.3,2.4-3.8c-0.9-1.5-3.5-2.2-5.7-1.6
									c-2.2,0.6-3.3,2.3-2.4,3.8C12.6,79.2,15.1,79.9,17.3,79.3z"/>
								<g id="XMLID_421_">
									<path class="st7" d="M17.1,78.9c1.9-0.5,2.8-1.9,2-3.2c-0.8-1.3-2.9-1.9-4.8-1.3c-1.9,0.5-2.8,1.9-2,3.2
										S15.2,79.4,17.1,78.9z"/>
									<path class="st6" d="M17.1,78.9c0,0,0.3-0.1,0.8-0.3c0.2-0.1,0.5-0.3,0.8-0.5c0.3-0.3,0.5-0.6,0.6-1c0.1-0.4,0-0.9-0.3-1.3
										c-0.3-0.4-0.7-0.7-1.2-0.9c-1-0.4-2.3-0.5-3.4-0.2c-0.6,0.2-1.1,0.4-1.5,0.8c-0.4,0.4-0.7,0.9-0.7,1.4c0,0.5,0.3,1,0.7,1.3
										c0.4,0.3,0.8,0.6,1.2,0.7c0.9,0.3,1.6,0.3,2.2,0.3C16.8,78.9,17.1,78.9,17.1,78.9z M17.1,78.9c0,0-0.3,0.1-0.8,0.2
										c-0.5,0.1-1.3,0.1-2.2-0.2c-0.4-0.1-0.9-0.3-1.3-0.7c-0.4-0.3-0.8-0.8-0.8-1.4c-0.1-0.6,0.3-1.2,0.7-1.6
										c0.4-0.4,1-0.7,1.6-0.8c1.2-0.3,2.5-0.2,3.5,0.3c0.5,0.2,1,0.6,1.3,1c0.3,0.4,0.4,1,0.3,1.4c-0.1,0.5-0.4,0.8-0.7,1
										c-0.3,0.2-0.6,0.4-0.8,0.5C17.4,78.8,17.1,78.9,17.1,78.9z"/>
								</g>
								<path id="XMLID_420_" class="st8" d="M13.7,76.1c0,0.2,0.3,0.4,0.7,0.4s0.6-0.2,0.6-0.4c0-0.2-0.3-0.4-0.7-0.4
									C14,75.7,13.7,75.9,13.7,76.1z"/>
								<path id="XMLID_419_" class="st8" d="M16.4,76.1c0,0.2,0.3,0.4,0.7,0.4c0.4,0,0.6-0.2,0.6-0.4c0-0.2-0.3-0.4-0.7-0.4
									C16.7,75.8,16.4,75.9,16.4,76.1z"/>
								<path id="XMLID_418_" class="st8" d="M13.7,77.9c0,0.2,0.3,0.4,0.7,0.4c0.4,0,0.6-0.2,0.6-0.4c0-0.2-0.3-0.4-0.7-0.4
									C14,77.5,13.7,77.7,13.7,77.9z"/>
								<path id="XMLID_417_" class="st8" d="M16.4,77.9c0,0.2,0.3,0.4,0.7,0.4c0.4,0,0.6-0.2,0.6-0.4c0-0.2-0.3-0.4-0.7-0.4
									C16.7,77.5,16.4,77.7,16.4,77.9z"/>
								<line id="XMLID_416_" class="st18" x1="14.4" y1="76.2" x2="17.1" y2="78.1"/>
								<line id="XMLID_415_" class="st18" x1="14.5" y1="76" x2="17.1" y2="77.9"/>
								<line id="XMLID_414_" class="st18" x1="14.4" y1="78" x2="17.1" y2="76.2"/>
								<line id="XMLID_412_" class="st18" x1="14.4" y1="77.8" x2="17.1" y2="76"/>
							</g>
							<g>
								<defs>
									<path id="SVGID_19_" d="M38.6,98.5c0,0-10.9-3-24.5-9.9c-11.8-6-12.9-5.3-12.9-5.3l9.5-18.1c0,0,12.3,6.9,18.2,12
										C40,86.9,38.6,98.5,38.6,98.5z"/>
								</defs>
								<clipPath id="SVGID_6_">
									<use xlink:href="#SVGID_19_"  style="overflow:visible;"/>
								</clipPath>
								<path class="st23" d="M25.7,73C25.4,72.8,9.1,99,9.1,99L-4,92.2L8.3,57.5L25.7,73z"/>
								<polygon class="st24" points="13.7,66.8 5.5,85.3 -5.2,79.1 7.3,62 								"/>
								<polygon class="st25" points="24.3,74.8 29.6,77.7 11.3,106.7 5.9,102.6 								"/>
							</g>
							<path class="st11" d="M8.8,45.8c0,0,3.8-17.7,64.2-17.7c6.7,0,25,0,25,0"/>
							<path class="st12" d="M12.3,63.9h-1.8c0,0-14.6,25.3-26.2,50c-10.4,22.2-19.7,43.9-20.6,45.4c0,0-3.6,3.1-3.6-2.5
								c0-5.6,4.6-61,4.6-61"/>
						</g>
						<path class="st11" d="M15.7,67.8l24.9,14.6c0,0,0.5,30.4,9.2,50.2s36.5,83.6,36.5,83.6"/>
						<path class="st3" d="M204.3,94.3l-16.8-26.7c0,0-9.3-39.7-20.9-59.4c0,0-9.4-21.7-83.1-21.7C9.8-13.6,3.8,5.8,3.8,5.8
							C3.1,6.5,2.5,7.3,2,8.1C-9.6,27.9-18.9,67.6-18.9,67.6l-16.8,26.7c0,0-8.1,61.6-5.2,65.1c2.9,3.5,5.2,4.1,11-11
							c5.8-15.1,37.2-76.7,40.5-82.9l5.1,2.3c-4-6.8-6.6-34.7-5.4-51.3C11.9-6.7,74-7.6,82.5-7.6c0,0-0.1,0-0.1,0s0.2,0,0.5,0
							c0.3,0,0.5,0,0.5,0s0,0-0.1,0c8.7,0,73.3,0.9,74.9,24.2c1.2,16.6-1.4,44.4-5.4,51.3l5.1-2.3c3.4,6.2,34.7,67.8,40.5,82.9
							s8.1,14.5,11,11C212.5,155.9,204.3,94.3,204.3,94.3z"/>
					</g>
					<g id="XMLID_396_">
						<polygon id="XMLID_410_" class="st16" points="-52.8,99.4 -51.8,102.6 -52.8,105.3 -54.1,102.6 						"/>
						<g>
							<ellipse id="XMLID_409_" class="st4" cx="-52.9" cy="101.9" rx="4.4" ry="2.8"/>
							<ellipse id="XMLID_408_" class="st13" cx="-53" cy="101.7" rx="4.2" ry="2.7"/>
						</g>
						<path id="XMLID_407_" class="st17" d="M-51.3,98.1c2.2,0.6,3.3,2.3,2.4,3.8c-0.9,1.5-3.5,2.2-5.7,1.6
							c-2.2-0.6-3.3-2.3-2.4-3.8C-56,98.2-53.5,97.5-51.3,98.1z"/>
						<g id="XMLID_405_">
							<path class="st7" d="M-51.5,98.5c1.9,0.5,2.8,1.9,2,3.2c-0.8,1.3-2.9,1.9-4.8,1.3c-1.9-0.5-2.8-1.9-2-3.2
								C-55.6,98.6-53.4,98-51.5,98.5z"/>
							<path class="st6" d="M-51.5,98.5c0,0,0.3,0.1,0.8,0.3c0.2,0.1,0.5,0.3,0.8,0.5c0.3,0.2,0.6,0.6,0.7,1.1
								c0.1,0.5,0.1,1-0.2,1.5c-0.3,0.5-0.8,0.8-1.3,1.1c-1.1,0.5-2.4,0.6-3.6,0.3c-0.6-0.2-1.2-0.5-1.7-0.9
								c-0.5-0.4-0.8-1.1-0.7-1.7c0.1-0.6,0.4-1.1,0.9-1.5c0.4-0.3,0.9-0.5,1.3-0.7c0.9-0.3,1.7-0.2,2.2-0.2
								C-51.8,98.4-51.5,98.5-51.5,98.5z M-51.5,98.5c0,0-0.3-0.1-0.8-0.1c-0.5-0.1-1.3-0.1-2.2,0.2c-0.4,0.1-0.9,0.3-1.3,0.7
								c-0.4,0.3-0.7,0.8-0.8,1.4c-0.1,0.6,0.3,1.1,0.7,1.5c0.4,0.4,1,0.7,1.6,0.8c1.2,0.3,2.4,0.2,3.5-0.3c0.5-0.2,1-0.6,1.3-1
								c0.3-0.4,0.4-1,0.3-1.4c-0.1-0.4-0.4-0.8-0.7-1c-0.3-0.2-0.6-0.4-0.8-0.5C-51.2,98.6-51.5,98.5-51.5,98.5z"/>
						</g>
						<path id="XMLID_404_" class="st8" d="M-54.9,101.3c0-0.2,0.3-0.4,0.7-0.4c0.4,0,0.6,0.2,0.6,0.4c0,0.2-0.3,0.4-0.7,0.4
							C-54.6,101.6-54.9,101.5-54.9,101.3z"/>
						<path id="XMLID_403_" class="st8" d="M-52.2,101.2c0-0.2,0.3-0.4,0.7-0.4c0.4,0,0.6,0.2,0.6,0.4c0,0.2-0.3,0.4-0.7,0.4
							C-51.9,101.6-52.2,101.4-52.2,101.2z"/>
						<path id="XMLID_402_" class="st8" d="M-54.9,99.5c0-0.2,0.3-0.4,0.7-0.4c0.4,0,0.6,0.2,0.6,0.4c0,0.2-0.3,0.4-0.7,0.4
							C-54.6,99.8-54.9,99.7-54.9,99.5z"/>
						<path id="XMLID_401_" class="st8" d="M-52.2,99.5c0-0.2,0.3-0.4,0.7-0.4c0.4,0,0.6,0.2,0.6,0.4c0,0.2-0.3,0.4-0.7,0.4
							C-51.9,99.8-52.2,99.7-52.2,99.5z"/>
						<line id="XMLID_400_" class="st18" x1="-54.1" y1="101.2" x2="-51.5" y2="99.2"/>
						<line id="XMLID_399_" class="st18" x1="-54.1" y1="101.4" x2="-51.5" y2="99.5"/>
						<line id="XMLID_398_" class="st18" x1="-54.2" y1="99.3" x2="-51.5" y2="101.2"/>
						<line id="XMLID_397_" class="st18" x1="-54.2" y1="99.6" x2="-51.5" y2="101.4"/>
					</g>
					<g>
						<g id="XMLID_382_">
							<g>
								<g id="XMLID_395_">
									<ellipse class="st4" cx="49.2" cy="167.1" rx="5.7" ry="5.9"/>
								</g>
								<g id="XMLID_394_">
									<circle class="st13" cx="49.2" cy="166.7" r="5.5"/>
								</g>
							</g>
							<g id="XMLID_393_">
								<polygon class="st8" points="56,165.7 49.6,164.5 42.3,165.4 49.5,167.3 								"/>
								<path class="st14" d="M49.5,167.4L49.5,167.4l-7.5-2l7.7-0.9l0,0l6.7,1.2L49.5,167.4z M42.6,165.4l6.8,1.8l6.3-1.6l-6.1-1.1
									L42.6,165.4z"/>
							</g>
							<g id="XMLID_392_">
								<circle class="st7" cx="49.2" cy="165.9" r="5.5"/>
								<path class="st15" d="M49.2,171.7c-0.8,0-1.5-0.2-2.2-0.5c-1.4-0.6-2.5-1.7-3.1-3.1l0,0c-1.2-3,0.2-6.3,3.2-7.5
									c1.4-0.6,3-0.6,4.4,0c1.4,0.6,2.5,1.7,3.1,3.1c0.6,1.4,0.6,3,0,4.4c-0.6,1.4-1.7,2.5-3.1,3.1
									C50.6,171.6,49.9,171.7,49.2,171.7z M49.2,160.8c-0.7,0-1.3,0.1-1.9,0.4c-2.6,1.1-3.9,4.1-2.8,6.7l0,0
									c0.5,1.3,1.5,2.3,2.8,2.8c1.3,0.5,2.7,0.5,3.9,0c1.3-0.5,2.3-1.5,2.8-2.8c0.5-1.3,0.5-2.7,0-3.9c-0.5-1.3-1.5-2.3-2.8-2.8
									C50.5,161,49.8,160.8,49.2,160.8z"/>
							</g>
							<g id="XMLID_391_">
								<circle class="st7" cx="49.2" cy="165.9" r="4.7"/>
								<path class="st6" d="M49.2,170.8c-1.9,0-3.7-1.1-4.5-3c-1-2.5,0.2-5.3,2.6-6.3c2.5-1,5.3,0.2,6.3,2.6c1,2.5-0.2,5.3-2.6,6.3
									C50.4,170.7,49.8,170.8,49.2,170.8z M49.2,161.4c-0.6,0-1.2,0.1-1.7,0.3c-2.3,1-3.5,3.6-2.5,6c1,2.3,3.6,3.5,6,2.5
									c2.3-1,3.5-3.6,2.5-6C52.7,162.4,51,161.4,49.2,161.4z"/>
							</g>
							<g>
								<g id="XMLID_390_">
									<circle class="st8" cx="47.6" cy="167.7" r="0.9"/>
								</g>
								<g id="XMLID_389_">
									<circle class="st8" cx="47.6" cy="164.2" r="0.9"/>
								</g>
								<g id="XMLID_388_">
									<circle class="st8" cx="50.7" cy="167.7" r="0.9"/>
								</g>
								<g id="XMLID_387_">
									<circle class="st8" cx="50.7" cy="164.2" r="0.9"/>
								</g>
								<g id="XMLID_386_">
									
										<rect x="46.8" y="165.7" transform="matrix(0.6589 0.7522 -0.7522 0.6589 141.5425 19.4361)" class="st15" width="5" height="0.2"/>
								</g>
								<g id="XMLID_385_">
									
										<rect x="46.4" y="166" transform="matrix(0.6589 0.7522 -0.7522 0.6589 141.6236 19.8644)" class="st15" width="5" height="0.2"/>
								</g>
								<g id="XMLID_384_">
									
										<rect x="49.3" y="163.5" transform="matrix(0.7405 0.6721 -0.6721 0.7405 124.4448 9.9263)" class="st15" width="0.2" height="5.1"/>
								</g>
								<g id="XMLID_383_">
									
										<rect x="48.9" y="163.1" transform="matrix(0.7405 0.6721 -0.6721 0.7405 124.0894 10.0615)" class="st15" width="0.2" height="5.1"/>
								</g>
							</g>
						</g>
					</g>
					<g>
						<path class="st4" d="M-135.5,250.4c0,0,19.6,15.1,23.1,60.7c3.5,45.6,0,73.2,0,73.2s0.9-37.3-7-80.7S-135.5,250.4-135.5,250.4
							z"/>
						<path class="st5" d="M-135.5,250.4c0,0,12.3,22.1,16.5,39c4.1,16.8,5.7,64.4,5.7,64.4s-1.4-38.7-10-67.2
							C-131.9,258-135.5,250.4-135.5,250.4z"/>
					</g>
					<g>
						<path class="st4" d="M304.4,250.4c0,0-19.6,15.1-23.1,60.7s0,73.2,0,73.2s-0.9-37.3,7-80.7
							C296.3,260.2,304.4,250.4,304.4,250.4z"/>
						<path class="st5" d="M304.4,250.4c0,0-12.3,22.1-16.5,39c-4.1,16.8-5.7,64.4-5.7,64.4s1.4-38.7,10-67.2
							C300.9,258,304.4,250.4,304.4,250.4z"/>
					</g>
					<path class="st3" d="M307.9,801.2c0,0-13.5,8.2-30.2,11c-20.7,3.5-46.2,1.9-56.4,4.2c-28.4,6.2-56,24.9-153.7,24.9v45.9
						c0,0,80.8,2,159.6-11s82.6-24.2,82.6-24.2L307.9,801.2z"/>
					<path class="st12" d="M307.9,802.7c0,0-13.5,8.2-30.2,11c-20.7,3.5-46.2,1.9-56.4,4.2c-28.4,6.2-56,24.9-153.7,24.9"/>
					<g>
						<g id="XMLID_217_">
							<g>
								<g id="XMLID_381_">
									<circle class="st4" cx="223.9" cy="821.7" r="5.7"/>
								</g>
								<g id="XMLID_380_">
									<circle class="st13" cx="223.9" cy="821.5" r="5.5"/>
								</g>
							</g>
							<g id="XMLID_379_">
								<polygon class="st8" points="230.8,820.5 224.4,819.4 217,820.2 224.2,822.2 								"/>
								<path class="st14" d="M224.2,822.2L224.2,822.2l-7.5-2l7.7-0.9l0,0l6.7,1.2L224.2,822.2z M217.4,820.3l6.8,1.8l6.3-1.6
									l-6.1-1.1L217.4,820.3z"/>
							</g>
							<g id="XMLID_378_">
								<circle class="st7" cx="223.9" cy="820.8" r="5.5"/>
								<path class="st15" d="M223.9,826.5c-0.8,0-1.5-0.2-2.2-0.5c-1.4-0.6-2.5-1.7-3.1-3.1l0,0c-1.2-3,0.2-6.3,3.2-7.5
									c1.4-0.6,3-0.6,4.4,0c1.4,0.6,2.5,1.7,3.1,3.1c0.6,1.4,0.6,3,0,4.4c-0.6,1.4-1.7,2.5-3.1,3.1
									C225.4,826.4,224.7,826.5,223.9,826.5z M223.9,815.6c-0.7,0-1.3,0.1-1.9,0.4c-2.6,1.1-3.9,4.1-2.8,6.7l0,0
									c0.5,1.3,1.5,2.3,2.8,2.8c1.3,0.5,2.7,0.5,3.9,0c1.3-0.5,2.3-1.5,2.8-2.8c0.5-1.3,0.5-2.7,0-3.9c-0.5-1.3-1.5-2.3-2.8-2.8
									C225.3,815.8,224.6,815.6,223.9,815.6z"/>
							</g>
							<g id="XMLID_377_">
								<circle class="st7" cx="223.9" cy="820.8" r="4.7"/>
								<path class="st6" d="M223.9,825.6c-1.9,0-3.7-1.1-4.5-3c-1-2.5,0.2-5.3,2.6-6.3c2.5-1,5.3,0.2,6.3,2.6
									c1,2.5-0.2,5.3-2.6,6.3C225.2,825.5,224.5,825.6,223.9,825.6z M223.9,816.2c-0.6,0-1.2,0.1-1.7,0.3c-2.3,1-3.5,3.6-2.5,6
									c1,2.3,3.6,3.5,6,2.5c2.3-1,3.5-3.6,2.5-6C227.4,817.3,225.7,816.2,223.9,816.2z"/>
							</g>
							<g>
								<g id="XMLID_376_">
									<circle class="st8" cx="222.3" cy="822.5" r="0.9"/>
								</g>
								<g id="XMLID_375_">
									<circle class="st8" cx="222.4" cy="819" r="0.9"/>
								</g>
								<g id="XMLID_374_">
									<circle class="st8" cx="225.5" cy="822.5" r="0.9"/>
								</g>
								<g id="XMLID_373_">
									<circle class="st8" cx="225.5" cy="819" r="0.9"/>
								</g>
								<g id="XMLID_372_">
									
										<rect x="221.6" y="820.5" transform="matrix(0.6589 0.7522 -0.7522 0.6589 693.7145 111.3149)" class="st15" width="5" height="0.2"/>
								</g>
								<g id="XMLID_371_">
									
										<rect x="221.2" y="820.8" transform="matrix(0.6589 0.7522 -0.7522 0.6589 693.7956 111.7432)" class="st15" width="5" height="0.2"/>
								</g>
								<g id="XMLID_370_">
									
										<rect x="224.1" y="818.3" transform="matrix(0.7405 0.6721 -0.6721 0.7405 609.9003 62.4096)" class="st15" width="0.2" height="5.1"/>
								</g>
								<g id="XMLID_369_">
									
										<rect x="223.7" y="818" transform="matrix(0.7405 0.6721 -0.6721 0.7405 609.5449 62.5449)" class="st15" width="0.2" height="5.1"/>
								</g>
							</g>
						</g>
					</g>
				</g>
			</g>
		</g>
	</g>
	<g>
		<defs>
			<circle id="SVGID_7_" cx="-48.9" cy="150" r="150"/>
		</defs>
		<clipPath id="SVGID_8_">
			<use xlink:href="#SVGID_7_"  style="overflow:visible;"/>
		</clipPath>
		<g class="st26">
			<g>
				<defs>
					<circle id="SVGID_9_" cx="-48.9" cy="150" r="150"/>
				</defs>
				<clipPath id="SVGID_10_">
					<use xlink:href="#SVGID_9_"  style="overflow:visible;"/>
				</clipPath>
			</g>
			<g>
				<defs>
					<circle id="SVGID_11_" cx="-48.9" cy="150" r="150"/>
				</defs>
				<clipPath id="SVGID_12_">
					<use xlink:href="#SVGID_11_"  style="overflow:visible;"/>
				</clipPath>
				<g class="st27">
					<path class="st28" d="M-48.9,5c38.7,0,75.1,15.1,102.5,42.5S96.1,111.3,96.1,150S81,225.1,53.6,252.5S-10.2,295-48.9,295
						s-75.1-15.1-102.5-42.5s-42.5-63.8-42.5-102.5s15.1-75.1,42.5-102.5S-87.6,5-48.9,5 M-48.9,0c-82.8,0-150,67.2-150,150
						s67.2,150,150,150s150-67.2,150-150S33.9,0-48.9,0L-48.9,0z"/>
				</g>
			</g>
		</g>
	</g>
</g>
</svg>
