<?xml version="1.0" encoding="utf-8"?>
<!-- Generator: Adobe Illustrator 19.0.0, SVG Export Plug-In . SVG Version: 6.00 Build 0)  -->
<svg version="1.1" id="Layer_1" xmlns="http://www.w3.org/2000/svg" xmlns:xlink="http://www.w3.org/1999/xlink" x="0px" y="0px"
	 viewBox="-199 0 300 300" style="enable-background:new -199 0 300 300;" xml:space="preserve">
<style type="text/css">
	.st0{fill:#DDDDDD;}
	.st1{clip-path:url(#SVGID_3_);}
	.st2{clip-path:url(#SVGID_5_);}
	.st3{fill:#404041;}
	.st4{fill:#ACACAF;}
	.st5{fill:#808184;}
	.st6{fill:none;}
	.st7{clip-path:url(#SVGID_7_);}
	.st8{clip-path:url(#SVGID_9_);}
	.st9{fill:#9AA0BB;}
</style>
<g>
	<g>
		<circle id="SVGID_1_" class="st0" cx="-49" cy="150" r="150"/>
	</g>
	<g>
		<g>
			<defs>
				<circle id="SVGID_2_" cx="-49" cy="150" r="150"/>
			</defs>
			<clipPath id="SVGID_3_">
				<use xlink:href="#SVGID_2_"  style="overflow:visible;"/>
			</clipPath>
			<g class="st1">
				<g>
					<defs>
						<rect id="SVGID_4_" x="-99.9" y="-306.8" width="100" height="977.9"/>
					</defs>
					<clipPath id="SVGID_5_">
						<use xlink:href="#SVGID_4_"  style="overflow:visible;"/>
					</clipPath>
					<g class="st2">
						<g>
							<g>
								<g>
									<path class="st3" d="M-242.9,833.8V-522.9l4.4,1.3c0.8,0.2,82.5,24.6,108.1,31.8c20.5,5.7,26.9,5.7,35.8,5.1
										c21,0,89.7-32.7,90.4-33l4.9-2.4l0,1317l-95.4,53L-242.9,833.8z M-6,792.8v-1302c-16.5,7.7-69.1,31.4-88.2,31.4l0,0
										c-9.5,0.6-16.8,0.5-37.9-5.4c-22.2-6.2-86.3-25.3-103.8-30.5V827.5L-96,842.7L-6,792.8L-6,792.8z"/>
								</g>
							</g>
						</g>
						<g>
							<g>
								<g>
									<g>
										<g>
											<rect x="-208.7" y="-509" class="st4" width="3.4" height="1338.5"/>
										</g>
									</g>
								</g>
								<g>
									<g>
										<g>
											<rect x="-193.4" y="-506.5" class="st4" width="3.4" height="1331"/>
										</g>
									</g>
								</g>
								<g>
									<g>
										<g>
											<rect x="-178.2" y="-499.6" class="st4" width="3.4" height="1323.1"/>
										</g>
									</g>
								</g>
								<g>
									<g>
										<g>
											<rect x="-162.9" y="-491.1" class="st4" width="3.4" height="1307.1"/>
										</g>
									</g>
								</g>
								<g>
									<g>
										<g>
											<rect x="-147.6" y="-491.1" class="st4" width="3.4" height="1305.4"/>
										</g>
									</g>
								</g>
							</g>
							<g>
								<g>
									<g>
										<g>
											<rect x="-35.2" y="-500.2" class="st4" width="3.4" height="1300.1"/>
										</g>
									</g>
								</g>
								<g>
									<g>
										<g>
											<rect x="-50.5" y="-495.1" class="st4" width="3.4" height="1319.6"/>
										</g>
									</g>
								</g>
								<g>
									<g>
										<g>
											<rect x="-65.7" y="-488.2" class="st4" width="3.4" height="1311.7"/>
										</g>
									</g>
								</g>
								<g>
									<g>
										<g>
											<rect x="-81" y="-479.7" class="st4" width="3.4" height="1295.7"/>
										</g>
									</g>
								</g>
								<g>
									<g>
										<g>
											<rect x="-96.2" y="-479.7" class="st4" width="3.4" height="1294"/>
										</g>
									</g>
								</g>
							</g>
							<g>
								<g>
									<g>
										<path class="st5" d="M-236.5,804.4h3.4v5h-3.4V804.4z M-236.5,783.6h3.4v6.9h-3.4V783.6z M-236.5,762.9h3.4v6.9h-3.4
											V762.9z M-236.5,742.2h3.4v6.9h-3.4V742.2z M-236.5,721.5h3.4v6.9h-3.4V721.5z M-236.5,700.8h3.4v6.9h-3.4V700.8z
											 M-236.5,680.1h3.4v6.9h-3.4V680.1z M-236.5,659.4h3.4v6.9h-3.4V659.4z M-236.5,638.7h3.4v6.9h-3.4V638.7z M-236.5,618
											h3.4v6.9h-3.4V618z M-236.5,597.3h3.4v6.9h-3.4V597.3z M-236.5,576.6h3.4v6.9h-3.4V576.6z M-236.5,555.9h3.4v6.9h-3.4
											V555.9z M-236.5,535.2h3.4v6.9h-3.4V535.2z M-236.5,514.5h3.4v6.9h-3.4V514.5z M-236.5,493.8h3.4v6.9h-3.4V493.8z
											 M-236.5,473.1h3.4v6.9h-3.4V473.1z M-236.5,452.4h3.4v6.9h-3.4V452.4z M-236.5,431.7h3.4v6.9h-3.4V431.7z M-236.5,411
											h3.4v6.9h-3.4V411z M-236.5,390.3h3.4v6.9h-3.4V390.3z M-236.5,369.7h3.4v6.9h-3.4V369.7z M-236.5,349h3.4v6.9h-3.4V349z
											 M-236.5,328.3h3.4v6.9h-3.4V328.3z M-236.5,307.6h3.4v6.9h-3.4V307.6z M-236.5,286.9h3.4v6.9h-3.4V286.9z M-236.5,266.2
											h3.4v6.9h-3.4V266.2z M-236.5,245.5h3.4v6.9h-3.4V245.5z M-236.5,224.8h3.4v6.9h-3.4V224.8z M-236.5,204.1h3.4v6.9h-3.4
											V204.1z M-236.5,183.4h3.4v6.9h-3.4V183.4z M-236.5,162.7h3.4v6.9h-3.4V162.7z M-236.5,142h3.4v6.9h-3.4V142z
											 M-236.5,121.3h3.4v6.9h-3.4V121.3z M-236.5,100.6h3.4v6.9h-3.4V100.6z M-236.5,79.9h3.4v6.9h-3.4V79.9z M-236.5,59.2h3.4
											v6.9h-3.4V59.2z M-236.5,38.5h3.4v6.9h-3.4V38.5z M-236.5,17.8h3.4v6.9h-3.4V17.8z M-236.5-2.9h3.4V4h-3.4V-2.9z
											 M-236.5-23.6h3.4v6.9h-3.4V-23.6z M-236.5-44.3h3.4v6.9h-3.4V-44.3z M-236.5-65h3.4v6.9h-3.4V-65z M-236.5-85.7h3.4v6.9
											h-3.4V-85.7z M-236.5-106.4h3.4v6.9h-3.4V-106.4z M-236.5-127.1h3.4v6.9h-3.4V-127.1z M-236.5-147.8h3.4v6.9h-3.4V-147.8z
											 M-236.5-168.5h3.4v6.9h-3.4V-168.5z M-236.5-189.2h3.4v6.9h-3.4V-189.2z M-236.5-209.9h3.4v6.9h-3.4V-209.9z
											 M-236.5-230.6h3.4v6.9h-3.4V-230.6z M-236.5-251.3h3.4v6.9h-3.4V-251.3z M-236.5-272h3.4v6.9h-3.4V-272z M-236.5-292.7
											h3.4v6.9h-3.4V-292.7z M-236.5-313.4h3.4v6.9h-3.4V-313.4z M-236.5-334.1h3.4v6.9h-3.4V-334.1z M-236.5-354.8h3.4v6.9
											h-3.4V-354.8z M-236.5-375.5h3.4v6.9h-3.4V-375.5z M-236.5-396.2h3.4v6.9h-3.4V-396.2z M-236.5-416.9h3.4v6.9h-3.4V-416.9
											z M-236.5-437.6h3.4v6.9h-3.4V-437.6z M-236.5-458.3h3.4v6.9h-3.4V-458.3z M-236.5-479h3.4v6.9h-3.4V-479z M-236.5-499.7
											h3.4v6.9h-3.4V-499.7z M-236.5-520.4h3.4v6.9h-3.4V-520.4z"/>
									</g>
								</g>
							</g>
							<g>
								<g>
									<g>
										<path class="st5" d="M-207.6,795h3.4v6.9h-3.4V795z M-207.6,774.3h3.4v6.9h-3.4V774.3z M-207.6,753.6h3.4v6.9h-3.4V753.6z
											 M-207.6,732.9h3.4v6.9h-3.4V732.9z M-207.6,712.2h3.4v6.9h-3.4V712.2z M-207.6,691.5h3.4v6.9h-3.4V691.5z M-207.6,670.8
											h3.4v6.9h-3.4V670.8z M-207.6,650.1h3.4v6.9h-3.4V650.1z M-207.6,629.4h3.4v6.9h-3.4V629.4z M-207.6,608.7h3.4v6.9h-3.4
											V608.7z M-207.6,588h3.4v6.9h-3.4V588z M-207.6,567.3h3.4v6.9h-3.4V567.3z M-207.6,546.6h3.4v6.9h-3.4V546.6z
											 M-207.6,525.9h3.4v6.9h-3.4V525.9z M-207.6,505.2h3.4v6.9h-3.4V505.2z M-207.6,484.5h3.4v6.9h-3.4V484.5z M-207.6,463.8
											h3.4v6.9h-3.4V463.8z M-207.6,443.1h3.4v6.9h-3.4V443.1z M-207.6,422.4h3.4v6.9h-3.4V422.4z M-207.6,401.7h3.4v6.9h-3.4
											V401.7z M-207.6,381h3.4v6.9h-3.4V381z M-207.6,360.3h3.4v6.9h-3.4V360.3z M-207.6,339.6h3.4v6.9h-3.4V339.6z
											 M-207.6,318.9h3.4v6.9h-3.4V318.9z M-207.6,298.2h3.4v6.9h-3.4V298.2z M-207.6,277.5h3.4v6.9h-3.4V277.5z M-207.6,256.8
											h3.4v6.9h-3.4V256.8z M-207.6,236.1h3.4v6.9h-3.4V236.1z M-207.6,215.4h3.4v6.9h-3.4V215.4z M-207.6,194.7h3.4v6.9h-3.4
											V194.7z M-207.6,174h3.4v6.9h-3.4V174z M-207.6,153.3h3.4v6.9h-3.4V153.3z M-207.6,132.6h3.4v6.9h-3.4V132.6z
											 M-207.6,111.9h3.4v6.9h-3.4V111.9z M-207.6,91.2h3.4v6.9h-3.4V91.2z M-207.6,70.5h3.4v6.9h-3.4V70.5z M-207.6,49.8h3.4
											v6.9h-3.4V49.8z M-207.6,29.2h3.4v6.9h-3.4V29.2z M-207.6,8.5h3.4v6.9h-3.4V8.5z M-207.6-12.2h3.4v6.9h-3.4V-12.2z
											 M-207.6-32.9h3.4v6.9h-3.4V-32.9z M-207.6-53.6h3.4v6.9h-3.4V-53.6z M-207.6-74.3h3.4v6.9h-3.4V-74.3z M-207.6-95h3.4
											v6.9h-3.4V-95z M-207.6-115.7h3.4v6.9h-3.4V-115.7z M-207.6-136.4h3.4v6.9h-3.4V-136.4z M-207.6-157.1h3.4v6.9h-3.4
											V-157.1z M-207.6-177.8h3.4v6.9h-3.4V-177.8z M-207.6-198.5h3.4v6.9h-3.4V-198.5z M-207.6-219.2h3.4v6.9h-3.4V-219.2z
											 M-207.6-239.9h3.4v6.9h-3.4V-239.9z M-207.6-260.6h3.4v6.9h-3.4V-260.6z M-207.6-281.3h3.4v6.9h-3.4V-281.3z M-207.6-302
											h3.4v6.9h-3.4V-302z M-207.6-322.7h3.4v6.9h-3.4V-322.7z M-207.6-343.4h3.4v6.9h-3.4V-343.4z M-207.6-364.1h3.4v6.9h-3.4
											V-364.1z M-207.6-384.8h3.4v6.9h-3.4V-384.8z M-207.6-405.5h3.4v6.9h-3.4V-405.5z M-207.6-426.2h3.4v6.9h-3.4V-426.2z
											 M-207.6-446.9h3.4v6.9h-3.4V-446.9z M-207.6-467.6h3.4v6.9h-3.4V-467.6z M-207.6-488.3h3.4v6.9h-3.4V-488.3z M-207.6-509
											h3.4v6.9h-3.4V-509z"/>
									</g>
								</g>
							</g>
							<g>
								<g>
									<g>
										<path class="st5" d="M-192.2,799.7h3.4v6.9h-3.4V799.7z M-192.2,779h3.4v6.9h-3.4V779z M-192.2,758.3h3.4v6.9h-3.4V758.3z
											 M-192.2,737.6h3.4v6.9h-3.4V737.6z M-192.2,716.9h3.4v6.9h-3.4V716.9z M-192.2,696.2h3.4v6.9h-3.4V696.2z M-192.2,675.5
											h3.4v6.9h-3.4V675.5z M-192.2,654.8h3.4v6.9h-3.4V654.8z M-192.2,634.1h3.4v6.9h-3.4V634.1z M-192.2,613.4h3.4v6.9h-3.4
											V613.4z M-192.2,592.7h3.4v6.9h-3.4V592.7z M-192.2,572h3.4v6.9h-3.4V572z M-192.2,551.4h3.4v6.9h-3.4V551.4z
											 M-192.2,530.7h3.4v6.9h-3.4V530.7z M-192.2,510h3.4v6.9h-3.4V510z M-192.2,489.3h3.4v6.9h-3.4V489.3z M-192.2,468.6h3.4
											v6.9h-3.4V468.6z M-192.2,447.9h3.4v6.9h-3.4V447.9z M-192.2,427.2h3.4v6.9h-3.4V427.2z M-192.2,406.5h3.4v6.9h-3.4V406.5
											z M-192.2,385.8h3.4v6.9h-3.4V385.8z M-192.2,365.1h3.4v6.9h-3.4V365.1z M-192.2,344.4h3.4v6.9h-3.4V344.4z M-192.2,323.7
											h3.4v6.9h-3.4V323.7z M-192.2,303h3.4v6.9h-3.4V303z M-192.2,282.3h3.4v6.9h-3.4V282.3z M-192.2,261.6h3.4v6.9h-3.4V261.6
											z M-192.2,240.9h3.4v6.9h-3.4V240.9z M-192.2,220.2h3.4v6.9h-3.4V220.2z M-192.2,199.5h3.4v6.9h-3.4V199.5z M-192.2,178.8
											h3.4v6.9h-3.4V178.8z M-192.2,158.1h3.4v6.9h-3.4V158.1z M-192.2,137.4h3.4v6.9h-3.4V137.4z M-192.2,116.7h3.4v6.9h-3.4
											V116.7z M-192.2,96h3.4v6.9h-3.4V96z M-192.2,75.3h3.4v6.9h-3.4V75.3z M-192.2,54.6h3.4v6.9h-3.4V54.6z M-192.2,33.9h3.4
											v6.9h-3.4V33.9z M-192.2,13.2h3.4v6.9h-3.4V13.2z M-192.2-7.5h3.4v6.9h-3.4V-7.5z M-192.2-28.2h3.4v6.9h-3.4V-28.2z
											 M-192.2-48.9h3.4v6.9h-3.4V-48.9z M-192.2-69.6h3.4v6.9h-3.4V-69.6z M-192.2-90.3h3.4v6.9h-3.4V-90.3z M-192.2-111h3.4
											v6.9h-3.4V-111z M-192.2-131.7h3.4v6.9h-3.4V-131.7z M-192.2-152.4h3.4v6.9h-3.4V-152.4z M-192.2-173.1h3.4v6.9h-3.4
											V-173.1z M-192.2-193.8h3.4v6.9h-3.4V-193.8z M-192.2-214.5h3.4v6.9h-3.4V-214.5z M-192.2-235.2h3.4v6.9h-3.4V-235.2z
											 M-192.2-255.9h3.4v6.9h-3.4V-255.9z M-192.2-276.6h3.4v6.9h-3.4V-276.6z M-192.2-297.3h3.4v6.9h-3.4V-297.3z M-192.2-318
											h3.4v6.9h-3.4V-318z M-192.2-338.7h3.4v6.9h-3.4V-338.7z M-192.2-359.4h3.4v6.9h-3.4V-359.4z M-192.2-380.1h3.4v6.9h-3.4
											V-380.1z M-192.2-400.8h3.4v6.9h-3.4V-400.8z M-192.2-421.5h3.4v6.9h-3.4V-421.5z M-192.2-442.2h3.4v6.9h-3.4V-442.2z
											 M-192.2-462.9h3.4v6.9h-3.4V-462.9z M-192.2-483.6h3.4v6.9h-3.4V-483.6z M-192.2-504.3h3.4v6.9h-3.4V-504.3z"/>
									</g>
								</g>
							</g>
							<g>
								<g>
									<g>
										<path class="st5" d="M-176.8,804.5h3.4v4.9h-3.4V804.5z M-176.8,783.8h3.4v6.9h-3.4V783.8z M-176.8,763.1h3.4v6.9h-3.4
											V763.1z M-176.8,742.4h3.4v6.9h-3.4V742.4z M-176.8,721.7h3.4v6.9h-3.4V721.7z M-176.8,701h3.4v6.9h-3.4V701z
											 M-176.8,680.3h3.4v6.9h-3.4V680.3z M-176.8,659.6h3.4v6.9h-3.4V659.6z M-176.8,638.9h3.4v6.9h-3.4V638.9z M-176.8,618.2
											h3.4v6.9h-3.4V618.2z M-176.8,597.5h3.4v6.9h-3.4V597.5z M-176.8,576.8h3.4v6.9h-3.4V576.8z M-176.8,556.1h3.4v6.9h-3.4
											V556.1z M-176.8,535.4h3.4v6.9h-3.4V535.4z M-176.8,514.7h3.4v6.9h-3.4V514.7z M-176.8,494h3.4v6.9h-3.4V494z
											 M-176.8,473.3h3.4v6.9h-3.4V473.3z M-176.8,452.6h3.4v6.9h-3.4V452.6z M-176.8,431.9h3.4v6.9h-3.4V431.9z M-176.8,411.2
											h3.4v6.9h-3.4V411.2z M-176.8,390.5h3.4v6.9h-3.4V390.5z M-176.8,369.8h3.4v6.9h-3.4V369.8z M-176.8,349.1h3.4v6.9h-3.4
											V349.1z M-176.8,328.4h3.4v6.9h-3.4V328.4z M-176.8,307.7h3.4v6.9h-3.4V307.7z M-176.8,287h3.4v6.9h-3.4V287z
											 M-176.8,266.3h3.4v6.9h-3.4V266.3z M-176.8,245.6h3.4v6.9h-3.4V245.6z M-176.8,224.9h3.4v6.9h-3.4V224.9z M-176.8,204.2
											h3.4v6.9h-3.4V204.2z M-176.8,183.5h3.4v6.9h-3.4V183.5z M-176.8,162.8h3.4v6.9h-3.4V162.8z M-176.8,142.1h3.4v6.9h-3.4
											V142.1z M-176.8,121.4h3.4v6.9h-3.4V121.4z M-176.8,100.7h3.4v6.9h-3.4V100.7z M-176.8,80h3.4v6.9h-3.4V80z M-176.8,59.3
											h3.4v6.9h-3.4V59.3z M-176.8,38.6h3.4v6.9h-3.4V38.6z M-176.8,17.9h3.4v6.9h-3.4V17.9z M-176.8-2.8h3.4v6.9h-3.4V-2.8z
											 M-176.8-23.5h3.4v6.9h-3.4V-23.5z M-176.8-44.2h3.4v6.9h-3.4V-44.2z M-176.8-64.9h3.4v6.9h-3.4V-64.9z M-176.8-85.6h3.4
											v6.9h-3.4V-85.6z M-176.8-106.3h3.4v6.9h-3.4V-106.3z M-176.8-127h3.4v6.9h-3.4V-127z M-176.8-147.7h3.4v6.9h-3.4V-147.7z
											 M-176.8-168.4h3.4v6.9h-3.4V-168.4z M-176.8-189.1h3.4v6.9h-3.4V-189.1z M-176.8-209.8h3.4v6.9h-3.4V-209.8z
											 M-176.8-230.5h3.4v6.9h-3.4V-230.5z M-176.8-251.2h3.4v6.9h-3.4V-251.2z M-176.8-271.9h3.4v6.9h-3.4V-271.9z
											 M-176.8-292.6h3.4v6.9h-3.4V-292.6z M-176.8-313.3h3.4v6.9h-3.4V-313.3z M-176.8-334h3.4v6.9h-3.4V-334z M-176.8-354.7
											h3.4v6.9h-3.4V-354.7z M-176.8-375.4h3.4v6.9h-3.4V-375.4z M-176.8-396.1h3.4v6.9h-3.4V-396.1z M-176.8-416.8h3.4v6.9
											h-3.4V-416.8z M-176.8-437.5h3.4v6.9h-3.4V-437.5z M-176.8-458.2h3.4v6.9h-3.4V-458.2z M-176.8-478.9h3.4v6.9h-3.4V-478.9
											z M-176.8-499.6h3.4v6.9h-3.4V-499.6z"/>
									</g>
								</g>
							</g>
							<g>
								<g>
									<g>
										<path class="st5" d="M-161.4,788.9h3.4v6.9h-3.4V788.9z M-161.4,768.2h3.4v6.9h-3.4V768.2z M-161.4,747.5h3.4v6.9h-3.4
											V747.5z M-161.4,726.8h3.4v6.9h-3.4V726.8z M-161.4,706.1h3.4v6.9h-3.4V706.1z M-161.4,685.4h3.4v6.9h-3.4V685.4z
											 M-161.4,664.7h3.4v6.9h-3.4V664.7z M-161.4,644.1h3.4v6.9h-3.4V644.1z M-161.4,623.4h3.4v6.9h-3.4V623.4z M-161.4,602.7
											h3.4v6.9h-3.4V602.7z M-161.4,582h3.4v6.9h-3.4V582z M-161.4,561.3h3.4v6.9h-3.4V561.3z M-161.4,540.6h3.4v6.9h-3.4V540.6
											z M-161.4,519.9h3.4v6.9h-3.4V519.9z M-161.4,499.2h3.4v6.9h-3.4V499.2z M-161.4,478.5h3.4v6.9h-3.4V478.5z M-161.4,457.8
											h3.4v6.9h-3.4V457.8z M-161.4,437.1h3.4v6.9h-3.4V437.1z M-161.4,416.4h3.4v6.9h-3.4V416.4z M-161.4,395.7h3.4v6.9h-3.4
											V395.7z M-161.4,375h3.4v6.9h-3.4V375z M-161.4,354.3h3.4v6.9h-3.4V354.3z M-161.4,333.6h3.4v6.9h-3.4V333.6z
											 M-161.4,312.9h3.4v6.9h-3.4V312.9z M-161.4,292.2h3.4v6.9h-3.4V292.2z M-161.4,271.5h3.4v6.9h-3.4V271.5z M-161.4,250.8
											h3.4v6.9h-3.4V250.8z M-161.4,230.1h3.4v6.9h-3.4V230.1z M-161.4,209.4h3.4v6.9h-3.4V209.4z M-161.4,188.7h3.4v6.9h-3.4
											V188.7z M-161.4,168h3.4v6.9h-3.4V168z M-161.4,147.3h3.4v6.9h-3.4V147.3z M-161.4,126.6h3.4v6.9h-3.4V126.6z
											 M-161.4,105.9h3.4v6.9h-3.4V105.9z M-161.4,85.2h3.4v6.9h-3.4V85.2z M-161.4,64.5h3.4v6.9h-3.4V64.5z M-161.4,43.8h3.4
											v6.9h-3.4V43.8z M-161.4,23.1h3.4V30h-3.4V23.1z M-161.4,2.4h3.4v6.9h-3.4V2.4z M-161.4-18.3h3.4v6.9h-3.4V-18.3z
											 M-161.4-39h3.4v6.9h-3.4V-39z M-161.4-59.7h3.4v6.9h-3.4V-59.7z M-161.4-80.4h3.4v6.9h-3.4V-80.4z M-161.4-101.1h3.4v6.9
											h-3.4V-101.1z M-161.4-121.8h3.4v6.9h-3.4V-121.8z M-161.4-142.5h3.4v6.9h-3.4V-142.5z M-161.4-163.2h3.4v6.9h-3.4V-163.2
											z M-161.4-183.9h3.4v6.9h-3.4V-183.9z M-161.4-204.6h3.4v6.9h-3.4V-204.6z M-161.4-225.3h3.4v6.9h-3.4V-225.3z
											 M-161.4-246h3.4v6.9h-3.4V-246z M-161.4-266.7h3.4v6.9h-3.4V-266.7z M-161.4-287.4h3.4v6.9h-3.4V-287.4z M-161.4-308.1
											h3.4v6.9h-3.4V-308.1z M-161.4-328.8h3.4v6.9h-3.4V-328.8z M-161.4-349.5h3.4v6.9h-3.4V-349.5z M-161.4-370.2h3.4v6.9
											h-3.4V-370.2z M-161.4-390.9h3.4v6.9h-3.4V-390.9z M-161.4-411.6h3.4v6.9h-3.4V-411.6z M-161.4-432.3h3.4v6.9h-3.4V-432.3
											z M-161.4-453h3.4v6.9h-3.4V-453z M-161.4-473.7h3.4v6.9h-3.4V-473.7z M-161.4-494.4h3.4v6.9h-3.4V-494.4z"/>
									</g>
								</g>
							</g>
							<g>
								<g>
									<g>
										<path class="st5" d="M-146,792.2h3.4v6.9h-3.4V792.2z M-146,771.5h3.4v6.9h-3.4V771.5z M-146,750.8h3.4v6.9h-3.4V750.8z
											 M-146,730.1h3.4v6.9h-3.4V730.1z M-146,709.4h3.4v6.9h-3.4V709.4z M-146,688.7h3.4v6.9h-3.4V688.7z M-146,668h3.4v6.9
											h-3.4V668z M-146,647.3h3.4v6.9h-3.4V647.3z M-146,626.6h3.4v6.9h-3.4V626.6z M-146,605.9h3.4v6.9h-3.4V605.9z
											 M-146,585.2h3.4v6.9h-3.4V585.2z M-146,564.5h3.4v6.9h-3.4V564.5z M-146,543.8h3.4v6.9h-3.4V543.8z M-146,523.1h3.4v6.9
											h-3.4V523.1z M-146,502.4h3.4v6.9h-3.4V502.4z M-146,481.7h3.4v6.9h-3.4V481.7z M-146,461h3.4v6.9h-3.4V461z M-146,440.3
											h3.4v6.9h-3.4V440.3z M-146,419.6h3.4v6.9h-3.4V419.6z M-146,398.9h3.4v6.9h-3.4V398.9z M-146,378.2h3.4v6.9h-3.4V378.2z
											 M-146,357.5h3.4v6.9h-3.4V357.5z M-146,336.8h3.4v6.9h-3.4V336.8z M-146,316.1h3.4v6.9h-3.4V316.1z M-146,295.4h3.4v6.9
											h-3.4V295.4z M-146,274.7h3.4v6.9h-3.4V274.7z M-146,254h3.4v6.9h-3.4V254z M-146,233.3h3.4v6.9h-3.4V233.3z M-146,212.6
											h3.4v6.9h-3.4V212.6z M-146,191.9h3.4v6.9h-3.4V191.9z M-146,171.2h3.4v6.9h-3.4V171.2z M-146,150.5h3.4v6.9h-3.4V150.5z
											 M-146,129.8h3.4v6.9h-3.4V129.8z M-146,109.1h3.4v6.9h-3.4V109.1z M-146,88.4h3.4v6.9h-3.4V88.4z M-146,67.7h3.4v6.9
											h-3.4V67.7z M-146,47h3.4v6.9h-3.4V47z M-146,26.3h3.4v6.9h-3.4V26.3z M-146,5.6h3.4v6.9h-3.4V5.6z M-146-15h3.4v6.9h-3.4
											V-15z M-146-35.7h3.4v6.9h-3.4V-35.7z M-146-56.4h3.4v6.9h-3.4V-56.4z M-146-77.1h3.4v6.9h-3.4V-77.1z M-146-97.8h3.4v6.9
											h-3.4V-97.8z M-146-118.5h3.4v6.9h-3.4V-118.5z M-146-139.2h3.4v6.9h-3.4V-139.2z M-146-159.9h3.4v6.9h-3.4V-159.9z
											 M-146-180.6h3.4v6.9h-3.4V-180.6z M-146-201.3h3.4v6.9h-3.4V-201.3z M-146-222h3.4v6.9h-3.4V-222z M-146-242.7h3.4v6.9
											h-3.4V-242.7z M-146-263.4h3.4v6.9h-3.4V-263.4z M-146-284.1h3.4v6.9h-3.4V-284.1z M-146-304.8h3.4v6.9h-3.4V-304.8z
											 M-146-325.5h3.4v6.9h-3.4V-325.5z M-146-346.2h3.4v6.9h-3.4V-346.2z M-146-366.9h3.4v6.9h-3.4V-366.9z M-146-387.6h3.4
											v6.9h-3.4V-387.6z M-146-408.3h3.4v6.9h-3.4V-408.3z M-146-429h3.4v6.9h-3.4V-429z M-146-449.7h3.4v6.9h-3.4V-449.7z
											 M-146-470.4h3.4v6.9h-3.4V-470.4z M-146-491.1h3.4v6.9h-3.4V-491.1z"/>
									</g>
								</g>
							</g>
							<g>
								<g>
									<g>
										<path class="st5" d="M-9.3,795h3.4v6.9h-3.4V795z M-9.3,774.3h3.4v6.9h-3.4V774.3z M-9.3,753.6h3.4v6.9h-3.4V753.6z
											 M-9.3,732.9h3.4v6.9h-3.4V732.9z M-9.3,712.2h3.4v6.9h-3.4V712.2z M-9.3,691.5h3.4v6.9h-3.4V691.5z M-9.3,670.8h3.4v6.9
											h-3.4V670.8z M-9.3,650.1h3.4v6.9h-3.4V650.1z M-9.3,629.4h3.4v6.9h-3.4V629.4z M-9.3,608.7h3.4v6.9h-3.4V608.7z
											 M-9.3,588h3.4v6.9h-3.4V588z M-9.3,567.3h3.4v6.9h-3.4V567.3z M-9.3,546.6h3.4v6.9h-3.4V546.6z M-9.3,525.9h3.4v6.9h-3.4
											V525.9z M-9.3,505.2h3.4v6.9h-3.4V505.2z M-9.3,484.5h3.4v6.9h-3.4V484.5z M-9.3,463.8h3.4v6.9h-3.4V463.8z M-9.3,443.1
											h3.4v6.9h-3.4V443.1z M-9.3,422.4h3.4v6.9h-3.4V422.4z M-9.3,401.7h3.4v6.9h-3.4V401.7z M-9.3,381h3.4v6.9h-3.4V381z
											 M-9.3,360.3h3.4v6.9h-3.4V360.3z M-9.3,339.6h3.4v6.9h-3.4V339.6z M-9.3,318.9h3.4v6.9h-3.4V318.9z M-9.3,298.2h3.4v6.9
											h-3.4V298.2z M-9.3,277.5h3.4v6.9h-3.4V277.5z M-9.3,256.8h3.4v6.9h-3.4V256.8z M-9.3,236.1h3.4v6.9h-3.4V236.1z
											 M-9.3,215.4h3.4v6.9h-3.4V215.4z M-9.3,194.7h3.4v6.9h-3.4V194.7z M-9.3,174h3.4v6.9h-3.4V174z M-9.3,153.3h3.4v6.9h-3.4
											V153.3z M-9.3,132.6h3.4v6.9h-3.4V132.6z M-9.3,111.9h3.4v6.9h-3.4V111.9z M-9.3,91.2h3.4v6.9h-3.4V91.2z M-9.3,70.5h3.4
											v6.9h-3.4V70.5z M-9.3,49.8h3.4v6.9h-3.4V49.8z M-9.3,29.1h3.4V36h-3.4V29.1z M-9.3,8.4h3.4v6.9h-3.4V8.4z M-9.3-12.3h3.4
											v6.9h-3.4V-12.3z M-9.3-32.9h3.4v6.9h-3.4V-32.9z M-9.3-53.6h3.4v6.9h-3.4V-53.6z M-9.3-74.3h3.4v6.9h-3.4V-74.3z
											 M-9.3-95h3.4v6.9h-3.4V-95z M-9.3-115.7h3.4v6.9h-3.4V-115.7z M-9.3-136.4h3.4v6.9h-3.4V-136.4z M-9.3-157.1h3.4v6.9
											h-3.4V-157.1z M-9.3-177.8h3.4v6.9h-3.4V-177.8z M-9.3-198.5h3.4v6.9h-3.4V-198.5z M-9.3-219.2h3.4v6.9h-3.4V-219.2z
											 M-9.3-239.9h3.4v6.9h-3.4V-239.9z M-9.3-260.6h3.4v6.9h-3.4V-260.6z M-9.3-281.3h3.4v6.9h-3.4V-281.3z M-9.3-302h3.4v6.9
											h-3.4V-302z M-9.3-322.7h3.4v6.9h-3.4V-322.7z M-9.3-343.4h3.4v6.9h-3.4V-343.4z M-9.3-364.1h3.4v6.9h-3.4V-364.1z
											 M-9.3-384.8h3.4v6.9h-3.4V-384.8z M-9.3-405.5h3.4v6.9h-3.4V-405.5z M-9.3-426.2h3.4v6.9h-3.4V-426.2z M-9.3-446.9h3.4
											v6.9h-3.4V-446.9z M-9.3-467.6h3.4v6.9h-3.4V-467.6z M-9.3-488.3h3.4v6.9h-3.4V-488.3z M-9.3-509h3.4v6.9h-3.4V-509z"/>
									</g>
								</g>
							</g>
							<g>
								<g>
									<g>
										<path class="st5" d="M-38.2,806.4h3.4v3h-3.4V806.4z M-38.2,785.7h3.4v6.9h-3.4V785.7z M-38.2,765h3.4v6.9h-3.4V765z
											 M-38.2,744.3h3.4v6.9h-3.4V744.3z M-38.2,723.6h3.4v6.9h-3.4V723.6z M-38.2,702.9h3.4v6.9h-3.4V702.9z M-38.2,682.2h3.4
											v6.9h-3.4V682.2z M-38.2,661.5h3.4v6.9h-3.4V661.5z M-38.2,640.8h3.4v6.9h-3.4V640.8z M-38.2,620.1h3.4v6.9h-3.4V620.1z
											 M-38.2,599.4h3.4v6.9h-3.4V599.4z M-38.2,578.7h3.4v6.9h-3.4V578.7z M-38.2,558h3.4v6.9h-3.4V558z M-38.2,537.3h3.4v6.9
											h-3.4V537.3z M-38.2,516.6h3.4v6.9h-3.4V516.6z M-38.2,495.9h3.4v6.9h-3.4V495.9z M-38.2,475.2h3.4v6.9h-3.4V475.2z
											 M-38.2,454.5h3.4v6.9h-3.4V454.5z M-38.2,433.8h3.4v6.9h-3.4V433.8z M-38.2,413.1h3.4v6.9h-3.4V413.1z M-38.2,392.4h3.4
											v6.9h-3.4V392.4z M-38.2,371.7h3.4v6.9h-3.4V371.7z M-38.2,351h3.4v6.9h-3.4V351z M-38.2,330.3h3.4v6.9h-3.4V330.3z
											 M-38.2,309.6h3.4v6.9h-3.4V309.6z M-38.2,288.9h3.4v6.9h-3.4V288.9z M-38.2,268.2h3.4v6.9h-3.4V268.2z M-38.2,247.5h3.4
											v6.9h-3.4V247.5z M-38.2,226.8h3.4v6.9h-3.4V226.8z M-38.2,206.1h3.4v6.9h-3.4V206.1z M-38.2,185.4h3.4v6.9h-3.4V185.4z
											 M-38.2,164.7h3.4v6.9h-3.4V164.7z M-38.2,144h3.4v6.9h-3.4V144z M-38.2,123.3h3.4v6.9h-3.4V123.3z M-38.2,102.6h3.4v6.9
											h-3.4V102.6z M-38.2,81.9h3.4v6.9h-3.4V81.9z M-38.2,61.2h3.4v6.9h-3.4V61.2z M-38.2,40.5h3.4v6.9h-3.4V40.5z M-38.2,19.8
											h3.4v6.9h-3.4V19.8z M-38.2-0.9h3.4V6h-3.4V-0.9z M-38.2-21.6h3.4v6.9h-3.4V-21.6z M-38.2-42.3h3.4v6.9h-3.4V-42.3z
											 M-38.2-63h3.4v6.9h-3.4V-63z M-38.2-83.7h3.4v6.9h-3.4V-83.7z M-38.2-104.4h3.4v6.9h-3.4V-104.4z M-38.2-125.1h3.4v6.9
											h-3.4V-125.1z M-38.2-145.8h3.4v6.9h-3.4V-145.8z M-38.2-166.5h3.4v6.9h-3.4V-166.5z M-38.2-187.2h3.4v6.9h-3.4V-187.2z
											 M-38.2-207.9h3.4v6.9h-3.4V-207.9z M-38.2-228.6h3.4v6.9h-3.4V-228.6z M-38.2-249.3h3.4v6.9h-3.4V-249.3z M-38.2-270h3.4
											v6.9h-3.4V-270z M-38.2-290.7h3.4v6.9h-3.4V-290.7z M-38.2-311.4h3.4v6.9h-3.4V-311.4z M-38.2-332.1h3.4v6.9h-3.4V-332.1z
											 M-38.2-352.7h3.4v6.9h-3.4V-352.7z M-38.2-373.4h3.4v6.9h-3.4V-373.4z M-38.2-394.1h3.4v6.9h-3.4V-394.1z M-38.2-414.8
											h3.4v6.9h-3.4V-414.8z M-38.2-435.5h3.4v6.9h-3.4V-435.5z M-38.2-456.2h3.4v6.9h-3.4V-456.2z M-38.2-476.9h3.4v6.9h-3.4
											V-476.9z M-38.2-497.6h3.4v6.9h-3.4V-497.6z"/>
									</g>
								</g>
							</g>
							<g>
								<g>
									<g>
										<path class="st5" d="M-53.6,790.4h3.4v6.9h-3.4V790.4z M-53.6,769.7h3.4v6.9h-3.4V769.7z M-53.6,749h3.4v6.9h-3.4V749z
											 M-53.6,728.3h3.4v6.9h-3.4V728.3z M-53.6,707.6h3.4v6.9h-3.4V707.6z M-53.6,686.9h3.4v6.9h-3.4V686.9z M-53.6,666.2h3.4
											v6.9h-3.4V666.2z M-53.6,645.5h3.4v6.9h-3.4V645.5z M-53.6,624.8h3.4v6.9h-3.4V624.8z M-53.6,604.1h3.4v6.9h-3.4V604.1z
											 M-53.6,583.4h3.4v6.9h-3.4V583.4z M-53.6,562.7h3.4v6.9h-3.4V562.7z M-53.6,542h3.4v6.9h-3.4V542z M-53.6,521.3h3.4v6.9
											h-3.4V521.3z M-53.6,500.6h3.4v6.9h-3.4V500.6z M-53.6,479.9h3.4v6.9h-3.4V479.9z M-53.6,459.2h3.4v6.9h-3.4V459.2z
											 M-53.6,438.5h3.4v6.9h-3.4V438.5z M-53.6,417.8h3.4v6.9h-3.4V417.8z M-53.6,397.1h3.4v6.9h-3.4V397.1z M-53.6,376.4h3.4
											v6.9h-3.4V376.4z M-53.6,355.7h3.4v6.9h-3.4V355.7z M-53.6,335h3.4v6.9h-3.4V335z M-53.6,314.3h3.4v6.9h-3.4V314.3z
											 M-53.6,293.6h3.4v6.9h-3.4V293.6z M-53.6,272.9h3.4v6.9h-3.4V272.9z M-53.6,252.2h3.4v6.9h-3.4V252.2z M-53.6,231.5h3.4
											v6.9h-3.4V231.5z M-53.6,210.8h3.4v6.9h-3.4V210.8z M-53.6,190.1h3.4v6.9h-3.4V190.1z M-53.6,169.5h3.4v6.9h-3.4V169.5z
											 M-53.6,148.8h3.4v6.9h-3.4V148.8z M-53.6,128.1h3.4v6.9h-3.4V128.1z M-53.6,107.4h3.4v6.9h-3.4V107.4z M-53.6,86.7h3.4
											v6.9h-3.4V86.7z M-53.6,66h3.4v6.9h-3.4V66z M-53.6,45.3h3.4v6.9h-3.4V45.3z M-53.6,24.6h3.4v6.9h-3.4V24.6z M-53.6,3.9
											h3.4v6.9h-3.4V3.9z M-53.6-16.8h3.4v6.9h-3.4V-16.8z M-53.6-37.5h3.4v6.9h-3.4V-37.5z M-53.6-58.2h3.4v6.9h-3.4V-58.2z
											 M-53.6-78.9h3.4v6.9h-3.4V-78.9z M-53.6-99.6h3.4v6.9h-3.4V-99.6z M-53.6-120.3h3.4v6.9h-3.4V-120.3z M-53.6-141h3.4v6.9
											h-3.4V-141z M-53.6-161.7h3.4v6.9h-3.4V-161.7z M-53.6-182.4h3.4v6.9h-3.4V-182.4z M-53.6-203.1h3.4v6.9h-3.4V-203.1z
											 M-53.6-223.8h3.4v6.9h-3.4V-223.8z M-53.6-244.5h3.4v6.9h-3.4V-244.5z M-53.6-265.2h3.4v6.9h-3.4V-265.2z M-53.6-285.9
											h3.4v6.9h-3.4V-285.9z M-53.6-306.6h3.4v6.9h-3.4V-306.6z M-53.6-327.3h3.4v6.9h-3.4V-327.3z M-53.6-348h3.4v6.9h-3.4
											V-348z M-53.6-368.7h3.4v6.9h-3.4V-368.7z M-53.6-389.4h3.4v6.9h-3.4V-389.4z M-53.6-410.1h3.4v6.9h-3.4V-410.1z
											 M-53.6-430.8h3.4v6.9h-3.4V-430.8z M-53.6-451.5h3.4v6.9h-3.4V-451.5z M-53.6-472.2h3.4v6.9h-3.4V-472.2z M-53.6-492.9
											h3.4v6.9h-3.4V-492.9z"/>
									</g>
								</g>
							</g>
							<g>
								<g>
									<g>
										<path class="st5" d="M-69,795.1h3.4v6.9H-69V795.1z M-69,774.4h3.4v6.9H-69V774.4z M-69,753.7h3.4v6.9H-69V753.7z
											 M-69,733h3.4v6.9H-69V733z M-69,712.3h3.4v6.9H-69V712.3z M-69,691.6h3.4v6.9H-69V691.6z M-69,670.9h3.4v6.9H-69V670.9z
											 M-69,650.2h3.4v6.9H-69V650.2z M-69,629.5h3.4v6.9H-69V629.5z M-69,608.8h3.4v6.9H-69V608.8z M-69,588.1h3.4v6.9H-69
											V588.1z M-69,567.5h3.4v6.9H-69V567.5z M-69,546.8h3.4v6.9H-69V546.8z M-69,526.1h3.4v6.9H-69V526.1z M-69,505.4h3.4v6.9
											H-69V505.4z M-69,484.7h3.4v6.9H-69V484.7z M-69,464h3.4v6.9H-69V464z M-69,443.3h3.4v6.9H-69V443.3z M-69,422.6h3.4v6.9
											H-69V422.6z M-69,401.9h3.4v6.9H-69V401.9z M-69,381.2h3.4v6.9H-69V381.2z M-69,360.5h3.4v6.9H-69V360.5z M-69,339.8h3.4
											v6.9H-69V339.8z M-69,319.1h3.4v6.9H-69V319.1z M-69,298.4h3.4v6.9H-69V298.4z M-69,277.7h3.4v6.9H-69V277.7z M-69,257
											h3.4v6.9H-69V257z M-69,236.3h3.4v6.9H-69V236.3z M-69,215.6h3.4v6.9H-69V215.6z M-69,194.9h3.4v6.9H-69V194.9z
											 M-69,174.2h3.4v6.9H-69V174.2z M-69,153.5h3.4v6.9H-69V153.5z M-69,132.8h3.4v6.9H-69V132.8z M-69,112.1h3.4v6.9H-69
											V112.1z M-69,91.4h3.4v6.9H-69V91.4z M-69,70.7h3.4v6.9H-69V70.7z M-69,50h3.4v6.9H-69V50z M-69,29.3h3.4v6.9H-69V29.3z
											 M-69,8.6h3.4v6.9H-69V8.6z M-69-12.1h3.4v6.9H-69V-12.1z M-69-32.8h3.4v6.9H-69V-32.8z M-69-53.5h3.4v6.9H-69V-53.5z
											 M-69-74.2h3.4v6.9H-69V-74.2z M-69-94.9h3.4v6.9H-69V-94.9z M-69-115.6h3.4v6.9H-69V-115.6z M-69-136.3h3.4v6.9H-69
											V-136.3z M-69-157h3.4v6.9H-69V-157z M-69-177.7h3.4v6.9H-69V-177.7z M-69-198.4h3.4v6.9H-69V-198.4z M-69-219.1h3.4v6.9
											H-69V-219.1z M-69-239.8h3.4v6.9H-69V-239.8z M-69-260.5h3.4v6.9H-69V-260.5z M-69-281.2h3.4v6.9H-69V-281.2z M-69-301.9
											h3.4v6.9H-69V-301.9z M-69-322.6h3.4v6.9H-69V-322.6z M-69-343.3h3.4v6.9H-69V-343.3z M-69-364h3.4v6.9H-69V-364z
											 M-69-384.7h3.4v6.9H-69V-384.7z M-69-405.4h3.4v6.9H-69V-405.4z M-69-426.1h3.4v6.9H-69V-426.1z M-69-446.8h3.4v6.9H-69
											V-446.8z M-69-467.5h3.4v6.9H-69V-467.5z M-69-488.2h3.4v6.9H-69V-488.2z"/>
									</g>
								</g>
							</g>
							<g>
								<g>
									<g>
										<path class="st5" d="M-84.3,807.2v-6.9h3.4v6.9h-3.5H-84.3z M-84.3,786.5v-6.9h3.4v6.9h-3.5H-84.3z M-84.3,765.8v-6.9h3.4
											v6.9h-3.5H-84.3z M-84.3,745.1v-6.9h3.4v6.9h-3.5H-84.3z M-84.3,724.4v-6.9h3.4v6.9h-3.5H-84.3z M-84.3,703.7v-6.9h3.4
											v6.9h-3.5H-84.3z M-84.3,683v-6.9h3.4v6.9h-3.5H-84.3z M-84.3,662.3v-6.9h3.4v6.9h-3.5H-84.3z M-84.3,641.6v-6.9h3.4v6.9
											h-3.5H-84.3z M-84.3,620.9V614h3.4v6.9h-3.5H-84.3z M-84.3,600.2v-6.9h3.4v6.9h-3.5H-84.3z M-84.3,579.5v-6.9h3.4v6.9
											h-3.5H-84.3z M-84.3,558.8v-6.9h3.4v6.9h-3.5H-84.3z M-84.3,538.1v-6.9h3.4v6.9h-3.5H-84.3z M-84.3,517.4v-6.9h3.4v6.9
											h-3.5H-84.3z M-84.3,496.7v-6.9h3.4v6.9h-3.5H-84.3z M-84.3,476v-6.9h3.4v6.9h-3.5H-84.3z M-84.3,455.3v-6.9h3.4v6.9h-3.5
											H-84.3z M-84.3,434.6v-6.9h3.4v6.9h-3.5H-84.3z M-84.3,413.9V407h3.4v6.9h-3.5H-84.3z M-84.3,393.2v-6.9h3.4v6.9h-3.5
											H-84.3z M-84.3,372.5v-6.9h3.4v6.9h-3.5H-84.3z M-84.3,351.8v-6.9h3.4v6.9h-3.5H-84.3z M-84.3,331.1v-6.9h3.4v6.9h-3.5
											H-84.3z M-84.3,310.4v-6.9h3.4v6.9h-3.5H-84.3z M-84.3,289.7v-6.9h3.4v6.9h-3.5H-84.3z M-84.3,269.1v-6.9h3.4v6.9h-3.5
											H-84.3z M-84.3,248.4v-6.9h3.4v6.9h-3.5H-84.3z M-84.3,227.7v-6.9h3.4v6.9h-3.5H-84.3z M-84.3,207v-6.9h3.4v6.9h-3.5
											H-84.3z M-84.3,186.3v-6.9h3.4v6.9h-3.5H-84.3z M-84.3,165.6v-6.9h3.4v6.9h-3.5H-84.3z M-84.3,144.9V138h3.4v6.9H-84.3
											L-84.3,144.9z M-84.3,124.2v-6.9h3.4v6.9H-84.3L-84.3,124.2z M-84.3,103.5v-6.9h3.4v6.9H-84.3L-84.3,103.5z M-84.3,82.8
											v-6.9h3.4v6.9H-84.3L-84.3,82.8z M-84.3,62.1v-6.9h3.4v6.9H-84.3L-84.3,62.1z M-84.3,41.4v-6.9h3.4v6.9H-84.3L-84.3,41.4z
											 M-84.3,20.7v-6.9h3.4v6.9H-84.3L-84.3,20.7z M-84.3,0v-6.9h3.4V0L-84.3,0L-84.3,0z M-84.3-20.7v-6.9h3.4v6.9H-84.3
											L-84.3-20.7z M-84.3-41.4v-6.9h3.4v6.9H-84.3L-84.3-41.4z M-84.3-62.1V-69h3.4v6.9H-84.3L-84.3-62.1z M-84.3-82.8v-6.9
											h3.4v6.9H-84.3L-84.3-82.8z M-84.3-103.5v-6.9h3.4v6.9H-84.3L-84.3-103.5z M-84.3-124.2v-6.9h3.4v6.9H-84.3L-84.3-124.2z
											 M-84.3-144.9v-6.9h3.4v6.9H-84.3L-84.3-144.9z M-84.3-165.6v-6.9h3.4v6.9H-84.3L-84.3-165.6z M-84.3-186.3v-6.9h3.4v6.9
											H-84.3L-84.3-186.3z M-84.3-207v-6.9h3.4v6.9H-84.3L-84.3-207z M-84.3-227.7v-6.9h3.4v6.9H-84.3L-84.3-227.7z
											 M-84.3-248.4v-6.9h3.4v6.9H-84.3L-84.3-248.4z M-84.3-269.1v-6.9h3.4v6.9H-84.3L-84.3-269.1z M-84.3-289.8v-6.9h3.4v6.9
											H-84.3L-84.3-289.8z M-84.3-310.5v-6.9h3.4v6.9H-84.3L-84.3-310.5z M-84.3-331.2v-6.9h3.4v6.9H-84.3L-84.3-331.2z
											 M-84.3-351.9v-6.9h3.4v6.9H-84.3L-84.3-351.9z M-84.3-372.6v-6.9h3.4v6.9H-84.3L-84.3-372.6z M-84.3-393.3v-6.9h3.4v6.9
											H-84.3L-84.3-393.3z M-84.3-414v-6.9h3.4v6.9H-84.3L-84.3-414z M-84.3-434.7v-6.9h3.4v6.9H-84.3L-84.3-434.7z
											 M-84.3-455.4v-6.9h3.4v6.9H-84.3L-84.3-455.4z M-84.3-476.1v-6.9h3.4v6.9H-84.3L-84.3-476.1z"/>
									</g>
								</g>
							</g>
							<g>
								<g>
									<g>
										<path class="st5" d="M-99.8,803.6h3.4v5.8h-3.4V803.6z M-99.8,782.9h3.4v6.9h-3.4V782.9z M-99.8,762.2h3.4v6.9h-3.4V762.2
											z M-99.8,741.5h3.4v6.9h-3.4V741.5z M-99.8,720.8h3.4v6.9h-3.4V720.8z M-99.8,700.1h3.4v6.9h-3.4V700.1z M-99.8,679.4h3.4
											v6.9h-3.4V679.4z M-99.8,658.7h3.4v6.9h-3.4V658.7z M-99.8,638h3.4v6.9h-3.4V638z M-99.8,617.3h3.4v6.9h-3.4V617.3z
											 M-99.8,596.6h3.4v6.9h-3.4V596.6z M-99.8,575.9h3.4v6.9h-3.4V575.9z M-99.8,555.2h3.4v6.9h-3.4V555.2z M-99.8,534.5h3.4
											v6.9h-3.4V534.5z M-99.8,513.8h3.4v6.9h-3.4V513.8z M-99.8,493.1h3.4v6.9h-3.4V493.1z M-99.8,472.4h3.4v6.9h-3.4V472.4z
											 M-99.8,451.7h3.4v6.9h-3.4V451.7z M-99.8,431h3.4v6.9h-3.4V431z M-99.8,410.3h3.4v6.9h-3.4V410.3z M-99.8,389.6h3.4v6.9
											h-3.4V389.6z M-99.8,368.9h3.4v6.9h-3.4V368.9z M-99.8,348.2h3.4v6.9h-3.4V348.2z M-99.8,327.5h3.4v6.9h-3.4V327.5z
											 M-99.8,306.8h3.4v6.9h-3.4V306.8z M-99.8,286.1h3.4v6.9h-3.4V286.1z M-99.8,265.4h3.4v6.9h-3.4V265.4z M-99.8,244.7h3.4
											v6.9h-3.4V244.7z M-99.8,224h3.4v6.9h-3.4V224z M-99.8,203.3h3.4v6.9h-3.4V203.3z M-99.8,182.6h3.4v6.9h-3.4V182.6z
											 M-99.8,161.9h3.4v6.9h-3.4V161.9z M-99.8,141.2h3.4v6.9h-3.4V141.2z M-99.8,120.5h3.4v6.9h-3.4V120.5z M-99.8,99.8h3.4
											v6.9h-3.4V99.8z M-99.8,79.1h3.4V86h-3.4V79.1z M-99.8,58.4h3.4v6.9h-3.4V58.4z M-99.8,37.7h3.4v6.9h-3.4V37.7z M-99.8,17
											h3.4v6.9h-3.4V17z M-99.8-3.7h3.4v6.9h-3.4V-3.7z M-99.8-24.4h3.4v6.9h-3.4V-24.4z M-99.8-45.1h3.4v6.9h-3.4V-45.1z
											 M-99.8-65.8h3.4v6.9h-3.4V-65.8z M-99.8-86.5h3.4v6.9h-3.4V-86.5z M-99.8-107.2h3.4v6.9h-3.4V-107.2z M-99.8-127.9h3.4
											v6.9h-3.4V-127.9z M-99.8-148.6h3.4v6.9h-3.4V-148.6z M-99.8-169.3h3.4v6.9h-3.4V-169.3z M-99.8-190h3.4v6.9h-3.4V-190z
											 M-99.8-210.7h3.4v6.9h-3.4V-210.7z M-99.8-231.4h3.4v6.9h-3.4V-231.4z M-99.8-252.1h3.4v6.9h-3.4V-252.1z M-99.8-272.8
											h3.4v6.9h-3.4V-272.8z M-99.8-293.5h3.4v6.9h-3.4V-293.5z M-99.8-314.2h3.4v6.9h-3.4V-314.2z M-99.8-334.9h3.4v6.9h-3.4
											V-334.9z M-99.8-355.6h3.4v6.9h-3.4V-355.6z M-99.8-376.3h3.4v6.9h-3.4V-376.3z M-99.8-396.9h3.4v6.9h-3.4V-396.9z
											 M-99.8-417.6h3.4v6.9h-3.4V-417.6z M-99.8-438.3h3.4v6.9h-3.4V-438.3z M-99.8-459h3.4v6.9h-3.4V-459z M-99.8-479.7h3.4
											v6.9h-3.4V-479.7z"/>
									</g>
								</g>
							</g>
						</g>
						<g>
							<g>
								<g>
									<rect x="-99.9" y="-546.3" class="st6" width="100" height="1430.7"/>
								</g>
							</g>
						</g>
					</g>
				</g>
			</g>
			<g class="st1">
				<g>
					<defs>
						<circle id="SVGID_6_" cx="-49" cy="150" r="150"/>
					</defs>
					<clipPath id="SVGID_7_">
						<use xlink:href="#SVGID_6_"  style="overflow:visible;"/>
					</clipPath>
					<g class="st7">
						<g>
							<g>
								<defs>
									<circle id="SVGID_8_" cx="-49" cy="150" r="150"/>
								</defs>
								<clipPath id="SVGID_9_">
									<use xlink:href="#SVGID_8_"  style="overflow:visible;"/>
								</clipPath>
								<g class="st8">
									<path class="st9" d="M-49,5c38.7,0,75.1,15.1,102.5,42.5S96,111.3,96,150c0,38.7-15.1,75.1-42.5,102.5S-10.3,295-49,295
										s-75.1-15.1-102.5-42.5S-194,188.7-194,150s15.1-75.1,42.5-102.5S-87.7,5-49,5 M-49,0c-82.8,0-150,67.2-150,150
										s67.2,150,150,150s150-67.2,150-150C101,67.2,33.8,0-49,0L-49,0z"/>
								</g>
							</g>
						</g>
					</g>
				</g>
			</g>
		</g>
	</g>
</g>
</svg>
