<?xml version="1.0" encoding="utf-8"?>
<!-- Generator: Adobe Illustrator 19.0.0, SVG Export Plug-In . SVG Version: 6.00 Build 0)  -->
<svg version="1.1" id="Layer_1" xmlns="http://www.w3.org/2000/svg" xmlns:xlink="http://www.w3.org/1999/xlink" x="0px" y="0px"
	 viewBox="-199 0 300 300" style="enable-background:new -199 0 300 300;" xml:space="preserve">
<style type="text/css">
	.st0{fill:#DDDDDD;}
	.st1{clip-path:url(#SVGID_3_);}
	.st2{clip-path:url(#SVGID_7_);}
	.st3{clip-path:url(#SVGID_8_);}
	.st4{clip-path:url(#SVGID_9_);}
	.st5{fill:none;}
	.st6{fill:#404041;}
	.st7{fill:#ACACAF;}
	.st8{clip-path:url(#SVGID_11_);}
	.st9{clip-path:url(#SVGID_13_);}
	.st10{fill:#9AA0BB;}
</style>
<g>
	<g>
		<circle id="SVGID_1_" class="st0" cx="-49" cy="150" r="150"/>
	</g>
	<g>
		<g>
			<defs>
				<circle id="SVGID_2_" cx="-49" cy="150" r="150"/>
			</defs>
			<clipPath id="SVGID_3_">
				<use xlink:href="#SVGID_2_"  style="overflow:visible;"/>
			</clipPath>
			<g class="st1">
				<g>
					<defs>
						<rect id="SVGID_4_" x="-87.9" y="-2589.3" width="100" height="5394.7"/>
					</defs>
					<defs>
						<rect id="SVGID_5_" x="-87.9" y="-2589.3" width="100" height="5394.7"/>
					</defs>
					<defs>
						<rect id="SVGID_6_" x="-87.9" y="-2589.3" width="100" height="5394.7"/>
					</defs>
					<clipPath id="SVGID_7_">
						<use xlink:href="#SVGID_4_"  style="overflow:visible;"/>
					</clipPath>
					<clipPath id="SVGID_8_" class="st2">
						<use xlink:href="#SVGID_5_"  style="overflow:visible;"/>
					</clipPath>
					<clipPath id="SVGID_9_" class="st3">
						<use xlink:href="#SVGID_6_"  style="overflow:visible;"/>
					</clipPath>
					<g class="st4">
						<g>
							<path class="st5" d="M-1063.1-7136.4c0,0,0-2953.6,0-3222.1s-34.5-495.3-34.5-495.3l350.7,87.4l576,57.1l31.5-0.8
								c0,0,115.4,361.2,115.4,1153.9c0,0,18.8,844.3,21.8,1213.7c3,369.3,0,1197.3,0,1197.3L25.2,6710h-1117.7L-1063.1-7136.4z"/>
						</g>
					</g>
					<g class="st4">
						<g>
							<rect x="-33.5" y="-2645.3" class="st6" width="19" height="4664.7"/>
						</g>
					</g>
					<g class="st4">
						<g>
							<path class="st7" d="M-85.5,1998.4v-38.1h19v38.1H-85.5z M-85.3,1884.2v-38.1h19v38.1H-85.3z M-85.2,1770v-38.1h19v38.1
								H-85.2z M-85.1,1655.8v-38.1h19v38.1H-85.1z M-85,1541.6v-38.1h19v38.1H-85z M-84.9,1427.4v-38.1h19v38.1H-84.9z
								 M-84.8,1313.2v-38.1h19v38.1H-84.8z M-84.7,1199.1V1161h19v38.1H-84.7z M-84.6,1084.9v-38.1h19v38.1H-84.6z M-84.5,970.7
								v-38.1h19v38.1H-84.5z M-84.4,856.5v-38.1h19v38.1H-84.4z M-84.3,742.3v-38.1h19v38.1H-84.3z M-84.2,628.1V590h19v38.1H-84.2
								z M-84.1,513.9v-38.1h19v38.1H-84.1z M-84,399.7v-38.1h19v38.1H-84z M-83.8,285.6v-38.1h19v38.1H-83.8z M-83.7,171.4v-38.1
								h19v38.1H-83.7z M-83.6,57.2V19.1h19v38.1H-83.6z M-83.5-57v-38.1h19V-57H-83.5z M-83.4-171.2v-38.1h19v38.1L-83.4-171.2z
								 M-83.3-285.4v-38.1h19v38.1H-83.3z M-83.2-399.6v-38.1h19v38.1H-83.2z M-83.1-513.8v-38.1h19v38.1H-83.1z M-83-627.9V-666
								h19v38.1H-83z M-82.9-742.1v-38.1h19v38.1H-82.9z M-82.8-856.3v-38.1h19v38.1H-82.8z M-82.7-970.5v-38.1h19v38.1H-82.7z
								 M-82.6-1084.7v-38.1h19v38.1H-82.6z M-82.4-1198.9v-38.1h19v38.1H-82.4z M-82.3-1313.1v-38.1h19v38.1H-82.3z M-82.2-1427.3
								v-38.1h19v38.1H-82.2z M-82.1-1541.4v-38.1h19v38.1H-82.1z M-82-1655.6v-38.1h19v38.1H-82z M-81.9-1769.8v-38.1h19v38.1
								H-81.9z M-81.8-1884v-38.1h19v38.1H-81.8z M-81.7-1998.2v-38.1h19v38.1H-81.7z M-81.6-2112.4v-38.1h19v38.1H-81.6z
								 M-81.5-2226.6v-38.1h19v38.1H-81.5z M-81.4-2340.7v-38.1h19v38.1H-81.4z M-81.3-2454.9v-38.1h19v38.1H-81.3z M-81.2-2569.1
								v-38.1h19v38.1H-81.2z"/>
						</g>
					</g>
				</g>
			</g>
			<g class="st1">
				<g>
					<defs>
						<circle id="SVGID_10_" cx="-49" cy="150" r="150"/>
					</defs>
					<clipPath id="SVGID_11_">
						<use xlink:href="#SVGID_10_"  style="overflow:visible;"/>
					</clipPath>
					<g class="st8">
						<g>
							<g>
								<defs>
									<circle id="SVGID_12_" cx="-49" cy="150" r="150"/>
								</defs>
								<clipPath id="SVGID_13_">
									<use xlink:href="#SVGID_12_"  style="overflow:visible;"/>
								</clipPath>
								<g class="st9">
									<path class="st10" d="M-49,5c38.7,0,75.1,15.1,102.5,42.5S96,111.3,96,150c0,38.7-15.1,75.1-42.5,102.5S-10.3,295-49,295
										s-75.1-15.1-102.5-42.5S-194,188.7-194,150s15.1-75.1,42.5-102.5S-87.7,5-49,5 M-49,0c-82.8,0-150,67.2-150,150
										s67.2,150,150,150s150-67.2,150-150C101,67.2,33.8,0-49,0L-49,0z"/>
								</g>
							</g>
						</g>
					</g>
				</g>
			</g>
		</g>
	</g>
</g>
</svg>
