<?xml version="1.0" encoding="utf-8"?>
<!-- Generator: Adobe Illustrator 19.0.0, SVG Export Plug-In . SVG Version: 6.00 Build 0)  -->
<svg version="1.1" id="Layer_1" xmlns="http://www.w3.org/2000/svg" xmlns:xlink="http://www.w3.org/1999/xlink" x="0px" y="0px"
	 viewBox="-199 0 300 300" style="enable-background:new -199 0 300 300;" xml:space="preserve">
<style type="text/css">
	.st0{fill:#DDDDDD;}
	.st1{clip-path:url(#SVGID_3_);}
	.st2{clip-path:url(#SVGID_5_);}
	.st3{fill:#404041;}
	.st4{clip-path:url(#SVGID_7_);}
	.st5{clip-path:url(#SVGID_11_);}
	.st6{fill:#9AA0BB;}
</style>
<g>
	<g>
		<circle id="SVGID_1_" class="st0" cx="-48.9" cy="150" r="150"/>
	</g>
	<g>
		<defs>
			<circle id="SVGID_2_" cx="-48.9" cy="150" r="150"/>
		</defs>
		<clipPath id="SVGID_3_">
			<use xlink:href="#SVGID_2_"  style="overflow:visible;"/>
		</clipPath>
		<g class="st1">
			<defs>
				<rect id="SVGID_4_" x="-202.3" y="-2444.6" width="290" height="5173.3"/>
			</defs>
			<clipPath id="SVGID_5_">
				<use xlink:href="#SVGID_4_"  style="overflow:visible;"/>
			</clipPath>
			<g class="st2">
				<g>
					<g>
						<path class="st3" d="M-59.8-2460.9c0,0,1.9-1.6,6-3.4c3.9-1.6,11.3-3.6,19.4,0.8c7.7,4.6,12.6,13.7,15.6,22.8
							c2.9,9.2,3.9,21.8-1.5,32.9c-2.6,5.6-7.2,10.7-12.9,13.7c-5.5,3.5-12.8,3.6-16.8,3.7c-12.7,0.3-22.2-6.9-26.4-14.2
							c-4.5-7-5.4-13.6-5.9-17.9c-0.5-4.4-0.1-6.9-0.1-6.9l1.8-0.3c0,0,1.1,2.1,3,5.7c2,3.5,5.2,8.4,9.7,12.4
							c4.5,3.9,10.8,5.8,16.1,5c8.6-1.3,11.2-4.6,15.4-10c3.6-5.7,5.2-13.2,4-21.1c-0.7-8.1-3.1-14.9-7-18.9
							c-3.8-4-9.5-4.7-13.4-4.2c-3.9,0.5-6.1,1.4-6.1,1.4L-59.8-2460.9z"/>
					</g>
				</g>
				<g>
					<g>
						<path class="st3" d="M-59.8-2523.7c0,0,1.9-1.6,6-3.4c3.9-1.6,11.3-3.6,19.4,0.8c7.7,4.6,12.6,13.7,15.6,22.8
							c2.9,9.2,3.9,21.8-1.5,32.9c-2.6,5.6-7.2,10.7-12.9,13.7c-5.5,3.5-12.8,3.6-16.8,3.7c-12.7,0.3-22.2-6.9-26.4-14.2
							c-4.5-7-5.4-13.5-5.9-17.9c-0.5-4.4-0.1-6.9-0.1-6.9l1.8-0.3c0,0,1.1,2.1,3,5.7c2,3.5,5.2,8.4,9.7,12.4
							c4.5,3.9,10.8,5.8,16.1,5c8.6-1.3,11.2-4.6,15.4-10c3.6-5.7,5.2-13.2,4-21.1c-0.7-8.1-3.1-14.9-7-18.9
							c-3.8-4-9.5-4.7-13.4-4.2c-3.9,0.5-6.1,1.4-6.1,1.4L-59.8-2523.7z"/>
					</g>
				</g>
				<g>
					<g>
						<path class="st3" d="M-59.8-2586.4c0,0,1.9-1.6,6-3.4c3.9-1.6,11.3-3.6,19.4,0.8c7.7,4.6,12.6,13.7,15.6,22.8
							c2.9,9.2,3.9,21.8-1.5,32.9c-2.6,5.6-7.2,10.7-12.9,13.7c-5.5,3.5-12.8,3.6-16.8,3.7c-12.7,0.3-22.2-6.9-26.4-14.2
							c-4.5-7-5.4-13.5-5.9-17.9c-0.5-4.4-0.1-6.9-0.1-6.9l1.8-0.3c0,0,1.1,2.1,3,5.7c2,3.5,5.2,8.4,9.7,12.4
							c4.5,3.9,10.8,5.8,16.1,5c8.6-1.3,11.2-4.6,15.4-10c3.6-5.7,5.2-13.3,4-21.1c-0.7-8.1-3.1-14.9-7-18.9
							c-3.8-4-9.5-4.7-13.4-4.2c-3.9,0.5-6.1,1.4-6.1,1.4L-59.8-2586.4z"/>
					</g>
				</g>
				<g>
					<g>
						<path class="st3" d="M-59.8-2209.8c0,0,1.9-1.6,6-3.4c3.9-1.6,11.3-3.6,19.4,0.8c7.7,4.6,12.6,13.7,15.6,22.8
							c2.9,9.2,3.9,21.8-1.5,32.9c-2.6,5.6-7.2,10.7-12.9,13.7c-5.5,3.5-12.8,3.6-16.8,3.7c-12.7,0.3-22.2-6.9-26.4-14.2
							c-4.5-7-5.4-13.6-5.9-17.9c-0.5-4.4-0.1-6.9-0.1-6.9l1.8-0.3c0,0,1.1,2.1,3,5.7c2,3.5,5.2,8.4,9.7,12.4
							c4.5,3.9,10.8,5.8,16.1,5c8.6-1.3,11.2-4.6,15.4-10c3.6-5.7,5.2-13.2,4-21.1c-0.7-8.1-3.1-14.9-7-18.9
							c-3.8-4-9.5-4.7-13.4-4.2c-3.9,0.5-6.1,1.4-6.1,1.4L-59.8-2209.8z"/>
					</g>
				</g>
				<g>
					<g>
						<path class="st3" d="M-59.8-2272.6c0,0,1.9-1.6,6-3.4c3.9-1.6,11.3-3.6,19.4,0.8c7.7,4.6,12.6,13.7,15.6,22.8
							c2.9,9.2,3.9,21.8-1.5,32.9c-2.6,5.6-7.2,10.7-12.9,13.7c-5.5,3.5-12.8,3.6-16.8,3.7c-12.7,0.3-22.2-6.9-26.4-14.2
							c-4.5-7-5.4-13.5-5.9-17.9c-0.5-4.4-0.1-6.9-0.1-6.9l1.8-0.3c0,0,1.1,2.1,3,5.7c2,3.4,5.2,8.4,9.7,12.4
							c4.5,3.9,10.8,5.8,16.1,5c8.6-1.3,11.2-4.6,15.4-10c3.6-5.7,5.2-13.2,4-21.1c-0.7-8.1-3.1-14.9-7-18.9
							c-3.8-4-9.5-4.7-13.4-4.2c-3.9,0.5-6.1,1.4-6.1,1.4L-59.8-2272.6z"/>
					</g>
				</g>
				<g>
					<g>
						<path class="st3" d="M-59.8-2335.3c0,0,1.9-1.6,6-3.4c3.9-1.6,11.3-3.6,19.4,0.8c7.7,4.6,12.6,13.7,15.6,22.8
							c2.9,9.2,3.9,21.8-1.5,32.9c-2.6,5.6-7.2,10.7-12.9,13.7c-5.5,3.5-12.8,3.6-16.8,3.7c-12.7,0.3-22.2-6.9-26.4-14.2
							c-4.5-7-5.4-13.5-5.9-17.9c-0.5-4.4-0.1-6.9-0.1-6.9l1.8-0.3c0,0,1.1,2.1,3,5.7c2,3.5,5.2,8.4,9.7,12.4
							c4.5,3.9,10.8,5.8,16.1,5c8.6-1.3,11.2-4.6,15.4-10c3.6-5.7,5.2-13.3,4-21.1c-0.7-8.1-3.1-14.9-7-18.9
							c-3.8-4-9.5-4.7-13.4-4.2c-3.9,0.5-6.1,1.4-6.1,1.4L-59.8-2335.3z"/>
					</g>
				</g>
				<g>
					<g>
						<path class="st3" d="M-59.8-2398.1c0,0,1.9-1.6,6-3.4c3.9-1.6,11.3-3.6,19.4,0.8c7.7,4.6,12.6,13.7,15.6,22.8
							c2.9,9.2,3.9,21.8-1.5,32.9c-2.6,5.6-7.2,10.7-12.9,13.7c-5.5,3.5-12.8,3.6-16.8,3.7c-12.7,0.3-22.2-6.9-26.4-14.2
							c-4.5-7-5.4-13.5-5.9-17.9c-0.5-4.4-0.1-6.9-0.1-6.9l1.8-0.3c0,0,1.1,2.1,3,5.7c2,3.5,5.2,8.4,9.7,12.4c4.5,4,10.8,5.8,16.1,5
							c8.6-1.3,11.2-4.6,15.4-10c3.6-5.7,5.2-13.2,4-21.1c-0.7-8-3.1-14.9-7-18.9c-3.8-4.1-9.5-4.7-13.4-4.2
							c-3.9,0.5-6.1,1.4-6.1,1.4L-59.8-2398.1z"/>
					</g>
				</g>
				<g>
					<g>
						<path class="st3" d="M-59.8-1958.7c0,0,1.9-1.6,6-3.4c3.9-1.6,11.3-3.6,19.4,0.8c7.7,4.6,12.6,13.7,15.6,22.8
							c2.9,9.2,3.9,21.8-1.5,32.9c-2.6,5.6-7.2,10.7-12.9,13.7c-5.5,3.5-12.8,3.6-16.8,3.7c-12.7,0.3-22.2-6.9-26.4-14.2
							c-4.5-7-5.4-13.6-5.9-17.9c-0.5-4.4-0.1-6.9-0.1-6.9l1.8-0.3c0,0,1.1,2.1,3,5.7c2,3.5,5.2,8.4,9.7,12.4
							c4.5,3.9,10.8,5.8,16.1,5c8.6-1.3,11.2-4.6,15.4-10c3.6-5.7,5.2-13.2,4-21.1c-0.7-8.1-3.1-14.9-7-18.9
							c-3.8-4-9.5-4.7-13.4-4.2c-3.9,0.5-6.1,1.4-6.1,1.4L-59.8-1958.7z"/>
					</g>
				</g>
				<g>
					<g>
						<path class="st3" d="M-59.8-2021.5c0,0,1.9-1.6,6-3.4c3.9-1.6,11.3-3.6,19.4,0.8c7.7,4.6,12.6,13.7,15.6,22.8
							c2.9,9.2,3.9,21.8-1.5,32.9c-2.6,5.6-7.2,10.7-12.9,13.7c-5.5,3.5-12.8,3.6-16.8,3.7c-12.7,0.3-22.2-6.9-26.4-14.2
							c-4.5-7-5.4-13.5-5.9-17.9c-0.5-4.4-0.1-6.9-0.1-6.9l1.8-0.3c0,0,1.1,2.1,3,5.7c2,3.4,5.2,8.4,9.7,12.4
							c4.5,3.9,10.8,5.8,16.1,5c8.6-1.3,11.2-4.6,15.4-10c3.6-5.7,5.2-13.2,4-21.1c-0.7-8.1-3.1-14.9-7-18.9
							c-3.8-4-9.5-4.7-13.4-4.2c-3.9,0.5-6.1,1.4-6.1,1.4L-59.8-2021.5z"/>
					</g>
				</g>
				<g>
					<g>
						<path class="st3" d="M-59.8-2084.3c0,0,1.9-1.6,6-3.4c3.9-1.6,11.3-3.6,19.4,0.8c7.7,4.6,12.6,13.7,15.6,22.8
							c2.9,9.2,3.9,21.8-1.5,32.9c-2.6,5.6-7.2,10.7-12.9,13.7c-5.5,3.5-12.8,3.6-16.8,3.7c-12.7,0.3-22.2-6.9-26.4-14.2
							c-4.5-7-5.4-13.5-5.9-17.9c-0.5-4.4-0.1-6.9-0.1-6.9l1.8-0.3c0,0,1.1,2.1,3,5.7c2,3.5,5.2,8.4,9.7,12.4
							c4.5,3.9,10.8,5.8,16.1,5c8.6-1.3,11.2-4.6,15.4-10c3.6-5.7,5.2-13.3,4-21.1c-0.7-8.1-3.1-14.9-7-18.9
							c-3.8-4-9.5-4.7-13.4-4.2c-3.9,0.5-6.1,1.4-6.1,1.4L-59.8-2084.3z"/>
					</g>
				</g>
				<g>
					<g>
						<path class="st3" d="M-59.8-2147c0,0,1.9-1.6,6-3.4c3.9-1.6,11.3-3.6,19.4,0.8c7.7,4.6,12.6,13.7,15.6,22.8
							c2.9,9.2,3.9,21.8-1.5,32.9c-2.6,5.6-7.2,10.7-12.9,13.7c-5.5,3.5-12.8,3.6-16.8,3.7c-12.7,0.3-22.2-6.9-26.4-14.2
							c-4.5-7-5.4-13.5-5.9-17.9c-0.5-4.4-0.1-6.9-0.1-6.9l1.8-0.3c0,0,1.1,2.1,3,5.7c2,3.5,5.2,8.4,9.7,12.4c4.5,4,10.8,5.8,16.1,5
							c8.6-1.3,11.2-4.6,15.4-10c3.6-5.7,5.2-13.2,4-21.1c-0.7-8-3.1-14.9-7-18.9c-3.8-4.1-9.5-4.7-13.4-4.2
							c-3.9,0.5-6.1,1.4-6.1,1.4L-59.8-2147z"/>
					</g>
				</g>
				<g>
					<g>
						<path class="st3" d="M-59.8-1707.6c0,0,1.9-1.6,6-3.4c3.9-1.6,11.3-3.6,19.4,0.8c7.7,4.6,12.6,13.7,15.6,22.8
							c2.9,9.2,3.9,21.8-1.5,32.9c-2.6,5.6-7.2,10.7-12.9,13.7c-5.5,3.5-12.8,3.6-16.8,3.7c-12.7,0.3-22.2-6.9-26.4-14.2
							c-4.5-7-5.4-13.6-5.9-17.9c-0.5-4.4-0.1-6.9-0.1-6.9l1.8-0.3c0,0,1.1,2.1,3,5.7c2,3.5,5.2,8.4,9.7,12.4
							c4.5,3.9,10.8,5.8,16.1,5c8.6-1.3,11.2-4.6,15.4-10c3.6-5.7,5.2-13.2,4-21.1c-0.7-8.1-3.1-14.9-7-18.9
							c-3.8-4-9.5-4.7-13.4-4.2c-3.9,0.5-6.1,1.4-6.1,1.4L-59.8-1707.6z"/>
					</g>
				</g>
				<g>
					<g>
						<path class="st3" d="M-59.8-1770.4c0,0,1.9-1.6,6-3.4c3.9-1.6,11.3-3.6,19.4,0.8c7.7,4.6,12.6,13.7,15.6,22.8
							c2.9,9.2,3.9,21.8-1.5,32.9c-2.6,5.6-7.2,10.7-12.9,13.7c-5.5,3.5-12.8,3.6-16.8,3.7c-12.7,0.3-22.2-6.9-26.4-14.2
							c-4.5-7-5.4-13.5-5.9-17.9c-0.5-4.4-0.1-6.9-0.1-6.9l1.8-0.3c0,0,1.1,2.1,3,5.7c2,3.4,5.2,8.4,9.7,12.4
							c4.5,3.9,10.8,5.8,16.1,5c8.6-1.3,11.2-4.6,15.4-10c3.6-5.7,5.2-13.2,4-21.1c-0.7-8.1-3.1-14.9-7-18.9
							c-3.8-4-9.5-4.7-13.4-4.2c-3.9,0.5-6.1,1.4-6.1,1.4L-59.8-1770.4z"/>
					</g>
				</g>
				<g>
					<g>
						<path class="st3" d="M-59.8-1833.2c0,0,1.9-1.6,6-3.4c3.9-1.6,11.3-3.6,19.4,0.8c7.7,4.6,12.6,13.7,15.6,22.8
							c2.9,9.2,3.9,21.8-1.5,32.9c-2.6,5.6-7.2,10.7-12.9,13.7c-5.5,3.5-12.8,3.6-16.8,3.7c-12.7,0.3-22.2-6.9-26.4-14.2
							c-4.5-7-5.4-13.5-5.9-17.9c-0.5-4.4-0.1-6.9-0.1-6.9l1.8-0.3c0,0,1.1,2.1,3,5.7c2,3.5,5.2,8.4,9.7,12.4
							c4.5,3.9,10.8,5.8,16.1,5c8.6-1.3,11.2-4.6,15.4-10c3.6-5.7,5.2-13.3,4-21.1c-0.7-8.1-3.1-14.9-7-18.9
							c-3.8-4-9.5-4.7-13.4-4.2c-3.9,0.5-6.1,1.4-6.1,1.4L-59.8-1833.2z"/>
					</g>
				</g>
				<g>
					<g>
						<path class="st3" d="M-59.8-1895.9c0,0,1.9-1.6,6-3.4c3.9-1.6,11.3-3.6,19.4,0.8c7.7,4.6,12.6,13.7,15.6,22.8
							c2.9,9.2,3.9,21.8-1.5,32.9c-2.6,5.6-7.2,10.7-12.9,13.7c-5.5,3.5-12.8,3.6-16.8,3.7c-12.7,0.3-22.2-6.9-26.4-14.2
							c-4.5-7-5.4-13.5-5.9-17.9c-0.5-4.4-0.1-6.9-0.1-6.9l1.8-0.3c0,0,1.1,2.1,3,5.7c2,3.5,5.2,8.4,9.7,12.4c4.5,4,10.8,5.8,16.1,5
							c8.6-1.3,11.2-4.6,15.4-10c3.6-5.7,5.2-13.2,4-21.1c-0.7-8-3.1-14.9-7-18.9c-3.8-4.1-9.5-4.7-13.4-4.2
							c-3.9,0.5-6.1,1.4-6.1,1.4L-59.8-1895.9z"/>
					</g>
				</g>
				<g>
					<g>
						<path class="st3" d="M-59.8-1456.5c0,0,1.9-1.6,6-3.4c3.9-1.6,11.3-3.6,19.4,0.8c7.7,4.6,12.6,13.7,15.6,22.8
							c2.9,9.2,3.9,21.8-1.5,32.9c-2.6,5.6-7.2,10.7-12.9,13.7c-5.5,3.5-12.8,3.6-16.8,3.7c-12.7,0.3-22.2-6.9-26.4-14.2
							c-4.5-7-5.4-13.6-5.9-17.9c-0.5-4.4-0.1-6.9-0.1-6.9l1.8-0.3c0,0,1.1,2.1,3,5.7c2,3.5,5.2,8.4,9.7,12.4
							c4.5,3.9,10.8,5.8,16.1,5c8.6-1.3,11.2-4.6,15.4-10c3.6-5.7,5.2-13.2,4-21.1c-0.7-8.1-3.1-14.9-7-18.9
							c-3.8-4-9.5-4.7-13.4-4.2c-3.9,0.5-6.1,1.4-6.1,1.4L-59.8-1456.5z"/>
					</g>
				</g>
				<g>
					<g>
						<path class="st3" d="M-59.8-1519.3c0,0,1.9-1.6,6-3.4c3.9-1.6,11.3-3.6,19.4,0.8c7.7,4.6,12.6,13.7,15.6,22.8
							c2.9,9.2,3.9,21.8-1.5,32.9c-2.6,5.6-7.2,10.7-12.9,13.7c-5.5,3.5-12.8,3.6-16.8,3.7c-12.7,0.3-22.2-6.9-26.4-14.2
							c-4.5-7-5.4-13.5-5.9-17.9c-0.5-4.4-0.1-6.9-0.1-6.9l1.8-0.3c0,0,1.1,2.1,3,5.7c2,3.4,5.2,8.4,9.7,12.4
							c4.5,3.9,10.8,5.8,16.1,5c8.6-1.3,11.2-4.6,15.4-10c3.6-5.7,5.2-13.2,4-21.1c-0.7-8.1-3.1-14.9-7-18.9
							c-3.8-4-9.5-4.7-13.4-4.2c-3.9,0.5-6.1,1.4-6.1,1.4L-59.8-1519.3z"/>
					</g>
				</g>
				<g>
					<g>
						<path class="st3" d="M-59.8-1582.1c0,0,1.9-1.6,6-3.4c3.9-1.6,11.3-3.6,19.4,0.8c7.7,4.6,12.6,13.7,15.6,22.8
							c2.9,9.2,3.9,21.8-1.5,32.9c-2.6,5.6-7.2,10.7-12.9,13.7c-5.5,3.5-12.8,3.6-16.8,3.7c-12.7,0.3-22.2-6.9-26.4-14.2
							c-4.5-7-5.4-13.5-5.9-17.9c-0.5-4.4-0.1-6.9-0.1-6.9l1.8-0.3c0,0,1.1,2.1,3,5.7c2,3.5,5.2,8.4,9.7,12.4
							c4.5,3.9,10.8,5.8,16.1,5c8.6-1.3,11.2-4.6,15.4-10c3.6-5.7,5.2-13.3,4-21.1c-0.7-8.1-3.1-14.9-7-18.9
							c-3.8-4-9.5-4.7-13.4-4.2c-3.9,0.5-6.1,1.4-6.1,1.4L-59.8-1582.1z"/>
					</g>
				</g>
				<g>
					<g>
						<path class="st3" d="M-59.8-1644.9c0,0,1.9-1.6,6-3.4c3.9-1.6,11.3-3.6,19.4,0.8c7.7,4.6,12.6,13.7,15.6,22.8
							c2.9,9.2,3.9,21.8-1.5,32.9c-2.6,5.6-7.2,10.7-12.9,13.7c-5.5,3.5-12.8,3.6-16.8,3.7c-12.7,0.3-22.2-6.9-26.4-14.2
							c-4.5-7-5.4-13.5-5.9-17.9c-0.5-4.4-0.1-6.9-0.1-6.9l1.8-0.3c0,0,1.1,2.1,3,5.7c2,3.5,5.2,8.4,9.7,12.4c4.5,4,10.8,5.8,16.1,5
							c8.6-1.3,11.2-4.6,15.4-10c3.6-5.7,5.2-13.2,4-21.1c-0.7-8-3.1-14.9-7-18.9c-3.8-4.1-9.5-4.7-13.4-4.2
							c-3.9,0.5-6.1,1.4-6.1,1.4L-59.8-1644.9z"/>
					</g>
				</g>
				<g>
					<g>
						<path class="st3" d="M-59.8-1205.5c0,0,1.9-1.6,6-3.4c3.9-1.6,11.3-3.6,19.4,0.8c7.7,4.6,12.6,13.7,15.6,22.8
							c2.9,9.2,3.9,21.8-1.5,32.9c-2.6,5.6-7.2,10.7-12.9,13.7c-5.5,3.5-12.8,3.6-16.8,3.7c-12.7,0.3-22.2-6.9-26.4-14.2
							c-4.5-7-5.4-13.6-5.9-17.9c-0.5-4.4-0.1-6.9-0.1-6.9l1.8-0.3c0,0,1.1,2.1,3,5.7c2,3.5,5.2,8.4,9.7,12.4
							c4.5,3.9,10.8,5.8,16.1,5c8.6-1.3,11.2-4.6,15.4-10c3.6-5.7,5.2-13.2,4-21.1c-0.7-8.1-3.1-14.9-7-18.9
							c-3.8-4-9.5-4.7-13.4-4.2c-3.9,0.5-6.1,1.4-6.1,1.4L-59.8-1205.5z"/>
					</g>
				</g>
				<g>
					<g>
						<path class="st3" d="M-59.8-1268.2c0,0,1.9-1.6,6-3.4c3.9-1.6,11.3-3.6,19.4,0.8c7.7,4.6,12.6,13.7,15.6,22.8
							c2.9,9.2,3.9,21.8-1.5,32.9c-2.6,5.6-7.2,10.7-12.9,13.7c-5.5,3.5-12.8,3.6-16.8,3.7c-12.7,0.3-22.2-6.9-26.4-14.2
							c-4.5-7-5.4-13.5-5.9-17.9c-0.5-4.4-0.1-6.9-0.1-6.9l1.8-0.3c0,0,1.1,2.1,3,5.7c2,3.4,5.2,8.4,9.7,12.4
							c4.5,3.9,10.8,5.8,16.1,5c8.6-1.3,11.2-4.6,15.4-10c3.6-5.7,5.2-13.2,4-21.1c-0.7-8.1-3.1-14.9-7-18.9
							c-3.8-4-9.5-4.7-13.4-4.2c-3.9,0.5-6.1,1.4-6.1,1.4L-59.8-1268.2z"/>
					</g>
				</g>
				<g>
					<g>
						<path class="st3" d="M-59.8-1331c0,0,1.9-1.6,6-3.4c3.9-1.6,11.3-3.6,19.4,0.8c7.7,4.6,12.6,13.7,15.6,22.8
							c2.9,9.2,3.9,21.8-1.5,32.9c-2.6,5.6-7.2,10.7-12.9,13.7c-5.5,3.5-12.8,3.6-16.8,3.7c-12.7,0.3-22.2-6.9-26.4-14.2
							c-4.5-7-5.4-13.5-5.9-17.9c-0.5-4.4-0.1-6.9-0.1-6.9l1.8-0.3c0,0,1.1,2.1,3,5.7c2,3.5,5.2,8.4,9.7,12.4
							c4.5,3.9,10.8,5.8,16.1,5c8.6-1.3,11.2-4.6,15.4-10c3.6-5.7,5.2-13.3,4-21.1c-0.7-8.1-3.1-14.9-7-18.9
							c-3.8-4-9.5-4.7-13.4-4.2c-3.9,0.5-6.1,1.4-6.1,1.4L-59.8-1331z"/>
					</g>
				</g>
				<g>
					<g>
						<path class="st3" d="M-59.8-1393.8c0,0,1.9-1.6,6-3.4c3.9-1.6,11.3-3.6,19.4,0.8c7.7,4.6,12.6,13.7,15.6,22.8
							c2.9,9.2,3.9,21.8-1.5,32.9c-2.6,5.6-7.2,10.7-12.9,13.7c-5.5,3.5-12.8,3.6-16.8,3.7c-12.7,0.3-22.2-6.9-26.4-14.2
							c-4.5-7-5.4-13.5-5.9-17.9c-0.5-4.4-0.1-6.9-0.1-6.9l1.8-0.3c0,0,1.1,2.1,3,5.7c2,3.5,5.2,8.4,9.7,12.4c4.5,4,10.8,5.8,16.1,5
							c8.6-1.3,11.2-4.6,15.4-10c3.6-5.7,5.2-13.2,4-21.1c-0.7-8-3.1-14.9-7-18.9c-3.8-4.1-9.5-4.7-13.4-4.2
							c-3.9,0.5-6.1,1.4-6.1,1.4L-59.8-1393.8z"/>
					</g>
				</g>
				<g>
					<g>
						<path class="st3" d="M-59.8-954.4c0,0,1.9-1.6,6-3.4c3.9-1.6,11.3-3.6,19.4,0.8c7.7,4.6,12.6,13.7,15.6,22.8
							c2.9,9.2,3.9,21.8-1.5,32.9c-2.6,5.6-7.2,10.7-12.9,13.7c-5.5,3.5-12.8,3.6-16.8,3.7c-12.7,0.3-22.2-6.9-26.4-14.2
							c-4.5-7-5.4-13.6-5.9-17.9c-0.5-4.4-0.1-6.9-0.1-6.9l1.8-0.3c0,0,1.1,2.1,3,5.7c2,3.5,5.2,8.4,9.7,12.4
							c4.5,3.9,10.8,5.8,16.1,5c8.6-1.3,11.2-4.6,15.4-10c3.6-5.7,5.2-13.2,4-21.1c-0.7-8.1-3.1-14.9-7-18.9
							c-3.8-4-9.5-4.7-13.4-4.2c-3.9,0.5-6.1,1.4-6.1,1.4L-59.8-954.4z"/>
					</g>
				</g>
				<g>
					<g>
						<path class="st3" d="M-59.8-1017.1c0,0,1.9-1.6,6-3.4c3.9-1.6,11.3-3.6,19.4,0.8c7.7,4.6,12.6,13.7,15.6,22.8
							c2.9,9.2,3.9,21.8-1.5,32.9c-2.6,5.6-7.2,10.7-12.9,13.7c-5.5,3.5-12.8,3.6-16.8,3.7c-12.7,0.3-22.2-6.9-26.4-14.2
							c-4.5-7-5.4-13.5-5.9-17.9c-0.5-4.4-0.1-6.9-0.1-6.9l1.8-0.3c0,0,1.1,2.1,3,5.7c2,3.4,5.2,8.4,9.7,12.4
							c4.5,3.9,10.8,5.8,16.1,5c8.6-1.3,11.2-4.6,15.4-10c3.6-5.7,5.2-13.2,4-21.1c-0.7-8.1-3.1-14.9-7-18.9
							c-3.8-4-9.5-4.7-13.4-4.2c-3.9,0.5-6.1,1.4-6.1,1.4L-59.8-1017.1z"/>
					</g>
				</g>
				<g>
					<g>
						<path class="st3" d="M-59.8-1079.9c0,0,1.9-1.6,6-3.4c3.9-1.6,11.3-3.6,19.4,0.8c7.7,4.6,12.6,13.7,15.6,22.8
							c2.9,9.2,3.9,21.8-1.5,32.9c-2.6,5.6-7.2,10.7-12.9,13.7c-5.5,3.5-12.8,3.6-16.8,3.7c-12.7,0.3-22.2-6.9-26.4-14.2
							c-4.5-7-5.4-13.5-5.9-17.9c-0.5-4.4-0.1-6.9-0.1-6.9l1.8-0.3c0,0,1.1,2.1,3,5.7c2,3.5,5.2,8.4,9.7,12.4
							c4.5,3.9,10.8,5.8,16.1,5c8.6-1.3,11.2-4.6,15.4-10c3.6-5.7,5.2-13.3,4-21.1c-0.7-8.1-3.1-14.9-7-18.9
							c-3.8-4-9.5-4.7-13.4-4.2c-3.9,0.5-6.1,1.4-6.1,1.4L-59.8-1079.9z"/>
					</g>
				</g>
				<g>
					<g>
						<path class="st3" d="M-59.8-1142.7c0,0,1.9-1.6,6-3.4c3.9-1.6,11.3-3.6,19.4,0.8c7.7,4.6,12.6,13.7,15.6,22.8
							c2.9,9.2,3.9,21.8-1.5,32.9c-2.6,5.6-7.2,10.7-12.9,13.7c-5.5,3.5-12.8,3.6-16.8,3.7c-12.7,0.3-22.2-6.9-26.4-14.2
							c-4.5-7-5.4-13.5-5.9-17.9c-0.5-4.4-0.1-6.9-0.1-6.9l1.8-0.3c0,0,1.1,2.1,3,5.7c2,3.5,5.2,8.4,9.7,12.4c4.5,4,10.8,5.8,16.1,5
							c8.6-1.3,11.2-4.6,15.4-10c3.6-5.7,5.2-13.2,4-21.1c-0.7-8-3.1-14.9-7-18.9c-3.8-4.1-9.5-4.7-13.4-4.2
							c-3.9,0.5-6.1,1.4-6.1,1.4L-59.8-1142.7z"/>
					</g>
				</g>
				<g>
					<g>
						<path class="st3" d="M-59.8-703.3c0,0,1.9-1.6,6-3.4c3.9-1.6,11.3-3.6,19.4,0.8c7.7,4.6,12.6,13.7,15.6,22.8
							c2.9,9.2,3.9,21.8-1.5,32.9c-2.6,5.6-7.2,10.7-12.9,13.7c-5.5,3.5-12.8,3.6-16.8,3.7c-12.7,0.3-22.2-6.9-26.4-14.2
							c-4.5-7-5.4-13.6-5.9-17.9c-0.5-4.4-0.1-6.9-0.1-6.9l1.8-0.3c0,0,1.1,2.1,3,5.7c2,3.5,5.2,8.4,9.7,12.4
							c4.5,3.9,10.8,5.8,16.1,5c8.6-1.3,11.2-4.6,15.4-10c3.6-5.7,5.2-13.2,4-21.1c-0.7-8.1-3.1-14.9-7-18.9
							c-3.8-4.1-9.5-4.7-13.4-4.2c-3.9,0.5-6.1,1.4-6.1,1.4L-59.8-703.3z"/>
					</g>
				</g>
				<g>
					<g>
						<path class="st3" d="M-59.8-766.1c0,0,1.9-1.6,6-3.4c3.9-1.6,11.3-3.6,19.4,0.8c7.7,4.6,12.6,13.7,15.6,22.8
							c2.9,9.2,3.9,21.8-1.5,32.9c-2.6,5.6-7.2,10.7-12.9,13.7c-5.5,3.5-12.8,3.6-16.8,3.7c-12.7,0.3-22.2-6.9-26.4-14.2
							c-4.5-7-5.4-13.6-5.9-17.9c-0.5-4.4-0.1-6.9-0.1-6.9l1.8-0.3c0,0,1.1,2.1,3,5.7c2,3.4,5.2,8.4,9.7,12.4
							c4.5,3.9,10.8,5.8,16.1,5c8.6-1.3,11.2-4.6,15.4-10c3.6-5.7,5.2-13.2,4-21.1c-0.7-8.1-3.1-14.9-7-18.9
							c-3.8-4-9.5-4.7-13.4-4.2c-3.9,0.5-6.1,1.4-6.1,1.4L-59.8-766.1z"/>
					</g>
				</g>
				<g>
					<g>
						<path class="st3" d="M-59.8-828.8c0,0,1.9-1.6,6-3.4c3.9-1.6,11.3-3.6,19.4,0.8c7.7,4.6,12.6,13.7,15.6,22.8
							c2.9,9.2,3.9,21.8-1.5,32.9c-2.6,5.6-7.2,10.7-12.9,13.7c-5.5,3.5-12.8,3.6-16.8,3.7c-12.7,0.3-22.2-6.9-26.4-14.2
							c-4.5-7-5.4-13.5-5.9-17.9c-0.5-4.4-0.1-6.9-0.1-6.9l1.8-0.3c0,0,1.1,2.1,3,5.7c2,3.5,5.2,8.4,9.7,12.4
							c4.5,3.9,10.8,5.8,16.1,5c8.6-1.3,11.2-4.6,15.4-10c3.6-5.7,5.2-13.2,4-21.1c-0.7-8.1-3.1-14.9-7-18.9
							c-3.8-4-9.5-4.7-13.4-4.2c-3.9,0.5-6.1,1.4-6.1,1.4L-59.8-828.8z"/>
					</g>
				</g>
				<g>
					<g>
						<path class="st3" d="M-59.8-891.6c0,0,1.9-1.6,6-3.4c3.9-1.6,11.3-3.6,19.4,0.8c7.7,4.6,12.6,13.7,15.6,22.8
							c2.9,9.2,3.9,21.8-1.5,32.9c-2.6,5.6-7.2,10.7-12.9,13.7c-5.5,3.5-12.8,3.6-16.8,3.7c-12.7,0.3-22.2-6.9-26.4-14.2
							c-4.5-7-5.4-13.5-5.9-17.9c-0.5-4.4-0.1-6.9-0.1-6.9l1.8-0.3c0,0,1.1,2.1,3,5.7c2,3.5,5.2,8.4,9.7,12.4
							c4.5,3.9,10.8,5.8,16.1,5c8.6-1.3,11.2-4.6,15.4-10c3.6-5.7,5.2-13.2,4-21.1c-0.7-8-3.1-14.9-7-18.9
							c-3.8-4.1-9.5-4.7-13.4-4.2c-3.9,0.5-6.1,1.4-6.1,1.4L-59.8-891.6z"/>
					</g>
				</g>
				<g>
					<g>
						<path class="st3" d="M-59.8-452.2c0,0,1.9-1.6,6-3.4c3.9-1.6,11.3-3.6,19.4,0.8c7.7,4.6,12.6,13.7,15.6,22.8
							c2.9,9.2,3.9,21.8-1.5,32.9c-2.6,5.6-7.2,10.7-12.9,13.7c-5.5,3.5-12.8,3.6-16.8,3.7c-12.7,0.3-22.2-6.9-26.4-14.2
							c-4.5-7-5.4-13.6-5.9-17.9c-0.5-4.4-0.1-6.9-0.1-6.9l1.8-0.3c0,0,1.1,2.1,3,5.7c2,3.5,5.2,8.4,9.7,12.4
							c4.5,3.9,10.8,5.8,16.1,5c8.6-1.3,11.2-4.6,15.4-10c3.6-5.7,5.2-13.2,4-21.1c-0.7-8.1-3.1-14.9-7-18.9
							c-3.8-4.1-9.5-4.7-13.4-4.2c-3.9,0.5-6.1,1.4-6.1,1.4L-59.8-452.2z"/>
					</g>
				</g>
				<g>
					<g>
						<path class="st3" d="M-59.8-515c0,0,1.9-1.6,6-3.4c3.9-1.6,11.3-3.6,19.4,0.8c7.7,4.6,12.6,13.7,15.6,22.8
							c2.9,9.2,3.9,21.8-1.5,32.9c-2.6,5.6-7.2,10.7-12.9,13.7c-5.5,3.5-12.8,3.6-16.8,3.7c-12.7,0.3-22.2-6.9-26.4-14.2
							c-4.5-7-5.4-13.6-5.9-17.9c-0.5-4.4-0.1-6.9-0.1-6.9l1.8-0.3c0,0,1.1,2.1,3,5.7c2,3.4,5.2,8.4,9.7,12.4
							c4.5,3.9,10.8,5.8,16.1,5c8.6-1.3,11.2-4.6,15.4-10c3.6-5.7,5.2-13.2,4-21.1c-0.7-8.1-3.1-14.9-7-18.9
							c-3.8-4-9.5-4.7-13.4-4.2c-3.9,0.5-6.1,1.4-6.1,1.4L-59.8-515z"/>
					</g>
				</g>
				<g>
					<g>
						<path class="st3" d="M-59.8-577.7c0,0,1.9-1.6,6-3.4c3.9-1.6,11.3-3.6,19.4,0.8c7.7,4.6,12.6,13.7,15.6,22.8
							c2.9,9.2,3.9,21.8-1.5,32.9c-2.6,5.6-7.2,10.7-12.9,13.7c-5.5,3.5-12.8,3.6-16.8,3.7c-12.7,0.3-22.2-6.9-26.4-14.2
							c-4.5-7-5.4-13.5-5.9-17.9c-0.5-4.4-0.1-6.9-0.1-6.9l1.8-0.3c0,0,1.1,2.1,3,5.7c2,3.5,5.2,8.4,9.7,12.4
							c4.5,3.9,10.8,5.8,16.1,5c8.6-1.3,11.2-4.6,15.4-10c3.6-5.7,5.2-13.2,4-21.1c-0.7-8.1-3.1-14.9-7-18.9
							c-3.8-4-9.5-4.7-13.4-4.2c-3.9,0.5-6.1,1.4-6.1,1.4L-59.8-577.7z"/>
					</g>
				</g>
				<g>
					<g>
						<path class="st3" d="M-59.8-640.5c0,0,1.9-1.6,6-3.4c3.9-1.6,11.3-3.6,19.4,0.8c7.7,4.6,12.6,13.7,15.6,22.8
							c2.9,9.2,3.9,21.8-1.5,32.9c-2.6,5.6-7.2,10.7-12.9,13.7c-5.5,3.5-12.8,3.6-16.8,3.7c-12.7,0.3-22.2-6.9-26.4-14.2
							c-4.5-7-5.4-13.5-5.9-17.9c-0.5-4.4-0.1-6.9-0.1-6.9l1.8-0.3c0,0,1.1,2.1,3,5.7c2,3.5,5.2,8.4,9.7,12.4
							c4.5,3.9,10.8,5.8,16.1,5c8.6-1.3,11.2-4.6,15.4-10c3.6-5.7,5.2-13.2,4-21.1c-0.7-8-3.1-14.9-7-18.9
							c-3.8-4.1-9.5-4.7-13.4-4.2c-3.9,0.5-6.1,1.4-6.1,1.4L-59.8-640.5z"/>
					</g>
				</g>
				<g>
					<g>
						<path class="st3" d="M-59.8-201.1c0,0,1.9-1.6,6-3.4c3.9-1.6,11.3-3.6,19.4,0.8c7.7,4.6,12.6,13.7,15.6,22.8
							c2.9,9.2,3.9,21.8-1.5,32.9c-2.6,5.6-7.2,10.7-12.9,13.7c-5.5,3.5-12.8,3.6-16.8,3.7c-12.7,0.3-22.2-6.9-26.4-14.2
							c-4.5-7-5.4-13.6-5.9-17.9c-0.5-4.4-0.1-6.9-0.1-6.9l1.8-0.3c0,0,1.1,2.1,3,5.7c2,3.5,5.2,8.4,9.7,12.4c4.5,4,10.8,5.8,16.1,5
							c8.6-1.3,11.2-4.6,15.4-10c3.6-5.7,5.2-13.2,4-21.1c-0.7-8.1-3.1-14.9-7-18.9c-3.8-4.1-9.5-4.7-13.4-4.2
							c-3.9,0.5-6.1,1.4-6.1,1.4L-59.8-201.1z"/>
					</g>
				</g>
				<g>
					<g>
						<path class="st3" d="M-59.8-263.9c0,0,1.9-1.6,6-3.4c3.9-1.6,11.3-3.6,19.4,0.8c7.7,4.6,12.6,13.7,15.6,22.8
							c2.9,9.2,3.9,21.8-1.5,32.9c-2.6,5.6-7.2,10.7-12.9,13.7c-5.5,3.5-12.8,3.6-16.8,3.7c-12.7,0.3-22.2-6.9-26.4-14.2
							c-4.5-7-5.4-13.6-5.9-17.9c-0.5-4.4-0.1-6.9-0.1-6.9l1.8-0.3c0,0,1.1,2.1,3,5.7c2,3.4,5.2,8.4,9.7,12.4
							c4.5,3.9,10.8,5.8,16.1,5c8.6-1.3,11.2-4.6,15.4-10c3.6-5.7,5.2-13.2,4-21.1c-0.7-8.1-3.1-14.9-7-18.9
							c-3.8-4-9.5-4.7-13.4-4.2c-3.9,0.5-6.1,1.4-6.1,1.4L-59.8-263.9z"/>
					</g>
				</g>
				<g>
					<g>
						<path class="st3" d="M-59.8-326.7c0,0,1.9-1.6,6-3.4c3.9-1.6,11.3-3.6,19.4,0.8c7.7,4.6,12.6,13.7,15.6,22.8
							c2.9,9.2,3.9,21.8-1.5,32.9c-2.6,5.6-7.2,10.7-12.9,13.7c-5.5,3.5-12.8,3.6-16.8,3.7c-12.7,0.3-22.2-6.9-26.4-14.2
							c-4.5-7-5.4-13.5-5.9-17.9c-0.5-4.4-0.1-6.9-0.1-6.9l1.8-0.3c0,0,1.1,2.1,3,5.7c2,3.5,5.2,8.4,9.7,12.4
							c4.5,3.9,10.8,5.8,16.1,5c8.6-1.3,11.2-4.6,15.4-10c3.6-5.7,5.2-13.2,4-21.1c-0.7-8.1-3.1-14.9-7-18.9
							c-3.8-4-9.5-4.7-13.4-4.2c-3.9,0.5-6.1,1.4-6.1,1.4L-59.8-326.7z"/>
					</g>
				</g>
				<g>
					<g>
						<path class="st3" d="M-59.8-389.4c0,0,1.9-1.6,6-3.4c3.9-1.6,11.3-3.6,19.4,0.8c7.7,4.6,12.6,13.7,15.6,22.8
							c2.9,9.2,3.9,21.8-1.5,32.9c-2.6,5.6-7.2,10.7-12.9,13.7c-5.5,3.5-12.8,3.6-16.8,3.7c-12.7,0.3-22.2-6.9-26.4-14.2
							c-4.5-7-5.4-13.5-5.9-17.9c-0.5-4.4-0.1-6.9-0.1-6.9l1.8-0.3c0,0,1.1,2.1,3,5.7c2,3.5,5.2,8.4,9.7,12.4
							c4.5,3.9,10.8,5.8,16.1,5c8.6-1.3,11.2-4.6,15.4-10c3.6-5.7,5.2-13.2,4-21.1c-0.7-8-3.1-14.9-7-18.9
							c-3.8-4.1-9.5-4.7-13.4-4.2c-3.9,0.5-6.1,1.4-6.1,1.4L-59.8-389.4z"/>
					</g>
				</g>
				<g>
					<g>
						<path class="st3" d="M-59.8,50c0,0,1.9-1.6,6-3.4c3.9-1.6,11.3-3.6,19.4,0.8C-26.7,52-21.8,61-18.8,70.2
							c2.9,9.2,3.9,21.8-1.5,32.9c-2.6,5.6-7.2,10.7-12.9,13.7c-5.5,3.5-12.8,3.6-16.8,3.7c-12.7,0.3-22.2-6.9-26.4-14.2
							c-4.5-7-5.4-13.6-5.9-17.9c-0.5-4.4-0.1-6.9-0.1-6.9l1.8-0.3c0,0,1.1,2.1,3,5.7c2,3.5,5.2,8.4,9.7,12.4c4.5,4,10.8,5.8,16.1,5
							c8.6-1.3,11.2-4.6,15.4-10c3.6-5.7,5.2-13.2,4-21.1c-0.7-8-3.1-14.9-7-18.9c-3.8-4.1-9.5-4.7-13.4-4.2
							c-3.9,0.5-6.1,1.4-6.1,1.4L-59.8,50z"/>
					</g>
				</g>
				<g>
					<g>
						<path class="st3" d="M-59.8-12.8c0,0,1.9-1.6,6-3.4c3.9-1.6,11.3-3.6,19.4,0.8c7.7,4.6,12.6,13.7,15.6,22.8
							c2.9,9.2,3.9,21.8-1.5,32.9C-23,45.9-27.5,51-33.3,54.1c-5.5,3.5-12.8,3.6-16.8,3.7c-12.7,0.3-22.2-6.9-26.4-14.2
							c-4.5-7-5.4-13.6-5.9-17.9c-0.5-4.4-0.1-6.9-0.1-6.9l1.8-0.3c0,0,1.1,2.1,3,5.7c2,3.4,5.2,8.4,9.7,12.4
							c4.5,3.9,10.8,5.8,16.1,5c8.6-1.3,11.2-4.6,15.4-10c3.6-5.7,5.2-13.2,4-21.1c-0.7-8.1-3.1-14.9-7-18.9
							c-3.8-4-9.5-4.7-13.4-4.2c-3.9,0.5-6.1,1.4-6.1,1.4L-59.8-12.8z"/>
					</g>
				</g>
				<g>
					<g>
						<path class="st3" d="M-59.8-75.6c0,0,1.9-1.6,6-3.4c3.9-1.6,11.3-3.6,19.4,0.8c7.7,4.6,12.6,13.7,15.6,22.8
							c2.9,9.2,3.9,21.8-1.5,32.9c-2.6,5.6-7.2,10.7-12.9,13.7C-38.8-5.2-46-5.1-50.1-5c-12.7,0.3-22.2-6.9-26.4-14.2
							c-4.5-7-5.4-13.5-5.9-17.9c-0.5-4.4-0.1-6.9-0.1-6.9l1.8-0.3c0,0,1.1,2.1,3,5.7c2,3.5,5.2,8.4,9.7,12.4
							c4.5,3.9,10.8,5.8,16.1,5c8.6-1.3,11.2-4.6,15.4-10c3.6-5.7,5.2-13.2,4-21.1c-0.7-8.1-3.1-14.9-7-18.9
							c-3.8-4-9.5-4.7-13.4-4.2c-3.9,0.5-6.1,1.4-6.1,1.4L-59.8-75.6z"/>
					</g>
				</g>
				<g>
					<g>
						<path class="st3" d="M-59.8-138.3c0,0,1.9-1.6,6-3.4c3.9-1.6,11.3-3.6,19.4,0.8c7.7,4.6,12.6,13.7,15.6,22.8
							c2.9,9.2,3.9,21.8-1.5,32.9c-2.6,5.6-7.2,10.7-12.9,13.7c-5.5,3.5-12.8,3.6-16.8,3.7c-12.7,0.3-22.2-6.9-26.4-14.2
							c-4.5-7-5.4-13.5-5.9-17.9c-0.5-4.4-0.1-6.9-0.1-6.9l1.8-0.3c0,0,1.1,2.1,3,5.7c2,3.5,5.2,8.4,9.7,12.4
							c4.5,3.9,10.8,5.8,16.1,5c8.6-1.3,11.2-4.6,15.4-10c3.6-5.7,5.2-13.2,4-21.1c-0.7-8-3.1-14.9-7-18.9
							c-3.8-4.1-9.5-4.7-13.4-4.2c-3.9,0.5-6.1,1.4-6.1,1.4L-59.8-138.3z"/>
					</g>
				</g>
				<g>
					<g>
						<path class="st3" d="M-59.8,301.1c0,0,1.9-1.6,6-3.4c3.9-1.6,11.3-3.6,19.4,0.8c7.7,4.6,12.6,13.7,15.6,22.8
							c2.9,9.2,3.9,21.8-1.5,32.9c-2.6,5.6-7.2,10.7-12.9,13.7c-5.5,3.5-12.8,3.6-16.8,3.7c-12.7,0.3-22.2-6.9-26.4-14.2
							c-4.5-7-5.4-13.6-5.9-17.9c-0.5-4.4-0.1-6.9-0.1-6.9l1.8-0.3c0,0,1.1,2.1,3,5.7c2,3.5,5.2,8.4,9.7,12.4c4.5,4,10.8,5.8,16.1,5
							c8.6-1.3,11.2-4.6,15.4-10c3.6-5.7,5.2-13.2,4-21.1c-0.7-8-3.1-14.9-7-18.9c-3.8-4.1-9.5-4.7-13.4-4.2
							c-3.9,0.5-6.1,1.4-6.1,1.4L-59.8,301.1z"/>
					</g>
				</g>
				<g>
					<g>
						<path class="st3" d="M-59.8,238.3c0,0,1.9-1.6,6-3.4c3.9-1.6,11.3-3.6,19.4,0.8c7.7,4.6,12.6,13.7,15.6,22.8
							c2.9,9.2,3.9,21.8-1.5,32.9c-2.6,5.6-7.2,10.7-12.9,13.7c-5.5,3.5-12.8,3.6-16.8,3.7c-12.7,0.3-22.2-6.9-26.4-14.2
							c-4.5-7-5.4-13.6-5.9-17.9c-0.5-4.4-0.1-6.9-0.1-6.9l1.8-0.3c0,0,1.1,2.1,3,5.7c2,3.5,5.2,8.4,9.7,12.4
							c4.5,3.9,10.8,5.8,16.1,5c8.6-1.3,11.2-4.6,15.4-10c3.6-5.7,5.2-13.2,4-21.1c-0.7-8.1-3.1-14.9-7-18.9
							c-3.8-4-9.5-4.7-13.4-4.2c-3.9,0.5-6.1,1.4-6.1,1.4L-59.8,238.3z"/>
					</g>
				</g>
				<g>
					<g>
						<path class="st3" d="M-59.8,175.5c0,0,1.9-1.6,6-3.4c3.9-1.6,11.3-3.6,19.4,0.8c7.7,4.6,12.6,13.7,15.6,22.8
							c2.9,9.2,3.9,21.8-1.5,32.9c-2.6,5.6-7.2,10.7-12.9,13.7c-5.5,3.5-12.8,3.6-16.8,3.7c-12.7,0.3-22.2-6.9-26.4-14.2
							c-4.5-7-5.4-13.5-5.9-17.9c-0.5-4.4-0.1-6.9-0.1-6.9l1.8-0.3c0,0,1.1,2.1,3,5.7c2,3.5,5.2,8.4,9.7,12.4
							c4.5,3.9,10.8,5.8,16.1,5c8.6-1.3,11.2-4.6,15.4-10c3.6-5.7,5.2-13.2,4-21.1c-0.7-8.1-3.1-14.9-7-18.9
							c-3.8-4-9.5-4.7-13.4-4.2c-3.9,0.5-6.1,1.4-6.1,1.4L-59.8,175.5z"/>
					</g>
				</g>
				<g>
					<g>
						<path class="st3" d="M-59.8,112.7c0,0,1.9-1.6,6-3.4c3.9-1.6,11.3-3.6,19.4,0.8c7.7,4.6,12.6,13.7,15.6,22.8
							c2.9,9.2,3.9,21.8-1.5,32.9c-2.6,5.6-7.2,10.7-12.9,13.7c-5.5,3.5-12.8,3.6-16.8,3.7c-12.7,0.3-22.2-6.9-26.4-14.2
							c-4.5-7-5.4-13.5-5.9-17.9c-0.5-4.4-0.1-6.9-0.1-6.9l1.8-0.3c0,0,1.1,2.1,3,5.7c2,3.5,5.2,8.4,9.7,12.4
							c4.5,3.9,10.8,5.8,16.1,5c8.6-1.3,11.2-4.6,15.4-10c3.6-5.7,5.2-13.2,4-21.1c-0.7-8.1-3.1-14.9-7-18.9
							c-3.8-4.1-9.5-4.7-13.4-4.2c-3.9,0.5-6.1,1.4-6.1,1.4L-59.8,112.7z"/>
					</g>
				</g>
				<g>
					<g>
						<path class="st3" d="M-59.8,552.1c0,0,1.9-1.6,6-3.4c3.9-1.6,11.3-3.6,19.4,0.8c7.7,4.6,12.6,13.7,15.6,22.8
							c2.9,9.2,3.9,21.8-1.5,32.9c-2.6,5.6-7.2,10.7-12.9,13.7c-5.5,3.5-12.8,3.6-16.8,3.7c-12.7,0.3-22.2-6.9-26.4-14.2
							c-4.5-7-5.4-13.5-5.9-17.9c-0.5-4.4-0.1-6.9-0.1-6.9l1.8-0.3c0,0,1.1,2.1,3,5.7c2,3.5,5.2,8.4,9.7,12.4c4.5,4,10.8,5.8,16.1,5
							c8.6-1.3,11.2-4.6,15.4-10c3.6-5.7,5.2-13.2,4-21.1c-0.7-8-3.1-14.9-7-18.9c-3.8-4.1-9.5-4.7-13.4-4.2
							c-3.9,0.5-6.1,1.4-6.1,1.4L-59.8,552.1z"/>
					</g>
				</g>
				<g>
					<g>
						<path class="st3" d="M-59.8,489.4c0,0,1.9-1.6,6-3.4c3.9-1.6,11.3-3.6,19.4,0.8c7.7,4.6,12.6,13.7,15.6,22.8
							c2.9,9.2,3.9,21.8-1.5,32.9c-2.6,5.6-7.2,10.7-12.9,13.7c-5.5,3.5-12.8,3.6-16.8,3.7c-12.7,0.3-22.2-6.9-26.4-14.2
							c-4.5-7-5.4-13.6-5.9-17.9c-0.5-4.4-0.1-6.9-0.1-6.9l1.8-0.3c0,0,1.1,2.1,3,5.7c2,3.5,5.2,8.4,9.7,12.4
							c4.5,3.9,10.8,5.8,16.1,5c8.6-1.3,11.2-4.6,15.4-10c3.6-5.7,5.2-13.2,4-21.1c-0.7-8.1-3.1-14.9-7-18.9
							c-3.8-4-9.5-4.7-13.4-4.2c-3.9,0.5-6.1,1.4-6.1,1.4L-59.8,489.4z"/>
					</g>
				</g>
				<g>
					<g>
						<path class="st3" d="M-59.8,426.6c0,0,1.9-1.6,6-3.4c3.9-1.6,11.3-3.6,19.4,0.8c7.7,4.6,12.6,13.7,15.6,22.8
							c2.9,9.2,3.9,21.8-1.5,32.9c-2.6,5.6-7.2,10.7-12.9,13.7c-5.5,3.5-12.8,3.6-16.8,3.7c-12.7,0.3-22.2-6.9-26.4-14.2
							c-4.5-7-5.4-13.5-5.9-17.9c-0.5-4.4-0.1-6.9-0.1-6.9l1.8-0.3c0,0,1.1,2.1,3,5.7c2,3.5,5.2,8.4,9.7,12.4
							c4.5,3.9,10.8,5.8,16.1,5c8.6-1.3,11.2-4.6,15.4-10c3.6-5.7,5.2-13.2,4-21.1c-0.7-8.1-3.1-14.9-7-18.9
							c-3.8-4-9.5-4.7-13.4-4.2c-3.9,0.5-6.1,1.4-6.1,1.4L-59.8,426.6z"/>
					</g>
				</g>
				<g>
					<g>
						<path class="st3" d="M-59.8,363.8c0,0,1.9-1.6,6-3.4c3.9-1.6,11.3-3.6,19.4,0.8c7.7,4.6,12.6,13.7,15.6,22.8
							c2.9,9.2,3.9,21.8-1.5,32.9c-2.6,5.6-7.2,10.7-12.9,13.7c-5.5,3.5-12.8,3.6-16.8,3.7c-12.7,0.3-22.2-6.9-26.4-14.2
							c-4.5-7-5.4-13.5-5.9-17.9c-0.5-4.4-0.1-6.9-0.1-6.9l1.8-0.3c0,0,1.1,2.1,3,5.7c2,3.5,5.2,8.4,9.7,12.4
							c4.5,3.9,10.8,5.8,16.1,5c8.6-1.3,11.2-4.6,15.4-10c3.6-5.7,5.2-13.3,4-21.1c-0.7-8.1-3.1-14.9-7-18.9
							c-3.8-4-9.5-4.7-13.4-4.2c-3.9,0.5-6.1,1.4-6.1,1.4L-59.8,363.8z"/>
					</g>
				</g>
				<g>
					<g>
						<path class="st3" d="M-59.8,803.2c0,0,1.9-1.6,6-3.4c3.9-1.6,11.3-3.6,19.4,0.8c7.7,4.6,12.6,13.7,15.6,22.8
							c2.9,9.2,3.9,21.8-1.5,32.9c-2.6,5.6-7.2,10.7-12.9,13.7c-5.5,3.5-12.8,3.6-16.8,3.7c-12.7,0.3-22.2-6.9-26.4-14.2
							c-4.5-7-5.4-13.5-5.9-17.9c-0.5-4.4-0.1-6.9-0.1-6.9l1.8-0.3c0,0,1.1,2.1,3,5.7c2,3.5,5.2,8.4,9.7,12.4c4.5,4,10.8,5.8,16.1,5
							c8.6-1.3,11.2-4.6,15.4-10c3.6-5.7,5.2-13.2,4-21.1c-0.7-8-3.1-14.9-7-18.9c-3.8-4.1-9.5-4.7-13.4-4.2
							c-3.9,0.5-6.1,1.4-6.1,1.4L-59.8,803.2z"/>
					</g>
				</g>
				<g>
					<g>
						<path class="st3" d="M-59.8,740.5c0,0,1.9-1.6,6-3.4c3.9-1.6,11.3-3.6,19.4,0.8c7.7,4.6,12.6,13.7,15.6,22.8
							c2.9,9.2,3.9,21.8-1.5,32.9c-2.6,5.6-7.2,10.7-12.9,13.7c-5.5,3.5-12.8,3.6-16.8,3.7c-12.7,0.3-22.2-6.9-26.4-14.2
							c-4.5-7-5.4-13.6-5.9-17.9c-0.5-4.4-0.1-6.9-0.1-6.9l1.8-0.3c0,0,1.1,2.1,3,5.7c2,3.5,5.2,8.4,9.7,12.4
							c4.5,3.9,10.8,5.8,16.1,5c8.6-1.3,11.2-4.6,15.4-10c3.6-5.7,5.2-13.2,4-21.1c-0.7-8.1-3.1-14.9-7-18.9
							c-3.8-4-9.5-4.7-13.4-4.2c-3.9,0.5-6.1,1.4-6.1,1.4L-59.8,740.5z"/>
					</g>
				</g>
				<g>
					<g>
						<path class="st3" d="M-59.8,677.7c0,0,1.9-1.6,6-3.4c3.9-1.6,11.3-3.6,19.4,0.8c7.7,4.6,12.6,13.7,15.6,22.8
							c2.9,9.2,3.9,21.8-1.5,32.9c-2.6,5.6-7.2,10.7-12.9,13.7c-5.5,3.5-12.8,3.6-16.8,3.7c-12.7,0.3-22.2-6.9-26.4-14.2
							c-4.5-7-5.4-13.5-5.9-17.9c-0.5-4.4-0.1-6.9-0.1-6.9l1.8-0.3c0,0,1.1,2.1,3,5.7c2,3.4,5.2,8.4,9.7,12.4
							c4.5,3.9,10.8,5.8,16.1,5c8.6-1.3,11.2-4.6,15.4-10c3.6-5.7,5.2-13.2,4-21.1c-0.7-8.1-3.1-14.9-7-18.9
							c-3.8-4-9.5-4.7-13.4-4.2c-3.9,0.5-6.1,1.4-6.1,1.4L-59.8,677.7z"/>
					</g>
				</g>
				<g>
					<g>
						<path class="st3" d="M-59.8,614.9c0,0,1.9-1.6,6-3.4c3.9-1.6,11.3-3.6,19.4,0.8c7.7,4.6,12.6,13.7,15.6,22.8
							c2.9,9.2,3.9,21.8-1.5,32.9c-2.6,5.6-7.2,10.7-12.9,13.7c-5.5,3.5-12.8,3.6-16.8,3.7c-12.7,0.3-22.2-6.9-26.4-14.2
							c-4.5-7-5.4-13.5-5.9-17.9c-0.5-4.4-0.1-6.9-0.1-6.9l1.8-0.3c0,0,1.1,2.1,3,5.7c2,3.5,5.2,8.4,9.7,12.4
							c4.5,3.9,10.8,5.8,16.1,5c8.6-1.3,11.2-4.6,15.4-10c3.6-5.7,5.2-13.3,4-21.1c-0.7-8.1-3.1-14.9-7-18.9
							c-3.8-4-9.5-4.7-13.4-4.2c-3.9,0.5-6.1,1.4-6.1,1.4L-59.8,614.9z"/>
					</g>
				</g>
				<g>
					<g>
						<path class="st3" d="M-59.8,1054.3c0,0,1.9-1.6,6-3.4c3.9-1.6,11.3-3.6,19.4,0.8c7.7,4.6,12.6,13.7,15.6,22.8
							c2.9,9.2,3.9,21.8-1.5,32.9c-2.6,5.6-7.2,10.7-12.9,13.7c-5.5,3.5-12.8,3.6-16.8,3.7c-12.7,0.3-22.2-6.9-26.4-14.2
							c-4.5-7-5.4-13.5-5.9-17.9c-0.5-4.4-0.1-6.9-0.1-6.9l1.8-0.3c0,0,1.1,2.1,3,5.7c2,3.5,5.2,8.4,9.7,12.4c4.5,4,10.8,5.8,16.1,5
							c8.6-1.3,11.2-4.6,15.4-10c3.6-5.7,5.2-13.2,4-21.1c-0.7-8-3.1-14.9-7-18.9c-3.8-4.1-9.5-4.7-13.4-4.2
							c-3.9,0.5-6.1,1.4-6.1,1.4L-59.8,1054.3z"/>
					</g>
				</g>
				<g>
					<g>
						<path class="st3" d="M-59.8,991.5c0,0,1.9-1.6,6-3.4c3.9-1.6,11.3-3.6,19.4,0.8c7.7,4.6,12.6,13.7,15.6,22.8
							c2.9,9.2,3.9,21.8-1.5,32.9c-2.6,5.6-7.2,10.7-12.9,13.7c-5.5,3.5-12.8,3.6-16.8,3.7c-12.7,0.3-22.2-6.9-26.4-14.2
							c-4.5-7-5.4-13.6-5.9-17.9c-0.5-4.4-0.1-6.9-0.1-6.9l1.8-0.3c0,0,1.1,2.1,3,5.7c2,3.5,5.2,8.4,9.7,12.4
							c4.5,3.9,10.8,5.8,16.1,5c8.6-1.3,11.2-4.6,15.4-10c3.6-5.7,5.2-13.2,4-21.1c-0.7-8.1-3.1-14.9-7-18.9
							c-3.8-4-9.5-4.7-13.4-4.2c-3.9,0.5-6.1,1.4-6.1,1.4L-59.8,991.5z"/>
					</g>
				</g>
				<g>
					<g>
						<path class="st3" d="M-59.8,928.8c0,0,1.9-1.6,6-3.4c3.9-1.6,11.3-3.6,19.4,0.8c7.7,4.6,12.6,13.7,15.6,22.8
							c2.9,9.2,3.9,21.8-1.5,32.9c-2.6,5.6-7.2,10.7-12.9,13.7c-5.5,3.5-12.8,3.6-16.8,3.7c-12.7,0.3-22.2-6.9-26.4-14.2
							c-4.5-7-5.4-13.5-5.9-17.9c-0.5-4.4-0.1-6.9-0.1-6.9l1.8-0.3c0,0,1.1,2.1,3,5.7c2,3.4,5.2,8.4,9.7,12.4
							c4.5,3.9,10.8,5.8,16.1,5c8.6-1.3,11.2-4.6,15.4-10c3.6-5.7,5.2-13.2,4-21.1c-0.7-8.1-3.1-14.9-7-18.9
							c-3.8-4-9.5-4.7-13.4-4.2c-3.9,0.5-6.1,1.4-6.1,1.4L-59.8,928.8z"/>
					</g>
				</g>
				<g>
					<g>
						<path class="st3" d="M-59.8,866c0,0,1.9-1.6,6-3.4c3.9-1.6,11.3-3.6,19.4,0.8c7.7,4.6,12.6,13.7,15.6,22.8
							c2.9,9.2,3.9,21.8-1.5,32.9c-2.6,5.6-7.2,10.7-12.9,13.7c-5.5,3.5-12.8,3.6-16.8,3.7c-12.7,0.3-22.2-6.9-26.4-14.2
							c-4.5-7-5.4-13.5-5.9-17.9c-0.5-4.4-0.1-6.9-0.1-6.9l1.8-0.3c0,0,1.1,2.1,3,5.7c2,3.5,5.2,8.4,9.7,12.4
							c4.5,3.9,10.8,5.8,16.1,5c8.6-1.3,11.2-4.6,15.4-10c3.6-5.7,5.2-13.3,4-21.1c-0.7-8.1-3.1-14.9-7-18.9
							c-3.8-4-9.5-4.7-13.4-4.2c-3.9,0.5-6.1,1.4-6.1,1.4L-59.8,866z"/>
					</g>
				</g>
				<g>
					<g>
						<path class="st3" d="M-59.8,1305.4c0,0,1.9-1.6,6-3.4c3.9-1.6,11.3-3.6,19.4,0.8c7.7,4.6,12.6,13.7,15.6,22.8
							c2.9,9.2,3.9,21.8-1.5,32.9c-2.6,5.6-7.2,10.7-12.9,13.7c-5.5,3.5-12.8,3.6-16.8,3.7c-12.7,0.3-22.2-6.9-26.4-14.2
							c-4.5-7-5.4-13.5-5.9-17.9c-0.5-4.4-0.1-6.9-0.1-6.9l1.8-0.3c0,0,1.1,2.1,3,5.7c2,3.5,5.2,8.4,9.7,12.4c4.5,4,10.8,5.8,16.1,5
							c8.6-1.3,11.2-4.6,15.4-10c3.6-5.7,5.2-13.2,4-21.1c-0.7-8-3.1-14.9-7-18.9c-3.8-4.1-9.5-4.7-13.4-4.2
							c-3.9,0.5-6.1,1.4-6.1,1.4L-59.8,1305.4z"/>
					</g>
				</g>
				<g>
					<g>
						<path class="st3" d="M-59.8,1242.6c0,0,1.9-1.6,6-3.4c3.9-1.6,11.3-3.6,19.4,0.8c7.7,4.6,12.6,13.7,15.6,22.8
							c2.9,9.2,3.9,21.8-1.5,32.9c-2.6,5.6-7.2,10.7-12.9,13.7c-5.5,3.5-12.8,3.6-16.8,3.7c-12.7,0.3-22.2-6.9-26.4-14.2
							c-4.5-7-5.4-13.6-5.9-17.9c-0.5-4.4-0.1-6.9-0.1-6.9l1.8-0.3c0,0,1.1,2.1,3,5.7c2,3.5,5.2,8.4,9.7,12.4
							c4.5,3.9,10.8,5.8,16.1,5c8.6-1.3,11.2-4.6,15.4-10c3.6-5.7,5.2-13.2,4-21.1c-0.7-8.1-3.1-14.9-7-18.9
							c-3.8-4-9.5-4.7-13.4-4.2c-3.9,0.5-6.1,1.4-6.1,1.4L-59.8,1242.6z"/>
					</g>
				</g>
				<g>
					<g>
						<path class="st3" d="M-59.8,1179.9c0,0,1.9-1.6,6-3.4c3.9-1.6,11.3-3.6,19.4,0.8c7.7,4.6,12.6,13.7,15.6,22.8
							c2.9,9.2,3.9,21.8-1.5,32.9c-2.6,5.6-7.2,10.7-12.9,13.7c-5.5,3.5-12.8,3.6-16.8,3.7c-12.7,0.3-22.2-6.9-26.4-14.2
							c-4.5-7-5.4-13.5-5.9-17.9c-0.5-4.4-0.1-6.9-0.1-6.9l1.8-0.3c0,0,1.1,2.1,3,5.7c2,3.4,5.2,8.4,9.7,12.4
							c4.5,3.9,10.8,5.8,16.1,5c8.6-1.3,11.2-4.6,15.4-10c3.6-5.7,5.2-13.2,4-21.1c-0.7-8.1-3.1-14.9-7-18.9
							c-3.8-4-9.5-4.7-13.4-4.2c-3.9,0.5-6.1,1.4-6.1,1.4L-59.8,1179.9z"/>
					</g>
				</g>
				<g>
					<g>
						<path class="st3" d="M-59.8,1117.1c0,0,1.9-1.6,6-3.4c3.9-1.6,11.3-3.6,19.4,0.8c7.7,4.6,12.6,13.7,15.6,22.8
							c2.9,9.2,3.9,21.8-1.5,32.9c-2.6,5.6-7.2,10.7-12.9,13.7c-5.5,3.5-12.8,3.6-16.8,3.7c-12.7,0.3-22.2-6.9-26.4-14.2
							c-4.5-7-5.4-13.5-5.9-17.9c-0.5-4.4-0.1-6.9-0.1-6.9l1.8-0.3c0,0,1.1,2.1,3,5.7c2,3.5,5.2,8.4,9.7,12.4
							c4.5,3.9,10.8,5.8,16.1,5c8.6-1.3,11.2-4.6,15.4-10c3.6-5.7,5.2-13.3,4-21.1c-0.7-8.1-3.1-14.9-7-18.9
							c-3.8-4-9.5-4.7-13.4-4.2c-3.9,0.5-6.1,1.4-6.1,1.4L-59.8,1117.1z"/>
					</g>
				</g>
				<g>
					<g>
						<path class="st3" d="M-59.8,1556.5c0,0,1.9-1.6,6-3.4c3.9-1.6,11.3-3.6,19.4,0.8c7.7,4.6,12.6,13.7,15.6,22.8
							c2.9,9.2,3.9,21.8-1.5,32.9c-2.6,5.6-7.2,10.7-12.9,13.7c-5.5,3.5-12.8,3.6-16.8,3.7c-12.7,0.3-22.2-6.9-26.4-14.2
							c-4.5-7-5.4-13.5-5.9-17.9c-0.5-4.4-0.1-6.9-0.1-6.9l1.8-0.3c0,0,1.1,2.1,3,5.7c2,3.5,5.2,8.4,9.7,12.4c4.5,4,10.8,5.8,16.1,5
							c8.6-1.3,11.2-4.6,15.4-10c3.6-5.7,5.2-13.2,4-21.1c-0.7-8-3.1-14.9-7-18.9c-3.8-4.1-9.5-4.7-13.4-4.2
							c-3.9,0.5-6.1,1.4-6.1,1.4L-59.8,1556.5z"/>
					</g>
				</g>
				<g>
					<g>
						<path class="st3" d="M-59.8,1493.7c0,0,1.9-1.6,6-3.4c3.9-1.6,11.3-3.6,19.4,0.8c7.7,4.6,12.6,13.7,15.6,22.8
							c2.9,9.2,3.9,21.8-1.5,32.9c-2.6,5.6-7.2,10.7-12.9,13.7c-5.5,3.5-12.8,3.6-16.8,3.7c-12.7,0.3-22.2-6.9-26.4-14.2
							c-4.5-7-5.4-13.6-5.9-17.9c-0.5-4.4-0.1-6.9-0.1-6.9l1.8-0.3c0,0,1.1,2.1,3,5.7c2,3.5,5.2,8.4,9.7,12.4
							c4.5,3.9,10.8,5.8,16.1,5c8.6-1.3,11.2-4.6,15.4-10c3.6-5.7,5.2-13.2,4-21.1c-0.7-8.1-3.1-14.9-7-18.9
							c-3.8-4-9.5-4.7-13.4-4.2c-3.9,0.5-6.1,1.4-6.1,1.4L-59.8,1493.7z"/>
					</g>
				</g>
				<g>
					<g>
						<path class="st3" d="M-59.8,1430.9c0,0,1.9-1.6,6-3.4c3.9-1.6,11.3-3.6,19.4,0.8c7.7,4.6,12.6,13.7,15.6,22.8
							c2.9,9.2,3.9,21.8-1.5,32.9c-2.6,5.6-7.2,10.7-12.9,13.7c-5.5,3.5-12.8,3.6-16.8,3.7c-12.7,0.3-22.2-6.9-26.4-14.2
							c-4.5-7-5.4-13.5-5.9-17.9c-0.5-4.4-0.1-6.9-0.1-6.9l1.8-0.3c0,0,1.1,2.1,3,5.7c2,3.4,5.2,8.4,9.7,12.4
							c4.5,3.9,10.8,5.8,16.1,5c8.6-1.3,11.2-4.6,15.4-10c3.6-5.7,5.2-13.2,4-21.1c-0.7-8.1-3.1-14.9-7-18.9
							c-3.8-4-9.5-4.7-13.4-4.2c-3.9,0.5-6.1,1.4-6.1,1.4L-59.8,1430.9z"/>
					</g>
				</g>
				<g>
					<g>
						<path class="st3" d="M-59.8,1368.2c0,0,1.9-1.6,6-3.4c3.9-1.6,11.3-3.6,19.4,0.8c7.7,4.6,12.6,13.7,15.6,22.8
							c2.9,9.2,3.9,21.8-1.5,32.9c-2.6,5.6-7.2,10.7-12.9,13.7c-5.5,3.5-12.8,3.6-16.8,3.7c-12.7,0.3-22.2-6.9-26.4-14.2
							c-4.5-7-5.4-13.5-5.9-17.9c-0.5-4.4-0.1-6.9-0.1-6.9l1.8-0.3c0,0,1.1,2.1,3,5.7c2,3.5,5.2,8.4,9.7,12.4
							c4.5,3.9,10.8,5.8,16.1,5c8.6-1.3,11.2-4.6,15.4-10c3.6-5.7,5.2-13.3,4-21.1c-0.7-8.1-3.1-14.9-7-18.9
							c-3.8-4-9.5-4.7-13.4-4.2c-3.9,0.5-6.1,1.4-6.1,1.4L-59.8,1368.2z"/>
					</g>
				</g>
				<g>
					<g>
						<path class="st3" d="M-59.8,1807.6c0,0,1.9-1.6,6-3.4c3.9-1.6,11.3-3.6,19.4,0.8c7.7,4.6,12.6,13.7,15.6,22.8
							c2.9,9.2,3.9,21.8-1.5,32.9c-2.6,5.6-7.2,10.7-12.9,13.7c-5.5,3.5-12.8,3.6-16.8,3.7c-12.7,0.3-22.2-6.9-26.4-14.2
							c-4.5-7-5.4-13.5-5.9-17.9c-0.5-4.4-0.1-6.9-0.1-6.9l1.8-0.3c0,0,1.1,2.1,3,5.7c2,3.5,5.2,8.4,9.7,12.4
							c4.5,3.9,10.8,5.8,16.1,5c8.6-1.3,11.2-4.6,15.4-10c3.6-5.7,5.2-13.2,4-21.1c-0.7-8-3.1-14.9-7-18.9
							c-3.8-4.1-9.5-4.7-13.4-4.2c-3.9,0.5-6.1,1.4-6.1,1.4L-59.8,1807.6z"/>
					</g>
				</g>
				<g>
					<g>
						<path class="st3" d="M-59.8,1744.8c0,0,1.9-1.6,6-3.4c3.9-1.6,11.3-3.6,19.4,0.8c7.7,4.6,12.6,13.7,15.6,22.8
							c2.9,9.2,3.9,21.8-1.5,32.9c-2.6,5.6-7.2,10.7-12.9,13.7c-5.5,3.5-12.8,3.6-16.8,3.7c-12.7,0.3-22.2-6.9-26.4-14.2
							c-4.5-7-5.4-13.6-5.9-17.9c-0.5-4.4-0.1-6.9-0.1-6.9l1.8-0.3c0,0,1.1,2.1,3,5.7c2,3.5,5.2,8.4,9.7,12.4
							c4.5,3.9,10.8,5.8,16.1,5c8.6-1.3,11.2-4.6,15.4-10c3.6-5.7,5.2-13.2,4-21.1c-0.7-8.1-3.1-14.9-7-18.9
							c-3.8-4-9.5-4.7-13.4-4.2c-3.9,0.5-6.1,1.4-6.1,1.4L-59.8,1744.8z"/>
					</g>
				</g>
				<g>
					<g>
						<path class="st3" d="M-59.8,1682c0,0,1.9-1.6,6-3.4c3.9-1.6,11.3-3.6,19.4,0.8c7.7,4.6,12.6,13.7,15.6,22.8
							c2.9,9.2,3.9,21.8-1.5,32.9c-2.6,5.6-7.2,10.7-12.9,13.7c-5.5,3.5-12.8,3.6-16.8,3.7c-12.7,0.3-22.2-6.9-26.4-14.2
							c-4.5-7-5.4-13.5-5.9-17.9c-0.5-4.4-0.1-6.9-0.1-6.9l1.8-0.3c0,0,1.1,2.1,3,5.7c2,3.4,5.2,8.4,9.7,12.4
							c4.5,3.9,10.8,5.8,16.1,5c8.6-1.3,11.2-4.6,15.4-10c3.6-5.7,5.2-13.2,4-21.1c-0.7-8.1-3.1-14.9-7-18.9
							c-3.8-4-9.5-4.7-13.4-4.2c-3.9,0.5-6.1,1.4-6.1,1.4L-59.8,1682z"/>
					</g>
				</g>
				<g>
					<g>
						<path class="st3" d="M-59.8,1619.3c0,0,1.9-1.6,6-3.4c3.9-1.6,11.3-3.6,19.4,0.8c7.7,4.6,12.6,13.7,15.6,22.8
							c2.9,9.2,3.9,21.8-1.5,32.9c-2.6,5.6-7.2,10.7-12.9,13.7c-5.5,3.5-12.8,3.6-16.8,3.7c-12.7,0.3-22.2-6.9-26.4-14.2
							c-4.5-7-5.4-13.5-5.9-17.9c-0.5-4.4-0.1-6.9-0.1-6.9l1.8-0.3c0,0,1.1,2.1,3,5.7c2,3.5,5.2,8.4,9.7,12.4
							c4.5,3.9,10.8,5.8,16.1,5c8.6-1.3,11.2-4.6,15.4-10c3.6-5.7,5.2-13.3,4-21.1c-0.7-8.1-3.1-14.9-7-18.9
							c-3.8-4-9.5-4.7-13.4-4.2c-3.9,0.5-6.1,1.4-6.1,1.4L-59.8,1619.3z"/>
					</g>
				</g>
				<g>
					<g>
						<path class="st3" d="M-59.8,2058.7c0,0,1.9-1.6,6-3.4c3.9-1.6,11.3-3.6,19.4,0.8c7.7,4.6,12.6,13.7,15.6,22.8
							c2.9,9.2,3.9,21.8-1.5,32.9c-2.6,5.6-7.2,10.7-12.9,13.7c-5.5,3.5-12.8,3.6-16.8,3.7c-12.7,0.3-22.2-6.9-26.4-14.2
							c-4.5-7-5.4-13.5-5.9-17.9c-0.5-4.4-0.1-6.9-0.1-6.9l1.8-0.3c0,0,1.1,2.1,3,5.7c2,3.5,5.2,8.4,9.7,12.4
							c4.5,3.9,10.8,5.8,16.1,5c8.6-1.3,11.2-4.6,15.4-10c3.6-5.7,5.2-13.2,4-21.1c-0.7-8-3.1-14.9-7-18.9
							c-3.8-4.1-9.5-4.7-13.4-4.2c-3.9,0.5-6.1,1.4-6.1,1.4L-59.8,2058.7z"/>
					</g>
				</g>
				<g>
					<g>
						<path class="st3" d="M-59.8,1995.9c0,0,1.9-1.6,6-3.4c3.9-1.6,11.3-3.6,19.4,0.8c7.7,4.6,12.6,13.7,15.6,22.8
							c2.9,9.2,3.9,21.8-1.5,32.9c-2.6,5.6-7.2,10.7-12.9,13.7c-5.5,3.5-12.8,3.6-16.8,3.7c-12.7,0.3-22.2-6.9-26.4-14.2
							c-4.5-7-5.4-13.6-5.9-17.9c-0.5-4.4-0.1-6.9-0.1-6.9l1.8-0.3c0,0,1.1,2.1,3,5.7c2,3.5,5.2,8.4,9.7,12.4
							c4.5,3.9,10.8,5.8,16.1,5c8.6-1.3,11.2-4.6,15.4-10c3.6-5.7,5.2-13.2,4-21.1c-0.7-8.1-3.1-14.9-7-18.9
							c-3.8-4-9.5-4.7-13.4-4.2c-3.9,0.5-6.1,1.4-6.1,1.4L-59.8,1995.9z"/>
					</g>
				</g>
				<g>
					<g>
						<path class="st3" d="M-59.8,1933.1c0,0,1.9-1.6,6-3.4c3.9-1.6,11.3-3.6,19.4,0.8c7.7,4.6,12.6,13.7,15.6,22.8
							c2.9,9.2,3.9,21.8-1.5,32.9c-2.6,5.6-7.2,10.7-12.9,13.7c-5.5,3.5-12.8,3.6-16.8,3.7c-12.7,0.3-22.2-6.9-26.4-14.2
							c-4.5-7-5.4-13.5-5.9-17.9c-0.5-4.4-0.1-6.9-0.1-6.9l1.8-0.3c0,0,1.1,2.1,3,5.7c2,3.4,5.2,8.4,9.7,12.4
							c4.5,3.9,10.8,5.8,16.1,5c8.6-1.3,11.2-4.6,15.4-10c3.6-5.7,5.2-13.2,4-21.1c-0.7-8.1-3.1-14.9-7-18.9
							c-3.8-4-9.5-4.7-13.4-4.2c-3.9,0.5-6.1,1.4-6.1,1.4L-59.8,1933.1z"/>
					</g>
				</g>
				<g>
					<g>
						<path class="st3" d="M-59.8,1870.3c0,0,1.9-1.6,6-3.4c3.9-1.6,11.3-3.6,19.4,0.8c7.7,4.6,12.6,13.7,15.6,22.8
							c2.9,9.2,3.9,21.8-1.5,32.9c-2.6,5.6-7.2,10.7-12.9,13.7c-5.5,3.5-12.8,3.6-16.8,3.7c-12.7,0.3-22.2-6.9-26.4-14.2
							c-4.5-7-5.4-13.5-5.9-17.9c-0.5-4.4-0.1-6.9-0.1-6.9l1.8-0.3c0,0,1.1,2.1,3,5.7c2,3.5,5.2,8.4,9.7,12.4
							c4.5,3.9,10.8,5.8,16.1,5c8.6-1.3,11.2-4.6,15.4-10c3.6-5.7,5.2-13.2,4-21.1c-0.7-8.1-3.1-14.9-7-18.9
							c-3.8-4-9.5-4.7-13.4-4.2c-3.9,0.5-6.1,1.4-6.1,1.4L-59.8,1870.3z"/>
					</g>
				</g>
				<g>
					<g>
						<path class="st3" d="M-59.8,2309.7c0,0,1.9-1.6,6-3.4c3.9-1.6,11.3-3.6,19.4,0.8c7.7,4.6,12.6,13.7,15.6,22.8
							c2.9,9.2,3.9,21.8-1.5,32.9c-2.6,5.6-7.2,10.7-12.9,13.7c-5.5,3.5-12.8,3.6-16.8,3.7c-12.7,0.3-22.2-6.9-26.4-14.2
							c-4.5-7-5.4-13.5-5.9-17.9c-0.5-4.4-0.1-6.9-0.1-6.9l1.8-0.3c0,0,1.1,2.1,3,5.7c2,3.5,5.2,8.4,9.7,12.4
							c4.5,3.9,10.8,5.8,16.1,5c8.6-1.3,11.2-4.6,15.4-10c3.6-5.7,5.2-13.2,4-21.1c-0.7-8-3.1-14.9-7-18.9
							c-3.8-4.1-9.5-4.7-13.4-4.2c-3.9,0.5-6.1,1.4-6.1,1.4L-59.8,2309.7z"/>
					</g>
				</g>
				<g>
					<g>
						<path class="st3" d="M-59.8,2247c0,0,1.9-1.6,6-3.4c3.9-1.6,11.3-3.6,19.4,0.8c7.7,4.6,12.6,13.7,15.6,22.8
							c2.9,9.2,3.9,21.8-1.5,32.9c-2.6,5.6-7.2,10.7-12.9,13.7c-5.5,3.5-12.8,3.6-16.8,3.7c-12.7,0.3-22.2-6.9-26.4-14.2
							c-4.5-7-5.4-13.6-5.9-17.9c-0.5-4.4-0.1-6.9-0.1-6.9l1.8-0.3c0,0,1.1,2.1,3,5.7c2,3.5,5.2,8.4,9.7,12.4
							c4.5,3.9,10.8,5.8,16.1,5c8.6-1.3,11.2-4.6,15.4-10c3.6-5.7,5.2-13.2,4-21.1c-0.7-8.1-3.1-14.9-7-18.9
							c-3.8-4.1-9.5-4.7-13.4-4.2c-3.9,0.5-6.1,1.4-6.1,1.4L-59.8,2247z"/>
					</g>
				</g>
				<g>
					<g>
						<path class="st3" d="M-59.8,2184.2c0,0,1.9-1.6,6-3.4c3.9-1.6,11.3-3.6,19.4,0.8c7.7,4.6,12.6,13.7,15.6,22.8
							c2.9,9.2,3.9,21.8-1.5,32.9c-2.6,5.6-7.2,10.7-12.9,13.7c-5.5,3.5-12.8,3.6-16.8,3.7c-12.7,0.3-22.2-6.9-26.4-14.2
							c-4.5-7-5.4-13.6-5.9-17.9c-0.5-4.4-0.1-6.9-0.1-6.9l1.8-0.3c0,0,1.1,2.1,3,5.7c2,3.4,5.2,8.4,9.7,12.4
							c4.5,3.9,10.8,5.8,16.1,5c8.6-1.3,11.2-4.6,15.4-10c3.6-5.7,5.2-13.2,4-21.1c-0.7-8.1-3.1-14.9-7-18.9
							c-3.8-4-9.5-4.7-13.4-4.2c-3.9,0.5-6.1,1.4-6.1,1.4L-59.8,2184.2z"/>
					</g>
				</g>
				<g>
					<g>
						<path class="st3" d="M-59.8,2121.4c0,0,1.9-1.6,6-3.4c3.9-1.6,11.3-3.6,19.4,0.8c7.7,4.6,12.6,13.7,15.6,22.8
							c2.9,9.2,3.9,21.8-1.5,32.9c-2.6,5.6-7.2,10.7-12.9,13.7c-5.5,3.5-12.8,3.6-16.8,3.7c-12.7,0.3-22.2-6.9-26.4-14.2
							c-4.5-7-5.4-13.5-5.9-17.9c-0.5-4.4-0.1-6.9-0.1-6.9l1.8-0.3c0,0,1.1,2.1,3,5.7c2,3.5,5.2,8.4,9.7,12.4
							c4.5,3.9,10.8,5.8,16.1,5c8.6-1.3,11.2-4.6,15.4-10c3.6-5.7,5.2-13.2,4-21.1c-0.7-8.1-3.1-14.9-7-18.9
							c-3.8-4-9.5-4.7-13.4-4.2c-3.9,0.5-6.1,1.4-6.1,1.4L-59.8,2121.4z"/>
					</g>
				</g>
				<g>
					<g>
						<path class="st3" d="M-59.8,2560.8c0,0,1.9-1.6,6-3.4c3.9-1.6,11.3-3.6,19.4,0.8c7.7,4.6,12.6,13.7,15.6,22.8
							c2.9,9.2,3.9,21.8-1.5,32.9c-2.6,5.6-7.2,10.7-12.9,13.7c-5.5,3.5-12.8,3.6-16.8,3.7c-12.7,0.3-22.2-6.9-26.4-14.2
							c-4.5-7-5.4-13.5-5.9-17.9c-0.5-4.4-0.1-6.9-0.1-6.9l1.8-0.3c0,0,1.1,2.1,3,5.7c2,3.5,5.2,8.4,9.7,12.4
							c4.5,3.9,10.8,5.8,16.1,5c8.6-1.3,11.2-4.6,15.4-10c3.6-5.7,5.2-13.2,4-21.1c-0.7-8-3.1-14.9-7-18.9
							c-3.8-4.1-9.5-4.7-13.4-4.2c-3.9,0.5-6.1,1.4-6.1,1.4L-59.8,2560.8z"/>
					</g>
				</g>
				<g>
					<g>
						<path class="st3" d="M-59.8,2498.1c0,0,1.9-1.6,6-3.4c3.9-1.6,11.3-3.6,19.4,0.8c7.7,4.6,12.6,13.7,15.6,22.8
							c2.9,9.2,3.9,21.8-1.5,32.9c-2.6,5.6-7.2,10.7-12.9,13.7c-5.5,3.5-12.8,3.6-16.8,3.7c-12.7,0.3-22.2-6.9-26.4-14.2
							c-4.5-7-5.4-13.6-5.9-17.9c-0.5-4.4-0.1-6.9-0.1-6.9l1.8-0.3c0,0,1.1,2.1,3,5.7c2,3.5,5.2,8.4,9.7,12.4
							c4.5,3.9,10.8,5.8,16.1,5c8.6-1.3,11.2-4.6,15.4-10c3.6-5.7,5.2-13.2,4-21.1c-0.7-8.1-3.1-14.9-7-18.9
							c-3.8-4.1-9.5-4.7-13.4-4.2c-3.9,0.5-6.1,1.4-6.1,1.4L-59.8,2498.1z"/>
					</g>
				</g>
				<g>
					<g>
						<path class="st3" d="M-59.8,2435.3c0,0,1.9-1.6,6-3.4c3.9-1.6,11.3-3.6,19.4,0.8c7.7,4.6,12.6,13.7,15.6,22.8
							c2.9,9.2,3.9,21.8-1.5,32.9c-2.6,5.6-7.2,10.7-12.9,13.7c-5.5,3.5-12.8,3.6-16.8,3.7c-12.7,0.3-22.2-6.9-26.4-14.2
							c-4.5-7-5.4-13.6-5.9-17.9c-0.5-4.4-0.1-6.9-0.1-6.9l1.8-0.3c0,0,1.1,2.1,3,5.7c2,3.4,5.2,8.4,9.7,12.4
							c4.5,3.9,10.8,5.8,16.1,5c8.6-1.3,11.2-4.6,15.4-10c3.6-5.7,5.2-13.2,4-21.1c-0.7-8.1-3.1-14.9-7-18.9
							c-3.8-4-9.5-4.7-13.4-4.2c-3.9,0.5-6.1,1.4-6.1,1.4L-59.8,2435.3z"/>
					</g>
				</g>
				<g>
					<g>
						<path class="st3" d="M-59.8,2372.5c0,0,1.9-1.6,6-3.4c3.9-1.6,11.3-3.6,19.4,0.8c7.7,4.6,12.6,13.7,15.6,22.8
							c2.9,9.2,3.9,21.8-1.5,32.9c-2.6,5.6-7.2,10.7-12.9,13.7c-5.5,3.5-12.8,3.6-16.8,3.7c-12.7,0.3-22.2-6.9-26.4-14.2
							c-4.5-7-5.4-13.5-5.9-17.9c-0.5-4.4-0.1-6.9-0.1-6.9l1.8-0.3c0,0,1.1,2.1,3,5.7c2,3.5,5.2,8.4,9.7,12.4
							c4.5,3.9,10.8,5.8,16.1,5c8.6-1.3,11.2-4.6,15.4-10c3.6-5.7,5.2-13.2,4-21.1c-0.7-8.1-3.1-14.9-7-18.9
							c-3.8-4-9.5-4.7-13.4-4.2c-3.9,0.5-6.1,1.4-6.1,1.4L-59.8,2372.5z"/>
					</g>
				</g>
				<g>
					<g>
						<path class="st3" d="M-59.8,2749.1c0,0,1.9-1.6,6-3.4c3.9-1.6,11.3-3.6,19.4,0.8c7.7,4.6,12.6,13.7,15.6,22.8
							c2.9,9.2,3.9,21.8-1.5,32.9c-2.6,5.6-7.2,10.7-12.9,13.7c-5.5,3.5-12.8,3.6-16.8,3.7c-12.7,0.3-22.2-6.9-26.4-14.2
							c-4.5-7-5.4-13.6-5.9-17.9c-0.5-4.4-0.1-6.9-0.1-6.9l1.8-0.3c0,0,1.1,2.1,3,5.7c2,3.5,5.2,8.4,9.7,12.4c4.5,4,10.8,5.8,16.1,5
							c8.6-1.3,11.2-4.6,15.4-10c3.6-5.7,5.2-13.2,4-21.1c-0.7-8.1-3.1-14.9-7-18.9c-3.8-4.1-9.5-4.7-13.4-4.2
							c-3.9,0.5-6.1,1.4-6.1,1.4L-59.8,2749.1z"/>
					</g>
				</g>
				<g>
					<g>
						<path class="st3" d="M-59.8,2686.4c0,0,1.9-1.6,6-3.4c3.9-1.6,11.3-3.6,19.4,0.8c7.7,4.6,12.6,13.7,15.6,22.8
							c2.9,9.2,3.9,21.8-1.5,32.9c-2.6,5.6-7.2,10.7-12.9,13.7c-5.5,3.5-12.8,3.6-16.8,3.7c-12.7,0.3-22.2-6.9-26.4-14.2
							c-4.5-7-5.4-13.6-5.9-17.9c-0.5-4.4-0.1-6.9-0.1-6.9l1.8-0.3c0,0,1.1,2.1,3,5.7c2,3.4,5.2,8.4,9.7,12.4
							c4.5,3.9,10.8,5.8,16.1,5c8.6-1.3,11.2-4.6,15.4-10c3.6-5.7,5.2-13.2,4-21.1c-0.7-8.1-3.1-14.9-7-18.9
							c-3.8-4-9.5-4.7-13.4-4.2c-3.9,0.5-6.1,1.4-6.1,1.4L-59.8,2686.4z"/>
					</g>
				</g>
				<g>
					<g>
						<path class="st3" d="M-59.8,2623.6c0,0,1.9-1.6,6-3.4c3.9-1.6,11.3-3.6,19.4,0.8c7.7,4.6,12.6,13.7,15.6,22.8
							c2.9,9.2,3.9,21.8-1.5,32.9c-2.6,5.6-7.2,10.7-12.9,13.7c-5.5,3.5-12.8,3.6-16.8,3.7c-12.7,0.3-22.2-6.9-26.4-14.2
							c-4.5-7-5.4-13.5-5.9-17.9c-0.5-4.4-0.1-6.9-0.1-6.9l1.8-0.3c0,0,1.1,2.1,3,5.7c2,3.5,5.2,8.4,9.7,12.4
							c4.5,3.9,10.8,5.8,16.1,5c8.6-1.3,11.2-4.6,15.4-10c3.6-5.7,5.2-13.2,4-21.1c-0.7-8.1-3.1-14.9-7-18.9
							c-3.8-4-9.5-4.7-13.4-4.2c-3.9,0.5-6.1,1.4-6.1,1.4L-59.8,2623.6z"/>
					</g>
				</g>
			</g>
		</g>
	</g>
	<g>
		<defs>
			<circle id="SVGID_6_" cx="-48.9" cy="150" r="150"/>
		</defs>
		<clipPath id="SVGID_7_">
			<use xlink:href="#SVGID_6_"  style="overflow:visible;"/>
		</clipPath>
		<g class="st4">
			<g>
				<defs>
					<circle id="SVGID_8_" cx="-48.9" cy="150" r="150"/>
				</defs>
				<clipPath id="SVGID_9_">
					<use xlink:href="#SVGID_8_"  style="overflow:visible;"/>
				</clipPath>
			</g>
			<g>
				<defs>
					<circle id="SVGID_10_" cx="-48.9" cy="150" r="150"/>
				</defs>
				<clipPath id="SVGID_11_">
					<use xlink:href="#SVGID_10_"  style="overflow:visible;"/>
				</clipPath>
				<g class="st5">
					<path class="st6" d="M-48.9,5c38.7,0,75.1,15.1,102.5,42.5S96.1,111.3,96.1,150S81,225.1,53.6,252.5S-10.2,295-48.9,295
						s-75.1-15.1-102.5-42.5s-42.5-63.8-42.5-102.5s15.1-75.1,42.5-102.5S-87.6,5-48.9,5 M-48.9,0c-82.8,0-150,67.2-150,150
						s67.2,150,150,150s150-67.2,150-150S33.9,0-48.9,0L-48.9,0z"/>
				</g>
			</g>
		</g>
	</g>
</g>
</svg>
