<?xml version="1.0" encoding="utf-8"?>
<!-- Generator: Adobe Illustrator 19.0.0, SVG Export Plug-In . SVG Version: 6.00 Build 0)  -->
<svg version="1.1" id="Layer_1" xmlns="http://www.w3.org/2000/svg" xmlns:xlink="http://www.w3.org/1999/xlink" x="0px" y="0px"
	 viewBox="-199 0 300 300" style="enable-background:new -199 0 300 300;" xml:space="preserve">
<style type="text/css">
	.st0{fill:#DDDDDD;}
	.st1{clip-path:url(#SVGID_3_);}
	.st2{clip-path:url(#SVGID_5_);}
	.st3{fill:none;}
	.st4{fill:#404041;}
	.st5{fill:#FFFFFF;}
	.st6{clip-path:url(#SVGID_7_);}
	.st7{clip-path:url(#SVGID_11_);}
	.st8{fill:#9AA0BB;}
</style>
<g>
	<g>
		<circle id="SVGID_1_" class="st0" cx="-48.9" cy="150" r="150"/>
	</g>
	<g>
		<defs>
			<circle id="SVGID_2_" cx="-48.9" cy="150" r="150"/>
		</defs>
		<clipPath id="SVGID_3_">
			<use xlink:href="#SVGID_2_"  style="overflow:visible;"/>
		</clipPath>
		<g class="st1">
			<defs>
				<rect id="SVGID_4_" x="-83" y="-603.7" width="72" height="1369.8"/>
			</defs>
			<clipPath id="SVGID_5_">
				<use xlink:href="#SVGID_4_"  style="overflow:visible;"/>
			</clipPath>
			<g class="st2">
				<g>
					<rect x="-234.4" y="-896.4" class="st3" width="228.1" height="1964.2"/>
				</g>
			</g>
			<g class="st2">
				<g>
					<path class="st4" d="M-214.5-849.2c12.6,0,43,1.5,96.2,12.2c71.7,14.5,102,32.3,103.3,33.1l1.2,0.7l0,1879.6l-3.9-2.9
						c-0.6-0.5-60.5-45.5-86.8-45.5c-9.5,0-74.3,33-115.6,55.1l-3.6,1.9l0-1933.9l2.2-0.2C-221.1-849-218.9-849.2-214.5-849.2z
						 M-18.7-800.4c-6.2-3.4-37.4-19-100.6-31.8c-60.2-12.2-91.5-12.3-99.6-12.1l0,1921.3c20.2-10.8,101.6-53.8,114.3-53.8
						c24.2,0,71.8,33.4,85.8,43.6L-18.7-800.4z"/>
				</g>
			</g>
			<g class="st2">
				<g>
					<rect x="-210.5" y="-887.4" class="st3" width="182.8" height="1915.5"/>
				</g>
			</g>
			<g class="st2">
				<g>
					<path class="st4" d="M-205.6-876h176.5l0,1936.4h-176.5L-205.6-876z M-34-871.2h-166.8l0,1926.7H-34L-34-871.2z"/>
				</g>
			</g>
			<g class="st2">
				<g>
					<rect x="-195.6" y="-873.6" class="st3" width="156.4" height="1901.7"/>
				</g>
			</g>
			<g class="st2">
				<g>
					<path class="st4" d="M-194.2-850.4h151.4l0,1906.5h-151.4L-194.2-850.4z M-47.6-845.6h-141.7l0,1896.9h141.7L-47.6-845.6z"/>
				</g>
			</g>
			<g class="st2">
				<g>
					<rect x="-185.3" y="-848" class="st3" width="133.6" height="1901.7"/>
				</g>
			</g>
			<g class="st2">
				<g>
					<path class="st4" d="M-183.1-850.4h128.1l0,1906.5h-128.1L-183.1-850.4z M-59.7-845.6h-118.5l0,1896.9h118.5L-59.7-845.6z"/>
				</g>
			</g>
			<g class="st2">
				<g>
					<rect x="-175.2" y="-848" class="st3" width="112.4" height="1901.7"/>
				</g>
			</g>
			<g class="st2">
				<g>
					<path class="st4" d="M-170.8-850.4H-67l0,1906.5h-103.8L-170.8-850.4z M-71.9-845.6H-166l0,1896.9h94.1L-71.9-845.6z"/>
				</g>
			</g>
			<g class="st2">
				<g>
					<rect x="-164" y="-848" class="st3" width="90.2" height="1901.7"/>
				</g>
			</g>
			<g class="st2">
				<g>
					<rect x="-156.2" y="-848" class="st5" width="75.1" height="1901.3"/>
				</g>
				<g>
					<path class="st4" d="M-158.6-850.4h80l0,1906.1h-80L-158.6-850.4z M-83.5-845.6h-70.3l0,1896.5h70.3L-83.5-845.6z"/>
				</g>
			</g>
		</g>
	</g>
	<g>
		<defs>
			<circle id="SVGID_6_" cx="-48.9" cy="150" r="150"/>
		</defs>
		<clipPath id="SVGID_7_">
			<use xlink:href="#SVGID_6_"  style="overflow:visible;"/>
		</clipPath>
		<g class="st6">
			<g>
				<defs>
					<circle id="SVGID_8_" cx="-48.9" cy="150" r="150"/>
				</defs>
				<clipPath id="SVGID_9_">
					<use xlink:href="#SVGID_8_"  style="overflow:visible;"/>
				</clipPath>
			</g>
			<g>
				<defs>
					<circle id="SVGID_10_" cx="-48.9" cy="150" r="150"/>
				</defs>
				<clipPath id="SVGID_11_">
					<use xlink:href="#SVGID_10_"  style="overflow:visible;"/>
				</clipPath>
				<g class="st7">
					<path class="st8" d="M-48.9,5c38.7,0,75.1,15.1,102.5,42.5S96.1,111.3,96.1,150S81,225.1,53.6,252.5S-10.2,295-48.9,295
						s-75.1-15.1-102.5-42.5s-42.5-63.8-42.5-102.5s15.1-75.1,42.5-102.5S-87.6,5-48.9,5 M-48.9,0c-82.8,0-150,67.2-150,150
						s67.2,150,150,150s150-67.2,150-150S33.9,0-48.9,0L-48.9,0z"/>
				</g>
			</g>
		</g>
	</g>
</g>
</svg>
