<?xml version="1.0" encoding="utf-8"?>
<!-- Generator: Adobe Illustrator 19.0.0, SVG Export Plug-In . SVG Version: 6.00 Build 0)  -->
<svg version="1.1" id="Layer_1" xmlns="http://www.w3.org/2000/svg" xmlns:xlink="http://www.w3.org/1999/xlink" x="0px" y="0px"
	 viewBox="-199 0 300 300" style="enable-background:new -199 0 300 300;" xml:space="preserve">
<style type="text/css">
	.st0{fill:#DDDDDD;}
	.st1{clip-path:url(#SVGID_3_);}
	.st2{clip-path:url(#SVGID_5_);}
	.st3{fill:#C5C7C9;}
	.st4{fill:#404041;}
	.st5{clip-path:url(#SVGID_7_);}
	.st6{clip-path:url(#SVGID_11_);}
	.st7{fill:#9AA0BB;}
</style>
<g>
	<g>
		<circle id="SVGID_1_" class="st0" cx="-48.9" cy="150" r="150"/>
	</g>
	<g>
		<defs>
			<circle id="SVGID_2_" cx="-48.9" cy="150" r="150"/>
		</defs>
		<clipPath id="SVGID_3_">
			<use xlink:href="#SVGID_2_"  style="overflow:visible;"/>
		</clipPath>
		<g class="st1">
			<defs>
				<rect id="SVGID_4_" x="-99" y="-378.3" width="100" height="1056.6"/>
			</defs>
			<clipPath id="SVGID_5_">
				<use xlink:href="#SVGID_4_"  style="overflow:visible;"/>
			</clipPath>
			<g class="st2">
				<g>
					<g>
						<g>
							<path class="st3" d="M-0.3,1076.9h-98.4V-643.2c0-158.3,22.2-305.9,22.5-307.4l0.2-1.6h98.4l-0.3,2.1
								c-0.2,1.8-22.4,179.3-22.4,302.9V1076.9z M-94.9,1073.2H-4V-647.2C-4-763.8,15.7-928,18.2-948.5h-90.9
								c-2.4,16.3-22.2,156-22.2,305.2V1073.2z"/>
						</g>
					</g>
				</g>
				<g>
					<g>
						<g>
							<path class="st4" d="M-42.5,1076h-12.7V882.2c-0.1-1.8-6.7-183.6-6.7-301.4c0-117.8,6.6-424.4,6.7-427.5l1.9,0
								c-0.1,3.1-6.7,309.7-6.7,427.5c0,117.8,6.6,299.5,6.7,301.3v191.9h9V882.4c0.1-1.7,5.5-166.3,5.5-303.3
								c0-153.5-5.5-422.6-5.5-425.3l1-710.5c0-0.8-1.8-42.7-2.9-90.5l-0.5,12l-1.9-0.1l1.7-42.8c-0.5-33.1-0.5-65.5,0.8-86
								c0.9-14.4,2.7-33.6,4.9-54.2l5.4-133.7h12.8l-0.1,1.1c-0.1,1-9.9,73-16.3,132.8l-5.7,140.2c0.9,59,3.5,120.3,3.5,121.3
								l-1,710.5c0.1,2.7,5.5,271.8,5.5,425.3c0,137-5.5,301.7-5.5,303.3V1076z M-42.5-786.7c-0.8,8.4-1.4,16-1.8,22.7
								c-0.8,12.4-1.1,29.3-1.1,48L-42.5-786.7z M-34-950.2l-4.3,105.5c5.6-48.8,12.2-97.8,13.2-105.5H-34z"/>
						</g>
					</g>
				</g>
				<g>
					<g>
						<g>
							<path class="st4" d="M-23.1-951.1c0,0-8.9,50.5-15.9,103.8l5-103.8H-23.1 M-39-847.3l-7.4,152.9c-0.4-22.5-0.7-43.5-0.7-59.3
								C-47.1-777.7-43.5-813.1-39-847.3 M-46.4-694.4c1.3,65.3,3.8,143.3,3.8,143.3s7.7,232.3,7.7,288.7
								c0,62.4-7.7,393.9-7.7,393.9v22.2c0,0,5.5,270,5.5,425.3c0,138.6-5.5,303.3-5.5,303.3v192.7h-10.9V882.2
								c0,0-6.7-182.2-6.7-301.4c0-119.1,6.7-427.5,6.7-427.5v-14.6c0,0-10.6-334.2-10.6-401.3c0-67.1,10.6-285.8,10.6-285.8
								L-46.4-694.4 M-20.9-953h-2.2H-34h-1.8l-0.1,1.8l-5,103.8c-5.4,41.3-8.1,72.9-8.1,93.8c0,14.4,0.3,34.3,0.7,59.3l-7,146
								c-0.1,2.2-10.6,219.4-10.6,285.8c0,66.4,10.5,398,10.6,401.4l0,14.6c-0.1,3-6.7,309.7-6.7,427.5c0,117.8,6.6,299.6,6.7,301.4
								l0,192.8v1.9h1.9h10.9h1.9v-1.9V882.4c0.1-1.6,5.5-166.3,5.5-303.3c0-153.6-5.5-422.7-5.5-425.4v-22.2
								c0.1-3.3,7.7-332.2,7.7-393.9c0-55.8-7.6-286.5-7.7-288.8c0-0.8-2.5-78.7-3.8-143.2l7.4-152.8
								c6.9-52.7,15.8-103.2,15.9-103.7L-20.9-953L-20.9-953z"/>
						</g>
					</g>
				</g>
				<g>
					<g>
						<g>
							<path class="st3" d="M-34.9-279.4c0-206.5-5.5-187.6-5.5-268.6c0-6.1,0.2-12.2,0-18.2c-1.9-64.5-1-162.4-0.4-188
								C-38.7-845.6-21-959.4-21-959.4l-13.6,5c0,0-17.8,129.4-18.6,197c-0.5,37.9-2.7,191.3-2.7,191.3l-0.1,19.7l-8,268.7
								l8.1,413.2l-4.1,469.3l6.2,450.5V875.9v-19.8c0,0-4.9-166.7-4.9-233.1s4.9-452.2,4.9-452.2v-12.1l0.2-25
								c0,0-7.4-368.6-7.4-404c0-35.4,8.8-287.5,8.8-287.5l0-9.2c0,0,2.5-141.1,2.3-188.2c-0.2-45,19.2-194.5,19.4-196.2l5,0.1
								c0,0-15.9,91.4-17.9,196.4c-1.4,76.8-3.7,187.4-3.7,187.4v9.6c0,0,5.3,257.8,5.3,290.5c0,32.7-5.3,399.9-5.3,399.9v24.6v14.3
								c0,0,4.4,433.8,5.2,458.5c0.1-7,0.1-9.6,0.1-7c0,7.7,0,9.6-0.1,7c-0.8,65.4-5.2,231.4-5.2,231.4v13.4v192h6.8
								c0,0-2,241.8-0.5-176.2c1.1-304,5-270,5-286.6c0-153.9-4.5-278.4-4.5-458.2c0-3.7,0-7.4,0-11.1
								C-40.4,75.3-34.9-97.2-34.9-279.4z"/>
						</g>
					</g>
				</g>
				<g>
					<g>
						<g>
							<path class="st3" d="M-34.4,898.5h-30c-0.4,0-0.8-0.3-0.8-0.8v-10.5h31.5v10.5C-33.7,898.1-34,898.5-34.4,898.5z"/>
						</g>
					</g>
					<g>
						<g>
							<path class="st3" d="M-39.4,899.4h-20.2c-3.6,0-6.6-3-6.6-6.6v-6.5h33.4v6.5C-32.8,896.4-35.7,899.4-39.4,899.4z
								 M-64.3,888.1v4.7c0,2.6,2.1,4.7,4.7,4.7h20.2c2.6,0,4.7-2.1,4.7-4.7v-4.7H-64.3z"/>
						</g>
					</g>
				</g>
				<g>
					<g>
						<g>
							<path class="st4" d="M-34.4,896.2h-30c-0.4,0-0.8-0.3-0.8-0.8v-10.5h31.5v10.5C-33.7,895.9-34,896.2-34.4,896.2z"/>
						</g>
					</g>
				</g>
				<g>
					<g>
						<g>
							<path class="st4" d="M-23.1-951.1c0,0-15.9,95.4-17.7,198.4c-1.8,105.2-1.7,186.2-1.7,186.2v15.5c0,0,7.7,232.3,7.7,288.7
								c0,62.4-7.7,393.9-7.7,393.9v22.2c0,0,5.5,270,5.5,425.3c0,138.6-5.5,303.3-5.5,303.3v192.7h-10.9V882.2
								c0,0-6.7-182.2-6.7-301.4c0-119.1,6.7-427.5,6.7-427.5v-14.6c0,0-10.6-334.2-10.6-401.3c0-67.1,10.6-285.8,10.6-285.8v-18
								c0,0,0.2-114.8,0.2-184.9c0-70.1,19.3-199.9,19.3-199.9H-23.1 M-20.9-953h-2.2H-34h-1.6l-0.2,1.6
								c-0.2,1.3-19.3,130.7-19.3,200.1c0,70.1-0.2,184.9-0.2,184.9v18c-0.1,2.1-10.6,219.3-10.6,285.8c0,66.4,10.5,398,10.6,401.4
								l0,14.6c-0.1,3-6.7,309.7-6.7,427.5c0,117.8,6.6,299.6,6.7,301.4l0,192.8v1.9h1.9h10.9h1.9v-1.9V882.4
								c0.1-1.6,5.5-166.3,5.5-303.3c0-153.6-5.5-422.7-5.5-425.4v-22.2c0.1-3.3,7.7-332.2,7.7-393.9c0-55.8-7.6-286.5-7.7-288.8
								l0-15.4c0-0.8-0.1-82.1,1.7-186.2c1.8-101.7,17.5-197.2,17.7-198.1L-20.9-953L-20.9-953z"/>
						</g>
					</g>
				</g>
				<g>
					<g>
						<g>
							<path class="st3" d="M-34.4,150h-30c-0.4,0-0.8-0.3-0.8-0.8v-10.5h31.5v10.5C-33.7,149.7-34,150-34.4,150z"/>
						</g>
					</g>
					<g>
						<g>
							<path class="st3" d="M-39.4,150.9h-20.2c-3.6,0-6.6-3-6.6-6.6v-6.5h33.4v6.5C-32.8,148-35.7,150.9-39.4,150.9z M-64.3,139.6
								v4.7c0,2.6,2.1,4.7,4.7,4.7h20.2c2.6,0,4.7-2.1,4.7-4.7v-4.7H-64.3z"/>
						</g>
					</g>
				</g>
				<g>
					<g>
						<g>
							<path class="st4" d="M-34.4,147.7h-30c-0.4,0-0.8-0.3-0.8-0.8v-10.5h31.5V147C-33.7,147.4-34,147.7-34.4,147.7z"/>
						</g>
					</g>
				</g>
				<g>
					<g>
						<g>
							<path class="st3" d="M-34.4-551.1h-30c-0.4,0-0.8-0.3-0.8-0.8v-10.5h31.5v10.5C-33.7-551.4-34-551.1-34.4-551.1z"/>
						</g>
					</g>
					<g>
						<g>
							<path class="st3" d="M-39.4-550.2h-20.2c-3.6,0-6.6-3-6.6-6.6v-6.5h33.4v6.5C-32.8-553.1-35.7-550.2-39.4-550.2z
								 M-64.3-561.5v4.7c0,2.6,2.1,4.7,4.7,4.7h20.2c2.6,0,4.7-2.1,4.7-4.7v-4.7H-64.3z"/>
						</g>
					</g>
				</g>
				<g>
					<g>
						<g>
							<path class="st4" d="M-34.4-553.4h-30c-0.4,0-0.8-0.3-0.8-0.8v-10.5h31.5v10.5C-33.7-553.7-34-553.4-34.4-553.4z"/>
						</g>
					</g>
				</g>
			</g>
		</g>
	</g>
	<g>
		<defs>
			<circle id="SVGID_6_" cx="-48.9" cy="150" r="150"/>
		</defs>
		<clipPath id="SVGID_7_">
			<use xlink:href="#SVGID_6_"  style="overflow:visible;"/>
		</clipPath>
		<g class="st5">
			<g>
				<defs>
					<circle id="SVGID_8_" cx="-48.9" cy="150" r="150"/>
				</defs>
				<clipPath id="SVGID_9_">
					<use xlink:href="#SVGID_8_"  style="overflow:visible;"/>
				</clipPath>
			</g>
			<g>
				<defs>
					<circle id="SVGID_10_" cx="-48.9" cy="150" r="150"/>
				</defs>
				<clipPath id="SVGID_11_">
					<use xlink:href="#SVGID_10_"  style="overflow:visible;"/>
				</clipPath>
				<g class="st6">
					<path class="st7" d="M-48.9,5c38.7,0,75.1,15.1,102.5,42.5S96.1,111.3,96.1,150S81,225.1,53.6,252.5S-10.2,295-48.9,295
						s-75.1-15.1-102.5-42.5s-42.5-63.8-42.5-102.5s15.1-75.1,42.5-102.5S-87.6,5-48.9,5 M-48.9,0c-82.8,0-150,67.2-150,150
						s67.2,150,150,150s150-67.2,150-150S33.9,0-48.9,0L-48.9,0z"/>
				</g>
			</g>
		</g>
	</g>
</g>
</svg>
