<?xml version="1.0" encoding="utf-8"?>
<!-- Generator: Adobe Illustrator 19.0.0, SVG Export Plug-In . SVG Version: 6.00 Build 0)  -->
<svg version="1.1" id="Layer_1" xmlns="http://www.w3.org/2000/svg" xmlns:xlink="http://www.w3.org/1999/xlink" x="0px" y="0px"
	 viewBox="-199 0 300 300" style="enable-background:new -199 0 300 300;" xml:space="preserve">
<style type="text/css">
	.st0{fill:#DDDDDD;}
	.st1{clip-path:url(#SVGID_3_);}
	.st2{clip-path:url(#SVGID_5_);}
	.st3{fill:none;}
	.st4{fill:#404041;}
	.st5{fill:#ACACAF;}
	.st6{clip-path:url(#SVGID_7_);}
	.st7{clip-path:url(#SVGID_11_);}
	.st8{fill:#9AA0BB;}
</style>
<g>
	<g>
		<circle id="SVGID_1_" class="st0" cx="-48.9" cy="150" r="150"/>
	</g>
	<g>
		<defs>
			<circle id="SVGID_2_" cx="-48.9" cy="150" r="150"/>
		</defs>
		<clipPath id="SVGID_3_">
			<use xlink:href="#SVGID_2_"  style="overflow:visible;"/>
		</clipPath>
		<g class="st1">
			<defs>
				<rect id="SVGID_4_" x="-110" y="-2589.3" width="100" height="5394.7"/>
			</defs>
			<clipPath id="SVGID_5_">
				<use xlink:href="#SVGID_4_"  style="overflow:visible;"/>
			</clipPath>
			<g class="st2">
				<g>
					<path class="st3" d="M994.6,6710H-123.1l27.4-13855.2c0,0-3-828,0-1197.3c3-369.4,21.8-1213.7,21.8-1213.7
						c0-792.7,115.4-1153.9,115.4-1153.9l31.5,0.8l576-57.1l350.7-87.4c0,0-34.5,226.8-34.5,495.3s0,3222.1,0,3222.1L994.6,6710z"/>
				</g>
			</g>
			<g class="st2">
				<g>
					<rect x="-83.4" y="-2645.3" class="st4" width="19" height="4664.7"/>
				</g>
			</g>
			<g class="st2">
				<g>
					<path class="st5" d="M-31.4,1998.4l0-38.1l19,0l0,38.1L-31.4,1998.4z M-31.6,1884.2l0-38.1l19,0l0,38.1L-31.6,1884.2z
						 M-31.7,1770l0-38.1h19l0,38.1H-31.7z M-31.8,1655.8l0-38.1l19,0l0,38.1L-31.8,1655.8z M-31.9,1541.6l0-38.1l19,0l0,38.1
						L-31.9,1541.6z M-32,1427.4l0-38.1l19,0l0,38.1L-32,1427.4z M-32.1,1313.2l0-38.1l19,0l0,38.1L-32.1,1313.2z M-32.2,1199.1
						l0-38.1l19,0l0,38.1L-32.2,1199.1z M-32.3,1084.9l0-38.1l19,0l0,38.1L-32.3,1084.9z M-32.4,970.7l0-38.1l19,0l0,38.1
						L-32.4,970.7z M-32.5,856.5l0-38.1l19,0l0,38.1L-32.5,856.5z M-32.6,742.3l0-38.1l19,0l0,38.1L-32.6,742.3z M-32.7,628.1
						l0-38.1l19,0l0,38.1L-32.7,628.1z M-32.8,513.9l0-38.1l19,0l0,38.1L-32.8,513.9z M-32.9,399.7l0-38.1l19,0l0,38.1L-32.9,399.7z
						 M-33.1,285.6l0-38.1l19,0l0,38.1L-33.1,285.6z M-33.2,171.4l0-38.1h19l0,38.1H-33.2z M-33.3,57.2l0-38.1l19,0l0,38.1
						L-33.3,57.2z M-33.4-57l0-38.1l19,0l0,38.1L-33.4-57z M-33.5-171.2l0-38.1l19,0l0,38.1L-33.5-171.2z M-33.6-285.4l0-38.1l19,0
						l0,38.1L-33.6-285.4z M-33.7-399.6l0-38.1l19,0l0,38.1L-33.7-399.6z M-33.8-513.8l0-38.1l19,0l0,38.1L-33.8-513.8z
						 M-33.9-627.9l0-38.1l19,0l0,38.1L-33.9-627.9z M-34-742.1l0-38.1l19,0l0,38.1L-34-742.1z M-34.1-856.3l0-38.1l19,0l0,38.1
						L-34.1-856.3z M-34.2-970.5l0-38.1l19,0l0,38.1L-34.2-970.5z M-34.3-1084.7l0-38.1l19,0l0,38.1L-34.3-1084.7z M-34.5-1198.9
						l0-38.1l19,0l0,38.1L-34.5-1198.9z M-34.6-1313.1l0-38.1l19,0l0,38.1L-34.6-1313.1z M-34.7-1427.3l0-38.1h19l0,38.1H-34.7z
						 M-34.8-1541.4l0-38.1l19,0l0,38.1L-34.8-1541.4z M-34.9-1655.6l0-38.1l19,0l0,38.1L-34.9-1655.6z M-35-1769.8l0-38.1l19,0
						l0,38.1L-35-1769.8z M-35.1-1884l0-38.1l19,0l0,38.1L-35.1-1884z M-35.2-1998.2l0-38.1l19,0l0,38.1L-35.2-1998.2z
						 M-35.3-2112.4l0-38.1l19,0l0,38.1L-35.3-2112.4z M-35.4-2226.6l0-38.1l19,0l0,38.1L-35.4-2226.6z M-35.5-2340.7l0-38.1l19,0
						l0,38.1L-35.5-2340.7z M-35.6-2454.9l0-38.1l19,0l0,38.1L-35.6-2454.9z M-35.7-2569.1l0-38.1l19,0l0,38.1L-35.7-2569.1z"/>
				</g>
			</g>
		</g>
	</g>
	<g>
		<defs>
			<circle id="SVGID_6_" cx="-48.9" cy="150" r="150"/>
		</defs>
		<clipPath id="SVGID_7_">
			<use xlink:href="#SVGID_6_"  style="overflow:visible;"/>
		</clipPath>
		<g class="st6">
			<g>
				<defs>
					<circle id="SVGID_8_" cx="-48.9" cy="150" r="150"/>
				</defs>
				<clipPath id="SVGID_9_">
					<use xlink:href="#SVGID_8_"  style="overflow:visible;"/>
				</clipPath>
			</g>
			<g>
				<defs>
					<circle id="SVGID_10_" cx="-48.9" cy="150" r="150"/>
				</defs>
				<clipPath id="SVGID_11_">
					<use xlink:href="#SVGID_10_"  style="overflow:visible;"/>
				</clipPath>
				<g class="st7">
					<path class="st8" d="M-48.9,5c38.7,0,75.1,15.1,102.5,42.5S96.1,111.3,96.1,150S81,225.1,53.6,252.5S-10.2,295-48.9,295
						s-75.1-15.1-102.5-42.5s-42.5-63.8-42.5-102.5s15.1-75.1,42.5-102.5S-87.6,5-48.9,5 M-48.9,0c-82.8,0-150,67.2-150,150
						s67.2,150,150,150s150-67.2,150-150S33.9,0-48.9,0L-48.9,0z"/>
				</g>
			</g>
		</g>
	</g>
</g>
</svg>
