<?xml version="1.0" encoding="utf-8"?>
<!-- Generator: Adobe Illustrator 19.0.0, SVG Export Plug-In . SVG Version: 6.00 Build 0)  -->
<svg version="1.1" id="Layer_1" xmlns="http://www.w3.org/2000/svg" xmlns:xlink="http://www.w3.org/1999/xlink" x="0px" y="0px"
	 viewBox="-199 0 300 300" style="enable-background:new -199 0 300 300;" xml:space="preserve">
<style type="text/css">
	.st0{fill:#DDDDDD;}
	.st1{clip-path:url(#SVGID_3_);}
	.st2{clip-path:url(#SVGID_5_);}
	.st3{fill:#404041;}
	.st4{clip-path:url(#SVGID_7_);}
	.st5{clip-path:url(#SVGID_11_);}
	.st6{fill:#9AA0BB;}
</style>
<g>
	<g>
		<circle id="SVGID_1_" class="st0" cx="-48.9" cy="150" r="150"/>
	</g>
	<g>
		<defs>
			<circle id="SVGID_2_" cx="-48.9" cy="150" r="150"/>
		</defs>
		<clipPath id="SVGID_3_">
			<use xlink:href="#SVGID_2_"  style="overflow:visible;"/>
		</clipPath>
		<g class="st1">
			<defs>
				<rect id="SVGID_4_" x="-186.5" y="-2302.8" width="275" height="4905.7"/>
			</defs>
			<clipPath id="SVGID_5_">
				<use xlink:href="#SVGID_4_"  style="overflow:visible;"/>
			</clipPath>
			<g class="st2">
				<g>
					<path class="st3" d="M-49.2-2350.3c-29.3,37.8-19.6,61.9-3,78.1c17.8,17.3,25.4,28.6,28.7,35.6h0c0,0,0.1,0.2,0.1,0.3
						c0.1,0.3,0.2,0.5,0.3,0.8c0.2,0.5,0.4,0.9,0.8,2.1c0.7,2.1,1.1,3.8,1.1,4.9c1.1,6,0.8,14.2-4.7,23.6
						c-10.4,17.9-24.3,26.7-24.3,26.7s33.7-27.5,23.4-54.9c-7.3-13.6-16.3-18.7-26.5-28.4c-14.1-13.6-24.2-21.2-24.2-38
						C-77.4-2321.5-49.2-2350.3-49.2-2350.3z"/>
					<path class="st3" d="M-47.8-2174.7l-5.1-7c0.3-0.3,31.2-25.9,22.1-50.1c-4.6-8.7-10.5-13.7-17.2-19.5c-2.6-2.3-5.4-4.6-8.2-7.4
						l-4.2-4.1c-11.9-11.3-21.3-20.2-21.3-37c0-23.3,28.2-52.4,29.4-53.7l6.5,5.7c-29.9,38.6-16.3,59.8-3.4,72.3
						c13.8,13.5,23.4,25.1,28.4,34.4h0.2l1.5,3.5c0.4,0.9,0.5,1.4,0.9,2.3c0.9,2.8,1.4,4.9,1.4,6.5c1.5,8.1-0.3,17.3-5.2,25.8
						C-32.9-2184.3-47.2-2175.1-47.8-2174.7z M-72.2-2306.2c-0.5,2.2-0.8,4.4-0.8,6.5c0,11.1,5,17.6,13.5,25.9
						C-68-2283.7-72.3-2294.5-72.2-2306.2z"/>
				</g>
				<g>
					<path class="st3" d="M-49.2-2268.8c-29.3,37.8-19.6,61.9-3,78.1c17.8,17.3,25.4,28.6,28.7,35.6h0c0,0,0.1,0.2,0.1,0.3
						c0.1,0.3,0.2,0.5,0.3,0.8c0.2,0.5,0.4,0.9,0.8,2.1c0.7,2.1,1.1,3.8,1.1,4.9c1.1,6,0.8,14.2-4.7,23.6
						c-10.4,17.9-24.3,26.7-24.3,26.7s33.7-27.5,23.4-54.9c-7.3-13.6-16.3-18.7-26.5-28.4c-14.1-13.6-24.2-21.2-24.2-38
						C-77.4-2240.1-49.2-2268.8-49.2-2268.8z"/>
					<path class="st3" d="M-47.8-2093.2l-5.1-7c0.3-0.3,31.2-25.9,22.1-50.1c-4.6-8.7-10.5-13.7-17.2-19.5c-2.6-2.3-5.4-4.6-8.2-7.4
						l-4.2-4.1c-11.9-11.3-21.3-20.2-21.3-37c0-23.3,28.2-52.4,29.4-53.7l6.5,5.7c-29.9,38.6-16.3,59.8-3.4,72.3
						c13.8,13.5,23.4,25.1,28.4,34.4h0.2l1.5,3.5c0.4,0.9,0.5,1.4,0.9,2.3c0.9,2.8,1.4,4.9,1.4,6.5c1.5,8.1-0.3,17.3-5.2,25.8
						C-32.9-2102.8-47.2-2093.6-47.8-2093.2z M-72.2-2224.7c-0.5,2.2-0.8,4.4-0.8,6.5c0,11.1,5,17.6,13.5,25.9
						C-68-2202.2-72.3-2213-72.2-2224.7z"/>
				</g>
				<g>
					<path class="st3" d="M-49.2-2180.6c-29.3,37.8-19.6,61.9-3,78.1c17.8,17.3,25.4,28.6,28.7,35.6h0l0.1,0.3
						c0.1,0.3,0.2,0.5,0.3,0.8c0.2,0.5,0.4,0.9,0.8,2.1c0.7,2.1,1.1,3.8,1.1,4.9c1.1,6,0.8,14.2-4.7,23.6
						c-10.4,17.9-24.3,26.7-24.3,26.7s33.7-27.5,23.4-54.9c-7.3-13.6-16.3-18.7-26.5-28.4c-14.1-13.6-24.2-21.2-24.2-38
						C-77.4-2151.8-49.2-2180.6-49.2-2180.6z"/>
					<path class="st3" d="M-47.8-2005l-5.1-7c0.3-0.3,31.2-25.9,22.1-50.1c-4.7-8.6-10.5-13.7-17.2-19.5c-2.7-2.3-5.4-4.7-8.2-7.4
						l-4.2-4c-11.9-11.3-21.3-20.2-21.3-37c0-23.4,28.2-52.4,29.4-53.7l6.5,5.7c-29.9,38.6-16.3,59.8-3.4,72.3
						c13.8,13.5,23.3,25,28.3,34.4h0.3l1.1,2.8c0.6,1.4,0.7,1.8,1.2,3c0.9,2.8,1.4,4.9,1.4,6.4c1.5,8.1-0.3,17.3-5.2,25.8
						C-32.9-2014.6-47.2-2005.3-47.8-2005z M-72.2-2136.4c-0.5,2.2-0.8,4.4-0.8,6.5c0,11.1,5,17.5,13.5,25.9
						C-68.1-2114-72.3-2124.8-72.2-2136.4z"/>
				</g>
				<g>
					<path class="st3" d="M-49.2-2099.1c-29.3,37.8-19.6,61.9-3,78.1c17.8,17.3,25.4,28.6,28.7,35.6h0l0.1,0.3
						c0.1,0.3,0.2,0.5,0.3,0.8c0.2,0.5,0.4,0.9,0.8,2.1c0.7,2.1,1.1,3.8,1.1,4.9c1.1,6,0.8,14.2-4.7,23.6
						c-10.4,17.9-24.3,26.7-24.3,26.7s33.7-27.5,23.4-54.9c-7.3-13.6-16.3-18.7-26.5-28.4c-14.1-13.6-24.2-21.2-24.2-38
						C-77.4-2070.3-49.2-2099.1-49.2-2099.1z"/>
					<path class="st3" d="M-47.8-1923.5l-5.1-7c0.3-0.3,31.2-25.9,22.1-50.1c-4.7-8.6-10.5-13.7-17.2-19.5c-2.7-2.3-5.4-4.7-8.2-7.4
						l-4.2-4c-11.9-11.3-21.3-20.2-21.3-37c0-23.4,28.2-52.4,29.4-53.7l6.5,5.7c-29.9,38.6-16.3,59.8-3.4,72.3
						c13.8,13.5,23.3,25,28.3,34.4h0.3l1.1,2.8c0.6,1.4,0.7,1.8,1.2,3c0.9,2.8,1.4,4.9,1.4,6.4c1.5,8.1-0.3,17.3-5.2,25.8
						C-32.9-1933.1-47.2-1923.9-47.8-1923.5z M-72.2-2054.9c-0.5,2.2-0.8,4.4-0.8,6.5c0,11.1,5,17.5,13.5,25.9
						C-68.1-2032.5-72.3-2043.3-72.2-2054.9z"/>
				</g>
				<g>
					<path class="st3" d="M-49.2-2010.9c-29.3,37.8-19.6,61.9-3,78.1c17.8,17.3,25.4,28.6,28.7,35.6h0l0.1,0.3
						c0.1,0.3,0.2,0.5,0.3,0.8c0.2,0.5,0.4,0.9,0.8,2.1c0.7,2.1,1.1,3.8,1.1,4.9c1.1,6,0.8,14.2-4.7,23.6
						c-10.4,17.9-24.3,26.7-24.3,26.7s33.7-27.5,23.4-54.9c-7.3-13.6-16.3-18.7-26.5-28.4c-14.1-13.6-24.2-21.2-24.2-38
						C-77.4-1982.1-49.2-2010.9-49.2-2010.9z"/>
					<path class="st3" d="M-47.8-1835.2l-5.1-7c0.3-0.3,31.2-25.9,22.1-50.1c-4.6-8.7-10.5-13.7-17.2-19.5c-2.6-2.3-5.4-4.6-8.2-7.4
						l-4.2-4c-11.9-11.3-21.3-20.2-21.3-37c0-23.4,28.2-52.5,29.4-53.7l6.5,5.7c-29.9,38.6-16.3,59.8-3.4,72.3
						c13.8,13.5,23.3,25,28.3,34.4h0.3l1.1,2.8c0.6,1.4,0.8,1.9,1.3,3.3c0.8,2.6,1.3,4.6,1.3,6.2c1.5,8.1-0.3,17.3-5.2,25.8
						C-32.9-1844.9-47.2-1835.6-47.8-1835.2z M-72.2-1966.7c-0.5,2.2-0.8,4.4-0.8,6.5c0,11.1,5,17.5,13.5,25.9
						C-68-1944.2-72.3-1955.1-72.2-1966.7z"/>
				</g>
				<g>
					<path class="st3" d="M-49.2-1929.4c-29.3,37.8-19.6,61.9-3,78.1c17.8,17.3,25.4,28.6,28.7,35.6h0l0.1,0.3
						c0.1,0.3,0.2,0.5,0.3,0.8c0.2,0.5,0.4,0.9,0.8,2.1c0.7,2.1,1.1,3.8,1.1,4.9c1.1,6,0.8,14.2-4.7,23.6
						c-10.4,17.9-24.3,26.7-24.3,26.7s33.7-27.5,23.4-54.9c-7.3-13.6-16.3-18.7-26.5-28.4c-14.1-13.6-24.2-21.2-24.2-38
						C-77.4-1900.6-49.2-1929.4-49.2-1929.4z"/>
					<path class="st3" d="M-47.8-1753.7l-5.1-7c0.3-0.3,31.2-25.9,22.1-50.1c-4.6-8.7-10.5-13.7-17.2-19.5c-2.6-2.3-5.4-4.6-8.2-7.4
						l-4.2-4c-11.9-11.3-21.3-20.2-21.3-37c0-23.4,28.2-52.5,29.4-53.7l6.5,5.7c-29.9,38.6-16.3,59.8-3.4,72.3
						c13.8,13.5,23.3,25,28.3,34.4h0.3l1.1,2.8c0.6,1.4,0.8,1.9,1.3,3.3c0.8,2.6,1.3,4.6,1.3,6.2c1.5,8.1-0.3,17.3-5.2,25.8
						C-32.9-1763.4-47.2-1754.1-47.8-1753.7z M-72.2-1885.3c-0.5,2.2-0.8,4.4-0.8,6.5c0,11.1,5,17.5,13.5,25.9
						C-68-1862.8-72.3-1873.6-72.2-1885.3z"/>
				</g>
				<g>
					<path class="st3" d="M-49.2-1841.1c-29.3,37.8-19.6,61.9-3,78.1c17.8,17.3,25.4,28.6,28.7,35.6h0l0.1,0.3
						c0.1,0.3,0.2,0.5,0.3,0.8c0.2,0.5,0.4,0.9,0.8,2.1c0.7,2.1,1.1,3.8,1.1,4.9c1.1,6,0.8,14.2-4.7,23.6
						c-10.4,17.9-24.3,26.7-24.3,26.7s33.7-27.5,23.4-54.9c-7.3-13.6-16.3-18.7-26.5-28.4c-14.1-13.6-24.2-21.2-24.2-38
						C-77.4-1812.3-49.2-1841.1-49.2-1841.1z"/>
					<path class="st3" d="M-47.8-1665.5l-5.1-7c0.3-0.3,31.2-25.9,22.1-50.1c-4.6-8.7-10.5-13.7-17.2-19.5c-2.6-2.3-5.4-4.6-8.2-7.4
						l-4.2-4c-11.9-11.3-21.3-20.2-21.3-37.1c0-23.3,28.2-52.4,29.4-53.7l6.5,5.7c-29.9,38.6-16.3,59.8-3.4,72.3
						c13.8,13.5,23.4,25.1,28.4,34.4h0.3l1.1,2.8c0.6,1.4,0.8,1.8,1.2,3.2c0.9,2.7,1.4,4.7,1.4,6.3c1.5,8.1-0.3,17.3-5.2,25.8
						C-32.9-1675.1-47.2-1665.9-47.8-1665.5z M-72.2-1797c-0.5,2.2-0.8,4.4-0.8,6.5c0,11.1,5,17.6,13.5,25.9
						C-68-1774.5-72.3-1785.3-72.2-1797z"/>
				</g>
				<g>
					<path class="st3" d="M-49.2-1759.7c-29.3,37.8-19.6,61.9-3,78.1c17.8,17.3,25.4,28.6,28.7,35.6h0l0.1,0.3
						c0.1,0.3,0.2,0.5,0.3,0.8c0.2,0.5,0.4,0.9,0.8,2.1c0.7,2.1,1.1,3.8,1.1,4.9c1.1,6,0.8,14.2-4.7,23.6
						c-10.4,17.9-24.3,26.7-24.3,26.7s33.7-27.5,23.4-54.9c-7.3-13.6-16.3-18.7-26.5-28.4c-14.1-13.6-24.2-21.2-24.2-38
						C-77.4-1730.9-49.2-1759.7-49.2-1759.7z"/>
					<path class="st3" d="M-47.8-1584l-5.1-7c0.3-0.3,31.2-25.9,22.1-50.1c-4.6-8.7-10.5-13.7-17.2-19.5c-2.6-2.3-5.4-4.6-8.2-7.4
						l-4.2-4c-11.9-11.3-21.3-20.2-21.3-37.1c0-23.3,28.2-52.4,29.4-53.7l6.5,5.7c-29.9,38.6-16.3,59.8-3.4,72.3
						c13.8,13.5,23.4,25.1,28.4,34.4h0.3l1.1,2.8c0.6,1.4,0.8,1.8,1.2,3.2c0.9,2.7,1.4,4.7,1.4,6.3c1.5,8.1-0.3,17.3-5.2,25.8
						C-32.9-1593.7-47.2-1584.4-47.8-1584z M-72.2-1715.5c-0.5,2.2-0.8,4.4-0.8,6.5c0,11.1,5,17.6,13.5,25.9
						C-68-1693-72.3-1703.9-72.2-1715.5z"/>
				</g>
				<g>
					<path class="st3" d="M-49.2-1671.4c-29.3,37.8-19.6,61.9-3,78.1c17.8,17.3,25.4,28.6,28.7,35.6h0l0.1,0.3
						c0.1,0.3,0.2,0.5,0.3,0.8c0.2,0.5,0.4,0.9,0.8,2.1c0.7,2.1,1.1,3.8,1.1,4.9c1.1,6,0.8,14.2-4.7,23.6
						c-10.4,17.9-24.3,26.7-24.3,26.7s33.7-27.5,23.4-54.9c-7.3-13.6-16.3-18.7-26.5-28.4c-14.1-13.6-24.2-21.2-24.2-38
						C-77.4-1642.6-49.2-1671.4-49.2-1671.4z"/>
					<path class="st3" d="M-47.8-1495.8l-5.1-7c0.3-0.3,31.2-25.9,22.1-50.1c-4.6-8.6-10.5-13.6-17.2-19.5c-2.7-2.3-5.4-4.6-8.2-7.4
						l-4.2-4.1c-11.9-11.3-21.3-20.2-21.3-37c0-23.3,28.2-52.4,29.4-53.7l6.5,5.7c-29.9,38.6-16.3,59.8-3.4,72.3
						c13.8,13.5,23.4,25.1,28.4,34.4h0.3l1.1,2.7c0.6,1.4,0.8,1.9,1.2,3.1c0.9,2.8,1.4,4.9,1.4,6.5c1.5,8.1-0.3,17.3-5.2,25.8
						C-32.9-1505.4-47.2-1496.2-47.8-1495.8z M-72.2-1627.2c-0.5,2.2-0.8,4.4-0.8,6.5c0,11.1,5,17.6,13.5,25.9
						C-68-1604.8-72.3-1615.6-72.2-1627.2z"/>
				</g>
				<g>
					<path class="st3" d="M-49.2-1589.9c-29.3,37.8-19.6,61.9-3,78.1c17.8,17.3,25.4,28.6,28.7,35.6h0l0.1,0.3
						c0.1,0.3,0.2,0.5,0.3,0.8c0.2,0.5,0.4,0.9,0.8,2.1c0.7,2.1,1.1,3.8,1.1,4.9c1.1,6,0.8,14.2-4.7,23.6
						c-10.4,17.9-24.3,26.7-24.3,26.7s33.7-27.5,23.4-54.9c-7.3-13.6-16.3-18.7-26.5-28.4c-14.1-13.6-24.2-21.2-24.2-38
						C-77.4-1561.1-49.2-1589.9-49.2-1589.9z"/>
					<path class="st3" d="M-47.8-1414.3l-5.1-7c0.3-0.3,31.2-25.9,22.1-50.1c-4.6-8.6-10.4-13.6-17.2-19.4c-2.7-2.3-5.4-4.7-8.2-7.4
						l-4.2-4c-11.9-11.3-21.3-20.2-21.3-37c0-23.4,28.2-52.4,29.4-53.7l6.5,5.7c-29.9,38.6-16.3,59.8-3.4,72.3
						c13.8,13.5,23.4,25.1,28.4,34.4h0.3l1.1,2.7c0.6,1.4,0.8,1.9,1.2,3.1c0.9,2.8,1.4,4.9,1.4,6.5c1.5,8.1-0.3,17.3-5.2,25.8
						C-32.9-1423.9-47.2-1414.7-47.8-1414.3z M-72.2-1545.8c-0.5,2.2-0.8,4.4-0.8,6.5c0,11.1,5,17.5,13.5,25.9
						C-68.1-1523.3-72.3-1534.1-72.2-1545.8z"/>
				</g>
				<g>
					<path class="st3" d="M-49.2-1501.7c-29.3,37.8-19.6,61.9-3,78.1c17.8,17.3,25.4,28.6,28.7,35.6h0c0,0,0.1,0.2,0.1,0.3
						c0.1,0.3,0.2,0.5,0.3,0.8c0.2,0.5,0.4,0.9,0.8,2.1c0.7,2.1,1.1,3.8,1.1,4.9c1.1,6,0.8,14.2-4.7,23.6
						c-10.4,17.9-24.3,26.7-24.3,26.7s33.7-27.5,23.4-54.9c-7.3-13.6-16.3-18.7-26.5-28.4c-14.1-13.6-24.2-21.2-24.2-38
						C-77.4-1472.9-49.2-1501.7-49.2-1501.7z"/>
					<path class="st3" d="M-47.8-1326l-5.1-7c0.3-0.3,31.2-25.9,22.1-50.1c-4.7-8.6-10.5-13.7-17.2-19.5c-2.7-2.3-5.4-4.7-8.2-7.4
						l-4.2-4c-11.9-11.3-21.3-20.2-21.3-37c0-23.4,28.2-52.4,29.4-53.7l6.5,5.7c-29.9,38.6-16.3,59.8-3.4,72.3
						c13.8,13.5,23.3,25,28.3,34.4h0.3l1.3,3.2c0.5,1.1,0.6,1.6,1,2.6c0.9,2.8,1.4,4.9,1.4,6.4c1.5,8.1-0.3,17.3-5.2,25.8
						C-32.9-1335.7-47.2-1326.4-47.8-1326z M-72.2-1457.5c-0.5,2.2-0.8,4.4-0.8,6.5c0,11.1,5,17.5,13.5,25.9
						C-68.1-1435.1-72.3-1445.9-72.2-1457.5z"/>
				</g>
				<g>
					<path class="st3" d="M-49.2-1420.2c-29.3,37.8-19.6,61.9-3,78.1c17.8,17.3,25.4,28.6,28.7,35.6h0c0,0,0.1,0.2,0.1,0.3
						c0.1,0.3,0.2,0.5,0.3,0.8c0.2,0.5,0.4,0.9,0.8,2.1c0.7,2.1,1.1,3.8,1.1,4.9c1.1,6,0.8,14.2-4.7,23.6
						c-10.4,17.9-24.3,26.7-24.3,26.7s33.7-27.5,23.4-54.9c-7.3-13.6-16.3-18.7-26.5-28.4c-14.1-13.6-24.2-21.2-24.2-38
						C-77.4-1391.4-49.2-1420.2-49.2-1420.2z"/>
					<path class="st3" d="M-47.8-1244.6l-5.1-7c0.3-0.3,31.2-25.9,22.1-50.1c-4.7-8.6-10.5-13.7-17.2-19.5c-2.7-2.3-5.4-4.7-8.2-7.4
						l-4.2-4c-11.9-11.3-21.3-20.2-21.3-37c0-23.4,28.2-52.4,29.4-53.7l6.5,5.7c-29.9,38.6-16.3,59.8-3.4,72.3
						c13.8,13.5,23.3,25,28.3,34.4h0.3l1.3,3.2c0.5,1.1,0.6,1.6,1,2.6c0.9,2.8,1.4,4.9,1.4,6.4c1.5,8.1-0.3,17.3-5.2,25.8
						C-32.9-1254.2-47.2-1245-47.8-1244.6z M-72.2-1376c-0.5,2.2-0.8,4.4-0.8,6.5c0,11.1,5,17.5,13.5,25.9
						C-68.1-1353.6-72.3-1364.4-72.2-1376z"/>
				</g>
				<g>
					<path class="st3" d="M-49.2-1332c-29.3,37.8-19.6,61.9-3,78.1c17.8,17.3,25.4,28.6,28.7,35.6h0l0.1,0.3
						c0.1,0.3,0.2,0.5,0.3,0.8c0.2,0.5,0.4,0.9,0.8,2.1c0.7,2.1,1.1,3.8,1.1,4.9c1.1,6,0.8,14.2-4.7,23.6
						c-10.4,17.9-24.3,26.7-24.3,26.7s33.7-27.5,23.4-54.9c-7.3-13.6-16.3-18.7-26.5-28.4c-14.1-13.6-24.2-21.2-24.2-38
						C-77.4-1303.2-49.2-1332-49.2-1332z"/>
					<path class="st3" d="M-47.8-1156.3l-5.1-7c0.3-0.3,31.2-25.9,22.1-50.1c-4.6-8.7-10.5-13.7-17.2-19.5c-2.6-2.3-5.4-4.6-8.2-7.4
						l-4.2-4c-11.9-11.3-21.3-20.2-21.3-37c0-23.4,28.2-52.5,29.4-53.7l6.5,5.7c-29.9,38.6-16.3,59.8-3.4,72.3
						c13.8,13.5,23.3,25,28.3,34.4h0.3l1.1,2.8c0.6,1.4,0.8,1.9,1.3,3.3c0.8,2.6,1.3,4.6,1.3,6.2c1.5,8.1-0.3,17.3-5.2,25.8
						C-32.9-1166-47.2-1156.7-47.8-1156.3z M-72.2-1287.8c-0.5,2.2-0.8,4.4-0.8,6.5c0,11.1,5,17.5,13.5,25.9
						C-68-1265.3-72.3-1276.2-72.2-1287.8z"/>
				</g>
				<g>
					<path class="st3" d="M-49.2-1250.5c-29.3,37.8-19.6,61.9-3,78.1c17.8,17.3,25.4,28.6,28.7,35.6h0l0.1,0.3
						c0.1,0.3,0.2,0.5,0.3,0.8c0.2,0.5,0.4,0.9,0.8,2.1c0.7,2.1,1.1,3.8,1.1,4.9c1.1,6,0.8,14.2-4.7,23.6
						c-10.4,17.9-24.3,26.7-24.3,26.7s33.7-27.5,23.4-54.9c-7.3-13.6-16.3-18.7-26.5-28.4c-14.1-13.6-24.2-21.2-24.2-38
						C-77.4-1221.7-49.2-1250.5-49.2-1250.5z"/>
					<path class="st3" d="M-47.8-1074.8l-5.1-7c0.3-0.3,31.2-25.9,22.1-50.1c-4.6-8.7-10.5-13.7-17.2-19.5c-2.6-2.3-5.4-4.6-8.2-7.4
						l-4.2-4c-11.9-11.3-21.3-20.2-21.3-37c0-23.4,28.2-52.5,29.4-53.7l6.5,5.7c-29.9,38.6-16.3,59.8-3.4,72.3
						c13.8,13.5,23.3,25,28.3,34.4h0.3l1.1,2.8c0.6,1.4,0.8,1.9,1.3,3.3c0.8,2.6,1.3,4.6,1.3,6.2c1.5,8.1-0.3,17.3-5.2,25.8
						C-32.9-1084.5-47.2-1075.2-47.8-1074.8z M-72.2-1206.3c-0.5,2.2-0.8,4.4-0.8,6.5c0,11.1,5,17.5,13.5,25.9
						C-68-1183.8-72.3-1194.7-72.2-1206.3z"/>
				</g>
				<g>
					<path class="st3" d="M-49.2-1162.2c-29.3,37.8-19.6,61.9-3,78.1c17.8,17.3,25.4,28.6,28.7,35.6h0l0.1,0.3
						c0.1,0.3,0.2,0.5,0.3,0.8c0.2,0.5,0.4,0.9,0.8,2.1c0.7,2.1,1.1,3.8,1.1,4.9c1.1,6,0.8,14.2-4.7,23.6
						c-10.4,17.9-24.3,26.7-24.3,26.7s33.7-27.5,23.4-54.9c-7.3-13.6-16.3-18.7-26.5-28.4c-14.1-13.6-24.2-21.2-24.2-38
						C-77.4-1133.4-49.2-1162.2-49.2-1162.2z"/>
					<path class="st3" d="M-47.8-986.6l-5.1-7c0.3-0.3,31.2-25.9,22.1-50.1c-4.6-8.7-10.5-13.7-17.2-19.5c-2.6-2.3-5.4-4.6-8.2-7.4
						l-4.2-4c-11.9-11.3-21.3-20.2-21.3-37.1c0-23.3,28.2-52.4,29.4-53.7l6.5,5.7c-29.9,38.6-16.3,59.8-3.4,72.3
						c13.8,13.5,23.4,25.1,28.4,34.4h0.3l1.1,2.8c0.6,1.4,0.8,1.8,1.2,3.2c0.9,2.7,1.4,4.7,1.4,6.3c1.5,8.1-0.3,17.3-5.2,25.8
						C-32.9-996.2-47.2-987-47.8-986.6z M-72.2-1118.1c-0.5,2.2-0.8,4.4-0.8,6.5c0,11.1,5,17.6,13.5,25.9
						C-68-1095.6-72.3-1106.4-72.2-1118.1z"/>
				</g>
				<g>
					<path class="st3" d="M-49.2-1080.8c-29.3,37.8-19.6,61.9-3,78.1c17.8,17.3,25.4,28.6,28.7,35.6h0l0.1,0.3
						c0.1,0.3,0.2,0.5,0.3,0.8c0.2,0.5,0.4,0.9,0.8,2.1c0.7,2.1,1.1,3.8,1.1,4.9c1.1,6,0.8,14.2-4.7,23.6
						c-10.4,17.9-24.3,26.7-24.3,26.7s33.7-27.5,23.4-54.9c-7.3-13.6-16.3-18.7-26.5-28.4c-14.1-13.6-24.2-21.2-24.2-38
						C-77.4-1052-49.2-1080.8-49.2-1080.8z"/>
					<path class="st3" d="M-47.8-905.1l-5.1-7c0.3-0.3,31.2-25.9,22.1-50.1c-4.6-8.7-10.5-13.7-17.2-19.5c-2.6-2.3-5.4-4.6-8.2-7.4
						l-4.2-4c-11.9-11.3-21.3-20.2-21.3-37.1c0-23.3,28.2-52.4,29.4-53.7l6.5,5.7c-29.9,38.6-16.3,59.8-3.4,72.3
						c13.8,13.5,23.4,25.1,28.4,34.4h0.3l1.1,2.8c0.6,1.4,0.8,1.8,1.2,3.2c0.9,2.7,1.4,4.7,1.4,6.3c1.5,8.1-0.3,17.3-5.2,25.8
						C-32.9-914.8-47.2-905.5-47.8-905.1z M-72.2-1036.6c-0.5,2.2-0.8,4.4-0.8,6.5c0,11.1,5,17.6,13.6,26
						C-68-1014.1-72.3-1024.9-72.2-1036.6z"/>
				</g>
				<g>
					<path class="st3" d="M-49.2-992.5c-29.3,37.8-19.6,61.9-3,78.1c17.8,17.3,25.4,28.6,28.7,35.6h0l0.1,0.3
						c0.1,0.3,0.2,0.5,0.3,0.8c0.2,0.5,0.4,0.9,0.8,2.1c0.7,2.1,1.1,3.8,1.1,4.9c1.1,6,0.8,14.2-4.7,23.6
						c-10.4,17.9-24.3,26.7-24.3,26.7s33.7-27.5,23.4-54.9C-34-889-43-894.1-53.2-903.9c-14.1-13.6-24.2-21.2-24.2-38
						C-77.4-963.7-49.2-992.5-49.2-992.5z"/>
					<path class="st3" d="M-47.8-816.9l-5.1-7c0.3-0.3,31.2-25.9,22.1-50.1c-4.6-8.6-10.4-13.6-17.2-19.4c-2.7-2.3-5.4-4.7-8.2-7.4
						l-4.2-4c-11.9-11.3-21.3-20.2-21.3-37c0-23.4,28.2-52.4,29.4-53.7l6.5,5.7c-29.9,38.6-16.3,59.8-3.4,72.3
						c13.8,13.5,23.4,25.1,28.4,34.4h0.3l1.1,2.7c0.6,1.4,0.8,1.9,1.2,3.1c0.9,2.8,1.4,4.9,1.4,6.5c1.5,8.1-0.3,17.3-5.2,25.8
						C-32.9-826.5-47.2-817.3-47.8-816.9z M-72.2-948.4c-0.5,2.2-0.8,4.4-0.8,6.5c0,11.1,5,17.5,13.5,25.9
						C-68.1-925.9-72.3-936.7-72.2-948.4z"/>
				</g>
				<g>
					<path class="st3" d="M-49.2-911c-29.3,37.8-19.6,61.9-3,78.1c17.8,17.3,25.4,28.6,28.7,35.6h0l0.1,0.3c0.1,0.3,0.2,0.5,0.3,0.8
						c0.2,0.5,0.4,0.9,0.8,2.1c0.7,2.1,1.1,3.8,1.1,4.9c1.1,6,0.8,14.2-4.7,23.6C-36.2-747.9-50.1-739-50.1-739s33.7-27.5,23.4-54.9
						c-7.3-13.6-16.3-18.7-26.5-28.4c-14.1-13.6-24.2-21.2-24.2-38C-77.4-882.2-49.2-911-49.2-911z"/>
					<path class="st3" d="M-47.8-735.4l-5.1-7c0.3-0.3,31.2-25.9,22.1-50.1c-4.6-8.6-10.4-13.6-17.2-19.4c-2.7-2.3-5.4-4.7-8.2-7.4
						l-4.2-4c-11.9-11.3-21.3-20.2-21.3-37c0-23.4,28.2-52.4,29.4-53.7l6.5,5.7c-29.9,38.6-16.3,59.8-3.4,72.3
						c13.8,13.5,23.4,25.1,28.4,34.4h0.3l1.1,2.7c0.6,1.4,0.8,1.9,1.2,3.1c0.9,2.8,1.4,4.9,1.4,6.5c1.5,8.1-0.3,17.3-5.2,25.8
						C-32.9-745-47.2-735.8-47.8-735.4z M-72.2-866.9c-0.5,2.2-0.8,4.4-0.8,6.5c0,11.1,5,17.5,13.5,25.9
						C-68.1-844.4-72.3-855.2-72.2-866.9z"/>
				</g>
				<g>
					<path class="st3" d="M-49.2-822.8c-29.3,37.8-19.6,61.9-3,78.1c17.8,17.3,25.4,28.6,28.7,35.6h0l0.1,0.3
						c0.1,0.3,0.2,0.5,0.3,0.8c0.2,0.5,0.4,0.9,0.8,2.1c0.7,2.1,1.1,3.8,1.1,4.9c1.1,6,0.8,14.2-4.7,23.6
						c-10.4,17.9-24.3,26.7-24.3,26.7s33.7-27.5,23.4-54.9c-7.3-13.6-16.3-18.7-26.5-28.4c-14.1-13.6-24.2-21.2-24.2-38
						C-77.4-794-49.2-822.8-49.2-822.8z"/>
					<path class="st3" d="M-47.8-647.1l-5.1-7c0.3-0.3,31.2-25.9,22.1-50.1c-4.7-8.6-10.5-13.7-17.2-19.5c-2.7-2.3-5.4-4.7-8.2-7.4
						l-4.2-4c-11.9-11.3-21.3-20.2-21.3-37c0-23.4,28.2-52.5,29.4-53.7l6.5,5.7c-29.9,38.6-16.3,59.8-3.4,72.3
						c13.8,13.5,23.3,25,28.3,34.4h0.3l1.1,2.8c0.6,1.4,0.7,1.8,1.2,3c0.9,2.8,1.4,4.9,1.4,6.4c1.5,8.1-0.3,17.3-5.2,25.8
						C-32.9-656.8-47.2-647.5-47.8-647.1z M-72.2-778.6c-0.5,2.2-0.8,4.4-0.8,6.5c0,11.1,5,17.5,13.5,25.9
						C-68-756.2-72.3-767-72.2-778.6z"/>
				</g>
				<g>
					<path class="st3" d="M-49.2-741.3c-29.3,37.8-19.6,61.9-3,78.1c17.8,17.3,25.4,28.6,28.7,35.6h0l0.1,0.3
						c0.1,0.3,0.2,0.5,0.3,0.8c0.2,0.5,0.4,0.9,0.8,2.1c0.7,2.1,1.1,3.8,1.1,4.9c1.1,6,0.8,14.2-4.7,23.6
						c-10.4,17.9-24.3,26.7-24.3,26.7s33.7-27.5,23.4-54.9c-7.3-13.6-16.3-18.7-26.5-28.4c-14.1-13.6-24.2-21.2-24.2-38
						C-77.4-712.5-49.2-741.3-49.2-741.3z"/>
					<path class="st3" d="M-47.8-565.7l-5.1-7c0.3-0.3,31.2-25.9,22.1-50.1c-4.7-8.6-10.5-13.7-17.2-19.5c-2.7-2.3-5.4-4.7-8.2-7.4
						l-4.2-4c-11.9-11.3-21.3-20.2-21.3-37c0-23.4,28.2-52.5,29.4-53.7l6.5,5.7c-29.9,38.6-16.3,59.8-3.4,72.3
						c13.8,13.5,23.3,25,28.3,34.4h0.3l1.1,2.8c0.6,1.4,0.7,1.8,1.2,3c0.9,2.8,1.4,4.9,1.4,6.4c1.5,8.1-0.3,17.3-5.2,25.8
						C-32.9-575.3-47.2-566-47.8-565.7z M-72.2-697.1c-0.5,2.2-0.8,4.4-0.8,6.5c0,11.1,5,17.5,13.5,25.9
						C-68-674.7-72.3-685.5-72.2-697.1z"/>
				</g>
				<g>
					<path class="st3" d="M-49.2-653c-29.3,37.8-19.6,61.9-3,78.1c17.8,17.3,25.4,28.6,28.7,35.6h0c0,0,0.1,0.2,0.1,0.3
						c0.1,0.3,0.2,0.5,0.3,0.8c0.2,0.5,0.4,0.9,0.8,2.1c0.7,2.1,1.1,3.8,1.1,4.9c1.1,6,0.8,14.2-4.7,23.6
						c-10.4,17.9-24.3,26.7-24.3,26.7s33.7-27.5,23.4-54.9c-7.3-13.6-16.3-18.7-26.5-28.4c-14.1-13.6-24.2-21.2-24.2-38
						C-77.4-624.3-49.2-653-49.2-653z"/>
					<path class="st3" d="M-47.8-477.4l-5.1-7c0.3-0.3,31.2-25.9,22.1-50.1c-4.6-8.7-10.5-13.7-17.2-19.5c-2.6-2.3-5.4-4.6-8.2-7.4
						l-4.2-4c-11.9-11.3-21.3-20.2-21.3-37c0-23.4,28.2-52.5,29.4-53.7l6.5,5.7c-29.9,38.6-16.3,59.8-3.4,72.3
						c13.8,13.5,23.3,25,28.3,34.4h0.3l1.3,3.2c0.5,1.1,0.7,1.6,1.1,2.9c0.8,2.6,1.3,4.6,1.3,6.2c1.5,8.1-0.3,17.3-5.2,25.8
						C-32.9-487.1-47.2-477.8-47.8-477.4z M-72.2-608.9c-0.5,2.2-0.8,4.4-0.8,6.5c0,11.1,5,17.5,13.5,25.9
						C-68-586.4-72.3-597.2-72.2-608.9z"/>
				</g>
				<g>
					<path class="st3" d="M-49.2-571.6c-29.3,37.8-19.6,61.9-3,78.1c17.8,17.3,25.4,28.6,28.7,35.6h0c0,0,0.1,0.2,0.1,0.3
						c0.1,0.3,0.2,0.5,0.3,0.8c0.2,0.5,0.4,0.9,0.8,2.1c0.7,2.1,1.1,3.8,1.1,4.9c1.1,6,0.8,14.2-4.7,23.6
						c-10.4,17.9-24.3,26.7-24.3,26.7s33.7-27.5,23.4-54.9C-34-468.1-43-473.2-53.2-483c-14.1-13.6-24.2-21.2-24.2-38
						C-77.4-542.8-49.2-571.6-49.2-571.6z"/>
					<path class="st3" d="M-47.8-395.9l-5.1-7c0.3-0.3,31.2-25.9,22.1-50.1c-4.6-8.7-10.5-13.7-17.2-19.5c-2.6-2.3-5.4-4.6-8.2-7.4
						l-4.2-4c-11.9-11.3-21.3-20.2-21.3-37c0-23.4,28.2-52.5,29.4-53.7l6.5,5.7c-29.9,38.6-16.3,59.8-3.4,72.3
						c13.8,13.5,23.3,25,28.3,34.4h0.3l1.3,3.2c0.5,1.1,0.7,1.6,1.1,2.9c0.8,2.6,1.3,4.6,1.3,6.2c1.5,8.1-0.3,17.3-5.2,25.8
						C-32.9-405.6-47.2-396.3-47.8-395.9z M-72.2-527.4c-0.5,2.2-0.8,4.4-0.8,6.5c0,11.1,5,17.5,13.5,25.9
						C-68-504.9-72.3-515.8-72.2-527.4z"/>
				</g>
				<g>
					<path class="st3" d="M-49.2-483.3c-29.3,37.8-19.6,61.9-3,78.1c17.8,17.3,25.4,28.6,28.7,35.6h0l0.1,0.3
						c0.1,0.3,0.2,0.5,0.3,0.8c0.2,0.5,0.4,0.9,0.8,2.1c0.7,2.1,1.1,3.8,1.1,4.9c1.1,6,0.8,14.2-4.7,23.6
						c-10.4,17.9-24.3,26.7-24.3,26.7s33.7-27.5,23.4-54.9c-7.3-13.6-16.3-18.7-26.5-28.4c-14.1-13.6-24.2-21.2-24.2-38
						C-77.4-454.5-49.2-483.3-49.2-483.3z"/>
					<path class="st3" d="M-47.8-307.7l-5.1-7c0.3-0.3,31.2-25.9,22.1-50.1c-4.6-8.7-10.5-13.7-17.2-19.5c-2.6-2.3-5.4-4.6-8.2-7.4
						l-4.3-4.1c-11.9-11.3-21.2-20.2-21.2-37c0-23.3,28.2-52.4,29.4-53.7l6.5,5.7c-29.9,38.6-16.3,59.8-3.4,72.3
						c13.8,13.5,23.4,25.1,28.4,34.4h0.3l1.1,2.8c0.6,1.4,0.7,1.8,1.2,3c0.9,2.8,1.4,4.9,1.4,6.5c1.5,8.1-0.3,17.3-5.2,25.8
						C-32.9-317.3-47.2-308.1-47.8-307.7z M-72.2-439.2c-0.5,2.2-0.8,4.4-0.8,6.5c0,11.1,5,17.6,13.5,25.9
						C-68-416.7-72.3-427.5-72.2-439.2z"/>
				</g>
				<g>
					<path class="st3" d="M-49.2-401.8c-29.3,37.8-19.6,61.9-3,78.1c17.8,17.3,25.4,28.6,28.7,35.6h0l0.1,0.3
						c0.1,0.3,0.2,0.5,0.3,0.8c0.2,0.5,0.4,0.9,0.8,2.1c0.7,2.1,1.1,3.8,1.1,4.9c1.1,6,0.8,14.2-4.7,23.6
						c-10.4,17.9-24.3,26.7-24.3,26.7s33.7-27.5,23.4-54.9c-7.3-13.6-16.3-18.7-26.5-28.4c-14.1-13.6-24.2-21.2-24.2-38
						C-77.4-373-49.2-401.8-49.2-401.8z"/>
					<path class="st3" d="M-47.8-226.2l-5.1-7c0.3-0.3,31.2-25.9,22.1-50.1c-4.6-8.7-10.5-13.7-17.2-19.5c-2.6-2.3-5.4-4.6-8.2-7.4
						l-4.3-4.1c-11.9-11.3-21.2-20.2-21.2-37c0-23.3,28.2-52.4,29.4-53.7l6.5,5.7c-29.9,38.6-16.3,59.8-3.4,72.3
						c13.8,13.5,23.4,25.1,28.4,34.4h0.3l1.1,2.8c0.6,1.4,0.7,1.8,1.2,3c0.9,2.8,1.4,4.9,1.4,6.5c1.5,8.1-0.3,17.3-5.2,25.8
						C-32.9-235.8-47.2-226.6-47.8-226.2z M-72.2-357.7c-0.5,2.2-0.8,4.4-0.8,6.5c0,11.1,5,17.6,13.5,25.9
						C-68-335.2-72.3-346-72.2-357.7z"/>
				</g>
				<g>
					<path class="st3" d="M-49.2-313.6c-29.3,37.8-19.6,61.9-3,78.1c17.8,17.3,25.4,28.6,28.7,35.6h0l0.1,0.3
						c0.1,0.3,0.2,0.5,0.3,0.8c0.2,0.5,0.4,0.9,0.8,2.1c0.7,2.1,1.1,3.8,1.1,4.9c1.1,6,0.8,14.2-4.7,23.6
						c-10.4,17.9-24.3,26.7-24.3,26.7s33.7-27.5,23.4-54.9C-34-210.1-43-215.2-53.2-225c-14.1-13.6-24.2-21.2-24.2-38
						C-77.4-284.8-49.2-313.6-49.2-313.6z"/>
					<path class="st3" d="M-47.8-138l-5.1-7c0.3-0.3,31.2-25.9,22.1-50.1c-4.6-8.6-10.4-13.6-17.2-19.4c-2.7-2.3-5.4-4.7-8.2-7.4
						l-4.2-4c-11.9-11.3-21.3-20.2-21.3-37c0-23.4,28.2-52.4,29.4-53.7l6.5,5.7c-29.9,38.6-16.3,59.8-3.4,72.3
						c13.8,13.5,23.3,25.1,28.3,34.4h0.3l1.1,2.8c0.6,1.4,0.7,1.8,1.2,3c0.9,2.8,1.4,4.9,1.4,6.4c1.5,8.1-0.3,17.3-5.2,25.8
						C-32.9-147.6-47.2-138.3-47.8-138z M-72.2-269.4c-0.5,2.2-0.8,4.4-0.8,6.5c0,11.1,5,17.5,13.5,25.9
						C-68.1-247-72.3-257.8-72.2-269.4z"/>
				</g>
				<g>
					<path class="st3" d="M-49.2-232.1c-29.3,37.8-19.6,61.9-3,78.1c17.8,17.3,25.4,28.6,28.7,35.6h0l0.1,0.3
						c0.1,0.3,0.2,0.5,0.3,0.8c0.2,0.5,0.4,0.9,0.8,2.1c0.7,2.1,1.1,3.8,1.1,4.9c1.1,6,0.8,14.2-4.7,23.6
						C-36.2-69-50.1-60.1-50.1-60.1s33.7-27.5,23.4-54.9c-7.3-13.6-16.3-18.7-26.5-28.4c-14.1-13.6-24.2-21.2-24.2-38
						C-77.4-203.3-49.2-232.1-49.2-232.1z"/>
					<path class="st3" d="M-47.8-56.5l-5.1-7c0.3-0.3,31.2-25.9,22.1-50.1c-4.6-8.6-10.4-13.6-17.2-19.4c-2.7-2.3-5.4-4.7-8.2-7.4
						l-4.2-4c-11.9-11.3-21.3-20.2-21.3-37c0-23.4,28.2-52.4,29.4-53.7l6.5,5.7c-29.9,38.6-16.3,59.8-3.4,72.3
						c13.8,13.5,23.3,25.1,28.3,34.4h0.3l1.1,2.8c0.6,1.4,0.7,1.8,1.2,3c0.9,2.8,1.4,4.9,1.4,6.4c1.5,8.1-0.3,17.3-5.2,25.8
						C-32.9-66.1-47.2-56.9-47.8-56.5z M-72.2-187.9c-0.5,2.2-0.8,4.4-0.8,6.5c0,11.1,5,17.5,13.5,25.9
						C-68-165.5-72.3-176.3-72.2-187.9z"/>
				</g>
				<g>
					<path class="st3" d="M-49.2-143.9c-29.3,37.8-19.6,61.9-3,78.1c17.8,17.3,25.4,28.6,28.7,35.6h0c0,0,0.1,0.2,0.1,0.3
						c0.1,0.3,0.2,0.5,0.3,0.8c0.2,0.5,0.4,0.9,0.8,2.1c0.7,2.1,1.1,3.8,1.1,4.9c1.1,6,0.8,14.2-4.7,23.6
						c-10.4,17.9-24.3,26.7-24.3,26.7s33.7-27.5,23.4-54.9C-34-40.4-43-45.5-53.2-55.3c-14.1-13.6-24.2-21.2-24.2-38
						C-77.4-115.1-49.2-143.9-49.2-143.9z"/>
					<path class="st3" d="M-47.8,31.8l-5.1-7c0.3-0.3,31.2-25.9,22.1-50.1C-35.4-33.9-41.3-39-48-44.8c-2.6-2.3-5.4-4.6-8.2-7.4
						l-4.2-4c-11.9-11.3-21.3-20.2-21.3-37c0-23.4,28.2-52.5,29.4-53.7l6.5,5.7c-29.9,38.6-16.3,59.8-3.4,72.3
						c13.8,13.5,23.3,25,28.3,34.4h0.3l1.3,3.2c0.5,1.1,0.6,1.6,1,2.6c0.9,2.8,1.4,4.9,1.4,6.4c1.5,8.1-0.3,17.3-5.2,25.8
						C-32.9,22.1-47.2,31.4-47.8,31.8z M-72.2-99.7c-0.5,2.2-0.8,4.4-0.8,6.5c0,11.1,5,17.5,13.5,25.9C-68-77.2-72.3-88.1-72.2-99.7
						z"/>
				</g>
				<g>
					<path class="st3" d="M-49.2-62.4c-29.3,37.8-19.6,61.9-3,78.1C-34.4,33-26.7,44.3-23.5,51.3h0c0,0,0.1,0.2,0.1,0.3
						c0.1,0.3,0.2,0.5,0.3,0.8c0.2,0.5,0.4,0.9,0.8,2.1c0.7,2.1,1.1,3.8,1.1,4.9c1.1,6,0.8,14.2-4.7,23.6
						c-10.4,17.9-24.3,26.7-24.3,26.7s33.7-27.5,23.4-54.9C-34,41.1-43,36-53.2,26.2C-67.3,12.6-77.4,5-77.4-11.7
						C-77.4-33.6-49.2-62.4-49.2-62.4z"/>
					<path class="st3" d="M-47.8,113.3l-5.1-7c0.3-0.3,31.2-25.9,22.1-50.1c-4.6-8.7-10.5-13.7-17.2-19.5c-2.6-2.3-5.4-4.6-8.2-7.4
						l-4.2-4C-72.3,14-81.7,5.1-81.7-11.7c0-23.4,28.2-52.5,29.4-53.7l6.5,5.7C-75.6-21.2-62,0-49.1,12.6
						c13.8,13.5,23.3,25,28.3,34.4h0.3l1.3,3.2c0.5,1.1,0.6,1.6,1,2.6c0.9,2.8,1.4,4.9,1.4,6.4c1.5,8.1-0.3,17.3-5.2,25.8
						C-32.9,103.6-47.2,112.9-47.8,113.3z M-72.2-18.2c-0.5,2.2-0.8,4.4-0.8,6.5c0,11.1,5,17.5,13.5,25.9
						C-68,4.2-72.3-6.6-72.2-18.2z"/>
				</g>
				<g>
					<path class="st3" d="M-49.2,25.9c-29.3,37.8-19.6,61.9-3,78.1c17.8,17.3,25.4,28.6,28.7,35.6h0l0.1,0.3
						c0.1,0.3,0.2,0.5,0.3,0.8c0.2,0.5,0.4,0.9,0.8,2.1c0.7,2.1,1.1,3.8,1.1,4.9c1.1,6,0.8,14.2-4.7,23.6
						c-10.4,17.9-24.3,26.7-24.3,26.7s33.7-27.5,23.4-54.9c-7.3-13.6-16.3-18.7-26.5-28.4c-14.1-13.6-24.2-21.2-24.2-38
						C-77.4,54.7-49.2,25.9-49.2,25.9z"/>
					<path class="st3" d="M-47.8,201.5l-5.1-7c0.3-0.3,31.2-25.9,22.1-50.1c-4.6-8.7-10.5-13.7-17.2-19.5c-2.6-2.3-5.4-4.6-8.2-7.4
						l-4.2-4c-11.9-11.3-21.3-20.2-21.3-37.1c0-23.3,28.2-52.4,29.4-53.7l6.5,5.7c-29.9,38.6-16.3,59.8-3.4,72.3
						c13.8,13.5,23.4,25.1,28.4,34.4h0.3l1.1,2.8c0.6,1.4,0.8,1.8,1.2,3.2c0.9,2.7,1.3,4.7,1.4,6.3c1.5,8.1-0.3,17.3-5.2,25.8
						C-32.9,191.9-47.2,201.1-47.8,201.5z M-72.2,70c-0.5,2.2-0.8,4.4-0.8,6.5c0,11.1,5,17.6,13.5,25.9C-68,92.5-72.3,81.7-72.2,70z
						"/>
				</g>
				<g>
					<path class="st3" d="M-49.2,107.3c-29.3,37.8-19.6,61.9-3,78.1c17.8,17.3,25.4,28.6,28.7,35.6h0l0.1,0.3
						c0.1,0.3,0.2,0.5,0.3,0.8c0.2,0.5,0.4,0.9,0.8,2.1c0.7,2.1,1.1,3.8,1.1,4.9c1.1,6,0.8,14.2-4.7,23.6
						c-10.4,17.9-24.3,26.7-24.3,26.7s33.7-27.5,23.4-54.9c-7.3-13.6-16.3-18.7-26.5-28.4c-14.1-13.6-24.2-21.2-24.2-38
						C-77.4,136.1-49.2,107.3-49.2,107.3z"/>
					<path class="st3" d="M-47.8,283l-5.1-7c0.3-0.3,31.2-25.9,22.1-50.1c-4.6-8.7-10.5-13.7-17.2-19.5c-2.6-2.3-5.4-4.6-8.2-7.4
						l-4.2-4c-11.9-11.3-21.3-20.2-21.3-37.1c0-23.3,28.2-52.4,29.4-53.7l6.5,5.7c-29.9,38.6-16.3,59.8-3.4,72.3
						c13.8,13.5,23.4,25.1,28.4,34.4h0.3l1.1,2.8c0.6,1.4,0.8,1.8,1.2,3.2c0.9,2.7,1.3,4.7,1.4,6.3c1.5,8.1-0.3,17.3-5.2,25.8
						C-32.9,273.3-47.2,282.6-47.8,283z M-72.2,151.5c-0.5,2.2-0.8,4.4-0.8,6.5c0,11.1,5,17.6,13.5,25.9
						C-68,174-72.3,163.1-72.2,151.5z"/>
				</g>
				<g>
					<path class="st3" d="M-49.2,195.6c-29.3,37.8-19.6,61.9-3,78.1c17.8,17.3,25.4,28.6,28.7,35.6h0l0.1,0.3
						c0.1,0.3,0.2,0.5,0.3,0.8c0.2,0.5,0.4,0.9,0.8,2.1c0.7,2.1,1.1,3.8,1.1,4.9c1.1,6,0.8,14.2-4.7,23.6
						c-10.4,17.9-24.3,26.7-24.3,26.7s33.7-27.5,23.4-54.9C-34,299.1-43,294-53.2,284.2c-14.1-13.6-24.2-21.2-24.2-38
						C-77.4,224.4-49.2,195.6-49.2,195.6z"/>
					<path class="st3" d="M-47.8,371.2l-5.1-7c0.3-0.3,31.2-25.9,22.1-50.1c-4.6-8.7-10.5-13.7-17.2-19.5c-2.6-2.3-5.4-4.6-8.2-7.4
						l-4.3-4.1c-11.9-11.3-21.2-20.2-21.2-37c0-23.3,28.2-52.4,29.4-53.7l6.5,5.7c-29.9,38.6-16.3,59.8-3.4,72.3
						c13.8,13.5,23.4,25.1,28.4,34.4h0.3l1.1,2.8c0.6,1.4,0.7,1.8,1.2,3c0.9,2.8,1.4,4.9,1.4,6.5c1.5,8.1-0.3,17.3-5.2,25.8
						C-32.9,361.6-47.2,370.8-47.8,371.2z M-72.2,239.8c-0.5,2.2-0.8,4.4-0.8,6.5c0,11.1,5,17.6,13.5,25.9
						C-68,262.3-72.3,251.4-72.2,239.8z"/>
				</g>
				<g>
					<path class="st3" d="M-49.2,277.1c-29.3,37.8-19.6,61.9-3,78.1c17.8,17.3,25.4,28.6,28.7,35.6h0l0.1,0.3
						c0.1,0.3,0.2,0.5,0.3,0.8c0.2,0.5,0.4,0.9,0.8,2.1c0.7,2.1,1.1,3.8,1.1,4.9c1.1,6,0.8,14.2-4.7,23.6
						c-10.4,17.9-24.3,26.7-24.3,26.7s33.7-27.5,23.4-54.9c-7.3-13.6-16.3-18.7-26.5-28.4c-14.1-13.6-24.2-21.2-24.2-38
						C-77.4,305.9-49.2,277.1-49.2,277.1z"/>
					<path class="st3" d="M-47.8,452.7l-5.1-7c0.3-0.3,31.2-25.9,22.1-50.1C-35.4,387-41.3,382-48,376.2c-2.6-2.3-5.4-4.6-8.2-7.4
						l-4.2-4.1c-11.9-11.3-21.3-20.2-21.3-37c0-23.3,28.2-52.4,29.4-53.7l6.5,5.7c-29.9,38.6-16.3,59.8-3.4,72.3
						c13.8,13.5,23.4,25.1,28.4,34.4h0.3l1.1,2.8c0.6,1.4,0.7,1.8,1.2,3c0.9,2.8,1.4,4.9,1.4,6.5c1.5,8.1-0.3,17.3-5.2,25.8
						C-32.9,443.1-47.2,452.3-47.8,452.7z M-72.2,321.2c-0.5,2.2-0.8,4.4-0.8,6.5c0,11.1,5,17.6,13.5,25.9
						C-68,343.7-72.3,332.9-72.2,321.2z"/>
				</g>
				<g>
					<path class="st3" d="M-49.2,365.3c-29.3,37.8-19.6,61.9-3,78.1c17.8,17.3,25.4,28.6,28.7,35.6h0c0,0,0.1,0.2,0.1,0.3
						c0.1,0.3,0.2,0.5,0.3,0.8c0.2,0.5,0.4,0.9,0.8,2.1c0.7,2.1,1.1,3.8,1.1,4.9c1.1,6,0.8,14.2-4.7,23.6
						c-10.4,17.9-24.3,26.7-24.3,26.7s33.7-27.5,23.4-54.9c-7.3-13.6-16.3-18.7-26.5-28.4c-14.1-13.6-24.2-21.2-24.2-38
						C-77.4,394.1-49.2,365.3-49.2,365.3z"/>
					<path class="st3" d="M-47.8,541l-5.1-7c0.3-0.3,31.2-25.9,22.1-50.1c-4.6-8.6-10.4-13.6-17.2-19.4c-2.7-2.3-5.4-4.7-8.2-7.4
						l-4.2-4c-11.9-11.3-21.3-20.2-21.3-37c0-23.4,28.2-52.4,29.4-53.7l6.5,5.7c-29.9,38.6-16.3,59.8-3.4,72.3
						c13.8,13.5,23.3,25,28.3,34.4h0.3l1.3,3.2c0.5,1.1,0.6,1.6,1,2.6c0.9,2.8,1.4,4.9,1.4,6.4c1.5,8.1-0.3,17.3-5.2,25.8
						C-32.9,531.3-47.2,540.6-47.8,541z M-72.2,409.5c-0.5,2.2-0.8,4.4-0.8,6.5c0,11.1,5,17.5,13.5,25.9
						C-68.1,431.9-72.3,421.1-72.2,409.5z"/>
				</g>
				<g>
					<path class="st3" d="M-49.2,446.8c-29.3,37.8-19.6,61.9-3,78.1c17.8,17.3,25.4,28.6,28.7,35.6h0c0,0,0.1,0.2,0.1,0.3
						c0.1,0.3,0.2,0.5,0.3,0.8c0.2,0.5,0.4,0.9,0.8,2.1c0.7,2.1,1.1,3.8,1.1,4.9c1.1,6,0.8,14.2-4.7,23.6
						c-10.4,17.9-24.3,26.7-24.3,26.7s33.7-27.5,23.4-54.9c-7.3-13.6-16.3-18.7-26.5-28.4c-14.1-13.6-24.2-21.2-24.2-38
						C-77.4,475.6-49.2,446.8-49.2,446.8z"/>
					<path class="st3" d="M-47.8,622.4l-5.1-7c0.3-0.3,31.2-25.9,22.1-50.1c-4.6-8.6-10.4-13.6-17.2-19.4c-2.7-2.3-5.4-4.7-8.2-7.4
						l-4.2-4c-11.9-11.3-21.3-20.2-21.3-37c0-23.4,28.2-52.4,29.4-53.7l6.5,5.7c-29.9,38.6-16.3,59.8-3.4,72.3
						c13.8,13.5,23.3,25,28.3,34.4h0.3l1.3,3.2c0.5,1.1,0.6,1.6,1,2.6c0.9,2.8,1.4,4.9,1.4,6.4c1.5,8.1-0.3,17.3-5.2,25.8
						C-32.9,612.8-47.2,622-47.8,622.4z M-72.2,491c-0.5,2.2-0.8,4.4-0.8,6.5c0,11.1,5,17.5,13.5,25.9
						C-68.1,513.4-72.3,502.6-72.2,491z"/>
				</g>
				<g>
					<path class="st3" d="M-49.2,535c-29.3,37.8-19.6,61.9-3,78.1c17.8,17.3,25.4,28.6,28.7,35.6h0l0.1,0.3c0.1,0.3,0.2,0.5,0.3,0.8
						c0.2,0.5,0.4,0.9,0.8,2.1c0.7,2.1,1.1,3.8,1.1,4.9c1.1,6,0.8,14.2-4.7,23.6C-36.2,698.2-50.1,707-50.1,707s33.7-27.5,23.4-54.9
						c-7.3-13.6-16.3-18.7-26.5-28.4c-14.1-13.6-24.2-21.2-24.2-38C-77.4,563.8-49.2,535-49.2,535z"/>
					<path class="st3" d="M-47.8,710.7l-5.1-7c0.3-0.3,31.2-25.9,22.1-50.1C-35.4,645-41.3,640-48,634.1c-2.6-2.3-5.4-4.6-8.2-7.4
						l-4.2-4c-11.9-11.3-21.3-20.2-21.3-37c0-23.4,28.2-52.5,29.4-53.7l6.5,5.7c-29.9,38.6-16.3,59.8-3.4,72.3
						c13.8,13.5,23.3,25,28.3,34.4h0.3l1.1,2.8c0.6,1.4,0.8,1.9,1.3,3.3c0.8,2.6,1.3,4.6,1.3,6.2c1.5,8.1-0.3,17.3-5.2,25.8
						C-32.9,701-47.2,710.3-47.8,710.7z M-72.2,579.2c-0.5,2.2-0.8,4.4-0.8,6.5c0,11.1,5,17.5,13.5,25.9
						C-68,601.7-72.3,590.8-72.2,579.2z"/>
				</g>
				<g>
					<path class="st3" d="M-49.2,616.5c-29.3,37.8-19.6,61.9-3,78.1c17.8,17.3,25.4,28.6,28.7,35.6h0l0.1,0.3
						c0.1,0.3,0.2,0.5,0.3,0.8c0.2,0.5,0.4,0.9,0.8,2.1c0.7,2.1,1.1,3.8,1.1,4.9c1.1,6,0.8,14.2-4.7,23.6
						c-10.4,17.9-24.3,26.7-24.3,26.7s33.7-27.5,23.4-54.9C-34,720-43,714.9-53.2,705.1c-14.1-13.6-24.2-21.2-24.2-38
						C-77.4,645.3-49.2,616.5-49.2,616.5z"/>
					<path class="st3" d="M-47.8,792.2l-5.1-7c0.3-0.3,31.2-25.9,22.1-50.1c-4.6-8.7-10.5-13.7-17.2-19.5c-2.6-2.3-5.4-4.6-8.2-7.4
						l-4.2-4c-11.9-11.3-21.3-20.2-21.3-37c0-23.4,28.2-52.5,29.4-53.7l6.5,5.7c-29.9,38.6-16.3,59.8-3.4,72.3
						c13.8,13.5,23.3,25,28.3,34.4h0.3l1.1,2.8c0.6,1.4,0.8,1.9,1.3,3.3c0.8,2.6,1.3,4.6,1.3,6.2c1.5,8.1-0.3,17.3-5.2,25.8
						C-32.9,782.5-47.2,791.8-47.8,792.2z M-72.2,660.7c-0.5,2.2-0.8,4.4-0.8,6.5c0,11.1,5,17.5,13.5,25.9
						C-68,683.2-72.3,672.3-72.2,660.7z"/>
				</g>
				<g>
					<path class="st3" d="M-49.2,704.8c-29.3,37.8-19.6,61.9-3,78.1c17.8,17.3,25.4,28.6,28.7,35.6h0l0.1,0.3
						c0.1,0.3,0.2,0.5,0.3,0.8c0.2,0.5,0.4,0.9,0.8,2.1c0.7,2.1,1.1,3.8,1.1,4.9c1.1,6,0.8,14.2-4.7,23.6
						c-10.4,17.9-24.3,26.7-24.3,26.7s33.7-27.5,23.4-54.9c-7.3-13.6-16.3-18.7-26.5-28.4c-14.1-13.6-24.2-21.2-24.2-38
						C-77.4,733.6-49.2,704.8-49.2,704.8z"/>
					<path class="st3" d="M-47.8,880.4l-5.1-7c0.3-0.3,31.2-25.9,22.1-50.1c-4.6-8.7-10.5-13.7-17.2-19.5c-2.6-2.3-5.4-4.6-8.2-7.4
						l-4.2-4c-11.9-11.3-21.3-20.2-21.3-37.1c0-23.3,28.2-52.4,29.4-53.7l6.5,5.7c-29.9,38.6-16.3,59.8-3.4,72.3
						c13.8,13.5,23.4,25.1,28.4,34.4h0.3l1.1,2.8c0.6,1.4,0.8,1.8,1.2,3.2c0.9,2.7,1.3,4.7,1.4,6.3c1.5,8.1-0.3,17.3-5.2,25.8
						C-32.9,870.8-47.2,880-47.8,880.4z M-72.2,748.9c-0.5,2.2-0.8,4.4-0.8,6.5c0,11.1,5,17.6,13.5,25.9
						C-68,771.4-72.3,760.6-72.2,748.9z"/>
				</g>
				<g>
					<path class="st3" d="M-49.2,786.3c-29.3,37.8-19.6,61.9-3,78.1c17.8,17.3,25.4,28.6,28.7,35.6h0l0.1,0.3
						c0.1,0.3,0.2,0.5,0.3,0.8c0.2,0.5,0.4,0.9,0.8,2.1c0.7,2.1,1.1,3.8,1.1,4.9c1.1,6,0.8,14.2-4.7,23.6
						c-10.4,17.9-24.3,26.7-24.3,26.7s33.7-27.5,23.4-54.9c-7.3-13.6-16.3-18.7-26.5-28.4c-14.1-13.6-24.2-21.2-24.2-38
						C-77.4,815-49.2,786.3-49.2,786.3z"/>
					<path class="st3" d="M-47.8,961.9l-5.1-7c0.3-0.3,31.2-25.9,22.1-50.1c-4.6-8.7-10.5-13.7-17.2-19.5c-2.6-2.3-5.4-4.6-8.2-7.4
						l-4.2-4c-11.9-11.3-21.3-20.2-21.3-37.1c0-23.3,28.2-52.4,29.4-53.7l6.5,5.7c-29.9,38.6-16.3,59.8-3.4,72.3
						c13.8,13.5,23.4,25.1,28.4,34.4h0.3l1.1,2.8c0.6,1.4,0.8,1.8,1.2,3.2c0.9,2.7,1.3,4.7,1.4,6.3c1.5,8.1-0.3,17.3-5.2,25.8
						C-32.9,952.2-47.2,961.5-47.8,961.9z M-72.2,830.4c-0.5,2.2-0.8,4.4-0.8,6.5c0,11.1,5,17.6,13.5,25.9
						C-68,852.9-72.3,842.1-72.2,830.4z"/>
				</g>
				<g>
					<path class="st3" d="M-49.2,874.5c-29.3,37.8-19.6,61.9-3,78.1c17.8,17.3,25.4,28.6,28.7,35.6h0c0,0,0.1,0.2,0.1,0.3
						c0.1,0.3,0.2,0.5,0.3,0.8c0.2,0.5,0.4,0.9,0.8,2.1c0.7,2.1,1.1,3.8,1.1,4.9c1.1,6,0.8,14.2-4.7,23.6
						c-10.4,17.9-24.3,26.7-24.3,26.7s33.7-27.5,23.4-54.9C-34,978-43,972.9-53.2,963.1c-14.1-13.6-24.2-21.2-24.2-38
						C-77.4,903.3-49.2,874.5-49.2,874.5z"/>
					<path class="st3" d="M-47.8,1050.1l-5.1-7c0.3-0.3,31.2-25.9,22.1-50.1c-4.6-8.7-10.5-13.7-17.2-19.5c-2.6-2.3-5.4-4.6-8.2-7.4
						l-4.2-4.1c-11.9-11.3-21.3-20.2-21.3-37c0-23.3,28.2-52.4,29.4-53.7l6.5,5.7c-29.9,38.6-16.3,59.8-3.4,72.3
						c13.8,13.5,23.4,25.1,28.4,34.4h0.2l1.5,3.5c0.4,0.9,0.5,1.4,0.9,2.3c0.9,2.8,1.4,4.9,1.4,6.5c1.5,8.1-0.3,17.3-5.2,25.8
						C-32.9,1040.5-47.2,1049.7-47.8,1050.1z M-72.2,918.7c-0.5,2.2-0.8,4.4-0.8,6.5c0,11.1,5,17.6,13.5,25.9
						C-68,941.1-72.3,930.3-72.2,918.7z"/>
				</g>
				<g>
					<path class="st3" d="M-49.2,956c-29.3,37.8-19.6,61.9-3,78.1c17.8,17.3,25.4,28.6,28.7,35.6h0c0,0,0.1,0.2,0.1,0.3
						c0.1,0.3,0.2,0.5,0.3,0.8c0.2,0.5,0.4,0.9,0.8,2.1c0.7,2.1,1.1,3.8,1.1,4.9c1.1,6,0.8,14.2-4.7,23.6
						c-10.4,17.9-24.3,26.7-24.3,26.7s33.7-27.5,23.4-54.9c-7.3-13.6-16.3-18.7-26.5-28.4c-14.1-13.6-24.2-21.2-24.2-38
						C-77.4,984.8-49.2,956-49.2,956z"/>
					<path class="st3" d="M-47.8,1131.6l-5.1-7c0.3-0.3,31.2-25.9,22.1-50.1c-4.6-8.6-10.5-13.6-17.2-19.5c-2.7-2.3-5.4-4.6-8.2-7.4
						l-4.2-4.1c-11.9-11.3-21.3-20.2-21.3-37c0-23.3,28.2-52.4,29.4-53.7l6.5,5.7c-29.9,38.6-16.3,59.8-3.4,72.3
						c13.8,13.5,23.4,25.1,28.4,34.4h0.2l1.5,3.5c0.4,0.9,0.5,1.4,0.9,2.3c0.9,2.8,1.4,4.9,1.4,6.5c1.5,8.1-0.3,17.3-5.2,25.8
						C-32.9,1122-47.2,1131.2-47.8,1131.6z M-72.2,1000.1c-0.5,2.2-0.8,4.4-0.8,6.5c0,11.1,5,17.6,13.5,25.9
						C-68,1022.6-72.3,1011.8-72.2,1000.1z"/>
				</g>
				<g>
					<path class="st3" d="M-49.2,1044.2c-29.3,37.8-19.6,61.9-3,78.1c17.8,17.3,25.4,28.6,28.7,35.6h0l0.1,0.3
						c0.1,0.3,0.2,0.5,0.3,0.8c0.2,0.5,0.4,0.9,0.8,2.1c0.7,2.1,1.1,3.8,1.1,4.9c1.1,6,0.8,14.2-4.7,23.6
						c-10.4,17.9-24.3,26.7-24.3,26.7s33.7-27.5,23.4-54.9c-7.3-13.6-16.3-18.7-26.5-28.4c-14.1-13.6-24.2-21.2-24.2-38
						C-77.4,1073-49.2,1044.2-49.2,1044.2z"/>
					<path class="st3" d="M-47.8,1219.9l-5.1-7c0.3-0.3,31.2-25.9,22.1-50.1c-4.7-8.6-10.5-13.7-17.2-19.5c-2.7-2.3-5.4-4.7-8.2-7.4
						l-4.2-4c-11.9-11.3-21.3-20.2-21.3-37c0-23.4,28.2-52.4,29.4-53.7l6.5,5.7c-29.9,38.6-16.3,59.8-3.4,72.3
						c13.8,13.5,23.3,25,28.3,34.4h0.3l1.1,2.8c0.6,1.4,0.7,1.8,1.2,3c0.9,2.8,1.4,4.9,1.4,6.4c1.5,8.1-0.3,17.3-5.2,25.8
						C-32.9,1210.2-47.2,1219.5-47.8,1219.9z M-72.2,1088.4c-0.5,2.2-0.8,4.4-0.8,6.5c0,11.1,5,17.5,13.5,25.9
						C-68.1,1110.8-72.3,1100-72.2,1088.4z"/>
				</g>
				<g>
					<path class="st3" d="M-49.2,1125.7c-29.3,37.8-19.6,61.9-3,78.1c17.8,17.3,25.4,28.6,28.7,35.6h0l0.1,0.3
						c0.1,0.3,0.2,0.5,0.3,0.8c0.2,0.5,0.4,0.9,0.8,2.1c0.7,2.1,1.1,3.8,1.1,4.9c1.1,6,0.8,14.2-4.7,23.6
						c-10.4,17.9-24.3,26.7-24.3,26.7s33.7-27.5,23.4-54.9c-7.3-13.6-16.3-18.7-26.5-28.4c-14.1-13.6-24.2-21.2-24.2-38
						C-77.4,1154.5-49.2,1125.7-49.2,1125.7z"/>
					<path class="st3" d="M-47.8,1301.3l-5.1-7c0.3-0.3,31.2-25.9,22.1-50.1c-4.7-8.6-10.5-13.7-17.2-19.5c-2.7-2.3-5.4-4.7-8.2-7.4
						l-4.2-4c-11.9-11.3-21.3-20.2-21.3-37c0-23.4,28.2-52.4,29.4-53.7l6.5,5.7c-29.9,38.6-16.3,59.8-3.4,72.3
						c13.8,13.5,23.3,25,28.3,34.4h0.3l1.1,2.8c0.6,1.4,0.7,1.8,1.2,3c0.9,2.8,1.4,4.9,1.4,6.4c1.5,8.1-0.3,17.3-5.2,25.8
						C-32.9,1291.7-47.2,1301-47.8,1301.3z M-72.2,1169.9c-0.5,2.2-0.8,4.4-0.8,6.5c0,11.1,5,17.5,13.5,25.9
						C-68.1,1192.3-72.3,1181.5-72.2,1169.9z"/>
				</g>
				<g>
					<path class="st3" d="M-49.2,1214c-29.3,37.8-19.6,61.9-3,78.1c17.8,17.3,25.4,28.6,28.7,35.6h0l0.1,0.3
						c0.1,0.3,0.2,0.5,0.3,0.8c0.2,0.5,0.4,0.9,0.8,2.1c0.7,2.1,1.1,3.8,1.1,4.9c1.1,6,0.8,14.2-4.7,23.6
						c-10.4,17.9-24.3,26.7-24.3,26.7s33.7-27.5,23.4-54.9c-7.3-13.6-16.3-18.7-26.5-28.4c-14.1-13.6-24.2-21.2-24.2-38
						C-77.4,1242.8-49.2,1214-49.2,1214z"/>
					<path class="st3" d="M-47.8,1389.6l-5.1-7c0.3-0.3,31.2-25.9,22.1-50.1c-4.6-8.7-10.5-13.7-17.2-19.5c-2.6-2.3-5.4-4.6-8.2-7.4
						l-4.2-4c-11.9-11.3-21.3-20.2-21.3-37c0-23.4,28.2-52.5,29.4-53.7l6.5,5.7c-29.9,38.6-16.3,59.8-3.4,72.3
						c13.8,13.5,23.3,25,28.3,34.4h0.3l1.1,2.8c0.6,1.4,0.8,1.9,1.3,3.3c0.8,2.6,1.3,4.6,1.3,6.2c1.5,8.1-0.3,17.3-5.2,25.8
						C-32.9,1380-47.2,1389.2-47.8,1389.6z M-72.2,1258.1c-0.5,2.2-0.8,4.4-0.8,6.5c0,11.1,5,17.5,13.5,25.9
						C-68,1280.6-72.3,1269.8-72.2,1258.1z"/>
				</g>
				<g>
					<path class="st3" d="M-49.2,1295.4c-29.3,37.8-19.6,61.9-3,78.1c17.8,17.3,25.4,28.6,28.7,35.6h0l0.1,0.3
						c0.1,0.3,0.2,0.5,0.3,0.8c0.2,0.5,0.4,0.9,0.8,2.1c0.7,2.1,1.1,3.8,1.1,4.9c1.1,6,0.8,14.2-4.7,23.6
						c-10.4,17.9-24.3,26.7-24.3,26.7s33.7-27.5,23.4-54.9c-7.3-13.6-16.3-18.7-26.5-28.4c-14.1-13.6-24.2-21.2-24.2-38
						C-77.4,1324.2-49.2,1295.4-49.2,1295.4z"/>
					<path class="st3" d="M-47.8,1471.1l-5.1-7c0.3-0.3,31.2-25.9,22.1-50.1c-4.6-8.7-10.5-13.7-17.2-19.5c-2.6-2.3-5.4-4.6-8.2-7.4
						l-4.2-4c-11.9-11.3-21.3-20.2-21.3-37c0-23.4,28.2-52.5,29.4-53.7l6.5,5.7c-29.9,38.6-16.3,59.8-3.4,72.3
						c13.8,13.5,23.3,25,28.3,34.4h0.3l1.1,2.8c0.6,1.4,0.8,1.9,1.3,3.3c0.8,2.6,1.3,4.6,1.3,6.2c1.5,8.1-0.3,17.3-5.2,25.8
						C-32.9,1461.4-47.2,1470.7-47.8,1471.1z M-72.2,1339.6c-0.5,2.2-0.8,4.4-0.8,6.5c0,11.1,5,17.5,13.5,25.9
						C-68,1362.1-72.3,1351.2-72.2,1339.6z"/>
				</g>
				<g>
					<path class="st3" d="M-49.2,1383.7c-29.3,37.8-19.6,61.9-3,78.1c17.8,17.3,25.4,28.6,28.7,35.6h0c0,0,0.1,0.2,0.1,0.3
						c0.1,0.3,0.2,0.5,0.3,0.8c0.2,0.5,0.4,0.9,0.8,2.1c0.7,2.1,1.1,3.8,1.1,4.9c1.1,6,0.8,14.2-4.7,23.6
						c-10.4,17.9-24.3,26.7-24.3,26.7s33.7-27.5,23.4-54.9c-7.3-13.6-16.3-18.7-26.5-28.4c-14.1-13.6-24.2-21.2-24.2-38
						C-77.4,1412.5-49.2,1383.7-49.2,1383.7z"/>
					<path class="st3" d="M-47.8,1559.3l-5.1-7c0.3-0.3,31.2-25.9,22.1-50.1c-4.6-8.7-10.5-13.7-17.2-19.5c-2.6-2.3-5.4-4.6-8.2-7.4
						l-4.2-4c-11.9-11.3-21.3-20.2-21.3-37.1c0-23.3,28.2-52.4,29.4-53.7l6.5,5.7c-29.9,38.6-16.3,59.8-3.4,72.3
						c13.8,13.5,23.4,25.1,28.4,34.4h0.2l1.5,3.5c0.4,0.9,0.6,1.4,0.9,2.5c0.9,2.7,1.4,4.7,1.4,6.3c1.5,8.1-0.3,17.3-5.2,25.8
						C-32.9,1549.7-47.2,1558.9-47.8,1559.3z M-72.2,1427.8c-0.5,2.2-0.8,4.4-0.8,6.5c0,11.1,5,17.6,13.5,25.9
						C-68,1450.3-72.3,1439.5-72.2,1427.8z"/>
				</g>
				<g>
					<path class="st3" d="M-49.2,1465.2c-29.3,37.8-19.6,61.9-3,78.1c17.8,17.3,25.4,28.6,28.7,35.6h0c0,0,0.1,0.2,0.1,0.3
						c0.1,0.3,0.2,0.5,0.3,0.8c0.2,0.5,0.4,0.9,0.8,2.1c0.7,2.1,1.1,3.8,1.1,4.9c1.1,6,0.8,14.2-4.7,23.6
						c-10.4,17.9-24.3,26.7-24.3,26.7s33.7-27.5,23.4-54.9c-7.3-13.6-16.3-18.7-26.5-28.4c-14.1-13.6-24.2-21.2-24.2-38
						C-77.4,1494-49.2,1465.2-49.2,1465.2z"/>
					<path class="st3" d="M-47.8,1640.8l-5.1-7c0.3-0.3,31.2-25.9,22.1-50.1c-4.6-8.7-10.5-13.7-17.2-19.5c-2.6-2.3-5.4-4.6-8.2-7.4
						l-4.2-4c-11.9-11.3-21.3-20.2-21.3-37.1c0-23.3,28.2-52.4,29.4-53.7l6.5,5.7c-29.9,38.6-16.3,59.8-3.4,72.3
						c13.8,13.5,23.4,25.1,28.4,34.4h0.2l1.5,3.5c0.4,0.9,0.6,1.4,0.9,2.5c0.9,2.7,1.4,4.7,1.4,6.3c1.5,8.1-0.3,17.3-5.2,25.8
						C-32.9,1631.2-47.2,1640.4-47.8,1640.8z M-72.2,1509.3c-0.5,2.2-0.8,4.4-0.8,6.5c0,11.1,5,17.6,13.5,25.9
						C-68,1531.8-72.3,1521-72.2,1509.3z"/>
				</g>
				<g>
					<path class="st3" d="M-49.2,1553.4c-29.3,37.8-19.6,61.9-3,78.1c17.8,17.3,25.4,28.6,28.7,35.6h0l0.1,0.3
						c0.1,0.3,0.2,0.5,0.3,0.8c0.2,0.5,0.4,0.9,0.8,2.1c0.7,2.1,1.1,3.8,1.1,4.9c1.1,6,0.8,14.2-4.7,23.6
						c-10.4,17.9-24.3,26.7-24.3,26.7s33.7-27.5,23.4-54.9c-7.3-13.6-16.3-18.7-26.5-28.4c-14.1-13.6-24.2-21.2-24.2-38
						C-77.4,1582.2-49.2,1553.4-49.2,1553.4z"/>
					<path class="st3" d="M-47.8,1729l-5.1-7c0.3-0.3,31.2-25.9,22.1-50.1c-4.6-8.6-10.4-13.6-17.2-19.4c-2.7-2.3-5.4-4.7-8.2-7.4
						l-4.2-4c-11.9-11.3-21.3-20.2-21.3-37c0-23.4,28.2-52.4,29.4-53.7l6.5,5.7c-29.9,38.6-16.3,59.8-3.4,72.3
						c13.8,13.5,23.4,25.1,28.4,34.4h0.3l1.1,2.7c0.6,1.4,0.8,1.9,1.2,3.1c0.9,2.8,1.4,4.9,1.4,6.5c1.5,8.1-0.3,17.3-5.2,25.8
						C-32.9,1719.4-47.2,1728.7-47.8,1729z M-72.2,1597.6c-0.5,2.2-0.8,4.4-0.8,6.5c0,11.1,5,17.5,13.5,25.9
						C-68.1,1620-72.3,1609.2-72.2,1597.6z"/>
				</g>
				<g>
					<path class="st3" d="M-49.2,1634.9c-29.3,37.8-19.6,61.9-3,78.1c17.8,17.3,25.4,28.6,28.7,35.6h0l0.1,0.3
						c0.1,0.3,0.2,0.5,0.3,0.8c0.2,0.5,0.4,0.9,0.8,2.1c0.7,2.1,1.1,3.8,1.1,4.9c1.1,6,0.8,14.2-4.7,23.6
						c-10.4,17.9-24.3,26.7-24.3,26.7s33.7-27.5,23.4-54.9c-7.3-13.6-16.3-18.7-26.5-28.4c-14.1-13.6-24.2-21.2-24.2-38
						C-77.4,1663.7-49.2,1634.9-49.2,1634.9z"/>
					<path class="st3" d="M-47.8,1810.5l-5.1-7c0.3-0.3,31.2-25.9,22.1-50.1c-4.6-8.6-10.4-13.6-17.2-19.4c-2.7-2.3-5.4-4.7-8.2-7.4
						l-4.2-4c-11.9-11.3-21.3-20.2-21.3-37c0-23.4,28.2-52.4,29.4-53.7l6.5,5.7c-29.9,38.6-16.3,59.8-3.4,72.3
						c13.8,13.5,23.4,25.1,28.4,34.4h0.3l1.1,2.7c0.6,1.4,0.8,1.9,1.2,3.1c0.9,2.8,1.4,4.9,1.4,6.5c1.5,8.1-0.3,17.3-5.2,25.8
						C-32.9,1800.9-47.2,1810.1-47.8,1810.5z M-72.2,1679c-0.5,2.2-0.8,4.4-0.8,6.5c0,11.1,5,17.5,13.5,25.9
						C-68.1,1701.5-72.3,1690.7-72.2,1679z"/>
				</g>
				<g>
					<path class="st3" d="M-49.2,1723.1c-29.3,37.8-19.6,61.9-3,78.1c17.8,17.3,25.4,28.6,28.7,35.6h0l0.1,0.3
						c0.1,0.3,0.2,0.5,0.3,0.8c0.2,0.5,0.4,0.9,0.8,2.1c0.7,2.1,1.1,3.8,1.1,4.9c1.1,6,0.8,14.2-4.7,23.6
						c-10.4,17.9-24.3,26.7-24.3,26.7s33.7-27.5,23.4-54.9c-7.3-13.6-16.3-18.7-26.5-28.4c-14.1-13.6-24.2-21.2-24.2-38
						C-77.4,1751.9-49.2,1723.1-49.2,1723.1z"/>
					<path class="st3" d="M-47.8,1898.8l-5.1-7c0.3-0.3,31.2-25.9,22.1-50.1c-4.7-8.6-10.5-13.7-17.2-19.5c-2.7-2.3-5.4-4.7-8.2-7.4
						l-4.2-4c-11.9-11.3-21.3-20.2-21.3-37c0-23.4,28.2-52.4,29.4-53.7l6.5,5.7c-29.9,38.6-16.3,59.8-3.4,72.3
						c13.8,13.5,23.3,25,28.3,34.4h0.3l1.1,2.8c0.6,1.4,0.7,1.8,1.2,3c0.9,2.8,1.4,4.9,1.4,6.4c1.5,8.1-0.3,17.3-5.2,25.8
						C-32.9,1889.1-47.2,1898.4-47.8,1898.8z M-72.2,1767.3c-0.5,2.2-0.8,4.4-0.8,6.5c0,11.1,5,17.5,13.5,25.9
						C-68.1,1789.8-72.3,1779-72.2,1767.3z"/>
				</g>
				<g>
					<path class="st3" d="M-49.2,1804.6c-29.3,37.8-19.6,61.9-3,78.1c17.8,17.3,25.4,28.6,28.7,35.6h0l0.1,0.3
						c0.1,0.3,0.2,0.5,0.3,0.8c0.2,0.5,0.4,0.9,0.8,2.1c0.7,2.1,1.1,3.8,1.1,4.9c1.1,6,0.8,14.2-4.7,23.6
						c-10.4,17.9-24.3,26.7-24.3,26.7s33.7-27.5,23.4-54.9c-7.3-13.6-16.3-18.7-26.5-28.4c-14.1-13.6-24.2-21.2-24.2-38
						C-77.4,1833.4-49.2,1804.6-49.2,1804.6z"/>
					<path class="st3" d="M-47.8,1980.3l-5.1-7c0.3-0.3,31.2-25.9,22.1-50.1c-4.7-8.6-10.5-13.7-17.2-19.5c-2.7-2.3-5.4-4.7-8.2-7.4
						l-4.2-4c-11.9-11.3-21.3-20.2-21.3-37c0-23.4,28.2-52.4,29.4-53.7l6.5,5.7c-29.9,38.6-16.3,59.8-3.4,72.3
						c13.8,13.5,23.3,25,28.3,34.4h0.3l1.1,2.8c0.6,1.4,0.7,1.8,1.2,3c0.9,2.8,1.4,4.9,1.4,6.4c1.5,8.1-0.3,17.3-5.2,25.8
						C-32.9,1970.6-47.2,1979.9-47.8,1980.3z M-72.2,1848.8c-0.5,2.2-0.8,4.4-0.8,6.5c0,11.1,5,17.5,13.5,25.9
						C-68.1,1871.2-72.3,1860.4-72.2,1848.8z"/>
				</g>
				<g>
					<path class="st3" d="M-49.2,1892.9c-29.3,37.8-19.6,61.9-3,78.1c17.8,17.3,25.4,28.6,28.7,35.6h0c0,0,0.1,0.2,0.1,0.3
						c0.1,0.3,0.2,0.5,0.3,0.8c0.2,0.5,0.4,0.9,0.8,2.1c0.7,2.1,1.1,3.8,1.1,4.9c1.1,6,0.8,14.2-4.7,23.6
						c-10.4,17.9-24.3,26.7-24.3,26.7s33.7-27.5,23.4-54.9c-7.3-13.6-16.3-18.7-26.5-28.4c-14.1-13.6-24.2-21.2-24.2-38
						C-77.4,1921.7-49.2,1892.9-49.2,1892.9z"/>
					<path class="st3" d="M-47.8,2068.5l-5.1-7c0.3-0.3,31.2-25.9,22.1-50.1c-4.6-8.7-10.5-13.7-17.2-19.5c-2.6-2.3-5.4-4.6-8.2-7.4
						l-4.2-4c-11.9-11.3-21.3-20.2-21.3-37c0-23.4,28.2-52.5,29.4-53.7l6.5,5.7c-29.9,38.6-16.3,59.8-3.4,72.3
						c13.8,13.5,23.3,25,28.3,34.4h0.3l1.3,3.2c0.5,1.1,0.7,1.6,1.1,2.9c0.8,2.6,1.3,4.6,1.3,6.2c1.5,8.1-0.3,17.3-5.2,25.8
						C-32.9,2058.9-47.2,2068.1-47.8,2068.5z M-72.2,1937c-0.5,2.2-0.8,4.4-0.8,6.5c0,11.1,5,17.5,13.5,25.9
						C-68,1959.5-72.3,1948.7-72.2,1937z"/>
				</g>
				<g>
					<path class="st3" d="M-49.2,1974.3c-29.3,37.8-19.6,61.9-3,78.1c17.8,17.3,25.4,28.6,28.7,35.6h0c0,0,0.1,0.2,0.1,0.3
						c0.1,0.3,0.2,0.5,0.3,0.8c0.2,0.5,0.4,0.9,0.8,2.1c0.7,2.1,1.1,3.8,1.1,4.9c1.1,6,0.8,14.2-4.7,23.6
						c-10.4,17.9-24.3,26.7-24.3,26.7s33.7-27.5,23.4-54.9c-7.3-13.6-16.3-18.7-26.5-28.4c-14.1-13.6-24.2-21.2-24.2-38
						C-77.4,2003.1-49.2,1974.3-49.2,1974.3z"/>
					<path class="st3" d="M-47.8,2150l-5.1-7c0.3-0.3,31.2-25.9,22.1-50.1c-4.6-8.7-10.5-13.7-17.2-19.5c-2.6-2.3-5.4-4.6-8.2-7.4
						l-4.2-4c-11.9-11.3-21.3-20.2-21.3-37c0-23.4,28.2-52.5,29.4-53.7l6.5,5.7c-29.9,38.6-16.3,59.8-3.4,72.3
						c13.8,13.5,23.3,25,28.3,34.4h0.3l1.3,3.2c0.5,1.1,0.7,1.6,1.1,2.9c0.8,2.6,1.3,4.6,1.3,6.2c1.5,8.1-0.3,17.3-5.2,25.8
						C-32.9,2140.3-47.2,2149.6-47.8,2150z M-72.2,2018.5c-0.5,2.2-0.8,4.4-0.8,6.5c0,11.1,5,17.5,13.5,25.9
						C-68,2041-72.3,2030.1-72.2,2018.5z"/>
				</g>
				<g>
					<path class="st3" d="M-49.2,2062.6c-29.3,37.8-19.6,61.9-3,78.1c17.8,17.3,25.4,28.6,28.7,35.6h0l0.1,0.3
						c0.1,0.3,0.2,0.5,0.3,0.8c0.2,0.5,0.4,0.9,0.8,2.1c0.7,2.1,1.1,3.8,1.1,4.9c1.1,6,0.8,14.2-4.7,23.6
						c-10.4,17.9-24.3,26.7-24.3,26.7s33.7-27.5,23.4-54.9c-7.3-13.6-16.3-18.7-26.5-28.4c-14.1-13.6-24.2-21.2-24.2-38
						C-77.4,2091.4-49.2,2062.6-49.2,2062.6z"/>
					<path class="st3" d="M-47.8,2238.2l-5.1-7c0.3-0.3,31.2-25.9,22.1-50.1c-4.6-8.7-10.5-13.7-17.2-19.5c-2.6-2.3-5.4-4.6-8.2-7.4
						l-4.2-4c-11.9-11.3-21.3-20.2-21.3-37.1c0-23.3,28.2-52.4,29.4-53.7l6.5,5.7c-29.9,38.6-16.3,59.8-3.4,72.3
						c13.8,13.5,23.4,25.1,28.4,34.4h0.3l1.1,2.8c0.6,1.4,0.8,1.8,1.2,3.2c0.9,2.7,1.4,4.7,1.4,6.3c1.5,8.1-0.3,17.3-5.2,25.8
						C-32.9,2228.6-47.2,2237.8-47.8,2238.2z M-72.2,2106.8c-0.5,2.2-0.8,4.4-0.8,6.5c0,11.1,5,17.6,13.6,26
						C-68,2129.3-72.3,2118.4-72.2,2106.8z"/>
				</g>
				<g>
					<path class="st3" d="M-49.2,2144.1c-29.3,37.8-19.6,61.9-3,78.1c17.8,17.3,25.4,28.6,28.7,35.6h0l0.1,0.3
						c0.1,0.3,0.2,0.5,0.3,0.8c0.2,0.5,0.4,0.9,0.8,2.1c0.7,2.1,1.1,3.8,1.1,4.9c1.1,6,0.8,14.2-4.7,23.6
						c-10.4,17.9-24.3,26.7-24.3,26.7s33.7-27.5,23.4-54.9c-7.3-13.6-16.3-18.7-26.5-28.4c-14.1-13.6-24.2-21.2-24.2-38
						C-77.4,2172.9-49.2,2144.1-49.2,2144.1z"/>
					<path class="st3" d="M-47.8,2319.7l-5.1-7c0.3-0.3,31.2-25.9,22.1-50.1c-4.6-8.7-10.5-13.7-17.2-19.5c-2.6-2.3-5.4-4.6-8.2-7.4
						l-4.2-4c-11.9-11.3-21.3-20.2-21.3-37.1c0-23.3,28.2-52.4,29.4-53.7l6.5,5.7c-29.9,38.6-16.3,59.8-3.4,72.3
						c13.8,13.5,23.4,25.1,28.4,34.4h0.3l1.1,2.8c0.6,1.4,0.7,1.8,1.2,3c0.9,2.8,1.4,4.9,1.4,6.5c1.5,8.1-0.3,17.3-5.2,25.8
						C-32.9,2310.1-47.2,2319.3-47.8,2319.7z M-72.2,2188.2c-0.5,2.2-0.8,4.4-0.8,6.5c0,11.1,5,17.6,13.6,26
						C-68,2210.8-72.3,2199.9-72.2,2188.2z"/>
				</g>
				<g>
					<path class="st3" d="M-49.2,2232.3c-29.3,37.8-19.6,61.9-3,78.1c17.8,17.3,25.4,28.6,28.7,35.6h0l0.1,0.3
						c0.1,0.3,0.2,0.5,0.3,0.8c0.2,0.5,0.4,0.9,0.8,2.1c0.7,2.1,1.1,3.8,1.1,4.9c1.1,6,0.8,14.2-4.7,23.6
						c-10.4,17.9-24.3,26.7-24.3,26.7s33.7-27.5,23.4-54.9c-7.3-13.6-16.3-18.7-26.5-28.4c-14.1-13.6-24.2-21.2-24.2-38
						C-77.4,2261.1-49.2,2232.3-49.2,2232.3z"/>
					<path class="st3" d="M-47.8,2408l-5.1-7c0.3-0.3,31.2-25.9,22.1-50.1c-4.6-8.6-10.4-13.6-17.2-19.4c-2.7-2.3-5.4-4.7-8.2-7.4
						l-4.2-4c-11.9-11.3-21.3-20.2-21.3-37c0-23.4,28.2-52.4,29.4-53.7l6.5,5.7c-29.9,38.6-16.3,59.8-3.4,72.3
						c13.8,13.5,23.4,25.1,28.4,34.4h0.3l1.1,2.7c0.6,1.4,0.8,1.9,1.2,3.1c0.9,2.8,1.4,4.9,1.4,6.5c1.5,8.1-0.3,17.3-5.2,25.8
						C-32.9,2398.3-47.2,2407.6-47.8,2408z M-72.2,2276.5c-0.5,2.2-0.8,4.4-0.8,6.5c0,11.1,5,17.5,13.5,25.9
						C-68.1,2298.9-72.3,2288.1-72.2,2276.5z"/>
				</g>
				<g>
					<path class="st3" d="M-49.2,2313.8c-29.3,37.8-19.6,61.9-3,78.1c17.8,17.3,25.4,28.6,28.7,35.6h0l0.1,0.3
						c0.1,0.3,0.2,0.5,0.3,0.8c0.2,0.5,0.4,0.9,0.8,2.1c0.7,2.1,1.1,3.8,1.1,4.9c1.1,6,0.8,14.2-4.7,23.6
						c-10.4,17.9-24.3,26.7-24.3,26.7s33.7-27.5,23.4-54.9c-7.3-13.6-16.3-18.7-26.5-28.4c-14.1-13.6-24.2-21.2-24.2-38
						C-77.4,2342.6-49.2,2313.8-49.2,2313.8z"/>
					<path class="st3" d="M-47.8,2489.4l-5.1-7c0.3-0.3,31.2-25.9,22.1-50.1c-4.6-8.6-10.4-13.6-17.2-19.4c-2.7-2.3-5.4-4.7-8.2-7.4
						l-4.2-4c-11.9-11.3-21.3-20.2-21.3-37c0-23.4,28.2-52.4,29.4-53.7l6.5,5.7c-29.9,38.6-16.3,59.8-3.4,72.3
						c13.8,13.5,23.4,25.1,28.4,34.4h0.3l1.1,2.7c0.6,1.4,0.8,1.9,1.2,3.1c0.9,2.8,1.4,4.9,1.4,6.5c1.5,8.1-0.3,17.3-5.2,25.8
						C-32.9,2479.8-47.2,2489-47.8,2489.4z M-72.2,2358c-0.5,2.2-0.8,4.4-0.8,6.5c0,11.1,5,17.5,13.5,25.9
						C-68.1,2380.4-72.3,2369.6-72.2,2358z"/>
				</g>
				<g>
					<path class="st3" d="M-49.2,2402.1c-29.3,37.8-19.6,61.9-3,78.1c17.8,17.3,25.4,28.6,28.7,35.6h0l0.1,0.3
						c0.1,0.3,0.2,0.5,0.3,0.8c0.2,0.5,0.4,0.9,0.8,2.1c0.7,2.1,1.1,3.8,1.1,4.9c1.1,6,0.8,14.2-4.7,23.6
						c-10.4,17.9-24.3,26.7-24.3,26.7s33.7-27.5,23.4-54.9c-7.3-13.6-16.3-18.7-26.5-28.4c-14.1-13.6-24.2-21.2-24.2-38
						C-77.4,2430.8-49.2,2402.1-49.2,2402.1z"/>
					<path class="st3" d="M-47.8,2577.7l-5.1-7c0.3-0.3,31.2-25.9,22.1-50.1c-4.7-8.6-10.5-13.7-17.2-19.5c-2.7-2.3-5.4-4.7-8.2-7.4
						l-4.2-4c-11.9-11.3-21.3-20.2-21.3-37c0-23.4,28.2-52.5,29.4-53.7l6.5,5.7c-29.9,38.6-16.3,59.8-3.4,72.3
						c13.8,13.5,23.3,25,28.3,34.4h0.3l1.1,2.8c0.6,1.4,0.7,1.8,1.2,3c0.9,2.8,1.4,4.9,1.4,6.4c1.5,8.1-0.3,17.3-5.2,25.8
						C-32.9,2568-47.2,2577.3-47.8,2577.7z M-72.2,2446.2c-0.5,2.2-0.8,4.4-0.8,6.5c0,11.1,5,17.5,13.5,25.9
						C-68,2468.7-72.3,2457.9-72.2,2446.2z"/>
				</g>
				<g>
					<path class="st3" d="M-49.2,2483.5c-29.3,37.8-19.6,61.9-3,78.1c17.8,17.3,25.4,28.6,28.7,35.6h0l0.1,0.3
						c0.1,0.3,0.2,0.5,0.3,0.8c0.2,0.5,0.4,0.9,0.8,2.1c0.7,2.1,1.1,3.8,1.1,4.9c1.1,6,0.8,14.2-4.7,23.6
						c-10.4,17.9-24.3,26.7-24.3,26.7s33.7-27.5,23.4-54.9c-7.3-13.6-16.3-18.7-26.5-28.4c-14.1-13.6-24.2-21.2-24.2-38
						C-77.4,2512.3-49.2,2483.5-49.2,2483.5z"/>
					<path class="st3" d="M-47.8,2659.2l-5.1-7c0.3-0.3,31.2-25.9,22.1-50.1c-4.7-8.6-10.5-13.7-17.2-19.5c-2.7-2.3-5.4-4.7-8.2-7.4
						l-4.2-4c-11.9-11.3-21.3-20.2-21.3-37c0-23.4,28.2-52.5,29.4-53.7l6.5,5.7c-29.9,38.6-16.3,59.8-3.4,72.3
						c13.8,13.5,23.3,25,28.3,34.4h0.3l1.1,2.8c0.6,1.4,0.7,1.8,1.2,3c0.9,2.8,1.4,4.9,1.4,6.4c1.5,8.1-0.3,17.3-5.2,25.8
						C-32.9,2649.5-47.2,2658.8-47.8,2659.2z M-72.2,2527.7c-0.5,2.2-0.8,4.4-0.8,6.5c0,11.1,5,17.5,13.5,25.9
						C-68,2550.2-72.3,2539.3-72.2,2527.7z"/>
				</g>
				<g>
					<path class="st3" d="M-49.2,2571.8c-29.3,37.8-19.6,61.9-3,78.1c17.8,17.3,25.4,28.6,28.7,35.6h0l0.1,0.3
						c0.1,0.3,0.2,0.5,0.3,0.8c0.2,0.5,0.4,0.9,0.8,2.1c0.7,2.1,1.1,3.8,1.1,4.9c1.1,6,0.8,14.2-4.7,23.6
						c-10.4,17.9-24.3,26.7-24.3,26.7s33.7-27.5,23.4-54.9c-7.3-13.6-16.3-18.7-26.5-28.4c-14.1-13.6-24.2-21.2-24.2-38
						C-77.4,2600.6-49.2,2571.8-49.2,2571.8z"/>
					<path class="st3" d="M-47.8,2747.4l-5.1-7c0.3-0.3,31.2-25.9,22.1-50.1c-4.6-8.7-10.5-13.7-17.2-19.5c-2.6-2.3-5.4-4.6-8.2-7.4
						l-4.2-4c-11.9-11.3-21.3-20.2-21.3-37c0-23.4,28.2-52.5,29.4-53.7l6.5,5.7c-29.9,38.6-16.3,59.8-3.4,72.3
						c13.8,13.5,23.3,25,28.3,34.4h0.3l1.1,2.8c0.6,1.4,0.8,1.9,1.3,3.3c0.8,2.6,1.3,4.6,1.3,6.2c1.5,8.1-0.3,17.3-5.2,25.8
						C-32.9,2737.8-47.2,2747-47.8,2747.4z M-72.2,2615.9c-0.5,2.2-0.8,4.4-0.8,6.5c0,11.1,5,17.5,13.5,25.9
						C-68,2638.4-72.3,2627.6-72.2,2615.9z"/>
				</g>
				<g>
					<path class="st3" d="M-49.2,2653.3c-29.3,37.8-19.6,61.9-3,78.1c17.8,17.3,25.4,28.6,28.7,35.6h0l0.1,0.3
						c0.1,0.3,0.2,0.5,0.3,0.8c0.2,0.5,0.4,0.9,0.8,2.1c0.7,2.1,1.1,3.8,1.1,4.9c1.1,6,0.8,14.2-4.7,23.6
						c-10.4,17.9-24.3,26.7-24.3,26.7s33.7-27.5,23.4-54.9c-7.3-13.6-16.3-18.7-26.5-28.4c-14.1-13.6-24.2-21.2-24.2-38
						C-77.4,2682.1-49.2,2653.3-49.2,2653.3z"/>
					<path class="st3" d="M-47.8,2828.9l-5.1-7c0.3-0.3,31.2-25.9,22.1-50.1c-4.6-8.7-10.5-13.7-17.2-19.5c-2.6-2.3-5.4-4.6-8.2-7.4
						l-4.2-4c-11.9-11.3-21.3-20.2-21.3-37c0-23.4,28.2-52.5,29.4-53.7l6.5,5.7c-29.9,38.6-16.3,59.8-3.4,72.3
						c13.8,13.5,23.3,25,28.3,34.4h0.3l1.1,2.8c0.6,1.4,0.8,1.9,1.3,3.3c0.8,2.6,1.3,4.6,1.3,6.2c1.5,8.1-0.3,17.3-5.2,25.8
						C-32.9,2819.3-47.2,2828.5-47.8,2828.9z M-72.2,2697.4c-0.5,2.2-0.8,4.4-0.8,6.5c0,11.1,5,17.5,13.5,25.9
						C-68,2719.9-72.3,2709.1-72.2,2697.4z"/>
				</g>
			</g>
		</g>
	</g>
	<g>
		<defs>
			<circle id="SVGID_6_" cx="-48.9" cy="150" r="150"/>
		</defs>
		<clipPath id="SVGID_7_">
			<use xlink:href="#SVGID_6_"  style="overflow:visible;"/>
		</clipPath>
		<g class="st4">
			<g>
				<defs>
					<circle id="SVGID_8_" cx="-48.9" cy="150" r="150"/>
				</defs>
				<clipPath id="SVGID_9_">
					<use xlink:href="#SVGID_8_"  style="overflow:visible;"/>
				</clipPath>
			</g>
			<g>
				<defs>
					<circle id="SVGID_10_" cx="-48.9" cy="150" r="150"/>
				</defs>
				<clipPath id="SVGID_11_">
					<use xlink:href="#SVGID_10_"  style="overflow:visible;"/>
				</clipPath>
				<g class="st5">
					<path class="st6" d="M-48.9,5c38.7,0,75.1,15.1,102.5,42.5S96.1,111.3,96.1,150S81,225.1,53.6,252.5S-10.2,295-48.9,295
						s-75.1-15.1-102.5-42.5s-42.5-63.8-42.5-102.5s15.1-75.1,42.5-102.5S-87.6,5-48.9,5 M-48.9,0c-82.8,0-150,67.2-150,150
						s67.2,150,150,150s150-67.2,150-150S33.9,0-48.9,0L-48.9,0z"/>
				</g>
			</g>
		</g>
	</g>
</g>
</svg>
