<?xml version="1.0" encoding="utf-8"?>
<!-- Generator: Adobe Illustrator 19.0.0, SVG Export Plug-In . SVG Version: 6.00 Build 0)  -->
<svg version="1.1" id="Layer_1" xmlns="http://www.w3.org/2000/svg" xmlns:xlink="http://www.w3.org/1999/xlink" x="0px" y="0px"
	 viewBox="-199 0 300 300" style="enable-background:new -199 0 300 300;" xml:space="preserve">
<style type="text/css">
	.st0{fill:#DDDDDD;}
	.st1{clip-path:url(#SVGID_3_);}
	.st2{clip-path:url(#SVGID_5_);}
	.st3{fill:#404041;}
	.st4{fill:#ACACAF;}
	.st5{fill:#808184;}
	.st6{fill:none;}
	.st7{clip-path:url(#SVGID_7_);}
	.st8{clip-path:url(#SVGID_11_);}
	.st9{fill:#9AA0BB;}
</style>
<g>
	<g>
		<circle id="SVGID_1_" class="st0" cx="-48.9" cy="150" r="150"/>
	</g>
	<g>
		<defs>
			<circle id="SVGID_2_" cx="-48.9" cy="150" r="150"/>
		</defs>
		<clipPath id="SVGID_3_">
			<use xlink:href="#SVGID_2_"  style="overflow:visible;"/>
		</clipPath>
		<g class="st1">
			<defs>
				<rect id="SVGID_4_" x="-98" y="-306.8" width="100" height="977.9"/>
			</defs>
			<clipPath id="SVGID_5_">
				<use xlink:href="#SVGID_4_"  style="overflow:visible;"/>
			</clipPath>
			<g class="st2">
				<g>
					<g>
						<g>
							<path class="st3" d="M-3.2,849.9l-95.4-53v-1317l4.9,2.4c0.7,0.3,69.4,33,90.4,33c8.9,0.6,15.3,0.6,35.8-5.1
								c25.6-7.2,107.3-31.6,108.1-31.8l4.4-1.3V833.8L-3.2,849.9z M-91.8,792.8l89.9,49.9l139.9-15.2V-513.7
								c-17.5,5.2-81.6,24.3-103.8,30.5c-21.1,5.9-28.4,6-37.9,5.4h0c-19.1,0-71.7-23.7-88.2-31.4V792.8z"/>
						</g>
					</g>
				</g>
				<g>
					<g>
						<g>
							<g>
								<g>
									<rect x="107.4" y="-509" class="st4" width="3.4" height="1338.5"/>
								</g>
							</g>
						</g>
						<g>
							<g>
								<g>
									<rect x="92.1" y="-506.5" class="st4" width="3.4" height="1331"/>
								</g>
							</g>
						</g>
						<g>
							<g>
								<g>
									<rect x="76.9" y="-499.6" class="st4" width="3.4" height="1323.1"/>
								</g>
							</g>
						</g>
						<g>
							<g>
								<g>
									<rect x="61.6" y="-491.1" class="st4" width="3.4" height="1307.1"/>
								</g>
							</g>
						</g>
						<g>
							<g>
								<g>
									<rect x="46.3" y="-491.1" class="st4" width="3.4" height="1305.4"/>
								</g>
							</g>
						</g>
					</g>
					<g>
						<g>
							<g>
								<g>
									<rect x="-66.1" y="-500.2" class="st4" width="3.4" height="1300.1"/>
								</g>
							</g>
						</g>
						<g>
							<g>
								<g>
									<rect x="-50.8" y="-495.1" class="st4" width="3.4" height="1319.6"/>
								</g>
							</g>
						</g>
						<g>
							<g>
								<g>
									<rect x="-35.6" y="-488.2" class="st4" width="3.4" height="1311.7"/>
								</g>
							</g>
						</g>
						<g>
							<g>
								<g>
									<rect x="-20.3" y="-479.7" class="st4" width="3.4" height="1295.7"/>
								</g>
							</g>
						</g>
						<g>
							<g>
								<g>
									<rect x="-5.1" y="-479.7" class="st4" width="3.4" height="1294"/>
								</g>
							</g>
						</g>
					</g>
					<g>
						<g>
							<g>
								<path class="st5" d="M138.6,809.4h-3.4v-5h3.4V809.4z M138.6,790.5h-3.4v-6.9h3.4V790.5z M138.6,769.8h-3.4v-6.9h3.4V769.8z
									 M138.6,749.1h-3.4v-6.9h3.4V749.1z M138.6,728.4h-3.4v-6.9h3.4V728.4z M138.6,707.7h-3.4v-6.9h3.4V707.7z M138.6,687h-3.4
									v-6.9h3.4V687z M138.6,666.3h-3.4v-6.9h3.4V666.3z M138.6,645.6h-3.4v-6.9h3.4V645.6z M138.6,624.9h-3.4V618h3.4V624.9z
									 M138.6,604.2h-3.4v-6.9h3.4V604.2z M138.6,583.5h-3.4v-6.9h3.4V583.5z M138.6,562.8h-3.4v-6.9h3.4V562.8z M138.6,542.1
									h-3.4v-6.9h3.4V542.1z M138.6,521.4h-3.4v-6.9h3.4V521.4z M138.6,500.7h-3.4v-6.9h3.4V500.7z M138.6,480h-3.4v-6.9h3.4V480z
									 M138.6,459.3h-3.4v-6.9h3.4V459.3z M138.6,438.6h-3.4v-6.9h3.4V438.6z M138.6,417.9h-3.4V411h3.4V417.9z M138.6,397.2h-3.4
									v-6.9h3.4V397.2z M138.6,376.6h-3.4v-6.9h3.4V376.6z M138.6,355.9h-3.4V349h3.4V355.9z M138.6,335.2h-3.4v-6.9h3.4V335.2z
									 M138.6,314.5h-3.4v-6.9h3.4V314.5z M138.6,293.8h-3.4v-6.9h3.4V293.8z M138.6,273.1h-3.4v-6.9h3.4V273.1z M138.6,252.4
									h-3.4v-6.9h3.4V252.4z M138.6,231.7h-3.4v-6.9h3.4V231.7z M138.6,211h-3.4v-6.9h3.4V211z M138.6,190.3h-3.4v-6.9h3.4V190.3z
									 M138.6,169.6h-3.4v-6.9h3.4V169.6z M138.6,148.9h-3.4V142h3.4V148.9z M138.6,128.2h-3.4v-6.9h3.4V128.2z M138.6,107.5h-3.4
									v-6.9h3.4V107.5z M138.6,86.8h-3.4v-6.9h3.4V86.8z M138.6,66.1h-3.4v-6.9h3.4V66.1z M138.6,45.4h-3.4v-6.9h3.4V45.4z
									 M138.6,24.7h-3.4v-6.9h3.4V24.7z M138.6,4h-3.4v-6.9h3.4V4z M138.6-16.7h-3.4v-6.9h3.4V-16.7z M138.6-37.4h-3.4v-6.9h3.4
									V-37.4z M138.6-58.1h-3.4V-65h3.4V-58.1z M138.6-78.8h-3.4v-6.9h3.4V-78.8z M138.6-99.5h-3.4v-6.9h3.4V-99.5z M138.6-120.2
									h-3.4v-6.9h3.4V-120.2z M138.6-140.9h-3.4v-6.9h3.4V-140.9z M138.6-161.6h-3.4v-6.9h3.4V-161.6z M138.6-182.3h-3.4v-6.9h3.4
									V-182.3z M138.6-203h-3.4v-6.9h3.4V-203z M138.6-223.7h-3.4v-6.9h3.4V-223.7z M138.6-244.4h-3.4v-6.9h3.4V-244.4z
									 M138.6-265.1h-3.4v-6.9h3.4V-265.1z M138.6-285.8h-3.4v-6.9h3.4V-285.8z M138.6-306.5h-3.4v-6.9h3.4V-306.5z M138.6-327.2
									h-3.4v-6.9h3.4V-327.2z M138.6-347.9h-3.4v-6.9h3.4V-347.9z M138.6-368.6h-3.4v-6.9h3.4V-368.6z M138.6-389.3h-3.4v-6.9h3.4
									V-389.3z M138.6-410h-3.4v-6.9h3.4V-410z M138.6-430.7h-3.4v-6.9h3.4V-430.7z M138.6-451.4h-3.4v-6.9h3.4V-451.4z
									 M138.6-472.1h-3.4v-6.9h3.4V-472.1z M138.6-492.8h-3.4v-6.9h3.4V-492.8z M138.6-513.5h-3.4v-6.9h3.4V-513.5z"/>
							</g>
						</g>
					</g>
					<g>
						<g>
							<g>
								<path class="st5" d="M109.7,801.9h-3.4V795h3.4V801.9z M109.7,781.2h-3.4v-6.9h3.4V781.2z M109.7,760.5h-3.4v-6.9h3.4V760.5
									z M109.7,739.8h-3.4v-6.9h3.4V739.8z M109.7,719.1h-3.4v-6.9h3.4V719.1z M109.7,698.4h-3.4v-6.9h3.4V698.4z M109.7,677.7
									h-3.4v-6.9h3.4V677.7z M109.7,657h-3.4v-6.9h3.4V657z M109.7,636.3h-3.4v-6.9h3.4V636.3z M109.7,615.6h-3.4v-6.9h3.4V615.6z
									 M109.7,594.9h-3.4V588h3.4V594.9z M109.7,574.2h-3.4v-6.9h3.4V574.2z M109.7,553.5h-3.4v-6.9h3.4V553.5z M109.7,532.8h-3.4
									v-6.9h3.4V532.8z M109.7,512.1h-3.4v-6.9h3.4V512.1z M109.7,491.4h-3.4v-6.9h3.4V491.4z M109.7,470.7h-3.4v-6.9h3.4V470.7z
									 M109.7,450h-3.4v-6.9h3.4V450z M109.7,429.3h-3.4v-6.9h3.4V429.3z M109.7,408.6h-3.4v-6.9h3.4V408.6z M109.7,387.9h-3.4
									V381h3.4V387.9z M109.7,367.2h-3.4v-6.9h3.4V367.2z M109.7,346.5h-3.4v-6.9h3.4V346.5z M109.7,325.8h-3.4v-6.9h3.4V325.8z
									 M109.7,305.1h-3.4v-6.9h3.4V305.1z M109.7,284.4h-3.4v-6.9h3.4V284.4z M109.7,263.7h-3.4v-6.9h3.4V263.7z M109.7,243h-3.4
									v-6.9h3.4V243z M109.7,222.3h-3.4v-6.9h3.4V222.3z M109.7,201.6h-3.4v-6.9h3.4V201.6z M109.7,180.9h-3.4V174h3.4V180.9z
									 M109.7,160.2h-3.4v-6.9h3.4V160.2z M109.7,139.5h-3.4v-6.9h3.4V139.5z M109.7,118.8h-3.4v-6.9h3.4V118.8z M109.7,98.1h-3.4
									v-6.9h3.4V98.1z M109.7,77.4h-3.4v-6.9h3.4V77.4z M109.7,56.7h-3.4v-6.9h3.4V56.7z M109.7,36.1h-3.4v-6.9h3.4V36.1z
									 M109.7,15.4h-3.4V8.5h3.4V15.4z M109.7-5.3h-3.4v-6.9h3.4V-5.3z M109.7-26h-3.4v-6.9h3.4V-26z M109.7-46.7h-3.4v-6.9h3.4
									V-46.7z M109.7-67.4h-3.4v-6.9h3.4V-67.4z M109.7-88.1h-3.4V-95h3.4V-88.1z M109.7-108.8h-3.4v-6.9h3.4V-108.8z
									 M109.7-129.5h-3.4v-6.9h3.4V-129.5z M109.7-150.2h-3.4v-6.9h3.4V-150.2z M109.7-170.9h-3.4v-6.9h3.4V-170.9z M109.7-191.6
									h-3.4v-6.9h3.4V-191.6z M109.7-212.3h-3.4v-6.9h3.4V-212.3z M109.7-233h-3.4v-6.9h3.4V-233z M109.7-253.7h-3.4v-6.9h3.4
									V-253.7z M109.7-274.4h-3.4v-6.9h3.4V-274.4z M109.7-295.1h-3.4v-6.9h3.4V-295.1z M109.7-315.8h-3.4v-6.9h3.4V-315.8z
									 M109.7-336.5h-3.4v-6.9h3.4V-336.5z M109.7-357.2h-3.4v-6.9h3.4V-357.2z M109.7-377.9h-3.4v-6.9h3.4V-377.9z M109.7-398.6
									h-3.4v-6.9h3.4V-398.6z M109.7-419.3h-3.4v-6.9h3.4V-419.3z M109.7-440h-3.4v-6.9h3.4V-440z M109.7-460.7h-3.4v-6.9h3.4
									V-460.7z M109.7-481.4h-3.4v-6.9h3.4V-481.4z M109.7-502.1h-3.4v-6.9h3.4V-502.1z"/>
							</g>
						</g>
					</g>
					<g>
						<g>
							<g>
								<path class="st5" d="M94.3,806.6h-3.4v-6.9h3.4V806.6z M94.3,785.9h-3.4V779h3.4V785.9z M94.3,765.2h-3.4v-6.9h3.4V765.2z
									 M94.3,744.5h-3.4v-6.9h3.4V744.5z M94.3,723.8h-3.4v-6.9h3.4V723.8z M94.3,703.1h-3.4v-6.9h3.4V703.1z M94.3,682.4h-3.4
									v-6.9h3.4V682.4z M94.3,661.7h-3.4v-6.9h3.4V661.7z M94.3,641h-3.4v-6.9h3.4V641z M94.3,620.3h-3.4v-6.9h3.4V620.3z
									 M94.3,599.6h-3.4v-6.9h3.4V599.6z M94.3,578.9h-3.4V572h3.4V578.9z M94.3,558.3h-3.4v-6.9h3.4V558.3z M94.3,537.6h-3.4
									v-6.9h3.4V537.6z M94.3,516.9h-3.4V510h3.4V516.9z M94.3,496.2h-3.4v-6.9h3.4V496.2z M94.3,475.5h-3.4v-6.9h3.4V475.5z
									 M94.3,454.8h-3.4v-6.9h3.4V454.8z M94.3,434.1h-3.4v-6.9h3.4V434.1z M94.3,413.4h-3.4v-6.9h3.4V413.4z M94.3,392.7h-3.4
									v-6.9h3.4V392.7z M94.3,372h-3.4v-6.9h3.4V372z M94.3,351.3h-3.4v-6.9h3.4V351.3z M94.3,330.6h-3.4v-6.9h3.4V330.6z
									 M94.3,309.9h-3.4V303h3.4V309.9z M94.3,289.2h-3.4v-6.9h3.4V289.2z M94.3,268.5h-3.4v-6.9h3.4V268.5z M94.3,247.8h-3.4
									v-6.9h3.4V247.8z M94.3,227.1h-3.4v-6.9h3.4V227.1z M94.3,206.4h-3.4v-6.9h3.4V206.4z M94.3,185.7h-3.4v-6.9h3.4V185.7z
									 M94.3,165h-3.4v-6.9h3.4V165z M94.3,144.3h-3.4v-6.9h3.4V144.3z M94.3,123.6h-3.4v-6.9h3.4V123.6z M94.3,102.9h-3.4V96h3.4
									V102.9z M94.3,82.2h-3.4v-6.9h3.4V82.2z M94.3,61.5h-3.4v-6.9h3.4V61.5z M94.3,40.8h-3.4v-6.9h3.4V40.8z M94.3,20.1h-3.4
									v-6.9h3.4V20.1z M94.3-0.6h-3.4v-6.9h3.4V-0.6z M94.3-21.3h-3.4v-6.9h3.4V-21.3z M94.3-42h-3.4v-6.9h3.4V-42z M94.3-62.7
									h-3.4v-6.9h3.4V-62.7z M94.3-83.4h-3.4v-6.9h3.4V-83.4z M94.3-104.1h-3.4v-6.9h3.4V-104.1z M94.3-124.8h-3.4v-6.9h3.4
									V-124.8z M94.3-145.5h-3.4v-6.9h3.4V-145.5z M94.3-166.2h-3.4v-6.9h3.4V-166.2z M94.3-186.9h-3.4v-6.9h3.4V-186.9z
									 M94.3-207.6h-3.4v-6.9h3.4V-207.6z M94.3-228.3h-3.4v-6.9h3.4V-228.3z M94.3-249h-3.4v-6.9h3.4V-249z M94.3-269.7h-3.4
									v-6.9h3.4V-269.7z M94.3-290.4h-3.4v-6.9h3.4V-290.4z M94.3-311.1h-3.4v-6.9h3.4V-311.1z M94.3-331.8h-3.4v-6.9h3.4V-331.8z
									 M94.3-352.5h-3.4v-6.9h3.4V-352.5z M94.3-373.2h-3.4v-6.9h3.4V-373.2z M94.3-393.9h-3.4v-6.9h3.4V-393.9z M94.3-414.6h-3.4
									v-6.9h3.4V-414.6z M94.3-435.3h-3.4v-6.9h3.4V-435.3z M94.3-456h-3.4v-6.9h3.4V-456z M94.3-476.7h-3.4v-6.9h3.4V-476.7z
									 M94.3-497.4h-3.4v-6.9h3.4V-497.4z"/>
							</g>
						</g>
					</g>
					<g>
						<g>
							<g>
								<path class="st5" d="M78.9,809.4h-3.4v-4.9h3.4V809.4z M78.9,790.7h-3.4v-6.9h3.4V790.7z M78.9,770h-3.4v-6.9h3.4V770z
									 M78.9,749.3h-3.4v-6.9h3.4V749.3z M78.9,728.6h-3.4v-6.9h3.4V728.6z M78.9,707.9h-3.4V701h3.4V707.9z M78.9,687.2h-3.4
									v-6.9h3.4V687.2z M78.9,666.5h-3.4v-6.9h3.4V666.5z M78.9,645.8h-3.4v-6.9h3.4V645.8z M78.9,625.1h-3.4v-6.9h3.4V625.1z
									 M78.9,604.4h-3.4v-6.9h3.4V604.4z M78.9,583.7h-3.4v-6.9h3.4V583.7z M78.9,563h-3.4v-6.9h3.4V563z M78.9,542.3h-3.4v-6.9
									h3.4V542.3z M78.9,521.6h-3.4v-6.9h3.4V521.6z M78.9,500.9h-3.4V494h3.4V500.9z M78.9,480.2h-3.4v-6.9h3.4V480.2z
									 M78.9,459.5h-3.4v-6.9h3.4V459.5z M78.9,438.8h-3.4v-6.9h3.4V438.8z M78.9,418.1h-3.4v-6.9h3.4V418.1z M78.9,397.4h-3.4
									v-6.9h3.4V397.4z M78.9,376.7h-3.4v-6.9h3.4V376.7z M78.9,356h-3.4v-6.9h3.4V356z M78.9,335.3h-3.4v-6.9h3.4V335.3z
									 M78.9,314.6h-3.4v-6.9h3.4V314.6z M78.9,293.9h-3.4V287h3.4V293.9z M78.9,273.2h-3.4v-6.9h3.4V273.2z M78.9,252.5h-3.4
									v-6.9h3.4V252.5z M78.9,231.8h-3.4v-6.9h3.4V231.8z M78.9,211.1h-3.4v-6.9h3.4V211.1z M78.9,190.4h-3.4v-6.9h3.4V190.4z
									 M78.9,169.7h-3.4v-6.9h3.4V169.7z M78.9,149h-3.4v-6.9h3.4V149z M78.9,128.3h-3.4v-6.9h3.4V128.3z M78.9,107.6h-3.4v-6.9
									h3.4V107.6z M78.9,86.9h-3.4V80h3.4V86.9z M78.9,66.2h-3.4v-6.9h3.4V66.2z M78.9,45.5h-3.4v-6.9h3.4V45.5z M78.9,24.8h-3.4
									v-6.9h3.4V24.8z M78.9,4.1h-3.4v-6.9h3.4V4.1z M78.9-16.6h-3.4v-6.9h3.4V-16.6z M78.9-37.3h-3.4v-6.9h3.4V-37.3z M78.9-58
									h-3.4v-6.9h3.4V-58z M78.9-78.7h-3.4v-6.9h3.4V-78.7z M78.9-99.4h-3.4v-6.9h3.4V-99.4z M78.9-120.1h-3.4v-6.9h3.4V-120.1z
									 M78.9-140.8h-3.4v-6.9h3.4V-140.8z M78.9-161.5h-3.4v-6.9h3.4V-161.5z M78.9-182.2h-3.4v-6.9h3.4V-182.2z M78.9-202.9h-3.4
									v-6.9h3.4V-202.9z M78.9-223.6h-3.4v-6.9h3.4V-223.6z M78.9-244.3h-3.4v-6.9h3.4V-244.3z M78.9-265h-3.4v-6.9h3.4V-265z
									 M78.9-285.7h-3.4v-6.9h3.4V-285.7z M78.9-306.4h-3.4v-6.9h3.4V-306.4z M78.9-327.1h-3.4v-6.9h3.4V-327.1z M78.9-347.8h-3.4
									v-6.9h3.4V-347.8z M78.9-368.5h-3.4v-6.9h3.4V-368.5z M78.9-389.2h-3.4v-6.9h3.4V-389.2z M78.9-409.9h-3.4v-6.9h3.4V-409.9z
									 M78.9-430.6h-3.4v-6.9h3.4V-430.6z M78.9-451.3h-3.4v-6.9h3.4V-451.3z M78.9-472h-3.4v-6.9h3.4V-472z M78.9-492.7h-3.4
									v-6.9h3.4V-492.7z"/>
							</g>
						</g>
					</g>
					<g>
						<g>
							<g>
								<path class="st5" d="M63.5,795.8h-3.4v-6.9h3.4V795.8z M63.5,775.1h-3.4v-6.9h3.4V775.1z M63.5,754.4h-3.4v-6.9h3.4V754.4z
									 M63.5,733.7h-3.4v-6.9h3.4V733.7z M63.5,713h-3.4v-6.9h3.4V713z M63.5,692.3h-3.4v-6.9h3.4V692.3z M63.5,671.6h-3.4v-6.9
									h3.4V671.6z M63.5,651h-3.4v-6.9h3.4V651z M63.5,630.3h-3.4v-6.9h3.4V630.3z M63.5,609.6h-3.4v-6.9h3.4V609.6z M63.5,588.9
									h-3.4V582h3.4V588.9z M63.5,568.2h-3.4v-6.9h3.4V568.2z M63.5,547.5h-3.4v-6.9h3.4V547.5z M63.5,526.8h-3.4v-6.9h3.4V526.8z
									 M63.5,506.1h-3.4v-6.9h3.4V506.1z M63.5,485.4h-3.4v-6.9h3.4V485.4z M63.5,464.7h-3.4v-6.9h3.4V464.7z M63.5,444h-3.4v-6.9
									h3.4V444z M63.5,423.3h-3.4v-6.9h3.4V423.3z M63.5,402.6h-3.4v-6.9h3.4V402.6z M63.5,381.9h-3.4V375h3.4V381.9z M63.5,361.2
									h-3.4v-6.9h3.4V361.2z M63.5,340.5h-3.4v-6.9h3.4V340.5z M63.5,319.8h-3.4v-6.9h3.4V319.8z M63.5,299.1h-3.4v-6.9h3.4V299.1
									z M63.5,278.4h-3.4v-6.9h3.4V278.4z M63.5,257.7h-3.4v-6.9h3.4V257.7z M63.5,237h-3.4v-6.9h3.4V237z M63.5,216.3h-3.4v-6.9
									h3.4V216.3z M63.5,195.6h-3.4v-6.9h3.4V195.6z M63.5,174.9h-3.4V168h3.4V174.9z M63.5,154.2h-3.4v-6.9h3.4V154.2z
									 M63.5,133.5h-3.4v-6.9h3.4V133.5z M63.5,112.8h-3.4v-6.9h3.4V112.8z M63.5,92.1h-3.4v-6.9h3.4V92.1z M63.5,71.4h-3.4v-6.9
									h3.4V71.4z M63.5,50.7h-3.4v-6.9h3.4V50.7z M63.5,30h-3.4v-6.9h3.4V30z M63.5,9.3h-3.4V2.4h3.4V9.3z M63.5-11.4h-3.4v-6.9
									h3.4V-11.4z M63.5-32.1h-3.4V-39h3.4V-32.1z M63.5-52.8h-3.4v-6.9h3.4V-52.8z M63.5-73.5h-3.4v-6.9h3.4V-73.5z M63.5-94.2
									h-3.4v-6.9h3.4V-94.2z M63.5-114.9h-3.4v-6.9h3.4V-114.9z M63.5-135.6h-3.4v-6.9h3.4V-135.6z M63.5-156.3h-3.4v-6.9h3.4
									V-156.3z M63.5-177h-3.4v-6.9h3.4V-177z M63.5-197.7h-3.4v-6.9h3.4V-197.7z M63.5-218.4h-3.4v-6.9h3.4V-218.4z M63.5-239.1
									h-3.4v-6.9h3.4V-239.1z M63.5-259.8h-3.4v-6.9h3.4V-259.8z M63.5-280.5h-3.4v-6.9h3.4V-280.5z M63.5-301.2h-3.4v-6.9h3.4
									V-301.2z M63.5-321.9h-3.4v-6.9h3.4V-321.9z M63.5-342.6h-3.4v-6.9h3.4V-342.6z M63.5-363.3h-3.4v-6.9h3.4V-363.3z
									 M63.5-384h-3.4v-6.9h3.4V-384z M63.5-404.7h-3.4v-6.9h3.4V-404.7z M63.5-425.4h-3.4v-6.9h3.4V-425.4z M63.5-446.1h-3.4
									v-6.9h3.4V-446.1z M63.5-466.8h-3.4v-6.9h3.4V-466.8z M63.5-487.5h-3.4v-6.9h3.4V-487.5z"/>
							</g>
						</g>
					</g>
					<g>
						<g>
							<g>
								<path class="st5" d="M48.1,799.1h-3.4v-6.9h3.4V799.1z M48.1,778.4h-3.4v-6.9h3.4V778.4z M48.1,757.7h-3.4v-6.9h3.4V757.7z
									 M48.1,737h-3.4v-6.9h3.4V737z M48.1,716.3h-3.4v-6.9h3.4V716.3z M48.1,695.6h-3.4v-6.9h3.4V695.6z M48.1,674.9h-3.4V668
									h3.4V674.9z M48.1,654.2h-3.4v-6.9h3.4V654.2z M48.1,633.5h-3.4v-6.9h3.4V633.5z M48.1,612.8h-3.4v-6.9h3.4V612.8z
									 M48.1,592.1h-3.4v-6.9h3.4V592.1z M48.1,571.4h-3.4v-6.9h3.4V571.4z M48.1,550.7h-3.4v-6.9h3.4V550.7z M48.1,530h-3.4v-6.9
									h3.4V530z M48.1,509.3h-3.4v-6.9h3.4V509.3z M48.1,488.6h-3.4v-6.9h3.4V488.6z M48.1,467.9h-3.4V461h3.4V467.9z M48.1,447.2
									h-3.4v-6.9h3.4V447.2z M48.1,426.5h-3.4v-6.9h3.4V426.5z M48.1,405.8h-3.4v-6.9h3.4V405.8z M48.1,385.1h-3.4v-6.9h3.4V385.1
									z M48.1,364.4h-3.4v-6.9h3.4V364.4z M48.1,343.7h-3.4v-6.9h3.4V343.7z M48.1,323h-3.4v-6.9h3.4V323z M48.1,302.3h-3.4v-6.9
									h3.4V302.3z M48.1,281.6h-3.4v-6.9h3.4V281.6z M48.1,260.9h-3.4V254h3.4V260.9z M48.1,240.2h-3.4v-6.9h3.4V240.2z
									 M48.1,219.5h-3.4v-6.9h3.4V219.5z M48.1,198.8h-3.4v-6.9h3.4V198.8z M48.1,178.1h-3.4v-6.9h3.4V178.1z M48.1,157.4h-3.4
									v-6.9h3.4V157.4z M48.1,136.7h-3.4v-6.9h3.4V136.7z M48.1,116h-3.4v-6.9h3.4V116z M48.1,95.3h-3.4v-6.9h3.4V95.3z
									 M48.1,74.6h-3.4v-6.9h3.4V74.6z M48.1,53.9h-3.4V47h3.4V53.9z M48.1,33.2h-3.4v-6.9h3.4V33.2z M48.1,12.5h-3.4V5.6h3.4
									V12.5z M48.1-8.1h-3.4V-15h3.4V-8.1z M48.1-28.8h-3.4v-6.9h3.4V-28.8z M48.1-49.5h-3.4v-6.9h3.4V-49.5z M48.1-70.2h-3.4
									v-6.9h3.4V-70.2z M48.1-90.9h-3.4v-6.9h3.4V-90.9z M48.1-111.6h-3.4v-6.9h3.4V-111.6z M48.1-132.3h-3.4v-6.9h3.4V-132.3z
									 M48.1-153h-3.4v-6.9h3.4V-153z M48.1-173.7h-3.4v-6.9h3.4V-173.7z M48.1-194.4h-3.4v-6.9h3.4V-194.4z M48.1-215.1h-3.4
									v-6.9h3.4V-215.1z M48.1-235.8h-3.4v-6.9h3.4V-235.8z M48.1-256.5h-3.4v-6.9h3.4V-256.5z M48.1-277.2h-3.4v-6.9h3.4V-277.2z
									 M48.1-297.9h-3.4v-6.9h3.4V-297.9z M48.1-318.6h-3.4v-6.9h3.4V-318.6z M48.1-339.3h-3.4v-6.9h3.4V-339.3z M48.1-360h-3.4
									v-6.9h3.4V-360z M48.1-380.7h-3.4v-6.9h3.4V-380.7z M48.1-401.4h-3.4v-6.9h3.4V-401.4z M48.1-422.1h-3.4v-6.9h3.4V-422.1z
									 M48.1-442.8h-3.4v-6.9h3.4V-442.8z M48.1-463.5h-3.4v-6.9h3.4V-463.5z M48.1-484.2h-3.4v-6.9h3.4V-484.2z"/>
							</g>
						</g>
					</g>
					<g>
						<g>
							<g>
								<path class="st5" d="M-88.6,801.9H-92V795h3.4V801.9z M-88.6,781.2H-92v-6.9h3.4V781.2z M-88.6,760.5H-92v-6.9h3.4V760.5z
									 M-88.6,739.8H-92v-6.9h3.4V739.8z M-88.6,719.1H-92v-6.9h3.4V719.1z M-88.6,698.4H-92v-6.9h3.4V698.4z M-88.6,677.7H-92
									v-6.9h3.4V677.7z M-88.6,657H-92v-6.9h3.4V657z M-88.6,636.3H-92v-6.9h3.4V636.3z M-88.6,615.6H-92v-6.9h3.4V615.6z
									 M-88.6,594.9H-92V588h3.4V594.9z M-88.6,574.2H-92v-6.9h3.4V574.2z M-88.6,553.5H-92v-6.9h3.4V553.5z M-88.6,532.8H-92
									v-6.9h3.4V532.8z M-88.6,512.1H-92v-6.9h3.4V512.1z M-88.6,491.4H-92v-6.9h3.4V491.4z M-88.6,470.7H-92v-6.9h3.4V470.7z
									 M-88.6,450H-92v-6.9h3.4V450z M-88.6,429.3H-92v-6.9h3.4V429.3z M-88.6,408.6H-92v-6.9h3.4V408.6z M-88.6,387.9H-92V381
									h3.4V387.9z M-88.6,367.2H-92v-6.9h3.4V367.2z M-88.6,346.5H-92v-6.9h3.4V346.5z M-88.6,325.8H-92v-6.9h3.4V325.8z
									 M-88.6,305.1H-92v-6.9h3.4V305.1z M-88.6,284.4H-92v-6.9h3.4V284.4z M-88.6,263.7H-92v-6.9h3.4V263.7z M-88.6,243H-92v-6.9
									h3.4V243z M-88.6,222.3H-92v-6.9h3.4V222.3z M-88.6,201.6H-92v-6.9h3.4V201.6z M-88.6,180.9H-92V174h3.4V180.9z
									 M-88.6,160.2H-92v-6.9h3.4V160.2z M-88.6,139.5H-92v-6.9h3.4V139.5z M-88.6,118.8H-92v-6.9h3.4V118.8z M-88.6,98.1H-92
									v-6.9h3.4V98.1z M-88.6,77.4H-92v-6.9h3.4V77.4z M-88.6,56.7H-92v-6.9h3.4V56.7z M-88.6,36H-92v-6.9h3.4V36z M-88.6,15.3
									H-92V8.4h3.4V15.3z M-88.6-5.4H-92v-6.9h3.4V-5.4z M-88.6-26H-92v-6.9h3.4V-26z M-88.6-46.7H-92v-6.9h3.4V-46.7z
									 M-88.6-67.4H-92v-6.9h3.4V-67.4z M-88.6-88.1H-92V-95h3.4V-88.1z M-88.6-108.8H-92v-6.9h3.4V-108.8z M-88.6-129.5H-92v-6.9
									h3.4V-129.5z M-88.6-150.2H-92v-6.9h3.4V-150.2z M-88.6-170.9H-92v-6.9h3.4V-170.9z M-88.6-191.6H-92v-6.9h3.4V-191.6z
									 M-88.6-212.3H-92v-6.9h3.4V-212.3z M-88.6-233H-92v-6.9h3.4V-233z M-88.6-253.7H-92v-6.9h3.4V-253.7z M-88.6-274.4H-92
									v-6.9h3.4V-274.4z M-88.6-295.1H-92v-6.9h3.4V-295.1z M-88.6-315.8H-92v-6.9h3.4V-315.8z M-88.6-336.5H-92v-6.9h3.4V-336.5z
									 M-88.6-357.2H-92v-6.9h3.4V-357.2z M-88.6-377.9H-92v-6.9h3.4V-377.9z M-88.6-398.6H-92v-6.9h3.4V-398.6z M-88.6-419.3H-92
									v-6.9h3.4V-419.3z M-88.6-440H-92v-6.9h3.4V-440z M-88.6-460.7H-92v-6.9h3.4V-460.7z M-88.6-481.4H-92v-6.9h3.4V-481.4z
									 M-88.6-502.1H-92v-6.9h3.4V-502.1z"/>
							</g>
						</g>
					</g>
					<g>
						<g>
							<g>
								<path class="st5" d="M-59.7,809.4h-3.4v-3h3.4V809.4z M-59.7,792.6h-3.4v-6.9h3.4V792.6z M-59.7,771.9h-3.4V765h3.4V771.9z
									 M-59.7,751.2h-3.4v-6.9h3.4V751.2z M-59.7,730.5h-3.4v-6.9h3.4V730.5z M-59.7,709.8h-3.4v-6.9h3.4V709.8z M-59.7,689.1
									h-3.4v-6.9h3.4V689.1z M-59.7,668.4h-3.4v-6.9h3.4V668.4z M-59.7,647.7h-3.4v-6.9h3.4V647.7z M-59.7,627h-3.4v-6.9h3.4V627z
									 M-59.7,606.3h-3.4v-6.9h3.4V606.3z M-59.7,585.6h-3.4v-6.9h3.4V585.6z M-59.7,564.9h-3.4V558h3.4V564.9z M-59.7,544.2h-3.4
									v-6.9h3.4V544.2z M-59.7,523.5h-3.4v-6.9h3.4V523.5z M-59.7,502.8h-3.4v-6.9h3.4V502.8z M-59.7,482.1h-3.4v-6.9h3.4V482.1z
									 M-59.7,461.4h-3.4v-6.9h3.4V461.4z M-59.7,440.7h-3.4v-6.9h3.4V440.7z M-59.7,420h-3.4v-6.9h3.4V420z M-59.7,399.3h-3.4
									v-6.9h3.4V399.3z M-59.7,378.6h-3.4v-6.9h3.4V378.6z M-59.7,357.9h-3.4V351h3.4V357.9z M-59.7,337.2h-3.4v-6.9h3.4V337.2z
									 M-59.7,316.5h-3.4v-6.9h3.4V316.5z M-59.7,295.8h-3.4v-6.9h3.4V295.8z M-59.7,275.1h-3.4v-6.9h3.4V275.1z M-59.7,254.4
									h-3.4v-6.9h3.4V254.4z M-59.7,233.7h-3.4v-6.9h3.4V233.7z M-59.7,213h-3.4v-6.9h3.4V213z M-59.7,192.3h-3.4v-6.9h3.4V192.3z
									 M-59.7,171.6h-3.4v-6.9h3.4V171.6z M-59.7,150.9h-3.4V144h3.4V150.9z M-59.7,130.2h-3.4v-6.9h3.4V130.2z M-59.7,109.5h-3.4
									v-6.9h3.4V109.5z M-59.7,88.8h-3.4v-6.9h3.4V88.8z M-59.7,68.1h-3.4v-6.9h3.4V68.1z M-59.7,47.4h-3.4v-6.9h3.4V47.4z
									 M-59.7,26.7h-3.4v-6.9h3.4V26.7z M-59.7,6h-3.4v-6.9h3.4V6z M-59.7-14.7h-3.4v-6.9h3.4V-14.7z M-59.7-35.4h-3.4v-6.9h3.4
									V-35.4z M-59.7-56.1h-3.4V-63h3.4V-56.1z M-59.7-76.8h-3.4v-6.9h3.4V-76.8z M-59.7-97.5h-3.4v-6.9h3.4V-97.5z M-59.7-118.2
									h-3.4v-6.9h3.4V-118.2z M-59.7-138.9h-3.4v-6.9h3.4V-138.9z M-59.7-159.6h-3.4v-6.9h3.4V-159.6z M-59.7-180.3h-3.4v-6.9h3.4
									V-180.3z M-59.7-201h-3.4v-6.9h3.4V-201z M-59.7-221.7h-3.4v-6.9h3.4V-221.7z M-59.7-242.4h-3.4v-6.9h3.4V-242.4z
									 M-59.7-263.1h-3.4v-6.9h3.4V-263.1z M-59.7-283.8h-3.4v-6.9h3.4V-283.8z M-59.7-304.5h-3.4v-6.9h3.4V-304.5z M-59.7-325.2
									h-3.4v-6.9h3.4V-325.2z M-59.7-345.8h-3.4v-6.9h3.4V-345.8z M-59.7-366.5h-3.4v-6.9h3.4V-366.5z M-59.7-387.2h-3.4v-6.9h3.4
									V-387.2z M-59.7-407.9h-3.4v-6.9h3.4V-407.9z M-59.7-428.6h-3.4v-6.9h3.4V-428.6z M-59.7-449.3h-3.4v-6.9h3.4V-449.3z
									 M-59.7-470h-3.4v-6.9h3.4V-470z M-59.7-490.7h-3.4v-6.9h3.4V-490.7z"/>
							</g>
						</g>
					</g>
					<g>
						<g>
							<g>
								<path class="st5" d="M-44.3,797.3h-3.4v-6.9h3.4V797.3z M-44.3,776.6h-3.4v-6.9h3.4V776.6z M-44.3,755.9h-3.4V749h3.4V755.9
									z M-44.3,735.2h-3.4v-6.9h3.4V735.2z M-44.3,714.5h-3.4v-6.9h3.4V714.5z M-44.3,693.8h-3.4v-6.9h3.4V693.8z M-44.3,673.1
									h-3.4v-6.9h3.4V673.1z M-44.3,652.4h-3.4v-6.9h3.4V652.4z M-44.3,631.7h-3.4v-6.9h3.4V631.7z M-44.3,611h-3.4v-6.9h3.4V611z
									 M-44.3,590.3h-3.4v-6.9h3.4V590.3z M-44.3,569.6h-3.4v-6.9h3.4V569.6z M-44.3,548.9h-3.4V542h3.4V548.9z M-44.3,528.2h-3.4
									v-6.9h3.4V528.2z M-44.3,507.5h-3.4v-6.9h3.4V507.5z M-44.3,486.8h-3.4v-6.9h3.4V486.8z M-44.3,466.1h-3.4v-6.9h3.4V466.1z
									 M-44.3,445.4h-3.4v-6.9h3.4V445.4z M-44.3,424.7h-3.4v-6.9h3.4V424.7z M-44.3,404h-3.4v-6.9h3.4V404z M-44.3,383.3h-3.4
									v-6.9h3.4V383.3z M-44.3,362.6h-3.4v-6.9h3.4V362.6z M-44.3,341.9h-3.4V335h3.4V341.9z M-44.3,321.2h-3.4v-6.9h3.4V321.2z
									 M-44.3,300.5h-3.4v-6.9h3.4V300.5z M-44.3,279.8h-3.4v-6.9h3.4V279.8z M-44.3,259.1h-3.4v-6.9h3.4V259.1z M-44.3,238.4
									h-3.4v-6.9h3.4V238.4z M-44.3,217.7h-3.4v-6.9h3.4V217.7z M-44.3,197h-3.4v-6.9h3.4V197z M-44.3,176.4h-3.4v-6.9h3.4V176.4z
									 M-44.3,155.7h-3.4v-6.9h3.4V155.7z M-44.3,135h-3.4v-6.9h3.4V135z M-44.3,114.3h-3.4v-6.9h3.4V114.3z M-44.3,93.6h-3.4
									v-6.9h3.4V93.6z M-44.3,72.9h-3.4V66h3.4V72.9z M-44.3,52.2h-3.4v-6.9h3.4V52.2z M-44.3,31.5h-3.4v-6.9h3.4V31.5z
									 M-44.3,10.8h-3.4V3.9h3.4V10.8z M-44.3-9.9h-3.4v-6.9h3.4V-9.9z M-44.3-30.6h-3.4v-6.9h3.4V-30.6z M-44.3-51.3h-3.4v-6.9
									h3.4V-51.3z M-44.3-72h-3.4v-6.9h3.4V-72z M-44.3-92.7h-3.4v-6.9h3.4V-92.7z M-44.3-113.4h-3.4v-6.9h3.4V-113.4z
									 M-44.3-134.1h-3.4v-6.9h3.4V-134.1z M-44.3-154.8h-3.4v-6.9h3.4V-154.8z M-44.3-175.5h-3.4v-6.9h3.4V-175.5z M-44.3-196.2
									h-3.4v-6.9h3.4V-196.2z M-44.3-216.9h-3.4v-6.9h3.4V-216.9z M-44.3-237.6h-3.4v-6.9h3.4V-237.6z M-44.3-258.3h-3.4v-6.9h3.4
									V-258.3z M-44.3-279h-3.4v-6.9h3.4V-279z M-44.3-299.7h-3.4v-6.9h3.4V-299.7z M-44.3-320.4h-3.4v-6.9h3.4V-320.4z
									 M-44.3-341.1h-3.4v-6.9h3.4V-341.1z M-44.3-361.8h-3.4v-6.9h3.4V-361.8z M-44.3-382.5h-3.4v-6.9h3.4V-382.5z M-44.3-403.2
									h-3.4v-6.9h3.4V-403.2z M-44.3-423.9h-3.4v-6.9h3.4V-423.9z M-44.3-444.6h-3.4v-6.9h3.4V-444.6z M-44.3-465.3h-3.4v-6.9h3.4
									V-465.3z M-44.3-486h-3.4v-6.9h3.4V-486z"/>
							</g>
						</g>
					</g>
					<g>
						<g>
							<g>
								<path class="st5" d="M-28.9,802h-3.4v-6.9h3.4V802z M-28.9,781.3h-3.4v-6.9h3.4V781.3z M-28.9,760.6h-3.4v-6.9h3.4V760.6z
									 M-28.9,739.9h-3.4V733h3.4V739.9z M-28.9,719.2h-3.4v-6.9h3.4V719.2z M-28.9,698.5h-3.4v-6.9h3.4V698.5z M-28.9,677.8h-3.4
									v-6.9h3.4V677.8z M-28.9,657.1h-3.4v-6.9h3.4V657.1z M-28.9,636.4h-3.4v-6.9h3.4V636.4z M-28.9,615.7h-3.4v-6.9h3.4V615.7z
									 M-28.9,595h-3.4v-6.9h3.4V595z M-28.9,574.4h-3.4v-6.9h3.4V574.4z M-28.9,553.7h-3.4v-6.9h3.4V553.7z M-28.9,533h-3.4v-6.9
									h3.4V533z M-28.9,512.3h-3.4v-6.9h3.4V512.3z M-28.9,491.6h-3.4v-6.9h3.4V491.6z M-28.9,470.9h-3.4V464h3.4V470.9z
									 M-28.9,450.2h-3.4v-6.9h3.4V450.2z M-28.9,429.5h-3.4v-6.9h3.4V429.5z M-28.9,408.8h-3.4v-6.9h3.4V408.8z M-28.9,388.1
									h-3.4v-6.9h3.4V388.1z M-28.9,367.4h-3.4v-6.9h3.4V367.4z M-28.9,346.7h-3.4v-6.9h3.4V346.7z M-28.9,326h-3.4v-6.9h3.4V326z
									 M-28.9,305.3h-3.4v-6.9h3.4V305.3z M-28.9,284.6h-3.4v-6.9h3.4V284.6z M-28.9,263.9h-3.4V257h3.4V263.9z M-28.9,243.2h-3.4
									v-6.9h3.4V243.2z M-28.9,222.5h-3.4v-6.9h3.4V222.5z M-28.9,201.8h-3.4v-6.9h3.4V201.8z M-28.9,181.1h-3.4v-6.9h3.4V181.1z
									 M-28.9,160.4h-3.4v-6.9h3.4V160.4z M-28.9,139.7h-3.4v-6.9h3.4V139.7z M-28.9,119h-3.4v-6.9h3.4V119z M-28.9,98.3h-3.4
									v-6.9h3.4V98.3z M-28.9,77.6h-3.4v-6.9h3.4V77.6z M-28.9,56.9h-3.4V50h3.4V56.9z M-28.9,36.2h-3.4v-6.9h3.4V36.2z
									 M-28.9,15.5h-3.4V8.6h3.4V15.5z M-28.9-5.2h-3.4v-6.9h3.4V-5.2z M-28.9-25.9h-3.4v-6.9h3.4V-25.9z M-28.9-46.6h-3.4v-6.9
									h3.4V-46.6z M-28.9-67.3h-3.4v-6.9h3.4V-67.3z M-28.9-88h-3.4v-6.9h3.4V-88z M-28.9-108.7h-3.4v-6.9h3.4V-108.7z
									 M-28.9-129.4h-3.4v-6.9h3.4V-129.4z M-28.9-150.1h-3.4v-6.9h3.4V-150.1z M-28.9-170.8h-3.4v-6.9h3.4V-170.8z M-28.9-191.5
									h-3.4v-6.9h3.4V-191.5z M-28.9-212.2h-3.4v-6.9h3.4V-212.2z M-28.9-232.9h-3.4v-6.9h3.4V-232.9z M-28.9-253.6h-3.4v-6.9h3.4
									V-253.6z M-28.9-274.3h-3.4v-6.9h3.4V-274.3z M-28.9-295h-3.4v-6.9h3.4V-295z M-28.9-315.7h-3.4v-6.9h3.4V-315.7z
									 M-28.9-336.4h-3.4v-6.9h3.4V-336.4z M-28.9-357.1h-3.4v-6.9h3.4V-357.1z M-28.9-377.8h-3.4v-6.9h3.4V-377.8z M-28.9-398.5
									h-3.4v-6.9h3.4V-398.5z M-28.9-419.2h-3.4v-6.9h3.4V-419.2z M-28.9-439.9h-3.4v-6.9h3.4V-439.9z M-28.9-460.6h-3.4v-6.9h3.4
									V-460.6z M-28.9-481.3h-3.4v-6.9h3.4V-481.3z"/>
							</g>
						</g>
					</g>
					<g>
						<g>
							<g>
								<path class="st5" d="M-13.5,807.2H-17v-6.9h3.4V807.2z M-13.5,786.5H-17v-6.9h3.4V786.5z M-13.5,765.8H-17v-6.9h3.4V765.8z
									 M-13.5,745.1H-17v-6.9h3.4V745.1z M-13.5,724.4H-17v-6.9h3.4V724.4z M-13.5,703.7H-17v-6.9h3.4V703.7z M-13.5,683H-17v-6.9
									h3.4V683z M-13.5,662.3H-17v-6.9h3.4V662.3z M-13.5,641.6H-17v-6.9h3.4V641.6z M-13.5,620.9H-17V614h3.4V620.9z
									 M-13.5,600.2H-17v-6.9h3.4V600.2z M-13.5,579.5H-17v-6.9h3.4V579.5z M-13.5,558.8H-17v-6.9h3.4V558.8z M-13.5,538.1H-17
									v-6.9h3.4V538.1z M-13.5,517.4H-17v-6.9h3.4V517.4z M-13.5,496.7H-17v-6.9h3.4V496.7z M-13.5,476H-17v-6.9h3.4V476z
									 M-13.5,455.3H-17v-6.9h3.4V455.3z M-13.5,434.6H-17v-6.9h3.4V434.6z M-13.5,413.9H-17V407h3.4V413.9z M-13.5,393.2H-17
									v-6.9h3.4V393.2z M-13.5,372.5H-17v-6.9h3.4V372.5z M-13.5,351.8H-17v-6.9h3.4V351.8z M-13.5,331.1H-17v-6.9h3.4V331.1z
									 M-13.5,310.4H-17v-6.9h3.4V310.4z M-13.5,289.7H-17v-6.9h3.4V289.7z M-13.5,269.1H-17v-6.9h3.4V269.1z M-13.5,248.4H-17
									v-6.9h3.4V248.4z M-13.5,227.7H-17v-6.9h3.4V227.7z M-13.5,207H-17v-6.9h3.4V207z M-13.5,186.3H-17v-6.9h3.4V186.3z
									 M-13.5,165.6H-17v-6.9h3.4V165.6z M-13.5,144.9H-17V138h3.4V144.9z M-13.5,124.2H-17v-6.9h3.4V124.2z M-13.5,103.5H-17
									v-6.9h3.4V103.5z M-13.5,82.8H-17v-6.9h3.4V82.8z M-13.5,62.1H-17v-6.9h3.4V62.1z M-13.5,41.4H-17v-6.9h3.4V41.4z
									 M-13.5,20.7H-17v-6.9h3.4V20.7z M-13.5,0H-17v-6.9h3.4V0z M-13.5-20.7H-17v-6.9h3.4V-20.7z M-13.5-41.4H-17v-6.9h3.4V-41.4
									z M-13.5-62.1H-17V-69h3.4V-62.1z M-13.5-82.8H-17v-6.9h3.4V-82.8z M-13.5-103.5H-17v-6.9h3.4V-103.5z M-13.5-124.2H-17
									v-6.9h3.4V-124.2z M-13.5-144.9H-17v-6.9h3.4V-144.9z M-13.5-165.6H-17v-6.9h3.4V-165.6z M-13.5-186.3H-17v-6.9h3.4V-186.3z
									 M-13.5-207H-17v-6.9h3.4V-207z M-13.5-227.7H-17v-6.9h3.4V-227.7z M-13.5-248.4H-17v-6.9h3.4V-248.4z M-13.5-269.1H-17
									v-6.9h3.4V-269.1z M-13.5-289.8H-17v-6.9h3.4V-289.8z M-13.5-310.5H-17v-6.9h3.4V-310.5z M-13.5-331.2H-17v-6.9h3.4V-331.2z
									 M-13.5-351.9H-17v-6.9h3.4V-351.9z M-13.5-372.6H-17v-6.9h3.4V-372.6z M-13.5-393.3H-17v-6.9h3.4V-393.3z M-13.5-414H-17
									v-6.9h3.4V-414z M-13.5-434.7H-17v-6.9h3.4V-434.7z M-13.5-455.4H-17v-6.9h3.4V-455.4z M-13.5-476.1H-17v-6.9h3.4V-476.1z"
									/>
							</g>
						</g>
					</g>
					<g>
						<g>
							<g>
								<path class="st5" d="M1.9,809.4h-3.4v-5.8h3.4V809.4z M1.9,789.8h-3.4v-6.9h3.4V789.8z M1.9,769.1h-3.4v-6.9h3.4V769.1z
									 M1.9,748.4h-3.4v-6.9h3.4V748.4z M1.9,727.7h-3.4v-6.9h3.4V727.7z M1.9,707h-3.4v-6.9h3.4V707z M1.9,686.3h-3.4v-6.9h3.4
									V686.3z M1.9,665.6h-3.4v-6.9h3.4V665.6z M1.9,644.9h-3.4V638h3.4V644.9z M1.9,624.2h-3.4v-6.9h3.4V624.2z M1.9,603.5h-3.4
									v-6.9h3.4V603.5z M1.9,582.8h-3.4v-6.9h3.4V582.8z M1.9,562.1h-3.4v-6.9h3.4V562.1z M1.9,541.4h-3.4v-6.9h3.4V541.4z
									 M1.9,520.7h-3.4v-6.9h3.4V520.7z M1.9,500h-3.4v-6.9h3.4V500z M1.9,479.3h-3.4v-6.9h3.4V479.3z M1.9,458.6h-3.4v-6.9h3.4
									V458.6z M1.9,437.9h-3.4V431h3.4V437.9z M1.9,417.2h-3.4v-6.9h3.4V417.2z M1.9,396.5h-3.4v-6.9h3.4V396.5z M1.9,375.8h-3.4
									v-6.9h3.4V375.8z M1.9,355.1h-3.4v-6.9h3.4V355.1z M1.9,334.4h-3.4v-6.9h3.4V334.4z M1.9,313.7h-3.4v-6.9h3.4V313.7z
									 M1.9,293h-3.4v-6.9h3.4V293z M1.9,272.3h-3.4v-6.9h3.4V272.3z M1.9,251.6h-3.4v-6.9h3.4V251.6z M1.9,230.9h-3.4V224h3.4
									V230.9z M1.9,210.2h-3.4v-6.9h3.4V210.2z M1.9,189.5h-3.4v-6.9h3.4V189.5z M1.9,168.8h-3.4v-6.9h3.4V168.8z M1.9,148.1h-3.4
									v-6.9h3.4V148.1z M1.9,127.4h-3.4v-6.9h3.4V127.4z M1.9,106.7h-3.4v-6.9h3.4V106.7z M1.9,86h-3.4v-6.9h3.4V86z M1.9,65.3
									h-3.4v-6.9h3.4V65.3z M1.9,44.6h-3.4v-6.9h3.4V44.6z M1.9,23.9h-3.4V17h3.4V23.9z M1.9,3.2h-3.4v-6.9h3.4V3.2z M1.9-17.5
									h-3.4v-6.9h3.4V-17.5z M1.9-38.2h-3.4v-6.9h3.4V-38.2z M1.9-58.9h-3.4v-6.9h3.4V-58.9z M1.9-79.6h-3.4v-6.9h3.4V-79.6z
									 M1.9-100.3h-3.4v-6.9h3.4V-100.3z M1.9-121h-3.4v-6.9h3.4V-121z M1.9-141.7h-3.4v-6.9h3.4V-141.7z M1.9-162.4h-3.4v-6.9
									h3.4V-162.4z M1.9-183.1h-3.4v-6.9h3.4V-183.1z M1.9-203.8h-3.4v-6.9h3.4V-203.8z M1.9-224.5h-3.4v-6.9h3.4V-224.5z
									 M1.9-245.2h-3.4v-6.9h3.4V-245.2z M1.9-265.9h-3.4v-6.9h3.4V-265.9z M1.9-286.6h-3.4v-6.9h3.4V-286.6z M1.9-307.3h-3.4
									v-6.9h3.4V-307.3z M1.9-328h-3.4v-6.9h3.4V-328z M1.9-348.7h-3.4v-6.9h3.4V-348.7z M1.9-369.4h-3.4v-6.9h3.4V-369.4z
									 M1.9-390h-3.4v-6.9h3.4V-390z M1.9-410.7h-3.4v-6.9h3.4V-410.7z M1.9-431.4h-3.4v-6.9h3.4V-431.4z M1.9-452.1h-3.4v-6.9
									h3.4V-452.1z M1.9-472.8h-3.4v-6.9h3.4V-472.8z"/>
							</g>
						</g>
					</g>
				</g>
				<g>
					<g>
						<g>
							<rect x="-98" y="-546.3" class="st6" width="100" height="1430.7"/>
						</g>
					</g>
				</g>
			</g>
		</g>
	</g>
	<g>
		<defs>
			<circle id="SVGID_6_" cx="-48.9" cy="150" r="150"/>
		</defs>
		<clipPath id="SVGID_7_">
			<use xlink:href="#SVGID_6_"  style="overflow:visible;"/>
		</clipPath>
		<g class="st7">
			<g>
				<defs>
					<circle id="SVGID_8_" cx="-48.9" cy="150" r="150"/>
				</defs>
				<clipPath id="SVGID_9_">
					<use xlink:href="#SVGID_8_"  style="overflow:visible;"/>
				</clipPath>
			</g>
			<g>
				<defs>
					<circle id="SVGID_10_" cx="-48.9" cy="150" r="150"/>
				</defs>
				<clipPath id="SVGID_11_">
					<use xlink:href="#SVGID_10_"  style="overflow:visible;"/>
				</clipPath>
				<g class="st8">
					<path class="st9" d="M-48.9,5c38.7,0,75.1,15.1,102.5,42.5S96.1,111.3,96.1,150S81,225.1,53.6,252.5S-10.2,295-48.9,295
						s-75.1-15.1-102.5-42.5s-42.5-63.8-42.5-102.5s15.1-75.1,42.5-102.5S-87.6,5-48.9,5 M-48.9,0c-82.8,0-150,67.2-150,150
						s67.2,150,150,150s150-67.2,150-150S33.9,0-48.9,0L-48.9,0z"/>
				</g>
			</g>
		</g>
	</g>
</g>
</svg>
