<?xml version="1.0" encoding="utf-8"?>
<!-- Generator: Adobe Illustrator 19.0.0, SVG Export Plug-In . SVG Version: 6.00 Build 0)  -->
<svg version="1.1" id="Layer_1" xmlns="http://www.w3.org/2000/svg" xmlns:xlink="http://www.w3.org/1999/xlink" x="0px" y="0px"
	 viewBox="-199 0 300 300" style="enable-background:new -199 0 300 300;" xml:space="preserve">
<style type="text/css">
	.st0{fill:#DDDDDD;}
	.st1{clip-path:url(#SVGID_3_);}
	.st2{clip-path:url(#SVGID_4_);}
	.st3{fill:#7F7F7F;}
	.st4{clip-path:url(#SVGID_6_);}
	.st5{clip-path:url(#SVGID_10_);}
	.st6{fill:#9AA0BB;}
</style>
<g>
	<g>
		<circle id="SVGID_1_" class="st0" cx="-48.9" cy="150" r="150"/>
	</g>
	<g>
		<defs>
			<circle id="SVGID_2_" cx="-48.9" cy="150" r="150"/>
		</defs>
		<clipPath id="SVGID_3_">
			<use xlink:href="#SVGID_2_"  style="overflow:visible;"/>
		</clipPath>
		<g class="st1">
			<defs>
				<rect id="SVGID_61_" x="-159" y="-1459.1" width="220" height="2295.2"/>
			</defs>
			<clipPath id="SVGID_4_">
				<use xlink:href="#SVGID_61_"  style="overflow:visible;"/>
			</clipPath>
			<g class="st2">
				<g>
					<g>
						<g>
							<path class="st3" d="M-78.1,801v6.4h58.3v-5.8c-5.6,1-17.7,3-27.5,3C-60.7,804.6-78.1,801-78.1,801z"/>
						</g>
					</g>
					<g>
						<g>
							<path class="st3" d="M-78.1,813.8v6.4h58.3v-5.8c-5.6,1-17.7,3-27.5,3C-60.7,817.4-78.1,813.8-78.1,813.8z"/>
						</g>
					</g>
					<g>
						<g>
							<path class="st3" d="M-78.1,807.4v6.4h58.3V808c-5.6,1-17.7,3-27.5,3C-60.7,811-78.1,807.4-78.1,807.4z"/>
						</g>
					</g>
					<g>
						<g>
							<path class="st3" d="M-78.1,794.6v6.4h58.3v-5.8c-5.6,1-17.7,3-27.5,3C-60.7,798.2-78.1,794.6-78.1,794.6z"/>
						</g>
					</g>
					<g>
						<g>
							<path class="st3" d="M-78.1,788.2v6.4h58.3v-5.8c-5.6,1-17.7,3-27.5,3C-60.7,791.8-78.1,788.2-78.1,788.2z"/>
						</g>
					</g>
					<g>
						<g>
							<path class="st3" d="M-78.1,820.2v6.4h58.3v-5.8c-5.6,1-17.7,3-27.5,3C-60.7,823.8-78.1,820.2-78.1,820.2z"/>
						</g>
					</g>
					<g>
						<g>
							<path class="st3" d="M-78.1,864.9v6.4h58.3v-5.8c-5.6,1-17.7,3-27.5,3C-60.7,868.5-78.1,864.9-78.1,864.9z"/>
						</g>
					</g>
					<g>
						<g>
							<path class="st3" d="M-78.1,877.7v7.9h58.3v-7.3c-5.6,1-17.7,3-27.5,3C-60.7,881.3-78.1,877.7-78.1,877.7z"/>
						</g>
					</g>
					<g>
						<g>
							<path class="st3" d="M-78.1,858.5v6.4h58.3v-5.8c-5.6,1-17.7,3-27.5,3C-60.7,862.1-78.1,858.5-78.1,858.5z"/>
						</g>
					</g>
					<g>
						<g>
							<path class="st3" d="M-78.1,781.9v6.4h58.3v-5.8c-5.6,1-17.7,3-27.5,3C-60.7,785.4-78.1,781.9-78.1,781.9z"/>
						</g>
					</g>
					<g>
						<g>
							<path class="st3" d="M-78.1,826.6v6.4h58.3v-5.8c-5.6,1-17.7,3-27.5,3C-60.7,830.2-78.1,826.6-78.1,826.6z"/>
						</g>
					</g>
					<g>
						<g>
							<path class="st3" d="M-78.1,871.3v6.4h58.3v-5.8c-5.6,1-17.7,3-27.5,3C-60.7,874.9-78.1,871.3-78.1,871.3z"/>
						</g>
					</g>
					<g>
						<g>
							<path class="st3" d="M-78.1,833v6.4h58.3v-5.8c-5.6,1-17.7,3-27.5,3C-60.7,836.5-78.1,833-78.1,833z"/>
						</g>
					</g>
					<g>
						<g>
							<path class="st3" d="M-78.1,839.4v6.4h58.3V840c-5.6,1-17.7,3-27.5,3C-60.7,842.9-78.1,839.4-78.1,839.4z"/>
						</g>
					</g>
					<g>
						<g>
							<path class="st3" d="M-78.1,845.7v6.4h58.3v-5.8c-5.6,1-17.7,3-27.5,3C-60.7,849.3-78.1,845.7-78.1,845.7z"/>
						</g>
					</g>
					<g>
						<g>
							<path class="st3" d="M-78.1,852.1v6.4h58.3v-5.8c-5.6,1-17.7,3-27.5,3C-60.7,855.7-78.1,852.1-78.1,852.1z"/>
						</g>
					</g>
					<g>
						<g>
							<path class="st3" d="M-78.1,769.1v6.4h58.3v-5.8c-5.6,1-17.7,3-27.5,3C-60.7,772.6-78.1,769.1-78.1,769.1z"/>
						</g>
					</g>
					<g>
						<g>
							<path class="st3" d="M-78.1,762.7v6.4h58.3v-5.8c-5.6,1-17.7,3-27.5,3C-60.7,766.3-78.1,762.7-78.1,762.7z"/>
						</g>
					</g>
					<g>
						<g>
							<path class="st3" d="M-19.9,744.1c-5.6,1-17.7-0.6-27.5-0.6c-13.3,0-30.8,0-30.8,0v6.4h58.3V744.1z"/>
						</g>
					</g>
					<g>
						<g>
							<path class="st3" d="M-47.4,753.5c-13.3,0-30.8-3.6-30.8-3.6v6.4h58.3v-5.8C-25.5,751.5-37.5,753.5-47.4,753.5z"/>
						</g>
					</g>
					<g>
						<g>
							<path class="st3" d="M-78.1,756.3v6.4h58.3v-5.8c-5.6,1-17.7,3-27.5,3C-60.7,759.9-78.1,756.3-78.1,756.3z"/>
						</g>
					</g>
					<g>
						<g>
							<path class="st3" d="M-78.1,775.5v6.4h58.3v-5.8c-5.6,1-17.7,3-27.5,3C-60.7,779-78.1,775.5-78.1,775.5z"/>
						</g>
					</g>
				</g>
				<g>
					<g>
						<polygon class="st3" points="-21.4,953.8 -79.7,886.9 -76.6,884.3 -18.3,951.2 						"/>
					</g>
				</g>
				<g>
					<g>
						<g>
							<path class="st3" d="M-78.1,595.3v6.4h58.3v-5.8c-5.6,1-17.7,3-27.5,3C-60.7,598.8-78.1,595.3-78.1,595.3z"/>
						</g>
					</g>
					<g>
						<g>
							<path class="st3" d="M-78.1,608v6.4h58.3v-5.8c-5.6,1-17.7,3-27.5,3C-60.7,611.6-78.1,608-78.1,608z"/>
						</g>
					</g>
					<g>
						<g>
							<path class="st3" d="M-78.1,601.6v6.4h58.3v-5.8c-5.6,1-17.7,3-27.5,3C-60.7,605.2-78.1,601.6-78.1,601.6z"/>
						</g>
					</g>
					<g>
						<g>
							<path class="st3" d="M-78.1,588.9v6.4h58.3v-5.8c-5.6,1-17.7,3-27.5,3C-60.7,592.4-78.1,588.9-78.1,588.9z"/>
						</g>
					</g>
					<g>
						<g>
							<path class="st3" d="M-78.1,582.5v6.4h58.3v-5.8c-5.6,1-17.7,3-27.5,3C-60.7,586-78.1,582.5-78.1,582.5z"/>
						</g>
					</g>
					<g>
						<g>
							<path class="st3" d="M-78.1,614.4v6.4h58.3V615c-5.6,1-17.7,3-27.5,3C-60.7,618-78.1,614.4-78.1,614.4z"/>
						</g>
					</g>
					<g>
						<g>
							<path class="st3" d="M-78.1,659.1v6.4h58.3v-5.8c-5.6,1-17.7,3-27.5,3C-60.7,662.7-78.1,659.1-78.1,659.1z"/>
						</g>
					</g>
					<g>
						<g>
							<path class="st3" d="M-78.1,671.9v7.9h58.3v-7.3c-5.6,1-17.7,3-27.5,3C-60.7,675.5-78.1,671.9-78.1,671.9z"/>
						</g>
					</g>
					<g>
						<g>
							<path class="st3" d="M-78.1,652.8v6.4h58.3v-5.8c-5.6,1-17.7,3-27.5,3C-60.7,656.3-78.1,652.8-78.1,652.8z"/>
						</g>
					</g>
					<g>
						<g>
							<path class="st3" d="M-78.1,576.1v6.4h58.3v-5.8c-5.6,1-17.7,3-27.5,3C-60.7,579.7-78.1,576.1-78.1,576.1z"/>
						</g>
					</g>
					<g>
						<g>
							<path class="st3" d="M-78.1,620.8v6.4h58.3v-5.8c-5.6,1-17.7,3-27.5,3C-60.7,624.4-78.1,620.8-78.1,620.8z"/>
						</g>
					</g>
					<g>
						<g>
							<path class="st3" d="M-78.1,665.5v6.4h58.3v-5.8c-5.6,1-17.7,3-27.5,3C-60.7,669.1-78.1,665.5-78.1,665.5z"/>
						</g>
					</g>
					<g>
						<g>
							<path class="st3" d="M-78.1,627.2v6.4h58.3v-5.8c-5.6,1-17.7,3-27.5,3C-60.7,630.8-78.1,627.2-78.1,627.2z"/>
						</g>
					</g>
					<g>
						<g>
							<path class="st3" d="M-78.1,633.6v6.4h58.3v-5.8c-5.6,1-17.7,3-27.5,3C-60.7,637.2-78.1,633.6-78.1,633.6z"/>
						</g>
					</g>
					<g>
						<g>
							<path class="st3" d="M-78.1,640v6.4h58.3v-5.8c-5.6,1-17.7,3-27.5,3C-60.7,643.5-78.1,640-78.1,640z"/>
						</g>
					</g>
					<g>
						<g>
							<path class="st3" d="M-78.1,646.4v6.4h58.3V647c-5.6,1-17.7,3-27.5,3C-60.7,649.9-78.1,646.4-78.1,646.4z"/>
						</g>
					</g>
					<g>
						<g>
							<path class="st3" d="M-78.1,563.3v6.4h58.3v-5.8c-5.6,1-17.7,3-27.5,3C-60.7,566.9-78.1,563.3-78.1,563.3z"/>
						</g>
					</g>
					<g>
						<g>
							<path class="st3" d="M-78.1,556.9v6.4h58.3v-5.8c-5.6,1-17.7,3-27.5,3C-60.7,560.5-78.1,556.9-78.1,556.9z"/>
						</g>
					</g>
					<g>
						<g>
							<path class="st3" d="M-19.9,538.4c-5.6,1-17.7-0.6-27.5-0.6c-13.3,0-30.8,0-30.8,0v6.4h58.3V538.4z"/>
						</g>
					</g>
					<g>
						<g>
							<path class="st3" d="M-47.4,547.7c-13.3,0-30.8-3.6-30.8-3.6v6.4h58.3v-5.8C-25.5,545.8-37.5,547.7-47.4,547.7z"/>
						</g>
					</g>
					<g>
						<g>
							<path class="st3" d="M-78.1,550.5v6.4h58.3v-5.8c-5.6,1-17.7,3-27.5,3C-60.7,554.1-78.1,550.5-78.1,550.5z"/>
						</g>
					</g>
					<g>
						<g>
							<path class="st3" d="M-78.1,569.7v6.4h58.3v-5.8c-5.6,1-17.7,3-27.5,3C-60.7,573.3-78.1,569.7-78.1,569.7z"/>
						</g>
					</g>
				</g>
				<g>
					<g>
						<polygon class="st3" points="-21.4,748 -79.7,681.2 -76.6,678.5 -18.3,745.4 						"/>
					</g>
				</g>
				<g>
					<g>
						<g>
							<path class="st3" d="M-78.1,389.5v6.4h58.3v-5.8c-5.6,1-17.7,3-27.5,3C-60.7,393.1-78.1,389.5-78.1,389.5z"/>
						</g>
					</g>
					<g>
						<g>
							<path class="st3" d="M-78.1,402.3v6.4h58.3v-5.8c-5.6,1-17.7,3-27.5,3C-60.7,405.8-78.1,402.3-78.1,402.3z"/>
						</g>
					</g>
					<g>
						<g>
							<path class="st3" d="M-78.1,395.9v6.4h58.3v-5.8c-5.6,1-17.7,3-27.5,3C-60.7,399.4-78.1,395.9-78.1,395.9z"/>
						</g>
					</g>
					<g>
						<g>
							<path class="st3" d="M-78.1,383.1v6.4h58.3v-5.8c-5.6,1-17.7,3-27.5,3C-60.7,386.7-78.1,383.1-78.1,383.1z"/>
						</g>
					</g>
					<g>
						<g>
							<path class="st3" d="M-78.1,376.7v6.4h58.3v-5.8c-5.6,1-17.7,3-27.5,3C-60.7,380.3-78.1,376.7-78.1,376.7z"/>
						</g>
					</g>
					<g>
						<g>
							<path class="st3" d="M-78.1,408.7v6.4h58.3v-5.8c-5.6,1-17.7,3-27.5,3C-60.7,412.2-78.1,408.7-78.1,408.7z"/>
						</g>
					</g>
					<g>
						<g>
							<path class="st3" d="M-78.1,453.4v6.4h58.3V454c-5.6,1-17.7,3-27.5,3C-60.7,457-78.1,453.4-78.1,453.4z"/>
						</g>
					</g>
					<g>
						<g>
							<path class="st3" d="M-78.1,466.1v7.9h58.3v-7.3c-5.6,1-17.7,3-27.5,3C-60.7,469.7-78.1,466.1-78.1,466.1z"/>
						</g>
					</g>
					<g>
						<g>
							<path class="st3" d="M-78.1,447v6.4h58.3v-5.8c-5.6,1-17.7,3-27.5,3C-60.7,450.6-78.1,447-78.1,447z"/>
						</g>
					</g>
					<g>
						<g>
							<path class="st3" d="M-78.1,370.3v6.4h58.3v-5.8c-5.6,1-17.7,3-27.5,3C-60.7,373.9-78.1,370.3-78.1,370.3z"/>
						</g>
					</g>
					<g>
						<g>
							<path class="st3" d="M-78.1,415v6.4h58.3v-5.8c-5.6,1-17.7,3-27.5,3C-60.7,418.6-78.1,415-78.1,415z"/>
						</g>
					</g>
					<g>
						<g>
							<path class="st3" d="M-78.1,459.8v6.4h58.3v-5.8c-5.6,1-17.7,3-27.5,3C-60.7,463.3-78.1,459.8-78.1,459.8z"/>
						</g>
					</g>
					<g>
						<g>
							<path class="st3" d="M-78.1,421.4v6.4h58.3V422c-5.6,1-17.7,3-27.5,3C-60.7,425-78.1,421.4-78.1,421.4z"/>
						</g>
					</g>
					<g>
						<g>
							<path class="st3" d="M-78.1,427.8v6.4h58.3v-5.8c-5.6,1-17.7,3-27.5,3C-60.7,431.4-78.1,427.8-78.1,427.8z"/>
						</g>
					</g>
					<g>
						<g>
							<path class="st3" d="M-78.1,434.2v6.4h58.3v-5.8c-5.6,1-17.7,3-27.5,3C-60.7,437.8-78.1,434.2-78.1,434.2z"/>
						</g>
					</g>
					<g>
						<g>
							<path class="st3" d="M-78.1,440.6v6.4h58.3v-5.8c-5.6,1-17.7,3-27.5,3C-60.7,444.2-78.1,440.6-78.1,440.6z"/>
						</g>
					</g>
					<g>
						<g>
							<path class="st3" d="M-78.1,357.5v6.4h58.3v-5.8c-5.6,1-17.7,3-27.5,3C-60.7,361.1-78.1,357.5-78.1,357.5z"/>
						</g>
					</g>
					<g>
						<g>
							<path class="st3" d="M-78.1,351.1v6.4h58.3v-5.8c-5.6,1-17.7,3-27.5,3C-60.7,354.7-78.1,351.1-78.1,351.1z"/>
						</g>
					</g>
					<g>
						<g>
							<path class="st3" d="M-19.9,332.6c-5.6,1-17.7-0.6-27.5-0.6c-13.3,0-30.8,0-30.8,0v6.4h58.3V332.6z"/>
						</g>
					</g>
					<g>
						<g>
							<path class="st3" d="M-47.4,341.9c-13.3,0-30.8-3.6-30.8-3.6v6.4h58.3V339C-25.5,340-37.5,341.9-47.4,341.9z"/>
						</g>
					</g>
					<g>
						<g>
							<path class="st3" d="M-78.1,344.8v6.4h58.3v-5.8c-5.6,1-17.7,3-27.5,3C-60.7,348.3-78.1,344.8-78.1,344.8z"/>
						</g>
					</g>
					<g>
						<g>
							<path class="st3" d="M-78.1,363.9v6.4h58.3v-5.8c-5.6,1-17.7,3-27.5,3C-60.7,367.5-78.1,363.9-78.1,363.9z"/>
						</g>
					</g>
				</g>
				<g>
					<g>
						<polygon class="st3" points="-21.4,542.3 -79.7,475.4 -76.6,472.7 -18.3,539.6 						"/>
					</g>
				</g>
				<g>
					<g>
						<g>
							<path class="st3" d="M-78.1,183.7v6.4h58.3v-5.8c-5.6,1-17.7,3-27.5,3C-60.7,187.3-78.1,183.7-78.1,183.7z"/>
						</g>
					</g>
					<g>
						<g>
							<path class="st3" d="M-78.1,196.5v6.4h58.3v-5.8c-5.6,1-17.7,3-27.5,3C-60.7,200.1-78.1,196.5-78.1,196.5z"/>
						</g>
					</g>
					<g>
						<g>
							<path class="st3" d="M-78.1,190.1v6.4h58.3v-5.8c-5.6,1-17.7,3-27.5,3C-60.7,193.7-78.1,190.1-78.1,190.1z"/>
						</g>
					</g>
					<g>
						<g>
							<path class="st3" d="M-78.1,177.3v6.4h58.3v-5.8c-5.6,1-17.7,3-27.5,3C-60.7,180.9-78.1,177.3-78.1,177.3z"/>
						</g>
					</g>
					<g>
						<g>
							<path class="st3" d="M-78.1,170.9v6.4h58.3v-5.8c-5.6,1-17.7,3-27.5,3C-60.7,174.5-78.1,170.9-78.1,170.9z"/>
						</g>
					</g>
					<g>
						<g>
							<path class="st3" d="M-78.1,202.9v6.4h58.3v-5.8c-5.6,1-17.7,3-27.5,3C-60.7,206.5-78.1,202.9-78.1,202.9z"/>
						</g>
					</g>
					<g>
						<g>
							<path class="st3" d="M-78.1,247.6v6.4h58.3v-5.8c-5.6,1-17.7,3-27.5,3C-60.7,251.2-78.1,247.6-78.1,247.6z"/>
						</g>
					</g>
					<g>
						<g>
							<path class="st3" d="M-78.1,260.4v7.9h58.3V261c-5.6,1-17.7,3-27.5,3C-60.7,264-78.1,260.4-78.1,260.4z"/>
						</g>
					</g>
					<g>
						<g>
							<path class="st3" d="M-78.1,241.2v6.4h58.3v-5.8c-5.6,1-17.7,3-27.5,3C-60.7,244.8-78.1,241.2-78.1,241.2z"/>
						</g>
					</g>
					<g>
						<g>
							<path class="st3" d="M-78.1,164.6v6.4h58.3v-5.8c-5.6,1-17.7,3-27.5,3C-60.7,168.1-78.1,164.6-78.1,164.6z"/>
						</g>
					</g>
					<g>
						<g>
							<path class="st3" d="M-78.1,209.3v6.4h58.3v-5.8c-5.6,1-17.7,3-27.5,3C-60.7,212.8-78.1,209.3-78.1,209.3z"/>
						</g>
					</g>
					<g>
						<g>
							<path class="st3" d="M-78.1,254v6.4h58.3v-5.8c-5.6,1-17.7,3-27.5,3C-60.7,257.6-78.1,254-78.1,254z"/>
						</g>
					</g>
					<g>
						<g>
							<path class="st3" d="M-78.1,215.7v6.4h58.3v-5.8c-5.6,1-17.7,3-27.5,3C-60.7,219.2-78.1,215.7-78.1,215.7z"/>
						</g>
					</g>
					<g>
						<g>
							<path class="st3" d="M-78.1,222.1v6.4h58.3v-5.8c-5.6,1-17.7,3-27.5,3C-60.7,225.6-78.1,222.1-78.1,222.1z"/>
						</g>
					</g>
					<g>
						<g>
							<path class="st3" d="M-78.1,228.4v6.4h58.3v-5.8c-5.6,1-17.7,3-27.5,3C-60.7,232-78.1,228.4-78.1,228.4z"/>
						</g>
					</g>
					<g>
						<g>
							<path class="st3" d="M-78.1,234.8v6.4h58.3v-5.8c-5.6,1-17.7,3-27.5,3C-60.7,238.4-78.1,234.8-78.1,234.8z"/>
						</g>
					</g>
					<g>
						<g>
							<path class="st3" d="M-78.1,151.8v6.4h58.3v-5.8c-5.6,1-17.7,3-27.5,3C-60.7,155.3-78.1,151.8-78.1,151.8z"/>
						</g>
					</g>
					<g>
						<g>
							<path class="st3" d="M-78.1,145.4v6.4h58.3V146c-5.6,1-17.7,3-27.5,3C-60.7,149-78.1,145.4-78.1,145.4z"/>
						</g>
					</g>
					<g>
						<g>
							<path class="st3" d="M-19.9,126.8c-5.6,1-17.7-0.6-27.5-0.6c-13.3,0-30.8,0-30.8,0v6.4h58.3V126.8z"/>
						</g>
					</g>
					<g>
						<g>
							<path class="st3" d="M-47.4,136.2c-13.3,0-30.8-3.6-30.8-3.6v6.4h58.3v-5.8C-25.5,134.2-37.5,136.2-47.4,136.2z"/>
						</g>
					</g>
					<g>
						<g>
							<path class="st3" d="M-78.1,139v6.4h58.3v-5.8c-5.6,1-17.7,3-27.5,3C-60.7,142.6-78.1,139-78.1,139z"/>
						</g>
					</g>
					<g>
						<g>
							<path class="st3" d="M-78.1,158.2v6.4h58.3v-5.8c-5.6,1-17.7,3-27.5,3C-60.7,161.7-78.1,158.2-78.1,158.2z"/>
						</g>
					</g>
				</g>
				<g>
					<g>
						<polygon class="st3" points="-21.4,336.5 -79.7,269.6 -76.6,267 -18.3,333.8 						"/>
					</g>
				</g>
				<g>
					<g>
						<g>
							<path class="st3" d="M-78.1-22v6.4h58.3v-5.8c-5.6,1-17.7,3-27.5,3C-60.7-18.5-78.1-22-78.1-22z"/>
						</g>
					</g>
					<g>
						<g>
							<path class="st3" d="M-78.1-9.3v6.4h58.3v-5.8c-5.6,1-17.7,3-27.5,3C-60.7-5.7-78.1-9.3-78.1-9.3z"/>
						</g>
					</g>
					<g>
						<g>
							<path class="st3" d="M-78.1-15.7v6.4h58.3v-5.8c-5.6,1-17.7,3-27.5,3C-60.7-12.1-78.1-15.7-78.1-15.7z"/>
						</g>
					</g>
					<g>
						<g>
							<path class="st3" d="M-78.1-28.4v6.4h58.3v-5.8c-5.6,1-17.7,3-27.5,3C-60.7-24.9-78.1-28.4-78.1-28.4z"/>
						</g>
					</g>
					<g>
						<g>
							<path class="st3" d="M-78.1-34.8v6.4h58.3v-5.8c-5.6,1-17.7,3-27.5,3C-60.7-31.3-78.1-34.8-78.1-34.8z"/>
						</g>
					</g>
					<g>
						<g>
							<path class="st3" d="M-78.1-2.9v6.4h58.3v-5.8c-5.6,1-17.7,3-27.5,3C-60.7,0.7-78.1-2.9-78.1-2.9z"/>
						</g>
					</g>
					<g>
						<g>
							<path class="st3" d="M-78.1,41.8v6.4h58.3v-5.8c-5.6,1-17.7,3-27.5,3C-60.7,45.4-78.1,41.8-78.1,41.8z"/>
						</g>
					</g>
					<g>
						<g>
							<path class="st3" d="M-78.1,54.6v7.9h58.3v-7.3c-5.6,1-17.7,3-27.5,3C-60.7,58.2-78.1,54.6-78.1,54.6z"/>
						</g>
					</g>
					<g>
						<g>
							<path class="st3" d="M-78.1,35.4v6.4h58.3v-5.8c-5.6,1-17.7,3-27.5,3C-60.7,39-78.1,35.4-78.1,35.4z"/>
						</g>
					</g>
					<g>
						<g>
							<path class="st3" d="M-78.1-41.2v6.4h58.3v-5.8c-5.6,1-17.7,3-27.5,3C-60.7-37.6-78.1-41.2-78.1-41.2z"/>
						</g>
					</g>
					<g>
						<g>
							<path class="st3" d="M-78.1,3.5v6.4h58.3V4.1c-5.6,1-17.7,3-27.5,3C-60.7,7.1-78.1,3.5-78.1,3.5z"/>
						</g>
					</g>
					<g>
						<g>
							<path class="st3" d="M-78.1,48.2v6.4h58.3v-5.8c-5.6,1-17.7,3-27.5,3C-60.7,51.8-78.1,48.2-78.1,48.2z"/>
						</g>
					</g>
					<g>
						<g>
							<path class="st3" d="M-78.1,9.9v6.4h58.3v-5.8c-5.6,1-17.7,3-27.5,3C-60.7,13.5-78.1,9.9-78.1,9.9z"/>
						</g>
					</g>
					<g>
						<g>
							<path class="st3" d="M-78.1,16.3v6.4h58.3v-5.8c-5.6,1-17.7,3-27.5,3C-60.7,19.9-78.1,16.3-78.1,16.3z"/>
						</g>
					</g>
					<g>
						<g>
							<path class="st3" d="M-78.1,22.7v6.4h58.3v-5.8c-5.6,1-17.7,3-27.5,3C-60.7,26.2-78.1,22.7-78.1,22.7z"/>
						</g>
					</g>
					<g>
						<g>
							<path class="st3" d="M-78.1,29.1v6.4h58.3v-5.8c-5.6,1-17.7,3-27.5,3C-60.7,32.6-78.1,29.1-78.1,29.1z"/>
						</g>
					</g>
					<g>
						<g>
							<path class="st3" d="M-78.1-54v6.4h58.3v-5.8c-5.6,1-17.7,3-27.5,3C-60.7-50.4-78.1-54-78.1-54z"/>
						</g>
					</g>
					<g>
						<g>
							<path class="st3" d="M-78.1-60.4v6.4h58.3v-5.8c-5.6,1-17.7,3-27.5,3C-60.7-56.8-78.1-60.4-78.1-60.4z"/>
						</g>
					</g>
					<g>
						<g>
							<path class="st3" d="M-19.9-78.9c-5.6,1-17.7-0.6-27.5-0.6c-13.3,0-30.8,0-30.8,0v6.4h58.3V-78.9z"/>
						</g>
					</g>
					<g>
						<g>
							<path class="st3" d="M-47.4-69.6c-13.3,0-30.8-3.6-30.8-3.6v6.4h58.3v-5.8C-25.5-71.5-37.5-69.6-47.4-69.6z"/>
						</g>
					</g>
					<g>
						<g>
							<path class="st3" d="M-78.1-66.8v6.4h58.3v-5.8c-5.6,1-17.7,3-27.5,3C-60.7-63.2-78.1-66.8-78.1-66.8z"/>
						</g>
					</g>
					<g>
						<g>
							<path class="st3" d="M-78.1-47.6v6.4h58.3V-47c-5.6,1-17.7,3-27.5,3C-60.7-44-78.1-47.6-78.1-47.6z"/>
						</g>
					</g>
				</g>
				<g>
					<g>
						<polygon class="st3" points="-21.4,130.7 -79.7,63.8 -76.6,61.2 -18.3,128.1 						"/>
					</g>
				</g>
				<g>
					<g>
						<g>
							<path class="st3" d="M-78.1-227.8v6.4h58.3v-5.8c-5.6,1-17.7,3-27.5,3C-60.7-224.3-78.1-227.8-78.1-227.8z"/>
						</g>
					</g>
					<g>
						<g>
							<path class="st3" d="M-78.1-215v6.4h58.3v-5.8c-5.6,1-17.7,3-27.5,3C-60.7-211.5-78.1-215-78.1-215z"/>
						</g>
					</g>
					<g>
						<g>
							<path class="st3" d="M-78.1-221.4v6.4h58.3v-5.8c-5.6,1-17.7,3-27.5,3C-60.7-217.9-78.1-221.4-78.1-221.4z"/>
						</g>
					</g>
					<g>
						<g>
							<path class="st3" d="M-78.1-234.2v6.4h58.3v-5.8c-5.6,1-17.7,3-27.5,3C-60.7-230.6-78.1-234.2-78.1-234.2z"/>
						</g>
					</g>
					<g>
						<g>
							<path class="st3" d="M-78.1-240.6v6.4h58.3v-5.8c-5.6,1-17.7,3-27.5,3C-60.7-237-78.1-240.6-78.1-240.6z"/>
						</g>
					</g>
					<g>
						<g>
							<path class="st3" d="M-78.1-208.7v6.4h58.3v-5.8c-5.6,1-17.7,3-27.5,3C-60.7-205.1-78.1-208.7-78.1-208.7z"/>
						</g>
					</g>
					<g>
						<g>
							<path class="st3" d="M-78.1-163.9v6.4h58.3v-5.8c-5.6,1-17.7,3-27.5,3C-60.7-160.4-78.1-163.9-78.1-163.9z"/>
						</g>
					</g>
					<g>
						<g>
							<path class="st3" d="M-78.1-151.2v7.9h58.3v-7.3c-5.6,1-17.7,3-27.5,3C-60.7-147.6-78.1-151.2-78.1-151.2z"/>
						</g>
					</g>
					<g>
						<g>
							<path class="st3" d="M-78.1-170.3v6.4h58.3v-5.8c-5.6,1-17.7,3-27.5,3C-60.7-166.7-78.1-170.3-78.1-170.3z"/>
						</g>
					</g>
					<g>
						<g>
							<path class="st3" d="M-78.1-247v6.4h58.3v-5.8c-5.6,1-17.7,3-27.5,3C-60.7-243.4-78.1-247-78.1-247z"/>
						</g>
					</g>
					<g>
						<g>
							<path class="st3" d="M-78.1-202.3v6.4h58.3v-5.8c-5.6,1-17.7,3-27.5,3C-60.7-198.7-78.1-202.3-78.1-202.3z"/>
						</g>
					</g>
					<g>
						<g>
							<path class="st3" d="M-78.1-157.5v6.4h58.3v-5.8c-5.6,1-17.7,3-27.5,3C-60.7-154-78.1-157.5-78.1-157.5z"/>
						</g>
					</g>
					<g>
						<g>
							<path class="st3" d="M-78.1-195.9v6.4h58.3v-5.8c-5.6,1-17.7,3-27.5,3C-60.7-192.3-78.1-195.9-78.1-195.9z"/>
						</g>
					</g>
					<g>
						<g>
							<path class="st3" d="M-78.1-189.5v6.4h58.3v-5.8c-5.6,1-17.7,3-27.5,3C-60.7-185.9-78.1-189.5-78.1-189.5z"/>
						</g>
					</g>
					<g>
						<g>
							<path class="st3" d="M-78.1-183.1v6.4h58.3v-5.8c-5.6,1-17.7,3-27.5,3C-60.7-179.5-78.1-183.1-78.1-183.1z"/>
						</g>
					</g>
					<g>
						<g>
							<path class="st3" d="M-78.1-176.7v6.4h58.3v-5.8c-5.6,1-17.7,3-27.5,3C-60.7-173.1-78.1-176.7-78.1-176.7z"/>
						</g>
					</g>
					<g>
						<g>
							<path class="st3" d="M-78.1-259.8v6.4h58.3v-5.8c-5.6,1-17.7,3-27.5,3C-60.7-256.2-78.1-259.8-78.1-259.8z"/>
						</g>
					</g>
					<g>
						<g>
							<path class="st3" d="M-78.1-266.2v6.4h58.3v-5.8c-5.6,1-17.7,3-27.5,3C-60.7-262.6-78.1-266.2-78.1-266.2z"/>
						</g>
					</g>
					<g>
						<g>
							<path class="st3" d="M-19.9-284.7c-5.6,1-17.7-0.6-27.5-0.6c-13.3,0-30.8,0-30.8,0v6.4h58.3V-284.7z"/>
						</g>
					</g>
					<g>
						<g>
							<path class="st3" d="M-47.4-275.4c-13.3,0-30.8-3.6-30.8-3.6v6.4h58.3v-5.8C-25.5-277.3-37.5-275.4-47.4-275.4z"/>
						</g>
					</g>
					<g>
						<g>
							<path class="st3" d="M-78.1-272.5v6.4h58.3v-5.8c-5.6,1-17.7,3-27.5,3C-60.7-269-78.1-272.5-78.1-272.5z"/>
						</g>
					</g>
					<g>
						<g>
							<path class="st3" d="M-78.1-253.4v6.4h58.3v-5.8c-5.6,1-17.7,3-27.5,3C-60.7-249.8-78.1-253.4-78.1-253.4z"/>
						</g>
					</g>
				</g>
				<g>
					<g>
						<polygon class="st3" points="-21.4,-75 -79.7,-141.9 -76.6,-144.6 -18.3,-77.7 						"/>
					</g>
				</g>
				<g>
					<g>
						<g>
							<path class="st3" d="M-78.1-433.6v6.4h58.3v-5.8c-5.6,1-17.7,3-27.5,3C-60.7-430-78.1-433.6-78.1-433.6z"/>
						</g>
					</g>
					<g>
						<g>
							<path class="st3" d="M-78.1-420.8v6.4h58.3v-5.8c-5.6,1-17.7,3-27.5,3C-60.7-417.2-78.1-420.8-78.1-420.8z"/>
						</g>
					</g>
					<g>
						<g>
							<path class="st3" d="M-78.1-427.2v6.4h58.3v-5.8c-5.6,1-17.7,3-27.5,3C-60.7-423.6-78.1-427.2-78.1-427.2z"/>
						</g>
					</g>
					<g>
						<g>
							<path class="st3" d="M-78.1-440v6.4h58.3v-5.8c-5.6,1-17.7,3-27.5,3C-60.7-436.4-78.1-440-78.1-440z"/>
						</g>
					</g>
					<g>
						<g>
							<path class="st3" d="M-78.1-446.4v6.4h58.3v-5.8c-5.6,1-17.7,3-27.5,3C-60.7-442.8-78.1-446.4-78.1-446.4z"/>
						</g>
					</g>
					<g>
						<g>
							<path class="st3" d="M-78.1-414.4v6.4h58.3v-5.8c-5.6,1-17.7,3-27.5,3C-60.7-410.8-78.1-414.4-78.1-414.4z"/>
						</g>
					</g>
					<g>
						<g>
							<path class="st3" d="M-78.1-369.7v6.4h58.3v-5.8c-5.6,1-17.7,3-27.5,3C-60.7-366.1-78.1-369.7-78.1-369.7z"/>
						</g>
					</g>
					<g>
						<g>
							<path class="st3" d="M-78.1-356.9v7.9h58.3v-7.3c-5.6,1-17.7,3-27.5,3C-60.7-353.3-78.1-356.9-78.1-356.9z"/>
						</g>
					</g>
					<g>
						<g>
							<path class="st3" d="M-78.1-376.1v6.4h58.3v-5.8c-5.6,1-17.7,3-27.5,3C-60.7-372.5-78.1-376.1-78.1-376.1z"/>
						</g>
					</g>
					<g>
						<g>
							<path class="st3" d="M-78.1-452.7v6.4h58.3v-5.8c-5.6,1-17.7,3-27.5,3C-60.7-449.2-78.1-452.7-78.1-452.7z"/>
						</g>
					</g>
					<g>
						<g>
							<path class="st3" d="M-78.1-408v6.4h58.3v-5.8c-5.6,1-17.7,3-27.5,3C-60.7-404.5-78.1-408-78.1-408z"/>
						</g>
					</g>
					<g>
						<g>
							<path class="st3" d="M-78.1-363.3v6.4h58.3v-5.8c-5.6,1-17.7,3-27.5,3C-60.7-359.7-78.1-363.3-78.1-363.3z"/>
						</g>
					</g>
					<g>
						<g>
							<path class="st3" d="M-78.1-401.6v6.4h58.3v-5.8c-5.6,1-17.7,3-27.5,3C-60.7-398.1-78.1-401.6-78.1-401.6z"/>
						</g>
					</g>
					<g>
						<g>
							<path class="st3" d="M-78.1-395.3v6.4h58.3v-5.8c-5.6,1-17.7,3-27.5,3C-60.7-391.7-78.1-395.3-78.1-395.3z"/>
						</g>
					</g>
					<g>
						<g>
							<path class="st3" d="M-78.1-388.9v6.4h58.3v-5.8c-5.6,1-17.7,3-27.5,3C-60.7-385.3-78.1-388.9-78.1-388.9z"/>
						</g>
					</g>
					<g>
						<g>
							<path class="st3" d="M-78.1-382.5v6.4h58.3v-5.8c-5.6,1-17.7,3-27.5,3C-60.7-378.9-78.1-382.5-78.1-382.5z"/>
						</g>
					</g>
					<g>
						<g>
							<path class="st3" d="M-78.1-465.5v6.4h58.3v-5.8c-5.6,1-17.7,3-27.5,3C-60.7-462-78.1-465.5-78.1-465.5z"/>
						</g>
					</g>
					<g>
						<g>
							<path class="st3" d="M-78.1-471.9v6.4h58.3v-5.8c-5.6,1-17.7,3-27.5,3C-60.7-468.3-78.1-471.9-78.1-471.9z"/>
						</g>
					</g>
					<g>
						<g>
							<path class="st3" d="M-19.9-490.5c-5.6,1-17.7-0.6-27.5-0.6c-13.3,0-30.8,0-30.8,0v6.4h58.3V-490.5z"/>
						</g>
					</g>
					<g>
						<g>
							<path class="st3" d="M-47.4-481.1c-13.3,0-30.8-3.6-30.8-3.6v6.4h58.3v-5.8C-25.5-483.1-37.5-481.1-47.4-481.1z"/>
						</g>
					</g>
					<g>
						<g>
							<path class="st3" d="M-78.1-478.3v6.4h58.3v-5.8c-5.6,1-17.7,3-27.5,3C-60.7-474.7-78.1-478.3-78.1-478.3z"/>
						</g>
					</g>
					<g>
						<g>
							<path class="st3" d="M-78.1-459.1v6.4h58.3v-5.8c-5.6,1-17.7,3-27.5,3C-60.7-455.6-78.1-459.1-78.1-459.1z"/>
						</g>
					</g>
				</g>
				<g>
					<g>
						<polygon class="st3" points="-21.4,-280.8 -79.7,-347.7 -76.6,-350.3 -18.3,-283.5 						"/>
					</g>
				</g>
				<g>
					<g>
						<g>
							<path class="st3" d="M-78.1-639.4v6.4h58.3v-5.8c-5.6,1-17.7,3-27.5,3C-60.7-635.8-78.1-639.4-78.1-639.4z"/>
						</g>
					</g>
					<g>
						<g>
							<path class="st3" d="M-78.1-626.6v6.4h58.3v-5.8c-5.6,1-17.7,3-27.5,3C-60.7-623-78.1-626.6-78.1-626.6z"/>
						</g>
					</g>
					<g>
						<g>
							<path class="st3" d="M-78.1-633v6.4h58.3v-5.8c-5.6,1-17.7,3-27.5,3C-60.7-629.4-78.1-633-78.1-633z"/>
						</g>
					</g>
					<g>
						<g>
							<path class="st3" d="M-78.1-645.7v6.4h58.3v-5.8c-5.6,1-17.7,3-27.5,3C-60.7-642.2-78.1-645.7-78.1-645.7z"/>
						</g>
					</g>
					<g>
						<g>
							<path class="st3" d="M-78.1-652.1v6.4h58.3v-5.8c-5.6,1-17.7,3-27.5,3C-60.7-648.6-78.1-652.1-78.1-652.1z"/>
						</g>
					</g>
					<g>
						<g>
							<path class="st3" d="M-78.1-620.2v6.4h58.3v-5.8c-5.6,1-17.7,3-27.5,3C-60.7-616.6-78.1-620.2-78.1-620.2z"/>
						</g>
					</g>
					<g>
						<g>
							<path class="st3" d="M-78.1-575.5v6.4h58.3v-5.8c-5.6,1-17.7,3-27.5,3C-60.7-571.9-78.1-575.5-78.1-575.5z"/>
						</g>
					</g>
					<g>
						<g>
							<path class="st3" d="M-78.1-562.7v7.9h58.3v-7.3c-5.6,1-17.7,3-27.5,3C-60.7-559.1-78.1-562.7-78.1-562.7z"/>
						</g>
					</g>
					<g>
						<g>
							<path class="st3" d="M-78.1-581.9v6.4h58.3v-5.8c-5.6,1-17.7,3-27.5,3C-60.7-578.3-78.1-581.9-78.1-581.9z"/>
						</g>
					</g>
					<g>
						<g>
							<path class="st3" d="M-78.1-658.5v6.4h58.3v-5.8c-5.6,1-17.7,3-27.5,3C-60.7-655-78.1-658.5-78.1-658.5z"/>
						</g>
					</g>
					<g>
						<g>
							<path class="st3" d="M-78.1-613.8v6.4h58.3v-5.8c-5.6,1-17.7,3-27.5,3C-60.7-610.2-78.1-613.8-78.1-613.8z"/>
						</g>
					</g>
					<g>
						<g>
							<path class="st3" d="M-78.1-569.1v6.4h58.3v-5.8c-5.6,1-17.7,3-27.5,3C-60.7-565.5-78.1-569.1-78.1-569.1z"/>
						</g>
					</g>
					<g>
						<g>
							<path class="st3" d="M-78.1-607.4v6.4h58.3v-5.8c-5.6,1-17.7,3-27.5,3C-60.7-603.8-78.1-607.4-78.1-607.4z"/>
						</g>
					</g>
					<g>
						<g>
							<path class="st3" d="M-78.1-601v6.4h58.3v-5.8c-5.6,1-17.7,3-27.5,3C-60.7-597.4-78.1-601-78.1-601z"/>
						</g>
					</g>
					<g>
						<g>
							<path class="st3" d="M-78.1-594.6v6.4h58.3v-5.8c-5.6,1-17.7,3-27.5,3C-60.7-591.1-78.1-594.6-78.1-594.6z"/>
						</g>
					</g>
					<g>
						<g>
							<path class="st3" d="M-78.1-588.2v6.4h58.3v-5.8c-5.6,1-17.7,3-27.5,3C-60.7-584.7-78.1-588.2-78.1-588.2z"/>
						</g>
					</g>
					<g>
						<g>
							<path class="st3" d="M-78.1-671.3v6.4h58.3v-5.8c-5.6,1-17.7,3-27.5,3C-60.7-667.7-78.1-671.3-78.1-671.3z"/>
						</g>
					</g>
					<g>
						<g>
							<path class="st3" d="M-78.1-677.7v6.4h58.3v-5.8c-5.6,1-17.7,3-27.5,3C-60.7-674.1-78.1-677.7-78.1-677.7z"/>
						</g>
					</g>
					<g>
						<g>
							<path class="st3" d="M-19.9-696.2c-5.6,1-17.7-0.6-27.5-0.6c-13.3,0-30.8,0-30.8,0v6.4h58.3V-696.2z"/>
						</g>
					</g>
					<g>
						<g>
							<path class="st3" d="M-47.4-686.9c-13.3,0-30.8-3.6-30.8-3.6v6.4h58.3v-5.8C-25.5-688.8-37.5-686.9-47.4-686.9z"/>
						</g>
					</g>
					<g>
						<g>
							<path class="st3" d="M-78.1-684.1v6.4h58.3v-5.8c-5.6,1-17.7,3-27.5,3C-60.7-680.5-78.1-684.1-78.1-684.1z"/>
						</g>
					</g>
					<g>
						<g>
							<path class="st3" d="M-78.1-664.9v6.4h58.3v-5.8c-5.6,1-17.7,3-27.5,3C-60.7-661.3-78.1-664.9-78.1-664.9z"/>
						</g>
					</g>
				</g>
				<g>
					<g>
						<polygon class="st3" points="-21.4,-486.6 -79.7,-553.5 -76.6,-556.1 -18.3,-489.2 						"/>
					</g>
				</g>
				<g>
					<g>
						<g>
							<path class="st3" d="M-78.1-845.1v6.4h58.3v-5.8c-5.6,1-17.7,3-27.5,3C-60.7-841.6-78.1-845.1-78.1-845.1z"/>
						</g>
					</g>
					<g>
						<g>
							<path class="st3" d="M-78.1-832.3v6.4h58.3v-5.8c-5.6,1-17.7,3-27.5,3C-60.7-828.8-78.1-832.3-78.1-832.3z"/>
						</g>
					</g>
					<g>
						<g>
							<path class="st3" d="M-78.1-838.7v6.4h58.3v-5.8c-5.6,1-17.7,3-27.5,3C-60.7-835.2-78.1-838.7-78.1-838.7z"/>
						</g>
					</g>
					<g>
						<g>
							<path class="st3" d="M-78.1-851.5v6.4h58.3v-5.8c-5.6,1-17.7,3-27.5,3C-60.7-847.9-78.1-851.5-78.1-851.5z"/>
						</g>
					</g>
					<g>
						<g>
							<path class="st3" d="M-78.1-857.9v6.4h58.3v-5.8c-5.6,1-17.7,3-27.5,3C-60.7-854.3-78.1-857.9-78.1-857.9z"/>
						</g>
					</g>
					<g>
						<g>
							<path class="st3" d="M-78.1-826v6.4h58.3v-5.8c-5.6,1-17.7,3-27.5,3C-60.7-822.4-78.1-826-78.1-826z"/>
						</g>
					</g>
					<g>
						<g>
							<path class="st3" d="M-78.1-781.2v6.4h58.3v-5.8c-5.6,1-17.7,3-27.5,3C-60.7-777.7-78.1-781.2-78.1-781.2z"/>
						</g>
					</g>
					<g>
						<g>
							<path class="st3" d="M-78.1-768.5v7.9h58.3v-7.3c-5.6,1-17.7,3-27.5,3C-60.7-764.9-78.1-768.5-78.1-768.5z"/>
						</g>
					</g>
					<g>
						<g>
							<path class="st3" d="M-78.1-787.6v6.4h58.3v-5.8c-5.6,1-17.7,3-27.5,3C-60.7-784-78.1-787.6-78.1-787.6z"/>
						</g>
					</g>
					<g>
						<g>
							<path class="st3" d="M-78.1-864.3v6.4h58.3v-5.8c-5.6,1-17.7,3-27.5,3C-60.7-860.7-78.1-864.3-78.1-864.3z"/>
						</g>
					</g>
					<g>
						<g>
							<path class="st3" d="M-78.1-819.6v6.4h58.3v-5.8c-5.6,1-17.7,3-27.5,3C-60.7-816-78.1-819.6-78.1-819.6z"/>
						</g>
					</g>
					<g>
						<g>
							<path class="st3" d="M-78.1-774.8v6.4h58.3v-5.8c-5.6,1-17.7,3-27.5,3C-60.7-771.3-78.1-774.8-78.1-774.8z"/>
						</g>
					</g>
					<g>
						<g>
							<path class="st3" d="M-78.1-813.2v6.4h58.3v-5.8c-5.6,1-17.7,3-27.5,3C-60.7-809.6-78.1-813.2-78.1-813.2z"/>
						</g>
					</g>
					<g>
						<g>
							<path class="st3" d="M-78.1-806.8v6.4h58.3v-5.8c-5.6,1-17.7,3-27.5,3C-60.7-803.2-78.1-806.8-78.1-806.8z"/>
						</g>
					</g>
					<g>
						<g>
							<path class="st3" d="M-78.1-800.4v6.4h58.3v-5.8c-5.6,1-17.7,3-27.5,3C-60.7-796.8-78.1-800.4-78.1-800.4z"/>
						</g>
					</g>
					<g>
						<g>
							<path class="st3" d="M-78.1-794v6.4h58.3v-5.8c-5.6,1-17.7,3-27.5,3C-60.7-790.4-78.1-794-78.1-794z"/>
						</g>
					</g>
					<g>
						<g>
							<path class="st3" d="M-78.1-877.1v6.4h58.3v-5.8c-5.6,1-17.7,3-27.5,3C-60.7-873.5-78.1-877.1-78.1-877.1z"/>
						</g>
					</g>
					<g>
						<g>
							<path class="st3" d="M-78.1-883.5v6.4h58.3v-5.8c-5.6,1-17.7,3-27.5,3C-60.7-879.9-78.1-883.5-78.1-883.5z"/>
						</g>
					</g>
					<g>
						<g>
							<path class="st3" d="M-19.9-902c-5.6,1-17.7-0.6-27.5-0.6c-13.3,0-30.8,0-30.8,0v6.4h58.3V-902z"/>
						</g>
					</g>
					<g>
						<g>
							<path class="st3" d="M-47.4-892.7c-13.3,0-30.8-3.6-30.8-3.6v6.4h58.3v-5.8C-25.5-894.6-37.5-892.7-47.4-892.7z"/>
						</g>
					</g>
					<g>
						<g>
							<path class="st3" d="M-78.1-889.8v6.4h58.3v-5.8c-5.6,1-17.7,3-27.5,3C-60.7-886.3-78.1-889.8-78.1-889.8z"/>
						</g>
					</g>
					<g>
						<g>
							<path class="st3" d="M-78.1-870.7v6.4h58.3v-5.8c-5.6,1-17.7,3-27.5,3C-60.7-867.1-78.1-870.7-78.1-870.7z"/>
						</g>
					</g>
				</g>
				<g>
					<g>
						<polygon class="st3" points="-21.4,-692.3 -79.7,-759.2 -76.6,-761.9 -18.3,-695 						"/>
					</g>
				</g>
				<g>
					<g>
						<g>
							<path class="st3" d="M-78.1-1050.9v6.4h58.3v-5.8c-5.6,1-17.7,3-27.5,3C-60.7-1047.3-78.1-1050.9-78.1-1050.9z"/>
						</g>
					</g>
					<g>
						<g>
							<path class="st3" d="M-78.1-1038.1v6.4h58.3v-5.8c-5.6,1-17.7,3-27.5,3C-60.7-1034.5-78.1-1038.1-78.1-1038.1z"/>
						</g>
					</g>
					<g>
						<g>
							<path class="st3" d="M-78.1-1044.5v6.4h58.3v-5.8c-5.6,1-17.7,3-27.5,3C-60.7-1040.9-78.1-1044.5-78.1-1044.5z"/>
						</g>
					</g>
					<g>
						<g>
							<path class="st3" d="M-78.1-1057.3v6.4h58.3v-5.8c-5.6,1-17.7,3-27.5,3C-60.7-1053.7-78.1-1057.3-78.1-1057.3z"/>
						</g>
					</g>
					<g>
						<g>
							<path class="st3" d="M-78.1-1063.7v6.4h58.3v-5.8c-5.6,1-17.7,3-27.5,3C-60.7-1060.1-78.1-1063.7-78.1-1063.7z"/>
						</g>
					</g>
					<g>
						<g>
							<path class="st3" d="M-78.1-1031.7v6.4h58.3v-5.8c-5.6,1-17.7,3-27.5,3C-60.7-1028.1-78.1-1031.7-78.1-1031.7z"/>
						</g>
					</g>
					<g>
						<g>
							<path class="st3" d="M-78.1-987v6.4h58.3v-5.8c-5.6,1-17.7,3-27.5,3C-60.7-983.4-78.1-987-78.1-987z"/>
						</g>
					</g>
					<g>
						<g>
							<path class="st3" d="M-78.1-974.2v7.9h58.3v-7.3c-5.6,1-17.7,3-27.5,3C-60.7-970.6-78.1-974.2-78.1-974.2z"/>
						</g>
					</g>
					<g>
						<g>
							<path class="st3" d="M-78.1-993.4v6.4h58.3v-5.8c-5.6,1-17.7,3-27.5,3C-60.7-989.8-78.1-993.4-78.1-993.4z"/>
						</g>
					</g>
					<g>
						<g>
							<path class="st3" d="M-78.1-1070.1v6.4h58.3v-5.8c-5.6,1-17.7,3-27.5,3C-60.7-1066.5-78.1-1070.1-78.1-1070.1z"/>
						</g>
					</g>
					<g>
						<g>
							<path class="st3" d="M-78.1-1025.3v6.4h58.3v-5.8c-5.6,1-17.7,3-27.5,3C-60.7-1021.8-78.1-1025.3-78.1-1025.3z"/>
						</g>
					</g>
					<g>
						<g>
							<path class="st3" d="M-78.1-980.6v6.4h58.3v-5.8c-5.6,1-17.7,3-27.5,3C-60.7-977-78.1-980.6-78.1-980.6z"/>
						</g>
					</g>
					<g>
						<g>
							<path class="st3" d="M-78.1-1018.9v6.4h58.3v-5.8c-5.6,1-17.7,3-27.5,3C-60.7-1015.4-78.1-1018.9-78.1-1018.9z"/>
						</g>
					</g>
					<g>
						<g>
							<path class="st3" d="M-78.1-1012.6v6.4h58.3v-5.8c-5.6,1-17.7,3-27.5,3C-60.7-1009-78.1-1012.6-78.1-1012.6z"/>
						</g>
					</g>
					<g>
						<g>
							<path class="st3" d="M-78.1-1006.2v6.4h58.3v-5.8c-5.6,1-17.7,3-27.5,3C-60.7-1002.6-78.1-1006.2-78.1-1006.2z"/>
						</g>
					</g>
					<g>
						<g>
							<path class="st3" d="M-78.1-999.8v6.4h58.3v-5.8c-5.6,1-17.7,3-27.5,3C-60.7-996.2-78.1-999.8-78.1-999.8z"/>
						</g>
					</g>
					<g>
						<g>
							<path class="st3" d="M-78.1-1082.8v6.4h58.3v-5.8c-5.6,1-17.7,3-27.5,3C-60.7-1079.3-78.1-1082.8-78.1-1082.8z"/>
						</g>
					</g>
					<g>
						<g>
							<path class="st3" d="M-78.1-1089.2v6.4h58.3v-5.8c-5.6,1-17.7,3-27.5,3C-60.7-1085.7-78.1-1089.2-78.1-1089.2z"/>
						</g>
					</g>
					<g>
						<g>
							<path class="st3" d="M-19.9-1107.8c-5.6,1-17.7-0.6-27.5-0.6c-13.3,0-30.8,0-30.8,0v6.4h58.3V-1107.8z"/>
						</g>
					</g>
					<g>
						<g>
							<path class="st3" d="M-47.4-1098.4c-13.3,0-30.8-3.6-30.8-3.6v6.4h58.3v-5.8C-25.5-1100.4-37.5-1098.4-47.4-1098.4z"/>
						</g>
					</g>
					<g>
						<g>
							<path class="st3" d="M-78.1-1095.6v6.4h58.3v-5.8c-5.6,1-17.7,3-27.5,3C-60.7-1092-78.1-1095.6-78.1-1095.6z"/>
						</g>
					</g>
					<g>
						<g>
							<path class="st3" d="M-78.1-1076.4v6.4h58.3v-5.8c-5.6,1-17.7,3-27.5,3C-60.7-1072.9-78.1-1076.4-78.1-1076.4z"/>
						</g>
					</g>
				</g>
				<g>
					<g>
						<polygon class="st3" points="-21.4,-898.1 -79.7,-965 -76.6,-967.7 -18.3,-900.8 						"/>
					</g>
				</g>
				<g>
					<g>
						<g>
							<path class="st3" d="M-78.1-1256.7v6.4h58.3v-5.8c-5.6,1-17.7,3-27.5,3C-60.7-1253.1-78.1-1256.7-78.1-1256.7z"/>
						</g>
					</g>
					<g>
						<g>
							<path class="st3" d="M-78.1-1243.9v6.4h58.3v-5.8c-5.6,1-17.7,3-27.5,3C-60.7-1240.3-78.1-1243.9-78.1-1243.9z"/>
						</g>
					</g>
					<g>
						<g>
							<path class="st3" d="M-78.1-1250.3v6.4h58.3v-5.8c-5.6,1-17.7,3-27.5,3C-60.7-1246.7-78.1-1250.3-78.1-1250.3z"/>
						</g>
					</g>
					<g>
						<g>
							<path class="st3" d="M-78.1-1263v6.4h58.3v-5.8c-5.6,1-17.7,3-27.5,3C-60.7-1259.5-78.1-1263-78.1-1263z"/>
						</g>
					</g>
					<g>
						<g>
							<path class="st3" d="M-78.1-1269.4v6.4h58.3v-5.8c-5.6,1-17.7,3-27.5,3C-60.7-1265.9-78.1-1269.4-78.1-1269.4z"/>
						</g>
					</g>
					<g>
						<g>
							<path class="st3" d="M-78.1-1237.5v6.4h58.3v-5.8c-5.6,1-17.7,3-27.5,3C-60.7-1233.9-78.1-1237.5-78.1-1237.5z"/>
						</g>
					</g>
					<g>
						<g>
							<path class="st3" d="M-78.1-1192.8v6.4h58.3v-5.8c-5.6,1-17.7,3-27.5,3C-60.7-1189.2-78.1-1192.8-78.1-1192.8z"/>
						</g>
					</g>
					<g>
						<g>
							<path class="st3" d="M-78.1-1180v7.9h58.3v-7.3c-5.6,1-17.7,3-27.5,3C-60.7-1176.4-78.1-1180-78.1-1180z"/>
						</g>
					</g>
					<g>
						<g>
							<path class="st3" d="M-78.1-1199.2v6.4h58.3v-5.8c-5.6,1-17.7,3-27.5,3C-60.7-1195.6-78.1-1199.2-78.1-1199.2z"/>
						</g>
					</g>
					<g>
						<g>
							<path class="st3" d="M-78.1-1275.8v6.4h58.3v-5.8c-5.6,1-17.7,3-27.5,3C-60.7-1272.3-78.1-1275.8-78.1-1275.8z"/>
						</g>
					</g>
					<g>
						<g>
							<path class="st3" d="M-78.1-1231.1v6.4h58.3v-5.8c-5.6,1-17.7,3-27.5,3C-60.7-1227.5-78.1-1231.1-78.1-1231.1z"/>
						</g>
					</g>
					<g>
						<g>
							<path class="st3" d="M-78.1-1186.4v6.4h58.3v-5.8c-5.6,1-17.7,3-27.5,3C-60.7-1182.8-78.1-1186.4-78.1-1186.4z"/>
						</g>
					</g>
					<g>
						<g>
							<path class="st3" d="M-78.1-1224.7v6.4h58.3v-5.8c-5.6,1-17.7,3-27.5,3C-60.7-1221.1-78.1-1224.7-78.1-1224.7z"/>
						</g>
					</g>
					<g>
						<g>
							<path class="st3" d="M-78.1-1218.3v6.4h58.3v-5.8c-5.6,1-17.7,3-27.5,3C-60.7-1214.8-78.1-1218.3-78.1-1218.3z"/>
						</g>
					</g>
					<g>
						<g>
							<path class="st3" d="M-78.1-1211.9v6.4h58.3v-5.8c-5.6,1-17.7,3-27.5,3C-60.7-1208.4-78.1-1211.9-78.1-1211.9z"/>
						</g>
					</g>
					<g>
						<g>
							<path class="st3" d="M-78.1-1205.5v6.4h58.3v-5.8c-5.6,1-17.7,3-27.5,3C-60.7-1202-78.1-1205.5-78.1-1205.5z"/>
						</g>
					</g>
					<g>
						<g>
							<path class="st3" d="M-78.1-1288.6v6.4h58.3v-5.8c-5.6,1-17.7,3-27.5,3C-60.7-1285-78.1-1288.6-78.1-1288.6z"/>
						</g>
					</g>
					<g>
						<g>
							<path class="st3" d="M-78.1-1295v6.4h58.3v-5.8c-5.6,1-17.7,3-27.5,3C-60.7-1291.4-78.1-1295-78.1-1295z"/>
						</g>
					</g>
					<g>
						<g>
							<path class="st3" d="M-19.9-1313.6c-5.6,1-17.7-0.6-27.5-0.6c-13.3,0-30.8,0-30.8,0v6.4h58.3V-1313.6z"/>
						</g>
					</g>
					<g>
						<g>
							<path class="st3" d="M-47.4-1304.2c-13.3,0-30.8-3.6-30.8-3.6v6.4h58.3v-5.8C-25.5-1306.1-37.5-1304.2-47.4-1304.2z"/>
						</g>
					</g>
					<g>
						<g>
							<path class="st3" d="M-78.1-1301.4v6.4h58.3v-5.8c-5.6,1-17.7,3-27.5,3C-60.7-1297.8-78.1-1301.4-78.1-1301.4z"/>
						</g>
					</g>
					<g>
						<g>
							<path class="st3" d="M-78.1-1282.2v6.4h58.3v-5.8c-5.6,1-17.7,3-27.5,3C-60.7-1278.6-78.1-1282.2-78.1-1282.2z"/>
						</g>
					</g>
				</g>
				<g>
					<g>
						<polygon class="st3" points="-21.4,-1103.9 -79.7,-1170.8 -76.6,-1173.4 -18.3,-1106.5 						"/>
					</g>
				</g>
				<g>
					<g>
						<g>
							<path class="st3" d="M-78.1-1462.4v6.4h58.3v-5.8c-5.6,1-17.7,3-27.5,3C-60.7-1458.9-78.1-1462.4-78.1-1462.4z"/>
						</g>
					</g>
					<g>
						<g>
							<path class="st3" d="M-78.1-1449.6v6.4h58.3v-5.8c-5.6,1-17.7,3-27.5,3C-60.7-1446.1-78.1-1449.6-78.1-1449.6z"/>
						</g>
					</g>
					<g>
						<g>
							<path class="st3" d="M-78.1-1456v6.4h58.3v-5.8c-5.6,1-17.7,3-27.5,3C-60.7-1452.5-78.1-1456-78.1-1456z"/>
						</g>
					</g>
					<g>
						<g>
							<path class="st3" d="M-78.1-1468.8v6.4h58.3v-5.8c-5.6,1-17.7,3-27.5,3C-60.7-1465.2-78.1-1468.8-78.1-1468.8z"/>
						</g>
					</g>
					<g>
						<g>
							<path class="st3" d="M-78.1-1475.2v6.4h58.3v-5.8c-5.6,1-17.7,3-27.5,3C-60.7-1471.6-78.1-1475.2-78.1-1475.2z"/>
						</g>
					</g>
					<g>
						<g>
							<path class="st3" d="M-78.1-1443.3v6.4h58.3v-5.8c-5.6,1-17.7,3-27.5,3C-60.7-1439.7-78.1-1443.3-78.1-1443.3z"/>
						</g>
					</g>
					<g>
						<g>
							<path class="st3" d="M-78.1-1398.5v6.4h58.3v-5.8c-5.6,1-17.7,3-27.5,3C-60.7-1395-78.1-1398.5-78.1-1398.5z"/>
						</g>
					</g>
					<g>
						<g>
							<path class="st3" d="M-78.1-1385.8v7.9h58.3v-7.3c-5.6,1-17.7,3-27.5,3C-60.7-1382.2-78.1-1385.8-78.1-1385.8z"/>
						</g>
					</g>
					<g>
						<g>
							<path class="st3" d="M-78.1-1404.9v6.4h58.3v-5.8c-5.6,1-17.7,3-27.5,3C-60.7-1401.3-78.1-1404.9-78.1-1404.9z"/>
						</g>
					</g>
					<g>
						<g>
							<path class="st3" d="M-78.1-1481.6v6.4h58.3v-5.8c-5.6,1-17.7,3-27.5,3C-60.7-1478-78.1-1481.6-78.1-1481.6z"/>
						</g>
					</g>
					<g>
						<g>
							<path class="st3" d="M-78.1-1436.9v6.4h58.3v-5.8c-5.6,1-17.7,3-27.5,3C-60.7-1433.3-78.1-1436.9-78.1-1436.9z"/>
						</g>
					</g>
					<g>
						<g>
							<path class="st3" d="M-78.1-1392.1v6.4h58.3v-5.8c-5.6,1-17.7,3-27.5,3C-60.7-1388.6-78.1-1392.1-78.1-1392.1z"/>
						</g>
					</g>
					<g>
						<g>
							<path class="st3" d="M-78.1-1430.5v6.4h58.3v-5.8c-5.6,1-17.7,3-27.5,3C-60.7-1426.9-78.1-1430.5-78.1-1430.5z"/>
						</g>
					</g>
					<g>
						<g>
							<path class="st3" d="M-78.1-1424.1v6.4h58.3v-5.8c-5.6,1-17.7,3-27.5,3C-60.7-1420.5-78.1-1424.1-78.1-1424.1z"/>
						</g>
					</g>
					<g>
						<g>
							<path class="st3" d="M-78.1-1417.7v6.4h58.3v-5.8c-5.6,1-17.7,3-27.5,3C-60.7-1414.1-78.1-1417.7-78.1-1417.7z"/>
						</g>
					</g>
					<g>
						<g>
							<path class="st3" d="M-78.1-1411.3v6.4h58.3v-5.8c-5.6,1-17.7,3-27.5,3C-60.7-1407.7-78.1-1411.3-78.1-1411.3z"/>
						</g>
					</g>
					<g>
						<g>
							<path class="st3" d="M-78.1-1494.4v6.4h58.3v-5.8c-5.6,1-17.7,3-27.5,3C-60.7-1490.8-78.1-1494.4-78.1-1494.4z"/>
						</g>
					</g>
					<g>
						<g>
							<path class="st3" d="M-78.1-1500.8v6.4h58.3v-5.8c-5.6,1-17.7,3-27.5,3C-60.7-1497.2-78.1-1500.8-78.1-1500.8z"/>
						</g>
					</g>
					<g>
						<g>
							<path class="st3" d="M-19.9-1519.3c-5.6,1-17.7-0.6-27.5-0.6c-13.3,0-30.8,0-30.8,0v6.4h58.3V-1519.3z"/>
						</g>
					</g>
					<g>
						<g>
							<path class="st3" d="M-47.4-1510c-13.3,0-30.8-3.6-30.8-3.6v6.4h58.3v-5.8C-25.5-1511.9-37.5-1510-47.4-1510z"/>
						</g>
					</g>
					<g>
						<g>
							<path class="st3" d="M-78.1-1507.2v6.4h58.3v-5.8c-5.6,1-17.7,3-27.5,3C-60.7-1503.6-78.1-1507.2-78.1-1507.2z"/>
						</g>
					</g>
					<g>
						<g>
							<path class="st3" d="M-78.1-1488v6.4h58.3v-5.8c-5.6,1-17.7,3-27.5,3C-60.7-1484.4-78.1-1488-78.1-1488z"/>
						</g>
					</g>
				</g>
				<g>
					<g>
						<polygon class="st3" points="-21.4,-1309.6 -79.7,-1376.5 -76.6,-1379.2 -18.3,-1312.3 						"/>
					</g>
				</g>
				<g>
					<g>
						<polygon class="st3" points="-21.4,-1515.4 -79.7,-1582.3 -76.6,-1585 -18.3,-1518.1 						"/>
					</g>
				</g>
			</g>
		</g>
	</g>
	<g>
		<defs>
			<circle id="SVGID_5_" cx="-48.9" cy="150" r="150"/>
		</defs>
		<clipPath id="SVGID_6_">
			<use xlink:href="#SVGID_5_"  style="overflow:visible;"/>
		</clipPath>
		<g class="st4">
			<g>
				<defs>
					<circle id="SVGID_7_" cx="-48.9" cy="150" r="150"/>
				</defs>
				<clipPath id="SVGID_8_">
					<use xlink:href="#SVGID_7_"  style="overflow:visible;"/>
				</clipPath>
			</g>
			<g>
				<defs>
					<circle id="SVGID_9_" cx="-48.9" cy="150" r="150"/>
				</defs>
				<clipPath id="SVGID_10_">
					<use xlink:href="#SVGID_9_"  style="overflow:visible;"/>
				</clipPath>
				<g class="st5">
					<path class="st6" d="M-48.9,5c38.7,0,75.1,15.1,102.5,42.5S96.1,111.3,96.1,150S81,225.1,53.6,252.5S-10.2,295-48.9,295
						s-75.1-15.1-102.5-42.5s-42.5-63.8-42.5-102.5s15.1-75.1,42.5-102.5S-87.6,5-48.9,5 M-48.9,0c-82.8,0-150,67.2-150,150
						s67.2,150,150,150s150-67.2,150-150S33.9,0-48.9,0L-48.9,0z"/>
				</g>
			</g>
		</g>
	</g>
</g>
</svg>
