<?xml version="1.0" encoding="utf-8"?>
<!-- Generator: Adobe Illustrator 19.0.0, SVG Export Plug-In . SVG Version: 6.00 Build 0)  -->
<svg version="1.1" id="Layer_1" xmlns="http://www.w3.org/2000/svg" xmlns:xlink="http://www.w3.org/1999/xlink" x="0px" y="0px"
	 viewBox="-199 0 300 300" style="enable-background:new -199 0 300 300;" xml:space="preserve">
<style type="text/css">
	.st0{fill:#DDDDDD;}
	.st1{clip-path:url(#SVGID_4_);}
	.st2{clip-path:url(#SVGID_5_);}
	.st3{fill:#404041;}
	.st4{clip-path:url(#SVGID_7_);}
	.st5{clip-path:url(#SVGID_11_);}
	.st6{fill:#9AA0BB;}
</style>
<g>
	<g>
		<circle id="SVGID_1_" class="st0" cx="-48.9" cy="150" r="150"/>
	</g>
	<g>
		<defs>
			<circle id="SVGID_2_" cx="-48.9" cy="150" r="150"/>
		</defs>
		<clipPath id="SVGID_4_">
			<use xlink:href="#SVGID_2_"  style="overflow:visible;"/>
		</clipPath>
		<g class="st1">
			<defs>
				<rect id="SVGID_47_" x="-99" y="-827.8" width="100" height="1931.6"/>
			</defs>
			<clipPath id="SVGID_5_">
				<use xlink:href="#SVGID_47_"  style="overflow:visible;"/>
			</clipPath>
			<g class="st2">
				<g>
					<g>
						<circle class="st3" cx="-23.9" cy="-809.6" r="10.1"/>
					</g>
				</g>
				<g>
					<g>
						<circle class="st3" cx="-23.9" cy="-732.5" r="10.1"/>
					</g>
				</g>
				<g>
					<g>
						<circle class="st3" cx="-23.9" cy="-655.5" r="10.1"/>
					</g>
				</g>
				<g>
					<g>
						<circle class="st3" cx="-23.9" cy="-578.4" r="10.1"/>
					</g>
				</g>
				<g>
					<g>
						<circle class="st3" cx="-23.9" cy="-501.3" r="10.1"/>
					</g>
				</g>
				<g>
					<g>
						<circle class="st3" cx="-23.9" cy="-886.7" r="10.1"/>
					</g>
				</g>
				<g>
					<g>
						<circle class="st3" cx="-23.9" cy="-963.8" r="10.1"/>
					</g>
				</g>
				<g>
					<g>
						<circle class="st3" cx="-23.9" cy="-1040.8" r="10.1"/>
					</g>
				</g>
				<g>
					<g>
						<circle class="st3" cx="-23.9" cy="-1116.1" r="10.1"/>
					</g>
				</g>
				<g>
					<g>
						<circle class="st3" cx="-73.3" cy="-772.1" r="10.1"/>
					</g>
				</g>
				<g>
					<g>
						<circle class="st3" cx="-73.3" cy="-695.2" r="10.1"/>
					</g>
				</g>
				<g>
					<g>
						<circle class="st3" cx="-73.3" cy="-618.2" r="10.1"/>
					</g>
				</g>
				<g>
					<g>
						<circle class="st3" cx="-73.1" cy="-541.3" r="10.1"/>
					</g>
				</g>
				<g>
					<g>
						<circle class="st3" cx="-73.3" cy="-849" r="10.1"/>
					</g>
				</g>
				<g>
					<g>
						<circle class="st3" cx="-73.3" cy="-925.9" r="10.1"/>
					</g>
				</g>
				<g>
					<g>
						<circle class="st3" cx="-73.3" cy="-1002.8" r="10.1"/>
					</g>
				</g>
				<g>
					<g>
						<circle class="st3" cx="-73.3" cy="-1080.9" r="10.1"/>
					</g>
				</g>
				<g>
					<g>
						<path class="st3" d="M-29.3-499.2l-35.7-34c-2.7-2.6-4.1-5.9-4-9.4c0.1-3.5,1.8-6.8,4.7-9.2l27.3-22.7
							c1.4-1.2,2.2-2.7,2.2-4.2c0.1-1.5-0.6-3-1.9-4.2L-65-610c-2.7-2.6-4.1-5.9-4-9.4c0.1-3.5,1.8-6.8,4.7-9.2l27.3-22.7
							c1.4-1.2,2.2-2.7,2.2-4.2c0.1-1.5-0.6-3-1.9-4.2l-28.4-27c-2.7-2.6-4.1-5.9-4-9.4c0.1-3.5,1.8-6.8,4.7-9.2l27.3-22.7
							c1.4-1.2,2.2-2.7,2.2-4.2c0.1-1.5-0.6-3-1.9-4.2l-28.4-27c-2.7-2.6-4.1-5.9-4-9.4c0.1-3.5,1.8-6.8,4.7-9.2L-37-805
							c1.4-1.2,2.2-2.7,2.2-4.2c0.1-1.5-0.6-3-1.9-4.2l-28.4-27c-2.7-2.6-4.1-5.9-4-9.4c0.1-3.5,1.8-6.8,4.7-9.2l27.3-22.7
							c1.4-1.2,2.2-2.7,2.2-4.2c0.1-1.5-0.6-3-1.9-4.2l-28.4-27c-2.7-2.6-4.1-5.9-4-9.4c0.1-3.5,1.8-6.8,4.7-9.2l27.3-22.7
							c1.4-1.2,2.2-2.7,2.2-4.2c0.1-1.5-0.6-3-1.9-4.2L-65-994c-2.7-2.6-4.1-5.9-4-9.4c0.1-3.5,1.8-6.8,4.7-9.2l27.3-22.7
							c1.4-1.2,2.2-2.7,2.2-4.2c0.1-1.5-0.6-3-1.9-4.2l-28.4-27c-2.7-2.6-4.1-5.9-4-9.4c0.1-3.5,1.8-6.8,4.7-9.2l32.2-26.9
							l-32.9-31.3c-2.7-2.6-4.1-5.9-4-9.4c0.1-3.5,1.8-6.8,4.7-9.2L-37-1189c1.4-1.2,2.2-2.7,2.2-4.2c0.1-1.5-0.6-3-1.9-4.2
							l-28.4-27c-2.7-2.6-4.1-5.9-4-9.4c0.1-3.5,1.8-6.8,4.7-9.2l4.4,5.2c-1.4,1.2-2.2,2.7-2.2,4.2c0,1.5,0.6,3,1.9,4.2l28.4,27
							c2.7,2.6,4.1,5.9,4,9.4c-0.1,3.5-1.8,6.8-4.7,9.2L-60-1161c-1.4,1.2-2.2,2.7-2.2,4.2c0,1.5,0.6,3,1.9,4.2l38.5,36.6
							l-38.1,31.8c-1.4,1.2-2.2,2.7-2.2,4.2c0,1.5,0.6,3,1.9,4.2l28.4,27c2.7,2.6,4.1,5.9,4,9.4c-0.1,3.5-1.8,6.8-4.7,9.2
							l-27.3,22.7c-1.4,1.2-2.2,2.7-2.2,4.2c0,1.5,0.6,3,1.9,4.2l28.4,27c2.7,2.6,4.1,5.9,4,9.4c-0.1,3.5-1.8,6.8-4.7,9.2L-60-930.6
							c-1.4,1.2-2.2,2.7-2.2,4.2c0,1.5,0.6,3,1.9,4.2l28.4,27c2.7,2.6,4.1,5.9,4,9.4c-0.1,3.5-1.8,6.8-4.7,9.2L-60-853.8
							c-1.4,1.2-2.2,2.7-2.2,4.2c0,1.5,0.6,3,1.9,4.2l28.4,27c2.7,2.6,4.1,5.9,4,9.4c-0.1,3.5-1.8,6.8-4.7,9.2L-60-777
							c-1.4,1.2-2.2,2.7-2.2,4.2c0,1.5,0.6,3,1.9,4.2l28.4,27c2.7,2.6,4.1,5.9,4,9.4c-0.1,3.5-1.8,6.8-4.7,9.2L-60-700.2
							c-1.4,1.2-2.2,2.7-2.2,4.2c0,1.5,0.6,3,1.9,4.2l28.4,27c2.7,2.6,4.1,5.9,4,9.4c-0.1,3.5-1.8,6.8-4.7,9.2L-60-623.4
							c-1.4,1.2-2.2,2.7-2.2,4.2c0,1.5,0.6,3,1.9,4.2l28.4,27c2.7,2.6,4.1,5.9,4,9.4c-0.1,3.5-1.8,6.8-4.7,9.2L-60-546.6
							c-1.4,1.2-2.2,2.7-2.2,4.2c0,1.5,0.6,3,1.9,4.2l35.7,34L-29.3-499.2z"/>
					</g>
				</g>
				<g>
					<g>
						<circle class="st3" cx="-23.9" cy="-1192.8" r="10.1"/>
					</g>
				</g>
				<g>
					<g>
						<circle class="st3" cx="-73.3" cy="-1232.7" r="10.1"/>
					</g>
				</g>
				<g>
					<g>
						<circle class="st3" cx="-73.1" cy="-1155.8" r="10.1"/>
					</g>
				</g>
				<g>
					<g>
						<path class="st3" d="M-29.3,115.6l-35.7-34c-2.7-2.6-4.1-5.9-4-9.4c0.1-3.5,1.8-6.8,4.7-9.2L-37,40.3c1.4-1.2,2.2-2.7,2.2-4.2
							c0.1-1.5-0.6-3-1.9-4.2L-65,4.9c-2.7-2.6-4.1-5.9-4-9.4c0.1-3.5,1.8-6.8,4.7-9.2L-37-36.5c1.4-1.2,2.2-2.7,2.2-4.2
							c0.1-1.5-0.6-3-1.9-4.2l-28.4-27c-2.7-2.6-4.1-5.9-4-9.4c0.1-3.5,1.8-6.8,4.7-9.2l27.3-22.7c1.4-1.2,2.2-2.7,2.2-4.2
							c0.1-1.5-0.6-3-1.9-4.2l-28.4-27c-2.7-2.6-4.1-5.9-4-9.4c0.1-3.5,1.8-6.8,4.7-9.2l27.3-22.7c1.4-1.2,2.2-2.7,2.2-4.2
							c0.1-1.5-0.6-3-1.9-4.2l-28.4-27c-2.7-2.6-4.1-5.9-4-9.4c0.1-3.5,1.8-6.8,4.7-9.2l27.3-22.7c1.4-1.2,2.2-2.7,2.2-4.2
							c0.1-1.5-0.6-3-1.9-4.2l-28.4-27c-2.7-2.6-4.1-5.9-4-9.4c0.1-3.5,1.8-6.8,4.7-9.2l27.3-22.7c1.4-1.2,2.2-2.7,2.2-4.2
							c0.1-1.5-0.6-3-1.9-4.2l-28.4-27c-2.7-2.6-4.1-5.9-4-9.4c0.1-3.5,1.8-6.8,4.7-9.2l27.3-22.7c1.4-1.2,2.2-2.7,2.2-4.2
							c0.1-1.5-0.6-3-1.9-4.2L-65-456c-2.7-2.6-4.1-5.9-4-9.4c0.1-3.5,1.8-6.8,4.7-9.2l35.2-29.3l4.4,5.2L-60-469.4
							c-1.4,1.2-2.2,2.7-2.2,4.2c0,1.5,0.6,3,1.9,4.2l28.4,27c2.7,2.6,4.1,5.9,4,9.4c-0.1,3.5-1.8,6.8-4.7,9.3L-60-392.6
							c-1.4,1.2-2.2,2.7-2.2,4.2c0,1.5,0.6,3,1.9,4.2l28.4,27c2.7,2.6,4.1,5.9,4,9.4c-0.1,3.5-1.8,6.8-4.7,9.2L-60-315.8
							c-1.4,1.2-2.2,2.7-2.2,4.2c0,1.5,0.6,3,1.9,4.2l28.4,27c2.7,2.6,4.1,5.9,4,9.4c-0.1,3.5-1.8,6.8-4.7,9.2L-60-239
							c-1.4,1.2-2.2,2.7-2.2,4.2c0,1.5,0.6,3,1.9,4.2l28.4,27c2.7,2.6,4.1,5.9,4,9.4c-0.1,3.5-1.8,6.8-4.7,9.3L-60-162.2
							c-1.4,1.2-2.2,2.7-2.2,4.2c0,1.5,0.6,3,1.9,4.2l28.4,27c2.7,2.6,4.1,5.9,4,9.4c-0.1,3.5-1.8,6.8-4.7,9.2L-60-85.3
							c-1.4,1.2-2.2,2.7-2.2,4.2c0,1.5,0.6,3,1.9,4.2l28.4,27c2.7,2.6,4.1,5.9,4,9.4c-0.1,3.5-1.8,6.8-4.7,9.2L-60-8.5
							c-1.4,1.2-2.2,2.7-2.2,4.2c0,1.5,0.6,3,1.9,4.2l28.4,27c2.7,2.6,4.1,5.9,4,9.4c-0.1,3.5-1.8,6.8-4.7,9.2L-60,68.3
							c-1.4,1.2-2.2,2.7-2.2,4.2c0,1.5,0.6,3,1.9,4.2l35.7,34L-29.3,115.6z"/>
					</g>
				</g>
				<g>
					<g>
						<circle class="st3" cx="-23.9" cy="-194.8" r="10.1"/>
					</g>
				</g>
				<g>
					<g>
						<circle class="st3" cx="-23.9" cy="-117.7" r="10.1"/>
					</g>
				</g>
				<g>
					<g>
						<circle class="st3" cx="-23.9" cy="-40.6" r="10.1"/>
					</g>
				</g>
				<g>
					<g>
						<circle class="st3" cx="-23.9" cy="36.5" r="10.1"/>
					</g>
				</g>
				<g>
					<g>
						<circle class="st3" cx="-23.9" cy="113.5" r="10.1"/>
					</g>
				</g>
				<g>
					<g>
						<circle class="st3" cx="-23.9" cy="-271.9" r="10.1"/>
					</g>
				</g>
				<g>
					<g>
						<circle class="st3" cx="-23.9" cy="-348.9" r="10.1"/>
					</g>
				</g>
				<g>
					<g>
						<circle class="st3" cx="-23.9" cy="-426" r="10.1"/>
					</g>
				</g>
				<g>
					<g>
						<circle class="st3" cx="-73.3" cy="-157.3" r="10.1"/>
					</g>
				</g>
				<g>
					<g>
						<circle class="st3" cx="-73.3" cy="-80.3" r="10.1"/>
					</g>
				</g>
				<g>
					<g>
						<circle class="st3" cx="-73.3" cy="-3.4" r="10.1"/>
					</g>
				</g>
				<g>
					<g>
						<circle class="st3" cx="-73.1" cy="73.5" r="10.1"/>
					</g>
				</g>
				<g>
					<g>
						<circle class="st3" cx="-73.3" cy="-234.2" r="10.1"/>
					</g>
				</g>
				<g>
					<g>
						<circle class="st3" cx="-73.3" cy="-311.1" r="10.1"/>
					</g>
				</g>
				<g>
					<g>
						<circle class="st3" cx="-73.3" cy="-388" r="10.1"/>
					</g>
				</g>
				<g>
					<g>
						<circle class="st3" cx="-73.3" cy="-466" r="10.1"/>
					</g>
				</g>
				<g>
					<g>
						<path class="st3" d="M-29.3,730.5l-35.7-34c-2.7-2.6-4.1-5.9-4-9.4c0.1-3.5,1.8-6.8,4.7-9.2l27.3-22.7
							c1.4-1.2,2.2-2.7,2.2-4.2c0.1-1.5-0.6-3-1.9-4.2l-28.4-27c-2.7-2.6-4.1-5.9-4-9.4c0.1-3.5,1.8-6.8,4.7-9.2l27.3-22.7
							c1.4-1.2,2.2-2.7,2.2-4.2c0.1-1.5-0.6-3-1.9-4.2l-28.4-27c-2.7-2.6-4.1-5.9-4-9.4c0.1-3.5,1.8-6.8,4.7-9.2l27.3-22.7
							c1.4-1.2,2.2-2.7,2.2-4.2c0.1-1.5-0.6-3-1.9-4.2l-28.4-27c-2.7-2.6-4.1-5.9-4-9.4c0.1-3.5,1.8-6.8,4.7-9.2l27.3-22.7
							c1.4-1.2,2.2-2.7,2.2-4.2c0.1-1.5-0.6-3-1.9-4.2l-28.4-27c-2.7-2.6-4.1-5.9-4-9.4c0.1-3.5,1.8-6.8,4.7-9.2l27.3-22.7
							c1.4-1.2,2.2-2.7,2.2-4.2c0.1-1.5-0.6-3-1.9-4.2l-28.4-27c-2.7-2.6-4.1-5.9-4-9.4c0.1-3.5,1.8-6.8,4.7-9.2l27.3-22.7
							c1.4-1.2,2.2-2.7,2.2-4.2c0.1-1.5-0.6-3-1.9-4.2l-28.4-27c-2.7-2.6-4.1-5.9-4-9.4c0.1-3.5,1.8-6.8,4.7-9.2l27.3-22.7
							c1.4-1.2,2.2-2.7,2.2-4.2c0.1-1.5-0.6-3-1.9-4.2l-28.4-27c-2.7-2.6-4.1-5.9-4-9.4c0.1-3.5,1.8-6.8,4.7-9.2l35.2-29.3l4.4,5.2
							L-60,145.4c-1.4,1.2-2.2,2.7-2.2,4.2c0,1.5,0.6,3,1.9,4.2l28.4,27c2.7,2.6,4.1,5.9,4,9.4c-0.1,3.5-1.8,6.8-4.7,9.2L-60,222.3
							c-1.4,1.2-2.2,2.7-2.2,4.2c0,1.5,0.6,3,1.9,4.2l28.4,27c2.7,2.6,4.1,5.9,4,9.4c-0.1,3.5-1.8,6.8-4.7,9.2L-60,299.1
							c-1.4,1.2-2.2,2.7-2.2,4.2c0,1.5,0.6,3,1.9,4.2l28.4,27c2.7,2.6,4.1,5.9,4,9.4c-0.1,3.5-1.8,6.8-4.7,9.3L-60,375.9
							c-1.4,1.2-2.2,2.7-2.2,4.2c0,1.5,0.6,3,1.9,4.2l28.4,27c2.7,2.6,4.1,5.9,4,9.4c-0.1,3.5-1.8,6.8-4.7,9.3L-60,452.7
							c-1.4,1.2-2.2,2.7-2.2,4.2c0,1.5,0.6,3,1.9,4.2l28.4,27c2.7,2.6,4.1,5.9,4,9.4c-0.1,3.5-1.8,6.8-4.7,9.3L-60,529.5
							c-1.4,1.2-2.2,2.7-2.2,4.2c0,1.5,0.6,3,1.9,4.2l28.4,27c2.7,2.6,4.1,5.9,4,9.4c-0.1,3.5-1.8,6.8-4.7,9.2L-60,606.3
							c-1.4,1.2-2.2,2.7-2.2,4.2c0,1.5,0.6,3,1.9,4.2l28.4,27c2.7,2.6,4.1,5.9,4,9.4c-0.1,3.5-1.8,6.8-4.7,9.3L-60,683.1
							c-1.4,1.2-2.2,2.7-2.2,4.2c0,1.5,0.6,3,1.9,4.2l35.7,34L-29.3,730.5z"/>
					</g>
				</g>
				<g>
					<g>
						<circle class="st3" cx="-23.9" cy="420" r="10.1"/>
					</g>
				</g>
				<g>
					<g>
						<circle class="st3" cx="-23.9" cy="497.1" r="10.1"/>
					</g>
				</g>
				<g>
					<g>
						<circle class="st3" cx="-23.9" cy="574.2" r="10.1"/>
					</g>
				</g>
				<g>
					<g>
						<circle class="st3" cx="-23.9" cy="651.3" r="10.1"/>
					</g>
				</g>
				<g>
					<g>
						<circle class="st3" cx="-23.9" cy="728.4" r="10.1"/>
					</g>
				</g>
				<g>
					<g>
						<circle class="st3" cx="-23.9" cy="343" r="10.1"/>
					</g>
				</g>
				<g>
					<g>
						<circle class="st3" cx="-23.9" cy="265.9" r="10.1"/>
					</g>
				</g>
				<g>
					<g>
						<circle class="st3" cx="-23.9" cy="188.8" r="10.1"/>
					</g>
				</g>
				<g>
					<g>
						<circle class="st3" cx="-73.3" cy="457.6" r="10.1"/>
					</g>
				</g>
				<g>
					<g>
						<circle class="st3" cx="-73.3" cy="534.5" r="10.1"/>
					</g>
				</g>
				<g>
					<g>
						<circle class="st3" cx="-73.3" cy="611.4" r="10.1"/>
					</g>
				</g>
				<g>
					<g>
						<circle class="st3" cx="-73.1" cy="688.3" r="10.1"/>
					</g>
				</g>
				<g>
					<g>
						<circle class="st3" cx="-73.3" cy="380.7" r="10.1"/>
					</g>
				</g>
				<g>
					<g>
						<circle class="st3" cx="-73.3" cy="303.7" r="10.1"/>
					</g>
				</g>
				<g>
					<g>
						<circle class="st3" cx="-73.3" cy="226.8" r="10.1"/>
					</g>
				</g>
				<g>
					<g>
						<circle class="st3" cx="-73.3" cy="148.8" r="10.1"/>
					</g>
				</g>
				<g>
					<g>
						<path class="st3" d="M-29.3,1345.3l-35.7-34c-2.7-2.6-4.1-5.9-4-9.4c0.1-3.5,1.8-6.8,4.7-9.2L-37,1270
							c1.4-1.2,2.2-2.7,2.2-4.2c0.1-1.5-0.6-3-1.9-4.2l-28.4-27c-2.7-2.6-4.1-5.9-4-9.4c0.1-3.5,1.8-6.8,4.7-9.2l27.3-22.7
							c1.4-1.2,2.2-2.7,2.2-4.2c0.1-1.5-0.6-3-1.9-4.2l-28.4-27c-2.7-2.6-4.1-5.9-4-9.4c0.1-3.5,1.8-6.8,4.7-9.2l27.3-22.7
							c1.4-1.2,2.2-2.7,2.2-4.2c0.1-1.5-0.6-3-1.9-4.2l-28.4-27c-2.7-2.6-4.1-5.9-4-9.4c0.1-3.5,1.8-6.8,4.7-9.2l27.3-22.7
							c1.4-1.2,2.2-2.7,2.2-4.2c0.1-1.5-0.6-3-1.9-4.2l-28.4-27c-2.7-2.6-4.1-5.9-4-9.4c0.1-3.5,1.8-6.8,4.7-9.2l27.3-22.7
							c1.4-1.2,2.2-2.7,2.2-4.2c0.1-1.5-0.6-3-1.9-4.2l-28.4-27c-2.7-2.6-4.1-5.9-4-9.4c0.1-3.5,1.8-6.8,4.7-9.2l27.3-22.7
							c1.4-1.2,2.2-2.7,2.2-4.2c0.1-1.5-0.6-3-1.9-4.2l-28.4-27c-2.7-2.6-4.1-5.9-4-9.4c0.1-3.5,1.8-6.8,4.7-9.2l27.3-22.7
							c1.4-1.2,2.2-2.7,2.2-4.2c0.1-1.5-0.6-3-1.9-4.2l-28.4-27c-2.7-2.6-4.1-5.9-4-9.4c0.1-3.5,1.8-6.8,4.7-9.2l35.2-29.3l4.4,5.2
							L-60,760.3c-1.4,1.2-2.2,2.7-2.2,4.2c0,1.5,0.6,3,1.9,4.2l28.4,27c2.7,2.6,4.1,5.9,4,9.4c-0.1,3.5-1.8,6.8-4.7,9.2L-60,837.1
							c-1.4,1.2-2.2,2.7-2.2,4.2c0,1.5,0.6,3,1.9,4.2l28.4,27c2.7,2.6,4.1,5.9,4,9.4c-0.1,3.5-1.8,6.8-4.7,9.2L-60,913.9
							c-1.4,1.2-2.2,2.7-2.2,4.2c0,1.5,0.6,3,1.9,4.2l28.4,27c2.7,2.6,4.1,5.9,4,9.4c-0.1,3.5-1.8,6.8-4.7,9.2L-60,990.7
							c-1.4,1.2-2.2,2.7-2.2,4.2c0,1.5,0.6,3,1.9,4.2l28.4,27c2.7,2.6,4.1,5.9,4,9.4c-0.1,3.5-1.8,6.8-4.7,9.2l-27.3,22.7
							c-1.4,1.2-2.2,2.7-2.2,4.2c0,1.5,0.6,3,1.9,4.2l28.4,27c2.7,2.6,4.1,5.9,4,9.4c-0.1,3.5-1.8,6.8-4.7,9.2l-27.3,22.7
							c-1.4,1.2-2.2,2.7-2.2,4.2c0,1.5,0.6,3,1.9,4.2l28.4,27c2.7,2.6,4.1,5.9,4,9.4c-0.1,3.5-1.8,6.8-4.7,9.2l-27.3,22.7
							c-1.4,1.2-2.2,2.7-2.2,4.2c0,1.5,0.6,3,1.9,4.2l28.4,27c2.7,2.6,4.1,5.9,4,9.4c-0.1,3.5-1.8,6.8-4.7,9.2l-27.3,22.7
							c-1.4,1.2-2.2,2.7-2.2,4.2c0,1.5,0.6,3,1.9,4.2l35.7,34L-29.3,1345.3z"/>
					</g>
				</g>
				<g>
					<g>
						<circle class="st3" cx="-23.9" cy="1034.9" r="10.1"/>
					</g>
				</g>
				<g>
					<g>
						<circle class="st3" cx="-23.9" cy="1112" r="10.1"/>
					</g>
				</g>
				<g>
					<g>
						<circle class="st3" cx="-23.9" cy="1189" r="10.1"/>
					</g>
				</g>
				<g>
					<g>
						<circle class="st3" cx="-23.9" cy="1266.1" r="10.1"/>
					</g>
				</g>
				<g>
					<g>
						<circle class="st3" cx="-23.9" cy="1343.2" r="10.1"/>
					</g>
				</g>
				<g>
					<g>
						<circle class="st3" cx="-23.9" cy="957.8" r="10.1"/>
					</g>
				</g>
				<g>
					<g>
						<circle class="st3" cx="-23.9" cy="880.7" r="10.1"/>
					</g>
				</g>
				<g>
					<g>
						<circle class="st3" cx="-23.9" cy="803.6" r="10.1"/>
					</g>
				</g>
				<g>
					<g>
						<circle class="st3" cx="-73.3" cy="1072.4" r="10.1"/>
					</g>
				</g>
				<g>
					<g>
						<circle class="st3" cx="-73.3" cy="1149.3" r="10.1"/>
					</g>
				</g>
				<g>
					<g>
						<circle class="st3" cx="-73.3" cy="1226.2" r="10.1"/>
					</g>
				</g>
				<g>
					<g>
						<circle class="st3" cx="-73.1" cy="1303.2" r="10.1"/>
					</g>
				</g>
				<g>
					<g>
						<circle class="st3" cx="-73.3" cy="995.5" r="10.1"/>
					</g>
				</g>
				<g>
					<g>
						<circle class="st3" cx="-73.3" cy="918.6" r="10.1"/>
					</g>
				</g>
				<g>
					<g>
						<circle class="st3" cx="-73.3" cy="841.6" r="10.1"/>
					</g>
				</g>
				<g>
					<g>
						<circle class="st3" cx="-73.3" cy="763.6" r="10.1"/>
					</g>
				</g>
			</g>
		</g>
	</g>
	<g>
		<defs>
			<circle id="SVGID_6_" cx="-48.9" cy="150" r="150"/>
		</defs>
		<clipPath id="SVGID_7_">
			<use xlink:href="#SVGID_6_"  style="overflow:visible;"/>
		</clipPath>
		<g class="st4">
			<g>
				<defs>
					<circle id="SVGID_8_" cx="-48.9" cy="150" r="150"/>
				</defs>
				<clipPath id="SVGID_9_">
					<use xlink:href="#SVGID_8_"  style="overflow:visible;"/>
				</clipPath>
			</g>
			<g>
				<defs>
					<circle id="SVGID_10_" cx="-48.9" cy="150" r="150"/>
				</defs>
				<clipPath id="SVGID_11_">
					<use xlink:href="#SVGID_10_"  style="overflow:visible;"/>
				</clipPath>
				<g class="st5">
					<path class="st6" d="M-48.9,5c38.7,0,75.1,15.1,102.5,42.5S96.1,111.3,96.1,150S81,225.1,53.6,252.5S-10.2,295-48.9,295
						s-75.1-15.1-102.5-42.5s-42.5-63.8-42.5-102.5s15.1-75.1,42.5-102.5S-87.6,5-48.9,5 M-48.9,0c-82.8,0-150,67.2-150,150
						s67.2,150,150,150s150-67.2,150-150S33.9,0-48.9,0L-48.9,0z"/>
				</g>
			</g>
		</g>
	</g>
</g>
</svg>
