<?xml version="1.0" encoding="utf-8"?>
<!-- Generator: Adobe Illustrator 19.0.0, SVG Export Plug-In . SVG Version: 6.00 Build 0)  -->
<svg version="1.1" id="Layer_1" xmlns="http://www.w3.org/2000/svg" xmlns:xlink="http://www.w3.org/1999/xlink" x="0px" y="0px"
	 viewBox="0 0 300 300" style="enable-background:new 0 0 300 300;" xml:space="preserve">
<style type="text/css">
	.st0{clip-path:url(#SVGID_2_);}
	.st1{clip-path:url(#XMLID_3_);}
	.st2{fill:#F1F1F2;stroke:#404041;stroke-linejoin:round;stroke-miterlimit:10;}
	.st3{fill:none;stroke:#808184;stroke-width:0.5;stroke-miterlimit:10;}
	.st4{fill:none;stroke:#808184;stroke-width:0.5;stroke-miterlimit:10;stroke-dasharray:1.0033,2.0066;}
	.st5{fill:#929497;}
	.st6{fill:#C5C7C9;}
	.st7{fill:#FFFFFF;stroke:#404041;stroke-miterlimit:10;}
	.st8{fill:#F1F1F2;}
	.st9{fill:#F1F1F2;stroke:#404041;stroke-miterlimit:10;}
	.st10{fill:none;stroke:#808184;stroke-width:0.5;stroke-miterlimit:10;stroke-dasharray:1,2;}
	.st11{fill:#DBDCDD;}
	.st12{fill:#404041;}
	.st13{fill:#D0D2D3;}
	.st14{fill:#FFFFFF;}
	.st15{fill:#6D6E70;}
	.st16{fill:#9AA0BB;}
</style>
<g>
	<defs>
		<circle id="SVGID_1_" cx="150.1" cy="149.6" r="150"/>
	</defs>
	<use xlink:href="#SVGID_1_"  style="overflow:visible;fill:#DDDDDD;"/>
	<clipPath id="SVGID_2_">
		<use xlink:href="#SVGID_1_"  style="overflow:visible;"/>
	</clipPath>
	<g id="XMLID_4081_" class="st0">
		<defs>
			<rect id="XMLID_4118_" y="-0.4" width="300" height="300"/>
		</defs>
		<clipPath id="XMLID_3_">
			<use xlink:href="#XMLID_4118_"  style="overflow:visible;"/>
		</clipPath>
		<g class="st1">
			<path class="st2" d="M110.7,31c0,0,15.5,6.2,39.2,6.2s39.2-6.2,39.2-6.2l-9.5,146.9l-29.1,75.3l-30.8-75.8L110.7,31z"/>
			<g>
				<g>
					<g>
						<line class="st3" x1="149.8" y1="47" x2="149.8" y2="47.5"/>
						<line class="st4" x1="149.8" y1="49.5" x2="149.8" y2="226.1"/>
						<line class="st3" x1="149.8" y1="227.1" x2="149.8" y2="227.6"/>
					</g>
				</g>
				<path class="st5" d="M140,49l0.7,0.7c0,0,4.9-0.4,9.1-0.4s9.4,0.4,9.4,0.4l0.4-0.7H140z"/>
				<path class="st6" d="M140.6,49.6l0.5,0.5c0,0,4.7-0.4,8.8-0.4s9.2,0.4,9.2,0.4l0.3-0.5l-9.5-0.2L140.6,49.6z"/>
				<path class="st7" d="M149.9,45.7c-4.3,0-7.9-0.1-10.9-0.3l1.2,3.6h9.6h0.1h9.6l1.2-3.7C157.8,45.5,154.2,45.7,149.9,45.7z"/>
			</g>
			<path class="st7" d="M104.8,34c0,0,2.9,11.8,44.5,11.8S194.9,34,194.9,34l-5.8-3c0,0-15.9,6.2-39.2,6.2s-39.1-6.1-39.1-6.1
				L104.8,34z"/>
			<g>
				<path class="st5" d="M183.2,32.9c0,0,2.3,1.3,2.4,8.1l1.9-0.4l1.3-9.5C188.7,31,188.7,31.5,183.2,32.9z"/>
				<path class="st8" d="M184.6,32.5c0,0,2.7,6.9,0.3,8.5c0,0-0.6-8.1-2.2-8L184.6,32.5z"/>
				<path class="st6" d="M186.3,32c0,0,1.2,5.7-0.4,8.5c-0.3,0.5-0.6,0.1-1,0.4c0,0,2-1.7-0.3-8.5L186.3,32z"/>
			</g>
			<g>
				<path class="st5" d="M116.9,32.9c0,0-2.3,1.3-2.4,8.1l-1.9-0.4l-1.3-9.5C111.3,31,111.3,31.5,116.9,32.9z"/>
				<path class="st8" d="M115.4,32.5c0,0-2.7,6.9-0.3,8.5c0,0,0.6-8.1,2.2-8L115.4,32.5z"/>
				<path class="st6" d="M113.7,32c0,0-1.2,5.7,0.4,8.5c0.3,0.5,0.6,0.1,1,0.4c0,0-2-1.7,0.3-8.5L113.7,32z"/>
			</g>
			<g>
				<path class="st6" d="M110.7,31c0,0,15.8,31.8,19.9,39.6c4,7.8,19.3,35.2,19.3,35.2s13.8-23.4,19.5-34.1S189.1,31,189.1,31l5.8,3
					l-35.6,141.7l-8.9,15.4l-4.6-1.5l-3.7-12.9l-13.4-69.4L104.8,34L110.7,31z"/>
				<polygon class="st5" points="107.4,32.7 149.8,108.6 192.7,32.7 194.9,34 159.3,180.5 150.1,203.9 145.8,194.4 142.1,181.5 
					122.9,117.5 104.8,34 				"/>
			</g>
			<g>
				<g>
					<path class="st9" d="M86.6,42.6c0,0,13.6,68.7-18.9,93.5l7.9,23.9l47.3-49.1l-15.4-73.7L86.6,42.6z"/>
					<g>
						<path class="st6" d="M96.5,69.8c0,0,1.6,23.2-4.2,38.5c-3.2,8.5-3.3,9-12.5,17.9c-5.6,5.5-12.1,10-12.1,10l11,10.1l24.2-10.6
							l3.5-74.5L96.5,69.8z"/>
						<path class="st5" d="M96.2,67.3c0,0,0.8,41.3-6.8,51.9c-6.3,8.9-21.7,16.9-21.7,16.9l13.1,10.1l24.2-10.6l3.5-74.5L96.2,67.3z
							"/>
					</g>
					<path class="st7" d="M110.9,31L86.6,42.6c0,0,15.2,57.9,6.2,74.8s-25.1,18.7-25.1,18.7s7.6,19,7.6,49.5c0,29-0.9,37.3-0.9,37.3
						l-8.8,37h90v-24.9V124.8c0-3.5-1-6.9-2.9-9.8c-5.3-8-16.3-25.1-22.7-38.3C121.5,58.9,110.9,31,110.9,31z"/>
					<g>
						<line class="st10" x1="109.4" y1="166.1" x2="109.4" y2="260"/>
						<polygon class="st8" points="84,232.3 84,230.5 123.1,230.5 123.1,232.2 						"/>
						<polygon class="st6" points="84,233 84,231.2 123.1,231.2 123.1,232.9 						"/>
						<path class="st7" d="M84.2,232v9.3c0,0.3,0.3,0.6,0.6,0.6L122,242c0.3,0,0.6-0.3,0.6-0.6v-9.5L84.2,232z"/>
						<line class="st10" x1="122.6" y1="232.3" x2="84.2" y2="232.4"/>
					</g>
				</g>
				<g>
					<path class="st8" d="M148.9,109.1c0,0-14.5,20.4-14.9,25.4c-0.3,5-0.3,125.5-0.3,125.5l8.8,0.3L155,150l1.1-32.6L148.9,109.1z"
						/>
					<path class="st6" d="M149.5,110c0,0-14,19.8-14.3,24.7c-0.3,5,0,125.2,0,125.2l9.4-1.8L157.1,148l1.1-32.6L149.5,110z"/>
				</g>
				<g>
					<path class="st9" d="M213.4,42.6c0,0-13.6,68.7,18.9,93.5l-7.9,23.9l-47.3-49.1l15.4-73.7L213.4,42.6z"/>
					<g>
						<path class="st6" d="M203.5,69.8c0,0-1.6,23.2,4.2,38.5c3.2,8.5,3.3,9,12.5,17.9c5.6,5.5,12.1,10,12.1,10l-11,10.1l-24.2-10.6
							l-3.5-74.5L203.5,69.8z"/>
						<path class="st5" d="M203.8,67.3c0,0-0.8,41.3,6.8,51.9c6.3,8.9,21.7,16.9,21.7,16.9l-13.1,10.1L195,135.6l-3.5-74.5
							L203.8,67.3z"/>
					</g>
					<path class="st7" d="M189.1,31l24.3,11.6c0,0-15.2,57.9-6.2,74.8c9,17,25.1,18.7,25.1,18.7s-7.6,19-7.6,49.5
						c0,29,0.9,37.3,0.9,37.3l8.8,37l-97.3,1v-25.9v-98.1c0-3.5,1-6.9,2.9-9.8c5.3-8,23.6-37.3,30-50.5
						C178.5,58.9,189.1,31,189.1,31z"/>
					<g>
						<g id="XMLID_3937_">
							<g id="XMLID_3953_">
								<circle class="st8" cx="142.4" cy="131.5" r="1.8"/>
							</g>
							<g id="XMLID_3952_">
								<circle class="st11" cx="142.5" cy="131.4" r="1.7"/>
							</g>
							<g id="XMLID_3951_">
								<polygon class="st12" points="146.3,131.3 143.4,130.9 140.2,131.3 143.4,131.8 								"/>
								<path class="st13" d="M143.4,131.8L143.4,131.8l-3.7-0.5l3.7-0.5l0,0l3.3,0.5L143.4,131.8z M140.7,131.3l2.8,0.4l2.4-0.4
									l-2.5-0.4L140.7,131.3z"/>
							</g>
							<g id="XMLID_3950_">
								<circle class="st14" cx="142.4" cy="131.2" r="1.7"/>
								<path class="st15" d="M142.4,133c-1,0-1.8-0.8-1.8-1.8s0.8-1.8,1.8-1.8c1,0,1.8,0.8,1.8,1.8S143.4,133,142.4,133z
									 M142.4,129.6c-0.9,0-1.6,0.7-1.6,1.6s0.7,1.6,1.6,1.6c0.9,0,1.6-0.7,1.6-1.6S143.3,129.6,142.4,129.6z"/>
							</g>
							<g id="XMLID_3949_">
								<circle class="st14" cx="142.4" cy="131.2" r="1.5"/>
								<path class="st5" d="M142.4,132.7c-0.8,0-1.5-0.7-1.5-1.5c0-0.8,0.7-1.5,1.5-1.5s1.5,0.7,1.5,1.5
									C143.9,132,143.3,132.7,142.4,132.7z M142.4,129.7c-0.8,0-1.4,0.6-1.4,1.4c0,0.8,0.6,1.4,1.4,1.4s1.4-0.6,1.4-1.4
									C143.9,130.4,143.2,129.7,142.4,129.7z"/>
							</g>
							<g id="XMLID_3948_">
								<circle class="st12" cx="142.2" cy="130.8" r="0.2"/>
							</g>
							<g id="XMLID_3947_">
								<circle class="st12" cx="142.7" cy="131.8" r="0.2"/>
							</g>
							<g id="XMLID_3946_">
								
									<rect x="141.7" y="131.3" transform="matrix(0.4371 0.8994 -0.8994 0.4371 198.2221 -54.0933)" class="st15" width="1.2" height="0.1"/>
							</g>
							<g id="XMLID_3944_">
								
									<rect x="141.9" y="131.2" transform="matrix(0.4371 0.8994 -0.8994 0.4371 198.2489 -54.25)" class="st15" width="1.2" height="0.1"/>
							</g>
							<g id="XMLID_3943_">
								
									<rect x="141.7" y="131.3" transform="matrix(0.4371 0.8994 -0.8994 0.4371 198.2221 -54.0933)" class="st15" width="1.2" height="0.1"/>
							</g>
							<g id="XMLID_3942_">
								
									<rect x="141.9" y="131.2" transform="matrix(0.4371 0.8994 -0.8994 0.4371 198.2489 -54.25)" class="st15" width="1.2" height="0.1"/>
							</g>
							<g id="XMLID_3941_">
								<circle class="st12" cx="141.9" cy="131.6" r="0.2"/>
							</g>
							<g id="XMLID_3940_">
								<circle class="st12" cx="142.9" cy="131.1" r="0.2"/>
							</g>
							<g id="XMLID_3939_">
								
									<rect x="142.3" y="130.8" transform="matrix(0.4374 0.8993 -0.8993 0.4374 198.276 -54.1396)" class="st15" width="0.1" height="1.2"/>
							</g>
							<g id="XMLID_3938_">
								
									<rect x="142.3" y="130.7" transform="matrix(0.4374 0.8993 -0.8993 0.4374 198.1193 -54.1663)" class="st15" width="0.1" height="1.2"/>
							</g>
						</g>
						<g id="XMLID_3920_">
							<g id="XMLID_3936_">
								<circle class="st8" cx="142.4" cy="155.5" r="1.8"/>
							</g>
							<g id="XMLID_3935_">
								<circle class="st11" cx="142.5" cy="155.4" r="1.7"/>
							</g>
							<g id="XMLID_3934_">
								<polygon class="st12" points="146.3,155.3 143.4,154.9 140.2,155.3 143.4,155.7 								"/>
								<path class="st13" d="M143.4,155.8L143.4,155.8l-3.7-0.5l3.7-0.5l0,0l3.3,0.5L143.4,155.8z M140.7,155.3l2.8,0.4l2.4-0.4
									l-2.5-0.4L140.7,155.3z"/>
							</g>
							<g id="XMLID_3932_">
								<circle class="st14" cx="142.4" cy="155.2" r="1.7"/>
								<path class="st15" d="M142.4,157c-1,0-1.8-0.8-1.8-1.8c0-1,0.8-1.8,1.8-1.8c1,0,1.8,0.8,1.8,1.8
									C144.3,156.2,143.4,157,142.4,157z M142.4,153.6c-0.9,0-1.6,0.7-1.6,1.6c0,0.9,0.7,1.6,1.6,1.6c0.9,0,1.6-0.7,1.6-1.6
									C144,154.3,143.3,153.6,142.4,153.6z"/>
							</g>
							<g id="XMLID_3931_">
								<circle class="st14" cx="142.4" cy="155.2" r="1.5"/>
								<path class="st5" d="M142.4,156.6c-0.8,0-1.5-0.7-1.5-1.5c0-0.8,0.7-1.5,1.5-1.5s1.5,0.7,1.5,1.5
									C143.9,156,143.3,156.6,142.4,156.6z M142.4,153.7c-0.8,0-1.4,0.6-1.4,1.4c0,0.8,0.6,1.4,1.4,1.4s1.4-0.6,1.4-1.4
									C143.9,154.4,143.2,153.7,142.4,153.7z"/>
							</g>
							<g id="XMLID_3930_">
								<circle class="st12" cx="142.2" cy="154.8" r="0.2"/>
							</g>
							<g id="XMLID_3929_">
								<circle class="st12" cx="142.7" cy="155.8" r="0.2"/>
							</g>
							<g id="XMLID_3928_">
								
									<rect x="141.7" y="155.2" transform="matrix(0.4371 0.8994 -0.8994 0.4371 219.7913 -40.594)" class="st15" width="1.2" height="0.1"/>
							</g>
							<g id="XMLID_3927_">
								
									<rect x="141.9" y="155.2" transform="matrix(0.4371 0.8994 -0.8994 0.4371 219.8181 -40.7507)" class="st15" width="1.2" height="0.1"/>
							</g>
							<g id="XMLID_3926_">
								
									<rect x="141.7" y="155.2" transform="matrix(0.4371 0.8994 -0.8994 0.4371 219.7913 -40.594)" class="st15" width="1.2" height="0.1"/>
							</g>
							<g id="XMLID_3925_">
								
									<rect x="141.9" y="155.2" transform="matrix(0.4371 0.8994 -0.8994 0.4371 219.8181 -40.7507)" class="st15" width="1.2" height="0.1"/>
							</g>
							<g id="XMLID_3924_">
								<circle class="st12" cx="141.9" cy="155.6" r="0.2"/>
							</g>
							<g id="XMLID_3923_">
								<circle class="st12" cx="142.9" cy="155" r="0.2"/>
							</g>
							<g id="XMLID_3922_">
								
									<rect x="142.3" y="154.8" transform="matrix(0.4374 0.8993 -0.8993 0.4374 219.8413 -40.6483)" class="st15" width="0.1" height="1.2"/>
							</g>
							<g id="XMLID_3921_">
								
									<rect x="142.3" y="154.7" transform="matrix(0.4374 0.8993 -0.8993 0.4374 219.6846 -40.675)" class="st15" width="0.1" height="1.2"/>
							</g>
						</g>
						<g id="XMLID_3904_">
							<g id="XMLID_3919_">
								<circle class="st8" cx="142.4" cy="179.4" r="1.8"/>
							</g>
							<g id="XMLID_3918_">
								<circle class="st11" cx="142.5" cy="179.4" r="1.7"/>
							</g>
							<g id="XMLID_3917_">
								<polygon class="st12" points="146.3,179.3 143.4,178.9 140.2,179.3 143.4,179.7 								"/>
								<path class="st13" d="M143.4,179.8L143.4,179.8l-3.7-0.5l3.7-0.5l0,0l3.3,0.5L143.4,179.8z M140.7,179.3l2.8,0.4l2.4-0.4
									l-2.5-0.4L140.7,179.3z"/>
							</g>
							<g id="XMLID_3916_">
								<circle class="st14" cx="142.4" cy="179.1" r="1.7"/>
								<path class="st15" d="M142.4,181c-1,0-1.8-0.8-1.8-1.8c0-1,0.8-1.8,1.8-1.8c1,0,1.8,0.8,1.8,1.8
									C144.3,180.1,143.4,181,142.4,181z M142.4,177.6c-0.9,0-1.6,0.7-1.6,1.6c0,0.9,0.7,1.6,1.6,1.6c0.9,0,1.6-0.7,1.6-1.6
									C144,178.3,143.3,177.6,142.4,177.6z"/>
							</g>
							<g id="XMLID_3915_">
								<circle class="st14" cx="142.4" cy="179.1" r="1.5"/>
								<path class="st5" d="M142.4,180.6c-0.8,0-1.5-0.7-1.5-1.5c0-0.8,0.7-1.5,1.5-1.5s1.5,0.7,1.5,1.5
									C143.9,180,143.3,180.6,142.4,180.6z M142.4,177.7c-0.8,0-1.4,0.6-1.4,1.4c0,0.8,0.6,1.4,1.4,1.4s1.4-0.6,1.4-1.4
									C143.9,178.3,143.2,177.7,142.4,177.7z"/>
							</g>
							<g id="XMLID_3914_">
								<circle class="st12" cx="142.2" cy="178.7" r="0.2"/>
							</g>
							<g id="XMLID_3913_">
								<circle class="st12" cx="142.7" cy="179.8" r="0.2"/>
							</g>
							<g id="XMLID_3912_">
								
									<rect x="141.7" y="179.2" transform="matrix(0.4371 0.8994 -0.8994 0.4371 241.3605 -27.0947)" class="st15" width="1.2" height="0.1"/>
							</g>
							<g id="XMLID_3911_">
								
									<rect x="141.9" y="179.2" transform="matrix(0.4371 0.8994 -0.8994 0.4371 241.3873 -27.2514)" class="st15" width="1.2" height="0.1"/>
							</g>
							<g id="XMLID_3910_">
								
									<rect x="141.7" y="179.2" transform="matrix(0.4371 0.8994 -0.8994 0.4371 241.3605 -27.0947)" class="st15" width="1.2" height="0.1"/>
							</g>
							<g id="XMLID_3909_">
								
									<rect x="141.9" y="179.2" transform="matrix(0.4371 0.8994 -0.8994 0.4371 241.3873 -27.2514)" class="st15" width="1.2" height="0.1"/>
							</g>
							<g id="XMLID_3908_">
								<circle class="st12" cx="141.9" cy="179.5" r="0.2"/>
							</g>
							<g id="XMLID_3907_">
								<circle class="st12" cx="142.9" cy="179" r="0.2"/>
							</g>
							<g id="XMLID_3906_">
								
									<rect x="142.3" y="178.8" transform="matrix(0.4374 0.8993 -0.8993 0.4374 241.4066 -27.157)" class="st15" width="0.1" height="1.2"/>
							</g>
							<g id="XMLID_3905_">
								
									<rect x="142.3" y="178.6" transform="matrix(0.4374 0.8993 -0.8993 0.4374 241.2499 -27.1837)" class="st15" width="0.1" height="1.2"/>
							</g>
						</g>
						<g id="XMLID_3887_">
							<g id="XMLID_3903_">
								<circle class="st8" cx="142.4" cy="203.4" r="1.8"/>
							</g>
							<g id="XMLID_3902_">
								<circle class="st11" cx="142.5" cy="203.3" r="1.7"/>
							</g>
							<g id="XMLID_3900_">
								<polygon class="st12" points="146.3,203.3 143.4,202.9 140.2,203.3 143.4,203.7 								"/>
								<path class="st13" d="M143.4,203.8L143.4,203.8l-3.7-0.5l3.7-0.5l0,0l3.3,0.5L143.4,203.8z M140.7,203.3l2.8,0.4l2.4-0.4
									l-2.5-0.4L140.7,203.3z"/>
							</g>
							<g id="XMLID_3899_">
								<circle class="st14" cx="142.4" cy="203.1" r="1.7"/>
								<path class="st15" d="M142.4,204.9c-1,0-1.8-0.8-1.8-1.8s0.8-1.8,1.8-1.8c1,0,1.8,0.8,1.8,1.8S143.4,204.9,142.4,204.9z
									 M142.4,201.5c-0.9,0-1.6,0.7-1.6,1.6s0.7,1.6,1.6,1.6c0.9,0,1.6-0.7,1.6-1.6S143.3,201.5,142.4,201.5z"/>
							</g>
							<g id="XMLID_3898_">
								<circle class="st14" cx="142.4" cy="203.1" r="1.5"/>
								<path class="st5" d="M142.4,204.6c-0.8,0-1.5-0.7-1.5-1.5c0-0.8,0.7-1.5,1.5-1.5s1.5,0.7,1.5,1.5
									C143.9,203.9,143.3,204.6,142.4,204.6z M142.4,201.7c-0.8,0-1.4,0.6-1.4,1.4c0,0.8,0.6,1.4,1.4,1.4s1.4-0.6,1.4-1.4
									C143.9,202.3,143.2,201.7,142.4,201.7z"/>
							</g>
							<g id="XMLID_3897_">
								<circle class="st12" cx="142.2" cy="202.7" r="0.2"/>
							</g>
							<g id="XMLID_3896_">
								<circle class="st12" cx="142.7" cy="203.8" r="0.2"/>
							</g>
							<g id="XMLID_3895_">
								
									<rect x="141.7" y="203.2" transform="matrix(0.4371 0.8994 -0.8994 0.4371 262.9297 -13.5954)" class="st15" width="1.2" height="0.1"/>
							</g>
							<g id="XMLID_3894_">
								
									<rect x="141.9" y="203.1" transform="matrix(0.4371 0.8994 -0.8994 0.4371 262.9565 -13.7521)" class="st15" width="1.2" height="0.1"/>
							</g>
							<g id="XMLID_3893_">
								
									<rect x="141.7" y="203.2" transform="matrix(0.4371 0.8994 -0.8994 0.4371 262.9297 -13.5954)" class="st15" width="1.2" height="0.1"/>
							</g>
							<g id="XMLID_3892_">
								
									<rect x="141.9" y="203.1" transform="matrix(0.4371 0.8994 -0.8994 0.4371 262.9565 -13.7521)" class="st15" width="1.2" height="0.1"/>
							</g>
							<g id="XMLID_3891_">
								<circle class="st12" cx="141.9" cy="203.5" r="0.2"/>
							</g>
							<g id="XMLID_3890_">
								<circle class="st12" cx="142.9" cy="203" r="0.2"/>
							</g>
							<g id="XMLID_3889_">
								
									<rect x="142.3" y="202.8" transform="matrix(0.4374 0.8993 -0.8993 0.4374 262.9719 -13.6657)" class="st15" width="0.1" height="1.2"/>
							</g>
							<g id="XMLID_3888_">
								
									<rect x="142.3" y="202.6" transform="matrix(0.4374 0.8993 -0.8993 0.4374 262.8152 -13.6924)" class="st15" width="0.1" height="1.2"/>
							</g>
						</g>
						<line class="st10" x1="190.6" y1="166.1" x2="190.6" y2="260"/>
						<g id="XMLID_3871_">
							<g id="XMLID_3886_">
								<circle class="st8" cx="142.4" cy="227.4" r="1.8"/>
							</g>
							<g id="XMLID_3885_">
								<circle class="st11" cx="142.5" cy="227.3" r="1.7"/>
							</g>
							<g id="XMLID_3884_">
								<polygon class="st12" points="146.3,227.3 143.4,226.8 140.2,227.3 143.4,227.7 								"/>
								<path class="st13" d="M143.4,227.8L143.4,227.8l-3.7-0.5l3.7-0.5l0,0l3.3,0.5L143.4,227.8z M140.7,227.3l2.8,0.4l2.4-0.4
									l-2.5-0.4L140.7,227.3z"/>
							</g>
							<g id="XMLID_3883_">
								<circle class="st14" cx="142.4" cy="227.1" r="1.7"/>
								<path class="st15" d="M142.4,228.9c-1,0-1.8-0.8-1.8-1.8c0-1,0.8-1.8,1.8-1.8c1,0,1.8,0.8,1.8,1.8
									C144.3,228.1,143.4,228.9,142.4,228.9z M142.4,225.5c-0.9,0-1.6,0.7-1.6,1.6c0,0.9,0.7,1.6,1.6,1.6c0.9,0,1.6-0.7,1.6-1.6
									C144,226.2,143.3,225.5,142.4,225.5z"/>
							</g>
							<g id="XMLID_3882_">
								<circle class="st14" cx="142.4" cy="227.1" r="1.5"/>
								<path class="st5" d="M142.4,228.6c-0.8,0-1.5-0.7-1.5-1.5c0-0.8,0.7-1.5,1.5-1.5s1.5,0.7,1.5,1.5
									C143.9,227.9,143.3,228.6,142.4,228.6z M142.4,225.7c-0.8,0-1.4,0.6-1.4,1.4c0,0.8,0.6,1.4,1.4,1.4s1.4-0.6,1.4-1.4
									C143.9,226.3,143.2,225.7,142.4,225.7z"/>
							</g>
							<g id="XMLID_3881_">
								<circle class="st12" cx="142.2" cy="226.7" r="0.2"/>
							</g>
							<g id="XMLID_3880_">
								<circle class="st12" cx="142.7" cy="227.8" r="0.2"/>
							</g>
							<g id="XMLID_3879_">
								
									<rect x="141.7" y="227.2" transform="matrix(0.4371 0.8994 -0.8994 0.4371 284.4988 -9.608007e-02)" class="st15" width="1.2" height="0.1"/>
							</g>
							<g id="XMLID_3878_">
								
									<rect x="141.9" y="227.1" transform="matrix(0.4371 0.8994 -0.8994 0.4371 284.5256 -0.2528)" class="st15" width="1.2" height="0.1"/>
							</g>
							<g id="XMLID_3877_">
								
									<rect x="141.7" y="227.2" transform="matrix(0.4371 0.8994 -0.8994 0.4371 284.4988 -9.608007e-02)" class="st15" width="1.2" height="0.1"/>
							</g>
							<g id="XMLID_3876_">
								
									<rect x="141.9" y="227.1" transform="matrix(0.4371 0.8994 -0.8994 0.4371 284.5256 -0.2528)" class="st15" width="1.2" height="0.1"/>
							</g>
							<g id="XMLID_3875_">
								<circle class="st12" cx="141.9" cy="227.5" r="0.2"/>
							</g>
							<g id="XMLID_3874_">
								<circle class="st12" cx="142.9" cy="227" r="0.2"/>
							</g>
							<g id="XMLID_3873_">
								
									<rect x="142.3" y="226.7" transform="matrix(0.4374 0.8993 -0.8993 0.4374 284.5371 -0.1744)" class="st15" width="0.1" height="1.2"/>
							</g>
							<g id="XMLID_3872_">
								
									<rect x="142.3" y="226.6" transform="matrix(0.4374 0.8993 -0.8993 0.4374 284.3805 -0.2011)" class="st15" width="0.1" height="1.2"/>
							</g>
						</g>
						<g id="XMLID_3755_">
							<g id="XMLID_3870_">
								<circle class="st8" cx="142.4" cy="251.4" r="1.8"/>
							</g>
							<g id="XMLID_3869_">
								<circle class="st11" cx="142.5" cy="251.3" r="1.7"/>
							</g>
							<g id="XMLID_3868_">
								<polygon class="st12" points="146.3,251.2 143.4,250.8 140.2,251.2 143.4,251.7 								"/>
								<path class="st13" d="M143.4,251.7L143.4,251.7l-3.7-0.5l3.7-0.5l0,0l3.3,0.5L143.4,251.7z M140.7,251.2l2.8,0.4l2.4-0.4
									l-2.5-0.4L140.7,251.2z"/>
							</g>
							<g id="XMLID_3867_">
								<circle class="st14" cx="142.4" cy="251.1" r="1.7"/>
								<path class="st15" d="M142.4,252.9c-1,0-1.8-0.8-1.8-1.8s0.8-1.8,1.8-1.8c1,0,1.8,0.8,1.8,1.8S143.4,252.9,142.4,252.9z
									 M142.4,249.5c-0.9,0-1.6,0.7-1.6,1.6s0.7,1.6,1.6,1.6c0.9,0,1.6-0.7,1.6-1.6S143.3,249.5,142.4,249.5z"/>
							</g>
							<g id="XMLID_3866_">
								<circle class="st14" cx="142.4" cy="251.1" r="1.5"/>
								<path class="st5" d="M142.4,252.6c-0.8,0-1.5-0.7-1.5-1.5c0-0.8,0.7-1.5,1.5-1.5s1.5,0.7,1.5,1.5
									C143.9,251.9,143.3,252.6,142.4,252.6z M142.4,249.6c-0.8,0-1.4,0.6-1.4,1.4c0,0.8,0.6,1.4,1.4,1.4s1.4-0.6,1.4-1.4
									C143.9,250.3,143.2,249.6,142.4,249.6z"/>
							</g>
							<g id="XMLID_3836_">
								<circle class="st12" cx="142.2" cy="250.7" r="0.2"/>
							</g>
							<g id="XMLID_3835_">
								<circle class="st12" cx="142.7" cy="251.7" r="0.2"/>
							</g>
							<g id="XMLID_3834_">
								
									<rect x="141.7" y="251.2" transform="matrix(0.4371 0.8994 -0.8994 0.4371 306.068 13.4032)" class="st15" width="1.2" height="0.1"/>
							</g>
							<g id="XMLID_3833_">
								
									<rect x="141.9" y="251.1" transform="matrix(0.4371 0.8994 -0.8994 0.4371 306.0948 13.2465)" class="st15" width="1.2" height="0.1"/>
							</g>
							<g id="XMLID_3832_">
								
									<rect x="141.7" y="251.2" transform="matrix(0.4371 0.8994 -0.8994 0.4371 306.068 13.4032)" class="st15" width="1.2" height="0.1"/>
							</g>
							<g id="XMLID_3766_">
								
									<rect x="141.9" y="251.1" transform="matrix(0.4371 0.8994 -0.8994 0.4371 306.0948 13.2465)" class="st15" width="1.2" height="0.1"/>
							</g>
							<g id="XMLID_3759_">
								<circle class="st12" cx="141.9" cy="251.5" r="0.2"/>
							</g>
							<g id="XMLID_3758_">
								<circle class="st12" cx="142.9" cy="251" r="0.2"/>
							</g>
							<g id="XMLID_3757_">
								
									<rect x="142.3" y="250.7" transform="matrix(0.4374 0.8993 -0.8993 0.4374 306.1024 13.3169)" class="st15" width="0.1" height="1.2"/>
							</g>
							<g id="XMLID_3756_">
								
									<rect x="142.3" y="250.6" transform="matrix(0.4374 0.8993 -0.8993 0.4374 305.9457 13.2902)" class="st15" width="0.1" height="1.2"/>
							</g>
						</g>
						<g id="XMLID_2259_">
							<g id="XMLID_3684_">
								<circle class="st8" cx="161" cy="131.5" r="1.8"/>
							</g>
							<g id="XMLID_3683_">
								<circle class="st11" cx="161" cy="131.4" r="1.7"/>
							</g>
							<g id="XMLID_3682_">
								<circle class="st14" cx="161" cy="131.2" r="1.7"/>
								<path class="st15" d="M161,133c-1,0-1.8-0.8-1.8-1.8s0.8-1.8,1.8-1.8c1,0,1.8,0.8,1.8,1.8S162,133,161,133z M161,129.6
									c-0.9,0-1.6,0.7-1.6,1.6s0.7,1.6,1.6,1.6s1.6-0.7,1.6-1.6S161.9,129.6,161,129.6z"/>
							</g>
							<g id="XMLID_3681_">
								<circle class="st14" cx="161" cy="131.2" r="1.5"/>
								<path class="st5" d="M161,132.7c-0.8,0-1.5-0.7-1.5-1.5c0-0.8,0.7-1.5,1.5-1.5s1.5,0.7,1.5,1.5
									C162.5,132,161.8,132.7,161,132.7z M161,129.7c-0.8,0-1.4,0.6-1.4,1.4c0,0.8,0.6,1.4,1.4,1.4s1.4-0.6,1.4-1.4
									C162.4,130.4,161.8,129.7,161,129.7z"/>
							</g>
							<g id="XMLID_3680_">
								<circle class="st12" cx="160.7" cy="130.8" r="0.2"/>
							</g>
							<g id="XMLID_3607_">
								<circle class="st12" cx="161.2" cy="131.8" r="0.2"/>
							</g>
							<g id="XMLID_3606_">
								
									<rect x="160.3" y="131.3" transform="matrix(0.4371 0.8994 -0.8994 0.4371 208.6701 -70.787)" class="st15" width="1.2" height="0.1"/>
							</g>
							<g id="XMLID_3605_">
								
									<rect x="160.4" y="131.2" transform="matrix(0.4371 0.8994 -0.8994 0.4371 208.6969 -70.9437)" class="st15" width="1.2" height="0.1"/>
							</g>
							<g id="XMLID_3604_">
								
									<rect x="160.3" y="131.3" transform="matrix(0.4371 0.8994 -0.8994 0.4371 208.6701 -70.787)" class="st15" width="1.2" height="0.1"/>
							</g>
							<g id="XMLID_3603_">
								
									<rect x="160.4" y="131.2" transform="matrix(0.4371 0.8994 -0.8994 0.4371 208.6969 -70.9437)" class="st15" width="1.2" height="0.1"/>
							</g>
							<g id="XMLID_2263_">
								<circle class="st12" cx="160.4" cy="131.6" r="0.2"/>
							</g>
							<g id="XMLID_2262_">
								<circle class="st12" cx="161.5" cy="131.1" r="0.2"/>
							</g>
							<g id="XMLID_2261_">
								
									<rect x="160.9" y="130.8" transform="matrix(0.4374 0.8993 -0.8993 0.4374 208.7178 -70.8303)" class="st15" width="0.1" height="1.2"/>
							</g>
							<g id="XMLID_2260_">
								
									<rect x="160.9" y="130.7" transform="matrix(0.4374 0.8993 -0.8993 0.4374 208.5611 -70.857)" class="st15" width="0.1" height="1.2"/>
							</g>
						</g>
						<g id="XMLID_1980_">
							<g id="XMLID_2258_">
								<circle class="st8" cx="161" cy="155.5" r="1.8"/>
							</g>
							<g id="XMLID_2257_">
								<circle class="st11" cx="161" cy="155.4" r="1.7"/>
							</g>
							<g id="XMLID_2256_">
								<circle class="st14" cx="161" cy="155.2" r="1.7"/>
								<path class="st15" d="M161,157c-1,0-1.8-0.8-1.8-1.8c0-1,0.8-1.8,1.8-1.8c1,0,1.8,0.8,1.8,1.8C162.8,156.2,162,157,161,157z
									 M161,153.6c-0.9,0-1.6,0.7-1.6,1.6c0,0.9,0.7,1.6,1.6,1.6s1.6-0.7,1.6-1.6C162.6,154.3,161.9,153.6,161,153.6z"/>
							</g>
							<g id="XMLID_2255_">
								<circle class="st14" cx="161" cy="155.2" r="1.5"/>
								<path class="st5" d="M161,156.6c-0.8,0-1.5-0.7-1.5-1.5c0-0.8,0.7-1.5,1.5-1.5s1.5,0.7,1.5,1.5
									C162.5,156,161.8,156.6,161,156.6z M161,153.7c-0.8,0-1.4,0.6-1.4,1.4c0,0.8,0.6,1.4,1.4,1.4s1.4-0.6,1.4-1.4
									C162.4,154.4,161.8,153.7,161,153.7z"/>
							</g>
							<g id="XMLID_2254_">
								<circle class="st12" cx="160.7" cy="154.8" r="0.2"/>
							</g>
							<g id="XMLID_2253_">
								<circle class="st12" cx="161.2" cy="155.8" r="0.2"/>
							</g>
							<g id="XMLID_2252_">
								
									<rect x="160.3" y="155.2" transform="matrix(0.4371 0.8994 -0.8994 0.4371 230.2393 -57.2877)" class="st15" width="1.2" height="0.1"/>
							</g>
							<g id="XMLID_2251_">
								
									<rect x="160.4" y="155.2" transform="matrix(0.4371 0.8994 -0.8994 0.4371 230.2661 -57.4444)" class="st15" width="1.2" height="0.1"/>
							</g>
							<g id="XMLID_2250_">
								
									<rect x="160.3" y="155.2" transform="matrix(0.4371 0.8994 -0.8994 0.4371 230.2393 -57.2877)" class="st15" width="1.2" height="0.1"/>
							</g>
							<g id="XMLID_1985_">
								
									<rect x="160.4" y="155.2" transform="matrix(0.4371 0.8994 -0.8994 0.4371 230.2661 -57.4444)" class="st15" width="1.2" height="0.1"/>
							</g>
							<g id="XMLID_1984_">
								<circle class="st12" cx="160.4" cy="155.6" r="0.2"/>
							</g>
							<g id="XMLID_1983_">
								<circle class="st12" cx="161.5" cy="155" r="0.2"/>
							</g>
							<g id="XMLID_1982_">
								
									<rect x="160.9" y="154.8" transform="matrix(0.4374 0.8993 -0.8993 0.4374 230.283 -57.339)" class="st15" width="0.1" height="1.2"/>
							</g>
							<g id="XMLID_1981_">
								
									<rect x="160.9" y="154.7" transform="matrix(0.4374 0.8993 -0.8993 0.4374 230.1264 -57.3657)" class="st15" width="0.1" height="1.2"/>
							</g>
						</g>
						<g id="XMLID_1956_">
							<g id="XMLID_1972_">
								<circle class="st8" cx="161" cy="179.4" r="1.8"/>
							</g>
							<g id="XMLID_1969_">
								<circle class="st11" cx="161" cy="179.4" r="1.7"/>
							</g>
							<g id="XMLID_1968_">
								<circle class="st14" cx="161" cy="179.1" r="1.7"/>
								<path class="st15" d="M161,181c-1,0-1.8-0.8-1.8-1.8c0-1,0.8-1.8,1.8-1.8c1,0,1.8,0.8,1.8,1.8C162.8,180.1,162,181,161,181z
									 M161,177.6c-0.9,0-1.6,0.7-1.6,1.6c0,0.9,0.7,1.6,1.6,1.6s1.6-0.7,1.6-1.6C162.6,178.3,161.9,177.6,161,177.6z"/>
							</g>
							<g id="XMLID_1967_">
								<circle class="st14" cx="161" cy="179.1" r="1.5"/>
								<path class="st5" d="M161,180.6c-0.8,0-1.5-0.7-1.5-1.5c0-0.8,0.7-1.5,1.5-1.5s1.5,0.7,1.5,1.5
									C162.5,180,161.8,180.6,161,180.6z M161,177.7c-0.8,0-1.4,0.6-1.4,1.4c0,0.8,0.6,1.4,1.4,1.4s1.4-0.6,1.4-1.4
									C162.4,178.3,161.8,177.7,161,177.7z"/>
							</g>
							<g id="XMLID_1966_">
								<circle class="st12" cx="160.7" cy="178.7" r="0.2"/>
							</g>
							<g id="XMLID_1965_">
								<circle class="st12" cx="161.2" cy="179.8" r="0.2"/>
							</g>
							<g id="XMLID_1964_">
								
									<rect x="160.3" y="179.2" transform="matrix(0.4371 0.8994 -0.8994 0.4371 251.8084 -43.7884)" class="st15" width="1.2" height="0.1"/>
							</g>
							<g id="XMLID_1963_">
								
									<rect x="160.4" y="179.2" transform="matrix(0.4371 0.8994 -0.8994 0.4371 251.8352 -43.9451)" class="st15" width="1.2" height="0.1"/>
							</g>
							<g id="XMLID_1962_">
								
									<rect x="160.3" y="179.2" transform="matrix(0.4371 0.8994 -0.8994 0.4371 251.8084 -43.7884)" class="st15" width="1.2" height="0.1"/>
							</g>
							<g id="XMLID_1961_">
								
									<rect x="160.4" y="179.2" transform="matrix(0.4371 0.8994 -0.8994 0.4371 251.8352 -43.9451)" class="st15" width="1.2" height="0.1"/>
							</g>
							<g id="XMLID_1960_">
								<circle class="st12" cx="160.4" cy="179.5" r="0.2"/>
							</g>
							<g id="XMLID_1959_">
								<circle class="st12" cx="161.5" cy="179" r="0.2"/>
							</g>
							<g id="XMLID_1958_">
								
									<rect x="160.9" y="178.8" transform="matrix(0.4374 0.8993 -0.8993 0.4374 251.8483 -43.8477)" class="st15" width="0.1" height="1.2"/>
							</g>
							<g id="XMLID_1957_">
								
									<rect x="160.9" y="178.6" transform="matrix(0.4374 0.8993 -0.8993 0.4374 251.6916 -43.8744)" class="st15" width="0.1" height="1.2"/>
							</g>
						</g>
						<g id="XMLID_1619_">
							<g id="XMLID_1633_">
								<circle class="st8" cx="161" cy="203.4" r="1.8"/>
							</g>
							<g id="XMLID_1632_">
								<circle class="st11" cx="161" cy="203.3" r="1.7"/>
							</g>
							<g id="XMLID_1631_">
								<circle class="st14" cx="161" cy="203.1" r="1.7"/>
								<path class="st15" d="M161,204.9c-1,0-1.8-0.8-1.8-1.8s0.8-1.8,1.8-1.8c1,0,1.8,0.8,1.8,1.8S162,204.9,161,204.9z
									 M161,201.5c-0.9,0-1.6,0.7-1.6,1.6s0.7,1.6,1.6,1.6s1.6-0.7,1.6-1.6S161.9,201.5,161,201.5z"/>
							</g>
							<g id="XMLID_1630_">
								<circle class="st14" cx="161" cy="203.1" r="1.5"/>
								<path class="st5" d="M161,204.6c-0.8,0-1.5-0.7-1.5-1.5c0-0.8,0.7-1.5,1.5-1.5s1.5,0.7,1.5,1.5
									C162.5,203.9,161.8,204.6,161,204.6z M161,201.7c-0.8,0-1.4,0.6-1.4,1.4c0,0.8,0.6,1.4,1.4,1.4s1.4-0.6,1.4-1.4
									C162.4,202.3,161.8,201.7,161,201.7z"/>
							</g>
							<g id="XMLID_1629_">
								<circle class="st12" cx="160.7" cy="202.7" r="0.2"/>
							</g>
							<g id="XMLID_1628_">
								<circle class="st12" cx="161.2" cy="203.8" r="0.2"/>
							</g>
							<g id="XMLID_1627_">
								
									<rect x="160.3" y="203.2" transform="matrix(0.4371 0.8994 -0.8994 0.4371 273.3776 -30.2891)" class="st15" width="1.2" height="0.1"/>
							</g>
							<g id="XMLID_1626_">
								
									<rect x="160.4" y="203.1" transform="matrix(0.4371 0.8994 -0.8994 0.4371 273.4044 -30.4458)" class="st15" width="1.2" height="0.1"/>
							</g>
							<g id="XMLID_1625_">
								
									<rect x="160.3" y="203.2" transform="matrix(0.4371 0.8994 -0.8994 0.4371 273.3776 -30.2891)" class="st15" width="1.2" height="0.1"/>
							</g>
							<g id="XMLID_1624_">
								
									<rect x="160.4" y="203.1" transform="matrix(0.4371 0.8994 -0.8994 0.4371 273.4044 -30.4458)" class="st15" width="1.2" height="0.1"/>
							</g>
							<g id="XMLID_1623_">
								<circle class="st12" cx="160.4" cy="203.5" r="0.2"/>
							</g>
							<g id="XMLID_1622_">
								<circle class="st12" cx="161.5" cy="203" r="0.2"/>
							</g>
							<g id="XMLID_1621_">
								
									<rect x="160.9" y="202.8" transform="matrix(0.4374 0.8993 -0.8993 0.4374 273.4136 -30.3564)" class="st15" width="0.1" height="1.2"/>
							</g>
							<g id="XMLID_1620_">
								
									<rect x="160.9" y="202.6" transform="matrix(0.4374 0.8993 -0.8993 0.4374 273.2569 -30.3831)" class="st15" width="0.1" height="1.2"/>
							</g>
						</g>
						<g id="XMLID_1604_">
							<g id="XMLID_1618_">
								<circle class="st8" cx="161" cy="227.4" r="1.8"/>
							</g>
							<g id="XMLID_1617_">
								<circle class="st11" cx="161" cy="227.3" r="1.7"/>
							</g>
							<g id="XMLID_1616_">
								<circle class="st14" cx="161" cy="227.1" r="1.7"/>
								<path class="st15" d="M161,228.9c-1,0-1.8-0.8-1.8-1.8c0-1,0.8-1.8,1.8-1.8c1,0,1.8,0.8,1.8,1.8
									C162.8,228.1,162,228.9,161,228.9z M161,225.5c-0.9,0-1.6,0.7-1.6,1.6c0,0.9,0.7,1.6,1.6,1.6s1.6-0.7,1.6-1.6
									C162.6,226.2,161.9,225.5,161,225.5z"/>
							</g>
							<g id="XMLID_1615_">
								<circle class="st14" cx="161" cy="227.1" r="1.5"/>
								<path class="st5" d="M161,228.6c-0.8,0-1.5-0.7-1.5-1.5c0-0.8,0.7-1.5,1.5-1.5s1.5,0.7,1.5,1.5
									C162.5,227.9,161.8,228.6,161,228.6z M161,225.7c-0.8,0-1.4,0.6-1.4,1.4c0,0.8,0.6,1.4,1.4,1.4s1.4-0.6,1.4-1.4
									C162.4,226.3,161.8,225.7,161,225.7z"/>
							</g>
							<g id="XMLID_1614_">
								<circle class="st12" cx="160.7" cy="226.7" r="0.2"/>
							</g>
							<g id="XMLID_1613_">
								<circle class="st12" cx="161.2" cy="227.8" r="0.2"/>
							</g>
							<g id="XMLID_1612_">
								
									<rect x="160.3" y="227.2" transform="matrix(0.4371 0.8994 -0.8994 0.4371 294.9468 -16.7898)" class="st15" width="1.2" height="0.1"/>
							</g>
							<g id="XMLID_1611_">
								
									<rect x="160.4" y="227.1" transform="matrix(0.4371 0.8994 -0.8994 0.4371 294.9736 -16.9465)" class="st15" width="1.2" height="0.1"/>
							</g>
							<g id="XMLID_1610_">
								
									<rect x="160.3" y="227.2" transform="matrix(0.4371 0.8994 -0.8994 0.4371 294.9468 -16.7898)" class="st15" width="1.2" height="0.1"/>
							</g>
							<g id="XMLID_1609_">
								
									<rect x="160.4" y="227.1" transform="matrix(0.4371 0.8994 -0.8994 0.4371 294.9736 -16.9465)" class="st15" width="1.2" height="0.1"/>
							</g>
							<g id="XMLID_1608_">
								<circle class="st12" cx="160.4" cy="227.5" r="0.2"/>
							</g>
							<g id="XMLID_1607_">
								<circle class="st12" cx="161.5" cy="227" r="0.2"/>
							</g>
							<g id="XMLID_1606_">
								
									<rect x="160.9" y="226.7" transform="matrix(0.4374 0.8993 -0.8993 0.4374 294.9789 -16.8651)" class="st15" width="0.1" height="1.2"/>
							</g>
							<g id="XMLID_1605_">
								
									<rect x="160.9" y="226.6" transform="matrix(0.4374 0.8993 -0.8993 0.4374 294.8222 -16.8918)" class="st15" width="0.1" height="1.2"/>
							</g>
						</g>
						<g id="XMLID_1589_">
							<g id="XMLID_1603_">
								<circle class="st8" cx="161" cy="251.4" r="1.8"/>
							</g>
							<g id="XMLID_1602_">
								<circle class="st11" cx="161" cy="251.3" r="1.7"/>
							</g>
							<g id="XMLID_1601_">
								<circle class="st14" cx="161" cy="251.1" r="1.7"/>
								<path class="st15" d="M161,252.9c-1,0-1.8-0.8-1.8-1.8s0.8-1.8,1.8-1.8c1,0,1.8,0.8,1.8,1.8S162,252.9,161,252.9z
									 M161,249.5c-0.9,0-1.6,0.7-1.6,1.6s0.7,1.6,1.6,1.6s1.6-0.7,1.6-1.6S161.9,249.5,161,249.5z"/>
							</g>
							<g id="XMLID_1600_">
								<circle class="st14" cx="161" cy="251.1" r="1.5"/>
								<path class="st5" d="M161,252.6c-0.8,0-1.5-0.7-1.5-1.5c0-0.8,0.7-1.5,1.5-1.5s1.5,0.7,1.5,1.5
									C162.5,251.9,161.8,252.6,161,252.6z M161,249.6c-0.8,0-1.4,0.6-1.4,1.4c0,0.8,0.6,1.4,1.4,1.4s1.4-0.6,1.4-1.4
									C162.4,250.3,161.8,249.6,161,249.6z"/>
							</g>
							<g id="XMLID_1599_">
								<circle class="st12" cx="160.7" cy="250.7" r="0.2"/>
							</g>
							<g id="XMLID_1598_">
								<circle class="st12" cx="161.2" cy="251.7" r="0.2"/>
							</g>
							<g id="XMLID_1597_">
								
									<rect x="160.3" y="251.2" transform="matrix(0.4371 0.8994 -0.8994 0.4371 316.516 -3.2905)" class="st15" width="1.2" height="0.1"/>
							</g>
							<g id="XMLID_1596_">
								
									<rect x="160.4" y="251.1" transform="matrix(0.4371 0.8994 -0.8994 0.4371 316.5428 -3.4472)" class="st15" width="1.2" height="0.1"/>
							</g>
							<g id="XMLID_1595_">
								
									<rect x="160.3" y="251.2" transform="matrix(0.4371 0.8994 -0.8994 0.4371 316.516 -3.2905)" class="st15" width="1.2" height="0.1"/>
							</g>
							<g id="XMLID_1594_">
								
									<rect x="160.4" y="251.1" transform="matrix(0.4371 0.8994 -0.8994 0.4371 316.5428 -3.4472)" class="st15" width="1.2" height="0.1"/>
							</g>
							<g id="XMLID_1593_">
								<circle class="st12" cx="160.4" cy="251.5" r="0.2"/>
							</g>
							<g id="XMLID_1592_">
								<circle class="st12" cx="161.5" cy="251" r="0.2"/>
							</g>
							<g id="XMLID_1591_">
								
									<rect x="160.9" y="250.7" transform="matrix(0.4374 0.8993 -0.8993 0.4374 316.5442 -3.3738)" class="st15" width="0.1" height="1.2"/>
							</g>
							<g id="XMLID_1590_">
								
									<rect x="160.9" y="250.6" transform="matrix(0.4374 0.8993 -0.8993 0.4374 316.3875 -3.4005)" class="st15" width="0.1" height="1.2"/>
							</g>
						</g>
						<polygon class="st8" points="216,232.3 216,230.5 176.9,230.5 176.9,232.2 						"/>
						<polygon class="st6" points="216,233 216,231.2 176.9,231.2 176.9,232.9 						"/>
						<path class="st7" d="M215.8,232v9.3c0,0.3-0.3,0.6-0.6,0.6L178,242c-0.3,0-0.6-0.3-0.6-0.6v-9.5L215.8,232z"/>
						<line class="st10" x1="177.4" y1="232.3" x2="215.8" y2="232.4"/>
					</g>
				</g>
			</g>
		</g>
	</g>
	<g id="XMLID_1_" class="st0">
		<defs>
			<rect id="XMLID_4932_" x="-13.5" width="327.1" height="300"/>
		</defs>
		<clipPath id="XMLID_4_">
			<use xlink:href="#XMLID_4932_"  style="overflow:visible;"/>
		</clipPath>
	</g>
	<g class="st0">
		<path class="st16" d="M150.1,4.6c38.7,0,75.1,15.1,102.5,42.5c27.4,27.4,42.5,63.8,42.5,102.5s-15.1,75.1-42.5,102.5
			c-27.4,27.4-63.8,42.5-102.5,42.5S75,279.5,47.6,252.1C20.2,224.7,5.1,188.3,5.1,149.6S20.2,74.5,47.6,47.1
			C75,19.7,111.4,4.6,150.1,4.6 M150.1-0.4c-82.8,0-150,67.2-150,150s67.2,150,150,150s150-67.2,150-150S232.9-0.4,150.1-0.4
			L150.1-0.4z"/>
	</g>
</g>
</svg>
