<?xml version="1.0" encoding="utf-8"?>
<!-- Generator: Adobe Illustrator 19.0.0, SVG Export Plug-In . SVG Version: 6.00 Build 0)  -->
<svg version="1.1" id="Layer_1" xmlns="http://www.w3.org/2000/svg" xmlns:xlink="http://www.w3.org/1999/xlink" x="0px" y="0px"
	 viewBox="0 0 300 300" style="enable-background:new 0 0 300 300;" xml:space="preserve">
<style type="text/css">
	.st0{clip-path:url(#SVGID_2_);}
	.st1{clip-path:url(#XMLID_3_);}
	.st2{fill:#F1F1F2;stroke:#404041;stroke-linejoin:round;stroke-miterlimit:10;}
	.st3{fill:none;stroke:#808184;stroke-width:0.5;stroke-miterlimit:10;}
	.st4{fill:none;stroke:#808184;stroke-width:0.5;stroke-miterlimit:10;stroke-dasharray:1.0033,2.0066;}
	.st5{fill:#929497;}
	.st6{fill:#C5C7C9;}
	.st7{fill:#FFFFFF;stroke:#404041;stroke-miterlimit:10;}
	.st8{fill:#F1F1F2;}
	.st9{fill:#F1F1F2;stroke:#404041;stroke-miterlimit:10;}
	.st10{fill:none;stroke:#808184;stroke-width:0.5;stroke-miterlimit:10;stroke-dasharray:1,2;}
	.st11{fill:#DBDCDD;}
	.st12{fill:#404041;}
	.st13{fill:#D0D2D3;}
	.st14{fill:#FFFFFF;}
	.st15{fill:#6D6E70;}
	.st16{fill:#9AA0BB;}
</style>
<g>
	<defs>
		<circle id="SVGID_1_" cx="150.1" cy="149.6" r="150"/>
	</defs>
	<use xlink:href="#SVGID_1_"  style="overflow:visible;fill:#DDDDDD;"/>
	<clipPath id="SVGID_2_">
		<use xlink:href="#SVGID_1_"  style="overflow:visible;"/>
	</clipPath>
	<g id="XMLID_4081_" class="st0">
		<defs>
			<rect id="XMLID_4118_" y="-0.4" width="300" height="300"/>
		</defs>
		<clipPath id="XMLID_3_">
			<use xlink:href="#XMLID_4118_"  style="overflow:visible;"/>
		</clipPath>
		<g class="st1">
			<path class="st2" d="M110.7,30c0,0,15.5,6.2,39.2,6.2s39.2-6.2,39.2-6.2l-9.5,146.9l-29.1,75.3l-30.8-75.8L110.7,30z"/>
			<g>
				<g>
					<g>
						<line class="st3" x1="149.8" y1="46" x2="149.8" y2="46.5"/>
						<line class="st4" x1="149.8" y1="48.5" x2="149.8" y2="225.1"/>
						<line class="st3" x1="149.8" y1="226.1" x2="149.8" y2="226.6"/>
					</g>
				</g>
				<path class="st5" d="M140,48l0.7,0.7c0,0,4.9-0.4,9.1-0.4s9.4,0.4,9.4,0.4l0.4-0.7H140z"/>
				<path class="st6" d="M140.6,48.6l0.5,0.5c0,0,4.7-0.4,8.8-0.4s9.2,0.4,9.2,0.4l0.3-0.5l-9.5-0.2L140.6,48.6z"/>
				<path class="st7" d="M149.9,44.7c-4.3,0-7.9-0.1-10.9-0.3l1.2,3.6h9.6h0.1h9.6l1.2-3.7C157.8,44.5,154.2,44.7,149.9,44.7z"/>
			</g>
			<path class="st7" d="M104.8,33c0,0,2.9,11.8,44.5,11.8S194.9,33,194.9,33l-5.8-3c0,0-15.9,6.2-39.2,6.2s-39.1-6.1-39.1-6.1
				L104.8,33z"/>
			<g>
				<path class="st5" d="M183.2,31.9c0,0,2.3,1.3,2.4,8.1l1.9-0.4l1.3-9.5C188.7,30,188.7,30.5,183.2,31.9z"/>
				<path class="st8" d="M184.6,31.5c0,0,2.7,6.9,0.3,8.5c0,0-0.6-8.1-2.2-8L184.6,31.5z"/>
				<path class="st6" d="M186.3,31c0,0,1.2,5.7-0.4,8.5c-0.3,0.5-0.6,0.1-1,0.4c0,0,2-1.7-0.3-8.5L186.3,31z"/>
			</g>
			<g>
				<path class="st5" d="M116.9,31.9c0,0-2.3,1.3-2.4,8.1l-1.9-0.4l-1.3-9.5C111.3,30,111.3,30.5,116.9,31.9z"/>
				<path class="st8" d="M115.4,31.5c0,0-2.7,6.9-0.3,8.5c0,0,0.6-8.1,2.2-8L115.4,31.5z"/>
				<path class="st6" d="M113.7,31c0,0-1.2,5.7,0.4,8.5c0.3,0.5,0.6,0.1,1,0.4c0,0-2-1.7,0.3-8.5L113.7,31z"/>
			</g>
			<g>
				<path class="st6" d="M110.7,30c0,0,15.8,31.8,19.9,39.6s19.3,35.2,19.3,35.2s13.8-23.4,19.5-34.1C175,59.9,189.1,30,189.1,30
					l5.8,3l-35.6,141.7l-8.9,15.4l-4.6-1.5l-3.7-12.9l-13.4-69.4L104.8,33L110.7,30z"/>
				<polygon class="st5" points="107.4,31.7 149.8,107.6 192.7,31.7 194.9,33 159.3,179.5 150.1,202.9 145.8,193.4 142.1,180.5 
					122.9,116.5 104.8,33 				"/>
			</g>
			<g>
				<g>
					<path class="st9" d="M86.6,41.6c0,0,13.6,68.7-18.9,93.5l7.9,23.9l47.3-49.1l-15.4-73.7L86.6,41.6z"/>
					<g>
						<path class="st6" d="M96.5,68.8c0,0,1.6,23.2-4.2,38.5c-3.2,8.5-3.3,9-12.5,17.9c-5.6,5.5-12.1,10-12.1,10l11,10.1l24.2-10.6
							l3.5-74.5L96.5,68.8z"/>
						<path class="st5" d="M96.2,66.3c0,0,0.8,41.3-6.8,51.9c-6.3,8.9-21.7,16.9-21.7,16.9l13.1,10.1l24.2-10.6l3.5-74.5L96.2,66.3z
							"/>
					</g>
					<path class="st7" d="M110.9,30L86.6,41.6c0,0,15.2,57.9,6.2,74.8s-25.1,18.7-25.1,18.7s7.6,19,7.6,49.5c0,29-0.9,37.3-0.9,37.3
						l-8.8,37h90v-24.9V123.8c0-3.5-1-6.9-2.9-9.8c-5.3-8-16.3-25.1-22.7-38.3C121.5,57.9,110.9,30,110.9,30z"/>
					<g>
						<line class="st10" x1="109.4" y1="165.1" x2="109.4" y2="259"/>
						<polygon class="st8" points="84.5,231.3 84.5,229.5 123.6,229.5 123.6,231.2 						"/>
						<polygon class="st6" points="84.5,232 84.5,230.2 123.6,230.2 123.6,231.9 						"/>
						<path class="st7" d="M85.1,231v9.3c0,0.3,0.3,0.6,0.6,0.6L123,241c0.3,0,0.6-0.3,0.6-0.6v-9.5L85.1,231z"/>
						<line class="st10" x1="123.6" y1="231.3" x2="85.1" y2="231.4"/>
						<polygon class="st8" points="89.8,137.5 89.8,135.8 123.6,137.9 123.6,139.7 						"/>
						<polygon class="st6" points="89.8,138.2 89.8,136.4 123.6,138.6 123.6,140.3 						"/>
						<path class="st7" d="M90.5,137.2v7.7c0,0.3,0.3,0.6,0.6,0.6l31.9,1.8c0.3,0,0.6-0.3,0.6-0.6v-7.3L90.5,137.2z"/>
						<line class="st10" x1="123.6" y1="139.8" x2="90.5" y2="137.6"/>
					</g>
				</g>
				<g>
					<path class="st8" d="M141.6,126.2v107.8c0,5.2,1.1,24.9,1.1,24.9h6.3l5.5-11l5.7-129.9l-11.2-9.7l-4.9,8.5
						C142.5,119.7,141.6,122.9,141.6,126.2z"/>
					<path class="st6" d="M142.7,126.9l0.3,107.5c0,5,0,24.6,0,24.6l7.1,1l4.4-26.3l-1.6-111l-3.4-13.6c0,0-1.6,2.6-3.7,6.1
						C143.7,118.6,142.7,123.2,142.7,126.9z"/>
				</g>
				<g>
					<path class="st9" d="M213.4,41.6c0,0-13.6,68.7,18.9,93.5l-7.9,23.9l-47.3-49.1l15.4-73.7L213.4,41.6z"/>
					<g>
						<path class="st6" d="M203.5,68.8c0,0-1.6,23.2,4.2,38.5c3.2,8.5,3.3,9,12.5,17.9c5.6,5.5,12.1,10,12.1,10l-11,10.1l-24.2-10.6
							l-3.5-74.5L203.5,68.8z"/>
						<path class="st5" d="M203.8,66.3c0,0-0.8,41.3,6.8,51.9c6.3,8.9,21.7,16.9,21.7,16.9l-13.1,10.1L195,134.6l-3.5-74.5
							L203.8,66.3z"/>
					</g>
					<path class="st7" d="M189.1,30l24.3,11.6c0,0-15.2,57.9-6.2,74.8s25.1,18.7,25.1,18.7s-7.6,19-7.6,49.5c0,29,0.9,37.3,0.9,37.3
						l8.8,37l-90,1v-25.9V123.8c0-3.5,1-6.9,2.9-9.8c5.3-8,16.3-25.1,22.7-38.3C178.5,57.9,189.1,30,189.1,30z"/>
					<g>
						<g id="XMLID_5928_">
							<g id="XMLID_5943_">
								<circle class="st8" cx="149" cy="130.5" r="1.8"/>
							</g>
							<g id="XMLID_5942_">
								<circle class="st11" cx="149.1" cy="130.4" r="1.7"/>
							</g>
							<g id="XMLID_5941_">
								<polygon class="st12" points="152.9,130.3 150,129.9 146.8,130.3 150,130.8 								"/>
								<path class="st13" d="M150,130.8L150,130.8l-3.7-0.5l3.7-0.5l0,0l3.3,0.5L150,130.8z M147.3,130.3l2.8,0.4l2.4-0.4L150,130
									L147.3,130.3z"/>
							</g>
							<g id="XMLID_5940_">
								<circle class="st14" cx="149" cy="130.2" r="1.7"/>
								<path class="st15" d="M149,132c-1,0-1.8-0.8-1.8-1.8s0.8-1.8,1.8-1.8c1,0,1.8,0.8,1.8,1.8S150,132,149,132z M149,128.6
									c-0.9,0-1.6,0.7-1.6,1.6s0.7,1.6,1.6,1.6c0.9,0,1.6-0.7,1.6-1.6S149.9,128.6,149,128.6z"/>
							</g>
							<g id="XMLID_5939_">
								<circle class="st14" cx="149" cy="130.2" r="1.5"/>
								<path class="st5" d="M149,131.7c-0.8,0-1.5-0.7-1.5-1.5c0-0.8,0.7-1.5,1.5-1.5s1.5,0.7,1.5,1.5
									C150.5,131,149.9,131.7,149,131.7z M149,128.7c-0.8,0-1.4,0.6-1.4,1.4c0,0.8,0.6,1.4,1.4,1.4s1.4-0.6,1.4-1.4
									C150.5,129.4,149.8,128.7,149,128.7z"/>
							</g>
							<g id="XMLID_5938_">
								<circle class="st12" cx="148.8" cy="129.8" r="0.2"/>
							</g>
							<g id="XMLID_5937_">
								<circle class="st12" cx="149.3" cy="130.8" r="0.2"/>
							</g>
							<g id="XMLID_5936_">
								
									<rect x="148.3" y="130.3" transform="matrix(0.4371 0.8994 -0.8994 0.4371 201.0411 -60.5975)" class="st15" width="1.2" height="0.1"/>
							</g>
							<g id="XMLID_5935_">
								
									<rect x="148.5" y="130.2" transform="matrix(0.4371 0.8994 -0.8994 0.4371 201.0679 -60.7542)" class="st15" width="1.2" height="0.1"/>
							</g>
							<g id="XMLID_5934_">
								
									<rect x="148.3" y="130.3" transform="matrix(0.4371 0.8994 -0.8994 0.4371 201.0411 -60.5975)" class="st15" width="1.2" height="0.1"/>
							</g>
							<g id="XMLID_5933_">
								
									<rect x="148.5" y="130.2" transform="matrix(0.4371 0.8994 -0.8994 0.4371 201.0679 -60.7542)" class="st15" width="1.2" height="0.1"/>
							</g>
							<g id="XMLID_5932_">
								<circle class="st12" cx="148.5" cy="130.6" r="0.2"/>
							</g>
							<g id="XMLID_5931_">
								<circle class="st12" cx="149.5" cy="130.1" r="0.2"/>
							</g>
							<g id="XMLID_5930_">
								
									<rect x="149" y="129.8" transform="matrix(0.4374 0.8993 -0.8993 0.4374 201.093 -60.6424)" class="st15" width="0.1" height="1.2"/>
							</g>
							<g id="XMLID_5929_">
								
									<rect x="148.9" y="129.7" transform="matrix(0.4374 0.8993 -0.8993 0.4374 200.9363 -60.6691)" class="st15" width="0.1" height="1.2"/>
							</g>
						</g>
						<g id="XMLID_4002_">
							<g id="XMLID_5927_">
								<circle class="st8" cx="149" cy="155.8" r="1.8"/>
							</g>
							<g id="XMLID_5926_">
								<circle class="st11" cx="149.1" cy="155.7" r="1.7"/>
							</g>
							<g id="XMLID_5925_">
								<polygon class="st12" points="152.9,155.6 150,155.2 146.8,155.6 150,156 								"/>
								<path class="st13" d="M150,156.1L150,156.1l-3.7-0.5l3.7-0.5l0,0l3.3,0.5L150,156.1z M147.3,155.6l2.8,0.4l2.4-0.4l-2.5-0.4
									L147.3,155.6z"/>
							</g>
							<g id="XMLID_5924_">
								<circle class="st14" cx="149" cy="155.5" r="1.7"/>
								<path class="st15" d="M149,157.3c-1,0-1.8-0.8-1.8-1.8c0-1,0.8-1.8,1.8-1.8c1,0,1.8,0.8,1.8,1.8
									C150.9,156.5,150,157.3,149,157.3z M149,153.9c-0.9,0-1.6,0.7-1.6,1.6c0,0.9,0.7,1.6,1.6,1.6c0.9,0,1.6-0.7,1.6-1.6
									C150.6,154.6,149.9,153.9,149,153.9z"/>
							</g>
							<g id="XMLID_5923_">
								<circle class="st14" cx="149" cy="155.5" r="1.5"/>
								<path class="st5" d="M149,157c-0.8,0-1.5-0.7-1.5-1.5c0-0.8,0.7-1.5,1.5-1.5s1.5,0.7,1.5,1.5C150.5,156.3,149.9,157,149,157
									z M149,154c-0.8,0-1.4,0.6-1.4,1.4c0,0.8,0.6,1.4,1.4,1.4s1.4-0.6,1.4-1.4C150.5,154.7,149.8,154,149,154z"/>
							</g>
							<g id="XMLID_5922_">
								<circle class="st12" cx="148.8" cy="155.1" r="0.2"/>
							</g>
							<g id="XMLID_5921_">
								<circle class="st12" cx="149.3" cy="156.1" r="0.2"/>
							</g>
							<g id="XMLID_5920_">
								
									<rect x="148.3" y="155.5" transform="matrix(0.4371 0.8994 -0.8994 0.4371 223.7804 -46.3659)" class="st15" width="1.2" height="0.1"/>
							</g>
							<g id="XMLID_5919_">
								
									<rect x="148.5" y="155.5" transform="matrix(0.4371 0.8994 -0.8994 0.4371 223.8072 -46.5226)" class="st15" width="1.2" height="0.1"/>
							</g>
							<g id="XMLID_5918_">
								
									<rect x="148.3" y="155.5" transform="matrix(0.4371 0.8994 -0.8994 0.4371 223.7804 -46.3659)" class="st15" width="1.2" height="0.1"/>
							</g>
							<g id="XMLID_5917_">
								
									<rect x="148.5" y="155.5" transform="matrix(0.4371 0.8994 -0.8994 0.4371 223.8072 -46.5226)" class="st15" width="1.2" height="0.1"/>
							</g>
							<g id="XMLID_5916_">
								<circle class="st12" cx="148.5" cy="155.9" r="0.2"/>
							</g>
							<g id="XMLID_4005_">
								<circle class="st12" cx="149.5" cy="155.3" r="0.2"/>
							</g>
							<g id="XMLID_4004_">
								
									<rect x="149" y="155.1" transform="matrix(0.4374 0.8993 -0.8993 0.4374 223.8282 -46.4192)" class="st15" width="0.1" height="1.2"/>
							</g>
							<g id="XMLID_4003_">
								
									<rect x="148.9" y="155" transform="matrix(0.4374 0.8993 -0.8993 0.4374 223.6715 -46.4459)" class="st15" width="0.1" height="1.2"/>
							</g>
						</g>
						<g id="XMLID_3986_">
							<g id="XMLID_4001_">
								<circle class="st8" cx="149" cy="181" r="1.8"/>
							</g>
							<g id="XMLID_4000_">
								<circle class="st11" cx="149.1" cy="181" r="1.7"/>
							</g>
							<g id="XMLID_3999_">
								<polygon class="st12" points="152.9,180.9 150,180.5 146.8,180.9 150,181.3 								"/>
								<path class="st13" d="M150,181.4L150,181.4l-3.7-0.5l3.7-0.5l0,0l3.3,0.5L150,181.4z M147.3,180.9l2.8,0.4l2.4-0.4l-2.5-0.4
									L147.3,180.9z"/>
							</g>
							<g id="XMLID_3998_">
								<circle class="st14" cx="149" cy="180.7" r="1.7"/>
								<path class="st15" d="M149,182.6c-1,0-1.8-0.8-1.8-1.8s0.8-1.8,1.8-1.8c1,0,1.8,0.8,1.8,1.8S150,182.6,149,182.6z
									 M149,179.2c-0.9,0-1.6,0.7-1.6,1.6s0.7,1.6,1.6,1.6c0.9,0,1.6-0.7,1.6-1.6S149.9,179.2,149,179.2z"/>
							</g>
							<g id="XMLID_3997_">
								<circle class="st14" cx="149" cy="180.7" r="1.5"/>
								<path class="st5" d="M149,182.2c-0.8,0-1.5-0.7-1.5-1.5c0-0.8,0.7-1.5,1.5-1.5s1.5,0.7,1.5,1.5
									C150.5,181.6,149.9,182.2,149,182.2z M149,179.3c-0.8,0-1.4,0.6-1.4,1.4c0,0.8,0.6,1.4,1.4,1.4s1.4-0.6,1.4-1.4
									C150.5,179.9,149.8,179.3,149,179.3z"/>
							</g>
							<g id="XMLID_3996_">
								<circle class="st12" cx="148.8" cy="180.4" r="0.2"/>
							</g>
							<g id="XMLID_3995_">
								<circle class="st12" cx="149.3" cy="181.4" r="0.2"/>
							</g>
							<g id="XMLID_3994_">
								
									<rect x="148.3" y="180.8" transform="matrix(0.4371 0.8994 -0.8994 0.4371 246.5197 -32.1342)" class="st15" width="1.2" height="0.1"/>
							</g>
							<g id="XMLID_3993_">
								
									<rect x="148.5" y="180.8" transform="matrix(0.4371 0.8994 -0.8994 0.4371 246.5465 -32.2909)" class="st15" width="1.2" height="0.1"/>
							</g>
							<g id="XMLID_3992_">
								
									<rect x="148.3" y="180.8" transform="matrix(0.4371 0.8994 -0.8994 0.4371 246.5197 -32.1342)" class="st15" width="1.2" height="0.1"/>
							</g>
							<g id="XMLID_3991_">
								
									<rect x="148.5" y="180.8" transform="matrix(0.4371 0.8994 -0.8994 0.4371 246.5465 -32.2909)" class="st15" width="1.2" height="0.1"/>
							</g>
							<g id="XMLID_3990_">
								<circle class="st12" cx="148.5" cy="181.1" r="0.2"/>
							</g>
							<g id="XMLID_3989_">
								<circle class="st12" cx="149.5" cy="180.6" r="0.2"/>
							</g>
							<g id="XMLID_3988_">
								
									<rect x="149" y="180.4" transform="matrix(0.4374 0.8993 -0.8993 0.4374 246.5634 -32.196)" class="st15" width="0.1" height="1.2"/>
							</g>
							<g id="XMLID_3987_">
								
									<rect x="148.9" y="180.2" transform="matrix(0.4374 0.8993 -0.8993 0.4374 246.4067 -32.2227)" class="st15" width="0.1" height="1.2"/>
							</g>
						</g>
						<line class="st10" x1="190.6" y1="165.1" x2="190.6" y2="259"/>
						<g id="XMLID_3970_">
							<g id="XMLID_3985_">
								<circle class="st8" cx="149" cy="206.3" r="1.8"/>
							</g>
							<g id="XMLID_3984_">
								<circle class="st11" cx="149.1" cy="206.3" r="1.7"/>
							</g>
							<g id="XMLID_3983_">
								<polygon class="st12" points="152.9,206.2 150,205.8 146.8,206.2 150,206.6 								"/>
								<path class="st13" d="M150,206.7L150,206.7l-3.7-0.5l3.7-0.5l0,0l3.3,0.5L150,206.7z M147.3,206.2l2.8,0.4l2.4-0.4l-2.5-0.4
									L147.3,206.2z"/>
							</g>
							<g id="XMLID_3982_">
								<circle class="st14" cx="149" cy="206" r="1.7"/>
								<path class="st15" d="M149,207.8c-1,0-1.8-0.8-1.8-1.8c0-1,0.8-1.8,1.8-1.8c1,0,1.8,0.8,1.8,1.8
									C150.9,207,150,207.8,149,207.8z M149,204.4c-0.9,0-1.6,0.7-1.6,1.6c0,0.9,0.7,1.6,1.6,1.6c0.9,0,1.6-0.7,1.6-1.6
									C150.6,205.2,149.9,204.4,149,204.4z"/>
							</g>
							<g id="XMLID_3981_">
								<circle class="st14" cx="149" cy="206" r="1.5"/>
								<path class="st5" d="M149,207.5c-0.8,0-1.5-0.7-1.5-1.5c0-0.8,0.7-1.5,1.5-1.5s1.5,0.7,1.5,1.5
									C150.5,206.8,149.9,207.5,149,207.5z M149,204.6c-0.8,0-1.4,0.6-1.4,1.4c0,0.8,0.6,1.4,1.4,1.4s1.4-0.6,1.4-1.4
									C150.5,205.2,149.8,204.6,149,204.6z"/>
							</g>
							<g id="XMLID_3980_">
								<circle class="st12" cx="148.8" cy="205.6" r="0.2"/>
							</g>
							<g id="XMLID_3979_">
								<circle class="st12" cx="149.3" cy="206.7" r="0.2"/>
							</g>
							<g id="XMLID_3978_">
								
									<rect x="148.3" y="206.1" transform="matrix(0.4371 0.8994 -0.8994 0.4371 269.2591 -17.9026)" class="st15" width="1.2" height="0.1"/>
							</g>
							<g id="XMLID_3977_">
								
									<rect x="148.5" y="206" transform="matrix(0.4371 0.8994 -0.8994 0.4371 269.2859 -18.0593)" class="st15" width="1.2" height="0.1"/>
							</g>
							<g id="XMLID_3976_">
								
									<rect x="148.3" y="206.1" transform="matrix(0.4371 0.8994 -0.8994 0.4371 269.2591 -17.9026)" class="st15" width="1.2" height="0.1"/>
							</g>
							<g id="XMLID_3975_">
								
									<rect x="148.5" y="206" transform="matrix(0.4371 0.8994 -0.8994 0.4371 269.2859 -18.0593)" class="st15" width="1.2" height="0.1"/>
							</g>
							<g id="XMLID_3974_">
								<circle class="st12" cx="148.5" cy="206.4" r="0.2"/>
							</g>
							<g id="XMLID_3973_">
								<circle class="st12" cx="149.5" cy="205.9" r="0.2"/>
							</g>
							<g id="XMLID_3972_">
								
									<rect x="149" y="205.7" transform="matrix(0.4374 0.8993 -0.8993 0.4374 269.2986 -17.9728)" class="st15" width="0.1" height="1.2"/>
							</g>
							<g id="XMLID_3971_">
								
									<rect x="148.9" y="205.5" transform="matrix(0.4374 0.8993 -0.8993 0.4374 269.1419 -17.9995)" class="st15" width="0.1" height="1.2"/>
							</g>
						</g>
						<g id="XMLID_3954_">
							<g id="XMLID_3969_">
								<circle class="st8" cx="149" cy="231.6" r="1.8"/>
							</g>
							<g id="XMLID_3968_">
								<circle class="st11" cx="149.1" cy="231.5" r="1.7"/>
							</g>
							<g id="XMLID_3967_">
								<polygon class="st12" points="152.9,231.5 150,231 146.8,231.5 150,231.9 								"/>
								<path class="st13" d="M150,232L150,232l-3.7-0.5l3.7-0.5l0,0l3.3,0.5L150,232z M147.3,231.5l2.8,0.4l2.4-0.4l-2.5-0.4
									L147.3,231.5z"/>
							</g>
							<g id="XMLID_3966_">
								<circle class="st14" cx="149" cy="231.3" r="1.7"/>
								<path class="st15" d="M149,233.1c-1,0-1.8-0.8-1.8-1.8c0-1,0.8-1.8,1.8-1.8c1,0,1.8,0.8,1.8,1.8
									C150.9,232.3,150,233.1,149,233.1z M149,229.7c-0.9,0-1.6,0.7-1.6,1.6c0,0.9,0.7,1.6,1.6,1.6c0.9,0,1.6-0.7,1.6-1.6
									C150.6,230.4,149.9,229.7,149,229.7z"/>
							</g>
							<g id="XMLID_3965_">
								<circle class="st14" cx="149" cy="231.3" r="1.5"/>
								<path class="st5" d="M149,232.8c-0.8,0-1.5-0.7-1.5-1.5c0-0.8,0.7-1.5,1.5-1.5s1.5,0.7,1.5,1.5
									C150.5,232.1,149.9,232.8,149,232.8z M149,229.9c-0.8,0-1.4,0.6-1.4,1.4c0,0.8,0.6,1.4,1.4,1.4s1.4-0.6,1.4-1.4
									C150.5,230.5,149.8,229.9,149,229.9z"/>
							</g>
							<g id="XMLID_3964_">
								<circle class="st12" cx="148.8" cy="230.9" r="0.2"/>
							</g>
							<g id="XMLID_3963_">
								<circle class="st12" cx="149.3" cy="232" r="0.2"/>
							</g>
							<g id="XMLID_3962_">
								
									<rect x="148.3" y="231.4" transform="matrix(0.4371 0.8994 -0.8994 0.4371 291.9984 -3.6709)" class="st15" width="1.2" height="0.1"/>
							</g>
							<g id="XMLID_3961_">
								
									<rect x="148.5" y="231.3" transform="matrix(0.4371 0.8994 -0.8994 0.4371 292.0251 -3.8277)" class="st15" width="1.2" height="0.1"/>
							</g>
							<g id="XMLID_3960_">
								
									<rect x="148.3" y="231.4" transform="matrix(0.4371 0.8994 -0.8994 0.4371 291.9984 -3.6709)" class="st15" width="1.2" height="0.1"/>
							</g>
							<g id="XMLID_3959_">
								
									<rect x="148.5" y="231.3" transform="matrix(0.4371 0.8994 -0.8994 0.4371 292.0251 -3.8277)" class="st15" width="1.2" height="0.1"/>
							</g>
							<g id="XMLID_3958_">
								<circle class="st12" cx="148.5" cy="231.7" r="0.2"/>
							</g>
							<g id="XMLID_3957_">
								<circle class="st12" cx="149.5" cy="231.2" r="0.2"/>
							</g>
							<g id="XMLID_3956_">
								
									<rect x="149" y="230.9" transform="matrix(0.4374 0.8993 -0.8993 0.4374 292.0338 -3.7496)" class="st15" width="0.1" height="1.2"/>
							</g>
							<g id="XMLID_3955_">
								
									<rect x="148.9" y="230.8" transform="matrix(0.4374 0.8993 -0.8993 0.4374 291.8771 -3.7763)" class="st15" width="0.1" height="1.2"/>
							</g>
						</g>
						<polygon class="st8" points="215.5,231.3 215.5,229.5 176.4,229.5 176.4,231.2 						"/>
						<polygon class="st6" points="215.5,232 215.5,230.2 176.4,230.2 176.4,231.9 						"/>
						<path class="st7" d="M214.9,231v9.3c0,0.3-0.3,0.6-0.6,0.6L177,241c-0.3,0-0.6-0.3-0.6-0.6v-9.5L214.9,231z"/>
						<line class="st10" x1="176.4" y1="231.3" x2="214.9" y2="231.4"/>
						<polygon class="st8" points="210.2,137.5 210.2,135.8 176.4,137.9 176.4,139.7 						"/>
						<polygon class="st6" points="210.2,138.2 210.2,136.4 176.4,138.6 176.4,140.3 						"/>
						<path class="st7" d="M209.5,137.2v7.7c0,0.3-0.3,0.6-0.6,0.6l-31.9,1.8c-0.3,0-0.6-0.3-0.6-0.6v-7.3L209.5,137.2z"/>
						<line class="st10" x1="176.4" y1="139.8" x2="209.5" y2="137.6"/>
					</g>
				</g>
			</g>
		</g>
	</g>
	<g id="XMLID_1_" class="st0">
		<defs>
			<rect id="XMLID_4932_" x="-13.5" width="327.1" height="300"/>
		</defs>
		<clipPath id="XMLID_4_">
			<use xlink:href="#XMLID_4932_"  style="overflow:visible;"/>
		</clipPath>
	</g>
	<g class="st0">
		<path class="st16" d="M150.1,4.6c38.7,0,75.1,15.1,102.5,42.5c27.4,27.4,42.5,63.8,42.5,102.5s-15.1,75.1-42.5,102.5
			c-27.4,27.4-63.8,42.5-102.5,42.5S75,279.5,47.6,252.1C20.2,224.7,5.1,188.3,5.1,149.6S20.2,74.5,47.6,47.1
			C75,19.7,111.4,4.6,150.1,4.6 M150.1-0.4c-82.8,0-150,67.2-150,150s67.2,150,150,150s150-67.2,150-150S232.9-0.4,150.1-0.4
			L150.1-0.4z"/>
	</g>
</g>
</svg>
