<?xml version="1.0" encoding="utf-8"?>
<!-- Generator: Adobe Illustrator 19.0.0, SVG Export Plug-In . SVG Version: 6.00 Build 0)  -->
<svg version="1.1" id="Layer_1" xmlns="http://www.w3.org/2000/svg" xmlns:xlink="http://www.w3.org/1999/xlink" x="0px" y="0px"
	 viewBox="0 0 300 300" style="enable-background:new 0 0 300 300;" xml:space="preserve">
<style type="text/css">
	.st0{clip-path:url(#SVGID_2_);}
	.st1{clip-path:url(#XMLID_3_);}
	.st2{fill:#F1F1F2;stroke:#404041;stroke-linejoin:round;stroke-miterlimit:10;}
	.st3{fill:#FFFFFF;stroke:#404041;stroke-miterlimit:10;}
	.st4{fill:none;stroke:#808184;stroke-width:0.5;stroke-miterlimit:10;}
	.st5{fill:none;stroke:#808184;stroke-width:0.5;stroke-miterlimit:10;stroke-dasharray:1.0079,2.0159;}
	.st6{fill:#929497;}
	.st7{fill:#C5C7C9;}
	.st8{fill:#F1F1F2;}
	.st9{fill:#F1F1F2;stroke:#404041;stroke-miterlimit:10;}
	.st10{fill:#FFFFFF;stroke:#404041;stroke-linejoin:round;stroke-miterlimit:10;}
	.st11{fill:none;stroke:#808184;stroke-width:0.5;stroke-miterlimit:10;stroke-dasharray:1,2;}
	.st12{fill:#DBDCDD;}
	.st13{fill:#404041;}
	.st14{fill:#D0D2D3;}
	.st15{fill:#FFFFFF;}
	.st16{fill:#6D6E70;}
	.st17{fill:#9AA0BB;}
</style>
<g>
	<defs>
		<circle id="SVGID_1_" cx="150.1" cy="149.6" r="150"/>
	</defs>
	<use xlink:href="#SVGID_1_"  style="overflow:visible;fill:#DDDDDD;"/>
	<clipPath id="SVGID_2_">
		<use xlink:href="#SVGID_1_"  style="overflow:visible;"/>
	</clipPath>
	<g id="XMLID_4081_" class="st0">
		<defs>
			<rect id="XMLID_4118_" y="-0.4" width="300" height="300"/>
		</defs>
		<clipPath id="XMLID_3_">
			<use xlink:href="#XMLID_4118_"  style="overflow:visible;"/>
		</clipPath>
		<g class="st1">
			<path class="st2" d="M110.6,31c0,0,15.6,6.3,39.4,6.3s39.4-6.3,39.4-6.3l-9.6,147.6l-29.3,75.6l-31-76.1L110.6,31z"/>
			<path class="st3" d="M104.8,34c0,0,2.9,11.8,44.7,11.8S195.3,34,195.3,34l-5.9-3c0,0-16,6.3-39.4,6.3s-39.3-6.2-39.3-6.2
				L104.8,34z"/>
			<g>
				<g>
					<g>
						<line class="st4" x1="150" y1="47.1" x2="150" y2="47.6"/>
						<line class="st5" x1="150" y1="49.6" x2="150" y2="227"/>
						<line class="st4" x1="150" y1="228" x2="150" y2="228.5"/>
					</g>
				</g>
				<path class="st6" d="M140.2,49.1l0.7,0.7c0,0,4.9-0.4,9.1-0.4c4.2,0,9.5,0.4,9.5,0.4l0.5-0.7H140.2z"/>
				<path class="st7" d="M140.7,49.7l0.5,0.5c0,0,4.7-0.4,8.8-0.4c4.1,0,9.3,0.4,9.3,0.4l0.3-0.5l-9.6-0.2L140.7,49.7z"/>
				<path class="st3" d="M150,45.8c-4.4,0-8-0.1-10.9-0.3l1.2,3.6h9.6h0.1h9.6l1.2-3.7C158,45.6,154.4,45.8,150,45.8z"/>
			</g>
			<g>
				<path class="st6" d="M116.2,32.8c0,0-2.3,1.3-2.4,8.1l-1.2-0.5l-2-9.5C110.6,31,110.6,31.4,116.2,32.8z"/>
				<path class="st8" d="M114.8,32.5c0,0-2.7,6.9-0.3,8.5c0,0,0.7-8.1,2.2-8L114.8,32.5z"/>
				<path class="st7" d="M113.1,32c0,0-1.6,6.8,1.4,9c0,0-2-1.7,0.3-8.5L113.1,32z"/>
			</g>
			<g>
				<path class="st6" d="M183.8,32.8c0,0,2.3,1.3,2.4,8.1l1.2-0.5l2-9.5C189.4,31,189.4,31.4,183.8,32.8z"/>
				<path class="st8" d="M185.3,32.5c0,0,2.7,6.9,0.3,8.5c0,0-0.7-8.1-2.2-8L185.3,32.5z"/>
				<path class="st7" d="M187,32c0,0,1.6,6.8-1.4,9c0,0,2-1.7-0.3-8.5L187,32z"/>
			</g>
			<g>
				<path class="st7" d="M112.7,51.9c0,0,3.3,27.8,10.8,55.6c9.2,34,23.2,69.3,26.5,69.3c3.3,0,18.3-36.8,27.4-70.4
					c7.7-28.4,9.9-54.5,9.9-54.5l2.8-0.9l-0.6,2.6l-29.9,155.1l-9,15.5l-4.6-1.5l-3.7-13L128.7,140l-19.4-95.4l1.3,6.4L112.7,51.9z"
					/>
				<path class="st6" d="M112.7,56.7c0,0,5.6,37.6,14.2,70.9c6.9,26.6,18.3,50,23,50c4.5,0,16.3-22.8,23.1-49.2
					c8.7-33.6,14.1-71.7,14.1-71.7l2.8-0.9l-0.6,2.6l-29.9,155.1l-9.3,23.6l-4.3-9.6l-3.7-13l-15-68.2l-17.8-97l1.3,6.4L112.7,56.7z
					"/>
			</g>
			<g>
				<g>
					<path class="st9" d="M98.4,36.7c0,0-7,83.5-36,129.9l60.3,76.9l-0.1-132.2l-15.5-74L98.4,36.7z"/>
					<g>
						<path class="st7" d="M97.1,93.8c0,0,3.1,37-7.7,49.6c-6.1,7.2-22.6,14.2-23.9,17.8c-3.7,10.4,5.1,5.8,5.1,5.8
							s13.2,2.6,19.2-7.9c5.9-10.4,14.9-55.4,14.9-55.4L97.1,93.8z"/>
						<path class="st6" d="M97.1,95.6c0,0,4,34.8-7.4,50.7c-5.5,7.7-25.3,16.4-25.3,16.4c-0.6,1.4-2,3.9-2,3.9s20.6-1,26.5-11.4
							c5.9-10.4,17.9-49.5,17.9-49.5L97.1,95.6z"/>
					</g>
					<path class="st10" d="M105.8,31l-7.3,5.7c0,0-1.8,56.2-1.5,92c0.2,33.9-34.5,37.8-34.5,37.8s4,17.6,6.4,45.1
						c2.4,27-1.6,49.3-1.6,49.3h77.6l12.1-14.8v-57.7c0,0-18.6-2.3-28.6-23.5C118.2,143.9,105.8,31,105.8,31z"/>
					<g>
						<path class="st8" d="M156.9,188.5c0,0-21.5,6.2-34.6-6.8c-8.9-8.8-11.1-36.9-12.4-72.4c-1.3-35.7-4.1-78.3-4.1-78.3l2,1.7
							L123,159.2L156.9,188.5z"/>
						<path class="st7" d="M156.9,188.5c0,0-18.5,4.8-33.1-8c-9.4-8.3-10.6-37.1-13-72.8s-3.5-76-3.5-76l2.8,0.6L125,171.4
							L156.9,188.5z"/>
					</g>
					<path class="st10" d="M156.9,188.5c0,0-17.2-8.2-26.8-45.9C120.4,104.8,111.8,31,111.8,31h-6.1c0,0,6.7,114.6,14.1,139.5
						C125.8,190.5,156.9,188.5,156.9,188.5z"/>
					<g>
						<line class="st11" x1="98.2" y1="166.8" x2="98.2" y2="261"/>
						<polygon class="st8" points="78.8,233.2 78.8,231.5 118,232 118,233.7 						"/>
						<polygon class="st7" points="78.8,233.9 78.8,232.1 118,232.6 118,234.4 						"/>
						<path class="st3" d="M78.9,232.9v9.3c0,0.3,0.3,0.6,0.6,0.6l37.4,0.1c0.3,0,0.6-0.3,0.6-0.6v-9L78.9,232.9z"/>
						<line class="st11" x1="117.5" y1="233.8" x2="78.9" y2="233.3"/>
					</g>
				</g>
				<g>
					<polygon class="st8" points="137.7,186.9 137.7,243.5 148.4,255.8 155.9,247.1 155.1,203.7 148.8,189.7 					"/>
					<polygon class="st7" points="138.7,186.9 138.7,243.5 149.4,255.8 156.9,247.1 156.1,203.7 149.8,189.7 					"/>
				</g>
				<g>
					<polygon class="st8" points="147.1,179.4 138.4,186.9 142.5,187.6 149.1,181.4 					"/>
					<polygon class="st7" points="148.3,180.4 140.3,187.1 144.1,187.7 150.1,182.2 					"/>
				</g>
				<g>
					<path class="st9" d="M201.6,36.7c0,0,7,83.5,36,129.9l-60.3,76.9l0.1-132.2l15.5-74L201.6,36.7z"/>
					<g>
						<path class="st7" d="M202.9,93.8c0,0-3.1,37,7.7,49.6c6.1,7.2,22.6,14.2,23.9,17.8c3.7,10.4-5.1,5.8-5.1,5.8
							s-13.2,2.6-19.2-7.9c-5.9-10.4-14.9-55.4-14.9-55.4L202.9,93.8z"/>
						<path class="st6" d="M202.9,95.6c0,0-4,34.8,7.4,50.7c5.5,7.7,25.3,16.4,25.3,16.4c0.6,1.4,2,3.9,2,3.9s-20.6-1-26.5-11.4
							c-5.9-10.4-17.9-49.5-17.9-49.5L202.9,95.6z"/>
					</g>
					<path class="st10" d="M194.2,31l7.3,5.7c0,0,1.8,56.2,1.5,92c-0.2,33.9,34.5,37.8,34.5,37.8s-4,17.6-6.4,45.1
						c-2.4,27,1.6,49.3,1.6,49.3h-77.6l-15.4-18.1v-54.4c0,0,21.9-2.3,32-23.5C181.8,143.9,194.2,31,194.2,31z"/>
					<g>
						<g id="XMLID_1136_">
							<g id="XMLID_1151_">
								<circle class="st8" cx="146" cy="197.4" r="1.8"/>
							</g>
							<g id="XMLID_1150_">
								<circle class="st12" cx="146.1" cy="197.3" r="1.7"/>
							</g>
							<g id="XMLID_1149_">
								<polygon class="st13" points="149.9,197.2 147,196.8 143.8,197.2 147,197.7 								"/>
								<path class="st14" d="M147,197.7L147,197.7l-3.7-0.5l3.7-0.5l0,0l3.3,0.5L147,197.7z M144.3,197.2l2.8,0.4l2.4-0.4l-2.5-0.4
									L144.3,197.2z"/>
							</g>
							<g id="XMLID_1148_">
								<circle class="st15" cx="146" cy="197.1" r="1.7"/>
								<path class="st16" d="M146,198.9c-1,0-1.8-0.8-1.8-1.8s0.8-1.8,1.8-1.8c1,0,1.8,0.8,1.8,1.8S147.1,198.9,146,198.9z
									 M146,195.5c-0.9,0-1.6,0.7-1.6,1.6c0,0.9,0.7,1.6,1.6,1.6c0.9,0,1.6-0.7,1.6-1.6C147.6,196.2,146.9,195.5,146,195.5z"/>
							</g>
							<g id="XMLID_1147_">
								<circle class="st15" cx="146" cy="197.1" r="1.5"/>
								<path class="st6" d="M146,198.6c-0.8,0-1.5-0.7-1.5-1.5c0-0.8,0.7-1.5,1.5-1.5c0.8,0,1.5,0.7,1.5,1.5
									C147.5,197.9,146.9,198.6,146,198.6z M146,195.6c-0.8,0-1.4,0.6-1.4,1.4c0,0.8,0.6,1.4,1.4,1.4c0.8,0,1.4-0.6,1.4-1.4
									C147.5,196.3,146.8,195.6,146,195.6z"/>
							</g>
							<g id="XMLID_1146_">
								<circle class="st13" cx="145.8" cy="196.7" r="0.2"/>
							</g>
							<g id="XMLID_1145_">
								<circle class="st13" cx="146.3" cy="197.7" r="0.2"/>
							</g>
							<g id="XMLID_1144_">
								
									<rect x="145.3" y="197.1" transform="matrix(0.4371 0.8994 -0.8994 0.4371 259.5204 -20.2474)" class="st16" width="1.2" height="0.1"/>
							</g>
							<g id="XMLID_1143_">
								
									<rect x="145.5" y="197.1" transform="matrix(0.4371 0.8994 -0.8994 0.4371 259.5474 -20.4049)" class="st16" width="1.2" height="0.1"/>
							</g>
							<g id="XMLID_1142_">
								
									<rect x="145.3" y="197.1" transform="matrix(0.4371 0.8994 -0.8994 0.4371 259.5204 -20.2474)" class="st16" width="1.2" height="0.1"/>
							</g>
							<g id="XMLID_1141_">
								
									<rect x="145.5" y="197.1" transform="matrix(0.4371 0.8994 -0.8994 0.4371 259.5474 -20.4049)" class="st16" width="1.2" height="0.1"/>
							</g>
							<g id="XMLID_1140_">
								<circle class="st13" cx="145.5" cy="197.5" r="0.2"/>
							</g>
							<g id="XMLID_1139_">
								<circle class="st13" cx="146.6" cy="196.9" r="0.2"/>
							</g>
							<g id="XMLID_1138_">
								
									<rect x="146" y="196.7" transform="matrix(0.4374 0.8993 -0.8993 0.4374 259.563 -20.3152)" class="st16" width="0.1" height="1.2"/>
							</g>
							<g id="XMLID_1137_">
								
									<rect x="145.9" y="196.6" transform="matrix(0.4374 0.8993 -0.8993 0.4374 259.4056 -20.3421)" class="st16" width="0.1" height="1.2"/>
							</g>
						</g>
						<g id="XMLID_1120_">
							<g id="XMLID_1135_">
								<circle class="st8" cx="146" cy="218.7" r="1.8"/>
							</g>
							<g id="XMLID_1134_">
								<circle class="st12" cx="146.1" cy="218.6" r="1.7"/>
							</g>
							<g id="XMLID_1133_">
								<polygon class="st13" points="149.9,218.6 147,218.1 143.8,218.6 147,219 								"/>
								<path class="st14" d="M147,219L147,219l-3.7-0.5l3.7-0.5l0,0l3.3,0.5L147,219z M144.3,218.6l2.8,0.4l2.4-0.4l-2.5-0.4
									L144.3,218.6z"/>
							</g>
							<g id="XMLID_1132_">
								<circle class="st15" cx="146" cy="218.4" r="1.7"/>
								<path class="st16" d="M146,220.2c-1,0-1.8-0.8-1.8-1.8s0.8-1.8,1.8-1.8c1,0,1.8,0.8,1.8,1.8S147.1,220.2,146,220.2z
									 M146,216.8c-0.9,0-1.6,0.7-1.6,1.6c0,0.9,0.7,1.6,1.6,1.6c0.9,0,1.6-0.7,1.6-1.6C147.6,217.5,146.9,216.8,146,216.8z"/>
							</g>
							<g id="XMLID_1131_">
								<circle class="st15" cx="146" cy="218.4" r="1.5"/>
								<path class="st6" d="M146,219.9c-0.8,0-1.5-0.7-1.5-1.5c0-0.8,0.7-1.5,1.5-1.5c0.8,0,1.5,0.7,1.5,1.5
									C147.5,219.2,146.9,219.9,146,219.9z M146,216.9c-0.8,0-1.4,0.6-1.4,1.4c0,0.8,0.6,1.4,1.4,1.4c0.8,0,1.4-0.6,1.4-1.4
									C147.5,217.6,146.8,216.9,146,216.9z"/>
							</g>
							<g id="XMLID_1130_">
								<circle class="st13" cx="145.8" cy="218" r="0.2"/>
							</g>
							<g id="XMLID_1129_">
								<circle class="st13" cx="146.3" cy="219.1" r="0.2"/>
							</g>
							<g id="XMLID_1128_">
								
									<rect x="145.3" y="218.5" transform="matrix(0.4371 0.8994 -0.8994 0.4371 278.6977 -8.2452)" class="st16" width="1.2" height="0.1"/>
							</g>
							<g id="XMLID_1127_">
								
									<rect x="145.5" y="218.4" transform="matrix(0.4371 0.8994 -0.8994 0.4371 278.7246 -8.4026)" class="st16" width="1.2" height="0.1"/>
							</g>
							<g id="XMLID_1126_">
								
									<rect x="145.3" y="218.5" transform="matrix(0.4371 0.8994 -0.8994 0.4371 278.6977 -8.2452)" class="st16" width="1.2" height="0.1"/>
							</g>
							<g id="XMLID_1125_">
								
									<rect x="145.5" y="218.4" transform="matrix(0.4371 0.8994 -0.8994 0.4371 278.7246 -8.4026)" class="st16" width="1.2" height="0.1"/>
							</g>
							<g id="XMLID_1124_">
								<circle class="st13" cx="145.5" cy="218.8" r="0.2"/>
							</g>
							<g id="XMLID_1123_">
								<circle class="st13" cx="146.6" cy="218.3" r="0.2"/>
							</g>
							<g id="XMLID_1122_">
								
									<rect x="146" y="218" transform="matrix(0.4374 0.8993 -0.8993 0.4374 278.7367 -8.3201)" class="st16" width="0.1" height="1.2"/>
							</g>
							<g id="XMLID_1121_">
								
									<rect x="145.9" y="217.9" transform="matrix(0.4374 0.8993 -0.8993 0.4374 278.5793 -8.347)" class="st16" width="0.1" height="1.2"/>
							</g>
						</g>
						<g id="XMLID_1104_">
							<g id="XMLID_1119_">
								<circle class="st8" cx="146" cy="240" r="1.8"/>
							</g>
							<g id="XMLID_1118_">
								<circle class="st12" cx="146.1" cy="239.9" r="1.7"/>
							</g>
							<g id="XMLID_1117_">
								<polygon class="st13" points="149.9,239.9 147,239.5 143.8,239.9 147,240.3 								"/>
								<path class="st14" d="M147,240.4L147,240.4l-3.7-0.5l3.7-0.5l0,0l3.3,0.5L147,240.4z M144.3,239.9l2.8,0.4l2.4-0.4l-2.5-0.4
									L144.3,239.9z"/>
							</g>
							<g id="XMLID_1116_">
								<circle class="st15" cx="146" cy="239.7" r="1.7"/>
								<path class="st16" d="M146,241.5c-1,0-1.8-0.8-1.8-1.8s0.8-1.8,1.8-1.8c1,0,1.8,0.8,1.8,1.8S147.1,241.5,146,241.5z
									 M146,238.1c-0.9,0-1.6,0.7-1.6,1.6c0,0.9,0.7,1.6,1.6,1.6c0.9,0,1.6-0.7,1.6-1.6C147.6,238.8,146.9,238.1,146,238.1z"/>
							</g>
							<g id="XMLID_1115_">
								<circle class="st15" cx="146" cy="239.7" r="1.5"/>
								<path class="st6" d="M146,241.2c-0.8,0-1.5-0.7-1.5-1.5c0-0.8,0.7-1.5,1.5-1.5c0.8,0,1.5,0.7,1.5,1.5
									C147.5,240.5,146.9,241.2,146,241.2z M146,238.3c-0.8,0-1.4,0.6-1.4,1.4c0,0.8,0.6,1.4,1.4,1.4c0.8,0,1.4-0.6,1.4-1.4
									C147.5,238.9,146.8,238.3,146,238.3z"/>
							</g>
							<g id="XMLID_1114_">
								<circle class="st13" cx="145.8" cy="239.3" r="0.2"/>
							</g>
							<g id="XMLID_1113_">
								<circle class="st13" cx="146.3" cy="240.4" r="0.2"/>
							</g>
							<g id="XMLID_1112_">
								
									<rect x="145.3" y="239.8" transform="matrix(0.4371 0.8994 -0.8994 0.4371 297.8748 3.7571)" class="st16" width="1.2" height="0.1"/>
							</g>
							<g id="XMLID_1111_">
								
									<rect x="145.5" y="239.7" transform="matrix(0.4371 0.8994 -0.8994 0.4371 297.9018 3.5997)" class="st16" width="1.2" height="0.1"/>
							</g>
							<g id="XMLID_1110_">
								
									<rect x="145.3" y="239.8" transform="matrix(0.4371 0.8994 -0.8994 0.4371 297.8748 3.7571)" class="st16" width="1.2" height="0.1"/>
							</g>
							<g id="XMLID_1109_">
								
									<rect x="145.5" y="239.7" transform="matrix(0.4371 0.8994 -0.8994 0.4371 297.9018 3.5997)" class="st16" width="1.2" height="0.1"/>
							</g>
							<g id="XMLID_1108_">
								<circle class="st13" cx="145.5" cy="240.1" r="0.2"/>
							</g>
							<g id="XMLID_1107_">
								<circle class="st13" cx="146.6" cy="239.6" r="0.2"/>
							</g>
							<g id="XMLID_1106_">
								
									<rect x="146" y="239.3" transform="matrix(0.4374 0.8993 -0.8993 0.4374 297.9105 3.675)" class="st16" width="0.1" height="1.2"/>
							</g>
							<g id="XMLID_1105_">
								
									<rect x="145.9" y="239.2" transform="matrix(0.4374 0.8993 -0.8993 0.4374 297.7531 3.6482)" class="st16" width="0.1" height="1.2"/>
							</g>
						</g>
					</g>
					<g>
						<path class="st8" d="M143.1,188.5c0,0,21.5,6.2,34.6-6.8c8.9-8.8,11.1-36.9,12.4-72.4c1.3-35.7,4.1-78.3,4.1-78.3l-2,1.7
							L177,159.2L143.1,188.5z"/>
						<path class="st7" d="M143.1,188.5c0,0,18.5,4.8,33.1-8c9.4-8.3,10.6-37.1,13-72.8c2.4-35.6,3.5-76,3.5-76l-2.8,0.6L175,171.4
							L143.1,188.5z"/>
					</g>
					<path class="st10" d="M139.8,188.5c0,0,20.5-8.2,30.2-45.9C179.6,104.8,188.2,31,188.2,31h6.1c0,0-6.7,114.6-14.1,139.5
						C174.2,190.5,139.8,188.5,139.8,188.5z"/>
					<g>
						<line class="st11" x1="201.8" y1="166.8" x2="201.8" y2="261"/>
						<polygon class="st8" points="221.6,233.1 221.6,231.4 181.6,231.9 181.6,233.6 						"/>
						<polygon class="st7" points="221.6,233.8 221.6,232.1 181.6,232.6 181.6,234.3 						"/>
						<path class="st3" d="M221.4,232.8v9.5c0,0.3-0.3,0.6-0.6,0.6l-38.1,0.1c-0.3,0-0.6-0.3-0.6-0.6v-9.2L221.4,232.8z"/>
						<line class="st11" x1="182.1" y1="233.7" x2="221.4" y2="233.3"/>
					</g>
				</g>
			</g>
		</g>
	</g>
	<g id="XMLID_1_" class="st0">
		<defs>
			<rect id="XMLID_4932_" x="-13.5" width="327.1" height="300"/>
		</defs>
		<clipPath id="XMLID_4_">
			<use xlink:href="#XMLID_4932_"  style="overflow:visible;"/>
		</clipPath>
	</g>
	<g class="st0">
		<path class="st17" d="M150.1,4.6c38.7,0,75.1,15.1,102.5,42.5c27.4,27.4,42.5,63.8,42.5,102.5s-15.1,75.1-42.5,102.5
			c-27.4,27.4-63.8,42.5-102.5,42.5S75,279.5,47.6,252.1C20.2,224.7,5.1,188.3,5.1,149.6S20.2,74.5,47.6,47.1
			C75,19.7,111.4,4.6,150.1,4.6 M150.1-0.4c-82.8,0-150,67.2-150,150s67.2,150,150,150s150-67.2,150-150S232.9-0.4,150.1-0.4
			L150.1-0.4z"/>
	</g>
</g>
</svg>
