<?xml version="1.0" encoding="utf-8"?>
<!-- Generator: Adobe Illustrator 19.0.0, SVG Export Plug-In . SVG Version: 6.00 Build 0)  -->
<svg version="1.1" id="Layer_1" xmlns="http://www.w3.org/2000/svg" xmlns:xlink="http://www.w3.org/1999/xlink" x="0px" y="0px"
	 viewBox="0 0 300 300" style="enable-background:new 0 0 300 300;" xml:space="preserve">
<style type="text/css">
	.st0{clip-path:url(#SVGID_2_);}
	.st1{clip-path:url(#XMLID_3_);}
	.st2{fill:#F1F1F2;stroke:#404041;stroke-linejoin:round;stroke-miterlimit:10;}
	.st3{fill:#FFFFFF;stroke:#404041;stroke-miterlimit:10;}
	.st4{fill:none;stroke:#808184;stroke-width:0.5;stroke-miterlimit:10;}
	.st5{fill:none;stroke:#808184;stroke-width:0.5;stroke-miterlimit:10;stroke-dasharray:0.9916,1.9832;}
	.st6{fill:#929497;}
	.st7{fill:#C5C7C9;}
	.st8{fill:#F1F1F2;}
	.st9{fill:#F1F1F2;stroke:#404041;stroke-miterlimit:10;}
	.st10{fill:#DBDCDD;}
	.st11{fill:#404041;}
	.st12{fill:#D0D2D3;}
	.st13{fill:#FFFFFF;}
	.st14{fill:#6D6E70;}
	.st15{fill:#9AA0BB;}
</style>
<g>
	<defs>
		<circle id="SVGID_1_" cx="150.1" cy="149.6" r="150"/>
	</defs>
	<use xlink:href="#SVGID_1_"  style="overflow:visible;fill:#DDDDDD;"/>
	<clipPath id="SVGID_2_">
		<use xlink:href="#SVGID_1_"  style="overflow:visible;"/>
	</clipPath>
	<g id="XMLID_4081_" class="st0">
		<defs>
			<rect id="XMLID_4118_" y="-0.4" width="300" height="300"/>
		</defs>
		<clipPath id="XMLID_3_">
			<use xlink:href="#XMLID_4118_"  style="overflow:visible;"/>
		</clipPath>
		<g class="st1">
			<path class="st2" d="M111.2,35c0,0,15.3,6.2,38.8,6.2s38.8-6.2,38.8-6.2l-9.4,145.2l-28.8,74.4L120,179.7L111.2,35z"/>
			<path class="st3" d="M105.5,37.9c0,0,2.8,11.6,43.9,11.6s45.1-11.6,45.1-11.6l-5.8-2.9c0,0-15.7,6.2-38.8,6.2s-38.7-6.1-38.7-6.1
				L105.5,37.9z"/>
			<g>
				<g>
					<g>
						<line class="st4" x1="150" y1="50.8" x2="150" y2="51.3"/>
						<line class="st5" x1="150" y1="53.3" x2="150" y2="227.8"/>
						<line class="st4" x1="150" y1="228.8" x2="150" y2="229.3"/>
					</g>
				</g>
				<path class="st6" d="M140.3,52.8l0.7,0.7c0,0,4.9-0.4,9-0.4s9.3,0.4,9.3,0.4l0.4-0.7H140.3z"/>
				<path class="st7" d="M140.8,53.4l0.5,0.5c0,0,4.6-0.3,8.7-0.3c4.1,0,9.1,0.3,9.1,0.3l0.3-0.5l-9.4-0.2L140.8,53.4z"/>
				<path class="st3" d="M150,49.6c-4.3,0-7.8-0.1-10.7-0.3l1.2,3.6h9.5h0.1h9.5l1.2-3.6C157.8,49.3,154.3,49.6,150,49.6z"/>
			</g>
			<g>
				<path class="st6" d="M116.7,36.8c0,0-2.2,1.3-2.3,8l-1.2-0.5l-2-9.3C111.2,35,111.2,35.4,116.7,36.8z"/>
				<path class="st8" d="M115.3,36.4c0,0-2.7,6.8-0.3,8.4c0,0,0.6-8,2.2-7.9L115.3,36.4z"/>
				<path class="st7" d="M113.6,36c0,0-1.6,6.7,1.4,8.8c0,0-2-1.7,0.3-8.4L113.6,36z"/>
			</g>
			<g>
				<path class="st6" d="M183.3,36.8c0,0,2.2,1.3,2.3,8l1.2-0.5l2-9.3C188.8,35,188.8,35.4,183.3,36.8z"/>
				<path class="st8" d="M184.7,36.4c0,0,2.7,6.8,0.3,8.4c0,0-0.6-8-2.2-7.9L184.7,36.4z"/>
				<path class="st7" d="M186.4,36c0,0,1.6,6.7-1.4,8.8c0,0,2-1.7-0.3-8.4L186.4,36z"/>
			</g>
			<g>
				<polygon class="st7" points="113.3,50 150,200.8 186.6,50 189.4,49.1 188.8,51.7 159.3,204.3 150.5,219.5 146,218.1 
					142.3,205.3 129,136.7 110,42.8 111.2,49.1 				"/>
				<polygon class="st6" points="113.3,54.7 150,212.4 186.6,54.7 189.4,53.8 188.8,56.4 159.3,209 150.2,232.2 146,222.8 
					142.3,210 129,141.4 110,47.5 111.2,53.8 				"/>
			</g>
			<g>
				<g>
					<path class="st9" d="M93.8,43c0,0,4.9,138.2-23.7,183.9l53,17.2l-0.1-130l-15.3-72.8L93.8,43z"/>
					<g>
						<path class="st7" d="M95.4,153.9c0,0,2.4,33-6.8,46.5c-3.2,4.7-10.6,10-11.9,13.5c-3.6,10.2-6.6,13-6.6,13s13,2.5,18.8-7.7
							s14.7-54.5,14.7-54.5L95.4,153.9z"/>
						<path class="st6" d="M95.4,155.9c0,0,3.4,35.3-8.5,50.5c-3.2,4-10.6,8.7-11.4,11.1c-1.2,3.5-5.1,9.5-5.1,9.5
							s11.8-1.4,17.7-11.6s17.7-48.7,17.7-48.7L95.4,155.9z"/>
					</g>
					<path class="st3" d="M131.9,228.7L105.5,37.9l-11.6,5c0,0,1.3,99.1,1.6,134.4c0.2,33.4-25.5,49.5-25.5,49.5l-1.4,34.4
						c0,0,24.9,2.3,42.9,2.3s42.1,0,42.1,0l4.1-36.7l-24.9,2.6C132.3,229.5,131.9,229.2,131.9,228.7z"/>
				</g>
				<g>
					<polygon class="st8" points="130.3,225.7 127.4,225.7 131.8,263.5 135.3,263.5 133,226.9 					"/>
					<polygon class="st7" points="131,225.7 128.1,225.7 132.4,263.5 136,263.5 133.6,226.9 					"/>
				</g>
				<g>
					<path class="st9" d="M206.2,43c0,0-4.9,138.2,23.7,183.9l-53,17.2l0.1-130l15.3-72.8L206.2,43z"/>
					<g>
						<path class="st7" d="M204.8,153.9c0,0-2.4,33,6.8,46.5c3.2,4.7,10.6,10,11.9,13.5c3.6,10.2,6.6,13,6.6,13s-13,2.5-18.8-7.7
							s-14.7-54.5-14.7-54.5L204.8,153.9z"/>
						<path class="st6" d="M204.8,155.9c0,0-3.4,35.3,8.5,50.5c3.2,4,10.6,8.7,11.4,11.1c1.2,3.5,5.1,9.5,5.1,9.5
							s-11.8-1.4-17.7-11.6s-17.7-48.7-17.7-48.7L204.8,155.9z"/>
					</g>
					<path class="st3" d="M168.1,227.2l26.4-189.2l11.6,5c0,0-1.3,99.1-1.6,134.4c-0.2,33.4,25.5,49.5,25.5,49.5l1.4,34.4
						c0,0-18.1,3-53.3,3c-12.2,0-45.1,0.7-45.1,0.7l-4.3-38.1l38.5,1C167.7,228,168.1,227.6,168.1,227.2z"/>
					<g>
						<g id="XMLID_6280_">
							<g id="XMLID_6295_">
								<circle class="st8" cx="136.8" cy="235" r="1.7"/>
							</g>
							<g id="XMLID_6294_">
								<circle class="st10" cx="136.8" cy="234.9" r="1.7"/>
							</g>
							<g id="XMLID_6293_">
								<polygon class="st11" points="140.6,234.8 137.7,234.4 134.6,234.8 137.8,235.3 								"/>
								<path class="st12" d="M137.8,235.3L137.8,235.3l-3.6-0.5l3.6-0.5l0,0l3.2,0.5L137.8,235.3z M135,234.8l2.7,0.4l2.4-0.4
									l-2.4-0.4L135,234.8z"/>
							</g>
							<g id="XMLID_6292_">
								<circle class="st13" cx="136.8" cy="234.7" r="1.7"/>
								<path class="st14" d="M136.8,236.5c-1,0-1.8-0.8-1.8-1.8c0-1,0.8-1.8,1.8-1.8c1,0,1.8,0.8,1.8,1.8
									C138.6,235.7,137.8,236.5,136.8,236.5z M136.8,233.1c-0.9,0-1.6,0.7-1.6,1.6c0,0.9,0.7,1.6,1.6,1.6c0.9,0,1.6-0.7,1.6-1.6
									C138.3,233.8,137.6,233.1,136.8,233.1z"/>
							</g>
							<g id="XMLID_6291_">
								<circle class="st13" cx="136.8" cy="234.7" r="1.4"/>
								<path class="st6" d="M136.8,236.2c-0.8,0-1.5-0.7-1.5-1.5c0-0.8,0.7-1.5,1.5-1.5c0.8,0,1.5,0.7,1.5,1.5
									C138.3,235.5,137.6,236.2,136.8,236.2z M136.8,233.3c-0.8,0-1.4,0.6-1.4,1.4c0,0.8,0.6,1.4,1.4,1.4s1.4-0.6,1.4-1.4
									C138.2,233.9,137.6,233.3,136.8,233.3z"/>
							</g>
							<g id="XMLID_6290_">
								<circle class="st11" cx="136.5" cy="234.3" r="0.2"/>
							</g>
							<g id="XMLID_6289_">
								<circle class="st11" cx="137" cy="235.3" r="0.2"/>
							</g>
							<g id="XMLID_6288_">
								
									<rect x="136.1" y="234.8" transform="matrix(0.4371 0.8994 -0.8994 0.4371 288.1366 9.2523)" class="st14" width="1.2" height="0.1"/>
							</g>
							<g id="XMLID_6287_">
								
									<rect x="136.2" y="234.7" transform="matrix(0.4371 0.8994 -0.8994 0.4371 288.1631 9.0974)" class="st14" width="1.2" height="0.1"/>
							</g>
							<g id="XMLID_6286_">
								
									<rect x="136.1" y="234.8" transform="matrix(0.4371 0.8994 -0.8994 0.4371 288.1366 9.2523)" class="st14" width="1.2" height="0.1"/>
							</g>
							<g id="XMLID_6285_">
								
									<rect x="136.2" y="234.7" transform="matrix(0.4371 0.8994 -0.8994 0.4371 288.1631 9.0974)" class="st14" width="1.2" height="0.1"/>
							</g>
							<g id="XMLID_6284_">
								<circle class="st11" cx="136.2" cy="235.1" r="0.2"/>
							</g>
							<g id="XMLID_6283_">
								<circle class="st11" cx="137.3" cy="234.6" r="0.2"/>
							</g>
							<g id="XMLID_6282_">
								
									<rect x="136.7" y="234.3" transform="matrix(0.4374 0.8993 -0.8993 0.4374 288.1741 9.1709)" class="st14" width="0.1" height="1.2"/>
							</g>
							<g id="XMLID_6281_">
								
									<rect x="136.6" y="234.2" transform="matrix(0.4374 0.8993 -0.8993 0.4374 288.0193 9.1444)" class="st14" width="0.1" height="1.2"/>
							</g>
						</g>
						<g id="XMLID_6264_">
							<g id="XMLID_6279_">
								<circle class="st8" cx="137.9" cy="244.8" r="1.7"/>
							</g>
							<g id="XMLID_6278_">
								<circle class="st10" cx="137.9" cy="244.7" r="1.7"/>
							</g>
							<g id="XMLID_6277_">
								<polygon class="st11" points="141.7,244.7 138.8,244.2 135.7,244.7 138.9,245.1 								"/>
								<path class="st12" d="M138.9,245.1L138.9,245.1l-3.6-0.5l3.6-0.5l0,0l3.2,0.5L138.9,245.1z M136.1,244.7l2.7,0.4l2.4-0.4
									l-2.4-0.4L136.1,244.7z"/>
							</g>
							<g id="XMLID_6276_">
								<circle class="st13" cx="137.9" cy="244.5" r="1.7"/>
								<path class="st14" d="M137.9,246.3c-1,0-1.8-0.8-1.8-1.8c0-1,0.8-1.8,1.8-1.8c1,0,1.8,0.8,1.8,1.8
									C139.7,245.5,138.9,246.3,137.9,246.3z M137.9,242.9c-0.9,0-1.6,0.7-1.6,1.6c0,0.9,0.7,1.6,1.6,1.6c0.9,0,1.6-0.7,1.6-1.6
									C139.4,243.6,138.7,242.9,137.9,242.9z"/>
							</g>
							<g id="XMLID_6275_">
								<circle class="st13" cx="137.9" cy="244.5" r="1.4"/>
								<path class="st6" d="M137.9,246c-0.8,0-1.5-0.7-1.5-1.5c0-0.8,0.7-1.5,1.5-1.5c0.8,0,1.5,0.7,1.5,1.5
									C139.4,245.3,138.7,246,137.9,246z M137.9,243.1c-0.8,0-1.4,0.6-1.4,1.4c0,0.8,0.6,1.4,1.4,1.4s1.4-0.6,1.4-1.4
									C139.3,243.7,138.7,243.1,137.9,243.1z"/>
							</g>
							<g id="XMLID_6274_">
								<circle class="st11" cx="137.6" cy="244.1" r="0.2"/>
							</g>
							<g id="XMLID_6273_">
								<circle class="st11" cx="138.1" cy="245.2" r="0.2"/>
							</g>
							<g id="XMLID_6272_">
								
									<rect x="137.2" y="244.6" transform="matrix(0.4371 0.8994 -0.8994 0.4371 297.5856 13.7847)" class="st14" width="1.2" height="0.1"/>
							</g>
							<g id="XMLID_6271_">
								
									<rect x="137.3" y="244.5" transform="matrix(0.4371 0.8994 -0.8994 0.4371 297.6121 13.6297)" class="st14" width="1.2" height="0.1"/>
							</g>
							<g id="XMLID_6270_">
								
									<rect x="137.2" y="244.6" transform="matrix(0.4371 0.8994 -0.8994 0.4371 297.5856 13.7847)" class="st14" width="1.2" height="0.1"/>
							</g>
							<g id="XMLID_6269_">
								
									<rect x="137.3" y="244.5" transform="matrix(0.4371 0.8994 -0.8994 0.4371 297.6121 13.6297)" class="st14" width="1.2" height="0.1"/>
							</g>
							<g id="XMLID_6268_">
								<circle class="st11" cx="137.3" cy="244.9" r="0.2"/>
							</g>
							<g id="XMLID_6267_">
								<circle class="st11" cx="138.4" cy="244.4" r="0.2"/>
							</g>
							<g id="XMLID_6266_">
								
									<rect x="137.8" y="244.1" transform="matrix(0.4374 0.8993 -0.8993 0.4374 297.6212 13.7001)" class="st14" width="0.1" height="1.2"/>
							</g>
							<g id="XMLID_6265_">
								
									<rect x="137.7" y="244" transform="matrix(0.4374 0.8993 -0.8993 0.4374 297.4663 13.6737)" class="st14" width="0.1" height="1.2"/>
							</g>
						</g>
						<g id="XMLID_6248_">
							<g id="XMLID_6263_">
								<circle class="st8" cx="139" cy="254.6" r="1.7"/>
							</g>
							<g id="XMLID_6262_">
								<circle class="st10" cx="139" cy="254.5" r="1.7"/>
							</g>
							<g id="XMLID_6261_">
								<polygon class="st11" points="142.8,254.5 139.9,254.1 136.8,254.5 140,254.9 								"/>
								<path class="st12" d="M140,255L140,255l-3.6-0.5l3.6-0.5l0,0l3.2,0.5L140,255z M137.2,254.5l2.7,0.4l2.4-0.4l-2.4-0.4
									L137.2,254.5z"/>
							</g>
							<g id="XMLID_6260_">
								<circle class="st13" cx="139" cy="254.3" r="1.7"/>
								<path class="st14" d="M139,256.1c-1,0-1.8-0.8-1.8-1.8c0-1,0.8-1.8,1.8-1.8c1,0,1.8,0.8,1.8,1.8
									C140.8,255.3,140,256.1,139,256.1z M139,252.8c-0.9,0-1.6,0.7-1.6,1.6c0,0.9,0.7,1.6,1.6,1.6c0.9,0,1.6-0.7,1.6-1.6
									C140.5,253.5,139.8,252.8,139,252.8z"/>
							</g>
							<g id="XMLID_6259_">
								<circle class="st13" cx="139" cy="254.3" r="1.4"/>
								<path class="st6" d="M139,255.8c-0.8,0-1.5-0.7-1.5-1.5c0-0.8,0.7-1.5,1.5-1.5c0.8,0,1.5,0.7,1.5,1.5
									C140.5,255.1,139.8,255.8,139,255.8z M139,252.9c-0.8,0-1.4,0.6-1.4,1.4c0,0.8,0.6,1.4,1.4,1.4s1.4-0.6,1.4-1.4
									C140.4,253.5,139.8,252.9,139,252.9z"/>
							</g>
							<g id="XMLID_6258_">
								<circle class="st11" cx="138.7" cy="253.9" r="0.2"/>
							</g>
							<g id="XMLID_6257_">
								<circle class="st11" cx="139.2" cy="255" r="0.2"/>
							</g>
							<g id="XMLID_6256_">
								
									<rect x="138.3" y="254.4" transform="matrix(0.4371 0.8994 -0.8994 0.4371 307.0346 18.317)" class="st14" width="1.2" height="0.1"/>
							</g>
							<g id="XMLID_6255_">
								
									<rect x="138.4" y="254.3" transform="matrix(0.4371 0.8994 -0.8994 0.4371 307.0611 18.1621)" class="st14" width="1.2" height="0.1"/>
							</g>
							<g id="XMLID_6254_">
								
									<rect x="138.3" y="254.4" transform="matrix(0.4371 0.8994 -0.8994 0.4371 307.0346 18.317)" class="st14" width="1.2" height="0.1"/>
							</g>
							<g id="XMLID_6253_">
								
									<rect x="138.4" y="254.3" transform="matrix(0.4371 0.8994 -0.8994 0.4371 307.0611 18.1621)" class="st14" width="1.2" height="0.1"/>
							</g>
							<g id="XMLID_6252_">
								<circle class="st11" cx="138.4" cy="254.7" r="0.2"/>
							</g>
							<g id="XMLID_6251_">
								<circle class="st11" cx="139.5" cy="254.2" r="0.2"/>
							</g>
							<g id="XMLID_6250_">
								
									<rect x="138.9" y="254" transform="matrix(0.4374 0.8993 -0.8993 0.4374 307.0682 18.2293)" class="st14" width="0.1" height="1.2"/>
							</g>
							<g id="XMLID_6249_">
								
									<rect x="138.8" y="253.8" transform="matrix(0.4374 0.8993 -0.8993 0.4374 306.9134 18.2029)" class="st14" width="0.1" height="1.2"/>
							</g>
						</g>
					</g>
					<g>
						<g id="XMLID_6232_">
							<g id="XMLID_6247_">
								<circle class="st8" cx="161.6" cy="235" r="1.7"/>
							</g>
							<g id="XMLID_6246_">
								<circle class="st10" cx="161.6" cy="234.9" r="1.7"/>
							</g>
							<g id="XMLID_6245_">
								<polygon class="st11" points="165.4,234.8 162.6,234.4 159.4,234.8 162.6,235.3 								"/>
								<path class="st12" d="M162.6,235.3L162.6,235.3l-3.6-0.5l3.6-0.5l0,0l3.2,0.5L162.6,235.3z M159.9,234.8l2.7,0.4l2.4-0.4
									l-2.4-0.4L159.9,234.8z"/>
							</g>
							<g id="XMLID_6244_">
								<circle class="st13" cx="161.6" cy="234.7" r="1.7"/>
								<path class="st14" d="M161.6,236.5c-1,0-1.8-0.8-1.8-1.8c0-1,0.8-1.8,1.8-1.8c1,0,1.8,0.8,1.8,1.8
									C163.4,235.7,162.6,236.5,161.6,236.5z M161.6,233.1c-0.9,0-1.6,0.7-1.6,1.6c0,0.9,0.7,1.6,1.6,1.6s1.6-0.7,1.6-1.6
									C163.2,233.8,162.5,233.1,161.6,233.1z"/>
							</g>
							<g id="XMLID_6243_">
								<circle class="st13" cx="161.6" cy="234.7" r="1.4"/>
								<path class="st6" d="M161.6,236.2c-0.8,0-1.5-0.7-1.5-1.5c0-0.8,0.7-1.5,1.5-1.5s1.5,0.7,1.5,1.5
									C163.1,235.5,162.4,236.2,161.6,236.2z M161.6,233.3c-0.8,0-1.4,0.6-1.4,1.4c0,0.8,0.6,1.4,1.4,1.4s1.4-0.6,1.4-1.4
									C163,233.9,162.4,233.3,161.6,233.3z"/>
							</g>
							<g id="XMLID_6242_">
								<circle class="st11" cx="161.3" cy="234.3" r="0.2"/>
							</g>
							<g id="XMLID_6241_">
								<circle class="st11" cx="161.8" cy="235.3" r="0.2"/>
							</g>
							<g id="XMLID_6240_">
								
									<rect x="160.9" y="234.8" transform="matrix(0.4371 0.8994 -0.8994 0.4371 302.1146 -13.0817)" class="st14" width="1.2" height="0.1"/>
							</g>
							<g id="XMLID_6239_">
								
									<rect x="161.1" y="234.7" transform="matrix(0.4371 0.8994 -0.8994 0.4371 302.1411 -13.2366)" class="st14" width="1.2" height="0.1"/>
							</g>
							<g id="XMLID_6238_">
								
									<rect x="160.9" y="234.8" transform="matrix(0.4371 0.8994 -0.8994 0.4371 302.1146 -13.0817)" class="st14" width="1.2" height="0.1"/>
							</g>
							<g id="XMLID_6237_">
								
									<rect x="161.1" y="234.7" transform="matrix(0.4371 0.8994 -0.8994 0.4371 302.1411 -13.2366)" class="st14" width="1.2" height="0.1"/>
							</g>
							<g id="XMLID_6236_">
								<circle class="st11" cx="161.1" cy="235.1" r="0.2"/>
							</g>
							<g id="XMLID_6235_">
								<circle class="st11" cx="162.1" cy="234.6" r="0.2"/>
							</g>
							<g id="XMLID_6234_">
								
									<rect x="161.5" y="234.3" transform="matrix(0.4374 0.8993 -0.8993 0.4374 302.1438 -13.1592)" class="st14" width="0.1" height="1.2"/>
							</g>
							<g id="XMLID_6233_">
								
									<rect x="161.5" y="234.2" transform="matrix(0.4374 0.8993 -0.8993 0.4374 301.989 -13.1856)" class="st14" width="0.1" height="1.2"/>
							</g>
						</g>
						<g id="XMLID_6216_">
							<g id="XMLID_6231_">
								<circle class="st8" cx="160.5" cy="244.8" r="1.7"/>
							</g>
							<g id="XMLID_6230_">
								<circle class="st10" cx="160.5" cy="244.7" r="1.7"/>
							</g>
							<g id="XMLID_6229_">
								<polygon class="st11" points="164.3,244.7 161.5,244.2 158.3,244.7 161.5,245.1 								"/>
								<path class="st12" d="M161.5,245.1L161.5,245.1l-3.6-0.5l3.6-0.5l0,0l3.2,0.5L161.5,245.1z M158.8,244.7l2.7,0.4l2.4-0.4
									l-2.4-0.4L158.8,244.7z"/>
							</g>
							<g id="XMLID_6228_">
								<circle class="st13" cx="160.5" cy="244.5" r="1.7"/>
								<path class="st14" d="M160.5,246.3c-1,0-1.8-0.8-1.8-1.8c0-1,0.8-1.8,1.8-1.8c1,0,1.8,0.8,1.8,1.8
									C162.3,245.5,161.5,246.3,160.5,246.3z M160.5,242.9c-0.9,0-1.6,0.7-1.6,1.6c0,0.9,0.7,1.6,1.6,1.6s1.6-0.7,1.6-1.6
									C162.1,243.6,161.4,242.9,160.5,242.9z"/>
							</g>
							<g id="XMLID_6227_">
								<circle class="st13" cx="160.5" cy="244.5" r="1.4"/>
								<path class="st6" d="M160.5,246c-0.8,0-1.5-0.7-1.5-1.5c0-0.8,0.7-1.5,1.5-1.5s1.5,0.7,1.5,1.5
									C162,245.3,161.3,246,160.5,246z M160.5,243.1c-0.8,0-1.4,0.6-1.4,1.4c0,0.8,0.6,1.4,1.4,1.4s1.4-0.6,1.4-1.4
									C161.9,243.7,161.3,243.1,160.5,243.1z"/>
							</g>
							<g id="XMLID_6226_">
								<circle class="st11" cx="160.2" cy="244.1" r="0.2"/>
							</g>
							<g id="XMLID_6225_">
								<circle class="st11" cx="160.7" cy="245.2" r="0.2"/>
							</g>
							<g id="XMLID_6224_">
								
									<rect x="159.8" y="244.6" transform="matrix(0.4371 0.8994 -0.8994 0.4371 310.3211 -6.5642)" class="st14" width="1.2" height="0.1"/>
							</g>
							<g id="XMLID_6223_">
								
									<rect x="160" y="244.5" transform="matrix(0.4371 0.8994 -0.8994 0.4371 310.3476 -6.7191)" class="st14" width="1.2" height="0.1"/>
							</g>
							<g id="XMLID_6222_">
								
									<rect x="159.8" y="244.6" transform="matrix(0.4371 0.8994 -0.8994 0.4371 310.3211 -6.5642)" class="st14" width="1.2" height="0.1"/>
							</g>
							<g id="XMLID_6221_">
								
									<rect x="160" y="244.5" transform="matrix(0.4371 0.8994 -0.8994 0.4371 310.3476 -6.7191)" class="st14" width="1.2" height="0.1"/>
							</g>
							<g id="XMLID_6220_">
								<circle class="st11" cx="160" cy="244.9" r="0.2"/>
							</g>
							<g id="XMLID_6219_">
								<circle class="st11" cx="161" cy="244.4" r="0.2"/>
							</g>
							<g id="XMLID_6218_">
								
									<rect x="160.4" y="244.1" transform="matrix(0.4374 0.8993 -0.8993 0.4374 310.3491 -6.645)" class="st14" width="0.1" height="1.2"/>
							</g>
							<g id="XMLID_6217_">
								
									<rect x="160.4" y="244" transform="matrix(0.4374 0.8993 -0.8993 0.4374 310.1943 -6.6715)" class="st14" width="0.1" height="1.2"/>
							</g>
						</g>
						<g id="XMLID_6200_">
							<g id="XMLID_6215_">
								<circle class="st8" cx="159.4" cy="254.6" r="1.7"/>
							</g>
							<g id="XMLID_6214_">
								<circle class="st10" cx="159.4" cy="254.5" r="1.7"/>
							</g>
							<g id="XMLID_6213_">
								<polygon class="st11" points="163.2,254.5 160.4,254.1 157.2,254.5 160.4,254.9 								"/>
								<path class="st12" d="M160.4,255L160.4,255l-3.6-0.5l3.6-0.5l0,0l3.2,0.5L160.4,255z M157.7,254.5l2.7,0.4l2.4-0.4l-2.4-0.4
									L157.7,254.5z"/>
							</g>
							<g id="XMLID_6212_">
								<circle class="st13" cx="159.4" cy="254.3" r="1.7"/>
								<path class="st14" d="M159.4,256.1c-1,0-1.8-0.8-1.8-1.8c0-1,0.8-1.8,1.8-1.8c1,0,1.8,0.8,1.8,1.8
									C161.2,255.3,160.4,256.1,159.4,256.1z M159.4,252.8c-0.9,0-1.6,0.7-1.6,1.6c0,0.9,0.7,1.6,1.6,1.6s1.6-0.7,1.6-1.6
									C161,253.5,160.3,252.8,159.4,252.8z"/>
							</g>
							<g id="XMLID_6211_">
								<circle class="st13" cx="159.4" cy="254.3" r="1.4"/>
								<path class="st6" d="M159.4,255.8c-0.8,0-1.5-0.7-1.5-1.5c0-0.8,0.7-1.5,1.5-1.5c0.8,0,1.5,0.7,1.5,1.5
									C160.9,255.1,160.2,255.8,159.4,255.8z M159.4,252.9c-0.8,0-1.4,0.6-1.4,1.4c0,0.8,0.6,1.4,1.4,1.4s1.4-0.6,1.4-1.4
									C160.8,253.5,160.2,252.9,159.4,252.9z"/>
							</g>
							<g id="XMLID_6210_">
								<circle class="st11" cx="159.1" cy="253.9" r="0.2"/>
							</g>
							<g id="XMLID_6209_">
								<circle class="st11" cx="159.6" cy="255" r="0.2"/>
							</g>
							<g id="XMLID_6208_">
								
									<rect x="158.7" y="254.4" transform="matrix(0.4371 0.8994 -0.8994 0.4371 318.5276 -4.657226e-02)" class="st14" width="1.2" height="0.1"/>
							</g>
							<g id="XMLID_6207_">
								
									<rect x="158.9" y="254.3" transform="matrix(0.4371 0.8994 -0.8994 0.4371 318.5541 -0.2015)" class="st14" width="1.2" height="0.1"/>
							</g>
							<g id="XMLID_6206_">
								
									<rect x="158.7" y="254.4" transform="matrix(0.4371 0.8994 -0.8994 0.4371 318.5276 -4.657226e-02)" class="st14" width="1.2" height="0.1"/>
							</g>
							<g id="XMLID_6205_">
								
									<rect x="158.9" y="254.3" transform="matrix(0.4371 0.8994 -0.8994 0.4371 318.5541 -0.2015)" class="st14" width="1.2" height="0.1"/>
							</g>
							<g id="XMLID_6204_">
								<circle class="st11" cx="158.9" cy="254.7" r="0.2"/>
							</g>
							<g id="XMLID_6203_">
								<circle class="st11" cx="159.9" cy="254.2" r="0.2"/>
							</g>
							<g id="XMLID_6202_">
								
									<rect x="159.3" y="254" transform="matrix(0.4374 0.8993 -0.8993 0.4374 318.5544 -0.1309)" class="st14" width="0.1" height="1.2"/>
							</g>
							<g id="XMLID_6201_">
								
									<rect x="159.3" y="253.8" transform="matrix(0.4374 0.8993 -0.8993 0.4374 318.3996 -0.1574)" class="st14" width="0.1" height="1.2"/>
							</g>
						</g>
					</g>
					<g>
						<path class="st8" d="M150,227.7c0,0,19.5,5.3,20.4,4.5c1.1-1.1,26.1-193.3,26.1-193.3l-3.8-1.4l-35,186L150,227.7z"/>
						<path class="st7" d="M150,227.7c0,0,19.2,3.9,20,3.1c1.1-1.1,25.2-192.5,25.2-192.5h-2.6l-35,185.2L150,227.7z"/>
					</g>
					<path class="st3" d="M150,227.7L188.8,35l5.8,2.9l-25.3,191.2c-0.1,0.5-0.5,0.8-1,0.8L150,227.7z"/>
				</g>
				<g>
					<path class="st8" d="M150,227.7c0,0-19.5,5.3-20.4,4.5c-1.1-1.1-26.1-193.3-26.1-193.3l3.8-1.4l35,186L150,227.7z"/>
					<path class="st7" d="M150,227.7c0,0-19.2,3.9-20,3.1c-1.1-1.1-25.2-192.5-25.2-192.5h2.6l35,185.2L150,227.7z"/>
				</g>
				<path class="st3" d="M150,227.7L111.2,35l-5.8,2.9l25.3,191.2c0.1,0.5,0.5,0.8,1,0.8L150,227.7z"/>
			</g>
		</g>
	</g>
	<g id="XMLID_1_" class="st0">
		<defs>
			<rect id="XMLID_4932_" x="-13.5" width="327.1" height="300"/>
		</defs>
		<clipPath id="XMLID_4_">
			<use xlink:href="#XMLID_4932_"  style="overflow:visible;"/>
		</clipPath>
	</g>
	<g class="st0">
		<path class="st15" d="M150.1,4.6c38.7,0,75.1,15.1,102.5,42.5c27.4,27.4,42.5,63.8,42.5,102.5s-15.1,75.1-42.5,102.5
			c-27.4,27.4-63.8,42.5-102.5,42.5S75,279.5,47.6,252.1C20.2,224.7,5.1,188.3,5.1,149.6S20.2,74.5,47.6,47.1
			C75,19.7,111.4,4.6,150.1,4.6 M150.1-0.4c-82.8,0-150,67.2-150,150s67.2,150,150,150s150-67.2,150-150S232.9-0.4,150.1-0.4
			L150.1-0.4z"/>
	</g>
</g>
</svg>
