<?xml version="1.0" encoding="utf-8"?>
<!-- Generator: Adobe Illustrator 19.0.0, SVG Export Plug-In . SVG Version: 6.00 Build 0)  -->
<svg version="1.1" id="Layer_1" xmlns="http://www.w3.org/2000/svg" xmlns:xlink="http://www.w3.org/1999/xlink" x="0px" y="0px"
	 viewBox="0 0 300 300" style="enable-background:new 0 0 300 300;" xml:space="preserve">
<style type="text/css">
	.st0{clip-path:url(#SVGID_2_);}
	.st1{clip-path:url(#XMLID_3_);}
	.st2{fill:#F1F1F2;stroke:#404041;stroke-linejoin:round;stroke-miterlimit:10;}
	.st3{fill:none;stroke:#808184;stroke-width:0.5;stroke-miterlimit:10;}
	.st4{fill:none;stroke:#808184;stroke-width:0.5;stroke-miterlimit:10;stroke-dasharray:1.0077,2.0155;}
	.st5{fill:#929497;}
	.st6{fill:#C5C7C9;}
	.st7{fill:#FFFFFF;stroke:#404041;stroke-miterlimit:10;}
	.st8{fill:#F1F1F2;}
	.st9{fill:#F1F1F2;stroke:#404041;stroke-miterlimit:10;}
	.st10{fill:none;stroke:#808184;stroke-width:0.5;stroke-miterlimit:10;stroke-dasharray:1,2;}
	.st11{fill:#DBDCDD;}
	.st12{fill:#404041;}
	.st13{fill:#D0D2D3;}
	.st14{fill:#FFFFFF;}
	.st15{fill:#6D6E70;}
	.st16{fill:#9AA0BB;}
</style>
<g>
	<defs>
		<circle id="SVGID_1_" cx="150.1" cy="149.6" r="150"/>
	</defs>
	<use xlink:href="#SVGID_1_"  style="overflow:visible;fill:#DDDDDD;"/>
	<clipPath id="SVGID_2_">
		<use xlink:href="#SVGID_1_"  style="overflow:visible;"/>
	</clipPath>
	<g id="XMLID_4081_" class="st0">
		<defs>
			<rect id="XMLID_4118_" y="-0.4" width="300" height="300"/>
		</defs>
		<clipPath id="XMLID_3_">
			<use xlink:href="#XMLID_4118_"  style="overflow:visible;"/>
		</clipPath>
		<g class="st1">
			<path class="st2" d="M110.5,25c0,0,15.6,6.3,39.4,6.3s39.4-6.3,39.4-6.3l-9.6,147.5l-29.3,75.6l-31-76.1L110.5,25z"/>
			<g>
				<g>
					<g>
						<line class="st3" x1="149.8" y1="41.1" x2="149.8" y2="41.6"/>
						<line class="st4" x1="149.8" y1="43.6" x2="149.8" y2="220.9"/>
						<line class="st3" x1="149.8" y1="221.9" x2="149.8" y2="222.4"/>
					</g>
				</g>
				<path class="st5" d="M140,43.1l0.7,0.7c0,0,4.9-0.4,9.1-0.4c4.2,0,9.5,0.4,9.5,0.4l0.5-0.7H140z"/>
				<path class="st6" d="M140.5,43.7l0.5,0.5c0,0,4.7-0.4,8.8-0.4s9.3,0.4,9.3,0.4l0.3-0.5l-9.6-0.2L140.5,43.7z"/>
				<path class="st7" d="M149.9,39.8c-4.4,0-8-0.1-10.9-0.3l1.2,3.6h9.6h0.1h9.6l1.2-3.7C157.9,39.6,154.2,39.8,149.9,39.8z"/>
			</g>
			<path class="st7" d="M104.6,28c0,0,2.9,11.8,44.6,11.8S195.1,28,195.1,28l-5.9-3c0,0-16,6.3-39.4,6.3s-39.3-6.2-39.3-6.2
				L104.6,28z"/>
			<g>
				<path class="st5" d="M183.3,26.9c0,0,2.3,1.3,2.4,8.1l1.9-0.4l1.3-9.5C188.9,25,188.9,25.5,183.3,26.9z"/>
				<path class="st8" d="M184.8,26.5c0,0,2.7,6.9,0.3,8.5c0,0-0.7-8.1-2.2-8L184.8,26.5z"/>
				<path class="st6" d="M186.5,26c0,0,1.2,5.8-0.4,8.6c-0.3,0.5-0.6,0.1-1,0.4c0,0,2-1.7-0.3-8.5L186.5,26z"/>
			</g>
			<g>
				<path class="st5" d="M116.7,26.9c0,0-2.3,1.3-2.4,8.1l-1.9-0.4l-1.3-9.5C111.1,25,111.1,25.5,116.7,26.9z"/>
				<path class="st8" d="M115.3,26.5c0,0-2.7,6.9-0.3,8.5c0,0,0.7-8.1,2.2-8L115.3,26.5z"/>
				<path class="st6" d="M113.5,26c0,0-1.2,5.8,0.4,8.6c0.3,0.5,0.6,0.1,1,0.4c0,0-2-1.7,0.3-8.5L113.5,26z"/>
			</g>
			<g>
				<path class="st6" d="M110.5,25c0,0,15.9,32,20,39.8s19.4,35.3,19.4,35.3s13.9-23.5,19.6-34.3S189.3,25,189.3,25l5.9,3
					l-35.8,142.3l-9,15.5l-4.6-1.5l-3.7-13l-13.5-69.7L104.6,28L110.5,25z"/>
				<polygon class="st5" points="107.2,26.7 149.8,102.9 192.9,26.7 195.1,28 159.4,175.1 150.1,198.7 145.8,189.1 142,176.1 
					122.8,111.8 104.6,28 				"/>
			</g>
			<g>
				<g>
					<path class="st9" d="M86.3,36.7c0,0,13.6,69-19,93.9l7.9,24l47.5-49.4l-15.5-74L86.3,36.7z"/>
					<g>
						<path class="st6" d="M96.3,63.9c0,0,1.6,23.3-4.2,38.7c-3.2,8.6-3.3,9-12.5,18c-5.6,5.5-12.2,10-12.2,10l11,10.2l24.3-10.7
							l3.5-74.9L96.3,63.9z"/>
						<path class="st5" d="M95.9,61.4c0,0,0.8,41.5-6.8,52.2c-6.3,9-21.8,17-21.8,17l13.1,10.2l24.3-10.7l3.5-74.9L95.9,61.4z"/>
					</g>
					<path class="st7" d="M110.7,25L86.3,36.7c0,0,15.3,58.1,6.2,75.1s-25.2,18.8-25.2,18.8s7.7,19.1,7.7,49.7
						c0,29.2-0.9,46.3-0.9,46.3L65.3,255c0,0,57.4,8.7,73.1,20l5.5-7.2c6.4-8.4,10.5-19.9,11.8-37.8V119.2c0-3.5-1-6.9-3-9.8
						c-5.3-8-16.4-25.3-22.8-38.5C121.4,53,110.7,25,110.7,25z"/>
					<g>
						<line class="st10" x1="109.2" y1="160.7" x2="109.2" y2="263.5"/>
						<polygon class="st8" points="84.2,227.5 84.2,225.8 123.4,231.3 123.4,233 						"/>
						<polygon class="st6" points="84.2,228.2 84.2,226.5 123.4,232 123.4,233.7 						"/>
						<path class="st7" d="M84.8,227.2v9.3c0,0.3,0.3,0.6,0.6,0.6l37.4,5.7c0.3,0,0.6-0.3,0.6-0.6v-9.5L84.8,227.2z"/>
						<line class="st10" x1="123.4" y1="233.1" x2="84.8" y2="227.6"/>
						<polygon class="st8" points="89.6,133 89.6,131.2 123.4,133.4 123.4,135.1 						"/>
						<polygon class="st6" points="89.6,133.7 89.6,131.9 123.4,134.1 123.4,135.8 						"/>
						<path class="st7" d="M90.2,132.7v7.7c0,0.3,0.3,0.6,0.6,0.6l32.1,1.8c0.3,0,0.6-0.3,0.6-0.6v-7.4L90.2,132.7z"/>
						<line class="st10" x1="123.4" y1="135.3" x2="90.2" y2="133.1"/>
					</g>
				</g>
				<g>
					<path class="st8" d="M141.6,121.7v108.3c0,5.2,0.9,10.4,2.6,15.3l4.9,13.7l5.5-15l5.7-130.5l-11.2-9.7l-5,8.5
						C142.4,115.1,141.6,118.3,141.6,121.7z"/>
					<path class="st6" d="M142.7,122.3v108c0,5,0.8,9.9,2.5,14.6l5,14l4.4-29.4L153,118l-3.5-13.7c0,0-1.7,2.6-3.7,6.1
						C143.7,114,142.7,118.6,142.7,122.3z"/>
				</g>
				<g>
					<path class="st9" d="M213.7,36.7c0,0-13.6,69,19,93.9l-7.9,24l-47.5-49.4l15.5-74L213.7,36.7z"/>
					<g>
						<path class="st6" d="M203.7,63.9c0,0-1.6,23.3,4.2,38.7c3.2,8.6,3.3,9,12.5,18c5.6,5.5,12.2,10,12.2,10l-11,10.2l-24.3-10.7
							l-3.5-74.9L203.7,63.9z"/>
						<path class="st5" d="M204.1,61.4c0,0-0.8,41.5,6.8,52.2c6.3,9,21.8,17,21.8,17l-13.1,10.2l-24.3-10.7l-3.5-74.9L204.1,61.4z"
							/>
					</g>
					<path class="st7" d="M189.3,25l24.4,11.7c0,0-15.3,58.1-6.2,75.1s25.2,18.8,25.2,18.8s-7.7,19.1-7.7,49.7
						c0,29.2,0.9,46.3,0.9,46.3l8.8,28.4c0,0-57.4,8.7-73.1,20l-5.5-7.2c-6.4-8.4-10.5-19.9-11.8-37.8V119.2c0-3.5,1-6.9,3-9.8
						c5.3-8,16.4-25.3,22.8-38.5C178.6,53,189.3,25,189.3,25z"/>
					<g>
						<g id="XMLID_6008_">
							<g id="XMLID_6023_">
								<circle class="st8" cx="149" cy="125.9" r="1.8"/>
							</g>
							<g id="XMLID_6022_">
								<circle class="st11" cx="149.1" cy="125.8" r="1.7"/>
							</g>
							<g id="XMLID_6021_">
								<polygon class="st12" points="152.9,125.8 150,125.4 146.8,125.8 150,126.2 								"/>
								<path class="st13" d="M150,126.3L150,126.3l-3.7-0.5l3.7-0.5l0,0l3.3,0.5L150,126.3z M147.3,125.8l2.8,0.4l2.4-0.4l-2.5-0.4
									L147.3,125.8z"/>
							</g>
							<g id="XMLID_6020_">
								<circle class="st14" cx="149" cy="125.6" r="1.7"/>
								<path class="st15" d="M149,127.4c-1,0-1.8-0.8-1.8-1.8s0.8-1.8,1.8-1.8c1,0,1.8,0.8,1.8,1.8S150,127.4,149,127.4z M149,124
									c-0.9,0-1.6,0.7-1.6,1.6s0.7,1.6,1.6,1.6s1.6-0.7,1.6-1.6S149.9,124,149,124z"/>
							</g>
							<g id="XMLID_6019_">
								<circle class="st14" cx="149" cy="125.6" r="1.5"/>
								<path class="st5" d="M149,127.1c-0.8,0-1.5-0.7-1.5-1.5c0-0.8,0.7-1.5,1.5-1.5c0.8,0,1.5,0.7,1.5,1.5
									C150.5,126.4,149.9,127.1,149,127.1z M149,124.2c-0.8,0-1.4,0.6-1.4,1.4c0,0.8,0.6,1.4,1.4,1.4s1.4-0.6,1.4-1.4
									C150.5,124.8,149.8,124.2,149,124.2z"/>
							</g>
							<g id="XMLID_6018_">
								<circle class="st12" cx="148.8" cy="125.2" r="0.2"/>
							</g>
							<g id="XMLID_6017_">
								<circle class="st12" cx="149.3" cy="126.3" r="0.2"/>
							</g>
							<g id="XMLID_6016_">
								
									<rect x="148.3" y="125.7" transform="matrix(0.4371 0.8994 -0.8994 0.4371 196.9361 -63.1609)" class="st15" width="1.2" height="0.1"/>
							</g>
							<g id="XMLID_6015_">
								
									<rect x="148.5" y="125.6" transform="matrix(0.4371 0.8994 -0.8994 0.4371 196.963 -63.3183)" class="st15" width="1.2" height="0.1"/>
							</g>
							<g id="XMLID_6014_">
								
									<rect x="148.3" y="125.7" transform="matrix(0.4371 0.8994 -0.8994 0.4371 196.9361 -63.1609)" class="st15" width="1.2" height="0.1"/>
							</g>
							<g id="XMLID_6013_">
								
									<rect x="148.5" y="125.6" transform="matrix(0.4371 0.8994 -0.8994 0.4371 196.963 -63.3183)" class="st15" width="1.2" height="0.1"/>
							</g>
							<g id="XMLID_6012_">
								<circle class="st12" cx="148.5" cy="126" r="0.2"/>
							</g>
							<g id="XMLID_6011_">
								<circle class="st12" cx="149.5" cy="125.5" r="0.2"/>
							</g>
							<g id="XMLID_6010_">
								
									<rect x="148.9" y="125.2" transform="matrix(0.4374 0.8993 -0.8993 0.4374 196.9892 -63.2043)" class="st15" width="0.1" height="1.2"/>
							</g>
							<g id="XMLID_6009_">
								
									<rect x="148.9" y="125.1" transform="matrix(0.4374 0.8993 -0.8993 0.4374 196.8318 -63.2312)" class="st15" width="0.1" height="1.2"/>
							</g>
						</g>
						<g id="XMLID_5992_">
							<g id="XMLID_6007_">
								<circle class="st8" cx="149" cy="151.3" r="1.8"/>
							</g>
							<g id="XMLID_6006_">
								<circle class="st11" cx="149.1" cy="151.2" r="1.7"/>
							</g>
							<g id="XMLID_6005_">
								<polygon class="st12" points="152.9,151.2 150,150.7 146.8,151.2 150,151.6 								"/>
								<path class="st13" d="M150,151.7L150,151.7l-3.7-0.5l3.7-0.5l0,0l3.3,0.5L150,151.7z M147.3,151.2l2.8,0.4l2.4-0.4l-2.5-0.4
									L147.3,151.2z"/>
							</g>
							<g id="XMLID_6004_">
								<circle class="st14" cx="149" cy="151" r="1.7"/>
								<path class="st15" d="M149,152.8c-1,0-1.8-0.8-1.8-1.8c0-1,0.8-1.8,1.8-1.8c1,0,1.8,0.8,1.8,1.8
									C150.9,152,150,152.8,149,152.8z M149,149.4c-0.9,0-1.6,0.7-1.6,1.6s0.7,1.6,1.6,1.6s1.6-0.7,1.6-1.6S149.9,149.4,149,149.4
									z"/>
							</g>
							<g id="XMLID_6003_">
								<circle class="st14" cx="149" cy="151" r="1.5"/>
								<path class="st5" d="M149,152.5c-0.8,0-1.5-0.7-1.5-1.5c0-0.8,0.7-1.5,1.5-1.5c0.8,0,1.5,0.7,1.5,1.5
									C150.5,151.8,149.9,152.5,149,152.5z M149,149.6c-0.8,0-1.4,0.6-1.4,1.4c0,0.8,0.6,1.4,1.4,1.4s1.4-0.6,1.4-1.4
									C150.5,150.2,149.8,149.6,149,149.6z"/>
							</g>
							<g id="XMLID_6002_">
								<circle class="st12" cx="148.8" cy="150.6" r="0.2"/>
							</g>
							<g id="XMLID_6001_">
								<circle class="st12" cx="149.3" cy="151.7" r="0.2"/>
							</g>
							<g id="XMLID_6000_">
								
									<rect x="148.3" y="151.1" transform="matrix(0.4371 0.8994 -0.8994 0.4371 219.7748 -48.867)" class="st15" width="1.2" height="0.1"/>
							</g>
							<g id="XMLID_5999_">
								
									<rect x="148.5" y="151" transform="matrix(0.4371 0.8994 -0.8994 0.4371 219.8017 -49.0244)" class="st15" width="1.2" height="0.1"/>
							</g>
							<g id="XMLID_5998_">
								
									<rect x="148.3" y="151.1" transform="matrix(0.4371 0.8994 -0.8994 0.4371 219.7748 -48.867)" class="st15" width="1.2" height="0.1"/>
							</g>
							<g id="XMLID_5997_">
								
									<rect x="148.5" y="151" transform="matrix(0.4371 0.8994 -0.8994 0.4371 219.8017 -49.0244)" class="st15" width="1.2" height="0.1"/>
							</g>
							<g id="XMLID_5996_">
								<circle class="st12" cx="148.5" cy="151.4" r="0.2"/>
							</g>
							<g id="XMLID_5995_">
								<circle class="st12" cx="149.5" cy="150.9" r="0.2"/>
							</g>
							<g id="XMLID_5994_">
								
									<rect x="148.9" y="150.6" transform="matrix(0.4374 0.8993 -0.8993 0.4374 219.8238 -48.9189)" class="st15" width="0.1" height="1.2"/>
							</g>
							<g id="XMLID_5993_">
								
									<rect x="148.9" y="150.5" transform="matrix(0.4374 0.8993 -0.8993 0.4374 219.6664 -48.9458)" class="st15" width="0.1" height="1.2"/>
							</g>
						</g>
						<g id="XMLID_5976_">
							<g id="XMLID_5991_">
								<circle class="st8" cx="149" cy="176.7" r="1.8"/>
							</g>
							<g id="XMLID_5990_">
								<circle class="st11" cx="149.1" cy="176.6" r="1.7"/>
							</g>
							<g id="XMLID_5989_">
								<polygon class="st12" points="152.9,176.6 150,176.1 146.8,176.6 150,177 								"/>
								<path class="st13" d="M150,177.1L150,177.1l-3.7-0.5l3.7-0.5l0,0l3.3,0.5L150,177.1z M147.3,176.6l2.8,0.4l2.4-0.4l-2.5-0.4
									L147.3,176.6z"/>
							</g>
							<g id="XMLID_5988_">
								<circle class="st14" cx="149" cy="176.4" r="1.7"/>
								<path class="st15" d="M149,178.2c-1,0-1.8-0.8-1.8-1.8c0-1,0.8-1.8,1.8-1.8c1,0,1.8,0.8,1.8,1.8
									C150.9,177.4,150,178.2,149,178.2z M149,174.8c-0.9,0-1.6,0.7-1.6,1.6s0.7,1.6,1.6,1.6s1.6-0.7,1.6-1.6
									S149.9,174.8,149,174.8z"/>
							</g>
							<g id="XMLID_5987_">
								<circle class="st14" cx="149" cy="176.4" r="1.5"/>
								<path class="st5" d="M149,177.9c-0.8,0-1.5-0.7-1.5-1.5c0-0.8,0.7-1.5,1.5-1.5c0.8,0,1.5,0.7,1.5,1.5
									C150.5,177.2,149.9,177.9,149,177.9z M149,175c-0.8,0-1.4,0.6-1.4,1.4c0,0.8,0.6,1.4,1.4,1.4s1.4-0.6,1.4-1.4
									C150.5,175.6,149.8,175,149,175z"/>
							</g>
							<g id="XMLID_5986_">
								<circle class="st12" cx="148.8" cy="176" r="0.2"/>
							</g>
							<g id="XMLID_5985_">
								<circle class="st12" cx="149.3" cy="177.1" r="0.2"/>
							</g>
							<g id="XMLID_5984_">
								
									<rect x="148.3" y="176.5" transform="matrix(0.4371 0.8994 -0.8994 0.4371 242.6136 -34.5731)" class="st15" width="1.2" height="0.1"/>
							</g>
							<g id="XMLID_5983_">
								
									<rect x="148.5" y="176.4" transform="matrix(0.4371 0.8994 -0.8994 0.4371 242.6405 -34.7305)" class="st15" width="1.2" height="0.1"/>
							</g>
							<g id="XMLID_5982_">
								
									<rect x="148.3" y="176.5" transform="matrix(0.4371 0.8994 -0.8994 0.4371 242.6136 -34.5731)" class="st15" width="1.2" height="0.1"/>
							</g>
							<g id="XMLID_5981_">
								
									<rect x="148.5" y="176.4" transform="matrix(0.4371 0.8994 -0.8994 0.4371 242.6405 -34.7305)" class="st15" width="1.2" height="0.1"/>
							</g>
							<g id="XMLID_5980_">
								<circle class="st12" cx="148.5" cy="176.8" r="0.2"/>
							</g>
							<g id="XMLID_5979_">
								<circle class="st12" cx="149.5" cy="176.3" r="0.2"/>
							</g>
							<g id="XMLID_5978_">
								
									<rect x="148.9" y="176" transform="matrix(0.4374 0.8993 -0.8993 0.4374 242.6584 -34.6335)" class="st15" width="0.1" height="1.2"/>
							</g>
							<g id="XMLID_5977_">
								
									<rect x="148.9" y="175.9" transform="matrix(0.4374 0.8993 -0.8993 0.4374 242.5011 -34.6604)" class="st15" width="0.1" height="1.2"/>
							</g>
						</g>
						<line class="st10" x1="190.8" y1="160.7" x2="190.8" y2="263.5"/>
						<g id="XMLID_5960_">
							<g id="XMLID_5975_">
								<circle class="st8" cx="149" cy="202.1" r="1.8"/>
							</g>
							<g id="XMLID_5974_">
								<circle class="st11" cx="149.1" cy="202" r="1.7"/>
							</g>
							<g id="XMLID_5973_">
								<polygon class="st12" points="152.9,202 150,201.5 146.8,202 150,202.4 								"/>
								<path class="st13" d="M150,202.4L150,202.4l-3.7-0.5l3.7-0.5l0,0l3.3,0.5L150,202.4z M147.3,202l2.8,0.4l2.4-0.4l-2.5-0.4
									L147.3,202z"/>
							</g>
							<g id="XMLID_5972_">
								<circle class="st14" cx="149" cy="201.8" r="1.7"/>
								<path class="st15" d="M149,203.6c-1,0-1.8-0.8-1.8-1.8s0.8-1.8,1.8-1.8c1,0,1.8,0.8,1.8,1.8S150,203.6,149,203.6z
									 M149,200.2c-0.9,0-1.6,0.7-1.6,1.6s0.7,1.6,1.6,1.6s1.6-0.7,1.6-1.6S149.9,200.2,149,200.2z"/>
							</g>
							<g id="XMLID_5971_">
								<circle class="st14" cx="149" cy="201.8" r="1.5"/>
								<path class="st5" d="M149,203.3c-0.8,0-1.5-0.7-1.5-1.5c0-0.8,0.7-1.5,1.5-1.5c0.8,0,1.5,0.7,1.5,1.5
									C150.5,202.6,149.9,203.3,149,203.3z M149,200.3c-0.8,0-1.4,0.6-1.4,1.4c0,0.8,0.6,1.4,1.4,1.4s1.4-0.6,1.4-1.4
									C150.5,201,149.8,200.3,149,200.3z"/>
							</g>
							<g id="XMLID_5970_">
								<circle class="st12" cx="148.8" cy="201.4" r="0.2"/>
							</g>
							<g id="XMLID_5969_">
								<circle class="st12" cx="149.3" cy="202.5" r="0.2"/>
							</g>
							<g id="XMLID_5968_">
								
									<rect x="148.3" y="201.9" transform="matrix(0.4371 0.8994 -0.8994 0.4371 265.4523 -20.2792)" class="st15" width="1.2" height="0.1"/>
							</g>
							<g id="XMLID_5967_">
								
									<rect x="148.5" y="201.8" transform="matrix(0.4371 0.8994 -0.8994 0.4371 265.4792 -20.4366)" class="st15" width="1.2" height="0.1"/>
							</g>
							<g id="XMLID_5966_">
								
									<rect x="148.3" y="201.9" transform="matrix(0.4371 0.8994 -0.8994 0.4371 265.4523 -20.2792)" class="st15" width="1.2" height="0.1"/>
							</g>
							<g id="XMLID_5965_">
								
									<rect x="148.5" y="201.8" transform="matrix(0.4371 0.8994 -0.8994 0.4371 265.4792 -20.4366)" class="st15" width="1.2" height="0.1"/>
							</g>
							<g id="XMLID_5964_">
								<circle class="st12" cx="148.5" cy="202.2" r="0.2"/>
							</g>
							<g id="XMLID_5963_">
								<circle class="st12" cx="149.5" cy="201.7" r="0.2"/>
							</g>
							<g id="XMLID_5962_">
								
									<rect x="148.9" y="201.4" transform="matrix(0.4374 0.8993 -0.8993 0.4374 265.4931 -20.3481)" class="st15" width="0.1" height="1.2"/>
							</g>
							<g id="XMLID_5961_">
								
									<rect x="148.9" y="201.3" transform="matrix(0.4374 0.8993 -0.8993 0.4374 265.3357 -20.375)" class="st15" width="0.1" height="1.2"/>
							</g>
						</g>
						<g id="XMLID_5944_">
							<g id="XMLID_5959_">
								<circle class="st8" cx="149" cy="227.5" r="1.8"/>
							</g>
							<g id="XMLID_5958_">
								<circle class="st11" cx="149.1" cy="227.4" r="1.7"/>
							</g>
							<g id="XMLID_5957_">
								<polygon class="st12" points="152.9,227.4 150,226.9 146.8,227.4 150,227.8 								"/>
								<path class="st13" d="M150,227.8L150,227.8l-3.7-0.5l3.7-0.5l0,0l3.3,0.5L150,227.8z M147.3,227.4l2.8,0.4l2.4-0.4L150,227
									L147.3,227.4z"/>
							</g>
							<g id="XMLID_5956_">
								<circle class="st14" cx="149" cy="227.2" r="1.7"/>
								<path class="st15" d="M149,229c-1,0-1.8-0.8-1.8-1.8c0-1,0.8-1.8,1.8-1.8c1,0,1.8,0.8,1.8,1.8C150.9,228.2,150,229,149,229z
									 M149,225.6c-0.9,0-1.6,0.7-1.6,1.6s0.7,1.6,1.6,1.6s1.6-0.7,1.6-1.6S149.9,225.6,149,225.6z"/>
							</g>
							<g id="XMLID_5955_">
								<circle class="st14" cx="149" cy="227.2" r="1.5"/>
								<path class="st5" d="M149,228.7c-0.8,0-1.5-0.7-1.5-1.5c0-0.8,0.7-1.5,1.5-1.5c0.8,0,1.5,0.7,1.5,1.5
									C150.5,228,149.9,228.7,149,228.7z M149,225.7c-0.8,0-1.4,0.6-1.4,1.4c0,0.8,0.6,1.4,1.4,1.4s1.4-0.6,1.4-1.4
									C150.5,226.4,149.8,225.7,149,225.7z"/>
							</g>
							<g id="XMLID_5954_">
								<circle class="st12" cx="148.8" cy="226.8" r="0.2"/>
							</g>
							<g id="XMLID_5953_">
								<circle class="st12" cx="149.3" cy="227.9" r="0.2"/>
							</g>
							<g id="XMLID_5952_">
								
									<rect x="148.3" y="227.3" transform="matrix(0.4371 0.8994 -0.8994 0.4371 288.2911 -5.9853)" class="st15" width="1.2" height="0.1"/>
							</g>
							<g id="XMLID_5951_">
								
									<rect x="148.5" y="227.2" transform="matrix(0.4371 0.8994 -0.8994 0.4371 288.318 -6.1427)" class="st15" width="1.2" height="0.1"/>
							</g>
							<g id="XMLID_5950_">
								
									<rect x="148.3" y="227.3" transform="matrix(0.4371 0.8994 -0.8994 0.4371 288.2911 -5.9853)" class="st15" width="1.2" height="0.1"/>
							</g>
							<g id="XMLID_5949_">
								
									<rect x="148.5" y="227.2" transform="matrix(0.4371 0.8994 -0.8994 0.4371 288.318 -6.1427)" class="st15" width="1.2" height="0.1"/>
							</g>
							<g id="XMLID_5948_">
								<circle class="st12" cx="148.5" cy="227.6" r="0.2"/>
							</g>
							<g id="XMLID_5947_">
								<circle class="st12" cx="149.5" cy="227.1" r="0.2"/>
							</g>
							<g id="XMLID_5946_">
								
									<rect x="148.9" y="226.8" transform="matrix(0.4374 0.8993 -0.8993 0.4374 288.3277 -6.0627)" class="st15" width="0.1" height="1.2"/>
							</g>
							<g id="XMLID_5945_">
								
									<rect x="148.9" y="226.7" transform="matrix(0.4374 0.8993 -0.8993 0.4374 288.1703 -6.0896)" class="st15" width="0.1" height="1.2"/>
							</g>
						</g>
						<polygon class="st8" points="215.8,227.5 215.8,225.8 176.6,231.3 176.6,233 						"/>
						<polygon class="st6" points="215.8,228.2 215.8,226.5 176.6,232 176.6,233.7 						"/>
						<path class="st7" d="M215.2,227.2v9.3c0,0.3-0.3,0.6-0.6,0.6l-37.4,5.7c-0.3,0-0.6-0.3-0.6-0.6v-9.5L215.2,227.2z"/>
						<line class="st10" x1="176.6" y1="233.1" x2="215.2" y2="227.6"/>
						<polygon class="st8" points="210.4,133 210.4,131.2 176.6,133.4 176.6,135.1 						"/>
						<polygon class="st6" points="210.4,133.7 210.4,131.9 176.6,134.1 176.6,135.8 						"/>
						<path class="st7" d="M209.8,132.7v7.7c0,0.3-0.3,0.6-0.6,0.6l-32.1,1.8c-0.3,0-0.6-0.3-0.6-0.6v-7.4L209.8,132.7z"/>
						<line class="st10" x1="176.6" y1="135.3" x2="209.8" y2="133.1"/>
					</g>
				</g>
			</g>
		</g>
	</g>
	<g id="XMLID_1_" class="st0">
		<defs>
			<rect id="XMLID_4932_" x="-13.5" width="327.1" height="300"/>
		</defs>
		<clipPath id="XMLID_4_">
			<use xlink:href="#XMLID_4932_"  style="overflow:visible;"/>
		</clipPath>
	</g>
	<g class="st0">
		<path class="st16" d="M150.1,4.6c38.7,0,75.1,15.1,102.5,42.5c27.4,27.4,42.5,63.8,42.5,102.5s-15.1,75.1-42.5,102.5
			c-27.4,27.4-63.8,42.5-102.5,42.5S75,279.5,47.6,252.1C20.2,224.7,5.1,188.3,5.1,149.6S20.2,74.5,47.6,47.1
			C75,19.7,111.4,4.6,150.1,4.6 M150.1-0.4c-82.8,0-150,67.2-150,150s67.2,150,150,150s150-67.2,150-150S232.9-0.4,150.1-0.4
			L150.1-0.4z"/>
	</g>
</g>
</svg>
