<?xml version="1.0" encoding="utf-8"?>
<!-- Generator: Adobe Illustrator 19.0.0, SVG Export Plug-In . SVG Version: 6.00 Build 0)  -->
<svg version="1.1" id="Layer_1" xmlns="http://www.w3.org/2000/svg" xmlns:xlink="http://www.w3.org/1999/xlink" x="0px" y="0px"
	 viewBox="0 0 300 300" style="enable-background:new 0 0 300 300;" xml:space="preserve">
<style type="text/css">
	.st0{clip-path:url(#SVGID_2_);}
	.st1{clip-path:url(#XMLID_3_);}
	.st2{fill:#F1F1F2;stroke:#404041;stroke-linejoin:round;stroke-miterlimit:10;}
	.st3{fill:none;stroke:#808184;stroke-width:0.5;stroke-miterlimit:10;}
	.st4{fill:none;stroke:#808184;stroke-width:0.5;stroke-miterlimit:10;stroke-dasharray:1.0077,2.0155;}
	.st5{fill:#929497;}
	.st6{fill:#C5C7C9;}
	.st7{fill:#FFFFFF;stroke:#404041;stroke-miterlimit:10;}
	.st8{fill:#F1F1F2;}
	.st9{fill:#F1F1F2;stroke:#404041;stroke-miterlimit:10;}
	.st10{fill:#DBDCDD;}
	.st11{fill:#404041;}
	.st12{fill:#D0D2D3;}
	.st13{fill:#FFFFFF;}
	.st14{fill:#6D6E70;}
	.st15{fill:none;stroke:#808184;stroke-width:0.5;stroke-miterlimit:10;stroke-dasharray:1,2;}
	.st16{fill:#FFFFFF;stroke:#404041;stroke-linejoin:round;stroke-miterlimit:10;}
	.st17{fill:#9AA0BB;}
</style>
<g>
	<defs>
		<circle id="SVGID_1_" cx="150.1" cy="149.6" r="150"/>
	</defs>
	<use xlink:href="#SVGID_1_"  style="overflow:visible;fill:#DDDDDD;"/>
	<clipPath id="SVGID_2_">
		<use xlink:href="#SVGID_1_"  style="overflow:visible;"/>
	</clipPath>
	<g id="XMLID_4081_" class="st0">
		<defs>
			<rect id="XMLID_4118_" y="-0.4" width="300" height="300"/>
		</defs>
		<clipPath id="XMLID_3_">
			<use xlink:href="#XMLID_4118_"  style="overflow:visible;"/>
		</clipPath>
		<g class="st1">
			<path class="st2" d="M110.6,25c0,0,15.6,6.3,39.4,6.3s39.4-6.3,39.4-6.3l-9.6,147.5l-29.3,75.6l-31-76.1L110.6,25z"/>
			<g>
				<g>
					<g>
						<line class="st3" x1="150" y1="41.1" x2="150" y2="41.6"/>
						<line class="st4" x1="150" y1="43.6" x2="150" y2="220.9"/>
						<line class="st3" x1="150" y1="221.9" x2="150" y2="222.4"/>
					</g>
				</g>
				<path class="st5" d="M140.1,43.1l0.7,0.7c0,0,4.9-0.4,9.1-0.4s9.5,0.4,9.5,0.4l0.5-0.7H140.1z"/>
				<path class="st6" d="M140.6,43.7l0.5,0.5c0,0,4.7-0.4,8.8-0.4s9.3,0.4,9.3,0.4l0.3-0.5l-9.6-0.2L140.6,43.7z"/>
				<path class="st7" d="M150,39.8c-4.4,0-8-0.1-10.9-0.3l1.2,3.6h9.6h0.1h9.6l1.2-3.7C158,39.6,154.4,39.8,150,39.8z"/>
			</g>
			<path class="st7" d="M104.7,28c0,0,2.9,11.8,44.6,11.8S195.3,28,195.3,28l-5.9-3c0,0-16,6.3-39.4,6.3s-39.3-6.2-39.3-6.2
				L104.7,28z"/>
			<g>
				<path class="st5" d="M177.7,28.6c0,0,2.3,1.3,2.4,8.1l1.9-0.4l1.3-9.5C183.3,26.7,183.3,27.2,177.7,28.6z"/>
				<path class="st8" d="M179.1,28.2c0,0,2.7,6.9,0.3,8.5c0,0-0.7-8.1-2.2-8L179.1,28.2z"/>
				<path class="st6" d="M180.8,27.7c0,0,1.2,5.8-0.4,8.6c-0.3,0.5-0.6,0.1-1,0.4c0,0,2-1.7-0.3-8.5L180.8,27.7z"/>
			</g>
			<g>
				<path class="st5" d="M122,28.6c0,0-2.3,1.3-2.4,8.1l-1.9-0.4l-1.3-9.5C116.4,26.7,116.4,27.2,122,28.6z"/>
				<path class="st8" d="M120.6,28.2c0,0-2.7,6.9-0.3,8.5c0,0,0.7-8.1,2.2-8L120.6,28.2z"/>
				<path class="st6" d="M118.9,27.7c0,0-1.2,5.8,0.4,8.6c0.3,0.5,0.6,0.1,1,0.4c0,0-2-1.7,0.3-8.5L118.9,27.7z"/>
			</g>
			<g>
				<path class="st6" d="M116.7,26.9c0,0,9.8,55.2,15.9,79.1c4.6,18.1,13.4,59.3,17.4,59.3c3.8,0,11.3-32,17.7-59.9
					c6.9-30.2,15.7-78.5,15.7-78.5l4.4-1.3l-28.3,144.7l-9,15.5l-4.6-1.5l-3.7-13l-13.5-69.7L113,26L116.7,26.9z"/>
				<path class="st5" d="M116.7,26.9c0,0,22.4,143.3,33.3,143.3c10.5,0,33.4-143.3,33.4-143.3l6.1-1.9l-29.9,150.1l-9.3,23.5
					l-4.3-9.6l-3.7-13l-18.9-68.5L110.6,25L116.7,26.9z"/>
			</g>
			<g>
				<g>
					<path class="st9" d="M92.9,33.1c0,0,6.3,63.6-25.7,97.5l7.9,24l47.5-49.4l-15.5-74L92.9,33.1z"/>
					<g>
						<path class="st6" d="M96.2,63.9c0,0,1.2,23.6-6.6,38c-3.1,5.8-8.5,10.5-13.1,16.9c-4.6,6.4-9.3,11.8-9.3,11.8l11,10.2
							l24.3-10.7l3.5-74.9L96.2,63.9z"/>
						<path class="st5" d="M95.8,61.4c0,0,2.6,32.7-7.6,45.6c-12.3,15.6-21,23.6-21,23.6l13.1,10.2l24.3-10.7l3.5-74.9L95.8,61.4z"
							/>
					</g>
					<path class="st7" d="M110.6,25l-17.7,8.1c0,0,7.9,55.5-1.1,72.6s-24.6,24.9-24.6,24.9s4.6,24.8,4.6,55.4S67.2,255,67.2,255
						s55.3,8.7,71.1,20l5.5-7.2c6.4-8.4,10.5-19.9,11.8-37.8v-46.1c0,0-16.1-2.5-27.2-49.6C122.7,109.7,110.6,25,110.6,25z"/>
					<g>
						<g id="XMLID_6532_">
							<g id="XMLID_6547_">
								<circle class="st8" cx="150.8" cy="190.1" r="1.8"/>
							</g>
							<g id="XMLID_6546_">
								<circle class="st10" cx="150.8" cy="190" r="1.7"/>
							</g>
							<g id="XMLID_6545_">
								<polygon class="st11" points="147,190 149.9,189.5 153.1,190 149.9,190.4 								"/>
								<path class="st12" d="M146.6,190l3.3-0.5l0,0l3.7,0.5l-3.7,0.5l0,0L146.6,190z M149.9,189.6l-2.5,0.4l2.4,0.4l2.8-0.4
									L149.9,189.6z"/>
							</g>
							<g id="XMLID_6544_">
								<circle class="st13" cx="150.8" cy="189.8" r="1.7"/>
								<path class="st14" d="M149,189.8c0-1,0.8-1.8,1.8-1.8c1,0,1.8,0.8,1.8,1.8c0,1-0.8,1.8-1.8,1.8
									C149.8,191.6,149,190.8,149,189.8z M149.3,189.8c0,0.9,0.7,1.6,1.6,1.6s1.6-0.7,1.6-1.6s-0.7-1.6-1.6-1.6
									S149.3,188.9,149.3,189.8z"/>
							</g>
							<g id="XMLID_6543_">
								<circle class="st13" cx="150.8" cy="189.8" r="1.5"/>
								<path class="st5" d="M149.3,189.8c0-0.8,0.7-1.5,1.5-1.5c0.8,0,1.5,0.7,1.5,1.5c0,0.8-0.7,1.5-1.5,1.5
									C150,191.3,149.3,190.6,149.3,189.8z M149.4,189.8c0,0.8,0.6,1.4,1.4,1.4s1.4-0.6,1.4-1.4c0-0.8-0.6-1.4-1.4-1.4
									S149.4,189,149.4,189.8z"/>
							</g>
							<g id="XMLID_6542_">
								<circle class="st11" cx="151.1" cy="189.4" r="0.2"/>
							</g>
							<g id="XMLID_6541_">
								<circle class="st11" cx="150.6" cy="190.5" r="0.2"/>
							</g>
							<g id="XMLID_6540_">
								
									<rect x="150.4" y="189.9" transform="matrix(-0.4371 0.8994 -0.8994 -0.4371 387.7795 137.1956)" class="st14" width="1.2" height="0.1"/>
							</g>
							<g id="XMLID_6539_">
								
									<rect x="150.2" y="189.8" transform="matrix(-0.4371 0.8994 -0.8994 -0.4371 387.528 137.2386)" class="st14" width="1.2" height="0.1"/>
							</g>
							<g id="XMLID_6538_">
								
									<rect x="150.4" y="189.9" transform="matrix(-0.4371 0.8994 -0.8994 -0.4371 387.7795 137.1956)" class="st14" width="1.2" height="0.1"/>
							</g>
							<g id="XMLID_6537_">
								
									<rect x="150.2" y="189.8" transform="matrix(-0.4371 0.8994 -0.8994 -0.4371 387.528 137.2386)" class="st14" width="1.2" height="0.1"/>
							</g>
							<g id="XMLID_6536_">
								<circle class="st11" cx="151.4" cy="190.2" r="0.2"/>
							</g>
							<g id="XMLID_6535_">
								<circle class="st11" cx="150.3" cy="189.7" r="0.2"/>
							</g>
							<g id="XMLID_6534_">
								
									<rect x="150.8" y="189.4" transform="matrix(-0.4374 0.8993 -0.8993 -0.4374 387.7581 137.4806)" class="st14" width="0.1" height="1.2"/>
							</g>
							<g id="XMLID_6533_">
								
									<rect x="150.9" y="189.3" transform="matrix(-0.4374 0.8993 -0.8993 -0.4374 387.7152 137.2291)" class="st14" width="0.1" height="1.2"/>
							</g>
						</g>
						<g id="XMLID_6516_">
							<g id="XMLID_6531_">
								<circle class="st8" cx="150.8" cy="202.6" r="1.8"/>
							</g>
							<g id="XMLID_6530_">
								<circle class="st10" cx="150.8" cy="202.5" r="1.7"/>
							</g>
							<g id="XMLID_6529_">
								<polygon class="st11" points="147,202.4 149.9,202 153.1,202.4 149.9,202.9 								"/>
								<path class="st12" d="M146.6,202.4l3.3-0.5l0,0l3.7,0.5l-3.7,0.5l0,0L146.6,202.4z M149.9,202.1l-2.5,0.4l2.4,0.4l2.8-0.4
									L149.9,202.1z"/>
							</g>
							<g id="XMLID_6528_">
								<circle class="st13" cx="150.8" cy="202.3" r="1.7"/>
								<path class="st14" d="M149,202.3c0-1,0.8-1.8,1.8-1.8c1,0,1.8,0.8,1.8,1.8c0,1-0.8,1.8-1.8,1.8
									C149.8,204.1,149,203.3,149,202.3z M149.3,202.3c0,0.9,0.7,1.6,1.6,1.6s1.6-0.7,1.6-1.6s-0.7-1.6-1.6-1.6
									S149.3,201.4,149.3,202.3z"/>
							</g>
							<g id="XMLID_6527_">
								<circle class="st13" cx="150.8" cy="202.3" r="1.5"/>
								<path class="st5" d="M149.3,202.3c0-0.8,0.7-1.5,1.5-1.5c0.8,0,1.5,0.7,1.5,1.5c0,0.8-0.7,1.5-1.5,1.5
									C150,203.8,149.3,203.1,149.3,202.3z M149.4,202.3c0,0.8,0.6,1.4,1.4,1.4s1.4-0.6,1.4-1.4c0-0.8-0.6-1.4-1.4-1.4
									S149.4,201.5,149.4,202.3z"/>
							</g>
							<g id="XMLID_6526_">
								<circle class="st11" cx="151.1" cy="201.9" r="0.2"/>
							</g>
							<g id="XMLID_6525_">
								<circle class="st11" cx="150.6" cy="202.9" r="0.2"/>
							</g>
							<g id="XMLID_6524_">
								
									<rect x="150.4" y="202.3" transform="matrix(-0.4371 0.8994 -0.8994 -0.4371 398.9854 155.1003)" class="st14" width="1.2" height="0.1"/>
							</g>
							<g id="XMLID_6523_">
								
									<rect x="150.2" y="202.3" transform="matrix(-0.4371 0.8994 -0.8994 -0.4371 398.7339 155.1433)" class="st14" width="1.2" height="0.1"/>
							</g>
							<g id="XMLID_6522_">
								
									<rect x="150.4" y="202.3" transform="matrix(-0.4371 0.8994 -0.8994 -0.4371 398.9854 155.1003)" class="st14" width="1.2" height="0.1"/>
							</g>
							<g id="XMLID_6521_">
								
									<rect x="150.2" y="202.3" transform="matrix(-0.4371 0.8994 -0.8994 -0.4371 398.7339 155.1433)" class="st14" width="1.2" height="0.1"/>
							</g>
							<g id="XMLID_6520_">
								<circle class="st11" cx="151.4" cy="202.7" r="0.2"/>
							</g>
							<g id="XMLID_6519_">
								<circle class="st11" cx="150.3" cy="202.1" r="0.2"/>
							</g>
							<g id="XMLID_6518_">
								
									<rect x="150.8" y="201.9" transform="matrix(-0.4374 0.8993 -0.8993 -0.4374 398.962 155.3895)" class="st14" width="0.1" height="1.2"/>
							</g>
							<g id="XMLID_6517_">
								
									<rect x="150.9" y="201.8" transform="matrix(-0.4374 0.8993 -0.8993 -0.4374 398.919 155.1379)" class="st14" width="0.1" height="1.2"/>
							</g>
						</g>
						<line class="st15" x1="103.1" y1="160.7" x2="103.1" y2="262.3"/>
						<g id="XMLID_6500_">
							<g id="XMLID_6515_">
								<circle class="st8" cx="150.8" cy="215" r="1.8"/>
							</g>
							<g id="XMLID_6514_">
								<circle class="st10" cx="150.8" cy="215" r="1.7"/>
							</g>
							<g id="XMLID_6513_">
								<polygon class="st11" points="147,214.9 149.9,214.5 153.1,214.9 149.9,215.3 								"/>
								<path class="st12" d="M146.6,214.9l3.3-0.5l0,0l3.7,0.5l-3.7,0.5l0,0L146.6,214.9z M149.9,214.5l-2.5,0.4l2.4,0.4l2.8-0.4
									L149.9,214.5z"/>
							</g>
							<g id="XMLID_6512_">
								<circle class="st13" cx="150.8" cy="214.7" r="1.7"/>
								<path class="st14" d="M149,214.7c0-1,0.8-1.8,1.8-1.8c1,0,1.8,0.8,1.8,1.8s-0.8,1.8-1.8,1.8
									C149.8,216.6,149,215.7,149,214.7z M149.3,214.7c0,0.9,0.7,1.6,1.6,1.6s1.6-0.7,1.6-1.6s-0.7-1.6-1.6-1.6
									S149.3,213.9,149.3,214.7z"/>
							</g>
							<g id="XMLID_6511_">
								<circle class="st13" cx="150.8" cy="214.7" r="1.5"/>
								<path class="st5" d="M149.3,214.7c0-0.8,0.7-1.5,1.5-1.5c0.8,0,1.5,0.7,1.5,1.5c0,0.8-0.7,1.5-1.5,1.5
									C150,216.2,149.3,215.6,149.3,214.7z M149.4,214.7c0,0.8,0.6,1.4,1.4,1.4s1.4-0.6,1.4-1.4c0-0.8-0.6-1.4-1.4-1.4
									S149.4,213.9,149.4,214.7z"/>
							</g>
							<g id="XMLID_6510_">
								<circle class="st11" cx="151.1" cy="214.3" r="0.2"/>
							</g>
							<g id="XMLID_6509_">
								<circle class="st11" cx="150.6" cy="215.4" r="0.2"/>
							</g>
							<g id="XMLID_6508_">
								
									<rect x="150.4" y="214.8" transform="matrix(-0.4371 0.8994 -0.8994 -0.4371 410.1913 173.005)" class="st14" width="1.2" height="0.1"/>
							</g>
							<g id="XMLID_6507_">
								
									<rect x="150.2" y="214.7" transform="matrix(-0.4371 0.8994 -0.8994 -0.4371 409.9397 173.048)" class="st14" width="1.2" height="0.1"/>
							</g>
							<g id="XMLID_6506_">
								
									<rect x="150.4" y="214.8" transform="matrix(-0.4371 0.8994 -0.8994 -0.4371 410.1913 173.005)" class="st14" width="1.2" height="0.1"/>
							</g>
							<g id="XMLID_6505_">
								
									<rect x="150.2" y="214.7" transform="matrix(-0.4371 0.8994 -0.8994 -0.4371 409.9397 173.048)" class="st14" width="1.2" height="0.1"/>
							</g>
							<g id="XMLID_6504_">
								<circle class="st11" cx="151.4" cy="215.1" r="0.2"/>
							</g>
							<g id="XMLID_6503_">
								<circle class="st11" cx="150.3" cy="214.6" r="0.2"/>
							</g>
							<g id="XMLID_6502_">
								
									<rect x="150.8" y="214.4" transform="matrix(-0.4374 0.8993 -0.8993 -0.4374 410.1658 173.2983)" class="st14" width="0.1" height="1.2"/>
							</g>
							<g id="XMLID_6501_">
								
									<rect x="150.9" y="214.2" transform="matrix(-0.4374 0.8993 -0.8993 -0.4374 410.1228 173.0468)" class="st14" width="0.1" height="1.2"/>
							</g>
						</g>
						<g id="XMLID_6484_">
							<g id="XMLID_6499_">
								<circle class="st8" cx="150.8" cy="227.5" r="1.8"/>
							</g>
							<g id="XMLID_6498_">
								<circle class="st10" cx="150.8" cy="227.4" r="1.7"/>
							</g>
							<g id="XMLID_6497_">
								<polygon class="st11" points="147,227.4 149.9,226.9 153.1,227.4 149.9,227.8 								"/>
								<path class="st12" d="M146.6,227.4l3.3-0.5l0,0l3.7,0.5l-3.7,0.5l0,0L146.6,227.4z M149.9,227l-2.5,0.4l2.4,0.4l2.8-0.4
									L149.9,227z"/>
							</g>
							<g id="XMLID_6496_">
								<circle class="st13" cx="150.8" cy="227.2" r="1.7"/>
								<path class="st14" d="M149,227.2c0-1,0.8-1.8,1.8-1.8c1,0,1.8,0.8,1.8,1.8c0,1-0.8,1.8-1.8,1.8
									C149.8,229,149,228.2,149,227.2z M149.3,227.2c0,0.9,0.7,1.6,1.6,1.6s1.6-0.7,1.6-1.6s-0.7-1.6-1.6-1.6
									S149.3,226.3,149.3,227.2z"/>
							</g>
							<g id="XMLID_6495_">
								<circle class="st13" cx="150.8" cy="227.2" r="1.5"/>
								<path class="st5" d="M149.3,227.2c0-0.8,0.7-1.5,1.5-1.5c0.8,0,1.5,0.7,1.5,1.5c0,0.8-0.7,1.5-1.5,1.5
									C150,228.7,149.3,228,149.3,227.2z M149.4,227.2c0,0.8,0.6,1.4,1.4,1.4s1.4-0.6,1.4-1.4c0-0.8-0.6-1.4-1.4-1.4
									S149.4,226.4,149.4,227.2z"/>
							</g>
							<g id="XMLID_6494_">
								<circle class="st11" cx="151.1" cy="226.8" r="0.2"/>
							</g>
							<g id="XMLID_6493_">
								<circle class="st11" cx="150.6" cy="227.9" r="0.2"/>
							</g>
							<g id="XMLID_6492_">
								
									<rect x="150.4" y="227.3" transform="matrix(-0.4371 0.8994 -0.8994 -0.4371 421.3971 190.9097)" class="st14" width="1.2" height="0.1"/>
							</g>
							<g id="XMLID_6491_">
								
									<rect x="150.2" y="227.2" transform="matrix(-0.4371 0.8994 -0.8994 -0.4371 421.1456 190.9527)" class="st14" width="1.2" height="0.1"/>
							</g>
							<g id="XMLID_6490_">
								
									<rect x="150.4" y="227.3" transform="matrix(-0.4371 0.8994 -0.8994 -0.4371 421.3971 190.9097)" class="st14" width="1.2" height="0.1"/>
							</g>
							<g id="XMLID_6489_">
								
									<rect x="150.2" y="227.2" transform="matrix(-0.4371 0.8994 -0.8994 -0.4371 421.1456 190.9527)" class="st14" width="1.2" height="0.1"/>
							</g>
							<g id="XMLID_6488_">
								<circle class="st11" cx="151.4" cy="227.6" r="0.2"/>
							</g>
							<g id="XMLID_6487_">
								<circle class="st11" cx="150.3" cy="227.1" r="0.2"/>
							</g>
							<g id="XMLID_6486_">
								
									<rect x="150.8" y="226.8" transform="matrix(-0.4374 0.8993 -0.8993 -0.4374 421.3696 191.2072)" class="st14" width="0.1" height="1.2"/>
							</g>
							<g id="XMLID_6485_">
								
									<rect x="150.9" y="226.7" transform="matrix(-0.4374 0.8993 -0.8993 -0.4374 421.3267 190.9556)" class="st14" width="0.1" height="1.2"/>
							</g>
						</g>
						<polygon class="st8" points="83.6,227.5 83.6,225.8 122.9,231.3 122.9,233 						"/>
						<polygon class="st6" points="83.6,228.2 83.6,226.5 122.9,232 122.9,233.7 						"/>
						<path class="st7" d="M83.8,227.2v9.3c0,0.3,0.3,0.6,0.6,0.6l37.4,5.7c0.3,0,0.6-0.3,0.6-0.6v-9.5L83.8,227.2z"/>
						<line class="st15" x1="122.4" y1="233.1" x2="83.8" y2="227.6"/>
					</g>
					<g>
						<path class="st8" d="M155.6,183.9c0,0-19.7,4.2-28.5-6.7c-7.9-9.7-11.1-38.4-12.4-74c-1.3-35.7-4.1-78.3-4.1-78.3l2,1
							l15.3,127.2L155.6,183.9z"/>
						<path class="st6" d="M155.6,183.9c0,0-18.4,3.5-27.6-8.6c-7.6-9.9-9.9-37.9-12.2-73.6s-3.5-76-3.5-76l2.8,0.6l13.8,125.3
							L155.6,183.9z"/>
					</g>
					<path class="st16" d="M155.6,183.9c0,0-11-9.6-20.7-47.3c-9.7-37.8-18.2-109.7-18.2-109.7l-6.1-1.8c0,0,6.7,114.6,14.1,139.5
						c3,10,10.8,16,17.8,18.3C149.5,185.2,155.6,183.9,155.6,183.9z"/>
				</g>
				<g>
					<polygon class="st8" points="148.7,174.8 142.6,182.4 145.2,184.8 150.1,176 					"/>
					<polygon class="st6" points="149.5,175.9 143.4,183.2 145.9,183.5 150.8,176.5 					"/>
				</g>
				<g>
					<path class="st8" d="M141.7,184.4v45.6c0,5.2,0.9,10.4,2.6,15.3l4.9,13.7l5.5-15l-2.7-58.1l-6.9-2.8L141.7,184.4z"/>
					<path class="st6" d="M142.8,184.4v45.9c0,5,0.8,9.9,2.5,14.6l5,14l4.4-29.4l-1.6-43.7l-6.9-2.8L142.8,184.4z"/>
				</g>
				<g>
					<path class="st9" d="M207.1,33.1c0,0-6.3,63.6,25.7,97.5l-7.9,24l-47.5-49.4l15.5-74L207.1,33.1z"/>
					<g>
						<path class="st6" d="M203.8,63.9c0,0-1.2,23.6,6.6,38c3.1,5.8,8.5,10.5,13.1,16.9c4.6,6.4,9.3,11.8,9.3,11.8l-11,10.2
							l-24.3-10.7L194,55.2L203.8,63.9z"/>
						<path class="st5" d="M204.2,61.4c0,0-2.6,32.7,7.6,45.6c12.3,15.6,21,23.6,21,23.6l-13.1,10.2l-24.3-10.7l-3.5-74.9
							L204.2,61.4z"/>
					</g>
					<path class="st7" d="M189.4,25l17.7,8.1c0,0-7.9,55.5,1.1,72.6s24.6,24.9,24.6,24.9s-4.6,24.8-4.6,55.4s4.6,68.9,4.6,68.9
						s-55.3,8.7-71.1,20l-5.5-7.2c-6.4-8.4-10.5-19.9-11.8-37.8v-46.1c0,0,16.1-2.5,27.2-49.6C177.3,109.7,189.4,25,189.4,25z"/>
					<g>
						<g id="XMLID_6468_">
							<g id="XMLID_6483_">
								<circle class="st8" cx="149.2" cy="190.1" r="1.8"/>
							</g>
							<g id="XMLID_6482_">
								<circle class="st10" cx="149.2" cy="190" r="1.7"/>
							</g>
							<g id="XMLID_6481_">
								<polygon class="st11" points="153,190 150.1,189.5 146.9,190 150.1,190.4 								"/>
								<path class="st12" d="M150.1,190.5L150.1,190.5l-3.7-0.5l3.7-0.5l0,0l3.3,0.5L150.1,190.5z M147.4,190l2.8,0.4l2.4-0.4
									l-2.5-0.4L147.4,190z"/>
							</g>
							<g id="XMLID_6480_">
								<circle class="st13" cx="149.2" cy="189.8" r="1.7"/>
								<path class="st14" d="M149.2,191.6c-1,0-1.8-0.8-1.8-1.8c0-1,0.8-1.8,1.8-1.8c1,0,1.8,0.8,1.8,1.8
									C151,190.8,150.2,191.6,149.2,191.6z M149.2,188.2c-0.9,0-1.6,0.7-1.6,1.6s0.7,1.6,1.6,1.6s1.6-0.7,1.6-1.6
									S150,188.2,149.2,188.2z"/>
							</g>
							<g id="XMLID_6479_">
								<circle class="st13" cx="149.2" cy="189.8" r="1.5"/>
								<path class="st5" d="M149.2,191.3c-0.8,0-1.5-0.7-1.5-1.5c0-0.8,0.7-1.5,1.5-1.5c0.8,0,1.5,0.7,1.5,1.5
									C150.7,190.6,150,191.3,149.2,191.3z M149.2,188.4c-0.8,0-1.4,0.6-1.4,1.4c0,0.8,0.6,1.4,1.4,1.4s1.4-0.6,1.4-1.4
									C150.6,189,149.9,188.4,149.2,188.4z"/>
							</g>
							<g id="XMLID_6478_">
								<circle class="st11" cx="148.9" cy="189.4" r="0.2"/>
							</g>
							<g id="XMLID_6477_">
								<circle class="st11" cx="149.4" cy="190.5" r="0.2"/>
							</g>
							<g id="XMLID_6476_">
								
									<rect x="148.5" y="189.9" transform="matrix(0.4371 0.8994 -0.8994 0.4371 254.7387 -27.1293)" class="st14" width="1.2" height="0.1"/>
							</g>
							<g id="XMLID_6475_">
								
									<rect x="148.6" y="189.8" transform="matrix(0.4371 0.8994 -0.8994 0.4371 254.7656 -27.2867)" class="st14" width="1.2" height="0.1"/>
							</g>
							<g id="XMLID_6474_">
								
									<rect x="148.5" y="189.9" transform="matrix(0.4371 0.8994 -0.8994 0.4371 254.7387 -27.1293)" class="st14" width="1.2" height="0.1"/>
							</g>
							<g id="XMLID_6473_">
								
									<rect x="148.6" y="189.8" transform="matrix(0.4371 0.8994 -0.8994 0.4371 254.7656 -27.2867)" class="st14" width="1.2" height="0.1"/>
							</g>
							<g id="XMLID_6472_">
								<circle class="st11" cx="148.6" cy="190.2" r="0.2"/>
							</g>
							<g id="XMLID_6471_">
								<circle class="st11" cx="149.7" cy="189.7" r="0.2"/>
							</g>
							<g id="XMLID_6470_">
								
									<rect x="149.1" y="189.4" transform="matrix(0.4374 0.8993 -0.8993 0.4374 254.7813 -27.1942)" class="st14" width="0.1" height="1.2"/>
							</g>
							<g id="XMLID_6469_">
								
									<rect x="149" y="189.3" transform="matrix(0.4374 0.8993 -0.8993 0.4374 254.624 -27.2211)" class="st14" width="0.1" height="1.2"/>
							</g>
						</g>
						<g id="XMLID_6452_">
							<g id="XMLID_6467_">
								<circle class="st8" cx="149.2" cy="202.6" r="1.8"/>
							</g>
							<g id="XMLID_6466_">
								<circle class="st10" cx="149.2" cy="202.5" r="1.7"/>
							</g>
							<g id="XMLID_6465_">
								<polygon class="st11" points="153,202.4 150.1,202 146.9,202.4 150.1,202.9 								"/>
								<path class="st12" d="M150.1,202.9L150.1,202.9l-3.7-0.5l3.7-0.5l0,0l3.3,0.5L150.1,202.9z M147.4,202.4l2.8,0.4l2.4-0.4
									l-2.5-0.4L147.4,202.4z"/>
							</g>
							<g id="XMLID_6464_">
								<circle class="st13" cx="149.2" cy="202.3" r="1.7"/>
								<path class="st14" d="M149.2,204.1c-1,0-1.8-0.8-1.8-1.8c0-1,0.8-1.8,1.8-1.8c1,0,1.8,0.8,1.8,1.8
									C151,203.3,150.2,204.1,149.2,204.1z M149.2,200.7c-0.9,0-1.6,0.7-1.6,1.6s0.7,1.6,1.6,1.6s1.6-0.7,1.6-1.6
									S150,200.7,149.2,200.7z"/>
							</g>
							<g id="XMLID_6463_">
								<circle class="st13" cx="149.2" cy="202.3" r="1.5"/>
								<path class="st5" d="M149.2,203.8c-0.8,0-1.5-0.7-1.5-1.5c0-0.8,0.7-1.5,1.5-1.5c0.8,0,1.5,0.7,1.5,1.5
									C150.7,203.1,150,203.8,149.2,203.8z M149.2,200.8c-0.8,0-1.4,0.6-1.4,1.4c0,0.8,0.6,1.4,1.4,1.4s1.4-0.6,1.4-1.4
									C150.6,201.5,149.9,200.8,149.2,200.8z"/>
							</g>
							<g id="XMLID_6462_">
								<circle class="st11" cx="148.9" cy="201.9" r="0.2"/>
							</g>
							<g id="XMLID_6461_">
								<circle class="st11" cx="149.4" cy="202.9" r="0.2"/>
							</g>
							<g id="XMLID_6460_">
								
									<rect x="148.5" y="202.3" transform="matrix(0.4371 0.8994 -0.8994 0.4371 265.9445 -20.116)" class="st14" width="1.2" height="0.1"/>
							</g>
							<g id="XMLID_6459_">
								
									<rect x="148.6" y="202.3" transform="matrix(0.4371 0.8994 -0.8994 0.4371 265.9715 -20.2734)" class="st14" width="1.2" height="0.1"/>
							</g>
							<g id="XMLID_6458_">
								
									<rect x="148.5" y="202.3" transform="matrix(0.4371 0.8994 -0.8994 0.4371 265.9445 -20.116)" class="st14" width="1.2" height="0.1"/>
							</g>
							<g id="XMLID_6457_">
								
									<rect x="148.6" y="202.3" transform="matrix(0.4371 0.8994 -0.8994 0.4371 265.9715 -20.2734)" class="st14" width="1.2" height="0.1"/>
							</g>
							<g id="XMLID_6456_">
								<circle class="st11" cx="148.6" cy="202.7" r="0.2"/>
							</g>
							<g id="XMLID_6455_">
								<circle class="st11" cx="149.7" cy="202.1" r="0.2"/>
							</g>
							<g id="XMLID_6454_">
								
									<rect x="149.1" y="201.9" transform="matrix(0.4374 0.8993 -0.8993 0.4374 265.9852 -20.185)" class="st14" width="0.1" height="1.2"/>
							</g>
							<g id="XMLID_6453_">
								
									<rect x="149" y="201.8" transform="matrix(0.4374 0.8993 -0.8993 0.4374 265.8278 -20.2119)" class="st14" width="0.1" height="1.2"/>
							</g>
						</g>
						<line class="st15" x1="196.9" y1="160.7" x2="196.9" y2="262.3"/>
						<g id="XMLID_6436_">
							<g id="XMLID_6451_">
								<circle class="st8" cx="149.2" cy="215" r="1.8"/>
							</g>
							<g id="XMLID_6450_">
								<circle class="st10" cx="149.2" cy="215" r="1.7"/>
							</g>
							<g id="XMLID_6449_">
								<polygon class="st11" points="153,214.9 150.1,214.5 146.9,214.9 150.1,215.3 								"/>
								<path class="st12" d="M150.1,215.4L150.1,215.4l-3.7-0.5l3.7-0.5l0,0l3.3,0.5L150.1,215.4z M147.4,214.9l2.8,0.4l2.4-0.4
									l-2.5-0.4L147.4,214.9z"/>
							</g>
							<g id="XMLID_6448_">
								<circle class="st13" cx="149.2" cy="214.7" r="1.7"/>
								<path class="st14" d="M149.2,216.6c-1,0-1.8-0.8-1.8-1.8s0.8-1.8,1.8-1.8c1,0,1.8,0.8,1.8,1.8S150.2,216.6,149.2,216.6z
									 M149.2,213.1c-0.9,0-1.6,0.7-1.6,1.6s0.7,1.6,1.6,1.6s1.6-0.7,1.6-1.6S150,213.1,149.2,213.1z"/>
							</g>
							<g id="XMLID_6447_">
								<circle class="st13" cx="149.2" cy="214.7" r="1.5"/>
								<path class="st5" d="M149.2,216.2c-0.8,0-1.5-0.7-1.5-1.5c0-0.8,0.7-1.5,1.5-1.5c0.8,0,1.5,0.7,1.5,1.5
									C150.7,215.6,150,216.2,149.2,216.2z M149.2,213.3c-0.8,0-1.4,0.6-1.4,1.4c0,0.8,0.6,1.4,1.4,1.4s1.4-0.6,1.4-1.4
									C150.6,213.9,149.9,213.3,149.2,213.3z"/>
							</g>
							<g id="XMLID_6446_">
								<circle class="st11" cx="148.9" cy="214.3" r="0.2"/>
							</g>
							<g id="XMLID_6445_">
								<circle class="st11" cx="149.4" cy="215.4" r="0.2"/>
							</g>
							<g id="XMLID_6444_">
								
									<rect x="148.5" y="214.8" transform="matrix(0.4371 0.8994 -0.8994 0.4371 277.1504 -13.1027)" class="st14" width="1.2" height="0.1"/>
							</g>
							<g id="XMLID_6443_">
								
									<rect x="148.6" y="214.7" transform="matrix(0.4371 0.8994 -0.8994 0.4371 277.1773 -13.2601)" class="st14" width="1.2" height="0.1"/>
							</g>
							<g id="XMLID_6442_">
								
									<rect x="148.5" y="214.8" transform="matrix(0.4371 0.8994 -0.8994 0.4371 277.1504 -13.1027)" class="st14" width="1.2" height="0.1"/>
							</g>
							<g id="XMLID_6441_">
								
									<rect x="148.6" y="214.7" transform="matrix(0.4371 0.8994 -0.8994 0.4371 277.1773 -13.2601)" class="st14" width="1.2" height="0.1"/>
							</g>
							<g id="XMLID_6440_">
								<circle class="st11" cx="148.6" cy="215.1" r="0.2"/>
							</g>
							<g id="XMLID_6439_">
								<circle class="st11" cx="149.7" cy="214.6" r="0.2"/>
							</g>
							<g id="XMLID_6438_">
								
									<rect x="149.1" y="214.4" transform="matrix(0.4374 0.8993 -0.8993 0.4374 277.189 -13.1759)" class="st14" width="0.1" height="1.2"/>
							</g>
							<g id="XMLID_6437_">
								
									<rect x="149" y="214.2" transform="matrix(0.4374 0.8993 -0.8993 0.4374 277.0316 -13.2028)" class="st14" width="0.1" height="1.2"/>
							</g>
						</g>
						<g id="XMLID_6420_">
							<g id="XMLID_6435_">
								<circle class="st8" cx="149.2" cy="227.5" r="1.8"/>
							</g>
							<g id="XMLID_6434_">
								<circle class="st10" cx="149.2" cy="227.4" r="1.7"/>
							</g>
							<g id="XMLID_6433_">
								<polygon class="st11" points="153,227.4 150.1,226.9 146.9,227.4 150.1,227.8 								"/>
								<path class="st12" d="M150.1,227.8L150.1,227.8l-3.7-0.5l3.7-0.5l0,0l3.3,0.5L150.1,227.8z M147.4,227.4l2.8,0.4l2.4-0.4
									l-2.5-0.4L147.4,227.4z"/>
							</g>
							<g id="XMLID_6432_">
								<circle class="st13" cx="149.2" cy="227.2" r="1.7"/>
								<path class="st14" d="M149.2,229c-1,0-1.8-0.8-1.8-1.8c0-1,0.8-1.8,1.8-1.8c1,0,1.8,0.8,1.8,1.8
									C151,228.2,150.2,229,149.2,229z M149.2,225.6c-0.9,0-1.6,0.7-1.6,1.6s0.7,1.6,1.6,1.6s1.6-0.7,1.6-1.6
									S150,225.6,149.2,225.6z"/>
							</g>
							<g id="XMLID_6431_">
								<circle class="st13" cx="149.2" cy="227.2" r="1.5"/>
								<path class="st5" d="M149.2,228.7c-0.8,0-1.5-0.7-1.5-1.5c0-0.8,0.7-1.5,1.5-1.5c0.8,0,1.5,0.7,1.5,1.5
									C150.7,228,150,228.7,149.2,228.7z M149.2,225.7c-0.8,0-1.4,0.6-1.4,1.4c0,0.8,0.6,1.4,1.4,1.4s1.4-0.6,1.4-1.4
									C150.6,226.4,149.9,225.7,149.2,225.7z"/>
							</g>
							<g id="XMLID_6430_">
								<circle class="st11" cx="148.9" cy="226.8" r="0.2"/>
							</g>
							<g id="XMLID_6429_">
								<circle class="st11" cx="149.4" cy="227.9" r="0.2"/>
							</g>
							<g id="XMLID_6428_">
								
									<rect x="148.5" y="227.3" transform="matrix(0.4371 0.8994 -0.8994 0.4371 288.3562 -6.0894)" class="st14" width="1.2" height="0.1"/>
							</g>
							<g id="XMLID_6427_">
								
									<rect x="148.6" y="227.2" transform="matrix(0.4371 0.8994 -0.8994 0.4371 288.3831 -6.2468)" class="st14" width="1.2" height="0.1"/>
							</g>
							<g id="XMLID_6426_">
								
									<rect x="148.5" y="227.3" transform="matrix(0.4371 0.8994 -0.8994 0.4371 288.3562 -6.0894)" class="st14" width="1.2" height="0.1"/>
							</g>
							<g id="XMLID_6425_">
								
									<rect x="148.6" y="227.2" transform="matrix(0.4371 0.8994 -0.8994 0.4371 288.3831 -6.2468)" class="st14" width="1.2" height="0.1"/>
							</g>
							<g id="XMLID_6424_">
								<circle class="st11" cx="148.6" cy="227.6" r="0.2"/>
							</g>
							<g id="XMLID_6423_">
								<circle class="st11" cx="149.7" cy="227.1" r="0.2"/>
							</g>
							<g id="XMLID_6422_">
								
									<rect x="149.1" y="226.8" transform="matrix(0.4374 0.8993 -0.8993 0.4374 288.3928 -6.1668)" class="st14" width="0.1" height="1.2"/>
							</g>
							<g id="XMLID_6421_">
								
									<rect x="149" y="226.7" transform="matrix(0.4374 0.8993 -0.8993 0.4374 288.2354 -6.1936)" class="st14" width="0.1" height="1.2"/>
							</g>
						</g>
						<polygon class="st8" points="216.4,227.5 216.4,225.8 177.1,231.3 177.1,233 						"/>
						<polygon class="st6" points="216.4,228.2 216.4,226.5 177.1,232 177.1,233.7 						"/>
						<path class="st7" d="M216.2,227.2v9.3c0,0.3-0.3,0.6-0.6,0.6l-37.4,5.7c-0.3,0-0.6-0.3-0.6-0.6v-9.5L216.2,227.2z"/>
						<line class="st15" x1="177.6" y1="233.1" x2="216.2" y2="227.6"/>
					</g>
					<g>
						<path class="st8" d="M144.4,183.9c0,0,20.7,3.1,28.5-6.7c7.8-9.8,11.1-38.4,12.4-74c1.3-35.7,4.1-78.3,4.1-78.3l-2,1.7
							l-15.3,126.5L144.4,183.9z"/>
						<path class="st6" d="M144.4,183.9c0,0,19.8,1.1,27.6-8.6c7.8-9.8,9.9-37.9,12.2-73.6s3.5-76,3.5-76l-2.8,0.6l-13.8,125.3
							L144.4,183.9z"/>
					</g>
					<path class="st16" d="M144.4,183.9c0,0,11-9.6,20.7-47.3c9.7-37.8,18.2-109.7,18.2-109.7l6.1-1.8c0,0-6.7,114.6-14.1,139.5
						C169.4,184.5,144.4,183.9,144.4,183.9z"/>
				</g>
			</g>
		</g>
	</g>
	<g id="XMLID_1_" class="st0">
		<defs>
			<rect id="XMLID_4932_" x="-13.5" width="327.1" height="300"/>
		</defs>
		<clipPath id="XMLID_4_">
			<use xlink:href="#XMLID_4932_"  style="overflow:visible;"/>
		</clipPath>
	</g>
	<g class="st0">
		<path class="st17" d="M150.1,4.6c38.7,0,75.1,15.1,102.5,42.5c27.4,27.4,42.5,63.8,42.5,102.5s-15.1,75.1-42.5,102.5
			c-27.4,27.4-63.8,42.5-102.5,42.5S75,279.5,47.6,252.1C20.2,224.7,5.1,188.3,5.1,149.6S20.2,74.5,47.6,47.1
			C75,19.7,111.4,4.6,150.1,4.6 M150.1-0.4c-82.8,0-150,67.2-150,150s67.2,150,150,150s150-67.2,150-150S232.9-0.4,150.1-0.4
			L150.1-0.4z"/>
	</g>
</g>
</svg>
