<?xml version="1.0" encoding="utf-8"?>
<!-- Generator: Adobe Illustrator 19.0.0, SVG Export Plug-In . SVG Version: 6.00 Build 0)  -->
<svg version="1.1" id="Layer_1" xmlns="http://www.w3.org/2000/svg" xmlns:xlink="http://www.w3.org/1999/xlink" x="0px" y="0px"
	 viewBox="0 0 300 300" style="enable-background:new 0 0 300 300;" xml:space="preserve">
<style type="text/css">
	.st0{clip-path:url(#SVGID_2_);}
	.st1{clip-path:url(#XMLID_3_);}
	.st2{fill:#F1F1F2;stroke:#404041;stroke-linejoin:round;stroke-miterlimit:10;}
	.st3{fill:#C5C7C9;}
	.st4{fill:#929497;}
	.st5{fill:none;stroke:#808184;stroke-width:0.5;stroke-miterlimit:10;}
	.st6{fill:none;stroke:#808184;stroke-width:0.5;stroke-miterlimit:10;stroke-dasharray:1.0023,2.0047;}
	.st7{fill:#FFFFFF;stroke:#404041;stroke-miterlimit:10;}
	.st8{fill:#F1F1F2;}
	.st9{fill:#F1F1F2;stroke:#404041;stroke-miterlimit:10;}
	.st10{fill:none;stroke:#808184;stroke-width:0.5;stroke-miterlimit:10;stroke-dasharray:1,2;}
	.st11{fill:#FFFFFF;stroke:#404041;stroke-linejoin:round;stroke-miterlimit:10;}
	.st12{fill:#DBDCDD;}
	.st13{fill:#404041;}
	.st14{fill:#D0D2D3;}
	.st15{fill:#FFFFFF;}
	.st16{fill:#6D6E70;}
	.st17{fill:#9AA0BB;}
</style>
<g>
	<defs>
		<circle id="SVGID_1_" cx="150.1" cy="149.6" r="150"/>
	</defs>
	<use xlink:href="#SVGID_1_"  style="overflow:visible;fill:#DDDDDD;"/>
	<clipPath id="SVGID_2_">
		<use xlink:href="#SVGID_1_"  style="overflow:visible;"/>
	</clipPath>
	<g id="XMLID_4081_" class="st0">
		<defs>
			<rect id="XMLID_4118_" y="-0.4" width="300" height="300"/>
		</defs>
		<clipPath id="XMLID_3_">
			<use xlink:href="#XMLID_4118_"  style="overflow:visible;"/>
		</clipPath>
		<g class="st1">
			<path class="st2" d="M110.8,31c0,0,15.5,6.2,39.2,6.2s39.2-6.2,39.2-6.2l-9.5,146.7l-29.1,75.2l-30.8-75.7L110.8,31z"/>
			<g>
				<path class="st3" d="M116.9,32.9c0,0,11.3,40.9,17.4,64.7c4.6,18,14.7,38.3,16.2,38.3c1.2,0,9.3-11.2,15.7-38.9
					c6.9-30,17.1-64.1,17.1-64.1l4.4-1.3l-28.1,143.9l-8.9,15.4l-4.6-1.5l-3.7-12.9l-13.4-69.3L113.2,32L116.9,32.9z"/>
				<path class="st4" d="M116.9,32.9c0,0,19.7,90.3,33.1,108.2c1.6,2.1,5.9-6.1,9.4-15.9c10.2-29.4,23.8-92.2,23.8-92.2l6-1.9
					l-29.7,149.3l-9.2,23.4l-4.3-9.5l-3.7-12.9l-18.8-68.1L110.8,31L116.9,32.9z"/>
			</g>
			<g>
				<g>
					<g>
						<line class="st5" x1="150" y1="47" x2="150" y2="47.5"/>
						<line class="st6" x1="150" y1="49.5" x2="150" y2="225.9"/>
						<line class="st5" x1="150" y1="226.9" x2="150" y2="227.4"/>
					</g>
				</g>
				<path class="st4" d="M140.2,49l0.7,0.7c0,0,4.9-0.4,9.1-0.4s9.4,0.4,9.4,0.4l0.4-0.7H140.2z"/>
				<path class="st3" d="M140.7,49.6l0.5,0.5c0,0,4.7-0.4,8.8-0.4s9.2,0.4,9.2,0.4l0.3-0.5l-9.5-0.2L140.7,49.6z"/>
				<path class="st7" d="M150,45.7c-4.3,0-7.9-0.1-10.9-0.3l1.2,3.6h9.6h0.1h9.6l1.2-3.7C157.9,45.5,154.3,45.7,150,45.7z"/>
			</g>
			<path class="st7" d="M105,34c0,0,2.9,11.7,44.4,11.7S195,34,195,34l-5.8-3c0,0-15.9,6.2-39.2,6.2s-39.1-6.1-39.1-6.1L105,34z"/>
			<g>
				<path class="st4" d="M177.5,34.5c0,0,2.3,1.3,2.4,8.1l1.9-0.4l1.3-9.5C183.1,32.7,183.1,33.2,177.5,34.5z"/>
				<path class="st8" d="M179,34.2c0,0,2.7,6.9,0.3,8.5c0,0-0.6-8.1-2.2-8L179,34.2z"/>
				<path class="st3" d="M180.7,33.7c0,0,1.2,5.7-0.4,8.5c-0.3,0.5-0.6,0.1-1,0.4c0,0,2-1.7-0.3-8.5L180.7,33.7z"/>
			</g>
			<g>
				<path class="st4" d="M122.2,34.5c0,0-2.3,1.3-2.4,8.1l-1.9-0.4l-1.3-9.5C116.6,32.7,116.6,33.2,122.2,34.5z"/>
				<path class="st8" d="M120.7,34.2c0,0-2.7,6.9-0.3,8.5c0,0,0.6-8.1,2.2-8L120.7,34.2z"/>
				<path class="st3" d="M119,33.7c0,0-1.2,5.7,0.4,8.5c0.3,0.5,0.6,0.1,1,0.4c0,0-2-1.7,0.3-8.5L119,33.7z"/>
			</g>
			<g>
				<g>
					<path class="st9" d="M88,41.2c0,0,11.5,61.2-20.3,94.9l7.8,23.9l47.3-49.1l-15.4-73.6L88,41.2z"/>
					<g>
						<path class="st3" d="M96.5,69.7c0,0,1.2,23.5-6.5,37.8c-3.1,5.8-8.4,10.5-13,16.8c-4.6,6.3-9.3,11.7-9.3,11.7l11,10.1
							l24.1-10.6l3.4-74.5L96.5,69.7z"/>
						<path class="st4" d="M96.1,67.2c0,0,2.5,32.5-7.5,45.3C76.4,128.1,67.7,136,67.7,136l13.1,10.1l24.1-10.6l3.4-74.5L96.1,67.2z
							"/>
					</g>
					<path class="st7" d="M110.8,31L88,41.2c0,0,11.7,55.6,2.7,72.6s-23,22.3-23,22.3s4.6,24.7,4.6,55.1s-4.6,68.6-4.6,68.6h105
						l8.1-70.7c0,0-43.3-32.2-54.3-79C120.8,85.5,110.8,31,110.8,31z"/>
					<g>
						<line class="st10" x1="109.3" y1="166" x2="109.3" y2="259.7"/>
						<polygon class="st8" points="84.1,232.1 84.1,230.4 123.1,230.9 123.1,232.6 						"/>
						<polygon class="st3" points="84.1,232.8 84.1,231.1 123.1,231.6 123.1,233.3 						"/>
						<path class="st7" d="M84.7,231.8v9.3c0,0.3,0.3,0.6,0.6,0.6l37.2,0.7c0.3,0,0.6-0.3,0.6-0.6v-9.5L84.7,231.8z"/>
						<line class="st10" x1="123.1" y1="232.7" x2="84.7" y2="232.2"/>
						<g>
							<polygon class="st8" points="89.4,138.4 89.4,136.7 123.1,138.8 123.1,140.5 							"/>
							<polygon class="st3" points="89.4,139.1 89.4,137.3 123.1,139.5 123.1,141.2 							"/>
							<path class="st7" d="M89.6,138.1v7.7c0,0.3,0.3,0.6,0.6,0.6l31.9,1.8c0.3,0,0.6-0.3,0.6-0.6v-7.3L89.6,138.1z"/>
							<line class="st10" x1="122.7" y1="140.7" x2="89.6" y2="138.5"/>
						</g>
					</g>
					<g>
						<path class="st8" d="M110.8,31l-10.6,32.6l8.2,3.8l-9.4-1.9c0,0,2,27.1,15.4,54.1s30.1,52.7,66.3,71.3l0.2-1.9
							c0,0-45.6-47.4-51.2-68.6c-5.6-21.2-15.3-84.6-15.3-84.6L110.8,31z"/>
						<path class="st3" d="M111.4,31l-9.8,31.2l12.3,7.2l-14.6-3.7c0,0,3.4,29.3,16.8,56.2s31.2,53.3,65.3,67.2l0,0
							c0,0-45.6-47.4-51.2-68.6c-5.6-21.2-15.3-84.6-15.3-84.6L111.4,31z"/>
					</g>
					<path class="st11" d="M180.8,189.1c0,0-49.6-43.1-61.5-155.4l-8.5-2.7l-8.2,30.1l12.4,7.5l-14.6-2.4c0,0,7.9,76.8,69.1,117.5
						C176.5,188.3,180.8,189.1,180.8,189.1z"/>
					<line class="st10" x1="121.8" y1="53" x2="115" y2="68.6"/>
				</g>
				<g>
					<polygon class="st8" points="151.7,147.8 142.8,160.4 146.7,164.5 153.7,149.8 					"/>
					<polygon class="st3" points="152,149.2 144,161.7 146.7,164.8 154.7,150.6 					"/>
				</g>
				<g>
					<path class="st8" d="M127.1,192l5.5,67.7h10.1l10.8-88.6l-9.4-9.3c0,0-5.4,9-8.8,14.1c-1.9,2.9-4.5,6.6-6.3,9.1
						C127.5,187,126.9,189.5,127.1,192z"/>
					<path class="st3" d="M128.3,192.4l4.7,67.3l30.7-1.6l-6.1-67.8l-13.2-28.1c0,0-3.8,6.8-7.9,13.1c-2.1,3.2-4.3,6.4-5.9,8.7
						C128.9,186.5,128.1,189.4,128.3,192.4z"/>
				</g>
				<g>
					<path class="st9" d="M212,41.2c0,0-11.5,61.2,20.3,94.9l-7.8,23.9l-47.3-49.1l15.4-73.6L212,41.2z"/>
					<g>
						<path class="st3" d="M203.5,69.7c0,0-1.2,23.5,6.5,37.8c3.1,5.8,8.4,10.5,13,16.8c4.6,6.3,9.3,11.7,9.3,11.7l-11,10.1
							l-24.1-10.6l-3.4-74.5L203.5,69.7z"/>
						<path class="st4" d="M203.9,67.2c0,0-2.5,32.5,7.5,45.3c12.2,15.5,20.9,23.5,20.9,23.5l-13.1,10.1l-24.1-10.6l-3.4-74.5
							L203.9,67.2z"/>
					</g>
					<path class="st7" d="M189.2,31L212,41.2c0,0-11.7,55.6-2.7,72.6s23,22.3,23,22.3s-4.6,24.7-4.6,55.1s4.6,68.6,4.6,68.6
						l-97.9,1.3l-4.9-69.2c-0.2-2.5,0.7-5,2.4-6.9c8.2-8.5,32.4-36.3,41.5-74.9C179.2,85.5,189.2,31,189.2,31z"/>
					<g>
						<line class="st10" x1="190.7" y1="166" x2="190.7" y2="259.7"/>
						<polygon class="st8" points="215.9,232.1 215.9,230.4 176.9,230.9 176.9,232.6 						"/>
						<polygon class="st3" points="215.9,232.8 215.9,231.1 176.9,231.6 176.9,233.3 						"/>
						<path class="st7" d="M215.3,231.8v9.3c0,0.3-0.3,0.6-0.6,0.6l-37.2,0.7c-0.3,0-0.6-0.3-0.6-0.6v-9.5L215.3,231.8z"/>
						<line class="st10" x1="176.9" y1="232.7" x2="215.3" y2="232.2"/>
						<g>
							<polygon class="st8" points="210.6,138.4 210.6,136.7 176.9,138.8 176.9,140.5 							"/>
							<polygon class="st3" points="210.6,139.1 210.6,137.3 176.9,139.5 176.9,141.2 							"/>
							<path class="st7" d="M210.4,138.1v7.7c0,0.3-0.3,0.6-0.6,0.6l-31.9,1.8c-0.3,0-0.6-0.3-0.6-0.6v-7.3L210.4,138.1z"/>
							<line class="st10" x1="177.3" y1="140.7" x2="210.4" y2="138.5"/>
						</g>
						<g id="XMLID_6404_">
							<g id="XMLID_6419_">
								<circle class="st8" cx="133.7" cy="193.3" r="1.8"/>
							</g>
							<g id="XMLID_6418_">
								<circle class="st12" cx="133.8" cy="193.2" r="1.7"/>
							</g>
							<g id="XMLID_6417_">
								<polygon class="st13" points="137.6,193.2 134.7,192.7 131.5,193.2 134.7,193.6 								"/>
								<path class="st14" d="M134.7,193.6L134.7,193.6l-3.7-0.5l3.7-0.5l0,0l3.3,0.5L134.7,193.6z M132,193.2l2.8,0.4l2.4-0.4
									l-2.4-0.4L132,193.2z"/>
							</g>
							<g id="XMLID_6416_">
								<circle class="st15" cx="133.7" cy="193" r="1.7"/>
								<path class="st16" d="M133.7,194.8c-1,0-1.8-0.8-1.8-1.8c0-1,0.8-1.8,1.8-1.8c1,0,1.8,0.8,1.8,1.8
									C135.6,194,134.7,194.8,133.7,194.8z M133.7,191.4c-0.9,0-1.6,0.7-1.6,1.6c0,0.9,0.7,1.6,1.6,1.6s1.6-0.7,1.6-1.6
									C135.3,192.1,134.6,191.4,133.7,191.4z"/>
							</g>
							<g id="XMLID_6415_">
								<circle class="st15" cx="133.7" cy="193" r="1.5"/>
								<path class="st4" d="M133.7,194.5c-0.8,0-1.5-0.7-1.5-1.5c0-0.8,0.7-1.5,1.5-1.5s1.5,0.7,1.5,1.5
									C135.2,193.8,134.6,194.5,133.7,194.5z M133.7,191.5c-0.8,0-1.4,0.6-1.4,1.4c0,0.8,0.6,1.4,1.4,1.4s1.4-0.6,1.4-1.4
									C135.2,192.2,134.5,191.5,133.7,191.5z"/>
							</g>
							<g id="XMLID_6414_">
								<circle class="st13" cx="133.5" cy="192.6" r="0.2"/>
							</g>
							<g id="XMLID_6413_">
								<circle class="st13" cx="134" cy="193.7" r="0.2"/>
							</g>
							<g id="XMLID_6412_">
								
									<rect x="133" y="193.1" transform="matrix(0.4371 0.8994 -0.8994 0.4371 248.9171 -11.474)" class="st16" width="1.2" height="0.1"/>
							</g>
							<g id="XMLID_6411_">
								
									<rect x="133.2" y="193" transform="matrix(0.4371 0.8994 -0.8994 0.4371 248.9439 -11.6306)" class="st16" width="1.2" height="0.1"/>
							</g>
							<g id="XMLID_6410_">
								
									<rect x="133" y="193.1" transform="matrix(0.4371 0.8994 -0.8994 0.4371 248.9171 -11.474)" class="st16" width="1.2" height="0.1"/>
							</g>
							<g id="XMLID_6409_">
								
									<rect x="133.2" y="193" transform="matrix(0.4371 0.8994 -0.8994 0.4371 248.9439 -11.6306)" class="st16" width="1.2" height="0.1"/>
							</g>
							<g id="XMLID_6408_">
								<circle class="st13" cx="133.2" cy="193.4" r="0.2"/>
							</g>
							<g id="XMLID_6407_">
								<circle class="st13" cx="134.2" cy="192.9" r="0.2"/>
							</g>
							<g id="XMLID_6406_">
								
									<rect x="133.6" y="192.6" transform="matrix(0.4374 0.8993 -0.8993 0.4374 248.9637 -11.5423)" class="st16" width="0.1" height="1.2"/>
							</g>
							<g id="XMLID_6405_">
								
									<rect x="133.6" y="192.5" transform="matrix(0.4374 0.8993 -0.8993 0.4374 248.8072 -11.569)" class="st16" width="0.1" height="1.2"/>
							</g>
						</g>
						<g id="XMLID_6388_">
							<g id="XMLID_6403_">
								<circle class="st8" cx="135.8" cy="211.8" r="1.8"/>
							</g>
							<g id="XMLID_6402_">
								<circle class="st12" cx="135.8" cy="211.8" r="1.7"/>
							</g>
							<g id="XMLID_6401_">
								<polygon class="st13" points="139.6,211.7 136.7,211.3 133.5,211.7 136.8,212.1 								"/>
								<path class="st14" d="M136.8,212.2L136.8,212.2l-3.7-0.5l3.7-0.5l0,0l3.3,0.5L136.8,212.2z M134,211.7l2.8,0.4l2.4-0.4
									l-2.4-0.4L134,211.7z"/>
							</g>
							<g id="XMLID_6400_">
								<circle class="st15" cx="135.8" cy="211.5" r="1.7"/>
								<path class="st16" d="M135.8,213.4c-1,0-1.8-0.8-1.8-1.8s0.8-1.8,1.8-1.8c1,0,1.8,0.8,1.8,1.8S136.8,213.4,135.8,213.4z
									 M135.8,210c-0.9,0-1.6,0.7-1.6,1.6s0.7,1.6,1.6,1.6s1.6-0.7,1.6-1.6S136.6,210,135.8,210z"/>
							</g>
							<g id="XMLID_6399_">
								<circle class="st15" cx="135.8" cy="211.5" r="1.5"/>
								<path class="st4" d="M135.8,213c-0.8,0-1.5-0.7-1.5-1.5c0-0.8,0.7-1.5,1.5-1.5s1.5,0.7,1.5,1.5
									C137.3,212.4,136.6,213,135.8,213z M135.8,210.1c-0.8,0-1.4,0.6-1.4,1.4c0,0.8,0.6,1.4,1.4,1.4s1.4-0.6,1.4-1.4
									C137.2,210.7,136.6,210.1,135.8,210.1z"/>
							</g>
							<g id="XMLID_6398_">
								<circle class="st13" cx="135.5" cy="211.1" r="0.2"/>
							</g>
							<g id="XMLID_6397_">
								<circle class="st13" cx="136" cy="212.2" r="0.2"/>
							</g>
							<g id="XMLID_6396_">
								
									<rect x="135.1" y="211.6" transform="matrix(0.4371 0.8994 -0.8994 0.4371 266.7485 -2.8638)" class="st16" width="1.2" height="0.1"/>
							</g>
							<g id="XMLID_6395_">
								
									<rect x="135.2" y="211.6" transform="matrix(0.4371 0.8994 -0.8994 0.4371 266.7753 -3.0204)" class="st16" width="1.2" height="0.1"/>
							</g>
							<g id="XMLID_6394_">
								
									<rect x="135.1" y="211.6" transform="matrix(0.4371 0.8994 -0.8994 0.4371 266.7485 -2.8638)" class="st16" width="1.2" height="0.1"/>
							</g>
							<g id="XMLID_6393_">
								
									<rect x="135.2" y="211.6" transform="matrix(0.4371 0.8994 -0.8994 0.4371 266.7753 -3.0204)" class="st16" width="1.2" height="0.1"/>
							</g>
							<g id="XMLID_6392_">
								<circle class="st13" cx="135.2" cy="211.9" r="0.2"/>
							</g>
							<g id="XMLID_6391_">
								<circle class="st13" cx="136.3" cy="211.4" r="0.2"/>
							</g>
							<g id="XMLID_6390_">
								
									<rect x="135.7" y="211.2" transform="matrix(0.4374 0.8993 -0.8993 0.4374 266.7914 -2.938)" class="st16" width="0.1" height="1.2"/>
							</g>
							<g id="XMLID_6389_">
								
									<rect x="135.6" y="211" transform="matrix(0.4374 0.8993 -0.8993 0.4374 266.6349 -2.9647)" class="st16" width="0.1" height="1.2"/>
							</g>
						</g>
						<g id="XMLID_6372_">
							<g id="XMLID_6387_">
								<circle class="st8" cx="137.8" cy="230.4" r="1.8"/>
							</g>
							<g id="XMLID_6386_">
								<circle class="st12" cx="137.8" cy="230.3" r="1.7"/>
							</g>
							<g id="XMLID_6385_">
								<polygon class="st13" points="141.6,230.3 138.8,229.8 135.6,230.3 138.8,230.7 								"/>
								<path class="st14" d="M138.8,230.7L138.8,230.7l-3.7-0.5l3.7-0.5l0,0l3.3,0.5L138.8,230.7z M136,230.3l2.8,0.4l2.4-0.4
									l-2.4-0.4L136,230.3z"/>
							</g>
							<g id="XMLID_6384_">
								<circle class="st15" cx="137.8" cy="230.1" r="1.7"/>
								<path class="st16" d="M137.8,231.9c-1,0-1.8-0.8-1.8-1.8c0-1,0.8-1.8,1.8-1.8c1,0,1.8,0.8,1.8,1.8
									C139.6,231.1,138.8,231.9,137.8,231.9z M137.8,228.5c-0.9,0-1.6,0.7-1.6,1.6c0,0.9,0.7,1.6,1.6,1.6c0.9,0,1.6-0.7,1.6-1.6
									C139.4,229.2,138.7,228.5,137.8,228.5z"/>
							</g>
							<g id="XMLID_6383_">
								<circle class="st15" cx="137.8" cy="230.1" r="1.5"/>
								<path class="st4" d="M137.8,231.6c-0.8,0-1.5-0.7-1.5-1.5c0-0.8,0.7-1.5,1.5-1.5s1.5,0.7,1.5,1.5
									C139.3,230.9,138.6,231.6,137.8,231.6z M137.8,228.7c-0.8,0-1.4,0.6-1.4,1.4c0,0.8,0.6,1.4,1.4,1.4c0.8,0,1.4-0.6,1.4-1.4
									C139.2,229.3,138.6,228.7,137.8,228.7z"/>
							</g>
							<g id="XMLID_6382_">
								<circle class="st13" cx="137.5" cy="229.7" r="0.2"/>
							</g>
							<g id="XMLID_6381_">
								<circle class="st13" cx="138" cy="230.8" r="0.2"/>
							</g>
							<g id="XMLID_6380_">
								
									<rect x="137.1" y="230.2" transform="matrix(0.4371 0.8994 -0.8994 0.4371 284.5799 5.7464)" class="st16" width="1.2" height="0.1"/>
							</g>
							<g id="XMLID_6379_">
								
									<rect x="137.3" y="230.1" transform="matrix(0.4371 0.8994 -0.8994 0.4371 284.6066 5.5898)" class="st16" width="1.2" height="0.1"/>
							</g>
							<g id="XMLID_6378_">
								
									<rect x="137.1" y="230.2" transform="matrix(0.4371 0.8994 -0.8994 0.4371 284.5799 5.7464)" class="st16" width="1.2" height="0.1"/>
							</g>
							<g id="XMLID_6377_">
								
									<rect x="137.3" y="230.1" transform="matrix(0.4371 0.8994 -0.8994 0.4371 284.6066 5.5898)" class="st16" width="1.2" height="0.1"/>
							</g>
							<g id="XMLID_6376_">
								<circle class="st13" cx="137.3" cy="230.5" r="0.2"/>
							</g>
							<g id="XMLID_6375_">
								<circle class="st13" cx="138.3" cy="230" r="0.2"/>
							</g>
							<g id="XMLID_6374_">
								
									<rect x="137.7" y="229.7" transform="matrix(0.4374 0.8993 -0.8993 0.4374 284.6191 5.6664)" class="st16" width="0.1" height="1.2"/>
							</g>
							<g id="XMLID_6373_">
								
									<rect x="137.7" y="229.6" transform="matrix(0.4374 0.8993 -0.8993 0.4374 284.4626 5.6396)" class="st16" width="0.1" height="1.2"/>
							</g>
						</g>
						<g id="XMLID_6356_">
							<g id="XMLID_6371_">
								<circle class="st8" cx="139.8" cy="248.9" r="1.8"/>
							</g>
							<g id="XMLID_6370_">
								<circle class="st12" cx="139.9" cy="248.9" r="1.7"/>
							</g>
							<g id="XMLID_6369_">
								<polygon class="st13" points="143.7,248.8 140.8,248.4 137.6,248.8 140.8,249.2 								"/>
								<path class="st14" d="M140.8,249.3L140.8,249.3l-3.7-0.5l3.7-0.5l0,0l3.3,0.5L140.8,249.3z M138.1,248.8l2.8,0.4l2.4-0.4
									l-2.4-0.4L138.1,248.8z"/>
							</g>
							<g id="XMLID_6368_">
								<circle class="st15" cx="139.8" cy="248.6" r="1.7"/>
								<path class="st16" d="M139.8,250.5c-1,0-1.8-0.8-1.8-1.8s0.8-1.8,1.8-1.8c1,0,1.8,0.8,1.8,1.8S140.8,250.5,139.8,250.5z
									 M139.8,247.1c-0.9,0-1.6,0.7-1.6,1.6s0.7,1.6,1.6,1.6c0.9,0,1.6-0.7,1.6-1.6S140.7,247.1,139.8,247.1z"/>
							</g>
							<g id="XMLID_6367_">
								<circle class="st15" cx="139.8" cy="248.6" r="1.5"/>
								<path class="st4" d="M139.8,250.1c-0.8,0-1.5-0.7-1.5-1.5c0-0.8,0.7-1.5,1.5-1.5s1.5,0.7,1.5,1.5
									C141.3,249.5,140.7,250.1,139.8,250.1z M139.8,247.2c-0.8,0-1.4,0.6-1.4,1.4c0,0.8,0.6,1.4,1.4,1.4s1.4-0.6,1.4-1.4
									C141.3,247.8,140.6,247.2,139.8,247.2z"/>
							</g>
							<g id="XMLID_6366_">
								<circle class="st13" cx="139.6" cy="248.2" r="0.2"/>
							</g>
							<g id="XMLID_6365_">
								<circle class="st13" cx="140.1" cy="249.3" r="0.2"/>
							</g>
							<g id="XMLID_6364_">
								
									<rect x="139.2" y="248.7" transform="matrix(0.4371 0.8994 -0.8994 0.4371 302.4112 14.3566)" class="st16" width="1.2" height="0.1"/>
							</g>
							<g id="XMLID_6363_">
								
									<rect x="139.3" y="248.7" transform="matrix(0.4371 0.8994 -0.8994 0.4371 302.438 14.2001)" class="st16" width="1.2" height="0.1"/>
							</g>
							<g id="XMLID_6362_">
								
									<rect x="139.2" y="248.7" transform="matrix(0.4371 0.8994 -0.8994 0.4371 302.4112 14.3566)" class="st16" width="1.2" height="0.1"/>
							</g>
							<g id="XMLID_6361_">
								
									<rect x="139.3" y="248.7" transform="matrix(0.4371 0.8994 -0.8994 0.4371 302.438 14.2001)" class="st16" width="1.2" height="0.1"/>
							</g>
							<g id="XMLID_6360_">
								<circle class="st13" cx="139.3" cy="249" r="0.2"/>
							</g>
							<g id="XMLID_6359_">
								<circle class="st13" cx="140.3" cy="248.5" r="0.2"/>
							</g>
							<g id="XMLID_6358_">
								
									<rect x="139.8" y="248.3" transform="matrix(0.4374 0.8993 -0.8993 0.4374 302.4468 14.2707)" class="st16" width="0.1" height="1.2"/>
							</g>
							<g id="XMLID_6357_">
								
									<rect x="139.7" y="248.1" transform="matrix(0.4374 0.8993 -0.8993 0.4374 302.2902 14.244)" class="st16" width="0.1" height="1.2"/>
							</g>
						</g>
						<g id="XMLID_6341_">
							<g id="XMLID_6355_">
								<circle class="st8" cx="164.7" cy="193.3" r="1.8"/>
							</g>
							<g id="XMLID_6354_">
								<circle class="st12" cx="164.7" cy="193.2" r="1.7"/>
							</g>
							<g id="XMLID_6353_">
								<circle class="st15" cx="164.7" cy="193" r="1.7"/>
								<path class="st16" d="M164.7,194.8c-1,0-1.8-0.8-1.8-1.8c0-1,0.8-1.8,1.8-1.8c1,0,1.8,0.8,1.8,1.8
									C166.5,194,165.7,194.8,164.7,194.8z M164.7,191.4c-0.9,0-1.6,0.7-1.6,1.6c0,0.9,0.7,1.6,1.6,1.6c0.9,0,1.6-0.7,1.6-1.6
									C166.2,192.1,165.5,191.4,164.7,191.4z"/>
							</g>
							<g id="XMLID_6352_">
								<circle class="st15" cx="164.7" cy="193" r="1.5"/>
								<path class="st4" d="M164.7,194.5c-0.8,0-1.5-0.7-1.5-1.5c0-0.8,0.7-1.5,1.5-1.5s1.5,0.7,1.5,1.5
									C166.2,193.8,165.5,194.5,164.7,194.5z M164.7,191.5c-0.8,0-1.4,0.6-1.4,1.4c0,0.8,0.6,1.4,1.4,1.4s1.4-0.6,1.4-1.4
									C166.1,192.2,165.5,191.5,164.7,191.5z"/>
							</g>
							<g id="XMLID_6351_">
								<circle class="st13" cx="164.4" cy="192.6" r="0.2"/>
							</g>
							<g id="XMLID_6350_">
								<circle class="st13" cx="164.9" cy="193.7" r="0.2"/>
							</g>
							<g id="XMLID_6349_">
								
									<rect x="164" y="193.1" transform="matrix(0.4371 0.8994 -0.8994 0.4371 266.3297 -39.2958)" class="st16" width="1.2" height="0.1"/>
							</g>
							<g id="XMLID_6348_">
								
									<rect x="164.1" y="193" transform="matrix(0.4371 0.8994 -0.8994 0.4371 266.3565 -39.4524)" class="st16" width="1.2" height="0.1"/>
							</g>
							<g id="XMLID_6347_">
								
									<rect x="164" y="193.1" transform="matrix(0.4371 0.8994 -0.8994 0.4371 266.3297 -39.2958)" class="st16" width="1.2" height="0.1"/>
							</g>
							<g id="XMLID_6346_">
								
									<rect x="164.1" y="193" transform="matrix(0.4371 0.8994 -0.8994 0.4371 266.3565 -39.4524)" class="st16" width="1.2" height="0.1"/>
							</g>
							<g id="XMLID_6345_">
								<circle class="st13" cx="164.1" cy="193.4" r="0.2"/>
							</g>
							<g id="XMLID_6344_">
								<circle class="st13" cx="165.2" cy="192.9" r="0.2"/>
							</g>
							<g id="XMLID_6343_">
								
									<rect x="164.6" y="192.6" transform="matrix(0.4374 0.8993 -0.8993 0.4374 266.366 -39.3591)" class="st16" width="0.1" height="1.2"/>
							</g>
							<g id="XMLID_6342_">
								
									<rect x="164.5" y="192.5" transform="matrix(0.4374 0.8993 -0.8993 0.4374 266.2095 -39.3858)" class="st16" width="0.1" height="1.2"/>
							</g>
						</g>
						<g id="XMLID_6326_">
							<g id="XMLID_6340_">
								<circle class="st8" cx="162.4" cy="211.8" r="1.8"/>
							</g>
							<g id="XMLID_6339_">
								<circle class="st12" cx="162.4" cy="211.8" r="1.7"/>
							</g>
							<g id="XMLID_6338_">
								<circle class="st15" cx="162.4" cy="211.5" r="1.7"/>
								<path class="st16" d="M162.4,213.4c-1,0-1.8-0.8-1.8-1.8s0.8-1.8,1.8-1.8c1,0,1.8,0.8,1.8,1.8S163.4,213.4,162.4,213.4z
									 M162.4,210c-0.9,0-1.6,0.7-1.6,1.6s0.7,1.6,1.6,1.6s1.6-0.7,1.6-1.6S163.3,210,162.4,210z"/>
							</g>
							<g id="XMLID_6337_">
								<circle class="st15" cx="162.4" cy="211.5" r="1.5"/>
								<path class="st4" d="M162.4,213c-0.8,0-1.5-0.7-1.5-1.5c0-0.8,0.7-1.5,1.5-1.5s1.5,0.7,1.5,1.5
									C163.9,212.4,163.2,213,162.4,213z M162.4,210.1c-0.8,0-1.4,0.6-1.4,1.4c0,0.8,0.6,1.4,1.4,1.4s1.4-0.6,1.4-1.4
									C163.8,210.7,163.2,210.1,162.4,210.1z"/>
							</g>
							<g id="XMLID_6336_">
								<circle class="st13" cx="162.1" cy="211.1" r="0.2"/>
							</g>
							<g id="XMLID_6335_">
								<circle class="st13" cx="162.6" cy="212.2" r="0.2"/>
							</g>
							<g id="XMLID_6334_">
								
									<rect x="161.7" y="211.6" transform="matrix(0.4371 0.8994 -0.8994 0.4371 281.7342 -26.8079)" class="st16" width="1.2" height="0.1"/>
							</g>
							<g id="XMLID_6333_">
								
									<rect x="161.8" y="211.6" transform="matrix(0.4371 0.8994 -0.8994 0.4371 281.7609 -26.9645)" class="st16" width="1.2" height="0.1"/>
							</g>
							<g id="XMLID_6332_">
								
									<rect x="161.7" y="211.6" transform="matrix(0.4371 0.8994 -0.8994 0.4371 281.7342 -26.8079)" class="st16" width="1.2" height="0.1"/>
							</g>
							<g id="XMLID_6331_">
								
									<rect x="161.8" y="211.6" transform="matrix(0.4371 0.8994 -0.8994 0.4371 281.7609 -26.9645)" class="st16" width="1.2" height="0.1"/>
							</g>
							<g id="XMLID_6330_">
								<circle class="st13" cx="161.8" cy="211.9" r="0.2"/>
							</g>
							<g id="XMLID_6329_">
								<circle class="st13" cx="162.9" cy="211.4" r="0.2"/>
							</g>
							<g id="XMLID_6328_">
								
									<rect x="162.3" y="211.2" transform="matrix(0.4374 0.8993 -0.8993 0.4374 281.7682 -26.8778)" class="st16" width="0.1" height="1.2"/>
							</g>
							<g id="XMLID_6327_">
								
									<rect x="162.2" y="211" transform="matrix(0.4374 0.8993 -0.8993 0.4374 281.6117 -26.9045)" class="st16" width="0.1" height="1.2"/>
							</g>
						</g>
						<g id="XMLID_6311_">
							<g id="XMLID_6325_">
								<circle class="st8" cx="160.1" cy="230.4" r="1.8"/>
							</g>
							<g id="XMLID_6324_">
								<circle class="st12" cx="160.1" cy="230.3" r="1.7"/>
							</g>
							<g id="XMLID_6323_">
								<circle class="st15" cx="160.1" cy="230.1" r="1.7"/>
								<path class="st16" d="M160.1,231.9c-1,0-1.8-0.8-1.8-1.8c0-1,0.8-1.8,1.8-1.8c1,0,1.8,0.8,1.8,1.8
									C161.9,231.1,161.1,231.9,160.1,231.9z M160.1,228.5c-0.9,0-1.6,0.7-1.6,1.6c0,0.9,0.7,1.6,1.6,1.6s1.6-0.7,1.6-1.6
									C161.7,229.2,161,228.5,160.1,228.5z"/>
							</g>
							<g id="XMLID_6322_">
								<circle class="st15" cx="160.1" cy="230.1" r="1.5"/>
								<path class="st4" d="M160.1,231.6c-0.8,0-1.5-0.7-1.5-1.5c0-0.8,0.7-1.5,1.5-1.5s1.5,0.7,1.5,1.5
									C161.6,230.9,160.9,231.6,160.1,231.6z M160.1,228.7c-0.8,0-1.4,0.6-1.4,1.4c0,0.8,0.6,1.4,1.4,1.4s1.4-0.6,1.4-1.4
									C161.6,229.3,160.9,228.7,160.1,228.7z"/>
							</g>
							<g id="XMLID_6321_">
								<circle class="st13" cx="159.8" cy="229.7" r="0.2"/>
							</g>
							<g id="XMLID_6320_">
								<circle class="st13" cx="160.4" cy="230.8" r="0.2"/>
							</g>
							<g id="XMLID_6319_">
								
									<rect x="159.4" y="230.2" transform="matrix(0.4371 0.8994 -0.8994 0.4371 297.1386 -14.32)" class="st16" width="1.2" height="0.1"/>
							</g>
							<g id="XMLID_6318_">
								
									<rect x="159.6" y="230.1" transform="matrix(0.4371 0.8994 -0.8994 0.4371 297.1654 -14.4766)" class="st16" width="1.2" height="0.1"/>
							</g>
							<g id="XMLID_6317_">
								
									<rect x="159.4" y="230.2" transform="matrix(0.4371 0.8994 -0.8994 0.4371 297.1386 -14.32)" class="st16" width="1.2" height="0.1"/>
							</g>
							<g id="XMLID_6316_">
								
									<rect x="159.6" y="230.1" transform="matrix(0.4371 0.8994 -0.8994 0.4371 297.1654 -14.4766)" class="st16" width="1.2" height="0.1"/>
							</g>
							<g id="XMLID_6315_">
								<circle class="st13" cx="159.6" cy="230.5" r="0.2"/>
							</g>
							<g id="XMLID_6314_">
								<circle class="st13" cx="160.6" cy="230" r="0.2"/>
							</g>
							<g id="XMLID_6313_">
								
									<rect x="160" y="229.7" transform="matrix(0.4374 0.8993 -0.8993 0.4374 297.1704 -14.3964)" class="st16" width="0.1" height="1.2"/>
							</g>
							<g id="XMLID_6312_">
								
									<rect x="160" y="229.6" transform="matrix(0.4374 0.8993 -0.8993 0.4374 297.0139 -14.4231)" class="st16" width="0.1" height="1.2"/>
							</g>
						</g>
						<g id="XMLID_6296_">
							<g id="XMLID_6310_">
								<circle class="st8" cx="157.8" cy="248.9" r="1.8"/>
							</g>
							<g id="XMLID_6309_">
								<circle class="st12" cx="157.9" cy="248.9" r="1.7"/>
							</g>
							<g id="XMLID_6308_">
								<circle class="st15" cx="157.8" cy="248.6" r="1.7"/>
								<path class="st16" d="M157.8,250.5c-1,0-1.8-0.8-1.8-1.8s0.8-1.8,1.8-1.8c1,0,1.8,0.8,1.8,1.8S158.8,250.5,157.8,250.5z
									 M157.8,247.1c-0.9,0-1.6,0.7-1.6,1.6s0.7,1.6,1.6,1.6c0.9,0,1.6-0.7,1.6-1.6S158.7,247.1,157.8,247.1z"/>
							</g>
							<g id="XMLID_6307_">
								<circle class="st15" cx="157.8" cy="248.6" r="1.5"/>
								<path class="st4" d="M157.8,250.1c-0.8,0-1.5-0.7-1.5-1.5c0-0.8,0.7-1.5,1.5-1.5s1.5,0.7,1.5,1.5
									C159.3,249.5,158.7,250.1,157.8,250.1z M157.8,247.2c-0.8,0-1.4,0.6-1.4,1.4c0,0.8,0.6,1.4,1.4,1.4s1.4-0.6,1.4-1.4
									C159.3,247.8,158.6,247.2,157.8,247.2z"/>
							</g>
							<g id="XMLID_6306_">
								<circle class="st13" cx="157.6" cy="248.2" r="0.2"/>
							</g>
							<g id="XMLID_6305_">
								<circle class="st13" cx="158.1" cy="249.3" r="0.2"/>
							</g>
							<g id="XMLID_6304_">
								
									<rect x="157.2" y="248.7" transform="matrix(0.4371 0.8994 -0.8994 0.4371 312.5431 -1.8321)" class="st16" width="1.2" height="0.1"/>
							</g>
							<g id="XMLID_6303_">
								
									<rect x="157.3" y="248.7" transform="matrix(0.4371 0.8994 -0.8994 0.4371 312.5699 -1.9887)" class="st16" width="1.2" height="0.1"/>
							</g>
							<g id="XMLID_6302_">
								
									<rect x="157.2" y="248.7" transform="matrix(0.4371 0.8994 -0.8994 0.4371 312.5431 -1.8321)" class="st16" width="1.2" height="0.1"/>
							</g>
							<g id="XMLID_6301_">
								
									<rect x="157.3" y="248.7" transform="matrix(0.4371 0.8994 -0.8994 0.4371 312.5699 -1.9887)" class="st16" width="1.2" height="0.1"/>
							</g>
							<g id="XMLID_6300_">
								<circle class="st13" cx="157.3" cy="249" r="0.2"/>
							</g>
							<g id="XMLID_6299_">
								<circle class="st13" cx="158.3" cy="248.5" r="0.2"/>
							</g>
							<g id="XMLID_6298_">
								
									<rect x="157.8" y="248.3" transform="matrix(0.4374 0.8993 -0.8993 0.4374 312.5727 -1.9151)" class="st16" width="0.1" height="1.2"/>
							</g>
							<g id="XMLID_6297_">
								
									<rect x="157.7" y="248.1" transform="matrix(0.4374 0.8993 -0.8993 0.4374 312.4161 -1.9418)" class="st16" width="0.1" height="1.2"/>
							</g>
						</g>
					</g>
					<g>
						<path class="st8" d="M189.2,31l10.6,32.6l-8.1,3.8l9.4-1.9c0,0-2,27.1-15.4,54.1c-13.4,27-22.6,49.7-56.1,68.5l-0.1-0.9
							c0,0,35.2-45.6,40.8-66.8c5.6-21.2,15.3-84.6,15.3-84.6L189.2,31z"/>
						<path class="st3" d="M188.6,31l9.8,31.2L186,69.3l14.6-3.7c0,0-3.4,29.3-16.8,56.2c-13.4,27-24.5,46.8-53.3,64.8l0.9-0.9
							c0,0,32.7-44.2,38.3-65.3c5.6-21.2,15.3-84.6,15.3-84.6L188.6,31z"/>
					</g>
					<path class="st11" d="M180.7,33.7l8.5-2.7l8.2,30.1L185,68.6l14.6-2.4c0,0-7.3,79.2-68.5,119.9
						C131,186.1,168.8,145.9,180.7,33.7z"/>
					<line class="st10" x1="178.2" y1="53" x2="185" y2="68.6"/>
				</g>
			</g>
		</g>
	</g>
	<g id="XMLID_1_" class="st0">
		<defs>
			<rect id="XMLID_4932_" x="-13.5" width="327.1" height="300"/>
		</defs>
		<clipPath id="XMLID_4_">
			<use xlink:href="#XMLID_4932_"  style="overflow:visible;"/>
		</clipPath>
	</g>
	<g class="st0">
		<path class="st17" d="M150.1,4.6c38.7,0,75.1,15.1,102.5,42.5c27.4,27.4,42.5,63.8,42.5,102.5s-15.1,75.1-42.5,102.5
			c-27.4,27.4-63.8,42.5-102.5,42.5S75,279.5,47.6,252.1C20.2,224.7,5.1,188.3,5.1,149.6S20.2,74.5,47.6,47.1
			C75,19.7,111.4,4.6,150.1,4.6 M150.1-0.4c-82.8,0-150,67.2-150,150s67.2,150,150,150s150-67.2,150-150S232.9-0.4,150.1-0.4
			L150.1-0.4z"/>
	</g>
</g>
</svg>
