<?xml version="1.0" encoding="utf-8"?>
<!-- Generator: Adobe Illustrator 19.0.0, SVG Export Plug-In . SVG Version: 6.00 Build 0)  -->
<svg version="1.1" id="Layer_1" xmlns="http://www.w3.org/2000/svg" xmlns:xlink="http://www.w3.org/1999/xlink" x="0px" y="0px"
	 viewBox="0 0 300 300" style="enable-background:new 0 0 300 300;" xml:space="preserve">
<style type="text/css">
	.st0{clip-path:url(#SVGID_2_);}
	.st1{clip-path:url(#XMLID_3_);}
	.st2{fill:#F1F1F2;stroke:#404041;stroke-linejoin:round;stroke-miterlimit:10;}
	.st3{fill:#FFFFFF;stroke:#404041;stroke-miterlimit:10;}
	.st4{fill:none;stroke:#808184;stroke-width:0.5;stroke-miterlimit:10;}
	.st5{fill:none;stroke:#808184;stroke-width:0.5;stroke-miterlimit:10;stroke-dasharray:0.9929,1.9859;}
	.st6{fill:#929497;}
	.st7{fill:#C5C7C9;}
	.st8{fill:#F1F1F2;}
	.st9{fill:#F1F1F2;stroke:#404041;stroke-miterlimit:10;}
	.st10{fill:#DBDCDD;}
	.st11{fill:#404041;}
	.st12{fill:#D0D2D3;}
	.st13{fill:#FFFFFF;}
	.st14{fill:#6D6E70;}
	.st15{fill:none;stroke:#808184;stroke-width:0.5;stroke-miterlimit:10;stroke-dasharray:0.9562,1.9124;}
	.st16{fill:#FFFFFF;stroke:#808184;stroke-width:0.5;stroke-miterlimit:10;stroke-dasharray:1,2;}
	.st17{fill:none;stroke:#808184;stroke-width:0.5;stroke-miterlimit:10;stroke-dasharray:1,2;}
	.st18{fill:#9AA0BB;}
</style>
<g>
	<defs>
		<circle id="SVGID_1_" cx="150.1" cy="149.6" r="150"/>
	</defs>
	<use xlink:href="#SVGID_1_"  style="overflow:visible;fill:#DDDDDD;"/>
	<clipPath id="SVGID_2_">
		<use xlink:href="#SVGID_1_"  style="overflow:visible;"/>
	</clipPath>
	<g id="XMLID_4081_" class="st0">
		<defs>
			<rect id="XMLID_4118_" y="-0.4" width="300" height="300"/>
		</defs>
		<clipPath id="XMLID_3_">
			<use xlink:href="#XMLID_4118_"  style="overflow:visible;"/>
		</clipPath>
		<g class="st1">
			<path class="st2" d="M110.5,25c0,0,15.6,6.3,39.5,6.3s39.5-6.3,39.5-6.3l-9.6,147.8l-29.3,75.7l-31-76.3L110.5,25z"/>
			<path class="st3" d="M104.7,28c0,0,2.9,11.8,44.7,11.8S195.3,28,195.3,28l-5.9-3c0,0-16,6.3-39.5,6.3s-39.4-6.2-39.4-6.2
				L104.7,28z"/>
			<g>
				<g>
					<g>
						<line class="st4" x1="150" y1="41.1" x2="150" y2="41.6"/>
						<line class="st5" x1="150" y1="43.6" x2="150" y2="221.3"/>
						<line class="st4" x1="150" y1="222.3" x2="150" y2="222.8"/>
					</g>
				</g>
				<path class="st6" d="M140.1,43.2l0.7,0.7c0,0,4.9-0.4,9.2-0.4c4.2,0,9.5,0.4,9.5,0.4l0.5-0.7H140.1z"/>
				<path class="st7" d="M140.6,43.7l0.5,0.5c0,0,4.7-0.4,8.8-0.4c4.1,0,9.3,0.4,9.3,0.4l0.3-0.5l-9.6-0.2L140.6,43.7z"/>
				<path class="st3" d="M150,39.8c-4.4,0-8-0.1-10.9-0.3l1.2,3.6h9.6h0.1h9.6l1.2-3.7C158,39.6,154.4,39.8,150,39.8z"/>
			</g>
			<g>
				<path class="st6" d="M116.1,26.8c0,0-2.3,1.3-2.4,8.1l-1.2-0.5l-2-9.5C110.5,25,110.5,25.4,116.1,26.8z"/>
				<path class="st8" d="M114.7,26.5c0,0-2.7,6.9-0.3,8.5c0,0,0.7-8.2,2.2-8L114.7,26.5z"/>
				<path class="st7" d="M113,26c0,0-1.6,6.8,1.4,9c0,0-2-1.8,0.3-8.5L113,26z"/>
			</g>
			<g>
				<path class="st6" d="M183.9,26.8c0,0,2.3,1.3,2.4,8.1l1.2-0.5l2-9.5C189.5,25,189.5,25.4,183.9,26.8z"/>
				<path class="st8" d="M185.3,26.5c0,0,2.7,6.9,0.3,8.5c0,0-0.7-8.2-2.2-8L185.3,26.5z"/>
				<path class="st7" d="M187,26c0,0,1.6,6.8-1.4,9c0,0,2-1.8-0.3-8.5L187,26z"/>
			</g>
			<g>
				<polygon class="st7" points="112.6,40.2 150,193.8 187.3,40.2 190.1,39.3 189.5,42 159.5,197.4 150.5,212.8 145.9,211.4 
					142.1,198.4 128.6,128.5 109.2,32.9 110.5,39.3 				"/>
				<polygon class="st6" points="112.6,45.1 150,205.6 187.3,45.1 190.1,44.2 189.5,46.8 159.5,202.2 150.2,225.8 145.9,216.2 
					142.1,203.2 128.6,133.4 109.2,37.8 110.5,44.2 				"/>
			</g>
			<g>
				<g>
					<path class="st9" d="M92.8,33.1c0,0,4.9,140.7-24.1,187.2l53.9,17.5l-0.1-132.4L107,31.3L92.8,33.1z"/>
					<g>
						<path class="st7" d="M94.2,146.1c0,0,2.4,33.5-6.9,47.3c-3.3,4.8-10.8,10.2-12.1,13.8c-3.7,10.4-6.7,13.2-6.7,13.2
							s13.2,2.6,19.2-7.9s14.9-55.5,14.9-55.5L94.2,146.1z"/>
						<path class="st6" d="M94.2,148c0,0,3.5,36-8.6,51.4c-3.2,4.1-10.8,8.9-11.6,11.3c-1.2,3.6-5.2,9.6-5.2,9.6s12-1.4,18-11.9
							s18-49.5,18-49.5L94.2,148z"/>
					</g>
					<path class="st3" d="M131.5,220.6L104.7,28l-11.8,5.1c0,0,1.4,100.9,1.6,136.8c0.2,34-26,50.4-26,50.4l-1.4,35
						c0,0,19.4,0,39.9,5.8c22.2,6.4,34.9,13.8,34.9,13.8l15.1-19.9v-34.8l-24.4,1C132,221.4,131.6,221.1,131.5,220.6z"/>
					<g>
						<g id="XMLID_6184_">
							<g id="XMLID_6199_">
								<circle class="st8" cx="150.5" cy="228.6" r="1.8"/>
							</g>
							<g id="XMLID_6198_">
								<circle class="st10" cx="150.5" cy="228.5" r="1.7"/>
							</g>
							<g id="XMLID_6197_">
								<polygon class="st11" points="146.6,228.4 149.5,228 152.7,228.4 149.5,228.9 								"/>
								<path class="st12" d="M146.2,228.4l3.3-0.5l0,0l3.7,0.5l-3.7,0.5l0,0L146.2,228.4z M149.5,228.1l-2.5,0.4l2.4,0.4l2.8-0.4
									L149.5,228.1z"/>
							</g>
							<g id="XMLID_6196_">
								<circle class="st13" cx="150.5" cy="228.3" r="1.7"/>
								<path class="st14" d="M148.7,228.3c0-1,0.8-1.8,1.8-1.8c1,0,1.8,0.8,1.8,1.8s-0.8,1.8-1.8,1.8
									C149.5,230.1,148.7,229.3,148.7,228.3z M148.9,228.3c0,0.9,0.7,1.6,1.6,1.6c0.9,0,1.6-0.7,1.6-1.6c0-0.9-0.7-1.6-1.6-1.6
									C149.6,226.7,148.9,227.4,148.9,228.3z"/>
							</g>
							<g id="XMLID_6195_">
								<circle class="st13" cx="150.5" cy="228.3" r="1.5"/>
								<path class="st6" d="M149,228.3c0-0.8,0.7-1.5,1.5-1.5s1.5,0.7,1.5,1.5c0,0.8-0.7,1.5-1.5,1.5S149,229.1,149,228.3z
									 M149.1,228.3c0,0.8,0.6,1.4,1.4,1.4s1.4-0.6,1.4-1.4c0-0.8-0.6-1.4-1.4-1.4S149.1,227.5,149.1,228.3z"/>
							</g>
							<g id="XMLID_6194_">
								<circle class="st11" cx="150.8" cy="227.9" r="0.2"/>
							</g>
							<g id="XMLID_6193_">
								<circle class="st11" cx="150.3" cy="229" r="0.2"/>
							</g>
							<g id="XMLID_6192_">
								
									<rect x="150" y="228.4" transform="matrix(-0.4371 0.8994 -0.8994 -0.4371 421.8873 192.7997)" class="st14" width="1.2" height="0.1"/>
							</g>
							<g id="XMLID_6191_">
								
									<rect x="149.9" y="228.3" transform="matrix(-0.4371 0.8994 -0.8994 -0.4371 421.6353 192.8428)" class="st14" width="1.2" height="0.1"/>
							</g>
							<g id="XMLID_6190_">
								
									<rect x="150" y="228.4" transform="matrix(-0.4371 0.8994 -0.8994 -0.4371 421.8873 192.7997)" class="st14" width="1.2" height="0.1"/>
							</g>
							<g id="XMLID_6189_">
								
									<rect x="149.9" y="228.3" transform="matrix(-0.4371 0.8994 -0.8994 -0.4371 421.6353 192.8428)" class="st14" width="1.2" height="0.1"/>
							</g>
							<g id="XMLID_6188_">
								<circle class="st11" cx="151.1" cy="228.7" r="0.2"/>
							</g>
							<g id="XMLID_6187_">
								<circle class="st11" cx="150" cy="228.2" r="0.2"/>
							</g>
							<g id="XMLID_6186_">
								
									<rect x="150.5" y="227.9" transform="matrix(-0.4374 0.8993 -0.8993 -0.4374 421.8595 193.0978)" class="st14" width="0.1" height="1.2"/>
							</g>
							<g id="XMLID_6185_">
								
									<rect x="150.5" y="227.8" transform="matrix(-0.4374 0.8993 -0.8993 -0.4374 421.8164 192.8458)" class="st14" width="0.1" height="1.2"/>
							</g>
						</g>
						<g id="XMLID_6088_">
							<g id="XMLID_6183_">
								<circle class="st8" cx="150.5" cy="238.6" r="1.8"/>
							</g>
							<g id="XMLID_6182_">
								<circle class="st10" cx="150.5" cy="238.5" r="1.7"/>
							</g>
							<g id="XMLID_6101_">
								<polygon class="st11" points="146.6,238.4 149.5,238 152.7,238.4 149.5,238.9 								"/>
								<path class="st12" d="M146.2,238.4l3.3-0.5l0,0l3.7,0.5l-3.7,0.5l0,0L146.2,238.4z M149.5,238.1l-2.5,0.4l2.4,0.4l2.8-0.4
									L149.5,238.1z"/>
							</g>
							<g id="XMLID_6100_">
								<circle class="st13" cx="150.5" cy="238.3" r="1.7"/>
								<path class="st14" d="M148.7,238.3c0-1,0.8-1.8,1.8-1.8c1,0,1.8,0.8,1.8,1.8s-0.8,1.8-1.8,1.8
									C149.5,240.1,148.7,239.3,148.7,238.3z M148.9,238.3c0,0.9,0.7,1.6,1.6,1.6c0.9,0,1.6-0.7,1.6-1.6c0-0.9-0.7-1.6-1.6-1.6
									C149.6,236.7,148.9,237.4,148.9,238.3z"/>
							</g>
							<g id="XMLID_6099_">
								<circle class="st13" cx="150.5" cy="238.3" r="1.5"/>
								<path class="st6" d="M149,238.3c0-0.8,0.7-1.5,1.5-1.5s1.5,0.7,1.5,1.5c0,0.8-0.7,1.5-1.5,1.5S149,239.1,149,238.3z
									 M149.1,238.3c0,0.8,0.6,1.4,1.4,1.4s1.4-0.6,1.4-1.4c0-0.8-0.6-1.4-1.4-1.4S149.1,237.5,149.1,238.3z"/>
							</g>
							<g id="XMLID_6098_">
								<circle class="st11" cx="150.8" cy="237.9" r="0.2"/>
							</g>
							<g id="XMLID_6097_">
								<circle class="st11" cx="150.3" cy="238.9" r="0.2"/>
							</g>
							<g id="XMLID_6096_">
								
									<rect x="150" y="238.4" transform="matrix(-0.4371 0.8994 -0.8994 -0.4371 430.8743 207.1591)" class="st14" width="1.2" height="0.1"/>
							</g>
							<g id="XMLID_6095_">
								
									<rect x="149.9" y="238.3" transform="matrix(-0.4371 0.8994 -0.8994 -0.4371 430.6223 207.2021)" class="st14" width="1.2" height="0.1"/>
							</g>
							<g id="XMLID_6094_">
								
									<rect x="150" y="238.4" transform="matrix(-0.4371 0.8994 -0.8994 -0.4371 430.8743 207.1591)" class="st14" width="1.2" height="0.1"/>
							</g>
							<g id="XMLID_6093_">
								
									<rect x="149.9" y="238.3" transform="matrix(-0.4371 0.8994 -0.8994 -0.4371 430.6223 207.2021)" class="st14" width="1.2" height="0.1"/>
							</g>
							<g id="XMLID_6092_">
								<circle class="st11" cx="151.1" cy="238.7" r="0.2"/>
							</g>
							<g id="XMLID_6091_">
								<circle class="st11" cx="150" cy="238.2" r="0.2"/>
							</g>
							<g id="XMLID_6090_">
								
									<rect x="150.5" y="237.9" transform="matrix(-0.4374 0.8993 -0.8993 -0.4374 430.8448 207.4605)" class="st14" width="0.1" height="1.2"/>
							</g>
							<g id="XMLID_6089_">
								
									<rect x="150.5" y="237.8" transform="matrix(-0.4374 0.8993 -0.8993 -0.4374 430.8018 207.2085)" class="st14" width="0.1" height="1.2"/>
							</g>
						</g>
						<g id="XMLID_6072_">
							<g id="XMLID_6087_">
								<circle class="st8" cx="150.5" cy="248.6" r="1.8"/>
							</g>
							<g id="XMLID_6086_">
								<circle class="st10" cx="150.5" cy="248.5" r="1.7"/>
							</g>
							<g id="XMLID_6085_">
								<polygon class="st11" points="146.6,248.4 149.5,248 152.7,248.4 149.5,248.9 								"/>
								<path class="st12" d="M146.2,248.4l3.3-0.5l0,0l3.7,0.5l-3.7,0.5l0,0L146.2,248.4z M149.5,248.1l-2.5,0.4l2.4,0.4l2.8-0.4
									L149.5,248.1z"/>
							</g>
							<g id="XMLID_6084_">
								<circle class="st13" cx="150.5" cy="248.3" r="1.7"/>
								<path class="st14" d="M148.7,248.3c0-1,0.8-1.8,1.8-1.8c1,0,1.8,0.8,1.8,1.8s-0.8,1.8-1.8,1.8
									C149.5,250.1,148.7,249.3,148.7,248.3z M148.9,248.3c0,0.9,0.7,1.6,1.6,1.6c0.9,0,1.6-0.7,1.6-1.6c0-0.9-0.7-1.6-1.6-1.6
									C149.6,246.7,148.9,247.4,148.9,248.3z"/>
							</g>
							<g id="XMLID_6083_">
								<circle class="st13" cx="150.5" cy="248.3" r="1.5"/>
								<path class="st6" d="M149,248.3c0-0.8,0.7-1.5,1.5-1.5s1.5,0.7,1.5,1.5c0,0.8-0.7,1.5-1.5,1.5S149,249.1,149,248.3z
									 M149.1,248.3c0,0.8,0.6,1.4,1.4,1.4s1.4-0.6,1.4-1.4c0-0.8-0.6-1.4-1.4-1.4S149.1,247.5,149.1,248.3z"/>
							</g>
							<g id="XMLID_6082_">
								<circle class="st11" cx="150.8" cy="247.9" r="0.2"/>
							</g>
							<g id="XMLID_6081_">
								<circle class="st11" cx="150.3" cy="248.9" r="0.2"/>
							</g>
							<g id="XMLID_6080_">
								
									<rect x="150" y="248.3" transform="matrix(-0.4371 0.8994 -0.8994 -0.4371 439.8612 221.5184)" class="st14" width="1.2" height="0.1"/>
							</g>
							<g id="XMLID_6079_">
								
									<rect x="149.9" y="248.3" transform="matrix(-0.4371 0.8994 -0.8994 -0.4371 439.6092 221.5615)" class="st14" width="1.2" height="0.1"/>
							</g>
							<g id="XMLID_6078_">
								
									<rect x="150" y="248.3" transform="matrix(-0.4371 0.8994 -0.8994 -0.4371 439.8612 221.5184)" class="st14" width="1.2" height="0.1"/>
							</g>
							<g id="XMLID_6077_">
								
									<rect x="149.9" y="248.3" transform="matrix(-0.4371 0.8994 -0.8994 -0.4371 439.6092 221.5615)" class="st14" width="1.2" height="0.1"/>
							</g>
							<g id="XMLID_6076_">
								<circle class="st11" cx="151.1" cy="248.7" r="0.2"/>
							</g>
							<g id="XMLID_6075_">
								<circle class="st11" cx="150" cy="248.1" r="0.2"/>
							</g>
							<g id="XMLID_6074_">
								
									<rect x="150.5" y="247.9" transform="matrix(-0.4374 0.8993 -0.8993 -0.4374 439.8301 221.8232)" class="st14" width="0.1" height="1.2"/>
							</g>
							<g id="XMLID_6073_">
								
									<rect x="150.5" y="247.8" transform="matrix(-0.4374 0.8993 -0.8993 -0.4374 439.7871 221.5712)" class="st14" width="0.1" height="1.2"/>
							</g>
						</g>
					</g>
				</g>
				<g>
					<g>
						<line class="st4" x1="98.5" y1="216.3" x2="98.5" y2="216.8"/>
						<line class="st15" x1="98.5" y1="218.7" x2="98.5" y2="240.7"/>
						<line class="st4" x1="98.5" y1="241.7" x2="98.5" y2="242.2"/>
					</g>
				</g>
				<g>
					<path class="st8" d="M87.2,244.3c0,0,6.4-0.4,16.7-0.4s17,0.4,17,0.4l-0.7-0.5c0,0-14-0.9-17.1-0.9c-3.1-0.1-15.6,0.7-15.6,0.7
						L87.2,244.3z"/>
					<path class="st7" d="M87.2,244c0,0,6.4-0.4,16.7-0.4s17,0.4,17,0.4l-0.7-0.5c0,0-14-0.9-17.1-0.9c-3.1-0.1-15.6,0.7-15.6,0.7
						L87.2,244z"/>
					<path class="st8" d="M120.9,243.9c0,0-6.4,0.4-16.7,0.4s-17-0.4-17-0.4l0.7,0.5c0,0,14,0.9,17.1,0.9c3.1,0.1,15.6-0.7,15.6-0.7
						L120.9,243.9z"/>
					<path class="st7" d="M120.9,244.3c0,0-6.4,0.4-16.7,0.4s-17-0.4-17-0.4l0.7,0.5c0,0,14,0.9,17.1,0.9s15.6-1,15.6-1L120.9,244.3
						z"/>
					<path class="st3" d="M87,244v-0.6c0-0.3,0.3-0.5,0.6-0.5l12.1-0.5c2.8-0.1,5.6-0.1,8.4,0l12.2,0.5c0.3,0,0.6,0.2,0.6,0.5v0.6
						c0,0-9.9-0.4-17-0.4C97.4,243.6,87,244,87,244z"/>
					<path class="st16" d="M120.9,244.2v0.8c0,0.3-0.3,0.5-0.6,0.5l-12.1,0.7c-2.8,0.1-5.6,0.1-8.4,0l-12.3-0.7
						c-0.3,0-0.6-0.2-0.6-0.5v-0.8c0,0,1.6,1,17,1S120.9,244.2,120.9,244.2z"/>
				</g>
				<path class="st17" d="M112,241.5c0,0,0-59.1,0-65.1c0-19.1-17.9-38.8-17.9-38.8"/>
				<g>
					<path class="st9" d="M207.2,33.1c0,0-4.9,140.7,24.1,187.2l-53.9,17.5l0.1-132.4L193,31.3L207.2,33.1z"/>
					<g>
						<path class="st7" d="M205.8,146.1c0,0-2.4,33.5,6.9,47.3c3.3,4.8,10.8,10.2,12.1,13.8c3.7,10.4,6.7,13.2,6.7,13.2
							s-13.2,2.6-19.2-7.9c-5.9-10.5-14.9-55.5-14.9-55.5L205.8,146.1z"/>
						<path class="st6" d="M205.8,148c0,0-3.5,36,8.6,51.4c3.2,4.1,10.8,8.9,11.6,11.3c1.2,3.6,5.2,9.6,5.2,9.6s-12-1.4-18-11.9
							s-18-49.5-18-49.5L205.8,148z"/>
					</g>
					<path class="st3" d="M168.5,220.6L195.3,28l11.8,5.1c0,0-1.4,100.9-1.6,136.8c-0.2,34,26,50.4,26,50.4l1.4,35
						c0,0-19.5-0.1-39.9,5.8c-22.9,6.7-34.9,13.8-34.9,13.8l-15.1-19.9v-34.8l24.4,1C168,221.4,168.4,221.1,168.5,220.6z"/>
					<g>
						<g id="XMLID_6056_">
							<g id="XMLID_6071_">
								<circle class="st8" cx="149.5" cy="228.6" r="1.8"/>
							</g>
							<g id="XMLID_6070_">
								<circle class="st10" cx="149.5" cy="228.5" r="1.7"/>
							</g>
							<g id="XMLID_6069_">
								<polygon class="st11" points="153.4,228.4 150.5,228 147.3,228.4 150.5,228.9 								"/>
								<path class="st12" d="M150.5,228.9L150.5,228.9l-3.7-0.5l3.7-0.5l0,0l3.3,0.5L150.5,228.9z M147.7,228.4l2.8,0.4l2.4-0.4
									l-2.5-0.4L147.7,228.4z"/>
							</g>
							<g id="XMLID_6068_">
								<circle class="st13" cx="149.5" cy="228.3" r="1.7"/>
								<path class="st14" d="M149.5,230.1c-1,0-1.8-0.8-1.8-1.8s0.8-1.8,1.8-1.8c1,0,1.8,0.8,1.8,1.8S150.5,230.1,149.5,230.1z
									 M149.5,226.7c-0.9,0-1.6,0.7-1.6,1.6c0,0.9,0.7,1.6,1.6,1.6c0.9,0,1.6-0.7,1.6-1.6C151.1,227.4,150.4,226.7,149.5,226.7z"
									/>
							</g>
							<g id="XMLID_6067_">
								<circle class="st13" cx="149.5" cy="228.3" r="1.5"/>
								<path class="st6" d="M149.5,229.8c-0.8,0-1.5-0.7-1.5-1.5c0-0.8,0.7-1.5,1.5-1.5s1.5,0.7,1.5,1.5
									C151,229.1,150.3,229.8,149.5,229.8z M149.5,226.8c-0.8,0-1.4,0.6-1.4,1.4c0,0.8,0.6,1.4,1.4,1.4s1.4-0.6,1.4-1.4
									C150.9,227.5,150.3,226.8,149.5,226.8z"/>
							</g>
							<g id="XMLID_6066_">
								<circle class="st11" cx="149.2" cy="227.9" r="0.2"/>
							</g>
							<g id="XMLID_6065_">
								<circle class="st11" cx="149.7" cy="229" r="0.2"/>
							</g>
							<g id="XMLID_6064_">
								
									<rect x="148.8" y="228.4" transform="matrix(0.4371 0.8994 -0.8994 0.4371 289.5391 -5.7826)" class="st14" width="1.2" height="0.1"/>
							</g>
							<g id="XMLID_6063_">
								
									<rect x="148.9" y="228.3" transform="matrix(0.4371 0.8994 -0.8994 0.4371 289.5661 -5.9403)" class="st14" width="1.2" height="0.1"/>
							</g>
							<g id="XMLID_6062_">
								
									<rect x="148.8" y="228.4" transform="matrix(0.4371 0.8994 -0.8994 0.4371 289.5391 -5.7826)" class="st14" width="1.2" height="0.1"/>
							</g>
							<g id="XMLID_6061_">
								
									<rect x="148.9" y="228.3" transform="matrix(0.4371 0.8994 -0.8994 0.4371 289.5661 -5.9403)" class="st14" width="1.2" height="0.1"/>
							</g>
							<g id="XMLID_6060_">
								<circle class="st11" cx="148.9" cy="228.7" r="0.2"/>
							</g>
							<g id="XMLID_6059_">
								<circle class="st11" cx="150" cy="228.2" r="0.2"/>
							</g>
							<g id="XMLID_6058_">
								
									<rect x="149.4" y="227.9" transform="matrix(0.4374 0.8993 -0.8993 0.4374 289.5756 -5.8603)" class="st14" width="0.1" height="1.2"/>
							</g>
							<g id="XMLID_6057_">
								
									<rect x="149.4" y="227.8" transform="matrix(0.4374 0.8993 -0.8993 0.4374 289.418 -5.8872)" class="st14" width="0.1" height="1.2"/>
							</g>
						</g>
						<g id="XMLID_6040_">
							<g id="XMLID_6055_">
								<circle class="st8" cx="149.5" cy="238.6" r="1.8"/>
							</g>
							<g id="XMLID_6054_">
								<circle class="st10" cx="149.5" cy="238.5" r="1.7"/>
							</g>
							<g id="XMLID_6053_">
								<polygon class="st11" points="153.4,238.4 150.5,238 147.3,238.4 150.5,238.9 								"/>
								<path class="st12" d="M150.5,238.9L150.5,238.9l-3.7-0.5l3.7-0.5l0,0l3.3,0.5L150.5,238.9z M147.7,238.4l2.8,0.4l2.4-0.4
									l-2.5-0.4L147.7,238.4z"/>
							</g>
							<g id="XMLID_6052_">
								<circle class="st13" cx="149.5" cy="238.3" r="1.7"/>
								<path class="st14" d="M149.5,240.1c-1,0-1.8-0.8-1.8-1.8s0.8-1.8,1.8-1.8c1,0,1.8,0.8,1.8,1.8S150.5,240.1,149.5,240.1z
									 M149.5,236.7c-0.9,0-1.6,0.7-1.6,1.6c0,0.9,0.7,1.6,1.6,1.6c0.9,0,1.6-0.7,1.6-1.6C151.1,237.4,150.4,236.7,149.5,236.7z"
									/>
							</g>
							<g id="XMLID_6051_">
								<circle class="st13" cx="149.5" cy="238.3" r="1.5"/>
								<path class="st6" d="M149.5,239.8c-0.8,0-1.5-0.7-1.5-1.5c0-0.8,0.7-1.5,1.5-1.5s1.5,0.7,1.5,1.5
									C151,239.1,150.3,239.8,149.5,239.8z M149.5,236.8c-0.8,0-1.4,0.6-1.4,1.4c0,0.8,0.6,1.4,1.4,1.4s1.4-0.6,1.4-1.4
									C150.9,237.5,150.3,236.8,149.5,236.8z"/>
							</g>
							<g id="XMLID_6050_">
								<circle class="st11" cx="149.2" cy="237.9" r="0.2"/>
							</g>
							<g id="XMLID_6049_">
								<circle class="st11" cx="149.7" cy="238.9" r="0.2"/>
							</g>
							<g id="XMLID_6048_">
								
									<rect x="148.8" y="238.4" transform="matrix(0.4371 0.8994 -0.8994 0.4371 298.5261 -0.158)" class="st14" width="1.2" height="0.1"/>
							</g>
							<g id="XMLID_6047_">
								
									<rect x="148.9" y="238.3" transform="matrix(0.4371 0.8994 -0.8994 0.4371 298.553 -0.3157)" class="st14" width="1.2" height="0.1"/>
							</g>
							<g id="XMLID_6046_">
								
									<rect x="148.8" y="238.4" transform="matrix(0.4371 0.8994 -0.8994 0.4371 298.5261 -0.158)" class="st14" width="1.2" height="0.1"/>
							</g>
							<g id="XMLID_6045_">
								
									<rect x="148.9" y="238.3" transform="matrix(0.4371 0.8994 -0.8994 0.4371 298.553 -0.3157)" class="st14" width="1.2" height="0.1"/>
							</g>
							<g id="XMLID_6044_">
								<circle class="st11" cx="148.9" cy="238.7" r="0.2"/>
							</g>
							<g id="XMLID_6043_">
								<circle class="st11" cx="150" cy="238.2" r="0.2"/>
							</g>
							<g id="XMLID_6042_">
								
									<rect x="149.4" y="237.9" transform="matrix(0.4374 0.8993 -0.8993 0.4374 298.561 -0.2391)" class="st14" width="0.1" height="1.2"/>
							</g>
							<g id="XMLID_6041_">
								
									<rect x="149.4" y="237.8" transform="matrix(0.4374 0.8993 -0.8993 0.4374 298.4033 -0.266)" class="st14" width="0.1" height="1.2"/>
							</g>
						</g>
						<g id="XMLID_6024_">
							<g id="XMLID_6039_">
								<circle class="st8" cx="149.5" cy="248.6" r="1.8"/>
							</g>
							<g id="XMLID_6038_">
								<circle class="st10" cx="149.5" cy="248.5" r="1.7"/>
							</g>
							<g id="XMLID_6037_">
								<polygon class="st11" points="153.4,248.4 150.5,248 147.3,248.4 150.5,248.9 								"/>
								<path class="st12" d="M150.5,248.9L150.5,248.9l-3.7-0.5l3.7-0.5l0,0l3.3,0.5L150.5,248.9z M147.7,248.4l2.8,0.4l2.4-0.4
									l-2.5-0.4L147.7,248.4z"/>
							</g>
							<g id="XMLID_6036_">
								<circle class="st13" cx="149.5" cy="248.3" r="1.7"/>
								<path class="st14" d="M149.5,250.1c-1,0-1.8-0.8-1.8-1.8s0.8-1.8,1.8-1.8c1,0,1.8,0.8,1.8,1.8S150.5,250.1,149.5,250.1z
									 M149.5,246.7c-0.9,0-1.6,0.7-1.6,1.6c0,0.9,0.7,1.6,1.6,1.6c0.9,0,1.6-0.7,1.6-1.6C151.1,247.4,150.4,246.7,149.5,246.7z"
									/>
							</g>
							<g id="XMLID_6035_">
								<circle class="st13" cx="149.5" cy="248.3" r="1.5"/>
								<path class="st6" d="M149.5,249.8c-0.8,0-1.5-0.7-1.5-1.5c0-0.8,0.7-1.5,1.5-1.5s1.5,0.7,1.5,1.5
									C151,249.1,150.3,249.8,149.5,249.8z M149.5,246.8c-0.8,0-1.4,0.6-1.4,1.4c0,0.8,0.6,1.4,1.4,1.4s1.4-0.6,1.4-1.4
									C150.9,247.5,150.3,246.8,149.5,246.8z"/>
							</g>
							<g id="XMLID_6034_">
								<circle class="st11" cx="149.2" cy="247.9" r="0.2"/>
							</g>
							<g id="XMLID_6033_">
								<circle class="st11" cx="149.7" cy="248.9" r="0.2"/>
							</g>
							<g id="XMLID_6032_">
								
									<rect x="148.8" y="248.3" transform="matrix(0.4371 0.8994 -0.8994 0.4371 307.513 5.4666)" class="st14" width="1.2" height="0.1"/>
							</g>
							<g id="XMLID_6031_">
								
									<rect x="148.9" y="248.3" transform="matrix(0.4371 0.8994 -0.8994 0.4371 307.54 5.3089)" class="st14" width="1.2" height="0.1"/>
							</g>
							<g id="XMLID_6030_">
								
									<rect x="148.8" y="248.3" transform="matrix(0.4371 0.8994 -0.8994 0.4371 307.513 5.4666)" class="st14" width="1.2" height="0.1"/>
							</g>
							<g id="XMLID_6029_">
								
									<rect x="148.9" y="248.3" transform="matrix(0.4371 0.8994 -0.8994 0.4371 307.54 5.3089)" class="st14" width="1.2" height="0.1"/>
							</g>
							<g id="XMLID_6028_">
								<circle class="st11" cx="148.9" cy="248.7" r="0.2"/>
							</g>
							<g id="XMLID_6027_">
								<circle class="st11" cx="150" cy="248.1" r="0.2"/>
							</g>
							<g id="XMLID_6026_">
								
									<rect x="149.4" y="247.9" transform="matrix(0.4374 0.8993 -0.8993 0.4374 307.5463 5.3822)" class="st14" width="0.1" height="1.2"/>
							</g>
							<g id="XMLID_6025_">
								
									<rect x="149.4" y="247.8" transform="matrix(0.4374 0.8993 -0.8993 0.4374 307.3886 5.3553)" class="st14" width="0.1" height="1.2"/>
							</g>
						</g>
					</g>
					<g>
						<path class="st8" d="M150,221.1c0,0,19.9,5.4,20.8,4.5c1.2-1.1,26.6-196.8,26.6-196.8l-3.8-1.4l-35.6,189.4L150,221.1z"/>
						<path class="st7" d="M150,221.1c0,0,19.5,4,20.4,3.1c1.2-1.1,25.7-196,25.7-196h-2.6l-35.6,188.6L150,221.1z"/>
					</g>
					<path class="st3" d="M150,221.1L189.5,25l5.9,3l-25.8,194.7c-0.1,0.5-0.5,0.8-1,0.8L150,221.1z"/>
				</g>
				<g>
					<g>
						<line class="st4" x1="201.5" y1="216.3" x2="201.5" y2="216.8"/>
						<line class="st15" x1="201.5" y1="218.7" x2="201.5" y2="240.7"/>
						<line class="st4" x1="201.5" y1="241.7" x2="201.5" y2="242.2"/>
					</g>
				</g>
				<g>
					<path class="st8" d="M212.8,244.3c0,0-6.4-0.4-16.7-0.4c-10.3,0-17,0.4-17,0.4l0.7-0.5c0,0,14-0.9,17.1-0.9
						c3.1-0.1,15.6,0.7,15.6,0.7L212.8,244.3z"/>
					<path class="st7" d="M212.8,244c0,0-6.4-0.4-16.7-0.4c-10.3,0-17,0.4-17,0.4l0.7-0.5c0,0,14-0.9,17.1-0.9
						c3.1-0.1,15.6,0.7,15.6,0.7L212.8,244z"/>
					<path class="st8" d="M179.1,243.9c0,0,6.4,0.4,16.7,0.4c10.3,0,17-0.4,17-0.4l-0.7,0.5c0,0-14,0.9-17.1,0.9
						c-3.1,0.1-15.6-0.7-15.6-0.7L179.1,243.9z"/>
					<path class="st7" d="M179.1,244.3c0,0,6.4,0.4,16.7,0.4c10.3,0,17-0.4,17-0.4l-0.7,0.5c0,0-14,0.9-17.1,0.9
						c-3.1,0.1-15.6-1-15.6-1L179.1,244.3z"/>
					<path class="st3" d="M213,244v-0.6c0-0.3-0.3-0.5-0.6-0.5l-12.1-0.5c-2.8-0.1-5.6-0.1-8.4,0l-12.2,0.5c-0.3,0-0.6,0.2-0.6,0.5
						v0.6c0,0,9.9-0.4,17-0.4C202.6,243.6,213,244,213,244z"/>
					<path class="st16" d="M179.1,244.2v0.8c0,0.3,0.3,0.5,0.6,0.5l12.1,0.7c2.8,0.1,5.6,0.1,8.4,0l12.3-0.7c0.3,0,0.6-0.2,0.6-0.5
						v-0.8c0,0-1.6,1-17,1S179.1,244.2,179.1,244.2z"/>
				</g>
				<path class="st17" d="M188,241.5c0,0,0-59.1,0-65.1c0-19.1,17.9-38.8,17.9-38.8"/>
				<g>
					<path class="st8" d="M150,221.1c0,0-19.9,5.4-20.8,4.5c-1.2-1.1-26.6-196.8-26.6-196.8l3.8-1.4l35.6,189.4L150,221.1z"/>
					<path class="st7" d="M150,221.1c0,0-19.5,4-20.4,3.1c-1.2-1.1-25.7-196-25.7-196h2.6l35.6,188.6L150,221.1z"/>
				</g>
				<path class="st3" d="M150,221.1L110.5,25l-5.9,3l25.8,194.7c0.1,0.5,0.5,0.8,1,0.8L150,221.1z"/>
			</g>
		</g>
	</g>
	<g id="XMLID_1_" class="st0">
		<defs>
			<rect id="XMLID_4932_" x="-13.5" width="327.1" height="300"/>
		</defs>
		<clipPath id="XMLID_4_">
			<use xlink:href="#XMLID_4932_"  style="overflow:visible;"/>
		</clipPath>
	</g>
	<g class="st0">
		<path class="st18" d="M150.1,4.6c38.7,0,75.1,15.1,102.5,42.5c27.4,27.4,42.5,63.8,42.5,102.5s-15.1,75.1-42.5,102.5
			c-27.4,27.4-63.8,42.5-102.5,42.5S75,279.5,47.6,252.1C20.2,224.7,5.1,188.3,5.1,149.6S20.2,74.5,47.6,47.1
			C75,19.7,111.4,4.6,150.1,4.6 M150.1-0.4c-82.8,0-150,67.2-150,150s67.2,150,150,150s150-67.2,150-150S232.9-0.4,150.1-0.4
			L150.1-0.4z"/>
	</g>
</g>
</svg>
