<?xml version="1.0" encoding="utf-8"?>
<!-- Generator: Adobe Illustrator 19.0.0, SVG Export Plug-In . SVG Version: 6.00 Build 0)  -->
<svg version="1.1" id="Layer_1" xmlns="http://www.w3.org/2000/svg" xmlns:xlink="http://www.w3.org/1999/xlink" x="0px" y="0px"
	 viewBox="0 0 300 300" style="enable-background:new 0 0 300 300;" xml:space="preserve">
<style type="text/css">
	.st0{clip-path:url(#SVGID_2_);}
	.st1{clip-path:url(#XMLID_3_);}
	.st2{fill:#F1F1F2;stroke:#404041;stroke-linejoin:round;stroke-miterlimit:10;}
	.st3{fill:#FFFFFF;stroke:#404041;stroke-miterlimit:10;}
	.st4{fill:none;stroke:#808184;stroke-width:0.5;stroke-miterlimit:10;}
	.st5{fill:none;stroke:#808184;stroke-width:0.5;stroke-miterlimit:10;stroke-dasharray:0.9997,1.9994;}
	.st6{fill:#929497;}
	.st7{fill:#C5C7C9;}
	.st8{fill:#F1F1F2;}
	.st9{fill:#F1F1F2;stroke:#404041;stroke-miterlimit:10;}
	.st10{fill:#FFFFFF;stroke:#404041;stroke-linejoin:round;stroke-miterlimit:10;}
	.st11{fill:none;stroke:#808184;stroke-width:0.5;stroke-miterlimit:10;stroke-dasharray:1,2;}
	.st12{fill:#DBDCDD;}
	.st13{fill:#404041;}
	.st14{fill:#D0D2D3;}
	.st15{fill:#FFFFFF;}
	.st16{fill:#6D6E70;}
	.st17{fill:#9AA0BB;}
</style>
<g>
	<defs>
		<circle id="SVGID_1_" cx="150.1" cy="149.6" r="150"/>
	</defs>
	<use xlink:href="#SVGID_1_"  style="overflow:visible;fill:#DDDDDD;"/>
	<clipPath id="SVGID_2_">
		<use xlink:href="#SVGID_1_"  style="overflow:visible;"/>
	</clipPath>
	<g id="XMLID_4081_" class="st0">
		<defs>
			<rect id="XMLID_4118_" y="-0.4" width="300" height="300"/>
		</defs>
		<clipPath id="XMLID_3_">
			<use xlink:href="#XMLID_4118_"  style="overflow:visible;"/>
		</clipPath>
		<g class="st1">
			<path class="st2" d="M112.1,30c0,0,15.4,6.2,39.1,6.2s39.1-6.2,39.1-6.2l-9.5,146.4l-29,75l-30.7-75.5L112.1,30z"/>
			<path class="st3" d="M106.3,33c0,0,2.8,11.7,44.3,11.7S196.1,33,196.1,33l-5.8-3c0,0-15.9,6.2-39.1,6.2s-39-6.1-39-6.1L106.3,33z
				"/>
			<g>
				<g>
					<g>
						<line class="st4" x1="151.1" y1="45.9" x2="151.1" y2="46.4"/>
						<line class="st5" x1="151.1" y1="48.4" x2="151.1" y2="224.4"/>
						<line class="st4" x1="151.1" y1="225.4" x2="151.1" y2="225.9"/>
					</g>
				</g>
				<path class="st6" d="M141.4,48l0.7,0.7c0,0,4.9-0.4,9.1-0.4s9.4,0.4,9.4,0.4L161,48H141.4z"/>
				<path class="st7" d="M141.9,48.5l0.5,0.5c0,0,4.6-0.4,8.7-0.4c4.1,0,9.2,0.4,9.2,0.4l0.3-0.5l-9.5-0.2L141.9,48.5z"/>
				<path class="st3" d="M151.2,44.7c-4.3,0-7.9-0.1-10.8-0.3l1.2,3.6h9.5h0.1h9.5l1.2-3.6C159.1,44.5,155.5,44.7,151.2,44.7z"/>
			</g>
			<g>
				<path class="st6" d="M117.6,31.8c0,0-2.3,1.3-2.4,8.1l-1.2-0.5l-2-9.4C112.1,30,112.1,30.4,117.6,31.8z"/>
				<path class="st8" d="M116.2,31.4c0,0-2.7,6.8-0.3,8.4c0,0,0.6-8.1,2.2-8L116.2,31.4z"/>
				<path class="st7" d="M114.5,31c0,0-1.6,6.8,1.4,8.9c0,0-2-1.7,0.3-8.4L114.5,31z"/>
			</g>
			<g>
				<path class="st6" d="M184.7,31.8c0,0,2.3,1.3,2.4,8.1l1.2-0.5l2-9.4C190.2,30,190.2,30.4,184.7,31.8z"/>
				<path class="st8" d="M186.1,31.4c0,0,2.7,6.8,0.3,8.4c0,0-0.6-8.1-2.2-8L186.1,31.4z"/>
				<path class="st7" d="M187.8,31c0,0,1.6,6.8-1.4,8.9c0,0,2-1.7-0.3-8.4L187.8,31z"/>
			</g>
			<g>
				<path class="st7" d="M114.1,50.7c0,0,3.2,27.5,10.7,55.2c9.1,33.7,23,68.7,26.3,68.7c3.3,0,18.1-36.5,27.1-69.8
					c7.6-28.1,9.8-54.1,9.8-54.1l2.8-0.9l-0.6,2.6l-29.7,153.8l-8.9,15.3l-4.6-1.5l-3.7-12.9L130,138.1l-19.2-94.7l1.3,6.3
					L114.1,50.7z"/>
				<path class="st6" d="M114.1,55.5c0,0,5.5,37.2,14.1,70.3c6.9,26.4,18.1,49.6,22.9,49.6c4.4,0,16.2-22.7,22.9-48.8
					c8.6-33.3,14-71.1,14-71.1l2.8-0.9l-0.6,2.6l-29.7,153.8l-9.2,23.4l-4.3-9.5l-3.7-12.9l-14.9-67.6l-17.7-96.2l1.3,6.3
					L114.1,55.5z"/>
			</g>
			<g>
				<g>
					<path class="st9" d="M97.7,35.7c0,0-7,82.8-35.8,128.8l59.8,76.3l-0.1-131.1l-15.4-73.4L97.7,35.7z"/>
					<g>
						<path class="st7" d="M96.4,92.3c0,0,3.1,36.7-7.6,49.2c-6.1,7.1-22.4,14.1-23.7,17.6c-3.7,10.3,5.1,5.8,5.1,5.8
							s13.1,2.6,19-7.8c5.9-10.4,14.8-55,14.8-55L96.4,92.3z"/>
						<path class="st6" d="M96.4,94.1c0,0,4,34.5-7.3,50.3C83.6,152,64,160.6,64,160.6c-0.6,1.4-2,3.8-2,3.8s20.4-0.9,26.3-11.3
							s17.8-49.1,17.8-49.1L96.4,94.1z"/>
					</g>
					<path class="st10" d="M105,30l-7.3,5.7c0,0-1.8,55.7-1.5,91.3c0.2,33.7-34.2,37.5-34.2,37.5s4,17.5,6.4,44.8
						c2.4,26.8-1.6,48.9-1.6,48.9h77l12-14.6v-57.3c0,0-18.4-2.3-28.4-23.3S105,30,105,30z"/>
					<g>
						<path class="st8" d="M155.7,186.2c0,0-20.3,5.6-33.3-7.3c-8.8-8.7-12-36.1-13.3-71.3C107.8,72.3,105,30,105,30l2,1.7
							l15.2,125.5L155.7,186.2z"/>
						<path class="st7" d="M155.7,186.2c0,0-20.4,5.4-32.8-8c-8.4-9.1-10.5-36.8-12.9-72.2s-3.4-75.4-3.4-75.4l2.8,0.6l14.7,138
							L155.7,186.2z"/>
					</g>
					<path class="st10" d="M154.7,185.6c0,0-16-7.5-25.6-45S111,30,111,30h-6c0,0,6.6,113.7,14,138.4
						C126.3,192.9,154.7,185.6,154.7,185.6z"/>
					<g>
						<line class="st11" x1="97.5" y1="164.7" x2="97.5" y2="258.1"/>
						<polygon class="st8" points="78.2,230.6 78.2,228.8 117.1,229.3 117.1,231 						"/>
						<polygon class="st7" points="78.2,231.2 78.2,229.5 117.1,230 117.1,231.7 						"/>
						<path class="st3" d="M78.4,230.3v9.3c0,0.3,0.3,0.6,0.6,0.6l37.1,0.1c0.3,0,0.6-0.3,0.6-0.6v-8.9L78.4,230.3z"/>
						<line class="st11" x1="116.7" y1="231.1" x2="78.4" y2="230.7"/>
					</g>
				</g>
				<g>
					<polygon class="st8" points="134.2,184 130.6,185.5 134.9,258.1 142.3,259.4 138.9,198 137.1,185.5 					"/>
					<polygon class="st7" points="135.2,184 131.6,185.5 135.9,258.1 143.4,259.4 139.9,198 138.2,185.5 					"/>
				</g>
				<g>
					<polygon class="st8" points="147.5,176.6 138.9,184 142.9,184.7 149.5,178.5 					"/>
					<polygon class="st7" points="148.7,177.6 140.8,184.2 144.5,184.8 150.5,179.3 					"/>
				</g>
				<g>
					<path class="st9" d="M202.3,35.7c0,0,7,82.8,35.8,128.8l-59.8,76.3l0.1-131.1l15.4-73.4L202.3,35.7z"/>
					<g>
						<path class="st7" d="M203.6,92.3c0,0-3.1,36.7,7.6,49.2c6.1,7.1,22.4,14.1,23.7,17.6c3.7,10.3-5.1,5.8-5.1,5.8
							s-13.1,2.6-19-7.8c-5.9-10.4-14.8-55-14.8-55L203.6,92.3z"/>
						<path class="st6" d="M203.6,94.1c0,0-4,34.5,7.3,50.3c5.5,7.7,25.1,16.3,25.1,16.3c0.6,1.4,2,3.8,2,3.8s-20.4-0.9-26.3-11.3
							S194,104.1,194,104.1L203.6,94.1z"/>
					</g>
					<path class="st10" d="M195,30l7.3,5.7c0,0,1.8,55.7,1.5,91.3c-0.2,33.7,34.2,37.5,34.2,37.5s-4,17.5-6.4,44.8
						c-2.4,26.8,1.6,48.9,1.6,48.9l-95.8,1.2l-4.9-73.1c0,0,30.1-2.3,40.1-23.3S195,30,195,30z"/>
					<g>
						<g id="XMLID_827_">
							<g id="XMLID_1103_">
								<circle class="st8" cx="144.5" cy="195" r="1.8"/>
							</g>
							<g id="XMLID_1102_">
								<circle class="st12" cx="144.5" cy="194.9" r="1.7"/>
							</g>
							<g id="XMLID_1101_">
								<polygon class="st13" points="148.3,194.9 145.5,194.5 142.3,194.9 145.5,195.3 								"/>
								<path class="st14" d="M145.5,195.4L145.5,195.4l-3.7-0.5l3.7-0.5l0,0l3.3,0.5L145.5,195.4z M142.7,194.9l2.7,0.4l2.4-0.4
									l-2.4-0.4L142.7,194.9z"/>
							</g>
							<g id="XMLID_1100_">
								<circle class="st15" cx="144.5" cy="194.7" r="1.7"/>
								<path class="st16" d="M144.5,196.5c-1,0-1.8-0.8-1.8-1.8c0-1,0.8-1.8,1.8-1.8c1,0,1.8,0.8,1.8,1.8
									C146.3,195.7,145.5,196.5,144.5,196.5z M144.5,193.1c-0.9,0-1.6,0.7-1.6,1.6s0.7,1.6,1.6,1.6s1.6-0.7,1.6-1.6
									S145.4,193.1,144.5,193.1z"/>
							</g>
							<g id="XMLID_1099_">
								<circle class="st15" cx="144.5" cy="194.7" r="1.5"/>
								<path class="st6" d="M144.5,196.2c-0.8,0-1.5-0.7-1.5-1.5c0-0.8,0.7-1.5,1.5-1.5c0.8,0,1.5,0.7,1.5,1.5
									C146,195.5,145.3,196.2,144.5,196.2z M144.5,193.3c-0.8,0-1.4,0.6-1.4,1.4c0,0.8,0.6,1.4,1.4,1.4c0.8,0,1.4-0.6,1.4-1.4
									C145.9,193.9,145.3,193.3,144.5,193.3z"/>
							</g>
							<g id="XMLID_1098_">
								<circle class="st13" cx="144.2" cy="194.3" r="0.2"/>
							</g>
							<g id="XMLID_1097_">
								<circle class="st13" cx="144.7" cy="195.4" r="0.2"/>
							</g>
							<g id="XMLID_1096_">
								
									<rect x="143.8" y="194.8" transform="matrix(0.4371 0.8994 -0.8994 0.4371 256.5379 -20.1867)" class="st16" width="1.2" height="0.1"/>
							</g>
							<g id="XMLID_1095_">
								
									<rect x="144" y="194.7" transform="matrix(0.4371 0.8994 -0.8994 0.4371 256.5646 -20.3429)" class="st16" width="1.2" height="0.1"/>
							</g>
							<g id="XMLID_1094_">
								
									<rect x="143.8" y="194.8" transform="matrix(0.4371 0.8994 -0.8994 0.4371 256.5379 -20.1867)" class="st16" width="1.2" height="0.1"/>
							</g>
							<g id="XMLID_1093_">
								
									<rect x="144" y="194.7" transform="matrix(0.4371 0.8994 -0.8994 0.4371 256.5646 -20.3429)" class="st16" width="1.2" height="0.1"/>
							</g>
							<g id="XMLID_1092_">
								<circle class="st13" cx="144" cy="195.1" r="0.2"/>
							</g>
							<g id="XMLID_1091_">
								<circle class="st13" cx="145" cy="194.6" r="0.2"/>
							</g>
							<g id="XMLID_1090_">
								
									<rect x="144.4" y="194.4" transform="matrix(0.4374 0.8993 -0.8993 0.4374 256.5803 -20.2538)" class="st16" width="0.1" height="1.2"/>
							</g>
							<g id="XMLID_886_">
								
									<rect x="144.4" y="194.2" transform="matrix(0.4374 0.8993 -0.8993 0.4374 256.4242 -20.2804)" class="st16" width="0.1" height="1.2"/>
							</g>
						</g>
						<g id="XMLID_811_">
							<g id="XMLID_826_">
								<circle class="st8" cx="144.5" cy="220" r="1.8"/>
							</g>
							<g id="XMLID_825_">
								<circle class="st12" cx="144.5" cy="219.9" r="1.7"/>
							</g>
							<g id="XMLID_824_">
								<polygon class="st13" points="148.3,219.9 145.5,219.5 142.3,219.9 145.5,220.3 								"/>
								<path class="st14" d="M145.5,220.4L145.5,220.4l-3.7-0.5l3.7-0.5l0,0l3.3,0.5L145.5,220.4z M142.7,219.9l2.7,0.4l2.4-0.4
									l-2.4-0.4L142.7,219.9z"/>
							</g>
							<g id="XMLID_823_">
								<circle class="st15" cx="144.5" cy="219.7" r="1.7"/>
								<path class="st16" d="M144.5,221.5c-1,0-1.8-0.8-1.8-1.8c0-1,0.8-1.8,1.8-1.8c1,0,1.8,0.8,1.8,1.8
									C146.3,220.7,145.5,221.5,144.5,221.5z M144.5,218.1c-0.9,0-1.6,0.7-1.6,1.6s0.7,1.6,1.6,1.6s1.6-0.7,1.6-1.6
									S145.4,218.1,144.5,218.1z"/>
							</g>
							<g id="XMLID_822_">
								<circle class="st15" cx="144.5" cy="219.7" r="1.5"/>
								<path class="st6" d="M144.5,221.2c-0.8,0-1.5-0.7-1.5-1.5c0-0.8,0.7-1.5,1.5-1.5c0.8,0,1.5,0.7,1.5,1.5
									C146,220.5,145.3,221.2,144.5,221.2z M144.5,218.3c-0.8,0-1.4,0.6-1.4,1.4c0,0.8,0.6,1.4,1.4,1.4c0.8,0,1.4-0.6,1.4-1.4
									C145.9,218.9,145.3,218.3,144.5,218.3z"/>
							</g>
							<g id="XMLID_821_">
								<circle class="st13" cx="144.2" cy="219.3" r="0.2"/>
							</g>
							<g id="XMLID_820_">
								<circle class="st13" cx="144.7" cy="220.4" r="0.2"/>
							</g>
							<g id="XMLID_819_">
								
									<rect x="143.8" y="219.8" transform="matrix(0.4371 0.8994 -0.8994 0.4371 279.0158 -6.1186)" class="st16" width="1.2" height="0.1"/>
							</g>
							<g id="XMLID_818_">
								
									<rect x="144" y="219.7" transform="matrix(0.4371 0.8994 -0.8994 0.4371 279.0425 -6.2748)" class="st16" width="1.2" height="0.1"/>
							</g>
							<g id="XMLID_817_">
								
									<rect x="143.8" y="219.8" transform="matrix(0.4371 0.8994 -0.8994 0.4371 279.0158 -6.1186)" class="st16" width="1.2" height="0.1"/>
							</g>
							<g id="XMLID_816_">
								
									<rect x="144" y="219.7" transform="matrix(0.4371 0.8994 -0.8994 0.4371 279.0425 -6.2748)" class="st16" width="1.2" height="0.1"/>
							</g>
							<g id="XMLID_815_">
								<circle class="st13" cx="144" cy="220.1" r="0.2"/>
							</g>
							<g id="XMLID_814_">
								<circle class="st13" cx="145" cy="219.6" r="0.2"/>
							</g>
							<g id="XMLID_813_">
								
									<rect x="144.4" y="219.3" transform="matrix(0.4374 0.8993 -0.8993 0.4374 279.0542 -6.194)" class="st16" width="0.1" height="1.2"/>
							</g>
							<g id="XMLID_812_">
								
									<rect x="144.4" y="219.2" transform="matrix(0.4374 0.8993 -0.8993 0.4374 278.8981 -6.2207)" class="st16" width="0.1" height="1.2"/>
							</g>
						</g>
						<g id="XMLID_795_">
							<g id="XMLID_810_">
								<circle class="st8" cx="144.5" cy="245" r="1.8"/>
							</g>
							<g id="XMLID_809_">
								<circle class="st12" cx="144.5" cy="244.9" r="1.7"/>
							</g>
							<g id="XMLID_808_">
								<polygon class="st13" points="148.3,244.9 145.5,244.4 142.3,244.9 145.5,245.3 								"/>
								<path class="st14" d="M145.5,245.4L145.5,245.4l-3.7-0.5l3.7-0.5l0,0l3.3,0.5L145.5,245.4z M142.7,244.9l2.7,0.4l2.4-0.4
									l-2.4-0.4L142.7,244.9z"/>
							</g>
							<g id="XMLID_807_">
								<circle class="st15" cx="144.5" cy="244.7" r="1.7"/>
								<path class="st16" d="M144.5,246.5c-1,0-1.8-0.8-1.8-1.8c0-1,0.8-1.8,1.8-1.8c1,0,1.8,0.8,1.8,1.8
									C146.3,245.7,145.5,246.5,144.5,246.5z M144.5,243.1c-0.9,0-1.6,0.7-1.6,1.6s0.7,1.6,1.6,1.6s1.6-0.7,1.6-1.6
									S145.4,243.1,144.5,243.1z"/>
							</g>
							<g id="XMLID_806_">
								<circle class="st15" cx="144.5" cy="244.7" r="1.5"/>
								<path class="st6" d="M144.5,246.2c-0.8,0-1.5-0.7-1.5-1.5c0-0.8,0.7-1.5,1.5-1.5c0.8,0,1.5,0.7,1.5,1.5
									C146,245.5,145.3,246.2,144.5,246.2z M144.5,243.3c-0.8,0-1.4,0.6-1.4,1.4c0,0.8,0.6,1.4,1.4,1.4c0.8,0,1.4-0.6,1.4-1.4
									C145.9,243.9,145.3,243.3,144.5,243.3z"/>
							</g>
							<g id="XMLID_805_">
								<circle class="st13" cx="144.2" cy="244.3" r="0.2"/>
							</g>
							<g id="XMLID_804_">
								<circle class="st13" cx="144.7" cy="245.4" r="0.2"/>
							</g>
							<g id="XMLID_803_">
								
									<rect x="143.8" y="244.8" transform="matrix(0.4371 0.8994 -0.8994 0.4371 301.4938 7.9495)" class="st16" width="1.2" height="0.1"/>
							</g>
							<g id="XMLID_802_">
								
									<rect x="144" y="244.7" transform="matrix(0.4371 0.8994 -0.8994 0.4371 301.5205 7.7933)" class="st16" width="1.2" height="0.1"/>
							</g>
							<g id="XMLID_801_">
								
									<rect x="143.8" y="244.8" transform="matrix(0.4371 0.8994 -0.8994 0.4371 301.4938 7.9495)" class="st16" width="1.2" height="0.1"/>
							</g>
							<g id="XMLID_800_">
								
									<rect x="144" y="244.7" transform="matrix(0.4371 0.8994 -0.8994 0.4371 301.5205 7.7933)" class="st16" width="1.2" height="0.1"/>
							</g>
							<g id="XMLID_799_">
								<circle class="st13" cx="144" cy="245.1" r="0.2"/>
							</g>
							<g id="XMLID_798_">
								<circle class="st13" cx="145" cy="244.6" r="0.2"/>
							</g>
							<g id="XMLID_797_">
								
									<rect x="144.4" y="244.3" transform="matrix(0.4374 0.8993 -0.8993 0.4374 301.5281 7.8657)" class="st16" width="0.1" height="1.2"/>
							</g>
							<g id="XMLID_796_">
								
									<rect x="144.4" y="244.2" transform="matrix(0.4374 0.8993 -0.8993 0.4374 301.372 7.8391)" class="st16" width="0.1" height="1.2"/>
							</g>
						</g>
					</g>
					<g>
						<g id="XMLID_779_">
							<g id="XMLID_794_">
								<circle class="st8" cx="164.6" cy="195" r="1.8"/>
							</g>
							<g id="XMLID_793_">
								<circle class="st12" cx="164.6" cy="194.9" r="1.7"/>
							</g>
							<g id="XMLID_792_">
								<polygon class="st13" points="168.4,194.9 165.6,194.5 162.4,194.9 165.6,195.3 								"/>
								<path class="st14" d="M165.6,195.4L165.6,195.4l-3.7-0.5l3.7-0.5l0,0l3.3,0.5L165.6,195.4z M162.9,194.9l2.7,0.4l2.4-0.4
									l-2.4-0.4L162.9,194.9z"/>
							</g>
							<g id="XMLID_791_">
								<circle class="st15" cx="164.6" cy="194.7" r="1.7"/>
								<path class="st16" d="M164.6,196.5c-1,0-1.8-0.8-1.8-1.8c0-1,0.8-1.8,1.8-1.8c1,0,1.8,0.8,1.8,1.8
									C166.4,195.7,165.6,196.5,164.6,196.5z M164.6,193.1c-0.9,0-1.6,0.7-1.6,1.6s0.7,1.6,1.6,1.6s1.6-0.7,1.6-1.6
									S165.5,193.1,164.6,193.1z"/>
							</g>
							<g id="XMLID_790_">
								<circle class="st15" cx="164.6" cy="194.7" r="1.5"/>
								<path class="st6" d="M164.6,196.2c-0.8,0-1.5-0.7-1.5-1.5c0-0.8,0.7-1.5,1.5-1.5s1.5,0.7,1.5,1.5
									C166.1,195.5,165.4,196.2,164.6,196.2z M164.6,193.3c-0.8,0-1.4,0.6-1.4,1.4c0,0.8,0.6,1.4,1.4,1.4c0.8,0,1.4-0.6,1.4-1.4
									C166,193.9,165.4,193.3,164.6,193.3z"/>
							</g>
							<g id="XMLID_789_">
								<circle class="st13" cx="164.3" cy="194.3" r="0.2"/>
							</g>
							<g id="XMLID_788_">
								<circle class="st13" cx="164.8" cy="195.4" r="0.2"/>
							</g>
							<g id="XMLID_787_">
								
									<rect x="163.9" y="194.8" transform="matrix(0.4371 0.8994 -0.8994 0.4371 267.8594 -38.2761)" class="st16" width="1.2" height="0.1"/>
							</g>
							<g id="XMLID_786_">
								
									<rect x="164.1" y="194.7" transform="matrix(0.4371 0.8994 -0.8994 0.4371 267.886 -38.4323)" class="st16" width="1.2" height="0.1"/>
							</g>
							<g id="XMLID_785_">
								
									<rect x="163.9" y="194.8" transform="matrix(0.4371 0.8994 -0.8994 0.4371 267.8594 -38.2761)" class="st16" width="1.2" height="0.1"/>
							</g>
							<g id="XMLID_784_">
								
									<rect x="164.1" y="194.7" transform="matrix(0.4371 0.8994 -0.8994 0.4371 267.886 -38.4323)" class="st16" width="1.2" height="0.1"/>
							</g>
							<g id="XMLID_783_">
								<circle class="st13" cx="164.1" cy="195.1" r="0.2"/>
							</g>
							<g id="XMLID_782_">
								<circle class="st13" cx="165.1" cy="194.6" r="0.2"/>
							</g>
							<g id="XMLID_781_">
								
									<rect x="164.5" y="194.4" transform="matrix(0.4374 0.8993 -0.8993 0.4374 267.8951 -38.3399)" class="st16" width="0.1" height="1.2"/>
							</g>
							<g id="XMLID_780_">
								
									<rect x="164.5" y="194.2" transform="matrix(0.4374 0.8993 -0.8993 0.4374 267.739 -38.3666)" class="st16" width="0.1" height="1.2"/>
							</g>
						</g>
						<g id="XMLID_763_">
							<g id="XMLID_778_">
								<circle class="st8" cx="164.6" cy="220" r="1.8"/>
							</g>
							<g id="XMLID_777_">
								<circle class="st12" cx="164.6" cy="219.9" r="1.7"/>
							</g>
							<g id="XMLID_776_">
								<polygon class="st13" points="168.4,219.9 165.6,219.5 162.4,219.9 165.6,220.3 								"/>
								<path class="st14" d="M165.6,220.4L165.6,220.4l-3.7-0.5l3.7-0.5l0,0l3.3,0.5L165.6,220.4z M162.9,219.9l2.7,0.4l2.4-0.4
									l-2.4-0.4L162.9,219.9z"/>
							</g>
							<g id="XMLID_775_">
								<circle class="st15" cx="164.6" cy="219.7" r="1.7"/>
								<path class="st16" d="M164.6,221.5c-1,0-1.8-0.8-1.8-1.8c0-1,0.8-1.8,1.8-1.8c1,0,1.8,0.8,1.8,1.8
									C166.4,220.7,165.6,221.5,164.6,221.5z M164.6,218.1c-0.9,0-1.6,0.7-1.6,1.6s0.7,1.6,1.6,1.6s1.6-0.7,1.6-1.6
									S165.5,218.1,164.6,218.1z"/>
							</g>
							<g id="XMLID_774_">
								<circle class="st15" cx="164.6" cy="219.7" r="1.5"/>
								<path class="st6" d="M164.6,221.2c-0.8,0-1.5-0.7-1.5-1.5c0-0.8,0.7-1.5,1.5-1.5s1.5,0.7,1.5,1.5
									C166.1,220.5,165.4,221.2,164.6,221.2z M164.6,218.3c-0.8,0-1.4,0.6-1.4,1.4c0,0.8,0.6,1.4,1.4,1.4c0.8,0,1.4-0.6,1.4-1.4
									C166,218.9,165.4,218.3,164.6,218.3z"/>
							</g>
							<g id="XMLID_773_">
								<circle class="st13" cx="164.3" cy="219.3" r="0.2"/>
							</g>
							<g id="XMLID_772_">
								<circle class="st13" cx="164.8" cy="220.4" r="0.2"/>
							</g>
							<g id="XMLID_771_">
								
									<rect x="163.9" y="219.8" transform="matrix(0.4371 0.8994 -0.8994 0.4371 290.3373 -24.2081)" class="st16" width="1.2" height="0.1"/>
							</g>
							<g id="XMLID_770_">
								
									<rect x="164.1" y="219.7" transform="matrix(0.4371 0.8994 -0.8994 0.4371 290.364 -24.3642)" class="st16" width="1.2" height="0.1"/>
							</g>
							<g id="XMLID_769_">
								
									<rect x="163.9" y="219.8" transform="matrix(0.4371 0.8994 -0.8994 0.4371 290.3373 -24.2081)" class="st16" width="1.2" height="0.1"/>
							</g>
							<g id="XMLID_768_">
								
									<rect x="164.1" y="219.7" transform="matrix(0.4371 0.8994 -0.8994 0.4371 290.364 -24.3642)" class="st16" width="1.2" height="0.1"/>
							</g>
							<g id="XMLID_767_">
								<circle class="st13" cx="164.1" cy="220.1" r="0.2"/>
							</g>
							<g id="XMLID_766_">
								<circle class="st13" cx="165.1" cy="219.6" r="0.2"/>
							</g>
							<g id="XMLID_765_">
								
									<rect x="164.5" y="219.3" transform="matrix(0.4374 0.8993 -0.8993 0.4374 290.369 -24.2802)" class="st16" width="0.1" height="1.2"/>
							</g>
							<g id="XMLID_764_">
								
									<rect x="164.5" y="219.2" transform="matrix(0.4374 0.8993 -0.8993 0.4374 290.2128 -24.3069)" class="st16" width="0.1" height="1.2"/>
							</g>
						</g>
						<g id="XMLID_747_">
							<g id="XMLID_762_">
								<circle class="st8" cx="164.6" cy="245" r="1.8"/>
							</g>
							<g id="XMLID_761_">
								<circle class="st12" cx="164.6" cy="244.9" r="1.7"/>
							</g>
							<g id="XMLID_760_">
								<polygon class="st13" points="168.4,244.9 165.6,244.4 162.4,244.9 165.6,245.3 								"/>
								<path class="st14" d="M165.6,245.4L165.6,245.4l-3.7-0.5l3.7-0.5l0,0l3.3,0.5L165.6,245.4z M162.9,244.9l2.7,0.4l2.4-0.4
									l-2.4-0.4L162.9,244.9z"/>
							</g>
							<g id="XMLID_759_">
								<circle class="st15" cx="164.6" cy="244.7" r="1.7"/>
								<path class="st16" d="M164.6,246.5c-1,0-1.8-0.8-1.8-1.8c0-1,0.8-1.8,1.8-1.8c1,0,1.8,0.8,1.8,1.8
									C166.4,245.7,165.6,246.5,164.6,246.5z M164.6,243.1c-0.9,0-1.6,0.7-1.6,1.6s0.7,1.6,1.6,1.6s1.6-0.7,1.6-1.6
									S165.5,243.1,164.6,243.1z"/>
							</g>
							<g id="XMLID_758_">
								<circle class="st15" cx="164.6" cy="244.7" r="1.5"/>
								<path class="st6" d="M164.6,246.2c-0.8,0-1.5-0.7-1.5-1.5c0-0.8,0.7-1.5,1.5-1.5s1.5,0.7,1.5,1.5
									C166.1,245.5,165.4,246.2,164.6,246.2z M164.6,243.3c-0.8,0-1.4,0.6-1.4,1.4c0,0.8,0.6,1.4,1.4,1.4c0.8,0,1.4-0.6,1.4-1.4
									C166,243.9,165.4,243.3,164.6,243.3z"/>
							</g>
							<g id="XMLID_757_">
								<circle class="st13" cx="164.3" cy="244.3" r="0.2"/>
							</g>
							<g id="XMLID_756_">
								<circle class="st13" cx="164.8" cy="245.4" r="0.2"/>
							</g>
							<g id="XMLID_755_">
								
									<rect x="163.9" y="244.8" transform="matrix(0.4371 0.8994 -0.8994 0.4371 312.8153 -10.14)" class="st16" width="1.2" height="0.1"/>
							</g>
							<g id="XMLID_754_">
								
									<rect x="164.1" y="244.7" transform="matrix(0.4371 0.8994 -0.8994 0.4371 312.8419 -10.2961)" class="st16" width="1.2" height="0.1"/>
							</g>
							<g id="XMLID_753_">
								
									<rect x="163.9" y="244.8" transform="matrix(0.4371 0.8994 -0.8994 0.4371 312.8153 -10.14)" class="st16" width="1.2" height="0.1"/>
							</g>
							<g id="XMLID_752_">
								
									<rect x="164.1" y="244.7" transform="matrix(0.4371 0.8994 -0.8994 0.4371 312.8419 -10.2961)" class="st16" width="1.2" height="0.1"/>
							</g>
							<g id="XMLID_751_">
								<circle class="st13" cx="164.1" cy="245.1" r="0.2"/>
							</g>
							<g id="XMLID_750_">
								<circle class="st13" cx="165.1" cy="244.6" r="0.2"/>
							</g>
							<g id="XMLID_749_">
								
									<rect x="164.5" y="244.3" transform="matrix(0.4374 0.8993 -0.8993 0.4374 312.8429 -10.2205)" class="st16" width="0.1" height="1.2"/>
							</g>
							<g id="XMLID_748_">
								
									<rect x="164.5" y="244.2" transform="matrix(0.4374 0.8993 -0.8993 0.4374 312.6867 -10.2471)" class="st16" width="0.1" height="1.2"/>
							</g>
						</g>
					</g>
					<g>
						<path class="st8" d="M137.5,186.2c0,0,28.1,6.1,41.2-6.7c8.8-8.7,11-36.6,12.3-71.8C192.2,72.3,195,30,195,30l-2,1.7
							l-15.2,125.5l-30.3,26.2L137.5,186.2z"/>
						<path class="st7" d="M137.5,186.2c0,0,25.1,4.8,39.6-8c9.3-8.2,10.5-36.8,12.9-72.2s3.4-75.4,3.4-75.4l-2.8,0.6l-14.7,138
							L137.5,186.2z"/>
					</g>
					<path class="st10" d="M132.6,186.3c0,0,28.7-8.2,38.3-45.6S189,30,189,30h6c0,0-6.6,113.7-14,138.4
						C175.2,188.2,132.6,186.3,132.6,186.3z"/>
					<g>
						<line class="st11" x1="202.5" y1="164.7" x2="202.5" y2="260"/>
						<polygon class="st8" points="221.8,230.6 221.8,228.8 182.9,229.3 182.9,231 						"/>
						<polygon class="st7" points="221.8,231.2 221.8,229.5 182.9,230 182.9,231.7 						"/>
						<path class="st3" d="M221.6,230.3v9.3c0,0.3-0.3,0.6-0.6,0.6l-37.1,0.1c-0.3,0-0.6-0.3-0.6-0.6v-8.9L221.6,230.3z"/>
						<line class="st11" x1="183.3" y1="231.1" x2="221.6" y2="230.7"/>
					</g>
				</g>
			</g>
		</g>
	</g>
	<g id="XMLID_1_" class="st0">
		<defs>
			<rect id="XMLID_4932_" x="-13.5" width="327.1" height="300"/>
		</defs>
		<clipPath id="XMLID_4_">
			<use xlink:href="#XMLID_4932_"  style="overflow:visible;"/>
		</clipPath>
	</g>
	<g class="st0">
		<path class="st17" d="M150.1,4.6c38.7,0,75.1,15.1,102.5,42.5c27.4,27.4,42.5,63.8,42.5,102.5s-15.1,75.1-42.5,102.5
			c-27.4,27.4-63.8,42.5-102.5,42.5S75,279.5,47.6,252.1C20.2,224.7,5.1,188.3,5.1,149.6S20.2,74.5,47.6,47.1
			C75,19.7,111.4,4.6,150.1,4.6 M150.1-0.4c-82.8,0-150,67.2-150,150s67.2,150,150,150s150-67.2,150-150S232.9-0.4,150.1-0.4
			L150.1-0.4z"/>
	</g>
</g>
</svg>
